solid OpenSCAD_Model
  facet normal 0.0829132 -0.11412 0.990001
    outer loop
      vertex 34.4808 -19.2132 4.6985
      vertex 32.3429 -16.8387 5.15127
      vertex 33.6642 -19.8065 4.6985
    endloop
  endfacet
  facet normal 0.379198 0.218931 0.899043
    outer loop
      vertex 39.7084 21.7704 2.53276
      vertex 37.5704 20.2171 3.81276
      vertex 38.3871 18.8026 3.81276
    endloop
  endfacet
  facet normal 0.743145 0.669131 0
    outer loop
      vertex 41.0365 22.7353 0
      vertex 39.3443 24.6147 0
      vertex 39.3443 24.6147 1.3173
    endloop
  endfacet
  facet normal 0.207912 0.978148 -0
    outer loop
      vertex 34.9881 27.1297 0
      vertex 32.5145 27.6555 1.3173
      vertex 34.9881 27.1297 1.3173
    endloop
  endfacet
  facet normal -0.140288 -0.0147447 0.990001
    outer loop
      vertex -32.8833 -15.625 5.15127
      vertex -36.0784 -15.625 4.6985
      vertex -32.8476 -15.9646 5.15127
    endloop
  endfacet
  facet normal 0.0573751 -0.128864 0.990001
    outer loop
      vertex 32.0666 -17.0394 5.15127
      vertex 31.7547 -17.1783 5.15127
      vertex 33.6642 -19.8065 4.6985
    endloop
  endfacet
  facet normal 0.271991 0.0883752 0.958233
    outer loop
      vertex 38.3871 18.8026 3.81276
      vertex 35.9729 16.6289 4.6985
      vertex 38.8918 17.2493 3.81276
    endloop
  endfacet
  facet normal 0.593895 0.0624207 0.802118
    outer loop
      vertex 43.3468 15.625 1.3173
      vertex 41.4767 17.7987 2.53276
      vertex 41.7052 15.625 2.53276
    endloop
  endfacet
  facet normal 0.567939 0.184533 0.802118
    outer loop
      vertex 42.301 20.5452 1.3173
      vertex 41.4767 17.7987 2.53276
      vertex 42.4691 20.0277 1.3173
    endloop
  endfacet
  facet normal -0.587785 0.809017 0
    outer loop
      vertex -37.2984 26.1011 0
      vertex -39.3443 24.6147 0
      vertex -39.3443 24.6147 1.3173
    endloop
  endfacet
  facet normal 0.212531 0.191364 0.958233
    outer loop
      vertex 36.4776 21.4308 3.81276
      vertex 34.4808 19.2132 4.6985
      vertex 35.1562 18.4631 4.6985
    endloop
  endfacet
  facet normal 0.1681 -0.231369 0.958233
    outer loop
      vertex 34.4808 -19.2132 4.6985
      vertex 33.6642 -19.8065 4.6985
      vertex 36.4776 -21.4308 3.81276
    endloop
  endfacet
  facet normal -0.325394 -0.292986 0.899043
    outer loop
      vertex -36.4776 -21.4308 3.81276
      vertex -39.7084 -21.7704 2.53276
      vertex -38.2459 -23.3947 2.53276
    endloop
  endfacet
  facet normal 0.435462 0.0457692 0.899043
    outer loop
      vertex 41.4767 17.7987 2.53276
      vertex 38.8918 17.2493 3.81276
      vertex 39.0625 15.625 3.81276
    endloop
  endfacet
  facet normal 0.325394 0.292986 0.899043
    outer loop
      vertex 38.2459 23.3947 2.53276
      vertex 36.4776 21.4308 3.81276
      vertex 39.7084 21.7704 2.53276
    endloop
  endfacet
  facet normal 0.866025 0.5 -0
    outer loop
      vertex 42.301 20.5452 0
      vertex 41.0365 22.7353 0
      vertex 42.301 20.5452 1.3173
    endloop
  endfacet
  facet normal 0.567939 0.184534 0.802118
    outer loop
      vertex 42.301 20.5452 1.3173
      vertex 40.8013 19.8775 2.53276
      vertex 41.4767 17.7987 2.53276
    endloop
  endfacet
  facet normal 0.435463 0.0457688 0.899043
    outer loop
      vertex 41.4767 17.7987 2.53276
      vertex 39.0625 15.625 3.81276
      vertex 41.7052 15.625 2.53276
    endloop
  endfacet
  facet normal -0.116322 -0.261263 0.958233
    outer loop
      vertex -33.6642 -19.8065 4.6985
      vertex -35.1562 -22.3908 3.81276
      vertex -33.6642 -23.0551 3.81276
    endloop
  endfacet
  facet normal 0.140288 0.0147446 0.990001
    outer loop
      vertex 35.9729 16.6289 4.6985
      vertex 32.8476 15.9646 5.15127
      vertex 36.0784 15.625 4.6985
    endloop
  endfacet
  facet normal 0.104828 0.0943878 0.990001
    outer loop
      vertex 34.4808 19.2132 4.6985
      vertex 32.3429 16.8387 5.15127
      vertex 35.1562 18.4631 4.6985
    endloop
  endfacet
  facet normal 0.593895 -0.0624208 0.802118
    outer loop
      vertex 43.3468 -15.625 1.3173
      vertex 41.4767 -17.7987 2.53276
      vertex 43.0824 -18.1401 1.3173
    endloop
  endfacet
  facet normal 0 -0.597166 0.802118
    outer loop
      vertex -32.3429 -26.0229 2.53276
      vertex 32.5145 -27.6555 1.3173
      vertex 32.3429 -26.0229 2.53276
    endloop
  endfacet
  facet normal 0 -0.597166 0.802118
    outer loop
      vertex 32.5145 -27.6555 1.3173
      vertex -32.3429 -26.0229 2.53276
      vertex -32.5145 -27.6555 1.3173
    endloop
  endfacet
  facet normal -0.866025 -0.5 7.23963e-07
    outer loop
      vertex -41.0365 -22.7353 1.3173
      vertex -42.301 -20.5452 1.3173
      vertex -41.0365 -22.7353 0
    endloop
  endfacet
  facet normal -0.443781 -0.399582 0.802118
    outer loop
      vertex -38.2459 -23.3947 2.53276
      vertex -39.7084 -21.7704 2.53276
      vertex -39.3443 -24.6147 1.3173
    endloop
  endfacet
  facet normal 0.994522 0.104528 0
    outer loop
      vertex 43.3468 15.625 1.3173
      vertex 43.0824 18.1401 0
      vertex 43.0824 18.1401 1.3173
    endloop
  endfacet
  facet normal 0.994522 0.104528 0
    outer loop
      vertex 43.0824 18.1401 0
      vertex 43.3468 15.625 1.3173
      vertex 43.3468 15.625 0
    endloop
  endfacet
  facet normal 0.271991 0.0883751 0.958233
    outer loop
      vertex 38.3871 18.8026 3.81276
      vertex 35.661 17.5889 4.6985
      vertex 35.9729 16.6289 4.6985
    endloop
  endfacet
  facet normal 0.284422 0.0298936 0.958233
    outer loop
      vertex 39.0625 15.625 3.81276
      vertex 35.9729 16.6289 4.6985
      vertex 36.0784 15.625 4.6985
    endloop
  endfacet
  facet normal 0.325394 0.292986 0.899043
    outer loop
      vertex 39.7084 21.7704 2.53276
      vertex 36.4776 21.4308 3.81276
      vertex 37.5704 20.2171 3.81276
    endloop
  endfacet
  facet normal 0.1681 0.231369 0.958233
    outer loop
      vertex 35.1562 22.3908 3.81276
      vertex 33.6642 19.8065 4.6985
      vertex 36.4776 21.4308 3.81276
    endloop
  endfacet
  facet normal 0.116322 0.261263 0.958233
    outer loop
      vertex 33.6642 23.0551 3.81276
      vertex 32.7421 20.2171 4.6985
      vertex 33.6642 19.8065 4.6985
    endloop
  endfacet
  facet normal 0.0573751 0.128864 0.990001
    outer loop
      vertex 33.6642 19.8065 4.6985
      vertex 31.7547 17.1783 5.15127
      vertex 32.0666 17.0394 5.15127
    endloop
  endfacet
  facet normal -0.0594607 0.279739 0.958233
    outer loop
      vertex -31.7547 20.4269 4.6985
      vertex -33.6642 23.0551 3.81276
      vertex -32.7421 20.2171 4.6985
    endloop
  endfacet
  facet normal 0.406737 0.913545 -0
    outer loop
      vertex 34.9881 27.1297 0
      vertex 34.9881 27.1297 1.3173
      vertex 37.2984 26.1011 1.3173
    endloop
  endfacet
  facet normal 0.951057 0.309016 0
    outer loop
      vertex 43.0824 18.1401 1.3173
      vertex 42.301 20.5452 0
      vertex 42.301 20.5452 1.3173
    endloop
  endfacet
  facet normal 0.951057 0.309016 0
    outer loop
      vertex 42.301 20.5452 0
      vertex 43.0824 18.1401 1.3173
      vertex 43.0824 18.1401 0
    endloop
  endfacet
  facet normal 0.743148 0.669127 8.16722e-06
    outer loop
      vertex 41.0365 22.7353 0
      vertex 39.3443 24.6147 1.3173
      vertex 39.7084 24.2103 1.3173
    endloop
  endfacet
  facet normal 0.443781 0.399582 0.802118
    outer loop
      vertex 39.3443 24.6147 1.3173
      vertex 38.2459 23.3947 2.53276
      vertex 39.7084 21.7704 2.53276
    endloop
  endfacet
  facet normal 0.517161 0.298584 0.802118
    outer loop
      vertex 42.301 20.5452 1.3173
      vertex 39.7084 21.7704 2.53276
      vertex 40.8013 19.8775 2.53276
    endloop
  endfacet
  facet normal 0.379198 0.218931 0.899043
    outer loop
      vertex 39.7084 21.7704 2.53276
      vertex 38.3871 18.8026 3.81276
      vertex 40.8013 19.8775 2.53276
    endloop
  endfacet
  facet normal -0.593895 0.0624207 0.802118
    outer loop
      vertex -41.4767 17.7987 2.53276
      vertex -43.3468 15.625 1.3173
      vertex -41.7052 15.625 2.53276
    endloop
  endfacet
  facet normal 0.178094 -0.400006 0.899043
    outer loop
      vertex 35.1562 -22.3908 3.81276
      vertex 33.6642 -23.0551 3.81276
      vertex 34.4808 -25.5685 2.53276
    endloop
  endfacet
  facet normal 0.416431 0.135306 0.899043
    outer loop
      vertex 40.8013 19.8775 2.53276
      vertex 38.8918 17.2493 3.81276
      vertex 41.4767 17.7987 2.53276
    endloop
  endfacet
  facet normal 0.41643 0.135306 0.899043
    outer loop
      vertex 40.8013 19.8775 2.53276
      vertex 38.3871 18.8026 3.81276
      vertex 38.8918 17.2493 3.81276
    endloop
  endfacet
  facet normal 0 -1 0
    outer loop
      vertex -32.5145 -27.6555 0
      vertex 32.5145 -27.6555 1.3173
      vertex -32.5145 -27.6555 1.3173
    endloop
  endfacet
  facet normal 0 -1 -0
    outer loop
      vertex 32.5145 -27.6555 1.3173
      vertex -32.5145 -27.6555 0
      vertex 32.5145 -27.6555 0
    endloop
  endfacet
  facet normal -0.0594607 -0.279739 0.958233
    outer loop
      vertex -32.7421 -20.2171 4.6985
      vertex -33.6642 -23.0551 3.81276
      vertex -31.7547 -20.4269 4.6985
    endloop
  endfacet
  facet normal -0.116322 0.261263 0.958233
    outer loop
      vertex -33.6642 23.0551 3.81276
      vertex -33.6642 19.8065 4.6985
      vertex -32.7421 20.2171 4.6985
    endloop
  endfacet
  facet normal -0.242889 -0.545539 0.802117
    outer loop
      vertex -34.4808 -25.5685 2.53276
      vertex -36.4776 -24.6794 2.53276
      vertex -34.9881 -27.1297 1.3173
    endloop
  endfacet
  facet normal -0.351005 0.483117 0.802118
    outer loop
      vertex -36.4776 24.6794 2.53276
      vertex -39.3443 24.6147 1.3173
      vertex -38.2459 23.3947 2.53276
    endloop
  endfacet
  facet normal 0.593895 0.0624208 0.802118
    outer loop
      vertex 43.0824 18.1401 1.3173
      vertex 41.4767 17.7987 2.53276
      vertex 43.3468 15.625 1.3173
    endloop
  endfacet
  facet normal 0.593895 -0.0624207 0.802118
    outer loop
      vertex 41.7052 -15.625 2.53276
      vertex 41.4767 -17.7987 2.53276
      vertex 43.3468 -15.625 1.3173
    endloop
  endfacet
  facet normal 0.284549 0 0.958662
    outer loop
      vertex 36.0784 15.625 4.6985
      vertex 39.0625 -15.625 3.81276
      vertex 39.0625 15.625 3.81276
    endloop
  endfacet
  facet normal 0.284549 0 0.958662
    outer loop
      vertex 39.0625 -15.625 3.81276
      vertex 36.0784 15.625 4.6985
      vertex 36.0784 -15.625 4.6985
    endloop
  endfacet
  facet normal 0.178094 0.400006 0.899043
    outer loop
      vertex 36.4776 24.6794 2.53276
      vertex 34.4808 25.5685 2.53276
      vertex 35.1562 22.3908 3.81276
    endloop
  endfacet
  facet normal 0.178094 0.400006 0.899043
    outer loop
      vertex 34.4808 25.5685 2.53276
      vertex 33.6642 23.0551 3.81276
      vertex 35.1562 22.3908 3.81276
    endloop
  endfacet
  facet normal 0.1681 0.231369 0.958233
    outer loop
      vertex 36.4776 21.4308 3.81276
      vertex 33.6642 19.8065 4.6985
      vertex 34.4808 19.2132 4.6985
    endloop
  endfacet
  facet normal 0.212531 0.191364 0.958233
    outer loop
      vertex 36.4776 21.4308 3.81276
      vertex 35.1562 18.4631 4.6985
      vertex 37.5704 20.2171 3.81276
    endloop
  endfacet
  facet normal 0.247673 0.142995 0.958233
    outer loop
      vertex 37.5704 20.2171 3.81276
      vertex 35.1562 18.4631 4.6985
      vertex 38.3871 18.8026 3.81276
    endloop
  endfacet
  facet normal 0.351005 0.483117 0.802118
    outer loop
      vertex 39.3443 24.6147 1.3173
      vertex 36.4776 24.6794 2.53276
      vertex 38.2459 23.3947 2.53276
    endloop
  endfacet
  facet normal -0.435463 -0.0457688 0.899043
    outer loop
      vertex -39.0625 -15.625 3.81276
      vertex -41.7052 -15.625 2.53276
      vertex -41.4767 -17.7987 2.53276
    endloop
  endfacet
  facet normal 0.124158 0.584116 0.802118
    outer loop
      vertex 32.5145 27.6555 1.3173
      vertex 32.3429 26.0229 2.53276
      vertex 34.4808 25.5685 2.53276
    endloop
  endfacet
  facet normal 0.0743656 0.0669585 -0.994981
    outer loop
      vertex 39.7084 24.2103 1.3173
      vertex 39.3443 24.6147 1.3173
      vertex 41.0365 22.7353 1.3173
    endloop
  endfacet
  facet normal -0.207912 0.978148 0
    outer loop
      vertex -32.5145 27.6555 0
      vertex -34.9881 27.1297 0
      vertex -32.5145 27.6555 1.3173
    endloop
  endfacet
  facet normal 0.443781 0.399582 0.802118
    outer loop
      vertex 41.0365 22.7353 1.3173
      vertex 39.3443 24.6147 1.3173
      vertex 39.7084 21.7704 2.53276
    endloop
  endfacet
  facet normal 0.51716 0.298583 0.802118
    outer loop
      vertex 41.0365 22.7353 1.3173
      vertex 39.7084 21.7704 2.53276
      vertex 42.301 20.5452 1.3173
    endloop
  endfacet
  facet normal 0.207912 0.978148 0
    outer loop
      vertex 34.9881 27.1297 0
      vertex 32.5145 27.6555 0
      vertex 32.5145 27.6555 1.3173
    endloop
  endfacet
  facet normal -0.44378 0.399582 0.802118
    outer loop
      vertex -39.3443 24.6147 1.3173
      vertex -41.0365 22.7353 1.3173
      vertex -39.7084 21.7704 2.53276
    endloop
  endfacet
  facet normal -0.593895 -0.0624207 0.802118
    outer loop
      vertex -41.7052 -15.625 2.53276
      vertex -43.3468 -15.625 1.3173
      vertex -41.4767 -17.7987 2.53276
    endloop
  endfacet
  facet normal 0.595055 0 0.803685
    outer loop
      vertex 41.7052 15.625 2.53276
      vertex 43.3468 -15.625 1.3173
      vertex 43.3468 15.625 1.3173
    endloop
  endfacet
  facet normal 0.595055 0 0.803685
    outer loop
      vertex 43.3468 -15.625 1.3173
      vertex 41.7052 15.625 2.53276
      vertex 41.7052 -15.625 2.53276
    endloop
  endfacet
  facet normal 0.212531 -0.191364 0.958233
    outer loop
      vertex 35.1562 -18.4631 4.6985
      vertex 34.4808 -19.2132 4.6985
      vertex 36.4776 -21.4308 3.81276
    endloop
  endfacet
  facet normal 0.207912 -0.978148 0
    outer loop
      vertex 32.5145 -27.6555 0
      vertex 34.9881 -27.1297 1.3173
      vertex 32.5145 -27.6555 1.3173
    endloop
  endfacet
  facet normal 0.207912 -0.978148 0
    outer loop
      vertex 34.9881 -27.1297 1.3173
      vertex 32.5145 -27.6555 0
      vertex 34.9881 -27.1297 0
    endloop
  endfacet
  facet normal -0.178094 -0.400006 0.899043
    outer loop
      vertex -33.6642 -23.0551 3.81276
      vertex -35.1562 -22.3908 3.81276
      vertex -34.4808 -25.5685 2.53276
    endloop
  endfacet
  facet normal -0.51716 -0.298583 0.802118
    outer loop
      vertex -39.7084 -21.7704 2.53276
      vertex -42.301 -20.5452 1.3173
      vertex -41.0365 -22.7353 1.3173
    endloop
  endfacet
  facet normal 0 -0.437861 0.899043
    outer loop
      vertex -32.0666 -23.3947 3.81276
      vertex 32.3429 -26.0229 2.53276
      vertex 32.0666 -23.3947 3.81276
    endloop
  endfacet
  facet normal 0 -0.437861 0.899043
    outer loop
      vertex 32.3429 -26.0229 2.53276
      vertex -32.0666 -23.3947 3.81276
      vertex -32.3429 -26.0229 2.53276
    endloop
  endfacet
  facet normal -0.207912 -0.978148 0
    outer loop
      vertex -34.9881 -27.1297 0
      vertex -32.5145 -27.6555 1.3173
      vertex -34.9881 -27.1297 1.3173
    endloop
  endfacet
  facet normal -0.207912 -0.978148 -0
    outer loop
      vertex -32.5145 -27.6555 1.3173
      vertex -34.9881 -27.1297 0
      vertex -32.5145 -27.6555 0
    endloop
  endfacet
  facet normal -0.435919 0 0.899986
    outer loop
      vertex -41.7052 15.625 2.53276
      vertex -39.0625 -15.625 3.81276
      vertex -39.0625 15.625 3.81276
    endloop
  endfacet
  facet normal -0.435919 0 0.899986
    outer loop
      vertex -39.0625 -15.625 3.81276
      vertex -41.7052 15.625 2.53276
      vertex -41.7052 -15.625 2.53276
    endloop
  endfacet
  facet normal -0.994522 -0.104528 0
    outer loop
      vertex -43.0824 -18.1401 0
      vertex -43.3468 -15.625 1.3173
      vertex -43.3468 -15.625 0
    endloop
  endfacet
  facet normal -0.994522 -0.104528 0
    outer loop
      vertex -43.3468 -15.625 1.3173
      vertex -43.0824 -18.1401 0
      vertex -43.0824 -18.1401 1.3173
    endloop
  endfacet
  facet normal 0.567939 0.184534 0.802118
    outer loop
      vertex 42.4691 20.0277 1.3173
      vertex 41.4767 17.7987 2.53276
      vertex 43.0824 18.1401 1.3173
    endloop
  endfacet
  facet normal 0.287267 0.0933382 0.953292
    outer loop
      vertex 43.0824 18.1401 1.3173
      vertex 42.301 20.5452 1.3173
      vertex 42.4691 20.0277 1.3173
    endloop
  endfacet
  facet normal 0.140303 0 0.990109
    outer loop
      vertex 32.8833 15.625 5.15127
      vertex 36.0784 -15.625 4.6985
      vertex 36.0784 15.625 4.6985
    endloop
  endfacet
  facet normal 0.140303 0 0.990109
    outer loop
      vertex 36.0784 -15.625 4.6985
      vertex 32.8833 15.625 5.15127
      vertex 32.8833 -15.625 5.15127
    endloop
  endfacet
  facet normal 0.284422 0.0298941 0.958233
    outer loop
      vertex 38.8918 17.2493 3.81276
      vertex 35.9729 16.6289 4.6985
      vertex 39.0625 15.625 3.81276
    endloop
  endfacet
  facet normal 0.140288 0.0147447 0.990001
    outer loop
      vertex 36.0784 15.625 4.6985
      vertex 32.8476 15.9646 5.15127
      vertex 32.8833 15.625 5.15127
    endloop
  endfacet
  facet normal 0 0.285988 0.958233
    outer loop
      vertex 32.0666 23.3947 3.81276
      vertex -31.7547 20.4269 4.6985
      vertex 31.7547 20.4269 4.6985
    endloop
  endfacet
  facet normal 0 0.285988 0.958233
    outer loop
      vertex -31.7547 20.4269 4.6985
      vertex 32.0666 23.3947 3.81276
      vertex -32.0666 23.3947 3.81276
    endloop
  endfacet
  facet normal 0.116322 0.261263 0.958233
    outer loop
      vertex 33.6642 23.0551 3.81276
      vertex 33.6642 19.8065 4.6985
      vertex 35.1562 22.3908 3.81276
    endloop
  endfacet
  facet normal 0.257368 0.354236 0.899043
    outer loop
      vertex 38.2459 23.3947 2.53276
      vertex 35.1562 22.3908 3.81276
      vertex 36.4776 21.4308 3.81276
    endloop
  endfacet
  facet normal 0.257368 0.354237 0.899043
    outer loop
      vertex 36.4776 24.6794 2.53276
      vertex 35.1562 22.3908 3.81276
      vertex 38.2459 23.3947 2.53276
    endloop
  endfacet
  facet normal 0.351005 0.483118 0.802117
    outer loop
      vertex 37.2984 26.1011 1.3173
      vertex 36.4776 24.6794 2.53276
      vertex 39.3443 24.6147 1.3173
    endloop
  endfacet
  facet normal -0.271991 0.0883751 0.958233
    outer loop
      vertex -35.661 17.5889 4.6985
      vertex -38.3871 18.8026 3.81276
      vertex -35.9729 16.6289 4.6985
    endloop
  endfacet
  facet normal 0.0594605 0.279739 0.958233
    outer loop
      vertex 32.0666 23.3947 3.81276
      vertex 31.7547 20.4269 4.6985
      vertex 33.6642 23.0551 3.81276
    endloop
  endfacet
  facet normal -0.41643 0.135306 0.899043
    outer loop
      vertex -38.3871 18.8026 3.81276
      vertex -40.8013 19.8775 2.53276
      vertex -38.8918 17.2493 3.81276
    endloop
  endfacet
  facet normal -0.379198 0.218931 0.899043
    outer loop
      vertex -39.7084 21.7704 2.53276
      vertex -40.8013 19.8775 2.53276
      vertex -38.3871 18.8026 3.81276
    endloop
  endfacet
  facet normal -0.242889 0.545539 0.802118
    outer loop
      vertex -34.9881 27.1297 1.3173
      vertex -37.2984 26.1011 1.3173
      vertex -36.4776 24.6794 2.53276
    endloop
  endfacet
  facet normal -0.242889 0.545539 0.802117
    outer loop
      vertex -34.9881 27.1297 1.3173
      vertex -36.4776 24.6794 2.53276
      vertex -34.4808 25.5685 2.53276
    endloop
  endfacet
  facet normal -0.207912 0.978148 0
    outer loop
      vertex -32.5145 27.6555 1.3173
      vertex -34.9881 27.1297 0
      vertex -34.9881 27.1297 1.3173
    endloop
  endfacet
  facet normal 0 1 -0
    outer loop
      vertex 32.5145 27.6555 0
      vertex -32.5145 27.6555 1.3173
      vertex 32.5145 27.6555 1.3173
    endloop
  endfacet
  facet normal 0 1 0
    outer loop
      vertex -32.5145 27.6555 1.3173
      vertex 32.5145 27.6555 0
      vertex -32.5145 27.6555 0
    endloop
  endfacet
  facet normal 0.743145 0.669131 9.68851e-07
    outer loop
      vertex 41.0365 22.7353 0
      vertex 39.7084 24.2103 1.3173
      vertex 41.0365 22.7353 1.3173
    endloop
  endfacet
  facet normal 0.866025 0.5 7.23963e-07
    outer loop
      vertex 41.0365 22.7353 0
      vertex 41.0365 22.7353 1.3173
      vertex 42.301 20.5452 1.3173
    endloop
  endfacet
  facet normal 0.242889 0.545539 0.802117
    outer loop
      vertex 37.2984 26.1011 1.3173
      vertex 34.9881 27.1297 1.3173
      vertex 36.4776 24.6794 2.53276
    endloop
  endfacet
  facet normal -0.567939 -0.184534 0.802118
    outer loop
      vertex -41.4767 -17.7987 2.53276
      vertex -42.301 -20.5452 1.3173
      vertex -40.8013 -19.8775 2.53276
    endloop
  endfacet
  facet normal -0.567939 0.184534 0.802118
    outer loop
      vertex -42.4691 20.0277 1.3173
      vertex -43.0824 18.1401 1.3173
      vertex -41.4767 17.7987 2.53276
    endloop
  endfacet
  facet normal -0.994522 0.104528 0
    outer loop
      vertex -43.3468 15.625 0
      vertex -43.0824 18.1401 1.3173
      vertex -43.0824 18.1401 0
    endloop
  endfacet
  facet normal -0.994522 0.104528 0
    outer loop
      vertex -43.0824 18.1401 1.3173
      vertex -43.3468 15.625 0
      vertex -43.3468 15.625 1.3173
    endloop
  endfacet
  facet normal 0.435463 -0.0457688 0.899043
    outer loop
      vertex 41.7052 -15.625 2.53276
      vertex 39.0625 -15.625 3.81276
      vertex 41.4767 -17.7987 2.53276
    endloop
  endfacet
  facet normal 0.435919 0 0.899986
    outer loop
      vertex 39.0625 15.625 3.81276
      vertex 41.7052 -15.625 2.53276
      vertex 41.7052 15.625 2.53276
    endloop
  endfacet
  facet normal 0.435919 0 0.899986
    outer loop
      vertex 41.7052 -15.625 2.53276
      vertex 39.0625 15.625 3.81276
      vertex 39.0625 -15.625 3.81276
    endloop
  endfacet
  facet normal 0.587785 -0.809017 0
    outer loop
      vertex 37.2984 -26.1011 0
      vertex 39.3443 -24.6147 1.3173
      vertex 37.2984 -26.1011 1.3173
    endloop
  endfacet
  facet normal 0.587785 -0.809017 0
    outer loop
      vertex 39.3443 -24.6147 1.3173
      vertex 37.2984 -26.1011 0
      vertex 39.3443 -24.6147 0
    endloop
  endfacet
  facet normal 0.994522 -0.104528 0
    outer loop
      vertex 43.0824 -18.1401 1.3173
      vertex 43.3468 -15.625 0
      vertex 43.3468 -15.625 1.3173
    endloop
  endfacet
  facet normal 0.994522 -0.104528 0
    outer loop
      vertex 43.3468 -15.625 0
      vertex 43.0824 -18.1401 1.3173
      vertex 43.0824 -18.1401 0
    endloop
  endfacet
  facet normal -0.379198 -0.218931 0.899043
    outer loop
      vertex -38.3871 -18.8026 3.81276
      vertex -39.7084 -21.7704 2.53276
      vertex -37.5704 -20.2171 3.81276
    endloop
  endfacet
  facet normal -0.122162 -0.07053 0.990001
    outer loop
      vertex -32.7421 -16.2893 5.15127
      vertex -35.661 -17.5889 4.6985
      vertex -35.1562 -18.4631 4.6985
    endloop
  endfacet
  facet normal -0.0910366 -0.428292 0.899043
    outer loop
      vertex -33.6642 -23.0551 3.81276
      vertex -34.4808 -25.5685 2.53276
      vertex -32.0666 -23.3947 3.81276
    endloop
  endfacet
  facet normal -0.325394 -0.292986 0.899043
    outer loop
      vertex -37.5704 -20.2171 3.81276
      vertex -39.7084 -21.7704 2.53276
      vertex -36.4776 -21.4308 3.81276
    endloop
  endfacet
  facet normal -0.351005 -0.483117 0.802118
    outer loop
      vertex -38.2459 -23.3947 2.53276
      vertex -39.3443 -24.6147 1.3173
      vertex -36.4776 -24.6794 2.53276
    endloop
  endfacet
  facet normal -0.178094 -0.400006 0.899043
    outer loop
      vertex -35.1562 -22.3908 3.81276
      vertex -36.4776 -24.6794 2.53276
      vertex -34.4808 -25.5685 2.53276
    endloop
  endfacet
  facet normal -0.124158 -0.584116 0.802118
    outer loop
      vertex -32.3429 -26.0229 2.53276
      vertex -34.9881 -27.1297 1.3173
      vertex -32.5145 -27.6555 1.3173
    endloop
  endfacet
  facet normal -0.242889 -0.545539 0.802117
    outer loop
      vertex -36.4776 -24.6794 2.53276
      vertex -37.2984 -26.1011 1.3173
      vertex -34.9881 -27.1297 1.3173
    endloop
  endfacet
  facet normal -0.866025 -0.5 -0
    outer loop
      vertex -42.301 -20.5452 1.3173
      vertex -42.301 -20.5452 0
      vertex -41.0365 -22.7353 0
    endloop
  endfacet
  facet normal -0.517161 -0.298584 0.802118
    outer loop
      vertex -40.8013 -19.8775 2.53276
      vertex -42.301 -20.5452 1.3173
      vertex -39.7084 -21.7704 2.53276
    endloop
  endfacet
  facet normal 0 0 -1
    outer loop
      vertex 32.5145 -27.6555 0
      vertex 43.3468 -15.625 0
      vertex 43.0824 -18.1401 0
    endloop
  endfacet
  facet normal 0 0 -1
    outer loop
      vertex 43.3468 -15.625 0
      vertex 4.55 -4.97261 0
      vertex 43.3468 15.625 0
    endloop
  endfacet
  facet normal 0 0 -1
    outer loop
      vertex 32.5145 -27.6555 0
      vertex 43.0824 -18.1401 0
      vertex 42.301 -20.5452 0
    endloop
  endfacet
  facet normal 0 0 -1
    outer loop
      vertex 4.55 4.97261 0
      vertex 43.3468 15.625 0
      vertex 4.55 -4.97261 0
    endloop
  endfacet
  facet normal 0 0 -1
    outer loop
      vertex 32.5145 -27.6555 0
      vertex 42.301 -20.5452 0
      vertex 41.0365 -22.7353 0
    endloop
  endfacet
  facet normal 0 -0 -1
    outer loop
      vertex 32.5145 27.6555 0
      vertex 43.3468 15.625 0
      vertex 4.55 4.97261 0
    endloop
  endfacet
  facet normal 0 0 -1
    outer loop
      vertex 32.5145 -27.6555 0
      vertex 41.0365 -22.7353 0
      vertex 39.3443 -24.6147 0
    endloop
  endfacet
  facet normal 0 0 -1
    outer loop
      vertex 43.3468 15.625 0
      vertex 32.5145 27.6555 0
      vertex 43.0824 18.1401 0
    endloop
  endfacet
  facet normal 0 0 -1
    outer loop
      vertex 32.5145 -27.6555 0
      vertex 39.3443 -24.6147 0
      vertex 37.2984 -26.1011 0
    endloop
  endfacet
  facet normal 0 0 -1
    outer loop
      vertex 43.0824 18.1401 0
      vertex 32.5145 27.6555 0
      vertex 42.301 20.5452 0
    endloop
  endfacet
  facet normal 0 0 -1
    outer loop
      vertex 32.5145 -27.6555 0
      vertex 37.2984 -26.1011 0
      vertex 34.9881 -27.1297 0
    endloop
  endfacet
  facet normal 0 0 -1
    outer loop
      vertex 42.301 20.5452 0
      vertex 32.5145 27.6555 0
      vertex 41.0365 22.7353 0
    endloop
  endfacet
  facet normal -0 0 -1
    outer loop
      vertex 43.3468 -15.625 0
      vertex 32.5145 -27.6555 0
      vertex 4.55 -4.97261 0
    endloop
  endfacet
  facet normal 0 0 -1
    outer loop
      vertex 41.0365 22.7353 0
      vertex 32.5145 27.6555 0
      vertex 39.3443 24.6147 0
    endloop
  endfacet
  facet normal 0 0 -1
    outer loop
      vertex 39.3443 24.6147 0
      vertex 32.5145 27.6555 0
      vertex 37.2984 26.1011 0
    endloop
  endfacet
  facet normal 0 0 -1
    outer loop
      vertex 32.5145 -27.6555 0
      vertex -4.55 -4.97261 0
      vertex 4.55 -4.97261 0
    endloop
  endfacet
  facet normal 0 0 -1
    outer loop
      vertex -43.3468 -15.625 0
      vertex -4.55 -4.97261 0
      vertex -32.5145 -27.6555 0
    endloop
  endfacet
  facet normal 0 0 -1
    outer loop
      vertex -32.5145 -27.6555 0
      vertex -4.55 -4.97261 0
      vertex 32.5145 -27.6555 0
    endloop
  endfacet
  facet normal 0 0 -1
    outer loop
      vertex 37.2984 26.1011 0
      vertex 32.5145 27.6555 0
      vertex 34.9881 27.1297 0
    endloop
  endfacet
  facet normal 0 0 -1
    outer loop
      vertex -4.55 4.97261 0
      vertex 32.5145 27.6555 0
      vertex 4.55 4.97261 0
    endloop
  endfacet
  facet normal 0 0 -1
    outer loop
      vertex -4.55 4.97261 0
      vertex -32.5145 27.6555 0
      vertex 32.5145 27.6555 0
    endloop
  endfacet
  facet normal -0 0 -1
    outer loop
      vertex -4.55 -4.97261 0
      vertex -43.3468 -15.625 0
      vertex -4.55 4.97261 0
    endloop
  endfacet
  facet normal 0 0 -1
    outer loop
      vertex -43.3468 -15.625 0
      vertex -32.5145 -27.6555 0
      vertex -34.9881 -27.1297 0
    endloop
  endfacet
  facet normal 0 0 -1
    outer loop
      vertex -43.3468 15.625 0
      vertex -4.55 4.97261 0
      vertex -43.3468 -15.625 0
    endloop
  endfacet
  facet normal 0 0 -1
    outer loop
      vertex -43.3468 -15.625 0
      vertex -34.9881 -27.1297 0
      vertex -37.2984 -26.1011 0
    endloop
  endfacet
  facet normal 0 0 -1
    outer loop
      vertex -4.55 4.97261 0
      vertex -43.3468 15.625 0
      vertex -32.5145 27.6555 0
    endloop
  endfacet
  facet normal 0 0 -1
    outer loop
      vertex -43.3468 -15.625 0
      vertex -37.2984 -26.1011 0
      vertex -39.3443 -24.6147 0
    endloop
  endfacet
  facet normal 0 0 -1
    outer loop
      vertex -32.5145 27.6555 0
      vertex -43.3468 15.625 0
      vertex -34.9881 27.1297 0
    endloop
  endfacet
  facet normal 0 0 -1
    outer loop
      vertex -43.3468 -15.625 0
      vertex -39.3443 -24.6147 0
      vertex -41.0365 -22.7353 0
    endloop
  endfacet
  facet normal 0 0 -1
    outer loop
      vertex -34.9881 27.1297 0
      vertex -43.3468 15.625 0
      vertex -37.2984 26.1011 0
    endloop
  endfacet
  facet normal 0 0 -1
    outer loop
      vertex -43.3468 -15.625 0
      vertex -41.0365 -22.7353 0
      vertex -42.301 -20.5452 0
    endloop
  endfacet
  facet normal 0 0 -1
    outer loop
      vertex -37.2984 26.1011 0
      vertex -43.3468 15.625 0
      vertex -39.3443 24.6147 0
    endloop
  endfacet
  facet normal 0 0 -1
    outer loop
      vertex -43.3468 -15.625 0
      vertex -42.301 -20.5452 0
      vertex -43.0824 -18.1401 0
    endloop
  endfacet
  facet normal 0 0 -1
    outer loop
      vertex -39.3443 24.6147 0
      vertex -43.3468 15.625 0
      vertex -41.0365 22.7353 0
    endloop
  endfacet
  facet normal 0 0 -1
    outer loop
      vertex -41.0365 22.7353 0
      vertex -43.3468 15.625 0
      vertex -42.301 20.5452 0
    endloop
  endfacet
  facet normal 0 0 -1
    outer loop
      vertex -42.301 20.5452 0
      vertex -43.3468 15.625 0
      vertex -43.0824 18.1401 0
    endloop
  endfacet
  facet normal 0.134156 -0.04359 0.990001
    outer loop
      vertex 35.9729 -16.6289 4.6985
      vertex 32.7421 -16.2893 5.15127
      vertex 35.661 -17.5889 4.6985
    endloop
  endfacet
  facet normal 0.247673 0.142994 0.958233
    outer loop
      vertex 38.3871 18.8026 3.81276
      vertex 35.1562 18.4631 4.6985
      vertex 35.661 17.5889 4.6985
    endloop
  endfacet
  facet normal 0.134156 0.0435897 0.990001
    outer loop
      vertex 35.9729 16.6289 4.6985
      vertex 32.7421 16.2893 5.15127
      vertex 32.8476 15.9646 5.15127
    endloop
  endfacet
  facet normal 0 0.597166 0.802118
    outer loop
      vertex 32.5145 27.6555 1.3173
      vertex -32.3429 26.0229 2.53276
      vertex 32.3429 26.0229 2.53276
    endloop
  endfacet
  facet normal 0 0.597166 0.802118
    outer loop
      vertex -32.3429 26.0229 2.53276
      vertex 32.5145 27.6555 1.3173
      vertex -32.5145 27.6555 1.3173
    endloop
  endfacet
  facet normal -0.178094 0.400006 0.899043
    outer loop
      vertex -34.4808 25.5685 2.53276
      vertex -36.4776 24.6794 2.53276
      vertex -33.6642 23.0551 3.81276
    endloop
  endfacet
  facet normal 0 0.14106 0.990001
    outer loop
      vertex 31.7547 20.4269 4.6985
      vertex -31.4207 17.2493 5.15127
      vertex 31.4207 17.2493 5.15127
    endloop
  endfacet
  facet normal 0 0.14106 0.990001
    outer loop
      vertex -31.4207 17.2493 5.15127
      vertex 31.7547 20.4269 4.6985
      vertex -31.7547 20.4269 4.6985
    endloop
  endfacet
  facet normal 0.0594607 0.279739 0.958233
    outer loop
      vertex 33.6642 23.0551 3.81276
      vertex 31.7547 20.4269 4.6985
      vertex 32.7421 20.2171 4.6985
    endloop
  endfacet
  facet normal -0.587785 0.809017 0
    outer loop
      vertex -37.2984 26.1011 0
      vertex -39.3443 24.6147 1.3173
      vertex -37.2984 26.1011 1.3173
    endloop
  endfacet
  facet normal -0.351005 0.483118 0.802118
    outer loop
      vertex -37.2984 26.1011 1.3173
      vertex -39.3443 24.6147 1.3173
      vertex -36.4776 24.6794 2.53276
    endloop
  endfacet
  facet normal -0.0910366 0.428292 0.899043
    outer loop
      vertex -32.0666 23.3947 3.81276
      vertex -34.4808 25.5685 2.53276
      vertex -33.6642 23.0551 3.81276
    endloop
  endfacet
  facet normal -0.517161 0.298584 0.802118
    outer loop
      vertex -39.7084 21.7704 2.53276
      vertex -42.301 20.5452 1.3173
      vertex -40.8013 19.8775 2.53276
    endloop
  endfacet
  facet normal -0.124158 0.584117 0.802118
    outer loop
      vertex -32.5145 27.6555 1.3173
      vertex -34.9881 27.1297 1.3173
      vertex -34.4808 25.5685 2.53276
    endloop
  endfacet
  facet normal 0.124158 0.584117 0.802118
    outer loop
      vertex 34.9881 27.1297 1.3173
      vertex 32.5145 27.6555 1.3173
      vertex 34.4808 25.5685 2.53276
    endloop
  endfacet
  facet normal 0.242889 0.545539 0.802117
    outer loop
      vertex 34.9881 27.1297 1.3173
      vertex 34.4808 25.5685 2.53276
      vertex 36.4776 24.6794 2.53276
    endloop
  endfacet
  facet normal 0.406737 0.913545 -0
    outer loop
      vertex 37.2984 26.1011 0
      vertex 34.9881 27.1297 0
      vertex 37.2984 26.1011 1.3173
    endloop
  endfacet
  facet normal 0.587785 0.809017 -0
    outer loop
      vertex 39.3443 24.6147 0
      vertex 37.2984 26.1011 1.3173
      vertex 39.3443 24.6147 1.3173
    endloop
  endfacet
  facet normal 0.587785 0.809017 0
    outer loop
      vertex 37.2984 26.1011 1.3173
      vertex 39.3443 24.6147 0
      vertex 37.2984 26.1011 0
    endloop
  endfacet
  facet normal -0.567939 0.184534 0.802118
    outer loop
      vertex -40.8013 19.8775 2.53276
      vertex -42.301 20.5452 1.3173
      vertex -41.4767 17.7987 2.53276
    endloop
  endfacet
  facet normal -0.443781 0.399582 0.802118
    outer loop
      vertex -39.3443 24.6147 1.3173
      vertex -39.7084 21.7704 2.53276
      vertex -38.2459 23.3947 2.53276
    endloop
  endfacet
  facet normal -0.743145 0.669131 0
    outer loop
      vertex -41.0365 22.7353 0
      vertex -39.3443 24.6147 1.3173
      vertex -39.3443 24.6147 0
    endloop
  endfacet
  facet normal -0.743145 0.669131 0
    outer loop
      vertex -39.3443 24.6147 1.3173
      vertex -41.0365 22.7353 0
      vertex -41.0365 22.7353 1.3173
    endloop
  endfacet
  facet normal -0.593895 0.0624208 0.802118
    outer loop
      vertex -43.0824 18.1401 1.3173
      vertex -43.3468 15.625 1.3173
      vertex -41.4767 17.7987 2.53276
    endloop
  endfacet
  facet normal 0.743145 -0.669131 9.68851e-07
    outer loop
      vertex 41.0365 -22.7353 1.3173
      vertex 39.7084 -24.2103 1.3173
      vertex 41.0365 -22.7353 0
    endloop
  endfacet
  facet normal 0.116322 -0.261263 0.958233
    outer loop
      vertex 33.6642 -19.8065 4.6985
      vertex 33.6642 -23.0551 3.81276
      vertex 35.1562 -22.3908 3.81276
    endloop
  endfacet
  facet normal 0.124158 -0.584116 0.802118
    outer loop
      vertex 34.9881 -27.1297 1.3173
      vertex 32.3429 -26.0229 2.53276
      vertex 32.5145 -27.6555 1.3173
    endloop
  endfacet
  facet normal 1 -0 0
    outer loop
      vertex 43.3468 -15.625 1.3173
      vertex 43.3468 15.625 0
      vertex 43.3468 15.625 1.3173
    endloop
  endfacet
  facet normal 1 0 0
    outer loop
      vertex 43.3468 15.625 0
      vertex 43.3468 -15.625 1.3173
      vertex 43.3468 -15.625 0
    endloop
  endfacet
  facet normal 0.951057 -0.309016 0
    outer loop
      vertex 42.301 -20.5452 1.3173
      vertex 43.0824 -18.1401 0
      vertex 43.0824 -18.1401 1.3173
    endloop
  endfacet
  facet normal 0.951057 -0.309016 0
    outer loop
      vertex 43.0824 -18.1401 0
      vertex 42.301 -20.5452 1.3173
      vertex 42.301 -20.5452 0
    endloop
  endfacet
  facet normal 0.567939 -0.184534 0.802118
    outer loop
      vertex 43.0824 -18.1401 1.3173
      vertex 41.4767 -17.7987 2.53276
      vertex 42.4691 -20.0277 1.3173
    endloop
  endfacet
  facet normal -0.284422 -0.0298936 0.958233
    outer loop
      vertex -36.0784 -15.625 4.6985
      vertex -39.0625 -15.625 3.81276
      vertex -35.9729 -16.6289 4.6985
    endloop
  endfacet
  facet normal -0.140288 -0.0147446 0.990001
    outer loop
      vertex -32.8476 -15.9646 5.15127
      vertex -36.0784 -15.625 4.6985
      vertex -35.9729 -16.6289 4.6985
    endloop
  endfacet
  facet normal -0.416431 -0.135306 0.899043
    outer loop
      vertex -38.8918 -17.2493 3.81276
      vertex -41.4767 -17.7987 2.53276
      vertex -40.8013 -19.8775 2.53276
    endloop
  endfacet
  facet normal -0.41643 -0.135306 0.899043
    outer loop
      vertex -38.8918 -17.2493 3.81276
      vertex -40.8013 -19.8775 2.53276
      vertex -38.3871 -18.8026 3.81276
    endloop
  endfacet
  facet normal -0.257368 -0.354237 0.899043
    outer loop
      vertex -35.1562 -22.3908 3.81276
      vertex -38.2459 -23.3947 2.53276
      vertex -36.4776 -24.6794 2.53276
    endloop
  endfacet
  facet normal -0.257368 -0.354236 0.899043
    outer loop
      vertex -36.4776 -21.4308 3.81276
      vertex -38.2459 -23.3947 2.53276
      vertex -35.1562 -22.3908 3.81276
    endloop
  endfacet
  facet normal -0.1681 -0.231369 0.958233
    outer loop
      vertex -33.6642 -19.8065 4.6985
      vertex -36.4776 -21.4308 3.81276
      vertex -35.1562 -22.3908 3.81276
    endloop
  endfacet
  facet normal 0 -0.285988 0.958233
    outer loop
      vertex -31.7547 -20.4269 4.6985
      vertex 32.0666 -23.3947 3.81276
      vertex 31.7547 -20.4269 4.6985
    endloop
  endfacet
  facet normal 0 -0.285988 0.958233
    outer loop
      vertex 32.0666 -23.3947 3.81276
      vertex -31.7547 -20.4269 4.6985
      vertex -32.0666 -23.3947 3.81276
    endloop
  endfacet
  facet normal -0.443781 -0.399582 0.802118
    outer loop
      vertex -39.7084 -21.7704 2.53276
      vertex -41.0365 -22.7353 1.3173
      vertex -39.3443 -24.6147 1.3173
    endloop
  endfacet
  facet normal -0.351005 -0.483118 0.802117
    outer loop
      vertex -36.4776 -24.6794 2.53276
      vertex -39.3443 -24.6147 1.3173
      vertex -37.2984 -26.1011 1.3173
    endloop
  endfacet
  facet normal -0.587785 -0.809017 0
    outer loop
      vertex -39.3443 -24.6147 0
      vertex -37.2984 -26.1011 1.3173
      vertex -39.3443 -24.6147 1.3173
    endloop
  endfacet
  facet normal -0.587785 -0.809017 -0
    outer loop
      vertex -37.2984 -26.1011 1.3173
      vertex -39.3443 -24.6147 0
      vertex -37.2984 -26.1011 0
    endloop
  endfacet
  facet normal -0.0829132 -0.11412 0.990001
    outer loop
      vertex -32.3429 -16.8387 5.15127
      vertex -34.4808 -19.2132 4.6985
      vertex -33.6642 -19.8065 4.6985
    endloop
  endfacet
  facet normal 0.0293278 -0.137978 0.990001
    outer loop
      vertex 31.7547 -17.1783 5.15127
      vertex 31.4207 -17.2493 5.15127
      vertex 31.7547 -20.4269 4.6985
    endloop
  endfacet
  facet normal 0.104828 -0.0943878 0.990001
    outer loop
      vertex 35.1562 -18.4631 4.6985
      vertex 32.3429 -16.8387 5.15127
      vertex 34.4808 -19.2132 4.6985
    endloop
  endfacet
  facet normal 0.567939 -0.184534 0.802118
    outer loop
      vertex 41.4767 -17.7987 2.53276
      vertex 40.8013 -19.8775 2.53276
      vertex 42.301 -20.5452 1.3173
    endloop
  endfacet
  facet normal -0.124158 -0.584117 0.802117
    outer loop
      vertex -34.4808 -25.5685 2.53276
      vertex -34.9881 -27.1297 1.3173
      vertex -32.3429 -26.0229 2.53276
    endloop
  endfacet
  facet normal -0.0910363 -0.428293 0.899043
    outer loop
      vertex -32.0666 -23.3947 3.81276
      vertex -34.4808 -25.5685 2.53276
      vertex -32.3429 -26.0229 2.53276
    endloop
  endfacet
  facet normal -0.595055 0 0.803685
    outer loop
      vertex -43.3468 15.625 1.3173
      vertex -41.7052 -15.625 2.53276
      vertex -41.7052 15.625 2.53276
    endloop
  endfacet
  facet normal -0.595055 0 0.803685
    outer loop
      vertex -41.7052 -15.625 2.53276
      vertex -43.3468 15.625 1.3173
      vertex -43.3468 -15.625 1.3173
    endloop
  endfacet
  facet normal -1 0 0
    outer loop
      vertex -43.3468 -15.625 0
      vertex -43.3468 15.625 1.3173
      vertex -43.3468 15.625 0
    endloop
  endfacet
  facet normal -1 -0 0
    outer loop
      vertex -43.3468 15.625 1.3173
      vertex -43.3468 -15.625 0
      vertex -43.3468 -15.625 1.3173
    endloop
  endfacet
  facet normal 0.140288 -0.0147447 0.990001
    outer loop
      vertex 32.8833 -15.625 5.15127
      vertex 32.8476 -15.9646 5.15127
      vertex 36.0784 -15.625 4.6985
    endloop
  endfacet
  facet normal 0.122162 0.07053 0.990001
    outer loop
      vertex 35.1562 18.4631 4.6985
      vertex 32.7421 16.2893 5.15127
      vertex 35.661 17.5889 4.6985
    endloop
  endfacet
  facet normal 0.134156 0.04359 0.990001
    outer loop
      vertex 35.661 17.5889 4.6985
      vertex 32.7421 16.2893 5.15127
      vertex 35.9729 16.6289 4.6985
    endloop
  endfacet
  facet normal 0.0910366 0.428292 0.899043
    outer loop
      vertex 34.4808 25.5685 2.53276
      vertex 32.0666 23.3947 3.81276
      vertex 33.6642 23.0551 3.81276
    endloop
  endfacet
  facet normal 0.0910363 0.428293 0.899043
    outer loop
      vertex 32.3429 26.0229 2.53276
      vertex 32.0666 23.3947 3.81276
      vertex 34.4808 25.5685 2.53276
    endloop
  endfacet
  facet normal 0.0829132 0.11412 0.990001
    outer loop
      vertex 33.6642 19.8065 4.6985
      vertex 32.3429 16.8387 5.15127
      vertex 34.4808 19.2132 4.6985
    endloop
  endfacet
  facet normal 0.082913 0.11412 0.990001
    outer loop
      vertex 33.6642 19.8065 4.6985
      vertex 32.0666 17.0394 5.15127
      vertex 32.3429 16.8387 5.15127
    endloop
  endfacet
  facet normal 0.0293283 0.137978 0.990001
    outer loop
      vertex 31.7547 20.4269 4.6985
      vertex 31.7547 17.1783 5.15127
      vertex 32.7421 20.2171 4.6985
    endloop
  endfacet
  facet normal 0.0573744 0.128865 0.990001
    outer loop
      vertex 32.7421 20.2171 4.6985
      vertex 31.7547 17.1783 5.15127
      vertex 33.6642 19.8065 4.6985
    endloop
  endfacet
  facet normal -0.406737 0.913545 0
    outer loop
      vertex -34.9881 27.1297 0
      vertex -37.2984 26.1011 1.3173
      vertex -34.9881 27.1297 1.3173
    endloop
  endfacet
  facet normal -0.406737 0.913545 0
    outer loop
      vertex -34.9881 27.1297 0
      vertex -37.2984 26.1011 0
      vertex -37.2984 26.1011 1.3173
    endloop
  endfacet
  facet normal -0.257368 0.354237 0.899043
    outer loop
      vertex -36.4776 24.6794 2.53276
      vertex -36.4776 21.4308 3.81276
      vertex -35.1562 22.3908 3.81276
    endloop
  endfacet
  facet normal -0.0594605 0.279739 0.958233
    outer loop
      vertex -32.0666 23.3947 3.81276
      vertex -33.6642 23.0551 3.81276
      vertex -31.7547 20.4269 4.6985
    endloop
  endfacet
  facet normal -0.124158 0.584116 0.802118
    outer loop
      vertex -32.5145 27.6555 1.3173
      vertex -34.4808 25.5685 2.53276
      vertex -32.3429 26.0229 2.53276
    endloop
  endfacet
  facet normal -0.325394 0.292986 0.899043
    outer loop
      vertex -38.2459 23.3947 2.53276
      vertex -39.7084 21.7704 2.53276
      vertex -36.4776 21.4308 3.81276
    endloop
  endfacet
  facet normal -0.257368 0.354237 0.899043
    outer loop
      vertex -36.4776 24.6794 2.53276
      vertex -38.2459 23.3947 2.53276
      vertex -36.4776 21.4308 3.81276
    endloop
  endfacet
  facet normal -0.51716 0.298583 0.802118
    outer loop
      vertex -41.0365 22.7353 1.3173
      vertex -42.301 20.5452 1.3173
      vertex -39.7084 21.7704 2.53276
    endloop
  endfacet
  facet normal -0.416431 0.135306 0.899043
    outer loop
      vertex -40.8013 19.8775 2.53276
      vertex -41.4767 17.7987 2.53276
      vertex -38.8918 17.2493 3.81276
    endloop
  endfacet
  facet normal -0.284422 0.0298941 0.958233
    outer loop
      vertex -38.8918 17.2493 3.81276
      vertex -39.0625 15.625 3.81276
      vertex -35.9729 16.6289 4.6985
    endloop
  endfacet
  facet normal -0.951057 0.309016 0
    outer loop
      vertex -43.0824 18.1401 0
      vertex -42.301 20.5452 1.3173
      vertex -42.301 20.5452 0
    endloop
  endfacet
  facet normal -0.951057 0.309016 0
    outer loop
      vertex -42.301 20.5452 1.3173
      vertex -43.0824 18.1401 0
      vertex -43.0824 18.1401 1.3173
    endloop
  endfacet
  facet normal -0.866025 0.5 0
    outer loop
      vertex -42.301 20.5452 0
      vertex -41.0365 22.7353 1.3173
      vertex -41.0365 22.7353 0
    endloop
  endfacet
  facet normal -0.866025 0.5 0
    outer loop
      vertex -41.0365 22.7353 1.3173
      vertex -42.301 20.5452 0
      vertex -42.301 20.5452 1.3173
    endloop
  endfacet
  facet normal -0.567939 0.184533 0.802118
    outer loop
      vertex -42.301 20.5452 1.3173
      vertex -42.4691 20.0277 1.3173
      vertex -41.4767 17.7987 2.53276
    endloop
  endfacet
  facet normal -0.287267 0.0933382 0.953292
    outer loop
      vertex -42.301 20.5452 1.3173
      vertex -43.0824 18.1401 1.3173
      vertex -42.4691 20.0277 1.3173
    endloop
  endfacet
  facet normal 0.866025 -0.5 7.23963e-07
    outer loop
      vertex 41.0365 -22.7353 1.3173
      vertex 41.0365 -22.7353 0
      vertex 42.301 -20.5452 1.3173
    endloop
  endfacet
  facet normal 0.743145 -0.669131 0
    outer loop
      vertex 39.3443 -24.6147 1.3173
      vertex 39.3443 -24.6147 0
      vertex 41.0365 -22.7353 0
    endloop
  endfacet
  facet normal 0.443781 -0.399582 0.802118
    outer loop
      vertex 39.7084 -21.7704 2.53276
      vertex 39.3443 -24.6147 1.3173
      vertex 41.0365 -22.7353 1.3173
    endloop
  endfacet
  facet normal 0.517161 -0.298584 0.802118
    outer loop
      vertex 40.8013 -19.8775 2.53276
      vertex 39.7084 -21.7704 2.53276
      vertex 42.301 -20.5452 1.3173
    endloop
  endfacet
  facet normal 0.406737 -0.913545 0
    outer loop
      vertex 34.9881 -27.1297 0
      vertex 37.2984 -26.1011 1.3173
      vertex 34.9881 -27.1297 1.3173
    endloop
  endfacet
  facet normal 0.406737 -0.913545 0
    outer loop
      vertex 37.2984 -26.1011 1.3173
      vertex 34.9881 -27.1297 0
      vertex 37.2984 -26.1011 0
    endloop
  endfacet
  facet normal 0.51716 -0.298583 0.802118
    outer loop
      vertex 42.301 -20.5452 1.3173
      vertex 39.7084 -21.7704 2.53276
      vertex 41.0365 -22.7353 1.3173
    endloop
  endfacet
  facet normal 0.866025 -0.5 0
    outer loop
      vertex 42.301 -20.5452 1.3173
      vertex 41.0365 -22.7353 0
      vertex 42.301 -20.5452 0
    endloop
  endfacet
  facet normal 0 0 1
    outer loop
      vertex 31.4207 17.2493 5.15127
      vertex 32.8833 15.625 5.15127
      vertex 32.8476 15.9646 5.15127
    endloop
  endfacet
  facet normal 0 0 1
    outer loop
      vertex 32.8833 15.625 5.15127
      vertex 4.55 4.14757 5.15127
      vertex 32.8833 -15.625 5.15127
    endloop
  endfacet
  facet normal 0 0 1
    outer loop
      vertex 31.4207 17.2493 5.15127
      vertex 32.8476 15.9646 5.15127
      vertex 32.7421 16.2893 5.15127
    endloop
  endfacet
  facet normal -0 0 1
    outer loop
      vertex 4.55 -4.14757 5.15127
      vertex 32.8833 -15.625 5.15127
      vertex 4.55 4.14757 5.15127
    endloop
  endfacet
  facet normal 0 0 1
    outer loop
      vertex 31.4207 17.2493 5.15127
      vertex 32.7421 16.2893 5.15127
      vertex 32.5713 16.585 5.15127
    endloop
  endfacet
  facet normal 0 -0 1
    outer loop
      vertex 31.4207 -17.2493 5.15127
      vertex 32.8833 -15.625 5.15127
      vertex 4.55 -4.14757 5.15127
    endloop
  endfacet
  facet normal 0 0 1
    outer loop
      vertex 31.4207 17.2493 5.15127
      vertex 32.5713 16.585 5.15127
      vertex 32.3429 16.8387 5.15127
    endloop
  endfacet
  facet normal 0 0 1
    outer loop
      vertex 32.8833 15.625 5.15127
      vertex 31.4207 17.2493 5.15127
      vertex 4.55 4.14757 5.15127
    endloop
  endfacet
  facet normal 0 0 1
    outer loop
      vertex 31.4207 17.2493 5.15127
      vertex 32.3429 16.8387 5.15127
      vertex 32.0666 17.0394 5.15127
    endloop
  endfacet
  facet normal 0 0 1
    outer loop
      vertex 32.8833 -15.625 5.15127
      vertex 31.4207 -17.2493 5.15127
      vertex 32.8476 -15.9646 5.15127
    endloop
  endfacet
  facet normal 0 0 1
    outer loop
      vertex 31.4207 17.2493 5.15127
      vertex 32.0666 17.0394 5.15127
      vertex 31.7547 17.1783 5.15127
    endloop
  endfacet
  facet normal 0 0 1
    outer loop
      vertex 32.5713 -16.585 5.15127
      vertex 31.4207 -17.2493 5.15127
      vertex 32.3429 -16.8387 5.15127
    endloop
  endfacet
  facet normal 0 0 1
    outer loop
      vertex 32.3429 -16.8387 5.15127
      vertex 31.4207 -17.2493 5.15127
      vertex 32.0666 -17.0394 5.15127
    endloop
  endfacet
  facet normal 0 0 1
    outer loop
      vertex 32.0666 -17.0394 5.15127
      vertex 31.4207 -17.2493 5.15127
      vertex 31.7547 -17.1783 5.15127
    endloop
  endfacet
  facet normal 0 0 1
    outer loop
      vertex 32.8476 -15.9646 5.15127
      vertex 31.4207 -17.2493 5.15127
      vertex 32.7421 -16.2893 5.15127
    endloop
  endfacet
  facet normal 0 0 1
    outer loop
      vertex 31.4207 17.2493 5.15127
      vertex -4.55 4.14757 5.15127
      vertex 4.55 4.14757 5.15127
    endloop
  endfacet
  facet normal -0 0 1
    outer loop
      vertex -32.8833 15.625 5.15127
      vertex -4.55 4.14757 5.15127
      vertex -31.4207 17.2493 5.15127
    endloop
  endfacet
  facet normal -0 0 1
    outer loop
      vertex -31.4207 17.2493 5.15127
      vertex -4.55 4.14757 5.15127
      vertex 31.4207 17.2493 5.15127
    endloop
  endfacet
  facet normal 0 0 1
    outer loop
      vertex 32.7421 -16.2893 5.15127
      vertex 31.4207 -17.2493 5.15127
      vertex 32.5713 -16.585 5.15127
    endloop
  endfacet
  facet normal -0 0 1
    outer loop
      vertex -4.55 -4.14757 5.15127
      vertex 31.4207 -17.2493 5.15127
      vertex 4.55 -4.14757 5.15127
    endloop
  endfacet
  facet normal 0 0 1
    outer loop
      vertex -4.55 -4.14757 5.15127
      vertex -31.4207 -17.2493 5.15127
      vertex 31.4207 -17.2493 5.15127
    endloop
  endfacet
  facet normal 0 0 1
    outer loop
      vertex -4.55 4.14757 5.15127
      vertex -32.8833 15.625 5.15127
      vertex -4.55 -4.14757 5.15127
    endloop
  endfacet
  facet normal 0 0 1
    outer loop
      vertex -32.8833 15.625 5.15127
      vertex -31.4207 17.2493 5.15127
      vertex -31.7547 17.1783 5.15127
    endloop
  endfacet
  facet normal 0 0 1
    outer loop
      vertex -32.8833 -15.625 5.15127
      vertex -4.55 -4.14757 5.15127
      vertex -32.8833 15.625 5.15127
    endloop
  endfacet
  facet normal 0 0 1
    outer loop
      vertex -32.8833 15.625 5.15127
      vertex -31.7547 17.1783 5.15127
      vertex -32.0666 17.0394 5.15127
    endloop
  endfacet
  facet normal 0 0 1
    outer loop
      vertex -4.55 -4.14757 5.15127
      vertex -32.8833 -15.625 5.15127
      vertex -31.4207 -17.2493 5.15127
    endloop
  endfacet
  facet normal 0 0 1
    outer loop
      vertex -32.8833 15.625 5.15127
      vertex -32.0666 17.0394 5.15127
      vertex -32.3429 16.8387 5.15127
    endloop
  endfacet
  facet normal 0 0 1
    outer loop
      vertex -31.4207 -17.2493 5.15127
      vertex -32.8833 -15.625 5.15127
      vertex -31.7547 -17.1783 5.15127
    endloop
  endfacet
  facet normal 0 0 1
    outer loop
      vertex -32.8833 15.625 5.15127
      vertex -32.3429 16.8387 5.15127
      vertex -32.5713 16.585 5.15127
    endloop
  endfacet
  facet normal 0 0 1
    outer loop
      vertex -31.7547 -17.1783 5.15127
      vertex -32.8833 -15.625 5.15127
      vertex -32.0666 -17.0394 5.15127
    endloop
  endfacet
  facet normal 0 0 1
    outer loop
      vertex -32.8833 15.625 5.15127
      vertex -32.5713 16.585 5.15127
      vertex -32.7421 16.2893 5.15127
    endloop
  endfacet
  facet normal 0 0 1
    outer loop
      vertex -32.0666 -17.0394 5.15127
      vertex -32.8833 -15.625 5.15127
      vertex -32.3429 -16.8387 5.15127
    endloop
  endfacet
  facet normal 0 0 1
    outer loop
      vertex -32.8833 15.625 5.15127
      vertex -32.7421 16.2893 5.15127
      vertex -32.8476 15.9646 5.15127
    endloop
  endfacet
  facet normal 0 0 1
    outer loop
      vertex -32.3429 -16.8387 5.15127
      vertex -32.8833 -15.625 5.15127
      vertex -32.5713 -16.585 5.15127
    endloop
  endfacet
  facet normal 0 0 1
    outer loop
      vertex -32.5713 -16.585 5.15127
      vertex -32.8833 -15.625 5.15127
      vertex -32.7421 -16.2893 5.15127
    endloop
  endfacet
  facet normal 0 0 1
    outer loop
      vertex -32.7421 -16.2893 5.15127
      vertex -32.8833 -15.625 5.15127
      vertex -32.8476 -15.9646 5.15127
    endloop
  endfacet
  facet normal -0.140303 0 0.990109
    outer loop
      vertex -36.0784 15.625 4.6985
      vertex -32.8833 -15.625 5.15127
      vertex -32.8833 15.625 5.15127
    endloop
  endfacet
  facet normal -0.140303 0 0.990109
    outer loop
      vertex -32.8833 -15.625 5.15127
      vertex -36.0784 15.625 4.6985
      vertex -36.0784 -15.625 4.6985
    endloop
  endfacet
  facet normal -0.379198 -0.218931 0.899043
    outer loop
      vertex -38.3871 -18.8026 3.81276
      vertex -40.8013 -19.8775 2.53276
      vertex -39.7084 -21.7704 2.53276
    endloop
  endfacet
  facet normal -0.271991 -0.0883752 0.958233
    outer loop
      vertex -35.9729 -16.6289 4.6985
      vertex -38.8918 -17.2493 3.81276
      vertex -38.3871 -18.8026 3.81276
    endloop
  endfacet
  facet normal -0.1681 -0.231369 0.958233
    outer loop
      vertex -34.4808 -19.2132 4.6985
      vertex -36.4776 -21.4308 3.81276
      vertex -33.6642 -19.8065 4.6985
    endloop
  endfacet
  facet normal -0.247673 -0.142995 0.958233
    outer loop
      vertex -35.1562 -18.4631 4.6985
      vertex -38.3871 -18.8026 3.81276
      vertex -37.5704 -20.2171 3.81276
    endloop
  endfacet
  facet normal -0.271991 -0.0883751 0.958233
    outer loop
      vertex -35.9729 -16.6289 4.6985
      vertex -38.3871 -18.8026 3.81276
      vertex -35.661 -17.5889 4.6985
    endloop
  endfacet
  facet normal -0.284422 -0.0298941 0.958233
    outer loop
      vertex -35.9729 -16.6289 4.6985
      vertex -39.0625 -15.625 3.81276
      vertex -38.8918 -17.2493 3.81276
    endloop
  endfacet
  facet normal -0.435462 -0.0457692 0.899043
    outer loop
      vertex -39.0625 -15.625 3.81276
      vertex -41.4767 -17.7987 2.53276
      vertex -38.8918 -17.2493 3.81276
    endloop
  endfacet
  facet normal 0 -0.14106 0.990001
    outer loop
      vertex -31.4207 -17.2493 5.15127
      vertex 31.7547 -20.4269 4.6985
      vertex 31.4207 -17.2493 5.15127
    endloop
  endfacet
  facet normal 0 -0.14106 0.990001
    outer loop
      vertex 31.7547 -20.4269 4.6985
      vertex -31.4207 -17.2493 5.15127
      vertex -31.7547 -20.4269 4.6985
    endloop
  endfacet
  facet normal -0.0293278 -0.137978 0.990001
    outer loop
      vertex -31.7547 -17.1783 5.15127
      vertex -31.7547 -20.4269 4.6985
      vertex -31.4207 -17.2493 5.15127
    endloop
  endfacet
  facet normal -0.743145 -0.669131 -0
    outer loop
      vertex -39.3443 -24.6147 1.3173
      vertex -41.0365 -22.7353 0
      vertex -39.3443 -24.6147 0
    endloop
  endfacet
  facet normal -0.743145 -0.669131 9.68851e-07
    outer loop
      vertex -41.0365 -22.7353 1.3173
      vertex -41.0365 -22.7353 0
      vertex -39.7084 -24.2103 1.3173
    endloop
  endfacet
  facet normal -0.406737 -0.913545 0
    outer loop
      vertex -37.2984 -26.1011 0
      vertex -34.9881 -27.1297 1.3173
      vertex -37.2984 -26.1011 1.3173
    endloop
  endfacet
  facet normal -0.406737 -0.913545 -0
    outer loop
      vertex -34.9881 -27.1297 1.3173
      vertex -37.2984 -26.1011 0
      vertex -34.9881 -27.1297 0
    endloop
  endfacet
  facet normal -0.0573751 -0.128864 0.990001
    outer loop
      vertex -32.0666 -17.0394 5.15127
      vertex -33.6642 -19.8065 4.6985
      vertex -31.7547 -17.1783 5.15127
    endloop
  endfacet
  facet normal 0.082913 -0.11412 0.990001
    outer loop
      vertex 32.3429 -16.8387 5.15127
      vertex 32.0666 -17.0394 5.15127
      vertex 33.6642 -19.8065 4.6985
    endloop
  endfacet
  facet normal 0.0293283 -0.137978 0.990001
    outer loop
      vertex 31.7547 -17.1783 5.15127
      vertex 31.7547 -20.4269 4.6985
      vertex 32.7421 -20.2171 4.6985
    endloop
  endfacet
  facet normal 0.416431 -0.135306 0.899043
    outer loop
      vertex 41.4767 -17.7987 2.53276
      vertex 38.8918 -17.2493 3.81276
      vertex 40.8013 -19.8775 2.53276
    endloop
  endfacet
  facet normal 0.0594605 -0.279739 0.958233
    outer loop
      vertex 33.6642 -23.0551 3.81276
      vertex 31.7547 -20.4269 4.6985
      vertex 32.0666 -23.3947 3.81276
    endloop
  endfacet
  facet normal 0.178094 -0.400006 0.899043
    outer loop
      vertex 35.1562 -22.3908 3.81276
      vertex 34.4808 -25.5685 2.53276
      vertex 36.4776 -24.6794 2.53276
    endloop
  endfacet
  facet normal 0.284422 -0.0298941 0.958233
    outer loop
      vertex 39.0625 -15.625 3.81276
      vertex 35.9729 -16.6289 4.6985
      vertex 38.8918 -17.2493 3.81276
    endloop
  endfacet
  facet normal 0.284422 -0.0298936 0.958233
    outer loop
      vertex 36.0784 -15.625 4.6985
      vertex 35.9729 -16.6289 4.6985
      vertex 39.0625 -15.625 3.81276
    endloop
  endfacet
  facet normal -0.0594605 -0.279739 0.958233
    outer loop
      vertex -31.7547 -20.4269 4.6985
      vertex -33.6642 -23.0551 3.81276
      vertex -32.0666 -23.3947 3.81276
    endloop
  endfacet
  facet normal -0.116322 -0.261263 0.958233
    outer loop
      vertex -33.6642 -19.8065 4.6985
      vertex -33.6642 -23.0551 3.81276
      vertex -32.7421 -20.2171 4.6985
    endloop
  endfacet
  facet normal -0.593895 -0.0624208 0.802118
    outer loop
      vertex -41.4767 -17.7987 2.53276
      vertex -43.3468 -15.625 1.3173
      vertex -43.0824 -18.1401 1.3173
    endloop
  endfacet
  facet normal 0.122162 0.0705302 0.990001
    outer loop
      vertex 35.1562 18.4631 4.6985
      vertex 32.5713 16.585 5.15127
      vertex 32.7421 16.2893 5.15127
    endloop
  endfacet
  facet normal 0.104828 0.0943875 0.990001
    outer loop
      vertex 35.1562 18.4631 4.6985
      vertex 32.3429 16.8387 5.15127
      vertex 32.5713 16.585 5.15127
    endloop
  endfacet
  facet normal 0.0293278 0.137978 0.990001
    outer loop
      vertex 31.7547 20.4269 4.6985
      vertex 31.4207 17.2493 5.15127
      vertex 31.7547 17.1783 5.15127
    endloop
  endfacet
  facet normal -0.178094 0.400006 0.899043
    outer loop
      vertex -33.6642 23.0551 3.81276
      vertex -36.4776 24.6794 2.53276
      vertex -35.1562 22.3908 3.81276
    endloop
  endfacet
  facet normal -0.1681 0.231369 0.958233
    outer loop
      vertex -33.6642 19.8065 4.6985
      vertex -36.4776 21.4308 3.81276
      vertex -34.4808 19.2132 4.6985
    endloop
  endfacet
  facet normal -0.0910363 0.428293 0.899043
    outer loop
      vertex -32.3429 26.0229 2.53276
      vertex -34.4808 25.5685 2.53276
      vertex -32.0666 23.3947 3.81276
    endloop
  endfacet
  facet normal 0 0.437861 0.899043
    outer loop
      vertex 32.3429 26.0229 2.53276
      vertex -32.0666 23.3947 3.81276
      vertex 32.0666 23.3947 3.81276
    endloop
  endfacet
  facet normal 0 0.437861 0.899043
    outer loop
      vertex -32.0666 23.3947 3.81276
      vertex 32.3429 26.0229 2.53276
      vertex -32.3429 26.0229 2.53276
    endloop
  endfacet
  facet normal 0.271991 -0.0883751 0.958233
    outer loop
      vertex 35.9729 -16.6289 4.6985
      vertex 35.661 -17.5889 4.6985
      vertex 38.3871 -18.8026 3.81276
    endloop
  endfacet
  facet normal 0.242889 -0.545539 0.802117
    outer loop
      vertex 36.4776 -24.6794 2.53276
      vertex 34.4808 -25.5685 2.53276
      vertex 34.9881 -27.1297 1.3173
    endloop
  endfacet
  facet normal 0.567939 -0.184533 0.802118
    outer loop
      vertex 42.4691 -20.0277 1.3173
      vertex 41.4767 -17.7987 2.53276
      vertex 42.301 -20.5452 1.3173
    endloop
  endfacet
  facet normal 0.287267 -0.0933382 0.953292
    outer loop
      vertex 42.4691 -20.0277 1.3173
      vertex 42.301 -20.5452 1.3173
      vertex 43.0824 -18.1401 1.3173
    endloop
  endfacet
  facet normal -0.0573744 0.128865 0.990001
    outer loop
      vertex -32.7421 20.2171 4.6985
      vertex -33.6642 19.8065 4.6985
      vertex -31.7547 17.1783 5.15127
    endloop
  endfacet
  facet normal -0.116322 0.261263 0.958233
    outer loop
      vertex -33.6642 23.0551 3.81276
      vertex -35.1562 22.3908 3.81276
      vertex -33.6642 19.8065 4.6985
    endloop
  endfacet
  facet normal -0.212531 -0.191364 0.958233
    outer loop
      vertex -35.1562 -18.4631 4.6985
      vertex -37.5704 -20.2171 3.81276
      vertex -36.4776 -21.4308 3.81276
    endloop
  endfacet
  facet normal -0.212531 -0.191364 0.958233
    outer loop
      vertex -35.1562 -18.4631 4.6985
      vertex -36.4776 -21.4308 3.81276
      vertex -34.4808 -19.2132 4.6985
    endloop
  endfacet
  facet normal -0.104828 -0.0943878 0.990001
    outer loop
      vertex -32.3429 -16.8387 5.15127
      vertex -35.1562 -18.4631 4.6985
      vertex -34.4808 -19.2132 4.6985
    endloop
  endfacet
  facet normal -0.104828 -0.0943875 0.990001
    outer loop
      vertex -32.5713 -16.585 5.15127
      vertex -35.1562 -18.4631 4.6985
      vertex -32.3429 -16.8387 5.15127
    endloop
  endfacet
  facet normal -0.743148 -0.669127 8.16722e-06
    outer loop
      vertex -39.7084 -24.2103 1.3173
      vertex -41.0365 -22.7353 0
      vertex -39.3443 -24.6147 1.3173
    endloop
  endfacet
  facet normal -0.0743656 -0.0669585 -0.994981
    outer loop
      vertex -39.3443 -24.6147 1.3173
      vertex -41.0365 -22.7353 1.3173
      vertex -39.7084 -24.2103 1.3173
    endloop
  endfacet
  facet normal -0.082913 -0.11412 0.990001
    outer loop
      vertex -32.3429 -16.8387 5.15127
      vertex -33.6642 -19.8065 4.6985
      vertex -32.0666 -17.0394 5.15127
    endloop
  endfacet
  facet normal 0.0594607 -0.279739 0.958233
    outer loop
      vertex 32.7421 -20.2171 4.6985
      vertex 31.7547 -20.4269 4.6985
      vertex 33.6642 -23.0551 3.81276
    endloop
  endfacet
  facet normal 0.1681 -0.231369 0.958233
    outer loop
      vertex 36.4776 -21.4308 3.81276
      vertex 33.6642 -19.8065 4.6985
      vertex 35.1562 -22.3908 3.81276
    endloop
  endfacet
  facet normal 0.0910366 -0.428292 0.899043
    outer loop
      vertex 33.6642 -23.0551 3.81276
      vertex 32.0666 -23.3947 3.81276
      vertex 34.4808 -25.5685 2.53276
    endloop
  endfacet
  facet normal 0.242889 -0.545539 0.802117
    outer loop
      vertex 36.4776 -24.6794 2.53276
      vertex 34.9881 -27.1297 1.3173
      vertex 37.2984 -26.1011 1.3173
    endloop
  endfacet
  facet normal 0.379198 -0.218931 0.899043
    outer loop
      vertex 40.8013 -19.8775 2.53276
      vertex 38.3871 -18.8026 3.81276
      vertex 39.7084 -21.7704 2.53276
    endloop
  endfacet
  facet normal 0.122162 -0.07053 0.990001
    outer loop
      vertex 35.661 -17.5889 4.6985
      vertex 32.7421 -16.2893 5.15127
      vertex 35.1562 -18.4631 4.6985
    endloop
  endfacet
  facet normal 0.140288 -0.0147446 0.990001
    outer loop
      vertex 36.0784 -15.625 4.6985
      vertex 32.8476 -15.9646 5.15127
      vertex 35.9729 -16.6289 4.6985
    endloop
  endfacet
  facet normal 0.134156 -0.0435897 0.990001
    outer loop
      vertex 32.8476 -15.9646 5.15127
      vertex 32.7421 -16.2893 5.15127
      vertex 35.9729 -16.6289 4.6985
    endloop
  endfacet
  facet normal -0.0293283 -0.137978 0.990001
    outer loop
      vertex -31.7547 -17.1783 5.15127
      vertex -32.7421 -20.2171 4.6985
      vertex -31.7547 -20.4269 4.6985
    endloop
  endfacet
  facet normal -0.0573744 -0.128865 0.990001
    outer loop
      vertex -31.7547 -17.1783 5.15127
      vertex -33.6642 -19.8065 4.6985
      vertex -32.7421 -20.2171 4.6985
    endloop
  endfacet
  facet normal -0.951057 -0.309016 0
    outer loop
      vertex -42.301 -20.5452 0
      vertex -43.0824 -18.1401 1.3173
      vertex -43.0824 -18.1401 0
    endloop
  endfacet
  facet normal -0.951057 -0.309016 0
    outer loop
      vertex -43.0824 -18.1401 1.3173
      vertex -42.301 -20.5452 0
      vertex -42.301 -20.5452 1.3173
    endloop
  endfacet
  facet normal -0.567939 -0.184534 0.802118
    outer loop
      vertex -41.4767 -17.7987 2.53276
      vertex -43.0824 -18.1401 1.3173
      vertex -42.4691 -20.0277 1.3173
    endloop
  endfacet
  facet normal 0.0743656 -0.0669585 -0.994981
    outer loop
      vertex 41.0365 -22.7353 1.3173
      vertex 39.3443 -24.6147 1.3173
      vertex 39.7084 -24.2103 1.3173
    endloop
  endfacet
  facet normal 0.743148 -0.669127 8.16722e-06
    outer loop
      vertex 39.7084 -24.2103 1.3173
      vertex 39.3443 -24.6147 1.3173
      vertex 41.0365 -22.7353 0
    endloop
  endfacet
  facet normal -0.379198 0.218931 0.899043
    outer loop
      vertex -37.5704 20.2171 3.81276
      vertex -39.7084 21.7704 2.53276
      vertex -38.3871 18.8026 3.81276
    endloop
  endfacet
  facet normal -0.1681 0.231369 0.958233
    outer loop
      vertex -35.1562 22.3908 3.81276
      vertex -36.4776 21.4308 3.81276
      vertex -33.6642 19.8065 4.6985
    endloop
  endfacet
  facet normal -0.212531 0.191364 0.958233
    outer loop
      vertex -34.4808 19.2132 4.6985
      vertex -36.4776 21.4308 3.81276
      vertex -35.1562 18.4631 4.6985
    endloop
  endfacet
  facet normal -0.247673 0.142995 0.958233
    outer loop
      vertex -37.5704 20.2171 3.81276
      vertex -38.3871 18.8026 3.81276
      vertex -35.1562 18.4631 4.6985
    endloop
  endfacet
  facet normal -0.122162 -0.0705302 0.990001
    outer loop
      vertex -32.7421 -16.2893 5.15127
      vertex -35.1562 -18.4631 4.6985
      vertex -32.5713 -16.585 5.15127
    endloop
  endfacet
  facet normal -0.247673 -0.142994 0.958233
    outer loop
      vertex -35.661 -17.5889 4.6985
      vertex -38.3871 -18.8026 3.81276
      vertex -35.1562 -18.4631 4.6985
    endloop
  endfacet
  facet normal -0.134156 -0.0435897 0.990001
    outer loop
      vertex -32.8476 -15.9646 5.15127
      vertex -35.9729 -16.6289 4.6985
      vertex -32.7421 -16.2893 5.15127
    endloop
  endfacet
  facet normal -0.134156 -0.04359 0.990001
    outer loop
      vertex -32.7421 -16.2893 5.15127
      vertex -35.9729 -16.6289 4.6985
      vertex -35.661 -17.5889 4.6985
    endloop
  endfacet
  facet normal 0.116322 -0.261263 0.958233
    outer loop
      vertex 33.6642 -19.8065 4.6985
      vertex 32.7421 -20.2171 4.6985
      vertex 33.6642 -23.0551 3.81276
    endloop
  endfacet
  facet normal 0.0573744 -0.128865 0.990001
    outer loop
      vertex 33.6642 -19.8065 4.6985
      vertex 31.7547 -17.1783 5.15127
      vertex 32.7421 -20.2171 4.6985
    endloop
  endfacet
  facet normal 0.104828 -0.0943875 0.990001
    outer loop
      vertex 32.5713 -16.585 5.15127
      vertex 32.3429 -16.8387 5.15127
      vertex 35.1562 -18.4631 4.6985
    endloop
  endfacet
  facet normal 0.122162 -0.0705302 0.990001
    outer loop
      vertex 32.7421 -16.2893 5.15127
      vertex 32.5713 -16.585 5.15127
      vertex 35.1562 -18.4631 4.6985
    endloop
  endfacet
  facet normal -0.287267 -0.0933382 0.953292
    outer loop
      vertex -42.4691 -20.0277 1.3173
      vertex -43.0824 -18.1401 1.3173
      vertex -42.301 -20.5452 1.3173
    endloop
  endfacet
  facet normal -0.567939 -0.184533 0.802118
    outer loop
      vertex -41.4767 -17.7987 2.53276
      vertex -42.4691 -20.0277 1.3173
      vertex -42.301 -20.5452 1.3173
    endloop
  endfacet
  facet normal 0.351005 -0.483118 0.802117
    outer loop
      vertex 39.3443 -24.6147 1.3173
      vertex 36.4776 -24.6794 2.53276
      vertex 37.2984 -26.1011 1.3173
    endloop
  endfacet
  facet normal 0.257368 -0.354237 0.899043
    outer loop
      vertex 38.2459 -23.3947 2.53276
      vertex 35.1562 -22.3908 3.81276
      vertex 36.4776 -24.6794 2.53276
    endloop
  endfacet
  facet normal 0.435462 -0.0457692 0.899043
    outer loop
      vertex 39.0625 -15.625 3.81276
      vertex 38.8918 -17.2493 3.81276
      vertex 41.4767 -17.7987 2.53276
    endloop
  endfacet
  facet normal 0.247673 -0.142994 0.958233
    outer loop
      vertex 35.661 -17.5889 4.6985
      vertex 35.1562 -18.4631 4.6985
      vertex 38.3871 -18.8026 3.81276
    endloop
  endfacet
  facet normal -0.104828 0.0943878 0.990001
    outer loop
      vertex -34.4808 19.2132 4.6985
      vertex -35.1562 18.4631 4.6985
      vertex -32.3429 16.8387 5.15127
    endloop
  endfacet
  facet normal -0.082913 0.11412 0.990001
    outer loop
      vertex -32.0666 17.0394 5.15127
      vertex -33.6642 19.8065 4.6985
      vertex -32.3429 16.8387 5.15127
    endloop
  endfacet
  facet normal -0.247673 0.142994 0.958233
    outer loop
      vertex -35.1562 18.4631 4.6985
      vertex -38.3871 18.8026 3.81276
      vertex -35.661 17.5889 4.6985
    endloop
  endfacet
  facet normal -0.0829132 0.11412 0.990001
    outer loop
      vertex -33.6642 19.8065 4.6985
      vertex -34.4808 19.2132 4.6985
      vertex -32.3429 16.8387 5.15127
    endloop
  endfacet
  facet normal -0.435463 0.0457688 0.899043
    outer loop
      vertex -41.4767 17.7987 2.53276
      vertex -41.7052 15.625 2.53276
      vertex -39.0625 15.625 3.81276
    endloop
  endfacet
  facet normal -0.122162 0.07053 0.990001
    outer loop
      vertex -35.1562 18.4631 4.6985
      vertex -35.661 17.5889 4.6985
      vertex -32.7421 16.2893 5.15127
    endloop
  endfacet
  facet normal 0.351005 -0.483117 0.802118
    outer loop
      vertex 38.2459 -23.3947 2.53276
      vertex 36.4776 -24.6794 2.53276
      vertex 39.3443 -24.6147 1.3173
    endloop
  endfacet
  facet normal 0.443781 -0.399582 0.802118
    outer loop
      vertex 39.7084 -21.7704 2.53276
      vertex 38.2459 -23.3947 2.53276
      vertex 39.3443 -24.6147 1.3173
    endloop
  endfacet
  facet normal 0.0910363 -0.428293 0.899043
    outer loop
      vertex 34.4808 -25.5685 2.53276
      vertex 32.0666 -23.3947 3.81276
      vertex 32.3429 -26.0229 2.53276
    endloop
  endfacet
  facet normal 0.124158 -0.584117 0.802117
    outer loop
      vertex 34.4808 -25.5685 2.53276
      vertex 32.3429 -26.0229 2.53276
      vertex 34.9881 -27.1297 1.3173
    endloop
  endfacet
  facet normal 0.271991 -0.0883752 0.958233
    outer loop
      vertex 38.8918 -17.2493 3.81276
      vertex 35.9729 -16.6289 4.6985
      vertex 38.3871 -18.8026 3.81276
    endloop
  endfacet
  facet normal 0.41643 -0.135306 0.899043
    outer loop
      vertex 38.8918 -17.2493 3.81276
      vertex 38.3871 -18.8026 3.81276
      vertex 40.8013 -19.8775 2.53276
    endloop
  endfacet
  facet normal -0.122162 0.0705302 0.990001
    outer loop
      vertex -32.5713 16.585 5.15127
      vertex -35.1562 18.4631 4.6985
      vertex -32.7421 16.2893 5.15127
    endloop
  endfacet
  facet normal -0.212531 0.191364 0.958233
    outer loop
      vertex -36.4776 21.4308 3.81276
      vertex -37.5704 20.2171 3.81276
      vertex -35.1562 18.4631 4.6985
    endloop
  endfacet
  facet normal -0.325394 0.292986 0.899043
    outer loop
      vertex -36.4776 21.4308 3.81276
      vertex -39.7084 21.7704 2.53276
      vertex -37.5704 20.2171 3.81276
    endloop
  endfacet
  facet normal -0.435462 0.0457692 0.899043
    outer loop
      vertex -38.8918 17.2493 3.81276
      vertex -41.4767 17.7987 2.53276
      vertex -39.0625 15.625 3.81276
    endloop
  endfacet
  facet normal 0.379198 -0.218931 0.899043
    outer loop
      vertex 38.3871 -18.8026 3.81276
      vertex 37.5704 -20.2171 3.81276
      vertex 39.7084 -21.7704 2.53276
    endloop
  endfacet
  facet normal 0.247673 -0.142995 0.958233
    outer loop
      vertex 38.3871 -18.8026 3.81276
      vertex 35.1562 -18.4631 4.6985
      vertex 37.5704 -20.2171 3.81276
    endloop
  endfacet
  facet normal -0.0293278 0.137978 0.990001
    outer loop
      vertex -31.7547 20.4269 4.6985
      vertex -31.7547 17.1783 5.15127
      vertex -31.4207 17.2493 5.15127
    endloop
  endfacet
  facet normal -0.0293283 0.137978 0.990001
    outer loop
      vertex -31.7547 20.4269 4.6985
      vertex -32.7421 20.2171 4.6985
      vertex -31.7547 17.1783 5.15127
    endloop
  endfacet
  facet normal -0.134156 0.04359 0.990001
    outer loop
      vertex -35.661 17.5889 4.6985
      vertex -35.9729 16.6289 4.6985
      vertex -32.7421 16.2893 5.15127
    endloop
  endfacet
  facet normal -0.284549 0 0.958662
    outer loop
      vertex -39.0625 15.625 3.81276
      vertex -36.0784 -15.625 4.6985
      vertex -36.0784 15.625 4.6985
    endloop
  endfacet
  facet normal -0.284549 0 0.958662
    outer loop
      vertex -36.0784 -15.625 4.6985
      vertex -39.0625 15.625 3.81276
      vertex -39.0625 -15.625 3.81276
    endloop
  endfacet
  facet normal -0.271991 0.0883752 0.958233
    outer loop
      vertex -38.3871 18.8026 3.81276
      vertex -38.8918 17.2493 3.81276
      vertex -35.9729 16.6289 4.6985
    endloop
  endfacet
  facet normal 0.257368 -0.354236 0.899043
    outer loop
      vertex 36.4776 -21.4308 3.81276
      vertex 35.1562 -22.3908 3.81276
      vertex 38.2459 -23.3947 2.53276
    endloop
  endfacet
  facet normal 0.325394 -0.292986 0.899043
    outer loop
      vertex 39.7084 -21.7704 2.53276
      vertex 36.4776 -21.4308 3.81276
      vertex 38.2459 -23.3947 2.53276
    endloop
  endfacet
  facet normal -0.0573751 0.128864 0.990001
    outer loop
      vertex -31.7547 17.1783 5.15127
      vertex -33.6642 19.8065 4.6985
      vertex -32.0666 17.0394 5.15127
    endloop
  endfacet
  facet normal -0.104828 0.0943875 0.990001
    outer loop
      vertex -32.3429 16.8387 5.15127
      vertex -35.1562 18.4631 4.6985
      vertex -32.5713 16.585 5.15127
    endloop
  endfacet
  facet normal -0.284422 0.0298936 0.958233
    outer loop
      vertex -35.9729 16.6289 4.6985
      vertex -39.0625 15.625 3.81276
      vertex -36.0784 15.625 4.6985
    endloop
  endfacet
  facet normal -0.134156 0.0435897 0.990001
    outer loop
      vertex -32.7421 16.2893 5.15127
      vertex -35.9729 16.6289 4.6985
      vertex -32.8476 15.9646 5.15127
    endloop
  endfacet
  facet normal 0.212531 -0.191364 0.958233
    outer loop
      vertex 37.5704 -20.2171 3.81276
      vertex 35.1562 -18.4631 4.6985
      vertex 36.4776 -21.4308 3.81276
    endloop
  endfacet
  facet normal 0.325394 -0.292986 0.899043
    outer loop
      vertex 37.5704 -20.2171 3.81276
      vertex 36.4776 -21.4308 3.81276
      vertex 39.7084 -21.7704 2.53276
    endloop
  endfacet
  facet normal -0.140288 0.0147446 0.990001
    outer loop
      vertex -35.9729 16.6289 4.6985
      vertex -36.0784 15.625 4.6985
      vertex -32.8476 15.9646 5.15127
    endloop
  endfacet
  facet normal -0.140288 0.0147447 0.990001
    outer loop
      vertex -32.8476 15.9646 5.15127
      vertex -36.0784 15.625 4.6985
      vertex -32.8833 15.625 5.15127
    endloop
  endfacet
  facet normal 0 -0.978148 -0.207911
    outer loop
      vertex -4.55 4.97261 2.92264
      vertex 4.55 4.75528 3.94508
      vertex -4.55 4.75528 3.94508
    endloop
  endfacet
  facet normal 0 -0.978148 -0.207911
    outer loop
      vertex 4.55 4.75528 3.94508
      vertex -4.55 4.97261 2.92264
      vertex 4.55 4.97261 2.92264
    endloop
  endfacet
  facet normal 0 -1 0
    outer loop
      vertex -4.55 4.97261 0
      vertex 4.55 4.97261 2.92264
      vertex -4.55 4.97261 2.92264
    endloop
  endfacet
  facet normal 0 -1 -0
    outer loop
      vertex 4.55 4.97261 2.92264
      vertex -4.55 4.97261 0
      vertex 4.55 4.97261 0
    endloop
  endfacet
  facet normal 0 1 -0
    outer loop
      vertex 4.55 -4.97261 0
      vertex -4.55 -4.97261 2.92264
      vertex 4.55 -4.97261 2.92264
    endloop
  endfacet
  facet normal 0 1 0
    outer loop
      vertex -4.55 -4.97261 2.92264
      vertex 4.55 -4.97261 0
      vertex -4.55 -4.97261 0
    endloop
  endfacet
  facet normal 0 -0.913545 -0.406737
    outer loop
      vertex -4.55 4.75528 3.94508
      vertex 4.55 4.33013 4.9
      vertex -4.55 4.33013 4.9
    endloop
  endfacet
  facet normal 0 -0.913545 -0.406737
    outer loop
      vertex 4.55 4.33013 4.9
      vertex -4.55 4.75528 3.94508
      vertex 4.55 4.75528 3.94508
    endloop
  endfacet
  facet normal 0 -0.809017 -0.587786
    outer loop
      vertex -4.55 4.33013 4.9
      vertex 4.55 4.14757 5.15127
      vertex -4.55 4.14757 5.15127
    endloop
  endfacet
  facet normal 0 -0.809017 -0.587786
    outer loop
      vertex 4.55 4.14757 5.15127
      vertex -4.55 4.33013 4.9
      vertex 4.55 4.33013 4.9
    endloop
  endfacet
  facet normal 1 0 0
    outer loop
      vertex -4.55 4.14757 5.15127
      vertex -4.55 4.97261 2.92264
      vertex -4.55 4.75528 3.94508
    endloop
  endfacet
  facet normal 1 0 0
    outer loop
      vertex -4.55 4.14757 5.15127
      vertex -4.55 4.75528 3.94508
      vertex -4.55 4.33013 4.9
    endloop
  endfacet
  facet normal 1 0 0
    outer loop
      vertex -4.55 4.97261 2.92264
      vertex -4.55 4.14757 5.15127
      vertex -4.55 -4.97261 2.92264
    endloop
  endfacet
  facet normal 1 0 0
    outer loop
      vertex -4.55 -4.97261 2.92264
      vertex -4.55 4.14757 5.15127
      vertex -4.55 -4.14757 5.15127
    endloop
  endfacet
  facet normal 1 0 0
    outer loop
      vertex -4.55 -4.75528 3.94508
      vertex -4.55 -4.14757 5.15127
      vertex -4.55 -4.33013 4.9
    endloop
  endfacet
  facet normal 1 0 0
    outer loop
      vertex -4.55 -4.14757 5.15127
      vertex -4.55 -4.75528 3.94508
      vertex -4.55 -4.97261 2.92264
    endloop
  endfacet
  facet normal 1 0 0
    outer loop
      vertex -4.55 4.97261 2.92264
      vertex -4.55 -4.97261 2.92264
      vertex -4.55 4.97261 0
    endloop
  endfacet
  facet normal 1 0 0
    outer loop
      vertex -4.55 4.97261 0
      vertex -4.55 -4.97261 2.92264
      vertex -4.55 -4.97261 0
    endloop
  endfacet
  facet normal 0 0.809017 -0.587786
    outer loop
      vertex 4.55 -4.33013 4.9
      vertex -4.55 -4.14757 5.15127
      vertex 4.55 -4.14757 5.15127
    endloop
  endfacet
  facet normal 0 0.809017 -0.587786
    outer loop
      vertex -4.55 -4.14757 5.15127
      vertex 4.55 -4.33013 4.9
      vertex -4.55 -4.33013 4.9
    endloop
  endfacet
  facet normal -1 0 0
    outer loop
      vertex 4.55 -4.97261 2.92264
      vertex 4.55 4.97261 2.92264
      vertex 4.55 4.97261 0
    endloop
  endfacet
  facet normal -1 0 -0
    outer loop
      vertex 4.55 4.14757 5.15127
      vertex 4.55 4.97261 2.92264
      vertex 4.55 -4.97261 2.92264
    endloop
  endfacet
  facet normal -1 0 0
    outer loop
      vertex 4.55 4.97261 2.92264
      vertex 4.55 4.14757 5.15127
      vertex 4.55 4.75528 3.94508
    endloop
  endfacet
  facet normal -1 0 0
    outer loop
      vertex 4.55 4.75528 3.94508
      vertex 4.55 4.14757 5.15127
      vertex 4.55 4.33013 4.9
    endloop
  endfacet
  facet normal -1 -0 0
    outer loop
      vertex 4.55 4.14757 5.15127
      vertex 4.55 -4.97261 2.92264
      vertex 4.55 -4.14757 5.15127
    endloop
  endfacet
  facet normal -1 0 -0
    outer loop
      vertex 4.55 -4.75528 3.94508
      vertex 4.55 -4.14757 5.15127
      vertex 4.55 -4.97261 2.92264
    endloop
  endfacet
  facet normal -1 0 0
    outer loop
      vertex 4.55 -4.97261 2.92264
      vertex 4.55 4.97261 0
      vertex 4.55 -4.97261 0
    endloop
  endfacet
  facet normal -1 0 0
    outer loop
      vertex 4.55 -4.14757 5.15127
      vertex 4.55 -4.75528 3.94508
      vertex 4.55 -4.33013 4.9
    endloop
  endfacet
  facet normal 0 0.978148 -0.207911
    outer loop
      vertex 4.55 -4.97261 2.92264
      vertex -4.55 -4.75528 3.94508
      vertex 4.55 -4.75528 3.94508
    endloop
  endfacet
  facet normal 0 0.978148 -0.207911
    outer loop
      vertex -4.55 -4.75528 3.94508
      vertex 4.55 -4.97261 2.92264
      vertex -4.55 -4.97261 2.92264
    endloop
  endfacet
  facet normal 0 0.913545 -0.406737
    outer loop
      vertex 4.55 -4.75528 3.94508
      vertex -4.55 -4.33013 4.9
      vertex 4.55 -4.33013 4.9
    endloop
  endfacet
  facet normal 0 0.913545 -0.406737
    outer loop
      vertex -4.55 -4.33013 4.9
      vertex 4.55 -4.75528 3.94508
      vertex -4.55 -4.75528 3.94508
    endloop
  endfacet
endsolid OpenSCAD_Model
