  0
SECTION
  2
BLOCKS
  0
ENDSEC
  0
SECTION
  2
ENTITIES
  0
LINE
  8
0
 10
63.5766
 20
-81.6836
 11
64.2886
 21
-81.5835
  0
LINE
  8
0
 10
64.2886
 20
-81.5835
 11
64.9918
 21
-81.434
  0
LINE
  8
0
 10
64.9918
 20
-81.434
 11
65.6829
 21
-81.2359
  0
LINE
  8
0
 10
65.6829
 20
-81.2359
 11
66.3584
 21
-80.99
  0
LINE
  8
0
 10
66.3584
 20
-80.99
 11
67.0152
 21
-80.6976
  0
LINE
  8
0
 10
67.0152
 20
-80.6976
 11
67.65
 21
-80.3601
  0
LINE
  8
0
 10
67.65
 20
-80.3601
 11
68.2597
 21
-79.9791
  0
LINE
  8
0
 10
68.2597
 20
-79.9791
 11
68.8413
 21
-79.5565
  0
LINE
  8
0
 10
68.8413
 20
-79.5565
 11
69.392
 21
-79.0944
  0
LINE
  8
0
 10
69.392
 20
-79.0944
 11
69.9092
 21
-78.595
  0
LINE
  8
0
 10
69.9092
 20
-78.595
 11
70.3903
 21
-78.0607
  0
LINE
  8
0
 10
70.3903
 20
-78.0607
 11
70.8329
 21
-77.4942
  0
LINE
  8
0
 10
70.8329
 20
-77.4942
 11
71.2349
 21
-76.8982
  0
LINE
  8
0
 10
71.2349
 20
-76.8982
 11
71.5944
 21
-76.2756
  0
LINE
  8
0
 10
71.5944
 20
-76.2756
 11
71.9095
 21
-75.6294
  0
LINE
  8
0
 10
71.9095
 20
-75.6294
 11
72.1788
 21
-74.9628
  0
LINE
  8
0
 10
72.1788
 20
-74.9628
 11
72.401
 21
-74.2791
  0
LINE
  8
0
 10
72.401
 20
-74.2791
 11
72.5749
 21
-73.5815
  0
LINE
  8
0
 10
72.5749
 20
-73.5815
 11
72.6998
 21
-72.8735
  0
LINE
  8
0
 10
72.6998
 20
-72.8735
 11
72.7749
 21
-72.1585
  0
LINE
  8
0
 10
72.7749
 20
-72.1585
 11
72.8
 21
-71.44
  0
LINE
  8
0
 10
72.8
 20
-71.44
 11
72.7749
 21
-70.7215
  0
LINE
  8
0
 10
72.7749
 20
-70.7215
 11
72.6998
 21
-70.0065
  0
LINE
  8
0
 10
72.6998
 20
-70.0065
 11
72.5749
 21
-69.2985
  0
LINE
  8
0
 10
72.5749
 20
-69.2985
 11
72.401
 21
-68.6009
  0
LINE
  8
0
 10
72.401
 20
-68.6009
 11
72.1788
 21
-67.9172
  0
LINE
  8
0
 10
72.1788
 20
-67.9172
 11
71.9095
 21
-67.2506
  0
LINE
  8
0
 10
71.9095
 20
-67.2506
 11
71.5944
 21
-66.6044
  0
LINE
  8
0
 10
71.5944
 20
-66.6044
 11
71.2349
 21
-65.9818
  0
LINE
  8
0
 10
71.2349
 20
-65.9818
 11
70.8329
 21
-65.3858
  0
LINE
  8
0
 10
70.8329
 20
-65.3858
 11
70.3903
 21
-64.8193
  0
LINE
  8
0
 10
70.3903
 20
-64.8193
 11
69.9092
 21
-64.285
  0
LINE
  8
0
 10
69.9092
 20
-64.285
 11
69.392
 21
-63.7856
  0
LINE
  8
0
 10
69.392
 20
-63.7856
 11
68.8413
 21
-63.3235
  0
LINE
  8
0
 10
68.8413
 20
-63.3235
 11
68.2597
 21
-62.9009
  0
LINE
  8
0
 10
68.2597
 20
-62.9009
 11
67.65
 21
-62.5199
  0
LINE
  8
0
 10
67.65
 20
-62.5199
 11
67.0152
 21
-62.1824
  0
LINE
  8
0
 10
67.0152
 20
-62.1824
 11
66.3584
 21
-61.89
  0
LINE
  8
0
 10
66.3584
 20
-61.89
 11
65.6829
 21
-61.6441
  0
LINE
  8
0
 10
65.6829
 20
-61.6441
 11
64.9918
 21
-61.446
  0
LINE
  8
0
 10
64.9918
 20
-61.446
 11
64.2886
 21
-61.2965
  0
LINE
  8
0
 10
64.2886
 20
-61.2965
 11
54.1139
 21
-59.7951
  0
LINE
  8
0
 10
54.1139
 20
-59.7951
 11
46.4789
 21
-50.7202
  0
LINE
  8
0
 10
46.4789
 20
-50.7202
 11
46.44
 21
-50.677
  0
LINE
  8
0
 10
46.44
 20
-50.677
 11
46.44
 21
-1.03738
  0
LINE
  8
0
 10
46.44
 20
-1.03738
 11
67.1277
 21
50.3875
  0
LINE
  8
0
 10
67.1277
 20
50.3875
 11
67.2831
 21
50.8654
  0
LINE
  8
0
 10
67.2831
 20
50.8654
 11
67.4046
 21
51.353
  0
LINE
  8
0
 10
67.4046
 20
51.353
 11
67.4919
 21
51.8479
  0
LINE
  8
0
 10
67.4919
 20
51.8479
 11
67.5444
 21
52.3477
  0
LINE
  8
0
 10
67.5444
 20
52.3477
 11
67.562
 21
52.85
  0
LINE
  8
0
 10
67.562
 20
52.85
 11
67.5444
 21
53.3522
  0
LINE
  8
0
 10
67.5444
 20
53.3522
 11
67.4919
 21
53.852
  0
LINE
  8
0
 10
67.4919
 20
53.852
 11
67.4046
 21
54.347
  0
LINE
  8
0
 10
67.4046
 20
54.347
 11
67.2831
 21
54.8346
  0
LINE
  8
0
 10
67.2831
 20
54.8346
 11
67.1277
 21
55.3125
  0
LINE
  8
0
 10
67.1277
 20
55.3125
 11
66.9395
 21
55.7785
  0
LINE
  8
0
 10
66.9395
 20
55.7785
 11
66.7192
 21
56.2302
  0
LINE
  8
0
 10
66.7192
 20
56.2302
 11
66.4679
 21
56.6654
  0
LINE
  8
0
 10
66.4679
 20
56.6654
 11
66.1869
 21
57.082
  0
LINE
  8
0
 10
66.1869
 20
57.082
 11
65.8775
 21
57.4781
  0
LINE
  8
0
 10
65.8775
 20
57.4781
 11
65.5412
 21
57.8515
  0
LINE
  8
0
 10
65.5412
 20
57.8515
 11
65.1797
 21
58.2006
  0
LINE
  8
0
 10
65.1797
 20
58.2006
 11
64.7947
 21
58.5237
  0
LINE
  8
0
 10
64.7947
 20
58.5237
 11
64.3882
 21
58.8191
  0
LINE
  8
0
 10
64.3882
 20
58.8191
 11
63.962
 21
59.0854
  0
LINE
  8
0
 10
63.962
 20
59.0854
 11
63.5182
 21
59.3213
  0
LINE
  8
0
 10
63.5182
 20
59.3213
 11
63.0591
 21
59.5257
  0
LINE
  8
0
 10
63.0591
 20
59.5257
 11
62.5869
 21
59.6976
  0
LINE
  8
0
 10
62.5869
 20
59.6976
 11
62.1038
 21
59.8361
  0
LINE
  8
0
 10
62.1038
 20
59.8361
 11
61.6122
 21
59.9406
  0
LINE
  8
0
 10
61.6122
 20
59.9406
 11
61.1146
 21
60.0106
  0
LINE
  8
0
 10
61.1146
 20
60.0106
 11
60.6132
 21
60.0456
  0
LINE
  8
0
 10
60.6132
 20
60.0456
 11
60.1107
 21
60.0456
  0
LINE
  8
0
 10
60.1107
 20
60.0456
 11
59.6094
 21
60.0106
  0
LINE
  8
0
 10
59.6094
 20
60.0106
 11
59.1117
 21
59.9406
  0
LINE
  8
0
 10
59.1117
 20
59.9406
 11
58.6201
 21
59.8361
  0
LINE
  8
0
 10
58.6201
 20
59.8361
 11
58.137
 21
59.6976
  0
LINE
  8
0
 10
58.137
 20
59.6976
 11
57.6648
 21
59.5257
  0
LINE
  8
0
 10
57.6648
 20
59.5257
 11
57.2057
 21
59.3213
  0
LINE
  8
0
 10
57.2057
 20
59.3213
 11
56.762
 21
59.0854
  0
LINE
  8
0
 10
56.762
 20
59.0854
 11
56.3358
 21
58.8191
  0
LINE
  8
0
 10
56.3358
 20
58.8191
 11
55.9292
 21
58.5237
  0
LINE
  8
0
 10
55.9292
 20
58.5237
 11
55.5442
 21
58.2006
  0
LINE
  8
0
 10
55.5442
 20
58.2006
 11
55.1827
 21
57.8515
  0
LINE
  8
0
 10
55.1827
 20
57.8515
 11
54.8463
 21
57.4779
  0
LINE
  8
0
 10
54.8463
 20
57.4779
 11
42.8456
 21
42.2092
  0
LINE
  8
0
 10
42.8456
 20
42.2092
 11
41.8207
 21
41.2534
  0
LINE
  8
0
 10
41.8207
 20
41.2534
 11
40.1742
 21
39.8222
  0
LINE
  8
0
 10
40.1742
 20
39.8222
 11
38.4788
 21
38.4493
  0
LINE
  8
0
 10
38.4788
 20
38.4493
 11
36.7366
 21
37.1364
  0
LINE
  8
0
 10
36.7366
 20
37.1364
 11
34.9496
 21
35.8851
  0
LINE
  8
0
 10
34.9496
 20
35.8851
 11
33.1199
 21
34.697
  0
LINE
  8
0
 10
33.1199
 20
34.697
 11
31.25
 21
33.5734
  0
LINE
  8
0
 10
31.25
 20
33.5734
 11
29.342
 21
32.5158
  0
LINE
  8
0
 10
29.342
 20
32.5158
 11
27.3982
 21
31.5254
  0
LINE
  8
0
 10
27.3982
 20
31.5254
 11
25.421
 21
30.6034
  0
LINE
  8
0
 10
25.421
 20
30.6034
 11
23.4129
 21
29.751
  0
LINE
  8
0
 10
23.4129
 20
29.751
 11
21.3763
 21
28.9692
  0
LINE
  8
0
 10
21.3763
 20
28.9692
 11
19.3136
 21
28.259
  0
LINE
  8
0
 10
19.3136
 20
28.259
 11
17.2273
 21
27.6211
  0
LINE
  8
0
 10
17.2273
 20
27.6211
 11
15.1201
 21
27.0565
  0
LINE
  8
0
 10
15.1201
 20
27.0565
 11
12.9945
 21
26.5658
  0
LINE
  8
0
 10
12.9945
 20
26.5658
 11
10.853
 21
26.1495
  0
LINE
  8
0
 10
10.853
 20
26.1495
 11
8.69832
 21
25.8082
  0
LINE
  8
0
 10
8.69832
 20
25.8082
 11
7.79898
 21
25.6978
  0
LINE
  8
0
 10
7.79898
 20
25.6978
 11
7.77414
 21
25.7049
  0
LINE
  8
0
 10
7.77414
 20
25.7049
 11
7.55566
 21
25.7514
  0
LINE
  8
0
 10
7.55566
 20
25.7514
 11
7.33449
 21
25.7825
  0
LINE
  8
0
 10
7.33449
 20
25.7825
 11
7.11166
 21
25.798
  0
LINE
  8
0
 10
7.11166
 20
25.798
 11
-7.11166
 21
25.798
  0
LINE
  8
0
 10
-7.11166
 20
25.798
 11
-7.33449
 21
25.7825
  0
LINE
  8
0
 10
-7.33449
 20
25.7825
 11
-7.55566
 21
25.7514
  0
LINE
  8
0
 10
-7.55566
 20
25.7514
 11
-7.77414
 21
25.7049
  0
LINE
  8
0
 10
-7.77414
 20
25.7049
 11
-7.79898
 21
25.6978
  0
LINE
  8
0
 10
-7.79898
 20
25.6978
 11
-8.69832
 21
25.8082
  0
LINE
  8
0
 10
-8.69832
 20
25.8082
 11
-10.853
 21
26.1495
  0
LINE
  8
0
 10
-10.853
 20
26.1495
 11
-12.9945
 21
26.5658
  0
LINE
  8
0
 10
-12.9945
 20
26.5658
 11
-15.1201
 21
27.0565
  0
LINE
  8
0
 10
-15.1201
 20
27.0565
 11
-17.2273
 21
27.6211
  0
LINE
  8
0
 10
-17.2273
 20
27.6211
 11
-19.3136
 21
28.259
  0
LINE
  8
0
 10
-19.3136
 20
28.259
 11
-21.3763
 21
28.9692
  0
LINE
  8
0
 10
-21.3763
 20
28.9692
 11
-23.4129
 21
29.751
  0
LINE
  8
0
 10
-23.4129
 20
29.751
 11
-25.421
 21
30.6034
  0
LINE
  8
0
 10
-25.421
 20
30.6034
 11
-27.3982
 21
31.5254
  0
LINE
  8
0
 10
-27.3982
 20
31.5254
 11
-29.342
 21
32.5158
  0
LINE
  8
0
 10
-29.342
 20
32.5158
 11
-31.25
 21
33.5734
  0
LINE
  8
0
 10
-31.25
 20
33.5734
 11
-33.1199
 21
34.697
  0
LINE
  8
0
 10
-33.1199
 20
34.697
 11
-34.9496
 21
35.8851
  0
LINE
  8
0
 10
-34.9496
 20
35.8851
 11
-36.7366
 21
37.1364
  0
LINE
  8
0
 10
-36.7366
 20
37.1364
 11
-38.4788
 21
38.4493
  0
LINE
  8
0
 10
-38.4788
 20
38.4493
 11
-40.1742
 21
39.8222
  0
LINE
  8
0
 10
-40.1742
 20
39.8222
 11
-41.8207
 21
41.2534
  0
LINE
  8
0
 10
-41.8207
 20
41.2534
 11
-42.8456
 21
42.2092
  0
LINE
  8
0
 10
-42.8456
 20
42.2092
 11
-54.8465
 21
57.4781
  0
LINE
  8
0
 10
-54.8465
 20
57.4781
 11
-55.1827
 21
57.8515
  0
LINE
  8
0
 10
-55.1827
 20
57.8515
 11
-55.5442
 21
58.2006
  0
LINE
  8
0
 10
-55.5442
 20
58.2006
 11
-55.9292
 21
58.5237
  0
LINE
  8
0
 10
-55.9292
 20
58.5237
 11
-56.3358
 21
58.8191
  0
LINE
  8
0
 10
-56.3358
 20
58.8191
 11
-56.762
 21
59.0854
  0
LINE
  8
0
 10
-56.762
 20
59.0854
 11
-57.2057
 21
59.3213
  0
LINE
  8
0
 10
-57.2057
 20
59.3213
 11
-57.6648
 21
59.5257
  0
LINE
  8
0
 10
-57.6648
 20
59.5257
 11
-58.137
 21
59.6976
  0
LINE
  8
0
 10
-58.137
 20
59.6976
 11
-58.6201
 21
59.8361
  0
LINE
  8
0
 10
-58.6201
 20
59.8361
 11
-59.1117
 21
59.9406
  0
LINE
  8
0
 10
-59.1117
 20
59.9406
 11
-59.6094
 21
60.0106
  0
LINE
  8
0
 10
-59.6094
 20
60.0106
 11
-60.1107
 21
60.0456
  0
LINE
  8
0
 10
-60.1107
 20
60.0456
 11
-60.6132
 21
60.0456
  0
LINE
  8
0
 10
-60.6132
 20
60.0456
 11
-61.1146
 21
60.0106
  0
LINE
  8
0
 10
-61.1146
 20
60.0106
 11
-61.6122
 21
59.9406
  0
LINE
  8
0
 10
-61.6122
 20
59.9406
 11
-62.1038
 21
59.8361
  0
LINE
  8
0
 10
-62.1038
 20
59.8361
 11
-62.5869
 21
59.6976
  0
LINE
  8
0
 10
-62.5869
 20
59.6976
 11
-63.0591
 21
59.5257
  0
LINE
  8
0
 10
-63.0591
 20
59.5257
 11
-63.5182
 21
59.3213
  0
LINE
  8
0
 10
-63.5182
 20
59.3213
 11
-63.962
 21
59.0854
  0
LINE
  8
0
 10
-63.962
 20
59.0854
 11
-64.3882
 21
58.8191
  0
LINE
  8
0
 10
-64.3882
 20
58.8191
 11
-64.7947
 21
58.5237
  0
LINE
  8
0
 10
-64.7947
 20
58.5237
 11
-65.1797
 21
58.2006
  0
LINE
  8
0
 10
-65.1797
 20
58.2006
 11
-65.5412
 21
57.8515
  0
LINE
  8
0
 10
-65.5412
 20
57.8515
 11
-65.8775
 21
57.4781
  0
LINE
  8
0
 10
-65.8775
 20
57.4781
 11
-66.1869
 21
57.082
  0
LINE
  8
0
 10
-66.1869
 20
57.082
 11
-66.4679
 21
56.6654
  0
LINE
  8
0
 10
-66.4679
 20
56.6654
 11
-66.7192
 21
56.2302
  0
LINE
  8
0
 10
-66.7192
 20
56.2302
 11
-66.9395
 21
55.7785
  0
LINE
  8
0
 10
-66.9395
 20
55.7785
 11
-67.1277
 21
55.3125
  0
LINE
  8
0
 10
-67.1277
 20
55.3125
 11
-67.2831
 21
54.8346
  0
LINE
  8
0
 10
-67.2831
 20
54.8346
 11
-67.4046
 21
54.347
  0
LINE
  8
0
 10
-67.4046
 20
54.347
 11
-67.4919
 21
53.852
  0
LINE
  8
0
 10
-67.4919
 20
53.852
 11
-67.5444
 21
53.3522
  0
LINE
  8
0
 10
-67.5444
 20
53.3522
 11
-67.562
 21
52.85
  0
LINE
  8
0
 10
-67.562
 20
52.85
 11
-67.5444
 21
52.3477
  0
LINE
  8
0
 10
-67.5444
 20
52.3477
 11
-67.4919
 21
51.8479
  0
LINE
  8
0
 10
-67.4919
 20
51.8479
 11
-67.4046
 21
51.353
  0
LINE
  8
0
 10
-67.4046
 20
51.353
 11
-67.2831
 21
50.8654
  0
LINE
  8
0
 10
-67.2831
 20
50.8654
 11
-67.1277
 21
50.3875
  0
LINE
  8
0
 10
-67.1277
 20
50.3875
 11
-46.44
 21
-1.03738
  0
LINE
  8
0
 10
-46.44
 20
-1.03738
 11
-46.44
 21
-50.677
  0
LINE
  8
0
 10
-46.44
 20
-50.677
 11
-46.4789
 21
-50.7202
  0
LINE
  8
0
 10
-46.4789
 20
-50.7202
 11
-54.1139
 21
-59.7951
  0
LINE
  8
0
 10
-54.1139
 20
-59.7951
 11
-64.2886
 21
-61.2965
  0
LINE
  8
0
 10
-64.2886
 20
-61.2965
 11
-64.9918
 21
-61.446
  0
LINE
  8
0
 10
-64.9918
 20
-61.446
 11
-65.6829
 21
-61.6441
  0
LINE
  8
0
 10
-65.6829
 20
-61.6441
 11
-66.3584
 21
-61.89
  0
LINE
  8
0
 10
-66.3584
 20
-61.89
 11
-67.0152
 21
-62.1824
  0
LINE
  8
0
 10
-67.0152
 20
-62.1824
 11
-67.65
 21
-62.5199
  0
LINE
  8
0
 10
-67.65
 20
-62.5199
 11
-68.2597
 21
-62.9009
  0
LINE
  8
0
 10
-68.2597
 20
-62.9009
 11
-68.8413
 21
-63.3235
  0
LINE
  8
0
 10
-68.8413
 20
-63.3235
 11
-69.392
 21
-63.7856
  0
LINE
  8
0
 10
-69.392
 20
-63.7856
 11
-69.9092
 21
-64.285
  0
LINE
  8
0
 10
-69.9092
 20
-64.285
 11
-70.3903
 21
-64.8193
  0
LINE
  8
0
 10
-70.3903
 20
-64.8193
 11
-70.8329
 21
-65.3858
  0
LINE
  8
0
 10
-70.8329
 20
-65.3858
 11
-71.2349
 21
-65.9818
  0
LINE
  8
0
 10
-71.2349
 20
-65.9818
 11
-71.5944
 21
-66.6044
  0
LINE
  8
0
 10
-71.5944
 20
-66.6044
 11
-71.9095
 21
-67.2506
  0
LINE
  8
0
 10
-71.9095
 20
-67.2506
 11
-72.1788
 21
-67.9172
  0
LINE
  8
0
 10
-72.1788
 20
-67.9172
 11
-72.401
 21
-68.6009
  0
LINE
  8
0
 10
-72.401
 20
-68.6009
 11
-72.5749
 21
-69.2985
  0
LINE
  8
0
 10
-72.5749
 20
-69.2985
 11
-72.6998
 21
-70.0065
  0
LINE
  8
0
 10
-72.6998
 20
-70.0065
 11
-72.7749
 21
-70.7215
  0
LINE
  8
0
 10
-72.7749
 20
-70.7215
 11
-72.8
 21
-71.44
  0
LINE
  8
0
 10
-72.8
 20
-71.44
 11
-72.7749
 21
-72.1585
  0
LINE
  8
0
 10
-72.7749
 20
-72.1585
 11
-72.6998
 21
-72.8735
  0
LINE
  8
0
 10
-72.6998
 20
-72.8735
 11
-72.5749
 21
-73.5815
  0
LINE
  8
0
 10
-72.5749
 20
-73.5815
 11
-72.401
 21
-74.2791
  0
LINE
  8
0
 10
-72.401
 20
-74.2791
 11
-72.1788
 21
-74.9628
  0
LINE
  8
0
 10
-72.1788
 20
-74.9628
 11
-71.9095
 21
-75.6294
  0
LINE
  8
0
 10
-71.9095
 20
-75.6294
 11
-71.5944
 21
-76.2756
  0
LINE
  8
0
 10
-71.5944
 20
-76.2756
 11
-71.2349
 21
-76.8982
  0
LINE
  8
0
 10
-71.2349
 20
-76.8982
 11
-70.8329
 21
-77.4942
  0
LINE
  8
0
 10
-70.8329
 20
-77.4942
 11
-70.3903
 21
-78.0607
  0
LINE
  8
0
 10
-70.3903
 20
-78.0607
 11
-69.9092
 21
-78.595
  0
LINE
  8
0
 10
-69.9092
 20
-78.595
 11
-69.392
 21
-79.0944
  0
LINE
  8
0
 10
-69.392
 20
-79.0944
 11
-68.8413
 21
-79.5565
  0
LINE
  8
0
 10
-68.8413
 20
-79.5565
 11
-68.2597
 21
-79.9791
  0
LINE
  8
0
 10
-68.2597
 20
-79.9791
 11
-67.65
 21
-80.3601
  0
LINE
  8
0
 10
-67.65
 20
-80.3601
 11
-67.0152
 21
-80.6976
  0
LINE
  8
0
 10
-67.0152
 20
-80.6976
 11
-66.3584
 21
-80.99
  0
LINE
  8
0
 10
-66.3584
 20
-80.99
 11
-65.6829
 21
-81.2359
  0
LINE
  8
0
 10
-65.6829
 20
-81.2359
 11
-64.9918
 21
-81.434
  0
LINE
  8
0
 10
-64.9918
 20
-81.434
 11
-64.2886
 21
-81.5835
  0
LINE
  8
0
 10
-64.2886
 20
-81.5835
 11
-63.5766
 21
-81.6836
  0
LINE
  8
0
 10
-63.5766
 20
-81.6836
 11
-62.8595
 21
-81.7337
  0
LINE
  8
0
 10
-62.8595
 20
-81.7337
 11
62.8595
 21
-81.7337
  0
LINE
  8
0
 10
62.8595
 20
-81.7337
 11
63.5766
 21
-81.6836
  0
LINE
  8
0
 10
-3.5
 20
9.75
 11
-3.5
 21
20.25
  0
LINE
  8
0
 10
-3.5
 20
20.25
 11
3.5
 21
20.25
  0
LINE
  8
0
 10
3.5
 20
20.25
 11
3.5
 21
9.75
  0
LINE
  8
0
 10
3.5
 20
9.75
 11
-3.5
 21
9.75
  0
LINE
  8
0
 10
-0.101196
 20
1.10176
 11
-0.303131
 21
1.11588
  0
LINE
  8
0
 10
-0.303131
 20
1.11588
 11
-0.503571
 21
1.14406
  0
LINE
  8
0
 10
-0.503571
 20
1.14406
 11
-0.701569
 21
1.18614
  0
LINE
  8
0
 10
-0.701569
 20
1.18614
 11
-0.896149
 21
1.24193
  0
LINE
  8
0
 10
-0.896149
 20
1.24193
 11
-1.08635
 21
1.31116
  0
LINE
  8
0
 10
-1.08635
 20
1.31116
 11
-1.27127
 21
1.39349
  0
LINE
  8
0
 10
-1.27127
 20
1.39349
 11
-1.45
 21
1.48853
  0
LINE
  8
0
 10
-1.45
 20
1.48853
 11
-1.62166
 21
1.59578
  0
LINE
  8
0
 10
-1.62166
 20
1.59578
 11
-1.78542
 21
1.71477
  0
LINE
  8
0
 10
-1.78542
 20
1.71477
 11
-1.94048
 21
1.84488
  0
LINE
  8
0
 10
-1.94048
 20
1.84488
 11
-2.08607
 21
1.98549
  0
LINE
  8
0
 10
-2.08607
 20
1.98549
 11
-2.22153
 21
2.13591
  0
LINE
  8
0
 10
-2.22153
 20
2.13591
 11
-2.34615
 21
2.29541
  0
LINE
  8
0
 10
-2.34615
 20
2.29541
 11
-2.45934
 21
2.46323
  0
LINE
  8
0
 10
-2.45934
 20
2.46323
 11
-2.56055
 21
2.63852
  0
LINE
  8
0
 10
-2.56055
 20
2.63852
 11
-2.64928
 21
2.82045
  0
LINE
  8
0
 10
-2.64928
 20
2.82045
 11
-2.7251
 21
3.00813
  0
LINE
  8
0
 10
-2.7251
 20
3.00813
 11
-2.78766
 21
3.20064
  0
LINE
  8
0
 10
-2.78766
 20
3.20064
 11
-2.83662
 21
3.39705
  0
LINE
  8
0
 10
-2.83662
 20
3.39705
 11
-2.87177
 21
3.59639
  0
LINE
  8
0
 10
-2.87177
 20
3.59639
 11
-2.89293
 21
3.7977
  0
LINE
  8
0
 10
-2.89293
 20
3.7977
 11
-2.89999
 21
4
  0
LINE
  8
0
 10
-2.89999
 20
4
 11
-2.89293
 21
4.20229
  0
LINE
  8
0
 10
-2.89293
 20
4.20229
 11
-2.87177
 21
4.40359
  0
LINE
  8
0
 10
-2.87177
 20
4.40359
 11
-2.83662
 21
4.60294
  0
LINE
  8
0
 10
-2.83662
 20
4.60294
 11
-2.78766
 21
4.79935
  0
LINE
  8
0
 10
-2.78766
 20
4.79935
 11
-2.7251
 21
4.99185
  0
LINE
  8
0
 10
-2.7251
 20
4.99185
 11
-2.64928
 21
5.17953
  0
LINE
  8
0
 10
-2.64928
 20
5.17953
 11
-2.56055
 21
5.36147
  0
LINE
  8
0
 10
-2.56055
 20
5.36147
 11
-2.45934
 21
5.53676
  0
LINE
  8
0
 10
-2.45934
 20
5.53676
 11
-2.34615
 21
5.70457
  0
LINE
  8
0
 10
-2.34615
 20
5.70457
 11
-2.22153
 21
5.86407
  0
LINE
  8
0
 10
-2.22153
 20
5.86407
 11
-2.08607
 21
6.0145
  0
LINE
  8
0
 10
-2.08607
 20
6.0145
 11
-1.94048
 21
6.15511
  0
LINE
  8
0
 10
-1.94048
 20
6.15511
 11
-1.78542
 21
6.28522
  0
LINE
  8
0
 10
-1.78542
 20
6.28522
 11
-1.62166
 21
6.40421
  0
LINE
  8
0
 10
-1.62166
 20
6.40421
 11
-1.45
 21
6.51146
  0
LINE
  8
0
 10
-1.45
 20
6.51146
 11
-1.27127
 21
6.60649
  0
LINE
  8
0
 10
-1.27127
 20
6.60649
 11
-1.08635
 21
6.68883
  0
LINE
  8
0
 10
-1.08635
 20
6.68883
 11
-0.896149
 21
6.75806
  0
LINE
  8
0
 10
-0.896149
 20
6.75806
 11
-0.701569
 21
6.81384
  0
LINE
  8
0
 10
-0.701569
 20
6.81384
 11
-0.503571
 21
6.85594
  0
LINE
  8
0
 10
-0.503571
 20
6.85594
 11
-0.303131
 21
6.88411
  0
LINE
  8
0
 10
-0.303131
 20
6.88411
 11
-0.101196
 21
6.89822
  0
LINE
  8
0
 10
-0.101196
 20
6.89822
 11
0.101196
 21
6.89822
  0
LINE
  8
0
 10
0.101196
 20
6.89822
 11
0.303131
 21
6.88411
  0
LINE
  8
0
 10
0.303131
 20
6.88411
 11
0.503571
 21
6.85594
  0
LINE
  8
0
 10
0.503571
 20
6.85594
 11
0.701569
 21
6.81384
  0
LINE
  8
0
 10
0.701569
 20
6.81384
 11
0.896149
 21
6.75806
  0
LINE
  8
0
 10
0.896149
 20
6.75806
 11
1.08635
 21
6.68883
  0
LINE
  8
0
 10
1.08635
 20
6.68883
 11
1.27127
 21
6.60649
  0
LINE
  8
0
 10
1.27127
 20
6.60649
 11
1.45
 21
6.51146
  0
LINE
  8
0
 10
1.45
 20
6.51146
 11
1.62166
 21
6.40421
  0
LINE
  8
0
 10
1.62166
 20
6.40421
 11
1.78542
 21
6.28522
  0
LINE
  8
0
 10
1.78542
 20
6.28522
 11
1.94048
 21
6.15511
  0
LINE
  8
0
 10
1.94048
 20
6.15511
 11
2.08607
 21
6.0145
  0
LINE
  8
0
 10
2.08607
 20
6.0145
 11
2.22153
 21
5.86407
  0
LINE
  8
0
 10
2.22153
 20
5.86407
 11
2.34615
 21
5.70457
  0
LINE
  8
0
 10
2.34615
 20
5.70457
 11
2.45934
 21
5.53676
  0
LINE
  8
0
 10
2.45934
 20
5.53676
 11
2.56055
 21
5.36147
  0
LINE
  8
0
 10
2.56055
 20
5.36147
 11
2.64928
 21
5.17953
  0
LINE
  8
0
 10
2.64928
 20
5.17953
 11
2.7251
 21
4.99185
  0
LINE
  8
0
 10
2.7251
 20
4.99185
 11
2.78766
 21
4.79935
  0
LINE
  8
0
 10
2.78766
 20
4.79935
 11
2.83662
 21
4.60294
  0
LINE
  8
0
 10
2.83662
 20
4.60294
 11
2.87177
 21
4.40359
  0
LINE
  8
0
 10
2.87177
 20
4.40359
 11
2.89293
 21
4.20229
  0
LINE
  8
0
 10
2.89293
 20
4.20229
 11
2.89999
 21
4
  0
LINE
  8
0
 10
2.89999
 20
4
 11
2.89293
 21
3.7977
  0
LINE
  8
0
 10
2.89293
 20
3.7977
 11
2.87177
 21
3.59639
  0
LINE
  8
0
 10
2.87177
 20
3.59639
 11
2.83662
 21
3.39705
  0
LINE
  8
0
 10
2.83662
 20
3.39705
 11
2.78766
 21
3.20064
  0
LINE
  8
0
 10
2.78766
 20
3.20064
 11
2.7251
 21
3.00813
  0
LINE
  8
0
 10
2.7251
 20
3.00813
 11
2.64928
 21
2.82045
  0
LINE
  8
0
 10
2.64928
 20
2.82045
 11
2.56055
 21
2.63852
  0
LINE
  8
0
 10
2.56055
 20
2.63852
 11
2.45934
 21
2.46323
  0
LINE
  8
0
 10
2.45934
 20
2.46323
 11
2.34615
 21
2.29541
  0
LINE
  8
0
 10
2.34615
 20
2.29541
 11
2.22153
 21
2.13591
  0
LINE
  8
0
 10
2.22153
 20
2.13591
 11
2.08607
 21
1.98549
  0
LINE
  8
0
 10
2.08607
 20
1.98549
 11
1.94048
 21
1.84488
  0
LINE
  8
0
 10
1.94048
 20
1.84488
 11
1.78542
 21
1.71477
  0
LINE
  8
0
 10
1.78542
 20
1.71477
 11
1.62166
 21
1.59578
  0
LINE
  8
0
 10
1.62166
 20
1.59578
 11
1.45
 21
1.48853
  0
LINE
  8
0
 10
1.45
 20
1.48853
 11
1.27127
 21
1.39349
  0
LINE
  8
0
 10
1.27127
 20
1.39349
 11
1.08635
 21
1.31116
  0
LINE
  8
0
 10
1.08635
 20
1.31116
 11
0.896149
 21
1.24193
  0
LINE
  8
0
 10
0.896149
 20
1.24193
 11
0.701569
 21
1.18614
  0
LINE
  8
0
 10
0.701569
 20
1.18614
 11
0.503571
 21
1.14406
  0
LINE
  8
0
 10
0.503571
 20
1.14406
 11
0.303131
 21
1.11588
  0
LINE
  8
0
 10
0.303131
 20
1.11588
 11
0.101196
 21
1.10176
  0
LINE
  8
0
 10
0.101196
 20
1.10176
 11
-0.101196
 21
1.10176
  0
LINE
  8
0
 10
17.8639
 20
-3.89761
 11
17.5923
 21
-3.87863
  0
LINE
  8
0
 10
17.5923
 20
-3.87863
 11
17.3228
 21
-3.84074
  0
LINE
  8
0
 10
17.3228
 20
-3.84074
 11
17.0565
 21
-3.78415
  0
LINE
  8
0
 10
17.0565
 20
-3.78415
 11
16.7948
 21
-3.70911
  0
LINE
  8
0
 10
16.7948
 20
-3.70911
 11
16.539
 21
-3.61601
  0
LINE
  8
0
 10
16.539
 20
-3.61601
 11
16.2903
 21
-3.50529
  0
LINE
  8
0
 10
16.2903
 20
-3.50529
 11
16.05
 21
-3.37749
  0
LINE
  8
0
 10
16.05
 20
-3.37749
 11
15.8191
 21
-3.23325
  0
LINE
  8
0
 10
15.8191
 20
-3.23325
 11
15.5989
 21
-3.07323
  0
LINE
  8
0
 10
15.5989
 20
-3.07323
 11
15.3904
 21
-2.89825
  0
LINE
  8
0
 10
15.3904
 20
-2.89825
 11
15.1946
 21
-2.70917
  0
LINE
  8
0
 10
15.1946
 20
-2.70917
 11
15.0124
 21
-2.50687
  0
LINE
  8
0
 10
15.0124
 20
-2.50687
 11
14.8448
 21
-2.29236
  0
LINE
  8
0
 10
14.8448
 20
-2.29236
 11
14.6926
 21
-2.06668
  0
LINE
  8
0
 10
14.6926
 20
-2.06668
 11
14.5565
 21
-1.83093
  0
LINE
  8
0
 10
14.5565
 20
-1.83093
 11
14.4372
 21
-1.58626
  0
LINE
  8
0
 10
14.4372
 20
-1.58626
 11
14.3352
 21
-1.33388
  0
LINE
  8
0
 10
14.3352
 20
-1.33388
 11
14.2511
 21
-1.07498
  0
LINE
  8
0
 10
14.2511
 20
-1.07498
 11
14.1852
 21
-0.810852
  0
LINE
  8
0
 10
14.1852
 20
-0.810852
 11
14.1379
 21
-0.54277
  0
LINE
  8
0
 10
14.1379
 20
-0.54277
 11
14.1095
 21
-0.272049
  0
LINE
  8
0
 10
14.1095
 20
-0.272049
 11
14.1
 21
0
  0
LINE
  8
0
 10
14.1
 20
0
 11
14.1095
 21
0.272049
  0
LINE
  8
0
 10
14.1095
 20
0.272049
 11
14.1379
 21
0.54277
  0
LINE
  8
0
 10
14.1379
 20
0.54277
 11
14.1852
 21
0.810852
  0
LINE
  8
0
 10
14.1852
 20
0.810852
 11
14.2511
 21
1.07498
  0
LINE
  8
0
 10
14.2511
 20
1.07498
 11
14.3352
 21
1.33388
  0
LINE
  8
0
 10
14.3352
 20
1.33388
 11
14.4372
 21
1.58626
  0
LINE
  8
0
 10
14.4372
 20
1.58626
 11
14.5565
 21
1.83093
  0
LINE
  8
0
 10
14.5565
 20
1.83093
 11
14.6926
 21
2.06668
  0
LINE
  8
0
 10
14.6926
 20
2.06668
 11
14.8448
 21
2.29236
  0
LINE
  8
0
 10
14.8448
 20
2.29236
 11
15.0124
 21
2.50687
  0
LINE
  8
0
 10
15.0124
 20
2.50687
 11
15.1946
 21
2.70917
  0
LINE
  8
0
 10
15.1946
 20
2.70917
 11
15.3904
 21
2.89825
  0
LINE
  8
0
 10
15.3904
 20
2.89825
 11
15.5989
 21
3.07323
  0
LINE
  8
0
 10
15.5989
 20
3.07323
 11
15.8191
 21
3.23325
  0
LINE
  8
0
 10
15.8191
 20
3.23325
 11
16.05
 21
3.37749
  0
LINE
  8
0
 10
16.05
 20
3.37749
 11
16.2903
 21
3.50529
  0
LINE
  8
0
 10
16.2903
 20
3.50529
 11
16.539
 21
3.61601
  0
LINE
  8
0
 10
16.539
 20
3.61601
 11
16.7948
 21
3.70911
  0
LINE
  8
0
 10
16.7948
 20
3.70911
 11
17.0565
 21
3.78415
  0
LINE
  8
0
 10
17.0565
 20
3.78415
 11
17.3228
 21
3.84074
  0
LINE
  8
0
 10
17.3228
 20
3.84074
 11
17.5923
 21
3.87863
  0
LINE
  8
0
 10
17.5923
 20
3.87863
 11
17.8639
 21
3.89761
  0
LINE
  8
0
 10
17.8639
 20
3.89761
 11
18.1361
 21
3.89761
  0
LINE
  8
0
 10
18.1361
 20
3.89761
 11
18.4077
 21
3.87863
  0
LINE
  8
0
 10
18.4077
 20
3.87863
 11
18.6772
 21
3.84074
  0
LINE
  8
0
 10
18.6772
 20
3.84074
 11
18.9435
 21
3.78415
  0
LINE
  8
0
 10
18.9435
 20
3.78415
 11
19.2052
 21
3.70911
  0
LINE
  8
0
 10
19.2052
 20
3.70911
 11
19.461
 21
3.61601
  0
LINE
  8
0
 10
19.461
 20
3.61601
 11
19.7096
 21
3.50529
  0
LINE
  8
0
 10
19.7096
 20
3.50529
 11
19.95
 21
3.37749
  0
LINE
  8
0
 10
19.95
 20
3.37749
 11
20.1808
 21
3.23325
  0
LINE
  8
0
 10
20.1808
 20
3.23325
 11
20.4011
 21
3.07323
  0
LINE
  8
0
 10
20.4011
 20
3.07323
 11
20.6096
 21
2.89825
  0
LINE
  8
0
 10
20.6096
 20
2.89825
 11
20.8054
 21
2.70917
  0
LINE
  8
0
 10
20.8054
 20
2.70917
 11
20.9876
 21
2.50687
  0
LINE
  8
0
 10
20.9876
 20
2.50687
 11
21.1552
 21
2.29236
  0
LINE
  8
0
 10
21.1552
 20
2.29236
 11
21.3074
 21
2.06668
  0
LINE
  8
0
 10
21.3074
 20
2.06668
 11
21.4435
 21
1.83093
  0
LINE
  8
0
 10
21.4435
 20
1.83093
 11
21.5628
 21
1.58626
  0
LINE
  8
0
 10
21.5628
 20
1.58626
 11
21.6648
 21
1.33388
  0
LINE
  8
0
 10
21.6648
 20
1.33388
 11
21.7489
 21
1.07498
  0
LINE
  8
0
 10
21.7489
 20
1.07498
 11
21.8148
 21
0.810852
  0
LINE
  8
0
 10
21.8148
 20
0.810852
 11
21.862
 21
0.54277
  0
LINE
  8
0
 10
21.862
 20
0.54277
 11
21.8905
 21
0.272049
  0
LINE
  8
0
 10
21.8905
 20
0.272049
 11
21.9
 21
0
  0
LINE
  8
0
 10
21.9
 20
0
 11
21.8905
 21
-0.272049
  0
LINE
  8
0
 10
21.8905
 20
-0.272049
 11
21.862
 21
-0.54277
  0
LINE
  8
0
 10
21.862
 20
-0.54277
 11
21.8148
 21
-0.810852
  0
LINE
  8
0
 10
21.8148
 20
-0.810852
 11
21.7489
 21
-1.07498
  0
LINE
  8
0
 10
21.7489
 20
-1.07498
 11
21.6648
 21
-1.33388
  0
LINE
  8
0
 10
21.6648
 20
-1.33388
 11
21.5628
 21
-1.58626
  0
LINE
  8
0
 10
21.5628
 20
-1.58626
 11
21.4435
 21
-1.83093
  0
LINE
  8
0
 10
21.4435
 20
-1.83093
 11
21.3074
 21
-2.06668
  0
LINE
  8
0
 10
21.3074
 20
-2.06668
 11
21.1552
 21
-2.29236
  0
LINE
  8
0
 10
21.1552
 20
-2.29236
 11
20.9876
 21
-2.50687
  0
LINE
  8
0
 10
20.9876
 20
-2.50687
 11
20.8054
 21
-2.70917
  0
LINE
  8
0
 10
20.8054
 20
-2.70917
 11
20.6096
 21
-2.89825
  0
LINE
  8
0
 10
20.6096
 20
-2.89825
 11
20.4011
 21
-3.07323
  0
LINE
  8
0
 10
20.4011
 20
-3.07323
 11
20.1808
 21
-3.23325
  0
LINE
  8
0
 10
20.1808
 20
-3.23325
 11
19.95
 21
-3.37749
  0
LINE
  8
0
 10
19.95
 20
-3.37749
 11
19.7096
 21
-3.50529
  0
LINE
  8
0
 10
19.7096
 20
-3.50529
 11
19.461
 21
-3.61601
  0
LINE
  8
0
 10
19.461
 20
-3.61601
 11
19.2052
 21
-3.70911
  0
LINE
  8
0
 10
19.2052
 20
-3.70911
 11
18.9435
 21
-3.78415
  0
LINE
  8
0
 10
18.9435
 20
-3.78415
 11
18.6772
 21
-3.84074
  0
LINE
  8
0
 10
18.6772
 20
-3.84074
 11
18.4077
 21
-3.87863
  0
LINE
  8
0
 10
18.4077
 20
-3.87863
 11
18.1361
 21
-3.89761
  0
LINE
  8
0
 10
18.1361
 20
-3.89761
 11
17.8639
 21
-3.89761
  0
LINE
  8
0
 10
-18.1361
 20
-3.89761
 11
-18.4077
 21
-3.87863
  0
LINE
  8
0
 10
-18.4077
 20
-3.87863
 11
-18.6772
 21
-3.84074
  0
LINE
  8
0
 10
-18.6772
 20
-3.84074
 11
-18.9435
 21
-3.78415
  0
LINE
  8
0
 10
-18.9435
 20
-3.78415
 11
-19.2052
 21
-3.70911
  0
LINE
  8
0
 10
-19.2052
 20
-3.70911
 11
-19.461
 21
-3.61601
  0
LINE
  8
0
 10
-19.461
 20
-3.61601
 11
-19.7096
 21
-3.50529
  0
LINE
  8
0
 10
-19.7096
 20
-3.50529
 11
-19.95
 21
-3.37749
  0
LINE
  8
0
 10
-19.95
 20
-3.37749
 11
-20.1808
 21
-3.23325
  0
LINE
  8
0
 10
-20.1808
 20
-3.23325
 11
-20.4011
 21
-3.07323
  0
LINE
  8
0
 10
-20.4011
 20
-3.07323
 11
-20.6096
 21
-2.89825
  0
LINE
  8
0
 10
-20.6096
 20
-2.89825
 11
-20.8054
 21
-2.70917
  0
LINE
  8
0
 10
-20.8054
 20
-2.70917
 11
-20.9876
 21
-2.50687
  0
LINE
  8
0
 10
-20.9876
 20
-2.50687
 11
-21.1552
 21
-2.29236
  0
LINE
  8
0
 10
-21.1552
 20
-2.29236
 11
-21.3074
 21
-2.06668
  0
LINE
  8
0
 10
-21.3074
 20
-2.06668
 11
-21.4435
 21
-1.83093
  0
LINE
  8
0
 10
-21.4435
 20
-1.83093
 11
-21.5628
 21
-1.58626
  0
LINE
  8
0
 10
-21.5628
 20
-1.58626
 11
-21.6648
 21
-1.33388
  0
LINE
  8
0
 10
-21.6648
 20
-1.33388
 11
-21.7489
 21
-1.07498
  0
LINE
  8
0
 10
-21.7489
 20
-1.07498
 11
-21.8148
 21
-0.810852
  0
LINE
  8
0
 10
-21.8148
 20
-0.810852
 11
-21.862
 21
-0.54277
  0
LINE
  8
0
 10
-21.862
 20
-0.54277
 11
-21.8905
 21
-0.272049
  0
LINE
  8
0
 10
-21.8905
 20
-0.272049
 11
-21.9
 21
0
  0
LINE
  8
0
 10
-21.9
 20
0
 11
-21.8905
 21
0.272049
  0
LINE
  8
0
 10
-21.8905
 20
0.272049
 11
-21.862
 21
0.54277
  0
LINE
  8
0
 10
-21.862
 20
0.54277
 11
-21.8148
 21
0.810852
  0
LINE
  8
0
 10
-21.8148
 20
0.810852
 11
-21.7489
 21
1.07498
  0
LINE
  8
0
 10
-21.7489
 20
1.07498
 11
-21.6648
 21
1.33388
  0
LINE
  8
0
 10
-21.6648
 20
1.33388
 11
-21.5628
 21
1.58626
  0
LINE
  8
0
 10
-21.5628
 20
1.58626
 11
-21.4435
 21
1.83093
  0
LINE
  8
0
 10
-21.4435
 20
1.83093
 11
-21.3074
 21
2.06668
  0
LINE
  8
0
 10
-21.3074
 20
2.06668
 11
-21.1552
 21
2.29236
  0
LINE
  8
0
 10
-21.1552
 20
2.29236
 11
-20.9876
 21
2.50687
  0
LINE
  8
0
 10
-20.9876
 20
2.50687
 11
-20.8054
 21
2.70917
  0
LINE
  8
0
 10
-20.8054
 20
2.70917
 11
-20.6096
 21
2.89825
  0
LINE
  8
0
 10
-20.6096
 20
2.89825
 11
-20.4011
 21
3.07323
  0
LINE
  8
0
 10
-20.4011
 20
3.07323
 11
-20.1808
 21
3.23325
  0
LINE
  8
0
 10
-20.1808
 20
3.23325
 11
-19.95
 21
3.37749
  0
LINE
  8
0
 10
-19.95
 20
3.37749
 11
-19.7096
 21
3.50529
  0
LINE
  8
0
 10
-19.7096
 20
3.50529
 11
-19.461
 21
3.61601
  0
LINE
  8
0
 10
-19.461
 20
3.61601
 11
-19.2052
 21
3.70911
  0
LINE
  8
0
 10
-19.2052
 20
3.70911
 11
-18.9435
 21
3.78415
  0
LINE
  8
0
 10
-18.9435
 20
3.78415
 11
-18.6772
 21
3.84074
  0
LINE
  8
0
 10
-18.6772
 20
3.84074
 11
-18.4077
 21
3.87863
  0
LINE
  8
0
 10
-18.4077
 20
3.87863
 11
-18.1361
 21
3.89761
  0
LINE
  8
0
 10
-18.1361
 20
3.89761
 11
-17.8639
 21
3.89761
  0
LINE
  8
0
 10
-17.8639
 20
3.89761
 11
-17.5923
 21
3.87863
  0
LINE
  8
0
 10
-17.5923
 20
3.87863
 11
-17.3228
 21
3.84074
  0
LINE
  8
0
 10
-17.3228
 20
3.84074
 11
-17.0565
 21
3.78415
  0
LINE
  8
0
 10
-17.0565
 20
3.78415
 11
-16.7948
 21
3.70911
  0
LINE
  8
0
 10
-16.7948
 20
3.70911
 11
-16.539
 21
3.61601
  0
LINE
  8
0
 10
-16.539
 20
3.61601
 11
-16.2903
 21
3.50529
  0
LINE
  8
0
 10
-16.2903
 20
3.50529
 11
-16.05
 21
3.37749
  0
LINE
  8
0
 10
-16.05
 20
3.37749
 11
-15.8191
 21
3.23325
  0
LINE
  8
0
 10
-15.8191
 20
3.23325
 11
-15.5989
 21
3.07323
  0
LINE
  8
0
 10
-15.5989
 20
3.07323
 11
-15.3904
 21
2.89825
  0
LINE
  8
0
 10
-15.3904
 20
2.89825
 11
-15.1946
 21
2.70917
  0
LINE
  8
0
 10
-15.1946
 20
2.70917
 11
-15.0124
 21
2.50687
  0
LINE
  8
0
 10
-15.0124
 20
2.50687
 11
-14.8448
 21
2.29236
  0
LINE
  8
0
 10
-14.8448
 20
2.29236
 11
-14.6926
 21
2.06668
  0
LINE
  8
0
 10
-14.6926
 20
2.06668
 11
-14.5565
 21
1.83093
  0
LINE
  8
0
 10
-14.5565
 20
1.83093
 11
-14.4372
 21
1.58626
  0
LINE
  8
0
 10
-14.4372
 20
1.58626
 11
-14.3352
 21
1.33388
  0
LINE
  8
0
 10
-14.3352
 20
1.33388
 11
-14.2511
 21
1.07498
  0
LINE
  8
0
 10
-14.2511
 20
1.07498
 11
-14.1852
 21
0.810852
  0
LINE
  8
0
 10
-14.1852
 20
0.810852
 11
-14.1379
 21
0.54277
  0
LINE
  8
0
 10
-14.1379
 20
0.54277
 11
-14.1095
 21
0.272049
  0
LINE
  8
0
 10
-14.1095
 20
0.272049
 11
-14.1
 21
0
  0
LINE
  8
0
 10
-14.1
 20
0
 11
-14.1095
 21
-0.272049
  0
LINE
  8
0
 10
-14.1095
 20
-0.272049
 11
-14.1379
 21
-0.54277
  0
LINE
  8
0
 10
-14.1379
 20
-0.54277
 11
-14.1852
 21
-0.810852
  0
LINE
  8
0
 10
-14.1852
 20
-0.810852
 11
-14.2511
 21
-1.07498
  0
LINE
  8
0
 10
-14.2511
 20
-1.07498
 11
-14.3352
 21
-1.33388
  0
LINE
  8
0
 10
-14.3352
 20
-1.33388
 11
-14.4372
 21
-1.58626
  0
LINE
  8
0
 10
-14.4372
 20
-1.58626
 11
-14.5565
 21
-1.83093
  0
LINE
  8
0
 10
-14.5565
 20
-1.83093
 11
-14.6926
 21
-2.06668
  0
LINE
  8
0
 10
-14.6926
 20
-2.06668
 11
-14.8448
 21
-2.29236
  0
LINE
  8
0
 10
-14.8448
 20
-2.29236
 11
-15.0124
 21
-2.50687
  0
LINE
  8
0
 10
-15.0124
 20
-2.50687
 11
-15.1946
 21
-2.70917
  0
LINE
  8
0
 10
-15.1946
 20
-2.70917
 11
-15.3904
 21
-2.89825
  0
LINE
  8
0
 10
-15.3904
 20
-2.89825
 11
-15.5989
 21
-3.07323
  0
LINE
  8
0
 10
-15.5989
 20
-3.07323
 11
-15.8191
 21
-3.23325
  0
LINE
  8
0
 10
-15.8191
 20
-3.23325
 11
-16.05
 21
-3.37749
  0
LINE
  8
0
 10
-16.05
 20
-3.37749
 11
-16.2903
 21
-3.50529
  0
LINE
  8
0
 10
-16.2903
 20
-3.50529
 11
-16.539
 21
-3.61601
  0
LINE
  8
0
 10
-16.539
 20
-3.61601
 11
-16.7948
 21
-3.70911
  0
LINE
  8
0
 10
-16.7948
 20
-3.70911
 11
-17.0565
 21
-3.78415
  0
LINE
  8
0
 10
-17.0565
 20
-3.78415
 11
-17.3228
 21
-3.84074
  0
LINE
  8
0
 10
-17.3228
 20
-3.84074
 11
-17.5923
 21
-3.87863
  0
LINE
  8
0
 10
-17.5923
 20
-3.87863
 11
-17.8639
 21
-3.89761
  0
LINE
  8
0
 10
-17.8639
 20
-3.89761
 11
-18.1361
 21
-3.89761
  0
LINE
  8
0
 10
-0.439728
 20
-54.5923
 11
-1.31705
 21
-54.531
  0
LINE
  8
0
 10
-1.31705
 20
-54.531
 11
-2.18796
 21
-54.4086
  0
LINE
  8
0
 10
-2.18796
 20
-54.4086
 11
-3.0482
 21
-54.2257
  0
LINE
  8
0
 10
-3.0482
 20
-54.2257
 11
-3.8936
 21
-53.9833
  0
LINE
  8
0
 10
-3.8936
 20
-53.9833
 11
-4.72003
 21
-53.6825
  0
LINE
  8
0
 10
-4.72003
 20
-53.6825
 11
-5.52347
 21
-53.3248
  0
LINE
  8
0
 10
-5.52347
 20
-53.3248
 11
-6.29999
 21
-52.9119
  0
LINE
  8
0
 10
-6.29999
 20
-52.9119
 11
-7.04582
 21
-52.4459
  0
LINE
  8
0
 10
-7.04582
 20
-52.4459
 11
-7.75732
 21
-51.9289
  0
LINE
  8
0
 10
-7.75732
 20
-51.9289
 11
-8.43105
 21
-51.3636
  0
LINE
  8
0
 10
-8.43105
 20
-51.3636
 11
-9.06367
 21
-50.7527
  0
LINE
  8
0
 10
-9.06367
 20
-50.7527
 11
-9.65215
 21
-50.0991
  0
LINE
  8
0
 10
-9.65215
 20
-50.0991
 11
-10.1936
 21
-49.4061
  0
LINE
  8
0
 10
-10.1936
 20
-49.4061
 11
-10.6854
 21
-48.677
  0
LINE
  8
0
 10
-10.6854
 20
-48.677
 11
-11.1251
 21
-47.9153
  0
LINE
  8
0
 10
-11.1251
 20
-47.9153
 11
-11.5107
 21
-47.1249
  0
LINE
  8
0
 10
-11.5107
 20
-47.1249
 11
-11.8401
 21
-46.3094
  0
LINE
  8
0
 10
-11.8401
 20
-46.3094
 11
-12.1119
 21
-45.473
  0
LINE
  8
0
 10
-12.1119
 20
-45.473
 11
-12.3246
 21
-44.6197
  0
LINE
  8
0
 10
-12.3246
 20
-44.6197
 11
-12.4774
 21
-43.7536
  0
LINE
  8
0
 10
-12.4774
 20
-43.7536
 11
-12.5693
 21
-42.8789
  0
LINE
  8
0
 10
-12.5693
 20
-42.8789
 11
-12.6
 21
-42
  0
LINE
  8
0
 10
-12.6
 20
-42
 11
-12.5693
 21
-41.1211
  0
LINE
  8
0
 10
-12.5693
 20
-41.1211
 11
-12.4774
 21
-40.2464
  0
LINE
  8
0
 10
-12.4774
 20
-40.2464
 11
-12.3246
 21
-39.3803
  0
LINE
  8
0
 10
-12.3246
 20
-39.3803
 11
-12.1119
 21
-38.527
  0
LINE
  8
0
 10
-12.1119
 20
-38.527
 11
-11.8401
 21
-37.6905
  0
LINE
  8
0
 10
-11.8401
 20
-37.6905
 11
-11.5107
 21
-36.8751
  0
LINE
  8
0
 10
-11.5107
 20
-36.8751
 11
-11.1251
 21
-36.0847
  0
LINE
  8
0
 10
-11.1251
 20
-36.0847
 11
-10.6854
 21
-35.323
  0
LINE
  8
0
 10
-10.6854
 20
-35.323
 11
-10.1936
 21
-34.5939
  0
LINE
  8
0
 10
-10.1936
 20
-34.5939
 11
-9.65215
 21
-33.9009
  0
LINE
  8
0
 10
-9.65215
 20
-33.9009
 11
-9.06367
 21
-33.2473
  0
LINE
  8
0
 10
-9.06367
 20
-33.2473
 11
-8.43105
 21
-32.6364
  0
LINE
  8
0
 10
-8.43105
 20
-32.6364
 11
-7.75732
 21
-32.0711
  0
LINE
  8
0
 10
-7.75732
 20
-32.0711
 11
-7.04582
 21
-31.5541
  0
LINE
  8
0
 10
-7.04582
 20
-31.5541
 11
-6.29999
 21
-31.0881
  0
LINE
  8
0
 10
-6.29999
 20
-31.0881
 11
-5.52347
 21
-30.6752
  0
LINE
  8
0
 10
-5.52347
 20
-30.6752
 11
-4.72003
 21
-30.3175
  0
LINE
  8
0
 10
-4.72003
 20
-30.3175
 11
-3.8936
 21
-30.0167
  0
LINE
  8
0
 10
-3.8936
 20
-30.0167
 11
-3.0482
 21
-29.7743
  0
LINE
  8
0
 10
-3.0482
 20
-29.7743
 11
-2.18796
 21
-29.5914
  0
LINE
  8
0
 10
-2.18796
 20
-29.5914
 11
-1.31705
 21
-29.469
  0
LINE
  8
0
 10
-1.31705
 20
-29.469
 11
-0.439728
 21
-29.4077
  0
LINE
  8
0
 10
-0.439728
 20
-29.4077
 11
0.439728
 21
-29.4077
  0
LINE
  8
0
 10
0.439728
 20
-29.4077
 11
1.31705
 21
-29.469
  0
LINE
  8
0
 10
1.31705
 20
-29.469
 11
2.18796
 21
-29.5914
  0
LINE
  8
0
 10
2.18796
 20
-29.5914
 11
3.0482
 21
-29.7743
  0
LINE
  8
0
 10
3.0482
 20
-29.7743
 11
3.8936
 21
-30.0167
  0
LINE
  8
0
 10
3.8936
 20
-30.0167
 11
4.72003
 21
-30.3175
  0
LINE
  8
0
 10
4.72003
 20
-30.3175
 11
5.52347
 21
-30.6752
  0
LINE
  8
0
 10
5.52347
 20
-30.6752
 11
6.29999
 21
-31.0881
  0
LINE
  8
0
 10
6.29999
 20
-31.0881
 11
7.04582
 21
-31.5541
  0
LINE
  8
0
 10
7.04582
 20
-31.5541
 11
7.75732
 21
-32.0711
  0
LINE
  8
0
 10
7.75732
 20
-32.0711
 11
8.43105
 21
-32.6364
  0
LINE
  8
0
 10
8.43105
 20
-32.6364
 11
9.06367
 21
-33.2473
  0
LINE
  8
0
 10
9.06367
 20
-33.2473
 11
9.65215
 21
-33.9009
  0
LINE
  8
0
 10
9.65215
 20
-33.9009
 11
10.1936
 21
-34.5939
  0
LINE
  8
0
 10
10.1936
 20
-34.5939
 11
10.6854
 21
-35.323
  0
LINE
  8
0
 10
10.6854
 20
-35.323
 11
11.1251
 21
-36.0847
  0
LINE
  8
0
 10
11.1251
 20
-36.0847
 11
11.5107
 21
-36.8751
  0
LINE
  8
0
 10
11.5107
 20
-36.8751
 11
11.8401
 21
-37.6905
  0
LINE
  8
0
 10
11.8401
 20
-37.6905
 11
12.1119
 21
-38.527
  0
LINE
  8
0
 10
12.1119
 20
-38.527
 11
12.3246
 21
-39.3803
  0
LINE
  8
0
 10
12.3246
 20
-39.3803
 11
12.4774
 21
-40.2464
  0
LINE
  8
0
 10
12.4774
 20
-40.2464
 11
12.5693
 21
-41.1211
  0
LINE
  8
0
 10
12.5693
 20
-41.1211
 11
12.6
 21
-42
  0
LINE
  8
0
 10
12.6
 20
-42
 11
12.5693
 21
-42.8789
  0
LINE
  8
0
 10
12.5693
 20
-42.8789
 11
12.4774
 21
-43.7536
  0
LINE
  8
0
 10
12.4774
 20
-43.7536
 11
12.3246
 21
-44.6197
  0
LINE
  8
0
 10
12.3246
 20
-44.6197
 11
12.1119
 21
-45.473
  0
LINE
  8
0
 10
12.1119
 20
-45.473
 11
11.8401
 21
-46.3094
  0
LINE
  8
0
 10
11.8401
 20
-46.3094
 11
11.5107
 21
-47.1249
  0
LINE
  8
0
 10
11.5107
 20
-47.1249
 11
11.1251
 21
-47.9153
  0
LINE
  8
0
 10
11.1251
 20
-47.9153
 11
10.6854
 21
-48.677
  0
LINE
  8
0
 10
10.6854
 20
-48.677
 11
10.1936
 21
-49.4061
  0
LINE
  8
0
 10
10.1936
 20
-49.4061
 11
9.65215
 21
-50.0991
  0
LINE
  8
0
 10
9.65215
 20
-50.0991
 11
9.06367
 21
-50.7527
  0
LINE
  8
0
 10
9.06367
 20
-50.7527
 11
8.43105
 21
-51.3636
  0
LINE
  8
0
 10
8.43105
 20
-51.3636
 11
7.75732
 21
-51.9289
  0
LINE
  8
0
 10
7.75732
 20
-51.9289
 11
7.04582
 21
-52.4459
  0
LINE
  8
0
 10
7.04582
 20
-52.4459
 11
6.29999
 21
-52.9119
  0
LINE
  8
0
 10
6.29999
 20
-52.9119
 11
5.52347
 21
-53.3248
  0
LINE
  8
0
 10
5.52347
 20
-53.3248
 11
4.72003
 21
-53.6825
  0
LINE
  8
0
 10
4.72003
 20
-53.6825
 11
3.8936
 21
-53.9833
  0
LINE
  8
0
 10
3.8936
 20
-53.9833
 11
3.0482
 21
-54.2257
  0
LINE
  8
0
 10
3.0482
 20
-54.2257
 11
2.18796
 21
-54.4086
  0
LINE
  8
0
 10
2.18796
 20
-54.4086
 11
1.31705
 21
-54.531
  0
LINE
  8
0
 10
1.31705
 20
-54.531
 11
0.439728
 21
-54.5923
  0
LINE
  8
0
 10
0.439728
 20
-54.5923
 11
-0.439728
 21
-54.5923
  0
LINE
  8
0
 10
-28.104
 20
-65.9595
 11
-28.3057
 21
-65.9419
  0
LINE
  8
0
 10
-28.3057
 20
-65.9419
 11
-28.5056
 21
-65.9102
  0
LINE
  8
0
 10
-28.5056
 20
-65.9102
 11
-28.7028
 21
-65.8647
  0
LINE
  8
0
 10
-28.7028
 20
-65.8647
 11
-28.8964
 21
-65.8055
  0
LINE
  8
0
 10
-28.8964
 20
-65.8055
 11
-29.0854
 21
-65.733
  0
LINE
  8
0
 10
-29.0854
 20
-65.733
 11
-29.2688
 21
-65.6474
  0
LINE
  8
0
 10
-29.2688
 20
-65.6474
 11
-29.4458
 21
-65.5493
  0
LINE
  8
0
 10
-29.4458
 20
-65.5493
 11
-29.6156
 21
-65.4391
  0
LINE
  8
0
 10
-29.6156
 20
-65.4391
 11
-29.7773
 21
-65.3172
  0
LINE
  8
0
 10
-29.7773
 20
-65.3172
 11
-29.93
 21
-65.1844
  0
LINE
  8
0
 10
-29.93
 20
-65.1844
 11
-30.0732
 21
-65.0413
  0
LINE
  8
0
 10
-30.0732
 20
-65.0413
 11
-30.206
 21
-64.8885
  0
LINE
  8
0
 10
-30.206
 20
-64.8885
 11
-30.3278
 21
-64.7269
  0
LINE
  8
0
 10
-30.3278
 20
-64.7269
 11
-30.438
 21
-64.5571
  0
LINE
  8
0
 10
-30.438
 20
-64.5571
 11
-30.5361
 21
-64.3801
  0
LINE
  8
0
 10
-30.5361
 20
-64.3801
 11
-30.6217
 21
-64.1966
  0
LINE
  8
0
 10
-30.6217
 20
-64.1966
 11
-30.6942
 21
-64.0077
  0
LINE
  8
0
 10
-30.6942
 20
-64.0077
 11
-30.7534
 21
-63.8141
  0
LINE
  8
0
 10
-30.7534
 20
-63.8141
 11
-30.799
 21
-63.6169
  0
LINE
  8
0
 10
-30.799
 20
-63.6169
 11
-30.8306
 21
-63.4169
  0
LINE
  8
0
 10
-30.8306
 20
-63.4169
 11
-30.8483
 21
-63.2153
  0
LINE
  8
0
 10
-30.8483
 20
-63.2153
 11
-30.8518
 21
-63.0129
  0
LINE
  8
0
 10
-30.8518
 20
-63.0129
 11
-30.8412
 21
-62.8108
  0
LINE
  8
0
 10
-30.8412
 20
-62.8108
 11
-30.8165
 21
-62.6099
  0
LINE
  8
0
 10
-30.8165
 20
-62.6099
 11
-30.7779
 21
-62.4112
  0
LINE
  8
0
 10
-30.7779
 20
-62.4112
 11
-30.7255
 21
-62.2156
  0
LINE
  8
0
 10
-30.7255
 20
-62.2156
 11
-30.6596
 21
-62.0242
  0
LINE
  8
0
 10
-30.6596
 20
-62.0242
 11
-30.5805
 21
-61.8379
  0
LINE
  8
0
 10
-30.5805
 20
-61.8379
 11
-30.4886
 21
-61.6576
  0
LINE
  8
0
 10
-30.4886
 20
-61.6576
 11
-30.3844
 21
-61.4841
  0
LINE
  8
0
 10
-30.3844
 20
-61.4841
 11
-30.2683
 21
-61.3183
  0
LINE
  8
0
 10
-30.2683
 20
-61.3183
 11
-30.1409
 21
-61.1609
  0
LINE
  8
0
 10
-30.1409
 20
-61.1609
 11
-30.0029
 21
-61.0129
  0
LINE
  8
0
 10
-30.0029
 20
-61.0129
 11
-29.8548
 21
-60.8749
  0
LINE
  8
0
 10
-29.8548
 20
-60.8749
 11
-29.6975
 21
-60.7475
  0
LINE
  8
0
 10
-29.6975
 20
-60.7475
 11
-29.5317
 21
-60.6314
  0
LINE
  8
0
 10
-29.5317
 20
-60.6314
 11
-29.3582
 21
-60.5271
  0
LINE
  8
0
 10
-29.3582
 20
-60.5271
 11
-29.1778
 21
-60.4352
  0
LINE
  8
0
 10
-29.1778
 20
-60.4352
 11
-28.9915
 21
-60.3561
  0
LINE
  8
0
 10
-28.9915
 20
-60.3561
 11
-28.8001
 21
-60.2902
  0
LINE
  8
0
 10
-28.8001
 20
-60.2902
 11
-28.6046
 21
-60.2379
  0
LINE
  8
0
 10
-28.6046
 20
-60.2379
 11
-28.4059
 21
-60.1992
  0
LINE
  8
0
 10
-28.4059
 20
-60.1992
 11
-28.205
 21
-60.1746
  0
LINE
  8
0
 10
-28.205
 20
-60.1746
 11
-28.0029
 21
-60.164
  0
LINE
  8
0
 10
-28.0029
 20
-60.164
 11
-27.8005
 21
-60.1675
  0
LINE
  8
0
 10
-27.8005
 20
-60.1675
 11
-27.5988
 21
-60.1851
  0
LINE
  8
0
 10
-27.5988
 20
-60.1851
 11
-27.3989
 21
-60.2168
  0
LINE
  8
0
 10
-27.3989
 20
-60.2168
 11
-27.2017
 21
-60.2623
  0
LINE
  8
0
 10
-27.2017
 20
-60.2623
 11
-27.0081
 21
-60.3215
  0
LINE
  8
0
 10
-27.0081
 20
-60.3215
 11
-26.8191
 21
-60.3941
  0
LINE
  8
0
 10
-26.8191
 20
-60.3941
 11
-26.6357
 21
-60.4796
  0
LINE
  8
0
 10
-26.6357
 20
-60.4796
 11
-26.4586
 21
-60.5777
  0
LINE
  8
0
 10
-26.4586
 20
-60.5777
 11
-26.2889
 21
-60.688
  0
LINE
  8
0
 10
-26.2889
 20
-60.688
 11
-26.1272
 21
-60.8098
  0
LINE
  8
0
 10
-26.1272
 20
-60.8098
 11
-25.9744
 21
-60.9426
  0
LINE
  8
0
 10
-25.9744
 20
-60.9426
 11
-25.8313
 21
-61.0857
  0
LINE
  8
0
 10
-25.8313
 20
-61.0857
 11
-25.6985
 21
-61.2385
  0
LINE
  8
0
 10
-25.6985
 20
-61.2385
 11
-25.5767
 21
-61.4001
  0
LINE
  8
0
 10
-25.5767
 20
-61.4001
 11
-25.4664
 21
-61.5699
  0
LINE
  8
0
 10
-25.4664
 20
-61.5699
 11
-25.3683
 21
-61.7469
  0
LINE
  8
0
 10
-25.3683
 20
-61.7469
 11
-25.2828
 21
-61.9304
  0
LINE
  8
0
 10
-25.2828
 20
-61.9304
 11
-25.2102
 21
-62.1194
  0
LINE
  8
0
 10
-25.2102
 20
-62.1194
 11
-25.151
 21
-62.3129
  0
LINE
  8
0
 10
-25.151
 20
-62.3129
 11
-25.1055
 21
-62.5102
  0
LINE
  8
0
 10
-25.1055
 20
-62.5102
 11
-25.0739
 21
-62.7101
  0
LINE
  8
0
 10
-25.0739
 20
-62.7101
 11
-25.0562
 21
-62.9117
  0
LINE
  8
0
 10
-25.0562
 20
-62.9117
 11
-25.0527
 21
-63.1141
  0
LINE
  8
0
 10
-25.0527
 20
-63.1141
 11
-25.0633
 21
-63.3163
  0
LINE
  8
0
 10
-25.0633
 20
-63.3163
 11
-25.0879
 21
-63.5172
  0
LINE
  8
0
 10
-25.0879
 20
-63.5172
 11
-25.1266
 21
-63.7159
  0
LINE
  8
0
 10
-25.1266
 20
-63.7159
 11
-25.179
 21
-63.9114
  0
LINE
  8
0
 10
-25.179
 20
-63.9114
 11
-25.2449
 21
-64.1028
  0
LINE
  8
0
 10
-25.2449
 20
-64.1028
 11
-25.3239
 21
-64.2891
  0
LINE
  8
0
 10
-25.3239
 20
-64.2891
 11
-25.4158
 21
-64.4695
  0
LINE
  8
0
 10
-25.4158
 20
-64.4695
 11
-25.5201
 21
-64.643
  0
LINE
  8
0
 10
-25.5201
 20
-64.643
 11
-25.6362
 21
-64.8088
  0
LINE
  8
0
 10
-25.6362
 20
-64.8088
 11
-25.7636
 21
-64.9661
  0
LINE
  8
0
 10
-25.7636
 20
-64.9661
 11
-25.9016
 21
-65.1141
  0
LINE
  8
0
 10
-25.9016
 20
-65.1141
 11
-26.0497
 21
-65.2522
  0
LINE
  8
0
 10
-26.0497
 20
-65.2522
 11
-26.207
 21
-65.3796
  0
LINE
  8
0
 10
-26.207
 20
-65.3796
 11
-26.3728
 21
-65.4957
  0
LINE
  8
0
 10
-26.3728
 20
-65.4957
 11
-26.5463
 21
-65.5999
  0
LINE
  8
0
 10
-26.5463
 20
-65.5999
 11
-26.7266
 21
-65.6918
  0
LINE
  8
0
 10
-26.7266
 20
-65.6918
 11
-26.913
 21
-65.7709
  0
LINE
  8
0
 10
-26.913
 20
-65.7709
 11
-27.1044
 21
-65.8368
  0
LINE
  8
0
 10
-27.1044
 20
-65.8368
 11
-27.2999
 21
-65.8892
  0
LINE
  8
0
 10
-27.2999
 20
-65.8892
 11
-27.4986
 21
-65.9278
  0
LINE
  8
0
 10
-27.4986
 20
-65.9278
 11
-27.6995
 21
-65.9525
  0
LINE
  8
0
 10
-27.6995
 20
-65.9525
 11
-27.9016
 21
-65.9631
  0
LINE
  8
0
 10
-27.9016
 20
-65.9631
 11
-28.104
 21
-65.9595
  0
LINE
  8
0
 10
27.6995
 20
-65.9525
 11
27.4986
 21
-65.9278
  0
LINE
  8
0
 10
27.4986
 20
-65.9278
 11
27.2999
 21
-65.8892
  0
LINE
  8
0
 10
27.2999
 20
-65.8892
 11
27.1044
 21
-65.8368
  0
LINE
  8
0
 10
27.1044
 20
-65.8368
 11
26.913
 21
-65.7709
  0
LINE
  8
0
 10
26.913
 20
-65.7709
 11
26.7266
 21
-65.6918
  0
LINE
  8
0
 10
26.7266
 20
-65.6918
 11
26.5463
 21
-65.5999
  0
LINE
  8
0
 10
26.5463
 20
-65.5999
 11
26.3728
 21
-65.4957
  0
LINE
  8
0
 10
26.3728
 20
-65.4957
 11
26.207
 21
-65.3796
  0
LINE
  8
0
 10
26.207
 20
-65.3796
 11
26.0497
 21
-65.2522
  0
LINE
  8
0
 10
26.0497
 20
-65.2522
 11
25.9016
 21
-65.1141
  0
LINE
  8
0
 10
25.9016
 20
-65.1141
 11
25.7636
 21
-64.9661
  0
LINE
  8
0
 10
25.7636
 20
-64.9661
 11
25.6362
 21
-64.8088
  0
LINE
  8
0
 10
25.6362
 20
-64.8088
 11
25.5201
 21
-64.643
  0
LINE
  8
0
 10
25.5201
 20
-64.643
 11
25.4158
 21
-64.4695
  0
LINE
  8
0
 10
25.4158
 20
-64.4695
 11
25.3239
 21
-64.2891
  0
LINE
  8
0
 10
25.3239
 20
-64.2891
 11
25.2449
 21
-64.1028
  0
LINE
  8
0
 10
25.2449
 20
-64.1028
 11
25.179
 21
-63.9114
  0
LINE
  8
0
 10
25.179
 20
-63.9114
 11
25.1266
 21
-63.7159
  0
LINE
  8
0
 10
25.1266
 20
-63.7159
 11
25.0879
 21
-63.5172
  0
LINE
  8
0
 10
25.0879
 20
-63.5172
 11
25.0633
 21
-63.3163
  0
LINE
  8
0
 10
25.0633
 20
-63.3163
 11
25.0527
 21
-63.1141
  0
LINE
  8
0
 10
25.0527
 20
-63.1141
 11
25.0562
 21
-62.9117
  0
LINE
  8
0
 10
25.0562
 20
-62.9117
 11
25.0739
 21
-62.7101
  0
LINE
  8
0
 10
25.0739
 20
-62.7101
 11
25.1055
 21
-62.5102
  0
LINE
  8
0
 10
25.1055
 20
-62.5102
 11
25.151
 21
-62.3129
  0
LINE
  8
0
 10
25.151
 20
-62.3129
 11
25.2102
 21
-62.1194
  0
LINE
  8
0
 10
25.2102
 20
-62.1194
 11
25.2828
 21
-61.9304
  0
LINE
  8
0
 10
25.2828
 20
-61.9304
 11
25.3683
 21
-61.7469
  0
LINE
  8
0
 10
25.3683
 20
-61.7469
 11
25.4664
 21
-61.5699
  0
LINE
  8
0
 10
25.4664
 20
-61.5699
 11
25.5767
 21
-61.4001
  0
LINE
  8
0
 10
25.5767
 20
-61.4001
 11
25.6985
 21
-61.2385
  0
LINE
  8
0
 10
25.6985
 20
-61.2385
 11
25.8313
 21
-61.0857
  0
LINE
  8
0
 10
25.8313
 20
-61.0857
 11
25.9744
 21
-60.9426
  0
LINE
  8
0
 10
25.9744
 20
-60.9426
 11
26.1272
 21
-60.8098
  0
LINE
  8
0
 10
26.1272
 20
-60.8098
 11
26.2889
 21
-60.688
  0
LINE
  8
0
 10
26.2889
 20
-60.688
 11
26.4586
 21
-60.5777
  0
LINE
  8
0
 10
26.4586
 20
-60.5777
 11
26.6357
 21
-60.4796
  0
LINE
  8
0
 10
26.6357
 20
-60.4796
 11
26.8191
 21
-60.3941
  0
LINE
  8
0
 10
26.8191
 20
-60.3941
 11
27.0081
 21
-60.3215
  0
LINE
  8
0
 10
27.0081
 20
-60.3215
 11
27.2017
 21
-60.2623
  0
LINE
  8
0
 10
27.2017
 20
-60.2623
 11
27.3989
 21
-60.2168
  0
LINE
  8
0
 10
27.3989
 20
-60.2168
 11
27.5988
 21
-60.1851
  0
LINE
  8
0
 10
27.5988
 20
-60.1851
 11
27.8005
 21
-60.1675
  0
LINE
  8
0
 10
27.8005
 20
-60.1675
 11
28.0029
 21
-60.164
  0
LINE
  8
0
 10
28.0029
 20
-60.164
 11
28.205
 21
-60.1746
  0
LINE
  8
0
 10
28.205
 20
-60.1746
 11
28.4059
 21
-60.1992
  0
LINE
  8
0
 10
28.4059
 20
-60.1992
 11
28.6046
 21
-60.2379
  0
LINE
  8
0
 10
28.6046
 20
-60.2379
 11
28.8001
 21
-60.2902
  0
LINE
  8
0
 10
28.8001
 20
-60.2902
 11
28.9915
 21
-60.3561
  0
LINE
  8
0
 10
28.9915
 20
-60.3561
 11
29.1778
 21
-60.4352
  0
LINE
  8
0
 10
29.1778
 20
-60.4352
 11
29.3582
 21
-60.5271
  0
LINE
  8
0
 10
29.3582
 20
-60.5271
 11
29.5317
 21
-60.6314
  0
LINE
  8
0
 10
29.5317
 20
-60.6314
 11
29.6975
 21
-60.7475
  0
LINE
  8
0
 10
29.6975
 20
-60.7475
 11
29.8548
 21
-60.8749
  0
LINE
  8
0
 10
29.8548
 20
-60.8749
 11
30.0029
 21
-61.0129
  0
LINE
  8
0
 10
30.0029
 20
-61.0129
 11
30.1409
 21
-61.1609
  0
LINE
  8
0
 10
30.1409
 20
-61.1609
 11
30.2683
 21
-61.3183
  0
LINE
  8
0
 10
30.2683
 20
-61.3183
 11
30.3844
 21
-61.4841
  0
LINE
  8
0
 10
30.3844
 20
-61.4841
 11
30.4886
 21
-61.6576
  0
LINE
  8
0
 10
30.4886
 20
-61.6576
 11
30.5805
 21
-61.8379
  0
LINE
  8
0
 10
30.5805
 20
-61.8379
 11
30.6596
 21
-62.0242
  0
LINE
  8
0
 10
30.6596
 20
-62.0242
 11
30.7255
 21
-62.2156
  0
LINE
  8
0
 10
30.7255
 20
-62.2156
 11
30.7779
 21
-62.4112
  0
LINE
  8
0
 10
30.7779
 20
-62.4112
 11
30.8165
 21
-62.6099
  0
LINE
  8
0
 10
30.8165
 20
-62.6099
 11
30.8412
 21
-62.8108
  0
LINE
  8
0
 10
30.8412
 20
-62.8108
 11
30.8518
 21
-63.0129
  0
LINE
  8
0
 10
30.8518
 20
-63.0129
 11
30.8483
 21
-63.2153
  0
LINE
  8
0
 10
30.8483
 20
-63.2153
 11
30.8306
 21
-63.4169
  0
LINE
  8
0
 10
30.8306
 20
-63.4169
 11
30.799
 21
-63.6169
  0
LINE
  8
0
 10
30.799
 20
-63.6169
 11
30.7534
 21
-63.8141
  0
LINE
  8
0
 10
30.7534
 20
-63.8141
 11
30.6942
 21
-64.0077
  0
LINE
  8
0
 10
30.6942
 20
-64.0077
 11
30.6217
 21
-64.1966
  0
LINE
  8
0
 10
30.6217
 20
-64.1966
 11
30.5361
 21
-64.3801
  0
LINE
  8
0
 10
30.5361
 20
-64.3801
 11
30.438
 21
-64.5571
  0
LINE
  8
0
 10
30.438
 20
-64.5571
 11
30.3278
 21
-64.7269
  0
LINE
  8
0
 10
30.3278
 20
-64.7269
 11
30.206
 21
-64.8885
  0
LINE
  8
0
 10
30.206
 20
-64.8885
 11
30.0732
 21
-65.0413
  0
LINE
  8
0
 10
30.0732
 20
-65.0413
 11
29.93
 21
-65.1844
  0
LINE
  8
0
 10
29.93
 20
-65.1844
 11
29.7773
 21
-65.3172
  0
LINE
  8
0
 10
29.7773
 20
-65.3172
 11
29.6156
 21
-65.4391
  0
LINE
  8
0
 10
29.6156
 20
-65.4391
 11
29.4458
 21
-65.5493
  0
LINE
  8
0
 10
29.4458
 20
-65.5493
 11
29.2688
 21
-65.6474
  0
LINE
  8
0
 10
29.2688
 20
-65.6474
 11
29.0854
 21
-65.733
  0
LINE
  8
0
 10
29.0854
 20
-65.733
 11
28.8964
 21
-65.8055
  0
LINE
  8
0
 10
28.8964
 20
-65.8055
 11
28.7028
 21
-65.8647
  0
LINE
  8
0
 10
28.7028
 20
-65.8647
 11
28.5056
 21
-65.9102
  0
LINE
  8
0
 10
28.5056
 20
-65.9102
 11
28.3057
 21
-65.9419
  0
LINE
  8
0
 10
28.3057
 20
-65.9419
 11
28.104
 21
-65.9595
  0
LINE
  8
0
 10
28.104
 20
-65.9595
 11
27.9016
 21
-65.9631
  0
LINE
  8
0
 10
27.9016
 20
-65.9631
 11
27.6995
 21
-65.9525
  0
LINE
  8
0
 10
-0.0872345
 20
-67.8985
 11
-0.261307
 21
-67.8863
  0
LINE
  8
0
 10
-0.261307
 20
-67.8863
 11
-0.434113
 21
-67.862
  0
LINE
  8
0
 10
-0.434113
 20
-67.862
 11
-0.604797
 21
-67.8257
  0
LINE
  8
0
 10
-0.604797
 20
-67.8257
 11
-0.772537
 21
-67.7776
  0
LINE
  8
0
 10
-0.772537
 20
-67.7776
 11
-0.936508
 21
-67.718
  0
LINE
  8
0
 10
-0.936508
 20
-67.718
 11
-1.09592
 21
-67.647
  0
LINE
  8
0
 10
-1.09592
 20
-67.647
 11
-1.25
 21
-67.5651
  0
LINE
  8
0
 10
-1.25
 20
-67.5651
 11
-1.39798
 21
-67.4726
  0
LINE
  8
0
 10
-1.39798
 20
-67.4726
 11
-1.53914
 21
-67.37
  0
LINE
  8
0
 10
-1.53914
 20
-67.37
 11
-1.67282
 21
-67.2579
  0
LINE
  8
0
 10
-1.67282
 20
-67.2579
 11
-1.79834
 21
-67.1366
  0
LINE
  8
0
 10
-1.79834
 20
-67.1366
 11
-1.9151
 21
-67.007
  0
LINE
  8
0
 10
-1.9151
 20
-67.007
 11
-2.02254
 21
-66.8695
  0
LINE
  8
0
 10
-2.02254
 20
-66.8695
 11
-2.12012
 21
-66.7248
  0
LINE
  8
0
 10
-2.12012
 20
-66.7248
 11
-2.20737
 21
-66.5737
  0
LINE
  8
0
 10
-2.20737
 20
-66.5737
 11
-2.28386
 21
-66.4168
  0
LINE
  8
0
 10
-2.28386
 20
-66.4168
 11
-2.34923
 21
-66.2551
  0
LINE
  8
0
 10
-2.34923
 20
-66.2551
 11
-2.40315
 21
-66.0891
  0
LINE
  8
0
 10
-2.40315
 20
-66.0891
 11
-2.44536
 21
-65.9198
  0
LINE
  8
0
 10
-2.44536
 20
-65.9198
 11
-2.47566
 21
-65.7479
  0
LINE
  8
0
 10
-2.47566
 20
-65.7479
 11
-2.4939
 21
-65.5744
  0
LINE
  8
0
 10
-2.4939
 20
-65.5744
 11
-2.5
 21
-65.4
  0
LINE
  8
0
 10
-2.5
 20
-65.4
 11
-2.4939
 21
-65.2256
  0
LINE
  8
0
 10
-2.4939
 20
-65.2256
 11
-2.47566
 21
-65.0521
  0
LINE
  8
0
 10
-2.47566
 20
-65.0521
 11
-2.44536
 21
-64.8802
  0
LINE
  8
0
 10
-2.44536
 20
-64.8802
 11
-2.40315
 21
-64.7109
  0
LINE
  8
0
 10
-2.40315
 20
-64.7109
 11
-2.34923
 21
-64.545
  0
LINE
  8
0
 10
-2.34923
 20
-64.545
 11
-2.28386
 21
-64.3831
  0
LINE
  8
0
 10
-2.28386
 20
-64.3831
 11
-2.20737
 21
-64.2263
  0
LINE
  8
0
 10
-2.20737
 20
-64.2263
 11
-2.12012
 21
-64.0752
  0
LINE
  8
0
 10
-2.12012
 20
-64.0752
 11
-2.02254
 21
-63.9305
  0
LINE
  8
0
 10
-2.02254
 20
-63.9305
 11
-1.9151
 21
-63.793
  0
LINE
  8
0
 10
-1.9151
 20
-63.793
 11
-1.79834
 21
-63.6633
  0
LINE
  8
0
 10
-1.79834
 20
-63.6633
 11
-1.67282
 21
-63.5421
  0
LINE
  8
0
 10
-1.67282
 20
-63.5421
 11
-1.53914
 21
-63.43
  0
LINE
  8
0
 10
-1.53914
 20
-63.43
 11
-1.39798
 21
-63.3274
  0
LINE
  8
0
 10
-1.39798
 20
-63.3274
 11
-1.24998
 21
-63.2349
  0
LINE
  8
0
 10
-1.24998
 20
-63.2349
 11
-1.09592
 21
-63.153
  0
LINE
  8
0
 10
-1.09592
 20
-63.153
 11
-0.936508
 21
-63.082
  0
LINE
  8
0
 10
-0.936508
 20
-63.082
 11
-0.772537
 21
-63.0224
  0
LINE
  8
0
 10
-0.772537
 20
-63.0224
 11
-0.604797
 21
-62.9743
  0
LINE
  8
0
 10
-0.604797
 20
-62.9743
 11
-0.434113
 21
-62.938
  0
LINE
  8
0
 10
-0.434113
 20
-62.938
 11
-0.261307
 21
-62.9137
  0
LINE
  8
0
 10
-0.261307
 20
-62.9137
 11
-0.0872345
 21
-62.9015
  0
LINE
  8
0
 10
-0.0872345
 20
-62.9015
 11
0.0872345
 21
-62.9015
  0
LINE
  8
0
 10
0.0872345
 20
-62.9015
 11
0.261307
 21
-62.9137
  0
LINE
  8
0
 10
0.261307
 20
-62.9137
 11
0.434113
 21
-62.938
  0
LINE
  8
0
 10
0.434113
 20
-62.938
 11
0.604797
 21
-62.9743
  0
LINE
  8
0
 10
0.604797
 20
-62.9743
 11
0.772537
 21
-63.0224
  0
LINE
  8
0
 10
0.772537
 20
-63.0224
 11
0.936508
 21
-63.082
  0
LINE
  8
0
 10
0.936508
 20
-63.082
 11
1.09592
 21
-63.153
  0
LINE
  8
0
 10
1.09592
 20
-63.153
 11
1.25
 21
-63.2349
  0
LINE
  8
0
 10
1.25
 20
-63.2349
 11
1.39798
 21
-63.3274
  0
LINE
  8
0
 10
1.39798
 20
-63.3274
 11
1.53914
 21
-63.43
  0
LINE
  8
0
 10
1.53914
 20
-63.43
 11
1.67282
 21
-63.5421
  0
LINE
  8
0
 10
1.67282
 20
-63.5421
 11
1.79834
 21
-63.6633
  0
LINE
  8
0
 10
1.79834
 20
-63.6633
 11
1.9151
 21
-63.793
  0
LINE
  8
0
 10
1.9151
 20
-63.793
 11
2.02254
 21
-63.9305
  0
LINE
  8
0
 10
2.02254
 20
-63.9305
 11
2.12012
 21
-64.0752
  0
LINE
  8
0
 10
2.12012
 20
-64.0752
 11
2.20737
 21
-64.2263
  0
LINE
  8
0
 10
2.20737
 20
-64.2263
 11
2.28386
 21
-64.3831
  0
LINE
  8
0
 10
2.28386
 20
-64.3831
 11
2.34923
 21
-64.545
  0
LINE
  8
0
 10
2.34923
 20
-64.545
 11
2.40315
 21
-64.7109
  0
LINE
  8
0
 10
2.40315
 20
-64.7109
 11
2.44536
 21
-64.8802
  0
LINE
  8
0
 10
2.44536
 20
-64.8802
 11
2.47566
 21
-65.0521
  0
LINE
  8
0
 10
2.47566
 20
-65.0521
 11
2.4939
 21
-65.2256
  0
LINE
  8
0
 10
2.4939
 20
-65.2256
 11
2.5
 21
-65.4
  0
LINE
  8
0
 10
2.5
 20
-65.4
 11
2.4939
 21
-65.5744
  0
LINE
  8
0
 10
2.4939
 20
-65.5744
 11
2.47566
 21
-65.7479
  0
LINE
  8
0
 10
2.47566
 20
-65.7479
 11
2.44536
 21
-65.9198
  0
LINE
  8
0
 10
2.44536
 20
-65.9198
 11
2.40315
 21
-66.0891
  0
LINE
  8
0
 10
2.40315
 20
-66.0891
 11
2.34923
 21
-66.2551
  0
LINE
  8
0
 10
2.34923
 20
-66.2551
 11
2.28386
 21
-66.4168
  0
LINE
  8
0
 10
2.28386
 20
-66.4168
 11
2.20737
 21
-66.5737
  0
LINE
  8
0
 10
2.20737
 20
-66.5737
 11
2.12012
 21
-66.7248
  0
LINE
  8
0
 10
2.12012
 20
-66.7248
 11
2.02254
 21
-66.8695
  0
LINE
  8
0
 10
2.02254
 20
-66.8695
 11
1.9151
 21
-67.007
  0
LINE
  8
0
 10
1.9151
 20
-67.007
 11
1.79834
 21
-67.1366
  0
LINE
  8
0
 10
1.79834
 20
-67.1366
 11
1.67282
 21
-67.2579
  0
LINE
  8
0
 10
1.67282
 20
-67.2579
 11
1.53914
 21
-67.37
  0
LINE
  8
0
 10
1.53914
 20
-67.37
 11
1.39798
 21
-67.4726
  0
LINE
  8
0
 10
1.39798
 20
-67.4726
 11
1.25
 21
-67.5651
  0
LINE
  8
0
 10
1.25
 20
-67.5651
 11
1.09592
 21
-67.647
  0
LINE
  8
0
 10
1.09592
 20
-67.647
 11
0.936508
 21
-67.718
  0
LINE
  8
0
 10
0.936508
 20
-67.718
 11
0.772537
 21
-67.7776
  0
LINE
  8
0
 10
0.772537
 20
-67.7776
 11
0.604797
 21
-67.8257
  0
LINE
  8
0
 10
0.604797
 20
-67.8257
 11
0.434113
 21
-67.862
  0
LINE
  8
0
 10
0.434113
 20
-67.862
 11
0.261307
 21
-67.8863
  0
LINE
  8
0
 10
0.261307
 20
-67.8863
 11
0.0872345
 21
-67.8985
  0
LINE
  8
0
 10
0.0872345
 20
-67.8985
 11
-0.0872345
 21
-67.8985
  0
LINE
  8
0
 10
62.3639
 20
-75.3376
 11
62.0923
 21
-75.3186
  0
LINE
  8
0
 10
62.0923
 20
-75.3186
 11
61.8228
 21
-75.2807
  0
LINE
  8
0
 10
61.8228
 20
-75.2807
 11
61.5565
 21
-75.2242
  0
LINE
  8
0
 10
61.5565
 20
-75.2242
 11
61.2948
 21
-75.1491
  0
LINE
  8
0
 10
61.2948
 20
-75.1491
 11
61.039
 21
-75.056
  0
LINE
  8
0
 10
61.039
 20
-75.056
 11
60.7903
 21
-74.9453
  0
LINE
  8
0
 10
60.7903
 20
-74.9453
 11
60.55
 21
-74.8175
  0
LINE
  8
0
 10
60.55
 20
-74.8175
 11
60.3191
 21
-74.6732
  0
LINE
  8
0
 10
60.3191
 20
-74.6732
 11
60.0989
 21
-74.5132
  0
LINE
  8
0
 10
60.0989
 20
-74.5132
 11
59.8904
 21
-74.3383
  0
LINE
  8
0
 10
59.8904
 20
-74.3383
 11
59.6946
 21
-74.1492
  0
LINE
  8
0
 10
59.6946
 20
-74.1492
 11
59.5124
 21
-73.9469
  0
LINE
  8
0
 10
59.5124
 20
-73.9469
 11
59.3448
 21
-73.7324
  0
LINE
  8
0
 10
59.3448
 20
-73.7324
 11
59.1926
 21
-73.5067
  0
LINE
  8
0
 10
59.1926
 20
-73.5067
 11
59.0565
 21
-73.2709
  0
LINE
  8
0
 10
59.0565
 20
-73.2709
 11
58.9372
 21
-73.0263
  0
LINE
  8
0
 10
58.9372
 20
-73.0263
 11
58.8352
 21
-72.7739
  0
LINE
  8
0
 10
58.8352
 20
-72.7739
 11
58.7511
 21
-72.515
  0
LINE
  8
0
 10
58.7511
 20
-72.515
 11
58.6852
 21
-72.2509
  0
LINE
  8
0
 10
58.6852
 20
-72.2509
 11
58.638
 21
-71.9828
  0
LINE
  8
0
 10
58.638
 20
-71.9828
 11
58.6095
 21
-71.7121
  0
LINE
  8
0
 10
58.6095
 20
-71.7121
 11
58.6
 21
-71.44
  0
LINE
  8
0
 10
58.6
 20
-71.44
 11
58.6095
 21
-71.168
  0
LINE
  8
0
 10
58.6095
 20
-71.168
 11
58.638
 21
-70.8972
  0
LINE
  8
0
 10
58.638
 20
-70.8972
 11
58.6852
 21
-70.6291
  0
LINE
  8
0
 10
58.6852
 20
-70.6291
 11
58.7511
 21
-70.365
  0
LINE
  8
0
 10
58.7511
 20
-70.365
 11
58.8352
 21
-70.1061
  0
LINE
  8
0
 10
58.8352
 20
-70.1061
 11
58.9372
 21
-69.8537
  0
LINE
  8
0
 10
58.9372
 20
-69.8537
 11
59.0565
 21
-69.6091
  0
LINE
  8
0
 10
59.0565
 20
-69.6091
 11
59.1926
 21
-69.3733
  0
LINE
  8
0
 10
59.1926
 20
-69.3733
 11
59.3448
 21
-69.1476
  0
LINE
  8
0
 10
59.3448
 20
-69.1476
 11
59.5124
 21
-68.9331
  0
LINE
  8
0
 10
59.5124
 20
-68.9331
 11
59.6946
 21
-68.7308
  0
LINE
  8
0
 10
59.6946
 20
-68.7308
 11
59.8904
 21
-68.5417
  0
LINE
  8
0
 10
59.8904
 20
-68.5417
 11
60.0989
 21
-68.3668
  0
LINE
  8
0
 10
60.0989
 20
-68.3668
 11
60.3191
 21
-68.2068
  0
LINE
  8
0
 10
60.3191
 20
-68.2068
 11
60.55
 21
-68.0625
  0
LINE
  8
0
 10
60.55
 20
-68.0625
 11
60.7903
 21
-67.9347
  0
LINE
  8
0
 10
60.7903
 20
-67.9347
 11
61.039
 21
-67.824
  0
LINE
  8
0
 10
61.039
 20
-67.824
 11
61.2948
 21
-67.7309
  0
LINE
  8
0
 10
61.2948
 20
-67.7309
 11
61.5565
 21
-67.6558
  0
LINE
  8
0
 10
61.5565
 20
-67.6558
 11
61.8228
 21
-67.5992
  0
LINE
  8
0
 10
61.8228
 20
-67.5992
 11
62.0923
 21
-67.5614
  0
LINE
  8
0
 10
62.0923
 20
-67.5614
 11
62.3639
 21
-67.5424
  0
LINE
  8
0
 10
62.3639
 20
-67.5424
 11
62.6361
 21
-67.5424
  0
LINE
  8
0
 10
62.6361
 20
-67.5424
 11
62.9077
 21
-67.5614
  0
LINE
  8
0
 10
62.9077
 20
-67.5614
 11
63.1772
 21
-67.5992
  0
LINE
  8
0
 10
63.1772
 20
-67.5992
 11
63.4435
 21
-67.6558
  0
LINE
  8
0
 10
63.4435
 20
-67.6558
 11
63.7052
 21
-67.7309
  0
LINE
  8
0
 10
63.7052
 20
-67.7309
 11
63.961
 21
-67.824
  0
LINE
  8
0
 10
63.961
 20
-67.824
 11
64.2096
 21
-67.9347
  0
LINE
  8
0
 10
64.2096
 20
-67.9347
 11
64.45
 21
-68.0625
  0
LINE
  8
0
 10
64.45
 20
-68.0625
 11
64.6808
 21
-68.2068
  0
LINE
  8
0
 10
64.6808
 20
-68.2068
 11
64.9011
 21
-68.3668
  0
LINE
  8
0
 10
64.9011
 20
-68.3668
 11
65.1096
 21
-68.5417
  0
LINE
  8
0
 10
65.1096
 20
-68.5417
 11
65.3054
 21
-68.7308
  0
LINE
  8
0
 10
65.3054
 20
-68.7308
 11
65.4876
 21
-68.9331
  0
LINE
  8
0
 10
65.4876
 20
-68.9331
 11
65.6552
 21
-69.1476
  0
LINE
  8
0
 10
65.6552
 20
-69.1476
 11
65.8074
 21
-69.3733
  0
LINE
  8
0
 10
65.8074
 20
-69.3733
 11
65.9435
 21
-69.6091
  0
LINE
  8
0
 10
65.9435
 20
-69.6091
 11
66.0628
 21
-69.8537
  0
LINE
  8
0
 10
66.0628
 20
-69.8537
 11
66.1648
 21
-70.1061
  0
LINE
  8
0
 10
66.1648
 20
-70.1061
 11
66.2489
 21
-70.365
  0
LINE
  8
0
 10
66.2489
 20
-70.365
 11
66.3148
 21
-70.6291
  0
LINE
  8
0
 10
66.3148
 20
-70.6291
 11
66.362
 21
-70.8972
  0
LINE
  8
0
 10
66.362
 20
-70.8972
 11
66.3905
 21
-71.168
  0
LINE
  8
0
 10
66.3905
 20
-71.168
 11
66.4
 21
-71.44
  0
LINE
  8
0
 10
66.4
 20
-71.44
 11
66.3905
 21
-71.7121
  0
LINE
  8
0
 10
66.3905
 20
-71.7121
 11
66.362
 21
-71.9828
  0
LINE
  8
0
 10
66.362
 20
-71.9828
 11
66.3148
 21
-72.2509
  0
LINE
  8
0
 10
66.3148
 20
-72.2509
 11
66.2489
 21
-72.515
  0
LINE
  8
0
 10
66.2489
 20
-72.515
 11
66.1648
 21
-72.7739
  0
LINE
  8
0
 10
66.1648
 20
-72.7739
 11
66.0628
 21
-73.0263
  0
LINE
  8
0
 10
66.0628
 20
-73.0263
 11
65.9435
 21
-73.2709
  0
LINE
  8
0
 10
65.9435
 20
-73.2709
 11
65.8074
 21
-73.5067
  0
LINE
  8
0
 10
65.8074
 20
-73.5067
 11
65.6552
 21
-73.7324
  0
LINE
  8
0
 10
65.6552
 20
-73.7324
 11
65.4876
 21
-73.9469
  0
LINE
  8
0
 10
65.4876
 20
-73.9469
 11
65.3054
 21
-74.1492
  0
LINE
  8
0
 10
65.3054
 20
-74.1492
 11
65.1096
 21
-74.3383
  0
LINE
  8
0
 10
65.1096
 20
-74.3383
 11
64.9011
 21
-74.5132
  0
LINE
  8
0
 10
64.9011
 20
-74.5132
 11
64.6808
 21
-74.6732
  0
LINE
  8
0
 10
64.6808
 20
-74.6732
 11
64.45
 21
-74.8175
  0
LINE
  8
0
 10
64.45
 20
-74.8175
 11
64.2096
 21
-74.9453
  0
LINE
  8
0
 10
64.2096
 20
-74.9453
 11
63.961
 21
-75.056
  0
LINE
  8
0
 10
63.961
 20
-75.056
 11
63.7052
 21
-75.1491
  0
LINE
  8
0
 10
63.7052
 20
-75.1491
 11
63.4435
 21
-75.2242
  0
LINE
  8
0
 10
63.4435
 20
-75.2242
 11
63.1772
 21
-75.2807
  0
LINE
  8
0
 10
63.1772
 20
-75.2807
 11
62.9077
 21
-75.3186
  0
LINE
  8
0
 10
62.9077
 20
-75.3186
 11
62.6361
 21
-75.3376
  0
LINE
  8
0
 10
62.6361
 20
-75.3376
 11
62.3639
 21
-75.3376
  0
LINE
  8
0
 10
-62.6361
 20
-75.3376
 11
-62.9077
 21
-75.3186
  0
LINE
  8
0
 10
-62.9077
 20
-75.3186
 11
-63.1772
 21
-75.2807
  0
LINE
  8
0
 10
-63.1772
 20
-75.2807
 11
-63.4435
 21
-75.2242
  0
LINE
  8
0
 10
-63.4435
 20
-75.2242
 11
-63.7052
 21
-75.1491
  0
LINE
  8
0
 10
-63.7052
 20
-75.1491
 11
-63.961
 21
-75.056
  0
LINE
  8
0
 10
-63.961
 20
-75.056
 11
-64.2096
 21
-74.9453
  0
LINE
  8
0
 10
-64.2096
 20
-74.9453
 11
-64.45
 21
-74.8175
  0
LINE
  8
0
 10
-64.45
 20
-74.8175
 11
-64.6808
 21
-74.6732
  0
LINE
  8
0
 10
-64.6808
 20
-74.6732
 11
-64.9011
 21
-74.5132
  0
LINE
  8
0
 10
-64.9011
 20
-74.5132
 11
-65.1096
 21
-74.3383
  0
LINE
  8
0
 10
-65.1096
 20
-74.3383
 11
-65.3054
 21
-74.1492
  0
LINE
  8
0
 10
-65.3054
 20
-74.1492
 11
-65.4876
 21
-73.9469
  0
LINE
  8
0
 10
-65.4876
 20
-73.9469
 11
-65.6552
 21
-73.7324
  0
LINE
  8
0
 10
-65.6552
 20
-73.7324
 11
-65.8074
 21
-73.5067
  0
LINE
  8
0
 10
-65.8074
 20
-73.5067
 11
-65.9435
 21
-73.2709
  0
LINE
  8
0
 10
-65.9435
 20
-73.2709
 11
-66.0628
 21
-73.0263
  0
LINE
  8
0
 10
-66.0628
 20
-73.0263
 11
-66.1648
 21
-72.7739
  0
LINE
  8
0
 10
-66.1648
 20
-72.7739
 11
-66.2489
 21
-72.515
  0
LINE
  8
0
 10
-66.2489
 20
-72.515
 11
-66.3148
 21
-72.2509
  0
LINE
  8
0
 10
-66.3148
 20
-72.2509
 11
-66.362
 21
-71.9828
  0
LINE
  8
0
 10
-66.362
 20
-71.9828
 11
-66.3905
 21
-71.7121
  0
LINE
  8
0
 10
-66.3905
 20
-71.7121
 11
-66.4
 21
-71.44
  0
LINE
  8
0
 10
-66.4
 20
-71.44
 11
-66.3905
 21
-71.168
  0
LINE
  8
0
 10
-66.3905
 20
-71.168
 11
-66.362
 21
-70.8972
  0
LINE
  8
0
 10
-66.362
 20
-70.8972
 11
-66.3148
 21
-70.6291
  0
LINE
  8
0
 10
-66.3148
 20
-70.6291
 11
-66.2489
 21
-70.365
  0
LINE
  8
0
 10
-66.2489
 20
-70.365
 11
-66.1648
 21
-70.1061
  0
LINE
  8
0
 10
-66.1648
 20
-70.1061
 11
-66.0628
 21
-69.8537
  0
LINE
  8
0
 10
-66.0628
 20
-69.8537
 11
-65.9435
 21
-69.6091
  0
LINE
  8
0
 10
-65.9435
 20
-69.6091
 11
-65.8074
 21
-69.3733
  0
LINE
  8
0
 10
-65.8074
 20
-69.3733
 11
-65.6552
 21
-69.1476
  0
LINE
  8
0
 10
-65.6552
 20
-69.1476
 11
-65.4876
 21
-68.9331
  0
LINE
  8
0
 10
-65.4876
 20
-68.9331
 11
-65.3054
 21
-68.7308
  0
LINE
  8
0
 10
-65.3054
 20
-68.7308
 11
-65.1096
 21
-68.5417
  0
LINE
  8
0
 10
-65.1096
 20
-68.5417
 11
-64.9011
 21
-68.3668
  0
LINE
  8
0
 10
-64.9011
 20
-68.3668
 11
-64.6808
 21
-68.2068
  0
LINE
  8
0
 10
-64.6808
 20
-68.2068
 11
-64.45
 21
-68.0625
  0
LINE
  8
0
 10
-64.45
 20
-68.0625
 11
-64.2096
 21
-67.9347
  0
LINE
  8
0
 10
-64.2096
 20
-67.9347
 11
-63.961
 21
-67.824
  0
LINE
  8
0
 10
-63.961
 20
-67.824
 11
-63.7052
 21
-67.7309
  0
LINE
  8
0
 10
-63.7052
 20
-67.7309
 11
-63.4435
 21
-67.6558
  0
LINE
  8
0
 10
-63.4435
 20
-67.6558
 11
-63.1772
 21
-67.5992
  0
LINE
  8
0
 10
-63.1772
 20
-67.5992
 11
-62.9077
 21
-67.5614
  0
LINE
  8
0
 10
-62.9077
 20
-67.5614
 11
-62.6361
 21
-67.5424
  0
LINE
  8
0
 10
-62.6361
 20
-67.5424
 11
-62.3639
 21
-67.5424
  0
LINE
  8
0
 10
-62.3639
 20
-67.5424
 11
-62.0923
 21
-67.5614
  0
LINE
  8
0
 10
-62.0923
 20
-67.5614
 11
-61.8228
 21
-67.5992
  0
LINE
  8
0
 10
-61.8228
 20
-67.5992
 11
-61.5565
 21
-67.6558
  0
LINE
  8
0
 10
-61.5565
 20
-67.6558
 11
-61.2948
 21
-67.7309
  0
LINE
  8
0
 10
-61.2948
 20
-67.7309
 11
-61.039
 21
-67.824
  0
LINE
  8
0
 10
-61.039
 20
-67.824
 11
-60.7903
 21
-67.9347
  0
LINE
  8
0
 10
-60.7903
 20
-67.9347
 11
-60.55
 21
-68.0625
  0
LINE
  8
0
 10
-60.55
 20
-68.0625
 11
-60.3191
 21
-68.2068
  0
LINE
  8
0
 10
-60.3191
 20
-68.2068
 11
-60.0989
 21
-68.3668
  0
LINE
  8
0
 10
-60.0989
 20
-68.3668
 11
-59.8904
 21
-68.5417
  0
LINE
  8
0
 10
-59.8904
 20
-68.5417
 11
-59.6946
 21
-68.7308
  0
LINE
  8
0
 10
-59.6946
 20
-68.7308
 11
-59.5124
 21
-68.9331
  0
LINE
  8
0
 10
-59.5124
 20
-68.9331
 11
-59.3448
 21
-69.1476
  0
LINE
  8
0
 10
-59.3448
 20
-69.1476
 11
-59.1926
 21
-69.3733
  0
LINE
  8
0
 10
-59.1926
 20
-69.3733
 11
-59.0565
 21
-69.6091
  0
LINE
  8
0
 10
-59.0565
 20
-69.6091
 11
-58.9372
 21
-69.8537
  0
LINE
  8
0
 10
-58.9372
 20
-69.8537
 11
-58.8352
 21
-70.1061
  0
LINE
  8
0
 10
-58.8352
 20
-70.1061
 11
-58.7511
 21
-70.365
  0
LINE
  8
0
 10
-58.7511
 20
-70.365
 11
-58.6852
 21
-70.6291
  0
LINE
  8
0
 10
-58.6852
 20
-70.6291
 11
-58.638
 21
-70.8972
  0
LINE
  8
0
 10
-58.638
 20
-70.8972
 11
-58.6095
 21
-71.168
  0
LINE
  8
0
 10
-58.6095
 20
-71.168
 11
-58.6
 21
-71.44
  0
LINE
  8
0
 10
-58.6
 20
-71.44
 11
-58.6095
 21
-71.7121
  0
LINE
  8
0
 10
-58.6095
 20
-71.7121
 11
-58.638
 21
-71.9828
  0
LINE
  8
0
 10
-58.638
 20
-71.9828
 11
-58.6852
 21
-72.2509
  0
LINE
  8
0
 10
-58.6852
 20
-72.2509
 11
-58.7511
 21
-72.515
  0
LINE
  8
0
 10
-58.7511
 20
-72.515
 11
-58.8352
 21
-72.7739
  0
LINE
  8
0
 10
-58.8352
 20
-72.7739
 11
-58.9372
 21
-73.0263
  0
LINE
  8
0
 10
-58.9372
 20
-73.0263
 11
-59.0565
 21
-73.2709
  0
LINE
  8
0
 10
-59.0565
 20
-73.2709
 11
-59.1926
 21
-73.5067
  0
LINE
  8
0
 10
-59.1926
 20
-73.5067
 11
-59.3448
 21
-73.7324
  0
LINE
  8
0
 10
-59.3448
 20
-73.7324
 11
-59.5124
 21
-73.9469
  0
LINE
  8
0
 10
-59.5124
 20
-73.9469
 11
-59.6946
 21
-74.1492
  0
LINE
  8
0
 10
-59.6946
 20
-74.1492
 11
-59.8904
 21
-74.3383
  0
LINE
  8
0
 10
-59.8904
 20
-74.3383
 11
-60.0989
 21
-74.5132
  0
LINE
  8
0
 10
-60.0989
 20
-74.5132
 11
-60.3191
 21
-74.6732
  0
LINE
  8
0
 10
-60.3191
 20
-74.6732
 11
-60.55
 21
-74.8175
  0
LINE
  8
0
 10
-60.55
 20
-74.8175
 11
-60.7903
 21
-74.9453
  0
LINE
  8
0
 10
-60.7903
 20
-74.9453
 11
-61.039
 21
-75.056
  0
LINE
  8
0
 10
-61.039
 20
-75.056
 11
-61.2948
 21
-75.1491
  0
LINE
  8
0
 10
-61.2948
 20
-75.1491
 11
-61.5565
 21
-75.2242
  0
LINE
  8
0
 10
-61.5565
 20
-75.2242
 11
-61.8228
 21
-75.2807
  0
LINE
  8
0
 10
-61.8228
 20
-75.2807
 11
-62.0923
 21
-75.3186
  0
LINE
  8
0
 10
-62.0923
 20
-75.3186
 11
-62.3639
 21
-75.3376
  0
LINE
  8
0
 10
-62.3639
 20
-75.3376
 11
-62.6361
 21
-75.3376
  0
ENDSEC
  0
SECTION
  2
OBJECTS
  0
DICTIONARY
  0
ENDSEC
  0
EOF
