  0
SECTION
  2
BLOCKS
  0
ENDSEC
  0
SECTION
  2
ENTITIES
  0
LINE
  8
0
 10
-8.24
 20
-9.9
 11
-7.72949
 21
-9.9
  0
LINE
  8
0
 10
-7.72949
 20
-9.9
 11
-7.49426
 21
-9.67678
  0
LINE
  8
0
 10
-7.49426
 20
-9.67678
 11
-7.04839
 21
-9.29597
  0
LINE
  8
0
 10
-7.04839
 20
-9.29597
 11
-6.58319
 21
-8.93901
  0
LINE
  8
0
 10
-6.58319
 20
-8.93901
 11
-6.09996
 21
-8.60689
  0
LINE
  8
0
 10
-6.09996
 20
-8.60689
 11
-5.6
 21
-8.30052
  0
LINE
  8
0
 10
-5.6
 20
-8.30052
 11
-5.08469
 21
-8.02073
  0
LINE
  8
0
 10
-5.08469
 20
-8.02073
 11
-4.55545
 21
-7.76829
  0
LINE
  8
0
 10
-4.55545
 20
-7.76829
 11
-4.01372
 21
-7.5439
  0
LINE
  8
0
 10
-4.01372
 20
-7.5439
 11
-3.46099
 21
-7.34817
  0
LINE
  8
0
 10
-3.46099
 20
-7.34817
 11
-2.89877
 21
-7.18163
  0
LINE
  8
0
 10
-2.89877
 20
-7.18163
 11
-2.32861
 21
-7.04475
  0
LINE
  8
0
 10
-2.32861
 20
-7.04475
 11
-1.75207
 21
-6.93789
  0
LINE
  8
0
 10
-1.75207
 20
-6.93789
 11
-1.17072
 21
-6.86135
  0
LINE
  8
0
 10
-1.17072
 20
-6.86135
 11
-0.586163
 21
-6.81535
  0
LINE
  8
0
 10
-0.586163
 20
-6.81535
 11
0
 21
-6.8
  0
LINE
  8
0
 10
0
 20
-6.8
 11
0.586163
 21
-6.81535
  0
LINE
  8
0
 10
0.586163
 20
-6.81535
 11
1.17072
 21
-6.86135
  0
LINE
  8
0
 10
1.17072
 20
-6.86135
 11
1.75207
 21
-6.93789
  0
LINE
  8
0
 10
1.75207
 20
-6.93789
 11
2.32861
 21
-7.04475
  0
LINE
  8
0
 10
2.32861
 20
-7.04475
 11
2.89877
 21
-7.18163
  0
LINE
  8
0
 10
2.89877
 20
-7.18163
 11
3.46099
 21
-7.34817
  0
LINE
  8
0
 10
3.46099
 20
-7.34817
 11
4.01372
 21
-7.5439
  0
LINE
  8
0
 10
4.01372
 20
-7.5439
 11
4.55545
 21
-7.76829
  0
LINE
  8
0
 10
4.55545
 20
-7.76829
 11
5.08469
 21
-8.02073
  0
LINE
  8
0
 10
5.08469
 20
-8.02073
 11
5.6
 21
-8.30052
  0
LINE
  8
0
 10
5.6
 20
-8.30052
 11
6.09996
 21
-8.60689
  0
LINE
  8
0
 10
6.09996
 20
-8.60689
 11
6.58319
 21
-8.93901
  0
LINE
  8
0
 10
6.58319
 20
-8.93901
 11
7.04839
 21
-9.29597
  0
LINE
  8
0
 10
7.04839
 20
-9.29597
 11
7.49426
 21
-9.67678
  0
LINE
  8
0
 10
7.49426
 20
-9.67678
 11
7.72949
 21
-9.9
  0
LINE
  8
0
 10
7.72949
 20
-9.9
 11
8.24
 21
-9.9
  0
LINE
  8
0
 10
8.24
 20
-9.9
 11
8.24
 21
9.9
  0
LINE
  8
0
 10
8.24
 20
9.9
 11
7.72949
 21
9.9
  0
LINE
  8
0
 10
7.72949
 20
9.9
 11
7.49426
 21
9.67678
  0
LINE
  8
0
 10
7.49426
 20
9.67678
 11
7.04839
 21
9.29597
  0
LINE
  8
0
 10
7.04839
 20
9.29597
 11
6.58319
 21
8.93901
  0
LINE
  8
0
 10
6.58319
 20
8.93901
 11
6.09996
 21
8.60689
  0
LINE
  8
0
 10
6.09996
 20
8.60689
 11
5.6
 21
8.30052
  0
LINE
  8
0
 10
5.6
 20
8.30052
 11
5.08469
 21
8.02073
  0
LINE
  8
0
 10
5.08469
 20
8.02073
 11
4.55545
 21
7.76829
  0
LINE
  8
0
 10
4.55545
 20
7.76829
 11
4.01372
 21
7.5439
  0
LINE
  8
0
 10
4.01372
 20
7.5439
 11
3.46099
 21
7.34817
  0
LINE
  8
0
 10
3.46099
 20
7.34817
 11
2.89877
 21
7.18163
  0
LINE
  8
0
 10
2.89877
 20
7.18163
 11
2.32861
 21
7.04475
  0
LINE
  8
0
 10
2.32861
 20
7.04475
 11
1.75207
 21
6.93789
  0
LINE
  8
0
 10
1.75207
 20
6.93789
 11
1.17072
 21
6.86135
  0
LINE
  8
0
 10
1.17072
 20
6.86135
 11
0.586163
 21
6.81535
  0
LINE
  8
0
 10
0.586163
 20
6.81535
 11
0
 21
6.8
  0
LINE
  8
0
 10
0
 20
6.8
 11
-0.586163
 21
6.81535
  0
LINE
  8
0
 10
-0.586163
 20
6.81535
 11
-1.17072
 21
6.86135
  0
LINE
  8
0
 10
-1.17072
 20
6.86135
 11
-1.75207
 21
6.93789
  0
LINE
  8
0
 10
-1.75207
 20
6.93789
 11
-2.32861
 21
7.04475
  0
LINE
  8
0
 10
-2.32861
 20
7.04475
 11
-2.89877
 21
7.18163
  0
LINE
  8
0
 10
-2.89877
 20
7.18163
 11
-3.46099
 21
7.34817
  0
LINE
  8
0
 10
-3.46099
 20
7.34817
 11
-4.01372
 21
7.5439
  0
LINE
  8
0
 10
-4.01372
 20
7.5439
 11
-4.55545
 21
7.76829
  0
LINE
  8
0
 10
-4.55545
 20
7.76829
 11
-5.08469
 21
8.02073
  0
LINE
  8
0
 10
-5.08469
 20
8.02073
 11
-5.6
 21
8.30052
  0
LINE
  8
0
 10
-5.6
 20
8.30052
 11
-6.09996
 21
8.60689
  0
LINE
  8
0
 10
-6.09996
 20
8.60689
 11
-6.58319
 21
8.93901
  0
LINE
  8
0
 10
-6.58319
 20
8.93901
 11
-7.04839
 21
9.29597
  0
LINE
  8
0
 10
-7.04839
 20
9.29597
 11
-7.49426
 21
9.67678
  0
LINE
  8
0
 10
-7.49426
 20
9.67678
 11
-7.72949
 21
9.9
  0
LINE
  8
0
 10
-7.72949
 20
9.9
 11
-8.24
 21
9.9
  0
LINE
  8
0
 10
-8.24
 20
9.9
 11
-8.24
 21
-9.9
  0
LINE
  8
0
 10
-5.9
 20
-1.07959
 11
-5.9
 21
1.07959
  0
LINE
  8
0
 10
-5.9
 20
1.07959
 11
-5.86889
 21
1.24747
  0
LINE
  8
0
 10
-5.86889
 20
1.24747
 11
-5.79555
 21
1.55291
  0
LINE
  8
0
 10
-5.79555
 20
1.55291
 11
-5.70634
 21
1.8541
  0
LINE
  8
0
 10
-5.70634
 20
1.8541
 11
-5.60148
 21
2.15021
  0
LINE
  8
0
 10
-5.60148
 20
2.15021
 11
-5.48127
 21
2.44042
  0
LINE
  8
0
 10
-5.48127
 20
2.44042
 11
-5.34604
 21
2.72394
  0
LINE
  8
0
 10
-5.34604
 20
2.72394
 11
-5.19615
 21
3
  0
LINE
  8
0
 10
-5.19615
 20
3
 11
-5.03202
 21
3.26783
  0
LINE
  8
0
 10
-5.03202
 20
3.26783
 11
-4.8541
 21
3.52671
  0
LINE
  8
0
 10
-4.8541
 20
3.52671
 11
-4.66288
 21
3.77592
  0
LINE
  8
0
 10
-4.66288
 20
3.77592
 11
-4.45887
 21
4.01478
  0
LINE
  8
0
 10
-4.45887
 20
4.01478
 11
-4.24264
 21
4.24264
  0
LINE
  8
0
 10
-4.24264
 20
4.24264
 11
-4.22318
 21
4.26111
  0
LINE
  8
0
 10
-4.22318
 20
4.26111
 11
4.22318
 21
4.26111
  0
LINE
  8
0
 10
4.22318
 20
4.26111
 11
4.24264
 21
4.24264
  0
LINE
  8
0
 10
4.24264
 20
4.24264
 11
4.45887
 21
4.01478
  0
LINE
  8
0
 10
4.45887
 20
4.01478
 11
4.66288
 21
3.77592
  0
LINE
  8
0
 10
4.66288
 20
3.77592
 11
4.8541
 21
3.52671
  0
LINE
  8
0
 10
4.8541
 20
3.52671
 11
5.03202
 21
3.26783
  0
LINE
  8
0
 10
5.03202
 20
3.26783
 11
5.19615
 21
3
  0
LINE
  8
0
 10
5.19615
 20
3
 11
5.34604
 21
2.72394
  0
LINE
  8
0
 10
5.34604
 20
2.72394
 11
5.48127
 21
2.44042
  0
LINE
  8
0
 10
5.48127
 20
2.44042
 11
5.60148
 21
2.15021
  0
LINE
  8
0
 10
5.60148
 20
2.15021
 11
5.70634
 21
1.8541
  0
LINE
  8
0
 10
5.70634
 20
1.8541
 11
5.79555
 21
1.55291
  0
LINE
  8
0
 10
5.79555
 20
1.55291
 11
5.86889
 21
1.24747
  0
LINE
  8
0
 10
5.86889
 20
1.24747
 11
5.9
 21
1.07959
  0
LINE
  8
0
 10
5.9
 20
1.07959
 11
5.9
 21
-1.07959
  0
LINE
  8
0
 10
5.9
 20
-1.07959
 11
5.86889
 21
-1.24747
  0
LINE
  8
0
 10
5.86889
 20
-1.24747
 11
5.79555
 21
-1.55291
  0
LINE
  8
0
 10
5.79555
 20
-1.55291
 11
5.70634
 21
-1.8541
  0
LINE
  8
0
 10
5.70634
 20
-1.8541
 11
5.60148
 21
-2.15021
  0
LINE
  8
0
 10
5.60148
 20
-2.15021
 11
5.48127
 21
-2.44042
  0
LINE
  8
0
 10
5.48127
 20
-2.44042
 11
5.34604
 21
-2.72394
  0
LINE
  8
0
 10
5.34604
 20
-2.72394
 11
5.19615
 21
-3
  0
LINE
  8
0
 10
5.19615
 20
-3
 11
5.03202
 21
-3.26783
  0
LINE
  8
0
 10
5.03202
 20
-3.26783
 11
4.8541
 21
-3.52671
  0
LINE
  8
0
 10
4.8541
 20
-3.52671
 11
4.66288
 21
-3.77592
  0
LINE
  8
0
 10
4.66288
 20
-3.77592
 11
4.45887
 21
-4.01478
  0
LINE
  8
0
 10
4.45887
 20
-4.01478
 11
4.24264
 21
-4.24264
  0
LINE
  8
0
 10
4.24264
 20
-4.24264
 11
4.22318
 21
-4.26111
  0
LINE
  8
0
 10
4.22318
 20
-4.26111
 11
-4.22318
 21
-4.26111
  0
LINE
  8
0
 10
-4.22318
 20
-4.26111
 11
-4.24264
 21
-4.24264
  0
LINE
  8
0
 10
-4.24264
 20
-4.24264
 11
-4.45887
 21
-4.01478
  0
LINE
  8
0
 10
-4.45887
 20
-4.01478
 11
-4.66288
 21
-3.77592
  0
LINE
  8
0
 10
-4.66288
 20
-3.77592
 11
-4.8541
 21
-3.52671
  0
LINE
  8
0
 10
-4.8541
 20
-3.52671
 11
-5.03202
 21
-3.26783
  0
LINE
  8
0
 10
-5.03202
 20
-3.26783
 11
-5.19615
 21
-3
  0
LINE
  8
0
 10
-5.19615
 20
-3
 11
-5.34604
 21
-2.72394
  0
LINE
  8
0
 10
-5.34604
 20
-2.72394
 11
-5.48127
 21
-2.44042
  0
LINE
  8
0
 10
-5.48127
 20
-2.44042
 11
-5.60148
 21
-2.15021
  0
LINE
  8
0
 10
-5.60148
 20
-2.15021
 11
-5.70634
 21
-1.8541
  0
LINE
  8
0
 10
-5.70634
 20
-1.8541
 11
-5.79555
 21
-1.55291
  0
LINE
  8
0
 10
-5.79555
 20
-1.55291
 11
-5.86889
 21
-1.24747
  0
LINE
  8
0
 10
-5.86889
 20
-1.24747
 11
-5.9
 21
-1.07959
  0
ENDSEC
  0
SECTION
  2
OBJECTS
  0
DICTIONARY
  0
ENDSEC
  0
EOF
