  0
SECTION
  2
BLOCKS
  0
ENDSEC
  0
SECTION
  2
ENTITIES
  0
LINE
  8
0
 10
63.5766
 20
-81.6836
 11
64.2886
 21
-81.5835
  0
LINE
  8
0
 10
64.2886
 20
-81.5835
 11
64.9918
 21
-81.434
  0
LINE
  8
0
 10
64.9918
 20
-81.434
 11
65.6829
 21
-81.2359
  0
LINE
  8
0
 10
65.6829
 20
-81.2359
 11
66.3584
 21
-80.99
  0
LINE
  8
0
 10
66.3584
 20
-80.99
 11
67.0152
 21
-80.6976
  0
LINE
  8
0
 10
67.0152
 20
-80.6976
 11
67.65
 21
-80.3601
  0
LINE
  8
0
 10
67.65
 20
-80.3601
 11
68.2597
 21
-79.9791
  0
LINE
  8
0
 10
68.2597
 20
-79.9791
 11
68.8413
 21
-79.5565
  0
LINE
  8
0
 10
68.8413
 20
-79.5565
 11
69.392
 21
-79.0944
  0
LINE
  8
0
 10
69.392
 20
-79.0944
 11
69.9092
 21
-78.595
  0
LINE
  8
0
 10
69.9092
 20
-78.595
 11
70.3903
 21
-78.0607
  0
LINE
  8
0
 10
70.3903
 20
-78.0607
 11
70.8329
 21
-77.4942
  0
LINE
  8
0
 10
70.8329
 20
-77.4942
 11
71.2349
 21
-76.8982
  0
LINE
  8
0
 10
71.2349
 20
-76.8982
 11
71.5944
 21
-76.2756
  0
LINE
  8
0
 10
71.5944
 20
-76.2756
 11
71.9095
 21
-75.6294
  0
LINE
  8
0
 10
71.9095
 20
-75.6294
 11
72.1788
 21
-74.9628
  0
LINE
  8
0
 10
72.1788
 20
-74.9628
 11
72.401
 21
-74.2791
  0
LINE
  8
0
 10
72.401
 20
-74.2791
 11
72.5749
 21
-73.5815
  0
LINE
  8
0
 10
72.5749
 20
-73.5815
 11
72.6998
 21
-72.8735
  0
LINE
  8
0
 10
72.6998
 20
-72.8735
 11
72.7749
 21
-72.1585
  0
LINE
  8
0
 10
72.7749
 20
-72.1585
 11
72.8
 21
-71.44
  0
LINE
  8
0
 10
72.8
 20
-71.44
 11
72.7749
 21
-70.7215
  0
LINE
  8
0
 10
72.7749
 20
-70.7215
 11
72.6998
 21
-70.0065
  0
LINE
  8
0
 10
72.6998
 20
-70.0065
 11
72.5749
 21
-69.2985
  0
LINE
  8
0
 10
72.5749
 20
-69.2985
 11
72.401
 21
-68.6009
  0
LINE
  8
0
 10
72.401
 20
-68.6009
 11
72.1788
 21
-67.9172
  0
LINE
  8
0
 10
72.1788
 20
-67.9172
 11
71.9095
 21
-67.2506
  0
LINE
  8
0
 10
71.9095
 20
-67.2506
 11
71.5944
 21
-66.6044
  0
LINE
  8
0
 10
71.5944
 20
-66.6044
 11
71.2349
 21
-65.9818
  0
LINE
  8
0
 10
71.2349
 20
-65.9818
 11
70.8329
 21
-65.3858
  0
LINE
  8
0
 10
70.8329
 20
-65.3858
 11
70.3903
 21
-64.8193
  0
LINE
  8
0
 10
70.3903
 20
-64.8193
 11
69.9092
 21
-64.285
  0
LINE
  8
0
 10
69.9092
 20
-64.285
 11
69.392
 21
-63.7856
  0
LINE
  8
0
 10
69.392
 20
-63.7856
 11
68.8413
 21
-63.3235
  0
LINE
  8
0
 10
68.8413
 20
-63.3235
 11
68.2597
 21
-62.9009
  0
LINE
  8
0
 10
68.2597
 20
-62.9009
 11
67.65
 21
-62.5199
  0
LINE
  8
0
 10
67.65
 20
-62.5199
 11
67.0152
 21
-62.1824
  0
LINE
  8
0
 10
67.0152
 20
-62.1824
 11
66.3584
 21
-61.89
  0
LINE
  8
0
 10
66.3584
 20
-61.89
 11
65.6829
 21
-61.6441
  0
LINE
  8
0
 10
65.6829
 20
-61.6441
 11
64.9918
 21
-61.446
  0
LINE
  8
0
 10
64.9918
 20
-61.446
 11
64.2886
 21
-61.2965
  0
LINE
  8
0
 10
64.2886
 20
-61.2965
 11
54.1139
 21
-59.7951
  0
LINE
  8
0
 10
54.1139
 20
-59.7951
 11
46.4789
 21
-50.7202
  0
LINE
  8
0
 10
46.4789
 20
-50.7202
 11
46.44
 21
-50.677
  0
LINE
  8
0
 10
46.44
 20
-50.677
 11
46.44
 21
-1.03738
  0
LINE
  8
0
 10
46.44
 20
-1.03738
 11
67.1277
 21
50.3875
  0
LINE
  8
0
 10
67.1277
 20
50.3875
 11
67.2831
 21
50.8654
  0
LINE
  8
0
 10
67.2831
 20
50.8654
 11
67.4046
 21
51.353
  0
LINE
  8
0
 10
67.4046
 20
51.353
 11
67.4919
 21
51.8479
  0
LINE
  8
0
 10
67.4919
 20
51.8479
 11
67.5444
 21
52.3477
  0
LINE
  8
0
 10
67.5444
 20
52.3477
 11
67.562
 21
52.85
  0
LINE
  8
0
 10
67.562
 20
52.85
 11
67.5444
 21
53.3522
  0
LINE
  8
0
 10
67.5444
 20
53.3522
 11
67.4919
 21
53.852
  0
LINE
  8
0
 10
67.4919
 20
53.852
 11
67.4046
 21
54.347
  0
LINE
  8
0
 10
67.4046
 20
54.347
 11
67.2831
 21
54.8346
  0
LINE
  8
0
 10
67.2831
 20
54.8346
 11
67.1277
 21
55.3125
  0
LINE
  8
0
 10
67.1277
 20
55.3125
 11
66.9395
 21
55.7785
  0
LINE
  8
0
 10
66.9395
 20
55.7785
 11
66.7192
 21
56.2302
  0
LINE
  8
0
 10
66.7192
 20
56.2302
 11
66.4679
 21
56.6654
  0
LINE
  8
0
 10
66.4679
 20
56.6654
 11
66.1869
 21
57.082
  0
LINE
  8
0
 10
66.1869
 20
57.082
 11
65.8775
 21
57.4781
  0
LINE
  8
0
 10
65.8775
 20
57.4781
 11
65.5412
 21
57.8515
  0
LINE
  8
0
 10
65.5412
 20
57.8515
 11
65.1797
 21
58.2006
  0
LINE
  8
0
 10
65.1797
 20
58.2006
 11
64.7947
 21
58.5237
  0
LINE
  8
0
 10
64.7947
 20
58.5237
 11
64.3882
 21
58.8191
  0
LINE
  8
0
 10
64.3882
 20
58.8191
 11
63.962
 21
59.0854
  0
LINE
  8
0
 10
63.962
 20
59.0854
 11
63.5182
 21
59.3213
  0
LINE
  8
0
 10
63.5182
 20
59.3213
 11
63.0591
 21
59.5257
  0
LINE
  8
0
 10
63.0591
 20
59.5257
 11
62.5869
 21
59.6976
  0
LINE
  8
0
 10
62.5869
 20
59.6976
 11
62.1038
 21
59.8361
  0
LINE
  8
0
 10
62.1038
 20
59.8361
 11
61.6122
 21
59.9406
  0
LINE
  8
0
 10
61.6122
 20
59.9406
 11
61.1146
 21
60.0106
  0
LINE
  8
0
 10
61.1146
 20
60.0106
 11
60.6132
 21
60.0456
  0
LINE
  8
0
 10
60.6132
 20
60.0456
 11
60.1107
 21
60.0456
  0
LINE
  8
0
 10
60.1107
 20
60.0456
 11
59.6094
 21
60.0106
  0
LINE
  8
0
 10
59.6094
 20
60.0106
 11
59.1117
 21
59.9406
  0
LINE
  8
0
 10
59.1117
 20
59.9406
 11
58.6201
 21
59.8361
  0
LINE
  8
0
 10
58.6201
 20
59.8361
 11
58.137
 21
59.6976
  0
LINE
  8
0
 10
58.137
 20
59.6976
 11
57.6648
 21
59.5257
  0
LINE
  8
0
 10
57.6648
 20
59.5257
 11
57.2057
 21
59.3213
  0
LINE
  8
0
 10
57.2057
 20
59.3213
 11
56.762
 21
59.0854
  0
LINE
  8
0
 10
56.762
 20
59.0854
 11
56.3358
 21
58.8191
  0
LINE
  8
0
 10
56.3358
 20
58.8191
 11
55.9292
 21
58.5237
  0
LINE
  8
0
 10
55.9292
 20
58.5237
 11
55.5442
 21
58.2006
  0
LINE
  8
0
 10
55.5442
 20
58.2006
 11
55.1827
 21
57.8515
  0
LINE
  8
0
 10
55.1827
 20
57.8515
 11
54.8463
 21
57.4779
  0
LINE
  8
0
 10
54.8463
 20
57.4779
 11
42.8456
 21
42.2092
  0
LINE
  8
0
 10
42.8456
 20
42.2092
 11
41.8207
 21
41.2534
  0
LINE
  8
0
 10
41.8207
 20
41.2534
 11
40.1742
 21
39.8222
  0
LINE
  8
0
 10
40.1742
 20
39.8222
 11
38.4788
 21
38.4493
  0
LINE
  8
0
 10
38.4788
 20
38.4493
 11
36.7366
 21
37.1364
  0
LINE
  8
0
 10
36.7366
 20
37.1364
 11
34.9496
 21
35.8851
  0
LINE
  8
0
 10
34.9496
 20
35.8851
 11
33.1199
 21
34.697
  0
LINE
  8
0
 10
33.1199
 20
34.697
 11
31.25
 21
33.5734
  0
LINE
  8
0
 10
31.25
 20
33.5734
 11
29.342
 21
32.5158
  0
LINE
  8
0
 10
29.342
 20
32.5158
 11
27.3982
 21
31.5254
  0
LINE
  8
0
 10
27.3982
 20
31.5254
 11
25.421
 21
30.6034
  0
LINE
  8
0
 10
25.421
 20
30.6034
 11
23.4129
 21
29.751
  0
LINE
  8
0
 10
23.4129
 20
29.751
 11
21.3763
 21
28.9692
  0
LINE
  8
0
 10
21.3763
 20
28.9692
 11
19.3136
 21
28.259
  0
LINE
  8
0
 10
19.3136
 20
28.259
 11
17.2273
 21
27.6211
  0
LINE
  8
0
 10
17.2273
 20
27.6211
 11
15.1201
 21
27.0565
  0
LINE
  8
0
 10
15.1201
 20
27.0565
 11
12.9945
 21
26.5658
  0
LINE
  8
0
 10
12.9945
 20
26.5658
 11
10.853
 21
26.1495
  0
LINE
  8
0
 10
10.853
 20
26.1495
 11
8.69832
 21
25.8082
  0
LINE
  8
0
 10
8.69832
 20
25.8082
 11
7.79898
 21
25.6978
  0
LINE
  8
0
 10
7.79898
 20
25.6978
 11
7.77414
 21
25.7049
  0
LINE
  8
0
 10
7.77414
 20
25.7049
 11
7.55566
 21
25.7514
  0
LINE
  8
0
 10
7.55566
 20
25.7514
 11
7.33449
 21
25.7825
  0
LINE
  8
0
 10
7.33449
 20
25.7825
 11
7.11166
 21
25.798
  0
LINE
  8
0
 10
7.11166
 20
25.798
 11
-7.11166
 21
25.798
  0
LINE
  8
0
 10
-7.11166
 20
25.798
 11
-7.33449
 21
25.7825
  0
LINE
  8
0
 10
-7.33449
 20
25.7825
 11
-7.55566
 21
25.7514
  0
LINE
  8
0
 10
-7.55566
 20
25.7514
 11
-7.77414
 21
25.7049
  0
LINE
  8
0
 10
-7.77414
 20
25.7049
 11
-7.79898
 21
25.6978
  0
LINE
  8
0
 10
-7.79898
 20
25.6978
 11
-8.69832
 21
25.8082
  0
LINE
  8
0
 10
-8.69832
 20
25.8082
 11
-10.853
 21
26.1495
  0
LINE
  8
0
 10
-10.853
 20
26.1495
 11
-12.9945
 21
26.5658
  0
LINE
  8
0
 10
-12.9945
 20
26.5658
 11
-15.1201
 21
27.0565
  0
LINE
  8
0
 10
-15.1201
 20
27.0565
 11
-17.2273
 21
27.6211
  0
LINE
  8
0
 10
-17.2273
 20
27.6211
 11
-19.3136
 21
28.259
  0
LINE
  8
0
 10
-19.3136
 20
28.259
 11
-21.3763
 21
28.9692
  0
LINE
  8
0
 10
-21.3763
 20
28.9692
 11
-23.4129
 21
29.751
  0
LINE
  8
0
 10
-23.4129
 20
29.751
 11
-25.421
 21
30.6034
  0
LINE
  8
0
 10
-25.421
 20
30.6034
 11
-27.3982
 21
31.5254
  0
LINE
  8
0
 10
-27.3982
 20
31.5254
 11
-29.342
 21
32.5158
  0
LINE
  8
0
 10
-29.342
 20
32.5158
 11
-31.25
 21
33.5734
  0
LINE
  8
0
 10
-31.25
 20
33.5734
 11
-33.1199
 21
34.697
  0
LINE
  8
0
 10
-33.1199
 20
34.697
 11
-34.9496
 21
35.8851
  0
LINE
  8
0
 10
-34.9496
 20
35.8851
 11
-36.7366
 21
37.1364
  0
LINE
  8
0
 10
-36.7366
 20
37.1364
 11
-38.4788
 21
38.4493
  0
LINE
  8
0
 10
-38.4788
 20
38.4493
 11
-40.1742
 21
39.8222
  0
LINE
  8
0
 10
-40.1742
 20
39.8222
 11
-41.8207
 21
41.2534
  0
LINE
  8
0
 10
-41.8207
 20
41.2534
 11
-42.8456
 21
42.2092
  0
LINE
  8
0
 10
-42.8456
 20
42.2092
 11
-54.8465
 21
57.4781
  0
LINE
  8
0
 10
-54.8465
 20
57.4781
 11
-55.1827
 21
57.8515
  0
LINE
  8
0
 10
-55.1827
 20
57.8515
 11
-55.5442
 21
58.2006
  0
LINE
  8
0
 10
-55.5442
 20
58.2006
 11
-55.9292
 21
58.5237
  0
LINE
  8
0
 10
-55.9292
 20
58.5237
 11
-56.3358
 21
58.8191
  0
LINE
  8
0
 10
-56.3358
 20
58.8191
 11
-56.762
 21
59.0854
  0
LINE
  8
0
 10
-56.762
 20
59.0854
 11
-57.2057
 21
59.3213
  0
LINE
  8
0
 10
-57.2057
 20
59.3213
 11
-57.6648
 21
59.5257
  0
LINE
  8
0
 10
-57.6648
 20
59.5257
 11
-58.137
 21
59.6976
  0
LINE
  8
0
 10
-58.137
 20
59.6976
 11
-58.6201
 21
59.8361
  0
LINE
  8
0
 10
-58.6201
 20
59.8361
 11
-59.1117
 21
59.9406
  0
LINE
  8
0
 10
-59.1117
 20
59.9406
 11
-59.6094
 21
60.0106
  0
LINE
  8
0
 10
-59.6094
 20
60.0106
 11
-60.1107
 21
60.0456
  0
LINE
  8
0
 10
-60.1107
 20
60.0456
 11
-60.6132
 21
60.0456
  0
LINE
  8
0
 10
-60.6132
 20
60.0456
 11
-61.1146
 21
60.0106
  0
LINE
  8
0
 10
-61.1146
 20
60.0106
 11
-61.6122
 21
59.9406
  0
LINE
  8
0
 10
-61.6122
 20
59.9406
 11
-62.1038
 21
59.8361
  0
LINE
  8
0
 10
-62.1038
 20
59.8361
 11
-62.5869
 21
59.6976
  0
LINE
  8
0
 10
-62.5869
 20
59.6976
 11
-63.0591
 21
59.5257
  0
LINE
  8
0
 10
-63.0591
 20
59.5257
 11
-63.5182
 21
59.3213
  0
LINE
  8
0
 10
-63.5182
 20
59.3213
 11
-63.962
 21
59.0854
  0
LINE
  8
0
 10
-63.962
 20
59.0854
 11
-64.3882
 21
58.8191
  0
LINE
  8
0
 10
-64.3882
 20
58.8191
 11
-64.7947
 21
58.5237
  0
LINE
  8
0
 10
-64.7947
 20
58.5237
 11
-65.1797
 21
58.2006
  0
LINE
  8
0
 10
-65.1797
 20
58.2006
 11
-65.5412
 21
57.8515
  0
LINE
  8
0
 10
-65.5412
 20
57.8515
 11
-65.8775
 21
57.4781
  0
LINE
  8
0
 10
-65.8775
 20
57.4781
 11
-66.1869
 21
57.082
  0
LINE
  8
0
 10
-66.1869
 20
57.082
 11
-66.4679
 21
56.6654
  0
LINE
  8
0
 10
-66.4679
 20
56.6654
 11
-66.7192
 21
56.2302
  0
LINE
  8
0
 10
-66.7192
 20
56.2302
 11
-66.9395
 21
55.7785
  0
LINE
  8
0
 10
-66.9395
 20
55.7785
 11
-67.1277
 21
55.3125
  0
LINE
  8
0
 10
-67.1277
 20
55.3125
 11
-67.2831
 21
54.8346
  0
LINE
  8
0
 10
-67.2831
 20
54.8346
 11
-67.4046
 21
54.347
  0
LINE
  8
0
 10
-67.4046
 20
54.347
 11
-67.4919
 21
53.852
  0
LINE
  8
0
 10
-67.4919
 20
53.852
 11
-67.5444
 21
53.3522
  0
LINE
  8
0
 10
-67.5444
 20
53.3522
 11
-67.562
 21
52.85
  0
LINE
  8
0
 10
-67.562
 20
52.85
 11
-67.5444
 21
52.3477
  0
LINE
  8
0
 10
-67.5444
 20
52.3477
 11
-67.4919
 21
51.8479
  0
LINE
  8
0
 10
-67.4919
 20
51.8479
 11
-67.4046
 21
51.353
  0
LINE
  8
0
 10
-67.4046
 20
51.353
 11
-67.2831
 21
50.8654
  0
LINE
  8
0
 10
-67.2831
 20
50.8654
 11
-67.1277
 21
50.3875
  0
LINE
  8
0
 10
-67.1277
 20
50.3875
 11
-46.44
 21
-1.03738
  0
LINE
  8
0
 10
-46.44
 20
-1.03738
 11
-46.44
 21
-50.677
  0
LINE
  8
0
 10
-46.44
 20
-50.677
 11
-46.4789
 21
-50.7202
  0
LINE
  8
0
 10
-46.4789
 20
-50.7202
 11
-54.1139
 21
-59.7951
  0
LINE
  8
0
 10
-54.1139
 20
-59.7951
 11
-64.2886
 21
-61.2965
  0
LINE
  8
0
 10
-64.2886
 20
-61.2965
 11
-64.9918
 21
-61.446
  0
LINE
  8
0
 10
-64.9918
 20
-61.446
 11
-65.6829
 21
-61.6441
  0
LINE
  8
0
 10
-65.6829
 20
-61.6441
 11
-66.3584
 21
-61.89
  0
LINE
  8
0
 10
-66.3584
 20
-61.89
 11
-67.0152
 21
-62.1824
  0
LINE
  8
0
 10
-67.0152
 20
-62.1824
 11
-67.65
 21
-62.5199
  0
LINE
  8
0
 10
-67.65
 20
-62.5199
 11
-68.2597
 21
-62.9009
  0
LINE
  8
0
 10
-68.2597
 20
-62.9009
 11
-68.8413
 21
-63.3235
  0
LINE
  8
0
 10
-68.8413
 20
-63.3235
 11
-69.392
 21
-63.7856
  0
LINE
  8
0
 10
-69.392
 20
-63.7856
 11
-69.9092
 21
-64.285
  0
LINE
  8
0
 10
-69.9092
 20
-64.285
 11
-70.3903
 21
-64.8193
  0
LINE
  8
0
 10
-70.3903
 20
-64.8193
 11
-70.8329
 21
-65.3858
  0
LINE
  8
0
 10
-70.8329
 20
-65.3858
 11
-71.2349
 21
-65.9818
  0
LINE
  8
0
 10
-71.2349
 20
-65.9818
 11
-71.5944
 21
-66.6044
  0
LINE
  8
0
 10
-71.5944
 20
-66.6044
 11
-71.9095
 21
-67.2506
  0
LINE
  8
0
 10
-71.9095
 20
-67.2506
 11
-72.1788
 21
-67.9172
  0
LINE
  8
0
 10
-72.1788
 20
-67.9172
 11
-72.401
 21
-68.6009
  0
LINE
  8
0
 10
-72.401
 20
-68.6009
 11
-72.5749
 21
-69.2985
  0
LINE
  8
0
 10
-72.5749
 20
-69.2985
 11
-72.6998
 21
-70.0065
  0
LINE
  8
0
 10
-72.6998
 20
-70.0065
 11
-72.7749
 21
-70.7215
  0
LINE
  8
0
 10
-72.7749
 20
-70.7215
 11
-72.8
 21
-71.44
  0
LINE
  8
0
 10
-72.8
 20
-71.44
 11
-72.7749
 21
-72.1585
  0
LINE
  8
0
 10
-72.7749
 20
-72.1585
 11
-72.6998
 21
-72.8735
  0
LINE
  8
0
 10
-72.6998
 20
-72.8735
 11
-72.5749
 21
-73.5815
  0
LINE
  8
0
 10
-72.5749
 20
-73.5815
 11
-72.401
 21
-74.2791
  0
LINE
  8
0
 10
-72.401
 20
-74.2791
 11
-72.1788
 21
-74.9628
  0
LINE
  8
0
 10
-72.1788
 20
-74.9628
 11
-71.9095
 21
-75.6294
  0
LINE
  8
0
 10
-71.9095
 20
-75.6294
 11
-71.5944
 21
-76.2756
  0
LINE
  8
0
 10
-71.5944
 20
-76.2756
 11
-71.2349
 21
-76.8982
  0
LINE
  8
0
 10
-71.2349
 20
-76.8982
 11
-70.8329
 21
-77.4942
  0
LINE
  8
0
 10
-70.8329
 20
-77.4942
 11
-70.3903
 21
-78.0607
  0
LINE
  8
0
 10
-70.3903
 20
-78.0607
 11
-69.9092
 21
-78.595
  0
LINE
  8
0
 10
-69.9092
 20
-78.595
 11
-69.392
 21
-79.0944
  0
LINE
  8
0
 10
-69.392
 20
-79.0944
 11
-68.8413
 21
-79.5565
  0
LINE
  8
0
 10
-68.8413
 20
-79.5565
 11
-68.2597
 21
-79.9791
  0
LINE
  8
0
 10
-68.2597
 20
-79.9791
 11
-67.65
 21
-80.3601
  0
LINE
  8
0
 10
-67.65
 20
-80.3601
 11
-67.0152
 21
-80.6976
  0
LINE
  8
0
 10
-67.0152
 20
-80.6976
 11
-66.3584
 21
-80.99
  0
LINE
  8
0
 10
-66.3584
 20
-80.99
 11
-65.6829
 21
-81.2359
  0
LINE
  8
0
 10
-65.6829
 20
-81.2359
 11
-64.9918
 21
-81.434
  0
LINE
  8
0
 10
-64.9918
 20
-81.434
 11
-64.2886
 21
-81.5835
  0
LINE
  8
0
 10
-64.2886
 20
-81.5835
 11
-63.5766
 21
-81.6836
  0
LINE
  8
0
 10
-63.5766
 20
-81.6836
 11
-62.8595
 21
-81.7337
  0
LINE
  8
0
 10
-62.8595
 20
-81.7337
 11
62.8595
 21
-81.7337
  0
LINE
  8
0
 10
62.8595
 20
-81.7337
 11
63.5766
 21
-81.6836
  0
LINE
  8
0
 10
-3.5
 20
9.75
 11
-3.5
 21
20.25
  0
LINE
  8
0
 10
-3.5
 20
20.25
 11
3.5
 21
20.25
  0
LINE
  8
0
 10
3.5
 20
20.25
 11
3.5
 21
9.75
  0
LINE
  8
0
 10
3.5
 20
9.75
 11
-3.5
 21
9.75
  0
LINE
  8
0
 10
17.8639
 20
-3.89761
 11
17.5923
 21
-3.87863
  0
LINE
  8
0
 10
17.5923
 20
-3.87863
 11
17.3228
 21
-3.84074
  0
LINE
  8
0
 10
17.3228
 20
-3.84074
 11
17.0565
 21
-3.78415
  0
LINE
  8
0
 10
17.0565
 20
-3.78415
 11
16.7948
 21
-3.70911
  0
LINE
  8
0
 10
16.7948
 20
-3.70911
 11
16.539
 21
-3.61601
  0
LINE
  8
0
 10
16.539
 20
-3.61601
 11
16.2903
 21
-3.50529
  0
LINE
  8
0
 10
16.2903
 20
-3.50529
 11
16.05
 21
-3.37749
  0
LINE
  8
0
 10
16.05
 20
-3.37749
 11
15.8191
 21
-3.23325
  0
LINE
  8
0
 10
15.8191
 20
-3.23325
 11
15.5989
 21
-3.07323
  0
LINE
  8
0
 10
15.5989
 20
-3.07323
 11
15.3904
 21
-2.89825
  0
LINE
  8
0
 10
15.3904
 20
-2.89825
 11
15.1946
 21
-2.70917
  0
LINE
  8
0
 10
15.1946
 20
-2.70917
 11
15.0124
 21
-2.50687
  0
LINE
  8
0
 10
15.0124
 20
-2.50687
 11
14.8448
 21
-2.29236
  0
LINE
  8
0
 10
14.8448
 20
-2.29236
 11
14.6926
 21
-2.06668
  0
LINE
  8
0
 10
14.6926
 20
-2.06668
 11
14.5565
 21
-1.83093
  0
LINE
  8
0
 10
14.5565
 20
-1.83093
 11
14.4372
 21
-1.58626
  0
LINE
  8
0
 10
14.4372
 20
-1.58626
 11
14.3352
 21
-1.33388
  0
LINE
  8
0
 10
14.3352
 20
-1.33388
 11
14.2511
 21
-1.07498
  0
LINE
  8
0
 10
14.2511
 20
-1.07498
 11
14.1852
 21
-0.810852
  0
LINE
  8
0
 10
14.1852
 20
-0.810852
 11
14.1379
 21
-0.54277
  0
LINE
  8
0
 10
14.1379
 20
-0.54277
 11
14.1095
 21
-0.272049
  0
LINE
  8
0
 10
14.1095
 20
-0.272049
 11
14.1
 21
0
  0
LINE
  8
0
 10
14.1
 20
0
 11
14.1095
 21
0.272049
  0
LINE
  8
0
 10
14.1095
 20
0.272049
 11
14.1379
 21
0.54277
  0
LINE
  8
0
 10
14.1379
 20
0.54277
 11
14.1852
 21
0.810852
  0
LINE
  8
0
 10
14.1852
 20
0.810852
 11
14.2511
 21
1.07498
  0
LINE
  8
0
 10
14.2511
 20
1.07498
 11
14.3352
 21
1.33388
  0
LINE
  8
0
 10
14.3352
 20
1.33388
 11
14.4372
 21
1.58626
  0
LINE
  8
0
 10
14.4372
 20
1.58626
 11
14.5565
 21
1.83093
  0
LINE
  8
0
 10
14.5565
 20
1.83093
 11
14.6926
 21
2.06668
  0
LINE
  8
0
 10
14.6926
 20
2.06668
 11
14.8448
 21
2.29236
  0
LINE
  8
0
 10
14.8448
 20
2.29236
 11
15.0124
 21
2.50687
  0
LINE
  8
0
 10
15.0124
 20
2.50687
 11
15.1946
 21
2.70917
  0
LINE
  8
0
 10
15.1946
 20
2.70917
 11
15.3904
 21
2.89825
  0
LINE
  8
0
 10
15.3904
 20
2.89825
 11
15.5989
 21
3.07323
  0
LINE
  8
0
 10
15.5989
 20
3.07323
 11
15.8191
 21
3.23325
  0
LINE
  8
0
 10
15.8191
 20
3.23325
 11
16.05
 21
3.37749
  0
LINE
  8
0
 10
16.05
 20
3.37749
 11
16.2903
 21
3.50529
  0
LINE
  8
0
 10
16.2903
 20
3.50529
 11
16.539
 21
3.61601
  0
LINE
  8
0
 10
16.539
 20
3.61601
 11
16.7948
 21
3.70911
  0
LINE
  8
0
 10
16.7948
 20
3.70911
 11
17.0565
 21
3.78415
  0
LINE
  8
0
 10
17.0565
 20
3.78415
 11
17.3228
 21
3.84074
  0
LINE
  8
0
 10
17.3228
 20
3.84074
 11
17.5923
 21
3.87863
  0
LINE
  8
0
 10
17.5923
 20
3.87863
 11
17.8639
 21
3.89761
  0
LINE
  8
0
 10
17.8639
 20
3.89761
 11
18.1361
 21
3.89761
  0
LINE
  8
0
 10
18.1361
 20
3.89761
 11
18.4077
 21
3.87863
  0
LINE
  8
0
 10
18.4077
 20
3.87863
 11
18.6772
 21
3.84074
  0
LINE
  8
0
 10
18.6772
 20
3.84074
 11
18.9435
 21
3.78415
  0
LINE
  8
0
 10
18.9435
 20
3.78415
 11
19.2052
 21
3.70911
  0
LINE
  8
0
 10
19.2052
 20
3.70911
 11
19.461
 21
3.61601
  0
LINE
  8
0
 10
19.461
 20
3.61601
 11
19.7096
 21
3.50529
  0
LINE
  8
0
 10
19.7096
 20
3.50529
 11
19.95
 21
3.37749
  0
LINE
  8
0
 10
19.95
 20
3.37749
 11
20.1808
 21
3.23325
  0
LINE
  8
0
 10
20.1808
 20
3.23325
 11
20.4011
 21
3.07323
  0
LINE
  8
0
 10
20.4011
 20
3.07323
 11
20.6096
 21
2.89825
  0
LINE
  8
0
 10
20.6096
 20
2.89825
 11
20.8054
 21
2.70917
  0
LINE
  8
0
 10
20.8054
 20
2.70917
 11
20.9876
 21
2.50687
  0
LINE
  8
0
 10
20.9876
 20
2.50687
 11
21.1552
 21
2.29236
  0
LINE
  8
0
 10
21.1552
 20
2.29236
 11
21.3074
 21
2.06668
  0
LINE
  8
0
 10
21.3074
 20
2.06668
 11
21.4435
 21
1.83093
  0
LINE
  8
0
 10
21.4435
 20
1.83093
 11
21.5628
 21
1.58626
  0
LINE
  8
0
 10
21.5628
 20
1.58626
 11
21.6648
 21
1.33388
  0
LINE
  8
0
 10
21.6648
 20
1.33388
 11
21.7489
 21
1.07498
  0
LINE
  8
0
 10
21.7489
 20
1.07498
 11
21.8148
 21
0.810852
  0
LINE
  8
0
 10
21.8148
 20
0.810852
 11
21.862
 21
0.54277
  0
LINE
  8
0
 10
21.862
 20
0.54277
 11
21.8905
 21
0.272049
  0
LINE
  8
0
 10
21.8905
 20
0.272049
 11
21.9
 21
0
  0
LINE
  8
0
 10
21.9
 20
0
 11
21.8905
 21
-0.272049
  0
LINE
  8
0
 10
21.8905
 20
-0.272049
 11
21.862
 21
-0.54277
  0
LINE
  8
0
 10
21.862
 20
-0.54277
 11
21.8148
 21
-0.810852
  0
LINE
  8
0
 10
21.8148
 20
-0.810852
 11
21.7489
 21
-1.07498
  0
LINE
  8
0
 10
21.7489
 20
-1.07498
 11
21.6648
 21
-1.33388
  0
LINE
  8
0
 10
21.6648
 20
-1.33388
 11
21.5628
 21
-1.58626
  0
LINE
  8
0
 10
21.5628
 20
-1.58626
 11
21.4435
 21
-1.83093
  0
LINE
  8
0
 10
21.4435
 20
-1.83093
 11
21.3074
 21
-2.06668
  0
LINE
  8
0
 10
21.3074
 20
-2.06668
 11
21.1552
 21
-2.29236
  0
LINE
  8
0
 10
21.1552
 20
-2.29236
 11
20.9876
 21
-2.50687
  0
LINE
  8
0
 10
20.9876
 20
-2.50687
 11
20.8054
 21
-2.70917
  0
LINE
  8
0
 10
20.8054
 20
-2.70917
 11
20.6096
 21
-2.89825
  0
LINE
  8
0
 10
20.6096
 20
-2.89825
 11
20.4011
 21
-3.07323
  0
LINE
  8
0
 10
20.4011
 20
-3.07323
 11
20.1808
 21
-3.23325
  0
LINE
  8
0
 10
20.1808
 20
-3.23325
 11
19.95
 21
-3.37749
  0
LINE
  8
0
 10
19.95
 20
-3.37749
 11
19.7096
 21
-3.50529
  0
LINE
  8
0
 10
19.7096
 20
-3.50529
 11
19.461
 21
-3.61601
  0
LINE
  8
0
 10
19.461
 20
-3.61601
 11
19.2052
 21
-3.70911
  0
LINE
  8
0
 10
19.2052
 20
-3.70911
 11
18.9435
 21
-3.78415
  0
LINE
  8
0
 10
18.9435
 20
-3.78415
 11
18.6772
 21
-3.84074
  0
LINE
  8
0
 10
18.6772
 20
-3.84074
 11
18.4077
 21
-3.87863
  0
LINE
  8
0
 10
18.4077
 20
-3.87863
 11
18.1361
 21
-3.89761
  0
LINE
  8
0
 10
18.1361
 20
-3.89761
 11
17.8639
 21
-3.89761
  0
LINE
  8
0
 10
-18.1361
 20
-3.89761
 11
-18.4077
 21
-3.87863
  0
LINE
  8
0
 10
-18.4077
 20
-3.87863
 11
-18.6772
 21
-3.84074
  0
LINE
  8
0
 10
-18.6772
 20
-3.84074
 11
-18.9435
 21
-3.78415
  0
LINE
  8
0
 10
-18.9435
 20
-3.78415
 11
-19.2052
 21
-3.70911
  0
LINE
  8
0
 10
-19.2052
 20
-3.70911
 11
-19.461
 21
-3.61601
  0
LINE
  8
0
 10
-19.461
 20
-3.61601
 11
-19.7096
 21
-3.50529
  0
LINE
  8
0
 10
-19.7096
 20
-3.50529
 11
-19.95
 21
-3.37749
  0
LINE
  8
0
 10
-19.95
 20
-3.37749
 11
-20.1808
 21
-3.23325
  0
LINE
  8
0
 10
-20.1808
 20
-3.23325
 11
-20.4011
 21
-3.07323
  0
LINE
  8
0
 10
-20.4011
 20
-3.07323
 11
-20.6096
 21
-2.89825
  0
LINE
  8
0
 10
-20.6096
 20
-2.89825
 11
-20.8054
 21
-2.70917
  0
LINE
  8
0
 10
-20.8054
 20
-2.70917
 11
-20.9876
 21
-2.50687
  0
LINE
  8
0
 10
-20.9876
 20
-2.50687
 11
-21.1552
 21
-2.29236
  0
LINE
  8
0
 10
-21.1552
 20
-2.29236
 11
-21.3074
 21
-2.06668
  0
LINE
  8
0
 10
-21.3074
 20
-2.06668
 11
-21.4435
 21
-1.83093
  0
LINE
  8
0
 10
-21.4435
 20
-1.83093
 11
-21.5628
 21
-1.58626
  0
LINE
  8
0
 10
-21.5628
 20
-1.58626
 11
-21.6648
 21
-1.33388
  0
LINE
  8
0
 10
-21.6648
 20
-1.33388
 11
-21.7489
 21
-1.07498
  0
LINE
  8
0
 10
-21.7489
 20
-1.07498
 11
-21.8148
 21
-0.810852
  0
LINE
  8
0
 10
-21.8148
 20
-0.810852
 11
-21.862
 21
-0.54277
  0
LINE
  8
0
 10
-21.862
 20
-0.54277
 11
-21.8905
 21
-0.272049
  0
LINE
  8
0
 10
-21.8905
 20
-0.272049
 11
-21.9
 21
0
  0
LINE
  8
0
 10
-21.9
 20
0
 11
-21.8905
 21
0.272049
  0
LINE
  8
0
 10
-21.8905
 20
0.272049
 11
-21.862
 21
0.54277
  0
LINE
  8
0
 10
-21.862
 20
0.54277
 11
-21.8148
 21
0.810852
  0
LINE
  8
0
 10
-21.8148
 20
0.810852
 11
-21.7489
 21
1.07498
  0
LINE
  8
0
 10
-21.7489
 20
1.07498
 11
-21.6648
 21
1.33388
  0
LINE
  8
0
 10
-21.6648
 20
1.33388
 11
-21.5628
 21
1.58626
  0
LINE
  8
0
 10
-21.5628
 20
1.58626
 11
-21.4435
 21
1.83093
  0
LINE
  8
0
 10
-21.4435
 20
1.83093
 11
-21.3074
 21
2.06668
  0
LINE
  8
0
 10
-21.3074
 20
2.06668
 11
-21.1552
 21
2.29236
  0
LINE
  8
0
 10
-21.1552
 20
2.29236
 11
-20.9876
 21
2.50687
  0
LINE
  8
0
 10
-20.9876
 20
2.50687
 11
-20.8054
 21
2.70917
  0
LINE
  8
0
 10
-20.8054
 20
2.70917
 11
-20.6096
 21
2.89825
  0
LINE
  8
0
 10
-20.6096
 20
2.89825
 11
-20.4011
 21
3.07323
  0
LINE
  8
0
 10
-20.4011
 20
3.07323
 11
-20.1808
 21
3.23325
  0
LINE
  8
0
 10
-20.1808
 20
3.23325
 11
-19.95
 21
3.37749
  0
LINE
  8
0
 10
-19.95
 20
3.37749
 11
-19.7096
 21
3.50529
  0
LINE
  8
0
 10
-19.7096
 20
3.50529
 11
-19.461
 21
3.61601
  0
LINE
  8
0
 10
-19.461
 20
3.61601
 11
-19.2052
 21
3.70911
  0
LINE
  8
0
 10
-19.2052
 20
3.70911
 11
-18.9435
 21
3.78415
  0
LINE
  8
0
 10
-18.9435
 20
3.78415
 11
-18.6772
 21
3.84074
  0
LINE
  8
0
 10
-18.6772
 20
3.84074
 11
-18.4077
 21
3.87863
  0
LINE
  8
0
 10
-18.4077
 20
3.87863
 11
-18.1361
 21
3.89761
  0
LINE
  8
0
 10
-18.1361
 20
3.89761
 11
-17.8639
 21
3.89761
  0
LINE
  8
0
 10
-17.8639
 20
3.89761
 11
-17.5923
 21
3.87863
  0
LINE
  8
0
 10
-17.5923
 20
3.87863
 11
-17.3228
 21
3.84074
  0
LINE
  8
0
 10
-17.3228
 20
3.84074
 11
-17.0565
 21
3.78415
  0
LINE
  8
0
 10
-17.0565
 20
3.78415
 11
-16.7948
 21
3.70911
  0
LINE
  8
0
 10
-16.7948
 20
3.70911
 11
-16.539
 21
3.61601
  0
LINE
  8
0
 10
-16.539
 20
3.61601
 11
-16.2903
 21
3.50529
  0
LINE
  8
0
 10
-16.2903
 20
3.50529
 11
-16.05
 21
3.37749
  0
LINE
  8
0
 10
-16.05
 20
3.37749
 11
-15.8191
 21
3.23325
  0
LINE
  8
0
 10
-15.8191
 20
3.23325
 11
-15.5989
 21
3.07323
  0
LINE
  8
0
 10
-15.5989
 20
3.07323
 11
-15.3904
 21
2.89825
  0
LINE
  8
0
 10
-15.3904
 20
2.89825
 11
-15.1946
 21
2.70917
  0
LINE
  8
0
 10
-15.1946
 20
2.70917
 11
-15.0124
 21
2.50687
  0
LINE
  8
0
 10
-15.0124
 20
2.50687
 11
-14.8448
 21
2.29236
  0
LINE
  8
0
 10
-14.8448
 20
2.29236
 11
-14.6926
 21
2.06668
  0
LINE
  8
0
 10
-14.6926
 20
2.06668
 11
-14.5565
 21
1.83093
  0
LINE
  8
0
 10
-14.5565
 20
1.83093
 11
-14.4372
 21
1.58626
  0
LINE
  8
0
 10
-14.4372
 20
1.58626
 11
-14.3352
 21
1.33388
  0
LINE
  8
0
 10
-14.3352
 20
1.33388
 11
-14.2511
 21
1.07498
  0
LINE
  8
0
 10
-14.2511
 20
1.07498
 11
-14.1852
 21
0.810852
  0
LINE
  8
0
 10
-14.1852
 20
0.810852
 11
-14.1379
 21
0.54277
  0
LINE
  8
0
 10
-14.1379
 20
0.54277
 11
-14.1095
 21
0.272049
  0
LINE
  8
0
 10
-14.1095
 20
0.272049
 11
-14.1
 21
0
  0
LINE
  8
0
 10
-14.1
 20
0
 11
-14.1095
 21
-0.272049
  0
LINE
  8
0
 10
-14.1095
 20
-0.272049
 11
-14.1379
 21
-0.54277
  0
LINE
  8
0
 10
-14.1379
 20
-0.54277
 11
-14.1852
 21
-0.810852
  0
LINE
  8
0
 10
-14.1852
 20
-0.810852
 11
-14.2511
 21
-1.07498
  0
LINE
  8
0
 10
-14.2511
 20
-1.07498
 11
-14.3352
 21
-1.33388
  0
LINE
  8
0
 10
-14.3352
 20
-1.33388
 11
-14.4372
 21
-1.58626
  0
LINE
  8
0
 10
-14.4372
 20
-1.58626
 11
-14.5565
 21
-1.83093
  0
LINE
  8
0
 10
-14.5565
 20
-1.83093
 11
-14.6926
 21
-2.06668
  0
LINE
  8
0
 10
-14.6926
 20
-2.06668
 11
-14.8448
 21
-2.29236
  0
LINE
  8
0
 10
-14.8448
 20
-2.29236
 11
-15.0124
 21
-2.50687
  0
LINE
  8
0
 10
-15.0124
 20
-2.50687
 11
-15.1946
 21
-2.70917
  0
LINE
  8
0
 10
-15.1946
 20
-2.70917
 11
-15.3904
 21
-2.89825
  0
LINE
  8
0
 10
-15.3904
 20
-2.89825
 11
-15.5989
 21
-3.07323
  0
LINE
  8
0
 10
-15.5989
 20
-3.07323
 11
-15.8191
 21
-3.23325
  0
LINE
  8
0
 10
-15.8191
 20
-3.23325
 11
-16.05
 21
-3.37749
  0
LINE
  8
0
 10
-16.05
 20
-3.37749
 11
-16.2903
 21
-3.50529
  0
LINE
  8
0
 10
-16.2903
 20
-3.50529
 11
-16.539
 21
-3.61601
  0
LINE
  8
0
 10
-16.539
 20
-3.61601
 11
-16.7948
 21
-3.70911
  0
LINE
  8
0
 10
-16.7948
 20
-3.70911
 11
-17.0565
 21
-3.78415
  0
LINE
  8
0
 10
-17.0565
 20
-3.78415
 11
-17.3228
 21
-3.84074
  0
LINE
  8
0
 10
-17.3228
 20
-3.84074
 11
-17.5923
 21
-3.87863
  0
LINE
  8
0
 10
-17.5923
 20
-3.87863
 11
-17.8639
 21
-3.89761
  0
LINE
  8
0
 10
-17.8639
 20
-3.89761
 11
-18.1361
 21
-3.89761
  0
LINE
  8
0
 10
-7.79886
 20
-22.8991
 11
-7.89633
 21
-22.8923
  0
LINE
  8
0
 10
-7.89633
 20
-22.8923
 11
-7.9931
 21
-22.8787
  0
LINE
  8
0
 10
-7.9931
 20
-22.8787
 11
-8.08868
 21
-22.8584
  0
LINE
  8
0
 10
-8.08868
 20
-22.8584
 11
-8.18262
 21
-22.8315
  0
LINE
  8
0
 10
-8.18262
 20
-22.8315
 11
-8.27444
 21
-22.798
  0
LINE
  8
0
 10
-8.27444
 20
-22.798
 11
-8.36371
 21
-22.7583
  0
LINE
  8
0
 10
-8.36371
 20
-22.7583
 11
-8.45
 21
-22.7124
  0
LINE
  8
0
 10
-8.45
 20
-22.7124
 11
-8.53287
 21
-22.6606
  0
LINE
  8
0
 10
-8.53287
 20
-22.6606
 11
-8.61192
 21
-22.6032
  0
LINE
  8
0
 10
-8.61192
 20
-22.6032
 11
-8.68678
 21
-22.5404
  0
LINE
  8
0
 10
-8.68678
 20
-22.5404
 11
-8.75706
 21
-22.4725
  0
LINE
  8
0
 10
-8.75706
 20
-22.4725
 11
-8.82245
 21
-22.3999
  0
LINE
  8
0
 10
-8.82245
 20
-22.3999
 11
-8.88261
 21
-22.3229
  0
LINE
  8
0
 10
-8.88261
 20
-22.3229
 11
-8.93726
 21
-22.2419
  0
LINE
  8
0
 10
-8.93726
 20
-22.2419
 11
-8.98611
 21
-22.1573
  0
LINE
  8
0
 10
-8.98611
 20
-22.1573
 11
-9.02896
 21
-22.0694
  0
LINE
  8
0
 10
-9.02896
 20
-22.0694
 11
-9.06557
 21
-21.9788
  0
LINE
  8
0
 10
-9.06557
 20
-21.9788
 11
-9.09576
 21
-21.8859
  0
LINE
  8
0
 10
-9.09576
 20
-21.8859
 11
-9.1194
 21
-21.7911
  0
LINE
  8
0
 10
-9.1194
 20
-21.7911
 11
-9.13637
 21
-21.6948
  0
LINE
  8
0
 10
-9.13637
 20
-21.6948
 11
-9.14658
 21
-21.5977
  0
LINE
  8
0
 10
-9.14658
 20
-21.5977
 11
-9.14999
 21
-21.5
  0
LINE
  8
0
 10
-9.14999
 20
-21.5
 11
-9.14658
 21
-21.4023
  0
LINE
  8
0
 10
-9.14658
 20
-21.4023
 11
-9.13637
 21
-21.3051
  0
LINE
  8
0
 10
-9.13637
 20
-21.3051
 11
-9.1194
 21
-21.2089
  0
LINE
  8
0
 10
-9.1194
 20
-21.2089
 11
-9.09576
 21
-21.1141
  0
LINE
  8
0
 10
-9.09576
 20
-21.1141
 11
-9.06557
 21
-21.0212
  0
LINE
  8
0
 10
-9.06557
 20
-21.0212
 11
-9.02896
 21
-20.9306
  0
LINE
  8
0
 10
-9.02896
 20
-20.9306
 11
-8.98611
 21
-20.8427
  0
LINE
  8
0
 10
-8.98611
 20
-20.8427
 11
-8.93726
 21
-20.7581
  0
LINE
  8
0
 10
-8.93726
 20
-20.7581
 11
-8.88261
 21
-20.6771
  0
LINE
  8
0
 10
-8.88261
 20
-20.6771
 11
-8.82245
 21
-20.6001
  0
LINE
  8
0
 10
-8.82245
 20
-20.6001
 11
-8.75706
 21
-20.5275
  0
LINE
  8
0
 10
-8.75706
 20
-20.5275
 11
-8.68678
 21
-20.4596
  0
LINE
  8
0
 10
-8.68678
 20
-20.4596
 11
-8.61192
 21
-20.3968
  0
LINE
  8
0
 10
-8.61192
 20
-20.3968
 11
-8.53287
 21
-20.3393
  0
LINE
  8
0
 10
-8.53287
 20
-20.3393
 11
-8.45
 21
-20.2876
  0
LINE
  8
0
 10
-8.45
 20
-20.2876
 11
-8.36371
 21
-20.2417
  0
LINE
  8
0
 10
-8.36371
 20
-20.2417
 11
-8.27444
 21
-20.2019
  0
LINE
  8
0
 10
-8.27444
 20
-20.2019
 11
-8.18262
 21
-20.1685
  0
LINE
  8
0
 10
-8.18262
 20
-20.1685
 11
-8.08868
 21
-20.1416
  0
LINE
  8
0
 10
-8.08868
 20
-20.1416
 11
-7.9931
 21
-20.1213
  0
LINE
  8
0
 10
-7.9931
 20
-20.1213
 11
-7.89633
 21
-20.1077
  0
LINE
  8
0
 10
-7.89633
 20
-20.1077
 11
-7.79886
 21
-20.1008
  0
LINE
  8
0
 10
-7.79886
 20
-20.1008
 11
-7.70113
 21
-20.1008
  0
LINE
  8
0
 10
-7.70113
 20
-20.1008
 11
-7.60365
 21
-20.1077
  0
LINE
  8
0
 10
-7.60365
 20
-20.1077
 11
-7.50688
 21
-20.1213
  0
LINE
  8
0
 10
-7.50688
 20
-20.1213
 11
-7.4113
 21
-20.1416
  0
LINE
  8
0
 10
-7.4113
 20
-20.1416
 11
-7.31737
 21
-20.1685
  0
LINE
  8
0
 10
-7.31737
 20
-20.1685
 11
-7.22554
 21
-20.2019
  0
LINE
  8
0
 10
-7.22554
 20
-20.2019
 11
-7.13628
 21
-20.2417
  0
LINE
  8
0
 10
-7.13628
 20
-20.2417
 11
-7.04999
 21
-20.2876
  0
LINE
  8
0
 10
-7.04999
 20
-20.2876
 11
-6.96712
 21
-20.3393
  0
LINE
  8
0
 10
-6.96712
 20
-20.3393
 11
-6.88806
 21
-20.3968
  0
LINE
  8
0
 10
-6.88806
 20
-20.3968
 11
-6.8132
 21
-20.4596
  0
LINE
  8
0
 10
-6.8132
 20
-20.4596
 11
-6.74292
 21
-20.5275
  0
LINE
  8
0
 10
-6.74292
 20
-20.5275
 11
-6.67754
 21
-20.6001
  0
LINE
  8
0
 10
-6.67754
 20
-20.6001
 11
-6.61737
 21
-20.6771
  0
LINE
  8
0
 10
-6.61737
 20
-20.6771
 11
-6.56273
 21
-20.7581
  0
LINE
  8
0
 10
-6.56273
 20
-20.7581
 11
-6.51387
 21
-20.8427
  0
LINE
  8
0
 10
-6.51387
 20
-20.8427
 11
-6.47102
 21
-20.9306
  0
LINE
  8
0
 10
-6.47102
 20
-20.9306
 11
-6.43442
 21
-21.0212
  0
LINE
  8
0
 10
-6.43442
 20
-21.0212
 11
-6.40422
 21
-21.1141
  0
LINE
  8
0
 10
-6.40422
 20
-21.1141
 11
-6.38058
 21
-21.2089
  0
LINE
  8
0
 10
-6.38058
 20
-21.2089
 11
-6.36362
 21
-21.3051
  0
LINE
  8
0
 10
-6.36362
 20
-21.3051
 11
-6.35341
 21
-21.4023
  0
LINE
  8
0
 10
-6.35341
 20
-21.4023
 11
-6.34999
 21
-21.5
  0
LINE
  8
0
 10
-6.34999
 20
-21.5
 11
-6.35341
 21
-21.5977
  0
LINE
  8
0
 10
-6.35341
 20
-21.5977
 11
-6.36362
 21
-21.6948
  0
LINE
  8
0
 10
-6.36362
 20
-21.6948
 11
-6.38058
 21
-21.7911
  0
LINE
  8
0
 10
-6.38058
 20
-21.7911
 11
-6.40422
 21
-21.8859
  0
LINE
  8
0
 10
-6.40422
 20
-21.8859
 11
-6.43442
 21
-21.9788
  0
LINE
  8
0
 10
-6.43442
 20
-21.9788
 11
-6.47102
 21
-22.0694
  0
LINE
  8
0
 10
-6.47102
 20
-22.0694
 11
-6.51387
 21
-22.1573
  0
LINE
  8
0
 10
-6.51387
 20
-22.1573
 11
-6.56273
 21
-22.2419
  0
LINE
  8
0
 10
-6.56273
 20
-22.2419
 11
-6.61737
 21
-22.3229
  0
LINE
  8
0
 10
-6.61737
 20
-22.3229
 11
-6.67754
 21
-22.3999
  0
LINE
  8
0
 10
-6.67754
 20
-22.3999
 11
-6.74292
 21
-22.4725
  0
LINE
  8
0
 10
-6.74292
 20
-22.4725
 11
-6.8132
 21
-22.5404
  0
LINE
  8
0
 10
-6.8132
 20
-22.5404
 11
-6.88806
 21
-22.6032
  0
LINE
  8
0
 10
-6.88806
 20
-22.6032
 11
-6.96712
 21
-22.6606
  0
LINE
  8
0
 10
-6.96712
 20
-22.6606
 11
-7.04999
 21
-22.7124
  0
LINE
  8
0
 10
-7.04999
 20
-22.7124
 11
-7.13628
 21
-22.7583
  0
LINE
  8
0
 10
-7.13628
 20
-22.7583
 11
-7.22554
 21
-22.798
  0
LINE
  8
0
 10
-7.22554
 20
-22.798
 11
-7.31737
 21
-22.8315
  0
LINE
  8
0
 10
-7.31737
 20
-22.8315
 11
-7.4113
 21
-22.8584
  0
LINE
  8
0
 10
-7.4113
 20
-22.8584
 11
-7.50688
 21
-22.8787
  0
LINE
  8
0
 10
-7.50688
 20
-22.8787
 11
-7.60365
 21
-22.8923
  0
LINE
  8
0
 10
-7.60365
 20
-22.8923
 11
-7.70113
 21
-22.8991
  0
LINE
  8
0
 10
-7.70113
 20
-22.8991
 11
-7.79886
 21
-22.8991
  0
LINE
  8
0
 10
7.70113
 20
-22.8991
 11
7.60365
 21
-22.8923
  0
LINE
  8
0
 10
7.60365
 20
-22.8923
 11
7.50688
 21
-22.8787
  0
LINE
  8
0
 10
7.50688
 20
-22.8787
 11
7.4113
 21
-22.8584
  0
LINE
  8
0
 10
7.4113
 20
-22.8584
 11
7.31737
 21
-22.8315
  0
LINE
  8
0
 10
7.31737
 20
-22.8315
 11
7.22554
 21
-22.798
  0
LINE
  8
0
 10
7.22554
 20
-22.798
 11
7.13628
 21
-22.7583
  0
LINE
  8
0
 10
7.13628
 20
-22.7583
 11
7.04999
 21
-22.7124
  0
LINE
  8
0
 10
7.04999
 20
-22.7124
 11
6.96712
 21
-22.6606
  0
LINE
  8
0
 10
6.96712
 20
-22.6606
 11
6.88806
 21
-22.6032
  0
LINE
  8
0
 10
6.88806
 20
-22.6032
 11
6.8132
 21
-22.5404
  0
LINE
  8
0
 10
6.8132
 20
-22.5404
 11
6.74292
 21
-22.4725
  0
LINE
  8
0
 10
6.74292
 20
-22.4725
 11
6.67754
 21
-22.3999
  0
LINE
  8
0
 10
6.67754
 20
-22.3999
 11
6.61737
 21
-22.3229
  0
LINE
  8
0
 10
6.61737
 20
-22.3229
 11
6.56273
 21
-22.2419
  0
LINE
  8
0
 10
6.56273
 20
-22.2419
 11
6.51387
 21
-22.1573
  0
LINE
  8
0
 10
6.51387
 20
-22.1573
 11
6.47102
 21
-22.0694
  0
LINE
  8
0
 10
6.47102
 20
-22.0694
 11
6.43442
 21
-21.9788
  0
LINE
  8
0
 10
6.43442
 20
-21.9788
 11
6.40422
 21
-21.8859
  0
LINE
  8
0
 10
6.40422
 20
-21.8859
 11
6.38058
 21
-21.7911
  0
LINE
  8
0
 10
6.38058
 20
-21.7911
 11
6.36362
 21
-21.6948
  0
LINE
  8
0
 10
6.36362
 20
-21.6948
 11
6.35341
 21
-21.5977
  0
LINE
  8
0
 10
6.35341
 20
-21.5977
 11
6.34999
 21
-21.5
  0
LINE
  8
0
 10
6.34999
 20
-21.5
 11
6.35341
 21
-21.4023
  0
LINE
  8
0
 10
6.35341
 20
-21.4023
 11
6.36362
 21
-21.3051
  0
LINE
  8
0
 10
6.36362
 20
-21.3051
 11
6.38058
 21
-21.2089
  0
LINE
  8
0
 10
6.38058
 20
-21.2089
 11
6.40422
 21
-21.1141
  0
LINE
  8
0
 10
6.40422
 20
-21.1141
 11
6.43442
 21
-21.0212
  0
LINE
  8
0
 10
6.43442
 20
-21.0212
 11
6.47102
 21
-20.9306
  0
LINE
  8
0
 10
6.47102
 20
-20.9306
 11
6.51387
 21
-20.8427
  0
LINE
  8
0
 10
6.51387
 20
-20.8427
 11
6.56273
 21
-20.7581
  0
LINE
  8
0
 10
6.56273
 20
-20.7581
 11
6.61737
 21
-20.6771
  0
LINE
  8
0
 10
6.61737
 20
-20.6771
 11
6.67754
 21
-20.6001
  0
LINE
  8
0
 10
6.67754
 20
-20.6001
 11
6.74292
 21
-20.5275
  0
LINE
  8
0
 10
6.74292
 20
-20.5275
 11
6.8132
 21
-20.4596
  0
LINE
  8
0
 10
6.8132
 20
-20.4596
 11
6.88806
 21
-20.3968
  0
LINE
  8
0
 10
6.88806
 20
-20.3968
 11
6.96712
 21
-20.3393
  0
LINE
  8
0
 10
6.96712
 20
-20.3393
 11
7.04999
 21
-20.2876
  0
LINE
  8
0
 10
7.04999
 20
-20.2876
 11
7.13628
 21
-20.2417
  0
LINE
  8
0
 10
7.13628
 20
-20.2417
 11
7.22554
 21
-20.2019
  0
LINE
  8
0
 10
7.22554
 20
-20.2019
 11
7.31737
 21
-20.1685
  0
LINE
  8
0
 10
7.31737
 20
-20.1685
 11
7.4113
 21
-20.1416
  0
LINE
  8
0
 10
7.4113
 20
-20.1416
 11
7.50688
 21
-20.1213
  0
LINE
  8
0
 10
7.50688
 20
-20.1213
 11
7.60365
 21
-20.1077
  0
LINE
  8
0
 10
7.60365
 20
-20.1077
 11
7.70113
 21
-20.1008
  0
LINE
  8
0
 10
7.70113
 20
-20.1008
 11
7.79886
 21
-20.1008
  0
LINE
  8
0
 10
7.79886
 20
-20.1008
 11
7.89633
 21
-20.1077
  0
LINE
  8
0
 10
7.89633
 20
-20.1077
 11
7.9931
 21
-20.1213
  0
LINE
  8
0
 10
7.9931
 20
-20.1213
 11
8.08868
 21
-20.1416
  0
LINE
  8
0
 10
8.08868
 20
-20.1416
 11
8.18262
 21
-20.1685
  0
LINE
  8
0
 10
8.18262
 20
-20.1685
 11
8.27444
 21
-20.2019
  0
LINE
  8
0
 10
8.27444
 20
-20.2019
 11
8.36371
 21
-20.2417
  0
LINE
  8
0
 10
8.36371
 20
-20.2417
 11
8.45
 21
-20.2876
  0
LINE
  8
0
 10
8.45
 20
-20.2876
 11
8.53287
 21
-20.3393
  0
LINE
  8
0
 10
8.53287
 20
-20.3393
 11
8.61192
 21
-20.3968
  0
LINE
  8
0
 10
8.61192
 20
-20.3968
 11
8.68678
 21
-20.4596
  0
LINE
  8
0
 10
8.68678
 20
-20.4596
 11
8.75706
 21
-20.5275
  0
LINE
  8
0
 10
8.75706
 20
-20.5275
 11
8.82245
 21
-20.6001
  0
LINE
  8
0
 10
8.82245
 20
-20.6001
 11
8.88261
 21
-20.6771
  0
LINE
  8
0
 10
8.88261
 20
-20.6771
 11
8.93726
 21
-20.7581
  0
LINE
  8
0
 10
8.93726
 20
-20.7581
 11
8.98611
 21
-20.8427
  0
LINE
  8
0
 10
8.98611
 20
-20.8427
 11
9.02896
 21
-20.9306
  0
LINE
  8
0
 10
9.02896
 20
-20.9306
 11
9.06557
 21
-21.0212
  0
LINE
  8
0
 10
9.06557
 20
-21.0212
 11
9.09576
 21
-21.1141
  0
LINE
  8
0
 10
9.09576
 20
-21.1141
 11
9.1194
 21
-21.2089
  0
LINE
  8
0
 10
9.1194
 20
-21.2089
 11
9.13637
 21
-21.3051
  0
LINE
  8
0
 10
9.13637
 20
-21.3051
 11
9.14658
 21
-21.4023
  0
LINE
  8
0
 10
9.14658
 20
-21.4023
 11
9.14999
 21
-21.5
  0
LINE
  8
0
 10
9.14999
 20
-21.5
 11
9.14658
 21
-21.5977
  0
LINE
  8
0
 10
9.14658
 20
-21.5977
 11
9.13637
 21
-21.6948
  0
LINE
  8
0
 10
9.13637
 20
-21.6948
 11
9.1194
 21
-21.7911
  0
LINE
  8
0
 10
9.1194
 20
-21.7911
 11
9.09576
 21
-21.8859
  0
LINE
  8
0
 10
9.09576
 20
-21.8859
 11
9.06557
 21
-21.9788
  0
LINE
  8
0
 10
9.06557
 20
-21.9788
 11
9.02896
 21
-22.0694
  0
LINE
  8
0
 10
9.02896
 20
-22.0694
 11
8.98611
 21
-22.1573
  0
LINE
  8
0
 10
8.98611
 20
-22.1573
 11
8.93726
 21
-22.2419
  0
LINE
  8
0
 10
8.93726
 20
-22.2419
 11
8.88261
 21
-22.3229
  0
LINE
  8
0
 10
8.88261
 20
-22.3229
 11
8.82245
 21
-22.3999
  0
LINE
  8
0
 10
8.82245
 20
-22.3999
 11
8.75706
 21
-22.4725
  0
LINE
  8
0
 10
8.75706
 20
-22.4725
 11
8.68678
 21
-22.5404
  0
LINE
  8
0
 10
8.68678
 20
-22.5404
 11
8.61192
 21
-22.6032
  0
LINE
  8
0
 10
8.61192
 20
-22.6032
 11
8.53287
 21
-22.6606
  0
LINE
  8
0
 10
8.53287
 20
-22.6606
 11
8.45
 21
-22.7124
  0
LINE
  8
0
 10
8.45
 20
-22.7124
 11
8.36371
 21
-22.7583
  0
LINE
  8
0
 10
8.36371
 20
-22.7583
 11
8.27444
 21
-22.798
  0
LINE
  8
0
 10
8.27444
 20
-22.798
 11
8.18262
 21
-22.8315
  0
LINE
  8
0
 10
8.18262
 20
-22.8315
 11
8.08868
 21
-22.8584
  0
LINE
  8
0
 10
8.08868
 20
-22.8584
 11
7.9931
 21
-22.8787
  0
LINE
  8
0
 10
7.9931
 20
-22.8787
 11
7.89633
 21
-22.8923
  0
LINE
  8
0
 10
7.89633
 20
-22.8923
 11
7.79886
 21
-22.8991
  0
LINE
  8
0
 10
7.79886
 20
-22.8991
 11
7.70113
 21
-22.8991
  0
LINE
  8
0
 10
-0.230331
 20
-48.596
 11
-0.68988
 21
-48.5638
  0
LINE
  8
0
 10
-0.68988
 20
-48.5638
 11
-1.14607
 21
-48.4997
  0
LINE
  8
0
 10
-1.14607
 20
-48.4997
 11
-1.59668
 21
-48.4039
  0
LINE
  8
0
 10
-1.59668
 20
-48.4039
 11
-2.03951
 21
-48.277
  0
LINE
  8
0
 10
-2.03951
 20
-48.277
 11
-2.4724
 21
-48.1194
  0
LINE
  8
0
 10
-2.4724
 20
-48.1194
 11
-2.89325
 21
-47.932
  0
LINE
  8
0
 10
-2.89325
 20
-47.932
 11
-3.29999
 21
-47.7158
  0
LINE
  8
0
 10
-3.29999
 20
-47.7158
 11
-3.69066
 21
-47.4716
  0
LINE
  8
0
 10
-3.69066
 20
-47.4716
 11
-4.06335
 21
-47.2009
  0
LINE
  8
0
 10
-4.06335
 20
-47.2009
 11
-4.41626
 21
-46.9048
  0
LINE
  8
0
 10
-4.41626
 20
-46.9048
 11
-4.74763
 21
-46.5847
  0
LINE
  8
0
 10
-4.74763
 20
-46.5847
 11
-5.05589
 21
-46.2424
  0
LINE
  8
0
 10
-5.05589
 20
-46.2424
 11
-5.33951
 21
-45.8794
  0
LINE
  8
0
 10
-5.33951
 20
-45.8794
 11
-5.59711
 21
-45.4975
  0
LINE
  8
0
 10
-5.59711
 20
-45.4975
 11
-5.82745
 21
-45.0985
  0
LINE
  8
0
 10
-5.82745
 20
-45.0985
 11
-6.02939
 21
-44.6845
  0
LINE
  8
0
 10
-6.02939
 20
-44.6845
 11
-6.20197
 21
-44.2573
  0
LINE
  8
0
 10
-6.20197
 20
-44.2573
 11
-6.34431
 21
-43.8192
  0
LINE
  8
0
 10
-6.34431
 20
-43.8192
 11
-6.45576
 21
-43.3722
  0
LINE
  8
0
 10
-6.45576
 20
-43.3722
 11
-6.53577
 21
-42.9185
  0
LINE
  8
0
 10
-6.53577
 20
-42.9185
 11
-6.58391
 21
-42.4604
  0
LINE
  8
0
 10
-6.58391
 20
-42.4604
 11
-6.59999
 21
-42
  0
LINE
  8
0
 10
-6.59999
 20
-42
 11
-6.58391
 21
-41.5396
  0
LINE
  8
0
 10
-6.58391
 20
-41.5396
 11
-6.53577
 21
-41.0815
  0
LINE
  8
0
 10
-6.53577
 20
-41.0815
 11
-6.45576
 21
-40.6278
  0
LINE
  8
0
 10
-6.45576
 20
-40.6278
 11
-6.34431
 21
-40.1808
  0
LINE
  8
0
 10
-6.34431
 20
-40.1808
 11
-6.20197
 21
-39.7427
  0
LINE
  8
0
 10
-6.20197
 20
-39.7427
 11
-6.02939
 21
-39.3155
  0
LINE
  8
0
 10
-6.02939
 20
-39.3155
 11
-5.82745
 21
-38.9015
  0
LINE
  8
0
 10
-5.82745
 20
-38.9015
 11
-5.59711
 21
-38.5025
  0
LINE
  8
0
 10
-5.59711
 20
-38.5025
 11
-5.33951
 21
-38.1206
  0
LINE
  8
0
 10
-5.33951
 20
-38.1206
 11
-5.05589
 21
-37.7576
  0
LINE
  8
0
 10
-5.05589
 20
-37.7576
 11
-4.74763
 21
-37.4153
  0
LINE
  8
0
 10
-4.74763
 20
-37.4153
 11
-4.41626
 21
-37.0952
  0
LINE
  8
0
 10
-4.41626
 20
-37.0952
 11
-4.06335
 21
-36.7991
  0
LINE
  8
0
 10
-4.06335
 20
-36.7991
 11
-3.69066
 21
-36.5284
  0
LINE
  8
0
 10
-3.69066
 20
-36.5284
 11
-3.29999
 21
-36.2842
  0
LINE
  8
0
 10
-3.29999
 20
-36.2842
 11
-2.89325
 21
-36.0679
  0
LINE
  8
0
 10
-2.89325
 20
-36.0679
 11
-2.4724
 21
-35.8806
  0
LINE
  8
0
 10
-2.4724
 20
-35.8806
 11
-2.03951
 21
-35.723
  0
LINE
  8
0
 10
-2.03951
 20
-35.723
 11
-1.59668
 21
-35.596
  0
LINE
  8
0
 10
-1.59668
 20
-35.596
 11
-1.14607
 21
-35.5003
  0
LINE
  8
0
 10
-1.14607
 20
-35.5003
 11
-0.68988
 21
-35.4362
  0
LINE
  8
0
 10
-0.68988
 20
-35.4362
 11
-0.230331
 21
-35.404
  0
LINE
  8
0
 10
-0.230331
 20
-35.404
 11
0.230331
 21
-35.404
  0
LINE
  8
0
 10
0.230331
 20
-35.404
 11
0.68988
 21
-35.4362
  0
LINE
  8
0
 10
0.68988
 20
-35.4362
 11
1.14607
 21
-35.5003
  0
LINE
  8
0
 10
1.14607
 20
-35.5003
 11
1.59668
 21
-35.596
  0
LINE
  8
0
 10
1.59668
 20
-35.596
 11
2.03951
 21
-35.723
  0
LINE
  8
0
 10
2.03951
 20
-35.723
 11
2.4724
 21
-35.8806
  0
LINE
  8
0
 10
2.4724
 20
-35.8806
 11
2.89325
 21
-36.0679
  0
LINE
  8
0
 10
2.89325
 20
-36.0679
 11
3.29999
 21
-36.2842
  0
LINE
  8
0
 10
3.29999
 20
-36.2842
 11
3.69066
 21
-36.5284
  0
LINE
  8
0
 10
3.69066
 20
-36.5284
 11
4.06335
 21
-36.7991
  0
LINE
  8
0
 10
4.06335
 20
-36.7991
 11
4.41626
 21
-37.0952
  0
LINE
  8
0
 10
4.41626
 20
-37.0952
 11
4.74763
 21
-37.4153
  0
LINE
  8
0
 10
4.74763
 20
-37.4153
 11
5.05589
 21
-37.7576
  0
LINE
  8
0
 10
5.05589
 20
-37.7576
 11
5.33951
 21
-38.1206
  0
LINE
  8
0
 10
5.33951
 20
-38.1206
 11
5.59711
 21
-38.5025
  0
LINE
  8
0
 10
5.59711
 20
-38.5025
 11
5.82745
 21
-38.9015
  0
LINE
  8
0
 10
5.82745
 20
-38.9015
 11
6.02939
 21
-39.3155
  0
LINE
  8
0
 10
6.02939
 20
-39.3155
 11
6.20197
 21
-39.7427
  0
LINE
  8
0
 10
6.20197
 20
-39.7427
 11
6.34431
 21
-40.1808
  0
LINE
  8
0
 10
6.34431
 20
-40.1808
 11
6.45576
 21
-40.6278
  0
LINE
  8
0
 10
6.45576
 20
-40.6278
 11
6.53577
 21
-41.0815
  0
LINE
  8
0
 10
6.53577
 20
-41.0815
 11
6.58391
 21
-41.5396
  0
LINE
  8
0
 10
6.58391
 20
-41.5396
 11
6.59999
 21
-42
  0
LINE
  8
0
 10
6.59999
 20
-42
 11
6.58391
 21
-42.4604
  0
LINE
  8
0
 10
6.58391
 20
-42.4604
 11
6.53577
 21
-42.9185
  0
LINE
  8
0
 10
6.53577
 20
-42.9185
 11
6.45576
 21
-43.3722
  0
LINE
  8
0
 10
6.45576
 20
-43.3722
 11
6.34431
 21
-43.8192
  0
LINE
  8
0
 10
6.34431
 20
-43.8192
 11
6.20197
 21
-44.2573
  0
LINE
  8
0
 10
6.20197
 20
-44.2573
 11
6.02939
 21
-44.6845
  0
LINE
  8
0
 10
6.02939
 20
-44.6845
 11
5.82745
 21
-45.0985
  0
LINE
  8
0
 10
5.82745
 20
-45.0985
 11
5.59711
 21
-45.4975
  0
LINE
  8
0
 10
5.59711
 20
-45.4975
 11
5.33951
 21
-45.8794
  0
LINE
  8
0
 10
5.33951
 20
-45.8794
 11
5.05589
 21
-46.2424
  0
LINE
  8
0
 10
5.05589
 20
-46.2424
 11
4.74763
 21
-46.5847
  0
LINE
  8
0
 10
4.74763
 20
-46.5847
 11
4.41626
 21
-46.9048
  0
LINE
  8
0
 10
4.41626
 20
-46.9048
 11
4.06335
 21
-47.2009
  0
LINE
  8
0
 10
4.06335
 20
-47.2009
 11
3.69066
 21
-47.4716
  0
LINE
  8
0
 10
3.69066
 20
-47.4716
 11
3.29999
 21
-47.7158
  0
LINE
  8
0
 10
3.29999
 20
-47.7158
 11
2.89325
 21
-47.932
  0
LINE
  8
0
 10
2.89325
 20
-47.932
 11
2.4724
 21
-48.1194
  0
LINE
  8
0
 10
2.4724
 20
-48.1194
 11
2.03951
 21
-48.277
  0
LINE
  8
0
 10
2.03951
 20
-48.277
 11
1.59668
 21
-48.4039
  0
LINE
  8
0
 10
1.59668
 20
-48.4039
 11
1.14607
 21
-48.4997
  0
LINE
  8
0
 10
1.14607
 20
-48.4997
 11
0.68988
 21
-48.5638
  0
LINE
  8
0
 10
0.68988
 20
-48.5638
 11
0.230331
 21
-48.596
  0
LINE
  8
0
 10
0.230331
 20
-48.596
 11
-0.230331
 21
-48.596
  0
LINE
  8
0
 10
7.70113
 20
-49.6491
 11
7.60365
 21
-49.6423
  0
LINE
  8
0
 10
7.60365
 20
-49.6423
 11
7.50688
 21
-49.6287
  0
LINE
  8
0
 10
7.50688
 20
-49.6287
 11
7.4113
 21
-49.6084
  0
LINE
  8
0
 10
7.4113
 20
-49.6084
 11
7.31737
 21
-49.5815
  0
LINE
  8
0
 10
7.31737
 20
-49.5815
 11
7.22554
 21
-49.548
  0
LINE
  8
0
 10
7.22554
 20
-49.548
 11
7.13628
 21
-49.5083
  0
LINE
  8
0
 10
7.13628
 20
-49.5083
 11
7.04999
 21
-49.4624
  0
LINE
  8
0
 10
7.04999
 20
-49.4624
 11
6.96712
 21
-49.4106
  0
LINE
  8
0
 10
6.96712
 20
-49.4106
 11
6.88806
 21
-49.3532
  0
LINE
  8
0
 10
6.88806
 20
-49.3532
 11
6.8132
 21
-49.2904
  0
LINE
  8
0
 10
6.8132
 20
-49.2904
 11
6.74292
 21
-49.2225
  0
LINE
  8
0
 10
6.74292
 20
-49.2225
 11
6.67754
 21
-49.1499
  0
LINE
  8
0
 10
6.67754
 20
-49.1499
 11
6.61737
 21
-49.0729
  0
LINE
  8
0
 10
6.61737
 20
-49.0729
 11
6.56273
 21
-48.9919
  0
LINE
  8
0
 10
6.56273
 20
-48.9919
 11
6.51387
 21
-48.9073
  0
LINE
  8
0
 10
6.51387
 20
-48.9073
 11
6.47102
 21
-48.8194
  0
LINE
  8
0
 10
6.47102
 20
-48.8194
 11
6.43442
 21
-48.7288
  0
LINE
  8
0
 10
6.43442
 20
-48.7288
 11
6.40422
 21
-48.6359
  0
LINE
  8
0
 10
6.40422
 20
-48.6359
 11
6.38058
 21
-48.5411
  0
LINE
  8
0
 10
6.38058
 20
-48.5411
 11
6.36362
 21
-48.4448
  0
LINE
  8
0
 10
6.36362
 20
-48.4448
 11
6.35341
 21
-48.3477
  0
LINE
  8
0
 10
6.35341
 20
-48.3477
 11
6.34999
 21
-48.25
  0
LINE
  8
0
 10
6.34999
 20
-48.25
 11
6.35341
 21
-48.1523
  0
LINE
  8
0
 10
6.35341
 20
-48.1523
 11
6.36362
 21
-48.0551
  0
LINE
  8
0
 10
6.36362
 20
-48.0551
 11
6.38058
 21
-47.9589
  0
LINE
  8
0
 10
6.38058
 20
-47.9589
 11
6.40422
 21
-47.8641
  0
LINE
  8
0
 10
6.40422
 20
-47.8641
 11
6.43442
 21
-47.7712
  0
LINE
  8
0
 10
6.43442
 20
-47.7712
 11
6.47102
 21
-47.6806
  0
LINE
  8
0
 10
6.47102
 20
-47.6806
 11
6.51387
 21
-47.5927
  0
LINE
  8
0
 10
6.51387
 20
-47.5927
 11
6.56273
 21
-47.5081
  0
LINE
  8
0
 10
6.56273
 20
-47.5081
 11
6.61737
 21
-47.4271
  0
LINE
  8
0
 10
6.61737
 20
-47.4271
 11
6.67754
 21
-47.3501
  0
LINE
  8
0
 10
6.67754
 20
-47.3501
 11
6.74292
 21
-47.2775
  0
LINE
  8
0
 10
6.74292
 20
-47.2775
 11
6.8132
 21
-47.2096
  0
LINE
  8
0
 10
6.8132
 20
-47.2096
 11
6.88806
 21
-47.1468
  0
LINE
  8
0
 10
6.88806
 20
-47.1468
 11
6.96712
 21
-47.0893
  0
LINE
  8
0
 10
6.96712
 20
-47.0893
 11
7.04999
 21
-47.0376
  0
LINE
  8
0
 10
7.04999
 20
-47.0376
 11
7.13628
 21
-46.9917
  0
LINE
  8
0
 10
7.13628
 20
-46.9917
 11
7.22554
 21
-46.9519
  0
LINE
  8
0
 10
7.22554
 20
-46.9519
 11
7.31737
 21
-46.9185
  0
LINE
  8
0
 10
7.31737
 20
-46.9185
 11
7.4113
 21
-46.8916
  0
LINE
  8
0
 10
7.4113
 20
-46.8916
 11
7.50688
 21
-46.8713
  0
LINE
  8
0
 10
7.50688
 20
-46.8713
 11
7.60365
 21
-46.8577
  0
LINE
  8
0
 10
7.60365
 20
-46.8577
 11
7.70113
 21
-46.8508
  0
LINE
  8
0
 10
7.70113
 20
-46.8508
 11
7.79886
 21
-46.8508
  0
LINE
  8
0
 10
7.79886
 20
-46.8508
 11
7.89633
 21
-46.8577
  0
LINE
  8
0
 10
7.89633
 20
-46.8577
 11
7.9931
 21
-46.8713
  0
LINE
  8
0
 10
7.9931
 20
-46.8713
 11
8.08868
 21
-46.8916
  0
LINE
  8
0
 10
8.08868
 20
-46.8916
 11
8.18262
 21
-46.9185
  0
LINE
  8
0
 10
8.18262
 20
-46.9185
 11
8.27444
 21
-46.9519
  0
LINE
  8
0
 10
8.27444
 20
-46.9519
 11
8.36371
 21
-46.9917
  0
LINE
  8
0
 10
8.36371
 20
-46.9917
 11
8.45
 21
-47.0376
  0
LINE
  8
0
 10
8.45
 20
-47.0376
 11
8.53287
 21
-47.0893
  0
LINE
  8
0
 10
8.53287
 20
-47.0893
 11
8.61192
 21
-47.1468
  0
LINE
  8
0
 10
8.61192
 20
-47.1468
 11
8.68678
 21
-47.2096
  0
LINE
  8
0
 10
8.68678
 20
-47.2096
 11
8.75706
 21
-47.2775
  0
LINE
  8
0
 10
8.75706
 20
-47.2775
 11
8.82245
 21
-47.3501
  0
LINE
  8
0
 10
8.82245
 20
-47.3501
 11
8.88261
 21
-47.4271
  0
LINE
  8
0
 10
8.88261
 20
-47.4271
 11
8.93726
 21
-47.5081
  0
LINE
  8
0
 10
8.93726
 20
-47.5081
 11
8.98611
 21
-47.5927
  0
LINE
  8
0
 10
8.98611
 20
-47.5927
 11
9.02896
 21
-47.6806
  0
LINE
  8
0
 10
9.02896
 20
-47.6806
 11
9.06557
 21
-47.7712
  0
LINE
  8
0
 10
9.06557
 20
-47.7712
 11
9.09576
 21
-47.8641
  0
LINE
  8
0
 10
9.09576
 20
-47.8641
 11
9.1194
 21
-47.9589
  0
LINE
  8
0
 10
9.1194
 20
-47.9589
 11
9.13637
 21
-48.0551
  0
LINE
  8
0
 10
9.13637
 20
-48.0551
 11
9.14658
 21
-48.1523
  0
LINE
  8
0
 10
9.14658
 20
-48.1523
 11
9.14999
 21
-48.25
  0
LINE
  8
0
 10
9.14999
 20
-48.25
 11
9.14658
 21
-48.3477
  0
LINE
  8
0
 10
9.14658
 20
-48.3477
 11
9.13637
 21
-48.4448
  0
LINE
  8
0
 10
9.13637
 20
-48.4448
 11
9.1194
 21
-48.5411
  0
LINE
  8
0
 10
9.1194
 20
-48.5411
 11
9.09576
 21
-48.6359
  0
LINE
  8
0
 10
9.09576
 20
-48.6359
 11
9.06557
 21
-48.7288
  0
LINE
  8
0
 10
9.06557
 20
-48.7288
 11
9.02896
 21
-48.8194
  0
LINE
  8
0
 10
9.02896
 20
-48.8194
 11
8.98611
 21
-48.9073
  0
LINE
  8
0
 10
8.98611
 20
-48.9073
 11
8.93726
 21
-48.9919
  0
LINE
  8
0
 10
8.93726
 20
-48.9919
 11
8.88261
 21
-49.0729
  0
LINE
  8
0
 10
8.88261
 20
-49.0729
 11
8.82245
 21
-49.1499
  0
LINE
  8
0
 10
8.82245
 20
-49.1499
 11
8.75706
 21
-49.2225
  0
LINE
  8
0
 10
8.75706
 20
-49.2225
 11
8.68678
 21
-49.2904
  0
LINE
  8
0
 10
8.68678
 20
-49.2904
 11
8.61192
 21
-49.3532
  0
LINE
  8
0
 10
8.61192
 20
-49.3532
 11
8.53287
 21
-49.4106
  0
LINE
  8
0
 10
8.53287
 20
-49.4106
 11
8.45
 21
-49.4624
  0
LINE
  8
0
 10
8.45
 20
-49.4624
 11
8.36371
 21
-49.5083
  0
LINE
  8
0
 10
8.36371
 20
-49.5083
 11
8.27444
 21
-49.548
  0
LINE
  8
0
 10
8.27444
 20
-49.548
 11
8.18262
 21
-49.5815
  0
LINE
  8
0
 10
8.18262
 20
-49.5815
 11
8.08868
 21
-49.6084
  0
LINE
  8
0
 10
8.08868
 20
-49.6084
 11
7.9931
 21
-49.6287
  0
LINE
  8
0
 10
7.9931
 20
-49.6287
 11
7.89633
 21
-49.6423
  0
LINE
  8
0
 10
7.89633
 20
-49.6423
 11
7.79886
 21
-49.6491
  0
LINE
  8
0
 10
7.79886
 20
-49.6491
 11
7.70113
 21
-49.6491
  0
LINE
  8
0
 10
-7.79886
 20
-49.6491
 11
-7.89633
 21
-49.6423
  0
LINE
  8
0
 10
-7.89633
 20
-49.6423
 11
-7.9931
 21
-49.6287
  0
LINE
  8
0
 10
-7.9931
 20
-49.6287
 11
-8.08868
 21
-49.6084
  0
LINE
  8
0
 10
-8.08868
 20
-49.6084
 11
-8.18262
 21
-49.5815
  0
LINE
  8
0
 10
-8.18262
 20
-49.5815
 11
-8.27444
 21
-49.548
  0
LINE
  8
0
 10
-8.27444
 20
-49.548
 11
-8.36371
 21
-49.5083
  0
LINE
  8
0
 10
-8.36371
 20
-49.5083
 11
-8.45
 21
-49.4624
  0
LINE
  8
0
 10
-8.45
 20
-49.4624
 11
-8.53287
 21
-49.4106
  0
LINE
  8
0
 10
-8.53287
 20
-49.4106
 11
-8.61192
 21
-49.3532
  0
LINE
  8
0
 10
-8.61192
 20
-49.3532
 11
-8.68678
 21
-49.2904
  0
LINE
  8
0
 10
-8.68678
 20
-49.2904
 11
-8.75706
 21
-49.2225
  0
LINE
  8
0
 10
-8.75706
 20
-49.2225
 11
-8.82245
 21
-49.1499
  0
LINE
  8
0
 10
-8.82245
 20
-49.1499
 11
-8.88261
 21
-49.0729
  0
LINE
  8
0
 10
-8.88261
 20
-49.0729
 11
-8.93726
 21
-48.9919
  0
LINE
  8
0
 10
-8.93726
 20
-48.9919
 11
-8.98611
 21
-48.9073
  0
LINE
  8
0
 10
-8.98611
 20
-48.9073
 11
-9.02896
 21
-48.8194
  0
LINE
  8
0
 10
-9.02896
 20
-48.8194
 11
-9.06557
 21
-48.7288
  0
LINE
  8
0
 10
-9.06557
 20
-48.7288
 11
-9.09576
 21
-48.6359
  0
LINE
  8
0
 10
-9.09576
 20
-48.6359
 11
-9.1194
 21
-48.5411
  0
LINE
  8
0
 10
-9.1194
 20
-48.5411
 11
-9.13637
 21
-48.4448
  0
LINE
  8
0
 10
-9.13637
 20
-48.4448
 11
-9.14658
 21
-48.3477
  0
LINE
  8
0
 10
-9.14658
 20
-48.3477
 11
-9.14999
 21
-48.25
  0
LINE
  8
0
 10
-9.14999
 20
-48.25
 11
-9.14658
 21
-48.1523
  0
LINE
  8
0
 10
-9.14658
 20
-48.1523
 11
-9.13637
 21
-48.0551
  0
LINE
  8
0
 10
-9.13637
 20
-48.0551
 11
-9.1194
 21
-47.9589
  0
LINE
  8
0
 10
-9.1194
 20
-47.9589
 11
-9.09576
 21
-47.8641
  0
LINE
  8
0
 10
-9.09576
 20
-47.8641
 11
-9.06557
 21
-47.7712
  0
LINE
  8
0
 10
-9.06557
 20
-47.7712
 11
-9.02896
 21
-47.6806
  0
LINE
  8
0
 10
-9.02896
 20
-47.6806
 11
-8.98611
 21
-47.5927
  0
LINE
  8
0
 10
-8.98611
 20
-47.5927
 11
-8.93726
 21
-47.5081
  0
LINE
  8
0
 10
-8.93726
 20
-47.5081
 11
-8.88261
 21
-47.4271
  0
LINE
  8
0
 10
-8.88261
 20
-47.4271
 11
-8.82245
 21
-47.3501
  0
LINE
  8
0
 10
-8.82245
 20
-47.3501
 11
-8.75706
 21
-47.2775
  0
LINE
  8
0
 10
-8.75706
 20
-47.2775
 11
-8.68678
 21
-47.2096
  0
LINE
  8
0
 10
-8.68678
 20
-47.2096
 11
-8.61192
 21
-47.1468
  0
LINE
  8
0
 10
-8.61192
 20
-47.1468
 11
-8.53287
 21
-47.0893
  0
LINE
  8
0
 10
-8.53287
 20
-47.0893
 11
-8.45
 21
-47.0376
  0
LINE
  8
0
 10
-8.45
 20
-47.0376
 11
-8.36371
 21
-46.9917
  0
LINE
  8
0
 10
-8.36371
 20
-46.9917
 11
-8.27444
 21
-46.9519
  0
LINE
  8
0
 10
-8.27444
 20
-46.9519
 11
-8.18262
 21
-46.9185
  0
LINE
  8
0
 10
-8.18262
 20
-46.9185
 11
-8.08868
 21
-46.8916
  0
LINE
  8
0
 10
-8.08868
 20
-46.8916
 11
-7.9931
 21
-46.8713
  0
LINE
  8
0
 10
-7.9931
 20
-46.8713
 11
-7.89633
 21
-46.8577
  0
LINE
  8
0
 10
-7.89633
 20
-46.8577
 11
-7.79886
 21
-46.8508
  0
LINE
  8
0
 10
-7.79886
 20
-46.8508
 11
-7.70113
 21
-46.8508
  0
LINE
  8
0
 10
-7.70113
 20
-46.8508
 11
-7.60365
 21
-46.8577
  0
LINE
  8
0
 10
-7.60365
 20
-46.8577
 11
-7.50688
 21
-46.8713
  0
LINE
  8
0
 10
-7.50688
 20
-46.8713
 11
-7.4113
 21
-46.8916
  0
LINE
  8
0
 10
-7.4113
 20
-46.8916
 11
-7.31737
 21
-46.9185
  0
LINE
  8
0
 10
-7.31737
 20
-46.9185
 11
-7.22554
 21
-46.9519
  0
LINE
  8
0
 10
-7.22554
 20
-46.9519
 11
-7.13628
 21
-46.9917
  0
LINE
  8
0
 10
-7.13628
 20
-46.9917
 11
-7.04999
 21
-47.0376
  0
LINE
  8
0
 10
-7.04999
 20
-47.0376
 11
-6.96712
 21
-47.0893
  0
LINE
  8
0
 10
-6.96712
 20
-47.0893
 11
-6.88806
 21
-47.1468
  0
LINE
  8
0
 10
-6.88806
 20
-47.1468
 11
-6.8132
 21
-47.2096
  0
LINE
  8
0
 10
-6.8132
 20
-47.2096
 11
-6.74292
 21
-47.2775
  0
LINE
  8
0
 10
-6.74292
 20
-47.2775
 11
-6.67754
 21
-47.3501
  0
LINE
  8
0
 10
-6.67754
 20
-47.3501
 11
-6.61737
 21
-47.4271
  0
LINE
  8
0
 10
-6.61737
 20
-47.4271
 11
-6.56273
 21
-47.5081
  0
LINE
  8
0
 10
-6.56273
 20
-47.5081
 11
-6.51387
 21
-47.5927
  0
LINE
  8
0
 10
-6.51387
 20
-47.5927
 11
-6.47102
 21
-47.6806
  0
LINE
  8
0
 10
-6.47102
 20
-47.6806
 11
-6.43442
 21
-47.7712
  0
LINE
  8
0
 10
-6.43442
 20
-47.7712
 11
-6.40422
 21
-47.8641
  0
LINE
  8
0
 10
-6.40422
 20
-47.8641
 11
-6.38058
 21
-47.9589
  0
LINE
  8
0
 10
-6.38058
 20
-47.9589
 11
-6.36362
 21
-48.0551
  0
LINE
  8
0
 10
-6.36362
 20
-48.0551
 11
-6.35341
 21
-48.1523
  0
LINE
  8
0
 10
-6.35341
 20
-48.1523
 11
-6.34999
 21
-48.25
  0
LINE
  8
0
 10
-6.34999
 20
-48.25
 11
-6.35341
 21
-48.3477
  0
LINE
  8
0
 10
-6.35341
 20
-48.3477
 11
-6.36362
 21
-48.4448
  0
LINE
  8
0
 10
-6.36362
 20
-48.4448
 11
-6.38058
 21
-48.5411
  0
LINE
  8
0
 10
-6.38058
 20
-48.5411
 11
-6.40422
 21
-48.6359
  0
LINE
  8
0
 10
-6.40422
 20
-48.6359
 11
-6.43442
 21
-48.7288
  0
LINE
  8
0
 10
-6.43442
 20
-48.7288
 11
-6.47102
 21
-48.8194
  0
LINE
  8
0
 10
-6.47102
 20
-48.8194
 11
-6.51387
 21
-48.9073
  0
LINE
  8
0
 10
-6.51387
 20
-48.9073
 11
-6.56273
 21
-48.9919
  0
LINE
  8
0
 10
-6.56273
 20
-48.9919
 11
-6.61737
 21
-49.0729
  0
LINE
  8
0
 10
-6.61737
 20
-49.0729
 11
-6.67754
 21
-49.1499
  0
LINE
  8
0
 10
-6.67754
 20
-49.1499
 11
-6.74292
 21
-49.2225
  0
LINE
  8
0
 10
-6.74292
 20
-49.2225
 11
-6.8132
 21
-49.2904
  0
LINE
  8
0
 10
-6.8132
 20
-49.2904
 11
-6.88806
 21
-49.3532
  0
LINE
  8
0
 10
-6.88806
 20
-49.3532
 11
-6.96712
 21
-49.4106
  0
LINE
  8
0
 10
-6.96712
 20
-49.4106
 11
-7.04999
 21
-49.4624
  0
LINE
  8
0
 10
-7.04999
 20
-49.4624
 11
-7.13628
 21
-49.5083
  0
LINE
  8
0
 10
-7.13628
 20
-49.5083
 11
-7.22554
 21
-49.548
  0
LINE
  8
0
 10
-7.22554
 20
-49.548
 11
-7.31737
 21
-49.5815
  0
LINE
  8
0
 10
-7.31737
 20
-49.5815
 11
-7.4113
 21
-49.6084
  0
LINE
  8
0
 10
-7.4113
 20
-49.6084
 11
-7.50688
 21
-49.6287
  0
LINE
  8
0
 10
-7.50688
 20
-49.6287
 11
-7.60365
 21
-49.6423
  0
LINE
  8
0
 10
-7.60365
 20
-49.6423
 11
-7.70113
 21
-49.6491
  0
LINE
  8
0
 10
-7.70113
 20
-49.6491
 11
-7.79886
 21
-49.6491
  0
LINE
  8
0
 10
-0.0872345
 20
-67.8985
 11
-0.261307
 21
-67.8863
  0
LINE
  8
0
 10
-0.261307
 20
-67.8863
 11
-0.434113
 21
-67.862
  0
LINE
  8
0
 10
-0.434113
 20
-67.862
 11
-0.604797
 21
-67.8257
  0
LINE
  8
0
 10
-0.604797
 20
-67.8257
 11
-0.772537
 21
-67.7776
  0
LINE
  8
0
 10
-0.772537
 20
-67.7776
 11
-0.936508
 21
-67.718
  0
LINE
  8
0
 10
-0.936508
 20
-67.718
 11
-1.09592
 21
-67.647
  0
LINE
  8
0
 10
-1.09592
 20
-67.647
 11
-1.25
 21
-67.5651
  0
LINE
  8
0
 10
-1.25
 20
-67.5651
 11
-1.39798
 21
-67.4726
  0
LINE
  8
0
 10
-1.39798
 20
-67.4726
 11
-1.53914
 21
-67.37
  0
LINE
  8
0
 10
-1.53914
 20
-67.37
 11
-1.67282
 21
-67.2579
  0
LINE
  8
0
 10
-1.67282
 20
-67.2579
 11
-1.79834
 21
-67.1366
  0
LINE
  8
0
 10
-1.79834
 20
-67.1366
 11
-1.9151
 21
-67.007
  0
LINE
  8
0
 10
-1.9151
 20
-67.007
 11
-2.02254
 21
-66.8695
  0
LINE
  8
0
 10
-2.02254
 20
-66.8695
 11
-2.12012
 21
-66.7248
  0
LINE
  8
0
 10
-2.12012
 20
-66.7248
 11
-2.20737
 21
-66.5737
  0
LINE
  8
0
 10
-2.20737
 20
-66.5737
 11
-2.28386
 21
-66.4168
  0
LINE
  8
0
 10
-2.28386
 20
-66.4168
 11
-2.34923
 21
-66.2551
  0
LINE
  8
0
 10
-2.34923
 20
-66.2551
 11
-2.40315
 21
-66.0891
  0
LINE
  8
0
 10
-2.40315
 20
-66.0891
 11
-2.44536
 21
-65.9198
  0
LINE
  8
0
 10
-2.44536
 20
-65.9198
 11
-2.47566
 21
-65.7479
  0
LINE
  8
0
 10
-2.47566
 20
-65.7479
 11
-2.4939
 21
-65.5744
  0
LINE
  8
0
 10
-2.4939
 20
-65.5744
 11
-2.5
 21
-65.4
  0
LINE
  8
0
 10
-2.5
 20
-65.4
 11
-2.4939
 21
-65.2256
  0
LINE
  8
0
 10
-2.4939
 20
-65.2256
 11
-2.47566
 21
-65.0521
  0
LINE
  8
0
 10
-2.47566
 20
-65.0521
 11
-2.44536
 21
-64.8802
  0
LINE
  8
0
 10
-2.44536
 20
-64.8802
 11
-2.40315
 21
-64.7109
  0
LINE
  8
0
 10
-2.40315
 20
-64.7109
 11
-2.34923
 21
-64.545
  0
LINE
  8
0
 10
-2.34923
 20
-64.545
 11
-2.28386
 21
-64.3831
  0
LINE
  8
0
 10
-2.28386
 20
-64.3831
 11
-2.20737
 21
-64.2263
  0
LINE
  8
0
 10
-2.20737
 20
-64.2263
 11
-2.12012
 21
-64.0752
  0
LINE
  8
0
 10
-2.12012
 20
-64.0752
 11
-2.02254
 21
-63.9305
  0
LINE
  8
0
 10
-2.02254
 20
-63.9305
 11
-1.9151
 21
-63.793
  0
LINE
  8
0
 10
-1.9151
 20
-63.793
 11
-1.79834
 21
-63.6633
  0
LINE
  8
0
 10
-1.79834
 20
-63.6633
 11
-1.67282
 21
-63.5421
  0
LINE
  8
0
 10
-1.67282
 20
-63.5421
 11
-1.53914
 21
-63.43
  0
LINE
  8
0
 10
-1.53914
 20
-63.43
 11
-1.39798
 21
-63.3274
  0
LINE
  8
0
 10
-1.39798
 20
-63.3274
 11
-1.24998
 21
-63.2349
  0
LINE
  8
0
 10
-1.24998
 20
-63.2349
 11
-1.09592
 21
-63.153
  0
LINE
  8
0
 10
-1.09592
 20
-63.153
 11
-0.936508
 21
-63.082
  0
LINE
  8
0
 10
-0.936508
 20
-63.082
 11
-0.772537
 21
-63.0224
  0
LINE
  8
0
 10
-0.772537
 20
-63.0224
 11
-0.604797
 21
-62.9743
  0
LINE
  8
0
 10
-0.604797
 20
-62.9743
 11
-0.434113
 21
-62.938
  0
LINE
  8
0
 10
-0.434113
 20
-62.938
 11
-0.261307
 21
-62.9137
  0
LINE
  8
0
 10
-0.261307
 20
-62.9137
 11
-0.0872345
 21
-62.9015
  0
LINE
  8
0
 10
-0.0872345
 20
-62.9015
 11
0.0872345
 21
-62.9015
  0
LINE
  8
0
 10
0.0872345
 20
-62.9015
 11
0.261307
 21
-62.9137
  0
LINE
  8
0
 10
0.261307
 20
-62.9137
 11
0.434113
 21
-62.938
  0
LINE
  8
0
 10
0.434113
 20
-62.938
 11
0.604797
 21
-62.9743
  0
LINE
  8
0
 10
0.604797
 20
-62.9743
 11
0.772537
 21
-63.0224
  0
LINE
  8
0
 10
0.772537
 20
-63.0224
 11
0.936508
 21
-63.082
  0
LINE
  8
0
 10
0.936508
 20
-63.082
 11
1.09592
 21
-63.153
  0
LINE
  8
0
 10
1.09592
 20
-63.153
 11
1.25
 21
-63.2349
  0
LINE
  8
0
 10
1.25
 20
-63.2349
 11
1.39798
 21
-63.3274
  0
LINE
  8
0
 10
1.39798
 20
-63.3274
 11
1.53914
 21
-63.43
  0
LINE
  8
0
 10
1.53914
 20
-63.43
 11
1.67282
 21
-63.5421
  0
LINE
  8
0
 10
1.67282
 20
-63.5421
 11
1.79834
 21
-63.6633
  0
LINE
  8
0
 10
1.79834
 20
-63.6633
 11
1.9151
 21
-63.793
  0
LINE
  8
0
 10
1.9151
 20
-63.793
 11
2.02254
 21
-63.9305
  0
LINE
  8
0
 10
2.02254
 20
-63.9305
 11
2.12012
 21
-64.0752
  0
LINE
  8
0
 10
2.12012
 20
-64.0752
 11
2.20737
 21
-64.2263
  0
LINE
  8
0
 10
2.20737
 20
-64.2263
 11
2.28386
 21
-64.3831
  0
LINE
  8
0
 10
2.28386
 20
-64.3831
 11
2.34923
 21
-64.545
  0
LINE
  8
0
 10
2.34923
 20
-64.545
 11
2.40315
 21
-64.7109
  0
LINE
  8
0
 10
2.40315
 20
-64.7109
 11
2.44536
 21
-64.8802
  0
LINE
  8
0
 10
2.44536
 20
-64.8802
 11
2.47566
 21
-65.0521
  0
LINE
  8
0
 10
2.47566
 20
-65.0521
 11
2.4939
 21
-65.2256
  0
LINE
  8
0
 10
2.4939
 20
-65.2256
 11
2.5
 21
-65.4
  0
LINE
  8
0
 10
2.5
 20
-65.4
 11
2.4939
 21
-65.5744
  0
LINE
  8
0
 10
2.4939
 20
-65.5744
 11
2.47566
 21
-65.7479
  0
LINE
  8
0
 10
2.47566
 20
-65.7479
 11
2.44536
 21
-65.9198
  0
LINE
  8
0
 10
2.44536
 20
-65.9198
 11
2.40315
 21
-66.0891
  0
LINE
  8
0
 10
2.40315
 20
-66.0891
 11
2.34923
 21
-66.2551
  0
LINE
  8
0
 10
2.34923
 20
-66.2551
 11
2.28386
 21
-66.4168
  0
LINE
  8
0
 10
2.28386
 20
-66.4168
 11
2.20737
 21
-66.5737
  0
LINE
  8
0
 10
2.20737
 20
-66.5737
 11
2.12012
 21
-66.7248
  0
LINE
  8
0
 10
2.12012
 20
-66.7248
 11
2.02254
 21
-66.8695
  0
LINE
  8
0
 10
2.02254
 20
-66.8695
 11
1.9151
 21
-67.007
  0
LINE
  8
0
 10
1.9151
 20
-67.007
 11
1.79834
 21
-67.1366
  0
LINE
  8
0
 10
1.79834
 20
-67.1366
 11
1.67282
 21
-67.2579
  0
LINE
  8
0
 10
1.67282
 20
-67.2579
 11
1.53914
 21
-67.37
  0
LINE
  8
0
 10
1.53914
 20
-67.37
 11
1.39798
 21
-67.4726
  0
LINE
  8
0
 10
1.39798
 20
-67.4726
 11
1.25
 21
-67.5651
  0
LINE
  8
0
 10
1.25
 20
-67.5651
 11
1.09592
 21
-67.647
  0
LINE
  8
0
 10
1.09592
 20
-67.647
 11
0.936508
 21
-67.718
  0
LINE
  8
0
 10
0.936508
 20
-67.718
 11
0.772537
 21
-67.7776
  0
LINE
  8
0
 10
0.772537
 20
-67.7776
 11
0.604797
 21
-67.8257
  0
LINE
  8
0
 10
0.604797
 20
-67.8257
 11
0.434113
 21
-67.862
  0
LINE
  8
0
 10
0.434113
 20
-67.862
 11
0.261307
 21
-67.8863
  0
LINE
  8
0
 10
0.261307
 20
-67.8863
 11
0.0872345
 21
-67.8985
  0
LINE
  8
0
 10
0.0872345
 20
-67.8985
 11
-0.0872345
 21
-67.8985
  0
LINE
  8
0
 10
62.3639
 20
-75.3376
 11
62.0923
 21
-75.3186
  0
LINE
  8
0
 10
62.0923
 20
-75.3186
 11
61.8228
 21
-75.2807
  0
LINE
  8
0
 10
61.8228
 20
-75.2807
 11
61.5565
 21
-75.2242
  0
LINE
  8
0
 10
61.5565
 20
-75.2242
 11
61.2948
 21
-75.1491
  0
LINE
  8
0
 10
61.2948
 20
-75.1491
 11
61.039
 21
-75.056
  0
LINE
  8
0
 10
61.039
 20
-75.056
 11
60.7903
 21
-74.9453
  0
LINE
  8
0
 10
60.7903
 20
-74.9453
 11
60.55
 21
-74.8175
  0
LINE
  8
0
 10
60.55
 20
-74.8175
 11
60.3191
 21
-74.6732
  0
LINE
  8
0
 10
60.3191
 20
-74.6732
 11
60.0989
 21
-74.5132
  0
LINE
  8
0
 10
60.0989
 20
-74.5132
 11
59.8904
 21
-74.3383
  0
LINE
  8
0
 10
59.8904
 20
-74.3383
 11
59.6946
 21
-74.1492
  0
LINE
  8
0
 10
59.6946
 20
-74.1492
 11
59.5124
 21
-73.9469
  0
LINE
  8
0
 10
59.5124
 20
-73.9469
 11
59.3448
 21
-73.7324
  0
LINE
  8
0
 10
59.3448
 20
-73.7324
 11
59.1926
 21
-73.5067
  0
LINE
  8
0
 10
59.1926
 20
-73.5067
 11
59.0565
 21
-73.2709
  0
LINE
  8
0
 10
59.0565
 20
-73.2709
 11
58.9372
 21
-73.0263
  0
LINE
  8
0
 10
58.9372
 20
-73.0263
 11
58.8352
 21
-72.7739
  0
LINE
  8
0
 10
58.8352
 20
-72.7739
 11
58.7511
 21
-72.515
  0
LINE
  8
0
 10
58.7511
 20
-72.515
 11
58.6852
 21
-72.2509
  0
LINE
  8
0
 10
58.6852
 20
-72.2509
 11
58.638
 21
-71.9828
  0
LINE
  8
0
 10
58.638
 20
-71.9828
 11
58.6095
 21
-71.7121
  0
LINE
  8
0
 10
58.6095
 20
-71.7121
 11
58.6
 21
-71.44
  0
LINE
  8
0
 10
58.6
 20
-71.44
 11
58.6095
 21
-71.168
  0
LINE
  8
0
 10
58.6095
 20
-71.168
 11
58.638
 21
-70.8972
  0
LINE
  8
0
 10
58.638
 20
-70.8972
 11
58.6852
 21
-70.6291
  0
LINE
  8
0
 10
58.6852
 20
-70.6291
 11
58.7511
 21
-70.365
  0
LINE
  8
0
 10
58.7511
 20
-70.365
 11
58.8352
 21
-70.1061
  0
LINE
  8
0
 10
58.8352
 20
-70.1061
 11
58.9372
 21
-69.8537
  0
LINE
  8
0
 10
58.9372
 20
-69.8537
 11
59.0565
 21
-69.6091
  0
LINE
  8
0
 10
59.0565
 20
-69.6091
 11
59.1926
 21
-69.3733
  0
LINE
  8
0
 10
59.1926
 20
-69.3733
 11
59.3448
 21
-69.1476
  0
LINE
  8
0
 10
59.3448
 20
-69.1476
 11
59.5124
 21
-68.9331
  0
LINE
  8
0
 10
59.5124
 20
-68.9331
 11
59.6946
 21
-68.7308
  0
LINE
  8
0
 10
59.6946
 20
-68.7308
 11
59.8904
 21
-68.5417
  0
LINE
  8
0
 10
59.8904
 20
-68.5417
 11
60.0989
 21
-68.3668
  0
LINE
  8
0
 10
60.0989
 20
-68.3668
 11
60.3191
 21
-68.2068
  0
LINE
  8
0
 10
60.3191
 20
-68.2068
 11
60.55
 21
-68.0625
  0
LINE
  8
0
 10
60.55
 20
-68.0625
 11
60.7903
 21
-67.9347
  0
LINE
  8
0
 10
60.7903
 20
-67.9347
 11
61.039
 21
-67.824
  0
LINE
  8
0
 10
61.039
 20
-67.824
 11
61.2948
 21
-67.7309
  0
LINE
  8
0
 10
61.2948
 20
-67.7309
 11
61.5565
 21
-67.6558
  0
LINE
  8
0
 10
61.5565
 20
-67.6558
 11
61.8228
 21
-67.5992
  0
LINE
  8
0
 10
61.8228
 20
-67.5992
 11
62.0923
 21
-67.5614
  0
LINE
  8
0
 10
62.0923
 20
-67.5614
 11
62.3639
 21
-67.5424
  0
LINE
  8
0
 10
62.3639
 20
-67.5424
 11
62.6361
 21
-67.5424
  0
LINE
  8
0
 10
62.6361
 20
-67.5424
 11
62.9077
 21
-67.5614
  0
LINE
  8
0
 10
62.9077
 20
-67.5614
 11
63.1772
 21
-67.5992
  0
LINE
  8
0
 10
63.1772
 20
-67.5992
 11
63.4435
 21
-67.6558
  0
LINE
  8
0
 10
63.4435
 20
-67.6558
 11
63.7052
 21
-67.7309
  0
LINE
  8
0
 10
63.7052
 20
-67.7309
 11
63.961
 21
-67.824
  0
LINE
  8
0
 10
63.961
 20
-67.824
 11
64.2096
 21
-67.9347
  0
LINE
  8
0
 10
64.2096
 20
-67.9347
 11
64.45
 21
-68.0625
  0
LINE
  8
0
 10
64.45
 20
-68.0625
 11
64.6808
 21
-68.2068
  0
LINE
  8
0
 10
64.6808
 20
-68.2068
 11
64.9011
 21
-68.3668
  0
LINE
  8
0
 10
64.9011
 20
-68.3668
 11
65.1096
 21
-68.5417
  0
LINE
  8
0
 10
65.1096
 20
-68.5417
 11
65.3054
 21
-68.7308
  0
LINE
  8
0
 10
65.3054
 20
-68.7308
 11
65.4876
 21
-68.9331
  0
LINE
  8
0
 10
65.4876
 20
-68.9331
 11
65.6552
 21
-69.1476
  0
LINE
  8
0
 10
65.6552
 20
-69.1476
 11
65.8074
 21
-69.3733
  0
LINE
  8
0
 10
65.8074
 20
-69.3733
 11
65.9435
 21
-69.6091
  0
LINE
  8
0
 10
65.9435
 20
-69.6091
 11
66.0628
 21
-69.8537
  0
LINE
  8
0
 10
66.0628
 20
-69.8537
 11
66.1648
 21
-70.1061
  0
LINE
  8
0
 10
66.1648
 20
-70.1061
 11
66.2489
 21
-70.365
  0
LINE
  8
0
 10
66.2489
 20
-70.365
 11
66.3148
 21
-70.6291
  0
LINE
  8
0
 10
66.3148
 20
-70.6291
 11
66.362
 21
-70.8972
  0
LINE
  8
0
 10
66.362
 20
-70.8972
 11
66.3905
 21
-71.168
  0
LINE
  8
0
 10
66.3905
 20
-71.168
 11
66.4
 21
-71.44
  0
LINE
  8
0
 10
66.4
 20
-71.44
 11
66.3905
 21
-71.7121
  0
LINE
  8
0
 10
66.3905
 20
-71.7121
 11
66.362
 21
-71.9828
  0
LINE
  8
0
 10
66.362
 20
-71.9828
 11
66.3148
 21
-72.2509
  0
LINE
  8
0
 10
66.3148
 20
-72.2509
 11
66.2489
 21
-72.515
  0
LINE
  8
0
 10
66.2489
 20
-72.515
 11
66.1648
 21
-72.7739
  0
LINE
  8
0
 10
66.1648
 20
-72.7739
 11
66.0628
 21
-73.0263
  0
LINE
  8
0
 10
66.0628
 20
-73.0263
 11
65.9435
 21
-73.2709
  0
LINE
  8
0
 10
65.9435
 20
-73.2709
 11
65.8074
 21
-73.5067
  0
LINE
  8
0
 10
65.8074
 20
-73.5067
 11
65.6552
 21
-73.7324
  0
LINE
  8
0
 10
65.6552
 20
-73.7324
 11
65.4876
 21
-73.9469
  0
LINE
  8
0
 10
65.4876
 20
-73.9469
 11
65.3054
 21
-74.1492
  0
LINE
  8
0
 10
65.3054
 20
-74.1492
 11
65.1096
 21
-74.3383
  0
LINE
  8
0
 10
65.1096
 20
-74.3383
 11
64.9011
 21
-74.5132
  0
LINE
  8
0
 10
64.9011
 20
-74.5132
 11
64.6808
 21
-74.6732
  0
LINE
  8
0
 10
64.6808
 20
-74.6732
 11
64.45
 21
-74.8175
  0
LINE
  8
0
 10
64.45
 20
-74.8175
 11
64.2096
 21
-74.9453
  0
LINE
  8
0
 10
64.2096
 20
-74.9453
 11
63.961
 21
-75.056
  0
LINE
  8
0
 10
63.961
 20
-75.056
 11
63.7052
 21
-75.1491
  0
LINE
  8
0
 10
63.7052
 20
-75.1491
 11
63.4435
 21
-75.2242
  0
LINE
  8
0
 10
63.4435
 20
-75.2242
 11
63.1772
 21
-75.2807
  0
LINE
  8
0
 10
63.1772
 20
-75.2807
 11
62.9077
 21
-75.3186
  0
LINE
  8
0
 10
62.9077
 20
-75.3186
 11
62.6361
 21
-75.3376
  0
LINE
  8
0
 10
62.6361
 20
-75.3376
 11
62.3639
 21
-75.3376
  0
LINE
  8
0
 10
-62.6361
 20
-75.3376
 11
-62.9077
 21
-75.3186
  0
LINE
  8
0
 10
-62.9077
 20
-75.3186
 11
-63.1772
 21
-75.2807
  0
LINE
  8
0
 10
-63.1772
 20
-75.2807
 11
-63.4435
 21
-75.2242
  0
LINE
  8
0
 10
-63.4435
 20
-75.2242
 11
-63.7052
 21
-75.1491
  0
LINE
  8
0
 10
-63.7052
 20
-75.1491
 11
-63.961
 21
-75.056
  0
LINE
  8
0
 10
-63.961
 20
-75.056
 11
-64.2096
 21
-74.9453
  0
LINE
  8
0
 10
-64.2096
 20
-74.9453
 11
-64.45
 21
-74.8175
  0
LINE
  8
0
 10
-64.45
 20
-74.8175
 11
-64.6808
 21
-74.6732
  0
LINE
  8
0
 10
-64.6808
 20
-74.6732
 11
-64.9011
 21
-74.5132
  0
LINE
  8
0
 10
-64.9011
 20
-74.5132
 11
-65.1096
 21
-74.3383
  0
LINE
  8
0
 10
-65.1096
 20
-74.3383
 11
-65.3054
 21
-74.1492
  0
LINE
  8
0
 10
-65.3054
 20
-74.1492
 11
-65.4876
 21
-73.9469
  0
LINE
  8
0
 10
-65.4876
 20
-73.9469
 11
-65.6552
 21
-73.7324
  0
LINE
  8
0
 10
-65.6552
 20
-73.7324
 11
-65.8074
 21
-73.5067
  0
LINE
  8
0
 10
-65.8074
 20
-73.5067
 11
-65.9435
 21
-73.2709
  0
LINE
  8
0
 10
-65.9435
 20
-73.2709
 11
-66.0628
 21
-73.0263
  0
LINE
  8
0
 10
-66.0628
 20
-73.0263
 11
-66.1648
 21
-72.7739
  0
LINE
  8
0
 10
-66.1648
 20
-72.7739
 11
-66.2489
 21
-72.515
  0
LINE
  8
0
 10
-66.2489
 20
-72.515
 11
-66.3148
 21
-72.2509
  0
LINE
  8
0
 10
-66.3148
 20
-72.2509
 11
-66.362
 21
-71.9828
  0
LINE
  8
0
 10
-66.362
 20
-71.9828
 11
-66.3905
 21
-71.7121
  0
LINE
  8
0
 10
-66.3905
 20
-71.7121
 11
-66.4
 21
-71.44
  0
LINE
  8
0
 10
-66.4
 20
-71.44
 11
-66.3905
 21
-71.168
  0
LINE
  8
0
 10
-66.3905
 20
-71.168
 11
-66.362
 21
-70.8972
  0
LINE
  8
0
 10
-66.362
 20
-70.8972
 11
-66.3148
 21
-70.6291
  0
LINE
  8
0
 10
-66.3148
 20
-70.6291
 11
-66.2489
 21
-70.365
  0
LINE
  8
0
 10
-66.2489
 20
-70.365
 11
-66.1648
 21
-70.1061
  0
LINE
  8
0
 10
-66.1648
 20
-70.1061
 11
-66.0628
 21
-69.8537
  0
LINE
  8
0
 10
-66.0628
 20
-69.8537
 11
-65.9435
 21
-69.6091
  0
LINE
  8
0
 10
-65.9435
 20
-69.6091
 11
-65.8074
 21
-69.3733
  0
LINE
  8
0
 10
-65.8074
 20
-69.3733
 11
-65.6552
 21
-69.1476
  0
LINE
  8
0
 10
-65.6552
 20
-69.1476
 11
-65.4876
 21
-68.9331
  0
LINE
  8
0
 10
-65.4876
 20
-68.9331
 11
-65.3054
 21
-68.7308
  0
LINE
  8
0
 10
-65.3054
 20
-68.7308
 11
-65.1096
 21
-68.5417
  0
LINE
  8
0
 10
-65.1096
 20
-68.5417
 11
-64.9011
 21
-68.3668
  0
LINE
  8
0
 10
-64.9011
 20
-68.3668
 11
-64.6808
 21
-68.2068
  0
LINE
  8
0
 10
-64.6808
 20
-68.2068
 11
-64.45
 21
-68.0625
  0
LINE
  8
0
 10
-64.45
 20
-68.0625
 11
-64.2096
 21
-67.9347
  0
LINE
  8
0
 10
-64.2096
 20
-67.9347
 11
-63.961
 21
-67.824
  0
LINE
  8
0
 10
-63.961
 20
-67.824
 11
-63.7052
 21
-67.7309
  0
LINE
  8
0
 10
-63.7052
 20
-67.7309
 11
-63.4435
 21
-67.6558
  0
LINE
  8
0
 10
-63.4435
 20
-67.6558
 11
-63.1772
 21
-67.5992
  0
LINE
  8
0
 10
-63.1772
 20
-67.5992
 11
-62.9077
 21
-67.5614
  0
LINE
  8
0
 10
-62.9077
 20
-67.5614
 11
-62.6361
 21
-67.5424
  0
LINE
  8
0
 10
-62.6361
 20
-67.5424
 11
-62.3639
 21
-67.5424
  0
LINE
  8
0
 10
-62.3639
 20
-67.5424
 11
-62.0923
 21
-67.5614
  0
LINE
  8
0
 10
-62.0923
 20
-67.5614
 11
-61.8228
 21
-67.5992
  0
LINE
  8
0
 10
-61.8228
 20
-67.5992
 11
-61.5565
 21
-67.6558
  0
LINE
  8
0
 10
-61.5565
 20
-67.6558
 11
-61.2948
 21
-67.7309
  0
LINE
  8
0
 10
-61.2948
 20
-67.7309
 11
-61.039
 21
-67.824
  0
LINE
  8
0
 10
-61.039
 20
-67.824
 11
-60.7903
 21
-67.9347
  0
LINE
  8
0
 10
-60.7903
 20
-67.9347
 11
-60.55
 21
-68.0625
  0
LINE
  8
0
 10
-60.55
 20
-68.0625
 11
-60.3191
 21
-68.2068
  0
LINE
  8
0
 10
-60.3191
 20
-68.2068
 11
-60.0989
 21
-68.3668
  0
LINE
  8
0
 10
-60.0989
 20
-68.3668
 11
-59.8904
 21
-68.5417
  0
LINE
  8
0
 10
-59.8904
 20
-68.5417
 11
-59.6946
 21
-68.7308
  0
LINE
  8
0
 10
-59.6946
 20
-68.7308
 11
-59.5124
 21
-68.9331
  0
LINE
  8
0
 10
-59.5124
 20
-68.9331
 11
-59.3448
 21
-69.1476
  0
LINE
  8
0
 10
-59.3448
 20
-69.1476
 11
-59.1926
 21
-69.3733
  0
LINE
  8
0
 10
-59.1926
 20
-69.3733
 11
-59.0565
 21
-69.6091
  0
LINE
  8
0
 10
-59.0565
 20
-69.6091
 11
-58.9372
 21
-69.8537
  0
LINE
  8
0
 10
-58.9372
 20
-69.8537
 11
-58.8352
 21
-70.1061
  0
LINE
  8
0
 10
-58.8352
 20
-70.1061
 11
-58.7511
 21
-70.365
  0
LINE
  8
0
 10
-58.7511
 20
-70.365
 11
-58.6852
 21
-70.6291
  0
LINE
  8
0
 10
-58.6852
 20
-70.6291
 11
-58.638
 21
-70.8972
  0
LINE
  8
0
 10
-58.638
 20
-70.8972
 11
-58.6095
 21
-71.168
  0
LINE
  8
0
 10
-58.6095
 20
-71.168
 11
-58.6
 21
-71.44
  0
LINE
  8
0
 10
-58.6
 20
-71.44
 11
-58.6095
 21
-71.7121
  0
LINE
  8
0
 10
-58.6095
 20
-71.7121
 11
-58.638
 21
-71.9828
  0
LINE
  8
0
 10
-58.638
 20
-71.9828
 11
-58.6852
 21
-72.2509
  0
LINE
  8
0
 10
-58.6852
 20
-72.2509
 11
-58.7511
 21
-72.515
  0
LINE
  8
0
 10
-58.7511
 20
-72.515
 11
-58.8352
 21
-72.7739
  0
LINE
  8
0
 10
-58.8352
 20
-72.7739
 11
-58.9372
 21
-73.0263
  0
LINE
  8
0
 10
-58.9372
 20
-73.0263
 11
-59.0565
 21
-73.2709
  0
LINE
  8
0
 10
-59.0565
 20
-73.2709
 11
-59.1926
 21
-73.5067
  0
LINE
  8
0
 10
-59.1926
 20
-73.5067
 11
-59.3448
 21
-73.7324
  0
LINE
  8
0
 10
-59.3448
 20
-73.7324
 11
-59.5124
 21
-73.9469
  0
LINE
  8
0
 10
-59.5124
 20
-73.9469
 11
-59.6946
 21
-74.1492
  0
LINE
  8
0
 10
-59.6946
 20
-74.1492
 11
-59.8904
 21
-74.3383
  0
LINE
  8
0
 10
-59.8904
 20
-74.3383
 11
-60.0989
 21
-74.5132
  0
LINE
  8
0
 10
-60.0989
 20
-74.5132
 11
-60.3191
 21
-74.6732
  0
LINE
  8
0
 10
-60.3191
 20
-74.6732
 11
-60.55
 21
-74.8175
  0
LINE
  8
0
 10
-60.55
 20
-74.8175
 11
-60.7903
 21
-74.9453
  0
LINE
  8
0
 10
-60.7903
 20
-74.9453
 11
-61.039
 21
-75.056
  0
LINE
  8
0
 10
-61.039
 20
-75.056
 11
-61.2948
 21
-75.1491
  0
LINE
  8
0
 10
-61.2948
 20
-75.1491
 11
-61.5565
 21
-75.2242
  0
LINE
  8
0
 10
-61.5565
 20
-75.2242
 11
-61.8228
 21
-75.2807
  0
LINE
  8
0
 10
-61.8228
 20
-75.2807
 11
-62.0923
 21
-75.3186
  0
LINE
  8
0
 10
-62.0923
 20
-75.3186
 11
-62.3639
 21
-75.3376
  0
LINE
  8
0
 10
-62.3639
 20
-75.3376
 11
-62.6361
 21
-75.3376
  0
ENDSEC
  0
SECTION
  2
OBJECTS
  0
DICTIONARY
  0
ENDSEC
  0
EOF
