  0
SECTION
  2
BLOCKS
  0
ENDSEC
  0
SECTION
  2
ENTITIES
  0
LINE
  8
0
 10
-68.5
 20
82.9
 11
-68.4341
 21
79.1274
  0
LINE
  8
0
 10
-68.4341
 20
79.1274
 11
-68.2367
 21
75.3593
  0
LINE
  8
0
 10
-68.2367
 20
75.3593
 11
-67.9078
 21
71.6005
  0
LINE
  8
0
 10
-67.9078
 20
71.6005
 11
-67.448
 21
67.8554
  0
LINE
  8
0
 10
-67.448
 20
67.8554
 11
-66.8577
 21
64.1286
  0
LINE
  8
0
 10
-66.8577
 20
64.1286
 11
-66.1378
 21
60.4247
  0
LINE
  8
0
 10
-66.1378
 20
60.4247
 11
-65.289
 21
56.7482
  0
LINE
  8
0
 10
-65.289
 20
56.7482
 11
-64.3124
 21
53.1036
  0
LINE
  8
0
 10
-64.3124
 20
53.1036
 11
-63.2092
 21
49.4953
  0
LINE
  8
0
 10
-63.2092
 20
49.4953
 11
-61.9808
 21
45.9276
  0
LINE
  8
0
 10
-61.9808
 20
45.9276
 11
-60.6286
 21
42.405
  0
LINE
  8
0
 10
-60.6286
 20
42.405
 11
-59.1543
 21
38.9318
  0
LINE
  8
0
 10
-59.1543
 20
38.9318
 11
-57.5596
 21
35.5121
  0
LINE
  8
0
 10
-57.5596
 20
35.5121
 11
-55.8466
 21
32.1501
  0
LINE
  8
0
 10
-55.8466
 20
32.1501
 11
-54.0173
 21
28.85
  0
LINE
  8
0
 10
-54.0173
 20
28.85
 11
-52.074
 21
25.6157
  0
LINE
  8
0
 10
-52.074
 20
25.6157
 11
-50.1351
 21
22.6301
  0
LINE
  8
0
 10
-50.1351
 20
22.6301
 11
4.1
 21
-75.6
  0
LINE
  8
0
 10
4.1
 20
-75.6
 11
17.6
 21
-75.6
  0
LINE
  8
0
 10
17.6
 20
-75.6
 11
17.6
 21
-70.6414
  0
LINE
  8
0
 10
17.6
 20
-70.6414
 11
16.8815
 21
-70.6414
  0
LINE
  8
0
 10
16.8815
 20
-70.6414
 11
14.6935
 21
-70.1763
  0
LINE
  8
0
 10
14.6935
 20
-70.1763
 11
12.65
 21
-69.2665
  0
LINE
  8
0
 10
12.65
 20
-69.2665
 11
10.8403
 21
-67.9516
  0
LINE
  8
0
 10
10.8403
 20
-67.9516
 11
9.34352
 21
-66.2893
  0
LINE
  8
0
 10
9.34352
 20
-66.2893
 11
8.22506
 21
-64.3521
  0
LINE
  8
0
 10
8.22506
 20
-64.3521
 11
7.53382
 21
-62.2247
  0
LINE
  8
0
 10
7.53382
 20
-62.2247
 11
7.53382
 21
-62.2247
  0
LINE
  8
0
 10
7.53382
 20
-62.2247
 11
7.3
 21
-60
  0
LINE
  8
0
 10
7.3
 20
-60
 11
7.3
 21
-60
  0
LINE
  8
0
 10
7.3
 20
-60
 11
7.3
 21
-60
  0
LINE
  8
0
 10
7.3
 20
-60
 11
7.53382
 21
-57.7753
  0
LINE
  8
0
 10
7.53382
 20
-57.7753
 11
7.58773
 21
-57.6094
  0
LINE
  8
0
 10
7.58773
 20
-57.6094
 11
7.59502
 21
-57.5471
  0
LINE
  8
0
 10
7.59502
 20
-57.5471
 11
7.64702
 21
-57.3932
  0
LINE
  8
0
 10
7.64702
 20
-57.3932
 11
7.65704
 21
-57.3153
  0
LINE
  8
0
 10
7.65704
 20
-57.3153
 11
7.70674
 21
-57.1736
  0
LINE
  8
0
 10
7.70674
 20
-57.1736
 11
7.7199
 21
-57.0799
  0
LINE
  8
0
 10
7.7199
 20
-57.0799
 11
7.7669
 21
-56.9508
  0
LINE
  8
0
 10
7.7669
 20
-56.9508
 11
7.78362
 21
-56.8411
  0
LINE
  8
0
 10
7.78362
 20
-56.8411
 11
7.82752
 21
-56.7247
  0
LINE
  8
0
 10
7.82752
 20
-56.7247
 11
7.84822
 21
-56.5988
  0
LINE
  8
0
 10
7.84822
 20
-56.5988
 11
7.87333
 21
-56.5345
  0
LINE
  8
0
 10
7.87333
 20
-56.5345
 11
7.87984
 21
-56.4227
  0
LINE
  8
0
 10
7.87984
 20
-56.4227
 11
7.91919
 21
-56.2792
  0
LINE
  8
0
 10
7.91919
 20
-56.2792
 11
7.92894
 21
-56.1399
  0
LINE
  8
0
 10
7.92894
 20
-56.1399
 11
7.96646
 21
-56.009
  0
LINE
  8
0
 10
7.96646
 20
-56.009
 11
7.97915
 21
-55.8535
  0
LINE
  8
0
 10
7.97915
 20
-55.8535
 11
8.01445
 21
-55.7356
  0
LINE
  8
0
 10
8.01445
 20
-55.7356
 11
8.0305
 21
-55.5637
  0
LINE
  8
0
 10
8.0305
 20
-55.5637
 11
8.06318
 21
-55.459
  0
LINE
  8
0
 10
8.06318
 20
-55.459
 11
8.07148
 21
-55.3801
  0
LINE
  8
0
 10
8.07148
 20
-55.3801
 11
8.0701
 21
-55.321
  0
LINE
  8
0
 10
8.0701
 20
-55.321
 11
8.10827
 21
-55.1184
  0
LINE
  8
0
 10
8.10827
 20
-55.1184
 11
8.10685
 21
-54.9961
  0
LINE
  8
0
 10
8.10685
 20
-54.9961
 11
8.14495
 21
-54.806
  0
LINE
  8
0
 10
8.14495
 20
-54.806
 11
8.14495
 21
-54.6677
  0
LINE
  8
0
 10
8.14495
 20
-54.6677
 11
8.18262
 21
-54.4904
  0
LINE
  8
0
 10
8.18262
 20
-54.4904
 11
8.18442
 21
-54.3357
  0
LINE
  8
0
 10
8.18442
 20
-54.3357
 11
8.22129
 21
-54.1717
  0
LINE
  8
0
 10
8.22129
 20
-54.1717
 11
8.22527
 21
-54.0004
  0
LINE
  8
0
 10
8.22527
 20
-54.0004
 11
8.26096
 21
-53.8498
  0
LINE
  8
0
 10
8.26096
 20
-53.8498
 11
8.26753
 21
-53.6616
  0
LINE
  8
0
 10
8.26753
 20
-53.6616
 11
8.30165
 21
-53.5247
  0
LINE
  8
0
 10
8.30165
 20
-53.5247
 11
8.31121
 21
-53.3194
  0
LINE
  8
0
 10
8.31121
 20
-53.3194
 11
8.34336
 21
-53.1966
  0
LINE
  8
0
 10
8.34336
 20
-53.1966
 11
8.35633
 21
-52.9739
  0
LINE
  8
0
 10
8.35633
 20
-52.9739
 11
8.38611
 21
-52.8653
  0
LINE
  8
0
 10
8.38611
 20
-52.8653
 11
8.40291
 21
-52.6251
  0
LINE
  8
0
 10
8.40291
 20
-52.6251
 11
8.41695
 21
-52.5761
  0
LINE
  8
0
 10
8.41695
 20
-52.5761
 11
8.43903
 21
-52.419
  0
LINE
  8
0
 10
8.43903
 20
-52.419
 11
8.43992
 21
-52.4081
  0
LINE
  8
0
 10
8.43992
 20
-52.4081
 11
8.43388
 21
-52.3044
  0
LINE
  8
0
 10
8.43388
 20
-52.3044
 11
8.47269
 21
-52.0497
  0
LINE
  8
0
 10
8.47269
 20
-52.0497
 11
8.46693
 21
-51.9261
  0
LINE
  8
0
 10
8.46693
 20
-51.9261
 11
8.50653
 21
-51.6851
  0
LINE
  8
0
 10
8.50653
 20
-51.6851
 11
8.50162
 21
-51.5445
  0
LINE
  8
0
 10
8.50162
 20
-51.5445
 11
8.54164
 21
-51.3175
  0
LINE
  8
0
 10
8.54164
 20
-51.3175
 11
8.53796
 21
-51.1596
  0
LINE
  8
0
 10
8.53796
 20
-51.1596
 11
8.57802
 21
-50.9469
  0
LINE
  8
0
 10
8.57802
 20
-50.9469
 11
8.57598
 21
-50.7715
  0
LINE
  8
0
 10
8.57598
 20
-50.7715
 11
8.61568
 21
-50.5734
  0
LINE
  8
0
 10
8.61568
 20
-50.5734
 11
8.61568
 21
-50.3801
  0
LINE
  8
0
 10
8.61568
 20
-50.3801
 11
8.65463
 21
-50.1969
  0
LINE
  8
0
 10
8.65463
 20
-50.1969
 11
8.65709
 21
-49.9856
  0
LINE
  8
0
 10
8.65709
 20
-49.9856
 11
8.69487
 21
-49.8175
  0
LINE
  8
0
 10
8.69487
 20
-49.8175
 11
8.70021
 21
-49.588
  0
LINE
  8
0
 10
8.70021
 20
-49.588
 11
8.7364
 21
-49.4353
  0
LINE
  8
0
 10
8.7364
 20
-49.4353
 11
8.74507
 21
-49.1872
  0
LINE
  8
0
 10
8.74507
 20
-49.1872
 11
8.77925
 21
-49.0501
  0
LINE
  8
0
 10
8.77925
 20
-49.0501
 11
8.79167
 21
-48.7834
  0
LINE
  8
0
 10
8.79167
 20
-48.7834
 11
8.8234
 21
-48.6622
  0
LINE
  8
0
 10
8.8234
 20
-48.6622
 11
8.84004
 21
-48.3766
  0
LINE
  8
0
 10
8.84004
 20
-48.3766
 11
8.86888
 21
-48.2714
  0
LINE
  8
0
 10
8.86888
 20
-48.2714
 11
8.89018
 21
-47.9667
  0
LINE
  8
0
 10
8.89018
 20
-47.9667
 11
8.90569
 21
-47.9127
  0
LINE
  8
0
 10
8.90569
 20
-47.9127
 11
8.92489
 21
-47.7635
  0
LINE
  8
0
 10
8.92489
 20
-47.7635
 11
8.91781
 21
-47.6623
  0
LINE
  8
0
 10
8.91781
 20
-47.6623
 11
8.96196
 21
-47.3482
  0
LINE
  8
0
 10
8.96196
 20
-47.3482
 11
8.95501
 21
-47.2289
  0
LINE
  8
0
 10
8.95501
 20
-47.2289
 11
9.00055
 21
-46.9301
  0
LINE
  8
0
 10
9.00055
 20
-46.9301
 11
8.99414
 21
-46.7925
  0
LINE
  8
0
 10
8.99414
 20
-46.7925
 11
9.04066
 21
-46.5094
  0
LINE
  8
0
 10
9.04066
 20
-46.5094
 11
9.0352
 21
-46.3531
  0
LINE
  8
0
 10
9.0352
 20
-46.3531
 11
9.0823
 21
-46.086
  0
LINE
  8
0
 10
9.0823
 20
-46.086
 11
9.07822
 21
-45.9109
  0
LINE
  8
0
 10
9.07822
 20
-45.9109
 11
9.12546
 21
-45.6601
  0
LINE
  8
0
 10
9.12546
 20
-45.6601
 11
9.1232
 21
-45.4658
  0
LINE
  8
0
 10
9.1232
 20
-45.4658
 11
9.17017
 21
-45.2315
  0
LINE
  8
0
 10
9.17017
 20
-45.2315
 11
9.17017
 21
-45.0179
  0
LINE
  8
0
 10
9.17017
 20
-45.0179
 11
9.21641
 21
-44.8003
  0
LINE
  8
0
 10
9.21641
 20
-44.8003
 11
9.21912
 21
-44.5672
  0
LINE
  8
0
 10
9.21912
 20
-44.5672
 11
9.2642
 21
-44.3667
  0
LINE
  8
0
 10
9.2642
 20
-44.3667
 11
9.27009
 21
-44.1138
  0
LINE
  8
0
 10
9.27009
 20
-44.1138
 11
9.31354
 21
-43.9305
  0
LINE
  8
0
 10
9.31354
 20
-43.9305
 11
9.32307
 21
-43.6578
  0
LINE
  8
0
 10
9.32307
 20
-43.6578
 11
9.36
 21
-43.5096
  0
LINE
  8
0
 10
9.36
 20
-43.5096
 11
9.36
 21
-42
  0
LINE
  8
0
 10
9.36
 20
-42
 11
9.36
 21
-41.6773
  0
LINE
  8
0
 10
9.36
 20
-41.6773
 11
9.30927
 21
-41.6439
  0
LINE
  8
0
 10
9.30927
 20
-41.6439
 11
9.05231
 21
-41.384
  0
LINE
  8
0
 10
9.05231
 20
-41.384
 11
8.88132
 21
-41.2657
  0
LINE
  8
0
 10
8.88132
 20
-41.2657
 11
8.63261
 21
-41.0021
  0
LINE
  8
0
 10
8.63261
 20
-41.0021
 11
8.46567
 21
-40.8808
  0
LINE
  8
0
 10
8.46567
 20
-40.8808
 11
8.22495
 21
-40.6135
  0
LINE
  8
0
 10
8.22495
 20
-40.6135
 11
8.06245
 21
-40.4895
  0
LINE
  8
0
 10
8.06245
 20
-40.4895
 11
7.82948
 21
-40.2184
  0
LINE
  8
0
 10
7.82948
 20
-40.2184
 11
7.6718
 21
-40.0922
  0
LINE
  8
0
 10
7.6718
 20
-40.0922
 11
7.44635
 21
-39.8171
  0
LINE
  8
0
 10
7.44635
 20
-39.8171
 11
7.29382
 21
-39.6891
  0
LINE
  8
0
 10
7.29382
 20
-39.6891
 11
7.07568
 21
-39.4099
  0
LINE
  8
0
 10
7.07568
 20
-39.4099
 11
6.92865
 21
-39.2805
  0
LINE
  8
0
 10
6.92865
 20
-39.2805
 11
6.71762
 21
-38.9971
  0
LINE
  8
0
 10
6.71762
 20
-38.9971
 11
6.57636
 21
-38.8669
  0
LINE
  8
0
 10
6.57636
 20
-38.8669
 11
6.37228
 21
-38.579
  0
LINE
  8
0
 10
6.37228
 20
-38.579
 11
6.23708
 21
-38.4484
  0
LINE
  8
0
 10
6.23708
 20
-38.4484
 11
6.03977
 21
-38.1559
  0
LINE
  8
0
 10
6.03977
 20
-38.1559
 11
5.91087
 21
-38.0255
  0
LINE
  8
0
 10
5.91087
 20
-38.0255
 11
5.72023
 21
-37.7282
  0
LINE
  8
0
 10
5.72023
 20
-37.7282
 11
5.59783
 21
-37.5984
  0
LINE
  8
0
 10
5.59783
 20
-37.5984
 11
5.41373
 21
-37.296
  0
LINE
  8
0
 10
5.41373
 20
-37.296
 11
5.29803
 21
-37.1675
  0
LINE
  8
0
 10
5.29803
 20
-37.1675
 11
5.12039
 21
-36.8599
  0
LINE
  8
0
 10
5.12039
 20
-36.8599
 11
5.01153
 21
-36.7332
  0
LINE
  8
0
 10
5.01153
 20
-36.7332
 11
4.84028
 21
-36.4199
  0
LINE
  8
0
 10
4.84028
 20
-36.4199
 11
4.73839
 21
-36.2956
  0
LINE
  8
0
 10
4.73839
 20
-36.2956
 11
4.5735
 21
-35.9766
  0
LINE
  8
0
 10
4.5735
 20
-35.9766
 11
4.47866
 21
-35.8552
  0
LINE
  8
0
 10
4.47866
 20
-35.8552
 11
4.32012
 21
-35.5301
  0
LINE
  8
0
 10
4.32012
 20
-35.5301
 11
4.23239
 21
-35.4123
  0
LINE
  8
0
 10
4.23239
 20
-35.4123
 11
4.0802
 21
-35.0809
  0
LINE
  8
0
 10
4.0802
 20
-35.0809
 11
3.9996
 21
-34.9672
  0
LINE
  8
0
 10
3.9996
 20
-34.9672
 11
3.85381
 21
-34.6292
  0
LINE
  8
0
 10
3.85381
 20
-34.6292
 11
3.78034
 21
-34.5203
  0
LINE
  8
0
 10
3.78034
 20
-34.5203
 11
3.641
 21
-34.1754
  0
LINE
  8
0
 10
3.641
 20
-34.1754
 11
3.5746
 21
-34.0719
  0
LINE
  8
0
 10
3.5746
 20
-34.0719
 11
3.44182
 21
-33.7198
  0
LINE
  8
0
 10
3.44182
 20
-33.7198
 11
3.38242
 21
-33.6223
  0
LINE
  8
0
 10
3.38242
 20
-33.6223
 11
3.25629
 21
-33.2628
  0
LINE
  8
0
 10
3.25629
 20
-33.2628
 11
3.20378
 21
-33.1718
  0
LINE
  8
0
 10
3.20378
 20
-33.1718
 11
3.13853
 21
-32.971
  0
LINE
  8
0
 10
3.13853
 20
-32.971
 11
3.11361
 21
-32.9133
  0
LINE
  8
0
 10
3.11361
 20
-32.9133
 11
3.10371
 21
-32.8639
  0
LINE
  8
0
 10
3.10371
 20
-32.8639
 11
3.08446
 21
-32.8046
  0
LINE
  8
0
 10
3.08446
 20
-32.8046
 11
3.03869
 21
-32.7209
  0
LINE
  8
0
 10
3.03869
 20
-32.7209
 11
2.9968
 21
-32.581
  0
LINE
  8
0
 10
2.9968
 20
-32.581
 11
2.94237
 21
-32.4463
  0
LINE
  8
0
 10
2.94237
 20
-32.4463
 11
2.92566
 21
-32.3515
  0
LINE
  8
0
 10
2.92566
 20
-32.3515
 11
2.91567
 21
-32.325
  0
LINE
  8
0
 10
2.91567
 20
-32.325
 11
2.88713
 21
-32.2698
  0
LINE
  8
0
 10
2.88713
 20
-32.2698
 11
2.86659
 21
-32.1949
  0
LINE
  8
0
 10
2.86659
 20
-32.1949
 11
2.78513
 21
-31.9789
  0
LINE
  8
0
 10
2.78513
 20
-31.9789
 11
2.76922
 21
-31.8745
  0
LINE
  8
0
 10
2.76922
 20
-31.8745
 11
2.75118
 21
-31.8231
  0
LINE
  8
0
 10
2.75118
 20
-31.8231
 11
2.74908
 21
-31.8188
  0
LINE
  8
0
 10
2.74908
 20
-31.8188
 11
2.74763
 21
-31.813
  0
LINE
  8
0
 10
2.74763
 20
-31.813
 11
2.64186
 21
-31.5115
  0
LINE
  8
0
 10
2.64186
 20
-31.5115
 11
2.62713
 21
-31.3971
  0
LINE
  8
0
 10
2.62713
 20
-31.3971
 11
2.51254
 21
-31.0444
  0
LINE
  8
0
 10
2.51254
 20
-31.0444
 11
2.49942
 21
-30.9196
  0
LINE
  8
0
 10
2.49942
 20
-30.9196
 11
2.39713
 21
-30.578
  0
LINE
  8
0
 10
2.39713
 20
-30.578
 11
2.38607
 21
-30.4424
  0
LINE
  8
0
 10
2.38607
 20
-30.4424
 11
2.29561
 21
-30.1125
  0
LINE
  8
0
 10
2.29561
 20
-30.1125
 11
2.28707
 21
-29.9658
  0
LINE
  8
0
 10
2.28707
 20
-29.9658
 11
2.20792
 21
-29.6483
  0
LINE
  8
0
 10
2.20792
 20
-29.6483
 11
2.2024
 21
-29.4901
  0
LINE
  8
0
 10
2.2024
 20
-29.4901
 11
2.13401
 21
-29.1859
  0
LINE
  8
0
 10
2.13401
 20
-29.1859
 11
2.13203
 21
-29.0159
  0
LINE
  8
0
 10
2.13203
 20
-29.0159
 11
2.07381
 21
-28.7254
  0
LINE
  8
0
 10
2.07381
 20
-28.7254
 11
2.07593
 21
-28.5433
  0
LINE
  8
0
 10
2.07593
 20
-28.5433
 11
2.02725
 21
-28.2672
  0
LINE
  8
0
 10
2.02725
 20
-28.2672
 11
2.03404
 21
-28.0728
  0
LINE
  8
0
 10
2.03404
 20
-28.0728
 11
1.99426
 21
-27.8118
  0
LINE
  8
0
 10
1.99426
 20
-27.8118
 11
2.00632
 21
-27.6047
  0
LINE
  8
0
 10
2.00632
 20
-27.6047
 11
1.97474
 21
-27.3593
  0
LINE
  8
0
 10
1.97474
 20
-27.3593
 11
1.9927
 21
-27.1393
  0
LINE
  8
0
 10
1.9927
 20
-27.1393
 11
1.96861
 21
-26.9101
  0
LINE
  8
0
 10
1.96861
 20
-26.9101
 11
1.9931
 21
-26.6771
  0
LINE
  8
0
 10
1.9931
 20
-26.6771
 11
1.97575
 21
-26.4647
  0
LINE
  8
0
 10
1.97575
 20
-26.4647
 11
2.00744
 21
-26.2184
  0
LINE
  8
0
 10
2.00744
 20
-26.2184
 11
1.99607
 21
-26.0232
  0
LINE
  8
0
 10
1.99607
 20
-26.0232
 11
2.03563
 21
-25.7636
  0
LINE
  8
0
 10
2.03563
 20
-25.7636
 11
2.02943
 21
-25.586
  0
LINE
  8
0
 10
2.02943
 20
-25.586
 11
2.07758
 21
-25.3129
  0
LINE
  8
0
 10
2.07758
 20
-25.3129
 11
2.07572
 21
-25.1534
  0
LINE
  8
0
 10
2.07572
 20
-25.1534
 11
2.13317
 21
-24.8668
  0
LINE
  8
0
 10
2.13317
 20
-24.8668
 11
2.13481
 21
-24.7258
  0
LINE
  8
0
 10
2.13481
 20
-24.7258
 11
2.20228
 21
-24.4255
  0
LINE
  8
0
 10
2.20228
 20
-24.4255
 11
2.20654
 21
-24.3034
  0
LINE
  8
0
 10
2.20654
 20
-24.3034
 11
2.28479
 21
-23.9895
  0
LINE
  8
0
 10
2.28479
 20
-23.9895
 11
2.29079
 21
-23.8865
  0
LINE
  8
0
 10
2.29079
 20
-23.8865
 11
2.38056
 21
-23.5591
  0
LINE
  8
0
 10
2.38056
 20
-23.5591
 11
2.38738
 21
-23.4756
  0
LINE
  8
0
 10
2.38738
 20
-23.4756
 11
2.46186
 21
-23.2268
  0
LINE
  8
0
 10
2.46186
 20
-23.2268
 11
2.51531
 21
-22.9601
  0
LINE
  8
0
 10
2.51531
 20
-22.9601
 11
2.54939
 21
-22.8811
  0
LINE
  8
0
 10
2.54939
 20
-22.8811
 11
2.62531
 21
-22.5433
  0
LINE
  8
0
 10
2.62531
 20
-22.5433
 11
2.66922
 21
-22.4477
  0
LINE
  8
0
 10
2.66922
 20
-22.4477
 11
2.7477
 21
-22.1329
  0
LINE
  8
0
 10
2.7477
 20
-22.1329
 11
2.80234
 21
-22.0209
  0
LINE
  8
0
 10
2.80234
 20
-22.0209
 11
2.8823
 21
-21.7293
  0
LINE
  8
0
 10
2.8823
 20
-21.7293
 11
2.94859
 21
-21.601
  0
LINE
  8
0
 10
2.94859
 20
-21.601
 11
3.02893
 21
-21.3326
  0
LINE
  8
0
 10
3.02893
 20
-21.3326
 11
3.10777
 21
-21.1884
  0
LINE
  8
0
 10
3.10777
 20
-21.1884
 11
3.18741
 21
-20.9434
  0
LINE
  8
0
 10
3.18741
 20
-20.9434
 11
3.2797
 21
-20.7835
  0
LINE
  8
0
 10
3.2797
 20
-20.7835
 11
3.35752
 21
-20.5617
  0
LINE
  8
0
 10
3.35752
 20
-20.5617
 11
3.46417
 21
-20.3865
  0
LINE
  8
0
 10
3.46417
 20
-20.3865
 11
3.53908
 21
-20.1879
  0
LINE
  8
0
 10
3.53908
 20
-20.1879
 11
3.66098
 21
-19.9978
  0
LINE
  8
0
 10
3.66098
 20
-19.9978
 11
3.73188
 21
-19.8223
  0
LINE
  8
0
 10
3.73188
 20
-19.8223
 11
3.8699
 21
-19.6177
  0
LINE
  8
0
 10
3.8699
 20
-19.6177
 11
3.93569
 21
-19.4652
  0
LINE
  8
0
 10
3.93569
 20
-19.4652
 11
4.09072
 21
-19.2465
  0
LINE
  8
0
 10
4.09072
 20
-19.2465
 11
4.1503
 21
-19.1168
  0
LINE
  8
0
 10
4.1503
 20
-19.1168
 11
4.32318
 21
-18.8845
  0
LINE
  8
0
 10
4.32318
 20
-18.8845
 11
4.37547
 21
-18.7773
  0
LINE
  8
0
 10
4.37547
 20
-18.7773
 11
4.56706
 21
-18.5321
  0
LINE
  8
0
 10
4.56706
 20
-18.5321
 11
4.61098
 21
-18.4471
  0
LINE
  8
0
 10
4.61098
 20
-18.4471
 11
4.8221
 21
-18.1895
  0
LINE
  8
0
 10
4.8221
 20
-18.1895
 11
4.85658
 21
-18.1264
  0
LINE
  8
0
 10
4.85658
 20
-18.1264
 11
4.94586
 21
-18.0225
  0
LINE
  8
0
 10
4.94586
 20
-18.0225
 11
4.98274
 21
-17.9678
  0
LINE
  8
0
 10
4.98274
 20
-17.9678
 11
5.0285
 21
-17.9236
  0
LINE
  8
0
 10
5.0285
 20
-17.9236
 11
5.22937
 21
-17.6403
  0
LINE
  8
0
 10
5.22937
 20
-17.6403
 11
5.29345
 21
-17.5812
  0
LINE
  8
0
 10
5.29345
 20
-17.5812
 11
5.48609
 21
-17.3225
  0
LINE
  8
0
 10
5.48609
 20
-17.3225
 11
5.56931
 21
-17.2493
  0
LINE
  8
0
 10
5.56931
 20
-17.2493
 11
5.75265
 21
-17.0146
  0
LINE
  8
0
 10
5.75265
 20
-17.0146
 11
5.8558
 21
-16.9281
  0
LINE
  8
0
 10
5.8558
 20
-16.9281
 11
6.0288
 21
-16.7169
  0
LINE
  8
0
 10
6.0288
 20
-16.7169
 11
6.15264
 21
-16.6179
  0
LINE
  8
0
 10
6.15264
 20
-16.6179
 11
6.31428
 21
-16.4297
  0
LINE
  8
0
 10
6.31428
 20
-16.4297
 11
6.45953
 21
-16.3189
  0
LINE
  8
0
 10
6.45953
 20
-16.3189
 11
6.60881
 21
-16.1531
  0
LINE
  8
0
 10
6.60881
 20
-16.1531
 11
6.77618
 21
-16.0315
  0
LINE
  8
0
 10
6.77618
 20
-16.0315
 11
6.91212
 21
-15.8874
  0
LINE
  8
0
 10
6.91212
 20
-15.8874
 11
7.10227
 21
-15.7559
  0
LINE
  8
0
 10
7.10227
 20
-15.7559
 11
7.22394
 21
-15.6328
  0
LINE
  8
0
 10
7.22394
 20
-15.6328
 11
7.43749
 21
-15.4924
  0
LINE
  8
0
 10
7.43749
 20
-15.4924
 11
7.54397
 21
-15.3896
  0
LINE
  8
0
 10
7.54397
 20
-15.3896
 11
7.78152
 21
-15.2411
  0
LINE
  8
0
 10
7.78152
 20
-15.2411
 11
7.87194
 21
-15.1578
  0
LINE
  8
0
 10
7.87194
 20
-15.1578
 11
8.13403
 21
-15.0024
  0
LINE
  8
0
 10
8.13403
 20
-15.0024
 11
8.20755
 21
-14.9377
  0
LINE
  8
0
 10
8.20755
 20
-14.9377
 11
8.49469
 21
-14.7764
  0
LINE
  8
0
 10
8.49469
 20
-14.7764
 11
8.55049
 21
-14.7295
  0
LINE
  8
0
 10
8.55049
 20
-14.7295
 11
8.70598
 21
-14.6469
  0
LINE
  8
0
 10
8.70598
 20
-14.6469
 11
8.75192
 21
-14.6151
  0
LINE
  8
0
 10
8.75192
 20
-14.6151
 11
8.8052
 21
-14.5928
  0
LINE
  8
0
 10
8.8052
 20
-14.5928
 11
9.09284
 21
-14.4036
  0
LINE
  8
0
 10
9.09284
 20
-14.4036
 11
9.16997
 21
-14.3735
  0
LINE
  8
0
 10
9.16997
 20
-14.3735
 11
9.44098
 21
-14.2042
  0
LINE
  8
0
 10
9.44098
 20
-14.2042
 11
9.54234
 21
-14.1673
  0
LINE
  8
0
 10
9.54234
 20
-14.1673
 11
9.79601
 21
-14.0169
  0
LINE
  8
0
 10
9.79601
 20
-14.0169
 11
9.92195
 21
-13.9743
  0
LINE
  8
0
 10
9.92195
 20
-13.9743
 11
10.1576
 21
-13.8419
  0
LINE
  8
0
 10
10.1576
 20
-13.8419
 11
10.3085
 21
-13.7948
  0
LINE
  8
0
 10
10.3085
 20
-13.7948
 11
10.5256
 21
-13.6794
  0
LINE
  8
0
 10
10.5256
 20
-13.6794
 11
10.7015
 21
-13.6289
  0
LINE
  8
0
 10
10.7015
 20
-13.6289
 11
10.8995
 21
-13.5295
  0
LINE
  8
0
 10
10.8995
 20
-13.5295
 11
11.1007
 21
-13.4768
  0
LINE
  8
0
 10
11.1007
 20
-13.4768
 11
11.279
 21
-13.3924
  0
LINE
  8
0
 10
11.279
 20
-13.3924
 11
11.5057
 21
-13.3387
  0
LINE
  8
0
 10
11.5057
 20
-13.3387
 11
11.6638
 21
-13.2683
  0
LINE
  8
0
 10
11.6638
 20
-13.2683
 11
11.9161
 21
-13.2147
  0
LINE
  8
0
 10
11.9161
 20
-13.2147
 11
12.0537
 21
-13.1572
  0
LINE
  8
0
 10
12.0537
 20
-13.1572
 11
12.3316
 21
-13.1049
  0
LINE
  8
0
 10
12.3316
 20
-13.1049
 11
12.4482
 21
-13.0593
  0
LINE
  8
0
 10
12.4482
 20
-13.0593
 11
12.7518
 21
-13.0094
  0
LINE
  8
0
 10
12.7518
 20
-13.0094
 11
12.8471
 21
-12.9747
  0
LINE
  8
0
 10
12.8471
 20
-12.9747
 11
13.1763
 21
-12.9285
  0
LINE
  8
0
 10
13.1763
 20
-12.9285
 11
13.25
 21
-12.9036
  0
LINE
  8
0
 10
13.25
 20
-12.9036
 11
13.4307
 21
-12.8825
  0
LINE
  8
0
 10
13.4307
 20
-12.8825
 11
13.4556
 21
-12.8766
  0
LINE
  8
0
 10
13.4556
 20
-12.8766
 11
13.4876
 21
-12.8758
  0
LINE
  8
0
 10
13.4876
 20
-12.8758
 11
13.538
 21
-12.8699
  0
LINE
  8
0
 10
13.538
 20
-12.8699
 11
13.8519
 21
-12.8032
  0
LINE
  8
0
 10
13.8519
 20
-12.8032
 11
13.9332
 21
-12.8032
  0
LINE
  8
0
 10
13.9332
 20
-12.8032
 11
14.252
 21
-12.7432
  0
LINE
  8
0
 10
14.252
 20
-12.7432
 11
14.357
 21
-12.7456
  0
LINE
  8
0
 10
14.357
 20
-12.7456
 11
14.6555
 21
-12.6965
  0
LINE
  8
0
 10
14.6555
 20
-12.6965
 11
14.784
 21
-12.7025
  0
LINE
  8
0
 10
14.784
 20
-12.7025
 11
15.0623
 21
-12.6634
  0
LINE
  8
0
 10
15.0623
 20
-12.6634
 11
15.2139
 21
-12.674
  0
LINE
  8
0
 10
15.2139
 20
-12.674
 11
15.4718
 21
-12.6439
  0
LINE
  8
0
 10
15.4718
 20
-12.6439
 11
15.6463
 21
-12.6602
  0
LINE
  8
0
 10
15.6463
 20
-12.6602
 11
15.8838
 21
-12.638
  0
LINE
  8
0
 10
15.8838
 20
-12.638
 11
16.0808
 21
-12.6611
  0
LINE
  8
0
 10
16.0808
 20
-12.6611
 11
16.2979
 21
-12.6459
  0
LINE
  8
0
 10
16.2979
 20
-12.6459
 11
16.5171
 21
-12.6767
  0
LINE
  8
0
 10
16.5171
 20
-12.6767
 11
16.7138
 21
-12.6675
  0
LINE
  8
0
 10
16.7138
 20
-12.6675
 11
16.9546
 21
-12.7071
  0
LINE
  8
0
 10
16.9546
 20
-12.7071
 11
17.1311
 21
-12.703
  0
LINE
  8
0
 10
17.1311
 20
-12.703
 11
17.3931
 21
-12.7524
  0
LINE
  8
0
 10
17.3931
 20
-12.7524
 11
17.5495
 21
-12.7524
  0
LINE
  8
0
 10
17.5495
 20
-12.7524
 11
17.6
 21
-12.7631
  0
LINE
  8
0
 10
17.6
 20
-12.7631
 11
17.6
 21
0
  0
LINE
  8
0
 10
17.6
 20
0
 11
17.5571
 21
1.22771
  0
LINE
  8
0
 10
17.5571
 20
1.22771
 11
17.4287
 21
2.44945
  0
LINE
  8
0
 10
17.4287
 20
2.44945
 11
17.2154
 21
3.65925
  0
LINE
  8
0
 10
17.2154
 20
3.65925
 11
16.9182
 21
4.85122
  0
LINE
  8
0
 10
16.9182
 20
4.85122
 11
16.5386
 21
6.01955
  0
LINE
  8
0
 10
16.5386
 20
6.01955
 11
16.0784
 21
7.15856
  0
LINE
  8
0
 10
16.0784
 20
7.15856
 11
15.5399
 21
8.2627
  0
LINE
  8
0
 10
15.5399
 20
8.2627
 11
14.9256
 21
9.32658
  0
LINE
  8
0
 10
14.9256
 20
9.32658
 11
14.2387
 21
10.345
  0
LINE
  8
0
 10
14.2387
 20
10.345
 11
13.4824
 21
11.3131
  0
LINE
  8
0
 10
13.4824
 20
11.3131
 11
12.6604
 21
12.226
  0
LINE
  8
0
 10
12.6604
 20
12.226
 11
11.7767
 21
13.0793
  0
LINE
  8
0
 10
11.7767
 20
13.0793
 11
10.8356
 21
13.869
  0
LINE
  8
0
 10
10.8356
 20
13.869
 11
9.84179
 21
14.5911
  0
LINE
  8
0
 10
9.84179
 20
14.5911
 11
8.8
 21
15.242
  0
LINE
  8
0
 10
8.8
 20
15.242
 11
7.71533
 21
15.8188
  0
LINE
  8
0
 10
7.71533
 20
15.8188
 11
6.59308
 21
16.3184
  0
LINE
  8
0
 10
6.59308
 20
16.3184
 11
5.4387
 21
16.7386
  0
LINE
  8
0
 10
5.4387
 20
16.7386
 11
3.92145
 21
17.2057
  0
LINE
  8
0
 10
3.92145
 20
17.2057
 11
3.95974
 21
17.3486
  0
LINE
  8
0
 10
3.95974
 20
17.3486
 11
3.67272
 21
17.4255
  0
LINE
  8
0
 10
3.67272
 20
17.4255
 11
1.06577
 21
18.2225
  0
LINE
  8
0
 10
1.06577
 20
18.2225
 11
-1.51177
 21
19.11
  0
LINE
  8
0
 10
-1.51177
 20
19.11
 11
-4.05677
 21
20.0869
  0
LINE
  8
0
 10
-4.05677
 20
20.0869
 11
-6.56613
 21
21.1521
  0
LINE
  8
0
 10
-6.56613
 20
21.1521
 11
-9.03679
 21
22.3042
  0
LINE
  8
0
 10
-9.03679
 20
22.3042
 11
-11.4657
 21
23.5418
  0
LINE
  8
0
 10
-11.4657
 20
23.5418
 11
-13.85
 21
24.8634
  0
LINE
  8
0
 10
-13.85
 20
24.8634
 11
-16.1867
 21
26.2674
  0
LINE
  8
0
 10
-16.1867
 20
26.2674
 11
-18.473
 21
27.7522
  0
LINE
  8
0
 10
-18.473
 20
27.7522
 11
-20.706
 21
29.3158
  0
LINE
  8
0
 10
-20.706
 20
29.3158
 11
-22.8832
 21
30.9564
  0
LINE
  8
0
 10
-22.8832
 20
30.9564
 11
-25.0017
 21
32.6719
  0
LINE
  8
0
 10
-25.0017
 20
32.6719
 11
-27.0591
 21
34.4604
  0
LINE
  8
0
 10
-27.0591
 20
34.4604
 11
-29.0528
 21
36.3196
  0
LINE
  8
0
 10
-29.0528
 20
36.3196
 11
-30.9804
 21
38.2472
  0
LINE
  8
0
 10
-30.9804
 20
38.2472
 11
-32.8396
 21
40.2409
  0
LINE
  8
0
 10
-32.8396
 20
40.2409
 11
-34.6281
 21
42.2983
  0
LINE
  8
0
 10
-34.6281
 20
42.2983
 11
-36.3436
 21
44.4168
  0
LINE
  8
0
 10
-36.3436
 20
44.4168
 11
-37.9842
 21
46.594
  0
LINE
  8
0
 10
-37.9842
 20
46.594
 11
-39.5478
 21
48.827
  0
LINE
  8
0
 10
-39.5478
 20
48.827
 11
-41.0326
 21
51.1133
  0
LINE
  8
0
 10
-41.0326
 20
51.1133
 11
-42.4366
 21
53.45
  0
LINE
  8
0
 10
-42.4366
 20
53.45
 11
-43.7582
 21
55.8343
  0
LINE
  8
0
 10
-43.7582
 20
55.8343
 11
-44.9958
 21
58.2632
  0
LINE
  8
0
 10
-44.9958
 20
58.2632
 11
-46.1479
 21
60.7339
  0
LINE
  8
0
 10
-46.1479
 20
60.7339
 11
-47.2131
 21
63.2432
  0
LINE
  8
0
 10
-47.2131
 20
63.2432
 11
-48.19
 21
65.7882
  0
LINE
  8
0
 10
-48.19
 20
65.7882
 11
-49.0775
 21
68.3658
  0
LINE
  8
0
 10
-49.0775
 20
68.3658
 11
-49.8745
 21
70.9727
  0
LINE
  8
0
 10
-49.8745
 20
70.9727
 11
-50.5801
 21
73.6059
  0
LINE
  8
0
 10
-50.5801
 20
73.6059
 11
-51.1933
 21
76.2621
  0
LINE
  8
0
 10
-51.1933
 20
76.2621
 11
-51.7135
 21
78.9381
  0
LINE
  8
0
 10
-51.7135
 20
78.9381
 11
-52.1399
 21
81.6306
  0
LINE
  8
0
 10
-52.1399
 20
81.6306
 11
-52.4722
 21
84.3363
  0
LINE
  8
0
 10
-52.4722
 20
84.3363
 11
-52.7098
 21
87.052
  0
LINE
  8
0
 10
-52.7098
 20
87.052
 11
-52.8524
 21
89.7743
  0
LINE
  8
0
 10
-52.8524
 20
89.7743
 11
-52.9
 21
92.5
  0
LINE
  8
0
 10
-52.9
 20
92.5
 11
-52.8588
 21
94.8607
  0
LINE
  8
0
 10
-52.8588
 20
94.8607
 11
-52.8092
 21
94.8633
  0
LINE
  8
0
 10
-52.8092
 20
94.8633
 11
-52.6429
 21
94.8837
  0
LINE
  8
0
 10
-52.6429
 20
94.8837
 11
-52.4785
 21
94.9157
  0
LINE
  8
0
 10
-52.4785
 20
94.9157
 11
-52.3166
 21
94.959
  0
LINE
  8
0
 10
-52.3166
 20
94.959
 11
-52.1583
 21
95.0136
  0
LINE
  8
0
 10
-52.1583
 20
95.0136
 11
-52.0041
 21
95.079
  0
LINE
  8
0
 10
-52.0041
 20
95.079
 11
-51.8548
 21
95.1551
  0
LINE
  8
0
 10
-51.8548
 20
95.1551
 11
-51.7112
 21
95.2414
  0
LINE
  8
0
 10
-51.7112
 20
95.2414
 11
-51.574
 21
95.3374
  0
LINE
  8
0
 10
-51.574
 20
95.3374
 11
-51.4438
 21
95.4429
  0
LINE
  8
0
 10
-51.4438
 20
95.4429
 11
-51.3213
 21
95.5571
  0
LINE
  8
0
 10
-51.3213
 20
95.5571
 11
-51.207
 21
95.6796
  0
LINE
  8
0
 10
-51.207
 20
95.6796
 11
-51.1016
 21
95.8098
  0
LINE
  8
0
 10
-51.1016
 20
95.8098
 11
-51.0055
 21
95.947
  0
LINE
  8
0
 10
-51.0055
 20
95.947
 11
-50.9193
 21
96.0906
  0
LINE
  8
0
 10
-50.9193
 20
96.0906
 11
-50.8432
 21
96.2399
  0
LINE
  8
0
 10
-50.8432
 20
96.2399
 11
-50.7777
 21
96.3941
  0
LINE
  8
0
 10
-50.7777
 20
96.3941
 11
-50.7232
 21
96.5525
  0
LINE
  8
0
 10
-50.7232
 20
96.5525
 11
-50.6799
 21
96.7143
  0
LINE
  8
0
 10
-50.6799
 20
96.7143
 11
-50.6479
 21
96.8787
  0
LINE
  8
0
 10
-50.6479
 20
96.8787
 11
-50.6275
 21
97.045
  0
LINE
  8
0
 10
-50.6275
 20
97.045
 11
-50.6187
 21
97.2123
  0
LINE
  8
0
 10
-50.6187
 20
97.2123
 11
-50.6216
 21
97.3798
  0
LINE
  8
0
 10
-50.6216
 20
97.3798
 11
-50.6362
 21
97.5467
  0
LINE
  8
0
 10
-50.6362
 20
97.5467
 11
-50.6624
 21
97.7121
  0
LINE
  8
0
 10
-50.6624
 20
97.7121
 11
-50.7001
 21
97.8753
  0
LINE
  8
0
 10
-50.7001
 20
97.8753
 11
-53.1853
 21
107.15
  0
LINE
  8
0
 10
-53.1853
 20
107.15
 11
-49.7616
 21
108.066
  0
LINE
  8
0
 10
-49.7616
 20
108.066
 11
-49.6538
 21
108.095
  0
LINE
  8
0
 10
-49.6538
 20
108.095
 11
-49.5482
 21
108.132
  0
LINE
  8
0
 10
-49.5482
 20
108.132
 11
-49.4454
 21
108.175
  0
LINE
  8
0
 10
-49.4454
 20
108.175
 11
-49.3459
 21
108.226
  0
LINE
  8
0
 10
-49.3459
 20
108.226
 11
-49.2501
 21
108.284
  0
LINE
  8
0
 10
-49.2501
 20
108.284
 11
-49.1587
 21
108.348
  0
LINE
  8
0
 10
-49.1587
 20
108.348
 11
-49.0719
 21
108.418
  0
LINE
  8
0
 10
-49.0719
 20
108.418
 11
-48.9902
 21
108.494
  0
LINE
  8
0
 10
-48.9902
 20
108.494
 11
-48.914
 21
108.576
  0
LINE
  8
0
 10
-48.914
 20
108.576
 11
-48.8437
 21
108.663
  0
LINE
  8
0
 10
-48.8437
 20
108.663
 11
-48.7797
 21
108.754
  0
LINE
  8
0
 10
-48.7797
 20
108.754
 11
-48.7222
 21
108.85
  0
LINE
  8
0
 10
-48.7222
 20
108.85
 11
-48.6715
 21
108.949
  0
LINE
  8
0
 10
-48.6715
 20
108.949
 11
-48.6278
 21
109.052
  0
LINE
  8
0
 10
-48.6278
 20
109.052
 11
-48.5915
 21
109.158
  0
LINE
  8
0
 10
-48.5915
 20
109.158
 11
-48.5626
 21
109.266
  0
LINE
  8
0
 10
-48.5626
 20
109.266
 11
-48.5413
 21
109.375
  0
LINE
  8
0
 10
-48.5413
 20
109.375
 11
-48.5276
 21
109.486
  0
LINE
  8
0
 10
-48.5276
 20
109.486
 11
-48.5218
 21
109.598
  0
LINE
  8
0
 10
-48.5218
 20
109.598
 11
-48.5238
 21
109.709
  0
LINE
  8
0
 10
-48.5238
 20
109.709
 11
-48.5335
 21
109.82
  0
LINE
  8
0
 10
-48.5335
 20
109.82
 11
-48.551
 21
109.931
  0
LINE
  8
0
 10
-48.551
 20
109.931
 11
-48.5761
 21
110.04
  0
LINE
  8
0
 10
-48.5761
 20
110.04
 11
-50.2325
 21
116.221
  0
LINE
  8
0
 10
-50.2325
 20
116.221
 11
-50.2652
 21
116.328
  0
LINE
  8
0
 10
-50.2652
 20
116.328
 11
-50.3052
 21
116.433
  0
LINE
  8
0
 10
-50.3052
 20
116.433
 11
-50.3524
 21
116.534
  0
LINE
  8
0
 10
-50.3524
 20
116.534
 11
-50.4065
 21
116.631
  0
LINE
  8
0
 10
-50.4065
 20
116.631
 11
-50.4674
 21
116.725
  0
LINE
  8
0
 10
-50.4674
 20
116.725
 11
-50.5346
 21
116.814
  0
LINE
  8
0
 10
-50.5346
 20
116.814
 11
-50.6078
 21
116.899
  0
LINE
  8
0
 10
-50.6078
 20
116.899
 11
-50.6868
 21
116.978
  0
LINE
  8
0
 10
-50.6868
 20
116.978
 11
-50.7711
 21
117.051
  0
LINE
  8
0
 10
-50.7711
 20
117.051
 11
-50.8603
 21
117.118
  0
LINE
  8
0
 10
-50.8603
 20
117.118
 11
-50.9539
 21
117.179
  0
LINE
  8
0
 10
-50.9539
 20
117.179
 11
-51.0516
 21
117.233
  0
LINE
  8
0
 10
-51.0516
 20
117.233
 11
-51.1528
 21
117.28
  0
LINE
  8
0
 10
-51.1528
 20
117.28
 11
-51.2571
 21
117.32
  0
LINE
  8
0
 10
-51.2571
 20
117.32
 11
-51.3639
 21
117.353
  0
LINE
  8
0
 10
-51.3639
 20
117.353
 11
-51.4727
 21
117.378
  0
LINE
  8
0
 10
-51.4727
 20
117.378
 11
-51.583
 21
117.395
  0
LINE
  8
0
 10
-51.583
 20
117.395
 11
-51.6943
 21
117.405
  0
LINE
  8
0
 10
-51.6943
 20
117.405
 11
-51.8059
 21
117.407
  0
LINE
  8
0
 10
-51.8059
 20
117.407
 11
-51.9174
 21
117.401
  0
LINE
  8
0
 10
-51.9174
 20
117.401
 11
-52.0283
 21
117.388
  0
LINE
  8
0
 10
-52.0283
 20
117.388
 11
-52.1379
 21
117.366
  0
LINE
  8
0
 10
-52.1379
 20
117.366
 11
-52.2458
 21
117.337
  0
LINE
  8
0
 10
-52.2458
 20
117.337
 11
-55.6689
 21
116.419
  0
LINE
  8
0
 10
-55.6689
 20
116.419
 11
-57.5329
 21
123.376
  0
LINE
  8
0
 10
-57.5329
 20
123.376
 11
-57.5819
 21
123.536
  0
LINE
  8
0
 10
-57.5819
 20
123.536
 11
-57.642
 21
123.692
  0
LINE
  8
0
 10
-57.642
 20
123.692
 11
-57.7127
 21
123.844
  0
LINE
  8
0
 10
-57.7127
 20
123.844
 11
-57.794
 21
123.991
  0
LINE
  8
0
 10
-57.794
 20
123.991
 11
-57.8852
 21
124.131
  0
LINE
  8
0
 10
-57.8852
 20
124.131
 11
-57.986
 21
124.265
  0
LINE
  8
0
 10
-57.986
 20
124.265
 11
-58.0959
 21
124.391
  0
LINE
  8
0
 10
-58.0959
 20
124.391
 11
-58.2144
 21
124.51
  0
LINE
  8
0
 10
-58.2144
 20
124.51
 11
-58.3408
 21
124.62
  0
LINE
  8
0
 10
-58.3408
 20
124.62
 11
-58.4746
 21
124.721
  0
LINE
  8
0
 10
-58.4746
 20
124.721
 11
-58.6151
 21
124.812
  0
LINE
  8
0
 10
-58.6151
 20
124.812
 11
-58.7616
 21
124.893
  0
LINE
  8
0
 10
-58.7616
 20
124.893
 11
-58.9134
 21
124.964
  0
LINE
  8
0
 10
-58.9134
 20
124.964
 11
-59.0698
 21
125.024
  0
LINE
  8
0
 10
-59.0698
 20
125.024
 11
-59.23
 21
125.073
  0
LINE
  8
0
 10
-59.23
 20
125.073
 11
-59.3932
 21
125.111
  0
LINE
  8
0
 10
-59.3932
 20
125.111
 11
-59.5587
 21
125.137
  0
LINE
  8
0
 10
-59.5587
 20
125.137
 11
-59.7256
 21
125.151
  0
LINE
  8
0
 10
-59.7256
 20
125.151
 11
-59.893
 21
125.154
  0
LINE
  8
0
 10
-59.893
 20
125.154
 11
-60.0603
 21
125.145
  0
LINE
  8
0
 10
-60.0603
 20
125.145
 11
-60.2266
 21
125.125
  0
LINE
  8
0
 10
-60.2266
 20
125.125
 11
-60.391
 21
125.093
  0
LINE
  8
0
 10
-60.391
 20
125.093
 11
-60.5529
 21
125.05
  0
LINE
  8
0
 10
-60.5529
 20
125.05
 11
-60.7112
 21
124.995
  0
LINE
  8
0
 10
-60.7112
 20
124.995
 11
-60.8654
 21
124.93
  0
LINE
  8
0
 10
-60.8654
 20
124.93
 11
-61.0147
 21
124.854
  0
LINE
  8
0
 10
-61.0147
 20
124.854
 11
-61.1583
 21
124.767
  0
LINE
  8
0
 10
-61.1583
 20
124.767
 11
-61.2955
 21
124.671
  0
LINE
  8
0
 10
-61.2955
 20
124.671
 11
-61.4257
 21
124.566
  0
LINE
  8
0
 10
-61.4257
 20
124.566
 11
-61.5482
 21
124.452
  0
LINE
  8
0
 10
-61.5482
 20
124.452
 11
-61.6625
 21
124.329
  0
LINE
  8
0
 10
-61.6625
 20
124.329
 11
-61.7679
 21
124.199
  0
LINE
  8
0
 10
-61.7679
 20
124.199
 11
-61.864
 21
124.062
  0
LINE
  8
0
 10
-61.864
 20
124.062
 11
-61.9503
 21
123.918
  0
LINE
  8
0
 10
-61.9503
 20
123.918
 11
-62.0263
 21
123.769
  0
LINE
  8
0
 10
-62.0263
 20
123.769
 11
-62.0918
 21
123.615
  0
LINE
  8
0
 10
-62.0918
 20
123.615
 11
-62.1463
 21
123.456
  0
LINE
  8
0
 10
-62.1463
 20
123.456
 11
-62.1897
 21
123.294
  0
LINE
  8
0
 10
-62.1897
 20
123.294
 11
-64.6678
 21
111.374
  0
LINE
  8
0
 10
-64.6678
 20
111.374
 11
-64.6705
 21
111.36
  0
LINE
  8
0
 10
-64.6705
 20
111.36
 11
-65.289
 21
109.052
  0
LINE
  8
0
 10
-65.289
 20
109.052
 11
-66.1378
 21
105.375
  0
LINE
  8
0
 10
-66.1378
 20
105.375
 11
-66.8577
 21
101.671
  0
LINE
  8
0
 10
-66.8577
 20
101.671
 11
-67.448
 21
97.9446
  0
LINE
  8
0
 10
-67.448
 20
97.9446
 11
-67.9078
 21
94.1995
  0
LINE
  8
0
 10
-67.9078
 20
94.1995
 11
-68.2367
 21
90.4407
  0
LINE
  8
0
 10
-68.2367
 20
90.4407
 11
-68.4341
 21
86.6726
  0
LINE
  8
0
 10
-68.4341
 20
86.6726
 11
-68.5
 21
82.9
  0
LINE
  8
0
 10
-10.775
 20
-1.6243
 11
-10.775
 21
1.6243
  0
LINE
  8
0
 10
-10.775
 20
1.6243
 11
-10.6618
 21
2.26624
  0
LINE
  8
0
 10
-10.6618
 20
2.26624
 11
-10.4778
 21
3.00445
  0
LINE
  8
0
 10
-10.4778
 20
3.00445
 11
-10.2426
 21
3.72802
  0
LINE
  8
0
 10
-10.2426
 20
3.72802
 11
-9.95765
 21
4.43343
  0
LINE
  8
0
 10
-9.95765
 20
4.43343
 11
-9.62413
 21
5.11724
  0
LINE
  8
0
 10
-9.62413
 20
5.11724
 11
-9.24372
 21
5.77612
  0
LINE
  8
0
 10
-9.24372
 20
5.77612
 11
-8.81828
 21
6.40686
  0
LINE
  8
0
 10
-8.81828
 20
6.40686
 11
-8.34988
 21
7.00638
  0
LINE
  8
0
 10
-8.34988
 20
7.00638
 11
-7.8408
 21
7.57178
  0
LINE
  8
0
 10
-7.8408
 20
7.57178
 11
-7.29352
 21
8.10028
  0
LINE
  8
0
 10
-7.29352
 20
8.10028
 11
-6.71071
 21
8.58932
  0
LINE
  8
0
 10
-6.71071
 20
8.58932
 11
-6.0952
 21
9.03651
  0
LINE
  8
0
 10
-6.0952
 20
9.03651
 11
-5.45
 21
9.43968
  0
LINE
  8
0
 10
-5.45
 20
9.43968
 11
-4.77824
 21
9.79685
  0
LINE
  8
0
 10
-4.77824
 20
9.79685
 11
-4.08321
 21
10.1063
  0
LINE
  8
0
 10
-4.08321
 20
10.1063
 11
-3.36829
 21
10.3665
  0
LINE
  8
0
 10
-3.36829
 20
10.3665
 11
-2.63695
 21
10.5762
  0
LINE
  8
0
 10
-2.63695
 20
10.5762
 11
-1.89277
 21
10.7344
  0
LINE
  8
0
 10
-1.89277
 20
10.7344
 11
-1.42603
 21
10.8
  0
LINE
  8
0
 10
-1.42603
 20
10.8
 11
1.42603
 21
10.8
  0
LINE
  8
0
 10
1.42603
 20
10.8
 11
1.89277
 21
10.7344
  0
LINE
  8
0
 10
1.89277
 20
10.7344
 11
2.63695
 21
10.5762
  0
LINE
  8
0
 10
2.63695
 20
10.5762
 11
3.36829
 21
10.3665
  0
LINE
  8
0
 10
3.36829
 20
10.3665
 11
4.08321
 21
10.1063
  0
LINE
  8
0
 10
4.08321
 20
10.1063
 11
4.77824
 21
9.79685
  0
LINE
  8
0
 10
4.77824
 20
9.79685
 11
5.45
 21
9.43968
  0
LINE
  8
0
 10
5.45
 20
9.43968
 11
6.0952
 21
9.03651
  0
LINE
  8
0
 10
6.0952
 20
9.03651
 11
6.71071
 21
8.58932
  0
LINE
  8
0
 10
6.71071
 20
8.58932
 11
7.29352
 21
8.10028
  0
LINE
  8
0
 10
7.29352
 20
8.10028
 11
7.8408
 21
7.57178
  0
LINE
  8
0
 10
7.8408
 20
7.57178
 11
8.34988
 21
7.00638
  0
LINE
  8
0
 10
8.34988
 20
7.00638
 11
8.81828
 21
6.40686
  0
LINE
  8
0
 10
8.81828
 20
6.40686
 11
9.24372
 21
5.77612
  0
LINE
  8
0
 10
9.24372
 20
5.77612
 11
9.62413
 21
5.11724
  0
LINE
  8
0
 10
9.62413
 20
5.11724
 11
9.95765
 21
4.43343
  0
LINE
  8
0
 10
9.95765
 20
4.43343
 11
10.2426
 21
3.72802
  0
LINE
  8
0
 10
10.2426
 20
3.72802
 11
10.4778
 21
3.00445
  0
LINE
  8
0
 10
10.4778
 20
3.00445
 11
10.6618
 21
2.26624
  0
LINE
  8
0
 10
10.6618
 20
2.26624
 11
10.775
 21
1.6243
  0
LINE
  8
0
 10
10.775
 20
1.6243
 11
10.775
 21
-1.6243
  0
LINE
  8
0
 10
10.775
 20
-1.6243
 11
10.6618
 21
-2.26624
  0
LINE
  8
0
 10
10.6618
 20
-2.26624
 11
10.4778
 21
-3.00445
  0
LINE
  8
0
 10
10.4778
 20
-3.00445
 11
10.2426
 21
-3.72802
  0
LINE
  8
0
 10
10.2426
 20
-3.72802
 11
9.95765
 21
-4.43343
  0
LINE
  8
0
 10
9.95765
 20
-4.43343
 11
9.62413
 21
-5.11724
  0
LINE
  8
0
 10
9.62413
 20
-5.11724
 11
9.24372
 21
-5.77612
  0
LINE
  8
0
 10
9.24372
 20
-5.77612
 11
8.81828
 21
-6.40686
  0
LINE
  8
0
 10
8.81828
 20
-6.40686
 11
8.34988
 21
-7.00638
  0
LINE
  8
0
 10
8.34988
 20
-7.00638
 11
7.8408
 21
-7.57178
  0
LINE
  8
0
 10
7.8408
 20
-7.57178
 11
7.29352
 21
-8.10028
  0
LINE
  8
0
 10
7.29352
 20
-8.10028
 11
6.71071
 21
-8.58932
  0
LINE
  8
0
 10
6.71071
 20
-8.58932
 11
6.0952
 21
-9.03651
  0
LINE
  8
0
 10
6.0952
 20
-9.03651
 11
5.45
 21
-9.43968
  0
LINE
  8
0
 10
5.45
 20
-9.43968
 11
4.77824
 21
-9.79685
  0
LINE
  8
0
 10
4.77824
 20
-9.79685
 11
4.08321
 21
-10.1063
  0
LINE
  8
0
 10
4.08321
 20
-10.1063
 11
3.36829
 21
-10.3665
  0
LINE
  8
0
 10
3.36829
 20
-10.3665
 11
2.63695
 21
-10.5762
  0
LINE
  8
0
 10
2.63695
 20
-10.5762
 11
1.89277
 21
-10.7344
  0
LINE
  8
0
 10
1.89277
 20
-10.7344
 11
1.42603
 21
-10.8
  0
LINE
  8
0
 10
1.42603
 20
-10.8
 11
-1.42603
 21
-10.8
  0
LINE
  8
0
 10
-1.42603
 20
-10.8
 11
-1.89277
 21
-10.7344
  0
LINE
  8
0
 10
-1.89277
 20
-10.7344
 11
-2.63695
 21
-10.5762
  0
LINE
  8
0
 10
-2.63695
 20
-10.5762
 11
-3.36829
 21
-10.3665
  0
LINE
  8
0
 10
-3.36829
 20
-10.3665
 11
-4.08321
 21
-10.1063
  0
LINE
  8
0
 10
-4.08321
 20
-10.1063
 11
-4.77824
 21
-9.79685
  0
LINE
  8
0
 10
-4.77824
 20
-9.79685
 11
-5.45
 21
-9.43968
  0
LINE
  8
0
 10
-5.45
 20
-9.43968
 11
-6.0952
 21
-9.03651
  0
LINE
  8
0
 10
-6.0952
 20
-9.03651
 11
-6.71071
 21
-8.58932
  0
LINE
  8
0
 10
-6.71071
 20
-8.58932
 11
-7.29352
 21
-8.10028
  0
LINE
  8
0
 10
-7.29352
 20
-8.10028
 11
-7.8408
 21
-7.57178
  0
LINE
  8
0
 10
-7.8408
 20
-7.57178
 11
-8.34988
 21
-7.00638
  0
LINE
  8
0
 10
-8.34988
 20
-7.00638
 11
-8.81828
 21
-6.40686
  0
LINE
  8
0
 10
-8.81828
 20
-6.40686
 11
-9.24372
 21
-5.77612
  0
LINE
  8
0
 10
-9.24372
 20
-5.77612
 11
-9.62413
 21
-5.11724
  0
LINE
  8
0
 10
-9.62413
 20
-5.11724
 11
-9.95765
 21
-4.43343
  0
LINE
  8
0
 10
-9.95765
 20
-4.43343
 11
-10.2426
 21
-3.72802
  0
LINE
  8
0
 10
-10.2426
 20
-3.72802
 11
-10.4778
 21
-3.00445
  0
LINE
  8
0
 10
-10.4778
 20
-3.00445
 11
-10.6618
 21
-2.26624
  0
LINE
  8
0
 10
-10.6618
 20
-2.26624
 11
-10.775
 21
-1.6243
  0
ENDSEC
  0
SECTION
  2
OBJECTS
  0
DICTIONARY
  0
ENDSEC
  0
EOF
