  0
SECTION
  2
BLOCKS
  0
ENDSEC
  0
SECTION
  2
ENTITIES
  0
LINE
  8
0
 10
-4.15
 20
0
 11
-4.14431
 21
-0.217194
  0
LINE
  8
0
 10
-4.14431
 20
-0.217194
 11
-4.12726
 21
-0.433793
  0
LINE
  8
0
 10
-4.12726
 20
-0.433793
 11
-4.09891
 21
-0.649202
  0
LINE
  8
0
 10
-4.09891
 20
-0.649202
 11
-4.05931
 21
-0.862833
  0
LINE
  8
0
 10
-4.05931
 20
-0.862833
 11
-4.00859
 21
-1.0741
  0
LINE
  8
0
 10
-4.00859
 20
-1.0741
 11
-3.94688
 21
-1.28242
  0
LINE
  8
0
 10
-3.94688
 20
-1.28242
 11
-3.87436
 21
-1.48723
  0
LINE
  8
0
 10
-3.87436
 20
-1.48723
 11
-3.79121
 21
-1.68796
  0
LINE
  8
0
 10
-3.79121
 20
-1.68796
 11
-3.69768
 21
-1.88406
  0
LINE
  8
0
 10
-3.69768
 20
-1.88406
 11
-3.594
 21
-2.075
  0
LINE
  8
0
 10
-3.594
 20
-2.075
 11
-3.48048
 21
-2.26025
  0
LINE
  8
0
 10
-3.48048
 20
-2.26025
 11
-3.35742
 21
-2.43931
  0
LINE
  8
0
 10
-3.35742
 20
-2.43931
 11
-3.22515
 21
-2.61168
  0
LINE
  8
0
 10
-3.22515
 20
-2.61168
 11
-3.08405
 21
-2.77689
  0
LINE
  8
0
 10
-3.08405
 20
-2.77689
 11
-2.93449
 21
-2.93449
  0
LINE
  8
0
 10
-2.93449
 20
-2.93449
 11
-2.77689
 21
-3.08405
  0
LINE
  8
0
 10
-2.77689
 20
-3.08405
 11
-2.61168
 21
-3.22515
  0
LINE
  8
0
 10
-2.61168
 20
-3.22515
 11
-2.43931
 21
-3.35742
  0
LINE
  8
0
 10
-2.43931
 20
-3.35742
 11
-2.26025
 21
-3.48048
  0
LINE
  8
0
 10
-2.26025
 20
-3.48048
 11
-2.075
 21
-3.594
  0
LINE
  8
0
 10
-2.075
 20
-3.594
 11
-1.88406
 21
-3.69768
  0
LINE
  8
0
 10
-1.88406
 20
-3.69768
 11
-1.68796
 21
-3.79121
  0
LINE
  8
0
 10
-1.68796
 20
-3.79121
 11
-1.48723
 21
-3.87436
  0
LINE
  8
0
 10
-1.48723
 20
-3.87436
 11
-1.28242
 21
-3.94688
  0
LINE
  8
0
 10
-1.28242
 20
-3.94688
 11
-1.0741
 21
-4.00859
  0
LINE
  8
0
 10
-1.0741
 20
-4.00859
 11
-0.862833
 21
-4.05931
  0
LINE
  8
0
 10
-0.862833
 20
-4.05931
 11
-0.649202
 21
-4.09891
  0
LINE
  8
0
 10
-0.649202
 20
-4.09891
 11
-0.433793
 21
-4.12726
  0
LINE
  8
0
 10
-0.433793
 20
-4.12726
 11
-0.217194
 21
-4.14431
  0
LINE
  8
0
 10
-0.217194
 20
-4.14431
 11
0
 21
-4.15
  0
LINE
  8
0
 10
0
 20
-4.15
 11
0.217194
 21
-4.14431
  0
LINE
  8
0
 10
0.217194
 20
-4.14431
 11
0.433793
 21
-4.12726
  0
LINE
  8
0
 10
0.433793
 20
-4.12726
 11
0.649202
 21
-4.09891
  0
LINE
  8
0
 10
0.649202
 20
-4.09891
 11
0.862833
 21
-4.05931
  0
LINE
  8
0
 10
0.862833
 20
-4.05931
 11
1.0741
 21
-4.00859
  0
LINE
  8
0
 10
1.0741
 20
-4.00859
 11
1.28242
 21
-3.94688
  0
LINE
  8
0
 10
1.28242
 20
-3.94688
 11
1.48723
 21
-3.87436
  0
LINE
  8
0
 10
1.48723
 20
-3.87436
 11
1.68796
 21
-3.79121
  0
LINE
  8
0
 10
1.68796
 20
-3.79121
 11
1.88406
 21
-3.69768
  0
LINE
  8
0
 10
1.88406
 20
-3.69768
 11
2.075
 21
-3.594
  0
LINE
  8
0
 10
2.075
 20
-3.594
 11
2.26025
 21
-3.48048
  0
LINE
  8
0
 10
2.26025
 20
-3.48048
 11
2.43931
 21
-3.35742
  0
LINE
  8
0
 10
2.43931
 20
-3.35742
 11
2.61168
 21
-3.22515
  0
LINE
  8
0
 10
2.61168
 20
-3.22515
 11
2.77689
 21
-3.08405
  0
LINE
  8
0
 10
2.77689
 20
-3.08405
 11
2.93449
 21
-2.93449
  0
LINE
  8
0
 10
2.93449
 20
-2.93449
 11
3.08405
 21
-2.77689
  0
LINE
  8
0
 10
3.08405
 20
-2.77689
 11
3.22515
 21
-2.61168
  0
LINE
  8
0
 10
3.22515
 20
-2.61168
 11
3.35742
 21
-2.43931
  0
LINE
  8
0
 10
3.35742
 20
-2.43931
 11
3.48048
 21
-2.26025
  0
LINE
  8
0
 10
3.48048
 20
-2.26025
 11
3.594
 21
-2.075
  0
LINE
  8
0
 10
3.594
 20
-2.075
 11
3.69768
 21
-1.88406
  0
LINE
  8
0
 10
3.69768
 20
-1.88406
 11
3.79121
 21
-1.68796
  0
LINE
  8
0
 10
3.79121
 20
-1.68796
 11
3.87436
 21
-1.48723
  0
LINE
  8
0
 10
3.87436
 20
-1.48723
 11
3.94688
 21
-1.28242
  0
LINE
  8
0
 10
3.94688
 20
-1.28242
 11
4.00859
 21
-1.0741
  0
LINE
  8
0
 10
4.00859
 20
-1.0741
 11
4.05931
 21
-0.862833
  0
LINE
  8
0
 10
4.05931
 20
-0.862833
 11
4.09891
 21
-0.649202
  0
LINE
  8
0
 10
4.09891
 20
-0.649202
 11
4.12726
 21
-0.433793
  0
LINE
  8
0
 10
4.12726
 20
-0.433793
 11
4.14431
 21
-0.217194
  0
LINE
  8
0
 10
4.14431
 20
-0.217194
 11
4.15
 21
0
  0
LINE
  8
0
 10
4.15
 20
0
 11
4.14431
 21
0.217194
  0
LINE
  8
0
 10
4.14431
 20
0.217194
 11
4.12726
 21
0.433793
  0
LINE
  8
0
 10
4.12726
 20
0.433793
 11
4.09891
 21
0.649202
  0
LINE
  8
0
 10
4.09891
 20
0.649202
 11
4.05931
 21
0.862833
  0
LINE
  8
0
 10
4.05931
 20
0.862833
 11
4.00859
 21
1.0741
  0
LINE
  8
0
 10
4.00859
 20
1.0741
 11
3.94688
 21
1.28242
  0
LINE
  8
0
 10
3.94688
 20
1.28242
 11
3.87436
 21
1.48723
  0
LINE
  8
0
 10
3.87436
 20
1.48723
 11
3.79121
 21
1.68796
  0
LINE
  8
0
 10
3.79121
 20
1.68796
 11
3.69768
 21
1.88406
  0
LINE
  8
0
 10
3.69768
 20
1.88406
 11
3.594
 21
2.075
  0
LINE
  8
0
 10
3.594
 20
2.075
 11
3.48048
 21
2.26025
  0
LINE
  8
0
 10
3.48048
 20
2.26025
 11
3.35742
 21
2.43931
  0
LINE
  8
0
 10
3.35742
 20
2.43931
 11
3.22515
 21
2.61168
  0
LINE
  8
0
 10
3.22515
 20
2.61168
 11
3.08405
 21
2.77689
  0
LINE
  8
0
 10
3.08405
 20
2.77689
 11
2.93449
 21
2.93449
  0
LINE
  8
0
 10
2.93449
 20
2.93449
 11
2.77689
 21
3.08405
  0
LINE
  8
0
 10
2.77689
 20
3.08405
 11
2.61168
 21
3.22515
  0
LINE
  8
0
 10
2.61168
 20
3.22515
 11
2.43931
 21
3.35742
  0
LINE
  8
0
 10
2.43931
 20
3.35742
 11
2.26025
 21
3.48048
  0
LINE
  8
0
 10
2.26025
 20
3.48048
 11
2.075
 21
3.594
  0
LINE
  8
0
 10
2.075
 20
3.594
 11
1.88406
 21
3.69768
  0
LINE
  8
0
 10
1.88406
 20
3.69768
 11
1.68796
 21
3.79121
  0
LINE
  8
0
 10
1.68796
 20
3.79121
 11
1.48723
 21
3.87436
  0
LINE
  8
0
 10
1.48723
 20
3.87436
 11
1.28242
 21
3.94688
  0
LINE
  8
0
 10
1.28242
 20
3.94688
 11
1.0741
 21
4.00859
  0
LINE
  8
0
 10
1.0741
 20
4.00859
 11
0.862833
 21
4.05931
  0
LINE
  8
0
 10
0.862833
 20
4.05931
 11
0.649202
 21
4.09891
  0
LINE
  8
0
 10
0.649202
 20
4.09891
 11
0.433793
 21
4.12726
  0
LINE
  8
0
 10
0.433793
 20
4.12726
 11
0.217194
 21
4.14431
  0
LINE
  8
0
 10
0.217194
 20
4.14431
 11
0
 21
4.15
  0
LINE
  8
0
 10
0
 20
4.15
 11
-0.217194
 21
4.14431
  0
LINE
  8
0
 10
-0.217194
 20
4.14431
 11
-0.433793
 21
4.12726
  0
LINE
  8
0
 10
-0.433793
 20
4.12726
 11
-0.649202
 21
4.09891
  0
LINE
  8
0
 10
-0.649202
 20
4.09891
 11
-0.862833
 21
4.05931
  0
LINE
  8
0
 10
-0.862833
 20
4.05931
 11
-1.0741
 21
4.00859
  0
LINE
  8
0
 10
-1.0741
 20
4.00859
 11
-1.28242
 21
3.94688
  0
LINE
  8
0
 10
-1.28242
 20
3.94688
 11
-1.48723
 21
3.87436
  0
LINE
  8
0
 10
-1.48723
 20
3.87436
 11
-1.68796
 21
3.79121
  0
LINE
  8
0
 10
-1.68796
 20
3.79121
 11
-1.88406
 21
3.69768
  0
LINE
  8
0
 10
-1.88406
 20
3.69768
 11
-2.075
 21
3.594
  0
LINE
  8
0
 10
-2.075
 20
3.594
 11
-2.26025
 21
3.48048
  0
LINE
  8
0
 10
-2.26025
 20
3.48048
 11
-2.43931
 21
3.35742
  0
LINE
  8
0
 10
-2.43931
 20
3.35742
 11
-2.61168
 21
3.22515
  0
LINE
  8
0
 10
-2.61168
 20
3.22515
 11
-2.77689
 21
3.08405
  0
LINE
  8
0
 10
-2.77689
 20
3.08405
 11
-2.93449
 21
2.93449
  0
LINE
  8
0
 10
-2.93449
 20
2.93449
 11
-3.08405
 21
2.77689
  0
LINE
  8
0
 10
-3.08405
 20
2.77689
 11
-3.22515
 21
2.61168
  0
LINE
  8
0
 10
-3.22515
 20
2.61168
 11
-3.35742
 21
2.43931
  0
LINE
  8
0
 10
-3.35742
 20
2.43931
 11
-3.48048
 21
2.26025
  0
LINE
  8
0
 10
-3.48048
 20
2.26025
 11
-3.594
 21
2.075
  0
LINE
  8
0
 10
-3.594
 20
2.075
 11
-3.69768
 21
1.88406
  0
LINE
  8
0
 10
-3.69768
 20
1.88406
 11
-3.79121
 21
1.68796
  0
LINE
  8
0
 10
-3.79121
 20
1.68796
 11
-3.87436
 21
1.48723
  0
LINE
  8
0
 10
-3.87436
 20
1.48723
 11
-3.94688
 21
1.28242
  0
LINE
  8
0
 10
-3.94688
 20
1.28242
 11
-4.00859
 21
1.0741
  0
LINE
  8
0
 10
-4.00859
 20
1.0741
 11
-4.05931
 21
0.862833
  0
LINE
  8
0
 10
-4.05931
 20
0.862833
 11
-4.09891
 21
0.649202
  0
LINE
  8
0
 10
-4.09891
 20
0.649202
 11
-4.12726
 21
0.433793
  0
LINE
  8
0
 10
-4.12726
 20
0.433793
 11
-4.14431
 21
0.217194
  0
LINE
  8
0
 10
-4.14431
 20
0.217194
 11
-4.15
 21
0
  0
LINE
  8
0
 10
-1.9
 20
0
 11
-1.8974
 21
0.0994377
  0
LINE
  8
0
 10
-1.8974
 20
0.0994377
 11
-1.88959
 21
0.198604
  0
LINE
  8
0
 10
-1.88959
 20
0.198604
 11
-1.87661
 21
0.297225
  0
LINE
  8
0
 10
-1.87661
 20
0.297225
 11
-1.85848
 21
0.395032
  0
LINE
  8
0
 10
-1.85848
 20
0.395032
 11
-1.83526
 21
0.491755
  0
LINE
  8
0
 10
-1.83526
 20
0.491755
 11
-1.80701
 21
0.587132
  0
LINE
  8
0
 10
-1.80701
 20
0.587132
 11
-1.7738
 21
0.680899
  0
LINE
  8
0
 10
-1.7738
 20
0.680899
 11
-1.73574
 21
0.772799
  0
LINE
  8
0
 10
-1.73574
 20
0.772799
 11
-1.69291
 21
0.862581
  0
LINE
  8
0
 10
-1.69291
 20
0.862581
 11
-1.64545
 21
0.95
  0
LINE
  8
0
 10
-1.64545
 20
0.95
 11
-1.59347
 21
1.03481
  0
LINE
  8
0
 10
-1.59347
 20
1.03481
 11
-1.53713
 21
1.11679
  0
LINE
  8
0
 10
-1.53713
 20
1.11679
 11
-1.47658
 21
1.19571
  0
LINE
  8
0
 10
-1.47658
 20
1.19571
 11
-1.41197
 21
1.27135
  0
LINE
  8
0
 10
-1.41197
 20
1.27135
 11
-1.3435
 21
1.3435
  0
LINE
  8
0
 10
-1.3435
 20
1.3435
 11
-1.27135
 21
1.41197
  0
LINE
  8
0
 10
-1.27135
 20
1.41197
 11
-1.19571
 21
1.47658
  0
LINE
  8
0
 10
-1.19571
 20
1.47658
 11
-1.11679
 21
1.53713
  0
LINE
  8
0
 10
-1.11679
 20
1.53713
 11
-1.03481
 21
1.59347
  0
LINE
  8
0
 10
-1.03481
 20
1.59347
 11
-0.95
 21
1.64545
  0
LINE
  8
0
 10
-0.95
 20
1.64545
 11
-0.862581
 21
1.69291
  0
LINE
  8
0
 10
-0.862581
 20
1.69291
 11
-0.772799
 21
1.73574
  0
LINE
  8
0
 10
-0.772799
 20
1.73574
 11
-0.680899
 21
1.7738
  0
LINE
  8
0
 10
-0.680899
 20
1.7738
 11
-0.587132
 21
1.80701
  0
LINE
  8
0
 10
-0.587132
 20
1.80701
 11
-0.491755
 21
1.83526
  0
LINE
  8
0
 10
-0.491755
 20
1.83526
 11
-0.395032
 21
1.85848
  0
LINE
  8
0
 10
-0.395032
 20
1.85848
 11
-0.297225
 21
1.87661
  0
LINE
  8
0
 10
-0.297225
 20
1.87661
 11
-0.198604
 21
1.88959
  0
LINE
  8
0
 10
-0.198604
 20
1.88959
 11
-0.0994377
 21
1.8974
  0
LINE
  8
0
 10
-0.0994377
 20
1.8974
 11
0
 21
1.9
  0
LINE
  8
0
 10
0
 20
1.9
 11
0.0994377
 21
1.8974
  0
LINE
  8
0
 10
0.0994377
 20
1.8974
 11
0.198604
 21
1.88959
  0
LINE
  8
0
 10
0.198604
 20
1.88959
 11
0.297225
 21
1.87661
  0
LINE
  8
0
 10
0.297225
 20
1.87661
 11
0.395032
 21
1.85848
  0
LINE
  8
0
 10
0.395032
 20
1.85848
 11
0.491755
 21
1.83526
  0
LINE
  8
0
 10
0.491755
 20
1.83526
 11
0.587132
 21
1.80701
  0
LINE
  8
0
 10
0.587132
 20
1.80701
 11
0.680899
 21
1.7738
  0
LINE
  8
0
 10
0.680899
 20
1.7738
 11
0.772799
 21
1.73574
  0
LINE
  8
0
 10
0.772799
 20
1.73574
 11
0.862581
 21
1.69291
  0
LINE
  8
0
 10
0.862581
 20
1.69291
 11
0.95
 21
1.64545
  0
LINE
  8
0
 10
0.95
 20
1.64545
 11
1.03481
 21
1.59347
  0
LINE
  8
0
 10
1.03481
 20
1.59347
 11
1.11679
 21
1.53713
  0
LINE
  8
0
 10
1.11679
 20
1.53713
 11
1.19571
 21
1.47658
  0
LINE
  8
0
 10
1.19571
 20
1.47658
 11
1.27135
 21
1.41197
  0
LINE
  8
0
 10
1.27135
 20
1.41197
 11
1.3435
 21
1.3435
  0
LINE
  8
0
 10
1.3435
 20
1.3435
 11
1.41197
 21
1.27135
  0
LINE
  8
0
 10
1.41197
 20
1.27135
 11
1.47658
 21
1.19571
  0
LINE
  8
0
 10
1.47658
 20
1.19571
 11
1.53713
 21
1.11679
  0
LINE
  8
0
 10
1.53713
 20
1.11679
 11
1.59347
 21
1.03481
  0
LINE
  8
0
 10
1.59347
 20
1.03481
 11
1.64545
 21
0.95
  0
LINE
  8
0
 10
1.64545
 20
0.95
 11
1.69291
 21
0.862581
  0
LINE
  8
0
 10
1.69291
 20
0.862581
 11
1.73574
 21
0.772799
  0
LINE
  8
0
 10
1.73574
 20
0.772799
 11
1.7738
 21
0.680899
  0
LINE
  8
0
 10
1.7738
 20
0.680899
 11
1.80701
 21
0.587132
  0
LINE
  8
0
 10
1.80701
 20
0.587132
 11
1.83526
 21
0.491755
  0
LINE
  8
0
 10
1.83526
 20
0.491755
 11
1.85848
 21
0.395032
  0
LINE
  8
0
 10
1.85848
 20
0.395032
 11
1.87661
 21
0.297225
  0
LINE
  8
0
 10
1.87661
 20
0.297225
 11
1.88959
 21
0.198604
  0
LINE
  8
0
 10
1.88959
 20
0.198604
 11
1.8974
 21
0.0994377
  0
LINE
  8
0
 10
1.8974
 20
0.0994377
 11
1.9
 21
0
  0
LINE
  8
0
 10
1.9
 20
0
 11
1.8974
 21
-0.0994377
  0
LINE
  8
0
 10
1.8974
 20
-0.0994377
 11
1.88959
 21
-0.198604
  0
LINE
  8
0
 10
1.88959
 20
-0.198604
 11
1.87661
 21
-0.297225
  0
LINE
  8
0
 10
1.87661
 20
-0.297225
 11
1.85848
 21
-0.395032
  0
LINE
  8
0
 10
1.85848
 20
-0.395032
 11
1.83526
 21
-0.491755
  0
LINE
  8
0
 10
1.83526
 20
-0.491755
 11
1.80701
 21
-0.587132
  0
LINE
  8
0
 10
1.80701
 20
-0.587132
 11
1.7738
 21
-0.680899
  0
LINE
  8
0
 10
1.7738
 20
-0.680899
 11
1.73574
 21
-0.772799
  0
LINE
  8
0
 10
1.73574
 20
-0.772799
 11
1.69291
 21
-0.862581
  0
LINE
  8
0
 10
1.69291
 20
-0.862581
 11
1.64545
 21
-0.95
  0
LINE
  8
0
 10
1.64545
 20
-0.95
 11
1.59347
 21
-1.03481
  0
LINE
  8
0
 10
1.59347
 20
-1.03481
 11
1.53713
 21
-1.11679
  0
LINE
  8
0
 10
1.53713
 20
-1.11679
 11
1.47658
 21
-1.19571
  0
LINE
  8
0
 10
1.47658
 20
-1.19571
 11
1.41197
 21
-1.27135
  0
LINE
  8
0
 10
1.41197
 20
-1.27135
 11
1.3435
 21
-1.3435
  0
LINE
  8
0
 10
1.3435
 20
-1.3435
 11
1.27135
 21
-1.41197
  0
LINE
  8
0
 10
1.27135
 20
-1.41197
 11
1.19571
 21
-1.47658
  0
LINE
  8
0
 10
1.19571
 20
-1.47658
 11
1.11679
 21
-1.53713
  0
LINE
  8
0
 10
1.11679
 20
-1.53713
 11
1.03481
 21
-1.59347
  0
LINE
  8
0
 10
1.03481
 20
-1.59347
 11
0.95
 21
-1.64545
  0
LINE
  8
0
 10
0.95
 20
-1.64545
 11
0.862581
 21
-1.69291
  0
LINE
  8
0
 10
0.862581
 20
-1.69291
 11
0.772799
 21
-1.73574
  0
LINE
  8
0
 10
0.772799
 20
-1.73574
 11
0.680899
 21
-1.7738
  0
LINE
  8
0
 10
0.680899
 20
-1.7738
 11
0.587132
 21
-1.80701
  0
LINE
  8
0
 10
0.587132
 20
-1.80701
 11
0.491755
 21
-1.83526
  0
LINE
  8
0
 10
0.491755
 20
-1.83526
 11
0.395032
 21
-1.85848
  0
LINE
  8
0
 10
0.395032
 20
-1.85848
 11
0.297225
 21
-1.87661
  0
LINE
  8
0
 10
0.297225
 20
-1.87661
 11
0.198604
 21
-1.88959
  0
LINE
  8
0
 10
0.198604
 20
-1.88959
 11
0.0994377
 21
-1.8974
  0
LINE
  8
0
 10
0.0994377
 20
-1.8974
 11
0
 21
-1.9
  0
LINE
  8
0
 10
0
 20
-1.9
 11
-0.0994377
 21
-1.8974
  0
LINE
  8
0
 10
-0.0994377
 20
-1.8974
 11
-0.198604
 21
-1.88959
  0
LINE
  8
0
 10
-0.198604
 20
-1.88959
 11
-0.297225
 21
-1.87661
  0
LINE
  8
0
 10
-0.297225
 20
-1.87661
 11
-0.395032
 21
-1.85848
  0
LINE
  8
0
 10
-0.395032
 20
-1.85848
 11
-0.491755
 21
-1.83526
  0
LINE
  8
0
 10
-0.491755
 20
-1.83526
 11
-0.587132
 21
-1.80701
  0
LINE
  8
0
 10
-0.587132
 20
-1.80701
 11
-0.680899
 21
-1.7738
  0
LINE
  8
0
 10
-0.680899
 20
-1.7738
 11
-0.772799
 21
-1.73574
  0
LINE
  8
0
 10
-0.772799
 20
-1.73574
 11
-0.862581
 21
-1.69291
  0
LINE
  8
0
 10
-0.862581
 20
-1.69291
 11
-0.95
 21
-1.64545
  0
LINE
  8
0
 10
-0.95
 20
-1.64545
 11
-1.03481
 21
-1.59347
  0
LINE
  8
0
 10
-1.03481
 20
-1.59347
 11
-1.11679
 21
-1.53713
  0
LINE
  8
0
 10
-1.11679
 20
-1.53713
 11
-1.19571
 21
-1.47658
  0
LINE
  8
0
 10
-1.19571
 20
-1.47658
 11
-1.27135
 21
-1.41197
  0
LINE
  8
0
 10
-1.27135
 20
-1.41197
 11
-1.3435
 21
-1.3435
  0
LINE
  8
0
 10
-1.3435
 20
-1.3435
 11
-1.41197
 21
-1.27135
  0
LINE
  8
0
 10
-1.41197
 20
-1.27135
 11
-1.47658
 21
-1.19571
  0
LINE
  8
0
 10
-1.47658
 20
-1.19571
 11
-1.53713
 21
-1.11679
  0
LINE
  8
0
 10
-1.53713
 20
-1.11679
 11
-1.59347
 21
-1.03481
  0
LINE
  8
0
 10
-1.59347
 20
-1.03481
 11
-1.64545
 21
-0.95
  0
LINE
  8
0
 10
-1.64545
 20
-0.95
 11
-1.69291
 21
-0.862581
  0
LINE
  8
0
 10
-1.69291
 20
-0.862581
 11
-1.73574
 21
-0.772799
  0
LINE
  8
0
 10
-1.73574
 20
-0.772799
 11
-1.7738
 21
-0.680899
  0
LINE
  8
0
 10
-1.7738
 20
-0.680899
 11
-1.80701
 21
-0.587132
  0
LINE
  8
0
 10
-1.80701
 20
-0.587132
 11
-1.83526
 21
-0.491755
  0
LINE
  8
0
 10
-1.83526
 20
-0.491755
 11
-1.85848
 21
-0.395032
  0
LINE
  8
0
 10
-1.85848
 20
-0.395032
 11
-1.87661
 21
-0.297225
  0
LINE
  8
0
 10
-1.87661
 20
-0.297225
 11
-1.88959
 21
-0.198604
  0
LINE
  8
0
 10
-1.88959
 20
-0.198604
 11
-1.8974
 21
-0.0994377
  0
LINE
  8
0
 10
-1.8974
 20
-0.0994377
 11
-1.9
 21
0
  0
ENDSEC
  0
SECTION
  2
OBJECTS
  0
DICTIONARY
  0
ENDSEC
  0
EOF
