  0
SECTION
  2
BLOCKS
  0
ENDSEC
  0
SECTION
  2
ENTITIES
  0
LINE
  8
0
 10
-8.24
 20
-9.9
 11
-7.72949
 21
-9.9
  0
LINE
  8
0
 10
-7.72949
 20
-9.9
 11
-7.49426
 21
-9.67678
  0
LINE
  8
0
 10
-7.49426
 20
-9.67678
 11
-7.04839
 21
-9.29597
  0
LINE
  8
0
 10
-7.04839
 20
-9.29597
 11
-6.58319
 21
-8.93901
  0
LINE
  8
0
 10
-6.58319
 20
-8.93901
 11
-6.09996
 21
-8.60689
  0
LINE
  8
0
 10
-6.09996
 20
-8.60689
 11
-5.6
 21
-8.30052
  0
LINE
  8
0
 10
-5.6
 20
-8.30052
 11
-5.08469
 21
-8.02073
  0
LINE
  8
0
 10
-5.08469
 20
-8.02073
 11
-4.55545
 21
-7.76829
  0
LINE
  8
0
 10
-4.55545
 20
-7.76829
 11
-4.01372
 21
-7.5439
  0
LINE
  8
0
 10
-4.01372
 20
-7.5439
 11
-3.46099
 21
-7.34817
  0
LINE
  8
0
 10
-3.46099
 20
-7.34817
 11
-2.89877
 21
-7.18163
  0
LINE
  8
0
 10
-2.89877
 20
-7.18163
 11
-2.32861
 21
-7.04475
  0
LINE
  8
0
 10
-2.32861
 20
-7.04475
 11
-1.75207
 21
-6.93789
  0
LINE
  8
0
 10
-1.75207
 20
-6.93789
 11
-1.17072
 21
-6.86135
  0
LINE
  8
0
 10
-1.17072
 20
-6.86135
 11
-0.586163
 21
-6.81535
  0
LINE
  8
0
 10
-0.586163
 20
-6.81535
 11
0
 21
-6.8
  0
LINE
  8
0
 10
0
 20
-6.8
 11
0.586163
 21
-6.81535
  0
LINE
  8
0
 10
0.586163
 20
-6.81535
 11
1.17072
 21
-6.86135
  0
LINE
  8
0
 10
1.17072
 20
-6.86135
 11
1.75207
 21
-6.93789
  0
LINE
  8
0
 10
1.75207
 20
-6.93789
 11
2.32861
 21
-7.04475
  0
LINE
  8
0
 10
2.32861
 20
-7.04475
 11
2.89877
 21
-7.18163
  0
LINE
  8
0
 10
2.89877
 20
-7.18163
 11
3.46099
 21
-7.34817
  0
LINE
  8
0
 10
3.46099
 20
-7.34817
 11
4.01372
 21
-7.5439
  0
LINE
  8
0
 10
4.01372
 20
-7.5439
 11
4.55545
 21
-7.76829
  0
LINE
  8
0
 10
4.55545
 20
-7.76829
 11
5.08469
 21
-8.02073
  0
LINE
  8
0
 10
5.08469
 20
-8.02073
 11
5.6
 21
-8.30052
  0
LINE
  8
0
 10
5.6
 20
-8.30052
 11
6.09996
 21
-8.60689
  0
LINE
  8
0
 10
6.09996
 20
-8.60689
 11
6.58319
 21
-8.93901
  0
LINE
  8
0
 10
6.58319
 20
-8.93901
 11
7.04839
 21
-9.29597
  0
LINE
  8
0
 10
7.04839
 20
-9.29597
 11
7.49426
 21
-9.67678
  0
LINE
  8
0
 10
7.49426
 20
-9.67678
 11
7.72949
 21
-9.9
  0
LINE
  8
0
 10
7.72949
 20
-9.9
 11
8.24
 21
-9.9
  0
LINE
  8
0
 10
8.24
 20
-9.9
 11
8.24
 21
9.9
  0
LINE
  8
0
 10
8.24
 20
9.9
 11
7.72949
 21
9.9
  0
LINE
  8
0
 10
7.72949
 20
9.9
 11
7.49426
 21
9.67678
  0
LINE
  8
0
 10
7.49426
 20
9.67678
 11
7.04839
 21
9.29597
  0
LINE
  8
0
 10
7.04839
 20
9.29597
 11
6.58319
 21
8.93901
  0
LINE
  8
0
 10
6.58319
 20
8.93901
 11
6.09996
 21
8.60689
  0
LINE
  8
0
 10
6.09996
 20
8.60689
 11
5.6
 21
8.30052
  0
LINE
  8
0
 10
5.6
 20
8.30052
 11
5.08469
 21
8.02073
  0
LINE
  8
0
 10
5.08469
 20
8.02073
 11
4.55545
 21
7.76829
  0
LINE
  8
0
 10
4.55545
 20
7.76829
 11
4.01372
 21
7.5439
  0
LINE
  8
0
 10
4.01372
 20
7.5439
 11
3.46099
 21
7.34817
  0
LINE
  8
0
 10
3.46099
 20
7.34817
 11
2.89877
 21
7.18163
  0
LINE
  8
0
 10
2.89877
 20
7.18163
 11
2.32861
 21
7.04475
  0
LINE
  8
0
 10
2.32861
 20
7.04475
 11
1.75207
 21
6.93789
  0
LINE
  8
0
 10
1.75207
 20
6.93789
 11
1.17072
 21
6.86135
  0
LINE
  8
0
 10
1.17072
 20
6.86135
 11
0.586163
 21
6.81535
  0
LINE
  8
0
 10
0.586163
 20
6.81535
 11
0
 21
6.8
  0
LINE
  8
0
 10
0
 20
6.8
 11
-0.586163
 21
6.81535
  0
LINE
  8
0
 10
-0.586163
 20
6.81535
 11
-1.17072
 21
6.86135
  0
LINE
  8
0
 10
-1.17072
 20
6.86135
 11
-1.75207
 21
6.93789
  0
LINE
  8
0
 10
-1.75207
 20
6.93789
 11
-2.32861
 21
7.04475
  0
LINE
  8
0
 10
-2.32861
 20
7.04475
 11
-2.89877
 21
7.18163
  0
LINE
  8
0
 10
-2.89877
 20
7.18163
 11
-3.46099
 21
7.34817
  0
LINE
  8
0
 10
-3.46099
 20
7.34817
 11
-4.01372
 21
7.5439
  0
LINE
  8
0
 10
-4.01372
 20
7.5439
 11
-4.55545
 21
7.76829
  0
LINE
  8
0
 10
-4.55545
 20
7.76829
 11
-5.08469
 21
8.02073
  0
LINE
  8
0
 10
-5.08469
 20
8.02073
 11
-5.6
 21
8.30052
  0
LINE
  8
0
 10
-5.6
 20
8.30052
 11
-6.09996
 21
8.60689
  0
LINE
  8
0
 10
-6.09996
 20
8.60689
 11
-6.58319
 21
8.93901
  0
LINE
  8
0
 10
-6.58319
 20
8.93901
 11
-7.04839
 21
9.29597
  0
LINE
  8
0
 10
-7.04839
 20
9.29597
 11
-7.49426
 21
9.67678
  0
LINE
  8
0
 10
-7.49426
 20
9.67678
 11
-7.72949
 21
9.9
  0
LINE
  8
0
 10
-7.72949
 20
9.9
 11
-8.24
 21
9.9
  0
LINE
  8
0
 10
-8.24
 20
9.9
 11
-8.24
 21
-9.9
  0
LINE
  8
0
 10
-4
 20
0
 11
-3.99452
 21
0.209343
  0
LINE
  8
0
 10
-3.99452
 20
0.209343
 11
-3.97809
 21
0.418114
  0
LINE
  8
0
 10
-3.97809
 20
0.418114
 11
-3.95075
 21
0.625737
  0
LINE
  8
0
 10
-3.95075
 20
0.625737
 11
-3.91259
 21
0.831646
  0
LINE
  8
0
 10
-3.91259
 20
0.831646
 11
-3.8637
 21
1.03528
  0
LINE
  8
0
 10
-3.8637
 20
1.03528
 11
-3.80423
 21
1.23607
  0
LINE
  8
0
 10
-3.80423
 20
1.23607
 11
-3.73432
 21
1.43347
  0
LINE
  8
0
 10
-3.73432
 20
1.43347
 11
-3.65418
 21
1.62695
  0
LINE
  8
0
 10
-3.65418
 20
1.62695
 11
-3.56403
 21
1.81596
  0
LINE
  8
0
 10
-3.56403
 20
1.81596
 11
-3.4641
 21
2
  0
LINE
  8
0
 10
-3.4641
 20
2
 11
-3.35468
 21
2.17856
  0
LINE
  8
0
 10
-3.35468
 20
2.17856
 11
-3.23607
 21
2.35114
  0
LINE
  8
0
 10
-3.23607
 20
2.35114
 11
-3.10858
 21
2.51728
  0
LINE
  8
0
 10
-3.10858
 20
2.51728
 11
-2.97258
 21
2.67652
  0
LINE
  8
0
 10
-2.97258
 20
2.67652
 11
-2.82843
 21
2.82843
  0
LINE
  8
0
 10
-2.82843
 20
2.82843
 11
-2.67652
 21
2.97258
  0
LINE
  8
0
 10
-2.67652
 20
2.97258
 11
-2.51728
 21
3.10858
  0
LINE
  8
0
 10
-2.51728
 20
3.10858
 11
-2.35114
 21
3.23607
  0
LINE
  8
0
 10
-2.35114
 20
3.23607
 11
-2.17856
 21
3.35468
  0
LINE
  8
0
 10
-2.17856
 20
3.35468
 11
-2
 21
3.4641
  0
LINE
  8
0
 10
-2
 20
3.4641
 11
-1.81596
 21
3.56403
  0
LINE
  8
0
 10
-1.81596
 20
3.56403
 11
-1.62695
 21
3.65418
  0
LINE
  8
0
 10
-1.62695
 20
3.65418
 11
-1.43347
 21
3.73432
  0
LINE
  8
0
 10
-1.43347
 20
3.73432
 11
-1.23607
 21
3.80423
  0
LINE
  8
0
 10
-1.23607
 20
3.80423
 11
-1.03528
 21
3.8637
  0
LINE
  8
0
 10
-1.03528
 20
3.8637
 11
-0.831646
 21
3.91259
  0
LINE
  8
0
 10
-0.831646
 20
3.91259
 11
-0.625737
 21
3.95075
  0
LINE
  8
0
 10
-0.625737
 20
3.95075
 11
-0.418114
 21
3.97809
  0
LINE
  8
0
 10
-0.418114
 20
3.97809
 11
-0.209343
 21
3.99452
  0
LINE
  8
0
 10
-0.209343
 20
3.99452
 11
0
 21
4
  0
LINE
  8
0
 10
0
 20
4
 11
0.209343
 21
3.99452
  0
LINE
  8
0
 10
0.209343
 20
3.99452
 11
0.418114
 21
3.97809
  0
LINE
  8
0
 10
0.418114
 20
3.97809
 11
0.625737
 21
3.95075
  0
LINE
  8
0
 10
0.625737
 20
3.95075
 11
0.831646
 21
3.91259
  0
LINE
  8
0
 10
0.831646
 20
3.91259
 11
1.03528
 21
3.8637
  0
LINE
  8
0
 10
1.03528
 20
3.8637
 11
1.23607
 21
3.80423
  0
LINE
  8
0
 10
1.23607
 20
3.80423
 11
1.43347
 21
3.73432
  0
LINE
  8
0
 10
1.43347
 20
3.73432
 11
1.62695
 21
3.65418
  0
LINE
  8
0
 10
1.62695
 20
3.65418
 11
1.81596
 21
3.56403
  0
LINE
  8
0
 10
1.81596
 20
3.56403
 11
2
 21
3.4641
  0
LINE
  8
0
 10
2
 20
3.4641
 11
2.17856
 21
3.35468
  0
LINE
  8
0
 10
2.17856
 20
3.35468
 11
2.35114
 21
3.23607
  0
LINE
  8
0
 10
2.35114
 20
3.23607
 11
2.51728
 21
3.10858
  0
LINE
  8
0
 10
2.51728
 20
3.10858
 11
2.67652
 21
2.97258
  0
LINE
  8
0
 10
2.67652
 20
2.97258
 11
2.82843
 21
2.82843
  0
LINE
  8
0
 10
2.82843
 20
2.82843
 11
2.97258
 21
2.67652
  0
LINE
  8
0
 10
2.97258
 20
2.67652
 11
3.10858
 21
2.51728
  0
LINE
  8
0
 10
3.10858
 20
2.51728
 11
3.23607
 21
2.35114
  0
LINE
  8
0
 10
3.23607
 20
2.35114
 11
3.35468
 21
2.17856
  0
LINE
  8
0
 10
3.35468
 20
2.17856
 11
3.4641
 21
2
  0
LINE
  8
0
 10
3.4641
 20
2
 11
3.56403
 21
1.81596
  0
LINE
  8
0
 10
3.56403
 20
1.81596
 11
3.65418
 21
1.62695
  0
LINE
  8
0
 10
3.65418
 20
1.62695
 11
3.73432
 21
1.43347
  0
LINE
  8
0
 10
3.73432
 20
1.43347
 11
3.80423
 21
1.23607
  0
LINE
  8
0
 10
3.80423
 20
1.23607
 11
3.8637
 21
1.03528
  0
LINE
  8
0
 10
3.8637
 20
1.03528
 11
3.91259
 21
0.831646
  0
LINE
  8
0
 10
3.91259
 20
0.831646
 11
3.95075
 21
0.625737
  0
LINE
  8
0
 10
3.95075
 20
0.625737
 11
3.97809
 21
0.418114
  0
LINE
  8
0
 10
3.97809
 20
0.418114
 11
3.99452
 21
0.209343
  0
LINE
  8
0
 10
3.99452
 20
0.209343
 11
4
 21
0
  0
LINE
  8
0
 10
4
 20
0
 11
3.99452
 21
-0.209343
  0
LINE
  8
0
 10
3.99452
 20
-0.209343
 11
3.97809
 21
-0.418114
  0
LINE
  8
0
 10
3.97809
 20
-0.418114
 11
3.95075
 21
-0.625737
  0
LINE
  8
0
 10
3.95075
 20
-0.625737
 11
3.91259
 21
-0.831646
  0
LINE
  8
0
 10
3.91259
 20
-0.831646
 11
3.8637
 21
-1.03528
  0
LINE
  8
0
 10
3.8637
 20
-1.03528
 11
3.80423
 21
-1.23607
  0
LINE
  8
0
 10
3.80423
 20
-1.23607
 11
3.73432
 21
-1.43347
  0
LINE
  8
0
 10
3.73432
 20
-1.43347
 11
3.65418
 21
-1.62695
  0
LINE
  8
0
 10
3.65418
 20
-1.62695
 11
3.56403
 21
-1.81596
  0
LINE
  8
0
 10
3.56403
 20
-1.81596
 11
3.4641
 21
-2
  0
LINE
  8
0
 10
3.4641
 20
-2
 11
3.35468
 21
-2.17856
  0
LINE
  8
0
 10
3.35468
 20
-2.17856
 11
3.23607
 21
-2.35114
  0
LINE
  8
0
 10
3.23607
 20
-2.35114
 11
3.10858
 21
-2.51728
  0
LINE
  8
0
 10
3.10858
 20
-2.51728
 11
2.97258
 21
-2.67652
  0
LINE
  8
0
 10
2.97258
 20
-2.67652
 11
2.82843
 21
-2.82843
  0
LINE
  8
0
 10
2.82843
 20
-2.82843
 11
2.67652
 21
-2.97258
  0
LINE
  8
0
 10
2.67652
 20
-2.97258
 11
2.51728
 21
-3.10858
  0
LINE
  8
0
 10
2.51728
 20
-3.10858
 11
2.35114
 21
-3.23607
  0
LINE
  8
0
 10
2.35114
 20
-3.23607
 11
2.17856
 21
-3.35468
  0
LINE
  8
0
 10
2.17856
 20
-3.35468
 11
2
 21
-3.4641
  0
LINE
  8
0
 10
2
 20
-3.4641
 11
1.81596
 21
-3.56403
  0
LINE
  8
0
 10
1.81596
 20
-3.56403
 11
1.62695
 21
-3.65418
  0
LINE
  8
0
 10
1.62695
 20
-3.65418
 11
1.43347
 21
-3.73432
  0
LINE
  8
0
 10
1.43347
 20
-3.73432
 11
1.23607
 21
-3.80423
  0
LINE
  8
0
 10
1.23607
 20
-3.80423
 11
1.03528
 21
-3.8637
  0
LINE
  8
0
 10
1.03528
 20
-3.8637
 11
0.831646
 21
-3.91259
  0
LINE
  8
0
 10
0.831646
 20
-3.91259
 11
0.625737
 21
-3.95075
  0
LINE
  8
0
 10
0.625737
 20
-3.95075
 11
0.418114
 21
-3.97809
  0
LINE
  8
0
 10
0.418114
 20
-3.97809
 11
0.209343
 21
-3.99452
  0
LINE
  8
0
 10
0.209343
 20
-3.99452
 11
0
 21
-4
  0
LINE
  8
0
 10
0
 20
-4
 11
-0.209343
 21
-3.99452
  0
LINE
  8
0
 10
-0.209343
 20
-3.99452
 11
-0.418114
 21
-3.97809
  0
LINE
  8
0
 10
-0.418114
 20
-3.97809
 11
-0.625737
 21
-3.95075
  0
LINE
  8
0
 10
-0.625737
 20
-3.95075
 11
-0.831646
 21
-3.91259
  0
LINE
  8
0
 10
-0.831646
 20
-3.91259
 11
-1.03528
 21
-3.8637
  0
LINE
  8
0
 10
-1.03528
 20
-3.8637
 11
-1.23607
 21
-3.80423
  0
LINE
  8
0
 10
-1.23607
 20
-3.80423
 11
-1.43347
 21
-3.73432
  0
LINE
  8
0
 10
-1.43347
 20
-3.73432
 11
-1.62695
 21
-3.65418
  0
LINE
  8
0
 10
-1.62695
 20
-3.65418
 11
-1.81596
 21
-3.56403
  0
LINE
  8
0
 10
-1.81596
 20
-3.56403
 11
-2
 21
-3.4641
  0
LINE
  8
0
 10
-2
 20
-3.4641
 11
-2.17856
 21
-3.35468
  0
LINE
  8
0
 10
-2.17856
 20
-3.35468
 11
-2.35114
 21
-3.23607
  0
LINE
  8
0
 10
-2.35114
 20
-3.23607
 11
-2.51728
 21
-3.10858
  0
LINE
  8
0
 10
-2.51728
 20
-3.10858
 11
-2.67652
 21
-2.97258
  0
LINE
  8
0
 10
-2.67652
 20
-2.97258
 11
-2.82843
 21
-2.82843
  0
LINE
  8
0
 10
-2.82843
 20
-2.82843
 11
-2.97258
 21
-2.67652
  0
LINE
  8
0
 10
-2.97258
 20
-2.67652
 11
-3.10858
 21
-2.51728
  0
LINE
  8
0
 10
-3.10858
 20
-2.51728
 11
-3.23607
 21
-2.35114
  0
LINE
  8
0
 10
-3.23607
 20
-2.35114
 11
-3.35468
 21
-2.17856
  0
LINE
  8
0
 10
-3.35468
 20
-2.17856
 11
-3.4641
 21
-2
  0
LINE
  8
0
 10
-3.4641
 20
-2
 11
-3.56403
 21
-1.81596
  0
LINE
  8
0
 10
-3.56403
 20
-1.81596
 11
-3.65418
 21
-1.62695
  0
LINE
  8
0
 10
-3.65418
 20
-1.62695
 11
-3.73432
 21
-1.43347
  0
LINE
  8
0
 10
-3.73432
 20
-1.43347
 11
-3.80423
 21
-1.23607
  0
LINE
  8
0
 10
-3.80423
 20
-1.23607
 11
-3.8637
 21
-1.03528
  0
LINE
  8
0
 10
-3.8637
 20
-1.03528
 11
-3.91259
 21
-0.831646
  0
LINE
  8
0
 10
-3.91259
 20
-0.831646
 11
-3.95075
 21
-0.625737
  0
LINE
  8
0
 10
-3.95075
 20
-0.625737
 11
-3.97809
 21
-0.418114
  0
LINE
  8
0
 10
-3.97809
 20
-0.418114
 11
-3.99452
 21
-0.209343
  0
LINE
  8
0
 10
-3.99452
 20
-0.209343
 11
-4
 21
0
  0
ENDSEC
  0
SECTION
  2
OBJECTS
  0
DICTIONARY
  0
ENDSEC
  0
EOF
