  0
SECTION
  2
BLOCKS
  0
ENDSEC
  0
SECTION
  2
ENTITIES
  0
LINE
  8
0
 10
-8.24
 20
-9.9
 11
-7.72949
 21
-9.9
  0
LINE
  8
0
 10
-7.72949
 20
-9.9
 11
-7.49426
 21
-9.67678
  0
LINE
  8
0
 10
-7.49426
 20
-9.67678
 11
-7.04839
 21
-9.29597
  0
LINE
  8
0
 10
-7.04839
 20
-9.29597
 11
-6.58319
 21
-8.93901
  0
LINE
  8
0
 10
-6.58319
 20
-8.93901
 11
-6.09996
 21
-8.60689
  0
LINE
  8
0
 10
-6.09996
 20
-8.60689
 11
-5.6
 21
-8.30052
  0
LINE
  8
0
 10
-5.6
 20
-8.30052
 11
-5.08469
 21
-8.02073
  0
LINE
  8
0
 10
-5.08469
 20
-8.02073
 11
-4.55545
 21
-7.76829
  0
LINE
  8
0
 10
-4.55545
 20
-7.76829
 11
-4.01372
 21
-7.5439
  0
LINE
  8
0
 10
-4.01372
 20
-7.5439
 11
-3.46099
 21
-7.34817
  0
LINE
  8
0
 10
-3.46099
 20
-7.34817
 11
-2.89877
 21
-7.18163
  0
LINE
  8
0
 10
-2.89877
 20
-7.18163
 11
-2.32861
 21
-7.04475
  0
LINE
  8
0
 10
-2.32861
 20
-7.04475
 11
-1.75207
 21
-6.93789
  0
LINE
  8
0
 10
-1.75207
 20
-6.93789
 11
-1.17072
 21
-6.86135
  0
LINE
  8
0
 10
-1.17072
 20
-6.86135
 11
-0.586163
 21
-6.81535
  0
LINE
  8
0
 10
-0.586163
 20
-6.81535
 11
0
 21
-6.8
  0
LINE
  8
0
 10
0
 20
-6.8
 11
0.586163
 21
-6.81535
  0
LINE
  8
0
 10
0.586163
 20
-6.81535
 11
1.17072
 21
-6.86135
  0
LINE
  8
0
 10
1.17072
 20
-6.86135
 11
1.75207
 21
-6.93789
  0
LINE
  8
0
 10
1.75207
 20
-6.93789
 11
2.32861
 21
-7.04475
  0
LINE
  8
0
 10
2.32861
 20
-7.04475
 11
2.89877
 21
-7.18163
  0
LINE
  8
0
 10
2.89877
 20
-7.18163
 11
3.46099
 21
-7.34817
  0
LINE
  8
0
 10
3.46099
 20
-7.34817
 11
4.01372
 21
-7.5439
  0
LINE
  8
0
 10
4.01372
 20
-7.5439
 11
4.55545
 21
-7.76829
  0
LINE
  8
0
 10
4.55545
 20
-7.76829
 11
5.08469
 21
-8.02073
  0
LINE
  8
0
 10
5.08469
 20
-8.02073
 11
5.6
 21
-8.30052
  0
LINE
  8
0
 10
5.6
 20
-8.30052
 11
6.09996
 21
-8.60689
  0
LINE
  8
0
 10
6.09996
 20
-8.60689
 11
6.58319
 21
-8.93901
  0
LINE
  8
0
 10
6.58319
 20
-8.93901
 11
7.04839
 21
-9.29597
  0
LINE
  8
0
 10
7.04839
 20
-9.29597
 11
7.49426
 21
-9.67678
  0
LINE
  8
0
 10
7.49426
 20
-9.67678
 11
7.72949
 21
-9.9
  0
LINE
  8
0
 10
7.72949
 20
-9.9
 11
8.24
 21
-9.9
  0
LINE
  8
0
 10
8.24
 20
-9.9
 11
8.24
 21
9.9
  0
LINE
  8
0
 10
8.24
 20
9.9
 11
7.72949
 21
9.9
  0
LINE
  8
0
 10
7.72949
 20
9.9
 11
7.49426
 21
9.67678
  0
LINE
  8
0
 10
7.49426
 20
9.67678
 11
7.04839
 21
9.29597
  0
LINE
  8
0
 10
7.04839
 20
9.29597
 11
6.58319
 21
8.93901
  0
LINE
  8
0
 10
6.58319
 20
8.93901
 11
6.09996
 21
8.60689
  0
LINE
  8
0
 10
6.09996
 20
8.60689
 11
5.6
 21
8.30052
  0
LINE
  8
0
 10
5.6
 20
8.30052
 11
5.08469
 21
8.02073
  0
LINE
  8
0
 10
5.08469
 20
8.02073
 11
4.55545
 21
7.76829
  0
LINE
  8
0
 10
4.55545
 20
7.76829
 11
4.01372
 21
7.5439
  0
LINE
  8
0
 10
4.01372
 20
7.5439
 11
3.46099
 21
7.34817
  0
LINE
  8
0
 10
3.46099
 20
7.34817
 11
2.89877
 21
7.18163
  0
LINE
  8
0
 10
2.89877
 20
7.18163
 11
2.32861
 21
7.04475
  0
LINE
  8
0
 10
2.32861
 20
7.04475
 11
1.75207
 21
6.93789
  0
LINE
  8
0
 10
1.75207
 20
6.93789
 11
1.17072
 21
6.86135
  0
LINE
  8
0
 10
1.17072
 20
6.86135
 11
0.586163
 21
6.81535
  0
LINE
  8
0
 10
0.586163
 20
6.81535
 11
0
 21
6.8
  0
LINE
  8
0
 10
0
 20
6.8
 11
-0.586163
 21
6.81535
  0
LINE
  8
0
 10
-0.586163
 20
6.81535
 11
-1.17072
 21
6.86135
  0
LINE
  8
0
 10
-1.17072
 20
6.86135
 11
-1.75207
 21
6.93789
  0
LINE
  8
0
 10
-1.75207
 20
6.93789
 11
-2.32861
 21
7.04475
  0
LINE
  8
0
 10
-2.32861
 20
7.04475
 11
-2.89877
 21
7.18163
  0
LINE
  8
0
 10
-2.89877
 20
7.18163
 11
-3.46099
 21
7.34817
  0
LINE
  8
0
 10
-3.46099
 20
7.34817
 11
-4.01372
 21
7.5439
  0
LINE
  8
0
 10
-4.01372
 20
7.5439
 11
-4.55545
 21
7.76829
  0
LINE
  8
0
 10
-4.55545
 20
7.76829
 11
-5.08469
 21
8.02073
  0
LINE
  8
0
 10
-5.08469
 20
8.02073
 11
-5.6
 21
8.30052
  0
LINE
  8
0
 10
-5.6
 20
8.30052
 11
-6.09996
 21
8.60689
  0
LINE
  8
0
 10
-6.09996
 20
8.60689
 11
-6.58319
 21
8.93901
  0
LINE
  8
0
 10
-6.58319
 20
8.93901
 11
-7.04839
 21
9.29597
  0
LINE
  8
0
 10
-7.04839
 20
9.29597
 11
-7.49426
 21
9.67678
  0
LINE
  8
0
 10
-7.49426
 20
9.67678
 11
-7.72949
 21
9.9
  0
LINE
  8
0
 10
-7.72949
 20
9.9
 11
-8.24
 21
9.9
  0
LINE
  8
0
 10
-8.24
 20
9.9
 11
-8.24
 21
-9.9
  0
LINE
  8
0
 10
-3
 20
0
 11
-2.99589
 21
0.157007
  0
LINE
  8
0
 10
-2.99589
 20
0.157007
 11
-2.98357
 21
0.313585
  0
LINE
  8
0
 10
-2.98357
 20
0.313585
 11
-2.96306
 21
0.469303
  0
LINE
  8
0
 10
-2.96306
 20
0.469303
 11
-2.93444
 21
0.623734
  0
LINE
  8
0
 10
-2.93444
 20
0.623734
 11
-2.89778
 21
0.776457
  0
LINE
  8
0
 10
-2.89778
 20
0.776457
 11
-2.85317
 21
0.927051
  0
LINE
  8
0
 10
-2.85317
 20
0.927051
 11
-2.80074
 21
1.0751
  0
LINE
  8
0
 10
-2.80074
 20
1.0751
 11
-2.74064
 21
1.22021
  0
LINE
  8
0
 10
-2.74064
 20
1.22021
 11
-2.67302
 21
1.36197
  0
LINE
  8
0
 10
-2.67302
 20
1.36197
 11
-2.59808
 21
1.5
  0
LINE
  8
0
 10
-2.59808
 20
1.5
 11
-2.51601
 21
1.63392
  0
LINE
  8
0
 10
-2.51601
 20
1.63392
 11
-2.42705
 21
1.76336
  0
LINE
  8
0
 10
-2.42705
 20
1.76336
 11
-2.33144
 21
1.88796
  0
LINE
  8
0
 10
-2.33144
 20
1.88796
 11
-2.22943
 21
2.00739
  0
LINE
  8
0
 10
-2.22943
 20
2.00739
 11
-2.12132
 21
2.12132
  0
LINE
  8
0
 10
-2.12132
 20
2.12132
 11
-2.00739
 21
2.22943
  0
LINE
  8
0
 10
-2.00739
 20
2.22943
 11
-1.88796
 21
2.33144
  0
LINE
  8
0
 10
-1.88796
 20
2.33144
 11
-1.76336
 21
2.42705
  0
LINE
  8
0
 10
-1.76336
 20
2.42705
 11
-1.63392
 21
2.51601
  0
LINE
  8
0
 10
-1.63392
 20
2.51601
 11
-1.5
 21
2.59808
  0
LINE
  8
0
 10
-1.5
 20
2.59808
 11
-1.36197
 21
2.67302
  0
LINE
  8
0
 10
-1.36197
 20
2.67302
 11
-1.22021
 21
2.74064
  0
LINE
  8
0
 10
-1.22021
 20
2.74064
 11
-1.0751
 21
2.80074
  0
LINE
  8
0
 10
-1.0751
 20
2.80074
 11
-0.927051
 21
2.85317
  0
LINE
  8
0
 10
-0.927051
 20
2.85317
 11
-0.776457
 21
2.89778
  0
LINE
  8
0
 10
-0.776457
 20
2.89778
 11
-0.623734
 21
2.93444
  0
LINE
  8
0
 10
-0.623734
 20
2.93444
 11
-0.469303
 21
2.96306
  0
LINE
  8
0
 10
-0.469303
 20
2.96306
 11
-0.313585
 21
2.98357
  0
LINE
  8
0
 10
-0.313585
 20
2.98357
 11
-0.157007
 21
2.99589
  0
LINE
  8
0
 10
-0.157007
 20
2.99589
 11
0
 21
3
  0
LINE
  8
0
 10
0
 20
3
 11
0.157007
 21
2.99589
  0
LINE
  8
0
 10
0.157007
 20
2.99589
 11
0.313585
 21
2.98357
  0
LINE
  8
0
 10
0.313585
 20
2.98357
 11
0.469303
 21
2.96306
  0
LINE
  8
0
 10
0.469303
 20
2.96306
 11
0.623734
 21
2.93444
  0
LINE
  8
0
 10
0.623734
 20
2.93444
 11
0.776457
 21
2.89778
  0
LINE
  8
0
 10
0.776457
 20
2.89778
 11
0.927051
 21
2.85317
  0
LINE
  8
0
 10
0.927051
 20
2.85317
 11
1.0751
 21
2.80074
  0
LINE
  8
0
 10
1.0751
 20
2.80074
 11
1.22021
 21
2.74064
  0
LINE
  8
0
 10
1.22021
 20
2.74064
 11
1.36197
 21
2.67302
  0
LINE
  8
0
 10
1.36197
 20
2.67302
 11
1.5
 21
2.59808
  0
LINE
  8
0
 10
1.5
 20
2.59808
 11
1.63392
 21
2.51601
  0
LINE
  8
0
 10
1.63392
 20
2.51601
 11
1.76336
 21
2.42705
  0
LINE
  8
0
 10
1.76336
 20
2.42705
 11
1.88796
 21
2.33144
  0
LINE
  8
0
 10
1.88796
 20
2.33144
 11
2.00739
 21
2.22943
  0
LINE
  8
0
 10
2.00739
 20
2.22943
 11
2.12132
 21
2.12132
  0
LINE
  8
0
 10
2.12132
 20
2.12132
 11
2.22943
 21
2.00739
  0
LINE
  8
0
 10
2.22943
 20
2.00739
 11
2.33144
 21
1.88796
  0
LINE
  8
0
 10
2.33144
 20
1.88796
 11
2.42705
 21
1.76336
  0
LINE
  8
0
 10
2.42705
 20
1.76336
 11
2.51601
 21
1.63392
  0
LINE
  8
0
 10
2.51601
 20
1.63392
 11
2.59808
 21
1.5
  0
LINE
  8
0
 10
2.59808
 20
1.5
 11
2.67302
 21
1.36197
  0
LINE
  8
0
 10
2.67302
 20
1.36197
 11
2.74064
 21
1.22021
  0
LINE
  8
0
 10
2.74064
 20
1.22021
 11
2.80074
 21
1.0751
  0
LINE
  8
0
 10
2.80074
 20
1.0751
 11
2.85317
 21
0.927051
  0
LINE
  8
0
 10
2.85317
 20
0.927051
 11
2.89778
 21
0.776457
  0
LINE
  8
0
 10
2.89778
 20
0.776457
 11
2.93444
 21
0.623734
  0
LINE
  8
0
 10
2.93444
 20
0.623734
 11
2.96306
 21
0.469303
  0
LINE
  8
0
 10
2.96306
 20
0.469303
 11
2.98357
 21
0.313585
  0
LINE
  8
0
 10
2.98357
 20
0.313585
 11
2.99589
 21
0.157007
  0
LINE
  8
0
 10
2.99589
 20
0.157007
 11
3
 21
0
  0
LINE
  8
0
 10
3
 20
0
 11
2.99589
 21
-0.157007
  0
LINE
  8
0
 10
2.99589
 20
-0.157007
 11
2.98357
 21
-0.313585
  0
LINE
  8
0
 10
2.98357
 20
-0.313585
 11
2.96306
 21
-0.469303
  0
LINE
  8
0
 10
2.96306
 20
-0.469303
 11
2.93444
 21
-0.623734
  0
LINE
  8
0
 10
2.93444
 20
-0.623734
 11
2.89778
 21
-0.776457
  0
LINE
  8
0
 10
2.89778
 20
-0.776457
 11
2.85317
 21
-0.927051
  0
LINE
  8
0
 10
2.85317
 20
-0.927051
 11
2.80074
 21
-1.0751
  0
LINE
  8
0
 10
2.80074
 20
-1.0751
 11
2.74064
 21
-1.22021
  0
LINE
  8
0
 10
2.74064
 20
-1.22021
 11
2.67302
 21
-1.36197
  0
LINE
  8
0
 10
2.67302
 20
-1.36197
 11
2.59808
 21
-1.5
  0
LINE
  8
0
 10
2.59808
 20
-1.5
 11
2.51601
 21
-1.63392
  0
LINE
  8
0
 10
2.51601
 20
-1.63392
 11
2.42705
 21
-1.76336
  0
LINE
  8
0
 10
2.42705
 20
-1.76336
 11
2.33144
 21
-1.88796
  0
LINE
  8
0
 10
2.33144
 20
-1.88796
 11
2.22943
 21
-2.00739
  0
LINE
  8
0
 10
2.22943
 20
-2.00739
 11
2.12132
 21
-2.12132
  0
LINE
  8
0
 10
2.12132
 20
-2.12132
 11
2.00739
 21
-2.22943
  0
LINE
  8
0
 10
2.00739
 20
-2.22943
 11
1.88796
 21
-2.33144
  0
LINE
  8
0
 10
1.88796
 20
-2.33144
 11
1.76336
 21
-2.42705
  0
LINE
  8
0
 10
1.76336
 20
-2.42705
 11
1.63392
 21
-2.51601
  0
LINE
  8
0
 10
1.63392
 20
-2.51601
 11
1.5
 21
-2.59808
  0
LINE
  8
0
 10
1.5
 20
-2.59808
 11
1.36197
 21
-2.67302
  0
LINE
  8
0
 10
1.36197
 20
-2.67302
 11
1.22021
 21
-2.74064
  0
LINE
  8
0
 10
1.22021
 20
-2.74064
 11
1.0751
 21
-2.80074
  0
LINE
  8
0
 10
1.0751
 20
-2.80074
 11
0.927051
 21
-2.85317
  0
LINE
  8
0
 10
0.927051
 20
-2.85317
 11
0.776457
 21
-2.89778
  0
LINE
  8
0
 10
0.776457
 20
-2.89778
 11
0.623734
 21
-2.93444
  0
LINE
  8
0
 10
0.623734
 20
-2.93444
 11
0.469303
 21
-2.96306
  0
LINE
  8
0
 10
0.469303
 20
-2.96306
 11
0.313585
 21
-2.98357
  0
LINE
  8
0
 10
0.313585
 20
-2.98357
 11
0.157007
 21
-2.99589
  0
LINE
  8
0
 10
0.157007
 20
-2.99589
 11
0
 21
-3
  0
LINE
  8
0
 10
0
 20
-3
 11
-0.157007
 21
-2.99589
  0
LINE
  8
0
 10
-0.157007
 20
-2.99589
 11
-0.313585
 21
-2.98357
  0
LINE
  8
0
 10
-0.313585
 20
-2.98357
 11
-0.469303
 21
-2.96306
  0
LINE
  8
0
 10
-0.469303
 20
-2.96306
 11
-0.623734
 21
-2.93444
  0
LINE
  8
0
 10
-0.623734
 20
-2.93444
 11
-0.776457
 21
-2.89778
  0
LINE
  8
0
 10
-0.776457
 20
-2.89778
 11
-0.927051
 21
-2.85317
  0
LINE
  8
0
 10
-0.927051
 20
-2.85317
 11
-1.0751
 21
-2.80074
  0
LINE
  8
0
 10
-1.0751
 20
-2.80074
 11
-1.22021
 21
-2.74064
  0
LINE
  8
0
 10
-1.22021
 20
-2.74064
 11
-1.36197
 21
-2.67302
  0
LINE
  8
0
 10
-1.36197
 20
-2.67302
 11
-1.5
 21
-2.59808
  0
LINE
  8
0
 10
-1.5
 20
-2.59808
 11
-1.63392
 21
-2.51601
  0
LINE
  8
0
 10
-1.63392
 20
-2.51601
 11
-1.76336
 21
-2.42705
  0
LINE
  8
0
 10
-1.76336
 20
-2.42705
 11
-1.88796
 21
-2.33144
  0
LINE
  8
0
 10
-1.88796
 20
-2.33144
 11
-2.00739
 21
-2.22943
  0
LINE
  8
0
 10
-2.00739
 20
-2.22943
 11
-2.12132
 21
-2.12132
  0
LINE
  8
0
 10
-2.12132
 20
-2.12132
 11
-2.22943
 21
-2.00739
  0
LINE
  8
0
 10
-2.22943
 20
-2.00739
 11
-2.33144
 21
-1.88796
  0
LINE
  8
0
 10
-2.33144
 20
-1.88796
 11
-2.42705
 21
-1.76336
  0
LINE
  8
0
 10
-2.42705
 20
-1.76336
 11
-2.51601
 21
-1.63392
  0
LINE
  8
0
 10
-2.51601
 20
-1.63392
 11
-2.59808
 21
-1.5
  0
LINE
  8
0
 10
-2.59808
 20
-1.5
 11
-2.67302
 21
-1.36197
  0
LINE
  8
0
 10
-2.67302
 20
-1.36197
 11
-2.74064
 21
-1.22021
  0
LINE
  8
0
 10
-2.74064
 20
-1.22021
 11
-2.80074
 21
-1.0751
  0
LINE
  8
0
 10
-2.80074
 20
-1.0751
 11
-2.85317
 21
-0.927051
  0
LINE
  8
0
 10
-2.85317
 20
-0.927051
 11
-2.89778
 21
-0.776457
  0
LINE
  8
0
 10
-2.89778
 20
-0.776457
 11
-2.93444
 21
-0.623734
  0
LINE
  8
0
 10
-2.93444
 20
-0.623734
 11
-2.96306
 21
-0.469303
  0
LINE
  8
0
 10
-2.96306
 20
-0.469303
 11
-2.98357
 21
-0.313585
  0
LINE
  8
0
 10
-2.98357
 20
-0.313585
 11
-2.99589
 21
-0.157007
  0
LINE
  8
0
 10
-2.99589
 20
-0.157007
 11
-3
 21
0
  0
ENDSEC
  0
SECTION
  2
OBJECTS
  0
DICTIONARY
  0
ENDSEC
  0
EOF
