  0
SECTION
  2
BLOCKS
  0
ENDSEC
  0
SECTION
  2
ENTITIES
  0
LINE
  8
0
 10
-9.6
 20
-18
 11
-9.58684
 21
-18.5024
  0
LINE
  8
0
 10
-9.58684
 20
-18.5024
 11
-9.54741
 21
-19.0035
  0
LINE
  8
0
 10
-9.54741
 20
-19.0035
 11
-9.48181
 21
-19.5018
  0
LINE
  8
0
 10
-9.48181
 20
-19.5018
 11
-9.39022
 21
-19.996
  0
LINE
  8
0
 10
-9.39022
 20
-19.996
 11
-9.27289
 21
-20.4847
  0
LINE
  8
0
 10
-9.27289
 20
-20.4847
 11
-9.13014
 21
-20.9666
  0
LINE
  8
0
 10
-9.13014
 20
-20.9666
 11
-8.96237
 21
-21.4403
  0
LINE
  8
0
 10
-8.96237
 20
-21.4403
 11
-8.77004
 21
-21.9047
  0
LINE
  8
0
 10
-8.77004
 20
-21.9047
 11
-8.55366
 21
-22.3583
  0
LINE
  8
0
 10
-8.55366
 20
-22.3583
 11
-8.31384
 21
-22.8
  0
LINE
  8
0
 10
-8.31384
 20
-22.8
 11
-8.05124
 21
-23.2285
  0
LINE
  8
0
 10
-8.05124
 20
-23.2285
 11
-7.76656
 21
-23.6427
  0
LINE
  8
0
 10
-7.76656
 20
-23.6427
 11
-7.4606
 21
-24.0415
  0
LINE
  8
0
 10
-7.4606
 20
-24.0415
 11
-7.13419
 21
-24.4237
  0
LINE
  8
0
 10
-7.13419
 20
-24.4237
 11
-6.78822
 21
-24.7882
  0
LINE
  8
0
 10
-6.78822
 20
-24.7882
 11
-6.42365
 21
-25.1342
  0
LINE
  8
0
 10
-6.42365
 20
-25.1342
 11
-6.04148
 21
-25.4606
  0
LINE
  8
0
 10
-6.04148
 20
-25.4606
 11
-5.64274
 21
-25.7666
  0
LINE
  8
0
 10
-5.64274
 20
-25.7666
 11
-5.22853
 21
-26.0512
  0
LINE
  8
0
 10
-5.22853
 20
-26.0512
 11
-4.8
 21
-26.3138
  0
LINE
  8
0
 10
-4.8
 20
-26.3138
 11
-4.35831
 21
-26.5537
  0
LINE
  8
0
 10
-4.35831
 20
-26.5537
 11
-3.90467
 21
-26.77
  0
LINE
  8
0
 10
-3.90467
 20
-26.77
 11
-3.44033
 21
-26.9624
  0
LINE
  8
0
 10
-3.44033
 20
-26.9624
 11
-2.96656
 21
-27.1301
  0
LINE
  8
0
 10
-2.96656
 20
-27.1301
 11
-2.48466
 21
-27.2729
  0
LINE
  8
0
 10
-2.48466
 20
-27.2729
 11
-1.99595
 21
-27.3902
  0
LINE
  8
0
 10
-1.99595
 20
-27.3902
 11
-1.50177
 21
-27.4818
  0
LINE
  8
0
 10
-1.50177
 20
-27.4818
 11
-1.00347
 21
-27.5474
  0
LINE
  8
0
 10
-1.00347
 20
-27.5474
 11
-0.502424
 21
-27.5868
  0
LINE
  8
0
 10
-0.502424
 20
-27.5868
 11
0
 21
-27.6
  0
LINE
  8
0
 10
0
 20
-27.6
 11
0.502424
 21
-27.5868
  0
LINE
  8
0
 10
0.502424
 20
-27.5868
 11
1.00347
 21
-27.5474
  0
LINE
  8
0
 10
1.00347
 20
-27.5474
 11
1.50177
 21
-27.4818
  0
LINE
  8
0
 10
1.50177
 20
-27.4818
 11
1.99595
 21
-27.3902
  0
LINE
  8
0
 10
1.99595
 20
-27.3902
 11
2.48466
 21
-27.2729
  0
LINE
  8
0
 10
2.48466
 20
-27.2729
 11
2.96656
 21
-27.1301
  0
LINE
  8
0
 10
2.96656
 20
-27.1301
 11
3.44033
 21
-26.9624
  0
LINE
  8
0
 10
3.44033
 20
-26.9624
 11
3.90467
 21
-26.77
  0
LINE
  8
0
 10
3.90467
 20
-26.77
 11
4.35831
 21
-26.5537
  0
LINE
  8
0
 10
4.35831
 20
-26.5537
 11
4.8
 21
-26.3138
  0
LINE
  8
0
 10
4.8
 20
-26.3138
 11
5.22853
 21
-26.0512
  0
LINE
  8
0
 10
5.22853
 20
-26.0512
 11
5.64274
 21
-25.7666
  0
LINE
  8
0
 10
5.64274
 20
-25.7666
 11
6.04148
 21
-25.4606
  0
LINE
  8
0
 10
6.04148
 20
-25.4606
 11
6.42365
 21
-25.1342
  0
LINE
  8
0
 10
6.42365
 20
-25.1342
 11
6.78822
 21
-24.7882
  0
LINE
  8
0
 10
6.78822
 20
-24.7882
 11
7.13419
 21
-24.4237
  0
LINE
  8
0
 10
7.13419
 20
-24.4237
 11
7.4606
 21
-24.0415
  0
LINE
  8
0
 10
7.4606
 20
-24.0415
 11
7.76656
 21
-23.6427
  0
LINE
  8
0
 10
7.76656
 20
-23.6427
 11
8.05124
 21
-23.2285
  0
LINE
  8
0
 10
8.05124
 20
-23.2285
 11
8.31384
 21
-22.8
  0
LINE
  8
0
 10
8.31384
 20
-22.8
 11
8.55366
 21
-22.3583
  0
LINE
  8
0
 10
8.55366
 20
-22.3583
 11
8.77004
 21
-21.9047
  0
LINE
  8
0
 10
8.77004
 20
-21.9047
 11
8.96237
 21
-21.4403
  0
LINE
  8
0
 10
8.96237
 20
-21.4403
 11
9.13014
 21
-20.9666
  0
LINE
  8
0
 10
9.13014
 20
-20.9666
 11
9.27289
 21
-20.4847
  0
LINE
  8
0
 10
9.27289
 20
-20.4847
 11
9.39022
 21
-19.996
  0
LINE
  8
0
 10
9.39022
 20
-19.996
 11
9.48181
 21
-19.5018
  0
LINE
  8
0
 10
9.48181
 20
-19.5018
 11
9.54741
 21
-19.0035
  0
LINE
  8
0
 10
9.54741
 20
-19.0035
 11
9.58684
 21
-18.5024
  0
LINE
  8
0
 10
9.58684
 20
-18.5024
 11
9.6
 21
-18
  0
LINE
  8
0
 10
9.6
 20
-18
 11
9.58684
 21
-17.4976
  0
LINE
  8
0
 10
9.58684
 20
-17.4976
 11
9.54741
 21
-16.9965
  0
LINE
  8
0
 10
9.54741
 20
-16.9965
 11
9.48181
 21
-16.4982
  0
LINE
  8
0
 10
9.48181
 20
-16.4982
 11
9.39022
 21
-16.004
  0
LINE
  8
0
 10
9.39022
 20
-16.004
 11
9.27289
 21
-15.5153
  0
LINE
  8
0
 10
9.27289
 20
-15.5153
 11
9.13014
 21
-15.0334
  0
LINE
  8
0
 10
9.13014
 20
-15.0334
 11
8.96237
 21
-14.5597
  0
LINE
  8
0
 10
8.96237
 20
-14.5597
 11
8.77004
 21
-14.0953
  0
LINE
  8
0
 10
8.77004
 20
-14.0953
 11
8.55366
 21
-13.6417
  0
LINE
  8
0
 10
8.55366
 20
-13.6417
 11
8.31384
 21
-13.2
  0
LINE
  8
0
 10
8.31384
 20
-13.2
 11
8.24
 21
-13.0795
  0
LINE
  8
0
 10
8.24
 20
-13.0795
 11
8.24
 21
13.0795
  0
LINE
  8
0
 10
8.24
 20
13.0795
 11
8.31384
 21
13.2
  0
LINE
  8
0
 10
8.31384
 20
13.2
 11
8.55366
 21
13.6417
  0
LINE
  8
0
 10
8.55366
 20
13.6417
 11
8.77004
 21
14.0953
  0
LINE
  8
0
 10
8.77004
 20
14.0953
 11
8.96237
 21
14.5597
  0
LINE
  8
0
 10
8.96237
 20
14.5597
 11
9.13014
 21
15.0334
  0
LINE
  8
0
 10
9.13014
 20
15.0334
 11
9.27289
 21
15.5153
  0
LINE
  8
0
 10
9.27289
 20
15.5153
 11
9.39022
 21
16.004
  0
LINE
  8
0
 10
9.39022
 20
16.004
 11
9.48181
 21
16.4982
  0
LINE
  8
0
 10
9.48181
 20
16.4982
 11
9.54741
 21
16.9965
  0
LINE
  8
0
 10
9.54741
 20
16.9965
 11
9.58684
 21
17.4976
  0
LINE
  8
0
 10
9.58684
 20
17.4976
 11
9.6
 21
18
  0
LINE
  8
0
 10
9.6
 20
18
 11
9.58684
 21
18.5024
  0
LINE
  8
0
 10
9.58684
 20
18.5024
 11
9.54741
 21
19.0035
  0
LINE
  8
0
 10
9.54741
 20
19.0035
 11
9.48181
 21
19.5018
  0
LINE
  8
0
 10
9.48181
 20
19.5018
 11
9.39022
 21
19.996
  0
LINE
  8
0
 10
9.39022
 20
19.996
 11
9.27289
 21
20.4847
  0
LINE
  8
0
 10
9.27289
 20
20.4847
 11
9.13014
 21
20.9666
  0
LINE
  8
0
 10
9.13014
 20
20.9666
 11
8.96237
 21
21.4403
  0
LINE
  8
0
 10
8.96237
 20
21.4403
 11
8.77004
 21
21.9047
  0
LINE
  8
0
 10
8.77004
 20
21.9047
 11
8.55366
 21
22.3583
  0
LINE
  8
0
 10
8.55366
 20
22.3583
 11
8.31384
 21
22.8
  0
LINE
  8
0
 10
8.31384
 20
22.8
 11
8.05124
 21
23.2285
  0
LINE
  8
0
 10
8.05124
 20
23.2285
 11
7.76656
 21
23.6427
  0
LINE
  8
0
 10
7.76656
 20
23.6427
 11
7.4606
 21
24.0415
  0
LINE
  8
0
 10
7.4606
 20
24.0415
 11
7.13419
 21
24.4237
  0
LINE
  8
0
 10
7.13419
 20
24.4237
 11
6.78822
 21
24.7882
  0
LINE
  8
0
 10
6.78822
 20
24.7882
 11
6.42365
 21
25.1342
  0
LINE
  8
0
 10
6.42365
 20
25.1342
 11
6.04148
 21
25.4606
  0
LINE
  8
0
 10
6.04148
 20
25.4606
 11
5.64274
 21
25.7666
  0
LINE
  8
0
 10
5.64274
 20
25.7666
 11
5.22853
 21
26.0512
  0
LINE
  8
0
 10
5.22853
 20
26.0512
 11
4.8
 21
26.3138
  0
LINE
  8
0
 10
4.8
 20
26.3138
 11
4.35831
 21
26.5537
  0
LINE
  8
0
 10
4.35831
 20
26.5537
 11
3.90467
 21
26.77
  0
LINE
  8
0
 10
3.90467
 20
26.77
 11
3.44033
 21
26.9624
  0
LINE
  8
0
 10
3.44033
 20
26.9624
 11
2.96656
 21
27.1301
  0
LINE
  8
0
 10
2.96656
 20
27.1301
 11
2.48466
 21
27.2729
  0
LINE
  8
0
 10
2.48466
 20
27.2729
 11
1.99595
 21
27.3902
  0
LINE
  8
0
 10
1.99595
 20
27.3902
 11
1.50177
 21
27.4818
  0
LINE
  8
0
 10
1.50177
 20
27.4818
 11
1.00347
 21
27.5474
  0
LINE
  8
0
 10
1.00347
 20
27.5474
 11
0.502424
 21
27.5868
  0
LINE
  8
0
 10
0.502424
 20
27.5868
 11
0
 21
27.6
  0
LINE
  8
0
 10
0
 20
27.6
 11
-0.502424
 21
27.5868
  0
LINE
  8
0
 10
-0.502424
 20
27.5868
 11
-1.00347
 21
27.5474
  0
LINE
  8
0
 10
-1.00347
 20
27.5474
 11
-1.50177
 21
27.4818
  0
LINE
  8
0
 10
-1.50177
 20
27.4818
 11
-1.99595
 21
27.3902
  0
LINE
  8
0
 10
-1.99595
 20
27.3902
 11
-2.48466
 21
27.2729
  0
LINE
  8
0
 10
-2.48466
 20
27.2729
 11
-2.96656
 21
27.1301
  0
LINE
  8
0
 10
-2.96656
 20
27.1301
 11
-3.44033
 21
26.9624
  0
LINE
  8
0
 10
-3.44033
 20
26.9624
 11
-3.90467
 21
26.77
  0
LINE
  8
0
 10
-3.90467
 20
26.77
 11
-4.35831
 21
26.5537
  0
LINE
  8
0
 10
-4.35831
 20
26.5537
 11
-4.8
 21
26.3138
  0
LINE
  8
0
 10
-4.8
 20
26.3138
 11
-5.22853
 21
26.0512
  0
LINE
  8
0
 10
-5.22853
 20
26.0512
 11
-5.64274
 21
25.7666
  0
LINE
  8
0
 10
-5.64274
 20
25.7666
 11
-6.04148
 21
25.4606
  0
LINE
  8
0
 10
-6.04148
 20
25.4606
 11
-6.42365
 21
25.1342
  0
LINE
  8
0
 10
-6.42365
 20
25.1342
 11
-6.78822
 21
24.7882
  0
LINE
  8
0
 10
-6.78822
 20
24.7882
 11
-7.13419
 21
24.4237
  0
LINE
  8
0
 10
-7.13419
 20
24.4237
 11
-7.4606
 21
24.0415
  0
LINE
  8
0
 10
-7.4606
 20
24.0415
 11
-7.76656
 21
23.6427
  0
LINE
  8
0
 10
-7.76656
 20
23.6427
 11
-8.05124
 21
23.2285
  0
LINE
  8
0
 10
-8.05124
 20
23.2285
 11
-8.31384
 21
22.8
  0
LINE
  8
0
 10
-8.31384
 20
22.8
 11
-8.55366
 21
22.3583
  0
LINE
  8
0
 10
-8.55366
 20
22.3583
 11
-8.77004
 21
21.9047
  0
LINE
  8
0
 10
-8.77004
 20
21.9047
 11
-8.96237
 21
21.4403
  0
LINE
  8
0
 10
-8.96237
 20
21.4403
 11
-9.13014
 21
20.9666
  0
LINE
  8
0
 10
-9.13014
 20
20.9666
 11
-9.27289
 21
20.4847
  0
LINE
  8
0
 10
-9.27289
 20
20.4847
 11
-9.39022
 21
19.996
  0
LINE
  8
0
 10
-9.39022
 20
19.996
 11
-9.48181
 21
19.5018
  0
LINE
  8
0
 10
-9.48181
 20
19.5018
 11
-9.54741
 21
19.0035
  0
LINE
  8
0
 10
-9.54741
 20
19.0035
 11
-9.58684
 21
18.5024
  0
LINE
  8
0
 10
-9.58684
 20
18.5024
 11
-9.6
 21
18
  0
LINE
  8
0
 10
-9.6
 20
18
 11
-9.58684
 21
17.4976
  0
LINE
  8
0
 10
-9.58684
 20
17.4976
 11
-9.54741
 21
16.9965
  0
LINE
  8
0
 10
-9.54741
 20
16.9965
 11
-9.48181
 21
16.4982
  0
LINE
  8
0
 10
-9.48181
 20
16.4982
 11
-9.39022
 21
16.004
  0
LINE
  8
0
 10
-9.39022
 20
16.004
 11
-9.27289
 21
15.5153
  0
LINE
  8
0
 10
-9.27289
 20
15.5153
 11
-9.13014
 21
15.0334
  0
LINE
  8
0
 10
-9.13014
 20
15.0334
 11
-8.96237
 21
14.5597
  0
LINE
  8
0
 10
-8.96237
 20
14.5597
 11
-8.77004
 21
14.0953
  0
LINE
  8
0
 10
-8.77004
 20
14.0953
 11
-8.55366
 21
13.6417
  0
LINE
  8
0
 10
-8.55366
 20
13.6417
 11
-8.31384
 21
13.2
  0
LINE
  8
0
 10
-8.31384
 20
13.2
 11
-8.24
 21
13.0795
  0
LINE
  8
0
 10
-8.24
 20
13.0795
 11
-8.24
 21
-13.0795
  0
LINE
  8
0
 10
-8.24
 20
-13.0795
 11
-8.31384
 21
-13.2
  0
LINE
  8
0
 10
-8.31384
 20
-13.2
 11
-8.55366
 21
-13.6417
  0
LINE
  8
0
 10
-8.55366
 20
-13.6417
 11
-8.77004
 21
-14.0953
  0
LINE
  8
0
 10
-8.77004
 20
-14.0953
 11
-8.96237
 21
-14.5597
  0
LINE
  8
0
 10
-8.96237
 20
-14.5597
 11
-9.13014
 21
-15.0334
  0
LINE
  8
0
 10
-9.13014
 20
-15.0334
 11
-9.27289
 21
-15.5153
  0
LINE
  8
0
 10
-9.27289
 20
-15.5153
 11
-9.39022
 21
-16.004
  0
LINE
  8
0
 10
-9.39022
 20
-16.004
 11
-9.48181
 21
-16.4982
  0
LINE
  8
0
 10
-9.48181
 20
-16.4982
 11
-9.54741
 21
-16.9965
  0
LINE
  8
0
 10
-9.54741
 20
-16.9965
 11
-9.58684
 21
-17.4976
  0
LINE
  8
0
 10
-9.58684
 20
-17.4976
 11
-9.6
 21
-18
  0
LINE
  8
0
 10
-5.9
 20
-1.07959
 11
-5.9
 21
1.07959
  0
LINE
  8
0
 10
-5.9
 20
1.07959
 11
-5.86889
 21
1.24747
  0
LINE
  8
0
 10
-5.86889
 20
1.24747
 11
-5.79555
 21
1.55291
  0
LINE
  8
0
 10
-5.79555
 20
1.55291
 11
-5.70634
 21
1.8541
  0
LINE
  8
0
 10
-5.70634
 20
1.8541
 11
-5.60148
 21
2.15021
  0
LINE
  8
0
 10
-5.60148
 20
2.15021
 11
-5.48127
 21
2.44042
  0
LINE
  8
0
 10
-5.48127
 20
2.44042
 11
-5.34604
 21
2.72394
  0
LINE
  8
0
 10
-5.34604
 20
2.72394
 11
-5.19615
 21
3
  0
LINE
  8
0
 10
-5.19615
 20
3
 11
-5.03202
 21
3.26783
  0
LINE
  8
0
 10
-5.03202
 20
3.26783
 11
-4.8541
 21
3.52671
  0
LINE
  8
0
 10
-4.8541
 20
3.52671
 11
-4.66288
 21
3.77592
  0
LINE
  8
0
 10
-4.66288
 20
3.77592
 11
-4.45887
 21
4.01478
  0
LINE
  8
0
 10
-4.45887
 20
4.01478
 11
-4.24264
 21
4.24264
  0
LINE
  8
0
 10
-4.24264
 20
4.24264
 11
-4.22318
 21
4.26111
  0
LINE
  8
0
 10
-4.22318
 20
4.26111
 11
4.22318
 21
4.26111
  0
LINE
  8
0
 10
4.22318
 20
4.26111
 11
4.24264
 21
4.24264
  0
LINE
  8
0
 10
4.24264
 20
4.24264
 11
4.45887
 21
4.01478
  0
LINE
  8
0
 10
4.45887
 20
4.01478
 11
4.66288
 21
3.77592
  0
LINE
  8
0
 10
4.66288
 20
3.77592
 11
4.8541
 21
3.52671
  0
LINE
  8
0
 10
4.8541
 20
3.52671
 11
5.03202
 21
3.26783
  0
LINE
  8
0
 10
5.03202
 20
3.26783
 11
5.19615
 21
3
  0
LINE
  8
0
 10
5.19615
 20
3
 11
5.34604
 21
2.72394
  0
LINE
  8
0
 10
5.34604
 20
2.72394
 11
5.48127
 21
2.44042
  0
LINE
  8
0
 10
5.48127
 20
2.44042
 11
5.60148
 21
2.15021
  0
LINE
  8
0
 10
5.60148
 20
2.15021
 11
5.70634
 21
1.8541
  0
LINE
  8
0
 10
5.70634
 20
1.8541
 11
5.79555
 21
1.55291
  0
LINE
  8
0
 10
5.79555
 20
1.55291
 11
5.86889
 21
1.24747
  0
LINE
  8
0
 10
5.86889
 20
1.24747
 11
5.9
 21
1.07959
  0
LINE
  8
0
 10
5.9
 20
1.07959
 11
5.9
 21
-1.07959
  0
LINE
  8
0
 10
5.9
 20
-1.07959
 11
5.86889
 21
-1.24747
  0
LINE
  8
0
 10
5.86889
 20
-1.24747
 11
5.79555
 21
-1.55291
  0
LINE
  8
0
 10
5.79555
 20
-1.55291
 11
5.70634
 21
-1.8541
  0
LINE
  8
0
 10
5.70634
 20
-1.8541
 11
5.60148
 21
-2.15021
  0
LINE
  8
0
 10
5.60148
 20
-2.15021
 11
5.48127
 21
-2.44042
  0
LINE
  8
0
 10
5.48127
 20
-2.44042
 11
5.34604
 21
-2.72394
  0
LINE
  8
0
 10
5.34604
 20
-2.72394
 11
5.19615
 21
-3
  0
LINE
  8
0
 10
5.19615
 20
-3
 11
5.03202
 21
-3.26783
  0
LINE
  8
0
 10
5.03202
 20
-3.26783
 11
4.8541
 21
-3.52671
  0
LINE
  8
0
 10
4.8541
 20
-3.52671
 11
4.66288
 21
-3.77592
  0
LINE
  8
0
 10
4.66288
 20
-3.77592
 11
4.45887
 21
-4.01478
  0
LINE
  8
0
 10
4.45887
 20
-4.01478
 11
4.24264
 21
-4.24264
  0
LINE
  8
0
 10
4.24264
 20
-4.24264
 11
4.22318
 21
-4.26111
  0
LINE
  8
0
 10
4.22318
 20
-4.26111
 11
-4.22318
 21
-4.26111
  0
LINE
  8
0
 10
-4.22318
 20
-4.26111
 11
-4.24264
 21
-4.24264
  0
LINE
  8
0
 10
-4.24264
 20
-4.24264
 11
-4.45887
 21
-4.01478
  0
LINE
  8
0
 10
-4.45887
 20
-4.01478
 11
-4.66288
 21
-3.77592
  0
LINE
  8
0
 10
-4.66288
 20
-3.77592
 11
-4.8541
 21
-3.52671
  0
LINE
  8
0
 10
-4.8541
 20
-3.52671
 11
-5.03202
 21
-3.26783
  0
LINE
  8
0
 10
-5.03202
 20
-3.26783
 11
-5.19615
 21
-3
  0
LINE
  8
0
 10
-5.19615
 20
-3
 11
-5.34604
 21
-2.72394
  0
LINE
  8
0
 10
-5.34604
 20
-2.72394
 11
-5.48127
 21
-2.44042
  0
LINE
  8
0
 10
-5.48127
 20
-2.44042
 11
-5.60148
 21
-2.15021
  0
LINE
  8
0
 10
-5.60148
 20
-2.15021
 11
-5.70634
 21
-1.8541
  0
LINE
  8
0
 10
-5.70634
 20
-1.8541
 11
-5.79555
 21
-1.55291
  0
LINE
  8
0
 10
-5.79555
 20
-1.55291
 11
-5.86889
 21
-1.24747
  0
LINE
  8
0
 10
-5.86889
 20
-1.24747
 11
-5.9
 21
-1.07959
  0
LINE
  8
0
 10
-1.9
 20
-18
 11
-1.8974
 21
-17.9006
  0
LINE
  8
0
 10
-1.8974
 20
-17.9006
 11
-1.88959
 21
-17.8014
  0
LINE
  8
0
 10
-1.88959
 20
-17.8014
 11
-1.87661
 21
-17.7028
  0
LINE
  8
0
 10
-1.87661
 20
-17.7028
 11
-1.85848
 21
-17.605
  0
LINE
  8
0
 10
-1.85848
 20
-17.605
 11
-1.83526
 21
-17.5082
  0
LINE
  8
0
 10
-1.83526
 20
-17.5082
 11
-1.80701
 21
-17.4129
  0
LINE
  8
0
 10
-1.80701
 20
-17.4129
 11
-1.7738
 21
-17.3191
  0
LINE
  8
0
 10
-1.7738
 20
-17.3191
 11
-1.73574
 21
-17.2272
  0
LINE
  8
0
 10
-1.73574
 20
-17.2272
 11
-1.69291
 21
-17.1374
  0
LINE
  8
0
 10
-1.69291
 20
-17.1374
 11
-1.64545
 21
-17.05
  0
LINE
  8
0
 10
-1.64545
 20
-17.05
 11
-1.59347
 21
-16.9652
  0
LINE
  8
0
 10
-1.59347
 20
-16.9652
 11
-1.53713
 21
-16.8832
  0
LINE
  8
0
 10
-1.53713
 20
-16.8832
 11
-1.47658
 21
-16.8043
  0
LINE
  8
0
 10
-1.47658
 20
-16.8043
 11
-1.41197
 21
-16.7287
  0
LINE
  8
0
 10
-1.41197
 20
-16.7287
 11
-1.3435
 21
-16.6565
  0
LINE
  8
0
 10
-1.3435
 20
-16.6565
 11
-1.27135
 21
-16.588
  0
LINE
  8
0
 10
-1.27135
 20
-16.588
 11
-1.19571
 21
-16.5234
  0
LINE
  8
0
 10
-1.19571
 20
-16.5234
 11
-1.11679
 21
-16.4629
  0
LINE
  8
0
 10
-1.11679
 20
-16.4629
 11
-1.03481
 21
-16.4065
  0
LINE
  8
0
 10
-1.03481
 20
-16.4065
 11
-0.95
 21
-16.3546
  0
LINE
  8
0
 10
-0.95
 20
-16.3546
 11
-0.862581
 21
-16.3071
  0
LINE
  8
0
 10
-0.862581
 20
-16.3071
 11
-0.772799
 21
-16.2643
  0
LINE
  8
0
 10
-0.772799
 20
-16.2643
 11
-0.680899
 21
-16.2262
  0
LINE
  8
0
 10
-0.680899
 20
-16.2262
 11
-0.587132
 21
-16.193
  0
LINE
  8
0
 10
-0.587132
 20
-16.193
 11
-0.491755
 21
-16.1647
  0
LINE
  8
0
 10
-0.491755
 20
-16.1647
 11
-0.395032
 21
-16.1415
  0
LINE
  8
0
 10
-0.395032
 20
-16.1415
 11
-0.297225
 21
-16.1234
  0
LINE
  8
0
 10
-0.297225
 20
-16.1234
 11
-0.198604
 21
-16.1104
  0
LINE
  8
0
 10
-0.198604
 20
-16.1104
 11
-0.0994377
 21
-16.1026
  0
LINE
  8
0
 10
-0.0994377
 20
-16.1026
 11
0
 21
-16.1
  0
LINE
  8
0
 10
0
 20
-16.1
 11
0.0994377
 21
-16.1026
  0
LINE
  8
0
 10
0.0994377
 20
-16.1026
 11
0.198604
 21
-16.1104
  0
LINE
  8
0
 10
0.198604
 20
-16.1104
 11
0.297225
 21
-16.1234
  0
LINE
  8
0
 10
0.297225
 20
-16.1234
 11
0.395032
 21
-16.1415
  0
LINE
  8
0
 10
0.395032
 20
-16.1415
 11
0.491755
 21
-16.1647
  0
LINE
  8
0
 10
0.491755
 20
-16.1647
 11
0.587132
 21
-16.193
  0
LINE
  8
0
 10
0.587132
 20
-16.193
 11
0.680899
 21
-16.2262
  0
LINE
  8
0
 10
0.680899
 20
-16.2262
 11
0.772799
 21
-16.2643
  0
LINE
  8
0
 10
0.772799
 20
-16.2643
 11
0.862581
 21
-16.3071
  0
LINE
  8
0
 10
0.862581
 20
-16.3071
 11
0.95
 21
-16.3546
  0
LINE
  8
0
 10
0.95
 20
-16.3546
 11
1.03481
 21
-16.4065
  0
LINE
  8
0
 10
1.03481
 20
-16.4065
 11
1.11679
 21
-16.4629
  0
LINE
  8
0
 10
1.11679
 20
-16.4629
 11
1.19571
 21
-16.5234
  0
LINE
  8
0
 10
1.19571
 20
-16.5234
 11
1.27135
 21
-16.588
  0
LINE
  8
0
 10
1.27135
 20
-16.588
 11
1.3435
 21
-16.6565
  0
LINE
  8
0
 10
1.3435
 20
-16.6565
 11
1.41197
 21
-16.7287
  0
LINE
  8
0
 10
1.41197
 20
-16.7287
 11
1.47658
 21
-16.8043
  0
LINE
  8
0
 10
1.47658
 20
-16.8043
 11
1.53713
 21
-16.8832
  0
LINE
  8
0
 10
1.53713
 20
-16.8832
 11
1.59347
 21
-16.9652
  0
LINE
  8
0
 10
1.59347
 20
-16.9652
 11
1.64545
 21
-17.05
  0
LINE
  8
0
 10
1.64545
 20
-17.05
 11
1.69291
 21
-17.1374
  0
LINE
  8
0
 10
1.69291
 20
-17.1374
 11
1.73574
 21
-17.2272
  0
LINE
  8
0
 10
1.73574
 20
-17.2272
 11
1.7738
 21
-17.3191
  0
LINE
  8
0
 10
1.7738
 20
-17.3191
 11
1.80701
 21
-17.4129
  0
LINE
  8
0
 10
1.80701
 20
-17.4129
 11
1.83526
 21
-17.5082
  0
LINE
  8
0
 10
1.83526
 20
-17.5082
 11
1.85848
 21
-17.605
  0
LINE
  8
0
 10
1.85848
 20
-17.605
 11
1.87661
 21
-17.7028
  0
LINE
  8
0
 10
1.87661
 20
-17.7028
 11
1.88959
 21
-17.8014
  0
LINE
  8
0
 10
1.88959
 20
-17.8014
 11
1.8974
 21
-17.9006
  0
LINE
  8
0
 10
1.8974
 20
-17.9006
 11
1.9
 21
-18
  0
LINE
  8
0
 10
1.9
 20
-18
 11
1.8974
 21
-18.0994
  0
LINE
  8
0
 10
1.8974
 20
-18.0994
 11
1.88959
 21
-18.1986
  0
LINE
  8
0
 10
1.88959
 20
-18.1986
 11
1.87661
 21
-18.2972
  0
LINE
  8
0
 10
1.87661
 20
-18.2972
 11
1.85848
 21
-18.395
  0
LINE
  8
0
 10
1.85848
 20
-18.395
 11
1.83526
 21
-18.4918
  0
LINE
  8
0
 10
1.83526
 20
-18.4918
 11
1.80701
 21
-18.5871
  0
LINE
  8
0
 10
1.80701
 20
-18.5871
 11
1.7738
 21
-18.6809
  0
LINE
  8
0
 10
1.7738
 20
-18.6809
 11
1.73574
 21
-18.7728
  0
LINE
  8
0
 10
1.73574
 20
-18.7728
 11
1.69291
 21
-18.8626
  0
LINE
  8
0
 10
1.69291
 20
-18.8626
 11
1.64545
 21
-18.95
  0
LINE
  8
0
 10
1.64545
 20
-18.95
 11
1.59347
 21
-19.0348
  0
LINE
  8
0
 10
1.59347
 20
-19.0348
 11
1.53713
 21
-19.1168
  0
LINE
  8
0
 10
1.53713
 20
-19.1168
 11
1.47658
 21
-19.1957
  0
LINE
  8
0
 10
1.47658
 20
-19.1957
 11
1.41197
 21
-19.2713
  0
LINE
  8
0
 10
1.41197
 20
-19.2713
 11
1.3435
 21
-19.3435
  0
LINE
  8
0
 10
1.3435
 20
-19.3435
 11
1.27135
 21
-19.412
  0
LINE
  8
0
 10
1.27135
 20
-19.412
 11
1.19571
 21
-19.4766
  0
LINE
  8
0
 10
1.19571
 20
-19.4766
 11
1.11679
 21
-19.5371
  0
LINE
  8
0
 10
1.11679
 20
-19.5371
 11
1.03481
 21
-19.5935
  0
LINE
  8
0
 10
1.03481
 20
-19.5935
 11
0.95
 21
-19.6454
  0
LINE
  8
0
 10
0.95
 20
-19.6454
 11
0.862581
 21
-19.6929
  0
LINE
  8
0
 10
0.862581
 20
-19.6929
 11
0.772799
 21
-19.7357
  0
LINE
  8
0
 10
0.772799
 20
-19.7357
 11
0.680899
 21
-19.7738
  0
LINE
  8
0
 10
0.680899
 20
-19.7738
 11
0.587132
 21
-19.807
  0
LINE
  8
0
 10
0.587132
 20
-19.807
 11
0.491755
 21
-19.8353
  0
LINE
  8
0
 10
0.491755
 20
-19.8353
 11
0.395032
 21
-19.8585
  0
LINE
  8
0
 10
0.395032
 20
-19.8585
 11
0.297225
 21
-19.8766
  0
LINE
  8
0
 10
0.297225
 20
-19.8766
 11
0.198604
 21
-19.8896
  0
LINE
  8
0
 10
0.198604
 20
-19.8896
 11
0.0994377
 21
-19.8974
  0
LINE
  8
0
 10
0.0994377
 20
-19.8974
 11
0
 21
-19.9
  0
LINE
  8
0
 10
0
 20
-19.9
 11
-0.0994377
 21
-19.8974
  0
LINE
  8
0
 10
-0.0994377
 20
-19.8974
 11
-0.198604
 21
-19.8896
  0
LINE
  8
0
 10
-0.198604
 20
-19.8896
 11
-0.297225
 21
-19.8766
  0
LINE
  8
0
 10
-0.297225
 20
-19.8766
 11
-0.395032
 21
-19.8585
  0
LINE
  8
0
 10
-0.395032
 20
-19.8585
 11
-0.491755
 21
-19.8353
  0
LINE
  8
0
 10
-0.491755
 20
-19.8353
 11
-0.587132
 21
-19.807
  0
LINE
  8
0
 10
-0.587132
 20
-19.807
 11
-0.680899
 21
-19.7738
  0
LINE
  8
0
 10
-0.680899
 20
-19.7738
 11
-0.772799
 21
-19.7357
  0
LINE
  8
0
 10
-0.772799
 20
-19.7357
 11
-0.862581
 21
-19.6929
  0
LINE
  8
0
 10
-0.862581
 20
-19.6929
 11
-0.95
 21
-19.6454
  0
LINE
  8
0
 10
-0.95
 20
-19.6454
 11
-1.03481
 21
-19.5935
  0
LINE
  8
0
 10
-1.03481
 20
-19.5935
 11
-1.11679
 21
-19.5371
  0
LINE
  8
0
 10
-1.11679
 20
-19.5371
 11
-1.19571
 21
-19.4766
  0
LINE
  8
0
 10
-1.19571
 20
-19.4766
 11
-1.27135
 21
-19.412
  0
LINE
  8
0
 10
-1.27135
 20
-19.412
 11
-1.3435
 21
-19.3435
  0
LINE
  8
0
 10
-1.3435
 20
-19.3435
 11
-1.41197
 21
-19.2713
  0
LINE
  8
0
 10
-1.41197
 20
-19.2713
 11
-1.47658
 21
-19.1957
  0
LINE
  8
0
 10
-1.47658
 20
-19.1957
 11
-1.53713
 21
-19.1168
  0
LINE
  8
0
 10
-1.53713
 20
-19.1168
 11
-1.59347
 21
-19.0348
  0
LINE
  8
0
 10
-1.59347
 20
-19.0348
 11
-1.64545
 21
-18.95
  0
LINE
  8
0
 10
-1.64545
 20
-18.95
 11
-1.69291
 21
-18.8626
  0
LINE
  8
0
 10
-1.69291
 20
-18.8626
 11
-1.73574
 21
-18.7728
  0
LINE
  8
0
 10
-1.73574
 20
-18.7728
 11
-1.7738
 21
-18.6809
  0
LINE
  8
0
 10
-1.7738
 20
-18.6809
 11
-1.80701
 21
-18.5871
  0
LINE
  8
0
 10
-1.80701
 20
-18.5871
 11
-1.83526
 21
-18.4918
  0
LINE
  8
0
 10
-1.83526
 20
-18.4918
 11
-1.85848
 21
-18.395
  0
LINE
  8
0
 10
-1.85848
 20
-18.395
 11
-1.87661
 21
-18.2972
  0
LINE
  8
0
 10
-1.87661
 20
-18.2972
 11
-1.88959
 21
-18.1986
  0
LINE
  8
0
 10
-1.88959
 20
-18.1986
 11
-1.8974
 21
-18.0994
  0
LINE
  8
0
 10
-1.8974
 20
-18.0994
 11
-1.9
 21
-18
  0
LINE
  8
0
 10
-1.9
 20
18
 11
-1.8974
 21
18.0994
  0
LINE
  8
0
 10
-1.8974
 20
18.0994
 11
-1.88959
 21
18.1986
  0
LINE
  8
0
 10
-1.88959
 20
18.1986
 11
-1.87661
 21
18.2972
  0
LINE
  8
0
 10
-1.87661
 20
18.2972
 11
-1.85848
 21
18.395
  0
LINE
  8
0
 10
-1.85848
 20
18.395
 11
-1.83526
 21
18.4918
  0
LINE
  8
0
 10
-1.83526
 20
18.4918
 11
-1.80701
 21
18.5871
  0
LINE
  8
0
 10
-1.80701
 20
18.5871
 11
-1.7738
 21
18.6809
  0
LINE
  8
0
 10
-1.7738
 20
18.6809
 11
-1.73574
 21
18.7728
  0
LINE
  8
0
 10
-1.73574
 20
18.7728
 11
-1.69291
 21
18.8626
  0
LINE
  8
0
 10
-1.69291
 20
18.8626
 11
-1.64545
 21
18.95
  0
LINE
  8
0
 10
-1.64545
 20
18.95
 11
-1.59347
 21
19.0348
  0
LINE
  8
0
 10
-1.59347
 20
19.0348
 11
-1.53713
 21
19.1168
  0
LINE
  8
0
 10
-1.53713
 20
19.1168
 11
-1.47658
 21
19.1957
  0
LINE
  8
0
 10
-1.47658
 20
19.1957
 11
-1.41197
 21
19.2713
  0
LINE
  8
0
 10
-1.41197
 20
19.2713
 11
-1.3435
 21
19.3435
  0
LINE
  8
0
 10
-1.3435
 20
19.3435
 11
-1.27135
 21
19.412
  0
LINE
  8
0
 10
-1.27135
 20
19.412
 11
-1.19571
 21
19.4766
  0
LINE
  8
0
 10
-1.19571
 20
19.4766
 11
-1.11679
 21
19.5371
  0
LINE
  8
0
 10
-1.11679
 20
19.5371
 11
-1.03481
 21
19.5935
  0
LINE
  8
0
 10
-1.03481
 20
19.5935
 11
-0.95
 21
19.6454
  0
LINE
  8
0
 10
-0.95
 20
19.6454
 11
-0.862581
 21
19.6929
  0
LINE
  8
0
 10
-0.862581
 20
19.6929
 11
-0.772799
 21
19.7357
  0
LINE
  8
0
 10
-0.772799
 20
19.7357
 11
-0.680899
 21
19.7738
  0
LINE
  8
0
 10
-0.680899
 20
19.7738
 11
-0.587132
 21
19.807
  0
LINE
  8
0
 10
-0.587132
 20
19.807
 11
-0.491755
 21
19.8353
  0
LINE
  8
0
 10
-0.491755
 20
19.8353
 11
-0.395032
 21
19.8585
  0
LINE
  8
0
 10
-0.395032
 20
19.8585
 11
-0.297225
 21
19.8766
  0
LINE
  8
0
 10
-0.297225
 20
19.8766
 11
-0.198604
 21
19.8896
  0
LINE
  8
0
 10
-0.198604
 20
19.8896
 11
-0.0994377
 21
19.8974
  0
LINE
  8
0
 10
-0.0994377
 20
19.8974
 11
0
 21
19.9
  0
LINE
  8
0
 10
0
 20
19.9
 11
0.0994377
 21
19.8974
  0
LINE
  8
0
 10
0.0994377
 20
19.8974
 11
0.198604
 21
19.8896
  0
LINE
  8
0
 10
0.198604
 20
19.8896
 11
0.297225
 21
19.8766
  0
LINE
  8
0
 10
0.297225
 20
19.8766
 11
0.395032
 21
19.8585
  0
LINE
  8
0
 10
0.395032
 20
19.8585
 11
0.491755
 21
19.8353
  0
LINE
  8
0
 10
0.491755
 20
19.8353
 11
0.587132
 21
19.807
  0
LINE
  8
0
 10
0.587132
 20
19.807
 11
0.680899
 21
19.7738
  0
LINE
  8
0
 10
0.680899
 20
19.7738
 11
0.772799
 21
19.7357
  0
LINE
  8
0
 10
0.772799
 20
19.7357
 11
0.862581
 21
19.6929
  0
LINE
  8
0
 10
0.862581
 20
19.6929
 11
0.95
 21
19.6454
  0
LINE
  8
0
 10
0.95
 20
19.6454
 11
1.03481
 21
19.5935
  0
LINE
  8
0
 10
1.03481
 20
19.5935
 11
1.11679
 21
19.5371
  0
LINE
  8
0
 10
1.11679
 20
19.5371
 11
1.19571
 21
19.4766
  0
LINE
  8
0
 10
1.19571
 20
19.4766
 11
1.27135
 21
19.412
  0
LINE
  8
0
 10
1.27135
 20
19.412
 11
1.3435
 21
19.3435
  0
LINE
  8
0
 10
1.3435
 20
19.3435
 11
1.41197
 21
19.2713
  0
LINE
  8
0
 10
1.41197
 20
19.2713
 11
1.47658
 21
19.1957
  0
LINE
  8
0
 10
1.47658
 20
19.1957
 11
1.53713
 21
19.1168
  0
LINE
  8
0
 10
1.53713
 20
19.1168
 11
1.59347
 21
19.0348
  0
LINE
  8
0
 10
1.59347
 20
19.0348
 11
1.64545
 21
18.95
  0
LINE
  8
0
 10
1.64545
 20
18.95
 11
1.69291
 21
18.8626
  0
LINE
  8
0
 10
1.69291
 20
18.8626
 11
1.73574
 21
18.7728
  0
LINE
  8
0
 10
1.73574
 20
18.7728
 11
1.7738
 21
18.6809
  0
LINE
  8
0
 10
1.7738
 20
18.6809
 11
1.80701
 21
18.5871
  0
LINE
  8
0
 10
1.80701
 20
18.5871
 11
1.83526
 21
18.4918
  0
LINE
  8
0
 10
1.83526
 20
18.4918
 11
1.85848
 21
18.395
  0
LINE
  8
0
 10
1.85848
 20
18.395
 11
1.87661
 21
18.2972
  0
LINE
  8
0
 10
1.87661
 20
18.2972
 11
1.88959
 21
18.1986
  0
LINE
  8
0
 10
1.88959
 20
18.1986
 11
1.8974
 21
18.0994
  0
LINE
  8
0
 10
1.8974
 20
18.0994
 11
1.9
 21
18
  0
LINE
  8
0
 10
1.9
 20
18
 11
1.8974
 21
17.9006
  0
LINE
  8
0
 10
1.8974
 20
17.9006
 11
1.88959
 21
17.8014
  0
LINE
  8
0
 10
1.88959
 20
17.8014
 11
1.87661
 21
17.7028
  0
LINE
  8
0
 10
1.87661
 20
17.7028
 11
1.85848
 21
17.605
  0
LINE
  8
0
 10
1.85848
 20
17.605
 11
1.83526
 21
17.5082
  0
LINE
  8
0
 10
1.83526
 20
17.5082
 11
1.80701
 21
17.4129
  0
LINE
  8
0
 10
1.80701
 20
17.4129
 11
1.7738
 21
17.3191
  0
LINE
  8
0
 10
1.7738
 20
17.3191
 11
1.73574
 21
17.2272
  0
LINE
  8
0
 10
1.73574
 20
17.2272
 11
1.69291
 21
17.1374
  0
LINE
  8
0
 10
1.69291
 20
17.1374
 11
1.64545
 21
17.05
  0
LINE
  8
0
 10
1.64545
 20
17.05
 11
1.59347
 21
16.9652
  0
LINE
  8
0
 10
1.59347
 20
16.9652
 11
1.53713
 21
16.8832
  0
LINE
  8
0
 10
1.53713
 20
16.8832
 11
1.47658
 21
16.8043
  0
LINE
  8
0
 10
1.47658
 20
16.8043
 11
1.41197
 21
16.7287
  0
LINE
  8
0
 10
1.41197
 20
16.7287
 11
1.3435
 21
16.6565
  0
LINE
  8
0
 10
1.3435
 20
16.6565
 11
1.27135
 21
16.588
  0
LINE
  8
0
 10
1.27135
 20
16.588
 11
1.19571
 21
16.5234
  0
LINE
  8
0
 10
1.19571
 20
16.5234
 11
1.11679
 21
16.4629
  0
LINE
  8
0
 10
1.11679
 20
16.4629
 11
1.03481
 21
16.4065
  0
LINE
  8
0
 10
1.03481
 20
16.4065
 11
0.95
 21
16.3546
  0
LINE
  8
0
 10
0.95
 20
16.3546
 11
0.862581
 21
16.3071
  0
LINE
  8
0
 10
0.862581
 20
16.3071
 11
0.772799
 21
16.2643
  0
LINE
  8
0
 10
0.772799
 20
16.2643
 11
0.680899
 21
16.2262
  0
LINE
  8
0
 10
0.680899
 20
16.2262
 11
0.587132
 21
16.193
  0
LINE
  8
0
 10
0.587132
 20
16.193
 11
0.491755
 21
16.1647
  0
LINE
  8
0
 10
0.491755
 20
16.1647
 11
0.395032
 21
16.1415
  0
LINE
  8
0
 10
0.395032
 20
16.1415
 11
0.297225
 21
16.1234
  0
LINE
  8
0
 10
0.297225
 20
16.1234
 11
0.198604
 21
16.1104
  0
LINE
  8
0
 10
0.198604
 20
16.1104
 11
0.0994377
 21
16.1026
  0
LINE
  8
0
 10
0.0994377
 20
16.1026
 11
0
 21
16.1
  0
LINE
  8
0
 10
0
 20
16.1
 11
-0.0994377
 21
16.1026
  0
LINE
  8
0
 10
-0.0994377
 20
16.1026
 11
-0.198604
 21
16.1104
  0
LINE
  8
0
 10
-0.198604
 20
16.1104
 11
-0.297225
 21
16.1234
  0
LINE
  8
0
 10
-0.297225
 20
16.1234
 11
-0.395032
 21
16.1415
  0
LINE
  8
0
 10
-0.395032
 20
16.1415
 11
-0.491755
 21
16.1647
  0
LINE
  8
0
 10
-0.491755
 20
16.1647
 11
-0.587132
 21
16.193
  0
LINE
  8
0
 10
-0.587132
 20
16.193
 11
-0.680899
 21
16.2262
  0
LINE
  8
0
 10
-0.680899
 20
16.2262
 11
-0.772799
 21
16.2643
  0
LINE
  8
0
 10
-0.772799
 20
16.2643
 11
-0.862581
 21
16.3071
  0
LINE
  8
0
 10
-0.862581
 20
16.3071
 11
-0.95
 21
16.3546
  0
LINE
  8
0
 10
-0.95
 20
16.3546
 11
-1.03481
 21
16.4065
  0
LINE
  8
0
 10
-1.03481
 20
16.4065
 11
-1.11679
 21
16.4629
  0
LINE
  8
0
 10
-1.11679
 20
16.4629
 11
-1.19571
 21
16.5234
  0
LINE
  8
0
 10
-1.19571
 20
16.5234
 11
-1.27135
 21
16.588
  0
LINE
  8
0
 10
-1.27135
 20
16.588
 11
-1.3435
 21
16.6565
  0
LINE
  8
0
 10
-1.3435
 20
16.6565
 11
-1.41197
 21
16.7287
  0
LINE
  8
0
 10
-1.41197
 20
16.7287
 11
-1.47658
 21
16.8043
  0
LINE
  8
0
 10
-1.47658
 20
16.8043
 11
-1.53713
 21
16.8832
  0
LINE
  8
0
 10
-1.53713
 20
16.8832
 11
-1.59347
 21
16.9652
  0
LINE
  8
0
 10
-1.59347
 20
16.9652
 11
-1.64545
 21
17.05
  0
LINE
  8
0
 10
-1.64545
 20
17.05
 11
-1.69291
 21
17.1374
  0
LINE
  8
0
 10
-1.69291
 20
17.1374
 11
-1.73574
 21
17.2272
  0
LINE
  8
0
 10
-1.73574
 20
17.2272
 11
-1.7738
 21
17.3191
  0
LINE
  8
0
 10
-1.7738
 20
17.3191
 11
-1.80701
 21
17.4129
  0
LINE
  8
0
 10
-1.80701
 20
17.4129
 11
-1.83526
 21
17.5082
  0
LINE
  8
0
 10
-1.83526
 20
17.5082
 11
-1.85848
 21
17.605
  0
LINE
  8
0
 10
-1.85848
 20
17.605
 11
-1.87661
 21
17.7028
  0
LINE
  8
0
 10
-1.87661
 20
17.7028
 11
-1.88959
 21
17.8014
  0
LINE
  8
0
 10
-1.88959
 20
17.8014
 11
-1.8974
 21
17.9006
  0
LINE
  8
0
 10
-1.8974
 20
17.9006
 11
-1.9
 21
18
  0
ENDSEC
  0
SECTION
  2
OBJECTS
  0
DICTIONARY
  0
ENDSEC
  0
EOF
