<?xml version="1.0" standalone="no"?>
<!DOCTYPE svg PUBLIC "-//W3C//DTD SVG 1.1//EN" "http://www.w3.org/Graphics/SVG/1.1/DTD/svg11.dtd">
<svg width="87" height="202" viewBox="-69 -126 87 202" xmlns="http://www.w3.org/2000/svg" version="1.1">
<title>OpenSCAD Model</title>
<path d="
M -68.5,-82.9 L -68.4341,-79.1274 L -68.2367,-75.3593 L -67.9078,-71.6005 L -67.448,-67.8554 L -66.8577,-64.1286
 L -66.1378,-60.4247 L -65.289,-56.7482 L -64.3124,-53.1036 L -63.2092,-49.4953 L -61.9808,-45.9276 L -60.6286,-42.405
 L -59.1543,-38.9318 L -57.5596,-35.5121 L -55.8466,-32.1501 L -54.0173,-28.85 L -52.074,-25.6157 L -50.1351,-22.6301
 L 4.1,75.6 L 17.6,75.6 L 17.6,70.6414 L 16.8815,70.6414 L 14.6935,70.1763 L 12.65,69.2665
 L 10.8403,67.9516 L 9.34352,66.2893 L 8.22506,64.3521 L 7.53382,62.2247 L 7.53382,62.2247 L 7.3,60
 L 7.3,60 L 7.3,60 L 7.53382,57.7753 L 7.58773,57.6094 L 7.59502,57.5471 L 7.64702,57.3932
 L 7.65704,57.3153 L 7.70674,57.1736 L 7.7199,57.0799 L 7.7669,56.9508 L 7.78362,56.8411 L 7.82752,56.7247
 L 7.84822,56.5988 L 7.87333,56.5345 L 7.87984,56.4227 L 7.91919,56.2792 L 7.92894,56.1399 L 7.96646,56.009
 L 7.97915,55.8535 L 8.01445,55.7356 L 8.0305,55.5637 L 8.06318,55.459 L 8.07148,55.3801 L 8.0701,55.321
 L 8.10827,55.1184 L 8.10685,54.9961 L 8.14495,54.806 L 8.14495,54.6677 L 8.18262,54.4904 L 8.18442,54.3357
 L 8.22129,54.1717 L 8.22527,54.0004 L 8.26096,53.8498 L 8.26753,53.6616 L 8.30165,53.5247 L 8.31121,53.3194
 L 8.34336,53.1966 L 8.35633,52.9739 L 8.38611,52.8653 L 8.40291,52.6251 L 8.41695,52.5761 L 8.43903,52.419
 L 8.43992,52.4081 L 8.43388,52.3044 L 8.47269,52.0497 L 8.46693,51.9261 L 8.50653,51.6851 L 8.50162,51.5445
 L 8.54164,51.3175 L 8.53796,51.1596 L 8.57802,50.9469 L 8.57598,50.7715 L 8.61568,50.5734 L 8.61568,50.3801
 L 8.65463,50.1969 L 8.65709,49.9856 L 8.69487,49.8175 L 8.70021,49.588 L 8.7364,49.4353 L 8.74507,49.1872
 L 8.77925,49.0501 L 8.79167,48.7834 L 8.8234,48.6622 L 8.84004,48.3766 L 8.86888,48.2714 L 8.89018,47.9667
 L 8.90569,47.9127 L 8.92489,47.7635 L 8.91781,47.6623 L 8.96196,47.3482 L 8.95501,47.2289 L 9.00055,46.9301
 L 8.99414,46.7925 L 9.04066,46.5094 L 9.0352,46.3531 L 9.0823,46.086 L 9.07822,45.9109 L 9.12546,45.6601
 L 9.1232,45.4658 L 9.17017,45.2315 L 9.17017,45.0179 L 9.21641,44.8003 L 9.21912,44.5672 L 9.2642,44.3667
 L 9.27009,44.1138 L 9.31354,43.9305 L 9.32307,43.6578 L 9.36,43.5096 L 9.36,42 L 9.36,41.6773
 L 9.30927,41.6439 L 9.05231,41.384 L 8.88132,41.2657 L 8.63261,41.0021 L 8.46567,40.8808 L 8.22495,40.6135
 L 8.06245,40.4895 L 7.82948,40.2184 L 7.6718,40.0922 L 7.44635,39.8171 L 7.29382,39.6891 L 7.07568,39.4099
 L 6.92865,39.2805 L 6.71762,38.9971 L 6.57636,38.8669 L 6.37228,38.579 L 6.23708,38.4484 L 6.03977,38.1559
 L 5.91087,38.0255 L 5.72023,37.7282 L 5.59783,37.5984 L 5.41373,37.296 L 5.29803,37.1675 L 5.12039,36.8599
 L 5.01153,36.7332 L 4.84028,36.4199 L 4.73839,36.2956 L 4.5735,35.9766 L 4.47866,35.8552 L 4.32012,35.5301
 L 4.23239,35.4123 L 4.0802,35.0809 L 3.9996,34.9672 L 3.85381,34.6292 L 3.78034,34.5203 L 3.641,34.1754
 L 3.5746,34.0719 L 3.44182,33.7198 L 3.38242,33.6223 L 3.25629,33.2628 L 3.20378,33.1718 L 3.13853,32.971
 L 3.11361,32.9133 L 3.10371,32.8639 L 3.08446,32.8046 L 3.03869,32.7209 L 2.9968,32.581 L 2.94237,32.4463
 L 2.92566,32.3515 L 2.91567,32.325 L 2.88713,32.2698 L 2.86659,32.1949 L 2.78513,31.9789 L 2.76922,31.8745
 L 2.75118,31.8231 L 2.74908,31.8188 L 2.74763,31.813 L 2.64186,31.5115 L 2.62713,31.3971 L 2.51254,31.0444
 L 2.49942,30.9196 L 2.39713,30.578 L 2.38607,30.4424 L 2.29561,30.1125 L 2.28707,29.9658 L 2.20792,29.6483
 L 2.2024,29.4901 L 2.13401,29.1859 L 2.13203,29.0159 L 2.07381,28.7254 L 2.07593,28.5433 L 2.02725,28.2672
 L 2.03404,28.0728 L 1.99426,27.8118 L 2.00632,27.6047 L 1.97474,27.3593 L 1.9927,27.1393 L 1.96861,26.9101
 L 1.9931,26.6771 L 1.97575,26.4647 L 2.00744,26.2184 L 1.99607,26.0232 L 2.03563,25.7636 L 2.02943,25.586
 L 2.07758,25.3129 L 2.07572,25.1534 L 2.13317,24.8668 L 2.13481,24.7258 L 2.20228,24.4255 L 2.20654,24.3034
 L 2.28479,23.9895 L 2.29079,23.8865 L 2.38056,23.5591 L 2.38738,23.4756 L 2.46186,23.2268 L 2.51531,22.9601
 L 2.54939,22.8811 L 2.62531,22.5433 L 2.66922,22.4477 L 2.7477,22.1329 L 2.80234,22.0209 L 2.8823,21.7293
 L 2.94859,21.601 L 3.02893,21.3326 L 3.10777,21.1884 L 3.18741,20.9434 L 3.2797,20.7835 L 3.35752,20.5617
 L 3.46417,20.3865 L 3.53908,20.1879 L 3.66098,19.9978 L 3.73188,19.8223 L 3.8699,19.6177 L 3.93569,19.4652
 L 4.09072,19.2465 L 4.1503,19.1168 L 4.32318,18.8845 L 4.37547,18.7773 L 4.56706,18.5321 L 4.61098,18.4471
 L 4.8221,18.1895 L 4.85658,18.1264 L 4.94586,18.0225 L 4.98274,17.9678 L 5.0285,17.9236 L 5.22937,17.6403
 L 5.29345,17.5812 L 5.48609,17.3225 L 5.56931,17.2493 L 5.75265,17.0146 L 5.8558,16.9281 L 6.0288,16.7169
 L 6.15264,16.6179 L 6.31428,16.4297 L 6.45953,16.3189 L 6.60881,16.1531 L 6.77618,16.0315 L 6.91212,15.8874
 L 7.10227,15.7559 L 7.22394,15.6328 L 7.43749,15.4924 L 7.54397,15.3896 L 7.78152,15.2411 L 7.87194,15.1578
 L 8.13403,15.0024 L 8.20755,14.9377 L 8.49469,14.7764 L 8.55049,14.7295 L 8.70598,14.6469 L 8.75192,14.6151
 L 8.8052,14.5928 L 9.09284,14.4036 L 9.16997,14.3735 L 9.44098,14.2042 L 9.54234,14.1673 L 9.79601,14.0169
 L 9.92195,13.9743 L 10.1576,13.8419 L 10.3085,13.7948 L 10.5256,13.6794 L 10.7015,13.6289 L 10.8995,13.5295
 L 11.1007,13.4768 L 11.279,13.3924 L 11.5057,13.3387 L 11.6638,13.2683 L 11.9161,13.2147 L 12.0537,13.1572
 L 12.3316,13.1049 L 12.4482,13.0593 L 12.7518,13.0094 L 12.8471,12.9747 L 13.1763,12.9285 L 13.25,12.9036
 L 13.4307,12.8825 L 13.4556,12.8766 L 13.4876,12.8758 L 13.538,12.8699 L 13.8519,12.8032 L 13.9332,12.8032
 L 14.252,12.7432 L 14.357,12.7456 L 14.6555,12.6965 L 14.784,12.7025 L 15.0623,12.6634 L 15.2139,12.674
 L 15.4718,12.6439 L 15.6463,12.6602 L 15.8838,12.638 L 16.0808,12.6611 L 16.2979,12.6459 L 16.5171,12.6767
 L 16.7138,12.6675 L 16.9546,12.7071 L 17.1311,12.703 L 17.3931,12.7524 L 17.5495,12.7524 L 17.6,12.7631
 L 17.6,-0 L 17.5571,-1.22771 L 17.4287,-2.44945 L 17.2154,-3.65925 L 16.9182,-4.85122 L 16.5386,-6.01955
 L 16.0784,-7.15856 L 15.5399,-8.2627 L 14.9256,-9.32658 L 14.2387,-10.345 L 13.4824,-11.3131 L 12.6604,-12.226
 L 11.7767,-13.0793 L 10.8356,-13.869 L 9.84179,-14.5911 L 8.8,-15.242 L 7.71533,-15.8188 L 6.59308,-16.3184
 L 5.4387,-16.7386 L 3.92145,-17.2057 L 3.95974,-17.3486 L 3.67272,-17.4255 L 1.06577,-18.2225 L -1.51177,-19.11
 L -4.05677,-20.0869 L -6.56613,-21.1521 L -9.03679,-22.3042 L -11.4657,-23.5418 L -13.85,-24.8634 L -16.1867,-26.2674
 L -18.473,-27.7522 L -20.706,-29.3158 L -22.8832,-30.9564 L -25.0017,-32.6719 L -27.0591,-34.4604 L -29.0528,-36.3196
 L -30.9804,-38.2472 L -32.8396,-40.2409 L -34.6281,-42.2983 L -36.3436,-44.4168 L -37.9842,-46.594 L -39.5478,-48.827
 L -41.0326,-51.1133 L -42.4366,-53.45 L -43.7582,-55.8343 L -44.9958,-58.2632 L -46.1479,-60.7339 L -47.2131,-63.2432
 L -48.19,-65.7882 L -49.0775,-68.3658 L -49.8745,-70.9727 L -50.5801,-73.6059 L -51.1933,-76.2621 L -51.7135,-78.9381
 L -52.1399,-81.6306 L -52.4722,-84.3363 L -52.7098,-87.052 L -52.8524,-89.7743 L -52.9,-92.5 L -52.8588,-94.8607
 L -52.8092,-94.8633 L -52.6429,-94.8837 L -52.4785,-94.9157 L -52.3166,-94.959 L -52.1583,-95.0136 L -52.0041,-95.079
 L -51.8548,-95.1551 L -51.7112,-95.2414 L -51.574,-95.3374 L -51.4438,-95.4429 L -51.3213,-95.5571 L -51.207,-95.6796
 L -51.1016,-95.8098 L -51.0055,-95.947 L -50.9193,-96.0906 L -50.8432,-96.2399 L -50.7777,-96.3941 L -50.7232,-96.5525
 L -50.6799,-96.7143 L -50.6479,-96.8787 L -50.6275,-97.045 L -50.6187,-97.2123 L -50.6216,-97.3798 L -50.6362,-97.5467
 L -50.6624,-97.7121 L -50.7001,-97.8753 L -53.1853,-107.15 L -49.7616,-108.066 L -49.6538,-108.095 L -49.5482,-108.132
 L -49.4454,-108.175 L -49.3459,-108.226 L -49.2501,-108.284 L -49.1587,-108.348 L -49.0719,-108.418 L -48.9902,-108.494
 L -48.914,-108.576 L -48.8437,-108.663 L -48.7797,-108.754 L -48.7222,-108.85 L -48.6715,-108.949 L -48.6278,-109.052
 L -48.5915,-109.158 L -48.5626,-109.266 L -48.5413,-109.375 L -48.5276,-109.486 L -48.5218,-109.598 L -48.5238,-109.709
 L -48.5335,-109.82 L -48.551,-109.931 L -48.5761,-110.04 L -50.2325,-116.221 L -50.2652,-116.328 L -50.3052,-116.433
 L -50.3524,-116.534 L -50.4065,-116.631 L -50.4674,-116.725 L -50.5346,-116.814 L -50.6078,-116.899 L -50.6868,-116.978
 L -50.7711,-117.051 L -50.8603,-117.118 L -50.9539,-117.179 L -51.0516,-117.233 L -51.1528,-117.28 L -51.2571,-117.32
 L -51.3639,-117.353 L -51.4727,-117.378 L -51.583,-117.395 L -51.6943,-117.405 L -51.8059,-117.407 L -51.9174,-117.401
 L -52.0283,-117.388 L -52.1379,-117.366 L -52.2458,-117.337 L -55.6689,-116.419 L -57.5329,-123.376 L -57.5819,-123.536
 L -57.642,-123.692 L -57.7127,-123.844 L -57.794,-123.991 L -57.8852,-124.131 L -57.986,-124.265 L -58.0959,-124.391
 L -58.2144,-124.51 L -58.3408,-124.62 L -58.4746,-124.721 L -58.6151,-124.812 L -58.7616,-124.893 L -58.9134,-124.964
 L -59.0698,-125.024 L -59.23,-125.073 L -59.3932,-125.111 L -59.5587,-125.137 L -59.7256,-125.151 L -59.893,-125.154
 L -60.0603,-125.145 L -60.2266,-125.125 L -60.391,-125.093 L -60.5529,-125.05 L -60.7112,-124.995 L -60.8654,-124.93
 L -61.0147,-124.854 L -61.1583,-124.767 L -61.2955,-124.671 L -61.4257,-124.566 L -61.5482,-124.452 L -61.6625,-124.329
 L -61.7679,-124.199 L -61.864,-124.062 L -61.9503,-123.918 L -62.0263,-123.769 L -62.0918,-123.615 L -62.1463,-123.456
 L -62.1897,-123.294 L -64.6678,-111.374 L -64.6705,-111.36 L -65.289,-109.052 L -66.1378,-105.375 L -66.8577,-101.671
 L -67.448,-97.9446 L -67.9078,-94.1995 L -68.2367,-90.4407 L -68.4341,-86.6726 z
M -10.775,1.6243 L -10.775,-1.6243 L -10.6618,-2.26624 L -10.4778,-3.00445 L -10.2426,-3.72802 L -9.95765,-4.43343
 L -9.62413,-5.11724 L -9.24372,-5.77612 L -8.81828,-6.40686 L -8.34988,-7.00638 L -7.8408,-7.57178 L -7.29352,-8.10028
 L -6.71071,-8.58932 L -6.0952,-9.03651 L -5.45,-9.43968 L -4.77824,-9.79685 L -4.08321,-10.1063 L -3.36829,-10.3665
 L -2.63695,-10.5762 L -1.89277,-10.7344 L -1.42603,-10.8 L 1.42603,-10.8 L 1.89277,-10.7344 L 2.63695,-10.5762
 L 3.36829,-10.3665 L 4.08321,-10.1063 L 4.77824,-9.79685 L 5.45,-9.43968 L 6.0952,-9.03651 L 6.71071,-8.58932
 L 7.29352,-8.10028 L 7.8408,-7.57178 L 8.34988,-7.00638 L 8.81828,-6.40686 L 9.24372,-5.77612 L 9.62413,-5.11724
 L 9.95765,-4.43343 L 10.2426,-3.72802 L 10.4778,-3.00445 L 10.6618,-2.26624 L 10.775,-1.6243 L 10.775,1.6243
 L 10.6618,2.26624 L 10.4778,3.00445 L 10.2426,3.72802 L 9.95765,4.43343 L 9.62413,5.11724 L 9.24372,5.77612
 L 8.81828,6.40686 L 8.34988,7.00638 L 7.8408,7.57178 L 7.29352,8.10028 L 6.71071,8.58932 L 6.0952,9.03651
 L 5.45,9.43968 L 4.77824,9.79685 L 4.08321,10.1063 L 3.36829,10.3665 L 2.63695,10.5762 L 1.89277,10.7344
 L 1.42603,10.8 L -1.42603,10.8 L -1.89277,10.7344 L -2.63695,10.5762 L -3.36829,10.3665 L -4.08321,10.1063
 L -4.77824,9.79685 L -5.45,9.43968 L -6.0952,9.03651 L -6.71071,8.58932 L -7.29352,8.10028 L -7.8408,7.57178
 L -8.34988,7.00638 L -8.81828,6.40686 L -9.24372,5.77612 L -9.62413,5.11724 L -9.95765,4.43343 L -10.2426,3.72802
 L -10.4778,3.00445 L -10.6618,2.26624 z
" stroke="black" fill="lightgray" stroke-width="0.5"/></svg>
