<?xml version="1.0" standalone="no"?>
<!DOCTYPE svg PUBLIC "-//W3C//DTD SVG 1.1//EN" "http://www.w3.org/Graphics/SVG/1.1/DTD/svg11.dtd">
<svg width="138" height="131" viewBox="-69 -59 138 131" xmlns="http://www.w3.org/2000/svg" version="1.1">
<title>OpenSCAD Model</title>
<path d="
M -68.9,64.85 L -68.7601,66.1806 L -68.3467,67.4531 L -67.6777,68.6118 L -66.7824,69.6061 L -65.7,70.3926
 L -64.4777,70.9368 L -63.169,71.2149 L 63.169,71.2149 L 64.4777,70.9368 L 65.7,70.3926 L 66.7824,69.6061
 L 67.6777,68.6118 L 68.3467,67.4531 L 68.7601,66.1806 L 68.9,64.85 L 68.7601,63.5194 L 68.3467,62.2469
 L 67.6777,61.0882 L 66.7824,60.0939 L 65.7,59.3074 L 64.4777,58.7632 L 48.0239,55.2189 L 42.5875,48.7953
 L 42.5875,1.07798 L 65.3638,-54.3234 L 65.5705,-54.9597 L 65.6404,-55.625 L 65.5705,-56.2903 L 65.3638,-56.9266
 L 65.0293,-57.5059 L 64.5816,-58.0031 L 64.0404,-58.3963 L 63.4293,-58.6684 L 62.7749,-58.8075 L 62.1059,-58.8075
 L 61.4516,-58.6684 L 60.8404,-58.3963 L 60.2992,-58.0031 L 34.7366,-33.3294 L 6.54309,-25.9575 L -6.54309,-25.9575
 L -34.7366,-33.3294 L -60.2992,-58.0031 L -60.8404,-58.3963 L -61.4516,-58.6684 L -62.1059,-58.8075 L -62.7749,-58.8075
 L -63.4293,-58.6684 L -64.0404,-58.3963 L -64.5816,-58.0031 L -65.0293,-57.5059 L -65.3638,-56.9266 L -65.5705,-56.2903
 L -65.6404,-55.625 L -65.5705,-54.9597 L -65.3638,-54.3234 L -42.5875,1.07798 L -42.5875,48.7953 L -48.0239,55.2189
 L -64.4777,58.7632 L -65.7,59.3074 L -66.7824,60.0939 L -67.6777,61.0882 L -68.3467,62.2469 L -68.7601,63.5194
 z
M -64.075,64.85 L -64.0406,64.5225 L -63.9388,64.2094 L -63.7742,63.9242 L -63.5539,63.6795 L -63.2875,63.486
 L -62.9867,63.3521 L -62.6646,63.2836 L -62.3354,63.2836 L -62.0133,63.3521 L -61.7125,63.486 L -61.4461,63.6795
 L -61.2258,63.9242 L -61.0612,64.2094 L -60.9594,64.5225 L -60.925,64.85 L -60.9594,65.1775 L -61.0612,65.4906
 L -61.2258,65.7758 L -61.4461,66.0205 L -61.7125,66.214 L -62.0133,66.3479 L -62.3354,66.4164 L -62.6646,66.4164
 L -62.9867,66.3479 L -63.2875,66.214 L -63.5539,66.0205 L -63.7742,65.7758 L -63.9388,65.4906 L -64.0406,65.1775
 z
M -17.575,-0 L -17.5406,-0.32746 L -17.4388,-0.64061 L -17.2742,-0.925761 L -17.0539,-1.17045 L -16.7875,-1.36399
 L -16.4867,-1.49791 L -16.1646,-1.56637 L -15.8354,-1.56637 L -15.5133,-1.49791 L -15.2125,-1.36399 L -14.9461,-1.17045
 L -14.7258,-0.925761 L -14.5612,-0.64061 L -14.4594,-0.32746 L -14.425,-0 L -14.4594,0.32746 L -14.5612,0.64061
 L -14.7258,0.925761 L -14.9461,1.17045 L -15.2125,1.36399 L -15.5133,1.49791 L -15.8354,1.56637 L -16.1646,1.56637
 L -16.4867,1.49791 L -16.7875,1.36399 L -17.0539,1.17045 L -17.2742,0.925761 L -17.4388,0.64061 L -17.5406,0.32746
 z
M -9.325,43.6 L -9.29058,43.2725 L -9.18883,42.9594 L -9.0242,42.6742 L -8.80388,42.4295 L -8.5375,42.236
 L -8.2367,42.1021 L -7.91463,42.0336 L -7.58537,42.0336 L -7.2633,42.1021 L -6.9625,42.236 L -6.69612,42.4295
 L -6.4758,42.6742 L -6.31117,42.9594 L -6.20942,43.2725 L -6.175,43.6 L -6.20942,43.9275 L -6.31117,44.2406
 L -6.4758,44.5258 L -6.69612,44.7705 L -6.9625,44.964 L -7.2633,45.0979 L -7.58537,45.1664 L -7.91463,45.1664
 L -8.2367,45.0979 L -8.5375,44.964 L -8.80388,44.7705 L -9.0242,44.5258 L -9.18883,44.2406 L -9.29058,43.9275
 z
M -9.325,16.85 L -9.29058,16.5225 L -9.18883,16.2094 L -9.0242,15.9242 L -8.80388,15.6795 L -8.5375,15.486
 L -8.2367,15.3521 L -7.91463,15.2836 L -7.58537,15.2836 L -7.2633,15.3521 L -6.9625,15.486 L -6.69612,15.6795
 L -6.4758,15.9242 L -6.31117,16.2094 L -6.20942,16.5225 L -6.175,16.85 L -6.20942,17.1775 L -6.31117,17.4906
 L -6.4758,17.7758 L -6.69612,18.0205 L -6.9625,18.214 L -7.2633,18.3479 L -7.58537,18.4164 L -7.91463,18.4164
 L -8.2367,18.3479 L -8.5375,18.214 L -8.80388,18.0205 L -9.0242,17.7758 L -9.18883,17.4906 L -9.29058,17.1775
 z
M -6.775,37.35 L -6.62695,35.9414 L -6.18927,34.5944 L -5.48109,33.3678 L -4.53336,32.3152 L -3.3875,31.4827
 L -2.09359,30.9066 L -0.708179,30.6121 L 0.708179,30.6121 L 2.09359,30.9066 L 3.3875,31.4827 L 4.53336,32.3152
 L 5.48109,33.3678 L 6.18927,34.5944 L 6.62695,35.9414 L 6.775,37.35 L 6.62695,38.7586 L 6.18927,40.1056
 L 5.48109,41.3322 L 4.53336,42.3848 L 3.3875,43.2173 L 2.09359,43.7934 L 0.708179,44.0879 L -0.708179,44.0879
 L -2.09359,43.7934 L -3.3875,43.2173 L -4.53336,42.3848 L -5.48109,41.3322 L -6.18927,40.1056 L -6.62695,38.7586
 z
M -3.5,-9.75 L -3.5,-20.25 L 3.5,-20.25 L 3.5,-9.75 z
M -2.3625,52.75 L -2.31087,52.2588 L -2.15825,51.7891 L -1.9113,51.3614 L -1.58082,50.9943 L -1.18125,50.704
 L -0.730052,50.5031 L -0.246948,50.4004 L 0.246948,50.4004 L 0.730052,50.5031 L 1.18125,50.704 L 1.58082,50.9943
 L 1.9113,51.3614 L 2.15825,51.7891 L 2.31087,52.2588 L 2.3625,52.75 L 2.31087,53.2412 L 2.15825,53.7109
 L 1.9113,54.1386 L 1.58082,54.5057 L 1.18125,54.796 L 0.730052,54.9969 L 0.246948,55.0996 L -0.246948,55.0996
 L -0.730052,54.9969 L -1.18125,54.796 L -1.58082,54.5057 L -1.9113,54.1386 L -2.15825,53.7109 L -2.31087,53.2412
 z
M 6.175,43.6 L 6.20942,43.2725 L 6.31117,42.9594 L 6.4758,42.6742 L 6.69612,42.4295 L 6.9625,42.236
 L 7.2633,42.1021 L 7.58537,42.0336 L 7.91463,42.0336 L 8.2367,42.1021 L 8.5375,42.236 L 8.80388,42.4295
 L 9.0242,42.6742 L 9.18883,42.9594 L 9.29058,43.2725 L 9.325,43.6 L 9.29058,43.9275 L 9.18883,44.2406
 L 9.0242,44.5258 L 8.80388,44.7705 L 8.5375,44.964 L 8.2367,45.0979 L 7.91463,45.1664 L 7.58537,45.1664
 L 7.2633,45.0979 L 6.9625,44.964 L 6.69612,44.7705 L 6.4758,44.5258 L 6.31117,44.2406 L 6.20942,43.9275
 z
M 6.175,16.85 L 6.20942,16.5225 L 6.31117,16.2094 L 6.4758,15.9242 L 6.69612,15.6795 L 6.9625,15.486
 L 7.2633,15.3521 L 7.58537,15.2836 L 7.91463,15.2836 L 8.2367,15.3521 L 8.5375,15.486 L 8.80388,15.6795
 L 9.0242,15.9242 L 9.18883,16.2094 L 9.29058,16.5225 L 9.325,16.85 L 9.29058,17.1775 L 9.18883,17.4906
 L 9.0242,17.7758 L 8.80388,18.0205 L 8.5375,18.214 L 8.2367,18.3479 L 7.91463,18.4164 L 7.58537,18.4164
 L 7.2633,18.3479 L 6.9625,18.214 L 6.69612,18.0205 L 6.4758,17.7758 L 6.31117,17.4906 L 6.20942,17.1775
 z
M 14.425,-0 L 14.4594,-0.32746 L 14.5612,-0.64061 L 14.7258,-0.925761 L 14.9461,-1.17045 L 15.2125,-1.36399
 L 15.5133,-1.49791 L 15.8354,-1.56637 L 16.1646,-1.56637 L 16.4867,-1.49791 L 16.7875,-1.36399 L 17.0539,-1.17045
 L 17.2742,-0.925761 L 17.4388,-0.64061 L 17.5406,-0.32746 L 17.575,-0 L 17.5406,0.32746 L 17.4388,0.64061
 L 17.2742,0.925761 L 17.0539,1.17045 L 16.7875,1.36399 L 16.4867,1.49791 L 16.1646,1.56637 L 15.8354,1.56637
 L 15.5133,1.49791 L 15.2125,1.36399 L 14.9461,1.17045 L 14.7258,0.925761 L 14.5612,0.64061 L 14.4594,0.32746
 z
M 60.925,64.85 L 60.9594,64.5225 L 61.0612,64.2094 L 61.2258,63.9242 L 61.4461,63.6795 L 61.7125,63.486
 L 62.0133,63.3521 L 62.3354,63.2836 L 62.6646,63.2836 L 62.9867,63.3521 L 63.2875,63.486 L 63.5539,63.6795
 L 63.7742,63.9242 L 63.9388,64.2094 L 64.0406,64.5225 L 64.075,64.85 L 64.0406,65.1775 L 63.9388,65.4906
 L 63.7742,65.7758 L 63.5539,66.0205 L 63.2875,66.214 L 62.9867,66.3479 L 62.6646,66.4164 L 62.3354,66.4164
 L 62.0133,66.3479 L 61.7125,66.214 L 61.4461,66.0205 L 61.2258,65.7758 L 61.0612,65.4906 L 60.9594,65.1775
 z
" stroke="black" fill="lightgray" stroke-width="0.5"/></svg>
