  0
SECTION
  2
BLOCKS
  0
ENDSEC
  0
SECTION
  2
ENTITIES
  0
LINE
  8
0
 10
-77.75
 20
18.875
 11
-68.25
 21
18.875
  0
LINE
  8
0
 10
-68.25
 20
18.875
 11
-68.25
 21
24.915
  0
LINE
  8
0
 10
-68.25
 20
24.915
 11
-60.75
 21
32.395
  0
LINE
  8
0
 10
-60.75
 20
32.395
 11
-25.75
 21
32.395
  0
LINE
  8
0
 10
-25.75
 20
32.395
 11
-18.25
 21
24.915
  0
LINE
  8
0
 10
-18.25
 20
24.915
 11
-18.25
 21
18.875
  0
LINE
  8
0
 10
-18.25
 20
18.875
 11
-7.39999
 21
18.875
  0
LINE
  8
0
 10
-7.39999
 20
18.875
 11
-7.39999
 21
21.625
  0
LINE
  8
0
 10
-7.39999
 20
21.625
 11
7.39999
 21
21.625
  0
LINE
  8
0
 10
7.39999
 20
21.625
 11
7.39999
 21
18.875
  0
LINE
  8
0
 10
7.39999
 20
18.875
 11
46.675
 21
18.875
  0
LINE
  8
0
 10
46.675
 20
18.875
 11
46.675
 21
21.625
  0
LINE
  8
0
 10
46.675
 20
21.625
 11
61.475
 21
21.625
  0
LINE
  8
0
 10
61.475
 20
21.625
 11
61.475
 21
18.875
  0
LINE
  8
0
 10
61.475
 20
18.875
 11
72.75
 21
18.875
  0
LINE
  8
0
 10
72.75
 20
18.875
 11
72.75
 21
14.275
  0
LINE
  8
0
 10
72.75
 20
14.275
 11
80.2
 21
14.275
  0
LINE
  8
0
 10
80.2
 20
14.275
 11
80.2
 21
32.225
  0
LINE
  8
0
 10
80.2
 20
32.225
 11
80.1803
 21
32.79
  0
LINE
  8
0
 10
80.1803
 20
32.79
 11
80.1212
 21
33.3523
  0
LINE
  8
0
 10
80.1212
 20
33.3523
 11
80.023
 21
33.9091
  0
LINE
  8
0
 10
80.023
 20
33.9091
 11
79.8862
 21
34.4577
  0
LINE
  8
0
 10
79.8862
 20
34.4577
 11
79.7115
 21
34.9954
  0
LINE
  8
0
 10
79.7115
 20
34.9954
 11
79.4997
 21
35.5196
  0
LINE
  8
0
 10
79.4997
 20
35.5196
 11
79.2519
 21
36.0277
  0
LINE
  8
0
 10
79.2519
 20
36.0277
 11
78.9692
 21
36.5173
  0
LINE
  8
0
 10
78.9692
 20
36.5173
 11
78.653
 21
36.9861
  0
LINE
  8
0
 10
78.653
 20
36.9861
 11
78.305
 21
37.4316
  0
LINE
  8
0
 10
78.305
 20
37.4316
 11
77.9267
 21
37.8517
  0
LINE
  8
0
 10
77.9267
 20
37.8517
 11
77.52
 21
38.2445
  0
LINE
  8
0
 10
77.52
 20
38.2445
 11
77.0869
 21
38.6079
  0
LINE
  8
0
 10
77.0869
 20
38.6079
 11
76.6295
 21
38.9402
  0
LINE
  8
0
 10
76.6295
 20
38.9402
 11
76.15
 21
39.2398
  0
LINE
  8
0
 10
76.15
 20
39.2398
 11
75.6508
 21
39.5052
  0
LINE
  8
0
 10
75.6508
 20
39.5052
 11
75.1343
 21
39.7352
  0
LINE
  8
0
 10
75.1343
 20
39.7352
 11
74.603
 21
39.9286
  0
LINE
  8
0
 10
74.603
 20
39.9286
 11
74.0596
 21
40.0844
  0
LINE
  8
0
 10
74.0596
 20
40.0844
 11
73.5065
 21
40.2019
  0
LINE
  8
0
 10
73.5065
 20
40.2019
 11
72.9467
 21
40.2806
  0
LINE
  8
0
 10
72.9467
 20
40.2806
 11
72.3827
 21
40.3201
  0
LINE
  8
0
 10
72.3827
 20
40.3201
 11
-72.3827
 21
40.3201
  0
LINE
  8
0
 10
-72.3827
 20
40.3201
 11
-72.9467
 21
40.2806
  0
LINE
  8
0
 10
-72.9467
 20
40.2806
 11
-73.5065
 21
40.2019
  0
LINE
  8
0
 10
-73.5065
 20
40.2019
 11
-74.0596
 21
40.0844
  0
LINE
  8
0
 10
-74.0596
 20
40.0844
 11
-74.603
 21
39.9286
  0
LINE
  8
0
 10
-74.603
 20
39.9286
 11
-75.1343
 21
39.7352
  0
LINE
  8
0
 10
-75.1343
 20
39.7352
 11
-75.6508
 21
39.5052
  0
LINE
  8
0
 10
-75.6508
 20
39.5052
 11
-76.15
 21
39.2398
  0
LINE
  8
0
 10
-76.15
 20
39.2398
 11
-76.6295
 21
38.9402
  0
LINE
  8
0
 10
-76.6295
 20
38.9402
 11
-77.0869
 21
38.6079
  0
LINE
  8
0
 10
-77.0869
 20
38.6079
 11
-77.52
 21
38.2445
  0
LINE
  8
0
 10
-77.52
 20
38.2445
 11
-77.9267
 21
37.8517
  0
LINE
  8
0
 10
-77.9267
 20
37.8517
 11
-78.305
 21
37.4316
  0
LINE
  8
0
 10
-78.305
 20
37.4316
 11
-78.653
 21
36.9861
  0
LINE
  8
0
 10
-78.653
 20
36.9861
 11
-78.9692
 21
36.5173
  0
LINE
  8
0
 10
-78.9692
 20
36.5173
 11
-79.2519
 21
36.0277
  0
LINE
  8
0
 10
-79.2519
 20
36.0277
 11
-79.4997
 21
35.5196
  0
LINE
  8
0
 10
-79.4997
 20
35.5196
 11
-79.7115
 21
34.9954
  0
LINE
  8
0
 10
-79.7115
 20
34.9954
 11
-79.8862
 21
34.4577
  0
LINE
  8
0
 10
-79.8862
 20
34.4577
 11
-80.023
 21
33.9091
  0
LINE
  8
0
 10
-80.023
 20
33.9091
 11
-80.1212
 21
33.3523
  0
LINE
  8
0
 10
-80.1212
 20
33.3523
 11
-80.1803
 21
32.79
  0
LINE
  8
0
 10
-80.1803
 20
32.79
 11
-80.2
 21
32.225
  0
LINE
  8
0
 10
-80.2
 20
32.225
 11
-80.2
 21
14.275
  0
LINE
  8
0
 10
-80.2
 20
14.275
 11
-77.75
 21
14.275
  0
LINE
  8
0
 10
-77.75
 20
14.275
 11
-77.75
 21
18.875
  0
LINE
  8
0
 10
-72.2379
 20
28.2774
 11
-72.5129
 21
28.2966
  0
LINE
  8
0
 10
-72.5129
 20
28.2966
 11
-72.7859
 21
28.335
  0
LINE
  8
0
 10
-72.7859
 20
28.335
 11
-73.0556
 21
28.3923
  0
LINE
  8
0
 10
-73.0556
 20
28.3923
 11
-73.3206
 21
28.4683
  0
LINE
  8
0
 10
-73.3206
 20
28.4683
 11
-73.5797
 21
28.5626
  0
LINE
  8
0
 10
-73.5797
 20
28.5626
 11
-73.8316
 21
28.6748
  0
LINE
  8
0
 10
-73.8316
 20
28.6748
 11
-74.075
 21
28.8042
  0
LINE
  8
0
 10
-74.075
 20
28.8042
 11
-74.3088
 21
28.9503
  0
LINE
  8
0
 10
-74.3088
 20
28.9503
 11
-74.5319
 21
29.1124
  0
LINE
  8
0
 10
-74.5319
 20
29.1124
 11
-74.7431
 21
29.2896
  0
LINE
  8
0
 10
-74.7431
 20
29.2896
 11
-74.9414
 21
29.4811
  0
LINE
  8
0
 10
-74.9414
 20
29.4811
 11
-75.1259
 21
29.686
  0
LINE
  8
0
 10
-75.1259
 20
29.686
 11
-75.2956
 21
29.9032
  0
LINE
  8
0
 10
-75.2956
 20
29.9032
 11
-75.4498
 21
30.1318
  0
LINE
  8
0
 10
-75.4498
 20
30.1318
 11
-75.5876
 21
30.3706
  0
LINE
  8
0
 10
-75.5876
 20
30.3706
 11
-75.7085
 21
30.6184
  0
LINE
  8
0
 10
-75.7085
 20
30.6184
 11
-75.8118
 21
30.874
  0
LINE
  8
0
 10
-75.8118
 20
30.874
 11
-75.897
 21
31.1362
  0
LINE
  8
0
 10
-75.897
 20
31.1362
 11
-75.9637
 21
31.4037
  0
LINE
  8
0
 10
-75.9637
 20
31.4037
 11
-76.0116
 21
31.6753
  0
LINE
  8
0
 10
-76.0116
 20
31.6753
 11
-76.0404
 21
31.9494
  0
LINE
  8
0
 10
-76.0404
 20
31.9494
 11
-76.05
 21
32.225
  0
LINE
  8
0
 10
-76.05
 20
32.225
 11
-76.0404
 21
32.5005
  0
LINE
  8
0
 10
-76.0404
 20
32.5005
 11
-76.0116
 21
32.7747
  0
LINE
  8
0
 10
-76.0116
 20
32.7747
 11
-75.9637
 21
33.0462
  0
LINE
  8
0
 10
-75.9637
 20
33.0462
 11
-75.897
 21
33.3138
  0
LINE
  8
0
 10
-75.897
 20
33.3138
 11
-75.8118
 21
33.576
  0
LINE
  8
0
 10
-75.8118
 20
33.576
 11
-75.7085
 21
33.8316
  0
LINE
  8
0
 10
-75.7085
 20
33.8316
 11
-75.5876
 21
34.0794
  0
LINE
  8
0
 10
-75.5876
 20
34.0794
 11
-75.4498
 21
34.3182
  0
LINE
  8
0
 10
-75.4498
 20
34.3182
 11
-75.2956
 21
34.5468
  0
LINE
  8
0
 10
-75.2956
 20
34.5468
 11
-75.1259
 21
34.764
  0
LINE
  8
0
 10
-75.1259
 20
34.764
 11
-74.9414
 21
34.9689
  0
LINE
  8
0
 10
-74.9414
 20
34.9689
 11
-74.7431
 21
35.1604
  0
LINE
  8
0
 10
-74.7431
 20
35.1604
 11
-74.5319
 21
35.3376
  0
LINE
  8
0
 10
-74.5319
 20
35.3376
 11
-74.3088
 21
35.4997
  0
LINE
  8
0
 10
-74.3088
 20
35.4997
 11
-74.075
 21
35.6458
  0
LINE
  8
0
 10
-74.075
 20
35.6458
 11
-73.8316
 21
35.7752
  0
LINE
  8
0
 10
-73.8316
 20
35.7752
 11
-73.5797
 21
35.8874
  0
LINE
  8
0
 10
-73.5797
 20
35.8874
 11
-73.3206
 21
35.9817
  0
LINE
  8
0
 10
-73.3206
 20
35.9817
 11
-73.0556
 21
36.0577
  0
LINE
  8
0
 10
-73.0556
 20
36.0577
 11
-72.7859
 21
36.115
  0
LINE
  8
0
 10
-72.7859
 20
36.115
 11
-72.5129
 21
36.1534
  0
LINE
  8
0
 10
-72.5129
 20
36.1534
 11
-72.2379
 21
36.1726
  0
LINE
  8
0
 10
-72.2379
 20
36.1726
 11
-71.9621
 21
36.1726
  0
LINE
  8
0
 10
-71.9621
 20
36.1726
 11
-71.6871
 21
36.1534
  0
LINE
  8
0
 10
-71.6871
 20
36.1534
 11
-71.4141
 21
36.115
  0
LINE
  8
0
 10
-71.4141
 20
36.115
 11
-71.1444
 21
36.0577
  0
LINE
  8
0
 10
-71.1444
 20
36.0577
 11
-70.8794
 21
35.9817
  0
LINE
  8
0
 10
-70.8794
 20
35.9817
 11
-70.6203
 21
35.8874
  0
LINE
  8
0
 10
-70.6203
 20
35.8874
 11
-70.3684
 21
35.7752
  0
LINE
  8
0
 10
-70.3684
 20
35.7752
 11
-70.125
 21
35.6458
  0
LINE
  8
0
 10
-70.125
 20
35.6458
 11
-69.8912
 21
35.4997
  0
LINE
  8
0
 10
-69.8912
 20
35.4997
 11
-69.6681
 21
35.3376
  0
LINE
  8
0
 10
-69.6681
 20
35.3376
 11
-69.4569
 21
35.1604
  0
LINE
  8
0
 10
-69.4569
 20
35.1604
 11
-69.2586
 21
34.9689
  0
LINE
  8
0
 10
-69.2586
 20
34.9689
 11
-69.0741
 21
34.764
  0
LINE
  8
0
 10
-69.0741
 20
34.764
 11
-68.9044
 21
34.5468
  0
LINE
  8
0
 10
-68.9044
 20
34.5468
 11
-68.7502
 21
34.3182
  0
LINE
  8
0
 10
-68.7502
 20
34.3182
 11
-68.6124
 21
34.0794
  0
LINE
  8
0
 10
-68.6124
 20
34.0794
 11
-68.4915
 21
33.8316
  0
LINE
  8
0
 10
-68.4915
 20
33.8316
 11
-68.3882
 21
33.576
  0
LINE
  8
0
 10
-68.3882
 20
33.576
 11
-68.303
 21
33.3138
  0
LINE
  8
0
 10
-68.303
 20
33.3138
 11
-68.2363
 21
33.0462
  0
LINE
  8
0
 10
-68.2363
 20
33.0462
 11
-68.1884
 21
32.7747
  0
LINE
  8
0
 10
-68.1884
 20
32.7747
 11
-68.1596
 21
32.5005
  0
LINE
  8
0
 10
-68.1596
 20
32.5005
 11
-68.15
 21
32.225
  0
LINE
  8
0
 10
-68.15
 20
32.225
 11
-68.1596
 21
31.9494
  0
LINE
  8
0
 10
-68.1596
 20
31.9494
 11
-68.1884
 21
31.6753
  0
LINE
  8
0
 10
-68.1884
 20
31.6753
 11
-68.2363
 21
31.4037
  0
LINE
  8
0
 10
-68.2363
 20
31.4037
 11
-68.303
 21
31.1362
  0
LINE
  8
0
 10
-68.303
 20
31.1362
 11
-68.3882
 21
30.874
  0
LINE
  8
0
 10
-68.3882
 20
30.874
 11
-68.4915
 21
30.6184
  0
LINE
  8
0
 10
-68.4915
 20
30.6184
 11
-68.6124
 21
30.3706
  0
LINE
  8
0
 10
-68.6124
 20
30.3706
 11
-68.7502
 21
30.1318
  0
LINE
  8
0
 10
-68.7502
 20
30.1318
 11
-68.9044
 21
29.9032
  0
LINE
  8
0
 10
-68.9044
 20
29.9032
 11
-69.0741
 21
29.686
  0
LINE
  8
0
 10
-69.0741
 20
29.686
 11
-69.2586
 21
29.4811
  0
LINE
  8
0
 10
-69.2586
 20
29.4811
 11
-69.4569
 21
29.2896
  0
LINE
  8
0
 10
-69.4569
 20
29.2896
 11
-69.6681
 21
29.1124
  0
LINE
  8
0
 10
-69.6681
 20
29.1124
 11
-69.8912
 21
28.9503
  0
LINE
  8
0
 10
-69.8912
 20
28.9503
 11
-70.125
 21
28.8042
  0
LINE
  8
0
 10
-70.125
 20
28.8042
 11
-70.3684
 21
28.6748
  0
LINE
  8
0
 10
-70.3684
 20
28.6748
 11
-70.6203
 21
28.5626
  0
LINE
  8
0
 10
-70.6203
 20
28.5626
 11
-70.8794
 21
28.4683
  0
LINE
  8
0
 10
-70.8794
 20
28.4683
 11
-71.1444
 21
28.3923
  0
LINE
  8
0
 10
-71.1444
 20
28.3923
 11
-71.4141
 21
28.335
  0
LINE
  8
0
 10
-71.4141
 20
28.335
 11
-71.6871
 21
28.2966
  0
LINE
  8
0
 10
-71.6871
 20
28.2966
 11
-71.9621
 21
28.2774
  0
LINE
  8
0
 10
-71.9621
 20
28.2774
 11
-72.2379
 21
28.2774
  0
LINE
  8
0
 10
71.9621
 20
28.2774
 11
71.6871
 21
28.2966
  0
LINE
  8
0
 10
71.6871
 20
28.2966
 11
71.4141
 21
28.335
  0
LINE
  8
0
 10
71.4141
 20
28.335
 11
71.1444
 21
28.3923
  0
LINE
  8
0
 10
71.1444
 20
28.3923
 11
70.8794
 21
28.4683
  0
LINE
  8
0
 10
70.8794
 20
28.4683
 11
70.6203
 21
28.5626
  0
LINE
  8
0
 10
70.6203
 20
28.5626
 11
70.3684
 21
28.6748
  0
LINE
  8
0
 10
70.3684
 20
28.6748
 11
70.125
 21
28.8042
  0
LINE
  8
0
 10
70.125
 20
28.8042
 11
69.8912
 21
28.9503
  0
LINE
  8
0
 10
69.8912
 20
28.9503
 11
69.6681
 21
29.1124
  0
LINE
  8
0
 10
69.6681
 20
29.1124
 11
69.4569
 21
29.2896
  0
LINE
  8
0
 10
69.4569
 20
29.2896
 11
69.2586
 21
29.4811
  0
LINE
  8
0
 10
69.2586
 20
29.4811
 11
69.0741
 21
29.686
  0
LINE
  8
0
 10
69.0741
 20
29.686
 11
68.9044
 21
29.9032
  0
LINE
  8
0
 10
68.9044
 20
29.9032
 11
68.7502
 21
30.1318
  0
LINE
  8
0
 10
68.7502
 20
30.1318
 11
68.6124
 21
30.3706
  0
LINE
  8
0
 10
68.6124
 20
30.3706
 11
68.4915
 21
30.6184
  0
LINE
  8
0
 10
68.4915
 20
30.6184
 11
68.3882
 21
30.874
  0
LINE
  8
0
 10
68.3882
 20
30.874
 11
68.303
 21
31.1362
  0
LINE
  8
0
 10
68.303
 20
31.1362
 11
68.2363
 21
31.4037
  0
LINE
  8
0
 10
68.2363
 20
31.4037
 11
68.1884
 21
31.6753
  0
LINE
  8
0
 10
68.1884
 20
31.6753
 11
68.1596
 21
31.9494
  0
LINE
  8
0
 10
68.1596
 20
31.9494
 11
68.15
 21
32.225
  0
LINE
  8
0
 10
68.15
 20
32.225
 11
68.1596
 21
32.5005
  0
LINE
  8
0
 10
68.1596
 20
32.5005
 11
68.1884
 21
32.7747
  0
LINE
  8
0
 10
68.1884
 20
32.7747
 11
68.2363
 21
33.0462
  0
LINE
  8
0
 10
68.2363
 20
33.0462
 11
68.303
 21
33.3138
  0
LINE
  8
0
 10
68.303
 20
33.3138
 11
68.3882
 21
33.576
  0
LINE
  8
0
 10
68.3882
 20
33.576
 11
68.4915
 21
33.8316
  0
LINE
  8
0
 10
68.4915
 20
33.8316
 11
68.6124
 21
34.0794
  0
LINE
  8
0
 10
68.6124
 20
34.0794
 11
68.7502
 21
34.3182
  0
LINE
  8
0
 10
68.7502
 20
34.3182
 11
68.9044
 21
34.5468
  0
LINE
  8
0
 10
68.9044
 20
34.5468
 11
69.0741
 21
34.764
  0
LINE
  8
0
 10
69.0741
 20
34.764
 11
69.2586
 21
34.9689
  0
LINE
  8
0
 10
69.2586
 20
34.9689
 11
69.4569
 21
35.1604
  0
LINE
  8
0
 10
69.4569
 20
35.1604
 11
69.6681
 21
35.3376
  0
LINE
  8
0
 10
69.6681
 20
35.3376
 11
69.8912
 21
35.4997
  0
LINE
  8
0
 10
69.8912
 20
35.4997
 11
70.125
 21
35.6458
  0
LINE
  8
0
 10
70.125
 20
35.6458
 11
70.3684
 21
35.7752
  0
LINE
  8
0
 10
70.3684
 20
35.7752
 11
70.6203
 21
35.8874
  0
LINE
  8
0
 10
70.6203
 20
35.8874
 11
70.8794
 21
35.9817
  0
LINE
  8
0
 10
70.8794
 20
35.9817
 11
71.1444
 21
36.0577
  0
LINE
  8
0
 10
71.1444
 20
36.0577
 11
71.4141
 21
36.115
  0
LINE
  8
0
 10
71.4141
 20
36.115
 11
71.6871
 21
36.1534
  0
LINE
  8
0
 10
71.6871
 20
36.1534
 11
71.9621
 21
36.1726
  0
LINE
  8
0
 10
71.9621
 20
36.1726
 11
72.2379
 21
36.1726
  0
LINE
  8
0
 10
72.2379
 20
36.1726
 11
72.5129
 21
36.1534
  0
LINE
  8
0
 10
72.5129
 20
36.1534
 11
72.7859
 21
36.115
  0
LINE
  8
0
 10
72.7859
 20
36.115
 11
73.0556
 21
36.0577
  0
LINE
  8
0
 10
73.0556
 20
36.0577
 11
73.3206
 21
35.9817
  0
LINE
  8
0
 10
73.3206
 20
35.9817
 11
73.5797
 21
35.8874
  0
LINE
  8
0
 10
73.5797
 20
35.8874
 11
73.8316
 21
35.7752
  0
LINE
  8
0
 10
73.8316
 20
35.7752
 11
74.075
 21
35.6458
  0
LINE
  8
0
 10
74.075
 20
35.6458
 11
74.3088
 21
35.4997
  0
LINE
  8
0
 10
74.3088
 20
35.4997
 11
74.5319
 21
35.3376
  0
LINE
  8
0
 10
74.5319
 20
35.3376
 11
74.7431
 21
35.1604
  0
LINE
  8
0
 10
74.7431
 20
35.1604
 11
74.9414
 21
34.9689
  0
LINE
  8
0
 10
74.9414
 20
34.9689
 11
75.1259
 21
34.764
  0
LINE
  8
0
 10
75.1259
 20
34.764
 11
75.2956
 21
34.5468
  0
LINE
  8
0
 10
75.2956
 20
34.5468
 11
75.4498
 21
34.3182
  0
LINE
  8
0
 10
75.4498
 20
34.3182
 11
75.5876
 21
34.0794
  0
LINE
  8
0
 10
75.5876
 20
34.0794
 11
75.7085
 21
33.8316
  0
LINE
  8
0
 10
75.7085
 20
33.8316
 11
75.8118
 21
33.576
  0
LINE
  8
0
 10
75.8118
 20
33.576
 11
75.897
 21
33.3138
  0
LINE
  8
0
 10
75.897
 20
33.3138
 11
75.9637
 21
33.0462
  0
LINE
  8
0
 10
75.9637
 20
33.0462
 11
76.0116
 21
32.7747
  0
LINE
  8
0
 10
76.0116
 20
32.7747
 11
76.0404
 21
32.5005
  0
LINE
  8
0
 10
76.0404
 20
32.5005
 11
76.05
 21
32.225
  0
LINE
  8
0
 10
76.05
 20
32.225
 11
76.0404
 21
31.9494
  0
LINE
  8
0
 10
76.0404
 20
31.9494
 11
76.0116
 21
31.6753
  0
LINE
  8
0
 10
76.0116
 20
31.6753
 11
75.9637
 21
31.4037
  0
LINE
  8
0
 10
75.9637
 20
31.4037
 11
75.897
 21
31.1362
  0
LINE
  8
0
 10
75.897
 20
31.1362
 11
75.8118
 21
30.874
  0
LINE
  8
0
 10
75.8118
 20
30.874
 11
75.7085
 21
30.6184
  0
LINE
  8
0
 10
75.7085
 20
30.6184
 11
75.5876
 21
30.3706
  0
LINE
  8
0
 10
75.5876
 20
30.3706
 11
75.4498
 21
30.1318
  0
LINE
  8
0
 10
75.4498
 20
30.1318
 11
75.2956
 21
29.9032
  0
LINE
  8
0
 10
75.2956
 20
29.9032
 11
75.1259
 21
29.686
  0
LINE
  8
0
 10
75.1259
 20
29.686
 11
74.9414
 21
29.4811
  0
LINE
  8
0
 10
74.9414
 20
29.4811
 11
74.7431
 21
29.2896
  0
LINE
  8
0
 10
74.7431
 20
29.2896
 11
74.5319
 21
29.1124
  0
LINE
  8
0
 10
74.5319
 20
29.1124
 11
74.3088
 21
28.9503
  0
LINE
  8
0
 10
74.3088
 20
28.9503
 11
74.075
 21
28.8042
  0
LINE
  8
0
 10
74.075
 20
28.8042
 11
73.8316
 21
28.6748
  0
LINE
  8
0
 10
73.8316
 20
28.6748
 11
73.5797
 21
28.5626
  0
LINE
  8
0
 10
73.5797
 20
28.5626
 11
73.3206
 21
28.4683
  0
LINE
  8
0
 10
73.3206
 20
28.4683
 11
73.0556
 21
28.3923
  0
LINE
  8
0
 10
73.0556
 20
28.3923
 11
72.7859
 21
28.335
  0
LINE
  8
0
 10
72.7859
 20
28.335
 11
72.5129
 21
28.2966
  0
LINE
  8
0
 10
72.5129
 20
28.2966
 11
72.2379
 21
28.2774
  0
LINE
  8
0
 10
72.2379
 20
28.2774
 11
71.9621
 21
28.2774
  0
ENDSEC
  0
SECTION
  2
OBJECTS
  0
DICTIONARY
  0
ENDSEC
  0
EOF
