  0
SECTION
  2
BLOCKS
  0
ENDSEC
  0
SECTION
  2
ENTITIES
  0
LINE
  8
0
 10
-60.3652
 20
108.156
 11
-60.3593
 21
107.989
  0
LINE
  8
0
 10
-60.3593
 20
107.989
 11
-60.3418
 21
107.822
  0
LINE
  8
0
 10
-60.3418
 20
107.822
 11
-60.3127
 21
107.657
  0
LINE
  8
0
 10
-60.3127
 20
107.657
 11
-60.2722
 21
107.495
  0
LINE
  8
0
 10
-60.2722
 20
107.495
 11
-60.2204
 21
107.336
  0
LINE
  8
0
 10
-60.2204
 20
107.336
 11
-60.1577
 21
107.18
  0
LINE
  8
0
 10
-60.1577
 20
107.18
 11
-60.0843
 21
107.03
  0
LINE
  8
0
 10
-60.0843
 20
107.03
 11
-60.0005
 21
106.885
  0
LINE
  8
0
 10
-60.0005
 20
106.885
 11
-59.9068
 21
106.746
  0
LINE
  8
0
 10
-59.9068
 20
106.746
 11
-59.8037
 21
106.614
  0
LINE
  8
0
 10
-59.8037
 20
106.614
 11
-49.8476
 21
94.9133
  0
LINE
  8
0
 10
-49.8476
 20
94.9133
 11
-49.7355
 21
94.7888
  0
LINE
  8
0
 10
-49.7355
 20
94.7888
 11
-49.615
 21
94.6724
  0
LINE
  8
0
 10
-49.615
 20
94.6724
 11
-49.4867
 21
94.5647
  0
LINE
  8
0
 10
-49.4867
 20
94.5647
 11
-49.3512
 21
94.4663
  0
LINE
  8
0
 10
-49.3512
 20
94.4663
 11
-49.2091
 21
94.3775
  0
LINE
  8
0
 10
-49.2091
 20
94.3775
 11
-49.0612
 21
94.2989
  0
LINE
  8
0
 10
-49.0612
 20
94.2989
 11
-48.9082
 21
94.2307
  0
LINE
  8
0
 10
-48.9082
 20
94.2307
 11
-48.7508
 21
94.1734
  0
LINE
  8
0
 10
-48.7508
 20
94.1734
 11
-48.5897
 21
94.1273
  0
LINE
  8
0
 10
-48.5897
 20
94.1273
 11
-48.4259
 21
94.0924
  0
LINE
  8
0
 10
-48.4259
 20
94.0924
 11
-48.26
 21
94.0691
  0
LINE
  8
0
 10
-48.26
 20
94.0691
 11
-48.0929
 21
94.0574
  0
LINE
  8
0
 10
-48.0929
 20
94.0574
 11
-47.9254
 21
94.0574
  0
LINE
  8
0
 10
-47.9254
 20
94.0574
 11
-47.7583
 21
94.0691
  0
LINE
  8
0
 10
-47.7583
 20
94.0691
 11
-47.5924
 21
94.0924
  0
LINE
  8
0
 10
-47.5924
 20
94.0924
 11
-47.4285
 21
94.1273
  0
LINE
  8
0
 10
-47.4285
 20
94.1273
 11
-47.2675
 21
94.1734
  0
LINE
  8
0
 10
-47.2675
 20
94.1734
 11
-47.1101
 21
94.2307
  0
LINE
  8
0
 10
-47.1101
 20
94.2307
 11
-46.957
 21
94.2989
  0
LINE
  8
0
 10
-46.957
 20
94.2989
 11
-46.8091
 21
94.3775
  0
LINE
  8
0
 10
-46.8091
 20
94.3775
 11
-46.6671
 21
94.4663
  0
LINE
  8
0
 10
-46.6671
 20
94.4663
 11
-46.5315
 21
94.5647
  0
LINE
  8
0
 10
-46.5315
 20
94.5647
 11
-46.4032
 21
94.6724
  0
LINE
  8
0
 10
-46.4032
 20
94.6724
 11
-46.2827
 21
94.7888
  0
LINE
  8
0
 10
-46.2827
 20
94.7888
 11
-46.1706
 21
94.9133
  0
LINE
  8
0
 10
-46.1706
 20
94.9133
 11
-46.0675
 21
95.0453
  0
LINE
  8
0
 10
-46.0675
 20
95.0453
 11
-45.9738
 21
95.1842
  0
LINE
  8
0
 10
-45.9738
 20
95.1842
 11
-45.89
 21
95.3292
  0
LINE
  8
0
 10
-45.89
 20
95.3292
 11
-45.8166
 21
95.4798
  0
LINE
  8
0
 10
-45.8166
 20
95.4798
 11
-45.7539
 21
95.6351
  0
LINE
  8
0
 10
-45.7539
 20
95.6351
 11
-45.7021
 21
95.7944
  0
LINE
  8
0
 10
-45.7021
 20
95.7944
 11
-45.6616
 21
95.957
  0
LINE
  8
0
 10
-45.6616
 20
95.957
 11
-45.6325
 21
96.122
  0
LINE
  8
0
 10
-45.6325
 20
96.122
 11
-45.615
 21
96.2886
  0
LINE
  8
0
 10
-45.615
 20
96.2886
 11
-45.6091
 21
96.456
  0
LINE
  8
0
 10
-45.6091
 20
96.456
 11
-45.615
 21
96.6234
  0
LINE
  8
0
 10
-45.615
 20
96.6234
 11
-45.6325
 21
96.79
  0
LINE
  8
0
 10
-45.6325
 20
96.79
 11
-45.6616
 21
96.955
  0
LINE
  8
0
 10
-45.6616
 20
96.955
 11
-45.7021
 21
97.1175
  0
LINE
  8
0
 10
-45.7021
 20
97.1175
 11
-45.7539
 21
97.2768
  0
LINE
  8
0
 10
-45.7539
 20
97.2768
 11
-55.604
 21
124.34
  0
LINE
  8
0
 10
-55.604
 20
124.34
 11
-55.6668
 21
124.495
  0
LINE
  8
0
 10
-55.6668
 20
124.495
 11
-55.7402
 21
124.646
  0
LINE
  8
0
 10
-55.7402
 20
124.646
 11
-55.824
 21
124.791
  0
LINE
  8
0
 10
-55.824
 20
124.791
 11
-55.9177
 21
124.93
  0
LINE
  8
0
 10
-55.9177
 20
124.93
 11
-56.0208
 21
125.062
  0
LINE
  8
0
 10
-56.0208
 20
125.062
 11
-56.1329
 21
125.186
  0
LINE
  8
0
 10
-56.1329
 20
125.186
 11
-56.2534
 21
125.303
  0
LINE
  8
0
 10
-56.2534
 20
125.303
 11
-56.3817
 21
125.41
  0
LINE
  8
0
 10
-56.3817
 20
125.41
 11
-56.5172
 21
125.509
  0
LINE
  8
0
 10
-56.5172
 20
125.509
 11
-56.6593
 21
125.598
  0
LINE
  8
0
 10
-56.6593
 20
125.598
 11
-56.8072
 21
125.676
  0
LINE
  8
0
 10
-56.8072
 20
125.676
 11
-56.9602
 21
125.744
  0
LINE
  8
0
 10
-56.9602
 20
125.744
 11
-57.1177
 21
125.802
  0
LINE
  8
0
 10
-57.1177
 20
125.802
 11
-57.2787
 21
125.848
  0
LINE
  8
0
 10
-57.2787
 20
125.848
 11
-57.4425
 21
125.883
  0
LINE
  8
0
 10
-57.4425
 20
125.883
 11
-57.6084
 21
125.906
  0
LINE
  8
0
 10
-57.6084
 20
125.906
 11
-57.7755
 21
125.918
  0
LINE
  8
0
 10
-57.7755
 20
125.918
 11
-57.9431
 21
125.918
  0
LINE
  8
0
 10
-57.9431
 20
125.918
 11
-58.1102
 21
125.906
  0
LINE
  8
0
 10
-58.1102
 20
125.906
 11
-58.2761
 21
125.883
  0
LINE
  8
0
 10
-58.2761
 20
125.883
 11
-58.4399
 21
125.848
  0
LINE
  8
0
 10
-58.4399
 20
125.848
 11
-58.6009
 21
125.802
  0
LINE
  8
0
 10
-58.6009
 20
125.802
 11
-58.7584
 21
125.744
  0
LINE
  8
0
 10
-58.7584
 20
125.744
 11
-58.9114
 21
125.676
  0
LINE
  8
0
 10
-58.9114
 20
125.676
 11
-59.0593
 21
125.598
  0
LINE
  8
0
 10
-59.0593
 20
125.598
 11
-59.2014
 21
125.509
  0
LINE
  8
0
 10
-59.2014
 20
125.509
 11
-59.3369
 21
125.41
  0
LINE
  8
0
 10
-59.3369
 20
125.41
 11
-59.4652
 21
125.303
  0
LINE
  8
0
 10
-59.4652
 20
125.303
 11
-59.5857
 21
125.186
  0
LINE
  8
0
 10
-59.5857
 20
125.186
 11
-59.6978
 21
125.062
  0
LINE
  8
0
 10
-59.6978
 20
125.062
 11
-59.8009
 21
124.93
  0
LINE
  8
0
 10
-59.8009
 20
124.93
 11
-59.8946
 21
124.791
  0
LINE
  8
0
 10
-59.8946
 20
124.791
 11
-59.9784
 21
124.646
  0
LINE
  8
0
 10
-59.9784
 20
124.646
 11
-60.0518
 21
124.495
  0
LINE
  8
0
 10
-60.0518
 20
124.495
 11
-60.1146
 21
124.34
  0
LINE
  8
0
 10
-60.1146
 20
124.34
 11
-60.1663
 21
124.181
  0
LINE
  8
0
 10
-60.1663
 20
124.181
 11
-60.2069
 21
124.018
  0
LINE
  8
0
 10
-60.2069
 20
124.018
 11
-60.2359
 21
123.853
  0
LINE
  8
0
 10
-60.2359
 20
123.853
 11
-60.2535
 21
123.687
  0
LINE
  8
0
 10
-60.2535
 20
123.687
 11
-60.2593
 21
123.519
  0
LINE
  8
0
 10
-60.2593
 20
123.519
 11
-60.3652
 21
108.156
  0
LINE
  8
0
 10
-56.6395
 20
109.167
 11
-56.6359
 21
109.268
  0
LINE
  8
0
 10
-56.6359
 20
109.268
 11
-56.6254
 21
109.368
  0
LINE
  8
0
 10
-56.6254
 20
109.368
 11
-56.6078
 21
109.468
  0
LINE
  8
0
 10
-56.6078
 20
109.468
 11
-56.5833
 21
109.566
  0
LINE
  8
0
 10
-56.5833
 20
109.566
 11
-56.552
 21
109.663
  0
LINE
  8
0
 10
-56.552
 20
109.663
 11
-56.5141
 21
109.756
  0
LINE
  8
0
 10
-56.5141
 20
109.756
 11
-56.4697
 21
109.847
  0
LINE
  8
0
 10
-56.4697
 20
109.847
 11
-56.4191
 21
109.935
  0
LINE
  8
0
 10
-56.4191
 20
109.935
 11
-56.3625
 21
110.019
  0
LINE
  8
0
 10
-56.3625
 20
110.019
 11
-56.3002
 21
110.099
  0
LINE
  8
0
 10
-56.3002
 20
110.099
 11
-56.2325
 21
110.174
  0
LINE
  8
0
 10
-56.2325
 20
110.174
 11
-56.1597
 21
110.244
  0
LINE
  8
0
 10
-56.1597
 20
110.244
 11
-56.0822
 21
110.309
  0
LINE
  8
0
 10
-56.0822
 20
110.309
 11
-56.0003
 21
110.369
  0
LINE
  8
0
 10
-56.0003
 20
110.369
 11
-55.9145
 21
110.422
  0
LINE
  8
0
 10
-55.9145
 20
110.422
 11
-55.8251
 21
110.47
  0
LINE
  8
0
 10
-55.8251
 20
110.47
 11
-55.7327
 21
110.511
  0
LINE
  8
0
 10
-55.7327
 20
110.511
 11
-55.6375
 21
110.546
  0
LINE
  8
0
 10
-55.6375
 20
110.546
 11
-55.5403
 21
110.574
  0
LINE
  8
0
 10
-55.5403
 20
110.574
 11
-55.4413
 21
110.595
  0
LINE
  8
0
 10
-55.4413
 20
110.595
 11
-55.341
 21
110.609
  0
LINE
  8
0
 10
-55.341
 20
110.609
 11
-55.2401
 21
110.616
  0
LINE
  8
0
 10
-55.2401
 20
110.616
 11
-55.1389
 21
110.616
  0
LINE
  8
0
 10
-55.1389
 20
110.616
 11
-55.0379
 21
110.609
  0
LINE
  8
0
 10
-55.0379
 20
110.609
 11
-54.9377
 21
110.595
  0
LINE
  8
0
 10
-54.9377
 20
110.595
 11
-54.8387
 21
110.574
  0
LINE
  8
0
 10
-54.8387
 20
110.574
 11
-54.7414
 21
110.546
  0
LINE
  8
0
 10
-54.7414
 20
110.546
 11
-54.6463
 21
110.511
  0
LINE
  8
0
 10
-54.6463
 20
110.511
 11
-54.5538
 21
110.47
  0
LINE
  8
0
 10
-54.5538
 20
110.47
 11
-54.4645
 21
110.422
  0
LINE
  8
0
 10
-54.4645
 20
110.422
 11
-54.3786
 21
110.369
  0
LINE
  8
0
 10
-54.3786
 20
110.369
 11
-54.2968
 21
110.309
  0
LINE
  8
0
 10
-54.2968
 20
110.309
 11
-54.2192
 21
110.244
  0
LINE
  8
0
 10
-54.2192
 20
110.244
 11
-54.1464
 21
110.174
  0
LINE
  8
0
 10
-54.1464
 20
110.174
 11
-54.0787
 21
110.099
  0
LINE
  8
0
 10
-54.0787
 20
110.099
 11
-54.0164
 21
110.019
  0
LINE
  8
0
 10
-54.0164
 20
110.019
 11
-53.9598
 21
109.935
  0
LINE
  8
0
 10
-53.9598
 20
109.935
 11
-53.9092
 21
109.847
  0
LINE
  8
0
 10
-53.9092
 20
109.847
 11
-53.8648
 21
109.756
  0
LINE
  8
0
 10
-53.8648
 20
109.756
 11
-53.8269
 21
109.663
  0
LINE
  8
0
 10
-53.8269
 20
109.663
 11
-53.7956
 21
109.566
  0
LINE
  8
0
 10
-53.7956
 20
109.566
 11
-53.7712
 21
109.468
  0
LINE
  8
0
 10
-53.7712
 20
109.468
 11
-53.7536
 21
109.368
  0
LINE
  8
0
 10
-53.7536
 20
109.368
 11
-53.743
 21
109.268
  0
LINE
  8
0
 10
-53.743
 20
109.268
 11
-53.7395
 21
109.167
  0
LINE
  8
0
 10
-53.7395
 20
109.167
 11
-53.743
 21
109.066
  0
LINE
  8
0
 10
-53.743
 20
109.066
 11
-53.7536
 21
108.965
  0
LINE
  8
0
 10
-53.7536
 20
108.965
 11
-53.7712
 21
108.865
  0
LINE
  8
0
 10
-53.7712
 20
108.865
 11
-53.7956
 21
108.767
  0
LINE
  8
0
 10
-53.7956
 20
108.767
 11
-53.8269
 21
108.671
  0
LINE
  8
0
 10
-53.8269
 20
108.671
 11
-53.8648
 21
108.577
  0
LINE
  8
0
 10
-53.8648
 20
108.577
 11
-53.9092
 21
108.486
  0
LINE
  8
0
 10
-53.9092
 20
108.486
 11
-53.9598
 21
108.398
  0
LINE
  8
0
 10
-53.9598
 20
108.398
 11
-54.0164
 21
108.314
  0
LINE
  8
0
 10
-54.0164
 20
108.314
 11
-54.0787
 21
108.235
  0
LINE
  8
0
 10
-54.0787
 20
108.235
 11
-54.1464
 21
108.159
  0
LINE
  8
0
 10
-54.1464
 20
108.159
 11
-54.2192
 21
108.089
  0
LINE
  8
0
 10
-54.2192
 20
108.089
 11
-54.2968
 21
108.024
  0
LINE
  8
0
 10
-54.2968
 20
108.024
 11
-54.3786
 21
107.965
  0
LINE
  8
0
 10
-54.3786
 20
107.965
 11
-54.4645
 21
107.911
  0
LINE
  8
0
 10
-54.4645
 20
107.911
 11
-54.5538
 21
107.863
  0
LINE
  8
0
 10
-54.5538
 20
107.863
 11
-54.6463
 21
107.822
  0
LINE
  8
0
 10
-54.6463
 20
107.822
 11
-54.7414
 21
107.788
  0
LINE
  8
0
 10
-54.7414
 20
107.788
 11
-54.8387
 21
107.76
  0
LINE
  8
0
 10
-54.8387
 20
107.76
 11
-54.9377
 21
107.739
  0
LINE
  8
0
 10
-54.9377
 20
107.739
 11
-55.0379
 21
107.725
  0
LINE
  8
0
 10
-55.0379
 20
107.725
 11
-55.1389
 21
107.718
  0
LINE
  8
0
 10
-55.1389
 20
107.718
 11
-55.2401
 21
107.718
  0
LINE
  8
0
 10
-55.2401
 20
107.718
 11
-55.341
 21
107.725
  0
LINE
  8
0
 10
-55.341
 20
107.725
 11
-55.4413
 21
107.739
  0
LINE
  8
0
 10
-55.4413
 20
107.739
 11
-55.5403
 21
107.76
  0
LINE
  8
0
 10
-55.5403
 20
107.76
 11
-55.6376
 21
107.788
  0
LINE
  8
0
 10
-55.6376
 20
107.788
 11
-55.7327
 21
107.822
  0
LINE
  8
0
 10
-55.7327
 20
107.822
 11
-55.8251
 21
107.863
  0
LINE
  8
0
 10
-55.8251
 20
107.863
 11
-55.9145
 21
107.911
  0
LINE
  8
0
 10
-55.9145
 20
107.911
 11
-56.0003
 21
107.965
  0
LINE
  8
0
 10
-56.0003
 20
107.965
 11
-56.0822
 21
108.024
  0
LINE
  8
0
 10
-56.0822
 20
108.024
 11
-56.1597
 21
108.089
  0
LINE
  8
0
 10
-56.1597
 20
108.089
 11
-56.2325
 21
108.159
  0
LINE
  8
0
 10
-56.2325
 20
108.159
 11
-56.3002
 21
108.235
  0
LINE
  8
0
 10
-56.3002
 20
108.235
 11
-56.3626
 21
108.314
  0
LINE
  8
0
 10
-56.3626
 20
108.314
 11
-56.4191
 21
108.398
  0
LINE
  8
0
 10
-56.4191
 20
108.398
 11
-56.4697
 21
108.486
  0
LINE
  8
0
 10
-56.4697
 20
108.486
 11
-56.5141
 21
108.577
  0
LINE
  8
0
 10
-56.5141
 20
108.577
 11
-56.552
 21
108.671
  0
LINE
  8
0
 10
-56.552
 20
108.671
 11
-56.5833
 21
108.767
  0
LINE
  8
0
 10
-56.5833
 20
108.767
 11
-56.6078
 21
108.865
  0
LINE
  8
0
 10
-56.6078
 20
108.865
 11
-56.6254
 21
108.965
  0
LINE
  8
0
 10
-56.6254
 20
108.965
 11
-56.6359
 21
109.066
  0
LINE
  8
0
 10
-56.6359
 20
109.066
 11
-56.6395
 21
109.167
  0
ENDSEC
  0
SECTION
  2
OBJECTS
  0
DICTIONARY
  0
ENDSEC
  0
EOF
