  0
SECTION
  2
BLOCKS
  0
ENDSEC
  0
SECTION
  2
ENTITIES
  0
LINE
  8
0
 10
72.9467
 20
-90.0306
 11
73.5065
 21
-89.9519
  0
LINE
  8
0
 10
73.5065
 20
-89.9519
 11
74.0596
 21
-89.8344
  0
LINE
  8
0
 10
74.0596
 20
-89.8344
 11
74.603
 21
-89.6786
  0
LINE
  8
0
 10
74.603
 20
-89.6786
 11
75.1343
 21
-89.4852
  0
LINE
  8
0
 10
75.1343
 20
-89.4852
 11
75.6508
 21
-89.2552
  0
LINE
  8
0
 10
75.6508
 20
-89.2552
 11
76.15
 21
-88.9898
  0
LINE
  8
0
 10
76.15
 20
-88.9898
 11
76.6295
 21
-88.6902
  0
LINE
  8
0
 10
76.6295
 20
-88.6902
 11
77.0869
 21
-88.3579
  0
LINE
  8
0
 10
77.0869
 20
-88.3579
 11
77.52
 21
-87.9945
  0
LINE
  8
0
 10
77.52
 20
-87.9945
 11
77.9267
 21
-87.6017
  0
LINE
  8
0
 10
77.9267
 20
-87.6017
 11
78.305
 21
-87.1816
  0
LINE
  8
0
 10
78.305
 20
-87.1816
 11
78.653
 21
-86.7361
  0
LINE
  8
0
 10
78.653
 20
-86.7361
 11
78.9692
 21
-86.2673
  0
LINE
  8
0
 10
78.9692
 20
-86.2673
 11
79.2519
 21
-85.7777
  0
LINE
  8
0
 10
79.2519
 20
-85.7777
 11
79.4997
 21
-85.2696
  0
LINE
  8
0
 10
79.4997
 20
-85.2696
 11
79.7115
 21
-84.7454
  0
LINE
  8
0
 10
79.7115
 20
-84.7454
 11
79.8862
 21
-84.2077
  0
LINE
  8
0
 10
79.8862
 20
-84.2077
 11
80.023
 21
-83.6591
  0
LINE
  8
0
 10
80.023
 20
-83.6591
 11
80.1212
 21
-83.1023
  0
LINE
  8
0
 10
80.1212
 20
-83.1023
 11
80.1803
 21
-82.54
  0
LINE
  8
0
 10
80.1803
 20
-82.54
 11
80.2
 21
-81.975
  0
LINE
  8
0
 10
80.2
 20
-81.975
 11
80.2
 21
-70.3176
  0
LINE
  8
0
 10
80.2
 20
-70.3176
 11
72.75
 21
-70.3176
  0
LINE
  8
0
 10
72.75
 20
-70.3176
 11
72.75
 21
-74.625
  0
LINE
  8
0
 10
72.75
 20
-74.625
 11
61.475
 21
-74.625
  0
LINE
  8
0
 10
61.475
 20
-74.625
 11
61.475
 21
-77.375
  0
LINE
  8
0
 10
61.475
 20
-77.375
 11
46.675
 21
-77.375
  0
LINE
  8
0
 10
46.675
 20
-77.375
 11
46.675
 21
-74.625
  0
LINE
  8
0
 10
46.675
 20
-74.625
 11
7.39999
 21
-74.625
  0
LINE
  8
0
 10
7.39999
 20
-74.625
 11
7.39999
 21
-77.375
  0
LINE
  8
0
 10
7.39999
 20
-77.375
 11
-7.39999
 21
-77.375
  0
LINE
  8
0
 10
-7.39999
 20
-77.375
 11
-7.39999
 21
-74.625
  0
LINE
  8
0
 10
-7.39999
 20
-74.625
 11
-46.675
 21
-74.625
  0
LINE
  8
0
 10
-46.675
 20
-74.625
 11
-46.675
 21
-77.375
  0
LINE
  8
0
 10
-46.675
 20
-77.375
 11
-61.475
 21
-77.375
  0
LINE
  8
0
 10
-61.475
 20
-77.375
 11
-61.475
 21
-74.625
  0
LINE
  8
0
 10
-61.475
 20
-74.625
 11
-77.75
 21
-74.625
  0
LINE
  8
0
 10
-77.75
 20
-74.625
 11
-77.75
 21
-70.3176
  0
LINE
  8
0
 10
-77.75
 20
-70.3176
 11
-80.2
 21
-70.3176
  0
LINE
  8
0
 10
-80.2
 20
-70.3176
 11
-80.2
 21
-81.975
  0
LINE
  8
0
 10
-80.2
 20
-81.975
 11
-80.1803
 21
-82.54
  0
LINE
  8
0
 10
-80.1803
 20
-82.54
 11
-80.1212
 21
-83.1023
  0
LINE
  8
0
 10
-80.1212
 20
-83.1023
 11
-80.023
 21
-83.6591
  0
LINE
  8
0
 10
-80.023
 20
-83.6591
 11
-79.8862
 21
-84.2077
  0
LINE
  8
0
 10
-79.8862
 20
-84.2077
 11
-79.7115
 21
-84.7454
  0
LINE
  8
0
 10
-79.7115
 20
-84.7454
 11
-79.4997
 21
-85.2696
  0
LINE
  8
0
 10
-79.4997
 20
-85.2696
 11
-79.2519
 21
-85.7777
  0
LINE
  8
0
 10
-79.2519
 20
-85.7777
 11
-78.9692
 21
-86.2673
  0
LINE
  8
0
 10
-78.9692
 20
-86.2673
 11
-78.653
 21
-86.7361
  0
LINE
  8
0
 10
-78.653
 20
-86.7361
 11
-78.305
 21
-87.1816
  0
LINE
  8
0
 10
-78.305
 20
-87.1816
 11
-77.9267
 21
-87.6017
  0
LINE
  8
0
 10
-77.9267
 20
-87.6017
 11
-77.52
 21
-87.9945
  0
LINE
  8
0
 10
-77.52
 20
-87.9945
 11
-77.0869
 21
-88.3579
  0
LINE
  8
0
 10
-77.0869
 20
-88.3579
 11
-76.6295
 21
-88.6902
  0
LINE
  8
0
 10
-76.6295
 20
-88.6902
 11
-76.15
 21
-88.9898
  0
LINE
  8
0
 10
-76.15
 20
-88.9898
 11
-75.6508
 21
-89.2552
  0
LINE
  8
0
 10
-75.6508
 20
-89.2552
 11
-75.1343
 21
-89.4852
  0
LINE
  8
0
 10
-75.1343
 20
-89.4852
 11
-74.603
 21
-89.6786
  0
LINE
  8
0
 10
-74.603
 20
-89.6786
 11
-74.0596
 21
-89.8344
  0
LINE
  8
0
 10
-74.0596
 20
-89.8344
 11
-73.5065
 21
-89.9519
  0
LINE
  8
0
 10
-73.5065
 20
-89.9519
 11
-72.9467
 21
-90.0306
  0
LINE
  8
0
 10
-72.9467
 20
-90.0306
 11
-72.3827
 21
-90.0701
  0
LINE
  8
0
 10
-72.3827
 20
-90.0701
 11
72.3827
 21
-90.0701
  0
LINE
  8
0
 10
72.3827
 20
-90.0701
 11
72.9467
 21
-90.0306
  0
LINE
  8
0
 10
-72.2379
 20
-85.9226
 11
-72.5129
 21
-85.9034
  0
LINE
  8
0
 10
-72.5129
 20
-85.9034
 11
-72.7859
 21
-85.865
  0
LINE
  8
0
 10
-72.7859
 20
-85.865
 11
-73.0556
 21
-85.8077
  0
LINE
  8
0
 10
-73.0556
 20
-85.8077
 11
-73.3206
 21
-85.7317
  0
LINE
  8
0
 10
-73.3206
 20
-85.7317
 11
-73.5797
 21
-85.6374
  0
LINE
  8
0
 10
-73.5797
 20
-85.6374
 11
-73.8316
 21
-85.5252
  0
LINE
  8
0
 10
-73.8316
 20
-85.5252
 11
-74.075
 21
-85.3958
  0
LINE
  8
0
 10
-74.075
 20
-85.3958
 11
-74.3088
 21
-85.2497
  0
LINE
  8
0
 10
-74.3088
 20
-85.2497
 11
-74.5319
 21
-85.0876
  0
LINE
  8
0
 10
-74.5319
 20
-85.0876
 11
-74.7431
 21
-84.9104
  0
LINE
  8
0
 10
-74.7431
 20
-84.9104
 11
-74.9414
 21
-84.7189
  0
LINE
  8
0
 10
-74.9414
 20
-84.7189
 11
-75.1259
 21
-84.514
  0
LINE
  8
0
 10
-75.1259
 20
-84.514
 11
-75.2956
 21
-84.2968
  0
LINE
  8
0
 10
-75.2956
 20
-84.2968
 11
-75.4498
 21
-84.0682
  0
LINE
  8
0
 10
-75.4498
 20
-84.0682
 11
-75.5876
 21
-83.8294
  0
LINE
  8
0
 10
-75.5876
 20
-83.8294
 11
-75.7085
 21
-83.5816
  0
LINE
  8
0
 10
-75.7085
 20
-83.5816
 11
-75.8118
 21
-83.326
  0
LINE
  8
0
 10
-75.8118
 20
-83.326
 11
-75.897
 21
-83.0638
  0
LINE
  8
0
 10
-75.897
 20
-83.0638
 11
-75.9637
 21
-82.7962
  0
LINE
  8
0
 10
-75.9637
 20
-82.7962
 11
-76.0116
 21
-82.5247
  0
LINE
  8
0
 10
-76.0116
 20
-82.5247
 11
-76.0404
 21
-82.2505
  0
LINE
  8
0
 10
-76.0404
 20
-82.2505
 11
-76.05
 21
-81.975
  0
LINE
  8
0
 10
-76.05
 20
-81.975
 11
-76.0404
 21
-81.6995
  0
LINE
  8
0
 10
-76.0404
 20
-81.6995
 11
-76.0116
 21
-81.4253
  0
LINE
  8
0
 10
-76.0116
 20
-81.4253
 11
-75.9637
 21
-81.1537
  0
LINE
  8
0
 10
-75.9637
 20
-81.1537
 11
-75.897
 21
-80.8862
  0
LINE
  8
0
 10
-75.897
 20
-80.8862
 11
-75.8118
 21
-80.624
  0
LINE
  8
0
 10
-75.8118
 20
-80.624
 11
-75.7085
 21
-80.3684
  0
LINE
  8
0
 10
-75.7085
 20
-80.3684
 11
-75.5876
 21
-80.1206
  0
LINE
  8
0
 10
-75.5876
 20
-80.1206
 11
-75.4498
 21
-79.8818
  0
LINE
  8
0
 10
-75.4498
 20
-79.8818
 11
-75.2956
 21
-79.6532
  0
LINE
  8
0
 10
-75.2956
 20
-79.6532
 11
-75.1259
 21
-79.436
  0
LINE
  8
0
 10
-75.1259
 20
-79.436
 11
-74.9414
 21
-79.2311
  0
LINE
  8
0
 10
-74.9414
 20
-79.2311
 11
-74.7431
 21
-79.0396
  0
LINE
  8
0
 10
-74.7431
 20
-79.0396
 11
-74.5319
 21
-78.8624
  0
LINE
  8
0
 10
-74.5319
 20
-78.8624
 11
-74.3088
 21
-78.7003
  0
LINE
  8
0
 10
-74.3088
 20
-78.7003
 11
-74.075
 21
-78.5542
  0
LINE
  8
0
 10
-74.075
 20
-78.5542
 11
-73.8316
 21
-78.4248
  0
LINE
  8
0
 10
-73.8316
 20
-78.4248
 11
-73.5797
 21
-78.3126
  0
LINE
  8
0
 10
-73.5797
 20
-78.3126
 11
-73.3206
 21
-78.2183
  0
LINE
  8
0
 10
-73.3206
 20
-78.2183
 11
-73.0556
 21
-78.1423
  0
LINE
  8
0
 10
-73.0556
 20
-78.1423
 11
-72.7859
 21
-78.085
  0
LINE
  8
0
 10
-72.7859
 20
-78.085
 11
-72.5129
 21
-78.0466
  0
LINE
  8
0
 10
-72.5129
 20
-78.0466
 11
-72.2379
 21
-78.0274
  0
LINE
  8
0
 10
-72.2379
 20
-78.0274
 11
-71.9621
 21
-78.0274
  0
LINE
  8
0
 10
-71.9621
 20
-78.0274
 11
-71.6871
 21
-78.0466
  0
LINE
  8
0
 10
-71.6871
 20
-78.0466
 11
-71.4141
 21
-78.085
  0
LINE
  8
0
 10
-71.4141
 20
-78.085
 11
-71.1444
 21
-78.1423
  0
LINE
  8
0
 10
-71.1444
 20
-78.1423
 11
-70.8794
 21
-78.2183
  0
LINE
  8
0
 10
-70.8794
 20
-78.2183
 11
-70.6203
 21
-78.3126
  0
LINE
  8
0
 10
-70.6203
 20
-78.3126
 11
-70.3684
 21
-78.4248
  0
LINE
  8
0
 10
-70.3684
 20
-78.4248
 11
-70.125
 21
-78.5542
  0
LINE
  8
0
 10
-70.125
 20
-78.5542
 11
-69.8912
 21
-78.7003
  0
LINE
  8
0
 10
-69.8912
 20
-78.7003
 11
-69.6681
 21
-78.8624
  0
LINE
  8
0
 10
-69.6681
 20
-78.8624
 11
-69.4569
 21
-79.0396
  0
LINE
  8
0
 10
-69.4569
 20
-79.0396
 11
-69.2586
 21
-79.2311
  0
LINE
  8
0
 10
-69.2586
 20
-79.2311
 11
-69.0741
 21
-79.436
  0
LINE
  8
0
 10
-69.0741
 20
-79.436
 11
-68.9044
 21
-79.6532
  0
LINE
  8
0
 10
-68.9044
 20
-79.6532
 11
-68.7502
 21
-79.8818
  0
LINE
  8
0
 10
-68.7502
 20
-79.8818
 11
-68.6124
 21
-80.1206
  0
LINE
  8
0
 10
-68.6124
 20
-80.1206
 11
-68.4915
 21
-80.3684
  0
LINE
  8
0
 10
-68.4915
 20
-80.3684
 11
-68.3882
 21
-80.624
  0
LINE
  8
0
 10
-68.3882
 20
-80.624
 11
-68.303
 21
-80.8862
  0
LINE
  8
0
 10
-68.303
 20
-80.8862
 11
-68.2363
 21
-81.1537
  0
LINE
  8
0
 10
-68.2363
 20
-81.1537
 11
-68.1884
 21
-81.4253
  0
LINE
  8
0
 10
-68.1884
 20
-81.4253
 11
-68.1596
 21
-81.6995
  0
LINE
  8
0
 10
-68.1596
 20
-81.6995
 11
-68.15
 21
-81.975
  0
LINE
  8
0
 10
-68.15
 20
-81.975
 11
-68.1596
 21
-82.2505
  0
LINE
  8
0
 10
-68.1596
 20
-82.2505
 11
-68.1884
 21
-82.5247
  0
LINE
  8
0
 10
-68.1884
 20
-82.5247
 11
-68.2363
 21
-82.7962
  0
LINE
  8
0
 10
-68.2363
 20
-82.7962
 11
-68.303
 21
-83.0638
  0
LINE
  8
0
 10
-68.303
 20
-83.0638
 11
-68.3882
 21
-83.326
  0
LINE
  8
0
 10
-68.3882
 20
-83.326
 11
-68.4915
 21
-83.5816
  0
LINE
  8
0
 10
-68.4915
 20
-83.5816
 11
-68.6124
 21
-83.8294
  0
LINE
  8
0
 10
-68.6124
 20
-83.8294
 11
-68.7502
 21
-84.0682
  0
LINE
  8
0
 10
-68.7502
 20
-84.0682
 11
-68.9044
 21
-84.2968
  0
LINE
  8
0
 10
-68.9044
 20
-84.2968
 11
-69.0741
 21
-84.514
  0
LINE
  8
0
 10
-69.0741
 20
-84.514
 11
-69.2586
 21
-84.7189
  0
LINE
  8
0
 10
-69.2586
 20
-84.7189
 11
-69.4569
 21
-84.9104
  0
LINE
  8
0
 10
-69.4569
 20
-84.9104
 11
-69.6681
 21
-85.0876
  0
LINE
  8
0
 10
-69.6681
 20
-85.0876
 11
-69.8912
 21
-85.2497
  0
LINE
  8
0
 10
-69.8912
 20
-85.2497
 11
-70.125
 21
-85.3958
  0
LINE
  8
0
 10
-70.125
 20
-85.3958
 11
-70.3684
 21
-85.5252
  0
LINE
  8
0
 10
-70.3684
 20
-85.5252
 11
-70.6203
 21
-85.6374
  0
LINE
  8
0
 10
-70.6203
 20
-85.6374
 11
-70.8794
 21
-85.7317
  0
LINE
  8
0
 10
-70.8794
 20
-85.7317
 11
-71.1444
 21
-85.8077
  0
LINE
  8
0
 10
-71.1444
 20
-85.8077
 11
-71.4141
 21
-85.865
  0
LINE
  8
0
 10
-71.4141
 20
-85.865
 11
-71.6871
 21
-85.9034
  0
LINE
  8
0
 10
-71.6871
 20
-85.9034
 11
-71.9621
 21
-85.9226
  0
LINE
  8
0
 10
-71.9621
 20
-85.9226
 11
-72.2379
 21
-85.9226
  0
LINE
  8
0
 10
71.9621
 20
-85.9226
 11
71.6871
 21
-85.9034
  0
LINE
  8
0
 10
71.6871
 20
-85.9034
 11
71.4141
 21
-85.865
  0
LINE
  8
0
 10
71.4141
 20
-85.865
 11
71.1444
 21
-85.8077
  0
LINE
  8
0
 10
71.1444
 20
-85.8077
 11
70.8794
 21
-85.7317
  0
LINE
  8
0
 10
70.8794
 20
-85.7317
 11
70.6203
 21
-85.6374
  0
LINE
  8
0
 10
70.6203
 20
-85.6374
 11
70.3684
 21
-85.5252
  0
LINE
  8
0
 10
70.3684
 20
-85.5252
 11
70.125
 21
-85.3958
  0
LINE
  8
0
 10
70.125
 20
-85.3958
 11
69.8912
 21
-85.2497
  0
LINE
  8
0
 10
69.8912
 20
-85.2497
 11
69.6681
 21
-85.0876
  0
LINE
  8
0
 10
69.6681
 20
-85.0876
 11
69.4569
 21
-84.9104
  0
LINE
  8
0
 10
69.4569
 20
-84.9104
 11
69.2586
 21
-84.7189
  0
LINE
  8
0
 10
69.2586
 20
-84.7189
 11
69.0741
 21
-84.514
  0
LINE
  8
0
 10
69.0741
 20
-84.514
 11
68.9044
 21
-84.2968
  0
LINE
  8
0
 10
68.9044
 20
-84.2968
 11
68.7502
 21
-84.0682
  0
LINE
  8
0
 10
68.7502
 20
-84.0682
 11
68.6124
 21
-83.8294
  0
LINE
  8
0
 10
68.6124
 20
-83.8294
 11
68.4915
 21
-83.5816
  0
LINE
  8
0
 10
68.4915
 20
-83.5816
 11
68.3882
 21
-83.326
  0
LINE
  8
0
 10
68.3882
 20
-83.326
 11
68.303
 21
-83.0638
  0
LINE
  8
0
 10
68.303
 20
-83.0638
 11
68.2363
 21
-82.7962
  0
LINE
  8
0
 10
68.2363
 20
-82.7962
 11
68.1884
 21
-82.5247
  0
LINE
  8
0
 10
68.1884
 20
-82.5247
 11
68.1596
 21
-82.2505
  0
LINE
  8
0
 10
68.1596
 20
-82.2505
 11
68.15
 21
-81.975
  0
LINE
  8
0
 10
68.15
 20
-81.975
 11
68.1596
 21
-81.6995
  0
LINE
  8
0
 10
68.1596
 20
-81.6995
 11
68.1884
 21
-81.4253
  0
LINE
  8
0
 10
68.1884
 20
-81.4253
 11
68.2363
 21
-81.1537
  0
LINE
  8
0
 10
68.2363
 20
-81.1537
 11
68.303
 21
-80.8862
  0
LINE
  8
0
 10
68.303
 20
-80.8862
 11
68.3882
 21
-80.624
  0
LINE
  8
0
 10
68.3882
 20
-80.624
 11
68.4915
 21
-80.3684
  0
LINE
  8
0
 10
68.4915
 20
-80.3684
 11
68.6124
 21
-80.1206
  0
LINE
  8
0
 10
68.6124
 20
-80.1206
 11
68.7502
 21
-79.8818
  0
LINE
  8
0
 10
68.7502
 20
-79.8818
 11
68.9044
 21
-79.6532
  0
LINE
  8
0
 10
68.9044
 20
-79.6532
 11
69.0741
 21
-79.436
  0
LINE
  8
0
 10
69.0741
 20
-79.436
 11
69.2586
 21
-79.2311
  0
LINE
  8
0
 10
69.2586
 20
-79.2311
 11
69.4569
 21
-79.0396
  0
LINE
  8
0
 10
69.4569
 20
-79.0396
 11
69.6681
 21
-78.8624
  0
LINE
  8
0
 10
69.6681
 20
-78.8624
 11
69.8912
 21
-78.7003
  0
LINE
  8
0
 10
69.8912
 20
-78.7003
 11
70.125
 21
-78.5542
  0
LINE
  8
0
 10
70.125
 20
-78.5542
 11
70.3684
 21
-78.4248
  0
LINE
  8
0
 10
70.3684
 20
-78.4248
 11
70.6203
 21
-78.3126
  0
LINE
  8
0
 10
70.6203
 20
-78.3126
 11
70.8794
 21
-78.2183
  0
LINE
  8
0
 10
70.8794
 20
-78.2183
 11
71.1444
 21
-78.1423
  0
LINE
  8
0
 10
71.1444
 20
-78.1423
 11
71.4141
 21
-78.085
  0
LINE
  8
0
 10
71.4141
 20
-78.085
 11
71.6871
 21
-78.0466
  0
LINE
  8
0
 10
71.6871
 20
-78.0466
 11
71.9621
 21
-78.0274
  0
LINE
  8
0
 10
71.9621
 20
-78.0274
 11
72.2379
 21
-78.0274
  0
LINE
  8
0
 10
72.2379
 20
-78.0274
 11
72.5129
 21
-78.0466
  0
LINE
  8
0
 10
72.5129
 20
-78.0466
 11
72.7859
 21
-78.085
  0
LINE
  8
0
 10
72.7859
 20
-78.085
 11
73.0556
 21
-78.1423
  0
LINE
  8
0
 10
73.0556
 20
-78.1423
 11
73.3206
 21
-78.2183
  0
LINE
  8
0
 10
73.3206
 20
-78.2183
 11
73.5797
 21
-78.3126
  0
LINE
  8
0
 10
73.5797
 20
-78.3126
 11
73.8316
 21
-78.4248
  0
LINE
  8
0
 10
73.8316
 20
-78.4248
 11
74.075
 21
-78.5542
  0
LINE
  8
0
 10
74.075
 20
-78.5542
 11
74.3088
 21
-78.7003
  0
LINE
  8
0
 10
74.3088
 20
-78.7003
 11
74.5319
 21
-78.8624
  0
LINE
  8
0
 10
74.5319
 20
-78.8624
 11
74.7431
 21
-79.0396
  0
LINE
  8
0
 10
74.7431
 20
-79.0396
 11
74.9414
 21
-79.2311
  0
LINE
  8
0
 10
74.9414
 20
-79.2311
 11
75.1259
 21
-79.436
  0
LINE
  8
0
 10
75.1259
 20
-79.436
 11
75.2956
 21
-79.6532
  0
LINE
  8
0
 10
75.2956
 20
-79.6532
 11
75.4498
 21
-79.8818
  0
LINE
  8
0
 10
75.4498
 20
-79.8818
 11
75.5876
 21
-80.1206
  0
LINE
  8
0
 10
75.5876
 20
-80.1206
 11
75.7085
 21
-80.3684
  0
LINE
  8
0
 10
75.7085
 20
-80.3684
 11
75.8118
 21
-80.624
  0
LINE
  8
0
 10
75.8118
 20
-80.624
 11
75.897
 21
-80.8862
  0
LINE
  8
0
 10
75.897
 20
-80.8862
 11
75.9637
 21
-81.1537
  0
LINE
  8
0
 10
75.9637
 20
-81.1537
 11
76.0116
 21
-81.4253
  0
LINE
  8
0
 10
76.0116
 20
-81.4253
 11
76.0404
 21
-81.6995
  0
LINE
  8
0
 10
76.0404
 20
-81.6995
 11
76.05
 21
-81.975
  0
LINE
  8
0
 10
76.05
 20
-81.975
 11
76.0404
 21
-82.2505
  0
LINE
  8
0
 10
76.0404
 20
-82.2505
 11
76.0116
 21
-82.5247
  0
LINE
  8
0
 10
76.0116
 20
-82.5247
 11
75.9637
 21
-82.7962
  0
LINE
  8
0
 10
75.9637
 20
-82.7962
 11
75.897
 21
-83.0638
  0
LINE
  8
0
 10
75.897
 20
-83.0638
 11
75.8118
 21
-83.326
  0
LINE
  8
0
 10
75.8118
 20
-83.326
 11
75.7085
 21
-83.5816
  0
LINE
  8
0
 10
75.7085
 20
-83.5816
 11
75.5876
 21
-83.8294
  0
LINE
  8
0
 10
75.5876
 20
-83.8294
 11
75.4498
 21
-84.0682
  0
LINE
  8
0
 10
75.4498
 20
-84.0682
 11
75.2956
 21
-84.2968
  0
LINE
  8
0
 10
75.2956
 20
-84.2968
 11
75.1259
 21
-84.514
  0
LINE
  8
0
 10
75.1259
 20
-84.514
 11
74.9414
 21
-84.7189
  0
LINE
  8
0
 10
74.9414
 20
-84.7189
 11
74.7431
 21
-84.9104
  0
LINE
  8
0
 10
74.7431
 20
-84.9104
 11
74.5319
 21
-85.0876
  0
LINE
  8
0
 10
74.5319
 20
-85.0876
 11
74.3088
 21
-85.2497
  0
LINE
  8
0
 10
74.3088
 20
-85.2497
 11
74.075
 21
-85.3958
  0
LINE
  8
0
 10
74.075
 20
-85.3958
 11
73.8316
 21
-85.5252
  0
LINE
  8
0
 10
73.8316
 20
-85.5252
 11
73.5797
 21
-85.6374
  0
LINE
  8
0
 10
73.5797
 20
-85.6374
 11
73.3206
 21
-85.7317
  0
LINE
  8
0
 10
73.3206
 20
-85.7317
 11
73.0556
 21
-85.8077
  0
LINE
  8
0
 10
73.0556
 20
-85.8077
 11
72.7859
 21
-85.865
  0
LINE
  8
0
 10
72.7859
 20
-85.865
 11
72.5129
 21
-85.9034
  0
LINE
  8
0
 10
72.5129
 20
-85.9034
 11
72.2379
 21
-85.9226
  0
LINE
  8
0
 10
72.2379
 20
-85.9226
 11
71.9621
 21
-85.9226
  0
ENDSEC
  0
SECTION
  2
OBJECTS
  0
DICTIONARY
  0
ENDSEC
  0
EOF
