  0
SECTION
  2
BLOCKS
  0
ENDSEC
  0
SECTION
  2
ENTITIES
  0
LINE
  8
0
 10
83.5397
 20
-99.4786
 11
84.7562
 21
-99.3076
  0
LINE
  8
0
 10
84.7562
 20
-99.3076
 11
85.9578
 21
-99.0522
  0
LINE
  8
0
 10
85.9578
 20
-99.0522
 11
87.1387
 21
-98.7136
  0
LINE
  8
0
 10
87.1387
 20
-98.7136
 11
88.2931
 21
-98.2934
  0
LINE
  8
0
 10
88.2931
 20
-98.2934
 11
89.4153
 21
-97.7938
  0
LINE
  8
0
 10
89.4153
 20
-97.7938
 11
90.5
 21
-97.217
  0
LINE
  8
0
 10
90.5
 20
-97.217
 11
91.5418
 21
-96.5661
  0
LINE
  8
0
 10
91.5418
 20
-96.5661
 11
92.5356
 21
-95.844
  0
LINE
  8
0
 10
92.5356
 20
-95.844
 11
93.4767
 21
-95.0544
  0
LINE
  8
0
 10
93.4767
 20
-95.0544
 11
94.3604
 21
-94.201
  0
LINE
  8
0
 10
94.3604
 20
-94.201
 11
95.1824
 21
-93.2881
  0
LINE
  8
0
 10
95.1824
 20
-93.2881
 11
95.9387
 21
-92.32
  0
LINE
  8
0
 10
95.9387
 20
-92.32
 11
96.6256
 21
-91.3016
  0
LINE
  8
0
 10
96.6256
 20
-91.3016
 11
97.2399
 21
-90.2377
  0
LINE
  8
0
 10
97.2399
 20
-90.2377
 11
97.7784
 21
-89.1336
  0
LINE
  8
0
 10
97.7784
 20
-89.1336
 11
98.2386
 21
-87.9946
  0
LINE
  8
0
 10
98.2386
 20
-87.9946
 11
98.6182
 21
-86.8262
  0
LINE
  8
0
 10
98.6182
 20
-86.8262
 11
98.9154
 21
-85.6342
  0
LINE
  8
0
 10
98.9154
 20
-85.6342
 11
99.1287
 21
-84.4244
  0
LINE
  8
0
 10
99.1287
 20
-84.4244
 11
99.2571
 21
-83.2027
  0
LINE
  8
0
 10
99.2571
 20
-83.2027
 11
99.3
 21
-81.975
  0
LINE
  8
0
 10
99.3
 20
-81.975
 11
99.3
 21
32.225
  0
LINE
  8
0
 10
99.3
 20
32.225
 11
99.2571
 21
33.4527
  0
LINE
  8
0
 10
99.2571
 20
33.4527
 11
99.1287
 21
34.6744
  0
LINE
  8
0
 10
99.1287
 20
34.6744
 11
98.9154
 21
35.8842
  0
LINE
  8
0
 10
98.9154
 20
35.8842
 11
98.6182
 21
37.0762
  0
LINE
  8
0
 10
98.6182
 20
37.0762
 11
98.2386
 21
38.2446
  0
LINE
  8
0
 10
98.2386
 20
38.2446
 11
97.7784
 21
39.3836
  0
LINE
  8
0
 10
97.7784
 20
39.3836
 11
97.2399
 21
40.4877
  0
LINE
  8
0
 10
97.2399
 20
40.4877
 11
18.3947
 21
189.181
  0
LINE
  8
0
 10
18.3947
 20
189.181
 11
17.6677
 21
190.44
  0
LINE
  8
0
 10
17.6677
 20
190.44
 11
16.8545
 21
191.646
  0
LINE
  8
0
 10
16.8545
 20
191.646
 11
15.9593
 21
192.791
  0
LINE
  8
0
 10
15.9593
 20
192.791
 11
14.9862
 21
193.872
  0
LINE
  8
0
 10
14.9862
 20
193.872
 11
13.9402
 21
194.882
  0
LINE
  8
0
 10
13.9402
 20
194.882
 11
12.8263
 21
195.817
  0
LINE
  8
0
 10
12.8263
 20
195.817
 11
11.6498
 21
196.672
  0
LINE
  8
0
 10
11.6498
 20
196.672
 11
10.4167
 21
197.442
  0
LINE
  8
0
 10
10.4167
 20
197.442
 11
9.13272
 21
198.125
  0
LINE
  8
0
 10
9.13272
 20
198.125
 11
7.80429
 21
198.716
  0
LINE
  8
0
 10
7.80429
 20
198.716
 11
6.43785
 21
199.214
  0
LINE
  8
0
 10
6.43785
 20
199.214
 11
5.04004
 21
199.614
  0
LINE
  8
0
 10
5.04004
 20
199.614
 11
3.61766
 21
199.917
  0
LINE
  8
0
 10
3.61766
 20
199.917
 11
2.17767
 21
200.119
  0
LINE
  8
0
 10
2.17767
 20
200.119
 11
0.727066
 21
200.221
  0
LINE
  8
0
 10
0.727066
 20
200.221
 11
-0.727066
 21
200.221
  0
LINE
  8
0
 10
-0.727066
 20
200.221
 11
-2.17767
 21
200.119
  0
LINE
  8
0
 10
-2.17767
 20
200.119
 11
-3.61766
 21
199.917
  0
LINE
  8
0
 10
-3.61766
 20
199.917
 11
-5.04004
 21
199.614
  0
LINE
  8
0
 10
-5.04004
 20
199.614
 11
-6.43785
 21
199.214
  0
LINE
  8
0
 10
-6.43785
 20
199.214
 11
-7.80429
 21
198.716
  0
LINE
  8
0
 10
-7.80429
 20
198.716
 11
-9.13272
 21
198.125
  0
LINE
  8
0
 10
-9.13272
 20
198.125
 11
-10.4167
 21
197.442
  0
LINE
  8
0
 10
-10.4167
 20
197.442
 11
-11.6498
 21
196.672
  0
LINE
  8
0
 10
-11.6498
 20
196.672
 11
-12.8263
 21
195.817
  0
LINE
  8
0
 10
-12.8263
 20
195.817
 11
-13.9402
 21
194.882
  0
LINE
  8
0
 10
-13.9402
 20
194.882
 11
-14.9862
 21
193.872
  0
LINE
  8
0
 10
-14.9862
 20
193.872
 11
-15.9593
 21
192.791
  0
LINE
  8
0
 10
-15.9593
 20
192.791
 11
-16.8545
 21
191.646
  0
LINE
  8
0
 10
-16.8545
 20
191.646
 11
-17.6677
 21
190.44
  0
LINE
  8
0
 10
-17.6677
 20
190.44
 11
-18.3947
 21
189.181
  0
LINE
  8
0
 10
-18.3947
 20
189.181
 11
-97.2399
 21
40.4877
  0
LINE
  8
0
 10
-97.2399
 20
40.4877
 11
-97.7784
 21
39.3836
  0
LINE
  8
0
 10
-97.7784
 20
39.3836
 11
-98.2386
 21
38.2446
  0
LINE
  8
0
 10
-98.2386
 20
38.2446
 11
-98.6182
 21
37.0762
  0
LINE
  8
0
 10
-98.6182
 20
37.0762
 11
-98.9154
 21
35.8842
  0
LINE
  8
0
 10
-98.9154
 20
35.8842
 11
-99.1287
 21
34.6744
  0
LINE
  8
0
 10
-99.1287
 20
34.6744
 11
-99.2571
 21
33.4527
  0
LINE
  8
0
 10
-99.2571
 20
33.4527
 11
-99.3
 21
32.225
  0
LINE
  8
0
 10
-99.3
 20
32.225
 11
-99.3
 21
-81.975
  0
LINE
  8
0
 10
-99.3
 20
-81.975
 11
-99.2571
 21
-83.2027
  0
LINE
  8
0
 10
-99.2571
 20
-83.2027
 11
-99.1287
 21
-84.4244
  0
LINE
  8
0
 10
-99.1287
 20
-84.4244
 11
-98.9154
 21
-85.6342
  0
LINE
  8
0
 10
-98.9154
 20
-85.6342
 11
-98.6182
 21
-86.8262
  0
LINE
  8
0
 10
-98.6182
 20
-86.8262
 11
-98.2386
 21
-87.9946
  0
LINE
  8
0
 10
-98.2386
 20
-87.9946
 11
-97.7784
 21
-89.1336
  0
LINE
  8
0
 10
-97.7784
 20
-89.1336
 11
-97.2399
 21
-90.2377
  0
LINE
  8
0
 10
-97.2399
 20
-90.2377
 11
-96.6256
 21
-91.3016
  0
LINE
  8
0
 10
-96.6256
 20
-91.3016
 11
-95.9387
 21
-92.32
  0
LINE
  8
0
 10
-95.9387
 20
-92.32
 11
-95.1824
 21
-93.2881
  0
LINE
  8
0
 10
-95.1824
 20
-93.2881
 11
-94.3604
 21
-94.201
  0
LINE
  8
0
 10
-94.3604
 20
-94.201
 11
-93.4767
 21
-95.0544
  0
LINE
  8
0
 10
-93.4767
 20
-95.0544
 11
-92.5356
 21
-95.844
  0
LINE
  8
0
 10
-92.5356
 20
-95.844
 11
-91.5418
 21
-96.5661
  0
LINE
  8
0
 10
-91.5418
 20
-96.5661
 11
-90.5
 21
-97.217
  0
LINE
  8
0
 10
-90.5
 20
-97.217
 11
-89.4153
 21
-97.7938
  0
LINE
  8
0
 10
-89.4153
 20
-97.7938
 11
-88.2931
 21
-98.2934
  0
LINE
  8
0
 10
-88.2931
 20
-98.2934
 11
-87.1387
 21
-98.7136
  0
LINE
  8
0
 10
-87.1387
 20
-98.7136
 11
-85.9578
 21
-99.0522
  0
LINE
  8
0
 10
-85.9578
 20
-99.0522
 11
-84.7562
 21
-99.3076
  0
LINE
  8
0
 10
-84.7562
 20
-99.3076
 11
-83.5397
 21
-99.4786
  0
LINE
  8
0
 10
-83.5397
 20
-99.4786
 11
-82.3142
 21
-99.5643
  0
LINE
  8
0
 10
-82.3142
 20
-99.5643
 11
82.3142
 21
-99.5643
  0
LINE
  8
0
 10
82.3142
 20
-99.5643
 11
83.5397
 21
-99.4786
  0
LINE
  8
0
 10
-0.137848
 20
175.452
 11
-0.412872
 21
175.472
  0
LINE
  8
0
 10
-0.412872
 20
175.472
 11
-0.685898
 21
175.51
  0
LINE
  8
0
 10
-0.685898
 20
175.51
 11
-0.955582
 21
175.567
  0
LINE
  8
0
 10
-0.955582
 20
175.567
 11
-1.22061
 21
175.643
  0
LINE
  8
0
 10
-1.22061
 20
175.643
 11
-1.47969
 21
175.738
  0
LINE
  8
0
 10
-1.47969
 20
175.738
 11
-1.73155
 21
175.85
  0
LINE
  8
0
 10
-1.73155
 20
175.85
 11
-1.97499
 21
175.979
  0
LINE
  8
0
 10
-1.97499
 20
175.979
 11
-2.2088
 21
176.125
  0
LINE
  8
0
 10
-2.2088
 20
176.125
 11
-2.43185
 21
176.287
  0
LINE
  8
0
 10
-2.43185
 20
176.287
 11
-2.64305
 21
176.465
  0
LINE
  8
0
 10
-2.64305
 20
176.465
 11
-2.84138
 21
176.656
  0
LINE
  8
0
 10
-2.84138
 20
176.656
 11
-3.02586
 21
176.861
  0
LINE
  8
0
 10
-3.02586
 20
176.861
 11
-3.1956
 21
177.078
  0
LINE
  8
0
 10
-3.1956
 20
177.078
 11
-3.34978
 21
177.307
  0
LINE
  8
0
 10
-3.34978
 20
177.307
 11
-3.48764
 21
177.546
  0
LINE
  8
0
 10
-3.48764
 20
177.546
 11
-3.60849
 21
177.793
  0
LINE
  8
0
 10
-3.60849
 20
177.793
 11
-3.71178
 21
178.049
  0
LINE
  8
0
 10
-3.71178
 20
178.049
 11
-3.79698
 21
178.311
  0
LINE
  8
0
 10
-3.79698
 20
178.311
 11
-3.86368
 21
178.579
  0
LINE
  8
0
 10
-3.86368
 20
178.579
 11
-3.91154
 21
178.85
  0
LINE
  8
0
 10
-3.91154
 20
178.85
 11
-3.94037
 21
179.124
  0
LINE
  8
0
 10
-3.94037
 20
179.124
 11
-3.95
 21
179.4
  0
LINE
  8
0
 10
-3.95
 20
179.4
 11
-3.94037
 21
179.676
  0
LINE
  8
0
 10
-3.94037
 20
179.676
 11
-3.91154
 21
179.95
  0
LINE
  8
0
 10
-3.91154
 20
179.95
 11
-3.86368
 21
180.221
  0
LINE
  8
0
 10
-3.86368
 20
180.221
 11
-3.79698
 21
180.489
  0
LINE
  8
0
 10
-3.79698
 20
180.489
 11
-3.71178
 21
180.751
  0
LINE
  8
0
 10
-3.71178
 20
180.751
 11
-3.60849
 21
181.007
  0
LINE
  8
0
 10
-3.60849
 20
181.007
 11
-3.48764
 21
181.254
  0
LINE
  8
0
 10
-3.48764
 20
181.254
 11
-3.34978
 21
181.493
  0
LINE
  8
0
 10
-3.34978
 20
181.493
 11
-3.1956
 21
181.722
  0
LINE
  8
0
 10
-3.1956
 20
181.722
 11
-3.02586
 21
181.939
  0
LINE
  8
0
 10
-3.02586
 20
181.939
 11
-2.84138
 21
182.144
  0
LINE
  8
0
 10
-2.84138
 20
182.144
 11
-2.64305
 21
182.335
  0
LINE
  8
0
 10
-2.64305
 20
182.335
 11
-2.43185
 21
182.513
  0
LINE
  8
0
 10
-2.43185
 20
182.513
 11
-2.2088
 21
182.675
  0
LINE
  8
0
 10
-2.2088
 20
182.675
 11
-1.97499
 21
182.821
  0
LINE
  8
0
 10
-1.97499
 20
182.821
 11
-1.73155
 21
182.95
  0
LINE
  8
0
 10
-1.73155
 20
182.95
 11
-1.47969
 21
183.062
  0
LINE
  8
0
 10
-1.47969
 20
183.062
 11
-1.22061
 21
183.157
  0
LINE
  8
0
 10
-1.22061
 20
183.157
 11
-0.955582
 21
183.233
  0
LINE
  8
0
 10
-0.955582
 20
183.233
 11
-0.685898
 21
183.29
  0
LINE
  8
0
 10
-0.685898
 20
183.29
 11
-0.412872
 21
183.328
  0
LINE
  8
0
 10
-0.412872
 20
183.328
 11
-0.137848
 21
183.348
  0
LINE
  8
0
 10
-0.137848
 20
183.348
 11
0.137848
 21
183.348
  0
LINE
  8
0
 10
0.137848
 20
183.348
 11
0.412872
 21
183.328
  0
LINE
  8
0
 10
0.412872
 20
183.328
 11
0.685898
 21
183.29
  0
LINE
  8
0
 10
0.685898
 20
183.29
 11
0.955582
 21
183.233
  0
LINE
  8
0
 10
0.955582
 20
183.233
 11
1.22061
 21
183.157
  0
LINE
  8
0
 10
1.22061
 20
183.157
 11
1.47969
 21
183.062
  0
LINE
  8
0
 10
1.47969
 20
183.062
 11
1.73155
 21
182.95
  0
LINE
  8
0
 10
1.73155
 20
182.95
 11
1.97499
 21
182.821
  0
LINE
  8
0
 10
1.97499
 20
182.821
 11
2.2088
 21
182.675
  0
LINE
  8
0
 10
2.2088
 20
182.675
 11
2.43185
 21
182.513
  0
LINE
  8
0
 10
2.43185
 20
182.513
 11
2.64305
 21
182.335
  0
LINE
  8
0
 10
2.64305
 20
182.335
 11
2.84138
 21
182.144
  0
LINE
  8
0
 10
2.84138
 20
182.144
 11
3.02586
 21
181.939
  0
LINE
  8
0
 10
3.02586
 20
181.939
 11
3.1956
 21
181.722
  0
LINE
  8
0
 10
3.1956
 20
181.722
 11
3.34978
 21
181.493
  0
LINE
  8
0
 10
3.34978
 20
181.493
 11
3.48764
 21
181.254
  0
LINE
  8
0
 10
3.48764
 20
181.254
 11
3.60849
 21
181.007
  0
LINE
  8
0
 10
3.60849
 20
181.007
 11
3.71178
 21
180.751
  0
LINE
  8
0
 10
3.71178
 20
180.751
 11
3.79698
 21
180.489
  0
LINE
  8
0
 10
3.79698
 20
180.489
 11
3.86368
 21
180.221
  0
LINE
  8
0
 10
3.86368
 20
180.221
 11
3.91154
 21
179.95
  0
LINE
  8
0
 10
3.91154
 20
179.95
 11
3.94037
 21
179.676
  0
LINE
  8
0
 10
3.94037
 20
179.676
 11
3.95
 21
179.4
  0
LINE
  8
0
 10
3.95
 20
179.4
 11
3.94037
 21
179.124
  0
LINE
  8
0
 10
3.94037
 20
179.124
 11
3.91154
 21
178.85
  0
LINE
  8
0
 10
3.91154
 20
178.85
 11
3.86368
 21
178.579
  0
LINE
  8
0
 10
3.86368
 20
178.579
 11
3.79698
 21
178.311
  0
LINE
  8
0
 10
3.79698
 20
178.311
 11
3.71178
 21
178.049
  0
LINE
  8
0
 10
3.71178
 20
178.049
 11
3.60849
 21
177.793
  0
LINE
  8
0
 10
3.60849
 20
177.793
 11
3.48764
 21
177.546
  0
LINE
  8
0
 10
3.48764
 20
177.546
 11
3.34978
 21
177.307
  0
LINE
  8
0
 10
3.34978
 20
177.307
 11
3.1956
 21
177.078
  0
LINE
  8
0
 10
3.1956
 20
177.078
 11
3.02586
 21
176.861
  0
LINE
  8
0
 10
3.02586
 20
176.861
 11
2.84138
 21
176.656
  0
LINE
  8
0
 10
2.84138
 20
176.656
 11
2.64305
 21
176.465
  0
LINE
  8
0
 10
2.64305
 20
176.465
 11
2.43185
 21
176.287
  0
LINE
  8
0
 10
2.43185
 20
176.287
 11
2.2088
 21
176.125
  0
LINE
  8
0
 10
2.2088
 20
176.125
 11
1.97499
 21
175.979
  0
LINE
  8
0
 10
1.97499
 20
175.979
 11
1.73155
 21
175.85
  0
LINE
  8
0
 10
1.73155
 20
175.85
 11
1.47969
 21
175.738
  0
LINE
  8
0
 10
1.47969
 20
175.738
 11
1.22061
 21
175.643
  0
LINE
  8
0
 10
1.22061
 20
175.643
 11
0.955582
 21
175.567
  0
LINE
  8
0
 10
0.955582
 20
175.567
 11
0.685898
 21
175.51
  0
LINE
  8
0
 10
0.685898
 20
175.51
 11
0.412872
 21
175.472
  0
LINE
  8
0
 10
0.412872
 20
175.472
 11
0.137848
 21
175.452
  0
LINE
  8
0
 10
0.137848
 20
175.452
 11
-0.137848
 21
175.452
  0
LINE
  8
0
 10
-0.715439
 20
87.0375
 11
-1.42999
 21
87.0749
  0
LINE
  8
0
 10
-1.42999
 20
87.0749
 11
-2.14282
 21
87.1373
  0
LINE
  8
0
 10
-2.14282
 20
87.1373
 11
-2.85304
 21
87.2245
  0
LINE
  8
0
 10
-2.85304
 20
87.2245
 11
-3.55978
 21
87.3364
  0
LINE
  8
0
 10
-3.55978
 20
87.3364
 11
-4.26218
 21
87.473
  0
LINE
  8
0
 10
-4.26218
 20
87.473
 11
-4.9594
 21
87.6339
  0
LINE
  8
0
 10
-4.9594
 20
87.6339
 11
-5.65056
 21
87.8191
  0
LINE
  8
0
 10
-5.65056
 20
87.8191
 11
-6.33484
 21
88.0283
  0
LINE
  8
0
 10
-6.33484
 20
88.0283
 11
-7.0114
 21
88.2613
  0
LINE
  8
0
 10
-7.0114
 20
88.2613
 11
-7.67943
 21
88.5177
  0
LINE
  8
0
 10
-7.67943
 20
88.5177
 11
-8.33809
 21
88.7973
  0
LINE
  8
0
 10
-8.33809
 20
88.7973
 11
-8.9866
 21
89.0997
  0
LINE
  8
0
 10
-8.9866
 20
89.0997
 11
-9.62416
 21
89.4246
  0
LINE
  8
0
 10
-9.62416
 20
89.4246
 11
-10.25
 21
89.7715
  0
LINE
  8
0
 10
-10.25
 20
89.7715
 11
-10.8633
 21
90.14
  0
LINE
  8
0
 10
-10.8633
 20
90.14
 11
-11.4634
 21
90.5297
  0
LINE
  8
0
 10
-11.4634
 20
90.5297
 11
-12.0496
 21
90.9402
  0
LINE
  8
0
 10
-12.0496
 20
90.9402
 11
-12.621
 21
91.3708
  0
LINE
  8
0
 10
-12.621
 20
91.3708
 11
-13.1771
 21
91.8211
  0
LINE
  8
0
 10
-13.1771
 20
91.8211
 11
-13.7172
 21
92.2905
  0
LINE
  8
0
 10
-13.7172
 20
92.2905
 11
-14.2405
 21
92.7785
  0
LINE
  8
0
 10
-14.2405
 20
92.7785
 11
-14.7465
 21
93.2845
  0
LINE
  8
0
 10
-14.7465
 20
93.2845
 11
-15.2345
 21
93.8078
  0
LINE
  8
0
 10
-15.2345
 20
93.8078
 11
-15.7039
 21
94.3479
  0
LINE
  8
0
 10
-15.7039
 20
94.3479
 11
-16.1542
 21
94.9039
  0
LINE
  8
0
 10
-16.1542
 20
94.9039
 11
-16.5848
 21
95.4754
  0
LINE
  8
0
 10
-16.5848
 20
95.4754
 11
-16.9953
 21
96.0615
  0
LINE
  8
0
 10
-16.9953
 20
96.0615
 11
-17.385
 21
96.6617
  0
LINE
  8
0
 10
-17.385
 20
96.6617
 11
-17.7535
 21
97.275
  0
LINE
  8
0
 10
-17.7535
 20
97.275
 11
-18.1004
 21
97.9008
  0
LINE
  8
0
 10
-18.1004
 20
97.9008
 11
-18.4253
 21
98.5384
  0
LINE
  8
0
 10
-18.4253
 20
98.5384
 11
-18.7277
 21
99.1869
  0
LINE
  8
0
 10
-18.7277
 20
99.1869
 11
-19.0073
 21
99.8456
  0
LINE
  8
0
 10
-19.0073
 20
99.8456
 11
-19.2637
 21
100.514
  0
LINE
  8
0
 10
-19.2637
 20
100.514
 11
-19.4967
 21
101.19
  0
LINE
  8
0
 10
-19.4967
 20
101.19
 11
-19.7059
 21
101.874
  0
LINE
  8
0
 10
-19.7059
 20
101.874
 11
-19.8911
 21
102.566
  0
LINE
  8
0
 10
-19.8911
 20
102.566
 11
-20.052
 21
103.263
  0
LINE
  8
0
 10
-20.052
 20
103.263
 11
-20.1886
 21
103.965
  0
LINE
  8
0
 10
-20.1886
 20
103.965
 11
-20.3005
 21
104.672
  0
LINE
  8
0
 10
-20.3005
 20
104.672
 11
-20.3877
 21
105.382
  0
LINE
  8
0
 10
-20.3877
 20
105.382
 11
-20.4501
 21
106.095
  0
LINE
  8
0
 10
-20.4501
 20
106.095
 11
-20.4875
 21
106.81
  0
LINE
  8
0
 10
-20.4875
 20
106.81
 11
-20.5
 21
107.525
  0
LINE
  8
0
 10
-20.5
 20
107.525
 11
-20.4875
 21
108.24
  0
LINE
  8
0
 10
-20.4875
 20
108.24
 11
-20.4501
 21
108.955
  0
LINE
  8
0
 10
-20.4501
 20
108.955
 11
-20.3877
 21
109.668
  0
LINE
  8
0
 10
-20.3877
 20
109.668
 11
-20.3005
 21
110.378
  0
LINE
  8
0
 10
-20.3005
 20
110.378
 11
-20.1886
 21
111.085
  0
LINE
  8
0
 10
-20.1886
 20
111.085
 11
-20.052
 21
111.787
  0
LINE
  8
0
 10
-20.052
 20
111.787
 11
-19.8911
 21
112.484
  0
LINE
  8
0
 10
-19.8911
 20
112.484
 11
-19.7059
 21
113.176
  0
LINE
  8
0
 10
-19.7059
 20
113.176
 11
-19.4967
 21
113.86
  0
LINE
  8
0
 10
-19.4967
 20
113.86
 11
-19.2637
 21
114.536
  0
LINE
  8
0
 10
-19.2637
 20
114.536
 11
-19.0073
 21
115.204
  0
LINE
  8
0
 10
-19.0073
 20
115.204
 11
-18.7277
 21
115.863
  0
LINE
  8
0
 10
-18.7277
 20
115.863
 11
-18.4253
 21
116.512
  0
LINE
  8
0
 10
-18.4253
 20
116.512
 11
-18.1004
 21
117.149
  0
LINE
  8
0
 10
-18.1004
 20
117.149
 11
-17.7535
 21
117.775
  0
LINE
  8
0
 10
-17.7535
 20
117.775
 11
-17.385
 21
118.388
  0
LINE
  8
0
 10
-17.385
 20
118.388
 11
-16.9953
 21
118.988
  0
LINE
  8
0
 10
-16.9953
 20
118.988
 11
-16.5848
 21
119.575
  0
LINE
  8
0
 10
-16.5848
 20
119.575
 11
-16.1542
 21
120.146
  0
LINE
  8
0
 10
-16.1542
 20
120.146
 11
-15.7039
 21
120.702
  0
LINE
  8
0
 10
-15.7039
 20
120.702
 11
-15.2345
 21
121.242
  0
LINE
  8
0
 10
-15.2345
 20
121.242
 11
-14.7465
 21
121.765
  0
LINE
  8
0
 10
-14.7465
 20
121.765
 11
-14.2405
 21
122.271
  0
LINE
  8
0
 10
-14.2405
 20
122.271
 11
-13.7172
 21
122.759
  0
LINE
  8
0
 10
-13.7172
 20
122.759
 11
-13.1771
 21
123.229
  0
LINE
  8
0
 10
-13.1771
 20
123.229
 11
-12.621
 21
123.679
  0
LINE
  8
0
 10
-12.621
 20
123.679
 11
-12.0496
 21
124.11
  0
LINE
  8
0
 10
-12.0496
 20
124.11
 11
-11.4634
 21
124.52
  0
LINE
  8
0
 10
-11.4634
 20
124.52
 11
-10.8633
 21
124.91
  0
LINE
  8
0
 10
-10.8633
 20
124.91
 11
-10.25
 21
125.279
  0
LINE
  8
0
 10
-10.25
 20
125.279
 11
-9.62416
 21
125.625
  0
LINE
  8
0
 10
-9.62416
 20
125.625
 11
-8.9866
 21
125.95
  0
LINE
  8
0
 10
-8.9866
 20
125.95
 11
-8.33809
 21
126.253
  0
LINE
  8
0
 10
-8.33809
 20
126.253
 11
-7.67943
 21
126.532
  0
LINE
  8
0
 10
-7.67943
 20
126.532
 11
-7.0114
 21
126.789
  0
LINE
  8
0
 10
-7.0114
 20
126.789
 11
-6.33484
 21
127.022
  0
LINE
  8
0
 10
-6.33484
 20
127.022
 11
-5.65056
 21
127.231
  0
LINE
  8
0
 10
-5.65056
 20
127.231
 11
-4.9594
 21
127.416
  0
LINE
  8
0
 10
-4.9594
 20
127.416
 11
-4.26218
 21
127.577
  0
LINE
  8
0
 10
-4.26218
 20
127.577
 11
-3.55978
 21
127.714
  0
LINE
  8
0
 10
-3.55978
 20
127.714
 11
-2.85304
 21
127.825
  0
LINE
  8
0
 10
-2.85304
 20
127.825
 11
-2.14282
 21
127.913
  0
LINE
  8
0
 10
-2.14282
 20
127.913
 11
-1.42999
 21
127.975
  0
LINE
  8
0
 10
-1.42999
 20
127.975
 11
-0.715439
 21
128.013
  0
LINE
  8
0
 10
-0.715439
 20
128.013
 11
0
 21
128.025
  0
LINE
  8
0
 10
0
 20
128.025
 11
0.715439
 21
128.013
  0
LINE
  8
0
 10
0.715439
 20
128.013
 11
1.42999
 21
127.975
  0
LINE
  8
0
 10
1.42999
 20
127.975
 11
2.14282
 21
127.913
  0
LINE
  8
0
 10
2.14282
 20
127.913
 11
2.85304
 21
127.825
  0
LINE
  8
0
 10
2.85304
 20
127.825
 11
3.55978
 21
127.714
  0
LINE
  8
0
 10
3.55978
 20
127.714
 11
4.26218
 21
127.577
  0
LINE
  8
0
 10
4.26218
 20
127.577
 11
4.9594
 21
127.416
  0
LINE
  8
0
 10
4.9594
 20
127.416
 11
5.65056
 21
127.231
  0
LINE
  8
0
 10
5.65056
 20
127.231
 11
6.33484
 21
127.022
  0
LINE
  8
0
 10
6.33484
 20
127.022
 11
7.0114
 21
126.789
  0
LINE
  8
0
 10
7.0114
 20
126.789
 11
7.67943
 21
126.532
  0
LINE
  8
0
 10
7.67943
 20
126.532
 11
8.33809
 21
126.253
  0
LINE
  8
0
 10
8.33809
 20
126.253
 11
8.9866
 21
125.95
  0
LINE
  8
0
 10
8.9866
 20
125.95
 11
9.62416
 21
125.625
  0
LINE
  8
0
 10
9.62416
 20
125.625
 11
10.25
 21
125.279
  0
LINE
  8
0
 10
10.25
 20
125.279
 11
10.8633
 21
124.91
  0
LINE
  8
0
 10
10.8633
 20
124.91
 11
11.4634
 21
124.52
  0
LINE
  8
0
 10
11.4634
 20
124.52
 11
12.0496
 21
124.11
  0
LINE
  8
0
 10
12.0496
 20
124.11
 11
12.621
 21
123.679
  0
LINE
  8
0
 10
12.621
 20
123.679
 11
13.1771
 21
123.229
  0
LINE
  8
0
 10
13.1771
 20
123.229
 11
13.7172
 21
122.759
  0
LINE
  8
0
 10
13.7172
 20
122.759
 11
14.2405
 21
122.271
  0
LINE
  8
0
 10
14.2405
 20
122.271
 11
14.7465
 21
121.765
  0
LINE
  8
0
 10
14.7465
 20
121.765
 11
15.2345
 21
121.242
  0
LINE
  8
0
 10
15.2345
 20
121.242
 11
15.7039
 21
120.702
  0
LINE
  8
0
 10
15.7039
 20
120.702
 11
16.1542
 21
120.146
  0
LINE
  8
0
 10
16.1542
 20
120.146
 11
16.5848
 21
119.575
  0
LINE
  8
0
 10
16.5848
 20
119.575
 11
16.9953
 21
118.988
  0
LINE
  8
0
 10
16.9953
 20
118.988
 11
17.385
 21
118.388
  0
LINE
  8
0
 10
17.385
 20
118.388
 11
17.7535
 21
117.775
  0
LINE
  8
0
 10
17.7535
 20
117.775
 11
18.1004
 21
117.149
  0
LINE
  8
0
 10
18.1004
 20
117.149
 11
18.4253
 21
116.512
  0
LINE
  8
0
 10
18.4253
 20
116.512
 11
18.7277
 21
115.863
  0
LINE
  8
0
 10
18.7277
 20
115.863
 11
19.0073
 21
115.204
  0
LINE
  8
0
 10
19.0073
 20
115.204
 11
19.2637
 21
114.536
  0
LINE
  8
0
 10
19.2637
 20
114.536
 11
19.4967
 21
113.86
  0
LINE
  8
0
 10
19.4967
 20
113.86
 11
19.7059
 21
113.176
  0
LINE
  8
0
 10
19.7059
 20
113.176
 11
19.8911
 21
112.484
  0
LINE
  8
0
 10
19.8911
 20
112.484
 11
20.052
 21
111.787
  0
LINE
  8
0
 10
20.052
 20
111.787
 11
20.1886
 21
111.085
  0
LINE
  8
0
 10
20.1886
 20
111.085
 11
20.3005
 21
110.378
  0
LINE
  8
0
 10
20.3005
 20
110.378
 11
20.3877
 21
109.668
  0
LINE
  8
0
 10
20.3877
 20
109.668
 11
20.4501
 21
108.955
  0
LINE
  8
0
 10
20.4501
 20
108.955
 11
20.4875
 21
108.24
  0
LINE
  8
0
 10
20.4875
 20
108.24
 11
20.5
 21
107.525
  0
LINE
  8
0
 10
20.5
 20
107.525
 11
20.4875
 21
106.81
  0
LINE
  8
0
 10
20.4875
 20
106.81
 11
20.4501
 21
106.095
  0
LINE
  8
0
 10
20.4501
 20
106.095
 11
20.3877
 21
105.382
  0
LINE
  8
0
 10
20.3877
 20
105.382
 11
20.3005
 21
104.672
  0
LINE
  8
0
 10
20.3005
 20
104.672
 11
20.1886
 21
103.965
  0
LINE
  8
0
 10
20.1886
 20
103.965
 11
20.052
 21
103.263
  0
LINE
  8
0
 10
20.052
 20
103.263
 11
19.8911
 21
102.566
  0
LINE
  8
0
 10
19.8911
 20
102.566
 11
19.7059
 21
101.874
  0
LINE
  8
0
 10
19.7059
 20
101.874
 11
19.4967
 21
101.19
  0
LINE
  8
0
 10
19.4967
 20
101.19
 11
19.2637
 21
100.514
  0
LINE
  8
0
 10
19.2637
 20
100.514
 11
19.0073
 21
99.8456
  0
LINE
  8
0
 10
19.0073
 20
99.8456
 11
18.7277
 21
99.1869
  0
LINE
  8
0
 10
18.7277
 20
99.1869
 11
18.4253
 21
98.5384
  0
LINE
  8
0
 10
18.4253
 20
98.5384
 11
18.1004
 21
97.9008
  0
LINE
  8
0
 10
18.1004
 20
97.9008
 11
17.7535
 21
97.275
  0
LINE
  8
0
 10
17.7535
 20
97.275
 11
17.385
 21
96.6617
  0
LINE
  8
0
 10
17.385
 20
96.6617
 11
16.9953
 21
96.0615
  0
LINE
  8
0
 10
16.9953
 20
96.0615
 11
16.5848
 21
95.4754
  0
LINE
  8
0
 10
16.5848
 20
95.4754
 11
16.1542
 21
94.9039
  0
LINE
  8
0
 10
16.1542
 20
94.9039
 11
15.7039
 21
94.3479
  0
LINE
  8
0
 10
15.7039
 20
94.3479
 11
15.2345
 21
93.8078
  0
LINE
  8
0
 10
15.2345
 20
93.8078
 11
14.7465
 21
93.2845
  0
LINE
  8
0
 10
14.7465
 20
93.2845
 11
14.2405
 21
92.7785
  0
LINE
  8
0
 10
14.2405
 20
92.7785
 11
13.7172
 21
92.2905
  0
LINE
  8
0
 10
13.7172
 20
92.2905
 11
13.1771
 21
91.8211
  0
LINE
  8
0
 10
13.1771
 20
91.8211
 11
12.621
 21
91.3708
  0
LINE
  8
0
 10
12.621
 20
91.3708
 11
12.0496
 21
90.9402
  0
LINE
  8
0
 10
12.0496
 20
90.9402
 11
11.4634
 21
90.5297
  0
LINE
  8
0
 10
11.4634
 20
90.5297
 11
10.8633
 21
90.14
  0
LINE
  8
0
 10
10.8633
 20
90.14
 11
10.25
 21
89.7715
  0
LINE
  8
0
 10
10.25
 20
89.7715
 11
9.62416
 21
89.4246
  0
LINE
  8
0
 10
9.62416
 20
89.4246
 11
8.9866
 21
89.0997
  0
LINE
  8
0
 10
8.9866
 20
89.0997
 11
8.33809
 21
88.7973
  0
LINE
  8
0
 10
8.33809
 20
88.7973
 11
7.67943
 21
88.5177
  0
LINE
  8
0
 10
7.67943
 20
88.5177
 11
7.0114
 21
88.2613
  0
LINE
  8
0
 10
7.0114
 20
88.2613
 11
6.33484
 21
88.0283
  0
LINE
  8
0
 10
6.33484
 20
88.0283
 11
5.65056
 21
87.8191
  0
LINE
  8
0
 10
5.65056
 20
87.8191
 11
4.9594
 21
87.6339
  0
LINE
  8
0
 10
4.9594
 20
87.6339
 11
4.26218
 21
87.473
  0
LINE
  8
0
 10
4.26218
 20
87.473
 11
3.55978
 21
87.3364
  0
LINE
  8
0
 10
3.55978
 20
87.3364
 11
2.85304
 21
87.2245
  0
LINE
  8
0
 10
2.85304
 20
87.2245
 11
2.14282
 21
87.1373
  0
LINE
  8
0
 10
2.14282
 20
87.1373
 11
1.42999
 21
87.0749
  0
LINE
  8
0
 10
1.42999
 20
87.0749
 11
0.715439
 21
87.0375
  0
LINE
  8
0
 10
0.715439
 20
87.0375
 11
0
 21
87.025
  0
LINE
  8
0
 10
0
 20
87.025
 11
-0.715439
 21
87.0375
  0
LINE
  8
0
 10
4.73106
 20
68.3512
 11
4.59355
 21
68.3608
  0
LINE
  8
0
 10
4.59355
 20
68.3608
 11
4.45703
 21
68.38
  0
LINE
  8
0
 10
4.45703
 20
68.38
 11
4.32219
 21
68.4087
  0
LINE
  8
0
 10
4.32219
 20
68.4087
 11
4.18968
 21
68.4467
  0
LINE
  8
0
 10
4.18968
 20
68.4467
 11
4.06015
 21
68.4938
  0
LINE
  8
0
 10
4.06015
 20
68.4938
 11
3.9342
 21
68.5499
  0
LINE
  8
0
 10
3.9342
 20
68.5499
 11
3.8125
 21
68.6146
  0
LINE
  8
0
 10
3.8125
 20
68.6146
 11
3.69559
 21
68.6877
  0
LINE
  8
0
 10
3.69559
 20
68.6877
 11
3.58406
 21
68.7687
  0
LINE
  8
0
 10
3.58406
 20
68.7687
 11
3.47845
 21
68.8573
  0
LINE
  8
0
 10
3.47845
 20
68.8573
 11
3.3793
 21
68.953
  0
LINE
  8
0
 10
3.3793
 20
68.953
 11
3.28705
 21
69.0555
  0
LINE
  8
0
 10
3.28705
 20
69.0555
 11
3.20218
 21
69.1641
  0
LINE
  8
0
 10
3.20218
 20
69.1641
 11
3.12509
 21
69.2784
  0
LINE
  8
0
 10
3.12509
 20
69.2784
 11
3.05617
 21
69.3978
  0
LINE
  8
0
 10
3.05617
 20
69.3978
 11
2.99574
 21
69.5217
  0
LINE
  8
0
 10
2.99574
 20
69.5217
 11
2.94411
 21
69.6495
  0
LINE
  8
0
 10
2.94411
 20
69.6495
 11
2.9015
 21
69.7806
  0
LINE
  8
0
 10
2.9015
 20
69.7806
 11
2.86815
 21
69.9144
  0
LINE
  8
0
 10
2.86815
 20
69.9144
 11
2.84421
 21
70.0501
  0
LINE
  8
0
 10
2.84421
 20
70.0501
 11
2.8298
 21
70.1872
  0
LINE
  8
0
 10
2.8298
 20
70.1872
 11
2.825
 21
70.325
  0
LINE
  8
0
 10
2.825
 20
70.325
 11
2.8298
 21
70.4628
  0
LINE
  8
0
 10
2.8298
 20
70.4628
 11
2.84421
 21
70.5999
  0
LINE
  8
0
 10
2.84421
 20
70.5999
 11
2.86815
 21
70.7356
  0
LINE
  8
0
 10
2.86815
 20
70.7356
 11
2.9015
 21
70.8694
  0
LINE
  8
0
 10
2.9015
 20
70.8694
 11
2.94411
 21
71.0005
  0
LINE
  8
0
 10
2.94411
 20
71.0005
 11
2.99574
 21
71.1283
  0
LINE
  8
0
 10
2.99574
 20
71.1283
 11
3.05617
 21
71.2522
  0
LINE
  8
0
 10
3.05617
 20
71.2522
 11
3.12509
 21
71.3716
  0
LINE
  8
0
 10
3.12509
 20
71.3716
 11
3.20218
 21
71.4859
  0
LINE
  8
0
 10
3.20218
 20
71.4859
 11
3.28705
 21
71.5945
  0
LINE
  8
0
 10
3.28705
 20
71.5945
 11
3.3793
 21
71.6969
  0
LINE
  8
0
 10
3.3793
 20
71.6969
 11
3.47845
 21
71.7927
  0
LINE
  8
0
 10
3.47845
 20
71.7927
 11
3.58406
 21
71.8813
  0
LINE
  8
0
 10
3.58406
 20
71.8813
 11
3.69559
 21
71.9623
  0
LINE
  8
0
 10
3.69559
 20
71.9623
 11
3.8125
 21
72.0354
  0
LINE
  8
0
 10
3.8125
 20
72.0354
 11
3.9342
 21
72.1001
  0
LINE
  8
0
 10
3.9342
 20
72.1001
 11
4.06015
 21
72.1562
  0
LINE
  8
0
 10
4.06015
 20
72.1562
 11
4.18968
 21
72.2033
  0
LINE
  8
0
 10
4.18968
 20
72.2033
 11
4.32219
 21
72.2413
  0
LINE
  8
0
 10
4.32219
 20
72.2413
 11
4.45703
 21
72.27
  0
LINE
  8
0
 10
4.45703
 20
72.27
 11
4.59355
 21
72.2892
  0
LINE
  8
0
 10
4.59355
 20
72.2892
 11
4.73106
 21
72.2988
  0
LINE
  8
0
 10
4.73106
 20
72.2988
 11
4.86891
 21
72.2988
  0
LINE
  8
0
 10
4.86891
 20
72.2988
 11
5.00644
 21
72.2892
  0
LINE
  8
0
 10
5.00644
 20
72.2892
 11
5.14294
 21
72.27
  0
LINE
  8
0
 10
5.14294
 20
72.27
 11
5.27779
 21
72.2413
  0
LINE
  8
0
 10
5.27779
 20
72.2413
 11
5.41029
 21
72.2033
  0
LINE
  8
0
 10
5.41029
 20
72.2033
 11
5.53984
 21
72.1562
  0
LINE
  8
0
 10
5.53984
 20
72.1562
 11
5.66577
 21
72.1001
  0
LINE
  8
0
 10
5.66577
 20
72.1001
 11
5.78749
 21
72.0354
  0
LINE
  8
0
 10
5.78749
 20
72.0354
 11
5.9044
 21
71.9623
  0
LINE
  8
0
 10
5.9044
 20
71.9623
 11
6.01593
 21
71.8813
  0
LINE
  8
0
 10
6.01593
 20
71.8813
 11
6.12152
 21
71.7927
  0
LINE
  8
0
 10
6.12152
 20
71.7927
 11
6.22069
 21
71.6969
  0
LINE
  8
0
 10
6.22069
 20
71.6969
 11
6.31293
 21
71.5945
  0
LINE
  8
0
 10
6.31293
 20
71.5945
 11
6.3978
 21
71.4859
  0
LINE
  8
0
 10
6.3978
 20
71.4859
 11
6.47488
 21
71.3716
  0
LINE
  8
0
 10
6.47488
 20
71.3716
 11
6.54381
 21
71.2522
  0
LINE
  8
0
 10
6.54381
 20
71.2522
 11
6.60425
 21
71.1283
  0
LINE
  8
0
 10
6.60425
 20
71.1283
 11
6.65588
 21
71.0005
  0
LINE
  8
0
 10
6.65588
 20
71.0005
 11
6.69849
 21
70.8694
  0
LINE
  8
0
 10
6.69849
 20
70.8694
 11
6.73183
 21
70.7356
  0
LINE
  8
0
 10
6.73183
 20
70.7356
 11
6.75577
 21
70.5999
  0
LINE
  8
0
 10
6.75577
 20
70.5999
 11
6.77019
 21
70.4628
  0
LINE
  8
0
 10
6.77019
 20
70.4628
 11
6.77499
 21
70.325
  0
LINE
  8
0
 10
6.77499
 20
70.325
 11
6.77019
 21
70.1872
  0
LINE
  8
0
 10
6.77019
 20
70.1872
 11
6.75577
 21
70.0501
  0
LINE
  8
0
 10
6.75577
 20
70.0501
 11
6.73183
 21
69.9144
  0
LINE
  8
0
 10
6.73183
 20
69.9144
 11
6.69849
 21
69.7806
  0
LINE
  8
0
 10
6.69849
 20
69.7806
 11
6.65588
 21
69.6495
  0
LINE
  8
0
 10
6.65588
 20
69.6495
 11
6.60425
 21
69.5217
  0
LINE
  8
0
 10
6.60425
 20
69.5217
 11
6.54381
 21
69.3978
  0
LINE
  8
0
 10
6.54381
 20
69.3978
 11
6.47488
 21
69.2784
  0
LINE
  8
0
 10
6.47488
 20
69.2784
 11
6.3978
 21
69.1641
  0
LINE
  8
0
 10
6.3978
 20
69.1641
 11
6.31293
 21
69.0555
  0
LINE
  8
0
 10
6.31293
 20
69.0555
 11
6.22069
 21
68.953
  0
LINE
  8
0
 10
6.22069
 20
68.953
 11
6.12152
 21
68.8573
  0
LINE
  8
0
 10
6.12152
 20
68.8573
 11
6.01593
 21
68.7687
  0
LINE
  8
0
 10
6.01593
 20
68.7687
 11
5.9044
 21
68.6877
  0
LINE
  8
0
 10
5.9044
 20
68.6877
 11
5.78749
 21
68.6146
  0
LINE
  8
0
 10
5.78749
 20
68.6146
 11
5.66577
 21
68.5499
  0
LINE
  8
0
 10
5.66577
 20
68.5499
 11
5.53984
 21
68.4938
  0
LINE
  8
0
 10
5.53984
 20
68.4938
 11
5.41029
 21
68.4467
  0
LINE
  8
0
 10
5.41029
 20
68.4467
 11
5.27779
 21
68.4087
  0
LINE
  8
0
 10
5.27779
 20
68.4087
 11
5.14294
 21
68.38
  0
LINE
  8
0
 10
5.14294
 20
68.38
 11
5.00644
 21
68.3608
  0
LINE
  8
0
 10
5.00644
 20
68.3608
 11
4.86891
 21
68.3512
  0
LINE
  8
0
 10
4.86891
 20
68.3512
 11
4.73106
 21
68.3512
  0
LINE
  8
0
 10
-4.86891
 20
68.3512
 11
-5.00644
 21
68.3608
  0
LINE
  8
0
 10
-5.00644
 20
68.3608
 11
-5.14294
 21
68.38
  0
LINE
  8
0
 10
-5.14294
 20
68.38
 11
-5.27779
 21
68.4087
  0
LINE
  8
0
 10
-5.27779
 20
68.4087
 11
-5.41029
 21
68.4467
  0
LINE
  8
0
 10
-5.41029
 20
68.4467
 11
-5.53984
 21
68.4938
  0
LINE
  8
0
 10
-5.53984
 20
68.4938
 11
-5.66577
 21
68.5499
  0
LINE
  8
0
 10
-5.66577
 20
68.5499
 11
-5.78749
 21
68.6146
  0
LINE
  8
0
 10
-5.78749
 20
68.6146
 11
-5.9044
 21
68.6877
  0
LINE
  8
0
 10
-5.9044
 20
68.6877
 11
-6.01593
 21
68.7687
  0
LINE
  8
0
 10
-6.01593
 20
68.7687
 11
-6.12152
 21
68.8573
  0
LINE
  8
0
 10
-6.12152
 20
68.8573
 11
-6.22069
 21
68.953
  0
LINE
  8
0
 10
-6.22069
 20
68.953
 11
-6.31293
 21
69.0555
  0
LINE
  8
0
 10
-6.31293
 20
69.0555
 11
-6.3978
 21
69.1641
  0
LINE
  8
0
 10
-6.3978
 20
69.1641
 11
-6.47488
 21
69.2784
  0
LINE
  8
0
 10
-6.47488
 20
69.2784
 11
-6.54381
 21
69.3978
  0
LINE
  8
0
 10
-6.54381
 20
69.3978
 11
-6.60425
 21
69.5217
  0
LINE
  8
0
 10
-6.60425
 20
69.5217
 11
-6.65588
 21
69.6495
  0
LINE
  8
0
 10
-6.65588
 20
69.6495
 11
-6.69849
 21
69.7806
  0
LINE
  8
0
 10
-6.69849
 20
69.7806
 11
-6.73183
 21
69.9144
  0
LINE
  8
0
 10
-6.73183
 20
69.9144
 11
-6.75577
 21
70.0501
  0
LINE
  8
0
 10
-6.75577
 20
70.0501
 11
-6.77019
 21
70.1872
  0
LINE
  8
0
 10
-6.77019
 20
70.1872
 11
-6.77499
 21
70.325
  0
LINE
  8
0
 10
-6.77499
 20
70.325
 11
-6.77019
 21
70.4628
  0
LINE
  8
0
 10
-6.77019
 20
70.4628
 11
-6.75577
 21
70.5999
  0
LINE
  8
0
 10
-6.75577
 20
70.5999
 11
-6.73183
 21
70.7356
  0
LINE
  8
0
 10
-6.73183
 20
70.7356
 11
-6.69849
 21
70.8694
  0
LINE
  8
0
 10
-6.69849
 20
70.8694
 11
-6.65588
 21
71.0005
  0
LINE
  8
0
 10
-6.65588
 20
71.0005
 11
-6.60425
 21
71.1283
  0
LINE
  8
0
 10
-6.60425
 20
71.1283
 11
-6.54381
 21
71.2522
  0
LINE
  8
0
 10
-6.54381
 20
71.2522
 11
-6.47488
 21
71.3716
  0
LINE
  8
0
 10
-6.47488
 20
71.3716
 11
-6.3978
 21
71.4859
  0
LINE
  8
0
 10
-6.3978
 20
71.4859
 11
-6.31293
 21
71.5945
  0
LINE
  8
0
 10
-6.31293
 20
71.5945
 11
-6.22069
 21
71.6969
  0
LINE
  8
0
 10
-6.22069
 20
71.6969
 11
-6.12152
 21
71.7927
  0
LINE
  8
0
 10
-6.12152
 20
71.7927
 11
-6.01593
 21
71.8813
  0
LINE
  8
0
 10
-6.01593
 20
71.8813
 11
-5.9044
 21
71.9623
  0
LINE
  8
0
 10
-5.9044
 20
71.9623
 11
-5.78749
 21
72.0354
  0
LINE
  8
0
 10
-5.78749
 20
72.0354
 11
-5.66577
 21
72.1001
  0
LINE
  8
0
 10
-5.66577
 20
72.1001
 11
-5.53984
 21
72.1562
  0
LINE
  8
0
 10
-5.53984
 20
72.1562
 11
-5.41029
 21
72.2033
  0
LINE
  8
0
 10
-5.41029
 20
72.2033
 11
-5.27779
 21
72.2413
  0
LINE
  8
0
 10
-5.27779
 20
72.2413
 11
-5.14294
 21
72.27
  0
LINE
  8
0
 10
-5.14294
 20
72.27
 11
-5.00644
 21
72.2892
  0
LINE
  8
0
 10
-5.00644
 20
72.2892
 11
-4.86891
 21
72.2988
  0
LINE
  8
0
 10
-4.86891
 20
72.2988
 11
-4.73106
 21
72.2988
  0
LINE
  8
0
 10
-4.73106
 20
72.2988
 11
-4.59355
 21
72.2892
  0
LINE
  8
0
 10
-4.59355
 20
72.2892
 11
-4.45703
 21
72.27
  0
LINE
  8
0
 10
-4.45703
 20
72.27
 11
-4.32219
 21
72.2413
  0
LINE
  8
0
 10
-4.32219
 20
72.2413
 11
-4.18968
 21
72.2033
  0
LINE
  8
0
 10
-4.18968
 20
72.2033
 11
-4.06015
 21
72.1562
  0
LINE
  8
0
 10
-4.06015
 20
72.1562
 11
-3.9342
 21
72.1001
  0
LINE
  8
0
 10
-3.9342
 20
72.1001
 11
-3.8125
 21
72.0354
  0
LINE
  8
0
 10
-3.8125
 20
72.0354
 11
-3.69559
 21
71.9623
  0
LINE
  8
0
 10
-3.69559
 20
71.9623
 11
-3.58406
 21
71.8813
  0
LINE
  8
0
 10
-3.58406
 20
71.8813
 11
-3.47845
 21
71.7927
  0
LINE
  8
0
 10
-3.47845
 20
71.7927
 11
-3.3793
 21
71.6969
  0
LINE
  8
0
 10
-3.3793
 20
71.6969
 11
-3.28705
 21
71.5945
  0
LINE
  8
0
 10
-3.28705
 20
71.5945
 11
-3.20218
 21
71.4859
  0
LINE
  8
0
 10
-3.20218
 20
71.4859
 11
-3.12509
 21
71.3716
  0
LINE
  8
0
 10
-3.12509
 20
71.3716
 11
-3.05617
 21
71.2522
  0
LINE
  8
0
 10
-3.05617
 20
71.2522
 11
-2.99574
 21
71.1283
  0
LINE
  8
0
 10
-2.99574
 20
71.1283
 11
-2.94411
 21
71.0005
  0
LINE
  8
0
 10
-2.94411
 20
71.0005
 11
-2.9015
 21
70.8694
  0
LINE
  8
0
 10
-2.9015
 20
70.8694
 11
-2.86815
 21
70.7356
  0
LINE
  8
0
 10
-2.86815
 20
70.7356
 11
-2.84421
 21
70.5999
  0
LINE
  8
0
 10
-2.84421
 20
70.5999
 11
-2.8298
 21
70.4628
  0
LINE
  8
0
 10
-2.8298
 20
70.4628
 11
-2.825
 21
70.325
  0
LINE
  8
0
 10
-2.825
 20
70.325
 11
-2.8298
 21
70.1872
  0
LINE
  8
0
 10
-2.8298
 20
70.1872
 11
-2.84421
 21
70.0501
  0
LINE
  8
0
 10
-2.84421
 20
70.0501
 11
-2.86815
 21
69.9144
  0
LINE
  8
0
 10
-2.86815
 20
69.9144
 11
-2.9015
 21
69.7806
  0
LINE
  8
0
 10
-2.9015
 20
69.7806
 11
-2.94411
 21
69.6495
  0
LINE
  8
0
 10
-2.94411
 20
69.6495
 11
-2.99574
 21
69.5217
  0
LINE
  8
0
 10
-2.99574
 20
69.5217
 11
-3.05617
 21
69.3978
  0
LINE
  8
0
 10
-3.05617
 20
69.3978
 11
-3.12509
 21
69.2784
  0
LINE
  8
0
 10
-3.12509
 20
69.2784
 11
-3.20218
 21
69.1641
  0
LINE
  8
0
 10
-3.20218
 20
69.1641
 11
-3.28705
 21
69.0555
  0
LINE
  8
0
 10
-3.28705
 20
69.0555
 11
-3.3793
 21
68.953
  0
LINE
  8
0
 10
-3.3793
 20
68.953
 11
-3.47845
 21
68.8573
  0
LINE
  8
0
 10
-3.47845
 20
68.8573
 11
-3.58406
 21
68.7687
  0
LINE
  8
0
 10
-3.58406
 20
68.7687
 11
-3.69559
 21
68.6877
  0
LINE
  8
0
 10
-3.69559
 20
68.6877
 11
-3.8125
 21
68.6146
  0
LINE
  8
0
 10
-3.8125
 20
68.6146
 11
-3.9342
 21
68.5499
  0
LINE
  8
0
 10
-3.9342
 20
68.5499
 11
-4.06015
 21
68.4938
  0
LINE
  8
0
 10
-4.06015
 20
68.4938
 11
-4.18968
 21
68.4467
  0
LINE
  8
0
 10
-4.18968
 20
68.4467
 11
-4.32219
 21
68.4087
  0
LINE
  8
0
 10
-4.32219
 20
68.4087
 11
-4.45703
 21
68.38
  0
LINE
  8
0
 10
-4.45703
 20
68.38
 11
-4.59355
 21
68.3608
  0
LINE
  8
0
 10
-4.59355
 20
68.3608
 11
-4.73106
 21
68.3512
  0
LINE
  8
0
 10
-4.73106
 20
68.3512
 11
-4.86891
 21
68.3512
  0
LINE
  8
0
 10
-7.92499
 20
49.6
 11
-7.92499
 21
65.45
  0
LINE
  8
0
 10
-7.92499
 20
65.45
 11
7.92499
 21
65.45
  0
LINE
  8
0
 10
7.92499
 20
65.45
 11
7.92499
 21
49.6
  0
LINE
  8
0
 10
7.92499
 20
49.6
 11
-7.92499
 21
49.6
  0
LINE
  8
0
 10
46.675
 20
40.385
 11
46.675
 21
43.185
  0
LINE
  8
0
 10
46.675
 20
43.185
 11
61.475
 21
43.185
  0
LINE
  8
0
 10
61.475
 20
43.185
 11
61.475
 21
40.385
  0
LINE
  8
0
 10
61.475
 20
40.385
 11
46.675
 21
40.385
  0
LINE
  8
0
 10
-7.39999
 20
40.385
 11
-7.39999
 21
43.185
  0
LINE
  8
0
 10
-7.39999
 20
43.185
 11
7.39999
 21
43.185
  0
LINE
  8
0
 10
7.39999
 20
43.185
 11
7.39999
 21
40.385
  0
LINE
  8
0
 10
7.39999
 20
40.385
 11
-7.39999
 21
40.385
  0
LINE
  8
0
 10
-61.475
 20
40.385
 11
-61.475
 21
43.185
  0
LINE
  8
0
 10
-61.475
 20
43.185
 11
-46.675
 21
43.185
  0
LINE
  8
0
 10
-46.675
 20
43.185
 11
-46.675
 21
40.385
  0
LINE
  8
0
 10
-46.675
 20
40.385
 11
-61.475
 21
40.385
  0
LINE
  8
0
 10
71.9621
 20
28.2774
 11
71.6871
 21
28.2966
  0
LINE
  8
0
 10
71.6871
 20
28.2966
 11
71.4141
 21
28.335
  0
LINE
  8
0
 10
71.4141
 20
28.335
 11
71.1444
 21
28.3923
  0
LINE
  8
0
 10
71.1444
 20
28.3923
 11
70.8794
 21
28.4683
  0
LINE
  8
0
 10
70.8794
 20
28.4683
 11
70.6203
 21
28.5626
  0
LINE
  8
0
 10
70.6203
 20
28.5626
 11
70.3684
 21
28.6748
  0
LINE
  8
0
 10
70.3684
 20
28.6748
 11
70.125
 21
28.8042
  0
LINE
  8
0
 10
70.125
 20
28.8042
 11
69.8912
 21
28.9503
  0
LINE
  8
0
 10
69.8912
 20
28.9503
 11
69.6681
 21
29.1124
  0
LINE
  8
0
 10
69.6681
 20
29.1124
 11
69.4569
 21
29.2896
  0
LINE
  8
0
 10
69.4569
 20
29.2896
 11
69.2586
 21
29.4811
  0
LINE
  8
0
 10
69.2586
 20
29.4811
 11
69.0741
 21
29.686
  0
LINE
  8
0
 10
69.0741
 20
29.686
 11
68.9044
 21
29.9032
  0
LINE
  8
0
 10
68.9044
 20
29.9032
 11
68.7502
 21
30.1318
  0
LINE
  8
0
 10
68.7502
 20
30.1318
 11
68.6124
 21
30.3706
  0
LINE
  8
0
 10
68.6124
 20
30.3706
 11
68.4915
 21
30.6184
  0
LINE
  8
0
 10
68.4915
 20
30.6184
 11
68.3882
 21
30.874
  0
LINE
  8
0
 10
68.3882
 20
30.874
 11
68.303
 21
31.1362
  0
LINE
  8
0
 10
68.303
 20
31.1362
 11
68.2363
 21
31.4037
  0
LINE
  8
0
 10
68.2363
 20
31.4037
 11
68.1884
 21
31.6753
  0
LINE
  8
0
 10
68.1884
 20
31.6753
 11
68.1596
 21
31.9494
  0
LINE
  8
0
 10
68.1596
 20
31.9494
 11
68.15
 21
32.225
  0
LINE
  8
0
 10
68.15
 20
32.225
 11
68.1596
 21
32.5005
  0
LINE
  8
0
 10
68.1596
 20
32.5005
 11
68.1884
 21
32.7747
  0
LINE
  8
0
 10
68.1884
 20
32.7747
 11
68.2363
 21
33.0462
  0
LINE
  8
0
 10
68.2363
 20
33.0462
 11
68.303
 21
33.3138
  0
LINE
  8
0
 10
68.303
 20
33.3138
 11
68.3882
 21
33.576
  0
LINE
  8
0
 10
68.3882
 20
33.576
 11
68.4915
 21
33.8316
  0
LINE
  8
0
 10
68.4915
 20
33.8316
 11
68.6124
 21
34.0794
  0
LINE
  8
0
 10
68.6124
 20
34.0794
 11
68.7502
 21
34.3182
  0
LINE
  8
0
 10
68.7502
 20
34.3182
 11
68.9044
 21
34.5468
  0
LINE
  8
0
 10
68.9044
 20
34.5468
 11
69.0741
 21
34.764
  0
LINE
  8
0
 10
69.0741
 20
34.764
 11
69.2586
 21
34.9689
  0
LINE
  8
0
 10
69.2586
 20
34.9689
 11
69.4569
 21
35.1604
  0
LINE
  8
0
 10
69.4569
 20
35.1604
 11
69.6681
 21
35.3376
  0
LINE
  8
0
 10
69.6681
 20
35.3376
 11
69.8912
 21
35.4997
  0
LINE
  8
0
 10
69.8912
 20
35.4997
 11
70.125
 21
35.6458
  0
LINE
  8
0
 10
70.125
 20
35.6458
 11
70.3684
 21
35.7752
  0
LINE
  8
0
 10
70.3684
 20
35.7752
 11
70.6203
 21
35.8874
  0
LINE
  8
0
 10
70.6203
 20
35.8874
 11
70.8794
 21
35.9817
  0
LINE
  8
0
 10
70.8794
 20
35.9817
 11
71.1444
 21
36.0577
  0
LINE
  8
0
 10
71.1444
 20
36.0577
 11
71.4141
 21
36.115
  0
LINE
  8
0
 10
71.4141
 20
36.115
 11
71.6871
 21
36.1534
  0
LINE
  8
0
 10
71.6871
 20
36.1534
 11
71.9621
 21
36.1726
  0
LINE
  8
0
 10
71.9621
 20
36.1726
 11
72.2379
 21
36.1726
  0
LINE
  8
0
 10
72.2379
 20
36.1726
 11
72.5129
 21
36.1534
  0
LINE
  8
0
 10
72.5129
 20
36.1534
 11
72.7859
 21
36.115
  0
LINE
  8
0
 10
72.7859
 20
36.115
 11
73.0556
 21
36.0577
  0
LINE
  8
0
 10
73.0556
 20
36.0577
 11
73.3206
 21
35.9817
  0
LINE
  8
0
 10
73.3206
 20
35.9817
 11
73.5797
 21
35.8874
  0
LINE
  8
0
 10
73.5797
 20
35.8874
 11
73.8316
 21
35.7752
  0
LINE
  8
0
 10
73.8316
 20
35.7752
 11
74.075
 21
35.6458
  0
LINE
  8
0
 10
74.075
 20
35.6458
 11
74.3088
 21
35.4997
  0
LINE
  8
0
 10
74.3088
 20
35.4997
 11
74.5319
 21
35.3376
  0
LINE
  8
0
 10
74.5319
 20
35.3376
 11
74.7431
 21
35.1604
  0
LINE
  8
0
 10
74.7431
 20
35.1604
 11
74.9414
 21
34.9689
  0
LINE
  8
0
 10
74.9414
 20
34.9689
 11
75.1259
 21
34.764
  0
LINE
  8
0
 10
75.1259
 20
34.764
 11
75.2956
 21
34.5468
  0
LINE
  8
0
 10
75.2956
 20
34.5468
 11
75.4498
 21
34.3182
  0
LINE
  8
0
 10
75.4498
 20
34.3182
 11
75.5876
 21
34.0794
  0
LINE
  8
0
 10
75.5876
 20
34.0794
 11
75.7085
 21
33.8316
  0
LINE
  8
0
 10
75.7085
 20
33.8316
 11
75.8118
 21
33.576
  0
LINE
  8
0
 10
75.8118
 20
33.576
 11
75.897
 21
33.3138
  0
LINE
  8
0
 10
75.897
 20
33.3138
 11
75.9637
 21
33.0462
  0
LINE
  8
0
 10
75.9637
 20
33.0462
 11
76.0116
 21
32.7747
  0
LINE
  8
0
 10
76.0116
 20
32.7747
 11
76.0404
 21
32.5005
  0
LINE
  8
0
 10
76.0404
 20
32.5005
 11
76.05
 21
32.225
  0
LINE
  8
0
 10
76.05
 20
32.225
 11
76.0404
 21
31.9494
  0
LINE
  8
0
 10
76.0404
 20
31.9494
 11
76.0116
 21
31.6753
  0
LINE
  8
0
 10
76.0116
 20
31.6753
 11
75.9637
 21
31.4037
  0
LINE
  8
0
 10
75.9637
 20
31.4037
 11
75.897
 21
31.1362
  0
LINE
  8
0
 10
75.897
 20
31.1362
 11
75.8118
 21
30.874
  0
LINE
  8
0
 10
75.8118
 20
30.874
 11
75.7085
 21
30.6184
  0
LINE
  8
0
 10
75.7085
 20
30.6184
 11
75.5876
 21
30.3706
  0
LINE
  8
0
 10
75.5876
 20
30.3706
 11
75.4498
 21
30.1318
  0
LINE
  8
0
 10
75.4498
 20
30.1318
 11
75.2956
 21
29.9032
  0
LINE
  8
0
 10
75.2956
 20
29.9032
 11
75.1259
 21
29.686
  0
LINE
  8
0
 10
75.1259
 20
29.686
 11
74.9414
 21
29.4811
  0
LINE
  8
0
 10
74.9414
 20
29.4811
 11
74.7431
 21
29.2896
  0
LINE
  8
0
 10
74.7431
 20
29.2896
 11
74.5319
 21
29.1124
  0
LINE
  8
0
 10
74.5319
 20
29.1124
 11
74.3088
 21
28.9503
  0
LINE
  8
0
 10
74.3088
 20
28.9503
 11
74.075
 21
28.8042
  0
LINE
  8
0
 10
74.075
 20
28.8042
 11
73.8316
 21
28.6748
  0
LINE
  8
0
 10
73.8316
 20
28.6748
 11
73.5797
 21
28.5626
  0
LINE
  8
0
 10
73.5797
 20
28.5626
 11
73.3206
 21
28.4683
  0
LINE
  8
0
 10
73.3206
 20
28.4683
 11
73.0556
 21
28.3923
  0
LINE
  8
0
 10
73.0556
 20
28.3923
 11
72.7859
 21
28.335
  0
LINE
  8
0
 10
72.7859
 20
28.335
 11
72.5129
 21
28.2966
  0
LINE
  8
0
 10
72.5129
 20
28.2966
 11
72.2379
 21
28.2774
  0
LINE
  8
0
 10
72.2379
 20
28.2774
 11
71.9621
 21
28.2774
  0
LINE
  8
0
 10
-72.2379
 20
28.2774
 11
-72.5129
 21
28.2966
  0
LINE
  8
0
 10
-72.5129
 20
28.2966
 11
-72.7859
 21
28.335
  0
LINE
  8
0
 10
-72.7859
 20
28.335
 11
-73.0556
 21
28.3923
  0
LINE
  8
0
 10
-73.0556
 20
28.3923
 11
-73.3206
 21
28.4683
  0
LINE
  8
0
 10
-73.3206
 20
28.4683
 11
-73.5797
 21
28.5626
  0
LINE
  8
0
 10
-73.5797
 20
28.5626
 11
-73.8316
 21
28.6748
  0
LINE
  8
0
 10
-73.8316
 20
28.6748
 11
-74.075
 21
28.8042
  0
LINE
  8
0
 10
-74.075
 20
28.8042
 11
-74.3088
 21
28.9503
  0
LINE
  8
0
 10
-74.3088
 20
28.9503
 11
-74.5319
 21
29.1124
  0
LINE
  8
0
 10
-74.5319
 20
29.1124
 11
-74.7431
 21
29.2896
  0
LINE
  8
0
 10
-74.7431
 20
29.2896
 11
-74.9414
 21
29.4811
  0
LINE
  8
0
 10
-74.9414
 20
29.4811
 11
-75.1259
 21
29.686
  0
LINE
  8
0
 10
-75.1259
 20
29.686
 11
-75.2956
 21
29.9032
  0
LINE
  8
0
 10
-75.2956
 20
29.9032
 11
-75.4498
 21
30.1318
  0
LINE
  8
0
 10
-75.4498
 20
30.1318
 11
-75.5876
 21
30.3706
  0
LINE
  8
0
 10
-75.5876
 20
30.3706
 11
-75.7085
 21
30.6184
  0
LINE
  8
0
 10
-75.7085
 20
30.6184
 11
-75.8118
 21
30.874
  0
LINE
  8
0
 10
-75.8118
 20
30.874
 11
-75.897
 21
31.1362
  0
LINE
  8
0
 10
-75.897
 20
31.1362
 11
-75.9637
 21
31.4037
  0
LINE
  8
0
 10
-75.9637
 20
31.4037
 11
-76.0116
 21
31.6753
  0
LINE
  8
0
 10
-76.0116
 20
31.6753
 11
-76.0404
 21
31.9494
  0
LINE
  8
0
 10
-76.0404
 20
31.9494
 11
-76.05
 21
32.225
  0
LINE
  8
0
 10
-76.05
 20
32.225
 11
-76.0404
 21
32.5005
  0
LINE
  8
0
 10
-76.0404
 20
32.5005
 11
-76.0116
 21
32.7747
  0
LINE
  8
0
 10
-76.0116
 20
32.7747
 11
-75.9637
 21
33.0462
  0
LINE
  8
0
 10
-75.9637
 20
33.0462
 11
-75.897
 21
33.3138
  0
LINE
  8
0
 10
-75.897
 20
33.3138
 11
-75.8118
 21
33.576
  0
LINE
  8
0
 10
-75.8118
 20
33.576
 11
-75.7085
 21
33.8316
  0
LINE
  8
0
 10
-75.7085
 20
33.8316
 11
-75.5876
 21
34.0794
  0
LINE
  8
0
 10
-75.5876
 20
34.0794
 11
-75.4498
 21
34.3182
  0
LINE
  8
0
 10
-75.4498
 20
34.3182
 11
-75.2956
 21
34.5468
  0
LINE
  8
0
 10
-75.2956
 20
34.5468
 11
-75.1259
 21
34.764
  0
LINE
  8
0
 10
-75.1259
 20
34.764
 11
-74.9414
 21
34.9689
  0
LINE
  8
0
 10
-74.9414
 20
34.9689
 11
-74.7431
 21
35.1604
  0
LINE
  8
0
 10
-74.7431
 20
35.1604
 11
-74.5319
 21
35.3376
  0
LINE
  8
0
 10
-74.5319
 20
35.3376
 11
-74.3088
 21
35.4997
  0
LINE
  8
0
 10
-74.3088
 20
35.4997
 11
-74.075
 21
35.6458
  0
LINE
  8
0
 10
-74.075
 20
35.6458
 11
-73.8316
 21
35.7752
  0
LINE
  8
0
 10
-73.8316
 20
35.7752
 11
-73.5797
 21
35.8874
  0
LINE
  8
0
 10
-73.5797
 20
35.8874
 11
-73.3206
 21
35.9817
  0
LINE
  8
0
 10
-73.3206
 20
35.9817
 11
-73.0556
 21
36.0577
  0
LINE
  8
0
 10
-73.0556
 20
36.0577
 11
-72.7859
 21
36.115
  0
LINE
  8
0
 10
-72.7859
 20
36.115
 11
-72.5129
 21
36.1534
  0
LINE
  8
0
 10
-72.5129
 20
36.1534
 11
-72.2379
 21
36.1726
  0
LINE
  8
0
 10
-72.2379
 20
36.1726
 11
-71.9621
 21
36.1726
  0
LINE
  8
0
 10
-71.9621
 20
36.1726
 11
-71.6871
 21
36.1534
  0
LINE
  8
0
 10
-71.6871
 20
36.1534
 11
-71.4141
 21
36.115
  0
LINE
  8
0
 10
-71.4141
 20
36.115
 11
-71.1444
 21
36.0577
  0
LINE
  8
0
 10
-71.1444
 20
36.0577
 11
-70.8794
 21
35.9817
  0
LINE
  8
0
 10
-70.8794
 20
35.9817
 11
-70.6203
 21
35.8874
  0
LINE
  8
0
 10
-70.6203
 20
35.8874
 11
-70.3684
 21
35.7752
  0
LINE
  8
0
 10
-70.3684
 20
35.7752
 11
-70.125
 21
35.6458
  0
LINE
  8
0
 10
-70.125
 20
35.6458
 11
-69.8912
 21
35.4997
  0
LINE
  8
0
 10
-69.8912
 20
35.4997
 11
-69.6681
 21
35.3376
  0
LINE
  8
0
 10
-69.6681
 20
35.3376
 11
-69.4569
 21
35.1604
  0
LINE
  8
0
 10
-69.4569
 20
35.1604
 11
-69.2586
 21
34.9689
  0
LINE
  8
0
 10
-69.2586
 20
34.9689
 11
-69.0741
 21
34.764
  0
LINE
  8
0
 10
-69.0741
 20
34.764
 11
-68.9044
 21
34.5468
  0
LINE
  8
0
 10
-68.9044
 20
34.5468
 11
-68.7502
 21
34.3182
  0
LINE
  8
0
 10
-68.7502
 20
34.3182
 11
-68.6124
 21
34.0794
  0
LINE
  8
0
 10
-68.6124
 20
34.0794
 11
-68.4915
 21
33.8316
  0
LINE
  8
0
 10
-68.4915
 20
33.8316
 11
-68.3882
 21
33.576
  0
LINE
  8
0
 10
-68.3882
 20
33.576
 11
-68.303
 21
33.3138
  0
LINE
  8
0
 10
-68.303
 20
33.3138
 11
-68.2363
 21
33.0462
  0
LINE
  8
0
 10
-68.2363
 20
33.0462
 11
-68.1884
 21
32.7747
  0
LINE
  8
0
 10
-68.1884
 20
32.7747
 11
-68.1596
 21
32.5005
  0
LINE
  8
0
 10
-68.1596
 20
32.5005
 11
-68.15
 21
32.225
  0
LINE
  8
0
 10
-68.15
 20
32.225
 11
-68.1596
 21
31.9494
  0
LINE
  8
0
 10
-68.1596
 20
31.9494
 11
-68.1884
 21
31.6753
  0
LINE
  8
0
 10
-68.1884
 20
31.6753
 11
-68.2363
 21
31.4037
  0
LINE
  8
0
 10
-68.2363
 20
31.4037
 11
-68.303
 21
31.1362
  0
LINE
  8
0
 10
-68.303
 20
31.1362
 11
-68.3882
 21
30.874
  0
LINE
  8
0
 10
-68.3882
 20
30.874
 11
-68.4915
 21
30.6184
  0
LINE
  8
0
 10
-68.4915
 20
30.6184
 11
-68.6124
 21
30.3706
  0
LINE
  8
0
 10
-68.6124
 20
30.3706
 11
-68.7502
 21
30.1318
  0
LINE
  8
0
 10
-68.7502
 20
30.1318
 11
-68.9044
 21
29.9032
  0
LINE
  8
0
 10
-68.9044
 20
29.9032
 11
-69.0741
 21
29.686
  0
LINE
  8
0
 10
-69.0741
 20
29.686
 11
-69.2586
 21
29.4811
  0
LINE
  8
0
 10
-69.2586
 20
29.4811
 11
-69.4569
 21
29.2896
  0
LINE
  8
0
 10
-69.4569
 20
29.2896
 11
-69.6681
 21
29.1124
  0
LINE
  8
0
 10
-69.6681
 20
29.1124
 11
-69.8912
 21
28.9503
  0
LINE
  8
0
 10
-69.8912
 20
28.9503
 11
-70.125
 21
28.8042
  0
LINE
  8
0
 10
-70.125
 20
28.8042
 11
-70.3684
 21
28.6748
  0
LINE
  8
0
 10
-70.3684
 20
28.6748
 11
-70.6203
 21
28.5626
  0
LINE
  8
0
 10
-70.6203
 20
28.5626
 11
-70.8794
 21
28.4683
  0
LINE
  8
0
 10
-70.8794
 20
28.4683
 11
-71.1444
 21
28.3923
  0
LINE
  8
0
 10
-71.1444
 20
28.3923
 11
-71.4141
 21
28.335
  0
LINE
  8
0
 10
-71.4141
 20
28.335
 11
-71.6871
 21
28.2966
  0
LINE
  8
0
 10
-71.6871
 20
28.2966
 11
-71.9621
 21
28.2774
  0
LINE
  8
0
 10
-71.9621
 20
28.2774
 11
-72.2379
 21
28.2774
  0
LINE
  8
0
 10
7.39999
 20
-74.625
 11
7.39999
 21
-77.375
  0
LINE
  8
0
 10
7.39999
 20
-77.375
 11
-7.39999
 21
-77.375
  0
LINE
  8
0
 10
-7.39999
 20
-77.375
 11
-7.39999
 21
-74.625
  0
LINE
  8
0
 10
-7.39999
 20
-74.625
 11
-46.675
 21
-74.625
  0
LINE
  8
0
 10
-46.675
 20
-74.625
 11
-46.675
 21
-77.375
  0
LINE
  8
0
 10
-46.675
 20
-77.375
 11
-61.475
 21
-77.375
  0
LINE
  8
0
 10
-61.475
 20
-77.375
 11
-61.475
 21
-74.625
  0
LINE
  8
0
 10
-61.475
 20
-74.625
 11
-77.75
 21
-74.625
  0
LINE
  8
0
 10
-77.75
 20
-74.625
 11
-77.75
 21
18.875
  0
LINE
  8
0
 10
-77.75
 20
18.875
 11
-68.25
 21
18.875
  0
LINE
  8
0
 10
-68.25
 20
18.875
 11
-68.25
 21
24.935
  0
LINE
  8
0
 10
-68.25
 20
24.935
 11
-60.75
 21
32.415
  0
LINE
  8
0
 10
-60.75
 20
32.415
 11
-25.75
 21
32.415
  0
LINE
  8
0
 10
-25.75
 20
32.415
 11
-18.25
 21
24.935
  0
LINE
  8
0
 10
-18.25
 20
24.935
 11
-18.25
 21
18.875
  0
LINE
  8
0
 10
-18.25
 20
18.875
 11
-7.39999
 21
18.875
  0
LINE
  8
0
 10
-7.39999
 20
18.875
 11
-7.39999
 21
21.625
  0
LINE
  8
0
 10
-7.39999
 20
21.625
 11
7.39999
 21
21.625
  0
LINE
  8
0
 10
7.39999
 20
21.625
 11
7.39999
 21
18.875
  0
LINE
  8
0
 10
7.39999
 20
18.875
 11
46.675
 21
18.875
  0
LINE
  8
0
 10
46.675
 20
18.875
 11
46.675
 21
21.625
  0
LINE
  8
0
 10
46.675
 20
21.625
 11
61.475
 21
21.625
  0
LINE
  8
0
 10
61.475
 20
21.625
 11
61.475
 21
18.875
  0
LINE
  8
0
 10
61.475
 20
18.875
 11
72.75
 21
18.875
  0
LINE
  8
0
 10
72.75
 20
18.875
 11
72.75
 21
-74.625
  0
LINE
  8
0
 10
72.75
 20
-74.625
 11
61.475
 21
-74.625
  0
LINE
  8
0
 10
61.475
 20
-74.625
 11
61.475
 21
-77.375
  0
LINE
  8
0
 10
61.475
 20
-77.375
 11
46.675
 21
-77.375
  0
LINE
  8
0
 10
46.675
 20
-77.375
 11
46.675
 21
-74.625
  0
LINE
  8
0
 10
46.675
 20
-74.625
 11
7.39999
 21
-74.625
  0
LINE
  8
0
 10
80.26
 20
10.55
 11
80.26
 21
25.35
  0
LINE
  8
0
 10
80.26
 20
25.35
 11
83.06
 21
25.35
  0
LINE
  8
0
 10
83.06
 20
25.35
 11
83.06
 21
10.55
  0
LINE
  8
0
 10
83.06
 20
10.55
 11
80.26
 21
10.55
  0
LINE
  8
0
 10
-83.06
 20
10.55
 11
-83.06
 21
25.35
  0
LINE
  8
0
 10
-83.06
 20
25.35
 11
-80.26
 21
25.35
  0
LINE
  8
0
 10
-80.26
 20
25.35
 11
-80.26
 21
10.55
  0
LINE
  8
0
 10
-80.26
 20
10.55
 11
-83.06
 21
10.55
  0
LINE
  8
0
 10
80.26
 20
-32.275
 11
80.26
 21
-17.475
  0
LINE
  8
0
 10
80.26
 20
-17.475
 11
83.06
 21
-17.475
  0
LINE
  8
0
 10
83.06
 20
-17.475
 11
83.06
 21
-32.275
  0
LINE
  8
0
 10
83.06
 20
-32.275
 11
80.26
 21
-32.275
  0
LINE
  8
0
 10
-83.06
 20
-32.275
 11
-83.06
 21
-17.475
  0
LINE
  8
0
 10
-83.06
 20
-17.475
 11
-80.26
 21
-17.475
  0
LINE
  8
0
 10
-80.26
 20
-17.475
 11
-80.26
 21
-32.275
  0
LINE
  8
0
 10
-80.26
 20
-32.275
 11
-83.06
 21
-32.275
  0
LINE
  8
0
 10
80.26
 20
-75.1
 11
80.26
 21
-60.3
  0
LINE
  8
0
 10
80.26
 20
-60.3
 11
83.06
 21
-60.3
  0
LINE
  8
0
 10
83.06
 20
-60.3
 11
83.06
 21
-75.1
  0
LINE
  8
0
 10
83.06
 20
-75.1
 11
80.26
 21
-75.1
  0
LINE
  8
0
 10
-83.06
 20
-75.1
 11
-83.06
 21
-60.3
  0
LINE
  8
0
 10
-83.06
 20
-60.3
 11
-80.26
 21
-60.3
  0
LINE
  8
0
 10
-80.26
 20
-60.3
 11
-80.26
 21
-75.1
  0
LINE
  8
0
 10
-80.26
 20
-75.1
 11
-83.06
 21
-75.1
  0
LINE
  8
0
 10
-72.2379
 20
-85.9226
 11
-72.5129
 21
-85.9034
  0
LINE
  8
0
 10
-72.5129
 20
-85.9034
 11
-72.7859
 21
-85.865
  0
LINE
  8
0
 10
-72.7859
 20
-85.865
 11
-73.0556
 21
-85.8077
  0
LINE
  8
0
 10
-73.0556
 20
-85.8077
 11
-73.3206
 21
-85.7317
  0
LINE
  8
0
 10
-73.3206
 20
-85.7317
 11
-73.5797
 21
-85.6374
  0
LINE
  8
0
 10
-73.5797
 20
-85.6374
 11
-73.8316
 21
-85.5252
  0
LINE
  8
0
 10
-73.8316
 20
-85.5252
 11
-74.075
 21
-85.3958
  0
LINE
  8
0
 10
-74.075
 20
-85.3958
 11
-74.3088
 21
-85.2497
  0
LINE
  8
0
 10
-74.3088
 20
-85.2497
 11
-74.5319
 21
-85.0876
  0
LINE
  8
0
 10
-74.5319
 20
-85.0876
 11
-74.7431
 21
-84.9104
  0
LINE
  8
0
 10
-74.7431
 20
-84.9104
 11
-74.9414
 21
-84.7189
  0
LINE
  8
0
 10
-74.9414
 20
-84.7189
 11
-75.1259
 21
-84.514
  0
LINE
  8
0
 10
-75.1259
 20
-84.514
 11
-75.2956
 21
-84.2968
  0
LINE
  8
0
 10
-75.2956
 20
-84.2968
 11
-75.4498
 21
-84.0682
  0
LINE
  8
0
 10
-75.4498
 20
-84.0682
 11
-75.5876
 21
-83.8294
  0
LINE
  8
0
 10
-75.5876
 20
-83.8294
 11
-75.7085
 21
-83.5816
  0
LINE
  8
0
 10
-75.7085
 20
-83.5816
 11
-75.8118
 21
-83.326
  0
LINE
  8
0
 10
-75.8118
 20
-83.326
 11
-75.897
 21
-83.0638
  0
LINE
  8
0
 10
-75.897
 20
-83.0638
 11
-75.9637
 21
-82.7962
  0
LINE
  8
0
 10
-75.9637
 20
-82.7962
 11
-76.0116
 21
-82.5247
  0
LINE
  8
0
 10
-76.0116
 20
-82.5247
 11
-76.0404
 21
-82.2505
  0
LINE
  8
0
 10
-76.0404
 20
-82.2505
 11
-76.05
 21
-81.975
  0
LINE
  8
0
 10
-76.05
 20
-81.975
 11
-76.0404
 21
-81.6995
  0
LINE
  8
0
 10
-76.0404
 20
-81.6995
 11
-76.0116
 21
-81.4253
  0
LINE
  8
0
 10
-76.0116
 20
-81.4253
 11
-75.9637
 21
-81.1537
  0
LINE
  8
0
 10
-75.9637
 20
-81.1537
 11
-75.897
 21
-80.8862
  0
LINE
  8
0
 10
-75.897
 20
-80.8862
 11
-75.8118
 21
-80.624
  0
LINE
  8
0
 10
-75.8118
 20
-80.624
 11
-75.7085
 21
-80.3684
  0
LINE
  8
0
 10
-75.7085
 20
-80.3684
 11
-75.5876
 21
-80.1206
  0
LINE
  8
0
 10
-75.5876
 20
-80.1206
 11
-75.4498
 21
-79.8818
  0
LINE
  8
0
 10
-75.4498
 20
-79.8818
 11
-75.2956
 21
-79.6532
  0
LINE
  8
0
 10
-75.2956
 20
-79.6532
 11
-75.1259
 21
-79.436
  0
LINE
  8
0
 10
-75.1259
 20
-79.436
 11
-74.9414
 21
-79.2311
  0
LINE
  8
0
 10
-74.9414
 20
-79.2311
 11
-74.7431
 21
-79.0396
  0
LINE
  8
0
 10
-74.7431
 20
-79.0396
 11
-74.5319
 21
-78.8624
  0
LINE
  8
0
 10
-74.5319
 20
-78.8624
 11
-74.3088
 21
-78.7003
  0
LINE
  8
0
 10
-74.3088
 20
-78.7003
 11
-74.075
 21
-78.5542
  0
LINE
  8
0
 10
-74.075
 20
-78.5542
 11
-73.8316
 21
-78.4248
  0
LINE
  8
0
 10
-73.8316
 20
-78.4248
 11
-73.5797
 21
-78.3126
  0
LINE
  8
0
 10
-73.5797
 20
-78.3126
 11
-73.3206
 21
-78.2183
  0
LINE
  8
0
 10
-73.3206
 20
-78.2183
 11
-73.0556
 21
-78.1423
  0
LINE
  8
0
 10
-73.0556
 20
-78.1423
 11
-72.7859
 21
-78.085
  0
LINE
  8
0
 10
-72.7859
 20
-78.085
 11
-72.5129
 21
-78.0466
  0
LINE
  8
0
 10
-72.5129
 20
-78.0466
 11
-72.2379
 21
-78.0274
  0
LINE
  8
0
 10
-72.2379
 20
-78.0274
 11
-71.9621
 21
-78.0274
  0
LINE
  8
0
 10
-71.9621
 20
-78.0274
 11
-71.6871
 21
-78.0466
  0
LINE
  8
0
 10
-71.6871
 20
-78.0466
 11
-71.4141
 21
-78.085
  0
LINE
  8
0
 10
-71.4141
 20
-78.085
 11
-71.1444
 21
-78.1423
  0
LINE
  8
0
 10
-71.1444
 20
-78.1423
 11
-70.8794
 21
-78.2183
  0
LINE
  8
0
 10
-70.8794
 20
-78.2183
 11
-70.6203
 21
-78.3126
  0
LINE
  8
0
 10
-70.6203
 20
-78.3126
 11
-70.3684
 21
-78.4248
  0
LINE
  8
0
 10
-70.3684
 20
-78.4248
 11
-70.125
 21
-78.5542
  0
LINE
  8
0
 10
-70.125
 20
-78.5542
 11
-69.8912
 21
-78.7003
  0
LINE
  8
0
 10
-69.8912
 20
-78.7003
 11
-69.6681
 21
-78.8624
  0
LINE
  8
0
 10
-69.6681
 20
-78.8624
 11
-69.4569
 21
-79.0396
  0
LINE
  8
0
 10
-69.4569
 20
-79.0396
 11
-69.2586
 21
-79.2311
  0
LINE
  8
0
 10
-69.2586
 20
-79.2311
 11
-69.0741
 21
-79.436
  0
LINE
  8
0
 10
-69.0741
 20
-79.436
 11
-68.9044
 21
-79.6532
  0
LINE
  8
0
 10
-68.9044
 20
-79.6532
 11
-68.7502
 21
-79.8818
  0
LINE
  8
0
 10
-68.7502
 20
-79.8818
 11
-68.6124
 21
-80.1206
  0
LINE
  8
0
 10
-68.6124
 20
-80.1206
 11
-68.4915
 21
-80.3684
  0
LINE
  8
0
 10
-68.4915
 20
-80.3684
 11
-68.3882
 21
-80.624
  0
LINE
  8
0
 10
-68.3882
 20
-80.624
 11
-68.303
 21
-80.8862
  0
LINE
  8
0
 10
-68.303
 20
-80.8862
 11
-68.2363
 21
-81.1537
  0
LINE
  8
0
 10
-68.2363
 20
-81.1537
 11
-68.1884
 21
-81.4253
  0
LINE
  8
0
 10
-68.1884
 20
-81.4253
 11
-68.1596
 21
-81.6995
  0
LINE
  8
0
 10
-68.1596
 20
-81.6995
 11
-68.15
 21
-81.975
  0
LINE
  8
0
 10
-68.15
 20
-81.975
 11
-68.1596
 21
-82.2505
  0
LINE
  8
0
 10
-68.1596
 20
-82.2505
 11
-68.1884
 21
-82.5247
  0
LINE
  8
0
 10
-68.1884
 20
-82.5247
 11
-68.2363
 21
-82.7962
  0
LINE
  8
0
 10
-68.2363
 20
-82.7962
 11
-68.303
 21
-83.0638
  0
LINE
  8
0
 10
-68.303
 20
-83.0638
 11
-68.3882
 21
-83.326
  0
LINE
  8
0
 10
-68.3882
 20
-83.326
 11
-68.4915
 21
-83.5816
  0
LINE
  8
0
 10
-68.4915
 20
-83.5816
 11
-68.6124
 21
-83.8294
  0
LINE
  8
0
 10
-68.6124
 20
-83.8294
 11
-68.7502
 21
-84.0682
  0
LINE
  8
0
 10
-68.7502
 20
-84.0682
 11
-68.9044
 21
-84.2968
  0
LINE
  8
0
 10
-68.9044
 20
-84.2968
 11
-69.0741
 21
-84.514
  0
LINE
  8
0
 10
-69.0741
 20
-84.514
 11
-69.2586
 21
-84.7189
  0
LINE
  8
0
 10
-69.2586
 20
-84.7189
 11
-69.4569
 21
-84.9104
  0
LINE
  8
0
 10
-69.4569
 20
-84.9104
 11
-69.6681
 21
-85.0876
  0
LINE
  8
0
 10
-69.6681
 20
-85.0876
 11
-69.8912
 21
-85.2497
  0
LINE
  8
0
 10
-69.8912
 20
-85.2497
 11
-70.125
 21
-85.3958
  0
LINE
  8
0
 10
-70.125
 20
-85.3958
 11
-70.3684
 21
-85.5252
  0
LINE
  8
0
 10
-70.3684
 20
-85.5252
 11
-70.6203
 21
-85.6374
  0
LINE
  8
0
 10
-70.6203
 20
-85.6374
 11
-70.8794
 21
-85.7317
  0
LINE
  8
0
 10
-70.8794
 20
-85.7317
 11
-71.1444
 21
-85.8077
  0
LINE
  8
0
 10
-71.1444
 20
-85.8077
 11
-71.4141
 21
-85.865
  0
LINE
  8
0
 10
-71.4141
 20
-85.865
 11
-71.6871
 21
-85.9034
  0
LINE
  8
0
 10
-71.6871
 20
-85.9034
 11
-71.9621
 21
-85.9226
  0
LINE
  8
0
 10
-71.9621
 20
-85.9226
 11
-72.2379
 21
-85.9226
  0
LINE
  8
0
 10
71.9621
 20
-85.9226
 11
71.6871
 21
-85.9034
  0
LINE
  8
0
 10
71.6871
 20
-85.9034
 11
71.4141
 21
-85.865
  0
LINE
  8
0
 10
71.4141
 20
-85.865
 11
71.1444
 21
-85.8077
  0
LINE
  8
0
 10
71.1444
 20
-85.8077
 11
70.8794
 21
-85.7317
  0
LINE
  8
0
 10
70.8794
 20
-85.7317
 11
70.6203
 21
-85.6374
  0
LINE
  8
0
 10
70.6203
 20
-85.6374
 11
70.3684
 21
-85.5252
  0
LINE
  8
0
 10
70.3684
 20
-85.5252
 11
70.125
 21
-85.3958
  0
LINE
  8
0
 10
70.125
 20
-85.3958
 11
69.8912
 21
-85.2497
  0
LINE
  8
0
 10
69.8912
 20
-85.2497
 11
69.6681
 21
-85.0876
  0
LINE
  8
0
 10
69.6681
 20
-85.0876
 11
69.4569
 21
-84.9104
  0
LINE
  8
0
 10
69.4569
 20
-84.9104
 11
69.2586
 21
-84.7189
  0
LINE
  8
0
 10
69.2586
 20
-84.7189
 11
69.0741
 21
-84.514
  0
LINE
  8
0
 10
69.0741
 20
-84.514
 11
68.9044
 21
-84.2968
  0
LINE
  8
0
 10
68.9044
 20
-84.2968
 11
68.7502
 21
-84.0682
  0
LINE
  8
0
 10
68.7502
 20
-84.0682
 11
68.6124
 21
-83.8294
  0
LINE
  8
0
 10
68.6124
 20
-83.8294
 11
68.4915
 21
-83.5816
  0
LINE
  8
0
 10
68.4915
 20
-83.5816
 11
68.3882
 21
-83.326
  0
LINE
  8
0
 10
68.3882
 20
-83.326
 11
68.303
 21
-83.0638
  0
LINE
  8
0
 10
68.303
 20
-83.0638
 11
68.2363
 21
-82.7962
  0
LINE
  8
0
 10
68.2363
 20
-82.7962
 11
68.1884
 21
-82.5247
  0
LINE
  8
0
 10
68.1884
 20
-82.5247
 11
68.1596
 21
-82.2505
  0
LINE
  8
0
 10
68.1596
 20
-82.2505
 11
68.15
 21
-81.975
  0
LINE
  8
0
 10
68.15
 20
-81.975
 11
68.1596
 21
-81.6995
  0
LINE
  8
0
 10
68.1596
 20
-81.6995
 11
68.1884
 21
-81.4253
  0
LINE
  8
0
 10
68.1884
 20
-81.4253
 11
68.2363
 21
-81.1537
  0
LINE
  8
0
 10
68.2363
 20
-81.1537
 11
68.303
 21
-80.8862
  0
LINE
  8
0
 10
68.303
 20
-80.8862
 11
68.3882
 21
-80.624
  0
LINE
  8
0
 10
68.3882
 20
-80.624
 11
68.4915
 21
-80.3684
  0
LINE
  8
0
 10
68.4915
 20
-80.3684
 11
68.6124
 21
-80.1206
  0
LINE
  8
0
 10
68.6124
 20
-80.1206
 11
68.7502
 21
-79.8818
  0
LINE
  8
0
 10
68.7502
 20
-79.8818
 11
68.9044
 21
-79.6532
  0
LINE
  8
0
 10
68.9044
 20
-79.6532
 11
69.0741
 21
-79.436
  0
LINE
  8
0
 10
69.0741
 20
-79.436
 11
69.2586
 21
-79.2311
  0
LINE
  8
0
 10
69.2586
 20
-79.2311
 11
69.4569
 21
-79.0396
  0
LINE
  8
0
 10
69.4569
 20
-79.0396
 11
69.6681
 21
-78.8624
  0
LINE
  8
0
 10
69.6681
 20
-78.8624
 11
69.8912
 21
-78.7003
  0
LINE
  8
0
 10
69.8912
 20
-78.7003
 11
70.125
 21
-78.5542
  0
LINE
  8
0
 10
70.125
 20
-78.5542
 11
70.3684
 21
-78.4248
  0
LINE
  8
0
 10
70.3684
 20
-78.4248
 11
70.6203
 21
-78.3126
  0
LINE
  8
0
 10
70.6203
 20
-78.3126
 11
70.8794
 21
-78.2183
  0
LINE
  8
0
 10
70.8794
 20
-78.2183
 11
71.1444
 21
-78.1423
  0
LINE
  8
0
 10
71.1444
 20
-78.1423
 11
71.4141
 21
-78.085
  0
LINE
  8
0
 10
71.4141
 20
-78.085
 11
71.6871
 21
-78.0466
  0
LINE
  8
0
 10
71.6871
 20
-78.0466
 11
71.9621
 21
-78.0274
  0
LINE
  8
0
 10
71.9621
 20
-78.0274
 11
72.2379
 21
-78.0274
  0
LINE
  8
0
 10
72.2379
 20
-78.0274
 11
72.5129
 21
-78.0466
  0
LINE
  8
0
 10
72.5129
 20
-78.0466
 11
72.7859
 21
-78.085
  0
LINE
  8
0
 10
72.7859
 20
-78.085
 11
73.0556
 21
-78.1423
  0
LINE
  8
0
 10
73.0556
 20
-78.1423
 11
73.3206
 21
-78.2183
  0
LINE
  8
0
 10
73.3206
 20
-78.2183
 11
73.5797
 21
-78.3126
  0
LINE
  8
0
 10
73.5797
 20
-78.3126
 11
73.8316
 21
-78.4248
  0
LINE
  8
0
 10
73.8316
 20
-78.4248
 11
74.075
 21
-78.5542
  0
LINE
  8
0
 10
74.075
 20
-78.5542
 11
74.3088
 21
-78.7003
  0
LINE
  8
0
 10
74.3088
 20
-78.7003
 11
74.5319
 21
-78.8624
  0
LINE
  8
0
 10
74.5319
 20
-78.8624
 11
74.7431
 21
-79.0396
  0
LINE
  8
0
 10
74.7431
 20
-79.0396
 11
74.9414
 21
-79.2311
  0
LINE
  8
0
 10
74.9414
 20
-79.2311
 11
75.1259
 21
-79.436
  0
LINE
  8
0
 10
75.1259
 20
-79.436
 11
75.2956
 21
-79.6532
  0
LINE
  8
0
 10
75.2956
 20
-79.6532
 11
75.4498
 21
-79.8818
  0
LINE
  8
0
 10
75.4498
 20
-79.8818
 11
75.5876
 21
-80.1206
  0
LINE
  8
0
 10
75.5876
 20
-80.1206
 11
75.7085
 21
-80.3684
  0
LINE
  8
0
 10
75.7085
 20
-80.3684
 11
75.8118
 21
-80.624
  0
LINE
  8
0
 10
75.8118
 20
-80.624
 11
75.897
 21
-80.8862
  0
LINE
  8
0
 10
75.897
 20
-80.8862
 11
75.9637
 21
-81.1537
  0
LINE
  8
0
 10
75.9637
 20
-81.1537
 11
76.0116
 21
-81.4253
  0
LINE
  8
0
 10
76.0116
 20
-81.4253
 11
76.0404
 21
-81.6995
  0
LINE
  8
0
 10
76.0404
 20
-81.6995
 11
76.05
 21
-81.975
  0
LINE
  8
0
 10
76.05
 20
-81.975
 11
76.0404
 21
-82.2505
  0
LINE
  8
0
 10
76.0404
 20
-82.2505
 11
76.0116
 21
-82.5247
  0
LINE
  8
0
 10
76.0116
 20
-82.5247
 11
75.9637
 21
-82.7962
  0
LINE
  8
0
 10
75.9637
 20
-82.7962
 11
75.897
 21
-83.0638
  0
LINE
  8
0
 10
75.897
 20
-83.0638
 11
75.8118
 21
-83.326
  0
LINE
  8
0
 10
75.8118
 20
-83.326
 11
75.7085
 21
-83.5816
  0
LINE
  8
0
 10
75.7085
 20
-83.5816
 11
75.5876
 21
-83.8294
  0
LINE
  8
0
 10
75.5876
 20
-83.8294
 11
75.4498
 21
-84.0682
  0
LINE
  8
0
 10
75.4498
 20
-84.0682
 11
75.2956
 21
-84.2968
  0
LINE
  8
0
 10
75.2956
 20
-84.2968
 11
75.1259
 21
-84.514
  0
LINE
  8
0
 10
75.1259
 20
-84.514
 11
74.9414
 21
-84.7189
  0
LINE
  8
0
 10
74.9414
 20
-84.7189
 11
74.7431
 21
-84.9104
  0
LINE
  8
0
 10
74.7431
 20
-84.9104
 11
74.5319
 21
-85.0876
  0
LINE
  8
0
 10
74.5319
 20
-85.0876
 11
74.3088
 21
-85.2497
  0
LINE
  8
0
 10
74.3088
 20
-85.2497
 11
74.075
 21
-85.3958
  0
LINE
  8
0
 10
74.075
 20
-85.3958
 11
73.8316
 21
-85.5252
  0
LINE
  8
0
 10
73.8316
 20
-85.5252
 11
73.5797
 21
-85.6374
  0
LINE
  8
0
 10
73.5797
 20
-85.6374
 11
73.3206
 21
-85.7317
  0
LINE
  8
0
 10
73.3206
 20
-85.7317
 11
73.0556
 21
-85.8077
  0
LINE
  8
0
 10
73.0556
 20
-85.8077
 11
72.7859
 21
-85.865
  0
LINE
  8
0
 10
72.7859
 20
-85.865
 11
72.5129
 21
-85.9034
  0
LINE
  8
0
 10
72.5129
 20
-85.9034
 11
72.2379
 21
-85.9226
  0
LINE
  8
0
 10
72.2379
 20
-85.9226
 11
71.9621
 21
-85.9226
  0
LINE
  8
0
 10
46.675
 20
-92.935
 11
46.675
 21
-90.135
  0
LINE
  8
0
 10
46.675
 20
-90.135
 11
61.475
 21
-90.135
  0
LINE
  8
0
 10
61.475
 20
-90.135
 11
61.475
 21
-92.935
  0
LINE
  8
0
 10
61.475
 20
-92.935
 11
46.675
 21
-92.935
  0
LINE
  8
0
 10
-61.475
 20
-92.935
 11
-61.475
 21
-90.135
  0
LINE
  8
0
 10
-61.475
 20
-90.135
 11
-46.675
 21
-90.135
  0
LINE
  8
0
 10
-46.675
 20
-90.135
 11
-46.675
 21
-92.935
  0
LINE
  8
0
 10
-46.675
 20
-92.935
 11
-61.475
 21
-92.935
  0
LINE
  8
0
 10
-7.39999
 20
-92.935
 11
-7.39999
 21
-90.135
  0
LINE
  8
0
 10
-7.39999
 20
-90.135
 11
7.39999
 21
-90.135
  0
LINE
  8
0
 10
7.39999
 20
-90.135
 11
7.39999
 21
-92.935
  0
LINE
  8
0
 10
7.39999
 20
-92.935
 11
-7.39999
 21
-92.935
  0
ENDSEC
  0
SECTION
  2
OBJECTS
  0
DICTIONARY
  0
ENDSEC
  0
EOF
