  0
SECTION
  2
BLOCKS
  0
ENDSEC
  0
SECTION
  2
ENTITIES
  0
LINE
  8
0
 10
-4.075
 20
0
 11
-3.98595
 21
-0.847239
  0
LINE
  8
0
 10
-3.98595
 20
-0.847239
 11
-3.7227
 21
-1.65745
  0
LINE
  8
0
 10
-3.7227
 20
-1.65745
 11
-3.29674
 21
-2.39522
  0
LINE
  8
0
 10
-3.29674
 20
-2.39522
 11
-2.72671
 21
-3.02831
  0
LINE
  8
0
 10
-2.72671
 20
-3.02831
 11
-2.0375
 21
-3.52905
  0
LINE
  8
0
 10
-2.0375
 20
-3.52905
 11
-1.25924
 21
-3.87556
  0
LINE
  8
0
 10
-1.25924
 20
-3.87556
 11
-0.425953
 21
-4.05268
  0
LINE
  8
0
 10
-0.425953
 20
-4.05268
 11
0.425953
 21
-4.05268
  0
LINE
  8
0
 10
0.425953
 20
-4.05268
 11
1.25924
 21
-3.87556
  0
LINE
  8
0
 10
1.25924
 20
-3.87556
 11
2.0375
 21
-3.52905
  0
LINE
  8
0
 10
2.0375
 20
-3.52905
 11
2.72671
 21
-3.02831
  0
LINE
  8
0
 10
2.72671
 20
-3.02831
 11
3.29674
 21
-2.39522
  0
LINE
  8
0
 10
3.29674
 20
-2.39522
 11
3.7227
 21
-1.65745
  0
LINE
  8
0
 10
3.7227
 20
-1.65745
 11
3.98595
 21
-0.847239
  0
LINE
  8
0
 10
3.98595
 20
-0.847239
 11
4.075
 21
0
  0
LINE
  8
0
 10
4.075
 20
0
 11
3.98595
 21
0.847239
  0
LINE
  8
0
 10
3.98595
 20
0.847239
 11
3.7227
 21
1.65745
  0
LINE
  8
0
 10
3.7227
 20
1.65745
 11
3.29674
 21
2.39522
  0
LINE
  8
0
 10
3.29674
 20
2.39522
 11
2.72671
 21
3.02831
  0
LINE
  8
0
 10
2.72671
 20
3.02831
 11
2.0375
 21
3.52905
  0
LINE
  8
0
 10
2.0375
 20
3.52905
 11
1.25924
 21
3.87556
  0
LINE
  8
0
 10
1.25924
 20
3.87556
 11
0.425953
 21
4.05268
  0
LINE
  8
0
 10
0.425953
 20
4.05268
 11
-0.425953
 21
4.05268
  0
LINE
  8
0
 10
-0.425953
 20
4.05268
 11
-1.25924
 21
3.87556
  0
LINE
  8
0
 10
-1.25924
 20
3.87556
 11
-2.0375
 21
3.52905
  0
LINE
  8
0
 10
-2.0375
 20
3.52905
 11
-2.72671
 21
3.02831
  0
LINE
  8
0
 10
-2.72671
 20
3.02831
 11
-3.29674
 21
2.39522
  0
LINE
  8
0
 10
-3.29674
 20
2.39522
 11
-3.7227
 21
1.65745
  0
LINE
  8
0
 10
-3.7227
 20
1.65745
 11
-3.98595
 21
0.847239
  0
LINE
  8
0
 10
-3.98595
 20
0.847239
 11
-4.075
 21
0
  0
LINE
  8
0
 10
-1.925
 20
0
 11
-1.88293
 21
0.400229
  0
LINE
  8
0
 10
-1.88293
 20
0.400229
 11
-1.75857
 21
0.782968
  0
LINE
  8
0
 10
-1.75857
 20
0.782968
 11
-1.55736
 21
1.13149
  0
LINE
  8
0
 10
-1.55736
 20
1.13149
 11
-1.28808
 21
1.43055
  0
LINE
  8
0
 10
-1.28808
 20
1.43055
 11
-0.9625
 21
1.6671
  0
LINE
  8
0
 10
-0.9625
 20
1.6671
 11
-0.594857
 21
1.83078
  0
LINE
  8
0
 10
-0.594857
 20
1.83078
 11
-0.201217
 21
1.91445
  0
LINE
  8
0
 10
-0.201217
 20
1.91445
 11
0.201217
 21
1.91445
  0
LINE
  8
0
 10
0.201217
 20
1.91445
 11
0.594857
 21
1.83078
  0
LINE
  8
0
 10
0.594857
 20
1.83078
 11
0.9625
 21
1.6671
  0
LINE
  8
0
 10
0.9625
 20
1.6671
 11
1.28808
 21
1.43055
  0
LINE
  8
0
 10
1.28808
 20
1.43055
 11
1.55736
 21
1.13149
  0
LINE
  8
0
 10
1.55736
 20
1.13149
 11
1.75857
 21
0.782968
  0
LINE
  8
0
 10
1.75857
 20
0.782968
 11
1.88293
 21
0.400229
  0
LINE
  8
0
 10
1.88293
 20
0.400229
 11
1.925
 21
0
  0
LINE
  8
0
 10
1.925
 20
0
 11
1.88293
 21
-0.400229
  0
LINE
  8
0
 10
1.88293
 20
-0.400229
 11
1.75857
 21
-0.782968
  0
LINE
  8
0
 10
1.75857
 20
-0.782968
 11
1.55736
 21
-1.13149
  0
LINE
  8
0
 10
1.55736
 20
-1.13149
 11
1.28808
 21
-1.43055
  0
LINE
  8
0
 10
1.28808
 20
-1.43055
 11
0.9625
 21
-1.6671
  0
LINE
  8
0
 10
0.9625
 20
-1.6671
 11
0.594857
 21
-1.83078
  0
LINE
  8
0
 10
0.594857
 20
-1.83078
 11
0.201217
 21
-1.91445
  0
LINE
  8
0
 10
0.201217
 20
-1.91445
 11
-0.201217
 21
-1.91445
  0
LINE
  8
0
 10
-0.201217
 20
-1.91445
 11
-0.594857
 21
-1.83078
  0
LINE
  8
0
 10
-0.594857
 20
-1.83078
 11
-0.9625
 21
-1.6671
  0
LINE
  8
0
 10
-0.9625
 20
-1.6671
 11
-1.28808
 21
-1.43055
  0
LINE
  8
0
 10
-1.28808
 20
-1.43055
 11
-1.55736
 21
-1.13149
  0
LINE
  8
0
 10
-1.55736
 20
-1.13149
 11
-1.75857
 21
-0.782968
  0
LINE
  8
0
 10
-1.75857
 20
-0.782968
 11
-1.88293
 21
-0.400229
  0
LINE
  8
0
 10
-1.88293
 20
-0.400229
 11
-1.925
 21
0
  0
ENDSEC
  0
SECTION
  2
OBJECTS
  0
DICTIONARY
  0
ENDSEC
  0
EOF
