  0
SECTION
  2
BLOCKS
  0
ENDSEC
  0
SECTION
  2
ENTITIES
  0
LINE
  8
0
 10
-68.2
 20
-82.5
 11
-65.21
 21
-82.5
  0
LINE
  8
0
 10
-65.21
 20
-82.5
 11
-65.21
 21
-97.0173
  0
LINE
  8
0
 10
-65.21
 20
-97.0173
 11
-50.325
 21
-97.0173
  0
LINE
  8
0
 10
-50.325
 20
-97.0173
 11
-50.325
 21
-100
  0
LINE
  8
0
 10
-50.325
 20
-100
 11
-35.325
 21
-100
  0
LINE
  8
0
 10
-35.325
 20
-100
 11
-35.325
 21
-97.0173
  0
LINE
  8
0
 10
-35.325
 20
-97.0173
 11
-7.5
 21
-97.0173
  0
LINE
  8
0
 10
-7.5
 20
-97.0173
 11
-7.5
 21
-100
  0
LINE
  8
0
 10
-7.5
 20
-100
 11
7.5
 21
-100
  0
LINE
  8
0
 10
7.5
 20
-100
 11
7.5
 21
-97.0173
  0
LINE
  8
0
 10
7.5
 20
-97.0173
 11
35.325
 21
-97.0173
  0
LINE
  8
0
 10
35.325
 20
-97.0173
 11
35.325
 21
-100
  0
LINE
  8
0
 10
35.325
 20
-100
 11
50.325
 21
-100
  0
LINE
  8
0
 10
50.325
 20
-100
 11
50.325
 21
-97.0173
  0
LINE
  8
0
 10
50.325
 20
-97.0173
 11
65.19
 21
-97.0173
  0
LINE
  8
0
 10
65.19
 20
-97.0173
 11
65.22
 21
-97
  0
LINE
  8
0
 10
65.22
 20
-97
 11
65.22
 21
-82.5
  0
LINE
  8
0
 10
65.22
 20
-82.5
 11
68.2
 21
-82.5
  0
LINE
  8
0
 10
68.2
 20
-82.5
 11
68.2
 21
-67.5
  0
LINE
  8
0
 10
68.2
 20
-67.5
 11
65.22
 21
-67.5
  0
LINE
  8
0
 10
65.22
 20
-67.5
 11
65.22
 21
-45
  0
LINE
  8
0
 10
65.22
 20
-45
 11
68.2
 21
-45
  0
LINE
  8
0
 10
68.2
 20
-45
 11
68.2
 21
-30
  0
LINE
  8
0
 10
68.2
 20
-30
 11
65.22
 21
-30
  0
LINE
  8
0
 10
65.22
 20
-30
 11
65.22
 21
-7.5
  0
LINE
  8
0
 10
65.22
 20
-7.5
 11
68.2
 21
-7.5
  0
LINE
  8
0
 10
68.2
 20
-7.5
 11
68.2
 21
7.5
  0
LINE
  8
0
 10
68.2
 20
7.5
 11
65.22
 21
7.5
  0
LINE
  8
0
 10
65.22
 20
7.5
 11
65.22
 21
30
  0
LINE
  8
0
 10
65.22
 20
30
 11
68.2
 21
30
  0
LINE
  8
0
 10
68.2
 20
30
 11
68.2
 21
45
  0
LINE
  8
0
 10
68.2
 20
45
 11
65.22
 21
45
  0
LINE
  8
0
 10
65.22
 20
45
 11
65.22
 21
67.5
  0
LINE
  8
0
 10
65.22
 20
67.5
 11
68.2
 21
67.5
  0
LINE
  8
0
 10
68.2
 20
67.5
 11
68.2
 21
82.5
  0
LINE
  8
0
 10
68.2
 20
82.5
 11
65.22
 21
82.5
  0
LINE
  8
0
 10
65.22
 20
82.5
 11
65.22
 21
97
  0
LINE
  8
0
 10
65.22
 20
97
 11
65.19
 21
97.0173
  0
LINE
  8
0
 10
65.19
 20
97.0173
 11
50.325
 21
97.0173
  0
LINE
  8
0
 10
50.325
 20
97.0173
 11
50.325
 21
100
  0
LINE
  8
0
 10
50.325
 20
100
 11
35.325
 21
100
  0
LINE
  8
0
 10
35.325
 20
100
 11
35.325
 21
97.0173
  0
LINE
  8
0
 10
35.325
 20
97.0173
 11
7.5
 21
97.0173
  0
LINE
  8
0
 10
7.5
 20
97.0173
 11
7.5
 21
100
  0
LINE
  8
0
 10
7.5
 20
100
 11
-7.5
 21
100
  0
LINE
  8
0
 10
-7.5
 20
100
 11
-7.5
 21
97.0173
  0
LINE
  8
0
 10
-7.5
 20
97.0173
 11
-35.325
 21
97.0173
  0
LINE
  8
0
 10
-35.325
 20
97.0173
 11
-35.325
 21
100
  0
LINE
  8
0
 10
-35.325
 20
100
 11
-50.325
 21
100
  0
LINE
  8
0
 10
-50.325
 20
100
 11
-50.325
 21
97.0173
  0
LINE
  8
0
 10
-50.325
 20
97.0173
 11
-65.21
 21
97.0173
  0
LINE
  8
0
 10
-65.21
 20
97.0173
 11
-65.21
 21
82.5
  0
LINE
  8
0
 10
-65.21
 20
82.5
 11
-68.2
 21
82.5
  0
LINE
  8
0
 10
-68.2
 20
82.5
 11
-68.2
 21
67.5
  0
LINE
  8
0
 10
-68.2
 20
67.5
 11
-65.21
 21
67.5
  0
LINE
  8
0
 10
-65.21
 20
67.5
 11
-65.21
 21
45
  0
LINE
  8
0
 10
-65.21
 20
45
 11
-68.2
 21
45
  0
LINE
  8
0
 10
-68.2
 20
45
 11
-68.2
 21
30
  0
LINE
  8
0
 10
-68.2
 20
30
 11
-65.21
 21
30
  0
LINE
  8
0
 10
-65.21
 20
30
 11
-65.21
 21
7.5
  0
LINE
  8
0
 10
-65.21
 20
7.5
 11
-68.2
 21
7.5
  0
LINE
  8
0
 10
-68.2
 20
7.5
 11
-68.2
 21
-7.5
  0
LINE
  8
0
 10
-68.2
 20
-7.5
 11
-65.21
 21
-7.5
  0
LINE
  8
0
 10
-65.21
 20
-7.5
 11
-65.21
 21
-30
  0
LINE
  8
0
 10
-65.21
 20
-30
 11
-68.2
 21
-30
  0
LINE
  8
0
 10
-68.2
 20
-30
 11
-68.2
 21
-45
  0
LINE
  8
0
 10
-68.2
 20
-45
 11
-65.21
 21
-45
  0
LINE
  8
0
 10
-65.21
 20
-45
 11
-65.21
 21
-67.5
  0
LINE
  8
0
 10
-65.21
 20
-67.5
 11
-68.2
 21
-67.5
  0
LINE
  8
0
 10
-68.2
 20
-67.5
 11
-68.2
 21
-82.5
  0
LINE
  8
0
 10
-60.15
 20
-90.6
 11
-60.1205
 21
-90.3193
  0
LINE
  8
0
 10
-60.1205
 20
-90.3193
 11
-60.0333
 21
-90.0509
  0
LINE
  8
0
 10
-60.0333
 20
-90.0509
 11
-59.8922
 21
-89.8065
  0
LINE
  8
0
 10
-59.8922
 20
-89.8065
 11
-59.7033
 21
-89.5968
  0
LINE
  8
0
 10
-59.7033
 20
-89.5968
 11
-59.475
 21
-89.4309
  0
LINE
  8
0
 10
-59.475
 20
-89.4309
 11
-59.2172
 21
-89.3161
  0
LINE
  8
0
 10
-59.2172
 20
-89.3161
 11
-58.9411
 21
-89.2574
  0
LINE
  8
0
 10
-58.9411
 20
-89.2574
 11
-58.6589
 21
-89.2574
  0
LINE
  8
0
 10
-58.6589
 20
-89.2574
 11
-58.3828
 21
-89.3161
  0
LINE
  8
0
 10
-58.3828
 20
-89.3161
 11
-58.125
 21
-89.4309
  0
LINE
  8
0
 10
-58.125
 20
-89.4309
 11
-57.8967
 21
-89.5968
  0
LINE
  8
0
 10
-57.8967
 20
-89.5968
 11
-57.7078
 21
-89.8065
  0
LINE
  8
0
 10
-57.7078
 20
-89.8065
 11
-57.5667
 21
-90.0509
  0
LINE
  8
0
 10
-57.5667
 20
-90.0509
 11
-57.4795
 21
-90.3193
  0
LINE
  8
0
 10
-57.4795
 20
-90.3193
 11
-57.45
 21
-90.6
  0
LINE
  8
0
 10
-57.45
 20
-90.6
 11
-57.4795
 21
-90.8807
  0
LINE
  8
0
 10
-57.4795
 20
-90.8807
 11
-57.5667
 21
-91.1491
  0
LINE
  8
0
 10
-57.5667
 20
-91.1491
 11
-57.7078
 21
-91.3935
  0
LINE
  8
0
 10
-57.7078
 20
-91.3935
 11
-57.8967
 21
-91.6032
  0
LINE
  8
0
 10
-57.8967
 20
-91.6032
 11
-58.125
 21
-91.7691
  0
LINE
  8
0
 10
-58.125
 20
-91.7691
 11
-58.3828
 21
-91.8839
  0
LINE
  8
0
 10
-58.3828
 20
-91.8839
 11
-58.6589
 21
-91.9426
  0
LINE
  8
0
 10
-58.6589
 20
-91.9426
 11
-58.9411
 21
-91.9426
  0
LINE
  8
0
 10
-58.9411
 20
-91.9426
 11
-59.2172
 21
-91.8839
  0
LINE
  8
0
 10
-59.2172
 20
-91.8839
 11
-59.475
 21
-91.7691
  0
LINE
  8
0
 10
-59.475
 20
-91.7691
 11
-59.7033
 21
-91.6032
  0
LINE
  8
0
 10
-59.7033
 20
-91.6032
 11
-59.8922
 21
-91.3935
  0
LINE
  8
0
 10
-59.8922
 20
-91.3935
 11
-60.0333
 21
-91.1491
  0
LINE
  8
0
 10
-60.0333
 20
-91.1491
 11
-60.1205
 21
-90.8807
  0
LINE
  8
0
 10
-60.1205
 20
-90.8807
 11
-60.15
 21
-90.6
  0
LINE
  8
0
 10
-60.15
 20
90.6
 11
-60.1205
 21
90.8807
  0
LINE
  8
0
 10
-60.1205
 20
90.8807
 11
-60.0333
 21
91.1491
  0
LINE
  8
0
 10
-60.0333
 20
91.1491
 11
-59.8922
 21
91.3935
  0
LINE
  8
0
 10
-59.8922
 20
91.3935
 11
-59.7033
 21
91.6032
  0
LINE
  8
0
 10
-59.7033
 20
91.6032
 11
-59.475
 21
91.7691
  0
LINE
  8
0
 10
-59.475
 20
91.7691
 11
-59.2172
 21
91.8839
  0
LINE
  8
0
 10
-59.2172
 20
91.8839
 11
-58.9411
 21
91.9426
  0
LINE
  8
0
 10
-58.9411
 20
91.9426
 11
-58.6589
 21
91.9426
  0
LINE
  8
0
 10
-58.6589
 20
91.9426
 11
-58.3828
 21
91.8839
  0
LINE
  8
0
 10
-58.3828
 20
91.8839
 11
-58.125
 21
91.7691
  0
LINE
  8
0
 10
-58.125
 20
91.7691
 11
-57.8967
 21
91.6032
  0
LINE
  8
0
 10
-57.8967
 20
91.6032
 11
-57.7078
 21
91.3935
  0
LINE
  8
0
 10
-57.7078
 20
91.3935
 11
-57.5667
 21
91.1491
  0
LINE
  8
0
 10
-57.5667
 20
91.1491
 11
-57.4795
 21
90.8807
  0
LINE
  8
0
 10
-57.4795
 20
90.8807
 11
-57.45
 21
90.6
  0
LINE
  8
0
 10
-57.45
 20
90.6
 11
-57.4795
 21
90.3193
  0
LINE
  8
0
 10
-57.4795
 20
90.3193
 11
-57.5667
 21
90.0509
  0
LINE
  8
0
 10
-57.5667
 20
90.0509
 11
-57.7078
 21
89.8065
  0
LINE
  8
0
 10
-57.7078
 20
89.8065
 11
-57.8967
 21
89.5968
  0
LINE
  8
0
 10
-57.8967
 20
89.5968
 11
-58.125
 21
89.4309
  0
LINE
  8
0
 10
-58.125
 20
89.4309
 11
-58.3828
 21
89.3161
  0
LINE
  8
0
 10
-58.3828
 20
89.3161
 11
-58.6589
 21
89.2574
  0
LINE
  8
0
 10
-58.6589
 20
89.2574
 11
-58.9411
 21
89.2574
  0
LINE
  8
0
 10
-58.9411
 20
89.2574
 11
-59.2172
 21
89.3161
  0
LINE
  8
0
 10
-59.2172
 20
89.3161
 11
-59.475
 21
89.4309
  0
LINE
  8
0
 10
-59.475
 20
89.4309
 11
-59.7033
 21
89.5968
  0
LINE
  8
0
 10
-59.7033
 20
89.5968
 11
-59.8922
 21
89.8065
  0
LINE
  8
0
 10
-59.8922
 20
89.8065
 11
-60.0333
 21
90.0509
  0
LINE
  8
0
 10
-60.0333
 20
90.0509
 11
-60.1205
 21
90.3193
  0
LINE
  8
0
 10
-60.1205
 20
90.3193
 11
-60.15
 21
90.6
  0
LINE
  8
0
 10
-50.55
 20
-87.4
 11
-50.55
 21
87.4
  0
LINE
  8
0
 10
-50.55
 20
87.4
 11
-50.5205
 21
87.6807
  0
LINE
  8
0
 10
-50.5205
 20
87.6807
 11
-50.4333
 21
87.9491
  0
LINE
  8
0
 10
-50.4333
 20
87.9491
 11
-50.2922
 21
88.1935
  0
LINE
  8
0
 10
-50.2922
 20
88.1935
 11
-50.1033
 21
88.4032
  0
LINE
  8
0
 10
-50.1033
 20
88.4032
 11
-49.875
 21
88.5691
  0
LINE
  8
0
 10
-49.875
 20
88.5691
 11
-49.6172
 21
88.6839
  0
LINE
  8
0
 10
-49.6172
 20
88.6839
 11
-49.3411
 21
88.7426
  0
LINE
  8
0
 10
-49.3411
 20
88.7426
 11
49.3411
 21
88.7426
  0
LINE
  8
0
 10
49.3411
 20
88.7426
 11
49.6172
 21
88.6839
  0
LINE
  8
0
 10
49.6172
 20
88.6839
 11
49.875
 21
88.5691
  0
LINE
  8
0
 10
49.875
 20
88.5691
 11
50.1033
 21
88.4032
  0
LINE
  8
0
 10
50.1033
 20
88.4032
 11
50.2922
 21
88.1935
  0
LINE
  8
0
 10
50.2922
 20
88.1935
 11
50.4333
 21
87.9491
  0
LINE
  8
0
 10
50.4333
 20
87.9491
 11
50.5205
 21
87.6807
  0
LINE
  8
0
 10
50.5205
 20
87.6807
 11
50.55
 21
87.4
  0
LINE
  8
0
 10
50.55
 20
87.4
 11
50.55
 21
-87.4
  0
LINE
  8
0
 10
50.55
 20
-87.4
 11
50.5205
 21
-87.6807
  0
LINE
  8
0
 10
50.5205
 20
-87.6807
 11
50.4333
 21
-87.9491
  0
LINE
  8
0
 10
50.4333
 20
-87.9491
 11
50.2922
 21
-88.1935
  0
LINE
  8
0
 10
50.2922
 20
-88.1935
 11
50.1033
 21
-88.4032
  0
LINE
  8
0
 10
50.1033
 20
-88.4032
 11
49.875
 21
-88.5691
  0
LINE
  8
0
 10
49.875
 20
-88.5691
 11
49.6172
 21
-88.6839
  0
LINE
  8
0
 10
49.6172
 20
-88.6839
 11
49.3411
 21
-88.7426
  0
LINE
  8
0
 10
49.3411
 20
-88.7426
 11
-49.3411
 21
-88.7426
  0
LINE
  8
0
 10
-49.3411
 20
-88.7426
 11
-49.6172
 21
-88.6839
  0
LINE
  8
0
 10
-49.6172
 20
-88.6839
 11
-49.875
 21
-88.5691
  0
LINE
  8
0
 10
-49.875
 20
-88.5691
 11
-50.1033
 21
-88.4032
  0
LINE
  8
0
 10
-50.1033
 20
-88.4032
 11
-50.2922
 21
-88.1935
  0
LINE
  8
0
 10
-50.2922
 20
-88.1935
 11
-50.4333
 21
-87.9491
  0
LINE
  8
0
 10
-50.4333
 20
-87.9491
 11
-50.5205
 21
-87.6807
  0
LINE
  8
0
 10
-50.5205
 20
-87.6807
 11
-50.55
 21
-87.4
  0
LINE
  8
0
 10
57.45
 20
-90.6
 11
57.4795
 21
-90.3193
  0
LINE
  8
0
 10
57.4795
 20
-90.3193
 11
57.5667
 21
-90.0509
  0
LINE
  8
0
 10
57.5667
 20
-90.0509
 11
57.7078
 21
-89.8065
  0
LINE
  8
0
 10
57.7078
 20
-89.8065
 11
57.8967
 21
-89.5968
  0
LINE
  8
0
 10
57.8967
 20
-89.5968
 11
58.125
 21
-89.4309
  0
LINE
  8
0
 10
58.125
 20
-89.4309
 11
58.3828
 21
-89.3161
  0
LINE
  8
0
 10
58.3828
 20
-89.3161
 11
58.6589
 21
-89.2574
  0
LINE
  8
0
 10
58.6589
 20
-89.2574
 11
58.9411
 21
-89.2574
  0
LINE
  8
0
 10
58.9411
 20
-89.2574
 11
59.2172
 21
-89.3161
  0
LINE
  8
0
 10
59.2172
 20
-89.3161
 11
59.475
 21
-89.4309
  0
LINE
  8
0
 10
59.475
 20
-89.4309
 11
59.7033
 21
-89.5968
  0
LINE
  8
0
 10
59.7033
 20
-89.5968
 11
59.8922
 21
-89.8065
  0
LINE
  8
0
 10
59.8922
 20
-89.8065
 11
60.0333
 21
-90.0509
  0
LINE
  8
0
 10
60.0333
 20
-90.0509
 11
60.1205
 21
-90.3193
  0
LINE
  8
0
 10
60.1205
 20
-90.3193
 11
60.15
 21
-90.6
  0
LINE
  8
0
 10
60.15
 20
-90.6
 11
60.1205
 21
-90.8807
  0
LINE
  8
0
 10
60.1205
 20
-90.8807
 11
60.0333
 21
-91.1491
  0
LINE
  8
0
 10
60.0333
 20
-91.1491
 11
59.8922
 21
-91.3935
  0
LINE
  8
0
 10
59.8922
 20
-91.3935
 11
59.7033
 21
-91.6032
  0
LINE
  8
0
 10
59.7033
 20
-91.6032
 11
59.475
 21
-91.7691
  0
LINE
  8
0
 10
59.475
 20
-91.7691
 11
59.2172
 21
-91.8839
  0
LINE
  8
0
 10
59.2172
 20
-91.8839
 11
58.9411
 21
-91.9426
  0
LINE
  8
0
 10
58.9411
 20
-91.9426
 11
58.6589
 21
-91.9426
  0
LINE
  8
0
 10
58.6589
 20
-91.9426
 11
58.3828
 21
-91.8839
  0
LINE
  8
0
 10
58.3828
 20
-91.8839
 11
58.125
 21
-91.7691
  0
LINE
  8
0
 10
58.125
 20
-91.7691
 11
57.8967
 21
-91.6032
  0
LINE
  8
0
 10
57.8967
 20
-91.6032
 11
57.7078
 21
-91.3935
  0
LINE
  8
0
 10
57.7078
 20
-91.3935
 11
57.5667
 21
-91.1491
  0
LINE
  8
0
 10
57.5667
 20
-91.1491
 11
57.4795
 21
-90.8807
  0
LINE
  8
0
 10
57.4795
 20
-90.8807
 11
57.45
 21
-90.6
  0
LINE
  8
0
 10
57.45
 20
90.6
 11
57.4795
 21
90.8807
  0
LINE
  8
0
 10
57.4795
 20
90.8807
 11
57.5667
 21
91.1491
  0
LINE
  8
0
 10
57.5667
 20
91.1491
 11
57.7078
 21
91.3935
  0
LINE
  8
0
 10
57.7078
 20
91.3935
 11
57.8967
 21
91.6032
  0
LINE
  8
0
 10
57.8967
 20
91.6032
 11
58.125
 21
91.7691
  0
LINE
  8
0
 10
58.125
 20
91.7691
 11
58.3828
 21
91.8839
  0
LINE
  8
0
 10
58.3828
 20
91.8839
 11
58.6589
 21
91.9426
  0
LINE
  8
0
 10
58.6589
 20
91.9426
 11
58.9411
 21
91.9426
  0
LINE
  8
0
 10
58.9411
 20
91.9426
 11
59.2172
 21
91.8839
  0
LINE
  8
0
 10
59.2172
 20
91.8839
 11
59.475
 21
91.7691
  0
LINE
  8
0
 10
59.475
 20
91.7691
 11
59.7033
 21
91.6032
  0
LINE
  8
0
 10
59.7033
 20
91.6032
 11
59.8922
 21
91.3935
  0
LINE
  8
0
 10
59.8922
 20
91.3935
 11
60.0333
 21
91.1491
  0
LINE
  8
0
 10
60.0333
 20
91.1491
 11
60.1205
 21
90.8807
  0
LINE
  8
0
 10
60.1205
 20
90.8807
 11
60.15
 21
90.6
  0
LINE
  8
0
 10
60.15
 20
90.6
 11
60.1205
 21
90.3193
  0
LINE
  8
0
 10
60.1205
 20
90.3193
 11
60.0333
 21
90.0509
  0
LINE
  8
0
 10
60.0333
 20
90.0509
 11
59.8922
 21
89.8065
  0
LINE
  8
0
 10
59.8922
 20
89.8065
 11
59.7033
 21
89.5968
  0
LINE
  8
0
 10
59.7033
 20
89.5968
 11
59.475
 21
89.4309
  0
LINE
  8
0
 10
59.475
 20
89.4309
 11
59.2172
 21
89.3161
  0
LINE
  8
0
 10
59.2172
 20
89.3161
 11
58.9411
 21
89.2574
  0
LINE
  8
0
 10
58.9411
 20
89.2574
 11
58.6589
 21
89.2574
  0
LINE
  8
0
 10
58.6589
 20
89.2574
 11
58.3828
 21
89.3161
  0
LINE
  8
0
 10
58.3828
 20
89.3161
 11
58.125
 21
89.4309
  0
LINE
  8
0
 10
58.125
 20
89.4309
 11
57.8967
 21
89.5968
  0
LINE
  8
0
 10
57.8967
 20
89.5968
 11
57.7078
 21
89.8065
  0
LINE
  8
0
 10
57.7078
 20
89.8065
 11
57.5667
 21
90.0509
  0
LINE
  8
0
 10
57.5667
 20
90.0509
 11
57.4795
 21
90.3193
  0
LINE
  8
0
 10
57.4795
 20
90.3193
 11
57.45
 21
90.6
  0
ENDSEC
  0
SECTION
  2
OBJECTS
  0
DICTIONARY
  0
ENDSEC
  0
EOF
