  0
SECTION
  2
BLOCKS
  0
ENDSEC
  0
SECTION
  2
ENTITIES
  0
LINE
  8
0
 10
-40.69
 20
0
 11
-40.6342
 21
-2.12955
  0
LINE
  8
0
 10
-40.6342
 20
-2.12955
 11
-40.4671
 21
-4.25326
  0
LINE
  8
0
 10
-40.4671
 20
-4.25326
 11
-40.189
 21
-6.36532
  0
LINE
  8
0
 10
-40.189
 20
-6.36532
 11
-39.8008
 21
-8.45993
  0
LINE
  8
0
 10
-39.8008
 20
-8.45993
 11
-39.3035
 21
-10.5313
  0
LINE
  8
0
 10
-39.3035
 20
-10.5313
 11
-38.6985
 21
-12.5739
  0
LINE
  8
0
 10
-38.6985
 20
-12.5739
 11
-37.9874
 21
-14.582
  0
LINE
  8
0
 10
-37.9874
 20
-14.582
 11
-37.1722
 21
-16.5501
  0
LINE
  8
0
 10
-37.1722
 20
-16.5501
 11
-36.2551
 21
-18.4729
  0
LINE
  8
0
 10
-36.2551
 20
-18.4729
 11
-35.2386
 21
-20.345
  0
LINE
  8
0
 10
-35.2386
 20
-20.345
 11
-34.1255
 21
-22.1614
  0
LINE
  8
0
 10
-34.1255
 20
-22.1614
 11
-32.9189
 21
-23.917
  0
LINE
  8
0
 10
-32.9189
 20
-23.917
 11
-31.6221
 21
-25.607
  0
LINE
  8
0
 10
-31.6221
 20
-25.607
 11
-30.2386
 21
-27.2269
  0
LINE
  8
0
 10
-30.2386
 20
-27.2269
 11
-28.7722
 21
-28.7722
  0
LINE
  8
0
 10
-28.7722
 20
-28.7722
 11
-27.2269
 21
-30.2386
  0
LINE
  8
0
 10
-27.2269
 20
-30.2386
 11
-25.607
 21
-31.6221
  0
LINE
  8
0
 10
-25.607
 20
-31.6221
 11
-23.917
 21
-32.9189
  0
LINE
  8
0
 10
-23.917
 20
-32.9189
 11
-22.1614
 21
-34.1255
  0
LINE
  8
0
 10
-22.1614
 20
-34.1255
 11
-20.345
 21
-35.2386
  0
LINE
  8
0
 10
-20.345
 20
-35.2386
 11
-18.4729
 21
-36.2551
  0
LINE
  8
0
 10
-18.4729
 20
-36.2551
 11
-16.5501
 21
-37.1722
  0
LINE
  8
0
 10
-16.5501
 20
-37.1722
 11
-14.582
 21
-37.9874
  0
LINE
  8
0
 10
-14.582
 20
-37.9874
 11
-12.5739
 21
-38.6985
  0
LINE
  8
0
 10
-12.5739
 20
-38.6985
 11
-10.5313
 21
-39.3035
  0
LINE
  8
0
 10
-10.5313
 20
-39.3035
 11
-8.45993
 21
-39.8008
  0
LINE
  8
0
 10
-8.45993
 20
-39.8008
 11
-6.36532
 21
-40.189
  0
LINE
  8
0
 10
-6.36532
 20
-40.189
 11
-4.25326
 21
-40.4671
  0
LINE
  8
0
 10
-4.25326
 20
-40.4671
 11
-2.12955
 21
-40.6342
  0
LINE
  8
0
 10
-2.12955
 20
-40.6342
 11
0
 21
-40.69
  0
LINE
  8
0
 10
0
 20
-40.69
 11
2.12955
 21
-40.6342
  0
LINE
  8
0
 10
2.12955
 20
-40.6342
 11
4.25326
 21
-40.4671
  0
LINE
  8
0
 10
4.25326
 20
-40.4671
 11
6.36532
 21
-40.189
  0
LINE
  8
0
 10
6.36532
 20
-40.189
 11
8.45993
 21
-39.8008
  0
LINE
  8
0
 10
8.45993
 20
-39.8008
 11
10.5313
 21
-39.3035
  0
LINE
  8
0
 10
10.5313
 20
-39.3035
 11
12.5739
 21
-38.6985
  0
LINE
  8
0
 10
12.5739
 20
-38.6985
 11
14.582
 21
-37.9874
  0
LINE
  8
0
 10
14.582
 20
-37.9874
 11
16.5501
 21
-37.1722
  0
LINE
  8
0
 10
16.5501
 20
-37.1722
 11
18.4729
 21
-36.2551
  0
LINE
  8
0
 10
18.4729
 20
-36.2551
 11
20.345
 21
-35.2386
  0
LINE
  8
0
 10
20.345
 20
-35.2386
 11
22.1614
 21
-34.1255
  0
LINE
  8
0
 10
22.1614
 20
-34.1255
 11
23.917
 21
-32.9189
  0
LINE
  8
0
 10
23.917
 20
-32.9189
 11
25.607
 21
-31.6221
  0
LINE
  8
0
 10
25.607
 20
-31.6221
 11
27.2269
 21
-30.2386
  0
LINE
  8
0
 10
27.2269
 20
-30.2386
 11
28.7722
 21
-28.7722
  0
LINE
  8
0
 10
28.7722
 20
-28.7722
 11
30.2386
 21
-27.2269
  0
LINE
  8
0
 10
30.2386
 20
-27.2269
 11
31.6221
 21
-25.607
  0
LINE
  8
0
 10
31.6221
 20
-25.607
 11
32.9189
 21
-23.917
  0
LINE
  8
0
 10
32.9189
 20
-23.917
 11
34.1255
 21
-22.1614
  0
LINE
  8
0
 10
34.1255
 20
-22.1614
 11
35.2386
 21
-20.345
  0
LINE
  8
0
 10
35.2386
 20
-20.345
 11
36.2551
 21
-18.4729
  0
LINE
  8
0
 10
36.2551
 20
-18.4729
 11
37.1722
 21
-16.5501
  0
LINE
  8
0
 10
37.1722
 20
-16.5501
 11
37.9874
 21
-14.582
  0
LINE
  8
0
 10
37.9874
 20
-14.582
 11
38.6985
 21
-12.5739
  0
LINE
  8
0
 10
38.6985
 20
-12.5739
 11
39.3035
 21
-10.5313
  0
LINE
  8
0
 10
39.3035
 20
-10.5313
 11
39.8008
 21
-8.45993
  0
LINE
  8
0
 10
39.8008
 20
-8.45993
 11
40.189
 21
-6.36532
  0
LINE
  8
0
 10
40.189
 20
-6.36532
 11
40.4671
 21
-4.25326
  0
LINE
  8
0
 10
40.4671
 20
-4.25326
 11
40.6342
 21
-2.12955
  0
LINE
  8
0
 10
40.6342
 20
-2.12955
 11
40.69
 21
0
  0
LINE
  8
0
 10
40.69
 20
0
 11
40.6342
 21
2.12955
  0
LINE
  8
0
 10
40.6342
 20
2.12955
 11
40.4671
 21
4.25326
  0
LINE
  8
0
 10
40.4671
 20
4.25326
 11
40.189
 21
6.36532
  0
LINE
  8
0
 10
40.189
 20
6.36532
 11
39.8008
 21
8.45993
  0
LINE
  8
0
 10
39.8008
 20
8.45993
 11
39.3035
 21
10.5313
  0
LINE
  8
0
 10
39.3035
 20
10.5313
 11
38.6985
 21
12.5739
  0
LINE
  8
0
 10
38.6985
 20
12.5739
 11
37.9874
 21
14.582
  0
LINE
  8
0
 10
37.9874
 20
14.582
 11
37.1722
 21
16.5501
  0
LINE
  8
0
 10
37.1722
 20
16.5501
 11
36.2551
 21
18.4729
  0
LINE
  8
0
 10
36.2551
 20
18.4729
 11
35.2386
 21
20.345
  0
LINE
  8
0
 10
35.2386
 20
20.345
 11
34.1255
 21
22.1614
  0
LINE
  8
0
 10
34.1255
 20
22.1614
 11
32.9189
 21
23.917
  0
LINE
  8
0
 10
32.9189
 20
23.917
 11
31.6221
 21
25.607
  0
LINE
  8
0
 10
31.6221
 20
25.607
 11
30.2386
 21
27.2269
  0
LINE
  8
0
 10
30.2386
 20
27.2269
 11
28.7722
 21
28.7722
  0
LINE
  8
0
 10
28.7722
 20
28.7722
 11
27.2269
 21
30.2386
  0
LINE
  8
0
 10
27.2269
 20
30.2386
 11
25.607
 21
31.6221
  0
LINE
  8
0
 10
25.607
 20
31.6221
 11
23.917
 21
32.9189
  0
LINE
  8
0
 10
23.917
 20
32.9189
 11
22.1614
 21
34.1255
  0
LINE
  8
0
 10
22.1614
 20
34.1255
 11
20.345
 21
35.2386
  0
LINE
  8
0
 10
20.345
 20
35.2386
 11
18.4729
 21
36.2551
  0
LINE
  8
0
 10
18.4729
 20
36.2551
 11
16.5501
 21
37.1722
  0
LINE
  8
0
 10
16.5501
 20
37.1722
 11
14.582
 21
37.9874
  0
LINE
  8
0
 10
14.582
 20
37.9874
 11
12.5739
 21
38.6985
  0
LINE
  8
0
 10
12.5739
 20
38.6985
 11
10.5313
 21
39.3035
  0
LINE
  8
0
 10
10.5313
 20
39.3035
 11
8.45993
 21
39.8008
  0
LINE
  8
0
 10
8.45993
 20
39.8008
 11
6.36532
 21
40.189
  0
LINE
  8
0
 10
6.36532
 20
40.189
 11
4.25326
 21
40.4671
  0
LINE
  8
0
 10
4.25326
 20
40.4671
 11
2.12955
 21
40.6342
  0
LINE
  8
0
 10
2.12955
 20
40.6342
 11
0
 21
40.69
  0
LINE
  8
0
 10
0
 20
40.69
 11
-2.12955
 21
40.6342
  0
LINE
  8
0
 10
-2.12955
 20
40.6342
 11
-4.25326
 21
40.4671
  0
LINE
  8
0
 10
-4.25326
 20
40.4671
 11
-6.36532
 21
40.189
  0
LINE
  8
0
 10
-6.36532
 20
40.189
 11
-8.45993
 21
39.8008
  0
LINE
  8
0
 10
-8.45993
 20
39.8008
 11
-10.5313
 21
39.3035
  0
LINE
  8
0
 10
-10.5313
 20
39.3035
 11
-12.5739
 21
38.6985
  0
LINE
  8
0
 10
-12.5739
 20
38.6985
 11
-14.582
 21
37.9874
  0
LINE
  8
0
 10
-14.582
 20
37.9874
 11
-16.5501
 21
37.1722
  0
LINE
  8
0
 10
-16.5501
 20
37.1722
 11
-18.4729
 21
36.2551
  0
LINE
  8
0
 10
-18.4729
 20
36.2551
 11
-20.345
 21
35.2386
  0
LINE
  8
0
 10
-20.345
 20
35.2386
 11
-22.1614
 21
34.1255
  0
LINE
  8
0
 10
-22.1614
 20
34.1255
 11
-23.917
 21
32.9189
  0
LINE
  8
0
 10
-23.917
 20
32.9189
 11
-25.607
 21
31.6221
  0
LINE
  8
0
 10
-25.607
 20
31.6221
 11
-27.2269
 21
30.2386
  0
LINE
  8
0
 10
-27.2269
 20
30.2386
 11
-28.7722
 21
28.7722
  0
LINE
  8
0
 10
-28.7722
 20
28.7722
 11
-30.2386
 21
27.2269
  0
LINE
  8
0
 10
-30.2386
 20
27.2269
 11
-31.6221
 21
25.607
  0
LINE
  8
0
 10
-31.6221
 20
25.607
 11
-32.9189
 21
23.917
  0
LINE
  8
0
 10
-32.9189
 20
23.917
 11
-34.1255
 21
22.1614
  0
LINE
  8
0
 10
-34.1255
 20
22.1614
 11
-35.2386
 21
20.345
  0
LINE
  8
0
 10
-35.2386
 20
20.345
 11
-36.2551
 21
18.4729
  0
LINE
  8
0
 10
-36.2551
 20
18.4729
 11
-37.1722
 21
16.5501
  0
LINE
  8
0
 10
-37.1722
 20
16.5501
 11
-37.9874
 21
14.582
  0
LINE
  8
0
 10
-37.9874
 20
14.582
 11
-38.6985
 21
12.5739
  0
LINE
  8
0
 10
-38.6985
 20
12.5739
 11
-39.3035
 21
10.5313
  0
LINE
  8
0
 10
-39.3035
 20
10.5313
 11
-39.8008
 21
8.45993
  0
LINE
  8
0
 10
-39.8008
 20
8.45993
 11
-40.189
 21
6.36532
  0
LINE
  8
0
 10
-40.189
 20
6.36532
 11
-40.4671
 21
4.25326
  0
LINE
  8
0
 10
-40.4671
 20
4.25326
 11
-40.6342
 21
2.12955
  0
LINE
  8
0
 10
-40.6342
 20
2.12955
 11
-40.69
 21
0
  0
LINE
  8
0
 10
-39.1825
 20
0.541668
 11
-39.0139
 21
1.42573
  0
LINE
  8
0
 10
-39.0139
 20
1.42573
 11
-36.7546
 21
0.99475
  0
LINE
  8
0
 10
-36.7546
 20
0.99475
 11
-36.9233
 21
0.110691
  0
LINE
  8
0
 10
-36.9233
 20
0.110691
 11
-39.1825
 21
0.541668
  0
LINE
  8
0
 10
-39.1392
 20
-1.91969
 11
-39.0264
 21
-1.02679
  0
LINE
  8
0
 10
-39.0264
 20
-1.02679
 11
-36.7446
 21
-1.31505
  0
LINE
  8
0
 10
-36.7446
 20
-1.31505
 11
-36.8574
 21
-2.20796
  0
LINE
  8
0
 10
-36.8574
 20
-2.20796
 11
-39.1392
 21
-1.91969
  0
LINE
  8
0
 10
-39.0712
 20
3.00089
 11
-38.8474
 21
3.87262
  0
LINE
  8
0
 10
-38.8474
 20
3.87262
 11
-36.6196
 21
3.30063
  0
LINE
  8
0
 10
-36.6196
 20
3.30063
 11
-36.8435
 21
2.4289
  0
LINE
  8
0
 10
-36.8435
 20
2.4289
 11
-39.0712
 21
3.00089
  0
LINE
  8
0
 10
-38.9415
 20
-4.37348
 11
-38.8849
 21
-3.47525
  0
LINE
  8
0
 10
-38.8849
 20
-3.47525
 11
-36.5895
 21
-3.61967
  0
LINE
  8
0
 10
-36.5895
 20
-3.61967
 11
-36.646
 21
-4.51789
  0
LINE
  8
0
 10
-36.646
 20
-4.51789
 11
-38.9415
 21
-4.37348
  0
LINE
  8
0
 10
-38.8057
 20
5.44827
 11
-38.5276
 21
6.30422
  0
LINE
  8
0
 10
-38.5276
 20
6.30422
 11
-36.3401
 21
5.59348
  0
LINE
  8
0
 10
-36.3401
 20
5.59348
 11
-36.6182
 21
4.73753
  0
LINE
  8
0
 10
-36.6182
 20
4.73753
 11
-38.8057
 21
5.44827
  0
LINE
  8
0
 10
-38.59
 20
-6.81
 11
-38.59
 21
-5.91
  0
LINE
  8
0
 10
-38.59
 20
-5.91
 11
-36.29
 21
-5.91
  0
LINE
  8
0
 10
-36.29
 20
-5.91
 11
-36.29
 21
-6.81
  0
LINE
  8
0
 10
-36.29
 20
-6.81
 11
-38.59
 21
-6.81
  0
LINE
  8
0
 10
-38.387
 20
7.87415
 11
-38.0557
 21
8.71095
  0
LINE
  8
0
 10
-38.0557
 20
8.71095
 11
-35.9172
 21
7.86426
  0
LINE
  8
0
 10
-35.9172
 20
7.86426
 11
-36.2485
 21
7.02746
  0
LINE
  8
0
 10
-36.2485
 20
7.02746
 11
-38.387
 21
7.87415
  0
LINE
  8
0
 10
-38.1428
 20
-8.32142
 11
-35.8473
 21
-8.17701
  0
LINE
  8
0
 10
-35.8473
 20
-8.17701
 11
-35.7908
 21
-9.07523
  0
LINE
  8
0
 10
-35.7908
 20
-9.07523
 11
-38.0862
 21
-9.21965
  0
LINE
  8
0
 10
-38.0862
 20
-9.21965
 11
-38.1428
 21
-8.32142
  0
LINE
  8
0
 10
-37.8168
 20
10.269
 11
-37.4336
 21
11.0833
  0
LINE
  8
0
 10
-37.4336
 20
11.0833
 11
-35.3525
 21
10.104
  0
LINE
  8
0
 10
-35.3525
 20
10.104
 11
-35.7357
 21
9.28966
  0
LINE
  8
0
 10
-35.7357
 20
9.28966
 11
-37.8168
 21
10.269
  0
LINE
  8
0
 10
-37.545
 20
-10.7
 11
-35.2631
 21
-10.4117
  0
LINE
  8
0
 10
-35.2631
 20
-10.4117
 11
-35.1503
 21
-11.3046
  0
LINE
  8
0
 10
-35.1503
 20
-11.3046
 11
-37.4322
 21
-11.5929
  0
LINE
  8
0
 10
-37.4322
 20
-11.5929
 11
-37.545
 21
-10.7
  0
LINE
  8
0
 10
-37.0974
 20
12.6232
 11
-36.6638
 21
13.4119
  0
LINE
  8
0
 10
-36.6638
 20
13.4119
 11
-34.6483
 21
12.3039
  0
LINE
  8
0
 10
-34.6483
 20
12.3039
 11
-35.0819
 21
11.5152
  0
LINE
  8
0
 10
-35.0819
 20
11.5152
 11
-37.0974
 21
12.6232
  0
LINE
  8
0
 10
-36.799
 20
-13.0364
 11
-34.5398
 21
-12.6054
  0
LINE
  8
0
 10
-34.5398
 20
-12.6054
 11
-34.3711
 21
-13.4894
  0
LINE
  8
0
 10
-34.3711
 20
-13.4894
 11
-36.6304
 21
-13.9204
  0
LINE
  8
0
 10
-36.6304
 20
-13.9204
 11
-36.799
 21
-13.0364
  0
LINE
  8
0
 10
-36.2316
 20
14.9277
 11
-35.7494
 21
15.6876
  0
LINE
  8
0
 10
-35.7494
 20
15.6876
 11
-33.8074
 21
14.4552
  0
LINE
  8
0
 10
-33.8074
 20
14.4552
 11
-34.2896
 21
13.6953
  0
LINE
  8
0
 10
-34.2896
 20
13.6953
 11
-36.2316
 21
14.9277
  0
LINE
  8
0
 10
-35.9079
 20
-15.3213
 11
-33.6801
 21
-14.7493
  0
LINE
  8
0
 10
-33.6801
 20
-14.7493
 11
-33.4563
 21
-15.621
  0
LINE
  8
0
 10
-33.4563
 20
-15.621
 11
-35.684
 21
-16.193
  0
LINE
  8
0
 10
-35.684
 20
-16.193
 11
-35.9079
 21
-15.3213
  0
LINE
  8
0
 10
-35.59
 20
-0.45
 11
-35.59
 21
0.45
  0
LINE
  8
0
 10
-35.59
 20
0.45
 11
-33.29
 21
0.45
  0
LINE
  8
0
 10
-33.29
 20
0.45
 11
-33.29
 21
-0.45
  0
LINE
  8
0
 10
-33.29
 20
-0.45
 11
-35.59
 21
-0.45
  0
LINE
  8
0
 10
-35.2228
 20
17.1732
 11
-34.6938
 21
17.9013
  0
LINE
  8
0
 10
-34.6938
 20
17.9013
 11
-32.833
 21
16.5494
  0
LINE
  8
0
 10
-32.833
 20
16.5494
 11
-33.362
 21
15.8213
  0
LINE
  8
0
 10
-33.362
 20
15.8213
 11
-35.2228
 21
17.1732
  0
LINE
  8
0
 10
-34.875
 20
-17.5457
 11
-32.6875
 21
-16.835
  0
LINE
  8
0
 10
-32.6875
 20
-16.835
 11
-32.4094
 21
-17.6909
  0
LINE
  8
0
 10
-32.4094
 20
-17.6909
 11
-34.5969
 21
-18.4017
  0
LINE
  8
0
 10
-34.5969
 20
-18.4017
 11
-34.875
 21
-17.5457
  0
LINE
  8
0
 10
-34.075
 20
19.351
 11
-33.5013
 21
20.0445
  0
LINE
  8
0
 10
-33.5013
 20
20.0445
 11
-31.7291
 21
18.5784
  0
LINE
  8
0
 10
-31.7291
 20
18.5784
 11
-32.3028
 21
17.8849
  0
LINE
  8
0
 10
-32.3028
 20
17.8849
 11
-34.075
 21
19.351
  0
LINE
  8
0
 10
-33.7045
 20
-19.7009
 11
-31.566
 21
-18.8542
  0
LINE
  8
0
 10
-31.566
 20
-18.8542
 11
-31.2347
 21
-19.691
  0
LINE
  8
0
 10
-31.2347
 20
-19.691
 11
-33.3731
 21
-20.5377
  0
LINE
  8
0
 10
-33.3731
 20
-20.5377
 11
-33.7045
 21
-19.7009
  0
LINE
  8
0
 10
-32.7927
 20
21.4524
 11
-32.1766
 21
22.1085
  0
LINE
  8
0
 10
-32.1766
 20
22.1085
 11
-30.4999
 21
20.534
  0
LINE
  8
0
 10
-30.4999
 20
20.534
 11
-31.116
 21
19.8779
  0
LINE
  8
0
 10
-31.116
 20
19.8779
 11
-32.7927
 21
21.4524
  0
LINE
  8
0
 10
-32.4009
 20
-21.7783
 11
-30.3198
 21
-20.7991
  0
LINE
  8
0
 10
-30.3198
 20
-20.7991
 11
-29.9366
 21
-21.6134
  0
LINE
  8
0
 10
-29.9366
 20
-21.6134
 11
-32.0177
 21
-22.5927
  0
LINE
  8
0
 10
-32.0177
 20
-22.5927
 11
-32.4009
 21
-21.7783
  0
LINE
  8
0
 10
-31.3809
 20
23.4691
 11
-30.7249
 21
24.0852
  0
LINE
  8
0
 10
-30.7249
 20
24.0852
 11
-29.1504
 21
22.4086
  0
LINE
  8
0
 10
-29.1504
 20
22.4086
 11
-29.8065
 21
21.7925
  0
LINE
  8
0
 10
-29.8065
 20
21.7925
 11
-31.3809
 21
23.4691
  0
LINE
  8
0
 10
-30.9695
 20
-23.7698
 11
-28.954
 21
-22.6618
  0
LINE
  8
0
 10
-28.954
 20
-22.6618
 11
-28.5204
 21
-23.4505
  0
LINE
  8
0
 10
-28.5204
 20
-23.4505
 11
-30.5359
 21
-24.5585
  0
LINE
  8
0
 10
-30.5359
 20
-24.5585
 11
-30.9695
 21
-23.7698
  0
LINE
  8
0
 10
-29.8454
 20
25.3932
 11
-29.1519
 21
25.9669
  0
LINE
  8
0
 10
-29.1519
 20
25.9669
 11
-27.6858
 21
24.1947
  0
LINE
  8
0
 10
-27.6858
 20
24.1947
 11
-28.3793
 21
23.6211
  0
LINE
  8
0
 10
-28.3793
 20
23.6211
 11
-29.8454
 21
25.3932
  0
LINE
  8
0
 10
-29.4159
 20
-25.6675
 11
-27.4739
 21
-24.4351
  0
LINE
  8
0
 10
-27.4739
 20
-24.4351
 11
-26.9917
 21
-25.195
  0
LINE
  8
0
 10
-26.9917
 20
-25.195
 11
-28.9336
 21
-26.4274
  0
LINE
  8
0
 10
-28.9336
 20
-26.4274
 11
-29.4159
 21
-25.6675
  0
LINE
  8
0
 10
-28.192
 20
27.2171
 11
-27.4639
 21
27.7462
  0
LINE
  8
0
 10
-27.4639
 20
27.7462
 11
-26.112
 21
25.8854
  0
LINE
  8
0
 10
-26.112
 20
25.8854
 11
-26.8401
 21
25.3564
  0
LINE
  8
0
 10
-26.8401
 20
25.3564
 11
-28.192
 21
27.2171
  0
LINE
  8
0
 10
-27.7462
 20
-27.4639
 11
-25.8854
 21
-26.112
  0
LINE
  8
0
 10
-25.8854
 20
-26.112
 11
-25.3564
 21
-26.8401
  0
LINE
  8
0
 10
-25.3564
 20
-26.8401
 11
-27.2171
 21
-28.192
  0
LINE
  8
0
 10
-27.2171
 20
-28.192
 11
-27.7462
 21
-27.4639
  0
LINE
  8
0
 10
-26.4274
 20
28.9336
 11
-25.6675
 21
29.4159
  0
LINE
  8
0
 10
-25.6675
 20
29.4159
 11
-24.4351
 21
27.4739
  0
LINE
  8
0
 10
-24.4351
 20
27.4739
 11
-25.195
 21
26.9917
  0
LINE
  8
0
 10
-25.195
 20
26.9917
 11
-26.4274
 21
28.9336
  0
LINE
  8
0
 10
-25.9669
 20
-29.1519
 11
-24.1947
 21
-27.6858
  0
LINE
  8
0
 10
-24.1947
 20
-27.6858
 11
-23.6211
 21
-28.3793
  0
LINE
  8
0
 10
-23.6211
 20
-28.3793
 11
-25.3932
 21
-29.8454
  0
LINE
  8
0
 10
-25.3932
 20
-29.8454
 11
-25.9669
 21
-29.1519
  0
LINE
  8
0
 10
-24.5585
 20
30.5359
 11
-23.7698
 21
30.9695
  0
LINE
  8
0
 10
-23.7698
 20
30.9695
 11
-22.6618
 21
28.954
  0
LINE
  8
0
 10
-22.6618
 20
28.954
 11
-23.4505
 21
28.5204
  0
LINE
  8
0
 10
-23.4505
 20
28.5204
 11
-24.5585
 21
30.5359
  0
LINE
  8
0
 10
-24.0852
 20
-30.7249
 11
-22.4086
 21
-29.1504
  0
LINE
  8
0
 10
-22.4086
 20
-29.1504
 11
-21.7925
 21
-29.8065
  0
LINE
  8
0
 10
-21.7925
 20
-29.8065
 11
-23.4691
 21
-31.3809
  0
LINE
  8
0
 10
-23.4691
 20
-31.3809
 11
-24.0852
 21
-30.7249
  0
LINE
  8
0
 10
-22.5927
 20
32.0177
 11
-21.7783
 21
32.4009
  0
LINE
  8
0
 10
-21.7783
 20
32.4009
 11
-20.7991
 21
30.3198
  0
LINE
  8
0
 10
-20.7991
 20
30.3198
 11
-21.6134
 21
29.9366
  0
LINE
  8
0
 10
-21.6134
 20
29.9366
 11
-22.5927
 21
32.0177
  0
LINE
  8
0
 10
-22.1085
 20
-32.1766
 11
-20.534
 21
-30.4999
  0
LINE
  8
0
 10
-20.534
 20
-30.4999
 11
-19.8779
 21
-31.116
  0
LINE
  8
0
 10
-19.8779
 20
-31.116
 11
-21.4524
 21
-32.7927
  0
LINE
  8
0
 10
-21.4524
 20
-32.7927
 11
-22.1085
 21
-32.1766
  0
LINE
  8
0
 10
-20.5377
 20
33.3731
 11
-19.7009
 21
33.7045
  0
LINE
  8
0
 10
-19.7009
 20
33.7045
 11
-18.8542
 21
31.566
  0
LINE
  8
0
 10
-18.8542
 20
31.566
 11
-19.691
 21
31.2347
  0
LINE
  8
0
 10
-19.691
 20
31.2347
 11
-20.5377
 21
33.3731
  0
LINE
  8
0
 10
-20.0445
 20
-33.5013
 11
-18.5784
 21
-31.7291
  0
LINE
  8
0
 10
-18.5784
 20
-31.7291
 11
-17.8849
 21
-32.3028
  0
LINE
  8
0
 10
-17.8849
 20
-32.3028
 11
-19.351
 21
-34.075
  0
LINE
  8
0
 10
-19.351
 20
-34.075
 11
-20.0445
 21
-33.5013
  0
LINE
  8
0
 10
-18.4017
 20
34.5969
 11
-17.5457
 21
34.875
  0
LINE
  8
0
 10
-17.5457
 20
34.875
 11
-16.835
 21
32.6875
  0
LINE
  8
0
 10
-16.835
 20
32.6875
 11
-17.6909
 21
32.4094
  0
LINE
  8
0
 10
-17.6909
 20
32.4094
 11
-18.4017
 21
34.5969
  0
LINE
  8
0
 10
-17.9013
 20
-34.6938
 11
-16.5494
 21
-32.833
  0
LINE
  8
0
 10
-16.5494
 20
-32.833
 11
-15.8213
 21
-33.362
  0
LINE
  8
0
 10
-15.8213
 20
-33.362
 11
-17.1732
 21
-35.2228
  0
LINE
  8
0
 10
-17.1732
 20
-35.2228
 11
-17.9013
 21
-34.6938
  0
LINE
  8
0
 10
-16.193
 20
35.684
 11
-15.3213
 21
35.9079
  0
LINE
  8
0
 10
-15.3213
 20
35.9079
 11
-14.7493
 21
33.6801
  0
LINE
  8
0
 10
-14.7493
 20
33.6801
 11
-15.621
 21
33.4563
  0
LINE
  8
0
 10
-15.621
 20
33.4563
 11
-16.193
 21
35.684
  0
LINE
  8
0
 10
-15.6876
 20
-35.7494
 11
-14.4552
 21
-33.8074
  0
LINE
  8
0
 10
-14.4552
 20
-33.8074
 11
-13.6953
 21
-34.2896
  0
LINE
  8
0
 10
-13.6953
 20
-34.2896
 11
-14.9277
 21
-36.2316
  0
LINE
  8
0
 10
-14.9277
 20
-36.2316
 11
-15.6876
 21
-35.7494
  0
LINE
  8
0
 10
-13.9204
 20
36.6304
 11
-13.0364
 21
36.799
  0
LINE
  8
0
 10
-13.0364
 20
36.799
 11
-12.6054
 21
34.5398
  0
LINE
  8
0
 10
-12.6054
 20
34.5398
 11
-13.4894
 21
34.3711
  0
LINE
  8
0
 10
-13.4894
 20
34.3711
 11
-13.9204
 21
36.6304
  0
LINE
  8
0
 10
-13.4119
 20
-36.6638
 11
-12.3039
 21
-34.6483
  0
LINE
  8
0
 10
-12.3039
 20
-34.6483
 11
-11.5152
 21
-35.0819
  0
LINE
  8
0
 10
-11.5152
 20
-35.0819
 11
-12.6232
 21
-37.0974
  0
LINE
  8
0
 10
-12.6232
 20
-37.0974
 11
-13.4119
 21
-36.6638
  0
LINE
  8
0
 10
-11.5929
 20
37.4322
 11
-10.7
 21
37.545
  0
LINE
  8
0
 10
-10.7
 20
37.545
 11
-10.4117
 21
35.2631
  0
LINE
  8
0
 10
-10.4117
 20
35.2631
 11
-11.3046
 21
35.1503
  0
LINE
  8
0
 10
-11.3046
 20
35.1503
 11
-11.5929
 21
37.4322
  0
LINE
  8
0
 10
-11.0833
 20
-37.4336
 11
-10.104
 21
-35.3525
  0
LINE
  8
0
 10
-10.104
 20
-35.3525
 11
-9.28966
 21
-35.7357
  0
LINE
  8
0
 10
-9.28966
 20
-35.7357
 11
-10.269
 21
-37.8168
  0
LINE
  8
0
 10
-10.269
 20
-37.8168
 11
-11.0833
 21
-37.4336
  0
LINE
  8
0
 10
-9.21965
 20
38.0862
 11
-8.32142
 21
38.1428
  0
LINE
  8
0
 10
-8.32142
 20
38.1428
 11
-8.17701
 21
35.8473
  0
LINE
  8
0
 10
-8.17701
 20
35.8473
 11
-9.07523
 21
35.7908
  0
LINE
  8
0
 10
-9.07523
 20
35.7908
 11
-9.21965
 21
38.0862
  0
LINE
  8
0
 10
-8.71095
 20
-38.0557
 11
-7.86426
 21
-35.9172
  0
LINE
  8
0
 10
-7.86426
 20
-35.9172
 11
-7.02746
 21
-36.2485
  0
LINE
  8
0
 10
-7.02746
 20
-36.2485
 11
-7.87415
 21
-38.387
  0
LINE
  8
0
 10
-7.87415
 20
-38.387
 11
-8.71095
 21
-38.0557
  0
LINE
  8
0
 10
-6.81
 20
36.29
 11
-6.81
 21
38.59
  0
LINE
  8
0
 10
-6.81
 20
38.59
 11
-5.91
 21
38.59
  0
LINE
  8
0
 10
-5.91
 20
38.59
 11
-5.91
 21
36.29
  0
LINE
  8
0
 10
-5.91
 20
36.29
 11
-6.81
 21
36.29
  0
LINE
  8
0
 10
-6.30422
 20
-38.5276
 11
-5.59348
 21
-36.3401
  0
LINE
  8
0
 10
-5.59348
 20
-36.3401
 11
-4.73753
 21
-36.6182
  0
LINE
  8
0
 10
-4.73753
 20
-36.6182
 11
-5.44827
 21
-38.8057
  0
LINE
  8
0
 10
-5.44827
 20
-38.8057
 11
-6.30422
 21
-38.5276
  0
LINE
  8
0
 10
-4.51789
 20
36.646
 11
-4.37348
 21
38.9415
  0
LINE
  8
0
 10
-4.37348
 20
38.9415
 11
-3.47525
 21
38.8849
  0
LINE
  8
0
 10
-3.47525
 20
38.8849
 11
-3.61967
 21
36.5895
  0
LINE
  8
0
 10
-3.61967
 20
36.5895
 11
-4.51789
 21
36.646
  0
LINE
  8
0
 10
-3.95
 20
-22
 11
-1.975
 21
-18.5792
  0
LINE
  8
0
 10
-1.975
 20
-18.5792
 11
1.975
 21
-18.5792
  0
LINE
  8
0
 10
1.975
 20
-18.5792
 11
3.95
 21
-22
  0
LINE
  8
0
 10
3.95
 20
-22
 11
1.975
 21
-25.4208
  0
LINE
  8
0
 10
1.975
 20
-25.4208
 11
-1.975
 21
-25.4208
  0
LINE
  8
0
 10
-1.975
 20
-25.4208
 11
-3.95
 21
-22
  0
LINE
  8
0
 10
-3.95
 20
22
 11
-1.975
 21
25.4208
  0
LINE
  8
0
 10
-1.975
 20
25.4208
 11
1.975
 21
25.4208
  0
LINE
  8
0
 10
1.975
 20
25.4208
 11
3.95
 21
22
  0
LINE
  8
0
 10
3.95
 20
22
 11
1.975
 21
18.5792
  0
LINE
  8
0
 10
1.975
 20
18.5792
 11
-1.975
 21
18.5792
  0
LINE
  8
0
 10
-1.975
 20
18.5792
 11
-3.95
 21
22
  0
LINE
  8
0
 10
-3.87262
 20
-38.8474
 11
-3.30063
 21
-36.6196
  0
LINE
  8
0
 10
-3.30063
 20
-36.6196
 11
-2.4289
 21
-36.8435
  0
LINE
  8
0
 10
-2.4289
 20
-36.8435
 11
-3.00089
 21
-39.0712
  0
LINE
  8
0
 10
-3.00089
 20
-39.0712
 11
-3.87262
 21
-38.8474
  0
LINE
  8
0
 10
-2.9
 20
0
 11
-2.89293
 21
0.202293
  0
LINE
  8
0
 10
-2.89293
 20
0.202293
 11
-2.87178
 21
0.403602
  0
LINE
  8
0
 10
-2.87178
 20
0.403602
 11
-2.83663
 21
0.602943
  0
LINE
  8
0
 10
-2.83663
 20
0.602943
 11
-2.78766
 21
0.799348
  0
LINE
  8
0
 10
-2.78766
 20
0.799348
 11
-2.72511
 21
0.991858
  0
LINE
  8
0
 10
-2.72511
 20
0.991858
 11
-2.64928
 21
1.17954
  0
LINE
  8
0
 10
-2.64928
 20
1.17954
 11
-2.56055
 21
1.36147
  0
LINE
  8
0
 10
-2.56055
 20
1.36147
 11
-2.45934
 21
1.53677
  0
LINE
  8
0
 10
-2.45934
 20
1.53677
 11
-2.34615
 21
1.70458
  0
LINE
  8
0
 10
-2.34615
 20
1.70458
 11
-2.22153
 21
1.86408
  0
LINE
  8
0
 10
-2.22153
 20
1.86408
 11
-2.08609
 21
2.01451
  0
LINE
  8
0
 10
-2.08609
 20
2.01451
 11
-1.94048
 21
2.15512
  0
LINE
  8
0
 10
-1.94048
 20
2.15512
 11
-1.78542
 21
2.28523
  0
LINE
  8
0
 10
-1.78542
 20
2.28523
 11
-1.62166
 21
2.40421
  0
LINE
  8
0
 10
-1.62166
 20
2.40421
 11
-1.45
 21
2.51147
  0
LINE
  8
0
 10
-1.45
 20
2.51147
 11
-1.27128
 21
2.6065
  0
LINE
  8
0
 10
-1.27128
 20
2.6065
 11
-1.08636
 21
2.68883
  0
LINE
  8
0
 10
-1.08636
 20
2.68883
 11
-0.896149
 21
2.75806
  0
LINE
  8
0
 10
-0.896149
 20
2.75806
 11
-0.701573
 21
2.81386
  0
LINE
  8
0
 10
-0.701573
 20
2.81386
 11
-0.503579
 21
2.85594
  0
LINE
  8
0
 10
-0.503579
 20
2.85594
 11
-0.303132
 21
2.88411
  0
LINE
  8
0
 10
-0.303132
 20
2.88411
 11
-0.101208
 21
2.89823
  0
LINE
  8
0
 10
-0.101208
 20
2.89823
 11
0.101208
 21
2.89823
  0
LINE
  8
0
 10
0.101208
 20
2.89823
 11
0.303132
 21
2.88411
  0
LINE
  8
0
 10
0.303132
 20
2.88411
 11
0.503579
 21
2.85594
  0
LINE
  8
0
 10
0.503579
 20
2.85594
 11
0.701573
 21
2.81386
  0
LINE
  8
0
 10
0.701573
 20
2.81386
 11
0.896149
 21
2.75806
  0
LINE
  8
0
 10
0.896149
 20
2.75806
 11
1.08636
 21
2.68883
  0
LINE
  8
0
 10
1.08636
 20
2.68883
 11
1.27128
 21
2.6065
  0
LINE
  8
0
 10
1.27128
 20
2.6065
 11
1.45
 21
2.51147
  0
LINE
  8
0
 10
1.45
 20
2.51147
 11
1.62166
 21
2.40421
  0
LINE
  8
0
 10
1.62166
 20
2.40421
 11
1.78542
 21
2.28523
  0
LINE
  8
0
 10
1.78542
 20
2.28523
 11
1.94048
 21
2.15512
  0
LINE
  8
0
 10
1.94048
 20
2.15512
 11
2.08609
 21
2.01451
  0
LINE
  8
0
 10
2.08609
 20
2.01451
 11
2.22153
 21
1.86408
  0
LINE
  8
0
 10
2.22153
 20
1.86408
 11
2.34615
 21
1.70458
  0
LINE
  8
0
 10
2.34615
 20
1.70458
 11
2.45934
 21
1.53677
  0
LINE
  8
0
 10
2.45934
 20
1.53677
 11
2.56055
 21
1.36147
  0
LINE
  8
0
 10
2.56055
 20
1.36147
 11
2.64928
 21
1.17954
  0
LINE
  8
0
 10
2.64928
 20
1.17954
 11
2.72511
 21
0.991858
  0
LINE
  8
0
 10
2.72511
 20
0.991858
 11
2.78766
 21
0.799348
  0
LINE
  8
0
 10
2.78766
 20
0.799348
 11
2.83663
 21
0.602943
  0
LINE
  8
0
 10
2.83663
 20
0.602943
 11
2.87178
 21
0.403602
  0
LINE
  8
0
 10
2.87178
 20
0.403602
 11
2.89293
 21
0.202293
  0
LINE
  8
0
 10
2.89293
 20
0.202293
 11
2.9
 21
0
  0
LINE
  8
0
 10
2.9
 20
0
 11
2.89293
 21
-0.202293
  0
LINE
  8
0
 10
2.89293
 20
-0.202293
 11
2.87178
 21
-0.403602
  0
LINE
  8
0
 10
2.87178
 20
-0.403602
 11
2.83663
 21
-0.602943
  0
LINE
  8
0
 10
2.83663
 20
-0.602943
 11
2.78766
 21
-0.799348
  0
LINE
  8
0
 10
2.78766
 20
-0.799348
 11
2.72511
 21
-0.991858
  0
LINE
  8
0
 10
2.72511
 20
-0.991858
 11
2.64928
 21
-1.17954
  0
LINE
  8
0
 10
2.64928
 20
-1.17954
 11
2.56055
 21
-1.36147
  0
LINE
  8
0
 10
2.56055
 20
-1.36147
 11
2.45934
 21
-1.53677
  0
LINE
  8
0
 10
2.45934
 20
-1.53677
 11
2.34615
 21
-1.70458
  0
LINE
  8
0
 10
2.34615
 20
-1.70458
 11
2.22153
 21
-1.86408
  0
LINE
  8
0
 10
2.22153
 20
-1.86408
 11
2.08609
 21
-2.01451
  0
LINE
  8
0
 10
2.08609
 20
-2.01451
 11
1.94048
 21
-2.15512
  0
LINE
  8
0
 10
1.94048
 20
-2.15512
 11
1.78542
 21
-2.28523
  0
LINE
  8
0
 10
1.78542
 20
-2.28523
 11
1.62166
 21
-2.40421
  0
LINE
  8
0
 10
1.62166
 20
-2.40421
 11
1.45
 21
-2.51147
  0
LINE
  8
0
 10
1.45
 20
-2.51147
 11
1.27128
 21
-2.6065
  0
LINE
  8
0
 10
1.27128
 20
-2.6065
 11
1.08636
 21
-2.68883
  0
LINE
  8
0
 10
1.08636
 20
-2.68883
 11
0.896149
 21
-2.75806
  0
LINE
  8
0
 10
0.896149
 20
-2.75806
 11
0.701573
 21
-2.81386
  0
LINE
  8
0
 10
0.701573
 20
-2.81386
 11
0.503579
 21
-2.85594
  0
LINE
  8
0
 10
0.503579
 20
-2.85594
 11
0.303132
 21
-2.88411
  0
LINE
  8
0
 10
0.303132
 20
-2.88411
 11
0.101208
 21
-2.89823
  0
LINE
  8
0
 10
0.101208
 20
-2.89823
 11
-0.101208
 21
-2.89823
  0
LINE
  8
0
 10
-0.101208
 20
-2.89823
 11
-0.303132
 21
-2.88411
  0
LINE
  8
0
 10
-0.303132
 20
-2.88411
 11
-0.503579
 21
-2.85594
  0
LINE
  8
0
 10
-0.503579
 20
-2.85594
 11
-0.701573
 21
-2.81386
  0
LINE
  8
0
 10
-0.701573
 20
-2.81386
 11
-0.896149
 21
-2.75806
  0
LINE
  8
0
 10
-0.896149
 20
-2.75806
 11
-1.08636
 21
-2.68883
  0
LINE
  8
0
 10
-1.08636
 20
-2.68883
 11
-1.27128
 21
-2.6065
  0
LINE
  8
0
 10
-1.27128
 20
-2.6065
 11
-1.45
 21
-2.51147
  0
LINE
  8
0
 10
-1.45
 20
-2.51147
 11
-1.62166
 21
-2.40421
  0
LINE
  8
0
 10
-1.62166
 20
-2.40421
 11
-1.78542
 21
-2.28523
  0
LINE
  8
0
 10
-1.78542
 20
-2.28523
 11
-1.94048
 21
-2.15512
  0
LINE
  8
0
 10
-1.94048
 20
-2.15512
 11
-2.08609
 21
-2.01451
  0
LINE
  8
0
 10
-2.08609
 20
-2.01451
 11
-2.22153
 21
-1.86408
  0
LINE
  8
0
 10
-2.22153
 20
-1.86408
 11
-2.34615
 21
-1.70458
  0
LINE
  8
0
 10
-2.34615
 20
-1.70458
 11
-2.45934
 21
-1.53677
  0
LINE
  8
0
 10
-2.45934
 20
-1.53677
 11
-2.56055
 21
-1.36147
  0
LINE
  8
0
 10
-2.56055
 20
-1.36147
 11
-2.64928
 21
-1.17954
  0
LINE
  8
0
 10
-2.64928
 20
-1.17954
 11
-2.72511
 21
-0.991858
  0
LINE
  8
0
 10
-2.72511
 20
-0.991858
 11
-2.78766
 21
-0.799348
  0
LINE
  8
0
 10
-2.78766
 20
-0.799348
 11
-2.83663
 21
-0.602943
  0
LINE
  8
0
 10
-2.83663
 20
-0.602943
 11
-2.87178
 21
-0.403602
  0
LINE
  8
0
 10
-2.87178
 20
-0.403602
 11
-2.89293
 21
-0.202293
  0
LINE
  8
0
 10
-2.89293
 20
-0.202293
 11
-2.9
 21
0
  0
LINE
  8
0
 10
-2.20796
 20
36.8574
 11
-1.91969
 21
39.1392
  0
LINE
  8
0
 10
-1.91969
 20
39.1392
 11
-1.02679
 21
39.0264
  0
LINE
  8
0
 10
-1.02679
 20
39.0264
 11
-1.31505
 21
36.7446
  0
LINE
  8
0
 10
-1.31505
 20
36.7446
 11
-2.20796
 21
36.8574
  0
LINE
  8
0
 10
-1.42573
 20
-39.0139
 11
-0.99475
 21
-36.7546
  0
LINE
  8
0
 10
-0.99475
 20
-36.7546
 11
-0.110691
 21
-36.9233
  0
LINE
  8
0
 10
-0.110691
 20
-36.9233
 11
-0.541668
 21
-39.1825
  0
LINE
  8
0
 10
-0.541668
 20
-39.1825
 11
-1.42573
 21
-39.0139
  0
LINE
  8
0
 10
0.110691
 20
36.9233
 11
0.541668
 21
39.1825
  0
LINE
  8
0
 10
0.541668
 20
39.1825
 11
1.42573
 21
39.0139
  0
LINE
  8
0
 10
1.42573
 20
39.0139
 11
0.99475
 21
36.7546
  0
LINE
  8
0
 10
0.99475
 20
36.7546
 11
0.110691
 21
36.9233
  0
LINE
  8
0
 10
1.02679
 20
-39.0264
 11
1.31505
 21
-36.7446
  0
LINE
  8
0
 10
1.31505
 20
-36.7446
 11
2.20796
 21
-36.8574
  0
LINE
  8
0
 10
2.20796
 20
-36.8574
 11
1.91969
 21
-39.1392
  0
LINE
  8
0
 10
1.91969
 20
-39.1392
 11
1.02679
 21
-39.0264
  0
LINE
  8
0
 10
2.4289
 20
36.8435
 11
3.00089
 21
39.0712
  0
LINE
  8
0
 10
3.00089
 20
39.0712
 11
3.87262
 21
38.8474
  0
LINE
  8
0
 10
3.87262
 20
38.8474
 11
3.30063
 21
36.6196
  0
LINE
  8
0
 10
3.30063
 20
36.6196
 11
2.4289
 21
36.8435
  0
LINE
  8
0
 10
3.47525
 20
-38.8849
 11
3.61967
 21
-36.5895
  0
LINE
  8
0
 10
3.61967
 20
-36.5895
 11
4.51789
 21
-36.646
  0
LINE
  8
0
 10
4.51789
 20
-36.646
 11
4.37348
 21
-38.9415
  0
LINE
  8
0
 10
4.37348
 20
-38.9415
 11
3.47525
 21
-38.8849
  0
LINE
  8
0
 10
4.73753
 20
36.6182
 11
5.44827
 21
38.8057
  0
LINE
  8
0
 10
5.44827
 20
38.8057
 11
6.30422
 21
38.5276
  0
LINE
  8
0
 10
6.30422
 20
38.5276
 11
5.59348
 21
36.3401
  0
LINE
  8
0
 10
5.59348
 20
36.3401
 11
4.73753
 21
36.6182
  0
LINE
  8
0
 10
5.91
 20
-38.59
 11
5.91
 21
-36.29
  0
LINE
  8
0
 10
5.91
 20
-36.29
 11
6.81
 21
-36.29
  0
LINE
  8
0
 10
6.81
 20
-36.29
 11
6.81
 21
-38.59
  0
LINE
  8
0
 10
6.81
 20
-38.59
 11
5.91
 21
-38.59
  0
LINE
  8
0
 10
7.02746
 20
36.2485
 11
7.87415
 21
38.387
  0
LINE
  8
0
 10
7.87415
 20
38.387
 11
8.71095
 21
38.0557
  0
LINE
  8
0
 10
8.71095
 20
38.0557
 11
7.86426
 21
35.9172
  0
LINE
  8
0
 10
7.86426
 20
35.9172
 11
7.02746
 21
36.2485
  0
LINE
  8
0
 10
8.17701
 20
-35.8473
 11
9.07523
 21
-35.7908
  0
LINE
  8
0
 10
9.07523
 20
-35.7908
 11
9.21965
 21
-38.0862
  0
LINE
  8
0
 10
9.21965
 20
-38.0862
 11
8.32142
 21
-38.1428
  0
LINE
  8
0
 10
8.32142
 20
-38.1428
 11
8.17701
 21
-35.8473
  0
LINE
  8
0
 10
9.28966
 20
35.7357
 11
10.269
 21
37.8168
  0
LINE
  8
0
 10
10.269
 20
37.8168
 11
11.0833
 21
37.4336
  0
LINE
  8
0
 10
11.0833
 20
37.4336
 11
10.104
 21
35.3525
  0
LINE
  8
0
 10
10.104
 20
35.3525
 11
9.28966
 21
35.7357
  0
LINE
  8
0
 10
10.4117
 20
-35.2631
 11
11.3046
 21
-35.1503
  0
LINE
  8
0
 10
11.3046
 20
-35.1503
 11
11.5929
 21
-37.4322
  0
LINE
  8
0
 10
11.5929
 20
-37.4322
 11
10.7
 21
-37.545
  0
LINE
  8
0
 10
10.7
 20
-37.545
 11
10.4117
 21
-35.2631
  0
LINE
  8
0
 10
11.5152
 20
35.0819
 11
12.6232
 21
37.0974
  0
LINE
  8
0
 10
12.6232
 20
37.0974
 11
13.4119
 21
36.6638
  0
LINE
  8
0
 10
13.4119
 20
36.6638
 11
12.3039
 21
34.6483
  0
LINE
  8
0
 10
12.3039
 20
34.6483
 11
11.5152
 21
35.0819
  0
LINE
  8
0
 10
12.6054
 20
-34.5398
 11
13.4894
 21
-34.3711
  0
LINE
  8
0
 10
13.4894
 20
-34.3711
 11
13.9204
 21
-36.6304
  0
LINE
  8
0
 10
13.9204
 20
-36.6304
 11
13.0364
 21
-36.799
  0
LINE
  8
0
 10
13.0364
 20
-36.799
 11
12.6054
 21
-34.5398
  0
LINE
  8
0
 10
13.6953
 20
34.2896
 11
14.9277
 21
36.2316
  0
LINE
  8
0
 10
14.9277
 20
36.2316
 11
15.6876
 21
35.7494
  0
LINE
  8
0
 10
15.6876
 20
35.7494
 11
14.4552
 21
33.8074
  0
LINE
  8
0
 10
14.4552
 20
33.8074
 11
13.6953
 21
34.2896
  0
LINE
  8
0
 10
14.7493
 20
-33.6801
 11
15.621
 21
-33.4563
  0
LINE
  8
0
 10
15.621
 20
-33.4563
 11
16.193
 21
-35.684
  0
LINE
  8
0
 10
16.193
 20
-35.684
 11
15.3213
 21
-35.9079
  0
LINE
  8
0
 10
15.3213
 20
-35.9079
 11
14.7493
 21
-33.6801
  0
LINE
  8
0
 10
15.8213
 20
33.362
 11
17.1732
 21
35.2228
  0
LINE
  8
0
 10
17.1732
 20
35.2228
 11
17.9013
 21
34.6938
  0
LINE
  8
0
 10
17.9013
 20
34.6938
 11
16.5494
 21
32.833
  0
LINE
  8
0
 10
16.5494
 20
32.833
 11
15.8213
 21
33.362
  0
LINE
  8
0
 10
16.835
 20
-32.6875
 11
17.6909
 21
-32.4094
  0
LINE
  8
0
 10
17.6909
 20
-32.4094
 11
18.4017
 21
-34.5969
  0
LINE
  8
0
 10
18.4017
 20
-34.5969
 11
17.5457
 21
-34.875
  0
LINE
  8
0
 10
17.5457
 20
-34.875
 11
16.835
 21
-32.6875
  0
LINE
  8
0
 10
17.8849
 20
32.3028
 11
19.351
 21
34.075
  0
LINE
  8
0
 10
19.351
 20
34.075
 11
20.0445
 21
33.5013
  0
LINE
  8
0
 10
20.0445
 20
33.5013
 11
18.5784
 21
31.7291
  0
LINE
  8
0
 10
18.5784
 20
31.7291
 11
17.8849
 21
32.3028
  0
LINE
  8
0
 10
18.8542
 20
-31.566
 11
19.691
 21
-31.2347
  0
LINE
  8
0
 10
19.691
 20
-31.2347
 11
20.5377
 21
-33.3731
  0
LINE
  8
0
 10
20.5377
 20
-33.3731
 11
19.7009
 21
-33.7045
  0
LINE
  8
0
 10
19.7009
 20
-33.7045
 11
18.8542
 21
-31.566
  0
LINE
  8
0
 10
19.8779
 20
31.116
 11
21.4524
 21
32.7927
  0
LINE
  8
0
 10
21.4524
 20
32.7927
 11
22.1085
 21
32.1766
  0
LINE
  8
0
 10
22.1085
 20
32.1766
 11
20.534
 21
30.4999
  0
LINE
  8
0
 10
20.534
 20
30.4999
 11
19.8779
 21
31.116
  0
LINE
  8
0
 10
20.7991
 20
-30.3198
 11
21.6134
 21
-29.9366
  0
LINE
  8
0
 10
21.6134
 20
-29.9366
 11
22.5927
 21
-32.0177
  0
LINE
  8
0
 10
22.5927
 20
-32.0177
 11
21.7783
 21
-32.4009
  0
LINE
  8
0
 10
21.7783
 20
-32.4009
 11
20.7991
 21
-30.3198
  0
LINE
  8
0
 10
21.7925
 20
29.8065
 11
23.4691
 21
31.3809
  0
LINE
  8
0
 10
23.4691
 20
31.3809
 11
24.0852
 21
30.7249
  0
LINE
  8
0
 10
24.0852
 20
30.7249
 11
22.4086
 21
29.1504
  0
LINE
  8
0
 10
22.4086
 20
29.1504
 11
21.7925
 21
29.8065
  0
LINE
  8
0
 10
22.6618
 20
-28.954
 11
23.4505
 21
-28.5204
  0
LINE
  8
0
 10
23.4505
 20
-28.5204
 11
24.5585
 21
-30.5359
  0
LINE
  8
0
 10
24.5585
 20
-30.5359
 11
23.7698
 21
-30.9695
  0
LINE
  8
0
 10
23.7698
 20
-30.9695
 11
22.6618
 21
-28.954
  0
LINE
  8
0
 10
23.6211
 20
28.3793
 11
25.3932
 21
29.8454
  0
LINE
  8
0
 10
25.3932
 20
29.8454
 11
25.9669
 21
29.1519
  0
LINE
  8
0
 10
25.9669
 20
29.1519
 11
24.1947
 21
27.6858
  0
LINE
  8
0
 10
24.1947
 20
27.6858
 11
23.6211
 21
28.3793
  0
LINE
  8
0
 10
24.4351
 20
-27.4739
 11
25.195
 21
-26.9917
  0
LINE
  8
0
 10
25.195
 20
-26.9917
 11
26.4274
 21
-28.9336
  0
LINE
  8
0
 10
26.4274
 20
-28.9336
 11
25.6675
 21
-29.4159
  0
LINE
  8
0
 10
25.6675
 20
-29.4159
 11
24.4351
 21
-27.4739
  0
LINE
  8
0
 10
25.3564
 20
26.8401
 11
27.2171
 21
28.192
  0
LINE
  8
0
 10
27.2171
 20
28.192
 11
27.7462
 21
27.4639
  0
LINE
  8
0
 10
27.7462
 20
27.4639
 11
25.8854
 21
26.112
  0
LINE
  8
0
 10
25.8854
 20
26.112
 11
25.3564
 21
26.8401
  0
LINE
  8
0
 10
26.112
 20
-25.8854
 11
26.8401
 21
-25.3564
  0
LINE
  8
0
 10
26.8401
 20
-25.3564
 11
28.192
 21
-27.2171
  0
LINE
  8
0
 10
28.192
 20
-27.2171
 11
27.4639
 21
-27.7462
  0
LINE
  8
0
 10
27.4639
 20
-27.7462
 11
26.112
 21
-25.8854
  0
LINE
  8
0
 10
26.9917
 20
25.195
 11
28.9336
 21
26.4274
  0
LINE
  8
0
 10
28.9336
 20
26.4274
 11
29.4159
 21
25.6675
  0
LINE
  8
0
 10
29.4159
 20
25.6675
 11
27.4739
 21
24.4351
  0
LINE
  8
0
 10
27.4739
 20
24.4351
 11
26.9917
 21
25.195
  0
LINE
  8
0
 10
27.6858
 20
-24.1947
 11
28.3793
 21
-23.6211
  0
LINE
  8
0
 10
28.3793
 20
-23.6211
 11
29.8454
 21
-25.3932
  0
LINE
  8
0
 10
29.8454
 20
-25.3932
 11
29.1519
 21
-25.9669
  0
LINE
  8
0
 10
29.1519
 20
-25.9669
 11
27.6858
 21
-24.1947
  0
LINE
  8
0
 10
28.5204
 20
23.4505
 11
30.5359
 21
24.5585
  0
LINE
  8
0
 10
30.5359
 20
24.5585
 11
30.9695
 21
23.7698
  0
LINE
  8
0
 10
30.9695
 20
23.7698
 11
28.954
 21
22.6618
  0
LINE
  8
0
 10
28.954
 20
22.6618
 11
28.5204
 21
23.4505
  0
LINE
  8
0
 10
29.1504
 20
-22.4086
 11
29.8065
 21
-21.7925
  0
LINE
  8
0
 10
29.8065
 20
-21.7925
 11
31.3809
 21
-23.4691
  0
LINE
  8
0
 10
31.3809
 20
-23.4691
 11
30.7249
 21
-24.0852
  0
LINE
  8
0
 10
30.7249
 20
-24.0852
 11
29.1504
 21
-22.4086
  0
LINE
  8
0
 10
29.9366
 20
21.6134
 11
32.0177
 21
22.5927
  0
LINE
  8
0
 10
32.0177
 20
22.5927
 11
32.4009
 21
21.7783
  0
LINE
  8
0
 10
32.4009
 20
21.7783
 11
30.3198
 21
20.7991
  0
LINE
  8
0
 10
30.3198
 20
20.7991
 11
29.9366
 21
21.6134
  0
LINE
  8
0
 10
30.4999
 20
-20.534
 11
31.116
 21
-19.8779
  0
LINE
  8
0
 10
31.116
 20
-19.8779
 11
32.7927
 21
-21.4524
  0
LINE
  8
0
 10
32.7927
 20
-21.4524
 11
32.1766
 21
-22.1085
  0
LINE
  8
0
 10
32.1766
 20
-22.1085
 11
30.4999
 21
-20.534
  0
LINE
  8
0
 10
31.2347
 20
19.691
 11
33.3731
 21
20.5377
  0
LINE
  8
0
 10
33.3731
 20
20.5377
 11
33.7045
 21
19.7009
  0
LINE
  8
0
 10
33.7045
 20
19.7009
 11
31.566
 21
18.8542
  0
LINE
  8
0
 10
31.566
 20
18.8542
 11
31.2347
 21
19.691
  0
LINE
  8
0
 10
31.7291
 20
-18.5784
 11
32.3028
 21
-17.8849
  0
LINE
  8
0
 10
32.3028
 20
-17.8849
 11
34.075
 21
-19.351
  0
LINE
  8
0
 10
34.075
 20
-19.351
 11
33.5013
 21
-20.0445
  0
LINE
  8
0
 10
33.5013
 20
-20.0445
 11
31.7291
 21
-18.5784
  0
LINE
  8
0
 10
32.4094
 20
17.6909
 11
34.5969
 21
18.4017
  0
LINE
  8
0
 10
34.5969
 20
18.4017
 11
34.875
 21
17.5457
  0
LINE
  8
0
 10
34.875
 20
17.5457
 11
32.6875
 21
16.835
  0
LINE
  8
0
 10
32.6875
 20
16.835
 11
32.4094
 21
17.6909
  0
LINE
  8
0
 10
32.833
 20
-16.5494
 11
33.362
 21
-15.8213
  0
LINE
  8
0
 10
33.362
 20
-15.8213
 11
35.2228
 21
-17.1732
  0
LINE
  8
0
 10
35.2228
 20
-17.1732
 11
34.6938
 21
-17.9013
  0
LINE
  8
0
 10
34.6938
 20
-17.9013
 11
32.833
 21
-16.5494
  0
LINE
  8
0
 10
33.29
 20
-0.45
 11
33.29
 21
0.45
  0
LINE
  8
0
 10
33.29
 20
0.45
 11
35.59
 21
0.45
  0
LINE
  8
0
 10
35.59
 20
0.45
 11
35.59
 21
-0.45
  0
LINE
  8
0
 10
35.59
 20
-0.45
 11
33.29
 21
-0.45
  0
LINE
  8
0
 10
33.4563
 20
15.621
 11
35.684
 21
16.193
  0
LINE
  8
0
 10
35.684
 20
16.193
 11
35.9079
 21
15.3213
  0
LINE
  8
0
 10
35.9079
 20
15.3213
 11
33.6801
 21
14.7493
  0
LINE
  8
0
 10
33.6801
 20
14.7493
 11
33.4563
 21
15.621
  0
LINE
  8
0
 10
33.8074
 20
-14.4552
 11
34.2896
 21
-13.6953
  0
LINE
  8
0
 10
34.2896
 20
-13.6953
 11
36.2316
 21
-14.9277
  0
LINE
  8
0
 10
36.2316
 20
-14.9277
 11
35.7494
 21
-15.6876
  0
LINE
  8
0
 10
35.7494
 20
-15.6876
 11
33.8074
 21
-14.4552
  0
LINE
  8
0
 10
34.3711
 20
13.4894
 11
36.6304
 21
13.9204
  0
LINE
  8
0
 10
36.6304
 20
13.9204
 11
36.799
 21
13.0364
  0
LINE
  8
0
 10
36.799
 20
13.0364
 11
34.5398
 21
12.6054
  0
LINE
  8
0
 10
34.5398
 20
12.6054
 11
34.3711
 21
13.4894
  0
LINE
  8
0
 10
34.6483
 20
-12.3039
 11
35.0819
 21
-11.5152
  0
LINE
  8
0
 10
35.0819
 20
-11.5152
 11
37.0974
 21
-12.6232
  0
LINE
  8
0
 10
37.0974
 20
-12.6232
 11
36.6638
 21
-13.4119
  0
LINE
  8
0
 10
36.6638
 20
-13.4119
 11
34.6483
 21
-12.3039
  0
LINE
  8
0
 10
35.1503
 20
11.3046
 11
37.4322
 21
11.5929
  0
LINE
  8
0
 10
37.4322
 20
11.5929
 11
37.545
 21
10.7
  0
LINE
  8
0
 10
37.545
 20
10.7
 11
35.2631
 21
10.4117
  0
LINE
  8
0
 10
35.2631
 20
10.4117
 11
35.1503
 21
11.3046
  0
LINE
  8
0
 10
35.3525
 20
-10.104
 11
35.7357
 21
-9.28966
  0
LINE
  8
0
 10
35.7357
 20
-9.28966
 11
37.8168
 21
-10.269
  0
LINE
  8
0
 10
37.8168
 20
-10.269
 11
37.4336
 21
-11.0833
  0
LINE
  8
0
 10
37.4336
 20
-11.0833
 11
35.3525
 21
-10.104
  0
LINE
  8
0
 10
35.7908
 20
9.07523
 11
38.0862
 21
9.21965
  0
LINE
  8
0
 10
38.0862
 20
9.21965
 11
38.1428
 21
8.32142
  0
LINE
  8
0
 10
38.1428
 20
8.32142
 11
35.8473
 21
8.17701
  0
LINE
  8
0
 10
35.8473
 20
8.17701
 11
35.7908
 21
9.07523
  0
LINE
  8
0
 10
35.9172
 20
-7.86426
 11
36.2485
 21
-7.02746
  0
LINE
  8
0
 10
36.2485
 20
-7.02746
 11
38.387
 21
-7.87415
  0
LINE
  8
0
 10
38.387
 20
-7.87415
 11
38.0557
 21
-8.71095
  0
LINE
  8
0
 10
38.0557
 20
-8.71095
 11
35.9172
 21
-7.86426
  0
LINE
  8
0
 10
36.29
 20
5.91
 11
36.29
 21
6.81
  0
LINE
  8
0
 10
36.29
 20
6.81
 11
38.59
 21
6.81
  0
LINE
  8
0
 10
38.59
 20
6.81
 11
38.59
 21
5.91
  0
LINE
  8
0
 10
38.59
 20
5.91
 11
36.29
 21
5.91
  0
LINE
  8
0
 10
36.3401
 20
-5.59348
 11
36.6182
 21
-4.73753
  0
LINE
  8
0
 10
36.6182
 20
-4.73753
 11
38.8057
 21
-5.44827
  0
LINE
  8
0
 10
38.8057
 20
-5.44827
 11
38.5276
 21
-6.30422
  0
LINE
  8
0
 10
38.5276
 20
-6.30422
 11
36.3401
 21
-5.59348
  0
LINE
  8
0
 10
36.5895
 20
3.61967
 11
36.646
 21
4.51789
  0
LINE
  8
0
 10
36.646
 20
4.51789
 11
38.9415
 21
4.37348
  0
LINE
  8
0
 10
38.9415
 20
4.37348
 11
38.8849
 21
3.47525
  0
LINE
  8
0
 10
38.8849
 20
3.47525
 11
36.5895
 21
3.61967
  0
LINE
  8
0
 10
36.6196
 20
-3.30063
 11
36.8435
 21
-2.4289
  0
LINE
  8
0
 10
36.8435
 20
-2.4289
 11
39.0712
 21
-3.00089
  0
LINE
  8
0
 10
39.0712
 20
-3.00089
 11
38.8474
 21
-3.87262
  0
LINE
  8
0
 10
38.8474
 20
-3.87262
 11
36.6196
 21
-3.30063
  0
LINE
  8
0
 10
36.7446
 20
1.31505
 11
36.8574
 21
2.20796
  0
LINE
  8
0
 10
36.8574
 20
2.20796
 11
39.1392
 21
1.91969
  0
LINE
  8
0
 10
39.1392
 20
1.91969
 11
39.0264
 21
1.02679
  0
LINE
  8
0
 10
39.0264
 20
1.02679
 11
36.7446
 21
1.31505
  0
LINE
  8
0
 10
36.7546
 20
-0.99475
 11
36.9233
 21
-0.110691
  0
LINE
  8
0
 10
36.9233
 20
-0.110691
 11
39.1825
 21
-0.541668
  0
LINE
  8
0
 10
39.1825
 20
-0.541668
 11
39.0139
 21
-1.42573
  0
LINE
  8
0
 10
39.0139
 20
-1.42573
 11
36.7546
 21
-0.99475
  0
ENDSEC
  0
SECTION
  2
OBJECTS
  0
DICTIONARY
  0
ENDSEC
  0
EOF
