  0
SECTION
  2
BLOCKS
  0
ENDSEC
  0
SECTION
  2
ENTITIES
  0
LINE
  8
0
 10
-65.21
 20
-97.0173
 11
65.19
 21
-97.0173
  0
LINE
  8
0
 10
65.19
 20
-97.0173
 11
65.22
 21
-97
  0
LINE
  8
0
 10
65.22
 20
-97
 11
65.22
 21
97
  0
LINE
  8
0
 10
65.22
 20
97
 11
65.19
 21
97.0173
  0
LINE
  8
0
 10
65.19
 20
97.0173
 11
-65.21
 21
97.0173
  0
LINE
  8
0
 10
-65.21
 20
97.0173
 11
-65.21
 21
-97.0173
  0
LINE
  8
0
 10
-60.35
 20
-90.6
 11
-60.3161
 21
-90.2777
  0
LINE
  8
0
 10
-60.3161
 20
-90.2777
 11
-60.216
 21
-89.9696
  0
LINE
  8
0
 10
-60.216
 20
-89.9696
 11
-60.054
 21
-89.6889
  0
LINE
  8
0
 10
-60.054
 20
-89.6889
 11
-59.8372
 21
-89.4481
  0
LINE
  8
0
 10
-59.8372
 20
-89.4481
 11
-59.575
 21
-89.2577
  0
LINE
  8
0
 10
-59.575
 20
-89.2577
 11
-59.279
 21
-89.1259
  0
LINE
  8
0
 10
-59.279
 20
-89.1259
 11
-58.962
 21
-89.0585
  0
LINE
  8
0
 10
-58.962
 20
-89.0585
 11
-58.638
 21
-89.0585
  0
LINE
  8
0
 10
-58.638
 20
-89.0585
 11
-58.321
 21
-89.1259
  0
LINE
  8
0
 10
-58.321
 20
-89.1259
 11
-58.025
 21
-89.2577
  0
LINE
  8
0
 10
-58.025
 20
-89.2577
 11
-57.7628
 21
-89.4481
  0
LINE
  8
0
 10
-57.7628
 20
-89.4481
 11
-57.546
 21
-89.6889
  0
LINE
  8
0
 10
-57.546
 20
-89.6889
 11
-57.384
 21
-89.9696
  0
LINE
  8
0
 10
-57.384
 20
-89.9696
 11
-57.2839
 21
-90.2777
  0
LINE
  8
0
 10
-57.2839
 20
-90.2777
 11
-57.25
 21
-90.6
  0
LINE
  8
0
 10
-57.25
 20
-90.6
 11
-57.2839
 21
-90.9223
  0
LINE
  8
0
 10
-57.2839
 20
-90.9223
 11
-57.384
 21
-91.2304
  0
LINE
  8
0
 10
-57.384
 20
-91.2304
 11
-57.546
 21
-91.5111
  0
LINE
  8
0
 10
-57.546
 20
-91.5111
 11
-57.7628
 21
-91.7519
  0
LINE
  8
0
 10
-57.7628
 20
-91.7519
 11
-58.025
 21
-91.9423
  0
LINE
  8
0
 10
-58.025
 20
-91.9423
 11
-58.321
 21
-92.0741
  0
LINE
  8
0
 10
-58.321
 20
-92.0741
 11
-58.638
 21
-92.1415
  0
LINE
  8
0
 10
-58.638
 20
-92.1415
 11
-58.962
 21
-92.1415
  0
LINE
  8
0
 10
-58.962
 20
-92.1415
 11
-59.279
 21
-92.0741
  0
LINE
  8
0
 10
-59.279
 20
-92.0741
 11
-59.575
 21
-91.9423
  0
LINE
  8
0
 10
-59.575
 20
-91.9423
 11
-59.8372
 21
-91.7519
  0
LINE
  8
0
 10
-59.8372
 20
-91.7519
 11
-60.054
 21
-91.5111
  0
LINE
  8
0
 10
-60.054
 20
-91.5111
 11
-60.216
 21
-91.2304
  0
LINE
  8
0
 10
-60.216
 20
-91.2304
 11
-60.3161
 21
-90.9223
  0
LINE
  8
0
 10
-60.3161
 20
-90.9223
 11
-60.35
 21
-90.6
  0
LINE
  8
0
 10
-60.35
 20
90.6
 11
-60.3161
 21
90.9223
  0
LINE
  8
0
 10
-60.3161
 20
90.9223
 11
-60.216
 21
91.2304
  0
LINE
  8
0
 10
-60.216
 20
91.2304
 11
-60.054
 21
91.5111
  0
LINE
  8
0
 10
-60.054
 20
91.5111
 11
-59.8372
 21
91.7519
  0
LINE
  8
0
 10
-59.8372
 20
91.7519
 11
-59.575
 21
91.9423
  0
LINE
  8
0
 10
-59.575
 20
91.9423
 11
-59.279
 21
92.0741
  0
LINE
  8
0
 10
-59.279
 20
92.0741
 11
-58.962
 21
92.1415
  0
LINE
  8
0
 10
-58.962
 20
92.1415
 11
-58.638
 21
92.1415
  0
LINE
  8
0
 10
-58.638
 20
92.1415
 11
-58.321
 21
92.0741
  0
LINE
  8
0
 10
-58.321
 20
92.0741
 11
-58.025
 21
91.9423
  0
LINE
  8
0
 10
-58.025
 20
91.9423
 11
-57.7628
 21
91.7519
  0
LINE
  8
0
 10
-57.7628
 20
91.7519
 11
-57.546
 21
91.5111
  0
LINE
  8
0
 10
-57.546
 20
91.5111
 11
-57.384
 21
91.2304
  0
LINE
  8
0
 10
-57.384
 20
91.2304
 11
-57.2839
 21
90.9223
  0
LINE
  8
0
 10
-57.2839
 20
90.9223
 11
-57.25
 21
90.6
  0
LINE
  8
0
 10
-57.25
 20
90.6
 11
-57.2839
 21
90.2777
  0
LINE
  8
0
 10
-57.2839
 20
90.2777
 11
-57.384
 21
89.9696
  0
LINE
  8
0
 10
-57.384
 20
89.9696
 11
-57.546
 21
89.6889
  0
LINE
  8
0
 10
-57.546
 20
89.6889
 11
-57.7628
 21
89.4481
  0
LINE
  8
0
 10
-57.7628
 20
89.4481
 11
-58.025
 21
89.2577
  0
LINE
  8
0
 10
-58.025
 20
89.2577
 11
-58.321
 21
89.1259
  0
LINE
  8
0
 10
-58.321
 20
89.1259
 11
-58.638
 21
89.0585
  0
LINE
  8
0
 10
-58.638
 20
89.0585
 11
-58.962
 21
89.0585
  0
LINE
  8
0
 10
-58.962
 20
89.0585
 11
-59.279
 21
89.1259
  0
LINE
  8
0
 10
-59.279
 20
89.1259
 11
-59.575
 21
89.2577
  0
LINE
  8
0
 10
-59.575
 20
89.2577
 11
-59.8372
 21
89.4481
  0
LINE
  8
0
 10
-59.8372
 20
89.4481
 11
-60.054
 21
89.6889
  0
LINE
  8
0
 10
-60.054
 20
89.6889
 11
-60.216
 21
89.9696
  0
LINE
  8
0
 10
-60.216
 20
89.9696
 11
-60.3161
 21
90.2777
  0
LINE
  8
0
 10
-60.3161
 20
90.2777
 11
-60.35
 21
90.6
  0
LINE
  8
0
 10
-55.0833
 20
-23.0833
 11
-55.0833
 21
22.9167
  0
LINE
  8
0
 10
-55.0833
 20
22.9167
 11
-55.0178
 21
23.5404
  0
LINE
  8
0
 10
-55.0178
 20
23.5404
 11
-54.824
 21
24.1369
  0
LINE
  8
0
 10
-54.824
 20
24.1369
 11
-54.5104
 21
24.68
  0
LINE
  8
0
 10
-54.5104
 20
24.68
 11
-54.0907
 21
25.1461
  0
LINE
  8
0
 10
-54.0907
 20
25.1461
 11
-53.5833
 21
25.5147
  0
LINE
  8
0
 10
-53.5833
 20
25.5147
 11
-53.0104
 21
25.7698
  0
LINE
  8
0
 10
-53.0104
 20
25.7698
 11
-52.3969
 21
25.9002
  0
LINE
  8
0
 10
-52.3969
 20
25.9002
 11
-29.0833
 21
25.9002
  0
LINE
  8
0
 10
-29.0833
 20
25.9002
 11
-29.0833
 21
26.9167
  0
LINE
  8
0
 10
-29.0833
 20
26.9167
 11
-29.0178
 21
27.5404
  0
LINE
  8
0
 10
-29.0178
 20
27.5404
 11
-28.824
 21
28.1369
  0
LINE
  8
0
 10
-28.824
 20
28.1369
 11
-28.5104
 21
28.68
  0
LINE
  8
0
 10
-28.5104
 20
28.68
 11
-28.0907
 21
29.1461
  0
LINE
  8
0
 10
-28.0907
 20
29.1461
 11
-27.5833
 21
29.5147
  0
LINE
  8
0
 10
-27.5833
 20
29.5147
 11
-27.0104
 21
29.7698
  0
LINE
  8
0
 10
-27.0104
 20
29.7698
 11
-26.3969
 21
29.9002
  0
LINE
  8
0
 10
-26.3969
 20
29.9002
 11
-24.3743
 21
29.9002
  0
LINE
  8
0
 10
-24.3743
 20
29.9002
 11
-24.2917
 21
29.9167
  0
LINE
  8
0
 10
-24.2917
 20
29.9167
 11
30.2917
 21
29.9167
  0
LINE
  8
0
 10
30.2917
 20
29.9167
 11
30.3743
 21
29.9002
  0
LINE
  8
0
 10
30.3743
 20
29.9002
 11
34.2303
 21
29.9002
  0
LINE
  8
0
 10
34.2303
 20
29.9002
 11
34.8437
 21
29.7698
  0
LINE
  8
0
 10
34.8437
 20
29.7698
 11
35.4167
 21
29.5147
  0
LINE
  8
0
 10
35.4167
 20
29.5147
 11
35.9241
 21
29.1461
  0
LINE
  8
0
 10
35.9241
 20
29.1461
 11
36.3437
 21
28.68
  0
LINE
  8
0
 10
36.3437
 20
28.68
 11
36.6573
 21
28.1369
  0
LINE
  8
0
 10
36.6573
 20
28.1369
 11
36.8511
 21
27.5404
  0
LINE
  8
0
 10
36.8511
 20
27.5404
 11
36.9167
 21
26.9167
  0
LINE
  8
0
 10
36.9167
 20
26.9167
 11
36.9167
 21
-43.0833
  0
LINE
  8
0
 10
36.9167
 20
-43.0833
 11
36.8511
 21
-43.7071
  0
LINE
  8
0
 10
36.8511
 20
-43.7071
 11
36.6573
 21
-44.3035
  0
LINE
  8
0
 10
36.6573
 20
-44.3035
 11
36.3437
 21
-44.8467
  0
LINE
  8
0
 10
36.3437
 20
-44.8467
 11
35.9241
 21
-45.3128
  0
LINE
  8
0
 10
35.9241
 20
-45.3128
 11
35.4167
 21
-45.6814
  0
LINE
  8
0
 10
35.4167
 20
-45.6814
 11
34.8437
 21
-45.9365
  0
LINE
  8
0
 10
34.8437
 20
-45.9365
 11
34.2303
 21
-46.0669
  0
LINE
  8
0
 10
34.2303
 20
-46.0669
 11
33.2917
 21
-46.0669
  0
LINE
  8
0
 10
33.2917
 20
-46.0669
 11
33.2917
 21
-58.025
  0
LINE
  8
0
 10
33.2917
 20
-58.025
 11
38
 21
-58.025
  0
LINE
  8
0
 10
38
 20
-58.025
 11
38
 21
-70.975
  0
LINE
  8
0
 10
38
 20
-70.975
 11
29
 21
-70.975
  0
LINE
  8
0
 10
29
 20
-70.975
 11
29
 21
-62.9167
  0
LINE
  8
0
 10
29
 20
-62.9167
 11
-24.2917
 21
-62.9167
  0
LINE
  8
0
 10
-24.2917
 20
-62.9167
 11
-25.4397
 21
-62.6883
  0
LINE
  8
0
 10
-25.4397
 20
-62.6883
 11
-26.413
 21
-62.038
  0
LINE
  8
0
 10
-26.413
 20
-62.038
 11
-27.0633
 21
-61.0647
  0
LINE
  8
0
 10
-27.0633
 20
-61.0647
 11
-27.2917
 21
-59.9167
  0
LINE
  8
0
 10
-27.2917
 20
-59.9167
 11
-27.2917
 21
-45.8113
  0
LINE
  8
0
 10
-27.2917
 20
-45.8113
 11
-27.5833
 21
-45.6814
  0
LINE
  8
0
 10
-27.5833
 20
-45.6814
 11
-28.0907
 21
-45.3128
  0
LINE
  8
0
 10
-28.0907
 20
-45.3128
 11
-28.5104
 21
-44.8467
  0
LINE
  8
0
 10
-28.5104
 20
-44.8467
 11
-28.824
 21
-44.3035
  0
LINE
  8
0
 10
-28.824
 20
-44.3035
 11
-29.0178
 21
-43.7071
  0
LINE
  8
0
 10
-29.0178
 20
-43.7071
 11
-29.0833
 21
-43.0833
  0
LINE
  8
0
 10
-29.0833
 20
-43.0833
 11
-29.0833
 21
-26.0669
  0
LINE
  8
0
 10
-29.0833
 20
-26.0669
 11
-52.3969
 21
-26.0669
  0
LINE
  8
0
 10
-52.3969
 20
-26.0669
 11
-53.0104
 21
-25.9365
  0
LINE
  8
0
 10
-53.0104
 20
-25.9365
 11
-53.5833
 21
-25.6814
  0
LINE
  8
0
 10
-53.5833
 20
-25.6814
 11
-54.0907
 21
-25.3128
  0
LINE
  8
0
 10
-54.0907
 20
-25.3128
 11
-54.5104
 21
-24.8467
  0
LINE
  8
0
 10
-54.5104
 20
-24.8467
 11
-54.824
 21
-24.3035
  0
LINE
  8
0
 10
-54.824
 20
-24.3035
 11
-55.0178
 21
-23.7071
  0
LINE
  8
0
 10
-55.0178
 20
-23.7071
 11
-55.0833
 21
-23.0833
  0
LINE
  8
0
 10
-37
 20
-70.975
 11
-37
 21
-58.025
  0
LINE
  8
0
 10
-37
 20
-58.025
 11
-28
 21
-58.025
  0
LINE
  8
0
 10
-28
 20
-58.025
 11
-28
 21
-70.975
  0
LINE
  8
0
 10
-28
 20
-70.975
 11
-37
 21
-70.975
  0
LINE
  8
0
 10
-37
 20
55.025
 11
-37
 21
67.975
  0
LINE
  8
0
 10
-37
 20
67.975
 11
-28
 21
67.975
  0
LINE
  8
0
 10
-28
 20
67.975
 11
-28
 21
55.025
  0
LINE
  8
0
 10
-28
 20
55.025
 11
-37
 21
55.025
  0
LINE
  8
0
 10
29
 20
55.025
 11
29
 21
67.975
  0
LINE
  8
0
 10
29
 20
67.975
 11
38
 21
67.975
  0
LINE
  8
0
 10
38
 20
67.975
 11
38
 21
55.025
  0
LINE
  8
0
 10
38
 20
55.025
 11
29
 21
55.025
  0
LINE
  8
0
 10
57.25
 20
-90.6
 11
57.2839
 21
-90.2777
  0
LINE
  8
0
 10
57.2839
 20
-90.2777
 11
57.384
 21
-89.9696
  0
LINE
  8
0
 10
57.384
 20
-89.9696
 11
57.546
 21
-89.6889
  0
LINE
  8
0
 10
57.546
 20
-89.6889
 11
57.7628
 21
-89.4481
  0
LINE
  8
0
 10
57.7628
 20
-89.4481
 11
58.025
 21
-89.2577
  0
LINE
  8
0
 10
58.025
 20
-89.2577
 11
58.321
 21
-89.1259
  0
LINE
  8
0
 10
58.321
 20
-89.1259
 11
58.638
 21
-89.0585
  0
LINE
  8
0
 10
58.638
 20
-89.0585
 11
58.962
 21
-89.0585
  0
LINE
  8
0
 10
58.962
 20
-89.0585
 11
59.279
 21
-89.1259
  0
LINE
  8
0
 10
59.279
 20
-89.1259
 11
59.575
 21
-89.2577
  0
LINE
  8
0
 10
59.575
 20
-89.2577
 11
59.8372
 21
-89.4481
  0
LINE
  8
0
 10
59.8372
 20
-89.4481
 11
60.054
 21
-89.6889
  0
LINE
  8
0
 10
60.054
 20
-89.6889
 11
60.216
 21
-89.9696
  0
LINE
  8
0
 10
60.216
 20
-89.9696
 11
60.3161
 21
-90.2777
  0
LINE
  8
0
 10
60.3161
 20
-90.2777
 11
60.35
 21
-90.6
  0
LINE
  8
0
 10
60.35
 20
-90.6
 11
60.3161
 21
-90.9223
  0
LINE
  8
0
 10
60.3161
 20
-90.9223
 11
60.216
 21
-91.2304
  0
LINE
  8
0
 10
60.216
 20
-91.2304
 11
60.054
 21
-91.5111
  0
LINE
  8
0
 10
60.054
 20
-91.5111
 11
59.8372
 21
-91.7519
  0
LINE
  8
0
 10
59.8372
 20
-91.7519
 11
59.575
 21
-91.9423
  0
LINE
  8
0
 10
59.575
 20
-91.9423
 11
59.279
 21
-92.0741
  0
LINE
  8
0
 10
59.279
 20
-92.0741
 11
58.962
 21
-92.1415
  0
LINE
  8
0
 10
58.962
 20
-92.1415
 11
58.638
 21
-92.1415
  0
LINE
  8
0
 10
58.638
 20
-92.1415
 11
58.321
 21
-92.0741
  0
LINE
  8
0
 10
58.321
 20
-92.0741
 11
58.025
 21
-91.9423
  0
LINE
  8
0
 10
58.025
 20
-91.9423
 11
57.7628
 21
-91.7519
  0
LINE
  8
0
 10
57.7628
 20
-91.7519
 11
57.546
 21
-91.5111
  0
LINE
  8
0
 10
57.546
 20
-91.5111
 11
57.384
 21
-91.2304
  0
LINE
  8
0
 10
57.384
 20
-91.2304
 11
57.2839
 21
-90.9223
  0
LINE
  8
0
 10
57.2839
 20
-90.9223
 11
57.25
 21
-90.6
  0
LINE
  8
0
 10
57.25
 20
90.6
 11
57.2839
 21
90.9223
  0
LINE
  8
0
 10
57.2839
 20
90.9223
 11
57.384
 21
91.2304
  0
LINE
  8
0
 10
57.384
 20
91.2304
 11
57.546
 21
91.5111
  0
LINE
  8
0
 10
57.546
 20
91.5111
 11
57.7628
 21
91.7519
  0
LINE
  8
0
 10
57.7628
 20
91.7519
 11
58.025
 21
91.9423
  0
LINE
  8
0
 10
58.025
 20
91.9423
 11
58.321
 21
92.0741
  0
LINE
  8
0
 10
58.321
 20
92.0741
 11
58.638
 21
92.1415
  0
LINE
  8
0
 10
58.638
 20
92.1415
 11
58.962
 21
92.1415
  0
LINE
  8
0
 10
58.962
 20
92.1415
 11
59.279
 21
92.0741
  0
LINE
  8
0
 10
59.279
 20
92.0741
 11
59.575
 21
91.9423
  0
LINE
  8
0
 10
59.575
 20
91.9423
 11
59.8372
 21
91.7519
  0
LINE
  8
0
 10
59.8372
 20
91.7519
 11
60.054
 21
91.5111
  0
LINE
  8
0
 10
60.054
 20
91.5111
 11
60.216
 21
91.2304
  0
LINE
  8
0
 10
60.216
 20
91.2304
 11
60.3161
 21
90.9223
  0
LINE
  8
0
 10
60.3161
 20
90.9223
 11
60.35
 21
90.6
  0
LINE
  8
0
 10
60.35
 20
90.6
 11
60.3161
 21
90.2777
  0
LINE
  8
0
 10
60.3161
 20
90.2777
 11
60.216
 21
89.9696
  0
LINE
  8
0
 10
60.216
 20
89.9696
 11
60.054
 21
89.6889
  0
LINE
  8
0
 10
60.054
 20
89.6889
 11
59.8372
 21
89.4481
  0
LINE
  8
0
 10
59.8372
 20
89.4481
 11
59.575
 21
89.2577
  0
LINE
  8
0
 10
59.575
 20
89.2577
 11
59.279
 21
89.1259
  0
LINE
  8
0
 10
59.279
 20
89.1259
 11
58.962
 21
89.0585
  0
LINE
  8
0
 10
58.962
 20
89.0585
 11
58.638
 21
89.0585
  0
LINE
  8
0
 10
58.638
 20
89.0585
 11
58.321
 21
89.1259
  0
LINE
  8
0
 10
58.321
 20
89.1259
 11
58.025
 21
89.2577
  0
LINE
  8
0
 10
58.025
 20
89.2577
 11
57.7628
 21
89.4481
  0
LINE
  8
0
 10
57.7628
 20
89.4481
 11
57.546
 21
89.6889
  0
LINE
  8
0
 10
57.546
 20
89.6889
 11
57.384
 21
89.9696
  0
LINE
  8
0
 10
57.384
 20
89.9696
 11
57.2839
 21
90.2777
  0
LINE
  8
0
 10
57.2839
 20
90.2777
 11
57.25
 21
90.6
  0
ENDSEC
  0
SECTION
  2
OBJECTS
  0
DICTIONARY
  0
ENDSEC
  0
EOF
