  0
SECTION
  2
BLOCKS
  0
ENDSEC
  0
SECTION
  2
ENTITIES
  0
LINE
  8
0
 10
-4.02
 20
0
 11
-4.01021
 21
-0.28042
  0
LINE
  8
0
 10
-4.01021
 20
-0.28042
 11
-3.98088
 21
-0.559475
  0
LINE
  8
0
 10
-3.98088
 20
-0.559475
 11
-3.93215
 21
-0.835805
  0
LINE
  8
0
 10
-3.93215
 20
-0.835805
 11
-3.86427
 21
-1.10806
  0
LINE
  8
0
 10
-3.86427
 20
-1.10806
 11
-3.77756
 21
-1.37492
  0
LINE
  8
0
 10
-3.77756
 20
-1.37492
 11
-3.67245
 21
-1.63508
  0
LINE
  8
0
 10
-3.67245
 20
-1.63508
 11
-3.54945
 21
-1.88727
  0
LINE
  8
0
 10
-3.54945
 20
-1.88727
 11
-3.40915
 21
-2.13027
  0
LINE
  8
0
 10
-3.40915
 20
-2.13027
 11
-3.25225
 21
-2.3629
  0
LINE
  8
0
 10
-3.25225
 20
-2.3629
 11
-3.0795
 21
-2.58401
  0
LINE
  8
0
 10
-3.0795
 20
-2.58401
 11
-2.89175
 21
-2.79253
  0
LINE
  8
0
 10
-2.89175
 20
-2.79253
 11
-2.6899
 21
-2.98744
  0
LINE
  8
0
 10
-2.6899
 20
-2.98744
 11
-2.47496
 21
-3.1678
  0
LINE
  8
0
 10
-2.47496
 20
-3.1678
 11
-2.24796
 21
-3.33273
  0
LINE
  8
0
 10
-2.24796
 20
-3.33273
 11
-2.01
 21
-3.48142
  0
LINE
  8
0
 10
-2.01
 20
-3.48142
 11
-1.76225
 21
-3.61315
  0
LINE
  8
0
 10
-1.76225
 20
-3.61315
 11
-1.50592
 21
-3.72728
  0
LINE
  8
0
 10
-1.50592
 20
-3.72728
 11
-1.24225
 21
-3.82325
  0
LINE
  8
0
 10
-1.24225
 20
-3.82325
 11
-0.972526
 21
-3.90059
  0
LINE
  8
0
 10
-0.972526
 20
-3.90059
 11
-0.698065
 21
-3.95893
  0
LINE
  8
0
 10
-0.698065
 20
-3.95893
 11
-0.420204
 21
-3.99798
  0
LINE
  8
0
 10
-0.420204
 20
-3.99798
 11
-0.140295
 21
-4.01755
  0
LINE
  8
0
 10
-0.140295
 20
-4.01755
 11
0.140295
 21
-4.01755
  0
LINE
  8
0
 10
0.140295
 20
-4.01755
 11
0.420204
 21
-3.99798
  0
LINE
  8
0
 10
0.420204
 20
-3.99798
 11
0.698065
 21
-3.95893
  0
LINE
  8
0
 10
0.698065
 20
-3.95893
 11
0.972526
 21
-3.90059
  0
LINE
  8
0
 10
0.972526
 20
-3.90059
 11
1.24225
 21
-3.82325
  0
LINE
  8
0
 10
1.24225
 20
-3.82325
 11
1.50592
 21
-3.72728
  0
LINE
  8
0
 10
1.50592
 20
-3.72728
 11
1.76225
 21
-3.61315
  0
LINE
  8
0
 10
1.76225
 20
-3.61315
 11
2.01
 21
-3.48142
  0
LINE
  8
0
 10
2.01
 20
-3.48142
 11
2.24796
 21
-3.33273
  0
LINE
  8
0
 10
2.24796
 20
-3.33273
 11
2.47496
 21
-3.1678
  0
LINE
  8
0
 10
2.47496
 20
-3.1678
 11
2.6899
 21
-2.98744
  0
LINE
  8
0
 10
2.6899
 20
-2.98744
 11
2.89175
 21
-2.79253
  0
LINE
  8
0
 10
2.89175
 20
-2.79253
 11
3.0795
 21
-2.58401
  0
LINE
  8
0
 10
3.0795
 20
-2.58401
 11
3.25225
 21
-2.3629
  0
LINE
  8
0
 10
3.25225
 20
-2.3629
 11
3.40915
 21
-2.13027
  0
LINE
  8
0
 10
3.40915
 20
-2.13027
 11
3.54945
 21
-1.88727
  0
LINE
  8
0
 10
3.54945
 20
-1.88727
 11
3.67245
 21
-1.63508
  0
LINE
  8
0
 10
3.67245
 20
-1.63508
 11
3.77756
 21
-1.37492
  0
LINE
  8
0
 10
3.77756
 20
-1.37492
 11
3.86427
 21
-1.10806
  0
LINE
  8
0
 10
3.86427
 20
-1.10806
 11
3.93215
 21
-0.835805
  0
LINE
  8
0
 10
3.93215
 20
-0.835805
 11
3.98088
 21
-0.559475
  0
LINE
  8
0
 10
3.98088
 20
-0.559475
 11
4.01021
 21
-0.28042
  0
LINE
  8
0
 10
4.01021
 20
-0.28042
 11
4.02
 21
0
  0
LINE
  8
0
 10
4.02
 20
0
 11
4.01021
 21
0.28042
  0
LINE
  8
0
 10
4.01021
 20
0.28042
 11
3.98088
 21
0.559475
  0
LINE
  8
0
 10
3.98088
 20
0.559475
 11
3.93215
 21
0.835805
  0
LINE
  8
0
 10
3.93215
 20
0.835805
 11
3.86427
 21
1.10806
  0
LINE
  8
0
 10
3.86427
 20
1.10806
 11
3.77756
 21
1.37492
  0
LINE
  8
0
 10
3.77756
 20
1.37492
 11
3.67245
 21
1.63508
  0
LINE
  8
0
 10
3.67245
 20
1.63508
 11
3.54945
 21
1.88727
  0
LINE
  8
0
 10
3.54945
 20
1.88727
 11
3.40915
 21
2.13027
  0
LINE
  8
0
 10
3.40915
 20
2.13027
 11
3.25225
 21
2.3629
  0
LINE
  8
0
 10
3.25225
 20
2.3629
 11
3.0795
 21
2.58401
  0
LINE
  8
0
 10
3.0795
 20
2.58401
 11
2.89175
 21
2.79253
  0
LINE
  8
0
 10
2.89175
 20
2.79253
 11
2.6899
 21
2.98744
  0
LINE
  8
0
 10
2.6899
 20
2.98744
 11
2.47496
 21
3.1678
  0
LINE
  8
0
 10
2.47496
 20
3.1678
 11
2.24796
 21
3.33273
  0
LINE
  8
0
 10
2.24796
 20
3.33273
 11
2.01
 21
3.48142
  0
LINE
  8
0
 10
2.01
 20
3.48142
 11
1.76225
 21
3.61315
  0
LINE
  8
0
 10
1.76225
 20
3.61315
 11
1.50592
 21
3.72728
  0
LINE
  8
0
 10
1.50592
 20
3.72728
 11
1.24225
 21
3.82325
  0
LINE
  8
0
 10
1.24225
 20
3.82325
 11
0.972526
 21
3.90059
  0
LINE
  8
0
 10
0.972526
 20
3.90059
 11
0.698065
 21
3.95893
  0
LINE
  8
0
 10
0.698065
 20
3.95893
 11
0.420204
 21
3.99798
  0
LINE
  8
0
 10
0.420204
 20
3.99798
 11
0.140295
 21
4.01755
  0
LINE
  8
0
 10
0.140295
 20
4.01755
 11
-0.140295
 21
4.01755
  0
LINE
  8
0
 10
-0.140295
 20
4.01755
 11
-0.420204
 21
3.99798
  0
LINE
  8
0
 10
-0.420204
 20
3.99798
 11
-0.698065
 21
3.95893
  0
LINE
  8
0
 10
-0.698065
 20
3.95893
 11
-0.972526
 21
3.90059
  0
LINE
  8
0
 10
-0.972526
 20
3.90059
 11
-1.24225
 21
3.82325
  0
LINE
  8
0
 10
-1.24225
 20
3.82325
 11
-1.50592
 21
3.72728
  0
LINE
  8
0
 10
-1.50592
 20
3.72728
 11
-1.76225
 21
3.61315
  0
LINE
  8
0
 10
-1.76225
 20
3.61315
 11
-2.01
 21
3.48142
  0
LINE
  8
0
 10
-2.01
 20
3.48142
 11
-2.24796
 21
3.33273
  0
LINE
  8
0
 10
-2.24796
 20
3.33273
 11
-2.47496
 21
3.1678
  0
LINE
  8
0
 10
-2.47496
 20
3.1678
 11
-2.6899
 21
2.98744
  0
LINE
  8
0
 10
-2.6899
 20
2.98744
 11
-2.89175
 21
2.79253
  0
LINE
  8
0
 10
-2.89175
 20
2.79253
 11
-3.0795
 21
2.58401
  0
LINE
  8
0
 10
-3.0795
 20
2.58401
 11
-3.25225
 21
2.3629
  0
LINE
  8
0
 10
-3.25225
 20
2.3629
 11
-3.40915
 21
2.13027
  0
LINE
  8
0
 10
-3.40915
 20
2.13027
 11
-3.54945
 21
1.88727
  0
LINE
  8
0
 10
-3.54945
 20
1.88727
 11
-3.67245
 21
1.63508
  0
LINE
  8
0
 10
-3.67245
 20
1.63508
 11
-3.77756
 21
1.37492
  0
LINE
  8
0
 10
-3.77756
 20
1.37492
 11
-3.86427
 21
1.10806
  0
LINE
  8
0
 10
-3.86427
 20
1.10806
 11
-3.93215
 21
0.835805
  0
LINE
  8
0
 10
-3.93215
 20
0.835805
 11
-3.98088
 21
0.559475
  0
LINE
  8
0
 10
-3.98088
 20
0.559475
 11
-4.01021
 21
0.28042
  0
LINE
  8
0
 10
-4.01021
 20
0.28042
 11
-4.02
 21
0
  0
LINE
  8
0
 10
-2.98
 20
0
 11
-2.97274
 21
0.207873
  0
LINE
  8
0
 10
-2.97274
 20
0.207873
 11
-2.951
 21
0.414736
  0
LINE
  8
0
 10
-2.951
 20
0.414736
 11
-2.91488
 21
0.619576
  0
LINE
  8
0
 10
-2.91488
 20
0.619576
 11
-2.86456
 21
0.821399
  0
LINE
  8
0
 10
-2.86456
 20
0.821399
 11
-2.80028
 21
1.01922
  0
LINE
  8
0
 10
-2.80028
 20
1.01922
 11
-2.72237
 21
1.21207
  0
LINE
  8
0
 10
-2.72237
 20
1.21207
 11
-2.63118
 21
1.39902
  0
LINE
  8
0
 10
-2.63118
 20
1.39902
 11
-2.52718
 21
1.57916
  0
LINE
  8
0
 10
-2.52718
 20
1.57916
 11
-2.41087
 21
1.7516
  0
LINE
  8
0
 10
-2.41087
 20
1.7516
 11
-2.28281
 21
1.91551
  0
LINE
  8
0
 10
-2.28281
 20
1.91551
 11
-2.14363
 21
2.07008
  0
LINE
  8
0
 10
-2.14363
 20
2.07008
 11
-1.99401
 21
2.21457
  0
LINE
  8
0
 10
-1.99401
 20
2.21457
 11
-1.83467
 21
2.34827
  0
LINE
  8
0
 10
-1.83467
 20
2.34827
 11
-1.66639
 21
2.47053
  0
LINE
  8
0
 10
-1.66639
 20
2.47053
 11
-1.49
 21
2.58076
  0
LINE
  8
0
 10
-1.49
 20
2.58076
 11
-1.30635
 21
2.67841
  0
LINE
  8
0
 10
-1.30635
 20
2.67841
 11
-1.11633
 21
2.76301
  0
LINE
  8
0
 10
-1.11633
 20
2.76301
 11
-0.92087
 21
2.83415
  0
LINE
  8
0
 10
-0.92087
 20
2.83415
 11
-0.720927
 21
2.89148
  0
LINE
  8
0
 10
-0.720927
 20
2.89148
 11
-0.517471
 21
2.93473
  0
LINE
  8
0
 10
-0.517471
 20
2.93473
 11
-0.311494
 21
2.96367
  0
LINE
  8
0
 10
-0.311494
 20
2.96367
 11
-0.104
 21
2.97818
  0
LINE
  8
0
 10
-0.104
 20
2.97818
 11
0.104
 21
2.97818
  0
LINE
  8
0
 10
0.104
 20
2.97818
 11
0.311494
 21
2.96367
  0
LINE
  8
0
 10
0.311494
 20
2.96367
 11
0.517471
 21
2.93473
  0
LINE
  8
0
 10
0.517471
 20
2.93473
 11
0.720927
 21
2.89148
  0
LINE
  8
0
 10
0.720927
 20
2.89148
 11
0.92087
 21
2.83415
  0
LINE
  8
0
 10
0.92087
 20
2.83415
 11
1.11633
 21
2.76301
  0
LINE
  8
0
 10
1.11633
 20
2.76301
 11
1.30635
 21
2.67841
  0
LINE
  8
0
 10
1.30635
 20
2.67841
 11
1.49
 21
2.58076
  0
LINE
  8
0
 10
1.49
 20
2.58076
 11
1.66639
 21
2.47053
  0
LINE
  8
0
 10
1.66639
 20
2.47053
 11
1.83467
 21
2.34827
  0
LINE
  8
0
 10
1.83467
 20
2.34827
 11
1.99401
 21
2.21457
  0
LINE
  8
0
 10
1.99401
 20
2.21457
 11
2.14363
 21
2.07008
  0
LINE
  8
0
 10
2.14363
 20
2.07008
 11
2.28281
 21
1.91551
  0
LINE
  8
0
 10
2.28281
 20
1.91551
 11
2.41087
 21
1.7516
  0
LINE
  8
0
 10
2.41087
 20
1.7516
 11
2.52718
 21
1.57916
  0
LINE
  8
0
 10
2.52718
 20
1.57916
 11
2.63118
 21
1.39902
  0
LINE
  8
0
 10
2.63118
 20
1.39902
 11
2.72237
 21
1.21207
  0
LINE
  8
0
 10
2.72237
 20
1.21207
 11
2.80028
 21
1.01922
  0
LINE
  8
0
 10
2.80028
 20
1.01922
 11
2.86456
 21
0.821399
  0
LINE
  8
0
 10
2.86456
 20
0.821399
 11
2.91488
 21
0.619576
  0
LINE
  8
0
 10
2.91488
 20
0.619576
 11
2.951
 21
0.414736
  0
LINE
  8
0
 10
2.951
 20
0.414736
 11
2.97274
 21
0.207873
  0
LINE
  8
0
 10
2.97274
 20
0.207873
 11
2.98
 21
0
  0
LINE
  8
0
 10
2.98
 20
0
 11
2.97274
 21
-0.207873
  0
LINE
  8
0
 10
2.97274
 20
-0.207873
 11
2.951
 21
-0.414736
  0
LINE
  8
0
 10
2.951
 20
-0.414736
 11
2.91488
 21
-0.619576
  0
LINE
  8
0
 10
2.91488
 20
-0.619576
 11
2.86456
 21
-0.821399
  0
LINE
  8
0
 10
2.86456
 20
-0.821399
 11
2.80028
 21
-1.01922
  0
LINE
  8
0
 10
2.80028
 20
-1.01922
 11
2.72237
 21
-1.21207
  0
LINE
  8
0
 10
2.72237
 20
-1.21207
 11
2.63118
 21
-1.39902
  0
LINE
  8
0
 10
2.63118
 20
-1.39902
 11
2.52718
 21
-1.57916
  0
LINE
  8
0
 10
2.52718
 20
-1.57916
 11
2.41087
 21
-1.7516
  0
LINE
  8
0
 10
2.41087
 20
-1.7516
 11
2.28281
 21
-1.91551
  0
LINE
  8
0
 10
2.28281
 20
-1.91551
 11
2.14363
 21
-2.07008
  0
LINE
  8
0
 10
2.14363
 20
-2.07008
 11
1.99401
 21
-2.21457
  0
LINE
  8
0
 10
1.99401
 20
-2.21457
 11
1.83467
 21
-2.34827
  0
LINE
  8
0
 10
1.83467
 20
-2.34827
 11
1.66639
 21
-2.47053
  0
LINE
  8
0
 10
1.66639
 20
-2.47053
 11
1.49
 21
-2.58076
  0
LINE
  8
0
 10
1.49
 20
-2.58076
 11
1.30635
 21
-2.67841
  0
LINE
  8
0
 10
1.30635
 20
-2.67841
 11
1.11633
 21
-2.76301
  0
LINE
  8
0
 10
1.11633
 20
-2.76301
 11
0.92087
 21
-2.83415
  0
LINE
  8
0
 10
0.92087
 20
-2.83415
 11
0.720927
 21
-2.89148
  0
LINE
  8
0
 10
0.720927
 20
-2.89148
 11
0.517471
 21
-2.93473
  0
LINE
  8
0
 10
0.517471
 20
-2.93473
 11
0.311494
 21
-2.96367
  0
LINE
  8
0
 10
0.311494
 20
-2.96367
 11
0.104
 21
-2.97818
  0
LINE
  8
0
 10
0.104
 20
-2.97818
 11
-0.104
 21
-2.97818
  0
LINE
  8
0
 10
-0.104
 20
-2.97818
 11
-0.311494
 21
-2.96367
  0
LINE
  8
0
 10
-0.311494
 20
-2.96367
 11
-0.517471
 21
-2.93473
  0
LINE
  8
0
 10
-0.517471
 20
-2.93473
 11
-0.720927
 21
-2.89148
  0
LINE
  8
0
 10
-0.720927
 20
-2.89148
 11
-0.92087
 21
-2.83415
  0
LINE
  8
0
 10
-0.92087
 20
-2.83415
 11
-1.11633
 21
-2.76301
  0
LINE
  8
0
 10
-1.11633
 20
-2.76301
 11
-1.30635
 21
-2.67841
  0
LINE
  8
0
 10
-1.30635
 20
-2.67841
 11
-1.49
 21
-2.58076
  0
LINE
  8
0
 10
-1.49
 20
-2.58076
 11
-1.66639
 21
-2.47053
  0
LINE
  8
0
 10
-1.66639
 20
-2.47053
 11
-1.83467
 21
-2.34827
  0
LINE
  8
0
 10
-1.83467
 20
-2.34827
 11
-1.99401
 21
-2.21457
  0
LINE
  8
0
 10
-1.99401
 20
-2.21457
 11
-2.14363
 21
-2.07008
  0
LINE
  8
0
 10
-2.14363
 20
-2.07008
 11
-2.28281
 21
-1.91551
  0
LINE
  8
0
 10
-2.28281
 20
-1.91551
 11
-2.41087
 21
-1.7516
  0
LINE
  8
0
 10
-2.41087
 20
-1.7516
 11
-2.52718
 21
-1.57916
  0
LINE
  8
0
 10
-2.52718
 20
-1.57916
 11
-2.63118
 21
-1.39902
  0
LINE
  8
0
 10
-2.63118
 20
-1.39902
 11
-2.72237
 21
-1.21207
  0
LINE
  8
0
 10
-2.72237
 20
-1.21207
 11
-2.80028
 21
-1.01922
  0
LINE
  8
0
 10
-2.80028
 20
-1.01922
 11
-2.86456
 21
-0.821399
  0
LINE
  8
0
 10
-2.86456
 20
-0.821399
 11
-2.91488
 21
-0.619576
  0
LINE
  8
0
 10
-2.91488
 20
-0.619576
 11
-2.951
 21
-0.414736
  0
LINE
  8
0
 10
-2.951
 20
-0.414736
 11
-2.97274
 21
-0.207873
  0
LINE
  8
0
 10
-2.97274
 20
-0.207873
 11
-2.98
 21
0
  0
ENDSEC
  0
SECTION
  2
OBJECTS
  0
DICTIONARY
  0
ENDSEC
  0
EOF
