  0
SECTION
  2
BLOCKS
  0
ENDSEC
  0
SECTION
  2
ENTITIES
  0
LINE
  8
0
 10
-49.0625
 20
-21.625
 11
-49.0337
 21
-22.449
  0
LINE
  8
0
 10
-49.0337
 20
-22.449
 11
-48.9475
 21
-23.269
  0
LINE
  8
0
 10
-48.9475
 20
-23.269
 11
-48.8044
 21
-24.081
  0
LINE
  8
0
 10
-48.8044
 20
-24.081
 11
-48.6049
 21
-24.881
  0
LINE
  8
0
 10
-48.6049
 20
-24.881
 11
-48.3501
 21
-25.6651
  0
LINE
  8
0
 10
-48.3501
 20
-25.6651
 11
-48.0413
 21
-26.4296
  0
LINE
  8
0
 10
-48.0413
 20
-26.4296
 11
-47.6798
 21
-27.1706
  0
LINE
  8
0
 10
-47.6798
 20
-27.1706
 11
-47.2676
 21
-27.8847
  0
LINE
  8
0
 10
-47.2676
 20
-27.8847
 11
-46.8065
 21
-28.5682
  0
LINE
  8
0
 10
-46.8065
 20
-28.5682
 11
-46.2989
 21
-29.2179
  0
LINE
  8
0
 10
-46.2989
 20
-29.2179
 11
-45.7472
 21
-29.8307
  0
LINE
  8
0
 10
-45.7472
 20
-29.8307
 11
-45.1541
 21
-30.4034
  0
LINE
  8
0
 10
-45.1541
 20
-30.4034
 11
-44.5225
 21
-30.9334
  0
LINE
  8
0
 10
-44.5225
 20
-30.9334
 11
-43.8555
 21
-31.418
  0
LINE
  8
0
 10
-43.8555
 20
-31.418
 11
-43.1562
 21
-31.8549
  0
LINE
  8
0
 10
-43.1562
 20
-31.8549
 11
-42.4283
 21
-32.242
  0
LINE
  8
0
 10
-42.4283
 20
-32.242
 11
-41.675
 21
-32.5774
  0
LINE
  8
0
 10
-41.675
 20
-32.5774
 11
-40.9003
 21
-32.8594
  0
LINE
  8
0
 10
-40.9003
 20
-32.8594
 11
-40.1077
 21
-33.0866
  0
LINE
  8
0
 10
-40.1077
 20
-33.0866
 11
-39.3012
 21
-33.258
  0
LINE
  8
0
 10
-39.3012
 20
-33.258
 11
-38.4847
 21
-33.3728
  0
LINE
  8
0
 10
-38.4847
 20
-33.3728
 11
-37.6622
 21
-33.4303
  0
LINE
  8
0
 10
-37.6622
 20
-33.4303
 11
37.6622
 21
-33.4303
  0
LINE
  8
0
 10
37.6622
 20
-33.4303
 11
38.4847
 21
-33.3728
  0
LINE
  8
0
 10
38.4847
 20
-33.3728
 11
39.3012
 21
-33.258
  0
LINE
  8
0
 10
39.3012
 20
-33.258
 11
40.1077
 21
-33.0866
  0
LINE
  8
0
 10
40.1077
 20
-33.0866
 11
40.9003
 21
-32.8594
  0
LINE
  8
0
 10
40.9003
 20
-32.8594
 11
41.675
 21
-32.5774
  0
LINE
  8
0
 10
41.675
 20
-32.5774
 11
42.4283
 21
-32.242
  0
LINE
  8
0
 10
42.4283
 20
-32.242
 11
43.1562
 21
-31.8549
  0
LINE
  8
0
 10
43.1562
 20
-31.8549
 11
43.8555
 21
-31.418
  0
LINE
  8
0
 10
43.8555
 20
-31.418
 11
44.5225
 21
-30.9334
  0
LINE
  8
0
 10
44.5225
 20
-30.9334
 11
45.1541
 21
-30.4034
  0
LINE
  8
0
 10
45.1541
 20
-30.4034
 11
45.7472
 21
-29.8307
  0
LINE
  8
0
 10
45.7472
 20
-29.8307
 11
46.2989
 21
-29.2179
  0
LINE
  8
0
 10
46.2989
 20
-29.2179
 11
46.8065
 21
-28.5682
  0
LINE
  8
0
 10
46.8065
 20
-28.5682
 11
47.2676
 21
-27.8847
  0
LINE
  8
0
 10
47.2676
 20
-27.8847
 11
47.6798
 21
-27.1706
  0
LINE
  8
0
 10
47.6798
 20
-27.1706
 11
48.0413
 21
-26.4296
  0
LINE
  8
0
 10
48.0413
 20
-26.4296
 11
48.3501
 21
-25.6651
  0
LINE
  8
0
 10
48.3501
 20
-25.6651
 11
48.6049
 21
-24.881
  0
LINE
  8
0
 10
48.6049
 20
-24.881
 11
48.8044
 21
-24.081
  0
LINE
  8
0
 10
48.8044
 20
-24.081
 11
48.9475
 21
-23.269
  0
LINE
  8
0
 10
48.9475
 20
-23.269
 11
49.0337
 21
-22.449
  0
LINE
  8
0
 10
49.0337
 20
-22.449
 11
49.0625
 21
-21.625
  0
LINE
  8
0
 10
49.0625
 20
-21.625
 11
49.0625
 21
21.625
  0
LINE
  8
0
 10
49.0625
 20
21.625
 11
49.0337
 21
22.449
  0
LINE
  8
0
 10
49.0337
 20
22.449
 11
48.9475
 21
23.269
  0
LINE
  8
0
 10
48.9475
 20
23.269
 11
48.8044
 21
24.081
  0
LINE
  8
0
 10
48.8044
 20
24.081
 11
48.6049
 21
24.881
  0
LINE
  8
0
 10
48.6049
 20
24.881
 11
48.3501
 21
25.6651
  0
LINE
  8
0
 10
48.3501
 20
25.6651
 11
48.0413
 21
26.4296
  0
LINE
  8
0
 10
48.0413
 20
26.4296
 11
47.6798
 21
27.1706
  0
LINE
  8
0
 10
47.6798
 20
27.1706
 11
47.2676
 21
27.8847
  0
LINE
  8
0
 10
47.2676
 20
27.8847
 11
46.8065
 21
28.5682
  0
LINE
  8
0
 10
46.8065
 20
28.5682
 11
46.2989
 21
29.2179
  0
LINE
  8
0
 10
46.2989
 20
29.2179
 11
45.7472
 21
29.8307
  0
LINE
  8
0
 10
45.7472
 20
29.8307
 11
45.1541
 21
30.4034
  0
LINE
  8
0
 10
45.1541
 20
30.4034
 11
44.5225
 21
30.9334
  0
LINE
  8
0
 10
44.5225
 20
30.9334
 11
43.8555
 21
31.418
  0
LINE
  8
0
 10
43.8555
 20
31.418
 11
43.1562
 21
31.8549
  0
LINE
  8
0
 10
43.1562
 20
31.8549
 11
42.4283
 21
32.242
  0
LINE
  8
0
 10
42.4283
 20
32.242
 11
41.675
 21
32.5774
  0
LINE
  8
0
 10
41.675
 20
32.5774
 11
40.9003
 21
32.8594
  0
LINE
  8
0
 10
40.9003
 20
32.8594
 11
40.1077
 21
33.0866
  0
LINE
  8
0
 10
40.1077
 20
33.0866
 11
39.3012
 21
33.258
  0
LINE
  8
0
 10
39.3012
 20
33.258
 11
38.4847
 21
33.3728
  0
LINE
  8
0
 10
38.4847
 20
33.3728
 11
37.6622
 21
33.4303
  0
LINE
  8
0
 10
37.6622
 20
33.4303
 11
-37.6622
 21
33.4303
  0
LINE
  8
0
 10
-37.6622
 20
33.4303
 11
-38.4847
 21
33.3728
  0
LINE
  8
0
 10
-38.4847
 20
33.3728
 11
-39.3012
 21
33.258
  0
LINE
  8
0
 10
-39.3012
 20
33.258
 11
-40.1077
 21
33.0866
  0
LINE
  8
0
 10
-40.1077
 20
33.0866
 11
-40.9003
 21
32.8594
  0
LINE
  8
0
 10
-40.9003
 20
32.8594
 11
-41.675
 21
32.5774
  0
LINE
  8
0
 10
-41.675
 20
32.5774
 11
-42.4283
 21
32.242
  0
LINE
  8
0
 10
-42.4283
 20
32.242
 11
-43.1562
 21
31.8549
  0
LINE
  8
0
 10
-43.1562
 20
31.8549
 11
-43.8555
 21
31.418
  0
LINE
  8
0
 10
-43.8555
 20
31.418
 11
-44.5225
 21
30.9334
  0
LINE
  8
0
 10
-44.5225
 20
30.9334
 11
-45.1541
 21
30.4034
  0
LINE
  8
0
 10
-45.1541
 20
30.4034
 11
-45.7472
 21
29.8307
  0
LINE
  8
0
 10
-45.7472
 20
29.8307
 11
-46.2989
 21
29.2179
  0
LINE
  8
0
 10
-46.2989
 20
29.2179
 11
-46.8065
 21
28.5682
  0
LINE
  8
0
 10
-46.8065
 20
28.5682
 11
-47.2676
 21
27.8847
  0
LINE
  8
0
 10
-47.2676
 20
27.8847
 11
-47.6798
 21
27.1706
  0
LINE
  8
0
 10
-47.6798
 20
27.1706
 11
-48.0413
 21
26.4296
  0
LINE
  8
0
 10
-48.0413
 20
26.4296
 11
-48.3501
 21
25.6651
  0
LINE
  8
0
 10
-48.3501
 20
25.6651
 11
-48.6049
 21
24.881
  0
LINE
  8
0
 10
-48.6049
 20
24.881
 11
-48.8044
 21
24.081
  0
LINE
  8
0
 10
-48.8044
 20
24.081
 11
-48.9475
 21
23.269
  0
LINE
  8
0
 10
-48.9475
 20
23.269
 11
-49.0337
 21
22.449
  0
LINE
  8
0
 10
-49.0337
 20
22.449
 11
-49.0625
 21
21.625
  0
LINE
  8
0
 10
-49.0625
 20
21.625
 11
-49.0625
 21
-21.625
  0
LINE
  8
0
 10
-4.5
 20
-4.75822
 11
-4.5
 21
4.75822
  0
LINE
  8
0
 10
-4.5
 20
4.75822
 11
4.5
 21
4.75822
  0
LINE
  8
0
 10
4.5
 20
4.75822
 11
4.5
 21
-4.75822
  0
LINE
  8
0
 10
4.5
 20
-4.75822
 11
-4.5
 21
-4.75822
  0
ENDSEC
  0
SECTION
  2
OBJECTS
  0
DICTIONARY
  0
ENDSEC
  0
EOF
