  0
SECTION
  2
BLOCKS
  0
ENDSEC
  0
SECTION
  2
ENTITIES
  0
LINE
  8
0
 10
-65.43
 20
-97.0173
 11
65.41
 21
-97.0173
  0
LINE
  8
0
 10
65.41
 20
-97.0173
 11
65.44
 21
-97
  0
LINE
  8
0
 10
65.44
 20
-97
 11
65.44
 21
97
  0
LINE
  8
0
 10
65.44
 20
97
 11
65.41
 21
97.0173
  0
LINE
  8
0
 10
65.41
 20
97.0173
 11
-65.43
 21
97.0173
  0
LINE
  8
0
 10
-65.43
 20
97.0173
 11
-65.43
 21
-97.0173
  0
LINE
  8
0
 10
-60.48
 20
-90.6
 11
-60.4764
 21
-90.4982
  0
LINE
  8
0
 10
-60.4764
 20
-90.4982
 11
-60.4658
 21
-90.3968
  0
LINE
  8
0
 10
-60.4658
 20
-90.3968
 11
-60.4481
 21
-90.2964
  0
LINE
  8
0
 10
-60.4481
 20
-90.2964
 11
-60.4234
 21
-90.1976
  0
LINE
  8
0
 10
-60.4234
 20
-90.1976
 11
-60.392
 21
-90.1006
  0
LINE
  8
0
 10
-60.392
 20
-90.1006
 11
-60.3538
 21
-90.0062
  0
LINE
  8
0
 10
-60.3538
 20
-90.0062
 11
-60.3091
 21
-89.9146
  0
LINE
  8
0
 10
-60.3091
 20
-89.9146
 11
-60.2582
 21
-89.8263
  0
LINE
  8
0
 10
-60.2582
 20
-89.8263
 11
-60.2012
 21
-89.7418
  0
LINE
  8
0
 10
-60.2012
 20
-89.7418
 11
-60.1384
 21
-89.6615
  0
LINE
  8
0
 10
-60.1384
 20
-89.6615
 11
-60.0702
 21
-89.5858
  0
LINE
  8
0
 10
-60.0702
 20
-89.5858
 11
-59.9969
 21
-89.515
  0
LINE
  8
0
 10
-59.9969
 20
-89.515
 11
-59.9189
 21
-89.4495
  0
LINE
  8
0
 10
-59.9189
 20
-89.4495
 11
-59.8364
 21
-89.3896
  0
LINE
  8
0
 10
-59.8364
 20
-89.3896
 11
-59.75
 21
-89.3356
  0
LINE
  8
0
 10
-59.75
 20
-89.3356
 11
-59.66
 21
-89.2878
  0
LINE
  8
0
 10
-59.66
 20
-89.2878
 11
-59.5669
 21
-89.2463
  0
LINE
  8
0
 10
-59.5669
 20
-89.2463
 11
-59.4712
 21
-89.2115
  0
LINE
  8
0
 10
-59.4712
 20
-89.2115
 11
-59.3732
 21
-89.1834
  0
LINE
  8
0
 10
-59.3732
 20
-89.1834
 11
-59.2735
 21
-89.1622
  0
LINE
  8
0
 10
-59.2735
 20
-89.1622
 11
-59.1726
 21
-89.148
  0
LINE
  8
0
 10
-59.1726
 20
-89.148
 11
-59.071
 21
-89.1409
  0
LINE
  8
0
 10
-59.071
 20
-89.1409
 11
-58.969
 21
-89.1409
  0
LINE
  8
0
 10
-58.969
 20
-89.1409
 11
-58.8674
 21
-89.148
  0
LINE
  8
0
 10
-58.8674
 20
-89.148
 11
-58.7665
 21
-89.1622
  0
LINE
  8
0
 10
-58.7665
 20
-89.1622
 11
-58.6668
 21
-89.1834
  0
LINE
  8
0
 10
-58.6668
 20
-89.1834
 11
-58.5688
 21
-89.2115
  0
LINE
  8
0
 10
-58.5688
 20
-89.2115
 11
-58.4731
 21
-89.2463
  0
LINE
  8
0
 10
-58.4731
 20
-89.2463
 11
-58.38
 21
-89.2878
  0
LINE
  8
0
 10
-58.38
 20
-89.2878
 11
-58.29
 21
-89.3356
  0
LINE
  8
0
 10
-58.29
 20
-89.3356
 11
-58.2036
 21
-89.3896
  0
LINE
  8
0
 10
-58.2036
 20
-89.3896
 11
-58.1211
 21
-89.4495
  0
LINE
  8
0
 10
-58.1211
 20
-89.4495
 11
-58.0431
 21
-89.515
  0
LINE
  8
0
 10
-58.0431
 20
-89.515
 11
-57.9698
 21
-89.5858
  0
LINE
  8
0
 10
-57.9698
 20
-89.5858
 11
-57.9016
 21
-89.6615
  0
LINE
  8
0
 10
-57.9016
 20
-89.6615
 11
-57.8388
 21
-89.7418
  0
LINE
  8
0
 10
-57.8388
 20
-89.7418
 11
-57.7818
 21
-89.8263
  0
LINE
  8
0
 10
-57.7818
 20
-89.8263
 11
-57.7309
 21
-89.9146
  0
LINE
  8
0
 10
-57.7309
 20
-89.9146
 11
-57.6862
 21
-90.0062
  0
LINE
  8
0
 10
-57.6862
 20
-90.0062
 11
-57.648
 21
-90.1006
  0
LINE
  8
0
 10
-57.648
 20
-90.1006
 11
-57.6166
 21
-90.1976
  0
LINE
  8
0
 10
-57.6166
 20
-90.1976
 11
-57.5919
 21
-90.2964
  0
LINE
  8
0
 10
-57.5919
 20
-90.2964
 11
-57.5742
 21
-90.3968
  0
LINE
  8
0
 10
-57.5742
 20
-90.3968
 11
-57.5636
 21
-90.4982
  0
LINE
  8
0
 10
-57.5636
 20
-90.4982
 11
-57.56
 21
-90.6
  0
LINE
  8
0
 10
-57.56
 20
-90.6
 11
-57.5636
 21
-90.7018
  0
LINE
  8
0
 10
-57.5636
 20
-90.7018
 11
-57.5742
 21
-90.8032
  0
LINE
  8
0
 10
-57.5742
 20
-90.8032
 11
-57.5919
 21
-90.9036
  0
LINE
  8
0
 10
-57.5919
 20
-90.9036
 11
-57.6166
 21
-91.0024
  0
LINE
  8
0
 10
-57.6166
 20
-91.0024
 11
-57.648
 21
-91.0993
  0
LINE
  8
0
 10
-57.648
 20
-91.0993
 11
-57.6862
 21
-91.1938
  0
LINE
  8
0
 10
-57.6862
 20
-91.1938
 11
-57.7309
 21
-91.2854
  0
LINE
  8
0
 10
-57.7309
 20
-91.2854
 11
-57.7818
 21
-91.3737
  0
LINE
  8
0
 10
-57.7818
 20
-91.3737
 11
-57.8388
 21
-91.4582
  0
LINE
  8
0
 10
-57.8388
 20
-91.4582
 11
-57.9016
 21
-91.5385
  0
LINE
  8
0
 10
-57.9016
 20
-91.5385
 11
-57.9698
 21
-91.6142
  0
LINE
  8
0
 10
-57.9698
 20
-91.6142
 11
-58.0431
 21
-91.685
  0
LINE
  8
0
 10
-58.0431
 20
-91.685
 11
-58.1211
 21
-91.7505
  0
LINE
  8
0
 10
-58.1211
 20
-91.7505
 11
-58.2036
 21
-91.8104
  0
LINE
  8
0
 10
-58.2036
 20
-91.8104
 11
-58.29
 21
-91.8644
  0
LINE
  8
0
 10
-58.29
 20
-91.8644
 11
-58.38
 21
-91.9122
  0
LINE
  8
0
 10
-58.38
 20
-91.9122
 11
-58.4731
 21
-91.9537
  0
LINE
  8
0
 10
-58.4731
 20
-91.9537
 11
-58.5688
 21
-91.9885
  0
LINE
  8
0
 10
-58.5688
 20
-91.9885
 11
-58.6668
 21
-92.0166
  0
LINE
  8
0
 10
-58.6668
 20
-92.0166
 11
-58.7665
 21
-92.0378
  0
LINE
  8
0
 10
-58.7665
 20
-92.0378
 11
-58.8674
 21
-92.052
  0
LINE
  8
0
 10
-58.8674
 20
-92.052
 11
-58.969
 21
-92.0591
  0
LINE
  8
0
 10
-58.969
 20
-92.0591
 11
-59.071
 21
-92.0591
  0
LINE
  8
0
 10
-59.071
 20
-92.0591
 11
-59.1726
 21
-92.052
  0
LINE
  8
0
 10
-59.1726
 20
-92.052
 11
-59.2735
 21
-92.0378
  0
LINE
  8
0
 10
-59.2735
 20
-92.0378
 11
-59.3732
 21
-92.0166
  0
LINE
  8
0
 10
-59.3732
 20
-92.0166
 11
-59.4712
 21
-91.9885
  0
LINE
  8
0
 10
-59.4712
 20
-91.9885
 11
-59.5669
 21
-91.9537
  0
LINE
  8
0
 10
-59.5669
 20
-91.9537
 11
-59.66
 21
-91.9122
  0
LINE
  8
0
 10
-59.66
 20
-91.9122
 11
-59.75
 21
-91.8644
  0
LINE
  8
0
 10
-59.75
 20
-91.8644
 11
-59.8364
 21
-91.8104
  0
LINE
  8
0
 10
-59.8364
 20
-91.8104
 11
-59.9189
 21
-91.7505
  0
LINE
  8
0
 10
-59.9189
 20
-91.7505
 11
-59.9969
 21
-91.685
  0
LINE
  8
0
 10
-59.9969
 20
-91.685
 11
-60.0702
 21
-91.6142
  0
LINE
  8
0
 10
-60.0702
 20
-91.6142
 11
-60.1384
 21
-91.5385
  0
LINE
  8
0
 10
-60.1384
 20
-91.5385
 11
-60.2012
 21
-91.4582
  0
LINE
  8
0
 10
-60.2012
 20
-91.4582
 11
-60.2582
 21
-91.3737
  0
LINE
  8
0
 10
-60.2582
 20
-91.3737
 11
-60.3091
 21
-91.2854
  0
LINE
  8
0
 10
-60.3091
 20
-91.2854
 11
-60.3538
 21
-91.1938
  0
LINE
  8
0
 10
-60.3538
 20
-91.1938
 11
-60.392
 21
-91.0993
  0
LINE
  8
0
 10
-60.392
 20
-91.0993
 11
-60.4234
 21
-91.0024
  0
LINE
  8
0
 10
-60.4234
 20
-91.0024
 11
-60.4481
 21
-90.9036
  0
LINE
  8
0
 10
-60.4481
 20
-90.9036
 11
-60.4658
 21
-90.8032
  0
LINE
  8
0
 10
-60.4658
 20
-90.8032
 11
-60.4764
 21
-90.7018
  0
LINE
  8
0
 10
-60.4764
 20
-90.7018
 11
-60.48
 21
-90.6
  0
LINE
  8
0
 10
-60.48
 20
90.6
 11
-60.4764
 21
90.7018
  0
LINE
  8
0
 10
-60.4764
 20
90.7018
 11
-60.4658
 21
90.8032
  0
LINE
  8
0
 10
-60.4658
 20
90.8032
 11
-60.4481
 21
90.9036
  0
LINE
  8
0
 10
-60.4481
 20
90.9036
 11
-60.4234
 21
91.0024
  0
LINE
  8
0
 10
-60.4234
 20
91.0024
 11
-60.392
 21
91.0993
  0
LINE
  8
0
 10
-60.392
 20
91.0993
 11
-60.3538
 21
91.1938
  0
LINE
  8
0
 10
-60.3538
 20
91.1938
 11
-60.3091
 21
91.2854
  0
LINE
  8
0
 10
-60.3091
 20
91.2854
 11
-60.2582
 21
91.3737
  0
LINE
  8
0
 10
-60.2582
 20
91.3737
 11
-60.2012
 21
91.4582
  0
LINE
  8
0
 10
-60.2012
 20
91.4582
 11
-60.1384
 21
91.5385
  0
LINE
  8
0
 10
-60.1384
 20
91.5385
 11
-60.0702
 21
91.6142
  0
LINE
  8
0
 10
-60.0702
 20
91.6142
 11
-59.9969
 21
91.685
  0
LINE
  8
0
 10
-59.9969
 20
91.685
 11
-59.9189
 21
91.7505
  0
LINE
  8
0
 10
-59.9189
 20
91.7505
 11
-59.8364
 21
91.8104
  0
LINE
  8
0
 10
-59.8364
 20
91.8104
 11
-59.75
 21
91.8644
  0
LINE
  8
0
 10
-59.75
 20
91.8644
 11
-59.66
 21
91.9122
  0
LINE
  8
0
 10
-59.66
 20
91.9122
 11
-59.5669
 21
91.9537
  0
LINE
  8
0
 10
-59.5669
 20
91.9537
 11
-59.4712
 21
91.9885
  0
LINE
  8
0
 10
-59.4712
 20
91.9885
 11
-59.3732
 21
92.0166
  0
LINE
  8
0
 10
-59.3732
 20
92.0166
 11
-59.2735
 21
92.0378
  0
LINE
  8
0
 10
-59.2735
 20
92.0378
 11
-59.1726
 21
92.052
  0
LINE
  8
0
 10
-59.1726
 20
92.052
 11
-59.071
 21
92.0591
  0
LINE
  8
0
 10
-59.071
 20
92.0591
 11
-58.969
 21
92.0591
  0
LINE
  8
0
 10
-58.969
 20
92.0591
 11
-58.8674
 21
92.052
  0
LINE
  8
0
 10
-58.8674
 20
92.052
 11
-58.7665
 21
92.0378
  0
LINE
  8
0
 10
-58.7665
 20
92.0378
 11
-58.6668
 21
92.0166
  0
LINE
  8
0
 10
-58.6668
 20
92.0166
 11
-58.5688
 21
91.9885
  0
LINE
  8
0
 10
-58.5688
 20
91.9885
 11
-58.4731
 21
91.9537
  0
LINE
  8
0
 10
-58.4731
 20
91.9537
 11
-58.38
 21
91.9122
  0
LINE
  8
0
 10
-58.38
 20
91.9122
 11
-58.29
 21
91.8644
  0
LINE
  8
0
 10
-58.29
 20
91.8644
 11
-58.2036
 21
91.8104
  0
LINE
  8
0
 10
-58.2036
 20
91.8104
 11
-58.1211
 21
91.7505
  0
LINE
  8
0
 10
-58.1211
 20
91.7505
 11
-58.0431
 21
91.685
  0
LINE
  8
0
 10
-58.0431
 20
91.685
 11
-57.9698
 21
91.6142
  0
LINE
  8
0
 10
-57.9698
 20
91.6142
 11
-57.9016
 21
91.5385
  0
LINE
  8
0
 10
-57.9016
 20
91.5385
 11
-57.8388
 21
91.4582
  0
LINE
  8
0
 10
-57.8388
 20
91.4582
 11
-57.7818
 21
91.3737
  0
LINE
  8
0
 10
-57.7818
 20
91.3737
 11
-57.7309
 21
91.2854
  0
LINE
  8
0
 10
-57.7309
 20
91.2854
 11
-57.6862
 21
91.1938
  0
LINE
  8
0
 10
-57.6862
 20
91.1938
 11
-57.648
 21
91.0993
  0
LINE
  8
0
 10
-57.648
 20
91.0993
 11
-57.6166
 21
91.0024
  0
LINE
  8
0
 10
-57.6166
 20
91.0024
 11
-57.5919
 21
90.9036
  0
LINE
  8
0
 10
-57.5919
 20
90.9036
 11
-57.5742
 21
90.8032
  0
LINE
  8
0
 10
-57.5742
 20
90.8032
 11
-57.5636
 21
90.7018
  0
LINE
  8
0
 10
-57.5636
 20
90.7018
 11
-57.56
 21
90.6
  0
LINE
  8
0
 10
-57.56
 20
90.6
 11
-57.5636
 21
90.4982
  0
LINE
  8
0
 10
-57.5636
 20
90.4982
 11
-57.5742
 21
90.3968
  0
LINE
  8
0
 10
-57.5742
 20
90.3968
 11
-57.5919
 21
90.2964
  0
LINE
  8
0
 10
-57.5919
 20
90.2964
 11
-57.6166
 21
90.1976
  0
LINE
  8
0
 10
-57.6166
 20
90.1976
 11
-57.648
 21
90.1006
  0
LINE
  8
0
 10
-57.648
 20
90.1006
 11
-57.6862
 21
90.0062
  0
LINE
  8
0
 10
-57.6862
 20
90.0062
 11
-57.7309
 21
89.9146
  0
LINE
  8
0
 10
-57.7309
 20
89.9146
 11
-57.7818
 21
89.8263
  0
LINE
  8
0
 10
-57.7818
 20
89.8263
 11
-57.8388
 21
89.7418
  0
LINE
  8
0
 10
-57.8388
 20
89.7418
 11
-57.9016
 21
89.6615
  0
LINE
  8
0
 10
-57.9016
 20
89.6615
 11
-57.9698
 21
89.5858
  0
LINE
  8
0
 10
-57.9698
 20
89.5858
 11
-58.0431
 21
89.515
  0
LINE
  8
0
 10
-58.0431
 20
89.515
 11
-58.1211
 21
89.4495
  0
LINE
  8
0
 10
-58.1211
 20
89.4495
 11
-58.2036
 21
89.3896
  0
LINE
  8
0
 10
-58.2036
 20
89.3896
 11
-58.29
 21
89.3356
  0
LINE
  8
0
 10
-58.29
 20
89.3356
 11
-58.38
 21
89.2878
  0
LINE
  8
0
 10
-58.38
 20
89.2878
 11
-58.4731
 21
89.2463
  0
LINE
  8
0
 10
-58.4731
 20
89.2463
 11
-58.5688
 21
89.2115
  0
LINE
  8
0
 10
-58.5688
 20
89.2115
 11
-58.6668
 21
89.1834
  0
LINE
  8
0
 10
-58.6668
 20
89.1834
 11
-58.7665
 21
89.1622
  0
LINE
  8
0
 10
-58.7665
 20
89.1622
 11
-58.8674
 21
89.148
  0
LINE
  8
0
 10
-58.8674
 20
89.148
 11
-58.969
 21
89.1409
  0
LINE
  8
0
 10
-58.969
 20
89.1409
 11
-59.071
 21
89.1409
  0
LINE
  8
0
 10
-59.071
 20
89.1409
 11
-59.1726
 21
89.148
  0
LINE
  8
0
 10
-59.1726
 20
89.148
 11
-59.2735
 21
89.1622
  0
LINE
  8
0
 10
-59.2735
 20
89.1622
 11
-59.3732
 21
89.1834
  0
LINE
  8
0
 10
-59.3732
 20
89.1834
 11
-59.4712
 21
89.2115
  0
LINE
  8
0
 10
-59.4712
 20
89.2115
 11
-59.5669
 21
89.2463
  0
LINE
  8
0
 10
-59.5669
 20
89.2463
 11
-59.66
 21
89.2878
  0
LINE
  8
0
 10
-59.66
 20
89.2878
 11
-59.75
 21
89.3356
  0
LINE
  8
0
 10
-59.75
 20
89.3356
 11
-59.8364
 21
89.3896
  0
LINE
  8
0
 10
-59.8364
 20
89.3896
 11
-59.9189
 21
89.4495
  0
LINE
  8
0
 10
-59.9189
 20
89.4495
 11
-59.9969
 21
89.515
  0
LINE
  8
0
 10
-59.9969
 20
89.515
 11
-60.0702
 21
89.5858
  0
LINE
  8
0
 10
-60.0702
 20
89.5858
 11
-60.1384
 21
89.6615
  0
LINE
  8
0
 10
-60.1384
 20
89.6615
 11
-60.2012
 21
89.7418
  0
LINE
  8
0
 10
-60.2012
 20
89.7418
 11
-60.2582
 21
89.8263
  0
LINE
  8
0
 10
-60.2582
 20
89.8263
 11
-60.3091
 21
89.9146
  0
LINE
  8
0
 10
-60.3091
 20
89.9146
 11
-60.3538
 21
90.0062
  0
LINE
  8
0
 10
-60.3538
 20
90.0062
 11
-60.392
 21
90.1006
  0
LINE
  8
0
 10
-60.392
 20
90.1006
 11
-60.4234
 21
90.1976
  0
LINE
  8
0
 10
-60.4234
 20
90.1976
 11
-60.4481
 21
90.2964
  0
LINE
  8
0
 10
-60.4481
 20
90.2964
 11
-60.4658
 21
90.3968
  0
LINE
  8
0
 10
-60.4658
 20
90.3968
 11
-60.4764
 21
90.4982
  0
LINE
  8
0
 10
-60.4764
 20
90.4982
 11
-60.48
 21
90.6
  0
LINE
  8
0
 10
-52.99
 20
0
 11
-52.9876
 21
0.0697556
  0
LINE
  8
0
 10
-52.9876
 20
0.0697556
 11
-52.9803
 21
0.139173
  0
LINE
  8
0
 10
-52.9803
 20
0.139173
 11
-52.9681
 21
0.207911
  0
LINE
  8
0
 10
-52.9681
 20
0.207911
 11
-52.9513
 21
0.275637
  0
LINE
  8
0
 10
-52.9513
 20
0.275637
 11
-52.9297
 21
0.34202
  0
LINE
  8
0
 10
-52.9297
 20
0.34202
 11
-52.9035
 21
0.406736
  0
LINE
  8
0
 10
-52.9035
 20
0.406736
 11
-52.8729
 21
0.469471
  0
LINE
  8
0
 10
-52.8729
 20
0.469471
 11
-52.838
 21
0.529919
  0
LINE
  8
0
 10
-52.838
 20
0.529919
 11
-52.799
 21
0.587785
  0
LINE
  8
0
 10
-52.799
 20
0.587785
 11
-52.756
 21
0.642787
  0
LINE
  8
0
 10
-52.756
 20
0.642787
 11
-52.7093
 21
0.694658
  0
LINE
  8
0
 10
-52.7093
 20
0.694658
 11
-52.6591
 21
0.743144
  0
LINE
  8
0
 10
-52.6591
 20
0.743144
 11
-52.6057
 21
0.788011
  0
LINE
  8
0
 10
-52.6057
 20
0.788011
 11
-52.5492
 21
0.829037
  0
LINE
  8
0
 10
-52.5492
 20
0.829037
 11
-52.49
 21
0.866025
  0
LINE
  8
0
 10
-52.49
 20
0.866025
 11
-52.4284
 21
0.898793
  0
LINE
  8
0
 10
-52.4284
 20
0.898793
 11
-52.3646
 21
0.927183
  0
LINE
  8
0
 10
-52.3646
 20
0.927183
 11
-52.299
 21
0.951056
  0
LINE
  8
0
 10
-52.299
 20
0.951056
 11
-52.2319
 21
0.970295
  0
LINE
  8
0
 10
-52.2319
 20
0.970295
 11
-52.1636
 21
0.984807
  0
LINE
  8
0
 10
-52.1636
 20
0.984807
 11
-52.0945
 21
0.994521
  0
LINE
  8
0
 10
-52.0945
 20
0.994521
 11
-52.0249
 21
0.999391
  0
LINE
  8
0
 10
-52.0249
 20
0.999391
 11
-51.9551
 21
0.999391
  0
LINE
  8
0
 10
-51.9551
 20
0.999391
 11
-51.8855
 21
0.994521
  0
LINE
  8
0
 10
-51.8855
 20
0.994521
 11
-51.8164
 21
0.984807
  0
LINE
  8
0
 10
-51.8164
 20
0.984807
 11
-51.7481
 21
0.970295
  0
LINE
  8
0
 10
-51.7481
 20
0.970295
 11
-51.681
 21
0.951056
  0
LINE
  8
0
 10
-51.681
 20
0.951056
 11
-51.6154
 21
0.927183
  0
LINE
  8
0
 10
-51.6154
 20
0.927183
 11
-51.5516
 21
0.898793
  0
LINE
  8
0
 10
-51.5516
 20
0.898793
 11
-51.49
 21
0.866025
  0
LINE
  8
0
 10
-51.49
 20
0.866025
 11
-51.4308
 21
0.829037
  0
LINE
  8
0
 10
-51.4308
 20
0.829037
 11
-51.3743
 21
0.788011
  0
LINE
  8
0
 10
-51.3743
 20
0.788011
 11
-51.3209
 21
0.743144
  0
LINE
  8
0
 10
-51.3209
 20
0.743144
 11
-51.2707
 21
0.694658
  0
LINE
  8
0
 10
-51.2707
 20
0.694658
 11
-51.224
 21
0.642787
  0
LINE
  8
0
 10
-51.224
 20
0.642787
 11
-51.181
 21
0.587785
  0
LINE
  8
0
 10
-51.181
 20
0.587785
 11
-51.142
 21
0.529919
  0
LINE
  8
0
 10
-51.142
 20
0.529919
 11
-51.1071
 21
0.469471
  0
LINE
  8
0
 10
-51.1071
 20
0.469471
 11
-51.0765
 21
0.406736
  0
LINE
  8
0
 10
-51.0765
 20
0.406736
 11
-51.0503
 21
0.34202
  0
LINE
  8
0
 10
-51.0503
 20
0.34202
 11
-51.0287
 21
0.275637
  0
LINE
  8
0
 10
-51.0287
 20
0.275637
 11
-51.0119
 21
0.207911
  0
LINE
  8
0
 10
-51.0119
 20
0.207911
 11
-50.9997
 21
0.139173
  0
LINE
  8
0
 10
-50.9997
 20
0.139173
 11
-50.9924
 21
0.0697556
  0
LINE
  8
0
 10
-50.9924
 20
0.0697556
 11
-50.99
 21
0
  0
LINE
  8
0
 10
-50.99
 20
0
 11
-50.9924
 21
-0.0697556
  0
LINE
  8
0
 10
-50.9924
 20
-0.0697556
 11
-50.9997
 21
-0.139173
  0
LINE
  8
0
 10
-50.9997
 20
-0.139173
 11
-51.0119
 21
-0.207911
  0
LINE
  8
0
 10
-51.0119
 20
-0.207911
 11
-51.0287
 21
-0.275637
  0
LINE
  8
0
 10
-51.0287
 20
-0.275637
 11
-51.0503
 21
-0.34202
  0
LINE
  8
0
 10
-51.0503
 20
-0.34202
 11
-51.0765
 21
-0.406736
  0
LINE
  8
0
 10
-51.0765
 20
-0.406736
 11
-51.1071
 21
-0.469471
  0
LINE
  8
0
 10
-51.1071
 20
-0.469471
 11
-51.142
 21
-0.529919
  0
LINE
  8
0
 10
-51.142
 20
-0.529919
 11
-51.181
 21
-0.587785
  0
LINE
  8
0
 10
-51.181
 20
-0.587785
 11
-51.224
 21
-0.642787
  0
LINE
  8
0
 10
-51.224
 20
-0.642787
 11
-51.2707
 21
-0.694658
  0
LINE
  8
0
 10
-51.2707
 20
-0.694658
 11
-51.3209
 21
-0.743144
  0
LINE
  8
0
 10
-51.3209
 20
-0.743144
 11
-51.3743
 21
-0.788011
  0
LINE
  8
0
 10
-51.3743
 20
-0.788011
 11
-51.4308
 21
-0.829037
  0
LINE
  8
0
 10
-51.4308
 20
-0.829037
 11
-51.49
 21
-0.866025
  0
LINE
  8
0
 10
-51.49
 20
-0.866025
 11
-51.5516
 21
-0.898793
  0
LINE
  8
0
 10
-51.5516
 20
-0.898793
 11
-51.6154
 21
-0.927183
  0
LINE
  8
0
 10
-51.6154
 20
-0.927183
 11
-51.681
 21
-0.951056
  0
LINE
  8
0
 10
-51.681
 20
-0.951056
 11
-51.7481
 21
-0.970295
  0
LINE
  8
0
 10
-51.7481
 20
-0.970295
 11
-51.8164
 21
-0.984807
  0
LINE
  8
0
 10
-51.8164
 20
-0.984807
 11
-51.8855
 21
-0.994521
  0
LINE
  8
0
 10
-51.8855
 20
-0.994521
 11
-51.9551
 21
-0.999391
  0
LINE
  8
0
 10
-51.9551
 20
-0.999391
 11
-52.0249
 21
-0.999391
  0
LINE
  8
0
 10
-52.0249
 20
-0.999391
 11
-52.0945
 21
-0.994521
  0
LINE
  8
0
 10
-52.0945
 20
-0.994521
 11
-52.1636
 21
-0.984807
  0
LINE
  8
0
 10
-52.1636
 20
-0.984807
 11
-52.2319
 21
-0.970295
  0
LINE
  8
0
 10
-52.2319
 20
-0.970295
 11
-52.299
 21
-0.951056
  0
LINE
  8
0
 10
-52.299
 20
-0.951056
 11
-52.3646
 21
-0.927183
  0
LINE
  8
0
 10
-52.3646
 20
-0.927183
 11
-52.4284
 21
-0.898793
  0
LINE
  8
0
 10
-52.4284
 20
-0.898793
 11
-52.49
 21
-0.866025
  0
LINE
  8
0
 10
-52.49
 20
-0.866025
 11
-52.5492
 21
-0.829037
  0
LINE
  8
0
 10
-52.5492
 20
-0.829037
 11
-52.6057
 21
-0.788011
  0
LINE
  8
0
 10
-52.6057
 20
-0.788011
 11
-52.6591
 21
-0.743144
  0
LINE
  8
0
 10
-52.6591
 20
-0.743144
 11
-52.7093
 21
-0.694658
  0
LINE
  8
0
 10
-52.7093
 20
-0.694658
 11
-52.756
 21
-0.642787
  0
LINE
  8
0
 10
-52.756
 20
-0.642787
 11
-52.799
 21
-0.587785
  0
LINE
  8
0
 10
-52.799
 20
-0.587785
 11
-52.838
 21
-0.529919
  0
LINE
  8
0
 10
-52.838
 20
-0.529919
 11
-52.8729
 21
-0.469471
  0
LINE
  8
0
 10
-52.8729
 20
-0.469471
 11
-52.9035
 21
-0.406736
  0
LINE
  8
0
 10
-52.9035
 20
-0.406736
 11
-52.9297
 21
-0.34202
  0
LINE
  8
0
 10
-52.9297
 20
-0.34202
 11
-52.9513
 21
-0.275637
  0
LINE
  8
0
 10
-52.9513
 20
-0.275637
 11
-52.9681
 21
-0.207911
  0
LINE
  8
0
 10
-52.9681
 20
-0.207911
 11
-52.9803
 21
-0.139173
  0
LINE
  8
0
 10
-52.9803
 20
-0.139173
 11
-52.9876
 21
-0.0697556
  0
LINE
  8
0
 10
-52.9876
 20
-0.0697556
 11
-52.99
 21
0
  0
LINE
  8
0
 10
-50.49
 20
-20.3
 11
-50.49
 21
-14.3
  0
LINE
  8
0
 10
-50.49
 20
-14.3
 11
-35.49
 21
-14.3
  0
LINE
  8
0
 10
-35.49
 20
-14.3
 11
-35.49
 21
-20.3
  0
LINE
  8
0
 10
-35.49
 20
-20.3
 11
-50.49
 21
-20.3
  0
LINE
  8
0
 10
-50.49
 20
14.3
 11
-50.49
 21
20.3
  0
LINE
  8
0
 10
-50.49
 20
20.3
 11
-35.49
 21
20.3
  0
LINE
  8
0
 10
-35.49
 20
20.3
 11
-35.49
 21
14.3
  0
LINE
  8
0
 10
-35.49
 20
14.3
 11
-50.49
 21
14.3
  0
LINE
  8
0
 10
-47.49
 20
-2
 11
-47.49
 21
2
  0
LINE
  8
0
 10
-47.49
 20
2
 11
-38.49
 21
2
  0
LINE
  8
0
 10
-38.49
 20
2
 11
-38.49
 21
-2
  0
LINE
  8
0
 10
-38.49
 20
-2
 11
-47.49
 21
-2
  0
LINE
  8
0
 10
-41.82
 20
-54.5
 11
-41.7457
 21
-52.3724
  0
LINE
  8
0
 10
-41.7457
 20
-52.3724
 11
-41.5232
 21
-50.2552
  0
LINE
  8
0
 10
-41.5232
 20
-50.2552
 11
-41.1535
 21
-48.1587
  0
LINE
  8
0
 10
-41.1535
 20
-48.1587
 11
-40.6385
 21
-46.0931
  0
LINE
  8
0
 10
-40.6385
 20
-46.0931
 11
-39.9806
 21
-44.0684
  0
LINE
  8
0
 10
-39.9806
 20
-44.0684
 11
-39.1831
 21
-42.0945
  0
LINE
  8
0
 10
-39.1831
 20
-42.0945
 11
-38.2499
 21
-40.1811
  0
LINE
  8
0
 10
-38.2499
 20
-40.1811
 11
-37.1855
 21
-38.3375
  0
LINE
  8
0
 10
-37.1855
 20
-38.3375
 11
-35.995
 21
-36.5725
  0
LINE
  8
0
 10
-35.995
 20
-36.5725
 11
-34.6844
 21
-34.895
  0
LINE
  8
0
 10
-34.6844
 20
-34.895
 11
-33.2599
 21
-33.3129
  0
LINE
  8
0
 10
-33.2599
 20
-33.3129
 11
-31.7285
 21
-31.8341
  0
LINE
  8
0
 10
-31.7285
 20
-31.8341
 11
-30.0977
 21
-30.4657
  0
LINE
  8
0
 10
-30.0977
 20
-30.4657
 11
-28.3754
 21
-29.2144
  0
LINE
  8
0
 10
-28.3754
 20
-29.2144
 11
-26.57
 21
-28.0862
  0
LINE
  8
0
 10
-26.57
 20
-28.0862
 11
-24.6903
 21
-27.0868
  0
LINE
  8
0
 10
-24.6903
 20
-27.0868
 11
-22.7455
 21
-26.2209
  0
LINE
  8
0
 10
-22.7455
 20
-26.2209
 11
-20.745
 21
-25.4928
  0
LINE
  8
0
 10
-20.745
 20
-25.4928
 11
-18.6986
 21
-24.906
  0
LINE
  8
0
 10
-18.6986
 20
-24.906
 11
-16.6163
 21
-24.4634
  0
LINE
  8
0
 10
-16.6163
 20
-24.4634
 11
-14.5081
 21
-24.1671
  0
LINE
  8
0
 10
-14.5081
 20
-24.1671
 11
-12.3844
 21
-24.0186
  0
LINE
  8
0
 10
-12.3844
 20
-24.0186
 11
-10.2556
 21
-24.0186
  0
LINE
  8
0
 10
-10.2556
 20
-24.0186
 11
-8.13188
 21
-24.1671
  0
LINE
  8
0
 10
-8.13188
 20
-24.1671
 11
-6.02373
 21
-24.4634
  0
LINE
  8
0
 10
-6.02373
 20
-24.4634
 11
-3.94138
 21
-24.906
  0
LINE
  8
0
 10
-3.94138
 20
-24.906
 11
-1.89498
 21
-25.4928
  0
LINE
  8
0
 10
-1.89498
 20
-25.4928
 11
0.105501
 21
-26.2209
  0
LINE
  8
0
 10
0.105501
 20
-26.2209
 11
2.05032
 21
-27.0868
  0
LINE
  8
0
 10
2.05032
 20
-27.0868
 11
3.93
 21
-28.0862
  0
LINE
  8
0
 10
3.93
 20
-28.0862
 11
5.73538
 21
-29.2144
  0
LINE
  8
0
 10
5.73538
 20
-29.2144
 11
7.45767
 21
-30.4657
  0
LINE
  8
0
 10
7.45767
 20
-30.4657
 11
9.08848
 21
-31.8341
  0
LINE
  8
0
 10
9.08848
 20
-31.8341
 11
10.6199
 21
-33.3129
  0
LINE
  8
0
 10
10.6199
 20
-33.3129
 11
12.0444
 21
-34.895
  0
LINE
  8
0
 10
12.0444
 20
-34.895
 11
13.355
 21
-36.5725
  0
LINE
  8
0
 10
13.355
 20
-36.5725
 11
14.5455
 21
-38.3375
  0
LINE
  8
0
 10
14.5455
 20
-38.3375
 11
15.6099
 21
-40.1811
  0
LINE
  8
0
 10
15.6099
 20
-40.1811
 11
16.5431
 21
-42.0945
  0
LINE
  8
0
 10
16.5431
 20
-42.0945
 11
17.3406
 21
-44.0684
  0
LINE
  8
0
 10
17.3406
 20
-44.0684
 11
17.9985
 21
-46.0931
  0
LINE
  8
0
 10
17.9985
 20
-46.0931
 11
18.5135
 21
-48.1587
  0
LINE
  8
0
 10
18.5135
 20
-48.1587
 11
18.8832
 21
-50.2552
  0
LINE
  8
0
 10
18.8832
 20
-50.2552
 11
19.1057
 21
-52.3724
  0
LINE
  8
0
 10
19.1057
 20
-52.3724
 11
19.18
 21
-54.5
  0
LINE
  8
0
 10
19.18
 20
-54.5
 11
19.1057
 21
-56.6276
  0
LINE
  8
0
 10
19.1057
 20
-56.6276
 11
18.8832
 21
-58.7448
  0
LINE
  8
0
 10
18.8832
 20
-58.7448
 11
18.5135
 21
-60.8413
  0
LINE
  8
0
 10
18.5135
 20
-60.8413
 11
17.9985
 21
-62.9069
  0
LINE
  8
0
 10
17.9985
 20
-62.9069
 11
17.3406
 21
-64.9316
  0
LINE
  8
0
 10
17.3406
 20
-64.9316
 11
16.5431
 21
-66.9055
  0
LINE
  8
0
 10
16.5431
 20
-66.9055
 11
15.6099
 21
-68.8189
  0
LINE
  8
0
 10
15.6099
 20
-68.8189
 11
14.5455
 21
-70.6625
  0
LINE
  8
0
 10
14.5455
 20
-70.6625
 11
13.355
 21
-72.4275
  0
LINE
  8
0
 10
13.355
 20
-72.4275
 11
12.0444
 21
-74.105
  0
LINE
  8
0
 10
12.0444
 20
-74.105
 11
10.6199
 21
-75.6871
  0
LINE
  8
0
 10
10.6199
 20
-75.6871
 11
9.08848
 21
-77.1659
  0
LINE
  8
0
 10
9.08848
 20
-77.1659
 11
7.45767
 21
-78.5343
  0
LINE
  8
0
 10
7.45767
 20
-78.5343
 11
5.73538
 21
-79.7856
  0
LINE
  8
0
 10
5.73538
 20
-79.7856
 11
3.93
 21
-80.9138
  0
LINE
  8
0
 10
3.93
 20
-80.9138
 11
2.05032
 21
-81.9132
  0
LINE
  8
0
 10
2.05032
 20
-81.9132
 11
0.105501
 21
-82.7791
  0
LINE
  8
0
 10
0.105501
 20
-82.7791
 11
-1.89498
 21
-83.5072
  0
LINE
  8
0
 10
-1.89498
 20
-83.5072
 11
-3.94138
 21
-84.094
  0
LINE
  8
0
 10
-3.94138
 20
-84.094
 11
-6.02373
 21
-84.5366
  0
LINE
  8
0
 10
-6.02373
 20
-84.5366
 11
-8.13188
 21
-84.8329
  0
LINE
  8
0
 10
-8.13188
 20
-84.8329
 11
-10.2556
 21
-84.9814
  0
LINE
  8
0
 10
-10.2556
 20
-84.9814
 11
-12.3844
 21
-84.9814
  0
LINE
  8
0
 10
-12.3844
 20
-84.9814
 11
-14.5081
 21
-84.8329
  0
LINE
  8
0
 10
-14.5081
 20
-84.8329
 11
-16.6163
 21
-84.5366
  0
LINE
  8
0
 10
-16.6163
 20
-84.5366
 11
-18.6986
 21
-84.094
  0
LINE
  8
0
 10
-18.6986
 20
-84.094
 11
-20.745
 21
-83.5072
  0
LINE
  8
0
 10
-20.745
 20
-83.5072
 11
-22.7455
 21
-82.7791
  0
LINE
  8
0
 10
-22.7455
 20
-82.7791
 11
-24.6903
 21
-81.9132
  0
LINE
  8
0
 10
-24.6903
 20
-81.9132
 11
-26.57
 21
-80.9138
  0
LINE
  8
0
 10
-26.57
 20
-80.9138
 11
-28.3754
 21
-79.7856
  0
LINE
  8
0
 10
-28.3754
 20
-79.7856
 11
-30.0977
 21
-78.5343
  0
LINE
  8
0
 10
-30.0977
 20
-78.5343
 11
-31.7285
 21
-77.1659
  0
LINE
  8
0
 10
-31.7285
 20
-77.1659
 11
-33.2599
 21
-75.6871
  0
LINE
  8
0
 10
-33.2599
 20
-75.6871
 11
-34.6844
 21
-74.105
  0
LINE
  8
0
 10
-34.6844
 20
-74.105
 11
-35.995
 21
-72.4275
  0
LINE
  8
0
 10
-35.995
 20
-72.4275
 11
-37.1855
 21
-70.6625
  0
LINE
  8
0
 10
-37.1855
 20
-70.6625
 11
-38.2499
 21
-68.8189
  0
LINE
  8
0
 10
-38.2499
 20
-68.8189
 11
-39.1831
 21
-66.9055
  0
LINE
  8
0
 10
-39.1831
 20
-66.9055
 11
-39.9806
 21
-64.9316
  0
LINE
  8
0
 10
-39.9806
 20
-64.9316
 11
-40.6385
 21
-62.9069
  0
LINE
  8
0
 10
-40.6385
 20
-62.9069
 11
-41.1535
 21
-60.8413
  0
LINE
  8
0
 10
-41.1535
 20
-60.8413
 11
-41.5232
 21
-58.7448
  0
LINE
  8
0
 10
-41.5232
 20
-58.7448
 11
-41.7457
 21
-56.6276
  0
LINE
  8
0
 10
-41.7457
 20
-56.6276
 11
-41.82
 21
-54.5
  0
LINE
  8
0
 10
-34.99
 20
0
 11
-34.9876
 21
0.0697556
  0
LINE
  8
0
 10
-34.9876
 20
0.0697556
 11
-34.9803
 21
0.139173
  0
LINE
  8
0
 10
-34.9803
 20
0.139173
 11
-34.9681
 21
0.207911
  0
LINE
  8
0
 10
-34.9681
 20
0.207911
 11
-34.9513
 21
0.275637
  0
LINE
  8
0
 10
-34.9513
 20
0.275637
 11
-34.9297
 21
0.34202
  0
LINE
  8
0
 10
-34.9297
 20
0.34202
 11
-34.9035
 21
0.406736
  0
LINE
  8
0
 10
-34.9035
 20
0.406736
 11
-34.8729
 21
0.469471
  0
LINE
  8
0
 10
-34.8729
 20
0.469471
 11
-34.838
 21
0.529919
  0
LINE
  8
0
 10
-34.838
 20
0.529919
 11
-34.799
 21
0.587785
  0
LINE
  8
0
 10
-34.799
 20
0.587785
 11
-34.756
 21
0.642787
  0
LINE
  8
0
 10
-34.756
 20
0.642787
 11
-34.7093
 21
0.694658
  0
LINE
  8
0
 10
-34.7093
 20
0.694658
 11
-34.6591
 21
0.743144
  0
LINE
  8
0
 10
-34.6591
 20
0.743144
 11
-34.6057
 21
0.788011
  0
LINE
  8
0
 10
-34.6057
 20
0.788011
 11
-34.5492
 21
0.829037
  0
LINE
  8
0
 10
-34.5492
 20
0.829037
 11
-34.49
 21
0.866025
  0
LINE
  8
0
 10
-34.49
 20
0.866025
 11
-34.4284
 21
0.898793
  0
LINE
  8
0
 10
-34.4284
 20
0.898793
 11
-34.3646
 21
0.927183
  0
LINE
  8
0
 10
-34.3646
 20
0.927183
 11
-34.299
 21
0.951056
  0
LINE
  8
0
 10
-34.299
 20
0.951056
 11
-34.2319
 21
0.970295
  0
LINE
  8
0
 10
-34.2319
 20
0.970295
 11
-34.1636
 21
0.984807
  0
LINE
  8
0
 10
-34.1636
 20
0.984807
 11
-34.0945
 21
0.994521
  0
LINE
  8
0
 10
-34.0945
 20
0.994521
 11
-34.0249
 21
0.999391
  0
LINE
  8
0
 10
-34.0249
 20
0.999391
 11
-33.9551
 21
0.999391
  0
LINE
  8
0
 10
-33.9551
 20
0.999391
 11
-33.8855
 21
0.994521
  0
LINE
  8
0
 10
-33.8855
 20
0.994521
 11
-33.8164
 21
0.984807
  0
LINE
  8
0
 10
-33.8164
 20
0.984807
 11
-33.7481
 21
0.970295
  0
LINE
  8
0
 10
-33.7481
 20
0.970295
 11
-33.681
 21
0.951056
  0
LINE
  8
0
 10
-33.681
 20
0.951056
 11
-33.6154
 21
0.927183
  0
LINE
  8
0
 10
-33.6154
 20
0.927183
 11
-33.5516
 21
0.898793
  0
LINE
  8
0
 10
-33.5516
 20
0.898793
 11
-33.49
 21
0.866025
  0
LINE
  8
0
 10
-33.49
 20
0.866025
 11
-33.4308
 21
0.829037
  0
LINE
  8
0
 10
-33.4308
 20
0.829037
 11
-33.3743
 21
0.788011
  0
LINE
  8
0
 10
-33.3743
 20
0.788011
 11
-33.3209
 21
0.743144
  0
LINE
  8
0
 10
-33.3209
 20
0.743144
 11
-33.2707
 21
0.694658
  0
LINE
  8
0
 10
-33.2707
 20
0.694658
 11
-33.224
 21
0.642787
  0
LINE
  8
0
 10
-33.224
 20
0.642787
 11
-33.181
 21
0.587785
  0
LINE
  8
0
 10
-33.181
 20
0.587785
 11
-33.142
 21
0.529919
  0
LINE
  8
0
 10
-33.142
 20
0.529919
 11
-33.1071
 21
0.469471
  0
LINE
  8
0
 10
-33.1071
 20
0.469471
 11
-33.0765
 21
0.406736
  0
LINE
  8
0
 10
-33.0765
 20
0.406736
 11
-33.0503
 21
0.34202
  0
LINE
  8
0
 10
-33.0503
 20
0.34202
 11
-33.0287
 21
0.275637
  0
LINE
  8
0
 10
-33.0287
 20
0.275637
 11
-33.0119
 21
0.207911
  0
LINE
  8
0
 10
-33.0119
 20
0.207911
 11
-32.9997
 21
0.139173
  0
LINE
  8
0
 10
-32.9997
 20
0.139173
 11
-32.9924
 21
0.0697556
  0
LINE
  8
0
 10
-32.9924
 20
0.0697556
 11
-32.99
 21
0
  0
LINE
  8
0
 10
-32.99
 20
0
 11
-32.9924
 21
-0.0697556
  0
LINE
  8
0
 10
-32.9924
 20
-0.0697556
 11
-32.9997
 21
-0.139173
  0
LINE
  8
0
 10
-32.9997
 20
-0.139173
 11
-33.0119
 21
-0.207911
  0
LINE
  8
0
 10
-33.0119
 20
-0.207911
 11
-33.0287
 21
-0.275637
  0
LINE
  8
0
 10
-33.0287
 20
-0.275637
 11
-33.0503
 21
-0.34202
  0
LINE
  8
0
 10
-33.0503
 20
-0.34202
 11
-33.0765
 21
-0.406736
  0
LINE
  8
0
 10
-33.0765
 20
-0.406736
 11
-33.1071
 21
-0.469471
  0
LINE
  8
0
 10
-33.1071
 20
-0.469471
 11
-33.142
 21
-0.529919
  0
LINE
  8
0
 10
-33.142
 20
-0.529919
 11
-33.181
 21
-0.587785
  0
LINE
  8
0
 10
-33.181
 20
-0.587785
 11
-33.224
 21
-0.642787
  0
LINE
  8
0
 10
-33.224
 20
-0.642787
 11
-33.2707
 21
-0.694658
  0
LINE
  8
0
 10
-33.2707
 20
-0.694658
 11
-33.3209
 21
-0.743144
  0
LINE
  8
0
 10
-33.3209
 20
-0.743144
 11
-33.3743
 21
-0.788011
  0
LINE
  8
0
 10
-33.3743
 20
-0.788011
 11
-33.4308
 21
-0.829037
  0
LINE
  8
0
 10
-33.4308
 20
-0.829037
 11
-33.49
 21
-0.866025
  0
LINE
  8
0
 10
-33.49
 20
-0.866025
 11
-33.5516
 21
-0.898793
  0
LINE
  8
0
 10
-33.5516
 20
-0.898793
 11
-33.6154
 21
-0.927183
  0
LINE
  8
0
 10
-33.6154
 20
-0.927183
 11
-33.681
 21
-0.951056
  0
LINE
  8
0
 10
-33.681
 20
-0.951056
 11
-33.7481
 21
-0.970295
  0
LINE
  8
0
 10
-33.7481
 20
-0.970295
 11
-33.8164
 21
-0.984807
  0
LINE
  8
0
 10
-33.8164
 20
-0.984807
 11
-33.8855
 21
-0.994521
  0
LINE
  8
0
 10
-33.8855
 20
-0.994521
 11
-33.9551
 21
-0.999391
  0
LINE
  8
0
 10
-33.9551
 20
-0.999391
 11
-34.0249
 21
-0.999391
  0
LINE
  8
0
 10
-34.0249
 20
-0.999391
 11
-34.0945
 21
-0.994521
  0
LINE
  8
0
 10
-34.0945
 20
-0.994521
 11
-34.1636
 21
-0.984807
  0
LINE
  8
0
 10
-34.1636
 20
-0.984807
 11
-34.2319
 21
-0.970295
  0
LINE
  8
0
 10
-34.2319
 20
-0.970295
 11
-34.299
 21
-0.951056
  0
LINE
  8
0
 10
-34.299
 20
-0.951056
 11
-34.3646
 21
-0.927183
  0
LINE
  8
0
 10
-34.3646
 20
-0.927183
 11
-34.4284
 21
-0.898793
  0
LINE
  8
0
 10
-34.4284
 20
-0.898793
 11
-34.49
 21
-0.866025
  0
LINE
  8
0
 10
-34.49
 20
-0.866025
 11
-34.5492
 21
-0.829037
  0
LINE
  8
0
 10
-34.5492
 20
-0.829037
 11
-34.6057
 21
-0.788011
  0
LINE
  8
0
 10
-34.6057
 20
-0.788011
 11
-34.6591
 21
-0.743144
  0
LINE
  8
0
 10
-34.6591
 20
-0.743144
 11
-34.7093
 21
-0.694658
  0
LINE
  8
0
 10
-34.7093
 20
-0.694658
 11
-34.756
 21
-0.642787
  0
LINE
  8
0
 10
-34.756
 20
-0.642787
 11
-34.799
 21
-0.587785
  0
LINE
  8
0
 10
-34.799
 20
-0.587785
 11
-34.838
 21
-0.529919
  0
LINE
  8
0
 10
-34.838
 20
-0.529919
 11
-34.8729
 21
-0.469471
  0
LINE
  8
0
 10
-34.8729
 20
-0.469471
 11
-34.9035
 21
-0.406736
  0
LINE
  8
0
 10
-34.9035
 20
-0.406736
 11
-34.9297
 21
-0.34202
  0
LINE
  8
0
 10
-34.9297
 20
-0.34202
 11
-34.9513
 21
-0.275637
  0
LINE
  8
0
 10
-34.9513
 20
-0.275637
 11
-34.9681
 21
-0.207911
  0
LINE
  8
0
 10
-34.9681
 20
-0.207911
 11
-34.9803
 21
-0.139173
  0
LINE
  8
0
 10
-34.9803
 20
-0.139173
 11
-34.9876
 21
-0.0697556
  0
LINE
  8
0
 10
-34.9876
 20
-0.0697556
 11
-34.99
 21
0
  0
LINE
  8
0
 10
-22.66
 20
-19
 11
-22.6564
 21
-18.8982
  0
LINE
  8
0
 10
-22.6564
 20
-18.8982
 11
-22.6458
 21
-18.7968
  0
LINE
  8
0
 10
-22.6458
 20
-18.7968
 11
-22.6281
 21
-18.6964
  0
LINE
  8
0
 10
-22.6281
 20
-18.6964
 11
-22.6034
 21
-18.5976
  0
LINE
  8
0
 10
-22.6034
 20
-18.5976
 11
-22.572
 21
-18.5007
  0
LINE
  8
0
 10
-22.572
 20
-18.5007
 11
-22.5338
 21
-18.4062
  0
LINE
  8
0
 10
-22.5338
 20
-18.4062
 11
-22.4891
 21
-18.3146
  0
LINE
  8
0
 10
-22.4891
 20
-18.3146
 11
-22.4381
 21
-18.2263
  0
LINE
  8
0
 10
-22.4381
 20
-18.2263
 11
-22.3812
 21
-18.1418
  0
LINE
  8
0
 10
-22.3812
 20
-18.1418
 11
-22.3184
 21
-18.0615
  0
LINE
  8
0
 10
-22.3184
 20
-18.0615
 11
-22.2502
 21
-17.9858
  0
LINE
  8
0
 10
-22.2502
 20
-17.9858
 11
-22.1769
 21
-17.915
  0
LINE
  8
0
 10
-22.1769
 20
-17.915
 11
-22.0989
 21
-17.8495
  0
LINE
  8
0
 10
-22.0989
 20
-17.8495
 11
-22.0164
 21
-17.7896
  0
LINE
  8
0
 10
-22.0164
 20
-17.7896
 11
-21.93
 21
-17.7356
  0
LINE
  8
0
 10
-21.93
 20
-17.7356
 11
-21.84
 21
-17.6878
  0
LINE
  8
0
 10
-21.84
 20
-17.6878
 11
-21.7469
 21
-17.6463
  0
LINE
  8
0
 10
-21.7469
 20
-17.6463
 11
-21.6512
 21
-17.6115
  0
LINE
  8
0
 10
-21.6512
 20
-17.6115
 11
-21.5532
 21
-17.5834
  0
LINE
  8
0
 10
-21.5532
 20
-17.5834
 11
-21.4535
 21
-17.5622
  0
LINE
  8
0
 10
-21.4535
 20
-17.5622
 11
-21.3526
 21
-17.548
  0
LINE
  8
0
 10
-21.3526
 20
-17.548
 11
-21.251
 21
-17.5409
  0
LINE
  8
0
 10
-21.251
 20
-17.5409
 11
-21.149
 21
-17.5409
  0
LINE
  8
0
 10
-21.149
 20
-17.5409
 11
-21.0474
 21
-17.548
  0
LINE
  8
0
 10
-21.0474
 20
-17.548
 11
-20.9465
 21
-17.5622
  0
LINE
  8
0
 10
-20.9465
 20
-17.5622
 11
-20.8468
 21
-17.5834
  0
LINE
  8
0
 10
-20.8468
 20
-17.5834
 11
-20.7488
 21
-17.6115
  0
LINE
  8
0
 10
-20.7488
 20
-17.6115
 11
-20.6531
 21
-17.6463
  0
LINE
  8
0
 10
-20.6531
 20
-17.6463
 11
-20.56
 21
-17.6878
  0
LINE
  8
0
 10
-20.56
 20
-17.6878
 11
-20.47
 21
-17.7356
  0
LINE
  8
0
 10
-20.47
 20
-17.7356
 11
-20.3836
 21
-17.7896
  0
LINE
  8
0
 10
-20.3836
 20
-17.7896
 11
-20.3011
 21
-17.8495
  0
LINE
  8
0
 10
-20.3011
 20
-17.8495
 11
-20.2231
 21
-17.915
  0
LINE
  8
0
 10
-20.2231
 20
-17.915
 11
-20.1498
 21
-17.9858
  0
LINE
  8
0
 10
-20.1498
 20
-17.9858
 11
-20.0816
 21
-18.0615
  0
LINE
  8
0
 10
-20.0816
 20
-18.0615
 11
-20.0188
 21
-18.1418
  0
LINE
  8
0
 10
-20.0188
 20
-18.1418
 11
-19.9618
 21
-18.2263
  0
LINE
  8
0
 10
-19.9618
 20
-18.2263
 11
-19.9109
 21
-18.3146
  0
LINE
  8
0
 10
-19.9109
 20
-18.3146
 11
-19.8662
 21
-18.4062
  0
LINE
  8
0
 10
-19.8662
 20
-18.4062
 11
-19.828
 21
-18.5007
  0
LINE
  8
0
 10
-19.828
 20
-18.5007
 11
-19.7966
 21
-18.5976
  0
LINE
  8
0
 10
-19.7966
 20
-18.5976
 11
-19.7719
 21
-18.6964
  0
LINE
  8
0
 10
-19.7719
 20
-18.6964
 11
-19.7542
 21
-18.7968
  0
LINE
  8
0
 10
-19.7542
 20
-18.7968
 11
-19.7436
 21
-18.8982
  0
LINE
  8
0
 10
-19.7436
 20
-18.8982
 11
-19.74
 21
-19
  0
LINE
  8
0
 10
-19.74
 20
-19
 11
-19.7436
 21
-19.1018
  0
LINE
  8
0
 10
-19.7436
 20
-19.1018
 11
-19.7542
 21
-19.2032
  0
LINE
  8
0
 10
-19.7542
 20
-19.2032
 11
-19.7719
 21
-19.3036
  0
LINE
  8
0
 10
-19.7719
 20
-19.3036
 11
-19.7966
 21
-19.4024
  0
LINE
  8
0
 10
-19.7966
 20
-19.4024
 11
-19.828
 21
-19.4993
  0
LINE
  8
0
 10
-19.828
 20
-19.4993
 11
-19.8662
 21
-19.5938
  0
LINE
  8
0
 10
-19.8662
 20
-19.5938
 11
-19.9109
 21
-19.6854
  0
LINE
  8
0
 10
-19.9109
 20
-19.6854
 11
-19.9618
 21
-19.7737
  0
LINE
  8
0
 10
-19.9618
 20
-19.7737
 11
-20.0188
 21
-19.8582
  0
LINE
  8
0
 10
-20.0188
 20
-19.8582
 11
-20.0816
 21
-19.9385
  0
LINE
  8
0
 10
-20.0816
 20
-19.9385
 11
-20.1498
 21
-20.0142
  0
LINE
  8
0
 10
-20.1498
 20
-20.0142
 11
-20.2231
 21
-20.085
  0
LINE
  8
0
 10
-20.2231
 20
-20.085
 11
-20.3011
 21
-20.1505
  0
LINE
  8
0
 10
-20.3011
 20
-20.1505
 11
-20.3836
 21
-20.2104
  0
LINE
  8
0
 10
-20.3836
 20
-20.2104
 11
-20.47
 21
-20.2644
  0
LINE
  8
0
 10
-20.47
 20
-20.2644
 11
-20.56
 21
-20.3122
  0
LINE
  8
0
 10
-20.56
 20
-20.3122
 11
-20.6531
 21
-20.3537
  0
LINE
  8
0
 10
-20.6531
 20
-20.3537
 11
-20.7488
 21
-20.3885
  0
LINE
  8
0
 10
-20.7488
 20
-20.3885
 11
-20.8468
 21
-20.4166
  0
LINE
  8
0
 10
-20.8468
 20
-20.4166
 11
-20.9465
 21
-20.4378
  0
LINE
  8
0
 10
-20.9465
 20
-20.4378
 11
-21.0474
 21
-20.452
  0
LINE
  8
0
 10
-21.0474
 20
-20.452
 11
-21.149
 21
-20.4591
  0
LINE
  8
0
 10
-21.149
 20
-20.4591
 11
-21.251
 21
-20.4591
  0
LINE
  8
0
 10
-21.251
 20
-20.4591
 11
-21.3526
 21
-20.452
  0
LINE
  8
0
 10
-21.3526
 20
-20.452
 11
-21.4535
 21
-20.4378
  0
LINE
  8
0
 10
-21.4535
 20
-20.4378
 11
-21.5532
 21
-20.4166
  0
LINE
  8
0
 10
-21.5532
 20
-20.4166
 11
-21.6512
 21
-20.3885
  0
LINE
  8
0
 10
-21.6512
 20
-20.3885
 11
-21.7469
 21
-20.3537
  0
LINE
  8
0
 10
-21.7469
 20
-20.3537
 11
-21.84
 21
-20.3122
  0
LINE
  8
0
 10
-21.84
 20
-20.3122
 11
-21.93
 21
-20.2644
  0
LINE
  8
0
 10
-21.93
 20
-20.2644
 11
-22.0164
 21
-20.2104
  0
LINE
  8
0
 10
-22.0164
 20
-20.2104
 11
-22.0989
 21
-20.1505
  0
LINE
  8
0
 10
-22.0989
 20
-20.1505
 11
-22.1769
 21
-20.085
  0
LINE
  8
0
 10
-22.1769
 20
-20.085
 11
-22.2502
 21
-20.0142
  0
LINE
  8
0
 10
-22.2502
 20
-20.0142
 11
-22.3184
 21
-19.9385
  0
LINE
  8
0
 10
-22.3184
 20
-19.9385
 11
-22.3812
 21
-19.8582
  0
LINE
  8
0
 10
-22.3812
 20
-19.8582
 11
-22.4381
 21
-19.7737
  0
LINE
  8
0
 10
-22.4381
 20
-19.7737
 11
-22.4891
 21
-19.6854
  0
LINE
  8
0
 10
-22.4891
 20
-19.6854
 11
-22.5338
 21
-19.5938
  0
LINE
  8
0
 10
-22.5338
 20
-19.5938
 11
-22.572
 21
-19.4993
  0
LINE
  8
0
 10
-22.572
 20
-19.4993
 11
-22.6034
 21
-19.4024
  0
LINE
  8
0
 10
-22.6034
 20
-19.4024
 11
-22.6281
 21
-19.3036
  0
LINE
  8
0
 10
-22.6281
 20
-19.3036
 11
-22.6458
 21
-19.2032
  0
LINE
  8
0
 10
-22.6458
 20
-19.2032
 11
-22.6564
 21
-19.1018
  0
LINE
  8
0
 10
-22.6564
 20
-19.1018
 11
-22.66
 21
-19
  0
LINE
  8
0
 10
-22.66
 20
21
 11
-22.6564
 21
21.1018
  0
LINE
  8
0
 10
-22.6564
 20
21.1018
 11
-22.6458
 21
21.2032
  0
LINE
  8
0
 10
-22.6458
 20
21.2032
 11
-22.6281
 21
21.3036
  0
LINE
  8
0
 10
-22.6281
 20
21.3036
 11
-22.6034
 21
21.4024
  0
LINE
  8
0
 10
-22.6034
 20
21.4024
 11
-22.572
 21
21.4993
  0
LINE
  8
0
 10
-22.572
 20
21.4993
 11
-22.5338
 21
21.5938
  0
LINE
  8
0
 10
-22.5338
 20
21.5938
 11
-22.4891
 21
21.6854
  0
LINE
  8
0
 10
-22.4891
 20
21.6854
 11
-22.4381
 21
21.7737
  0
LINE
  8
0
 10
-22.4381
 20
21.7737
 11
-22.3812
 21
21.8582
  0
LINE
  8
0
 10
-22.3812
 20
21.8582
 11
-22.3184
 21
21.9385
  0
LINE
  8
0
 10
-22.3184
 20
21.9385
 11
-22.2502
 21
22.0142
  0
LINE
  8
0
 10
-22.2502
 20
22.0142
 11
-22.1769
 21
22.085
  0
LINE
  8
0
 10
-22.1769
 20
22.085
 11
-22.0989
 21
22.1505
  0
LINE
  8
0
 10
-22.0989
 20
22.1505
 11
-22.0164
 21
22.2104
  0
LINE
  8
0
 10
-22.0164
 20
22.2104
 11
-21.93
 21
22.2644
  0
LINE
  8
0
 10
-21.93
 20
22.2644
 11
-21.84
 21
22.3122
  0
LINE
  8
0
 10
-21.84
 20
22.3122
 11
-21.7469
 21
22.3537
  0
LINE
  8
0
 10
-21.7469
 20
22.3537
 11
-21.6512
 21
22.3885
  0
LINE
  8
0
 10
-21.6512
 20
22.3885
 11
-21.5532
 21
22.4166
  0
LINE
  8
0
 10
-21.5532
 20
22.4166
 11
-21.4535
 21
22.4378
  0
LINE
  8
0
 10
-21.4535
 20
22.4378
 11
-21.3526
 21
22.452
  0
LINE
  8
0
 10
-21.3526
 20
22.452
 11
-21.251
 21
22.4591
  0
LINE
  8
0
 10
-21.251
 20
22.4591
 11
-21.149
 21
22.4591
  0
LINE
  8
0
 10
-21.149
 20
22.4591
 11
-21.0474
 21
22.452
  0
LINE
  8
0
 10
-21.0474
 20
22.452
 11
-20.9465
 21
22.4378
  0
LINE
  8
0
 10
-20.9465
 20
22.4378
 11
-20.8468
 21
22.4166
  0
LINE
  8
0
 10
-20.8468
 20
22.4166
 11
-20.7488
 21
22.3885
  0
LINE
  8
0
 10
-20.7488
 20
22.3885
 11
-20.6531
 21
22.3537
  0
LINE
  8
0
 10
-20.6531
 20
22.3537
 11
-20.56
 21
22.3122
  0
LINE
  8
0
 10
-20.56
 20
22.3122
 11
-20.47
 21
22.2644
  0
LINE
  8
0
 10
-20.47
 20
22.2644
 11
-20.3836
 21
22.2104
  0
LINE
  8
0
 10
-20.3836
 20
22.2104
 11
-20.3011
 21
22.1505
  0
LINE
  8
0
 10
-20.3011
 20
22.1505
 11
-20.2231
 21
22.085
  0
LINE
  8
0
 10
-20.2231
 20
22.085
 11
-20.1498
 21
22.0142
  0
LINE
  8
0
 10
-20.1498
 20
22.0142
 11
-20.0816
 21
21.9385
  0
LINE
  8
0
 10
-20.0816
 20
21.9385
 11
-20.0188
 21
21.8582
  0
LINE
  8
0
 10
-20.0188
 20
21.8582
 11
-19.9618
 21
21.7737
  0
LINE
  8
0
 10
-19.9618
 20
21.7737
 11
-19.9109
 21
21.6854
  0
LINE
  8
0
 10
-19.9109
 20
21.6854
 11
-19.8662
 21
21.5938
  0
LINE
  8
0
 10
-19.8662
 20
21.5938
 11
-19.828
 21
21.4993
  0
LINE
  8
0
 10
-19.828
 20
21.4993
 11
-19.7966
 21
21.4024
  0
LINE
  8
0
 10
-19.7966
 20
21.4024
 11
-19.7719
 21
21.3036
  0
LINE
  8
0
 10
-19.7719
 20
21.3036
 11
-19.7542
 21
21.2032
  0
LINE
  8
0
 10
-19.7542
 20
21.2032
 11
-19.7436
 21
21.1018
  0
LINE
  8
0
 10
-19.7436
 20
21.1018
 11
-19.74
 21
21
  0
LINE
  8
0
 10
-19.74
 20
21
 11
-19.7436
 21
20.8982
  0
LINE
  8
0
 10
-19.7436
 20
20.8982
 11
-19.7542
 21
20.7968
  0
LINE
  8
0
 10
-19.7542
 20
20.7968
 11
-19.7719
 21
20.6964
  0
LINE
  8
0
 10
-19.7719
 20
20.6964
 11
-19.7966
 21
20.5976
  0
LINE
  8
0
 10
-19.7966
 20
20.5976
 11
-19.828
 21
20.5007
  0
LINE
  8
0
 10
-19.828
 20
20.5007
 11
-19.8662
 21
20.4062
  0
LINE
  8
0
 10
-19.8662
 20
20.4062
 11
-19.9109
 21
20.3146
  0
LINE
  8
0
 10
-19.9109
 20
20.3146
 11
-19.9618
 21
20.2263
  0
LINE
  8
0
 10
-19.9618
 20
20.2263
 11
-20.0188
 21
20.1418
  0
LINE
  8
0
 10
-20.0188
 20
20.1418
 11
-20.0816
 21
20.0615
  0
LINE
  8
0
 10
-20.0816
 20
20.0615
 11
-20.1498
 21
19.9858
  0
LINE
  8
0
 10
-20.1498
 20
19.9858
 11
-20.2231
 21
19.915
  0
LINE
  8
0
 10
-20.2231
 20
19.915
 11
-20.3011
 21
19.8495
  0
LINE
  8
0
 10
-20.3011
 20
19.8495
 11
-20.3836
 21
19.7896
  0
LINE
  8
0
 10
-20.3836
 20
19.7896
 11
-20.47
 21
19.7356
  0
LINE
  8
0
 10
-20.47
 20
19.7356
 11
-20.56
 21
19.6878
  0
LINE
  8
0
 10
-20.56
 20
19.6878
 11
-20.6531
 21
19.6463
  0
LINE
  8
0
 10
-20.6531
 20
19.6463
 11
-20.7488
 21
19.6115
  0
LINE
  8
0
 10
-20.7488
 20
19.6115
 11
-20.8468
 21
19.5834
  0
LINE
  8
0
 10
-20.8468
 20
19.5834
 11
-20.9465
 21
19.5622
  0
LINE
  8
0
 10
-20.9465
 20
19.5622
 11
-21.0474
 21
19.548
  0
LINE
  8
0
 10
-21.0474
 20
19.548
 11
-21.149
 21
19.5409
  0
LINE
  8
0
 10
-21.149
 20
19.5409
 11
-21.251
 21
19.5409
  0
LINE
  8
0
 10
-21.251
 20
19.5409
 11
-21.3526
 21
19.548
  0
LINE
  8
0
 10
-21.3526
 20
19.548
 11
-21.4535
 21
19.5622
  0
LINE
  8
0
 10
-21.4535
 20
19.5622
 11
-21.5532
 21
19.5834
  0
LINE
  8
0
 10
-21.5532
 20
19.5834
 11
-21.6512
 21
19.6115
  0
LINE
  8
0
 10
-21.6512
 20
19.6115
 11
-21.7469
 21
19.6463
  0
LINE
  8
0
 10
-21.7469
 20
19.6463
 11
-21.84
 21
19.6878
  0
LINE
  8
0
 10
-21.84
 20
19.6878
 11
-21.93
 21
19.7356
  0
LINE
  8
0
 10
-21.93
 20
19.7356
 11
-22.0164
 21
19.7896
  0
LINE
  8
0
 10
-22.0164
 20
19.7896
 11
-22.0989
 21
19.8495
  0
LINE
  8
0
 10
-22.0989
 20
19.8495
 11
-22.1769
 21
19.915
  0
LINE
  8
0
 10
-22.1769
 20
19.915
 11
-22.2502
 21
19.9858
  0
LINE
  8
0
 10
-22.2502
 20
19.9858
 11
-22.3184
 21
20.0615
  0
LINE
  8
0
 10
-22.3184
 20
20.0615
 11
-22.3812
 21
20.1418
  0
LINE
  8
0
 10
-22.3812
 20
20.1418
 11
-22.4381
 21
20.2263
  0
LINE
  8
0
 10
-22.4381
 20
20.2263
 11
-22.4891
 21
20.3146
  0
LINE
  8
0
 10
-22.4891
 20
20.3146
 11
-22.5338
 21
20.4062
  0
LINE
  8
0
 10
-22.5338
 20
20.4062
 11
-22.572
 21
20.5007
  0
LINE
  8
0
 10
-22.572
 20
20.5007
 11
-22.6034
 21
20.5976
  0
LINE
  8
0
 10
-22.6034
 20
20.5976
 11
-22.6281
 21
20.6964
  0
LINE
  8
0
 10
-22.6281
 20
20.6964
 11
-22.6458
 21
20.7968
  0
LINE
  8
0
 10
-22.6458
 20
20.7968
 11
-22.6564
 21
20.8982
  0
LINE
  8
0
 10
-22.6564
 20
20.8982
 11
-22.66
 21
21
  0
LINE
  8
0
 10
-16
 20
-24
 11
-16
 21
26
  0
LINE
  8
0
 10
-16
 20
26
 11
16
 21
26
  0
LINE
  8
0
 10
16
 20
26
 11
16
 21
-24
  0
LINE
  8
0
 10
16
 20
-24
 11
-16
 21
-24
  0
LINE
  8
0
 10
17.34
 20
-19
 11
17.3436
 21
-18.8982
  0
LINE
  8
0
 10
17.3436
 20
-18.8982
 11
17.3542
 21
-18.7968
  0
LINE
  8
0
 10
17.3542
 20
-18.7968
 11
17.3719
 21
-18.6964
  0
LINE
  8
0
 10
17.3719
 20
-18.6964
 11
17.3966
 21
-18.5976
  0
LINE
  8
0
 10
17.3966
 20
-18.5976
 11
17.428
 21
-18.5007
  0
LINE
  8
0
 10
17.428
 20
-18.5007
 11
17.4662
 21
-18.4062
  0
LINE
  8
0
 10
17.4662
 20
-18.4062
 11
17.5109
 21
-18.3146
  0
LINE
  8
0
 10
17.5109
 20
-18.3146
 11
17.5618
 21
-18.2263
  0
LINE
  8
0
 10
17.5618
 20
-18.2263
 11
17.6188
 21
-18.1418
  0
LINE
  8
0
 10
17.6188
 20
-18.1418
 11
17.6816
 21
-18.0615
  0
LINE
  8
0
 10
17.6816
 20
-18.0615
 11
17.7498
 21
-17.9858
  0
LINE
  8
0
 10
17.7498
 20
-17.9858
 11
17.8231
 21
-17.915
  0
LINE
  8
0
 10
17.8231
 20
-17.915
 11
17.9011
 21
-17.8495
  0
LINE
  8
0
 10
17.9011
 20
-17.8495
 11
17.9836
 21
-17.7896
  0
LINE
  8
0
 10
17.9836
 20
-17.7896
 11
18.07
 21
-17.7356
  0
LINE
  8
0
 10
18.07
 20
-17.7356
 11
18.16
 21
-17.6878
  0
LINE
  8
0
 10
18.16
 20
-17.6878
 11
18.2531
 21
-17.6463
  0
LINE
  8
0
 10
18.2531
 20
-17.6463
 11
18.3488
 21
-17.6115
  0
LINE
  8
0
 10
18.3488
 20
-17.6115
 11
18.4468
 21
-17.5834
  0
LINE
  8
0
 10
18.4468
 20
-17.5834
 11
18.5465
 21
-17.5622
  0
LINE
  8
0
 10
18.5465
 20
-17.5622
 11
18.6474
 21
-17.548
  0
LINE
  8
0
 10
18.6474
 20
-17.548
 11
18.749
 21
-17.5409
  0
LINE
  8
0
 10
18.749
 20
-17.5409
 11
18.851
 21
-17.5409
  0
LINE
  8
0
 10
18.851
 20
-17.5409
 11
18.9526
 21
-17.548
  0
LINE
  8
0
 10
18.9526
 20
-17.548
 11
19.0535
 21
-17.5622
  0
LINE
  8
0
 10
19.0535
 20
-17.5622
 11
19.1532
 21
-17.5834
  0
LINE
  8
0
 10
19.1532
 20
-17.5834
 11
19.2512
 21
-17.6115
  0
LINE
  8
0
 10
19.2512
 20
-17.6115
 11
19.3469
 21
-17.6463
  0
LINE
  8
0
 10
19.3469
 20
-17.6463
 11
19.44
 21
-17.6878
  0
LINE
  8
0
 10
19.44
 20
-17.6878
 11
19.53
 21
-17.7356
  0
LINE
  8
0
 10
19.53
 20
-17.7356
 11
19.6164
 21
-17.7896
  0
LINE
  8
0
 10
19.6164
 20
-17.7896
 11
19.6989
 21
-17.8495
  0
LINE
  8
0
 10
19.6989
 20
-17.8495
 11
19.7769
 21
-17.915
  0
LINE
  8
0
 10
19.7769
 20
-17.915
 11
19.8502
 21
-17.9858
  0
LINE
  8
0
 10
19.8502
 20
-17.9858
 11
19.9184
 21
-18.0615
  0
LINE
  8
0
 10
19.9184
 20
-18.0615
 11
19.9812
 21
-18.1418
  0
LINE
  8
0
 10
19.9812
 20
-18.1418
 11
20.0381
 21
-18.2263
  0
LINE
  8
0
 10
20.0381
 20
-18.2263
 11
20.0891
 21
-18.3146
  0
LINE
  8
0
 10
20.0891
 20
-18.3146
 11
20.1338
 21
-18.4062
  0
LINE
  8
0
 10
20.1338
 20
-18.4062
 11
20.172
 21
-18.5007
  0
LINE
  8
0
 10
20.172
 20
-18.5007
 11
20.2034
 21
-18.5976
  0
LINE
  8
0
 10
20.2034
 20
-18.5976
 11
20.2281
 21
-18.6964
  0
LINE
  8
0
 10
20.2281
 20
-18.6964
 11
20.2458
 21
-18.7968
  0
LINE
  8
0
 10
20.2458
 20
-18.7968
 11
20.2564
 21
-18.8982
  0
LINE
  8
0
 10
20.2564
 20
-18.8982
 11
20.26
 21
-19
  0
LINE
  8
0
 10
20.26
 20
-19
 11
20.2564
 21
-19.1018
  0
LINE
  8
0
 10
20.2564
 20
-19.1018
 11
20.2458
 21
-19.2032
  0
LINE
  8
0
 10
20.2458
 20
-19.2032
 11
20.2281
 21
-19.3036
  0
LINE
  8
0
 10
20.2281
 20
-19.3036
 11
20.2034
 21
-19.4024
  0
LINE
  8
0
 10
20.2034
 20
-19.4024
 11
20.172
 21
-19.4993
  0
LINE
  8
0
 10
20.172
 20
-19.4993
 11
20.1338
 21
-19.5938
  0
LINE
  8
0
 10
20.1338
 20
-19.5938
 11
20.0891
 21
-19.6854
  0
LINE
  8
0
 10
20.0891
 20
-19.6854
 11
20.0381
 21
-19.7737
  0
LINE
  8
0
 10
20.0381
 20
-19.7737
 11
19.9812
 21
-19.8582
  0
LINE
  8
0
 10
19.9812
 20
-19.8582
 11
19.9184
 21
-19.9385
  0
LINE
  8
0
 10
19.9184
 20
-19.9385
 11
19.8502
 21
-20.0142
  0
LINE
  8
0
 10
19.8502
 20
-20.0142
 11
19.7769
 21
-20.085
  0
LINE
  8
0
 10
19.7769
 20
-20.085
 11
19.6989
 21
-20.1505
  0
LINE
  8
0
 10
19.6989
 20
-20.1505
 11
19.6164
 21
-20.2104
  0
LINE
  8
0
 10
19.6164
 20
-20.2104
 11
19.53
 21
-20.2644
  0
LINE
  8
0
 10
19.53
 20
-20.2644
 11
19.44
 21
-20.3122
  0
LINE
  8
0
 10
19.44
 20
-20.3122
 11
19.3469
 21
-20.3537
  0
LINE
  8
0
 10
19.3469
 20
-20.3537
 11
19.2512
 21
-20.3885
  0
LINE
  8
0
 10
19.2512
 20
-20.3885
 11
19.1532
 21
-20.4166
  0
LINE
  8
0
 10
19.1532
 20
-20.4166
 11
19.0535
 21
-20.4378
  0
LINE
  8
0
 10
19.0535
 20
-20.4378
 11
18.9526
 21
-20.452
  0
LINE
  8
0
 10
18.9526
 20
-20.452
 11
18.851
 21
-20.4591
  0
LINE
  8
0
 10
18.851
 20
-20.4591
 11
18.749
 21
-20.4591
  0
LINE
  8
0
 10
18.749
 20
-20.4591
 11
18.6474
 21
-20.452
  0
LINE
  8
0
 10
18.6474
 20
-20.452
 11
18.5465
 21
-20.4378
  0
LINE
  8
0
 10
18.5465
 20
-20.4378
 11
18.4468
 21
-20.4166
  0
LINE
  8
0
 10
18.4468
 20
-20.4166
 11
18.3488
 21
-20.3885
  0
LINE
  8
0
 10
18.3488
 20
-20.3885
 11
18.2531
 21
-20.3537
  0
LINE
  8
0
 10
18.2531
 20
-20.3537
 11
18.16
 21
-20.3122
  0
LINE
  8
0
 10
18.16
 20
-20.3122
 11
18.07
 21
-20.2644
  0
LINE
  8
0
 10
18.07
 20
-20.2644
 11
17.9836
 21
-20.2104
  0
LINE
  8
0
 10
17.9836
 20
-20.2104
 11
17.9011
 21
-20.1505
  0
LINE
  8
0
 10
17.9011
 20
-20.1505
 11
17.8231
 21
-20.085
  0
LINE
  8
0
 10
17.8231
 20
-20.085
 11
17.7498
 21
-20.0142
  0
LINE
  8
0
 10
17.7498
 20
-20.0142
 11
17.6816
 21
-19.9385
  0
LINE
  8
0
 10
17.6816
 20
-19.9385
 11
17.6188
 21
-19.8582
  0
LINE
  8
0
 10
17.6188
 20
-19.8582
 11
17.5618
 21
-19.7737
  0
LINE
  8
0
 10
17.5618
 20
-19.7737
 11
17.5109
 21
-19.6854
  0
LINE
  8
0
 10
17.5109
 20
-19.6854
 11
17.4662
 21
-19.5938
  0
LINE
  8
0
 10
17.4662
 20
-19.5938
 11
17.428
 21
-19.4993
  0
LINE
  8
0
 10
17.428
 20
-19.4993
 11
17.3966
 21
-19.4024
  0
LINE
  8
0
 10
17.3966
 20
-19.4024
 11
17.3719
 21
-19.3036
  0
LINE
  8
0
 10
17.3719
 20
-19.3036
 11
17.3542
 21
-19.2032
  0
LINE
  8
0
 10
17.3542
 20
-19.2032
 11
17.3436
 21
-19.1018
  0
LINE
  8
0
 10
17.3436
 20
-19.1018
 11
17.34
 21
-19
  0
LINE
  8
0
 10
17.34
 20
21
 11
17.3436
 21
21.1018
  0
LINE
  8
0
 10
17.3436
 20
21.1018
 11
17.3542
 21
21.2032
  0
LINE
  8
0
 10
17.3542
 20
21.2032
 11
17.3719
 21
21.3036
  0
LINE
  8
0
 10
17.3719
 20
21.3036
 11
17.3966
 21
21.4024
  0
LINE
  8
0
 10
17.3966
 20
21.4024
 11
17.428
 21
21.4993
  0
LINE
  8
0
 10
17.428
 20
21.4993
 11
17.4662
 21
21.5938
  0
LINE
  8
0
 10
17.4662
 20
21.5938
 11
17.5109
 21
21.6854
  0
LINE
  8
0
 10
17.5109
 20
21.6854
 11
17.5618
 21
21.7737
  0
LINE
  8
0
 10
17.5618
 20
21.7737
 11
17.6188
 21
21.8582
  0
LINE
  8
0
 10
17.6188
 20
21.8582
 11
17.6816
 21
21.9385
  0
LINE
  8
0
 10
17.6816
 20
21.9385
 11
17.7498
 21
22.0142
  0
LINE
  8
0
 10
17.7498
 20
22.0142
 11
17.8231
 21
22.085
  0
LINE
  8
0
 10
17.8231
 20
22.085
 11
17.9011
 21
22.1505
  0
LINE
  8
0
 10
17.9011
 20
22.1505
 11
17.9836
 21
22.2104
  0
LINE
  8
0
 10
17.9836
 20
22.2104
 11
18.07
 21
22.2644
  0
LINE
  8
0
 10
18.07
 20
22.2644
 11
18.16
 21
22.3122
  0
LINE
  8
0
 10
18.16
 20
22.3122
 11
18.2531
 21
22.3537
  0
LINE
  8
0
 10
18.2531
 20
22.3537
 11
18.3488
 21
22.3885
  0
LINE
  8
0
 10
18.3488
 20
22.3885
 11
18.4468
 21
22.4166
  0
LINE
  8
0
 10
18.4468
 20
22.4166
 11
18.5465
 21
22.4378
  0
LINE
  8
0
 10
18.5465
 20
22.4378
 11
18.6474
 21
22.452
  0
LINE
  8
0
 10
18.6474
 20
22.452
 11
18.749
 21
22.4591
  0
LINE
  8
0
 10
18.749
 20
22.4591
 11
18.851
 21
22.4591
  0
LINE
  8
0
 10
18.851
 20
22.4591
 11
18.9526
 21
22.452
  0
LINE
  8
0
 10
18.9526
 20
22.452
 11
19.0535
 21
22.4378
  0
LINE
  8
0
 10
19.0535
 20
22.4378
 11
19.1532
 21
22.4166
  0
LINE
  8
0
 10
19.1532
 20
22.4166
 11
19.2512
 21
22.3885
  0
LINE
  8
0
 10
19.2512
 20
22.3885
 11
19.3469
 21
22.3537
  0
LINE
  8
0
 10
19.3469
 20
22.3537
 11
19.44
 21
22.3122
  0
LINE
  8
0
 10
19.44
 20
22.3122
 11
19.53
 21
22.2644
  0
LINE
  8
0
 10
19.53
 20
22.2644
 11
19.6164
 21
22.2104
  0
LINE
  8
0
 10
19.6164
 20
22.2104
 11
19.6989
 21
22.1505
  0
LINE
  8
0
 10
19.6989
 20
22.1505
 11
19.7769
 21
22.085
  0
LINE
  8
0
 10
19.7769
 20
22.085
 11
19.8502
 21
22.0142
  0
LINE
  8
0
 10
19.8502
 20
22.0142
 11
19.9184
 21
21.9385
  0
LINE
  8
0
 10
19.9184
 20
21.9385
 11
19.9812
 21
21.8582
  0
LINE
  8
0
 10
19.9812
 20
21.8582
 11
20.0381
 21
21.7737
  0
LINE
  8
0
 10
20.0381
 20
21.7737
 11
20.0891
 21
21.6854
  0
LINE
  8
0
 10
20.0891
 20
21.6854
 11
20.1338
 21
21.5938
  0
LINE
  8
0
 10
20.1338
 20
21.5938
 11
20.172
 21
21.4993
  0
LINE
  8
0
 10
20.172
 20
21.4993
 11
20.2034
 21
21.4024
  0
LINE
  8
0
 10
20.2034
 20
21.4024
 11
20.2281
 21
21.3036
  0
LINE
  8
0
 10
20.2281
 20
21.3036
 11
20.2458
 21
21.2032
  0
LINE
  8
0
 10
20.2458
 20
21.2032
 11
20.2564
 21
21.1018
  0
LINE
  8
0
 10
20.2564
 20
21.1018
 11
20.26
 21
21
  0
LINE
  8
0
 10
20.26
 20
21
 11
20.2564
 21
20.8982
  0
LINE
  8
0
 10
20.2564
 20
20.8982
 11
20.2458
 21
20.7968
  0
LINE
  8
0
 10
20.2458
 20
20.7968
 11
20.2281
 21
20.6964
  0
LINE
  8
0
 10
20.2281
 20
20.6964
 11
20.2034
 21
20.5976
  0
LINE
  8
0
 10
20.2034
 20
20.5976
 11
20.172
 21
20.5007
  0
LINE
  8
0
 10
20.172
 20
20.5007
 11
20.1338
 21
20.4062
  0
LINE
  8
0
 10
20.1338
 20
20.4062
 11
20.0891
 21
20.3146
  0
LINE
  8
0
 10
20.0891
 20
20.3146
 11
20.0381
 21
20.2263
  0
LINE
  8
0
 10
20.0381
 20
20.2263
 11
19.9812
 21
20.1418
  0
LINE
  8
0
 10
19.9812
 20
20.1418
 11
19.9184
 21
20.0615
  0
LINE
  8
0
 10
19.9184
 20
20.0615
 11
19.8502
 21
19.9858
  0
LINE
  8
0
 10
19.8502
 20
19.9858
 11
19.7769
 21
19.915
  0
LINE
  8
0
 10
19.7769
 20
19.915
 11
19.6989
 21
19.8495
  0
LINE
  8
0
 10
19.6989
 20
19.8495
 11
19.6164
 21
19.7896
  0
LINE
  8
0
 10
19.6164
 20
19.7896
 11
19.53
 21
19.7356
  0
LINE
  8
0
 10
19.53
 20
19.7356
 11
19.44
 21
19.6878
  0
LINE
  8
0
 10
19.44
 20
19.6878
 11
19.3469
 21
19.6463
  0
LINE
  8
0
 10
19.3469
 20
19.6463
 11
19.2512
 21
19.6115
  0
LINE
  8
0
 10
19.2512
 20
19.6115
 11
19.1532
 21
19.5834
  0
LINE
  8
0
 10
19.1532
 20
19.5834
 11
19.0535
 21
19.5622
  0
LINE
  8
0
 10
19.0535
 20
19.5622
 11
18.9526
 21
19.548
  0
LINE
  8
0
 10
18.9526
 20
19.548
 11
18.851
 21
19.5409
  0
LINE
  8
0
 10
18.851
 20
19.5409
 11
18.749
 21
19.5409
  0
LINE
  8
0
 10
18.749
 20
19.5409
 11
18.6474
 21
19.548
  0
LINE
  8
0
 10
18.6474
 20
19.548
 11
18.5465
 21
19.5622
  0
LINE
  8
0
 10
18.5465
 20
19.5622
 11
18.4468
 21
19.5834
  0
LINE
  8
0
 10
18.4468
 20
19.5834
 11
18.3488
 21
19.6115
  0
LINE
  8
0
 10
18.3488
 20
19.6115
 11
18.2531
 21
19.6463
  0
LINE
  8
0
 10
18.2531
 20
19.6463
 11
18.16
 21
19.6878
  0
LINE
  8
0
 10
18.16
 20
19.6878
 11
18.07
 21
19.7356
  0
LINE
  8
0
 10
18.07
 20
19.7356
 11
17.9836
 21
19.7896
  0
LINE
  8
0
 10
17.9836
 20
19.7896
 11
17.9011
 21
19.8495
  0
LINE
  8
0
 10
17.9011
 20
19.8495
 11
17.8231
 21
19.915
  0
LINE
  8
0
 10
17.8231
 20
19.915
 11
17.7498
 21
19.9858
  0
LINE
  8
0
 10
17.7498
 20
19.9858
 11
17.6816
 21
20.0615
  0
LINE
  8
0
 10
17.6816
 20
20.0615
 11
17.6188
 21
20.1418
  0
LINE
  8
0
 10
17.6188
 20
20.1418
 11
17.5618
 21
20.2263
  0
LINE
  8
0
 10
17.5618
 20
20.2263
 11
17.5109
 21
20.3146
  0
LINE
  8
0
 10
17.5109
 20
20.3146
 11
17.4662
 21
20.4062
  0
LINE
  8
0
 10
17.4662
 20
20.4062
 11
17.428
 21
20.5007
  0
LINE
  8
0
 10
17.428
 20
20.5007
 11
17.3966
 21
20.5976
  0
LINE
  8
0
 10
17.3966
 20
20.5976
 11
17.3719
 21
20.6964
  0
LINE
  8
0
 10
17.3719
 20
20.6964
 11
17.3542
 21
20.7968
  0
LINE
  8
0
 10
17.3542
 20
20.7968
 11
17.3436
 21
20.8982
  0
LINE
  8
0
 10
17.3436
 20
20.8982
 11
17.34
 21
21
  0
LINE
  8
0
 10
35.49
 20
-20.3
 11
35.49
 21
-14.3
  0
LINE
  8
0
 10
35.49
 20
-14.3
 11
50.49
 21
-14.3
  0
LINE
  8
0
 10
50.49
 20
-14.3
 11
50.49
 21
-20.3
  0
LINE
  8
0
 10
50.49
 20
-20.3
 11
35.49
 21
-20.3
  0
LINE
  8
0
 10
35.49
 20
14.3
 11
35.49
 21
20.3
  0
LINE
  8
0
 10
35.49
 20
20.3
 11
50.49
 21
20.3
  0
LINE
  8
0
 10
50.49
 20
20.3
 11
50.49
 21
14.3
  0
LINE
  8
0
 10
50.49
 20
14.3
 11
35.49
 21
14.3
  0
LINE
  8
0
 10
39.49
 20
0
 11
39.4985
 21
0.244147
  0
LINE
  8
0
 10
39.4985
 20
0.244147
 11
39.5241
 21
0.487105
  0
LINE
  8
0
 10
39.5241
 20
0.487105
 11
39.5665
 21
0.727691
  0
LINE
  8
0
 10
39.5665
 20
0.727691
 11
39.6256
 21
0.96473
  0
LINE
  8
0
 10
39.6256
 20
0.96473
 11
39.7011
 21
1.19707
  0
LINE
  8
0
 10
39.7011
 20
1.19707
 11
39.7926
 21
1.42358
  0
LINE
  8
0
 10
39.7926
 20
1.42358
 11
39.8997
 21
1.64315
  0
LINE
  8
0
 10
39.8997
 20
1.64315
 11
40.0218
 21
1.85472
  0
LINE
  8
0
 10
40.0218
 20
1.85472
 11
40.1584
 21
2.05725
  0
LINE
  8
0
 10
40.1584
 20
2.05725
 11
40.3088
 21
2.24976
  0
LINE
  8
0
 10
40.3088
 20
2.24976
 11
40.4723
 21
2.4313
  0
LINE
  8
0
 10
40.4723
 20
2.4313
 11
40.648
 21
2.60101
  0
LINE
  8
0
 10
40.648
 20
2.60101
 11
40.8352
 21
2.75804
  0
LINE
  8
0
 10
40.8352
 20
2.75804
 11
41.0328
 21
2.90163
  0
LINE
  8
0
 10
41.0328
 20
2.90163
 11
41.24
 21
3.03109
  0
LINE
  8
0
 10
41.24
 20
3.03109
 11
41.4557
 21
3.14578
  0
LINE
  8
0
 10
41.4557
 20
3.14578
 11
41.6789
 21
3.24514
  0
LINE
  8
0
 10
41.6789
 20
3.24514
 11
41.9084
 21
3.3287
  0
LINE
  8
0
 10
41.9084
 20
3.3287
 11
42.1433
 21
3.39603
  0
LINE
  8
0
 10
42.1433
 20
3.39603
 11
42.3822
 21
3.44683
  0
LINE
  8
0
 10
42.3822
 20
3.44683
 11
42.6242
 21
3.48083
  0
LINE
  8
0
 10
42.6242
 20
3.48083
 11
42.8679
 21
3.49787
  0
LINE
  8
0
 10
42.8679
 20
3.49787
 11
43.1121
 21
3.49787
  0
LINE
  8
0
 10
43.1121
 20
3.49787
 11
43.3558
 21
3.48083
  0
LINE
  8
0
 10
43.3558
 20
3.48083
 11
43.5978
 21
3.44683
  0
LINE
  8
0
 10
43.5978
 20
3.44683
 11
43.8367
 21
3.39603
  0
LINE
  8
0
 10
43.8367
 20
3.39603
 11
44.0716
 21
3.3287
  0
LINE
  8
0
 10
44.0716
 20
3.3287
 11
44.3011
 21
3.24514
  0
LINE
  8
0
 10
44.3011
 20
3.24514
 11
44.5243
 21
3.14578
  0
LINE
  8
0
 10
44.5243
 20
3.14578
 11
44.74
 21
3.03109
  0
LINE
  8
0
 10
44.74
 20
3.03109
 11
44.9472
 21
2.90163
  0
LINE
  8
0
 10
44.9472
 20
2.90163
 11
45.1448
 21
2.75804
  0
LINE
  8
0
 10
45.1448
 20
2.75804
 11
45.332
 21
2.60101
  0
LINE
  8
0
 10
45.332
 20
2.60101
 11
45.5077
 21
2.4313
  0
LINE
  8
0
 10
45.5077
 20
2.4313
 11
45.6712
 21
2.24976
  0
LINE
  8
0
 10
45.6712
 20
2.24976
 11
45.8216
 21
2.05725
  0
LINE
  8
0
 10
45.8216
 20
2.05725
 11
45.9582
 21
1.85472
  0
LINE
  8
0
 10
45.9582
 20
1.85472
 11
46.0803
 21
1.64315
  0
LINE
  8
0
 10
46.0803
 20
1.64315
 11
46.1874
 21
1.42358
  0
LINE
  8
0
 10
46.1874
 20
1.42358
 11
46.2789
 21
1.19707
  0
LINE
  8
0
 10
46.2789
 20
1.19707
 11
46.3544
 21
0.96473
  0
LINE
  8
0
 10
46.3544
 20
0.96473
 11
46.4135
 21
0.727691
  0
LINE
  8
0
 10
46.4135
 20
0.727691
 11
46.4559
 21
0.487105
  0
LINE
  8
0
 10
46.4559
 20
0.487105
 11
46.4815
 21
0.244147
  0
LINE
  8
0
 10
46.4815
 20
0.244147
 11
46.49
 21
0
  0
LINE
  8
0
 10
46.49
 20
0
 11
46.4815
 21
-0.244147
  0
LINE
  8
0
 10
46.4815
 20
-0.244147
 11
46.4559
 21
-0.487105
  0
LINE
  8
0
 10
46.4559
 20
-0.487105
 11
46.4135
 21
-0.727691
  0
LINE
  8
0
 10
46.4135
 20
-0.727691
 11
46.3544
 21
-0.96473
  0
LINE
  8
0
 10
46.3544
 20
-0.96473
 11
46.2789
 21
-1.19707
  0
LINE
  8
0
 10
46.2789
 20
-1.19707
 11
46.1874
 21
-1.42358
  0
LINE
  8
0
 10
46.1874
 20
-1.42358
 11
46.0803
 21
-1.64315
  0
LINE
  8
0
 10
46.0803
 20
-1.64315
 11
45.9582
 21
-1.85472
  0
LINE
  8
0
 10
45.9582
 20
-1.85472
 11
45.8216
 21
-2.05725
  0
LINE
  8
0
 10
45.8216
 20
-2.05725
 11
45.6712
 21
-2.24976
  0
LINE
  8
0
 10
45.6712
 20
-2.24976
 11
45.5077
 21
-2.4313
  0
LINE
  8
0
 10
45.5077
 20
-2.4313
 11
45.332
 21
-2.60101
  0
LINE
  8
0
 10
45.332
 20
-2.60101
 11
45.1448
 21
-2.75804
  0
LINE
  8
0
 10
45.1448
 20
-2.75804
 11
44.9472
 21
-2.90163
  0
LINE
  8
0
 10
44.9472
 20
-2.90163
 11
44.74
 21
-3.03109
  0
LINE
  8
0
 10
44.74
 20
-3.03109
 11
44.5243
 21
-3.14578
  0
LINE
  8
0
 10
44.5243
 20
-3.14578
 11
44.3011
 21
-3.24514
  0
LINE
  8
0
 10
44.3011
 20
-3.24514
 11
44.0716
 21
-3.3287
  0
LINE
  8
0
 10
44.0716
 20
-3.3287
 11
43.8367
 21
-3.39603
  0
LINE
  8
0
 10
43.8367
 20
-3.39603
 11
43.5978
 21
-3.44683
  0
LINE
  8
0
 10
43.5978
 20
-3.44683
 11
43.3558
 21
-3.48083
  0
LINE
  8
0
 10
43.3558
 20
-3.48083
 11
43.1121
 21
-3.49787
  0
LINE
  8
0
 10
43.1121
 20
-3.49787
 11
42.8679
 21
-3.49787
  0
LINE
  8
0
 10
42.8679
 20
-3.49787
 11
42.6242
 21
-3.48083
  0
LINE
  8
0
 10
42.6242
 20
-3.48083
 11
42.3822
 21
-3.44683
  0
LINE
  8
0
 10
42.3822
 20
-3.44683
 11
42.1433
 21
-3.39603
  0
LINE
  8
0
 10
42.1433
 20
-3.39603
 11
41.9084
 21
-3.3287
  0
LINE
  8
0
 10
41.9084
 20
-3.3287
 11
41.6789
 21
-3.24514
  0
LINE
  8
0
 10
41.6789
 20
-3.24514
 11
41.4557
 21
-3.14578
  0
LINE
  8
0
 10
41.4557
 20
-3.14578
 11
41.24
 21
-3.03109
  0
LINE
  8
0
 10
41.24
 20
-3.03109
 11
41.0328
 21
-2.90163
  0
LINE
  8
0
 10
41.0328
 20
-2.90163
 11
40.8352
 21
-2.75804
  0
LINE
  8
0
 10
40.8352
 20
-2.75804
 11
40.648
 21
-2.60101
  0
LINE
  8
0
 10
40.648
 20
-2.60101
 11
40.4723
 21
-2.4313
  0
LINE
  8
0
 10
40.4723
 20
-2.4313
 11
40.3088
 21
-2.24976
  0
LINE
  8
0
 10
40.3088
 20
-2.24976
 11
40.1584
 21
-2.05725
  0
LINE
  8
0
 10
40.1584
 20
-2.05725
 11
40.0218
 21
-1.85472
  0
LINE
  8
0
 10
40.0218
 20
-1.85472
 11
39.8997
 21
-1.64315
  0
LINE
  8
0
 10
39.8997
 20
-1.64315
 11
39.7926
 21
-1.42358
  0
LINE
  8
0
 10
39.7926
 20
-1.42358
 11
39.7011
 21
-1.19707
  0
LINE
  8
0
 10
39.7011
 20
-1.19707
 11
39.6256
 21
-0.96473
  0
LINE
  8
0
 10
39.6256
 20
-0.96473
 11
39.5665
 21
-0.727691
  0
LINE
  8
0
 10
39.5665
 20
-0.727691
 11
39.5241
 21
-0.487105
  0
LINE
  8
0
 10
39.5241
 20
-0.487105
 11
39.4985
 21
-0.244147
  0
LINE
  8
0
 10
39.4985
 20
-0.244147
 11
39.49
 21
0
  0
LINE
  8
0
 10
57.56
 20
-90.6
 11
57.5636
 21
-90.4982
  0
LINE
  8
0
 10
57.5636
 20
-90.4982
 11
57.5742
 21
-90.3968
  0
LINE
  8
0
 10
57.5742
 20
-90.3968
 11
57.5919
 21
-90.2964
  0
LINE
  8
0
 10
57.5919
 20
-90.2964
 11
57.6166
 21
-90.1976
  0
LINE
  8
0
 10
57.6166
 20
-90.1976
 11
57.648
 21
-90.1006
  0
LINE
  8
0
 10
57.648
 20
-90.1006
 11
57.6862
 21
-90.0062
  0
LINE
  8
0
 10
57.6862
 20
-90.0062
 11
57.7309
 21
-89.9146
  0
LINE
  8
0
 10
57.7309
 20
-89.9146
 11
57.7818
 21
-89.8263
  0
LINE
  8
0
 10
57.7818
 20
-89.8263
 11
57.8388
 21
-89.7418
  0
LINE
  8
0
 10
57.8388
 20
-89.7418
 11
57.9016
 21
-89.6615
  0
LINE
  8
0
 10
57.9016
 20
-89.6615
 11
57.9698
 21
-89.5858
  0
LINE
  8
0
 10
57.9698
 20
-89.5858
 11
58.0431
 21
-89.515
  0
LINE
  8
0
 10
58.0431
 20
-89.515
 11
58.1211
 21
-89.4495
  0
LINE
  8
0
 10
58.1211
 20
-89.4495
 11
58.2036
 21
-89.3896
  0
LINE
  8
0
 10
58.2036
 20
-89.3896
 11
58.29
 21
-89.3356
  0
LINE
  8
0
 10
58.29
 20
-89.3356
 11
58.38
 21
-89.2878
  0
LINE
  8
0
 10
58.38
 20
-89.2878
 11
58.4731
 21
-89.2463
  0
LINE
  8
0
 10
58.4731
 20
-89.2463
 11
58.5688
 21
-89.2115
  0
LINE
  8
0
 10
58.5688
 20
-89.2115
 11
58.6668
 21
-89.1834
  0
LINE
  8
0
 10
58.6668
 20
-89.1834
 11
58.7665
 21
-89.1622
  0
LINE
  8
0
 10
58.7665
 20
-89.1622
 11
58.8674
 21
-89.148
  0
LINE
  8
0
 10
58.8674
 20
-89.148
 11
58.969
 21
-89.1409
  0
LINE
  8
0
 10
58.969
 20
-89.1409
 11
59.071
 21
-89.1409
  0
LINE
  8
0
 10
59.071
 20
-89.1409
 11
59.1726
 21
-89.148
  0
LINE
  8
0
 10
59.1726
 20
-89.148
 11
59.2735
 21
-89.1622
  0
LINE
  8
0
 10
59.2735
 20
-89.1622
 11
59.3732
 21
-89.1834
  0
LINE
  8
0
 10
59.3732
 20
-89.1834
 11
59.4712
 21
-89.2115
  0
LINE
  8
0
 10
59.4712
 20
-89.2115
 11
59.5669
 21
-89.2463
  0
LINE
  8
0
 10
59.5669
 20
-89.2463
 11
59.66
 21
-89.2878
  0
LINE
  8
0
 10
59.66
 20
-89.2878
 11
59.75
 21
-89.3356
  0
LINE
  8
0
 10
59.75
 20
-89.3356
 11
59.8364
 21
-89.3896
  0
LINE
  8
0
 10
59.8364
 20
-89.3896
 11
59.9189
 21
-89.4495
  0
LINE
  8
0
 10
59.9189
 20
-89.4495
 11
59.9969
 21
-89.515
  0
LINE
  8
0
 10
59.9969
 20
-89.515
 11
60.0702
 21
-89.5858
  0
LINE
  8
0
 10
60.0702
 20
-89.5858
 11
60.1384
 21
-89.6615
  0
LINE
  8
0
 10
60.1384
 20
-89.6615
 11
60.2012
 21
-89.7418
  0
LINE
  8
0
 10
60.2012
 20
-89.7418
 11
60.2582
 21
-89.8263
  0
LINE
  8
0
 10
60.2582
 20
-89.8263
 11
60.3091
 21
-89.9146
  0
LINE
  8
0
 10
60.3091
 20
-89.9146
 11
60.3538
 21
-90.0062
  0
LINE
  8
0
 10
60.3538
 20
-90.0062
 11
60.392
 21
-90.1006
  0
LINE
  8
0
 10
60.392
 20
-90.1006
 11
60.4234
 21
-90.1976
  0
LINE
  8
0
 10
60.4234
 20
-90.1976
 11
60.4481
 21
-90.2964
  0
LINE
  8
0
 10
60.4481
 20
-90.2964
 11
60.4658
 21
-90.3968
  0
LINE
  8
0
 10
60.4658
 20
-90.3968
 11
60.4764
 21
-90.4982
  0
LINE
  8
0
 10
60.4764
 20
-90.4982
 11
60.48
 21
-90.6
  0
LINE
  8
0
 10
60.48
 20
-90.6
 11
60.4764
 21
-90.7018
  0
LINE
  8
0
 10
60.4764
 20
-90.7018
 11
60.4658
 21
-90.8032
  0
LINE
  8
0
 10
60.4658
 20
-90.8032
 11
60.4481
 21
-90.9036
  0
LINE
  8
0
 10
60.4481
 20
-90.9036
 11
60.4234
 21
-91.0024
  0
LINE
  8
0
 10
60.4234
 20
-91.0024
 11
60.392
 21
-91.0993
  0
LINE
  8
0
 10
60.392
 20
-91.0993
 11
60.3538
 21
-91.1938
  0
LINE
  8
0
 10
60.3538
 20
-91.1938
 11
60.3091
 21
-91.2854
  0
LINE
  8
0
 10
60.3091
 20
-91.2854
 11
60.2582
 21
-91.3737
  0
LINE
  8
0
 10
60.2582
 20
-91.3737
 11
60.2012
 21
-91.4582
  0
LINE
  8
0
 10
60.2012
 20
-91.4582
 11
60.1384
 21
-91.5385
  0
LINE
  8
0
 10
60.1384
 20
-91.5385
 11
60.0702
 21
-91.6142
  0
LINE
  8
0
 10
60.0702
 20
-91.6142
 11
59.9969
 21
-91.685
  0
LINE
  8
0
 10
59.9969
 20
-91.685
 11
59.9189
 21
-91.7505
  0
LINE
  8
0
 10
59.9189
 20
-91.7505
 11
59.8364
 21
-91.8104
  0
LINE
  8
0
 10
59.8364
 20
-91.8104
 11
59.75
 21
-91.8644
  0
LINE
  8
0
 10
59.75
 20
-91.8644
 11
59.66
 21
-91.9122
  0
LINE
  8
0
 10
59.66
 20
-91.9122
 11
59.5669
 21
-91.9537
  0
LINE
  8
0
 10
59.5669
 20
-91.9537
 11
59.4712
 21
-91.9885
  0
LINE
  8
0
 10
59.4712
 20
-91.9885
 11
59.3732
 21
-92.0166
  0
LINE
  8
0
 10
59.3732
 20
-92.0166
 11
59.2735
 21
-92.0378
  0
LINE
  8
0
 10
59.2735
 20
-92.0378
 11
59.1726
 21
-92.052
  0
LINE
  8
0
 10
59.1726
 20
-92.052
 11
59.071
 21
-92.0591
  0
LINE
  8
0
 10
59.071
 20
-92.0591
 11
58.969
 21
-92.0591
  0
LINE
  8
0
 10
58.969
 20
-92.0591
 11
58.8674
 21
-92.052
  0
LINE
  8
0
 10
58.8674
 20
-92.052
 11
58.7665
 21
-92.0378
  0
LINE
  8
0
 10
58.7665
 20
-92.0378
 11
58.6668
 21
-92.0166
  0
LINE
  8
0
 10
58.6668
 20
-92.0166
 11
58.5688
 21
-91.9885
  0
LINE
  8
0
 10
58.5688
 20
-91.9885
 11
58.4731
 21
-91.9537
  0
LINE
  8
0
 10
58.4731
 20
-91.9537
 11
58.38
 21
-91.9122
  0
LINE
  8
0
 10
58.38
 20
-91.9122
 11
58.29
 21
-91.8644
  0
LINE
  8
0
 10
58.29
 20
-91.8644
 11
58.2036
 21
-91.8104
  0
LINE
  8
0
 10
58.2036
 20
-91.8104
 11
58.1211
 21
-91.7505
  0
LINE
  8
0
 10
58.1211
 20
-91.7505
 11
58.0431
 21
-91.685
  0
LINE
  8
0
 10
58.0431
 20
-91.685
 11
57.9698
 21
-91.6142
  0
LINE
  8
0
 10
57.9698
 20
-91.6142
 11
57.9016
 21
-91.5385
  0
LINE
  8
0
 10
57.9016
 20
-91.5385
 11
57.8388
 21
-91.4582
  0
LINE
  8
0
 10
57.8388
 20
-91.4582
 11
57.7818
 21
-91.3737
  0
LINE
  8
0
 10
57.7818
 20
-91.3737
 11
57.7309
 21
-91.2854
  0
LINE
  8
0
 10
57.7309
 20
-91.2854
 11
57.6862
 21
-91.1938
  0
LINE
  8
0
 10
57.6862
 20
-91.1938
 11
57.648
 21
-91.0993
  0
LINE
  8
0
 10
57.648
 20
-91.0993
 11
57.6166
 21
-91.0024
  0
LINE
  8
0
 10
57.6166
 20
-91.0024
 11
57.5919
 21
-90.9036
  0
LINE
  8
0
 10
57.5919
 20
-90.9036
 11
57.5742
 21
-90.8032
  0
LINE
  8
0
 10
57.5742
 20
-90.8032
 11
57.5636
 21
-90.7018
  0
LINE
  8
0
 10
57.5636
 20
-90.7018
 11
57.56
 21
-90.6
  0
LINE
  8
0
 10
57.56
 20
90.6
 11
57.5636
 21
90.7018
  0
LINE
  8
0
 10
57.5636
 20
90.7018
 11
57.5742
 21
90.8032
  0
LINE
  8
0
 10
57.5742
 20
90.8032
 11
57.5919
 21
90.9036
  0
LINE
  8
0
 10
57.5919
 20
90.9036
 11
57.6166
 21
91.0024
  0
LINE
  8
0
 10
57.6166
 20
91.0024
 11
57.648
 21
91.0993
  0
LINE
  8
0
 10
57.648
 20
91.0993
 11
57.6862
 21
91.1938
  0
LINE
  8
0
 10
57.6862
 20
91.1938
 11
57.7309
 21
91.2854
  0
LINE
  8
0
 10
57.7309
 20
91.2854
 11
57.7818
 21
91.3737
  0
LINE
  8
0
 10
57.7818
 20
91.3737
 11
57.8388
 21
91.4582
  0
LINE
  8
0
 10
57.8388
 20
91.4582
 11
57.9016
 21
91.5385
  0
LINE
  8
0
 10
57.9016
 20
91.5385
 11
57.9698
 21
91.6142
  0
LINE
  8
0
 10
57.9698
 20
91.6142
 11
58.0431
 21
91.685
  0
LINE
  8
0
 10
58.0431
 20
91.685
 11
58.1211
 21
91.7505
  0
LINE
  8
0
 10
58.1211
 20
91.7505
 11
58.2036
 21
91.8104
  0
LINE
  8
0
 10
58.2036
 20
91.8104
 11
58.29
 21
91.8644
  0
LINE
  8
0
 10
58.29
 20
91.8644
 11
58.38
 21
91.9122
  0
LINE
  8
0
 10
58.38
 20
91.9122
 11
58.4731
 21
91.9537
  0
LINE
  8
0
 10
58.4731
 20
91.9537
 11
58.5688
 21
91.9885
  0
LINE
  8
0
 10
58.5688
 20
91.9885
 11
58.6668
 21
92.0166
  0
LINE
  8
0
 10
58.6668
 20
92.0166
 11
58.7665
 21
92.0378
  0
LINE
  8
0
 10
58.7665
 20
92.0378
 11
58.8674
 21
92.052
  0
LINE
  8
0
 10
58.8674
 20
92.052
 11
58.969
 21
92.0591
  0
LINE
  8
0
 10
58.969
 20
92.0591
 11
59.071
 21
92.0591
  0
LINE
  8
0
 10
59.071
 20
92.0591
 11
59.1726
 21
92.052
  0
LINE
  8
0
 10
59.1726
 20
92.052
 11
59.2735
 21
92.0378
  0
LINE
  8
0
 10
59.2735
 20
92.0378
 11
59.3732
 21
92.0166
  0
LINE
  8
0
 10
59.3732
 20
92.0166
 11
59.4712
 21
91.9885
  0
LINE
  8
0
 10
59.4712
 20
91.9885
 11
59.5669
 21
91.9537
  0
LINE
  8
0
 10
59.5669
 20
91.9537
 11
59.66
 21
91.9122
  0
LINE
  8
0
 10
59.66
 20
91.9122
 11
59.75
 21
91.8644
  0
LINE
  8
0
 10
59.75
 20
91.8644
 11
59.8364
 21
91.8104
  0
LINE
  8
0
 10
59.8364
 20
91.8104
 11
59.9189
 21
91.7505
  0
LINE
  8
0
 10
59.9189
 20
91.7505
 11
59.9969
 21
91.685
  0
LINE
  8
0
 10
59.9969
 20
91.685
 11
60.0702
 21
91.6142
  0
LINE
  8
0
 10
60.0702
 20
91.6142
 11
60.1384
 21
91.5385
  0
LINE
  8
0
 10
60.1384
 20
91.5385
 11
60.2012
 21
91.4582
  0
LINE
  8
0
 10
60.2012
 20
91.4582
 11
60.2582
 21
91.3737
  0
LINE
  8
0
 10
60.2582
 20
91.3737
 11
60.3091
 21
91.2854
  0
LINE
  8
0
 10
60.3091
 20
91.2854
 11
60.3538
 21
91.1938
  0
LINE
  8
0
 10
60.3538
 20
91.1938
 11
60.392
 21
91.0993
  0
LINE
  8
0
 10
60.392
 20
91.0993
 11
60.4234
 21
91.0024
  0
LINE
  8
0
 10
60.4234
 20
91.0024
 11
60.4481
 21
90.9036
  0
LINE
  8
0
 10
60.4481
 20
90.9036
 11
60.4658
 21
90.8032
  0
LINE
  8
0
 10
60.4658
 20
90.8032
 11
60.4764
 21
90.7018
  0
LINE
  8
0
 10
60.4764
 20
90.7018
 11
60.48
 21
90.6
  0
LINE
  8
0
 10
60.48
 20
90.6
 11
60.4764
 21
90.4982
  0
LINE
  8
0
 10
60.4764
 20
90.4982
 11
60.4658
 21
90.3968
  0
LINE
  8
0
 10
60.4658
 20
90.3968
 11
60.4481
 21
90.2964
  0
LINE
  8
0
 10
60.4481
 20
90.2964
 11
60.4234
 21
90.1976
  0
LINE
  8
0
 10
60.4234
 20
90.1976
 11
60.392
 21
90.1006
  0
LINE
  8
0
 10
60.392
 20
90.1006
 11
60.3538
 21
90.0062
  0
LINE
  8
0
 10
60.3538
 20
90.0062
 11
60.3091
 21
89.9146
  0
LINE
  8
0
 10
60.3091
 20
89.9146
 11
60.2582
 21
89.8263
  0
LINE
  8
0
 10
60.2582
 20
89.8263
 11
60.2012
 21
89.7418
  0
LINE
  8
0
 10
60.2012
 20
89.7418
 11
60.1384
 21
89.6615
  0
LINE
  8
0
 10
60.1384
 20
89.6615
 11
60.0702
 21
89.5858
  0
LINE
  8
0
 10
60.0702
 20
89.5858
 11
59.9969
 21
89.515
  0
LINE
  8
0
 10
59.9969
 20
89.515
 11
59.9189
 21
89.4495
  0
LINE
  8
0
 10
59.9189
 20
89.4495
 11
59.8364
 21
89.3896
  0
LINE
  8
0
 10
59.8364
 20
89.3896
 11
59.75
 21
89.3356
  0
LINE
  8
0
 10
59.75
 20
89.3356
 11
59.66
 21
89.2878
  0
LINE
  8
0
 10
59.66
 20
89.2878
 11
59.5669
 21
89.2463
  0
LINE
  8
0
 10
59.5669
 20
89.2463
 11
59.4712
 21
89.2115
  0
LINE
  8
0
 10
59.4712
 20
89.2115
 11
59.3732
 21
89.1834
  0
LINE
  8
0
 10
59.3732
 20
89.1834
 11
59.2735
 21
89.1622
  0
LINE
  8
0
 10
59.2735
 20
89.1622
 11
59.1726
 21
89.148
  0
LINE
  8
0
 10
59.1726
 20
89.148
 11
59.071
 21
89.1409
  0
LINE
  8
0
 10
59.071
 20
89.1409
 11
58.969
 21
89.1409
  0
LINE
  8
0
 10
58.969
 20
89.1409
 11
58.8674
 21
89.148
  0
LINE
  8
0
 10
58.8674
 20
89.148
 11
58.7665
 21
89.1622
  0
LINE
  8
0
 10
58.7665
 20
89.1622
 11
58.6668
 21
89.1834
  0
LINE
  8
0
 10
58.6668
 20
89.1834
 11
58.5688
 21
89.2115
  0
LINE
  8
0
 10
58.5688
 20
89.2115
 11
58.4731
 21
89.2463
  0
LINE
  8
0
 10
58.4731
 20
89.2463
 11
58.38
 21
89.2878
  0
LINE
  8
0
 10
58.38
 20
89.2878
 11
58.29
 21
89.3356
  0
LINE
  8
0
 10
58.29
 20
89.3356
 11
58.2036
 21
89.3896
  0
LINE
  8
0
 10
58.2036
 20
89.3896
 11
58.1211
 21
89.4495
  0
LINE
  8
0
 10
58.1211
 20
89.4495
 11
58.0431
 21
89.515
  0
LINE
  8
0
 10
58.0431
 20
89.515
 11
57.9698
 21
89.5858
  0
LINE
  8
0
 10
57.9698
 20
89.5858
 11
57.9016
 21
89.6615
  0
LINE
  8
0
 10
57.9016
 20
89.6615
 11
57.8388
 21
89.7418
  0
LINE
  8
0
 10
57.8388
 20
89.7418
 11
57.7818
 21
89.8263
  0
LINE
  8
0
 10
57.7818
 20
89.8263
 11
57.7309
 21
89.9146
  0
LINE
  8
0
 10
57.7309
 20
89.9146
 11
57.6862
 21
90.0062
  0
LINE
  8
0
 10
57.6862
 20
90.0062
 11
57.648
 21
90.1006
  0
LINE
  8
0
 10
57.648
 20
90.1006
 11
57.6166
 21
90.1976
  0
LINE
  8
0
 10
57.6166
 20
90.1976
 11
57.5919
 21
90.2964
  0
LINE
  8
0
 10
57.5919
 20
90.2964
 11
57.5742
 21
90.3968
  0
LINE
  8
0
 10
57.5742
 20
90.3968
 11
57.5636
 21
90.4982
  0
LINE
  8
0
 10
57.5636
 20
90.4982
 11
57.56
 21
90.6
  0
ENDSEC
  0
SECTION
  2
OBJECTS
  0
DICTIONARY
  0
ENDSEC
  0
EOF
