  0
SECTION
  2
BLOCKS
  0
ENDSEC
  0
SECTION
  2
ENTITIES
  0
LINE
  8
0
 10
-65.43
 20
-97.0173
 11
65.41
 21
-97.0173
  0
LINE
  8
0
 10
65.41
 20
-97.0173
 11
65.44
 21
-97
  0
LINE
  8
0
 10
65.44
 20
-97
 11
65.44
 21
97
  0
LINE
  8
0
 10
65.44
 20
97
 11
65.41
 21
97.0173
  0
LINE
  8
0
 10
65.41
 20
97.0173
 11
-65.43
 21
97.0173
  0
LINE
  8
0
 10
-65.43
 20
97.0173
 11
-65.43
 21
-97.0173
  0
LINE
  8
0
 10
-60.68
 20
-90.6
 11
-60.676
 21
-90.4842
  0
LINE
  8
0
 10
-60.676
 20
-90.4842
 11
-60.6638
 21
-90.369
  0
LINE
  8
0
 10
-60.6638
 20
-90.369
 11
-60.6437
 21
-90.2549
  0
LINE
  8
0
 10
-60.6437
 20
-90.2549
 11
-60.6157
 21
-90.1424
  0
LINE
  8
0
 10
-60.6157
 20
-90.1424
 11
-60.5799
 21
-90.0322
  0
LINE
  8
0
 10
-60.5799
 20
-90.0322
 11
-60.5365
 21
-89.9248
  0
LINE
  8
0
 10
-60.5365
 20
-89.9248
 11
-60.4857
 21
-89.8207
  0
LINE
  8
0
 10
-60.4857
 20
-89.8207
 11
-60.4278
 21
-89.7203
  0
LINE
  8
0
 10
-60.4278
 20
-89.7203
 11
-60.363
 21
-89.6243
  0
LINE
  8
0
 10
-60.363
 20
-89.6243
 11
-60.2916
 21
-89.533
  0
LINE
  8
0
 10
-60.2916
 20
-89.533
 11
-60.2141
 21
-89.4469
  0
LINE
  8
0
 10
-60.2141
 20
-89.4469
 11
-60.1308
 21
-89.3664
  0
LINE
  8
0
 10
-60.1308
 20
-89.3664
 11
-60.042
 21
-89.2919
  0
LINE
  8
0
 10
-60.042
 20
-89.2919
 11
-59.9483
 21
-89.2238
  0
LINE
  8
0
 10
-59.9483
 20
-89.2238
 11
-59.85
 21
-89.1624
  0
LINE
  8
0
 10
-59.85
 20
-89.1624
 11
-59.7477
 21
-89.108
  0
LINE
  8
0
 10
-59.7477
 20
-89.108
 11
-59.6418
 21
-89.0609
  0
LINE
  8
0
 10
-59.6418
 20
-89.0609
 11
-59.533
 21
-89.0212
  0
LINE
  8
0
 10
-59.533
 20
-89.0212
 11
-59.4216
 21
-88.9893
  0
LINE
  8
0
 10
-59.4216
 20
-88.9893
 11
-59.3083
 21
-88.9652
  0
LINE
  8
0
 10
-59.3083
 20
-88.9652
 11
-59.1935
 21
-88.9491
  0
LINE
  8
0
 10
-59.1935
 20
-88.9491
 11
-59.0779
 21
-88.941
  0
LINE
  8
0
 10
-59.0779
 20
-88.941
 11
-58.9621
 21
-88.941
  0
LINE
  8
0
 10
-58.9621
 20
-88.941
 11
-58.8465
 21
-88.9491
  0
LINE
  8
0
 10
-58.8465
 20
-88.9491
 11
-58.7317
 21
-88.9652
  0
LINE
  8
0
 10
-58.7317
 20
-88.9652
 11
-58.6184
 21
-88.9893
  0
LINE
  8
0
 10
-58.6184
 20
-88.9893
 11
-58.507
 21
-89.0212
  0
LINE
  8
0
 10
-58.507
 20
-89.0212
 11
-58.3982
 21
-89.0609
  0
LINE
  8
0
 10
-58.3982
 20
-89.0609
 11
-58.2923
 21
-89.108
  0
LINE
  8
0
 10
-58.2923
 20
-89.108
 11
-58.19
 21
-89.1624
  0
LINE
  8
0
 10
-58.19
 20
-89.1624
 11
-58.0917
 21
-89.2238
  0
LINE
  8
0
 10
-58.0917
 20
-89.2238
 11
-57.998
 21
-89.2919
  0
LINE
  8
0
 10
-57.998
 20
-89.2919
 11
-57.9092
 21
-89.3664
  0
LINE
  8
0
 10
-57.9092
 20
-89.3664
 11
-57.8259
 21
-89.4469
  0
LINE
  8
0
 10
-57.8259
 20
-89.4469
 11
-57.7484
 21
-89.533
  0
LINE
  8
0
 10
-57.7484
 20
-89.533
 11
-57.677
 21
-89.6243
  0
LINE
  8
0
 10
-57.677
 20
-89.6243
 11
-57.6122
 21
-89.7203
  0
LINE
  8
0
 10
-57.6122
 20
-89.7203
 11
-57.5543
 21
-89.8207
  0
LINE
  8
0
 10
-57.5543
 20
-89.8207
 11
-57.5035
 21
-89.9248
  0
LINE
  8
0
 10
-57.5035
 20
-89.9248
 11
-57.4601
 21
-90.0322
  0
LINE
  8
0
 10
-57.4601
 20
-90.0322
 11
-57.4243
 21
-90.1424
  0
LINE
  8
0
 10
-57.4243
 20
-90.1424
 11
-57.3963
 21
-90.2549
  0
LINE
  8
0
 10
-57.3963
 20
-90.2549
 11
-57.3762
 21
-90.369
  0
LINE
  8
0
 10
-57.3762
 20
-90.369
 11
-57.364
 21
-90.4842
  0
LINE
  8
0
 10
-57.364
 20
-90.4842
 11
-57.36
 21
-90.6
  0
LINE
  8
0
 10
-57.36
 20
-90.6
 11
-57.364
 21
-90.7158
  0
LINE
  8
0
 10
-57.364
 20
-90.7158
 11
-57.3762
 21
-90.831
  0
LINE
  8
0
 10
-57.3762
 20
-90.831
 11
-57.3963
 21
-90.9451
  0
LINE
  8
0
 10
-57.3963
 20
-90.9451
 11
-57.4243
 21
-91.0576
  0
LINE
  8
0
 10
-57.4243
 20
-91.0576
 11
-57.4601
 21
-91.1678
  0
LINE
  8
0
 10
-57.4601
 20
-91.1678
 11
-57.5035
 21
-91.2752
  0
LINE
  8
0
 10
-57.5035
 20
-91.2752
 11
-57.5543
 21
-91.3793
  0
LINE
  8
0
 10
-57.5543
 20
-91.3793
 11
-57.6122
 21
-91.4797
  0
LINE
  8
0
 10
-57.6122
 20
-91.4797
 11
-57.677
 21
-91.5757
  0
LINE
  8
0
 10
-57.677
 20
-91.5757
 11
-57.7484
 21
-91.667
  0
LINE
  8
0
 10
-57.7484
 20
-91.667
 11
-57.8259
 21
-91.7531
  0
LINE
  8
0
 10
-57.8259
 20
-91.7531
 11
-57.9092
 21
-91.8336
  0
LINE
  8
0
 10
-57.9092
 20
-91.8336
 11
-57.998
 21
-91.9081
  0
LINE
  8
0
 10
-57.998
 20
-91.9081
 11
-58.0917
 21
-91.9762
  0
LINE
  8
0
 10
-58.0917
 20
-91.9762
 11
-58.19
 21
-92.0376
  0
LINE
  8
0
 10
-58.19
 20
-92.0376
 11
-58.2923
 21
-92.092
  0
LINE
  8
0
 10
-58.2923
 20
-92.092
 11
-58.3982
 21
-92.1391
  0
LINE
  8
0
 10
-58.3982
 20
-92.1391
 11
-58.507
 21
-92.1788
  0
LINE
  8
0
 10
-58.507
 20
-92.1788
 11
-58.6184
 21
-92.2107
  0
LINE
  8
0
 10
-58.6184
 20
-92.2107
 11
-58.7317
 21
-92.2348
  0
LINE
  8
0
 10
-58.7317
 20
-92.2348
 11
-58.8465
 21
-92.2509
  0
LINE
  8
0
 10
-58.8465
 20
-92.2509
 11
-58.9621
 21
-92.259
  0
LINE
  8
0
 10
-58.9621
 20
-92.259
 11
-59.0779
 21
-92.259
  0
LINE
  8
0
 10
-59.0779
 20
-92.259
 11
-59.1935
 21
-92.2509
  0
LINE
  8
0
 10
-59.1935
 20
-92.2509
 11
-59.3083
 21
-92.2348
  0
LINE
  8
0
 10
-59.3083
 20
-92.2348
 11
-59.4216
 21
-92.2107
  0
LINE
  8
0
 10
-59.4216
 20
-92.2107
 11
-59.533
 21
-92.1788
  0
LINE
  8
0
 10
-59.533
 20
-92.1788
 11
-59.6418
 21
-92.1391
  0
LINE
  8
0
 10
-59.6418
 20
-92.1391
 11
-59.7477
 21
-92.092
  0
LINE
  8
0
 10
-59.7477
 20
-92.092
 11
-59.85
 21
-92.0376
  0
LINE
  8
0
 10
-59.85
 20
-92.0376
 11
-59.9483
 21
-91.9762
  0
LINE
  8
0
 10
-59.9483
 20
-91.9762
 11
-60.042
 21
-91.9081
  0
LINE
  8
0
 10
-60.042
 20
-91.9081
 11
-60.1308
 21
-91.8336
  0
LINE
  8
0
 10
-60.1308
 20
-91.8336
 11
-60.2141
 21
-91.7531
  0
LINE
  8
0
 10
-60.2141
 20
-91.7531
 11
-60.2916
 21
-91.667
  0
LINE
  8
0
 10
-60.2916
 20
-91.667
 11
-60.363
 21
-91.5757
  0
LINE
  8
0
 10
-60.363
 20
-91.5757
 11
-60.4278
 21
-91.4797
  0
LINE
  8
0
 10
-60.4278
 20
-91.4797
 11
-60.4857
 21
-91.3793
  0
LINE
  8
0
 10
-60.4857
 20
-91.3793
 11
-60.5365
 21
-91.2752
  0
LINE
  8
0
 10
-60.5365
 20
-91.2752
 11
-60.5799
 21
-91.1678
  0
LINE
  8
0
 10
-60.5799
 20
-91.1678
 11
-60.6157
 21
-91.0576
  0
LINE
  8
0
 10
-60.6157
 20
-91.0576
 11
-60.6437
 21
-90.9451
  0
LINE
  8
0
 10
-60.6437
 20
-90.9451
 11
-60.6638
 21
-90.831
  0
LINE
  8
0
 10
-60.6638
 20
-90.831
 11
-60.676
 21
-90.7158
  0
LINE
  8
0
 10
-60.676
 20
-90.7158
 11
-60.68
 21
-90.6
  0
LINE
  8
0
 10
-60.68
 20
90.6
 11
-60.676
 21
90.7158
  0
LINE
  8
0
 10
-60.676
 20
90.7158
 11
-60.6638
 21
90.831
  0
LINE
  8
0
 10
-60.6638
 20
90.831
 11
-60.6437
 21
90.9451
  0
LINE
  8
0
 10
-60.6437
 20
90.9451
 11
-60.6157
 21
91.0576
  0
LINE
  8
0
 10
-60.6157
 20
91.0576
 11
-60.5799
 21
91.1678
  0
LINE
  8
0
 10
-60.5799
 20
91.1678
 11
-60.5365
 21
91.2752
  0
LINE
  8
0
 10
-60.5365
 20
91.2752
 11
-60.4857
 21
91.3793
  0
LINE
  8
0
 10
-60.4857
 20
91.3793
 11
-60.4278
 21
91.4797
  0
LINE
  8
0
 10
-60.4278
 20
91.4797
 11
-60.363
 21
91.5757
  0
LINE
  8
0
 10
-60.363
 20
91.5757
 11
-60.2916
 21
91.667
  0
LINE
  8
0
 10
-60.2916
 20
91.667
 11
-60.2141
 21
91.7531
  0
LINE
  8
0
 10
-60.2141
 20
91.7531
 11
-60.1308
 21
91.8336
  0
LINE
  8
0
 10
-60.1308
 20
91.8336
 11
-60.042
 21
91.9081
  0
LINE
  8
0
 10
-60.042
 20
91.9081
 11
-59.9483
 21
91.9762
  0
LINE
  8
0
 10
-59.9483
 20
91.9762
 11
-59.85
 21
92.0376
  0
LINE
  8
0
 10
-59.85
 20
92.0376
 11
-59.7477
 21
92.092
  0
LINE
  8
0
 10
-59.7477
 20
92.092
 11
-59.6418
 21
92.1391
  0
LINE
  8
0
 10
-59.6418
 20
92.1391
 11
-59.533
 21
92.1788
  0
LINE
  8
0
 10
-59.533
 20
92.1788
 11
-59.4216
 21
92.2107
  0
LINE
  8
0
 10
-59.4216
 20
92.2107
 11
-59.3083
 21
92.2348
  0
LINE
  8
0
 10
-59.3083
 20
92.2348
 11
-59.1935
 21
92.2509
  0
LINE
  8
0
 10
-59.1935
 20
92.2509
 11
-59.0779
 21
92.259
  0
LINE
  8
0
 10
-59.0779
 20
92.259
 11
-58.9621
 21
92.259
  0
LINE
  8
0
 10
-58.9621
 20
92.259
 11
-58.8465
 21
92.2509
  0
LINE
  8
0
 10
-58.8465
 20
92.2509
 11
-58.7317
 21
92.2348
  0
LINE
  8
0
 10
-58.7317
 20
92.2348
 11
-58.6184
 21
92.2107
  0
LINE
  8
0
 10
-58.6184
 20
92.2107
 11
-58.507
 21
92.1788
  0
LINE
  8
0
 10
-58.507
 20
92.1788
 11
-58.3982
 21
92.1391
  0
LINE
  8
0
 10
-58.3982
 20
92.1391
 11
-58.2923
 21
92.092
  0
LINE
  8
0
 10
-58.2923
 20
92.092
 11
-58.19
 21
92.0376
  0
LINE
  8
0
 10
-58.19
 20
92.0376
 11
-58.0917
 21
91.9762
  0
LINE
  8
0
 10
-58.0917
 20
91.9762
 11
-57.998
 21
91.9081
  0
LINE
  8
0
 10
-57.998
 20
91.9081
 11
-57.9092
 21
91.8336
  0
LINE
  8
0
 10
-57.9092
 20
91.8336
 11
-57.8259
 21
91.7531
  0
LINE
  8
0
 10
-57.8259
 20
91.7531
 11
-57.7484
 21
91.667
  0
LINE
  8
0
 10
-57.7484
 20
91.667
 11
-57.677
 21
91.5757
  0
LINE
  8
0
 10
-57.677
 20
91.5757
 11
-57.6122
 21
91.4797
  0
LINE
  8
0
 10
-57.6122
 20
91.4797
 11
-57.5543
 21
91.3793
  0
LINE
  8
0
 10
-57.5543
 20
91.3793
 11
-57.5035
 21
91.2752
  0
LINE
  8
0
 10
-57.5035
 20
91.2752
 11
-57.4601
 21
91.1678
  0
LINE
  8
0
 10
-57.4601
 20
91.1678
 11
-57.4243
 21
91.0576
  0
LINE
  8
0
 10
-57.4243
 20
91.0576
 11
-57.3963
 21
90.9451
  0
LINE
  8
0
 10
-57.3963
 20
90.9451
 11
-57.3762
 21
90.831
  0
LINE
  8
0
 10
-57.3762
 20
90.831
 11
-57.364
 21
90.7158
  0
LINE
  8
0
 10
-57.364
 20
90.7158
 11
-57.36
 21
90.6
  0
LINE
  8
0
 10
-57.36
 20
90.6
 11
-57.364
 21
90.4842
  0
LINE
  8
0
 10
-57.364
 20
90.4842
 11
-57.3762
 21
90.369
  0
LINE
  8
0
 10
-57.3762
 20
90.369
 11
-57.3963
 21
90.2549
  0
LINE
  8
0
 10
-57.3963
 20
90.2549
 11
-57.4243
 21
90.1424
  0
LINE
  8
0
 10
-57.4243
 20
90.1424
 11
-57.4601
 21
90.0322
  0
LINE
  8
0
 10
-57.4601
 20
90.0322
 11
-57.5035
 21
89.9248
  0
LINE
  8
0
 10
-57.5035
 20
89.9248
 11
-57.5543
 21
89.8207
  0
LINE
  8
0
 10
-57.5543
 20
89.8207
 11
-57.6122
 21
89.7203
  0
LINE
  8
0
 10
-57.6122
 20
89.7203
 11
-57.677
 21
89.6243
  0
LINE
  8
0
 10
-57.677
 20
89.6243
 11
-57.7484
 21
89.533
  0
LINE
  8
0
 10
-57.7484
 20
89.533
 11
-57.8259
 21
89.4469
  0
LINE
  8
0
 10
-57.8259
 20
89.4469
 11
-57.9092
 21
89.3664
  0
LINE
  8
0
 10
-57.9092
 20
89.3664
 11
-57.998
 21
89.2919
  0
LINE
  8
0
 10
-57.998
 20
89.2919
 11
-58.0917
 21
89.2238
  0
LINE
  8
0
 10
-58.0917
 20
89.2238
 11
-58.19
 21
89.1624
  0
LINE
  8
0
 10
-58.19
 20
89.1624
 11
-58.2923
 21
89.108
  0
LINE
  8
0
 10
-58.2923
 20
89.108
 11
-58.3982
 21
89.0609
  0
LINE
  8
0
 10
-58.3982
 20
89.0609
 11
-58.507
 21
89.0212
  0
LINE
  8
0
 10
-58.507
 20
89.0212
 11
-58.6184
 21
88.9893
  0
LINE
  8
0
 10
-58.6184
 20
88.9893
 11
-58.7317
 21
88.9652
  0
LINE
  8
0
 10
-58.7317
 20
88.9652
 11
-58.8465
 21
88.9491
  0
LINE
  8
0
 10
-58.8465
 20
88.9491
 11
-58.9621
 21
88.941
  0
LINE
  8
0
 10
-58.9621
 20
88.941
 11
-59.0779
 21
88.941
  0
LINE
  8
0
 10
-59.0779
 20
88.941
 11
-59.1935
 21
88.9491
  0
LINE
  8
0
 10
-59.1935
 20
88.9491
 11
-59.3083
 21
88.9652
  0
LINE
  8
0
 10
-59.3083
 20
88.9652
 11
-59.4216
 21
88.9893
  0
LINE
  8
0
 10
-59.4216
 20
88.9893
 11
-59.533
 21
89.0212
  0
LINE
  8
0
 10
-59.533
 20
89.0212
 11
-59.6418
 21
89.0609
  0
LINE
  8
0
 10
-59.6418
 20
89.0609
 11
-59.7477
 21
89.108
  0
LINE
  8
0
 10
-59.7477
 20
89.108
 11
-59.85
 21
89.1624
  0
LINE
  8
0
 10
-59.85
 20
89.1624
 11
-59.9483
 21
89.2238
  0
LINE
  8
0
 10
-59.9483
 20
89.2238
 11
-60.042
 21
89.2919
  0
LINE
  8
0
 10
-60.042
 20
89.2919
 11
-60.1308
 21
89.3664
  0
LINE
  8
0
 10
-60.1308
 20
89.3664
 11
-60.2141
 21
89.4469
  0
LINE
  8
0
 10
-60.2141
 20
89.4469
 11
-60.2916
 21
89.533
  0
LINE
  8
0
 10
-60.2916
 20
89.533
 11
-60.363
 21
89.6243
  0
LINE
  8
0
 10
-60.363
 20
89.6243
 11
-60.4278
 21
89.7203
  0
LINE
  8
0
 10
-60.4278
 20
89.7203
 11
-60.4857
 21
89.8207
  0
LINE
  8
0
 10
-60.4857
 20
89.8207
 11
-60.5365
 21
89.9248
  0
LINE
  8
0
 10
-60.5365
 20
89.9248
 11
-60.5799
 21
90.0322
  0
LINE
  8
0
 10
-60.5799
 20
90.0322
 11
-60.6157
 21
90.1424
  0
LINE
  8
0
 10
-60.6157
 20
90.1424
 11
-60.6437
 21
90.2549
  0
LINE
  8
0
 10
-60.6437
 20
90.2549
 11
-60.6638
 21
90.369
  0
LINE
  8
0
 10
-60.6638
 20
90.369
 11
-60.676
 21
90.4842
  0
LINE
  8
0
 10
-60.676
 20
90.4842
 11
-60.68
 21
90.6
  0
LINE
  8
0
 10
-55.0833
 20
-23.0833
 11
-55.0833
 21
22.9167
  0
LINE
  8
0
 10
-55.0833
 20
22.9167
 11
-55.076
 21
23.1259
  0
LINE
  8
0
 10
-55.076
 20
23.1259
 11
-55.0541
 21
23.3342
  0
LINE
  8
0
 10
-55.0541
 20
23.3342
 11
-55.0178
 21
23.5404
  0
LINE
  8
0
 10
-55.0178
 20
23.5404
 11
-54.9671
 21
23.7436
  0
LINE
  8
0
 10
-54.9671
 20
23.7436
 11
-54.9024
 21
23.9427
  0
LINE
  8
0
 10
-54.9024
 20
23.9427
 11
-54.824
 21
24.1369
  0
LINE
  8
0
 10
-54.824
 20
24.1369
 11
-54.7322
 21
24.3251
  0
LINE
  8
0
 10
-54.7322
 20
24.3251
 11
-54.6275
 21
24.5064
  0
LINE
  8
0
 10
-54.6275
 20
24.5064
 11
-54.5104
 21
24.68
  0
LINE
  8
0
 10
-54.5104
 20
24.68
 11
-54.3815
 21
24.845
  0
LINE
  8
0
 10
-54.3815
 20
24.845
 11
-54.2414
 21
25.0006
  0
LINE
  8
0
 10
-54.2414
 20
25.0006
 11
-54.0907
 21
25.1461
  0
LINE
  8
0
 10
-54.0907
 20
25.1461
 11
-53.9303
 21
25.2807
  0
LINE
  8
0
 10
-53.9303
 20
25.2807
 11
-53.7609
 21
25.4038
  0
LINE
  8
0
 10
-53.7609
 20
25.4038
 11
-53.5833
 21
25.5147
  0
LINE
  8
0
 10
-53.5833
 20
25.5147
 11
-53.3984
 21
25.613
  0
LINE
  8
0
 10
-53.3984
 20
25.613
 11
-53.2072
 21
25.6982
  0
LINE
  8
0
 10
-53.2072
 20
25.6982
 11
-53.0104
 21
25.7698
  0
LINE
  8
0
 10
-53.0104
 20
25.7698
 11
-52.8091
 21
25.8276
  0
LINE
  8
0
 10
-52.8091
 20
25.8276
 11
-52.6043
 21
25.8711
  0
LINE
  8
0
 10
-52.6043
 20
25.8711
 11
-52.3969
 21
25.9002
  0
LINE
  8
0
 10
-52.3969
 20
25.9002
 11
-52.188
 21
25.9148
  0
LINE
  8
0
 10
-52.188
 20
25.9148
 11
-29.0833
 21
25.9148
  0
LINE
  8
0
 10
-29.0833
 20
25.9148
 11
-29.0833
 21
26.9167
  0
LINE
  8
0
 10
-29.0833
 20
26.9167
 11
-29.076
 21
27.1259
  0
LINE
  8
0
 10
-29.076
 20
27.1259
 11
-29.0541
 21
27.3342
  0
LINE
  8
0
 10
-29.0541
 20
27.3342
 11
-29.0178
 21
27.5404
  0
LINE
  8
0
 10
-29.0178
 20
27.5404
 11
-28.9671
 21
27.7436
  0
LINE
  8
0
 10
-28.9671
 20
27.7436
 11
-28.9024
 21
27.9427
  0
LINE
  8
0
 10
-28.9024
 20
27.9427
 11
-28.824
 21
28.1369
  0
LINE
  8
0
 10
-28.824
 20
28.1369
 11
-28.7322
 21
28.3251
  0
LINE
  8
0
 10
-28.7322
 20
28.3251
 11
-28.6275
 21
28.5064
  0
LINE
  8
0
 10
-28.6275
 20
28.5064
 11
-28.5104
 21
28.68
  0
LINE
  8
0
 10
-28.5104
 20
28.68
 11
-28.3815
 21
28.845
  0
LINE
  8
0
 10
-28.3815
 20
28.845
 11
-28.2414
 21
29.0006
  0
LINE
  8
0
 10
-28.2414
 20
29.0006
 11
-28.0907
 21
29.1461
  0
LINE
  8
0
 10
-28.0907
 20
29.1461
 11
-27.9303
 21
29.2807
  0
LINE
  8
0
 10
-27.9303
 20
29.2807
 11
-27.7609
 21
29.4038
  0
LINE
  8
0
 10
-27.7609
 20
29.4038
 11
-27.5833
 21
29.5147
  0
LINE
  8
0
 10
-27.5833
 20
29.5147
 11
-27.3984
 21
29.613
  0
LINE
  8
0
 10
-27.3984
 20
29.613
 11
-27.2072
 21
29.6982
  0
LINE
  8
0
 10
-27.2072
 20
29.6982
 11
-27.0104
 21
29.7698
  0
LINE
  8
0
 10
-27.0104
 20
29.7698
 11
-26.8091
 21
29.8276
  0
LINE
  8
0
 10
-26.8091
 20
29.8276
 11
-26.6043
 21
29.8711
  0
LINE
  8
0
 10
-26.6043
 20
29.8711
 11
-26.3969
 21
29.9002
  0
LINE
  8
0
 10
-26.3969
 20
29.9002
 11
-26.188
 21
29.9148
  0
LINE
  8
0
 10
-26.188
 20
29.9148
 11
-24.3009
 21
29.9148
  0
LINE
  8
0
 10
-24.3009
 20
29.9148
 11
-24.2917
 21
29.9167
  0
LINE
  8
0
 10
-24.2917
 20
29.9167
 11
30.2917
 21
29.9167
  0
LINE
  8
0
 10
30.2917
 20
29.9167
 11
30.3009
 21
29.9148
  0
LINE
  8
0
 10
30.3009
 20
29.9148
 11
34.0214
 21
29.9148
  0
LINE
  8
0
 10
34.0214
 20
29.9148
 11
34.2303
 21
29.9002
  0
LINE
  8
0
 10
34.2303
 20
29.9002
 11
34.4376
 21
29.8711
  0
LINE
  8
0
 10
34.4376
 20
29.8711
 11
34.6424
 21
29.8276
  0
LINE
  8
0
 10
34.6424
 20
29.8276
 11
34.8437
 21
29.7698
  0
LINE
  8
0
 10
34.8437
 20
29.7698
 11
35.0405
 21
29.6982
  0
LINE
  8
0
 10
35.0405
 20
29.6982
 11
35.2318
 21
29.613
  0
LINE
  8
0
 10
35.2318
 20
29.613
 11
35.4167
 21
29.5147
  0
LINE
  8
0
 10
35.4167
 20
29.5147
 11
35.5942
 21
29.4038
  0
LINE
  8
0
 10
35.5942
 20
29.4038
 11
35.7637
 21
29.2807
  0
LINE
  8
0
 10
35.7637
 20
29.2807
 11
35.9241
 21
29.1461
  0
LINE
  8
0
 10
35.9241
 20
29.1461
 11
36.0747
 21
29.0006
  0
LINE
  8
0
 10
36.0747
 20
29.0006
 11
36.2148
 21
28.845
  0
LINE
  8
0
 10
36.2148
 20
28.845
 11
36.3437
 21
28.68
  0
LINE
  8
0
 10
36.3437
 20
28.68
 11
36.4608
 21
28.5064
  0
LINE
  8
0
 10
36.4608
 20
28.5064
 11
36.5655
 21
28.3251
  0
LINE
  8
0
 10
36.5655
 20
28.3251
 11
36.6573
 21
28.1369
  0
LINE
  8
0
 10
36.6573
 20
28.1369
 11
36.7357
 21
27.9427
  0
LINE
  8
0
 10
36.7357
 20
27.9427
 11
36.8005
 21
27.7436
  0
LINE
  8
0
 10
36.8005
 20
27.7436
 11
36.8511
 21
27.5404
  0
LINE
  8
0
 10
36.8511
 20
27.5404
 11
36.8875
 21
27.3342
  0
LINE
  8
0
 10
36.8875
 20
27.3342
 11
36.9094
 21
27.1259
  0
LINE
  8
0
 10
36.9094
 20
27.1259
 11
36.9167
 21
26.9167
  0
LINE
  8
0
 10
36.9167
 20
26.9167
 11
36.9167
 21
-43.0833
  0
LINE
  8
0
 10
36.9167
 20
-43.0833
 11
36.9094
 21
-43.2926
  0
LINE
  8
0
 10
36.9094
 20
-43.2926
 11
36.8875
 21
-43.5009
  0
LINE
  8
0
 10
36.8875
 20
-43.5009
 11
36.8511
 21
-43.7071
  0
LINE
  8
0
 10
36.8511
 20
-43.7071
 11
36.8005
 21
-43.9102
  0
LINE
  8
0
 10
36.8005
 20
-43.9102
 11
36.7357
 21
-44.1094
  0
LINE
  8
0
 10
36.7357
 20
-44.1094
 11
36.6573
 21
-44.3035
  0
LINE
  8
0
 10
36.6573
 20
-44.3035
 11
36.5655
 21
-44.4917
  0
LINE
  8
0
 10
36.5655
 20
-44.4917
 11
36.4608
 21
-44.6731
  0
LINE
  8
0
 10
36.4608
 20
-44.6731
 11
36.3437
 21
-44.8467
  0
LINE
  8
0
 10
36.3437
 20
-44.8467
 11
36.2148
 21
-45.0117
  0
LINE
  8
0
 10
36.2148
 20
-45.0117
 11
36.0747
 21
-45.1673
  0
LINE
  8
0
 10
36.0747
 20
-45.1673
 11
35.9241
 21
-45.3128
  0
LINE
  8
0
 10
35.9241
 20
-45.3128
 11
35.7637
 21
-45.4474
  0
LINE
  8
0
 10
35.7637
 20
-45.4474
 11
35.5942
 21
-45.5704
  0
LINE
  8
0
 10
35.5942
 20
-45.5704
 11
35.4167
 21
-45.6814
  0
LINE
  8
0
 10
35.4167
 20
-45.6814
 11
35.2318
 21
-45.7797
  0
LINE
  8
0
 10
35.2318
 20
-45.7797
 11
35.0405
 21
-45.8649
  0
LINE
  8
0
 10
35.0405
 20
-45.8649
 11
34.8437
 21
-45.9365
  0
LINE
  8
0
 10
34.8437
 20
-45.9365
 11
34.6424
 21
-45.9942
  0
LINE
  8
0
 10
34.6424
 20
-45.9942
 11
34.4376
 21
-46.0378
  0
LINE
  8
0
 10
34.4376
 20
-46.0378
 11
34.2303
 21
-46.0669
  0
LINE
  8
0
 10
34.2303
 20
-46.0669
 11
34.0214
 21
-46.0815
  0
LINE
  8
0
 10
34.0214
 20
-46.0815
 11
33.2917
 21
-46.0815
  0
LINE
  8
0
 10
33.2917
 20
-46.0815
 11
33.2917
 21
-57.915
  0
LINE
  8
0
 10
33.2917
 20
-57.915
 11
38
 21
-57.915
  0
LINE
  8
0
 10
38
 20
-57.915
 11
38
 21
-71.085
  0
LINE
  8
0
 10
38
 20
-71.085
 11
29
 21
-71.085
  0
LINE
  8
0
 10
29
 20
-71.085
 11
29
 21
-62.9167
  0
LINE
  8
0
 10
29
 20
-62.9167
 11
-24.2917
 21
-62.9167
  0
LINE
  8
0
 10
-24.2917
 20
-62.9167
 11
-25.4397
 21
-62.6883
  0
LINE
  8
0
 10
-25.4397
 20
-62.6883
 11
-26.413
 21
-62.038
  0
LINE
  8
0
 10
-26.413
 20
-62.038
 11
-27.0633
 21
-61.0647
  0
LINE
  8
0
 10
-27.0633
 20
-61.0647
 11
-27.2917
 21
-59.9167
  0
LINE
  8
0
 10
-27.2917
 20
-59.9167
 11
-27.2917
 21
-45.8273
  0
LINE
  8
0
 10
-27.2917
 20
-45.8273
 11
-27.3984
 21
-45.7797
  0
LINE
  8
0
 10
-27.3984
 20
-45.7797
 11
-27.5833
 21
-45.6814
  0
LINE
  8
0
 10
-27.5833
 20
-45.6814
 11
-27.7609
 21
-45.5704
  0
LINE
  8
0
 10
-27.7609
 20
-45.5704
 11
-27.9303
 21
-45.4474
  0
LINE
  8
0
 10
-27.9303
 20
-45.4474
 11
-28.0907
 21
-45.3128
  0
LINE
  8
0
 10
-28.0907
 20
-45.3128
 11
-28.2414
 21
-45.1673
  0
LINE
  8
0
 10
-28.2414
 20
-45.1673
 11
-28.3815
 21
-45.0117
  0
LINE
  8
0
 10
-28.3815
 20
-45.0117
 11
-28.5104
 21
-44.8467
  0
LINE
  8
0
 10
-28.5104
 20
-44.8467
 11
-28.6275
 21
-44.6731
  0
LINE
  8
0
 10
-28.6275
 20
-44.6731
 11
-28.7322
 21
-44.4917
  0
LINE
  8
0
 10
-28.7322
 20
-44.4917
 11
-28.824
 21
-44.3035
  0
LINE
  8
0
 10
-28.824
 20
-44.3035
 11
-28.9024
 21
-44.1094
  0
LINE
  8
0
 10
-28.9024
 20
-44.1094
 11
-28.9671
 21
-43.9102
  0
LINE
  8
0
 10
-28.9671
 20
-43.9102
 11
-29.0178
 21
-43.7071
  0
LINE
  8
0
 10
-29.0178
 20
-43.7071
 11
-29.0541
 21
-43.5009
  0
LINE
  8
0
 10
-29.0541
 20
-43.5009
 11
-29.076
 21
-43.2926
  0
LINE
  8
0
 10
-29.076
 20
-43.2926
 11
-29.0833
 21
-43.0833
  0
LINE
  8
0
 10
-29.0833
 20
-43.0833
 11
-29.0833
 21
-26.0815
  0
LINE
  8
0
 10
-29.0833
 20
-26.0815
 11
-52.188
 21
-26.0815
  0
LINE
  8
0
 10
-52.188
 20
-26.0815
 11
-52.3969
 21
-26.0669
  0
LINE
  8
0
 10
-52.3969
 20
-26.0669
 11
-52.6043
 21
-26.0378
  0
LINE
  8
0
 10
-52.6043
 20
-26.0378
 11
-52.8091
 21
-25.9942
  0
LINE
  8
0
 10
-52.8091
 20
-25.9942
 11
-53.0104
 21
-25.9365
  0
LINE
  8
0
 10
-53.0104
 20
-25.9365
 11
-53.2072
 21
-25.8649
  0
LINE
  8
0
 10
-53.2072
 20
-25.8649
 11
-53.3984
 21
-25.7797
  0
LINE
  8
0
 10
-53.3984
 20
-25.7797
 11
-53.5833
 21
-25.6814
  0
LINE
  8
0
 10
-53.5833
 20
-25.6814
 11
-53.7609
 21
-25.5704
  0
LINE
  8
0
 10
-53.7609
 20
-25.5704
 11
-53.9303
 21
-25.4474
  0
LINE
  8
0
 10
-53.9303
 20
-25.4474
 11
-54.0907
 21
-25.3128
  0
LINE
  8
0
 10
-54.0907
 20
-25.3128
 11
-54.2414
 21
-25.1673
  0
LINE
  8
0
 10
-54.2414
 20
-25.1673
 11
-54.3815
 21
-25.0117
  0
LINE
  8
0
 10
-54.3815
 20
-25.0117
 11
-54.5104
 21
-24.8467
  0
LINE
  8
0
 10
-54.5104
 20
-24.8467
 11
-54.6275
 21
-24.6731
  0
LINE
  8
0
 10
-54.6275
 20
-24.6731
 11
-54.7322
 21
-24.4917
  0
LINE
  8
0
 10
-54.7322
 20
-24.4917
 11
-54.824
 21
-24.3035
  0
LINE
  8
0
 10
-54.824
 20
-24.3035
 11
-54.9024
 21
-24.1094
  0
LINE
  8
0
 10
-54.9024
 20
-24.1094
 11
-54.9671
 21
-23.9102
  0
LINE
  8
0
 10
-54.9671
 20
-23.9102
 11
-55.0178
 21
-23.7071
  0
LINE
  8
0
 10
-55.0178
 20
-23.7071
 11
-55.0541
 21
-23.5009
  0
LINE
  8
0
 10
-55.0541
 20
-23.5009
 11
-55.076
 21
-23.2926
  0
LINE
  8
0
 10
-55.076
 20
-23.2926
 11
-55.0833
 21
-23.0833
  0
LINE
  8
0
 10
-37
 20
-71.085
 11
-37
 21
-57.915
  0
LINE
  8
0
 10
-37
 20
-57.915
 11
-28
 21
-57.915
  0
LINE
  8
0
 10
-28
 20
-57.915
 11
-28
 21
-71.085
  0
LINE
  8
0
 10
-28
 20
-71.085
 11
-37
 21
-71.085
  0
LINE
  8
0
 10
-37
 20
54.915
 11
-37
 21
68.085
  0
LINE
  8
0
 10
-37
 20
68.085
 11
-28
 21
68.085
  0
LINE
  8
0
 10
-28
 20
68.085
 11
-28
 21
54.915
  0
LINE
  8
0
 10
-28
 20
54.915
 11
-37
 21
54.915
  0
LINE
  8
0
 10
29
 20
54.915
 11
29
 21
68.085
  0
LINE
  8
0
 10
29
 20
68.085
 11
38
 21
68.085
  0
LINE
  8
0
 10
38
 20
68.085
 11
38
 21
54.915
  0
LINE
  8
0
 10
38
 20
54.915
 11
29
 21
54.915
  0
LINE
  8
0
 10
57.36
 20
-90.6
 11
57.364
 21
-90.4842
  0
LINE
  8
0
 10
57.364
 20
-90.4842
 11
57.3762
 21
-90.369
  0
LINE
  8
0
 10
57.3762
 20
-90.369
 11
57.3963
 21
-90.2549
  0
LINE
  8
0
 10
57.3963
 20
-90.2549
 11
57.4243
 21
-90.1424
  0
LINE
  8
0
 10
57.4243
 20
-90.1424
 11
57.4601
 21
-90.0322
  0
LINE
  8
0
 10
57.4601
 20
-90.0322
 11
57.5035
 21
-89.9248
  0
LINE
  8
0
 10
57.5035
 20
-89.9248
 11
57.5543
 21
-89.8207
  0
LINE
  8
0
 10
57.5543
 20
-89.8207
 11
57.6122
 21
-89.7203
  0
LINE
  8
0
 10
57.6122
 20
-89.7203
 11
57.677
 21
-89.6243
  0
LINE
  8
0
 10
57.677
 20
-89.6243
 11
57.7484
 21
-89.533
  0
LINE
  8
0
 10
57.7484
 20
-89.533
 11
57.8259
 21
-89.4469
  0
LINE
  8
0
 10
57.8259
 20
-89.4469
 11
57.9092
 21
-89.3664
  0
LINE
  8
0
 10
57.9092
 20
-89.3664
 11
57.998
 21
-89.2919
  0
LINE
  8
0
 10
57.998
 20
-89.2919
 11
58.0917
 21
-89.2238
  0
LINE
  8
0
 10
58.0917
 20
-89.2238
 11
58.19
 21
-89.1624
  0
LINE
  8
0
 10
58.19
 20
-89.1624
 11
58.2923
 21
-89.108
  0
LINE
  8
0
 10
58.2923
 20
-89.108
 11
58.3982
 21
-89.0609
  0
LINE
  8
0
 10
58.3982
 20
-89.0609
 11
58.507
 21
-89.0212
  0
LINE
  8
0
 10
58.507
 20
-89.0212
 11
58.6184
 21
-88.9893
  0
LINE
  8
0
 10
58.6184
 20
-88.9893
 11
58.7317
 21
-88.9652
  0
LINE
  8
0
 10
58.7317
 20
-88.9652
 11
58.8465
 21
-88.9491
  0
LINE
  8
0
 10
58.8465
 20
-88.9491
 11
58.9621
 21
-88.941
  0
LINE
  8
0
 10
58.9621
 20
-88.941
 11
59.0779
 21
-88.941
  0
LINE
  8
0
 10
59.0779
 20
-88.941
 11
59.1935
 21
-88.9491
  0
LINE
  8
0
 10
59.1935
 20
-88.9491
 11
59.3083
 21
-88.9652
  0
LINE
  8
0
 10
59.3083
 20
-88.9652
 11
59.4216
 21
-88.9893
  0
LINE
  8
0
 10
59.4216
 20
-88.9893
 11
59.533
 21
-89.0212
  0
LINE
  8
0
 10
59.533
 20
-89.0212
 11
59.6418
 21
-89.0609
  0
LINE
  8
0
 10
59.6418
 20
-89.0609
 11
59.7477
 21
-89.108
  0
LINE
  8
0
 10
59.7477
 20
-89.108
 11
59.85
 21
-89.1624
  0
LINE
  8
0
 10
59.85
 20
-89.1624
 11
59.9483
 21
-89.2238
  0
LINE
  8
0
 10
59.9483
 20
-89.2238
 11
60.042
 21
-89.2919
  0
LINE
  8
0
 10
60.042
 20
-89.2919
 11
60.1308
 21
-89.3664
  0
LINE
  8
0
 10
60.1308
 20
-89.3664
 11
60.2141
 21
-89.4469
  0
LINE
  8
0
 10
60.2141
 20
-89.4469
 11
60.2916
 21
-89.533
  0
LINE
  8
0
 10
60.2916
 20
-89.533
 11
60.363
 21
-89.6243
  0
LINE
  8
0
 10
60.363
 20
-89.6243
 11
60.4278
 21
-89.7203
  0
LINE
  8
0
 10
60.4278
 20
-89.7203
 11
60.4857
 21
-89.8207
  0
LINE
  8
0
 10
60.4857
 20
-89.8207
 11
60.5365
 21
-89.9248
  0
LINE
  8
0
 10
60.5365
 20
-89.9248
 11
60.5799
 21
-90.0322
  0
LINE
  8
0
 10
60.5799
 20
-90.0322
 11
60.6157
 21
-90.1424
  0
LINE
  8
0
 10
60.6157
 20
-90.1424
 11
60.6437
 21
-90.2549
  0
LINE
  8
0
 10
60.6437
 20
-90.2549
 11
60.6638
 21
-90.369
  0
LINE
  8
0
 10
60.6638
 20
-90.369
 11
60.676
 21
-90.4842
  0
LINE
  8
0
 10
60.676
 20
-90.4842
 11
60.68
 21
-90.6
  0
LINE
  8
0
 10
60.68
 20
-90.6
 11
60.676
 21
-90.7158
  0
LINE
  8
0
 10
60.676
 20
-90.7158
 11
60.6638
 21
-90.831
  0
LINE
  8
0
 10
60.6638
 20
-90.831
 11
60.6437
 21
-90.9451
  0
LINE
  8
0
 10
60.6437
 20
-90.9451
 11
60.6157
 21
-91.0576
  0
LINE
  8
0
 10
60.6157
 20
-91.0576
 11
60.5799
 21
-91.1678
  0
LINE
  8
0
 10
60.5799
 20
-91.1678
 11
60.5365
 21
-91.2752
  0
LINE
  8
0
 10
60.5365
 20
-91.2752
 11
60.4857
 21
-91.3793
  0
LINE
  8
0
 10
60.4857
 20
-91.3793
 11
60.4278
 21
-91.4797
  0
LINE
  8
0
 10
60.4278
 20
-91.4797
 11
60.363
 21
-91.5757
  0
LINE
  8
0
 10
60.363
 20
-91.5757
 11
60.2916
 21
-91.667
  0
LINE
  8
0
 10
60.2916
 20
-91.667
 11
60.2141
 21
-91.7531
  0
LINE
  8
0
 10
60.2141
 20
-91.7531
 11
60.1308
 21
-91.8336
  0
LINE
  8
0
 10
60.1308
 20
-91.8336
 11
60.042
 21
-91.9081
  0
LINE
  8
0
 10
60.042
 20
-91.9081
 11
59.9483
 21
-91.9762
  0
LINE
  8
0
 10
59.9483
 20
-91.9762
 11
59.85
 21
-92.0376
  0
LINE
  8
0
 10
59.85
 20
-92.0376
 11
59.7477
 21
-92.092
  0
LINE
  8
0
 10
59.7477
 20
-92.092
 11
59.6418
 21
-92.1391
  0
LINE
  8
0
 10
59.6418
 20
-92.1391
 11
59.533
 21
-92.1788
  0
LINE
  8
0
 10
59.533
 20
-92.1788
 11
59.4216
 21
-92.2107
  0
LINE
  8
0
 10
59.4216
 20
-92.2107
 11
59.3083
 21
-92.2348
  0
LINE
  8
0
 10
59.3083
 20
-92.2348
 11
59.1935
 21
-92.2509
  0
LINE
  8
0
 10
59.1935
 20
-92.2509
 11
59.0779
 21
-92.259
  0
LINE
  8
0
 10
59.0779
 20
-92.259
 11
58.9621
 21
-92.259
  0
LINE
  8
0
 10
58.9621
 20
-92.259
 11
58.8465
 21
-92.2509
  0
LINE
  8
0
 10
58.8465
 20
-92.2509
 11
58.7317
 21
-92.2348
  0
LINE
  8
0
 10
58.7317
 20
-92.2348
 11
58.6184
 21
-92.2107
  0
LINE
  8
0
 10
58.6184
 20
-92.2107
 11
58.507
 21
-92.1788
  0
LINE
  8
0
 10
58.507
 20
-92.1788
 11
58.3982
 21
-92.1391
  0
LINE
  8
0
 10
58.3982
 20
-92.1391
 11
58.2923
 21
-92.092
  0
LINE
  8
0
 10
58.2923
 20
-92.092
 11
58.19
 21
-92.0376
  0
LINE
  8
0
 10
58.19
 20
-92.0376
 11
58.0917
 21
-91.9762
  0
LINE
  8
0
 10
58.0917
 20
-91.9762
 11
57.998
 21
-91.9081
  0
LINE
  8
0
 10
57.998
 20
-91.9081
 11
57.9092
 21
-91.8336
  0
LINE
  8
0
 10
57.9092
 20
-91.8336
 11
57.8259
 21
-91.7531
  0
LINE
  8
0
 10
57.8259
 20
-91.7531
 11
57.7484
 21
-91.667
  0
LINE
  8
0
 10
57.7484
 20
-91.667
 11
57.677
 21
-91.5757
  0
LINE
  8
0
 10
57.677
 20
-91.5757
 11
57.6122
 21
-91.4797
  0
LINE
  8
0
 10
57.6122
 20
-91.4797
 11
57.5543
 21
-91.3793
  0
LINE
  8
0
 10
57.5543
 20
-91.3793
 11
57.5035
 21
-91.2752
  0
LINE
  8
0
 10
57.5035
 20
-91.2752
 11
57.4601
 21
-91.1678
  0
LINE
  8
0
 10
57.4601
 20
-91.1678
 11
57.4243
 21
-91.0576
  0
LINE
  8
0
 10
57.4243
 20
-91.0576
 11
57.3963
 21
-90.9451
  0
LINE
  8
0
 10
57.3963
 20
-90.9451
 11
57.3762
 21
-90.831
  0
LINE
  8
0
 10
57.3762
 20
-90.831
 11
57.364
 21
-90.7158
  0
LINE
  8
0
 10
57.364
 20
-90.7158
 11
57.36
 21
-90.6
  0
LINE
  8
0
 10
57.36
 20
90.6
 11
57.364
 21
90.7158
  0
LINE
  8
0
 10
57.364
 20
90.7158
 11
57.3762
 21
90.831
  0
LINE
  8
0
 10
57.3762
 20
90.831
 11
57.3963
 21
90.9451
  0
LINE
  8
0
 10
57.3963
 20
90.9451
 11
57.4243
 21
91.0576
  0
LINE
  8
0
 10
57.4243
 20
91.0576
 11
57.4601
 21
91.1678
  0
LINE
  8
0
 10
57.4601
 20
91.1678
 11
57.5035
 21
91.2752
  0
LINE
  8
0
 10
57.5035
 20
91.2752
 11
57.5543
 21
91.3793
  0
LINE
  8
0
 10
57.5543
 20
91.3793
 11
57.6122
 21
91.4797
  0
LINE
  8
0
 10
57.6122
 20
91.4797
 11
57.677
 21
91.5757
  0
LINE
  8
0
 10
57.677
 20
91.5757
 11
57.7484
 21
91.667
  0
LINE
  8
0
 10
57.7484
 20
91.667
 11
57.8259
 21
91.7531
  0
LINE
  8
0
 10
57.8259
 20
91.7531
 11
57.9092
 21
91.8336
  0
LINE
  8
0
 10
57.9092
 20
91.8336
 11
57.998
 21
91.9081
  0
LINE
  8
0
 10
57.998
 20
91.9081
 11
58.0917
 21
91.9762
  0
LINE
  8
0
 10
58.0917
 20
91.9762
 11
58.19
 21
92.0376
  0
LINE
  8
0
 10
58.19
 20
92.0376
 11
58.2923
 21
92.092
  0
LINE
  8
0
 10
58.2923
 20
92.092
 11
58.3982
 21
92.1391
  0
LINE
  8
0
 10
58.3982
 20
92.1391
 11
58.507
 21
92.1788
  0
LINE
  8
0
 10
58.507
 20
92.1788
 11
58.6184
 21
92.2107
  0
LINE
  8
0
 10
58.6184
 20
92.2107
 11
58.7317
 21
92.2348
  0
LINE
  8
0
 10
58.7317
 20
92.2348
 11
58.8465
 21
92.2509
  0
LINE
  8
0
 10
58.8465
 20
92.2509
 11
58.9621
 21
92.259
  0
LINE
  8
0
 10
58.9621
 20
92.259
 11
59.0779
 21
92.259
  0
LINE
  8
0
 10
59.0779
 20
92.259
 11
59.1935
 21
92.2509
  0
LINE
  8
0
 10
59.1935
 20
92.2509
 11
59.3083
 21
92.2348
  0
LINE
  8
0
 10
59.3083
 20
92.2348
 11
59.4216
 21
92.2107
  0
LINE
  8
0
 10
59.4216
 20
92.2107
 11
59.533
 21
92.1788
  0
LINE
  8
0
 10
59.533
 20
92.1788
 11
59.6418
 21
92.1391
  0
LINE
  8
0
 10
59.6418
 20
92.1391
 11
59.7477
 21
92.092
  0
LINE
  8
0
 10
59.7477
 20
92.092
 11
59.85
 21
92.0376
  0
LINE
  8
0
 10
59.85
 20
92.0376
 11
59.9483
 21
91.9762
  0
LINE
  8
0
 10
59.9483
 20
91.9762
 11
60.042
 21
91.9081
  0
LINE
  8
0
 10
60.042
 20
91.9081
 11
60.1308
 21
91.8336
  0
LINE
  8
0
 10
60.1308
 20
91.8336
 11
60.2141
 21
91.7531
  0
LINE
  8
0
 10
60.2141
 20
91.7531
 11
60.2916
 21
91.667
  0
LINE
  8
0
 10
60.2916
 20
91.667
 11
60.363
 21
91.5757
  0
LINE
  8
0
 10
60.363
 20
91.5757
 11
60.4278
 21
91.4797
  0
LINE
  8
0
 10
60.4278
 20
91.4797
 11
60.4857
 21
91.3793
  0
LINE
  8
0
 10
60.4857
 20
91.3793
 11
60.5365
 21
91.2752
  0
LINE
  8
0
 10
60.5365
 20
91.2752
 11
60.5799
 21
91.1678
  0
LINE
  8
0
 10
60.5799
 20
91.1678
 11
60.6157
 21
91.0576
  0
LINE
  8
0
 10
60.6157
 20
91.0576
 11
60.6437
 21
90.9451
  0
LINE
  8
0
 10
60.6437
 20
90.9451
 11
60.6638
 21
90.831
  0
LINE
  8
0
 10
60.6638
 20
90.831
 11
60.676
 21
90.7158
  0
LINE
  8
0
 10
60.676
 20
90.7158
 11
60.68
 21
90.6
  0
LINE
  8
0
 10
60.68
 20
90.6
 11
60.676
 21
90.4842
  0
LINE
  8
0
 10
60.676
 20
90.4842
 11
60.6638
 21
90.369
  0
LINE
  8
0
 10
60.6638
 20
90.369
 11
60.6437
 21
90.2549
  0
LINE
  8
0
 10
60.6437
 20
90.2549
 11
60.6157
 21
90.1424
  0
LINE
  8
0
 10
60.6157
 20
90.1424
 11
60.5799
 21
90.0322
  0
LINE
  8
0
 10
60.5799
 20
90.0322
 11
60.5365
 21
89.9248
  0
LINE
  8
0
 10
60.5365
 20
89.9248
 11
60.4857
 21
89.8207
  0
LINE
  8
0
 10
60.4857
 20
89.8207
 11
60.4278
 21
89.7203
  0
LINE
  8
0
 10
60.4278
 20
89.7203
 11
60.363
 21
89.6243
  0
LINE
  8
0
 10
60.363
 20
89.6243
 11
60.2916
 21
89.533
  0
LINE
  8
0
 10
60.2916
 20
89.533
 11
60.2141
 21
89.4469
  0
LINE
  8
0
 10
60.2141
 20
89.4469
 11
60.1308
 21
89.3664
  0
LINE
  8
0
 10
60.1308
 20
89.3664
 11
60.042
 21
89.2919
  0
LINE
  8
0
 10
60.042
 20
89.2919
 11
59.9483
 21
89.2238
  0
LINE
  8
0
 10
59.9483
 20
89.2238
 11
59.85
 21
89.1624
  0
LINE
  8
0
 10
59.85
 20
89.1624
 11
59.7477
 21
89.108
  0
LINE
  8
0
 10
59.7477
 20
89.108
 11
59.6418
 21
89.0609
  0
LINE
  8
0
 10
59.6418
 20
89.0609
 11
59.533
 21
89.0212
  0
LINE
  8
0
 10
59.533
 20
89.0212
 11
59.4216
 21
88.9893
  0
LINE
  8
0
 10
59.4216
 20
88.9893
 11
59.3083
 21
88.9652
  0
LINE
  8
0
 10
59.3083
 20
88.9652
 11
59.1935
 21
88.9491
  0
LINE
  8
0
 10
59.1935
 20
88.9491
 11
59.0779
 21
88.941
  0
LINE
  8
0
 10
59.0779
 20
88.941
 11
58.9621
 21
88.941
  0
LINE
  8
0
 10
58.9621
 20
88.941
 11
58.8465
 21
88.9491
  0
LINE
  8
0
 10
58.8465
 20
88.9491
 11
58.7317
 21
88.9652
  0
LINE
  8
0
 10
58.7317
 20
88.9652
 11
58.6184
 21
88.9893
  0
LINE
  8
0
 10
58.6184
 20
88.9893
 11
58.507
 21
89.0212
  0
LINE
  8
0
 10
58.507
 20
89.0212
 11
58.3982
 21
89.0609
  0
LINE
  8
0
 10
58.3982
 20
89.0609
 11
58.2923
 21
89.108
  0
LINE
  8
0
 10
58.2923
 20
89.108
 11
58.19
 21
89.1624
  0
LINE
  8
0
 10
58.19
 20
89.1624
 11
58.0917
 21
89.2238
  0
LINE
  8
0
 10
58.0917
 20
89.2238
 11
57.998
 21
89.2919
  0
LINE
  8
0
 10
57.998
 20
89.2919
 11
57.9092
 21
89.3664
  0
LINE
  8
0
 10
57.9092
 20
89.3664
 11
57.8259
 21
89.4469
  0
LINE
  8
0
 10
57.8259
 20
89.4469
 11
57.7484
 21
89.533
  0
LINE
  8
0
 10
57.7484
 20
89.533
 11
57.677
 21
89.6243
  0
LINE
  8
0
 10
57.677
 20
89.6243
 11
57.6122
 21
89.7203
  0
LINE
  8
0
 10
57.6122
 20
89.7203
 11
57.5543
 21
89.8207
  0
LINE
  8
0
 10
57.5543
 20
89.8207
 11
57.5035
 21
89.9248
  0
LINE
  8
0
 10
57.5035
 20
89.9248
 11
57.4601
 21
90.0322
  0
LINE
  8
0
 10
57.4601
 20
90.0322
 11
57.4243
 21
90.1424
  0
LINE
  8
0
 10
57.4243
 20
90.1424
 11
57.3963
 21
90.2549
  0
LINE
  8
0
 10
57.3963
 20
90.2549
 11
57.3762
 21
90.369
  0
LINE
  8
0
 10
57.3762
 20
90.369
 11
57.364
 21
90.4842
  0
LINE
  8
0
 10
57.364
 20
90.4842
 11
57.36
 21
90.6
  0
ENDSEC
  0
SECTION
  2
OBJECTS
  0
DICTIONARY
  0
ENDSEC
  0
EOF
