  0
SECTION
  2
BLOCKS
  0
ENDSEC
  0
SECTION
  2
ENTITIES
  0
LINE
  8
0
 10
-8.768
 20
-13.78
 11
-7.83134
 21
-13.78
  0
LINE
  8
0
 10
-7.83134
 20
-13.78
 11
-7.60132
 21
-13.5579
  0
LINE
  8
0
 10
-7.60132
 20
-13.5579
 11
-6.99391
 21
-13.0482
  0
LINE
  8
0
 10
-6.99391
 20
-13.0482
 11
-6.35243
 21
-12.5821
  0
LINE
  8
0
 10
-6.35243
 20
-12.5821
 11
-5.68
 21
-12.162
  0
LINE
  8
0
 10
-5.68
 20
-12.162
 11
-4.9799
 21
-11.7897
  0
LINE
  8
0
 10
-4.9799
 20
-11.7897
 11
-4.25553
 21
-11.4672
  0
LINE
  8
0
 10
-4.25553
 20
-11.4672
 11
-3.51043
 21
-11.196
  0
LINE
  8
0
 10
-3.51043
 20
-11.196
 11
-2.74823
 21
-10.9774
  0
LINE
  8
0
 10
-2.74823
 20
-10.9774
 11
-1.97264
 21
-10.8126
  0
LINE
  8
0
 10
-1.97264
 20
-10.8126
 11
-1.18744
 21
-10.7022
  0
LINE
  8
0
 10
-1.18744
 20
-10.7022
 11
-0.396458
 21
-10.6469
  0
LINE
  8
0
 10
-0.396458
 20
-10.6469
 11
0.396458
 21
-10.6469
  0
LINE
  8
0
 10
0.396458
 20
-10.6469
 11
1.18744
 21
-10.7022
  0
LINE
  8
0
 10
1.18744
 20
-10.7022
 11
1.97264
 21
-10.8126
  0
LINE
  8
0
 10
1.97264
 20
-10.8126
 11
2.74823
 21
-10.9774
  0
LINE
  8
0
 10
2.74823
 20
-10.9774
 11
3.51043
 21
-11.196
  0
LINE
  8
0
 10
3.51043
 20
-11.196
 11
4.25553
 21
-11.4672
  0
LINE
  8
0
 10
4.25553
 20
-11.4672
 11
4.9799
 21
-11.7897
  0
LINE
  8
0
 10
4.9799
 20
-11.7897
 11
5.68
 21
-12.162
  0
LINE
  8
0
 10
5.68
 20
-12.162
 11
6.35243
 21
-12.5821
  0
LINE
  8
0
 10
6.35243
 20
-12.5821
 11
6.99391
 21
-13.0482
  0
LINE
  8
0
 10
6.99391
 20
-13.0482
 11
7.60132
 21
-13.5579
  0
LINE
  8
0
 10
7.60132
 20
-13.5579
 11
7.83134
 21
-13.78
  0
LINE
  8
0
 10
7.83134
 20
-13.78
 11
8.768
 21
-13.78
  0
LINE
  8
0
 10
8.768
 20
-13.78
 11
8.768
 21
13.78
  0
LINE
  8
0
 10
8.768
 20
13.78
 11
7.83134
 21
13.78
  0
LINE
  8
0
 10
7.83134
 20
13.78
 11
7.60132
 21
13.5579
  0
LINE
  8
0
 10
7.60132
 20
13.5579
 11
6.99391
 21
13.0482
  0
LINE
  8
0
 10
6.99391
 20
13.0482
 11
6.35243
 21
12.5821
  0
LINE
  8
0
 10
6.35243
 20
12.5821
 11
5.68
 21
12.162
  0
LINE
  8
0
 10
5.68
 20
12.162
 11
4.9799
 21
11.7897
  0
LINE
  8
0
 10
4.9799
 20
11.7897
 11
4.25553
 21
11.4672
  0
LINE
  8
0
 10
4.25553
 20
11.4672
 11
3.51043
 21
11.196
  0
LINE
  8
0
 10
3.51043
 20
11.196
 11
2.74823
 21
10.9774
  0
LINE
  8
0
 10
2.74823
 20
10.9774
 11
1.97264
 21
10.8126
  0
LINE
  8
0
 10
1.97264
 20
10.8126
 11
1.18744
 21
10.7022
  0
LINE
  8
0
 10
1.18744
 20
10.7022
 11
0.396458
 21
10.6469
  0
LINE
  8
0
 10
0.396458
 20
10.6469
 11
-0.396458
 21
10.6469
  0
LINE
  8
0
 10
-0.396458
 20
10.6469
 11
-1.18744
 21
10.7022
  0
LINE
  8
0
 10
-1.18744
 20
10.7022
 11
-1.97264
 21
10.8126
  0
LINE
  8
0
 10
-1.97264
 20
10.8126
 11
-2.74823
 21
10.9774
  0
LINE
  8
0
 10
-2.74823
 20
10.9774
 11
-3.51043
 21
11.196
  0
LINE
  8
0
 10
-3.51043
 20
11.196
 11
-4.25553
 21
11.4672
  0
LINE
  8
0
 10
-4.25553
 20
11.4672
 11
-4.9799
 21
11.7897
  0
LINE
  8
0
 10
-4.9799
 20
11.7897
 11
-5.68
 21
12.162
  0
LINE
  8
0
 10
-5.68
 20
12.162
 11
-6.35243
 21
12.5821
  0
LINE
  8
0
 10
-6.35243
 20
12.5821
 11
-6.99391
 21
13.0482
  0
LINE
  8
0
 10
-6.99391
 20
13.0482
 11
-7.60132
 21
13.5579
  0
LINE
  8
0
 10
-7.60132
 20
13.5579
 11
-7.83134
 21
13.78
  0
LINE
  8
0
 10
-7.83134
 20
13.78
 11
-8.768
 21
13.78
  0
LINE
  8
0
 10
-8.768
 20
13.78
 11
-8.768
 21
-13.78
  0
LINE
  8
0
 10
-3.1
 20
0
 11
-3.09245
 21
0.216245
  0
LINE
  8
0
 10
-3.09245
 20
0.216245
 11
-3.06983
 21
0.431437
  0
LINE
  8
0
 10
-3.06983
 20
0.431437
 11
-3.03226
 21
0.644526
  0
LINE
  8
0
 10
-3.03226
 20
0.644526
 11
-2.97991
 21
0.854475
  0
LINE
  8
0
 10
-2.97991
 20
0.854475
 11
-2.91305
 21
1.06026
  0
LINE
  8
0
 10
-2.91305
 20
1.06026
 11
-2.83199
 21
1.26088
  0
LINE
  8
0
 10
-2.83199
 20
1.26088
 11
-2.73714
 21
1.45536
  0
LINE
  8
0
 10
-2.73714
 20
1.45536
 11
-2.62895
 21
1.64275
  0
LINE
  8
0
 10
-2.62895
 20
1.64275
 11
-2.50795
 21
1.82213
  0
LINE
  8
0
 10
-2.50795
 20
1.82213
 11
-2.37474
 21
1.99264
  0
LINE
  8
0
 10
-2.37474
 20
1.99264
 11
-2.22995
 21
2.15344
  0
LINE
  8
0
 10
-2.22995
 20
2.15344
 11
-2.0743
 21
2.30375
  0
LINE
  8
0
 10
-2.0743
 20
2.30375
 11
-1.90855
 21
2.44283
  0
LINE
  8
0
 10
-1.90855
 20
2.44283
 11
-1.7335
 21
2.57002
  0
LINE
  8
0
 10
-1.7335
 20
2.57002
 11
-1.55
 21
2.68468
  0
LINE
  8
0
 10
-1.55
 20
2.68468
 11
-1.35895
 21
2.78626
  0
LINE
  8
0
 10
-1.35895
 20
2.78626
 11
-1.16128
 21
2.87427
  0
LINE
  8
0
 10
-1.16128
 20
2.87427
 11
-0.957952
 21
2.94827
  0
LINE
  8
0
 10
-0.957952
 20
2.94827
 11
-0.749957
 21
3.00792
  0
LINE
  8
0
 10
-0.749957
 20
3.00792
 11
-0.538309
 21
3.0529
  0
LINE
  8
0
 10
-0.538309
 20
3.0529
 11
-0.324038
 21
3.08302
  0
LINE
  8
0
 10
-0.324038
 20
3.08302
 11
-0.108188
 21
3.09811
  0
LINE
  8
0
 10
-0.108188
 20
3.09811
 11
0.108188
 21
3.09811
  0
LINE
  8
0
 10
0.108188
 20
3.09811
 11
0.324038
 21
3.08302
  0
LINE
  8
0
 10
0.324038
 20
3.08302
 11
0.538309
 21
3.0529
  0
LINE
  8
0
 10
0.538309
 20
3.0529
 11
0.749957
 21
3.00792
  0
LINE
  8
0
 10
0.749957
 20
3.00792
 11
0.957952
 21
2.94827
  0
LINE
  8
0
 10
0.957952
 20
2.94827
 11
1.16128
 21
2.87427
  0
LINE
  8
0
 10
1.16128
 20
2.87427
 11
1.35895
 21
2.78626
  0
LINE
  8
0
 10
1.35895
 20
2.78626
 11
1.55
 21
2.68468
  0
LINE
  8
0
 10
1.55
 20
2.68468
 11
1.7335
 21
2.57002
  0
LINE
  8
0
 10
1.7335
 20
2.57002
 11
1.90855
 21
2.44283
  0
LINE
  8
0
 10
1.90855
 20
2.44283
 11
2.0743
 21
2.30375
  0
LINE
  8
0
 10
2.0743
 20
2.30375
 11
2.22995
 21
2.15344
  0
LINE
  8
0
 10
2.22995
 20
2.15344
 11
2.37474
 21
1.99264
  0
LINE
  8
0
 10
2.37474
 20
1.99264
 11
2.50795
 21
1.82213
  0
LINE
  8
0
 10
2.50795
 20
1.82213
 11
2.62895
 21
1.64275
  0
LINE
  8
0
 10
2.62895
 20
1.64275
 11
2.73714
 21
1.45536
  0
LINE
  8
0
 10
2.73714
 20
1.45536
 11
2.83199
 21
1.26088
  0
LINE
  8
0
 10
2.83199
 20
1.26088
 11
2.91305
 21
1.06026
  0
LINE
  8
0
 10
2.91305
 20
1.06026
 11
2.97991
 21
0.854475
  0
LINE
  8
0
 10
2.97991
 20
0.854475
 11
3.03226
 21
0.644526
  0
LINE
  8
0
 10
3.03226
 20
0.644526
 11
3.06983
 21
0.431437
  0
LINE
  8
0
 10
3.06983
 20
0.431437
 11
3.09245
 21
0.216245
  0
LINE
  8
0
 10
3.09245
 20
0.216245
 11
3.1
 21
0
  0
LINE
  8
0
 10
3.1
 20
0
 11
3.09245
 21
-0.216245
  0
LINE
  8
0
 10
3.09245
 20
-0.216245
 11
3.06983
 21
-0.431437
  0
LINE
  8
0
 10
3.06983
 20
-0.431437
 11
3.03226
 21
-0.644526
  0
LINE
  8
0
 10
3.03226
 20
-0.644526
 11
2.97991
 21
-0.854475
  0
LINE
  8
0
 10
2.97991
 20
-0.854475
 11
2.91305
 21
-1.06026
  0
LINE
  8
0
 10
2.91305
 20
-1.06026
 11
2.83199
 21
-1.26088
  0
LINE
  8
0
 10
2.83199
 20
-1.26088
 11
2.73714
 21
-1.45536
  0
LINE
  8
0
 10
2.73714
 20
-1.45536
 11
2.62895
 21
-1.64275
  0
LINE
  8
0
 10
2.62895
 20
-1.64275
 11
2.50795
 21
-1.82213
  0
LINE
  8
0
 10
2.50795
 20
-1.82213
 11
2.37474
 21
-1.99264
  0
LINE
  8
0
 10
2.37474
 20
-1.99264
 11
2.22995
 21
-2.15344
  0
LINE
  8
0
 10
2.22995
 20
-2.15344
 11
2.0743
 21
-2.30375
  0
LINE
  8
0
 10
2.0743
 20
-2.30375
 11
1.90855
 21
-2.44283
  0
LINE
  8
0
 10
1.90855
 20
-2.44283
 11
1.7335
 21
-2.57002
  0
LINE
  8
0
 10
1.7335
 20
-2.57002
 11
1.55
 21
-2.68468
  0
LINE
  8
0
 10
1.55
 20
-2.68468
 11
1.35895
 21
-2.78626
  0
LINE
  8
0
 10
1.35895
 20
-2.78626
 11
1.16128
 21
-2.87427
  0
LINE
  8
0
 10
1.16128
 20
-2.87427
 11
0.957952
 21
-2.94827
  0
LINE
  8
0
 10
0.957952
 20
-2.94827
 11
0.749957
 21
-3.00792
  0
LINE
  8
0
 10
0.749957
 20
-3.00792
 11
0.538309
 21
-3.0529
  0
LINE
  8
0
 10
0.538309
 20
-3.0529
 11
0.324038
 21
-3.08302
  0
LINE
  8
0
 10
0.324038
 20
-3.08302
 11
0.108188
 21
-3.09811
  0
LINE
  8
0
 10
0.108188
 20
-3.09811
 11
-0.108188
 21
-3.09811
  0
LINE
  8
0
 10
-0.108188
 20
-3.09811
 11
-0.324038
 21
-3.08302
  0
LINE
  8
0
 10
-0.324038
 20
-3.08302
 11
-0.538309
 21
-3.0529
  0
LINE
  8
0
 10
-0.538309
 20
-3.0529
 11
-0.749957
 21
-3.00792
  0
LINE
  8
0
 10
-0.749957
 20
-3.00792
 11
-0.957952
 21
-2.94827
  0
LINE
  8
0
 10
-0.957952
 20
-2.94827
 11
-1.16128
 21
-2.87427
  0
LINE
  8
0
 10
-1.16128
 20
-2.87427
 11
-1.35895
 21
-2.78626
  0
LINE
  8
0
 10
-1.35895
 20
-2.78626
 11
-1.55
 21
-2.68468
  0
LINE
  8
0
 10
-1.55
 20
-2.68468
 11
-1.7335
 21
-2.57002
  0
LINE
  8
0
 10
-1.7335
 20
-2.57002
 11
-1.90855
 21
-2.44283
  0
LINE
  8
0
 10
-1.90855
 20
-2.44283
 11
-2.0743
 21
-2.30375
  0
LINE
  8
0
 10
-2.0743
 20
-2.30375
 11
-2.22995
 21
-2.15344
  0
LINE
  8
0
 10
-2.22995
 20
-2.15344
 11
-2.37474
 21
-1.99264
  0
LINE
  8
0
 10
-2.37474
 20
-1.99264
 11
-2.50795
 21
-1.82213
  0
LINE
  8
0
 10
-2.50795
 20
-1.82213
 11
-2.62895
 21
-1.64275
  0
LINE
  8
0
 10
-2.62895
 20
-1.64275
 11
-2.73714
 21
-1.45536
  0
LINE
  8
0
 10
-2.73714
 20
-1.45536
 11
-2.83199
 21
-1.26088
  0
LINE
  8
0
 10
-2.83199
 20
-1.26088
 11
-2.91305
 21
-1.06026
  0
LINE
  8
0
 10
-2.91305
 20
-1.06026
 11
-2.97991
 21
-0.854475
  0
LINE
  8
0
 10
-2.97991
 20
-0.854475
 11
-3.03226
 21
-0.644526
  0
LINE
  8
0
 10
-3.03226
 20
-0.644526
 11
-3.06983
 21
-0.431437
  0
LINE
  8
0
 10
-3.06983
 20
-0.431437
 11
-3.09245
 21
-0.216245
  0
LINE
  8
0
 10
-3.09245
 20
-0.216245
 11
-3.1
 21
0
  0
ENDSEC
  0
SECTION
  2
OBJECTS
  0
DICTIONARY
  0
ENDSEC
  0
EOF
