  0
SECTION
  2
BLOCKS
  0
ENDSEC
  0
SECTION
  2
ENTITIES
  0
LINE
  8
0
 10
-77.75
 20
18.71
 11
-68.25
 21
18.71
  0
LINE
  8
0
 10
-68.25
 20
18.71
 11
-68.25
 21
24.75
  0
LINE
  8
0
 10
-68.25
 20
24.75
 11
-60.75
 21
32.23
  0
LINE
  8
0
 10
-60.75
 20
32.23
 11
-25.75
 21
32.23
  0
LINE
  8
0
 10
-25.75
 20
32.23
 11
-18.25
 21
24.75
  0
LINE
  8
0
 10
-18.25
 20
24.75
 11
-18.25
 21
18.71
  0
LINE
  8
0
 10
-18.25
 20
18.71
 11
-7.50999
 21
18.71
  0
LINE
  8
0
 10
-7.50999
 20
18.71
 11
-7.50999
 21
21.68
  0
LINE
  8
0
 10
-7.50999
 20
21.68
 11
7.50999
 21
21.68
  0
LINE
  8
0
 10
7.50999
 20
21.68
 11
7.50999
 21
18.71
  0
LINE
  8
0
 10
7.50999
 20
18.71
 11
46.565
 21
18.71
  0
LINE
  8
0
 10
46.565
 20
18.71
 11
46.565
 21
21.68
  0
LINE
  8
0
 10
46.565
 20
21.68
 11
61.585
 21
21.68
  0
LINE
  8
0
 10
61.585
 20
21.68
 11
61.585
 21
18.71
  0
LINE
  8
0
 10
61.585
 20
18.71
 11
72.75
 21
18.71
  0
LINE
  8
0
 10
72.75
 20
18.71
 11
72.75
 21
14.33
  0
LINE
  8
0
 10
72.75
 20
14.33
 11
80.2
 21
14.33
  0
LINE
  8
0
 10
80.2
 20
14.33
 11
80.2
 21
32.28
  0
LINE
  8
0
 10
80.2
 20
32.28
 11
80.1803
 21
32.845
  0
LINE
  8
0
 10
80.1803
 20
32.845
 11
80.1212
 21
33.4073
  0
LINE
  8
0
 10
80.1212
 20
33.4073
 11
80.023
 21
33.9641
  0
LINE
  8
0
 10
80.023
 20
33.9641
 11
79.8862
 21
34.5126
  0
LINE
  8
0
 10
79.8862
 20
34.5126
 11
79.7115
 21
35.0504
  0
LINE
  8
0
 10
79.7115
 20
35.0504
 11
79.4997
 21
35.5746
  0
LINE
  8
0
 10
79.4997
 20
35.5746
 11
79.2519
 21
36.0827
  0
LINE
  8
0
 10
79.2519
 20
36.0827
 11
78.9692
 21
36.5723
  0
LINE
  8
0
 10
78.9692
 20
36.5723
 11
78.653
 21
37.0411
  0
LINE
  8
0
 10
78.653
 20
37.0411
 11
78.305
 21
37.4866
  0
LINE
  8
0
 10
78.305
 20
37.4866
 11
77.9267
 21
37.9067
  0
LINE
  8
0
 10
77.9267
 20
37.9067
 11
77.52
 21
38.2995
  0
LINE
  8
0
 10
77.52
 20
38.2995
 11
77.0869
 21
38.6629
  0
LINE
  8
0
 10
77.0869
 20
38.6629
 11
76.6295
 21
38.9952
  0
LINE
  8
0
 10
76.6295
 20
38.9952
 11
76.15
 21
39.2948
  0
LINE
  8
0
 10
76.15
 20
39.2948
 11
75.6508
 21
39.5602
  0
LINE
  8
0
 10
75.6508
 20
39.5602
 11
75.1343
 21
39.7902
  0
LINE
  8
0
 10
75.1343
 20
39.7902
 11
74.603
 21
39.9836
  0
LINE
  8
0
 10
74.603
 20
39.9836
 11
74.0596
 21
40.1394
  0
LINE
  8
0
 10
74.0596
 20
40.1394
 11
73.5065
 21
40.2569
  0
LINE
  8
0
 10
73.5065
 20
40.2569
 11
72.9467
 21
40.3356
  0
LINE
  8
0
 10
72.9467
 20
40.3356
 11
72.3827
 21
40.3751
  0
LINE
  8
0
 10
72.3827
 20
40.3751
 11
-72.3827
 21
40.3751
  0
LINE
  8
0
 10
-72.3827
 20
40.3751
 11
-72.9467
 21
40.3356
  0
LINE
  8
0
 10
-72.9467
 20
40.3356
 11
-73.5065
 21
40.2569
  0
LINE
  8
0
 10
-73.5065
 20
40.2569
 11
-74.0596
 21
40.1394
  0
LINE
  8
0
 10
-74.0596
 20
40.1394
 11
-74.603
 21
39.9836
  0
LINE
  8
0
 10
-74.603
 20
39.9836
 11
-75.1343
 21
39.7902
  0
LINE
  8
0
 10
-75.1343
 20
39.7902
 11
-75.6508
 21
39.5602
  0
LINE
  8
0
 10
-75.6508
 20
39.5602
 11
-76.15
 21
39.2948
  0
LINE
  8
0
 10
-76.15
 20
39.2948
 11
-76.6295
 21
38.9952
  0
LINE
  8
0
 10
-76.6295
 20
38.9952
 11
-77.0869
 21
38.6629
  0
LINE
  8
0
 10
-77.0869
 20
38.6629
 11
-77.52
 21
38.2995
  0
LINE
  8
0
 10
-77.52
 20
38.2995
 11
-77.9267
 21
37.9067
  0
LINE
  8
0
 10
-77.9267
 20
37.9067
 11
-78.305
 21
37.4866
  0
LINE
  8
0
 10
-78.305
 20
37.4866
 11
-78.653
 21
37.0411
  0
LINE
  8
0
 10
-78.653
 20
37.0411
 11
-78.9692
 21
36.5723
  0
LINE
  8
0
 10
-78.9692
 20
36.5723
 11
-79.2519
 21
36.0827
  0
LINE
  8
0
 10
-79.2519
 20
36.0827
 11
-79.4997
 21
35.5746
  0
LINE
  8
0
 10
-79.4997
 20
35.5746
 11
-79.7115
 21
35.0504
  0
LINE
  8
0
 10
-79.7115
 20
35.0504
 11
-79.8862
 21
34.5126
  0
LINE
  8
0
 10
-79.8862
 20
34.5126
 11
-80.023
 21
33.9641
  0
LINE
  8
0
 10
-80.023
 20
33.9641
 11
-80.1212
 21
33.4073
  0
LINE
  8
0
 10
-80.1212
 20
33.4073
 11
-80.1803
 21
32.845
  0
LINE
  8
0
 10
-80.1803
 20
32.845
 11
-80.2
 21
32.28
  0
LINE
  8
0
 10
-80.2
 20
32.28
 11
-80.2
 21
14.33
  0
LINE
  8
0
 10
-80.2
 20
14.33
 11
-77.75
 21
14.33
  0
LINE
  8
0
 10
-77.75
 20
14.33
 11
-77.75
 21
18.71
  0
LINE
  8
0
 10
71.9583
 20
28.2225
 11
71.6756
 21
28.2422
  0
LINE
  8
0
 10
71.6756
 20
28.2422
 11
71.395
 21
28.2817
  0
LINE
  8
0
 10
71.395
 20
28.2817
 11
71.1178
 21
28.3406
  0
LINE
  8
0
 10
71.1178
 20
28.3406
 11
70.8454
 21
28.4187
  0
LINE
  8
0
 10
70.8454
 20
28.4187
 11
70.5791
 21
28.5156
  0
LINE
  8
0
 10
70.5791
 20
28.5156
 11
70.3202
 21
28.6309
  0
LINE
  8
0
 10
70.3202
 20
28.6309
 11
70.07
 21
28.7639
  0
LINE
  8
0
 10
70.07
 20
28.7639
 11
69.8297
 21
28.9141
  0
LINE
  8
0
 10
69.8297
 20
28.9141
 11
69.6004
 21
29.0807
  0
LINE
  8
0
 10
69.6004
 20
29.0807
 11
69.3833
 21
29.2628
  0
LINE
  8
0
 10
69.3833
 20
29.2628
 11
69.1795
 21
29.4597
  0
LINE
  8
0
 10
69.1795
 20
29.4597
 11
68.9899
 21
29.6703
  0
LINE
  8
0
 10
68.9899
 20
29.6703
 11
68.8154
 21
29.8936
  0
LINE
  8
0
 10
68.8154
 20
29.8936
 11
68.6569
 21
30.1285
  0
LINE
  8
0
 10
68.6569
 20
30.1285
 11
68.5152
 21
30.3739
  0
LINE
  8
0
 10
68.5152
 20
30.3739
 11
68.391
 21
30.6286
  0
LINE
  8
0
 10
68.391
 20
30.6286
 11
68.2849
 21
30.8914
  0
LINE
  8
0
 10
68.2849
 20
30.8914
 11
68.1973
 21
31.1609
  0
LINE
  8
0
 10
68.1973
 20
31.1609
 11
68.1287
 21
31.4359
  0
LINE
  8
0
 10
68.1287
 20
31.4359
 11
68.0795
 21
31.715
  0
LINE
  8
0
 10
68.0795
 20
31.715
 11
68.0499
 21
31.9968
  0
LINE
  8
0
 10
68.0499
 20
31.9968
 11
68.04
 21
32.28
  0
LINE
  8
0
 10
68.04
 20
32.28
 11
68.0499
 21
32.5632
  0
LINE
  8
0
 10
68.0499
 20
32.5632
 11
68.0795
 21
32.845
  0
LINE
  8
0
 10
68.0795
 20
32.845
 11
68.1287
 21
33.1241
  0
LINE
  8
0
 10
68.1287
 20
33.1241
 11
68.1973
 21
33.3991
  0
LINE
  8
0
 10
68.1973
 20
33.3991
 11
68.2849
 21
33.6686
  0
LINE
  8
0
 10
68.2849
 20
33.6686
 11
68.391
 21
33.9314
  0
LINE
  8
0
 10
68.391
 20
33.9314
 11
68.5152
 21
34.1861
  0
LINE
  8
0
 10
68.5152
 20
34.1861
 11
68.6569
 21
34.4315
  0
LINE
  8
0
 10
68.6569
 20
34.4315
 11
68.8154
 21
34.6664
  0
LINE
  8
0
 10
68.8154
 20
34.6664
 11
68.9899
 21
34.8897
  0
LINE
  8
0
 10
68.9899
 20
34.8897
 11
69.1795
 21
35.1003
  0
LINE
  8
0
 10
69.1795
 20
35.1003
 11
69.3833
 21
35.2972
  0
LINE
  8
0
 10
69.3833
 20
35.2972
 11
69.6004
 21
35.4793
  0
LINE
  8
0
 10
69.6004
 20
35.4793
 11
69.8297
 21
35.6459
  0
LINE
  8
0
 10
69.8297
 20
35.6459
 11
70.07
 21
35.7961
  0
LINE
  8
0
 10
70.07
 20
35.7961
 11
70.3202
 21
35.9291
  0
LINE
  8
0
 10
70.3202
 20
35.9291
 11
70.5791
 21
36.0444
  0
LINE
  8
0
 10
70.5791
 20
36.0444
 11
70.8454
 21
36.1413
  0
LINE
  8
0
 10
70.8454
 20
36.1413
 11
71.1178
 21
36.2194
  0
LINE
  8
0
 10
71.1178
 20
36.2194
 11
71.395
 21
36.2783
  0
LINE
  8
0
 10
71.395
 20
36.2783
 11
71.6756
 21
36.3177
  0
LINE
  8
0
 10
71.6756
 20
36.3177
 11
71.9583
 21
36.3375
  0
LINE
  8
0
 10
71.9583
 20
36.3375
 11
72.2417
 21
36.3375
  0
LINE
  8
0
 10
72.2417
 20
36.3375
 11
72.5244
 21
36.3177
  0
LINE
  8
0
 10
72.5244
 20
36.3177
 11
72.805
 21
36.2783
  0
LINE
  8
0
 10
72.805
 20
36.2783
 11
73.0822
 21
36.2194
  0
LINE
  8
0
 10
73.0822
 20
36.2194
 11
73.3546
 21
36.1413
  0
LINE
  8
0
 10
73.3546
 20
36.1413
 11
73.6209
 21
36.0444
  0
LINE
  8
0
 10
73.6209
 20
36.0444
 11
73.8798
 21
35.9291
  0
LINE
  8
0
 10
73.8798
 20
35.9291
 11
74.13
 21
35.7961
  0
LINE
  8
0
 10
74.13
 20
35.7961
 11
74.3703
 21
35.6459
  0
LINE
  8
0
 10
74.3703
 20
35.6459
 11
74.5996
 21
35.4793
  0
LINE
  8
0
 10
74.5996
 20
35.4793
 11
74.8167
 21
35.2972
  0
LINE
  8
0
 10
74.8167
 20
35.2972
 11
75.0205
 21
35.1003
  0
LINE
  8
0
 10
75.0205
 20
35.1003
 11
75.2101
 21
34.8897
  0
LINE
  8
0
 10
75.2101
 20
34.8897
 11
75.3846
 21
34.6664
  0
LINE
  8
0
 10
75.3846
 20
34.6664
 11
75.5431
 21
34.4315
  0
LINE
  8
0
 10
75.5431
 20
34.4315
 11
75.6848
 21
34.1861
  0
LINE
  8
0
 10
75.6848
 20
34.1861
 11
75.809
 21
33.9314
  0
LINE
  8
0
 10
75.809
 20
33.9314
 11
75.9151
 21
33.6686
  0
LINE
  8
0
 10
75.9151
 20
33.6686
 11
76.0027
 21
33.3991
  0
LINE
  8
0
 10
76.0027
 20
33.3991
 11
76.0713
 21
33.1241
  0
LINE
  8
0
 10
76.0713
 20
33.1241
 11
76.1205
 21
32.845
  0
LINE
  8
0
 10
76.1205
 20
32.845
 11
76.1501
 21
32.5632
  0
LINE
  8
0
 10
76.1501
 20
32.5632
 11
76.16
 21
32.28
  0
LINE
  8
0
 10
76.16
 20
32.28
 11
76.1501
 21
31.9968
  0
LINE
  8
0
 10
76.1501
 20
31.9968
 11
76.1205
 21
31.715
  0
LINE
  8
0
 10
76.1205
 20
31.715
 11
76.0713
 21
31.4359
  0
LINE
  8
0
 10
76.0713
 20
31.4359
 11
76.0027
 21
31.1609
  0
LINE
  8
0
 10
76.0027
 20
31.1609
 11
75.9151
 21
30.8914
  0
LINE
  8
0
 10
75.9151
 20
30.8914
 11
75.809
 21
30.6286
  0
LINE
  8
0
 10
75.809
 20
30.6286
 11
75.6848
 21
30.3739
  0
LINE
  8
0
 10
75.6848
 20
30.3739
 11
75.5431
 21
30.1285
  0
LINE
  8
0
 10
75.5431
 20
30.1285
 11
75.3846
 21
29.8936
  0
LINE
  8
0
 10
75.3846
 20
29.8936
 11
75.2101
 21
29.6703
  0
LINE
  8
0
 10
75.2101
 20
29.6703
 11
75.0205
 21
29.4597
  0
LINE
  8
0
 10
75.0205
 20
29.4597
 11
74.8167
 21
29.2628
  0
LINE
  8
0
 10
74.8167
 20
29.2628
 11
74.5996
 21
29.0807
  0
LINE
  8
0
 10
74.5996
 20
29.0807
 11
74.3703
 21
28.9141
  0
LINE
  8
0
 10
74.3703
 20
28.9141
 11
74.13
 21
28.7639
  0
LINE
  8
0
 10
74.13
 20
28.7639
 11
73.8798
 21
28.6309
  0
LINE
  8
0
 10
73.8798
 20
28.6309
 11
73.6209
 21
28.5156
  0
LINE
  8
0
 10
73.6209
 20
28.5156
 11
73.3546
 21
28.4187
  0
LINE
  8
0
 10
73.3546
 20
28.4187
 11
73.0822
 21
28.3406
  0
LINE
  8
0
 10
73.0822
 20
28.3406
 11
72.805
 21
28.2817
  0
LINE
  8
0
 10
72.805
 20
28.2817
 11
72.5244
 21
28.2422
  0
LINE
  8
0
 10
72.5244
 20
28.2422
 11
72.2417
 21
28.2225
  0
LINE
  8
0
 10
72.2417
 20
28.2225
 11
71.9583
 21
28.2225
  0
LINE
  8
0
 10
-72.2417
 20
28.2225
 11
-72.5244
 21
28.2422
  0
LINE
  8
0
 10
-72.5244
 20
28.2422
 11
-72.805
 21
28.2817
  0
LINE
  8
0
 10
-72.805
 20
28.2817
 11
-73.0822
 21
28.3406
  0
LINE
  8
0
 10
-73.0822
 20
28.3406
 11
-73.3546
 21
28.4187
  0
LINE
  8
0
 10
-73.3546
 20
28.4187
 11
-73.6209
 21
28.5156
  0
LINE
  8
0
 10
-73.6209
 20
28.5156
 11
-73.8798
 21
28.6309
  0
LINE
  8
0
 10
-73.8798
 20
28.6309
 11
-74.13
 21
28.7639
  0
LINE
  8
0
 10
-74.13
 20
28.7639
 11
-74.3703
 21
28.9141
  0
LINE
  8
0
 10
-74.3703
 20
28.9141
 11
-74.5996
 21
29.0807
  0
LINE
  8
0
 10
-74.5996
 20
29.0807
 11
-74.8167
 21
29.2628
  0
LINE
  8
0
 10
-74.8167
 20
29.2628
 11
-75.0205
 21
29.4597
  0
LINE
  8
0
 10
-75.0205
 20
29.4597
 11
-75.2101
 21
29.6703
  0
LINE
  8
0
 10
-75.2101
 20
29.6703
 11
-75.3846
 21
29.8936
  0
LINE
  8
0
 10
-75.3846
 20
29.8936
 11
-75.5431
 21
30.1285
  0
LINE
  8
0
 10
-75.5431
 20
30.1285
 11
-75.6848
 21
30.3739
  0
LINE
  8
0
 10
-75.6848
 20
30.3739
 11
-75.809
 21
30.6286
  0
LINE
  8
0
 10
-75.809
 20
30.6286
 11
-75.9151
 21
30.8914
  0
LINE
  8
0
 10
-75.9151
 20
30.8914
 11
-76.0027
 21
31.1609
  0
LINE
  8
0
 10
-76.0027
 20
31.1609
 11
-76.0713
 21
31.4359
  0
LINE
  8
0
 10
-76.0713
 20
31.4359
 11
-76.1205
 21
31.715
  0
LINE
  8
0
 10
-76.1205
 20
31.715
 11
-76.1501
 21
31.9968
  0
LINE
  8
0
 10
-76.1501
 20
31.9968
 11
-76.16
 21
32.28
  0
LINE
  8
0
 10
-76.16
 20
32.28
 11
-76.1501
 21
32.5632
  0
LINE
  8
0
 10
-76.1501
 20
32.5632
 11
-76.1205
 21
32.845
  0
LINE
  8
0
 10
-76.1205
 20
32.845
 11
-76.0713
 21
33.1241
  0
LINE
  8
0
 10
-76.0713
 20
33.1241
 11
-76.0027
 21
33.3991
  0
LINE
  8
0
 10
-76.0027
 20
33.3991
 11
-75.9151
 21
33.6686
  0
LINE
  8
0
 10
-75.9151
 20
33.6686
 11
-75.809
 21
33.9314
  0
LINE
  8
0
 10
-75.809
 20
33.9314
 11
-75.6848
 21
34.1861
  0
LINE
  8
0
 10
-75.6848
 20
34.1861
 11
-75.5431
 21
34.4315
  0
LINE
  8
0
 10
-75.5431
 20
34.4315
 11
-75.3846
 21
34.6664
  0
LINE
  8
0
 10
-75.3846
 20
34.6664
 11
-75.2101
 21
34.8897
  0
LINE
  8
0
 10
-75.2101
 20
34.8897
 11
-75.0205
 21
35.1003
  0
LINE
  8
0
 10
-75.0205
 20
35.1003
 11
-74.8167
 21
35.2972
  0
LINE
  8
0
 10
-74.8167
 20
35.2972
 11
-74.5996
 21
35.4793
  0
LINE
  8
0
 10
-74.5996
 20
35.4793
 11
-74.3703
 21
35.6459
  0
LINE
  8
0
 10
-74.3703
 20
35.6459
 11
-74.13
 21
35.7961
  0
LINE
  8
0
 10
-74.13
 20
35.7961
 11
-73.8798
 21
35.9291
  0
LINE
  8
0
 10
-73.8798
 20
35.9291
 11
-73.6209
 21
36.0444
  0
LINE
  8
0
 10
-73.6209
 20
36.0444
 11
-73.3546
 21
36.1413
  0
LINE
  8
0
 10
-73.3546
 20
36.1413
 11
-73.0822
 21
36.2194
  0
LINE
  8
0
 10
-73.0822
 20
36.2194
 11
-72.805
 21
36.2783
  0
LINE
  8
0
 10
-72.805
 20
36.2783
 11
-72.5244
 21
36.3177
  0
LINE
  8
0
 10
-72.5244
 20
36.3177
 11
-72.2417
 21
36.3375
  0
LINE
  8
0
 10
-72.2417
 20
36.3375
 11
-71.9583
 21
36.3375
  0
LINE
  8
0
 10
-71.9583
 20
36.3375
 11
-71.6756
 21
36.3177
  0
LINE
  8
0
 10
-71.6756
 20
36.3177
 11
-71.395
 21
36.2783
  0
LINE
  8
0
 10
-71.395
 20
36.2783
 11
-71.1178
 21
36.2194
  0
LINE
  8
0
 10
-71.1178
 20
36.2194
 11
-70.8454
 21
36.1413
  0
LINE
  8
0
 10
-70.8454
 20
36.1413
 11
-70.5791
 21
36.0444
  0
LINE
  8
0
 10
-70.5791
 20
36.0444
 11
-70.3202
 21
35.9291
  0
LINE
  8
0
 10
-70.3202
 20
35.9291
 11
-70.07
 21
35.7961
  0
LINE
  8
0
 10
-70.07
 20
35.7961
 11
-69.8297
 21
35.6459
  0
LINE
  8
0
 10
-69.8297
 20
35.6459
 11
-69.6004
 21
35.4793
  0
LINE
  8
0
 10
-69.6004
 20
35.4793
 11
-69.3833
 21
35.2972
  0
LINE
  8
0
 10
-69.3833
 20
35.2972
 11
-69.1795
 21
35.1003
  0
LINE
  8
0
 10
-69.1795
 20
35.1003
 11
-68.9899
 21
34.8897
  0
LINE
  8
0
 10
-68.9899
 20
34.8897
 11
-68.8154
 21
34.6664
  0
LINE
  8
0
 10
-68.8154
 20
34.6664
 11
-68.6569
 21
34.4315
  0
LINE
  8
0
 10
-68.6569
 20
34.4315
 11
-68.5152
 21
34.1861
  0
LINE
  8
0
 10
-68.5152
 20
34.1861
 11
-68.391
 21
33.9314
  0
LINE
  8
0
 10
-68.391
 20
33.9314
 11
-68.2849
 21
33.6686
  0
LINE
  8
0
 10
-68.2849
 20
33.6686
 11
-68.1973
 21
33.3991
  0
LINE
  8
0
 10
-68.1973
 20
33.3991
 11
-68.1287
 21
33.1241
  0
LINE
  8
0
 10
-68.1287
 20
33.1241
 11
-68.0795
 21
32.845
  0
LINE
  8
0
 10
-68.0795
 20
32.845
 11
-68.0499
 21
32.5632
  0
LINE
  8
0
 10
-68.0499
 20
32.5632
 11
-68.04
 21
32.28
  0
LINE
  8
0
 10
-68.04
 20
32.28
 11
-68.0499
 21
31.9968
  0
LINE
  8
0
 10
-68.0499
 20
31.9968
 11
-68.0795
 21
31.715
  0
LINE
  8
0
 10
-68.0795
 20
31.715
 11
-68.1287
 21
31.4359
  0
LINE
  8
0
 10
-68.1287
 20
31.4359
 11
-68.1973
 21
31.1609
  0
LINE
  8
0
 10
-68.1973
 20
31.1609
 11
-68.2849
 21
30.8914
  0
LINE
  8
0
 10
-68.2849
 20
30.8914
 11
-68.391
 21
30.6286
  0
LINE
  8
0
 10
-68.391
 20
30.6286
 11
-68.5152
 21
30.3739
  0
LINE
  8
0
 10
-68.5152
 20
30.3739
 11
-68.6569
 21
30.1285
  0
LINE
  8
0
 10
-68.6569
 20
30.1285
 11
-68.8154
 21
29.8936
  0
LINE
  8
0
 10
-68.8154
 20
29.8936
 11
-68.9899
 21
29.6703
  0
LINE
  8
0
 10
-68.9899
 20
29.6703
 11
-69.1795
 21
29.4597
  0
LINE
  8
0
 10
-69.1795
 20
29.4597
 11
-69.3833
 21
29.2628
  0
LINE
  8
0
 10
-69.3833
 20
29.2628
 11
-69.6004
 21
29.0807
  0
LINE
  8
0
 10
-69.6004
 20
29.0807
 11
-69.8297
 21
28.9141
  0
LINE
  8
0
 10
-69.8297
 20
28.9141
 11
-70.07
 21
28.7639
  0
LINE
  8
0
 10
-70.07
 20
28.7639
 11
-70.3202
 21
28.6309
  0
LINE
  8
0
 10
-70.3202
 20
28.6309
 11
-70.5791
 21
28.5156
  0
LINE
  8
0
 10
-70.5791
 20
28.5156
 11
-70.8454
 21
28.4187
  0
LINE
  8
0
 10
-70.8454
 20
28.4187
 11
-71.1178
 21
28.3406
  0
LINE
  8
0
 10
-71.1178
 20
28.3406
 11
-71.395
 21
28.2817
  0
LINE
  8
0
 10
-71.395
 20
28.2817
 11
-71.6756
 21
28.2422
  0
LINE
  8
0
 10
-71.6756
 20
28.2422
 11
-71.9583
 21
28.2225
  0
LINE
  8
0
 10
-71.9583
 20
28.2225
 11
-72.2417
 21
28.2225
  0
ENDSEC
  0
SECTION
  2
OBJECTS
  0
DICTIONARY
  0
ENDSEC
  0
EOF
