  0
SECTION
  2
BLOCKS
  0
ENDSEC
  0
SECTION
  2
ENTITIES
  0
LINE
  8
0
 10
-65.43
 20
-97.0173
 11
65.41
 21
-97.0173
  0
LINE
  8
0
 10
65.41
 20
-97.0173
 11
65.44
 21
-97
  0
LINE
  8
0
 10
65.44
 20
-97
 11
65.44
 21
97
  0
LINE
  8
0
 10
65.44
 20
97
 11
65.41
 21
97.0173
  0
LINE
  8
0
 10
65.41
 20
97.0173
 11
-65.43
 21
97.0173
  0
LINE
  8
0
 10
-65.43
 20
97.0173
 11
-65.43
 21
-97.0173
  0
LINE
  8
0
 10
-60.68
 20
-90.6
 11
-60.676
 21
-90.4842
  0
LINE
  8
0
 10
-60.676
 20
-90.4842
 11
-60.6638
 21
-90.369
  0
LINE
  8
0
 10
-60.6638
 20
-90.369
 11
-60.6437
 21
-90.2549
  0
LINE
  8
0
 10
-60.6437
 20
-90.2549
 11
-60.6157
 21
-90.1424
  0
LINE
  8
0
 10
-60.6157
 20
-90.1424
 11
-60.5799
 21
-90.0322
  0
LINE
  8
0
 10
-60.5799
 20
-90.0322
 11
-60.5365
 21
-89.9248
  0
LINE
  8
0
 10
-60.5365
 20
-89.9248
 11
-60.4857
 21
-89.8207
  0
LINE
  8
0
 10
-60.4857
 20
-89.8207
 11
-60.4278
 21
-89.7203
  0
LINE
  8
0
 10
-60.4278
 20
-89.7203
 11
-60.363
 21
-89.6243
  0
LINE
  8
0
 10
-60.363
 20
-89.6243
 11
-60.2916
 21
-89.533
  0
LINE
  8
0
 10
-60.2916
 20
-89.533
 11
-60.2141
 21
-89.4469
  0
LINE
  8
0
 10
-60.2141
 20
-89.4469
 11
-60.1308
 21
-89.3664
  0
LINE
  8
0
 10
-60.1308
 20
-89.3664
 11
-60.042
 21
-89.2919
  0
LINE
  8
0
 10
-60.042
 20
-89.2919
 11
-59.9483
 21
-89.2238
  0
LINE
  8
0
 10
-59.9483
 20
-89.2238
 11
-59.85
 21
-89.1624
  0
LINE
  8
0
 10
-59.85
 20
-89.1624
 11
-59.7477
 21
-89.108
  0
LINE
  8
0
 10
-59.7477
 20
-89.108
 11
-59.6418
 21
-89.0609
  0
LINE
  8
0
 10
-59.6418
 20
-89.0609
 11
-59.533
 21
-89.0212
  0
LINE
  8
0
 10
-59.533
 20
-89.0212
 11
-59.4216
 21
-88.9893
  0
LINE
  8
0
 10
-59.4216
 20
-88.9893
 11
-59.3083
 21
-88.9652
  0
LINE
  8
0
 10
-59.3083
 20
-88.9652
 11
-59.1935
 21
-88.9491
  0
LINE
  8
0
 10
-59.1935
 20
-88.9491
 11
-59.0779
 21
-88.941
  0
LINE
  8
0
 10
-59.0779
 20
-88.941
 11
-58.9621
 21
-88.941
  0
LINE
  8
0
 10
-58.9621
 20
-88.941
 11
-58.8465
 21
-88.9491
  0
LINE
  8
0
 10
-58.8465
 20
-88.9491
 11
-58.7317
 21
-88.9652
  0
LINE
  8
0
 10
-58.7317
 20
-88.9652
 11
-58.6184
 21
-88.9893
  0
LINE
  8
0
 10
-58.6184
 20
-88.9893
 11
-58.507
 21
-89.0212
  0
LINE
  8
0
 10
-58.507
 20
-89.0212
 11
-58.3982
 21
-89.0609
  0
LINE
  8
0
 10
-58.3982
 20
-89.0609
 11
-58.2923
 21
-89.108
  0
LINE
  8
0
 10
-58.2923
 20
-89.108
 11
-58.19
 21
-89.1624
  0
LINE
  8
0
 10
-58.19
 20
-89.1624
 11
-58.0917
 21
-89.2238
  0
LINE
  8
0
 10
-58.0917
 20
-89.2238
 11
-57.998
 21
-89.2919
  0
LINE
  8
0
 10
-57.998
 20
-89.2919
 11
-57.9092
 21
-89.3664
  0
LINE
  8
0
 10
-57.9092
 20
-89.3664
 11
-57.8259
 21
-89.4469
  0
LINE
  8
0
 10
-57.8259
 20
-89.4469
 11
-57.7484
 21
-89.533
  0
LINE
  8
0
 10
-57.7484
 20
-89.533
 11
-57.677
 21
-89.6243
  0
LINE
  8
0
 10
-57.677
 20
-89.6243
 11
-57.6122
 21
-89.7203
  0
LINE
  8
0
 10
-57.6122
 20
-89.7203
 11
-57.5543
 21
-89.8207
  0
LINE
  8
0
 10
-57.5543
 20
-89.8207
 11
-57.5035
 21
-89.9248
  0
LINE
  8
0
 10
-57.5035
 20
-89.9248
 11
-57.4601
 21
-90.0322
  0
LINE
  8
0
 10
-57.4601
 20
-90.0322
 11
-57.4243
 21
-90.1424
  0
LINE
  8
0
 10
-57.4243
 20
-90.1424
 11
-57.3963
 21
-90.2549
  0
LINE
  8
0
 10
-57.3963
 20
-90.2549
 11
-57.3762
 21
-90.369
  0
LINE
  8
0
 10
-57.3762
 20
-90.369
 11
-57.364
 21
-90.4842
  0
LINE
  8
0
 10
-57.364
 20
-90.4842
 11
-57.36
 21
-90.6
  0
LINE
  8
0
 10
-57.36
 20
-90.6
 11
-57.364
 21
-90.7158
  0
LINE
  8
0
 10
-57.364
 20
-90.7158
 11
-57.3762
 21
-90.831
  0
LINE
  8
0
 10
-57.3762
 20
-90.831
 11
-57.3963
 21
-90.9451
  0
LINE
  8
0
 10
-57.3963
 20
-90.9451
 11
-57.4243
 21
-91.0576
  0
LINE
  8
0
 10
-57.4243
 20
-91.0576
 11
-57.4601
 21
-91.1678
  0
LINE
  8
0
 10
-57.4601
 20
-91.1678
 11
-57.5035
 21
-91.2752
  0
LINE
  8
0
 10
-57.5035
 20
-91.2752
 11
-57.5543
 21
-91.3793
  0
LINE
  8
0
 10
-57.5543
 20
-91.3793
 11
-57.6122
 21
-91.4797
  0
LINE
  8
0
 10
-57.6122
 20
-91.4797
 11
-57.677
 21
-91.5757
  0
LINE
  8
0
 10
-57.677
 20
-91.5757
 11
-57.7484
 21
-91.667
  0
LINE
  8
0
 10
-57.7484
 20
-91.667
 11
-57.8259
 21
-91.7531
  0
LINE
  8
0
 10
-57.8259
 20
-91.7531
 11
-57.9092
 21
-91.8336
  0
LINE
  8
0
 10
-57.9092
 20
-91.8336
 11
-57.998
 21
-91.9081
  0
LINE
  8
0
 10
-57.998
 20
-91.9081
 11
-58.0917
 21
-91.9762
  0
LINE
  8
0
 10
-58.0917
 20
-91.9762
 11
-58.19
 21
-92.0376
  0
LINE
  8
0
 10
-58.19
 20
-92.0376
 11
-58.2923
 21
-92.092
  0
LINE
  8
0
 10
-58.2923
 20
-92.092
 11
-58.3982
 21
-92.1391
  0
LINE
  8
0
 10
-58.3982
 20
-92.1391
 11
-58.507
 21
-92.1788
  0
LINE
  8
0
 10
-58.507
 20
-92.1788
 11
-58.6184
 21
-92.2107
  0
LINE
  8
0
 10
-58.6184
 20
-92.2107
 11
-58.7317
 21
-92.2348
  0
LINE
  8
0
 10
-58.7317
 20
-92.2348
 11
-58.8465
 21
-92.2509
  0
LINE
  8
0
 10
-58.8465
 20
-92.2509
 11
-58.9621
 21
-92.259
  0
LINE
  8
0
 10
-58.9621
 20
-92.259
 11
-59.0779
 21
-92.259
  0
LINE
  8
0
 10
-59.0779
 20
-92.259
 11
-59.1935
 21
-92.2509
  0
LINE
  8
0
 10
-59.1935
 20
-92.2509
 11
-59.3083
 21
-92.2348
  0
LINE
  8
0
 10
-59.3083
 20
-92.2348
 11
-59.4216
 21
-92.2107
  0
LINE
  8
0
 10
-59.4216
 20
-92.2107
 11
-59.533
 21
-92.1788
  0
LINE
  8
0
 10
-59.533
 20
-92.1788
 11
-59.6418
 21
-92.1391
  0
LINE
  8
0
 10
-59.6418
 20
-92.1391
 11
-59.7477
 21
-92.092
  0
LINE
  8
0
 10
-59.7477
 20
-92.092
 11
-59.85
 21
-92.0376
  0
LINE
  8
0
 10
-59.85
 20
-92.0376
 11
-59.9483
 21
-91.9762
  0
LINE
  8
0
 10
-59.9483
 20
-91.9762
 11
-60.042
 21
-91.9081
  0
LINE
  8
0
 10
-60.042
 20
-91.9081
 11
-60.1308
 21
-91.8336
  0
LINE
  8
0
 10
-60.1308
 20
-91.8336
 11
-60.2141
 21
-91.7531
  0
LINE
  8
0
 10
-60.2141
 20
-91.7531
 11
-60.2916
 21
-91.667
  0
LINE
  8
0
 10
-60.2916
 20
-91.667
 11
-60.363
 21
-91.5757
  0
LINE
  8
0
 10
-60.363
 20
-91.5757
 11
-60.4278
 21
-91.4797
  0
LINE
  8
0
 10
-60.4278
 20
-91.4797
 11
-60.4857
 21
-91.3793
  0
LINE
  8
0
 10
-60.4857
 20
-91.3793
 11
-60.5365
 21
-91.2752
  0
LINE
  8
0
 10
-60.5365
 20
-91.2752
 11
-60.5799
 21
-91.1678
  0
LINE
  8
0
 10
-60.5799
 20
-91.1678
 11
-60.6157
 21
-91.0576
  0
LINE
  8
0
 10
-60.6157
 20
-91.0576
 11
-60.6437
 21
-90.9451
  0
LINE
  8
0
 10
-60.6437
 20
-90.9451
 11
-60.6638
 21
-90.831
  0
LINE
  8
0
 10
-60.6638
 20
-90.831
 11
-60.676
 21
-90.7158
  0
LINE
  8
0
 10
-60.676
 20
-90.7158
 11
-60.68
 21
-90.6
  0
LINE
  8
0
 10
-60.68
 20
90.6
 11
-60.676
 21
90.7158
  0
LINE
  8
0
 10
-60.676
 20
90.7158
 11
-60.6638
 21
90.831
  0
LINE
  8
0
 10
-60.6638
 20
90.831
 11
-60.6437
 21
90.9451
  0
LINE
  8
0
 10
-60.6437
 20
90.9451
 11
-60.6157
 21
91.0576
  0
LINE
  8
0
 10
-60.6157
 20
91.0576
 11
-60.5799
 21
91.1678
  0
LINE
  8
0
 10
-60.5799
 20
91.1678
 11
-60.5365
 21
91.2752
  0
LINE
  8
0
 10
-60.5365
 20
91.2752
 11
-60.4857
 21
91.3793
  0
LINE
  8
0
 10
-60.4857
 20
91.3793
 11
-60.4278
 21
91.4797
  0
LINE
  8
0
 10
-60.4278
 20
91.4797
 11
-60.363
 21
91.5757
  0
LINE
  8
0
 10
-60.363
 20
91.5757
 11
-60.2916
 21
91.667
  0
LINE
  8
0
 10
-60.2916
 20
91.667
 11
-60.2141
 21
91.7531
  0
LINE
  8
0
 10
-60.2141
 20
91.7531
 11
-60.1308
 21
91.8336
  0
LINE
  8
0
 10
-60.1308
 20
91.8336
 11
-60.042
 21
91.9081
  0
LINE
  8
0
 10
-60.042
 20
91.9081
 11
-59.9483
 21
91.9762
  0
LINE
  8
0
 10
-59.9483
 20
91.9762
 11
-59.85
 21
92.0376
  0
LINE
  8
0
 10
-59.85
 20
92.0376
 11
-59.7477
 21
92.092
  0
LINE
  8
0
 10
-59.7477
 20
92.092
 11
-59.6418
 21
92.1391
  0
LINE
  8
0
 10
-59.6418
 20
92.1391
 11
-59.533
 21
92.1788
  0
LINE
  8
0
 10
-59.533
 20
92.1788
 11
-59.4216
 21
92.2107
  0
LINE
  8
0
 10
-59.4216
 20
92.2107
 11
-59.3083
 21
92.2348
  0
LINE
  8
0
 10
-59.3083
 20
92.2348
 11
-59.1935
 21
92.2509
  0
LINE
  8
0
 10
-59.1935
 20
92.2509
 11
-59.0779
 21
92.259
  0
LINE
  8
0
 10
-59.0779
 20
92.259
 11
-58.9621
 21
92.259
  0
LINE
  8
0
 10
-58.9621
 20
92.259
 11
-58.8465
 21
92.2509
  0
LINE
  8
0
 10
-58.8465
 20
92.2509
 11
-58.7317
 21
92.2348
  0
LINE
  8
0
 10
-58.7317
 20
92.2348
 11
-58.6184
 21
92.2107
  0
LINE
  8
0
 10
-58.6184
 20
92.2107
 11
-58.507
 21
92.1788
  0
LINE
  8
0
 10
-58.507
 20
92.1788
 11
-58.3982
 21
92.1391
  0
LINE
  8
0
 10
-58.3982
 20
92.1391
 11
-58.2923
 21
92.092
  0
LINE
  8
0
 10
-58.2923
 20
92.092
 11
-58.19
 21
92.0376
  0
LINE
  8
0
 10
-58.19
 20
92.0376
 11
-58.0917
 21
91.9762
  0
LINE
  8
0
 10
-58.0917
 20
91.9762
 11
-57.998
 21
91.9081
  0
LINE
  8
0
 10
-57.998
 20
91.9081
 11
-57.9092
 21
91.8336
  0
LINE
  8
0
 10
-57.9092
 20
91.8336
 11
-57.8259
 21
91.7531
  0
LINE
  8
0
 10
-57.8259
 20
91.7531
 11
-57.7484
 21
91.667
  0
LINE
  8
0
 10
-57.7484
 20
91.667
 11
-57.677
 21
91.5757
  0
LINE
  8
0
 10
-57.677
 20
91.5757
 11
-57.6122
 21
91.4797
  0
LINE
  8
0
 10
-57.6122
 20
91.4797
 11
-57.5543
 21
91.3793
  0
LINE
  8
0
 10
-57.5543
 20
91.3793
 11
-57.5035
 21
91.2752
  0
LINE
  8
0
 10
-57.5035
 20
91.2752
 11
-57.4601
 21
91.1678
  0
LINE
  8
0
 10
-57.4601
 20
91.1678
 11
-57.4243
 21
91.0576
  0
LINE
  8
0
 10
-57.4243
 20
91.0576
 11
-57.3963
 21
90.9451
  0
LINE
  8
0
 10
-57.3963
 20
90.9451
 11
-57.3762
 21
90.831
  0
LINE
  8
0
 10
-57.3762
 20
90.831
 11
-57.364
 21
90.7158
  0
LINE
  8
0
 10
-57.364
 20
90.7158
 11
-57.36
 21
90.6
  0
LINE
  8
0
 10
-57.36
 20
90.6
 11
-57.364
 21
90.4842
  0
LINE
  8
0
 10
-57.364
 20
90.4842
 11
-57.3762
 21
90.369
  0
LINE
  8
0
 10
-57.3762
 20
90.369
 11
-57.3963
 21
90.2549
  0
LINE
  8
0
 10
-57.3963
 20
90.2549
 11
-57.4243
 21
90.1424
  0
LINE
  8
0
 10
-57.4243
 20
90.1424
 11
-57.4601
 21
90.0322
  0
LINE
  8
0
 10
-57.4601
 20
90.0322
 11
-57.5035
 21
89.9248
  0
LINE
  8
0
 10
-57.5035
 20
89.9248
 11
-57.5543
 21
89.8207
  0
LINE
  8
0
 10
-57.5543
 20
89.8207
 11
-57.6122
 21
89.7203
  0
LINE
  8
0
 10
-57.6122
 20
89.7203
 11
-57.677
 21
89.6243
  0
LINE
  8
0
 10
-57.677
 20
89.6243
 11
-57.7484
 21
89.533
  0
LINE
  8
0
 10
-57.7484
 20
89.533
 11
-57.8259
 21
89.4469
  0
LINE
  8
0
 10
-57.8259
 20
89.4469
 11
-57.9092
 21
89.3664
  0
LINE
  8
0
 10
-57.9092
 20
89.3664
 11
-57.998
 21
89.2919
  0
LINE
  8
0
 10
-57.998
 20
89.2919
 11
-58.0917
 21
89.2238
  0
LINE
  8
0
 10
-58.0917
 20
89.2238
 11
-58.19
 21
89.1624
  0
LINE
  8
0
 10
-58.19
 20
89.1624
 11
-58.2923
 21
89.108
  0
LINE
  8
0
 10
-58.2923
 20
89.108
 11
-58.3982
 21
89.0609
  0
LINE
  8
0
 10
-58.3982
 20
89.0609
 11
-58.507
 21
89.0212
  0
LINE
  8
0
 10
-58.507
 20
89.0212
 11
-58.6184
 21
88.9893
  0
LINE
  8
0
 10
-58.6184
 20
88.9893
 11
-58.7317
 21
88.9652
  0
LINE
  8
0
 10
-58.7317
 20
88.9652
 11
-58.8465
 21
88.9491
  0
LINE
  8
0
 10
-58.8465
 20
88.9491
 11
-58.9621
 21
88.941
  0
LINE
  8
0
 10
-58.9621
 20
88.941
 11
-59.0779
 21
88.941
  0
LINE
  8
0
 10
-59.0779
 20
88.941
 11
-59.1935
 21
88.9491
  0
LINE
  8
0
 10
-59.1935
 20
88.9491
 11
-59.3083
 21
88.9652
  0
LINE
  8
0
 10
-59.3083
 20
88.9652
 11
-59.4216
 21
88.9893
  0
LINE
  8
0
 10
-59.4216
 20
88.9893
 11
-59.533
 21
89.0212
  0
LINE
  8
0
 10
-59.533
 20
89.0212
 11
-59.6418
 21
89.0609
  0
LINE
  8
0
 10
-59.6418
 20
89.0609
 11
-59.7477
 21
89.108
  0
LINE
  8
0
 10
-59.7477
 20
89.108
 11
-59.85
 21
89.1624
  0
LINE
  8
0
 10
-59.85
 20
89.1624
 11
-59.9483
 21
89.2238
  0
LINE
  8
0
 10
-59.9483
 20
89.2238
 11
-60.042
 21
89.2919
  0
LINE
  8
0
 10
-60.042
 20
89.2919
 11
-60.1308
 21
89.3664
  0
LINE
  8
0
 10
-60.1308
 20
89.3664
 11
-60.2141
 21
89.4469
  0
LINE
  8
0
 10
-60.2141
 20
89.4469
 11
-60.2916
 21
89.533
  0
LINE
  8
0
 10
-60.2916
 20
89.533
 11
-60.363
 21
89.6243
  0
LINE
  8
0
 10
-60.363
 20
89.6243
 11
-60.4278
 21
89.7203
  0
LINE
  8
0
 10
-60.4278
 20
89.7203
 11
-60.4857
 21
89.8207
  0
LINE
  8
0
 10
-60.4857
 20
89.8207
 11
-60.5365
 21
89.9248
  0
LINE
  8
0
 10
-60.5365
 20
89.9248
 11
-60.5799
 21
90.0322
  0
LINE
  8
0
 10
-60.5799
 20
90.0322
 11
-60.6157
 21
90.1424
  0
LINE
  8
0
 10
-60.6157
 20
90.1424
 11
-60.6437
 21
90.2549
  0
LINE
  8
0
 10
-60.6437
 20
90.2549
 11
-60.6638
 21
90.369
  0
LINE
  8
0
 10
-60.6638
 20
90.369
 11
-60.676
 21
90.4842
  0
LINE
  8
0
 10
-60.676
 20
90.4842
 11
-60.68
 21
90.6
  0
LINE
  8
0
 10
-53
 20
-85
 11
-53
 21
82
  0
LINE
  8
0
 10
-53
 20
82
 11
50.5
 21
82
  0
LINE
  8
0
 10
50.5
 20
82
 11
50.5
 21
-85
  0
LINE
  8
0
 10
50.5
 20
-85
 11
-53
 21
-85
  0
LINE
  8
0
 10
57.36
 20
-90.6
 11
57.364
 21
-90.4842
  0
LINE
  8
0
 10
57.364
 20
-90.4842
 11
57.3762
 21
-90.369
  0
LINE
  8
0
 10
57.3762
 20
-90.369
 11
57.3963
 21
-90.2549
  0
LINE
  8
0
 10
57.3963
 20
-90.2549
 11
57.4243
 21
-90.1424
  0
LINE
  8
0
 10
57.4243
 20
-90.1424
 11
57.4601
 21
-90.0322
  0
LINE
  8
0
 10
57.4601
 20
-90.0322
 11
57.5035
 21
-89.9248
  0
LINE
  8
0
 10
57.5035
 20
-89.9248
 11
57.5543
 21
-89.8207
  0
LINE
  8
0
 10
57.5543
 20
-89.8207
 11
57.6122
 21
-89.7203
  0
LINE
  8
0
 10
57.6122
 20
-89.7203
 11
57.677
 21
-89.6243
  0
LINE
  8
0
 10
57.677
 20
-89.6243
 11
57.7484
 21
-89.533
  0
LINE
  8
0
 10
57.7484
 20
-89.533
 11
57.8259
 21
-89.4469
  0
LINE
  8
0
 10
57.8259
 20
-89.4469
 11
57.9092
 21
-89.3664
  0
LINE
  8
0
 10
57.9092
 20
-89.3664
 11
57.998
 21
-89.2919
  0
LINE
  8
0
 10
57.998
 20
-89.2919
 11
58.0917
 21
-89.2238
  0
LINE
  8
0
 10
58.0917
 20
-89.2238
 11
58.19
 21
-89.1624
  0
LINE
  8
0
 10
58.19
 20
-89.1624
 11
58.2923
 21
-89.108
  0
LINE
  8
0
 10
58.2923
 20
-89.108
 11
58.3982
 21
-89.0609
  0
LINE
  8
0
 10
58.3982
 20
-89.0609
 11
58.507
 21
-89.0212
  0
LINE
  8
0
 10
58.507
 20
-89.0212
 11
58.6184
 21
-88.9893
  0
LINE
  8
0
 10
58.6184
 20
-88.9893
 11
58.7317
 21
-88.9652
  0
LINE
  8
0
 10
58.7317
 20
-88.9652
 11
58.8465
 21
-88.9491
  0
LINE
  8
0
 10
58.8465
 20
-88.9491
 11
58.9621
 21
-88.941
  0
LINE
  8
0
 10
58.9621
 20
-88.941
 11
59.0779
 21
-88.941
  0
LINE
  8
0
 10
59.0779
 20
-88.941
 11
59.1935
 21
-88.9491
  0
LINE
  8
0
 10
59.1935
 20
-88.9491
 11
59.3083
 21
-88.9652
  0
LINE
  8
0
 10
59.3083
 20
-88.9652
 11
59.4216
 21
-88.9893
  0
LINE
  8
0
 10
59.4216
 20
-88.9893
 11
59.533
 21
-89.0212
  0
LINE
  8
0
 10
59.533
 20
-89.0212
 11
59.6418
 21
-89.0609
  0
LINE
  8
0
 10
59.6418
 20
-89.0609
 11
59.7477
 21
-89.108
  0
LINE
  8
0
 10
59.7477
 20
-89.108
 11
59.85
 21
-89.1624
  0
LINE
  8
0
 10
59.85
 20
-89.1624
 11
59.9483
 21
-89.2238
  0
LINE
  8
0
 10
59.9483
 20
-89.2238
 11
60.042
 21
-89.2919
  0
LINE
  8
0
 10
60.042
 20
-89.2919
 11
60.1308
 21
-89.3664
  0
LINE
  8
0
 10
60.1308
 20
-89.3664
 11
60.2141
 21
-89.4469
  0
LINE
  8
0
 10
60.2141
 20
-89.4469
 11
60.2916
 21
-89.533
  0
LINE
  8
0
 10
60.2916
 20
-89.533
 11
60.363
 21
-89.6243
  0
LINE
  8
0
 10
60.363
 20
-89.6243
 11
60.4278
 21
-89.7203
  0
LINE
  8
0
 10
60.4278
 20
-89.7203
 11
60.4857
 21
-89.8207
  0
LINE
  8
0
 10
60.4857
 20
-89.8207
 11
60.5365
 21
-89.9248
  0
LINE
  8
0
 10
60.5365
 20
-89.9248
 11
60.5799
 21
-90.0322
  0
LINE
  8
0
 10
60.5799
 20
-90.0322
 11
60.6157
 21
-90.1424
  0
LINE
  8
0
 10
60.6157
 20
-90.1424
 11
60.6437
 21
-90.2549
  0
LINE
  8
0
 10
60.6437
 20
-90.2549
 11
60.6638
 21
-90.369
  0
LINE
  8
0
 10
60.6638
 20
-90.369
 11
60.676
 21
-90.4842
  0
LINE
  8
0
 10
60.676
 20
-90.4842
 11
60.68
 21
-90.6
  0
LINE
  8
0
 10
60.68
 20
-90.6
 11
60.676
 21
-90.7158
  0
LINE
  8
0
 10
60.676
 20
-90.7158
 11
60.6638
 21
-90.831
  0
LINE
  8
0
 10
60.6638
 20
-90.831
 11
60.6437
 21
-90.9451
  0
LINE
  8
0
 10
60.6437
 20
-90.9451
 11
60.6157
 21
-91.0576
  0
LINE
  8
0
 10
60.6157
 20
-91.0576
 11
60.5799
 21
-91.1678
  0
LINE
  8
0
 10
60.5799
 20
-91.1678
 11
60.5365
 21
-91.2752
  0
LINE
  8
0
 10
60.5365
 20
-91.2752
 11
60.4857
 21
-91.3793
  0
LINE
  8
0
 10
60.4857
 20
-91.3793
 11
60.4278
 21
-91.4797
  0
LINE
  8
0
 10
60.4278
 20
-91.4797
 11
60.363
 21
-91.5757
  0
LINE
  8
0
 10
60.363
 20
-91.5757
 11
60.2916
 21
-91.667
  0
LINE
  8
0
 10
60.2916
 20
-91.667
 11
60.2141
 21
-91.7531
  0
LINE
  8
0
 10
60.2141
 20
-91.7531
 11
60.1308
 21
-91.8336
  0
LINE
  8
0
 10
60.1308
 20
-91.8336
 11
60.042
 21
-91.9081
  0
LINE
  8
0
 10
60.042
 20
-91.9081
 11
59.9483
 21
-91.9762
  0
LINE
  8
0
 10
59.9483
 20
-91.9762
 11
59.85
 21
-92.0376
  0
LINE
  8
0
 10
59.85
 20
-92.0376
 11
59.7477
 21
-92.092
  0
LINE
  8
0
 10
59.7477
 20
-92.092
 11
59.6418
 21
-92.1391
  0
LINE
  8
0
 10
59.6418
 20
-92.1391
 11
59.533
 21
-92.1788
  0
LINE
  8
0
 10
59.533
 20
-92.1788
 11
59.4216
 21
-92.2107
  0
LINE
  8
0
 10
59.4216
 20
-92.2107
 11
59.3083
 21
-92.2348
  0
LINE
  8
0
 10
59.3083
 20
-92.2348
 11
59.1935
 21
-92.2509
  0
LINE
  8
0
 10
59.1935
 20
-92.2509
 11
59.0779
 21
-92.259
  0
LINE
  8
0
 10
59.0779
 20
-92.259
 11
58.9621
 21
-92.259
  0
LINE
  8
0
 10
58.9621
 20
-92.259
 11
58.8465
 21
-92.2509
  0
LINE
  8
0
 10
58.8465
 20
-92.2509
 11
58.7317
 21
-92.2348
  0
LINE
  8
0
 10
58.7317
 20
-92.2348
 11
58.6184
 21
-92.2107
  0
LINE
  8
0
 10
58.6184
 20
-92.2107
 11
58.507
 21
-92.1788
  0
LINE
  8
0
 10
58.507
 20
-92.1788
 11
58.3982
 21
-92.1391
  0
LINE
  8
0
 10
58.3982
 20
-92.1391
 11
58.2923
 21
-92.092
  0
LINE
  8
0
 10
58.2923
 20
-92.092
 11
58.19
 21
-92.0376
  0
LINE
  8
0
 10
58.19
 20
-92.0376
 11
58.0917
 21
-91.9762
  0
LINE
  8
0
 10
58.0917
 20
-91.9762
 11
57.998
 21
-91.9081
  0
LINE
  8
0
 10
57.998
 20
-91.9081
 11
57.9092
 21
-91.8336
  0
LINE
  8
0
 10
57.9092
 20
-91.8336
 11
57.8259
 21
-91.7531
  0
LINE
  8
0
 10
57.8259
 20
-91.7531
 11
57.7484
 21
-91.667
  0
LINE
  8
0
 10
57.7484
 20
-91.667
 11
57.677
 21
-91.5757
  0
LINE
  8
0
 10
57.677
 20
-91.5757
 11
57.6122
 21
-91.4797
  0
LINE
  8
0
 10
57.6122
 20
-91.4797
 11
57.5543
 21
-91.3793
  0
LINE
  8
0
 10
57.5543
 20
-91.3793
 11
57.5035
 21
-91.2752
  0
LINE
  8
0
 10
57.5035
 20
-91.2752
 11
57.4601
 21
-91.1678
  0
LINE
  8
0
 10
57.4601
 20
-91.1678
 11
57.4243
 21
-91.0576
  0
LINE
  8
0
 10
57.4243
 20
-91.0576
 11
57.3963
 21
-90.9451
  0
LINE
  8
0
 10
57.3963
 20
-90.9451
 11
57.3762
 21
-90.831
  0
LINE
  8
0
 10
57.3762
 20
-90.831
 11
57.364
 21
-90.7158
  0
LINE
  8
0
 10
57.364
 20
-90.7158
 11
57.36
 21
-90.6
  0
LINE
  8
0
 10
57.36
 20
90.6
 11
57.364
 21
90.7158
  0
LINE
  8
0
 10
57.364
 20
90.7158
 11
57.3762
 21
90.831
  0
LINE
  8
0
 10
57.3762
 20
90.831
 11
57.3963
 21
90.9451
  0
LINE
  8
0
 10
57.3963
 20
90.9451
 11
57.4243
 21
91.0576
  0
LINE
  8
0
 10
57.4243
 20
91.0576
 11
57.4601
 21
91.1678
  0
LINE
  8
0
 10
57.4601
 20
91.1678
 11
57.5035
 21
91.2752
  0
LINE
  8
0
 10
57.5035
 20
91.2752
 11
57.5543
 21
91.3793
  0
LINE
  8
0
 10
57.5543
 20
91.3793
 11
57.6122
 21
91.4797
  0
LINE
  8
0
 10
57.6122
 20
91.4797
 11
57.677
 21
91.5757
  0
LINE
  8
0
 10
57.677
 20
91.5757
 11
57.7484
 21
91.667
  0
LINE
  8
0
 10
57.7484
 20
91.667
 11
57.8259
 21
91.7531
  0
LINE
  8
0
 10
57.8259
 20
91.7531
 11
57.9092
 21
91.8336
  0
LINE
  8
0
 10
57.9092
 20
91.8336
 11
57.998
 21
91.9081
  0
LINE
  8
0
 10
57.998
 20
91.9081
 11
58.0917
 21
91.9762
  0
LINE
  8
0
 10
58.0917
 20
91.9762
 11
58.19
 21
92.0376
  0
LINE
  8
0
 10
58.19
 20
92.0376
 11
58.2923
 21
92.092
  0
LINE
  8
0
 10
58.2923
 20
92.092
 11
58.3982
 21
92.1391
  0
LINE
  8
0
 10
58.3982
 20
92.1391
 11
58.507
 21
92.1788
  0
LINE
  8
0
 10
58.507
 20
92.1788
 11
58.6184
 21
92.2107
  0
LINE
  8
0
 10
58.6184
 20
92.2107
 11
58.7317
 21
92.2348
  0
LINE
  8
0
 10
58.7317
 20
92.2348
 11
58.8465
 21
92.2509
  0
LINE
  8
0
 10
58.8465
 20
92.2509
 11
58.9621
 21
92.259
  0
LINE
  8
0
 10
58.9621
 20
92.259
 11
59.0779
 21
92.259
  0
LINE
  8
0
 10
59.0779
 20
92.259
 11
59.1935
 21
92.2509
  0
LINE
  8
0
 10
59.1935
 20
92.2509
 11
59.3083
 21
92.2348
  0
LINE
  8
0
 10
59.3083
 20
92.2348
 11
59.4216
 21
92.2107
  0
LINE
  8
0
 10
59.4216
 20
92.2107
 11
59.533
 21
92.1788
  0
LINE
  8
0
 10
59.533
 20
92.1788
 11
59.6418
 21
92.1391
  0
LINE
  8
0
 10
59.6418
 20
92.1391
 11
59.7477
 21
92.092
  0
LINE
  8
0
 10
59.7477
 20
92.092
 11
59.85
 21
92.0376
  0
LINE
  8
0
 10
59.85
 20
92.0376
 11
59.9483
 21
91.9762
  0
LINE
  8
0
 10
59.9483
 20
91.9762
 11
60.042
 21
91.9081
  0
LINE
  8
0
 10
60.042
 20
91.9081
 11
60.1308
 21
91.8336
  0
LINE
  8
0
 10
60.1308
 20
91.8336
 11
60.2141
 21
91.7531
  0
LINE
  8
0
 10
60.2141
 20
91.7531
 11
60.2916
 21
91.667
  0
LINE
  8
0
 10
60.2916
 20
91.667
 11
60.363
 21
91.5757
  0
LINE
  8
0
 10
60.363
 20
91.5757
 11
60.4278
 21
91.4797
  0
LINE
  8
0
 10
60.4278
 20
91.4797
 11
60.4857
 21
91.3793
  0
LINE
  8
0
 10
60.4857
 20
91.3793
 11
60.5365
 21
91.2752
  0
LINE
  8
0
 10
60.5365
 20
91.2752
 11
60.5799
 21
91.1678
  0
LINE
  8
0
 10
60.5799
 20
91.1678
 11
60.6157
 21
91.0576
  0
LINE
  8
0
 10
60.6157
 20
91.0576
 11
60.6437
 21
90.9451
  0
LINE
  8
0
 10
60.6437
 20
90.9451
 11
60.6638
 21
90.831
  0
LINE
  8
0
 10
60.6638
 20
90.831
 11
60.676
 21
90.7158
  0
LINE
  8
0
 10
60.676
 20
90.7158
 11
60.68
 21
90.6
  0
LINE
  8
0
 10
60.68
 20
90.6
 11
60.676
 21
90.4842
  0
LINE
  8
0
 10
60.676
 20
90.4842
 11
60.6638
 21
90.369
  0
LINE
  8
0
 10
60.6638
 20
90.369
 11
60.6437
 21
90.2549
  0
LINE
  8
0
 10
60.6437
 20
90.2549
 11
60.6157
 21
90.1424
  0
LINE
  8
0
 10
60.6157
 20
90.1424
 11
60.5799
 21
90.0322
  0
LINE
  8
0
 10
60.5799
 20
90.0322
 11
60.5365
 21
89.9248
  0
LINE
  8
0
 10
60.5365
 20
89.9248
 11
60.4857
 21
89.8207
  0
LINE
  8
0
 10
60.4857
 20
89.8207
 11
60.4278
 21
89.7203
  0
LINE
  8
0
 10
60.4278
 20
89.7203
 11
60.363
 21
89.6243
  0
LINE
  8
0
 10
60.363
 20
89.6243
 11
60.2916
 21
89.533
  0
LINE
  8
0
 10
60.2916
 20
89.533
 11
60.2141
 21
89.4469
  0
LINE
  8
0
 10
60.2141
 20
89.4469
 11
60.1308
 21
89.3664
  0
LINE
  8
0
 10
60.1308
 20
89.3664
 11
60.042
 21
89.2919
  0
LINE
  8
0
 10
60.042
 20
89.2919
 11
59.9483
 21
89.2238
  0
LINE
  8
0
 10
59.9483
 20
89.2238
 11
59.85
 21
89.1624
  0
LINE
  8
0
 10
59.85
 20
89.1624
 11
59.7477
 21
89.108
  0
LINE
  8
0
 10
59.7477
 20
89.108
 11
59.6418
 21
89.0609
  0
LINE
  8
0
 10
59.6418
 20
89.0609
 11
59.533
 21
89.0212
  0
LINE
  8
0
 10
59.533
 20
89.0212
 11
59.4216
 21
88.9893
  0
LINE
  8
0
 10
59.4216
 20
88.9893
 11
59.3083
 21
88.9652
  0
LINE
  8
0
 10
59.3083
 20
88.9652
 11
59.1935
 21
88.9491
  0
LINE
  8
0
 10
59.1935
 20
88.9491
 11
59.0779
 21
88.941
  0
LINE
  8
0
 10
59.0779
 20
88.941
 11
58.9621
 21
88.941
  0
LINE
  8
0
 10
58.9621
 20
88.941
 11
58.8465
 21
88.9491
  0
LINE
  8
0
 10
58.8465
 20
88.9491
 11
58.7317
 21
88.9652
  0
LINE
  8
0
 10
58.7317
 20
88.9652
 11
58.6184
 21
88.9893
  0
LINE
  8
0
 10
58.6184
 20
88.9893
 11
58.507
 21
89.0212
  0
LINE
  8
0
 10
58.507
 20
89.0212
 11
58.3982
 21
89.0609
  0
LINE
  8
0
 10
58.3982
 20
89.0609
 11
58.2923
 21
89.108
  0
LINE
  8
0
 10
58.2923
 20
89.108
 11
58.19
 21
89.1624
  0
LINE
  8
0
 10
58.19
 20
89.1624
 11
58.0917
 21
89.2238
  0
LINE
  8
0
 10
58.0917
 20
89.2238
 11
57.998
 21
89.2919
  0
LINE
  8
0
 10
57.998
 20
89.2919
 11
57.9092
 21
89.3664
  0
LINE
  8
0
 10
57.9092
 20
89.3664
 11
57.8259
 21
89.4469
  0
LINE
  8
0
 10
57.8259
 20
89.4469
 11
57.7484
 21
89.533
  0
LINE
  8
0
 10
57.7484
 20
89.533
 11
57.677
 21
89.6243
  0
LINE
  8
0
 10
57.677
 20
89.6243
 11
57.6122
 21
89.7203
  0
LINE
  8
0
 10
57.6122
 20
89.7203
 11
57.5543
 21
89.8207
  0
LINE
  8
0
 10
57.5543
 20
89.8207
 11
57.5035
 21
89.9248
  0
LINE
  8
0
 10
57.5035
 20
89.9248
 11
57.4601
 21
90.0322
  0
LINE
  8
0
 10
57.4601
 20
90.0322
 11
57.4243
 21
90.1424
  0
LINE
  8
0
 10
57.4243
 20
90.1424
 11
57.3963
 21
90.2549
  0
LINE
  8
0
 10
57.3963
 20
90.2549
 11
57.3762
 21
90.369
  0
LINE
  8
0
 10
57.3762
 20
90.369
 11
57.364
 21
90.4842
  0
LINE
  8
0
 10
57.364
 20
90.4842
 11
57.36
 21
90.6
  0
ENDSEC
  0
SECTION
  2
OBJECTS
  0
DICTIONARY
  0
ENDSEC
  0
EOF
