  0
SECTION
  2
BLOCKS
  0
ENDSEC
  0
SECTION
  2
ENTITIES
  0
LINE
  8
0
 10
-40.8
 20
0
 11
-40.7441
 21
-2.13531
  0
LINE
  8
0
 10
-40.7441
 20
-2.13531
 11
-40.5765
 21
-4.26476
  0
LINE
  8
0
 10
-40.5765
 20
-4.26476
 11
-40.2977
 21
-6.38253
  0
LINE
  8
0
 10
-40.2977
 20
-6.38253
 11
-39.9084
 21
-8.4828
  0
LINE
  8
0
 10
-39.9084
 20
-8.4828
 11
-39.4098
 21
-10.5598
  0
LINE
  8
0
 10
-39.4098
 20
-10.5598
 11
-38.8031
 21
-12.6079
  0
LINE
  8
0
 10
-38.8031
 20
-12.6079
 11
-38.0901
 21
-14.6214
  0
LINE
  8
0
 10
-38.0901
 20
-14.6214
 11
-37.2727
 21
-16.5949
  0
LINE
  8
0
 10
-37.2727
 20
-16.5949
 11
-36.3531
 21
-18.5228
  0
LINE
  8
0
 10
-36.3531
 20
-18.5228
 11
-35.3338
 21
-20.4
  0
LINE
  8
0
 10
-35.3338
 20
-20.4
 11
-34.2178
 21
-22.2213
  0
LINE
  8
0
 10
-34.2178
 20
-22.2213
 11
-33.0079
 21
-23.9816
  0
LINE
  8
0
 10
-33.0079
 20
-23.9816
 11
-31.7076
 21
-25.6763
  0
LINE
  8
0
 10
-31.7076
 20
-25.6763
 11
-30.3203
 21
-27.3005
  0
LINE
  8
0
 10
-30.3203
 20
-27.3005
 11
-28.85
 21
-28.85
  0
LINE
  8
0
 10
-28.85
 20
-28.85
 11
-27.3005
 21
-30.3203
  0
LINE
  8
0
 10
-27.3005
 20
-30.3203
 11
-25.6763
 21
-31.7076
  0
LINE
  8
0
 10
-25.6763
 20
-31.7076
 11
-23.9816
 21
-33.0079
  0
LINE
  8
0
 10
-23.9816
 20
-33.0079
 11
-22.2213
 21
-34.2178
  0
LINE
  8
0
 10
-22.2213
 20
-34.2178
 11
-20.4
 21
-35.3338
  0
LINE
  8
0
 10
-20.4
 20
-35.3338
 11
-18.5228
 21
-36.3531
  0
LINE
  8
0
 10
-18.5228
 20
-36.3531
 11
-16.5949
 21
-37.2727
  0
LINE
  8
0
 10
-16.5949
 20
-37.2727
 11
-14.6214
 21
-38.0901
  0
LINE
  8
0
 10
-14.6214
 20
-38.0901
 11
-12.6079
 21
-38.8031
  0
LINE
  8
0
 10
-12.6079
 20
-38.8031
 11
-10.5598
 21
-39.4098
  0
LINE
  8
0
 10
-10.5598
 20
-39.4098
 11
-8.4828
 21
-39.9084
  0
LINE
  8
0
 10
-8.4828
 20
-39.9084
 11
-6.38253
 21
-40.2977
  0
LINE
  8
0
 10
-6.38253
 20
-40.2977
 11
-4.26476
 21
-40.5765
  0
LINE
  8
0
 10
-4.26476
 20
-40.5765
 11
-2.13531
 21
-40.7441
  0
LINE
  8
0
 10
-2.13531
 20
-40.7441
 11
0
 21
-40.8
  0
LINE
  8
0
 10
0
 20
-40.8
 11
2.13531
 21
-40.7441
  0
LINE
  8
0
 10
2.13531
 20
-40.7441
 11
4.26476
 21
-40.5765
  0
LINE
  8
0
 10
4.26476
 20
-40.5765
 11
6.38253
 21
-40.2977
  0
LINE
  8
0
 10
6.38253
 20
-40.2977
 11
8.4828
 21
-39.9084
  0
LINE
  8
0
 10
8.4828
 20
-39.9084
 11
10.5598
 21
-39.4098
  0
LINE
  8
0
 10
10.5598
 20
-39.4098
 11
12.6079
 21
-38.8031
  0
LINE
  8
0
 10
12.6079
 20
-38.8031
 11
14.6214
 21
-38.0901
  0
LINE
  8
0
 10
14.6214
 20
-38.0901
 11
16.5949
 21
-37.2727
  0
LINE
  8
0
 10
16.5949
 20
-37.2727
 11
18.5228
 21
-36.3531
  0
LINE
  8
0
 10
18.5228
 20
-36.3531
 11
20.4
 21
-35.3338
  0
LINE
  8
0
 10
20.4
 20
-35.3338
 11
22.2213
 21
-34.2178
  0
LINE
  8
0
 10
22.2213
 20
-34.2178
 11
23.9816
 21
-33.0079
  0
LINE
  8
0
 10
23.9816
 20
-33.0079
 11
25.6763
 21
-31.7076
  0
LINE
  8
0
 10
25.6763
 20
-31.7076
 11
27.3005
 21
-30.3203
  0
LINE
  8
0
 10
27.3005
 20
-30.3203
 11
28.85
 21
-28.85
  0
LINE
  8
0
 10
28.85
 20
-28.85
 11
30.3203
 21
-27.3005
  0
LINE
  8
0
 10
30.3203
 20
-27.3005
 11
31.7076
 21
-25.6763
  0
LINE
  8
0
 10
31.7076
 20
-25.6763
 11
33.0079
 21
-23.9816
  0
LINE
  8
0
 10
33.0079
 20
-23.9816
 11
34.2178
 21
-22.2213
  0
LINE
  8
0
 10
34.2178
 20
-22.2213
 11
35.3338
 21
-20.4
  0
LINE
  8
0
 10
35.3338
 20
-20.4
 11
36.3531
 21
-18.5228
  0
LINE
  8
0
 10
36.3531
 20
-18.5228
 11
37.2727
 21
-16.5949
  0
LINE
  8
0
 10
37.2727
 20
-16.5949
 11
38.0901
 21
-14.6214
  0
LINE
  8
0
 10
38.0901
 20
-14.6214
 11
38.8031
 21
-12.6079
  0
LINE
  8
0
 10
38.8031
 20
-12.6079
 11
39.4098
 21
-10.5598
  0
LINE
  8
0
 10
39.4098
 20
-10.5598
 11
39.9084
 21
-8.4828
  0
LINE
  8
0
 10
39.9084
 20
-8.4828
 11
40.2977
 21
-6.38253
  0
LINE
  8
0
 10
40.2977
 20
-6.38253
 11
40.5765
 21
-4.26476
  0
LINE
  8
0
 10
40.5765
 20
-4.26476
 11
40.7441
 21
-2.13531
  0
LINE
  8
0
 10
40.7441
 20
-2.13531
 11
40.8
 21
0
  0
LINE
  8
0
 10
40.8
 20
0
 11
40.7441
 21
2.13531
  0
LINE
  8
0
 10
40.7441
 20
2.13531
 11
40.5765
 21
4.26476
  0
LINE
  8
0
 10
40.5765
 20
4.26476
 11
40.2977
 21
6.38253
  0
LINE
  8
0
 10
40.2977
 20
6.38253
 11
39.9084
 21
8.4828
  0
LINE
  8
0
 10
39.9084
 20
8.4828
 11
39.4098
 21
10.5598
  0
LINE
  8
0
 10
39.4098
 20
10.5598
 11
38.8031
 21
12.6079
  0
LINE
  8
0
 10
38.8031
 20
12.6079
 11
38.0901
 21
14.6214
  0
LINE
  8
0
 10
38.0901
 20
14.6214
 11
37.2727
 21
16.5949
  0
LINE
  8
0
 10
37.2727
 20
16.5949
 11
36.3531
 21
18.5228
  0
LINE
  8
0
 10
36.3531
 20
18.5228
 11
35.3338
 21
20.4
  0
LINE
  8
0
 10
35.3338
 20
20.4
 11
34.2178
 21
22.2213
  0
LINE
  8
0
 10
34.2178
 20
22.2213
 11
33.0079
 21
23.9816
  0
LINE
  8
0
 10
33.0079
 20
23.9816
 11
31.7076
 21
25.6763
  0
LINE
  8
0
 10
31.7076
 20
25.6763
 11
30.3203
 21
27.3005
  0
LINE
  8
0
 10
30.3203
 20
27.3005
 11
28.85
 21
28.85
  0
LINE
  8
0
 10
28.85
 20
28.85
 11
27.3005
 21
30.3203
  0
LINE
  8
0
 10
27.3005
 20
30.3203
 11
25.6763
 21
31.7076
  0
LINE
  8
0
 10
25.6763
 20
31.7076
 11
23.9816
 21
33.0079
  0
LINE
  8
0
 10
23.9816
 20
33.0079
 11
22.2213
 21
34.2178
  0
LINE
  8
0
 10
22.2213
 20
34.2178
 11
20.4
 21
35.3338
  0
LINE
  8
0
 10
20.4
 20
35.3338
 11
18.5228
 21
36.3531
  0
LINE
  8
0
 10
18.5228
 20
36.3531
 11
16.5949
 21
37.2727
  0
LINE
  8
0
 10
16.5949
 20
37.2727
 11
14.6214
 21
38.0901
  0
LINE
  8
0
 10
14.6214
 20
38.0901
 11
12.6079
 21
38.8031
  0
LINE
  8
0
 10
12.6079
 20
38.8031
 11
10.5598
 21
39.4098
  0
LINE
  8
0
 10
10.5598
 20
39.4098
 11
8.4828
 21
39.9084
  0
LINE
  8
0
 10
8.4828
 20
39.9084
 11
6.38253
 21
40.2977
  0
LINE
  8
0
 10
6.38253
 20
40.2977
 11
4.26476
 21
40.5765
  0
LINE
  8
0
 10
4.26476
 20
40.5765
 11
2.13531
 21
40.7441
  0
LINE
  8
0
 10
2.13531
 20
40.7441
 11
0
 21
40.8
  0
LINE
  8
0
 10
0
 20
40.8
 11
-2.13531
 21
40.7441
  0
LINE
  8
0
 10
-2.13531
 20
40.7441
 11
-4.26476
 21
40.5765
  0
LINE
  8
0
 10
-4.26476
 20
40.5765
 11
-6.38253
 21
40.2977
  0
LINE
  8
0
 10
-6.38253
 20
40.2977
 11
-8.4828
 21
39.9084
  0
LINE
  8
0
 10
-8.4828
 20
39.9084
 11
-10.5598
 21
39.4098
  0
LINE
  8
0
 10
-10.5598
 20
39.4098
 11
-12.6079
 21
38.8031
  0
LINE
  8
0
 10
-12.6079
 20
38.8031
 11
-14.6214
 21
38.0901
  0
LINE
  8
0
 10
-14.6214
 20
38.0901
 11
-16.5949
 21
37.2727
  0
LINE
  8
0
 10
-16.5949
 20
37.2727
 11
-18.5228
 21
36.3531
  0
LINE
  8
0
 10
-18.5228
 20
36.3531
 11
-20.4
 21
35.3338
  0
LINE
  8
0
 10
-20.4
 20
35.3338
 11
-22.2213
 21
34.2178
  0
LINE
  8
0
 10
-22.2213
 20
34.2178
 11
-23.9816
 21
33.0079
  0
LINE
  8
0
 10
-23.9816
 20
33.0079
 11
-25.6763
 21
31.7076
  0
LINE
  8
0
 10
-25.6763
 20
31.7076
 11
-27.3005
 21
30.3203
  0
LINE
  8
0
 10
-27.3005
 20
30.3203
 11
-28.85
 21
28.85
  0
LINE
  8
0
 10
-28.85
 20
28.85
 11
-30.3203
 21
27.3005
  0
LINE
  8
0
 10
-30.3203
 20
27.3005
 11
-31.7076
 21
25.6763
  0
LINE
  8
0
 10
-31.7076
 20
25.6763
 11
-33.0079
 21
23.9816
  0
LINE
  8
0
 10
-33.0079
 20
23.9816
 11
-34.2178
 21
22.2213
  0
LINE
  8
0
 10
-34.2178
 20
22.2213
 11
-35.3338
 21
20.4
  0
LINE
  8
0
 10
-35.3338
 20
20.4
 11
-36.3531
 21
18.5228
  0
LINE
  8
0
 10
-36.3531
 20
18.5228
 11
-37.2727
 21
16.5949
  0
LINE
  8
0
 10
-37.2727
 20
16.5949
 11
-38.0901
 21
14.6214
  0
LINE
  8
0
 10
-38.0901
 20
14.6214
 11
-38.8031
 21
12.6079
  0
LINE
  8
0
 10
-38.8031
 20
12.6079
 11
-39.4098
 21
10.5598
  0
LINE
  8
0
 10
-39.4098
 20
10.5598
 11
-39.9084
 21
8.4828
  0
LINE
  8
0
 10
-39.9084
 20
8.4828
 11
-40.2977
 21
6.38253
  0
LINE
  8
0
 10
-40.2977
 20
6.38253
 11
-40.5765
 21
4.26476
  0
LINE
  8
0
 10
-40.5765
 20
4.26476
 11
-40.7441
 21
2.13531
  0
LINE
  8
0
 10
-40.7441
 20
2.13531
 11
-40.8
 21
0
  0
LINE
  8
0
 10
-39.5273
 20
0.495453
 11
-39.3174
 21
1.59561
  0
LINE
  8
0
 10
-39.3174
 20
1.59561
 11
-36.8421
 21
1.12341
  0
LINE
  8
0
 10
-36.8421
 20
1.12341
 11
-37.0519
 21
0.0232515
  0
LINE
  8
0
 10
-37.0519
 20
0.0232515
 11
-39.5273
 21
0.495453
  0
LINE
  8
0
 10
-39.4804
 20
-1.98746
 11
-39.34
 21
-0.876295
  0
LINE
  8
0
 10
-39.34
 20
-0.876295
 11
-36.8399
 21
-1.19213
  0
LINE
  8
0
 10
-36.8399
 20
-1.19213
 11
-36.9803
 21
-2.3033
  0
LINE
  8
0
 10
-36.9803
 20
-2.3033
 11
-39.4804
 21
-1.98746
  0
LINE
  8
0
 10
-39.4182
 20
2.97641
 11
-39.1397
 21
4.06123
  0
LINE
  8
0
 10
-39.1397
 20
4.06123
 11
-36.6988
 21
3.43453
  0
LINE
  8
0
 10
-36.6988
 20
3.43453
 11
-36.9774
 21
2.34972
  0
LINE
  8
0
 10
-36.9774
 20
2.34972
 11
-39.4182
 21
2.97641
  0
LINE
  8
0
 10
-39.2777
 20
-4.46254
 11
-39.2074
 21
-3.34475
  0
LINE
  8
0
 10
-39.2074
 20
-3.34475
 11
-36.6924
 21
-3.50298
  0
LINE
  8
0
 10
-36.6924
 20
-3.50298
 11
-36.7627
 21
-4.62077
  0
LINE
  8
0
 10
-36.7627
 20
-4.62077
 11
-39.2777
 21
-4.46254
  0
LINE
  8
0
 10
-39.1535
 20
5.44563
 11
-38.8074
 21
6.51081
  0
LINE
  8
0
 10
-38.8074
 20
6.51081
 11
-36.4108
 21
5.73209
  0
LINE
  8
0
 10
-36.4108
 20
5.73209
 11
-36.7569
 21
4.66691
  0
LINE
  8
0
 10
-36.7569
 20
4.66691
 11
-39.1535
 21
5.44563
  0
LINE
  8
0
 10
-38.92
 20
-6.92
 11
-38.92
 21
-5.8
  0
LINE
  8
0
 10
-38.92
 20
-5.8
 11
-36.4
 21
-5.8
  0
LINE
  8
0
 10
-36.4
 20
-5.8
 11
-36.4
 21
-6.92
  0
LINE
  8
0
 10
-36.4
 20
-6.92
 11
-38.92
 21
-6.92
  0
LINE
  8
0
 10
-38.7343
 20
7.89335
 11
-38.322
 21
8.9347
  0
LINE
  8
0
 10
-38.322
 20
8.9347
 11
-35.979
 21
8.00703
  0
LINE
  8
0
 10
-35.979
 20
8.00703
 11
-36.3913
 21
6.96568
  0
LINE
  8
0
 10
-36.3913
 20
6.96568
 11
-38.7343
 21
7.89335
  0
LINE
  8
0
 10
-38.479
 20
-8.23236
 11
-35.964
 21
-8.07413
  0
LINE
  8
0
 10
-35.964
 20
-8.07413
 11
-35.8937
 21
-9.19192
  0
LINE
  8
0
 10
-35.8937
 20
-9.19192
 11
-38.4087
 21
-9.35015
  0
LINE
  8
0
 10
-38.4087
 20
-9.35015
 11
-38.479
 21
-8.23236
  0
LINE
  8
0
 10
-38.1623
 20
10.3099
 11
-37.6854
 21
11.3233
  0
LINE
  8
0
 10
-37.6854
 20
11.3233
 11
-35.4052
 21
10.2504
  0
LINE
  8
0
 10
-35.4052
 20
10.2504
 11
-35.8821
 21
9.23696
  0
LINE
  8
0
 10
-35.8821
 20
9.23696
 11
-38.1623
 21
10.3099
  0
LINE
  8
0
 10
-37.8862
 20
-10.6322
 11
-35.386
 21
-10.3164
  0
LINE
  8
0
 10
-35.386
 20
-10.3164
 11
-35.2457
 21
-11.4276
  0
LINE
  8
0
 10
-35.2457
 20
-11.4276
 11
-37.7458
 21
-11.7434
  0
LINE
  8
0
 10
-37.7458
 20
-11.7434
 11
-37.8862
 21
-10.6322
  0
LINE
  8
0
 10
-37.4396
 20
12.6858
 11
-36.9
 21
13.6673
  0
LINE
  8
0
 10
-36.9
 20
13.6673
 11
-34.6917
 21
12.4533
  0
LINE
  8
0
 10
-34.6917
 20
12.4533
 11
-35.2313
 21
11.4718
  0
LINE
  8
0
 10
-35.2313
 20
11.4718
 11
-37.4396
 21
12.6858
  0
LINE
  8
0
 10
-37.1438
 20
-12.9901
 11
-34.6684
 21
-12.5179
  0
LINE
  8
0
 10
-34.6684
 20
-12.5179
 11
-34.4586
 21
-13.6181
  0
LINE
  8
0
 10
-34.4586
 20
-13.6181
 11
-36.9339
 21
-14.0903
  0
LINE
  8
0
 10
-36.9339
 20
-14.0903
 11
-37.1438
 21
-12.9901
  0
LINE
  8
0
 10
-36.5692
 20
15.0116
 11
-35.969
 21
15.9573
  0
LINE
  8
0
 10
-35.969
 20
15.9573
 11
-33.8413
 21
14.607
  0
LINE
  8
0
 10
-33.8413
 20
14.607
 11
-34.4415
 21
13.6613
  0
LINE
  8
0
 10
-34.4415
 20
13.6613
 11
-36.5692
 21
15.0116
  0
LINE
  8
0
 10
-36.2549
 20
-15.2968
 11
-33.814
 21
-14.6701
  0
LINE
  8
0
 10
-33.814
 20
-14.6701
 11
-33.5355
 21
-15.7549
  0
LINE
  8
0
 10
-33.5355
 20
-15.7549
 11
-35.9763
 21
-16.3816
  0
LINE
  8
0
 10
-35.9763
 20
-16.3816
 11
-36.2549
 21
-15.2968
  0
LINE
  8
0
 10
-35.92
 20
-0.559999
 11
-35.92
 21
0.559999
  0
LINE
  8
0
 10
-35.92
 20
0.559999
 11
-33.4
 21
0.559999
  0
LINE
  8
0
 10
-33.4
 20
0.559999
 11
-33.4
 21
-0.559999
  0
LINE
  8
0
 10
-33.4
 20
-0.559999
 11
-35.92
 21
-0.559999
  0
LINE
  8
0
 10
-35.5544
 20
17.2782
 11
-34.8961
 21
18.1843
  0
LINE
  8
0
 10
-34.8961
 20
18.1843
 11
-32.8574
 21
16.7031
  0
LINE
  8
0
 10
-32.8574
 20
16.7031
 11
-33.5157
 21
15.797
  0
LINE
  8
0
 10
-33.5157
 20
15.797
 11
-35.5544
 21
17.2782
  0
LINE
  8
0
 10
-35.2228
 20
-17.5431
 11
-32.8262
 21
-16.7643
  0
LINE
  8
0
 10
-32.8262
 20
-16.7643
 11
-32.4801
 21
-17.8295
  0
LINE
  8
0
 10
-32.4801
 20
-17.8295
 11
-34.8767
 21
-18.6083
  0
LINE
  8
0
 10
-34.8767
 20
-18.6083
 11
-35.2228
 21
-17.5431
  0
LINE
  8
0
 10
-34.3993
 20
19.4766
 11
-33.6854
 21
20.3396
  0
LINE
  8
0
 10
-33.6854
 20
20.3396
 11
-31.7437
 21
18.7333
  0
LINE
  8
0
 10
-31.7437
 20
18.7333
 11
-32.4577
 21
17.8703
  0
LINE
  8
0
 10
-32.4577
 20
17.8703
 11
-34.3993
 21
19.4766
  0
LINE
  8
0
 10
-34.0518
 20
-19.7201
 11
-31.7087
 21
-18.7924
  0
LINE
  8
0
 10
-31.7087
 20
-18.7924
 11
-31.2964
 21
-19.8338
  0
LINE
  8
0
 10
-31.2964
 20
-19.8338
 11
-33.6395
 21
-20.7615
  0
LINE
  8
0
 10
-33.6395
 20
-20.7615
 11
-34.0518
 21
-19.7201
  0
LINE
  8
0
 10
-33.1085
 20
21.5981
 11
-32.3418
 21
22.4146
  0
LINE
  8
0
 10
-32.3418
 20
22.4146
 11
-30.5048
 21
20.6895
  0
LINE
  8
0
 10
-30.5048
 20
20.6895
 11
-31.2715
 21
19.8731
  0
LINE
  8
0
 10
-31.2715
 20
19.8731
 11
-33.1085
 21
21.5981
  0
LINE
  8
0
 10
-32.7463
 20
-21.8193
 11
-30.4662
 21
-20.7464
  0
LINE
  8
0
 10
-30.4662
 20
-20.7464
 11
-29.9893
 21
-21.7598
  0
LINE
  8
0
 10
-29.9893
 20
-21.7598
 11
-32.2695
 21
-22.8327
  0
LINE
  8
0
 10
-32.2695
 20
-22.8327
 11
-32.7463
 21
-21.8193
  0
LINE
  8
0
 10
-31.687
 20
23.6344
 11
-30.8706
 21
24.4011
  0
LINE
  8
0
 10
-30.8706
 20
24.4011
 11
-29.1455
 21
22.5641
  0
LINE
  8
0
 10
-29.1455
 20
22.5641
 11
-29.962
 21
21.7974
  0
LINE
  8
0
 10
-29.962
 20
21.7974
 11
-31.687
 21
23.6344
  0
LINE
  8
0
 10
-31.3117
 20
-23.8324
 11
-29.1034
 21
-22.6184
  0
LINE
  8
0
 10
-29.1034
 20
-22.6184
 11
-28.5638
 21
-23.5999
  0
LINE
  8
0
 10
-28.5638
 20
-23.5999
 11
-30.7721
 21
-24.8139
  0
LINE
  8
0
 10
-30.7721
 20
-24.8139
 11
-31.3117
 21
-23.8324
  0
LINE
  8
0
 10
-30.1405
 20
25.5774
 11
-29.2775
 21
26.2913
  0
LINE
  8
0
 10
-29.2775
 20
26.2913
 11
-27.6712
 21
24.3496
  0
LINE
  8
0
 10
-27.6712
 20
24.3496
 11
-28.5342
 21
23.6357
  0
LINE
  8
0
 10
-28.5342
 20
23.6357
 11
-30.1405
 21
25.5774
  0
LINE
  8
0
 10
-29.7534
 20
-25.7515
 11
-27.6257
 21
-24.4012
  0
LINE
  8
0
 10
-27.6257
 20
-24.4012
 11
-27.0256
 21
-25.3468
  0
LINE
  8
0
 10
-27.0256
 20
-25.3468
 11
-29.1533
 21
-26.6971
  0
LINE
  8
0
 10
-29.1533
 20
-26.6971
 11
-29.7534
 21
-25.7515
  0
LINE
  8
0
 10
-28.475
 20
27.4195
 11
-27.5689
 21
28.0778
  0
LINE
  8
0
 10
-27.5689
 20
28.0778
 11
-26.0877
 21
26.0391
  0
LINE
  8
0
 10
-26.0877
 20
26.0391
 11
-26.9938
 21
25.3807
  0
LINE
  8
0
 10
-26.9938
 20
25.3807
 11
-28.475
 21
27.4195
  0
LINE
  8
0
 10
-28.0778
 20
-27.5689
 11
-26.0391
 21
-26.0877
  0
LINE
  8
0
 10
-26.0391
 20
-26.0877
 11
-25.3807
 21
-26.9938
  0
LINE
  8
0
 10
-25.3807
 20
-26.9938
 11
-27.4195
 21
-28.475
  0
LINE
  8
0
 10
-27.4195
 20
-28.475
 11
-28.0778
 21
-27.5689
  0
LINE
  8
0
 10
-26.6971
 20
29.1533
 11
-25.7515
 21
29.7534
  0
LINE
  8
0
 10
-25.7515
 20
29.7534
 11
-24.4012
 21
27.6257
  0
LINE
  8
0
 10
-24.4012
 20
27.6257
 11
-25.3468
 21
27.0256
  0
LINE
  8
0
 10
-25.3468
 20
27.0256
 11
-26.6971
 21
29.1533
  0
LINE
  8
0
 10
-26.2913
 20
-29.2775
 11
-24.3496
 21
-27.6712
  0
LINE
  8
0
 10
-24.3496
 20
-27.6712
 11
-23.6357
 21
-28.5342
  0
LINE
  8
0
 10
-23.6357
 20
-28.5342
 11
-25.5774
 21
-30.1405
  0
LINE
  8
0
 10
-25.5774
 20
-30.1405
 11
-26.2913
 21
-29.2775
  0
LINE
  8
0
 10
-24.8139
 20
30.7721
 11
-23.8324
 21
31.3117
  0
LINE
  8
0
 10
-23.8324
 20
31.3117
 11
-22.6184
 21
29.1034
  0
LINE
  8
0
 10
-22.6184
 20
29.1034
 11
-23.5999
 21
28.5638
  0
LINE
  8
0
 10
-23.5999
 20
28.5638
 11
-24.8139
 21
30.7721
  0
LINE
  8
0
 10
-24.4011
 20
-30.8706
 11
-22.5641
 21
-29.1455
  0
LINE
  8
0
 10
-22.5641
 20
-29.1455
 11
-21.7974
 21
-29.962
  0
LINE
  8
0
 10
-21.7974
 20
-29.962
 11
-23.6344
 21
-31.687
  0
LINE
  8
0
 10
-23.6344
 20
-31.687
 11
-24.4011
 21
-30.8706
  0
LINE
  8
0
 10
-22.8327
 20
32.2695
 11
-21.8193
 21
32.7463
  0
LINE
  8
0
 10
-21.8193
 20
32.7463
 11
-20.7464
 21
30.4662
  0
LINE
  8
0
 10
-20.7464
 20
30.4662
 11
-21.7598
 21
29.9893
  0
LINE
  8
0
 10
-21.7598
 20
29.9893
 11
-22.8327
 21
32.2695
  0
LINE
  8
0
 10
-22.4146
 20
-32.3418
 11
-20.6895
 21
-30.5048
  0
LINE
  8
0
 10
-20.6895
 20
-30.5048
 11
-19.8731
 21
-31.2715
  0
LINE
  8
0
 10
-19.8731
 20
-31.2715
 11
-21.5981
 21
-33.1085
  0
LINE
  8
0
 10
-21.5981
 20
-33.1085
 11
-22.4146
 21
-32.3418
  0
LINE
  8
0
 10
-20.7615
 20
33.6395
 11
-19.7201
 21
34.0518
  0
LINE
  8
0
 10
-19.7201
 20
34.0518
 11
-18.7924
 21
31.7087
  0
LINE
  8
0
 10
-18.7924
 20
31.7087
 11
-19.8338
 21
31.2964
  0
LINE
  8
0
 10
-19.8338
 20
31.2964
 11
-20.7615
 21
33.6395
  0
LINE
  8
0
 10
-20.3396
 20
-33.6854
 11
-18.7333
 21
-31.7437
  0
LINE
  8
0
 10
-18.7333
 20
-31.7437
 11
-17.8703
 21
-32.4577
  0
LINE
  8
0
 10
-17.8703
 20
-32.4577
 11
-19.4766
 21
-34.3993
  0
LINE
  8
0
 10
-19.4766
 20
-34.3993
 11
-20.3396
 21
-33.6854
  0
LINE
  8
0
 10
-18.6083
 20
34.8767
 11
-17.5431
 21
35.2228
  0
LINE
  8
0
 10
-17.5431
 20
35.2228
 11
-16.7643
 21
32.8262
  0
LINE
  8
0
 10
-16.7643
 20
32.8262
 11
-17.8295
 21
32.4801
  0
LINE
  8
0
 10
-17.8295
 20
32.4801
 11
-18.6083
 21
34.8767
  0
LINE
  8
0
 10
-18.1843
 20
-34.8961
 11
-16.7031
 21
-32.8574
  0
LINE
  8
0
 10
-16.7031
 20
-32.8574
 11
-15.797
 21
-33.5157
  0
LINE
  8
0
 10
-15.797
 20
-33.5157
 11
-17.2782
 21
-35.5544
  0
LINE
  8
0
 10
-17.2782
 20
-35.5544
 11
-18.1843
 21
-34.8961
  0
LINE
  8
0
 10
-16.3816
 20
35.9763
 11
-15.2968
 21
36.2549
  0
LINE
  8
0
 10
-15.2968
 20
36.2549
 11
-14.6701
 21
33.814
  0
LINE
  8
0
 10
-14.6701
 20
33.814
 11
-15.7549
 21
33.5355
  0
LINE
  8
0
 10
-15.7549
 20
33.5355
 11
-16.3816
 21
35.9763
  0
LINE
  8
0
 10
-15.9573
 20
-35.969
 11
-14.607
 21
-33.8413
  0
LINE
  8
0
 10
-14.607
 20
-33.8413
 11
-13.6613
 21
-34.4415
  0
LINE
  8
0
 10
-13.6613
 20
-34.4415
 11
-15.0116
 21
-36.5692
  0
LINE
  8
0
 10
-15.0116
 20
-36.5692
 11
-15.9573
 21
-35.969
  0
LINE
  8
0
 10
-14.0903
 20
36.9339
 11
-12.9901
 21
37.1438
  0
LINE
  8
0
 10
-12.9901
 20
37.1438
 11
-12.5179
 21
34.6684
  0
LINE
  8
0
 10
-12.5179
 20
34.6684
 11
-13.6181
 21
34.4586
  0
LINE
  8
0
 10
-13.6181
 20
34.4586
 11
-14.0903
 21
36.9339
  0
LINE
  8
0
 10
-13.6673
 20
-36.9
 11
-12.4533
 21
-34.6917
  0
LINE
  8
0
 10
-12.4533
 20
-34.6917
 11
-11.4718
 21
-35.2313
  0
LINE
  8
0
 10
-11.4718
 20
-35.2313
 11
-12.6858
 21
-37.4396
  0
LINE
  8
0
 10
-12.6858
 20
-37.4396
 11
-13.6673
 21
-36.9
  0
LINE
  8
0
 10
-11.7434
 20
37.7458
 11
-10.6322
 21
37.8862
  0
LINE
  8
0
 10
-10.6322
 20
37.8862
 11
-10.3164
 21
35.386
  0
LINE
  8
0
 10
-10.3164
 20
35.386
 11
-11.4276
 21
35.2457
  0
LINE
  8
0
 10
-11.4276
 20
35.2457
 11
-11.7434
 21
37.7458
  0
LINE
  8
0
 10
-11.3233
 20
-37.6854
 11
-10.2504
 21
-35.4052
  0
LINE
  8
0
 10
-10.2504
 20
-35.4052
 11
-9.23696
 21
-35.8821
  0
LINE
  8
0
 10
-9.23696
 20
-35.8821
 11
-10.3099
 21
-38.1623
  0
LINE
  8
0
 10
-10.3099
 20
-38.1623
 11
-11.3233
 21
-37.6854
  0
LINE
  8
0
 10
-9.35015
 20
38.4087
 11
-8.23236
 21
38.479
  0
LINE
  8
0
 10
-8.23236
 20
38.479
 11
-8.07413
 21
35.964
  0
LINE
  8
0
 10
-8.07413
 20
35.964
 11
-9.19192
 21
35.8937
  0
LINE
  8
0
 10
-9.19192
 20
35.8937
 11
-9.35015
 21
38.4087
  0
LINE
  8
0
 10
-8.9347
 20
-38.322
 11
-8.00703
 21
-35.979
  0
LINE
  8
0
 10
-8.00703
 20
-35.979
 11
-6.96568
 21
-36.3913
  0
LINE
  8
0
 10
-6.96568
 20
-36.3913
 11
-7.89335
 21
-38.7343
  0
LINE
  8
0
 10
-7.89335
 20
-38.7343
 11
-8.9347
 21
-38.322
  0
LINE
  8
0
 10
-6.92
 20
36.4
 11
-6.92
 21
38.92
  0
LINE
  8
0
 10
-6.92
 20
38.92
 11
-5.8
 21
38.92
  0
LINE
  8
0
 10
-5.8
 20
38.92
 11
-5.8
 21
36.4
  0
LINE
  8
0
 10
-5.8
 20
36.4
 11
-6.92
 21
36.4
  0
LINE
  8
0
 10
-6.51081
 20
-38.8074
 11
-5.73209
 21
-36.4108
  0
LINE
  8
0
 10
-5.73209
 20
-36.4108
 11
-4.66691
 21
-36.7569
  0
LINE
  8
0
 10
-4.66691
 20
-36.7569
 11
-5.44563
 21
-39.1535
  0
LINE
  8
0
 10
-5.44563
 20
-39.1535
 11
-6.51081
 21
-38.8074
  0
LINE
  8
0
 10
-4.62077
 20
36.7627
 11
-4.46254
 21
39.2777
  0
LINE
  8
0
 10
-4.46254
 20
39.2777
 11
-3.34475
 21
39.2074
  0
LINE
  8
0
 10
-3.34475
 20
39.2074
 11
-3.50298
 21
36.6924
  0
LINE
  8
0
 10
-3.50298
 20
36.6924
 11
-4.62077
 21
36.7627
  0
LINE
  8
0
 10
-4.28
 20
-22
 11
-2.14
 21
-18.2934
  0
LINE
  8
0
 10
-2.14
 20
-18.2934
 11
2.14
 21
-18.2934
  0
LINE
  8
0
 10
2.14
 20
-18.2934
 11
4.28
 21
-22
  0
LINE
  8
0
 10
4.28
 20
-22
 11
2.14
 21
-25.7066
  0
LINE
  8
0
 10
2.14
 20
-25.7066
 11
-2.14
 21
-25.7066
  0
LINE
  8
0
 10
-2.14
 20
-25.7066
 11
-4.28
 21
-22
  0
LINE
  8
0
 10
-4.28
 20
22
 11
-2.14
 21
25.7066
  0
LINE
  8
0
 10
-2.14
 20
25.7066
 11
2.14
 21
25.7066
  0
LINE
  8
0
 10
2.14
 20
25.7066
 11
4.28
 21
22
  0
LINE
  8
0
 10
4.28
 20
22
 11
2.14
 21
18.2934
  0
LINE
  8
0
 10
2.14
 20
18.2934
 11
-2.14
 21
18.2934
  0
LINE
  8
0
 10
-2.14
 20
18.2934
 11
-4.28
 21
22
  0
LINE
  8
0
 10
-4.06123
 20
-39.1397
 11
-3.43453
 21
-36.6988
  0
LINE
  8
0
 10
-3.43453
 20
-36.6988
 11
-2.34972
 21
-36.9774
  0
LINE
  8
0
 10
-2.34972
 20
-36.9774
 11
-2.97641
 21
-39.4182
  0
LINE
  8
0
 10
-2.97641
 20
-39.4182
 11
-4.06123
 21
-39.1397
  0
LINE
  8
0
 10
-3.12
 20
0
 11
-3.1124
 21
0.21764
  0
LINE
  8
0
 10
-3.1124
 20
0.21764
 11
-3.08964
 21
0.434219
  0
LINE
  8
0
 10
-3.08964
 20
0.434219
 11
-3.05182
 21
0.648684
  0
LINE
  8
0
 10
-3.05182
 20
0.648684
 11
-2.99914
 21
0.859988
  0
LINE
  8
0
 10
-2.99914
 20
0.859988
 11
-2.93184
 21
1.0671
  0
LINE
  8
0
 10
-2.93184
 20
1.0671
 11
-2.85026
 21
1.26902
  0
LINE
  8
0
 10
-2.85026
 20
1.26902
 11
-2.7548
 21
1.46475
  0
LINE
  8
0
 10
-2.7548
 20
1.46475
 11
-2.64591
 21
1.65335
  0
LINE
  8
0
 10
-2.64591
 20
1.65335
 11
-2.52413
 21
1.83389
  0
LINE
  8
0
 10
-2.52413
 20
1.83389
 11
-2.39006
 21
2.0055
  0
LINE
  8
0
 10
-2.39006
 20
2.0055
 11
-2.24434
 21
2.16733
  0
LINE
  8
0
 10
-2.24434
 20
2.16733
 11
-2.08769
 21
2.31861
  0
LINE
  8
0
 10
-2.08769
 20
2.31861
 11
-1.92086
 21
2.45859
  0
LINE
  8
0
 10
-1.92086
 20
2.45859
 11
-1.74468
 21
2.5866
  0
LINE
  8
0
 10
-1.74468
 20
2.5866
 11
-1.56
 21
2.702
  0
LINE
  8
0
 10
-1.56
 20
2.702
 11
-1.36772
 21
2.80424
  0
LINE
  8
0
 10
-1.36772
 20
2.80424
 11
-1.16877
 21
2.89281
  0
LINE
  8
0
 10
-1.16877
 20
2.89281
 11
-0.964132
 21
2.9673
  0
LINE
  8
0
 10
-0.964132
 20
2.9673
 11
-0.754796
 21
3.02732
  0
LINE
  8
0
 10
-0.754796
 20
3.02732
 11
-0.541781
 21
3.0726
  0
LINE
  8
0
 10
-0.541781
 20
3.0726
 11
-0.326128
 21
3.10291
  0
LINE
  8
0
 10
-0.326128
 20
3.10291
 11
-0.108886
 21
3.1181
  0
LINE
  8
0
 10
-0.108886
 20
3.1181
 11
0.108886
 21
3.1181
  0
LINE
  8
0
 10
0.108886
 20
3.1181
 11
0.326128
 21
3.10291
  0
LINE
  8
0
 10
0.326128
 20
3.10291
 11
0.541781
 21
3.0726
  0
LINE
  8
0
 10
0.541781
 20
3.0726
 11
0.754796
 21
3.02732
  0
LINE
  8
0
 10
0.754796
 20
3.02732
 11
0.964132
 21
2.9673
  0
LINE
  8
0
 10
0.964132
 20
2.9673
 11
1.16877
 21
2.89281
  0
LINE
  8
0
 10
1.16877
 20
2.89281
 11
1.36772
 21
2.80424
  0
LINE
  8
0
 10
1.36772
 20
2.80424
 11
1.56
 21
2.702
  0
LINE
  8
0
 10
1.56
 20
2.702
 11
1.74468
 21
2.5866
  0
LINE
  8
0
 10
1.74468
 20
2.5866
 11
1.92086
 21
2.45859
  0
LINE
  8
0
 10
1.92086
 20
2.45859
 11
2.08769
 21
2.31861
  0
LINE
  8
0
 10
2.08769
 20
2.31861
 11
2.24434
 21
2.16733
  0
LINE
  8
0
 10
2.24434
 20
2.16733
 11
2.39006
 21
2.0055
  0
LINE
  8
0
 10
2.39006
 20
2.0055
 11
2.52413
 21
1.83389
  0
LINE
  8
0
 10
2.52413
 20
1.83389
 11
2.64591
 21
1.65335
  0
LINE
  8
0
 10
2.64591
 20
1.65335
 11
2.7548
 21
1.46475
  0
LINE
  8
0
 10
2.7548
 20
1.46475
 11
2.85026
 21
1.26902
  0
LINE
  8
0
 10
2.85026
 20
1.26902
 11
2.93184
 21
1.0671
  0
LINE
  8
0
 10
2.93184
 20
1.0671
 11
2.99914
 21
0.859988
  0
LINE
  8
0
 10
2.99914
 20
0.859988
 11
3.05182
 21
0.648684
  0
LINE
  8
0
 10
3.05182
 20
0.648684
 11
3.08964
 21
0.434219
  0
LINE
  8
0
 10
3.08964
 20
0.434219
 11
3.1124
 21
0.21764
  0
LINE
  8
0
 10
3.1124
 20
0.21764
 11
3.12
 21
0
  0
LINE
  8
0
 10
3.12
 20
0
 11
3.1124
 21
-0.21764
  0
LINE
  8
0
 10
3.1124
 20
-0.21764
 11
3.08964
 21
-0.434219
  0
LINE
  8
0
 10
3.08964
 20
-0.434219
 11
3.05182
 21
-0.648684
  0
LINE
  8
0
 10
3.05182
 20
-0.648684
 11
2.99914
 21
-0.859988
  0
LINE
  8
0
 10
2.99914
 20
-0.859988
 11
2.93184
 21
-1.0671
  0
LINE
  8
0
 10
2.93184
 20
-1.0671
 11
2.85026
 21
-1.26902
  0
LINE
  8
0
 10
2.85026
 20
-1.26902
 11
2.7548
 21
-1.46475
  0
LINE
  8
0
 10
2.7548
 20
-1.46475
 11
2.64591
 21
-1.65335
  0
LINE
  8
0
 10
2.64591
 20
-1.65335
 11
2.52413
 21
-1.83389
  0
LINE
  8
0
 10
2.52413
 20
-1.83389
 11
2.39006
 21
-2.0055
  0
LINE
  8
0
 10
2.39006
 20
-2.0055
 11
2.24434
 21
-2.16733
  0
LINE
  8
0
 10
2.24434
 20
-2.16733
 11
2.08769
 21
-2.31861
  0
LINE
  8
0
 10
2.08769
 20
-2.31861
 11
1.92086
 21
-2.45859
  0
LINE
  8
0
 10
1.92086
 20
-2.45859
 11
1.74468
 21
-2.5866
  0
LINE
  8
0
 10
1.74468
 20
-2.5866
 11
1.56
 21
-2.702
  0
LINE
  8
0
 10
1.56
 20
-2.702
 11
1.36772
 21
-2.80424
  0
LINE
  8
0
 10
1.36772
 20
-2.80424
 11
1.16877
 21
-2.89281
  0
LINE
  8
0
 10
1.16877
 20
-2.89281
 11
0.964132
 21
-2.9673
  0
LINE
  8
0
 10
0.964132
 20
-2.9673
 11
0.754796
 21
-3.02732
  0
LINE
  8
0
 10
0.754796
 20
-3.02732
 11
0.541781
 21
-3.0726
  0
LINE
  8
0
 10
0.541781
 20
-3.0726
 11
0.326128
 21
-3.10291
  0
LINE
  8
0
 10
0.326128
 20
-3.10291
 11
0.108886
 21
-3.1181
  0
LINE
  8
0
 10
0.108886
 20
-3.1181
 11
-0.108886
 21
-3.1181
  0
LINE
  8
0
 10
-0.108886
 20
-3.1181
 11
-0.326128
 21
-3.10291
  0
LINE
  8
0
 10
-0.326128
 20
-3.10291
 11
-0.541781
 21
-3.0726
  0
LINE
  8
0
 10
-0.541781
 20
-3.0726
 11
-0.754796
 21
-3.02732
  0
LINE
  8
0
 10
-0.754796
 20
-3.02732
 11
-0.964132
 21
-2.9673
  0
LINE
  8
0
 10
-0.964132
 20
-2.9673
 11
-1.16877
 21
-2.89281
  0
LINE
  8
0
 10
-1.16877
 20
-2.89281
 11
-1.36772
 21
-2.80424
  0
LINE
  8
0
 10
-1.36772
 20
-2.80424
 11
-1.56
 21
-2.702
  0
LINE
  8
0
 10
-1.56
 20
-2.702
 11
-1.74468
 21
-2.5866
  0
LINE
  8
0
 10
-1.74468
 20
-2.5866
 11
-1.92086
 21
-2.45859
  0
LINE
  8
0
 10
-1.92086
 20
-2.45859
 11
-2.08769
 21
-2.31861
  0
LINE
  8
0
 10
-2.08769
 20
-2.31861
 11
-2.24434
 21
-2.16733
  0
LINE
  8
0
 10
-2.24434
 20
-2.16733
 11
-2.39006
 21
-2.0055
  0
LINE
  8
0
 10
-2.39006
 20
-2.0055
 11
-2.52413
 21
-1.83389
  0
LINE
  8
0
 10
-2.52413
 20
-1.83389
 11
-2.64591
 21
-1.65335
  0
LINE
  8
0
 10
-2.64591
 20
-1.65335
 11
-2.7548
 21
-1.46475
  0
LINE
  8
0
 10
-2.7548
 20
-1.46475
 11
-2.85026
 21
-1.26902
  0
LINE
  8
0
 10
-2.85026
 20
-1.26902
 11
-2.93184
 21
-1.0671
  0
LINE
  8
0
 10
-2.93184
 20
-1.0671
 11
-2.99914
 21
-0.859988
  0
LINE
  8
0
 10
-2.99914
 20
-0.859988
 11
-3.05182
 21
-0.648684
  0
LINE
  8
0
 10
-3.05182
 20
-0.648684
 11
-3.08964
 21
-0.434219
  0
LINE
  8
0
 10
-3.08964
 20
-0.434219
 11
-3.1124
 21
-0.21764
  0
LINE
  8
0
 10
-3.1124
 20
-0.21764
 11
-3.12
 21
0
  0
LINE
  8
0
 10
-2.3033
 20
36.9803
 11
-1.98746
 21
39.4804
  0
LINE
  8
0
 10
-1.98746
 20
39.4804
 11
-0.876295
 21
39.34
  0
LINE
  8
0
 10
-0.876295
 20
39.34
 11
-1.19213
 21
36.8399
  0
LINE
  8
0
 10
-1.19213
 20
36.8399
 11
-2.3033
 21
36.9803
  0
LINE
  8
0
 10
-1.59561
 20
-39.3174
 11
-1.12341
 21
-36.8421
  0
LINE
  8
0
 10
-1.12341
 20
-36.8421
 11
-0.0232515
 21
-37.0519
  0
LINE
  8
0
 10
-0.0232515
 20
-37.0519
 11
-0.495453
 21
-39.5273
  0
LINE
  8
0
 10
-0.495453
 20
-39.5273
 11
-1.59561
 21
-39.3174
  0
LINE
  8
0
 10
0.0232515
 20
37.0519
 11
0.495453
 21
39.5273
  0
LINE
  8
0
 10
0.495453
 20
39.5273
 11
1.59561
 21
39.3174
  0
LINE
  8
0
 10
1.59561
 20
39.3174
 11
1.12341
 21
36.8421
  0
LINE
  8
0
 10
1.12341
 20
36.8421
 11
0.0232515
 21
37.0519
  0
LINE
  8
0
 10
0.876295
 20
-39.34
 11
1.19213
 21
-36.8399
  0
LINE
  8
0
 10
1.19213
 20
-36.8399
 11
2.3033
 21
-36.9803
  0
LINE
  8
0
 10
2.3033
 20
-36.9803
 11
1.98746
 21
-39.4804
  0
LINE
  8
0
 10
1.98746
 20
-39.4804
 11
0.876295
 21
-39.34
  0
LINE
  8
0
 10
2.34972
 20
36.9774
 11
2.97641
 21
39.4182
  0
LINE
  8
0
 10
2.97641
 20
39.4182
 11
4.06123
 21
39.1397
  0
LINE
  8
0
 10
4.06123
 20
39.1397
 11
3.43453
 21
36.6988
  0
LINE
  8
0
 10
3.43453
 20
36.6988
 11
2.34972
 21
36.9774
  0
LINE
  8
0
 10
3.34475
 20
-39.2074
 11
3.50298
 21
-36.6924
  0
LINE
  8
0
 10
3.50298
 20
-36.6924
 11
4.62077
 21
-36.7627
  0
LINE
  8
0
 10
4.62077
 20
-36.7627
 11
4.46254
 21
-39.2777
  0
LINE
  8
0
 10
4.46254
 20
-39.2777
 11
3.34475
 21
-39.2074
  0
LINE
  8
0
 10
4.66691
 20
36.7569
 11
5.44563
 21
39.1535
  0
LINE
  8
0
 10
5.44563
 20
39.1535
 11
6.51081
 21
38.8074
  0
LINE
  8
0
 10
6.51081
 20
38.8074
 11
5.73209
 21
36.4108
  0
LINE
  8
0
 10
5.73209
 20
36.4108
 11
4.66691
 21
36.7569
  0
LINE
  8
0
 10
5.8
 20
-38.92
 11
5.8
 21
-36.4
  0
LINE
  8
0
 10
5.8
 20
-36.4
 11
6.92
 21
-36.4
  0
LINE
  8
0
 10
6.92
 20
-36.4
 11
6.92
 21
-38.92
  0
LINE
  8
0
 10
6.92
 20
-38.92
 11
5.8
 21
-38.92
  0
LINE
  8
0
 10
6.96568
 20
36.3913
 11
7.89335
 21
38.7343
  0
LINE
  8
0
 10
7.89335
 20
38.7343
 11
8.9347
 21
38.322
  0
LINE
  8
0
 10
8.9347
 20
38.322
 11
8.00703
 21
35.979
  0
LINE
  8
0
 10
8.00703
 20
35.979
 11
6.96568
 21
36.3913
  0
LINE
  8
0
 10
8.07413
 20
-35.964
 11
9.19192
 21
-35.8937
  0
LINE
  8
0
 10
9.19192
 20
-35.8937
 11
9.35015
 21
-38.4087
  0
LINE
  8
0
 10
9.35015
 20
-38.4087
 11
8.23236
 21
-38.479
  0
LINE
  8
0
 10
8.23236
 20
-38.479
 11
8.07413
 21
-35.964
  0
LINE
  8
0
 10
9.23696
 20
35.8821
 11
10.3099
 21
38.1623
  0
LINE
  8
0
 10
10.3099
 20
38.1623
 11
11.3233
 21
37.6854
  0
LINE
  8
0
 10
11.3233
 20
37.6854
 11
10.2504
 21
35.4052
  0
LINE
  8
0
 10
10.2504
 20
35.4052
 11
9.23696
 21
35.8821
  0
LINE
  8
0
 10
10.3164
 20
-35.386
 11
11.4276
 21
-35.2457
  0
LINE
  8
0
 10
11.4276
 20
-35.2457
 11
11.7434
 21
-37.7458
  0
LINE
  8
0
 10
11.7434
 20
-37.7458
 11
10.6322
 21
-37.8862
  0
LINE
  8
0
 10
10.6322
 20
-37.8862
 11
10.3164
 21
-35.386
  0
LINE
  8
0
 10
11.4718
 20
35.2313
 11
12.6858
 21
37.4396
  0
LINE
  8
0
 10
12.6858
 20
37.4396
 11
13.6673
 21
36.9
  0
LINE
  8
0
 10
13.6673
 20
36.9
 11
12.4533
 21
34.6917
  0
LINE
  8
0
 10
12.4533
 20
34.6917
 11
11.4718
 21
35.2313
  0
LINE
  8
0
 10
12.5179
 20
-34.6684
 11
13.6181
 21
-34.4586
  0
LINE
  8
0
 10
13.6181
 20
-34.4586
 11
14.0903
 21
-36.9339
  0
LINE
  8
0
 10
14.0903
 20
-36.9339
 11
12.9901
 21
-37.1438
  0
LINE
  8
0
 10
12.9901
 20
-37.1438
 11
12.5179
 21
-34.6684
  0
LINE
  8
0
 10
13.6613
 20
34.4415
 11
15.0116
 21
36.5692
  0
LINE
  8
0
 10
15.0116
 20
36.5692
 11
15.9573
 21
35.969
  0
LINE
  8
0
 10
15.9573
 20
35.969
 11
14.607
 21
33.8413
  0
LINE
  8
0
 10
14.607
 20
33.8413
 11
13.6613
 21
34.4415
  0
LINE
  8
0
 10
14.6701
 20
-33.814
 11
15.7549
 21
-33.5355
  0
LINE
  8
0
 10
15.7549
 20
-33.5355
 11
16.3816
 21
-35.9763
  0
LINE
  8
0
 10
16.3816
 20
-35.9763
 11
15.2968
 21
-36.2549
  0
LINE
  8
0
 10
15.2968
 20
-36.2549
 11
14.6701
 21
-33.814
  0
LINE
  8
0
 10
15.797
 20
33.5157
 11
17.2782
 21
35.5544
  0
LINE
  8
0
 10
17.2782
 20
35.5544
 11
18.1843
 21
34.8961
  0
LINE
  8
0
 10
18.1843
 20
34.8961
 11
16.7031
 21
32.8574
  0
LINE
  8
0
 10
16.7031
 20
32.8574
 11
15.797
 21
33.5157
  0
LINE
  8
0
 10
16.7643
 20
-32.8262
 11
17.8295
 21
-32.4801
  0
LINE
  8
0
 10
17.8295
 20
-32.4801
 11
18.6083
 21
-34.8767
  0
LINE
  8
0
 10
18.6083
 20
-34.8767
 11
17.5431
 21
-35.2228
  0
LINE
  8
0
 10
17.5431
 20
-35.2228
 11
16.7643
 21
-32.8262
  0
LINE
  8
0
 10
17.8703
 20
32.4577
 11
19.4766
 21
34.3993
  0
LINE
  8
0
 10
19.4766
 20
34.3993
 11
20.3396
 21
33.6854
  0
LINE
  8
0
 10
20.3396
 20
33.6854
 11
18.7333
 21
31.7437
  0
LINE
  8
0
 10
18.7333
 20
31.7437
 11
17.8703
 21
32.4577
  0
LINE
  8
0
 10
18.7924
 20
-31.7087
 11
19.8338
 21
-31.2964
  0
LINE
  8
0
 10
19.8338
 20
-31.2964
 11
20.7615
 21
-33.6395
  0
LINE
  8
0
 10
20.7615
 20
-33.6395
 11
19.7201
 21
-34.0518
  0
LINE
  8
0
 10
19.7201
 20
-34.0518
 11
18.7924
 21
-31.7087
  0
LINE
  8
0
 10
19.8731
 20
31.2715
 11
21.5981
 21
33.1085
  0
LINE
  8
0
 10
21.5981
 20
33.1085
 11
22.4146
 21
32.3418
  0
LINE
  8
0
 10
22.4146
 20
32.3418
 11
20.6895
 21
30.5048
  0
LINE
  8
0
 10
20.6895
 20
30.5048
 11
19.8731
 21
31.2715
  0
LINE
  8
0
 10
20.7464
 20
-30.4662
 11
21.7598
 21
-29.9893
  0
LINE
  8
0
 10
21.7598
 20
-29.9893
 11
22.8327
 21
-32.2695
  0
LINE
  8
0
 10
22.8327
 20
-32.2695
 11
21.8193
 21
-32.7463
  0
LINE
  8
0
 10
21.8193
 20
-32.7463
 11
20.7464
 21
-30.4662
  0
LINE
  8
0
 10
21.7974
 20
29.962
 11
23.6344
 21
31.687
  0
LINE
  8
0
 10
23.6344
 20
31.687
 11
24.4011
 21
30.8706
  0
LINE
  8
0
 10
24.4011
 20
30.8706
 11
22.5641
 21
29.1455
  0
LINE
  8
0
 10
22.5641
 20
29.1455
 11
21.7974
 21
29.962
  0
LINE
  8
0
 10
22.6184
 20
-29.1034
 11
23.5999
 21
-28.5638
  0
LINE
  8
0
 10
23.5999
 20
-28.5638
 11
24.8139
 21
-30.7721
  0
LINE
  8
0
 10
24.8139
 20
-30.7721
 11
23.8324
 21
-31.3117
  0
LINE
  8
0
 10
23.8324
 20
-31.3117
 11
22.6184
 21
-29.1034
  0
LINE
  8
0
 10
23.6357
 20
28.5342
 11
25.5774
 21
30.1405
  0
LINE
  8
0
 10
25.5774
 20
30.1405
 11
26.2913
 21
29.2775
  0
LINE
  8
0
 10
26.2913
 20
29.2775
 11
24.3496
 21
27.6712
  0
LINE
  8
0
 10
24.3496
 20
27.6712
 11
23.6357
 21
28.5342
  0
LINE
  8
0
 10
24.4012
 20
-27.6257
 11
25.3468
 21
-27.0256
  0
LINE
  8
0
 10
25.3468
 20
-27.0256
 11
26.6971
 21
-29.1533
  0
LINE
  8
0
 10
26.6971
 20
-29.1533
 11
25.7515
 21
-29.7534
  0
LINE
  8
0
 10
25.7515
 20
-29.7534
 11
24.4012
 21
-27.6257
  0
LINE
  8
0
 10
25.3807
 20
26.9938
 11
27.4195
 21
28.475
  0
LINE
  8
0
 10
27.4195
 20
28.475
 11
28.0778
 21
27.5689
  0
LINE
  8
0
 10
28.0778
 20
27.5689
 11
26.0391
 21
26.0877
  0
LINE
  8
0
 10
26.0391
 20
26.0877
 11
25.3807
 21
26.9938
  0
LINE
  8
0
 10
26.0877
 20
-26.0391
 11
26.9938
 21
-25.3807
  0
LINE
  8
0
 10
26.9938
 20
-25.3807
 11
28.475
 21
-27.4195
  0
LINE
  8
0
 10
28.475
 20
-27.4195
 11
27.5689
 21
-28.0778
  0
LINE
  8
0
 10
27.5689
 20
-28.0778
 11
26.0877
 21
-26.0391
  0
LINE
  8
0
 10
27.0256
 20
25.3468
 11
29.1533
 21
26.6971
  0
LINE
  8
0
 10
29.1533
 20
26.6971
 11
29.7534
 21
25.7515
  0
LINE
  8
0
 10
29.7534
 20
25.7515
 11
27.6257
 21
24.4012
  0
LINE
  8
0
 10
27.6257
 20
24.4012
 11
27.0256
 21
25.3468
  0
LINE
  8
0
 10
27.6712
 20
-24.3496
 11
28.5342
 21
-23.6357
  0
LINE
  8
0
 10
28.5342
 20
-23.6357
 11
30.1405
 21
-25.5774
  0
LINE
  8
0
 10
30.1405
 20
-25.5774
 11
29.2775
 21
-26.2913
  0
LINE
  8
0
 10
29.2775
 20
-26.2913
 11
27.6712
 21
-24.3496
  0
LINE
  8
0
 10
28.5638
 20
23.5999
 11
30.7721
 21
24.8139
  0
LINE
  8
0
 10
30.7721
 20
24.8139
 11
31.3117
 21
23.8324
  0
LINE
  8
0
 10
31.3117
 20
23.8324
 11
29.1034
 21
22.6184
  0
LINE
  8
0
 10
29.1034
 20
22.6184
 11
28.5638
 21
23.5999
  0
LINE
  8
0
 10
29.1455
 20
-22.5641
 11
29.962
 21
-21.7974
  0
LINE
  8
0
 10
29.962
 20
-21.7974
 11
31.687
 21
-23.6344
  0
LINE
  8
0
 10
31.687
 20
-23.6344
 11
30.8706
 21
-24.4011
  0
LINE
  8
0
 10
30.8706
 20
-24.4011
 11
29.1455
 21
-22.5641
  0
LINE
  8
0
 10
29.9893
 20
21.7598
 11
32.2695
 21
22.8327
  0
LINE
  8
0
 10
32.2695
 20
22.8327
 11
32.7463
 21
21.8193
  0
LINE
  8
0
 10
32.7463
 20
21.8193
 11
30.4662
 21
20.7464
  0
LINE
  8
0
 10
30.4662
 20
20.7464
 11
29.9893
 21
21.7598
  0
LINE
  8
0
 10
30.5048
 20
-20.6895
 11
31.2715
 21
-19.8731
  0
LINE
  8
0
 10
31.2715
 20
-19.8731
 11
33.1085
 21
-21.5981
  0
LINE
  8
0
 10
33.1085
 20
-21.5981
 11
32.3418
 21
-22.4146
  0
LINE
  8
0
 10
32.3418
 20
-22.4146
 11
30.5048
 21
-20.6895
  0
LINE
  8
0
 10
31.2964
 20
19.8338
 11
33.6395
 21
20.7615
  0
LINE
  8
0
 10
33.6395
 20
20.7615
 11
34.0518
 21
19.7201
  0
LINE
  8
0
 10
34.0518
 20
19.7201
 11
31.7087
 21
18.7924
  0
LINE
  8
0
 10
31.7087
 20
18.7924
 11
31.2964
 21
19.8338
  0
LINE
  8
0
 10
31.7437
 20
-18.7333
 11
32.4577
 21
-17.8703
  0
LINE
  8
0
 10
32.4577
 20
-17.8703
 11
34.3993
 21
-19.4766
  0
LINE
  8
0
 10
34.3993
 20
-19.4766
 11
33.6854
 21
-20.3396
  0
LINE
  8
0
 10
33.6854
 20
-20.3396
 11
31.7437
 21
-18.7333
  0
LINE
  8
0
 10
32.4801
 20
17.8295
 11
34.8767
 21
18.6083
  0
LINE
  8
0
 10
34.8767
 20
18.6083
 11
35.2228
 21
17.5431
  0
LINE
  8
0
 10
35.2228
 20
17.5431
 11
32.8262
 21
16.7643
  0
LINE
  8
0
 10
32.8262
 20
16.7643
 11
32.4801
 21
17.8295
  0
LINE
  8
0
 10
32.8574
 20
-16.7031
 11
33.5157
 21
-15.797
  0
LINE
  8
0
 10
33.5157
 20
-15.797
 11
35.5544
 21
-17.2782
  0
LINE
  8
0
 10
35.5544
 20
-17.2782
 11
34.8961
 21
-18.1843
  0
LINE
  8
0
 10
34.8961
 20
-18.1843
 11
32.8574
 21
-16.7031
  0
LINE
  8
0
 10
33.4
 20
-0.559999
 11
33.4
 21
0.559999
  0
LINE
  8
0
 10
33.4
 20
0.559999
 11
35.92
 21
0.559999
  0
LINE
  8
0
 10
35.92
 20
0.559999
 11
35.92
 21
-0.559999
  0
LINE
  8
0
 10
35.92
 20
-0.559999
 11
33.4
 21
-0.559999
  0
LINE
  8
0
 10
33.5355
 20
15.7549
 11
35.9763
 21
16.3816
  0
LINE
  8
0
 10
35.9763
 20
16.3816
 11
36.2549
 21
15.2968
  0
LINE
  8
0
 10
36.2549
 20
15.2968
 11
33.814
 21
14.6701
  0
LINE
  8
0
 10
33.814
 20
14.6701
 11
33.5355
 21
15.7549
  0
LINE
  8
0
 10
33.8413
 20
-14.607
 11
34.4415
 21
-13.6613
  0
LINE
  8
0
 10
34.4415
 20
-13.6613
 11
36.5692
 21
-15.0116
  0
LINE
  8
0
 10
36.5692
 20
-15.0116
 11
35.969
 21
-15.9573
  0
LINE
  8
0
 10
35.969
 20
-15.9573
 11
33.8413
 21
-14.607
  0
LINE
  8
0
 10
34.4586
 20
13.6181
 11
36.9339
 21
14.0903
  0
LINE
  8
0
 10
36.9339
 20
14.0903
 11
37.1438
 21
12.9901
  0
LINE
  8
0
 10
37.1438
 20
12.9901
 11
34.6684
 21
12.5179
  0
LINE
  8
0
 10
34.6684
 20
12.5179
 11
34.4586
 21
13.6181
  0
LINE
  8
0
 10
34.6917
 20
-12.4533
 11
35.2313
 21
-11.4718
  0
LINE
  8
0
 10
35.2313
 20
-11.4718
 11
37.4396
 21
-12.6858
  0
LINE
  8
0
 10
37.4396
 20
-12.6858
 11
36.9
 21
-13.6673
  0
LINE
  8
0
 10
36.9
 20
-13.6673
 11
34.6917
 21
-12.4533
  0
LINE
  8
0
 10
35.2457
 20
11.4276
 11
37.7458
 21
11.7434
  0
LINE
  8
0
 10
37.7458
 20
11.7434
 11
37.8862
 21
10.6322
  0
LINE
  8
0
 10
37.8862
 20
10.6322
 11
35.386
 21
10.3164
  0
LINE
  8
0
 10
35.386
 20
10.3164
 11
35.2457
 21
11.4276
  0
LINE
  8
0
 10
35.4052
 20
-10.2504
 11
35.8821
 21
-9.23696
  0
LINE
  8
0
 10
35.8821
 20
-9.23696
 11
38.1623
 21
-10.3099
  0
LINE
  8
0
 10
38.1623
 20
-10.3099
 11
37.6854
 21
-11.3233
  0
LINE
  8
0
 10
37.6854
 20
-11.3233
 11
35.4052
 21
-10.2504
  0
LINE
  8
0
 10
35.8937
 20
9.19192
 11
38.4087
 21
9.35015
  0
LINE
  8
0
 10
38.4087
 20
9.35015
 11
38.479
 21
8.23236
  0
LINE
  8
0
 10
38.479
 20
8.23236
 11
35.964
 21
8.07413
  0
LINE
  8
0
 10
35.964
 20
8.07413
 11
35.8937
 21
9.19192
  0
LINE
  8
0
 10
35.979
 20
-8.00703
 11
36.3913
 21
-6.96568
  0
LINE
  8
0
 10
36.3913
 20
-6.96568
 11
38.7343
 21
-7.89335
  0
LINE
  8
0
 10
38.7343
 20
-7.89335
 11
38.322
 21
-8.9347
  0
LINE
  8
0
 10
38.322
 20
-8.9347
 11
35.979
 21
-8.00703
  0
LINE
  8
0
 10
36.4
 20
5.8
 11
36.4
 21
6.92
  0
LINE
  8
0
 10
36.4
 20
6.92
 11
38.92
 21
6.92
  0
LINE
  8
0
 10
38.92
 20
6.92
 11
38.92
 21
5.8
  0
LINE
  8
0
 10
38.92
 20
5.8
 11
36.4
 21
5.8
  0
LINE
  8
0
 10
36.4108
 20
-5.73209
 11
36.7569
 21
-4.66691
  0
LINE
  8
0
 10
36.7569
 20
-4.66691
 11
39.1535
 21
-5.44563
  0
LINE
  8
0
 10
39.1535
 20
-5.44563
 11
38.8074
 21
-6.51081
  0
LINE
  8
0
 10
38.8074
 20
-6.51081
 11
36.4108
 21
-5.73209
  0
LINE
  8
0
 10
36.6924
 20
3.50298
 11
36.7627
 21
4.62077
  0
LINE
  8
0
 10
36.7627
 20
4.62077
 11
39.2777
 21
4.46254
  0
LINE
  8
0
 10
39.2777
 20
4.46254
 11
39.2074
 21
3.34475
  0
LINE
  8
0
 10
39.2074
 20
3.34475
 11
36.6924
 21
3.50298
  0
LINE
  8
0
 10
36.6988
 20
-3.43453
 11
36.9774
 21
-2.34972
  0
LINE
  8
0
 10
36.9774
 20
-2.34972
 11
39.4182
 21
-2.97641
  0
LINE
  8
0
 10
39.4182
 20
-2.97641
 11
39.1397
 21
-4.06123
  0
LINE
  8
0
 10
39.1397
 20
-4.06123
 11
36.6988
 21
-3.43453
  0
LINE
  8
0
 10
36.8399
 20
1.19213
 11
36.9803
 21
2.3033
  0
LINE
  8
0
 10
36.9803
 20
2.3033
 11
39.4804
 21
1.98746
  0
LINE
  8
0
 10
39.4804
 20
1.98746
 11
39.34
 21
0.876295
  0
LINE
  8
0
 10
39.34
 20
0.876295
 11
36.8399
 21
1.19213
  0
LINE
  8
0
 10
36.8421
 20
-1.12341
 11
37.0519
 21
-0.0232515
  0
LINE
  8
0
 10
37.0519
 20
-0.0232515
 11
39.5273
 21
-0.495453
  0
LINE
  8
0
 10
39.5273
 20
-0.495453
 11
39.3174
 21
-1.59561
  0
LINE
  8
0
 10
39.3174
 20
-1.59561
 11
36.8421
 21
-1.12341
  0
ENDSEC
  0
SECTION
  2
OBJECTS
  0
DICTIONARY
  0
ENDSEC
  0
EOF
