  0
SECTION
  2
BLOCKS
  0
ENDSEC
  0
SECTION
  2
ENTITIES
  0
LINE
  8
0
 10
-68.42
 20
-82.5
 11
-65.43
 21
-82.5
  0
LINE
  8
0
 10
-65.43
 20
-82.5
 11
-65.43
 21
-97.0173
  0
LINE
  8
0
 10
-65.43
 20
-97.0173
 11
-50.49
 21
-97.0173
  0
LINE
  8
0
 10
-50.49
 20
-97.0173
 11
-50.49
 21
-100
  0
LINE
  8
0
 10
-50.49
 20
-100
 11
-35.49
 21
-100
  0
LINE
  8
0
 10
-35.49
 20
-100
 11
-35.49
 21
-97.0173
  0
LINE
  8
0
 10
-35.49
 20
-97.0173
 11
-7.5
 21
-97.0173
  0
LINE
  8
0
 10
-7.5
 20
-97.0173
 11
-7.5
 21
-100
  0
LINE
  8
0
 10
-7.5
 20
-100
 11
7.5
 21
-100
  0
LINE
  8
0
 10
7.5
 20
-100
 11
7.5
 21
-97.0173
  0
LINE
  8
0
 10
7.5
 20
-97.0173
 11
35.49
 21
-97.0173
  0
LINE
  8
0
 10
35.49
 20
-97.0173
 11
35.49
 21
-100
  0
LINE
  8
0
 10
35.49
 20
-100
 11
50.49
 21
-100
  0
LINE
  8
0
 10
50.49
 20
-100
 11
50.49
 21
-97.0173
  0
LINE
  8
0
 10
50.49
 20
-97.0173
 11
65.41
 21
-97.0173
  0
LINE
  8
0
 10
65.41
 20
-97.0173
 11
65.44
 21
-97
  0
LINE
  8
0
 10
65.44
 20
-97
 11
65.44
 21
-82.5
  0
LINE
  8
0
 10
65.44
 20
-82.5
 11
68.42
 21
-82.5
  0
LINE
  8
0
 10
68.42
 20
-82.5
 11
68.42
 21
-67.5
  0
LINE
  8
0
 10
68.42
 20
-67.5
 11
65.44
 21
-67.5
  0
LINE
  8
0
 10
65.44
 20
-67.5
 11
65.44
 21
-45
  0
LINE
  8
0
 10
65.44
 20
-45
 11
68.42
 21
-45
  0
LINE
  8
0
 10
68.42
 20
-45
 11
68.42
 21
-30
  0
LINE
  8
0
 10
68.42
 20
-30
 11
65.44
 21
-30
  0
LINE
  8
0
 10
65.44
 20
-30
 11
65.44
 21
-7.5
  0
LINE
  8
0
 10
65.44
 20
-7.5
 11
68.42
 21
-7.5
  0
LINE
  8
0
 10
68.42
 20
-7.5
 11
68.42
 21
7.5
  0
LINE
  8
0
 10
68.42
 20
7.5
 11
65.44
 21
7.5
  0
LINE
  8
0
 10
65.44
 20
7.5
 11
65.44
 21
30
  0
LINE
  8
0
 10
65.44
 20
30
 11
68.42
 21
30
  0
LINE
  8
0
 10
68.42
 20
30
 11
68.42
 21
45
  0
LINE
  8
0
 10
68.42
 20
45
 11
65.44
 21
45
  0
LINE
  8
0
 10
65.44
 20
45
 11
65.44
 21
67.5
  0
LINE
  8
0
 10
65.44
 20
67.5
 11
68.42
 21
67.5
  0
LINE
  8
0
 10
68.42
 20
67.5
 11
68.42
 21
82.5
  0
LINE
  8
0
 10
68.42
 20
82.5
 11
65.44
 21
82.5
  0
LINE
  8
0
 10
65.44
 20
82.5
 11
65.44
 21
97
  0
LINE
  8
0
 10
65.44
 20
97
 11
65.41
 21
97.0173
  0
LINE
  8
0
 10
65.41
 20
97.0173
 11
50.49
 21
97.0173
  0
LINE
  8
0
 10
50.49
 20
97.0173
 11
50.49
 21
100
  0
LINE
  8
0
 10
50.49
 20
100
 11
35.49
 21
100
  0
LINE
  8
0
 10
35.49
 20
100
 11
35.49
 21
97.0173
  0
LINE
  8
0
 10
35.49
 20
97.0173
 11
7.5
 21
97.0173
  0
LINE
  8
0
 10
7.5
 20
97.0173
 11
7.5
 21
100
  0
LINE
  8
0
 10
7.5
 20
100
 11
-7.5
 21
100
  0
LINE
  8
0
 10
-7.5
 20
100
 11
-7.5
 21
97.0173
  0
LINE
  8
0
 10
-7.5
 20
97.0173
 11
-35.49
 21
97.0173
  0
LINE
  8
0
 10
-35.49
 20
97.0173
 11
-35.49
 21
100
  0
LINE
  8
0
 10
-35.49
 20
100
 11
-50.49
 21
100
  0
LINE
  8
0
 10
-50.49
 20
100
 11
-50.49
 21
97.0173
  0
LINE
  8
0
 10
-50.49
 20
97.0173
 11
-65.43
 21
97.0173
  0
LINE
  8
0
 10
-65.43
 20
97.0173
 11
-65.43
 21
82.5
  0
LINE
  8
0
 10
-65.43
 20
82.5
 11
-68.42
 21
82.5
  0
LINE
  8
0
 10
-68.42
 20
82.5
 11
-68.42
 21
67.5
  0
LINE
  8
0
 10
-68.42
 20
67.5
 11
-65.43
 21
67.5
  0
LINE
  8
0
 10
-65.43
 20
67.5
 11
-65.43
 21
45
  0
LINE
  8
0
 10
-65.43
 20
45
 11
-68.42
 21
45
  0
LINE
  8
0
 10
-68.42
 20
45
 11
-68.42
 21
30
  0
LINE
  8
0
 10
-68.42
 20
30
 11
-65.43
 21
30
  0
LINE
  8
0
 10
-65.43
 20
30
 11
-65.43
 21
7.5
  0
LINE
  8
0
 10
-65.43
 20
7.5
 11
-68.42
 21
7.5
  0
LINE
  8
0
 10
-68.42
 20
7.5
 11
-68.42
 21
-7.5
  0
LINE
  8
0
 10
-68.42
 20
-7.5
 11
-65.43
 21
-7.5
  0
LINE
  8
0
 10
-65.43
 20
-7.5
 11
-65.43
 21
-30
  0
LINE
  8
0
 10
-65.43
 20
-30
 11
-68.42
 21
-30
  0
LINE
  8
0
 10
-68.42
 20
-30
 11
-68.42
 21
-45
  0
LINE
  8
0
 10
-68.42
 20
-45
 11
-65.43
 21
-45
  0
LINE
  8
0
 10
-65.43
 20
-45
 11
-65.43
 21
-67.5
  0
LINE
  8
0
 10
-65.43
 20
-67.5
 11
-68.42
 21
-67.5
  0
LINE
  8
0
 10
-68.42
 20
-67.5
 11
-68.42
 21
-82.5
  0
LINE
  8
0
 10
-60.48
 20
-90.6
 11
-60.4764
 21
-90.4982
  0
LINE
  8
0
 10
-60.4764
 20
-90.4982
 11
-60.4658
 21
-90.3968
  0
LINE
  8
0
 10
-60.4658
 20
-90.3968
 11
-60.4481
 21
-90.2964
  0
LINE
  8
0
 10
-60.4481
 20
-90.2964
 11
-60.4234
 21
-90.1976
  0
LINE
  8
0
 10
-60.4234
 20
-90.1976
 11
-60.392
 21
-90.1006
  0
LINE
  8
0
 10
-60.392
 20
-90.1006
 11
-60.3538
 21
-90.0062
  0
LINE
  8
0
 10
-60.3538
 20
-90.0062
 11
-60.3091
 21
-89.9146
  0
LINE
  8
0
 10
-60.3091
 20
-89.9146
 11
-60.2582
 21
-89.8263
  0
LINE
  8
0
 10
-60.2582
 20
-89.8263
 11
-60.2012
 21
-89.7418
  0
LINE
  8
0
 10
-60.2012
 20
-89.7418
 11
-60.1384
 21
-89.6615
  0
LINE
  8
0
 10
-60.1384
 20
-89.6615
 11
-60.0702
 21
-89.5858
  0
LINE
  8
0
 10
-60.0702
 20
-89.5858
 11
-59.9969
 21
-89.515
  0
LINE
  8
0
 10
-59.9969
 20
-89.515
 11
-59.9189
 21
-89.4495
  0
LINE
  8
0
 10
-59.9189
 20
-89.4495
 11
-59.8364
 21
-89.3896
  0
LINE
  8
0
 10
-59.8364
 20
-89.3896
 11
-59.75
 21
-89.3356
  0
LINE
  8
0
 10
-59.75
 20
-89.3356
 11
-59.66
 21
-89.2878
  0
LINE
  8
0
 10
-59.66
 20
-89.2878
 11
-59.5669
 21
-89.2463
  0
LINE
  8
0
 10
-59.5669
 20
-89.2463
 11
-59.4712
 21
-89.2115
  0
LINE
  8
0
 10
-59.4712
 20
-89.2115
 11
-59.3732
 21
-89.1834
  0
LINE
  8
0
 10
-59.3732
 20
-89.1834
 11
-59.2735
 21
-89.1622
  0
LINE
  8
0
 10
-59.2735
 20
-89.1622
 11
-59.1726
 21
-89.148
  0
LINE
  8
0
 10
-59.1726
 20
-89.148
 11
-59.071
 21
-89.1409
  0
LINE
  8
0
 10
-59.071
 20
-89.1409
 11
-58.969
 21
-89.1409
  0
LINE
  8
0
 10
-58.969
 20
-89.1409
 11
-58.8674
 21
-89.148
  0
LINE
  8
0
 10
-58.8674
 20
-89.148
 11
-58.7665
 21
-89.1622
  0
LINE
  8
0
 10
-58.7665
 20
-89.1622
 11
-58.6668
 21
-89.1834
  0
LINE
  8
0
 10
-58.6668
 20
-89.1834
 11
-58.5688
 21
-89.2115
  0
LINE
  8
0
 10
-58.5688
 20
-89.2115
 11
-58.4731
 21
-89.2463
  0
LINE
  8
0
 10
-58.4731
 20
-89.2463
 11
-58.38
 21
-89.2878
  0
LINE
  8
0
 10
-58.38
 20
-89.2878
 11
-58.29
 21
-89.3356
  0
LINE
  8
0
 10
-58.29
 20
-89.3356
 11
-58.2036
 21
-89.3896
  0
LINE
  8
0
 10
-58.2036
 20
-89.3896
 11
-58.1211
 21
-89.4495
  0
LINE
  8
0
 10
-58.1211
 20
-89.4495
 11
-58.0431
 21
-89.515
  0
LINE
  8
0
 10
-58.0431
 20
-89.515
 11
-57.9698
 21
-89.5858
  0
LINE
  8
0
 10
-57.9698
 20
-89.5858
 11
-57.9016
 21
-89.6615
  0
LINE
  8
0
 10
-57.9016
 20
-89.6615
 11
-57.8388
 21
-89.7418
  0
LINE
  8
0
 10
-57.8388
 20
-89.7418
 11
-57.7818
 21
-89.8263
  0
LINE
  8
0
 10
-57.7818
 20
-89.8263
 11
-57.7309
 21
-89.9146
  0
LINE
  8
0
 10
-57.7309
 20
-89.9146
 11
-57.6862
 21
-90.0062
  0
LINE
  8
0
 10
-57.6862
 20
-90.0062
 11
-57.648
 21
-90.1006
  0
LINE
  8
0
 10
-57.648
 20
-90.1006
 11
-57.6166
 21
-90.1976
  0
LINE
  8
0
 10
-57.6166
 20
-90.1976
 11
-57.5919
 21
-90.2964
  0
LINE
  8
0
 10
-57.5919
 20
-90.2964
 11
-57.5742
 21
-90.3968
  0
LINE
  8
0
 10
-57.5742
 20
-90.3968
 11
-57.5636
 21
-90.4982
  0
LINE
  8
0
 10
-57.5636
 20
-90.4982
 11
-57.56
 21
-90.6
  0
LINE
  8
0
 10
-57.56
 20
-90.6
 11
-57.5636
 21
-90.7018
  0
LINE
  8
0
 10
-57.5636
 20
-90.7018
 11
-57.5742
 21
-90.8032
  0
LINE
  8
0
 10
-57.5742
 20
-90.8032
 11
-57.5919
 21
-90.9036
  0
LINE
  8
0
 10
-57.5919
 20
-90.9036
 11
-57.6166
 21
-91.0024
  0
LINE
  8
0
 10
-57.6166
 20
-91.0024
 11
-57.648
 21
-91.0993
  0
LINE
  8
0
 10
-57.648
 20
-91.0993
 11
-57.6862
 21
-91.1938
  0
LINE
  8
0
 10
-57.6862
 20
-91.1938
 11
-57.7309
 21
-91.2854
  0
LINE
  8
0
 10
-57.7309
 20
-91.2854
 11
-57.7818
 21
-91.3737
  0
LINE
  8
0
 10
-57.7818
 20
-91.3737
 11
-57.8388
 21
-91.4582
  0
LINE
  8
0
 10
-57.8388
 20
-91.4582
 11
-57.9016
 21
-91.5385
  0
LINE
  8
0
 10
-57.9016
 20
-91.5385
 11
-57.9698
 21
-91.6142
  0
LINE
  8
0
 10
-57.9698
 20
-91.6142
 11
-58.0431
 21
-91.685
  0
LINE
  8
0
 10
-58.0431
 20
-91.685
 11
-58.1211
 21
-91.7505
  0
LINE
  8
0
 10
-58.1211
 20
-91.7505
 11
-58.2036
 21
-91.8104
  0
LINE
  8
0
 10
-58.2036
 20
-91.8104
 11
-58.29
 21
-91.8644
  0
LINE
  8
0
 10
-58.29
 20
-91.8644
 11
-58.38
 21
-91.9122
  0
LINE
  8
0
 10
-58.38
 20
-91.9122
 11
-58.4731
 21
-91.9537
  0
LINE
  8
0
 10
-58.4731
 20
-91.9537
 11
-58.5688
 21
-91.9885
  0
LINE
  8
0
 10
-58.5688
 20
-91.9885
 11
-58.6668
 21
-92.0166
  0
LINE
  8
0
 10
-58.6668
 20
-92.0166
 11
-58.7665
 21
-92.0378
  0
LINE
  8
0
 10
-58.7665
 20
-92.0378
 11
-58.8674
 21
-92.052
  0
LINE
  8
0
 10
-58.8674
 20
-92.052
 11
-58.969
 21
-92.0591
  0
LINE
  8
0
 10
-58.969
 20
-92.0591
 11
-59.071
 21
-92.0591
  0
LINE
  8
0
 10
-59.071
 20
-92.0591
 11
-59.1726
 21
-92.052
  0
LINE
  8
0
 10
-59.1726
 20
-92.052
 11
-59.2735
 21
-92.0378
  0
LINE
  8
0
 10
-59.2735
 20
-92.0378
 11
-59.3732
 21
-92.0166
  0
LINE
  8
0
 10
-59.3732
 20
-92.0166
 11
-59.4712
 21
-91.9885
  0
LINE
  8
0
 10
-59.4712
 20
-91.9885
 11
-59.5669
 21
-91.9537
  0
LINE
  8
0
 10
-59.5669
 20
-91.9537
 11
-59.66
 21
-91.9122
  0
LINE
  8
0
 10
-59.66
 20
-91.9122
 11
-59.75
 21
-91.8644
  0
LINE
  8
0
 10
-59.75
 20
-91.8644
 11
-59.8364
 21
-91.8104
  0
LINE
  8
0
 10
-59.8364
 20
-91.8104
 11
-59.9189
 21
-91.7505
  0
LINE
  8
0
 10
-59.9189
 20
-91.7505
 11
-59.9969
 21
-91.685
  0
LINE
  8
0
 10
-59.9969
 20
-91.685
 11
-60.0702
 21
-91.6142
  0
LINE
  8
0
 10
-60.0702
 20
-91.6142
 11
-60.1384
 21
-91.5385
  0
LINE
  8
0
 10
-60.1384
 20
-91.5385
 11
-60.2012
 21
-91.4582
  0
LINE
  8
0
 10
-60.2012
 20
-91.4582
 11
-60.2582
 21
-91.3737
  0
LINE
  8
0
 10
-60.2582
 20
-91.3737
 11
-60.3091
 21
-91.2854
  0
LINE
  8
0
 10
-60.3091
 20
-91.2854
 11
-60.3538
 21
-91.1938
  0
LINE
  8
0
 10
-60.3538
 20
-91.1938
 11
-60.392
 21
-91.0993
  0
LINE
  8
0
 10
-60.392
 20
-91.0993
 11
-60.4234
 21
-91.0024
  0
LINE
  8
0
 10
-60.4234
 20
-91.0024
 11
-60.4481
 21
-90.9036
  0
LINE
  8
0
 10
-60.4481
 20
-90.9036
 11
-60.4658
 21
-90.8032
  0
LINE
  8
0
 10
-60.4658
 20
-90.8032
 11
-60.4764
 21
-90.7018
  0
LINE
  8
0
 10
-60.4764
 20
-90.7018
 11
-60.48
 21
-90.6
  0
LINE
  8
0
 10
-60.48
 20
90.6
 11
-60.4764
 21
90.7018
  0
LINE
  8
0
 10
-60.4764
 20
90.7018
 11
-60.4658
 21
90.8032
  0
LINE
  8
0
 10
-60.4658
 20
90.8032
 11
-60.4481
 21
90.9036
  0
LINE
  8
0
 10
-60.4481
 20
90.9036
 11
-60.4234
 21
91.0024
  0
LINE
  8
0
 10
-60.4234
 20
91.0024
 11
-60.392
 21
91.0993
  0
LINE
  8
0
 10
-60.392
 20
91.0993
 11
-60.3538
 21
91.1938
  0
LINE
  8
0
 10
-60.3538
 20
91.1938
 11
-60.3091
 21
91.2854
  0
LINE
  8
0
 10
-60.3091
 20
91.2854
 11
-60.2582
 21
91.3737
  0
LINE
  8
0
 10
-60.2582
 20
91.3737
 11
-60.2012
 21
91.4582
  0
LINE
  8
0
 10
-60.2012
 20
91.4582
 11
-60.1384
 21
91.5385
  0
LINE
  8
0
 10
-60.1384
 20
91.5385
 11
-60.0702
 21
91.6142
  0
LINE
  8
0
 10
-60.0702
 20
91.6142
 11
-59.9969
 21
91.685
  0
LINE
  8
0
 10
-59.9969
 20
91.685
 11
-59.9189
 21
91.7505
  0
LINE
  8
0
 10
-59.9189
 20
91.7505
 11
-59.8364
 21
91.8104
  0
LINE
  8
0
 10
-59.8364
 20
91.8104
 11
-59.75
 21
91.8644
  0
LINE
  8
0
 10
-59.75
 20
91.8644
 11
-59.66
 21
91.9122
  0
LINE
  8
0
 10
-59.66
 20
91.9122
 11
-59.5669
 21
91.9537
  0
LINE
  8
0
 10
-59.5669
 20
91.9537
 11
-59.4712
 21
91.9885
  0
LINE
  8
0
 10
-59.4712
 20
91.9885
 11
-59.3732
 21
92.0166
  0
LINE
  8
0
 10
-59.3732
 20
92.0166
 11
-59.2735
 21
92.0378
  0
LINE
  8
0
 10
-59.2735
 20
92.0378
 11
-59.1726
 21
92.052
  0
LINE
  8
0
 10
-59.1726
 20
92.052
 11
-59.071
 21
92.0591
  0
LINE
  8
0
 10
-59.071
 20
92.0591
 11
-58.969
 21
92.0591
  0
LINE
  8
0
 10
-58.969
 20
92.0591
 11
-58.8674
 21
92.052
  0
LINE
  8
0
 10
-58.8674
 20
92.052
 11
-58.7665
 21
92.0378
  0
LINE
  8
0
 10
-58.7665
 20
92.0378
 11
-58.6668
 21
92.0166
  0
LINE
  8
0
 10
-58.6668
 20
92.0166
 11
-58.5688
 21
91.9885
  0
LINE
  8
0
 10
-58.5688
 20
91.9885
 11
-58.4731
 21
91.9537
  0
LINE
  8
0
 10
-58.4731
 20
91.9537
 11
-58.38
 21
91.9122
  0
LINE
  8
0
 10
-58.38
 20
91.9122
 11
-58.29
 21
91.8644
  0
LINE
  8
0
 10
-58.29
 20
91.8644
 11
-58.2036
 21
91.8104
  0
LINE
  8
0
 10
-58.2036
 20
91.8104
 11
-58.1211
 21
91.7505
  0
LINE
  8
0
 10
-58.1211
 20
91.7505
 11
-58.0431
 21
91.685
  0
LINE
  8
0
 10
-58.0431
 20
91.685
 11
-57.9698
 21
91.6142
  0
LINE
  8
0
 10
-57.9698
 20
91.6142
 11
-57.9016
 21
91.5385
  0
LINE
  8
0
 10
-57.9016
 20
91.5385
 11
-57.8388
 21
91.4582
  0
LINE
  8
0
 10
-57.8388
 20
91.4582
 11
-57.7818
 21
91.3737
  0
LINE
  8
0
 10
-57.7818
 20
91.3737
 11
-57.7309
 21
91.2854
  0
LINE
  8
0
 10
-57.7309
 20
91.2854
 11
-57.6862
 21
91.1938
  0
LINE
  8
0
 10
-57.6862
 20
91.1938
 11
-57.648
 21
91.0993
  0
LINE
  8
0
 10
-57.648
 20
91.0993
 11
-57.6166
 21
91.0024
  0
LINE
  8
0
 10
-57.6166
 20
91.0024
 11
-57.5919
 21
90.9036
  0
LINE
  8
0
 10
-57.5919
 20
90.9036
 11
-57.5742
 21
90.8032
  0
LINE
  8
0
 10
-57.5742
 20
90.8032
 11
-57.5636
 21
90.7018
  0
LINE
  8
0
 10
-57.5636
 20
90.7018
 11
-57.56
 21
90.6
  0
LINE
  8
0
 10
-57.56
 20
90.6
 11
-57.5636
 21
90.4982
  0
LINE
  8
0
 10
-57.5636
 20
90.4982
 11
-57.5742
 21
90.3968
  0
LINE
  8
0
 10
-57.5742
 20
90.3968
 11
-57.5919
 21
90.2964
  0
LINE
  8
0
 10
-57.5919
 20
90.2964
 11
-57.6166
 21
90.1976
  0
LINE
  8
0
 10
-57.6166
 20
90.1976
 11
-57.648
 21
90.1006
  0
LINE
  8
0
 10
-57.648
 20
90.1006
 11
-57.6862
 21
90.0062
  0
LINE
  8
0
 10
-57.6862
 20
90.0062
 11
-57.7309
 21
89.9146
  0
LINE
  8
0
 10
-57.7309
 20
89.9146
 11
-57.7818
 21
89.8263
  0
LINE
  8
0
 10
-57.7818
 20
89.8263
 11
-57.8388
 21
89.7418
  0
LINE
  8
0
 10
-57.8388
 20
89.7418
 11
-57.9016
 21
89.6615
  0
LINE
  8
0
 10
-57.9016
 20
89.6615
 11
-57.9698
 21
89.5858
  0
LINE
  8
0
 10
-57.9698
 20
89.5858
 11
-58.0431
 21
89.515
  0
LINE
  8
0
 10
-58.0431
 20
89.515
 11
-58.1211
 21
89.4495
  0
LINE
  8
0
 10
-58.1211
 20
89.4495
 11
-58.2036
 21
89.3896
  0
LINE
  8
0
 10
-58.2036
 20
89.3896
 11
-58.29
 21
89.3356
  0
LINE
  8
0
 10
-58.29
 20
89.3356
 11
-58.38
 21
89.2878
  0
LINE
  8
0
 10
-58.38
 20
89.2878
 11
-58.4731
 21
89.2463
  0
LINE
  8
0
 10
-58.4731
 20
89.2463
 11
-58.5688
 21
89.2115
  0
LINE
  8
0
 10
-58.5688
 20
89.2115
 11
-58.6668
 21
89.1834
  0
LINE
  8
0
 10
-58.6668
 20
89.1834
 11
-58.7665
 21
89.1622
  0
LINE
  8
0
 10
-58.7665
 20
89.1622
 11
-58.8674
 21
89.148
  0
LINE
  8
0
 10
-58.8674
 20
89.148
 11
-58.969
 21
89.1409
  0
LINE
  8
0
 10
-58.969
 20
89.1409
 11
-59.071
 21
89.1409
  0
LINE
  8
0
 10
-59.071
 20
89.1409
 11
-59.1726
 21
89.148
  0
LINE
  8
0
 10
-59.1726
 20
89.148
 11
-59.2735
 21
89.1622
  0
LINE
  8
0
 10
-59.2735
 20
89.1622
 11
-59.3732
 21
89.1834
  0
LINE
  8
0
 10
-59.3732
 20
89.1834
 11
-59.4712
 21
89.2115
  0
LINE
  8
0
 10
-59.4712
 20
89.2115
 11
-59.5669
 21
89.2463
  0
LINE
  8
0
 10
-59.5669
 20
89.2463
 11
-59.66
 21
89.2878
  0
LINE
  8
0
 10
-59.66
 20
89.2878
 11
-59.75
 21
89.3356
  0
LINE
  8
0
 10
-59.75
 20
89.3356
 11
-59.8364
 21
89.3896
  0
LINE
  8
0
 10
-59.8364
 20
89.3896
 11
-59.9189
 21
89.4495
  0
LINE
  8
0
 10
-59.9189
 20
89.4495
 11
-59.9969
 21
89.515
  0
LINE
  8
0
 10
-59.9969
 20
89.515
 11
-60.0702
 21
89.5858
  0
LINE
  8
0
 10
-60.0702
 20
89.5858
 11
-60.1384
 21
89.6615
  0
LINE
  8
0
 10
-60.1384
 20
89.6615
 11
-60.2012
 21
89.7418
  0
LINE
  8
0
 10
-60.2012
 20
89.7418
 11
-60.2582
 21
89.8263
  0
LINE
  8
0
 10
-60.2582
 20
89.8263
 11
-60.3091
 21
89.9146
  0
LINE
  8
0
 10
-60.3091
 20
89.9146
 11
-60.3538
 21
90.0062
  0
LINE
  8
0
 10
-60.3538
 20
90.0062
 11
-60.392
 21
90.1006
  0
LINE
  8
0
 10
-60.392
 20
90.1006
 11
-60.4234
 21
90.1976
  0
LINE
  8
0
 10
-60.4234
 20
90.1976
 11
-60.4481
 21
90.2964
  0
LINE
  8
0
 10
-60.4481
 20
90.2964
 11
-60.4658
 21
90.3968
  0
LINE
  8
0
 10
-60.4658
 20
90.3968
 11
-60.4764
 21
90.4982
  0
LINE
  8
0
 10
-60.4764
 20
90.4982
 11
-60.48
 21
90.6
  0
LINE
  8
0
 10
-53.98
 20
-84.2
 11
-53.98
 21
84.2
  0
LINE
  8
0
 10
-53.98
 20
84.2
 11
-53.9767
 21
84.2949
  0
LINE
  8
0
 10
-53.9767
 20
84.2949
 11
-53.9668
 21
84.3893
  0
LINE
  8
0
 10
-53.9668
 20
84.3893
 11
-53.9503
 21
84.4828
  0
LINE
  8
0
 10
-53.9503
 20
84.4828
 11
-53.9273
 21
84.5749
  0
LINE
  8
0
 10
-53.9273
 20
84.5749
 11
-53.898
 21
84.6651
  0
LINE
  8
0
 10
-53.898
 20
84.6651
 11
-53.8624
 21
84.7532
  0
LINE
  8
0
 10
-53.8624
 20
84.7532
 11
-53.8208
 21
84.8385
  0
LINE
  8
0
 10
-53.8208
 20
84.8385
 11
-53.7733
 21
84.9207
  0
LINE
  8
0
 10
-53.7733
 20
84.9207
 11
-53.7203
 21
84.9994
  0
LINE
  8
0
 10
-53.7203
 20
84.9994
 11
-53.6618
 21
85.0742
  0
LINE
  8
0
 10
-53.6618
 20
85.0742
 11
-53.5983
 21
85.1447
  0
LINE
  8
0
 10
-53.5983
 20
85.1447
 11
-53.53
 21
85.2107
  0
LINE
  8
0
 10
-53.53
 20
85.2107
 11
-53.4573
 21
85.2717
  0
LINE
  8
0
 10
-53.4573
 20
85.2717
 11
-53.3805
 21
85.3275
  0
LINE
  8
0
 10
-53.3805
 20
85.3275
 11
-53.3
 21
85.3778
  0
LINE
  8
0
 10
-53.3
 20
85.3778
 11
-53.2162
 21
85.4224
  0
LINE
  8
0
 10
-53.2162
 20
85.4224
 11
-53.1295
 21
85.461
  0
LINE
  8
0
 10
-53.1295
 20
85.461
 11
-53.0403
 21
85.4934
  0
LINE
  8
0
 10
-53.0403
 20
85.4934
 11
-52.949
 21
85.5196
  0
LINE
  8
0
 10
-52.949
 20
85.5196
 11
-52.8562
 21
85.5393
  0
LINE
  8
0
 10
-52.8562
 20
85.5393
 11
-52.7622
 21
85.5525
  0
LINE
  8
0
 10
-52.7622
 20
85.5525
 11
-52.6675
 21
85.5592
  0
LINE
  8
0
 10
-52.6675
 20
85.5592
 11
52.6675
 21
85.5592
  0
LINE
  8
0
 10
52.6675
 20
85.5592
 11
52.7622
 21
85.5525
  0
LINE
  8
0
 10
52.7622
 20
85.5525
 11
52.8562
 21
85.5393
  0
LINE
  8
0
 10
52.8562
 20
85.5393
 11
52.949
 21
85.5196
  0
LINE
  8
0
 10
52.949
 20
85.5196
 11
53.0403
 21
85.4934
  0
LINE
  8
0
 10
53.0403
 20
85.4934
 11
53.1295
 21
85.461
  0
LINE
  8
0
 10
53.1295
 20
85.461
 11
53.2162
 21
85.4224
  0
LINE
  8
0
 10
53.2162
 20
85.4224
 11
53.3
 21
85.3778
  0
LINE
  8
0
 10
53.3
 20
85.3778
 11
53.3805
 21
85.3275
  0
LINE
  8
0
 10
53.3805
 20
85.3275
 11
53.4573
 21
85.2717
  0
LINE
  8
0
 10
53.4573
 20
85.2717
 11
53.53
 21
85.2107
  0
LINE
  8
0
 10
53.53
 20
85.2107
 11
53.5983
 21
85.1447
  0
LINE
  8
0
 10
53.5983
 20
85.1447
 11
53.6618
 21
85.0742
  0
LINE
  8
0
 10
53.6618
 20
85.0742
 11
53.7203
 21
84.9994
  0
LINE
  8
0
 10
53.7203
 20
84.9994
 11
53.7733
 21
84.9207
  0
LINE
  8
0
 10
53.7733
 20
84.9207
 11
53.8208
 21
84.8385
  0
LINE
  8
0
 10
53.8208
 20
84.8385
 11
53.8624
 21
84.7532
  0
LINE
  8
0
 10
53.8624
 20
84.7532
 11
53.898
 21
84.6651
  0
LINE
  8
0
 10
53.898
 20
84.6651
 11
53.9273
 21
84.5749
  0
LINE
  8
0
 10
53.9273
 20
84.5749
 11
53.9503
 21
84.4828
  0
LINE
  8
0
 10
53.9503
 20
84.4828
 11
53.9668
 21
84.3893
  0
LINE
  8
0
 10
53.9668
 20
84.3893
 11
53.9767
 21
84.2949
  0
LINE
  8
0
 10
53.9767
 20
84.2949
 11
53.98
 21
84.2
  0
LINE
  8
0
 10
53.98
 20
84.2
 11
53.98
 21
-84.2
  0
LINE
  8
0
 10
53.98
 20
-84.2
 11
53.9767
 21
-84.2949
  0
LINE
  8
0
 10
53.9767
 20
-84.2949
 11
53.9668
 21
-84.3893
  0
LINE
  8
0
 10
53.9668
 20
-84.3893
 11
53.9503
 21
-84.4828
  0
LINE
  8
0
 10
53.9503
 20
-84.4828
 11
53.9273
 21
-84.5749
  0
LINE
  8
0
 10
53.9273
 20
-84.5749
 11
53.898
 21
-84.6651
  0
LINE
  8
0
 10
53.898
 20
-84.6651
 11
53.8624
 21
-84.7532
  0
LINE
  8
0
 10
53.8624
 20
-84.7532
 11
53.8208
 21
-84.8385
  0
LINE
  8
0
 10
53.8208
 20
-84.8385
 11
53.7733
 21
-84.9207
  0
LINE
  8
0
 10
53.7733
 20
-84.9207
 11
53.7203
 21
-84.9994
  0
LINE
  8
0
 10
53.7203
 20
-84.9994
 11
53.6618
 21
-85.0742
  0
LINE
  8
0
 10
53.6618
 20
-85.0742
 11
53.5983
 21
-85.1447
  0
LINE
  8
0
 10
53.5983
 20
-85.1447
 11
53.53
 21
-85.2107
  0
LINE
  8
0
 10
53.53
 20
-85.2107
 11
53.4573
 21
-85.2717
  0
LINE
  8
0
 10
53.4573
 20
-85.2717
 11
53.3805
 21
-85.3275
  0
LINE
  8
0
 10
53.3805
 20
-85.3275
 11
53.3
 21
-85.3778
  0
LINE
  8
0
 10
53.3
 20
-85.3778
 11
53.2162
 21
-85.4224
  0
LINE
  8
0
 10
53.2162
 20
-85.4224
 11
53.1295
 21
-85.461
  0
LINE
  8
0
 10
53.1295
 20
-85.461
 11
53.0403
 21
-85.4934
  0
LINE
  8
0
 10
53.0403
 20
-85.4934
 11
52.949
 21
-85.5196
  0
LINE
  8
0
 10
52.949
 20
-85.5196
 11
52.8562
 21
-85.5393
  0
LINE
  8
0
 10
52.8562
 20
-85.5393
 11
52.7622
 21
-85.5525
  0
LINE
  8
0
 10
52.7622
 20
-85.5525
 11
52.6675
 21
-85.5592
  0
LINE
  8
0
 10
52.6675
 20
-85.5592
 11
-52.6675
 21
-85.5592
  0
LINE
  8
0
 10
-52.6675
 20
-85.5592
 11
-52.7622
 21
-85.5525
  0
LINE
  8
0
 10
-52.7622
 20
-85.5525
 11
-52.8562
 21
-85.5393
  0
LINE
  8
0
 10
-52.8562
 20
-85.5393
 11
-52.949
 21
-85.5196
  0
LINE
  8
0
 10
-52.949
 20
-85.5196
 11
-53.0403
 21
-85.4934
  0
LINE
  8
0
 10
-53.0403
 20
-85.4934
 11
-53.1295
 21
-85.461
  0
LINE
  8
0
 10
-53.1295
 20
-85.461
 11
-53.2162
 21
-85.4224
  0
LINE
  8
0
 10
-53.2162
 20
-85.4224
 11
-53.3
 21
-85.3778
  0
LINE
  8
0
 10
-53.3
 20
-85.3778
 11
-53.3805
 21
-85.3275
  0
LINE
  8
0
 10
-53.3805
 20
-85.3275
 11
-53.4573
 21
-85.2717
  0
LINE
  8
0
 10
-53.4573
 20
-85.2717
 11
-53.53
 21
-85.2107
  0
LINE
  8
0
 10
-53.53
 20
-85.2107
 11
-53.5983
 21
-85.1447
  0
LINE
  8
0
 10
-53.5983
 20
-85.1447
 11
-53.6618
 21
-85.0742
  0
LINE
  8
0
 10
-53.6618
 20
-85.0742
 11
-53.7203
 21
-84.9994
  0
LINE
  8
0
 10
-53.7203
 20
-84.9994
 11
-53.7733
 21
-84.9207
  0
LINE
  8
0
 10
-53.7733
 20
-84.9207
 11
-53.8208
 21
-84.8385
  0
LINE
  8
0
 10
-53.8208
 20
-84.8385
 11
-53.8624
 21
-84.7532
  0
LINE
  8
0
 10
-53.8624
 20
-84.7532
 11
-53.898
 21
-84.6651
  0
LINE
  8
0
 10
-53.898
 20
-84.6651
 11
-53.9273
 21
-84.5749
  0
LINE
  8
0
 10
-53.9273
 20
-84.5749
 11
-53.9503
 21
-84.4828
  0
LINE
  8
0
 10
-53.9503
 20
-84.4828
 11
-53.9668
 21
-84.3893
  0
LINE
  8
0
 10
-53.9668
 20
-84.3893
 11
-53.9767
 21
-84.2949
  0
LINE
  8
0
 10
-53.9767
 20
-84.2949
 11
-53.98
 21
-84.2
  0
LINE
  8
0
 10
57.56
 20
-90.6
 11
57.5636
 21
-90.4982
  0
LINE
  8
0
 10
57.5636
 20
-90.4982
 11
57.5742
 21
-90.3968
  0
LINE
  8
0
 10
57.5742
 20
-90.3968
 11
57.5919
 21
-90.2964
  0
LINE
  8
0
 10
57.5919
 20
-90.2964
 11
57.6166
 21
-90.1976
  0
LINE
  8
0
 10
57.6166
 20
-90.1976
 11
57.648
 21
-90.1006
  0
LINE
  8
0
 10
57.648
 20
-90.1006
 11
57.6862
 21
-90.0062
  0
LINE
  8
0
 10
57.6862
 20
-90.0062
 11
57.7309
 21
-89.9146
  0
LINE
  8
0
 10
57.7309
 20
-89.9146
 11
57.7818
 21
-89.8263
  0
LINE
  8
0
 10
57.7818
 20
-89.8263
 11
57.8388
 21
-89.7418
  0
LINE
  8
0
 10
57.8388
 20
-89.7418
 11
57.9016
 21
-89.6615
  0
LINE
  8
0
 10
57.9016
 20
-89.6615
 11
57.9698
 21
-89.5858
  0
LINE
  8
0
 10
57.9698
 20
-89.5858
 11
58.0431
 21
-89.515
  0
LINE
  8
0
 10
58.0431
 20
-89.515
 11
58.1211
 21
-89.4495
  0
LINE
  8
0
 10
58.1211
 20
-89.4495
 11
58.2036
 21
-89.3896
  0
LINE
  8
0
 10
58.2036
 20
-89.3896
 11
58.29
 21
-89.3356
  0
LINE
  8
0
 10
58.29
 20
-89.3356
 11
58.38
 21
-89.2878
  0
LINE
  8
0
 10
58.38
 20
-89.2878
 11
58.4731
 21
-89.2463
  0
LINE
  8
0
 10
58.4731
 20
-89.2463
 11
58.5688
 21
-89.2115
  0
LINE
  8
0
 10
58.5688
 20
-89.2115
 11
58.6668
 21
-89.1834
  0
LINE
  8
0
 10
58.6668
 20
-89.1834
 11
58.7665
 21
-89.1622
  0
LINE
  8
0
 10
58.7665
 20
-89.1622
 11
58.8674
 21
-89.148
  0
LINE
  8
0
 10
58.8674
 20
-89.148
 11
58.969
 21
-89.1409
  0
LINE
  8
0
 10
58.969
 20
-89.1409
 11
59.071
 21
-89.1409
  0
LINE
  8
0
 10
59.071
 20
-89.1409
 11
59.1726
 21
-89.148
  0
LINE
  8
0
 10
59.1726
 20
-89.148
 11
59.2735
 21
-89.1622
  0
LINE
  8
0
 10
59.2735
 20
-89.1622
 11
59.3732
 21
-89.1834
  0
LINE
  8
0
 10
59.3732
 20
-89.1834
 11
59.4712
 21
-89.2115
  0
LINE
  8
0
 10
59.4712
 20
-89.2115
 11
59.5669
 21
-89.2463
  0
LINE
  8
0
 10
59.5669
 20
-89.2463
 11
59.66
 21
-89.2878
  0
LINE
  8
0
 10
59.66
 20
-89.2878
 11
59.75
 21
-89.3356
  0
LINE
  8
0
 10
59.75
 20
-89.3356
 11
59.8364
 21
-89.3896
  0
LINE
  8
0
 10
59.8364
 20
-89.3896
 11
59.9189
 21
-89.4495
  0
LINE
  8
0
 10
59.9189
 20
-89.4495
 11
59.9969
 21
-89.515
  0
LINE
  8
0
 10
59.9969
 20
-89.515
 11
60.0702
 21
-89.5858
  0
LINE
  8
0
 10
60.0702
 20
-89.5858
 11
60.1384
 21
-89.6615
  0
LINE
  8
0
 10
60.1384
 20
-89.6615
 11
60.2012
 21
-89.7418
  0
LINE
  8
0
 10
60.2012
 20
-89.7418
 11
60.2582
 21
-89.8263
  0
LINE
  8
0
 10
60.2582
 20
-89.8263
 11
60.3091
 21
-89.9146
  0
LINE
  8
0
 10
60.3091
 20
-89.9146
 11
60.3538
 21
-90.0062
  0
LINE
  8
0
 10
60.3538
 20
-90.0062
 11
60.392
 21
-90.1006
  0
LINE
  8
0
 10
60.392
 20
-90.1006
 11
60.4234
 21
-90.1976
  0
LINE
  8
0
 10
60.4234
 20
-90.1976
 11
60.4481
 21
-90.2964
  0
LINE
  8
0
 10
60.4481
 20
-90.2964
 11
60.4658
 21
-90.3968
  0
LINE
  8
0
 10
60.4658
 20
-90.3968
 11
60.4764
 21
-90.4982
  0
LINE
  8
0
 10
60.4764
 20
-90.4982
 11
60.48
 21
-90.6
  0
LINE
  8
0
 10
60.48
 20
-90.6
 11
60.4764
 21
-90.7018
  0
LINE
  8
0
 10
60.4764
 20
-90.7018
 11
60.4658
 21
-90.8032
  0
LINE
  8
0
 10
60.4658
 20
-90.8032
 11
60.4481
 21
-90.9036
  0
LINE
  8
0
 10
60.4481
 20
-90.9036
 11
60.4234
 21
-91.0024
  0
LINE
  8
0
 10
60.4234
 20
-91.0024
 11
60.392
 21
-91.0993
  0
LINE
  8
0
 10
60.392
 20
-91.0993
 11
60.3538
 21
-91.1938
  0
LINE
  8
0
 10
60.3538
 20
-91.1938
 11
60.3091
 21
-91.2854
  0
LINE
  8
0
 10
60.3091
 20
-91.2854
 11
60.2582
 21
-91.3737
  0
LINE
  8
0
 10
60.2582
 20
-91.3737
 11
60.2012
 21
-91.4582
  0
LINE
  8
0
 10
60.2012
 20
-91.4582
 11
60.1384
 21
-91.5385
  0
LINE
  8
0
 10
60.1384
 20
-91.5385
 11
60.0702
 21
-91.6142
  0
LINE
  8
0
 10
60.0702
 20
-91.6142
 11
59.9969
 21
-91.685
  0
LINE
  8
0
 10
59.9969
 20
-91.685
 11
59.9189
 21
-91.7505
  0
LINE
  8
0
 10
59.9189
 20
-91.7505
 11
59.8364
 21
-91.8104
  0
LINE
  8
0
 10
59.8364
 20
-91.8104
 11
59.75
 21
-91.8644
  0
LINE
  8
0
 10
59.75
 20
-91.8644
 11
59.66
 21
-91.9122
  0
LINE
  8
0
 10
59.66
 20
-91.9122
 11
59.5669
 21
-91.9537
  0
LINE
  8
0
 10
59.5669
 20
-91.9537
 11
59.4712
 21
-91.9885
  0
LINE
  8
0
 10
59.4712
 20
-91.9885
 11
59.3732
 21
-92.0166
  0
LINE
  8
0
 10
59.3732
 20
-92.0166
 11
59.2735
 21
-92.0378
  0
LINE
  8
0
 10
59.2735
 20
-92.0378
 11
59.1726
 21
-92.052
  0
LINE
  8
0
 10
59.1726
 20
-92.052
 11
59.071
 21
-92.0591
  0
LINE
  8
0
 10
59.071
 20
-92.0591
 11
58.969
 21
-92.0591
  0
LINE
  8
0
 10
58.969
 20
-92.0591
 11
58.8674
 21
-92.052
  0
LINE
  8
0
 10
58.8674
 20
-92.052
 11
58.7665
 21
-92.0378
  0
LINE
  8
0
 10
58.7665
 20
-92.0378
 11
58.6668
 21
-92.0166
  0
LINE
  8
0
 10
58.6668
 20
-92.0166
 11
58.5688
 21
-91.9885
  0
LINE
  8
0
 10
58.5688
 20
-91.9885
 11
58.4731
 21
-91.9537
  0
LINE
  8
0
 10
58.4731
 20
-91.9537
 11
58.38
 21
-91.9122
  0
LINE
  8
0
 10
58.38
 20
-91.9122
 11
58.29
 21
-91.8644
  0
LINE
  8
0
 10
58.29
 20
-91.8644
 11
58.2036
 21
-91.8104
  0
LINE
  8
0
 10
58.2036
 20
-91.8104
 11
58.1211
 21
-91.7505
  0
LINE
  8
0
 10
58.1211
 20
-91.7505
 11
58.0431
 21
-91.685
  0
LINE
  8
0
 10
58.0431
 20
-91.685
 11
57.9698
 21
-91.6142
  0
LINE
  8
0
 10
57.9698
 20
-91.6142
 11
57.9016
 21
-91.5385
  0
LINE
  8
0
 10
57.9016
 20
-91.5385
 11
57.8388
 21
-91.4582
  0
LINE
  8
0
 10
57.8388
 20
-91.4582
 11
57.7818
 21
-91.3737
  0
LINE
  8
0
 10
57.7818
 20
-91.3737
 11
57.7309
 21
-91.2854
  0
LINE
  8
0
 10
57.7309
 20
-91.2854
 11
57.6862
 21
-91.1938
  0
LINE
  8
0
 10
57.6862
 20
-91.1938
 11
57.648
 21
-91.0993
  0
LINE
  8
0
 10
57.648
 20
-91.0993
 11
57.6166
 21
-91.0024
  0
LINE
  8
0
 10
57.6166
 20
-91.0024
 11
57.5919
 21
-90.9036
  0
LINE
  8
0
 10
57.5919
 20
-90.9036
 11
57.5742
 21
-90.8032
  0
LINE
  8
0
 10
57.5742
 20
-90.8032
 11
57.5636
 21
-90.7018
  0
LINE
  8
0
 10
57.5636
 20
-90.7018
 11
57.56
 21
-90.6
  0
LINE
  8
0
 10
57.56
 20
90.6
 11
57.5636
 21
90.7018
  0
LINE
  8
0
 10
57.5636
 20
90.7018
 11
57.5742
 21
90.8032
  0
LINE
  8
0
 10
57.5742
 20
90.8032
 11
57.5919
 21
90.9036
  0
LINE
  8
0
 10
57.5919
 20
90.9036
 11
57.6166
 21
91.0024
  0
LINE
  8
0
 10
57.6166
 20
91.0024
 11
57.648
 21
91.0993
  0
LINE
  8
0
 10
57.648
 20
91.0993
 11
57.6862
 21
91.1938
  0
LINE
  8
0
 10
57.6862
 20
91.1938
 11
57.7309
 21
91.2854
  0
LINE
  8
0
 10
57.7309
 20
91.2854
 11
57.7818
 21
91.3737
  0
LINE
  8
0
 10
57.7818
 20
91.3737
 11
57.8388
 21
91.4582
  0
LINE
  8
0
 10
57.8388
 20
91.4582
 11
57.9016
 21
91.5385
  0
LINE
  8
0
 10
57.9016
 20
91.5385
 11
57.9698
 21
91.6142
  0
LINE
  8
0
 10
57.9698
 20
91.6142
 11
58.0431
 21
91.685
  0
LINE
  8
0
 10
58.0431
 20
91.685
 11
58.1211
 21
91.7505
  0
LINE
  8
0
 10
58.1211
 20
91.7505
 11
58.2036
 21
91.8104
  0
LINE
  8
0
 10
58.2036
 20
91.8104
 11
58.29
 21
91.8644
  0
LINE
  8
0
 10
58.29
 20
91.8644
 11
58.38
 21
91.9122
  0
LINE
  8
0
 10
58.38
 20
91.9122
 11
58.4731
 21
91.9537
  0
LINE
  8
0
 10
58.4731
 20
91.9537
 11
58.5688
 21
91.9885
  0
LINE
  8
0
 10
58.5688
 20
91.9885
 11
58.6668
 21
92.0166
  0
LINE
  8
0
 10
58.6668
 20
92.0166
 11
58.7665
 21
92.0378
  0
LINE
  8
0
 10
58.7665
 20
92.0378
 11
58.8674
 21
92.052
  0
LINE
  8
0
 10
58.8674
 20
92.052
 11
58.969
 21
92.0591
  0
LINE
  8
0
 10
58.969
 20
92.0591
 11
59.071
 21
92.0591
  0
LINE
  8
0
 10
59.071
 20
92.0591
 11
59.1726
 21
92.052
  0
LINE
  8
0
 10
59.1726
 20
92.052
 11
59.2735
 21
92.0378
  0
LINE
  8
0
 10
59.2735
 20
92.0378
 11
59.3732
 21
92.0166
  0
LINE
  8
0
 10
59.3732
 20
92.0166
 11
59.4712
 21
91.9885
  0
LINE
  8
0
 10
59.4712
 20
91.9885
 11
59.5669
 21
91.9537
  0
LINE
  8
0
 10
59.5669
 20
91.9537
 11
59.66
 21
91.9122
  0
LINE
  8
0
 10
59.66
 20
91.9122
 11
59.75
 21
91.8644
  0
LINE
  8
0
 10
59.75
 20
91.8644
 11
59.8364
 21
91.8104
  0
LINE
  8
0
 10
59.8364
 20
91.8104
 11
59.9189
 21
91.7505
  0
LINE
  8
0
 10
59.9189
 20
91.7505
 11
59.9969
 21
91.685
  0
LINE
  8
0
 10
59.9969
 20
91.685
 11
60.0702
 21
91.6142
  0
LINE
  8
0
 10
60.0702
 20
91.6142
 11
60.1384
 21
91.5385
  0
LINE
  8
0
 10
60.1384
 20
91.5385
 11
60.2012
 21
91.4582
  0
LINE
  8
0
 10
60.2012
 20
91.4582
 11
60.2582
 21
91.3737
  0
LINE
  8
0
 10
60.2582
 20
91.3737
 11
60.3091
 21
91.2854
  0
LINE
  8
0
 10
60.3091
 20
91.2854
 11
60.3538
 21
91.1938
  0
LINE
  8
0
 10
60.3538
 20
91.1938
 11
60.392
 21
91.0993
  0
LINE
  8
0
 10
60.392
 20
91.0993
 11
60.4234
 21
91.0024
  0
LINE
  8
0
 10
60.4234
 20
91.0024
 11
60.4481
 21
90.9036
  0
LINE
  8
0
 10
60.4481
 20
90.9036
 11
60.4658
 21
90.8032
  0
LINE
  8
0
 10
60.4658
 20
90.8032
 11
60.4764
 21
90.7018
  0
LINE
  8
0
 10
60.4764
 20
90.7018
 11
60.48
 21
90.6
  0
LINE
  8
0
 10
60.48
 20
90.6
 11
60.4764
 21
90.4982
  0
LINE
  8
0
 10
60.4764
 20
90.4982
 11
60.4658
 21
90.3968
  0
LINE
  8
0
 10
60.4658
 20
90.3968
 11
60.4481
 21
90.2964
  0
LINE
  8
0
 10
60.4481
 20
90.2964
 11
60.4234
 21
90.1976
  0
LINE
  8
0
 10
60.4234
 20
90.1976
 11
60.392
 21
90.1006
  0
LINE
  8
0
 10
60.392
 20
90.1006
 11
60.3538
 21
90.0062
  0
LINE
  8
0
 10
60.3538
 20
90.0062
 11
60.3091
 21
89.9146
  0
LINE
  8
0
 10
60.3091
 20
89.9146
 11
60.2582
 21
89.8263
  0
LINE
  8
0
 10
60.2582
 20
89.8263
 11
60.2012
 21
89.7418
  0
LINE
  8
0
 10
60.2012
 20
89.7418
 11
60.1384
 21
89.6615
  0
LINE
  8
0
 10
60.1384
 20
89.6615
 11
60.0702
 21
89.5858
  0
LINE
  8
0
 10
60.0702
 20
89.5858
 11
59.9969
 21
89.515
  0
LINE
  8
0
 10
59.9969
 20
89.515
 11
59.9189
 21
89.4495
  0
LINE
  8
0
 10
59.9189
 20
89.4495
 11
59.8364
 21
89.3896
  0
LINE
  8
0
 10
59.8364
 20
89.3896
 11
59.75
 21
89.3356
  0
LINE
  8
0
 10
59.75
 20
89.3356
 11
59.66
 21
89.2878
  0
LINE
  8
0
 10
59.66
 20
89.2878
 11
59.5669
 21
89.2463
  0
LINE
  8
0
 10
59.5669
 20
89.2463
 11
59.4712
 21
89.2115
  0
LINE
  8
0
 10
59.4712
 20
89.2115
 11
59.3732
 21
89.1834
  0
LINE
  8
0
 10
59.3732
 20
89.1834
 11
59.2735
 21
89.1622
  0
LINE
  8
0
 10
59.2735
 20
89.1622
 11
59.1726
 21
89.148
  0
LINE
  8
0
 10
59.1726
 20
89.148
 11
59.071
 21
89.1409
  0
LINE
  8
0
 10
59.071
 20
89.1409
 11
58.969
 21
89.1409
  0
LINE
  8
0
 10
58.969
 20
89.1409
 11
58.8674
 21
89.148
  0
LINE
  8
0
 10
58.8674
 20
89.148
 11
58.7665
 21
89.1622
  0
LINE
  8
0
 10
58.7665
 20
89.1622
 11
58.6668
 21
89.1834
  0
LINE
  8
0
 10
58.6668
 20
89.1834
 11
58.5688
 21
89.2115
  0
LINE
  8
0
 10
58.5688
 20
89.2115
 11
58.4731
 21
89.2463
  0
LINE
  8
0
 10
58.4731
 20
89.2463
 11
58.38
 21
89.2878
  0
LINE
  8
0
 10
58.38
 20
89.2878
 11
58.29
 21
89.3356
  0
LINE
  8
0
 10
58.29
 20
89.3356
 11
58.2036
 21
89.3896
  0
LINE
  8
0
 10
58.2036
 20
89.3896
 11
58.1211
 21
89.4495
  0
LINE
  8
0
 10
58.1211
 20
89.4495
 11
58.0431
 21
89.515
  0
LINE
  8
0
 10
58.0431
 20
89.515
 11
57.9698
 21
89.5858
  0
LINE
  8
0
 10
57.9698
 20
89.5858
 11
57.9016
 21
89.6615
  0
LINE
  8
0
 10
57.9016
 20
89.6615
 11
57.8388
 21
89.7418
  0
LINE
  8
0
 10
57.8388
 20
89.7418
 11
57.7818
 21
89.8263
  0
LINE
  8
0
 10
57.7818
 20
89.8263
 11
57.7309
 21
89.9146
  0
LINE
  8
0
 10
57.7309
 20
89.9146
 11
57.6862
 21
90.0062
  0
LINE
  8
0
 10
57.6862
 20
90.0062
 11
57.648
 21
90.1006
  0
LINE
  8
0
 10
57.648
 20
90.1006
 11
57.6166
 21
90.1976
  0
LINE
  8
0
 10
57.6166
 20
90.1976
 11
57.5919
 21
90.2964
  0
LINE
  8
0
 10
57.5919
 20
90.2964
 11
57.5742
 21
90.3968
  0
LINE
  8
0
 10
57.5742
 20
90.3968
 11
57.5636
 21
90.4982
  0
LINE
  8
0
 10
57.5636
 20
90.4982
 11
57.56
 21
90.6
  0
ENDSEC
  0
SECTION
  2
OBJECTS
  0
DICTIONARY
  0
ENDSEC
  0
EOF
