  0
SECTION
  2
BLOCKS
  0
ENDSEC
  0
SECTION
  2
ENTITIES
  0
LINE
  8
0
 10
72.9467
 20
-90.4156
 11
73.5065
 21
-90.3369
  0
LINE
  8
0
 10
73.5065
 20
-90.3369
 11
74.0596
 21
-90.2194
  0
LINE
  8
0
 10
74.0596
 20
-90.2194
 11
74.603
 21
-90.0636
  0
LINE
  8
0
 10
74.603
 20
-90.0636
 11
75.1343
 21
-89.8702
  0
LINE
  8
0
 10
75.1343
 20
-89.8702
 11
75.6508
 21
-89.6402
  0
LINE
  8
0
 10
75.6508
 20
-89.6402
 11
76.15
 21
-89.3748
  0
LINE
  8
0
 10
76.15
 20
-89.3748
 11
76.6295
 21
-89.0752
  0
LINE
  8
0
 10
76.6295
 20
-89.0752
 11
77.0869
 21
-88.7429
  0
LINE
  8
0
 10
77.0869
 20
-88.7429
 11
77.52
 21
-88.3795
  0
LINE
  8
0
 10
77.52
 20
-88.3795
 11
77.9267
 21
-87.9867
  0
LINE
  8
0
 10
77.9267
 20
-87.9867
 11
78.305
 21
-87.5666
  0
LINE
  8
0
 10
78.305
 20
-87.5666
 11
78.653
 21
-87.1211
  0
LINE
  8
0
 10
78.653
 20
-87.1211
 11
78.9692
 21
-86.6523
  0
LINE
  8
0
 10
78.9692
 20
-86.6523
 11
79.2519
 21
-86.1627
  0
LINE
  8
0
 10
79.2519
 20
-86.1627
 11
79.4997
 21
-85.6546
  0
LINE
  8
0
 10
79.4997
 20
-85.6546
 11
79.7115
 21
-85.1304
  0
LINE
  8
0
 10
79.7115
 20
-85.1304
 11
79.8862
 21
-84.5927
  0
LINE
  8
0
 10
79.8862
 20
-84.5927
 11
80.023
 21
-84.0441
  0
LINE
  8
0
 10
80.023
 20
-84.0441
 11
80.1212
 21
-83.4873
  0
LINE
  8
0
 10
80.1212
 20
-83.4873
 11
80.1803
 21
-82.925
  0
LINE
  8
0
 10
80.1803
 20
-82.925
 11
80.2
 21
-82.36
  0
LINE
  8
0
 10
80.2
 20
-82.36
 11
80.2
 21
-70.5885
  0
LINE
  8
0
 10
80.2
 20
-70.5885
 11
72.75
 21
-70.5885
  0
LINE
  8
0
 10
72.75
 20
-70.5885
 11
72.75
 21
-74.79
  0
LINE
  8
0
 10
72.75
 20
-74.79
 11
61.585
 21
-74.79
  0
LINE
  8
0
 10
61.585
 20
-74.79
 11
61.585
 21
-77.76
  0
LINE
  8
0
 10
61.585
 20
-77.76
 11
46.565
 21
-77.76
  0
LINE
  8
0
 10
46.565
 20
-77.76
 11
46.565
 21
-74.79
  0
LINE
  8
0
 10
46.565
 20
-74.79
 11
7.50999
 21
-74.79
  0
LINE
  8
0
 10
7.50999
 20
-74.79
 11
7.50999
 21
-77.76
  0
LINE
  8
0
 10
7.50999
 20
-77.76
 11
-7.50999
 21
-77.76
  0
LINE
  8
0
 10
-7.50999
 20
-77.76
 11
-7.50999
 21
-74.79
  0
LINE
  8
0
 10
-7.50999
 20
-74.79
 11
-46.565
 21
-74.79
  0
LINE
  8
0
 10
-46.565
 20
-74.79
 11
-46.565
 21
-77.76
  0
LINE
  8
0
 10
-46.565
 20
-77.76
 11
-61.585
 21
-77.76
  0
LINE
  8
0
 10
-61.585
 20
-77.76
 11
-61.585
 21
-74.79
  0
LINE
  8
0
 10
-61.585
 20
-74.79
 11
-77.75
 21
-74.79
  0
LINE
  8
0
 10
-77.75
 20
-74.79
 11
-77.75
 21
-70.5885
  0
LINE
  8
0
 10
-77.75
 20
-70.5885
 11
-80.2
 21
-70.5885
  0
LINE
  8
0
 10
-80.2
 20
-70.5885
 11
-80.2
 21
-82.36
  0
LINE
  8
0
 10
-80.2
 20
-82.36
 11
-80.1803
 21
-82.925
  0
LINE
  8
0
 10
-80.1803
 20
-82.925
 11
-80.1212
 21
-83.4873
  0
LINE
  8
0
 10
-80.1212
 20
-83.4873
 11
-80.023
 21
-84.0441
  0
LINE
  8
0
 10
-80.023
 20
-84.0441
 11
-79.8862
 21
-84.5927
  0
LINE
  8
0
 10
-79.8862
 20
-84.5927
 11
-79.7115
 21
-85.1304
  0
LINE
  8
0
 10
-79.7115
 20
-85.1304
 11
-79.4997
 21
-85.6546
  0
LINE
  8
0
 10
-79.4997
 20
-85.6546
 11
-79.2519
 21
-86.1627
  0
LINE
  8
0
 10
-79.2519
 20
-86.1627
 11
-78.9692
 21
-86.6523
  0
LINE
  8
0
 10
-78.9692
 20
-86.6523
 11
-78.653
 21
-87.1211
  0
LINE
  8
0
 10
-78.653
 20
-87.1211
 11
-78.305
 21
-87.5666
  0
LINE
  8
0
 10
-78.305
 20
-87.5666
 11
-77.9267
 21
-87.9867
  0
LINE
  8
0
 10
-77.9267
 20
-87.9867
 11
-77.52
 21
-88.3795
  0
LINE
  8
0
 10
-77.52
 20
-88.3795
 11
-77.0869
 21
-88.7429
  0
LINE
  8
0
 10
-77.0869
 20
-88.7429
 11
-76.6295
 21
-89.0752
  0
LINE
  8
0
 10
-76.6295
 20
-89.0752
 11
-76.15
 21
-89.3748
  0
LINE
  8
0
 10
-76.15
 20
-89.3748
 11
-75.6508
 21
-89.6402
  0
LINE
  8
0
 10
-75.6508
 20
-89.6402
 11
-75.1343
 21
-89.8702
  0
LINE
  8
0
 10
-75.1343
 20
-89.8702
 11
-74.603
 21
-90.0636
  0
LINE
  8
0
 10
-74.603
 20
-90.0636
 11
-74.0596
 21
-90.2194
  0
LINE
  8
0
 10
-74.0596
 20
-90.2194
 11
-73.5065
 21
-90.3369
  0
LINE
  8
0
 10
-73.5065
 20
-90.3369
 11
-72.9467
 21
-90.4156
  0
LINE
  8
0
 10
-72.9467
 20
-90.4156
 11
-72.3827
 21
-90.4551
  0
LINE
  8
0
 10
-72.3827
 20
-90.4551
 11
72.3827
 21
-90.4551
  0
LINE
  8
0
 10
72.3827
 20
-90.4551
 11
72.9467
 21
-90.4156
  0
LINE
  8
0
 10
71.9583
 20
-86.4175
 11
71.6756
 21
-86.3978
  0
LINE
  8
0
 10
71.6756
 20
-86.3978
 11
71.395
 21
-86.3583
  0
LINE
  8
0
 10
71.395
 20
-86.3583
 11
71.1178
 21
-86.2994
  0
LINE
  8
0
 10
71.1178
 20
-86.2994
 11
70.8454
 21
-86.2213
  0
LINE
  8
0
 10
70.8454
 20
-86.2213
 11
70.5791
 21
-86.1244
  0
LINE
  8
0
 10
70.5791
 20
-86.1244
 11
70.3202
 21
-86.0091
  0
LINE
  8
0
 10
70.3202
 20
-86.0091
 11
70.07
 21
-85.8761
  0
LINE
  8
0
 10
70.07
 20
-85.8761
 11
69.8297
 21
-85.7259
  0
LINE
  8
0
 10
69.8297
 20
-85.7259
 11
69.6004
 21
-85.5593
  0
LINE
  8
0
 10
69.6004
 20
-85.5593
 11
69.3833
 21
-85.3772
  0
LINE
  8
0
 10
69.3833
 20
-85.3772
 11
69.1795
 21
-85.1803
  0
LINE
  8
0
 10
69.1795
 20
-85.1803
 11
68.9899
 21
-84.9697
  0
LINE
  8
0
 10
68.9899
 20
-84.9697
 11
68.8154
 21
-84.7464
  0
LINE
  8
0
 10
68.8154
 20
-84.7464
 11
68.6569
 21
-84.5115
  0
LINE
  8
0
 10
68.6569
 20
-84.5115
 11
68.5152
 21
-84.2661
  0
LINE
  8
0
 10
68.5152
 20
-84.2661
 11
68.391
 21
-84.0114
  0
LINE
  8
0
 10
68.391
 20
-84.0114
 11
68.2849
 21
-83.7486
  0
LINE
  8
0
 10
68.2849
 20
-83.7486
 11
68.1973
 21
-83.4791
  0
LINE
  8
0
 10
68.1973
 20
-83.4791
 11
68.1287
 21
-83.2041
  0
LINE
  8
0
 10
68.1287
 20
-83.2041
 11
68.0795
 21
-82.925
  0
LINE
  8
0
 10
68.0795
 20
-82.925
 11
68.0499
 21
-82.6432
  0
LINE
  8
0
 10
68.0499
 20
-82.6432
 11
68.04
 21
-82.36
  0
LINE
  8
0
 10
68.04
 20
-82.36
 11
68.0499
 21
-82.0768
  0
LINE
  8
0
 10
68.0499
 20
-82.0768
 11
68.0795
 21
-81.795
  0
LINE
  8
0
 10
68.0795
 20
-81.795
 11
68.1287
 21
-81.5159
  0
LINE
  8
0
 10
68.1287
 20
-81.5159
 11
68.1973
 21
-81.2409
  0
LINE
  8
0
 10
68.1973
 20
-81.2409
 11
68.2849
 21
-80.9714
  0
LINE
  8
0
 10
68.2849
 20
-80.9714
 11
68.391
 21
-80.7086
  0
LINE
  8
0
 10
68.391
 20
-80.7086
 11
68.5152
 21
-80.4539
  0
LINE
  8
0
 10
68.5152
 20
-80.4539
 11
68.6569
 21
-80.2085
  0
LINE
  8
0
 10
68.6569
 20
-80.2085
 11
68.8154
 21
-79.9736
  0
LINE
  8
0
 10
68.8154
 20
-79.9736
 11
68.9899
 21
-79.7503
  0
LINE
  8
0
 10
68.9899
 20
-79.7503
 11
69.1795
 21
-79.5397
  0
LINE
  8
0
 10
69.1795
 20
-79.5397
 11
69.3833
 21
-79.3428
  0
LINE
  8
0
 10
69.3833
 20
-79.3428
 11
69.6004
 21
-79.1607
  0
LINE
  8
0
 10
69.6004
 20
-79.1607
 11
69.8297
 21
-78.9941
  0
LINE
  8
0
 10
69.8297
 20
-78.9941
 11
70.07
 21
-78.8439
  0
LINE
  8
0
 10
70.07
 20
-78.8439
 11
70.3202
 21
-78.7109
  0
LINE
  8
0
 10
70.3202
 20
-78.7109
 11
70.5791
 21
-78.5956
  0
LINE
  8
0
 10
70.5791
 20
-78.5956
 11
70.8454
 21
-78.4987
  0
LINE
  8
0
 10
70.8454
 20
-78.4987
 11
71.1178
 21
-78.4206
  0
LINE
  8
0
 10
71.1178
 20
-78.4206
 11
71.395
 21
-78.3617
  0
LINE
  8
0
 10
71.395
 20
-78.3617
 11
71.6756
 21
-78.3222
  0
LINE
  8
0
 10
71.6756
 20
-78.3222
 11
71.9583
 21
-78.3025
  0
LINE
  8
0
 10
71.9583
 20
-78.3025
 11
72.2417
 21
-78.3025
  0
LINE
  8
0
 10
72.2417
 20
-78.3025
 11
72.5244
 21
-78.3222
  0
LINE
  8
0
 10
72.5244
 20
-78.3222
 11
72.805
 21
-78.3617
  0
LINE
  8
0
 10
72.805
 20
-78.3617
 11
73.0822
 21
-78.4206
  0
LINE
  8
0
 10
73.0822
 20
-78.4206
 11
73.3546
 21
-78.4987
  0
LINE
  8
0
 10
73.3546
 20
-78.4987
 11
73.6209
 21
-78.5956
  0
LINE
  8
0
 10
73.6209
 20
-78.5956
 11
73.8798
 21
-78.7109
  0
LINE
  8
0
 10
73.8798
 20
-78.7109
 11
74.13
 21
-78.8439
  0
LINE
  8
0
 10
74.13
 20
-78.8439
 11
74.3703
 21
-78.9941
  0
LINE
  8
0
 10
74.3703
 20
-78.9941
 11
74.5996
 21
-79.1607
  0
LINE
  8
0
 10
74.5996
 20
-79.1607
 11
74.8167
 21
-79.3428
  0
LINE
  8
0
 10
74.8167
 20
-79.3428
 11
75.0205
 21
-79.5397
  0
LINE
  8
0
 10
75.0205
 20
-79.5397
 11
75.2101
 21
-79.7503
  0
LINE
  8
0
 10
75.2101
 20
-79.7503
 11
75.3846
 21
-79.9736
  0
LINE
  8
0
 10
75.3846
 20
-79.9736
 11
75.5431
 21
-80.2085
  0
LINE
  8
0
 10
75.5431
 20
-80.2085
 11
75.6848
 21
-80.4539
  0
LINE
  8
0
 10
75.6848
 20
-80.4539
 11
75.809
 21
-80.7086
  0
LINE
  8
0
 10
75.809
 20
-80.7086
 11
75.9151
 21
-80.9714
  0
LINE
  8
0
 10
75.9151
 20
-80.9714
 11
76.0027
 21
-81.2409
  0
LINE
  8
0
 10
76.0027
 20
-81.2409
 11
76.0713
 21
-81.5159
  0
LINE
  8
0
 10
76.0713
 20
-81.5159
 11
76.1205
 21
-81.795
  0
LINE
  8
0
 10
76.1205
 20
-81.795
 11
76.1501
 21
-82.0768
  0
LINE
  8
0
 10
76.1501
 20
-82.0768
 11
76.16
 21
-82.36
  0
LINE
  8
0
 10
76.16
 20
-82.36
 11
76.1501
 21
-82.6432
  0
LINE
  8
0
 10
76.1501
 20
-82.6432
 11
76.1205
 21
-82.925
  0
LINE
  8
0
 10
76.1205
 20
-82.925
 11
76.0713
 21
-83.2041
  0
LINE
  8
0
 10
76.0713
 20
-83.2041
 11
76.0027
 21
-83.4791
  0
LINE
  8
0
 10
76.0027
 20
-83.4791
 11
75.9151
 21
-83.7486
  0
LINE
  8
0
 10
75.9151
 20
-83.7486
 11
75.809
 21
-84.0114
  0
LINE
  8
0
 10
75.809
 20
-84.0114
 11
75.6848
 21
-84.2661
  0
LINE
  8
0
 10
75.6848
 20
-84.2661
 11
75.5431
 21
-84.5115
  0
LINE
  8
0
 10
75.5431
 20
-84.5115
 11
75.3846
 21
-84.7464
  0
LINE
  8
0
 10
75.3846
 20
-84.7464
 11
75.2101
 21
-84.9697
  0
LINE
  8
0
 10
75.2101
 20
-84.9697
 11
75.0205
 21
-85.1803
  0
LINE
  8
0
 10
75.0205
 20
-85.1803
 11
74.8167
 21
-85.3772
  0
LINE
  8
0
 10
74.8167
 20
-85.3772
 11
74.5996
 21
-85.5593
  0
LINE
  8
0
 10
74.5996
 20
-85.5593
 11
74.3703
 21
-85.7259
  0
LINE
  8
0
 10
74.3703
 20
-85.7259
 11
74.13
 21
-85.8761
  0
LINE
  8
0
 10
74.13
 20
-85.8761
 11
73.8798
 21
-86.0091
  0
LINE
  8
0
 10
73.8798
 20
-86.0091
 11
73.6209
 21
-86.1244
  0
LINE
  8
0
 10
73.6209
 20
-86.1244
 11
73.3546
 21
-86.2213
  0
LINE
  8
0
 10
73.3546
 20
-86.2213
 11
73.0822
 21
-86.2994
  0
LINE
  8
0
 10
73.0822
 20
-86.2994
 11
72.805
 21
-86.3583
  0
LINE
  8
0
 10
72.805
 20
-86.3583
 11
72.5244
 21
-86.3978
  0
LINE
  8
0
 10
72.5244
 20
-86.3978
 11
72.2417
 21
-86.4175
  0
LINE
  8
0
 10
72.2417
 20
-86.4175
 11
71.9583
 21
-86.4175
  0
LINE
  8
0
 10
-72.2417
 20
-86.4175
 11
-72.5244
 21
-86.3978
  0
LINE
  8
0
 10
-72.5244
 20
-86.3978
 11
-72.805
 21
-86.3583
  0
LINE
  8
0
 10
-72.805
 20
-86.3583
 11
-73.0822
 21
-86.2994
  0
LINE
  8
0
 10
-73.0822
 20
-86.2994
 11
-73.3546
 21
-86.2213
  0
LINE
  8
0
 10
-73.3546
 20
-86.2213
 11
-73.6209
 21
-86.1244
  0
LINE
  8
0
 10
-73.6209
 20
-86.1244
 11
-73.8798
 21
-86.0091
  0
LINE
  8
0
 10
-73.8798
 20
-86.0091
 11
-74.13
 21
-85.8761
  0
LINE
  8
0
 10
-74.13
 20
-85.8761
 11
-74.3703
 21
-85.7259
  0
LINE
  8
0
 10
-74.3703
 20
-85.7259
 11
-74.5996
 21
-85.5593
  0
LINE
  8
0
 10
-74.5996
 20
-85.5593
 11
-74.8167
 21
-85.3772
  0
LINE
  8
0
 10
-74.8167
 20
-85.3772
 11
-75.0205
 21
-85.1803
  0
LINE
  8
0
 10
-75.0205
 20
-85.1803
 11
-75.2101
 21
-84.9697
  0
LINE
  8
0
 10
-75.2101
 20
-84.9697
 11
-75.3846
 21
-84.7464
  0
LINE
  8
0
 10
-75.3846
 20
-84.7464
 11
-75.5431
 21
-84.5115
  0
LINE
  8
0
 10
-75.5431
 20
-84.5115
 11
-75.6848
 21
-84.2661
  0
LINE
  8
0
 10
-75.6848
 20
-84.2661
 11
-75.809
 21
-84.0114
  0
LINE
  8
0
 10
-75.809
 20
-84.0114
 11
-75.9151
 21
-83.7486
  0
LINE
  8
0
 10
-75.9151
 20
-83.7486
 11
-76.0027
 21
-83.4791
  0
LINE
  8
0
 10
-76.0027
 20
-83.4791
 11
-76.0713
 21
-83.2041
  0
LINE
  8
0
 10
-76.0713
 20
-83.2041
 11
-76.1205
 21
-82.925
  0
LINE
  8
0
 10
-76.1205
 20
-82.925
 11
-76.1501
 21
-82.6432
  0
LINE
  8
0
 10
-76.1501
 20
-82.6432
 11
-76.16
 21
-82.36
  0
LINE
  8
0
 10
-76.16
 20
-82.36
 11
-76.1501
 21
-82.0768
  0
LINE
  8
0
 10
-76.1501
 20
-82.0768
 11
-76.1205
 21
-81.795
  0
LINE
  8
0
 10
-76.1205
 20
-81.795
 11
-76.0713
 21
-81.5159
  0
LINE
  8
0
 10
-76.0713
 20
-81.5159
 11
-76.0027
 21
-81.2409
  0
LINE
  8
0
 10
-76.0027
 20
-81.2409
 11
-75.9151
 21
-80.9714
  0
LINE
  8
0
 10
-75.9151
 20
-80.9714
 11
-75.809
 21
-80.7086
  0
LINE
  8
0
 10
-75.809
 20
-80.7086
 11
-75.6848
 21
-80.4539
  0
LINE
  8
0
 10
-75.6848
 20
-80.4539
 11
-75.5431
 21
-80.2085
  0
LINE
  8
0
 10
-75.5431
 20
-80.2085
 11
-75.3846
 21
-79.9736
  0
LINE
  8
0
 10
-75.3846
 20
-79.9736
 11
-75.2101
 21
-79.7503
  0
LINE
  8
0
 10
-75.2101
 20
-79.7503
 11
-75.0205
 21
-79.5397
  0
LINE
  8
0
 10
-75.0205
 20
-79.5397
 11
-74.8167
 21
-79.3428
  0
LINE
  8
0
 10
-74.8167
 20
-79.3428
 11
-74.5996
 21
-79.1607
  0
LINE
  8
0
 10
-74.5996
 20
-79.1607
 11
-74.3703
 21
-78.9941
  0
LINE
  8
0
 10
-74.3703
 20
-78.9941
 11
-74.13
 21
-78.8439
  0
LINE
  8
0
 10
-74.13
 20
-78.8439
 11
-73.8798
 21
-78.7109
  0
LINE
  8
0
 10
-73.8798
 20
-78.7109
 11
-73.6209
 21
-78.5956
  0
LINE
  8
0
 10
-73.6209
 20
-78.5956
 11
-73.3546
 21
-78.4987
  0
LINE
  8
0
 10
-73.3546
 20
-78.4987
 11
-73.0822
 21
-78.4206
  0
LINE
  8
0
 10
-73.0822
 20
-78.4206
 11
-72.805
 21
-78.3617
  0
LINE
  8
0
 10
-72.805
 20
-78.3617
 11
-72.5244
 21
-78.3222
  0
LINE
  8
0
 10
-72.5244
 20
-78.3222
 11
-72.2417
 21
-78.3025
  0
LINE
  8
0
 10
-72.2417
 20
-78.3025
 11
-71.9583
 21
-78.3025
  0
LINE
  8
0
 10
-71.9583
 20
-78.3025
 11
-71.6756
 21
-78.3222
  0
LINE
  8
0
 10
-71.6756
 20
-78.3222
 11
-71.395
 21
-78.3617
  0
LINE
  8
0
 10
-71.395
 20
-78.3617
 11
-71.1178
 21
-78.4206
  0
LINE
  8
0
 10
-71.1178
 20
-78.4206
 11
-70.8454
 21
-78.4987
  0
LINE
  8
0
 10
-70.8454
 20
-78.4987
 11
-70.5791
 21
-78.5956
  0
LINE
  8
0
 10
-70.5791
 20
-78.5956
 11
-70.3202
 21
-78.7109
  0
LINE
  8
0
 10
-70.3202
 20
-78.7109
 11
-70.07
 21
-78.8439
  0
LINE
  8
0
 10
-70.07
 20
-78.8439
 11
-69.8297
 21
-78.9941
  0
LINE
  8
0
 10
-69.8297
 20
-78.9941
 11
-69.6004
 21
-79.1607
  0
LINE
  8
0
 10
-69.6004
 20
-79.1607
 11
-69.3833
 21
-79.3428
  0
LINE
  8
0
 10
-69.3833
 20
-79.3428
 11
-69.1795
 21
-79.5397
  0
LINE
  8
0
 10
-69.1795
 20
-79.5397
 11
-68.9899
 21
-79.7503
  0
LINE
  8
0
 10
-68.9899
 20
-79.7503
 11
-68.8154
 21
-79.9736
  0
LINE
  8
0
 10
-68.8154
 20
-79.9736
 11
-68.6569
 21
-80.2085
  0
LINE
  8
0
 10
-68.6569
 20
-80.2085
 11
-68.5152
 21
-80.4539
  0
LINE
  8
0
 10
-68.5152
 20
-80.4539
 11
-68.391
 21
-80.7086
  0
LINE
  8
0
 10
-68.391
 20
-80.7086
 11
-68.2849
 21
-80.9714
  0
LINE
  8
0
 10
-68.2849
 20
-80.9714
 11
-68.1973
 21
-81.2409
  0
LINE
  8
0
 10
-68.1973
 20
-81.2409
 11
-68.1287
 21
-81.5159
  0
LINE
  8
0
 10
-68.1287
 20
-81.5159
 11
-68.0795
 21
-81.795
  0
LINE
  8
0
 10
-68.0795
 20
-81.795
 11
-68.0499
 21
-82.0768
  0
LINE
  8
0
 10
-68.0499
 20
-82.0768
 11
-68.04
 21
-82.36
  0
LINE
  8
0
 10
-68.04
 20
-82.36
 11
-68.0499
 21
-82.6432
  0
LINE
  8
0
 10
-68.0499
 20
-82.6432
 11
-68.0795
 21
-82.925
  0
LINE
  8
0
 10
-68.0795
 20
-82.925
 11
-68.1287
 21
-83.2041
  0
LINE
  8
0
 10
-68.1287
 20
-83.2041
 11
-68.1973
 21
-83.4791
  0
LINE
  8
0
 10
-68.1973
 20
-83.4791
 11
-68.2849
 21
-83.7486
  0
LINE
  8
0
 10
-68.2849
 20
-83.7486
 11
-68.391
 21
-84.0114
  0
LINE
  8
0
 10
-68.391
 20
-84.0114
 11
-68.5152
 21
-84.2661
  0
LINE
  8
0
 10
-68.5152
 20
-84.2661
 11
-68.6569
 21
-84.5115
  0
LINE
  8
0
 10
-68.6569
 20
-84.5115
 11
-68.8154
 21
-84.7464
  0
LINE
  8
0
 10
-68.8154
 20
-84.7464
 11
-68.9899
 21
-84.9697
  0
LINE
  8
0
 10
-68.9899
 20
-84.9697
 11
-69.1795
 21
-85.1803
  0
LINE
  8
0
 10
-69.1795
 20
-85.1803
 11
-69.3833
 21
-85.3772
  0
LINE
  8
0
 10
-69.3833
 20
-85.3772
 11
-69.6004
 21
-85.5593
  0
LINE
  8
0
 10
-69.6004
 20
-85.5593
 11
-69.8297
 21
-85.7259
  0
LINE
  8
0
 10
-69.8297
 20
-85.7259
 11
-70.07
 21
-85.8761
  0
LINE
  8
0
 10
-70.07
 20
-85.8761
 11
-70.3202
 21
-86.0091
  0
LINE
  8
0
 10
-70.3202
 20
-86.0091
 11
-70.5791
 21
-86.1244
  0
LINE
  8
0
 10
-70.5791
 20
-86.1244
 11
-70.8454
 21
-86.2213
  0
LINE
  8
0
 10
-70.8454
 20
-86.2213
 11
-71.1178
 21
-86.2994
  0
LINE
  8
0
 10
-71.1178
 20
-86.2994
 11
-71.395
 21
-86.3583
  0
LINE
  8
0
 10
-71.395
 20
-86.3583
 11
-71.6756
 21
-86.3978
  0
LINE
  8
0
 10
-71.6756
 20
-86.3978
 11
-71.9583
 21
-86.4175
  0
LINE
  8
0
 10
-71.9583
 20
-86.4175
 11
-72.2417
 21
-86.4175
  0
ENDSEC
  0
SECTION
  2
OBJECTS
  0
DICTIONARY
  0
ENDSEC
  0
EOF
