  0
SECTION
  2
BLOCKS
  0
ENDSEC
  0
SECTION
  2
ENTITIES
  0
LINE
  8
0
 10
-33.8
 20
0
 11
-33.7713
 21
-0.823126
  0
LINE
  8
0
 10
-33.7713
 20
-0.823126
 11
-33.6852
 21
-1.64224
  0
LINE
  8
0
 10
-33.6852
 20
-1.64224
 11
-33.5421
 21
-2.45336
  0
LINE
  8
0
 10
-33.5421
 20
-2.45336
 11
-33.3429
 21
-3.25252
  0
LINE
  8
0
 10
-33.3429
 20
-3.25252
 11
-33.0884
 21
-4.03584
  0
LINE
  8
0
 10
-33.0884
 20
-4.03584
 11
-32.7798
 21
-4.79949
  0
LINE
  8
0
 10
-32.7798
 20
-4.79949
 11
-32.4188
 21
-5.53976
  0
LINE
  8
0
 10
-32.4188
 20
-5.53976
 11
-32.007
 21
-6.25305
  0
LINE
  8
0
 10
-32.007
 20
-6.25305
 11
-31.5464
 21
-6.93587
  0
LINE
  8
0
 10
-31.5464
 20
-6.93587
 11
-31.0393
 21
-7.58489
  0
LINE
  8
0
 10
-31.0393
 20
-7.58489
 11
-30.4882
 21
-8.19697
  0
LINE
  8
0
 10
-30.4882
 20
-8.19697
 11
-29.8957
 21
-8.76911
  0
LINE
  8
0
 10
-29.8957
 20
-8.76911
 11
-29.2648
 21
-9.29853
  0
LINE
  8
0
 10
-29.2648
 20
-9.29853
 11
-28.5985
 21
-9.78264
  0
LINE
  8
0
 10
-28.5985
 20
-9.78264
 11
-27.9
 21
-10.2191
  0
LINE
  8
0
 10
-27.9
 20
-10.2191
 11
-27.1728
 21
-10.6058
  0
LINE
  8
0
 10
-27.1728
 20
-10.6058
 11
-26.4204
 21
-10.9408
  0
LINE
  8
0
 10
-26.4204
 20
-10.9408
 11
-25.6464
 21
-11.2225
  0
LINE
  8
0
 10
-25.6464
 20
-11.2225
 11
-24.8547
 21
-11.4495
  0
LINE
  8
0
 10
-24.8547
 20
-11.4495
 11
-24.049
 21
-11.6207
  0
LINE
  8
0
 10
-24.049
 20
-11.6207
 11
-23.2334
 21
-11.7354
  0
LINE
  8
0
 10
-23.2334
 20
-11.7354
 11
-22.4118
 21
-11.7928
  0
LINE
  8
0
 10
-22.4118
 20
-11.7928
 11
-18.5103
 21
-11.7928
  0
LINE
  8
0
 10
-18.5103
 20
-11.7928
 11
-18.1135
 21
-11.5818
  0
LINE
  8
0
 10
-18.1135
 20
-11.5818
 11
-15.4787
 21
-10.4088
  0
LINE
  8
0
 10
-15.4787
 20
-10.4088
 11
-12.7686
 21
-9.42234
  0
LINE
  8
0
 10
-12.7686
 20
-9.42234
 11
-9.99621
 21
-8.62738
  0
LINE
  8
0
 10
-9.99621
 20
-8.62738
 11
-7.17514
 21
-8.02774
  0
LINE
  8
0
 10
-7.17514
 20
-8.02774
 11
-4.31912
 21
-7.62636
  0
LINE
  8
0
 10
-4.31912
 20
-7.62636
 11
-1.44205
 21
-7.42517
  0
LINE
  8
0
 10
-1.44205
 20
-7.42517
 11
1.44205
 21
-7.42517
  0
LINE
  8
0
 10
1.44205
 20
-7.42517
 11
4.31912
 21
-7.62636
  0
LINE
  8
0
 10
4.31912
 20
-7.62636
 11
7.17514
 21
-8.02774
  0
LINE
  8
0
 10
7.17514
 20
-8.02774
 11
9.99621
 21
-8.62738
  0
LINE
  8
0
 10
9.99621
 20
-8.62738
 11
12.7686
 21
-9.42234
  0
LINE
  8
0
 10
12.7686
 20
-9.42234
 11
15.4787
 21
-10.4088
  0
LINE
  8
0
 10
15.4787
 20
-10.4088
 11
18.1135
 21
-11.5818
  0
LINE
  8
0
 10
18.1135
 20
-11.5818
 11
18.5103
 21
-11.7928
  0
LINE
  8
0
 10
18.5103
 20
-11.7928
 11
22.4118
 21
-11.7928
  0
LINE
  8
0
 10
22.4118
 20
-11.7928
 11
23.2334
 21
-11.7354
  0
LINE
  8
0
 10
23.2334
 20
-11.7354
 11
24.049
 21
-11.6207
  0
LINE
  8
0
 10
24.049
 20
-11.6207
 11
24.8547
 21
-11.4495
  0
LINE
  8
0
 10
24.8547
 20
-11.4495
 11
25.6464
 21
-11.2225
  0
LINE
  8
0
 10
25.6464
 20
-11.2225
 11
26.4204
 21
-10.9408
  0
LINE
  8
0
 10
26.4204
 20
-10.9408
 11
27.1728
 21
-10.6058
  0
LINE
  8
0
 10
27.1728
 20
-10.6058
 11
27.9
 21
-10.2191
  0
LINE
  8
0
 10
27.9
 20
-10.2191
 11
28.5985
 21
-9.78264
  0
LINE
  8
0
 10
28.5985
 20
-9.78264
 11
29.2648
 21
-9.29853
  0
LINE
  8
0
 10
29.2648
 20
-9.29853
 11
29.8957
 21
-8.76911
  0
LINE
  8
0
 10
29.8957
 20
-8.76911
 11
30.4882
 21
-8.19697
  0
LINE
  8
0
 10
30.4882
 20
-8.19697
 11
31.0393
 21
-7.58489
  0
LINE
  8
0
 10
31.0393
 20
-7.58489
 11
31.5464
 21
-6.93587
  0
LINE
  8
0
 10
31.5464
 20
-6.93587
 11
32.007
 21
-6.25305
  0
LINE
  8
0
 10
32.007
 20
-6.25305
 11
32.4188
 21
-5.53976
  0
LINE
  8
0
 10
32.4188
 20
-5.53976
 11
32.7798
 21
-4.79949
  0
LINE
  8
0
 10
32.7798
 20
-4.79949
 11
33.0884
 21
-4.03584
  0
LINE
  8
0
 10
33.0884
 20
-4.03584
 11
33.3429
 21
-3.25252
  0
LINE
  8
0
 10
33.3429
 20
-3.25252
 11
33.5421
 21
-2.45336
  0
LINE
  8
0
 10
33.5421
 20
-2.45336
 11
33.6852
 21
-1.64224
  0
LINE
  8
0
 10
33.6852
 20
-1.64224
 11
33.7713
 21
-0.823126
  0
LINE
  8
0
 10
33.7713
 20
-0.823126
 11
33.8
 21
0
  0
LINE
  8
0
 10
33.8
 20
0
 11
33.7713
 21
0.823126
  0
LINE
  8
0
 10
33.7713
 20
0.823126
 11
33.6852
 21
1.64224
  0
LINE
  8
0
 10
33.6852
 20
1.64224
 11
33.5421
 21
2.45336
  0
LINE
  8
0
 10
33.5421
 20
2.45336
 11
33.3429
 21
3.25252
  0
LINE
  8
0
 10
33.3429
 20
3.25252
 11
33.0884
 21
4.03584
  0
LINE
  8
0
 10
33.0884
 20
4.03584
 11
32.7798
 21
4.79949
  0
LINE
  8
0
 10
32.7798
 20
4.79949
 11
32.4188
 21
5.53976
  0
LINE
  8
0
 10
32.4188
 20
5.53976
 11
32.007
 21
6.25305
  0
LINE
  8
0
 10
32.007
 20
6.25305
 11
31.5464
 21
6.93587
  0
LINE
  8
0
 10
31.5464
 20
6.93587
 11
31.0393
 21
7.58489
  0
LINE
  8
0
 10
31.0393
 20
7.58489
 11
30.4882
 21
8.19697
  0
LINE
  8
0
 10
30.4882
 20
8.19697
 11
29.8957
 21
8.76911
  0
LINE
  8
0
 10
29.8957
 20
8.76911
 11
29.2648
 21
9.29853
  0
LINE
  8
0
 10
29.2648
 20
9.29853
 11
28.5985
 21
9.78264
  0
LINE
  8
0
 10
28.5985
 20
9.78264
 11
27.9
 21
10.2191
  0
LINE
  8
0
 10
27.9
 20
10.2191
 11
27.1728
 21
10.6058
  0
LINE
  8
0
 10
27.1728
 20
10.6058
 11
26.4204
 21
10.9408
  0
LINE
  8
0
 10
26.4204
 20
10.9408
 11
25.6464
 21
11.2225
  0
LINE
  8
0
 10
25.6464
 20
11.2225
 11
24.8547
 21
11.4495
  0
LINE
  8
0
 10
24.8547
 20
11.4495
 11
24.049
 21
11.6207
  0
LINE
  8
0
 10
24.049
 20
11.6207
 11
23.2334
 21
11.7354
  0
LINE
  8
0
 10
23.2334
 20
11.7354
 11
22.4118
 21
11.7928
  0
LINE
  8
0
 10
22.4118
 20
11.7928
 11
18.5103
 21
11.7928
  0
LINE
  8
0
 10
18.5103
 20
11.7928
 11
18.1135
 21
11.5818
  0
LINE
  8
0
 10
18.1135
 20
11.5818
 11
15.4787
 21
10.4088
  0
LINE
  8
0
 10
15.4787
 20
10.4088
 11
12.7686
 21
9.42234
  0
LINE
  8
0
 10
12.7686
 20
9.42234
 11
9.99621
 21
8.62738
  0
LINE
  8
0
 10
9.99621
 20
8.62738
 11
7.17514
 21
8.02774
  0
LINE
  8
0
 10
7.17514
 20
8.02774
 11
4.31912
 21
7.62636
  0
LINE
  8
0
 10
4.31912
 20
7.62636
 11
1.44205
 21
7.42517
  0
LINE
  8
0
 10
1.44205
 20
7.42517
 11
-1.44205
 21
7.42517
  0
LINE
  8
0
 10
-1.44205
 20
7.42517
 11
-4.31912
 21
7.62636
  0
LINE
  8
0
 10
-4.31912
 20
7.62636
 11
-7.17514
 21
8.02774
  0
LINE
  8
0
 10
-7.17514
 20
8.02774
 11
-9.99621
 21
8.62738
  0
LINE
  8
0
 10
-9.99621
 20
8.62738
 11
-12.7686
 21
9.42234
  0
LINE
  8
0
 10
-12.7686
 20
9.42234
 11
-15.4787
 21
10.4088
  0
LINE
  8
0
 10
-15.4787
 20
10.4088
 11
-18.1135
 21
11.5818
  0
LINE
  8
0
 10
-18.1135
 20
11.5818
 11
-18.5103
 21
11.7928
  0
LINE
  8
0
 10
-18.5103
 20
11.7928
 11
-22.4118
 21
11.7928
  0
LINE
  8
0
 10
-22.4118
 20
11.7928
 11
-23.2334
 21
11.7354
  0
LINE
  8
0
 10
-23.2334
 20
11.7354
 11
-24.049
 21
11.6207
  0
LINE
  8
0
 10
-24.049
 20
11.6207
 11
-24.8547
 21
11.4495
  0
LINE
  8
0
 10
-24.8547
 20
11.4495
 11
-25.6464
 21
11.2225
  0
LINE
  8
0
 10
-25.6464
 20
11.2225
 11
-26.4204
 21
10.9408
  0
LINE
  8
0
 10
-26.4204
 20
10.9408
 11
-27.1728
 21
10.6058
  0
LINE
  8
0
 10
-27.1728
 20
10.6058
 11
-27.9
 21
10.2191
  0
LINE
  8
0
 10
-27.9
 20
10.2191
 11
-28.5985
 21
9.78264
  0
LINE
  8
0
 10
-28.5985
 20
9.78264
 11
-29.2648
 21
9.29853
  0
LINE
  8
0
 10
-29.2648
 20
9.29853
 11
-29.8957
 21
8.76911
  0
LINE
  8
0
 10
-29.8957
 20
8.76911
 11
-30.4882
 21
8.19697
  0
LINE
  8
0
 10
-30.4882
 20
8.19697
 11
-31.0393
 21
7.58489
  0
LINE
  8
0
 10
-31.0393
 20
7.58489
 11
-31.5464
 21
6.93587
  0
LINE
  8
0
 10
-31.5464
 20
6.93587
 11
-32.007
 21
6.25305
  0
LINE
  8
0
 10
-32.007
 20
6.25305
 11
-32.4188
 21
5.53976
  0
LINE
  8
0
 10
-32.4188
 20
5.53976
 11
-32.7798
 21
4.79949
  0
LINE
  8
0
 10
-32.7798
 20
4.79949
 11
-33.0884
 21
4.03584
  0
LINE
  8
0
 10
-33.0884
 20
4.03584
 11
-33.3429
 21
3.25252
  0
LINE
  8
0
 10
-33.3429
 20
3.25252
 11
-33.5421
 21
2.45336
  0
LINE
  8
0
 10
-33.5421
 20
2.45336
 11
-33.6852
 21
1.64224
  0
LINE
  8
0
 10
-33.6852
 20
1.64224
 11
-33.7713
 21
0.823126
  0
LINE
  8
0
 10
-33.7713
 20
0.823126
 11
-33.8
 21
0
  0
LINE
  8
0
 10
-26.02
 20
0
 11
-26.0102
 21
0.28042
  0
LINE
  8
0
 10
-26.0102
 20
0.28042
 11
-25.9809
 21
0.559475
  0
LINE
  8
0
 10
-25.9809
 20
0.559475
 11
-25.9322
 21
0.835805
  0
LINE
  8
0
 10
-25.9322
 20
0.835805
 11
-25.8643
 21
1.10806
  0
LINE
  8
0
 10
-25.8643
 20
1.10806
 11
-25.7776
 21
1.37492
  0
LINE
  8
0
 10
-25.7776
 20
1.37492
 11
-25.6725
 21
1.63508
  0
LINE
  8
0
 10
-25.6725
 20
1.63508
 11
-25.5494
 21
1.88727
  0
LINE
  8
0
 10
-25.5494
 20
1.88727
 11
-25.4092
 21
2.13027
  0
LINE
  8
0
 10
-25.4092
 20
2.13027
 11
-25.2522
 21
2.3629
  0
LINE
  8
0
 10
-25.2522
 20
2.3629
 11
-25.0795
 21
2.58401
  0
LINE
  8
0
 10
-25.0795
 20
2.58401
 11
-24.8917
 21
2.79253
  0
LINE
  8
0
 10
-24.8917
 20
2.79253
 11
-24.6899
 21
2.98744
  0
LINE
  8
0
 10
-24.6899
 20
2.98744
 11
-24.475
 21
3.1678
  0
LINE
  8
0
 10
-24.475
 20
3.1678
 11
-24.248
 21
3.33273
  0
LINE
  8
0
 10
-24.248
 20
3.33273
 11
-24.01
 21
3.48142
  0
LINE
  8
0
 10
-24.01
 20
3.48142
 11
-23.7623
 21
3.61315
  0
LINE
  8
0
 10
-23.7623
 20
3.61315
 11
-23.5059
 21
3.72728
  0
LINE
  8
0
 10
-23.5059
 20
3.72728
 11
-23.2422
 21
3.82325
  0
LINE
  8
0
 10
-23.2422
 20
3.82325
 11
-22.9725
 21
3.90059
  0
LINE
  8
0
 10
-22.9725
 20
3.90059
 11
-22.6981
 21
3.95893
  0
LINE
  8
0
 10
-22.6981
 20
3.95893
 11
-22.4202
 21
3.99798
  0
LINE
  8
0
 10
-22.4202
 20
3.99798
 11
-22.1403
 21
4.01755
  0
LINE
  8
0
 10
-22.1403
 20
4.01755
 11
-21.8597
 21
4.01755
  0
LINE
  8
0
 10
-21.8597
 20
4.01755
 11
-21.5798
 21
3.99798
  0
LINE
  8
0
 10
-21.5798
 20
3.99798
 11
-21.3019
 21
3.95893
  0
LINE
  8
0
 10
-21.3019
 20
3.95893
 11
-21.0275
 21
3.90059
  0
LINE
  8
0
 10
-21.0275
 20
3.90059
 11
-20.7578
 21
3.82325
  0
LINE
  8
0
 10
-20.7578
 20
3.82325
 11
-20.4941
 21
3.72728
  0
LINE
  8
0
 10
-20.4941
 20
3.72728
 11
-20.2377
 21
3.61315
  0
LINE
  8
0
 10
-20.2377
 20
3.61315
 11
-19.99
 21
3.48142
  0
LINE
  8
0
 10
-19.99
 20
3.48142
 11
-19.752
 21
3.33273
  0
LINE
  8
0
 10
-19.752
 20
3.33273
 11
-19.525
 21
3.1678
  0
LINE
  8
0
 10
-19.525
 20
3.1678
 11
-19.3101
 21
2.98744
  0
LINE
  8
0
 10
-19.3101
 20
2.98744
 11
-19.1083
 21
2.79253
  0
LINE
  8
0
 10
-19.1083
 20
2.79253
 11
-18.9205
 21
2.58401
  0
LINE
  8
0
 10
-18.9205
 20
2.58401
 11
-18.7478
 21
2.3629
  0
LINE
  8
0
 10
-18.7478
 20
2.3629
 11
-18.5908
 21
2.13027
  0
LINE
  8
0
 10
-18.5908
 20
2.13027
 11
-18.4506
 21
1.88727
  0
LINE
  8
0
 10
-18.4506
 20
1.88727
 11
-18.3275
 21
1.63508
  0
LINE
  8
0
 10
-18.3275
 20
1.63508
 11
-18.2224
 21
1.37492
  0
LINE
  8
0
 10
-18.2224
 20
1.37492
 11
-18.1357
 21
1.10806
  0
LINE
  8
0
 10
-18.1357
 20
1.10806
 11
-18.0678
 21
0.835805
  0
LINE
  8
0
 10
-18.0678
 20
0.835805
 11
-18.0191
 21
0.559475
  0
LINE
  8
0
 10
-18.0191
 20
0.559475
 11
-17.9898
 21
0.28042
  0
LINE
  8
0
 10
-17.9898
 20
0.28042
 11
-17.98
 21
0
  0
LINE
  8
0
 10
-17.98
 20
0
 11
-17.9898
 21
-0.28042
  0
LINE
  8
0
 10
-17.9898
 20
-0.28042
 11
-18.0191
 21
-0.559475
  0
LINE
  8
0
 10
-18.0191
 20
-0.559475
 11
-18.0678
 21
-0.835805
  0
LINE
  8
0
 10
-18.0678
 20
-0.835805
 11
-18.1357
 21
-1.10806
  0
LINE
  8
0
 10
-18.1357
 20
-1.10806
 11
-18.2224
 21
-1.37492
  0
LINE
  8
0
 10
-18.2224
 20
-1.37492
 11
-18.3275
 21
-1.63508
  0
LINE
  8
0
 10
-18.3275
 20
-1.63508
 11
-18.4506
 21
-1.88727
  0
LINE
  8
0
 10
-18.4506
 20
-1.88727
 11
-18.5908
 21
-2.13027
  0
LINE
  8
0
 10
-18.5908
 20
-2.13027
 11
-18.7478
 21
-2.3629
  0
LINE
  8
0
 10
-18.7478
 20
-2.3629
 11
-18.9205
 21
-2.58401
  0
LINE
  8
0
 10
-18.9205
 20
-2.58401
 11
-19.1083
 21
-2.79253
  0
LINE
  8
0
 10
-19.1083
 20
-2.79253
 11
-19.3101
 21
-2.98744
  0
LINE
  8
0
 10
-19.3101
 20
-2.98744
 11
-19.525
 21
-3.1678
  0
LINE
  8
0
 10
-19.525
 20
-3.1678
 11
-19.752
 21
-3.33273
  0
LINE
  8
0
 10
-19.752
 20
-3.33273
 11
-19.99
 21
-3.48142
  0
LINE
  8
0
 10
-19.99
 20
-3.48142
 11
-20.2377
 21
-3.61315
  0
LINE
  8
0
 10
-20.2377
 20
-3.61315
 11
-20.4941
 21
-3.72728
  0
LINE
  8
0
 10
-20.4941
 20
-3.72728
 11
-20.7578
 21
-3.82325
  0
LINE
  8
0
 10
-20.7578
 20
-3.82325
 11
-21.0275
 21
-3.90059
  0
LINE
  8
0
 10
-21.0275
 20
-3.90059
 11
-21.3019
 21
-3.95893
  0
LINE
  8
0
 10
-21.3019
 20
-3.95893
 11
-21.5798
 21
-3.99798
  0
LINE
  8
0
 10
-21.5798
 20
-3.99798
 11
-21.8597
 21
-4.01755
  0
LINE
  8
0
 10
-21.8597
 20
-4.01755
 11
-22.1403
 21
-4.01755
  0
LINE
  8
0
 10
-22.1403
 20
-4.01755
 11
-22.4202
 21
-3.99798
  0
LINE
  8
0
 10
-22.4202
 20
-3.99798
 11
-22.6981
 21
-3.95893
  0
LINE
  8
0
 10
-22.6981
 20
-3.95893
 11
-22.9725
 21
-3.90059
  0
LINE
  8
0
 10
-22.9725
 20
-3.90059
 11
-23.2422
 21
-3.82325
  0
LINE
  8
0
 10
-23.2422
 20
-3.82325
 11
-23.5059
 21
-3.72728
  0
LINE
  8
0
 10
-23.5059
 20
-3.72728
 11
-23.7623
 21
-3.61315
  0
LINE
  8
0
 10
-23.7623
 20
-3.61315
 11
-24.01
 21
-3.48142
  0
LINE
  8
0
 10
-24.01
 20
-3.48142
 11
-24.248
 21
-3.33273
  0
LINE
  8
0
 10
-24.248
 20
-3.33273
 11
-24.475
 21
-3.1678
  0
LINE
  8
0
 10
-24.475
 20
-3.1678
 11
-24.6899
 21
-2.98744
  0
LINE
  8
0
 10
-24.6899
 20
-2.98744
 11
-24.8917
 21
-2.79253
  0
LINE
  8
0
 10
-24.8917
 20
-2.79253
 11
-25.0795
 21
-2.58401
  0
LINE
  8
0
 10
-25.0795
 20
-2.58401
 11
-25.2522
 21
-2.3629
  0
LINE
  8
0
 10
-25.2522
 20
-2.3629
 11
-25.4092
 21
-2.13027
  0
LINE
  8
0
 10
-25.4092
 20
-2.13027
 11
-25.5494
 21
-1.88727
  0
LINE
  8
0
 10
-25.5494
 20
-1.88727
 11
-25.6725
 21
-1.63508
  0
LINE
  8
0
 10
-25.6725
 20
-1.63508
 11
-25.7776
 21
-1.37492
  0
LINE
  8
0
 10
-25.7776
 20
-1.37492
 11
-25.8643
 21
-1.10806
  0
LINE
  8
0
 10
-25.8643
 20
-1.10806
 11
-25.9322
 21
-0.835805
  0
LINE
  8
0
 10
-25.9322
 20
-0.835805
 11
-25.9809
 21
-0.559475
  0
LINE
  8
0
 10
-25.9809
 20
-0.559475
 11
-26.0102
 21
-0.28042
  0
LINE
  8
0
 10
-26.0102
 20
-0.28042
 11
-26.02
 21
0
  0
LINE
  8
0
 10
17.98
 20
0
 11
17.9898
 21
0.28042
  0
LINE
  8
0
 10
17.9898
 20
0.28042
 11
18.0191
 21
0.559475
  0
LINE
  8
0
 10
18.0191
 20
0.559475
 11
18.0678
 21
0.835805
  0
LINE
  8
0
 10
18.0678
 20
0.835805
 11
18.1357
 21
1.10806
  0
LINE
  8
0
 10
18.1357
 20
1.10806
 11
18.2224
 21
1.37492
  0
LINE
  8
0
 10
18.2224
 20
1.37492
 11
18.3275
 21
1.63508
  0
LINE
  8
0
 10
18.3275
 20
1.63508
 11
18.4506
 21
1.88727
  0
LINE
  8
0
 10
18.4506
 20
1.88727
 11
18.5908
 21
2.13027
  0
LINE
  8
0
 10
18.5908
 20
2.13027
 11
18.7478
 21
2.3629
  0
LINE
  8
0
 10
18.7478
 20
2.3629
 11
18.9205
 21
2.58401
  0
LINE
  8
0
 10
18.9205
 20
2.58401
 11
19.1083
 21
2.79253
  0
LINE
  8
0
 10
19.1083
 20
2.79253
 11
19.3101
 21
2.98744
  0
LINE
  8
0
 10
19.3101
 20
2.98744
 11
19.525
 21
3.1678
  0
LINE
  8
0
 10
19.525
 20
3.1678
 11
19.752
 21
3.33273
  0
LINE
  8
0
 10
19.752
 20
3.33273
 11
19.99
 21
3.48142
  0
LINE
  8
0
 10
19.99
 20
3.48142
 11
20.2377
 21
3.61315
  0
LINE
  8
0
 10
20.2377
 20
3.61315
 11
20.4941
 21
3.72728
  0
LINE
  8
0
 10
20.4941
 20
3.72728
 11
20.7578
 21
3.82325
  0
LINE
  8
0
 10
20.7578
 20
3.82325
 11
21.0275
 21
3.90059
  0
LINE
  8
0
 10
21.0275
 20
3.90059
 11
21.3019
 21
3.95893
  0
LINE
  8
0
 10
21.3019
 20
3.95893
 11
21.5798
 21
3.99798
  0
LINE
  8
0
 10
21.5798
 20
3.99798
 11
21.8597
 21
4.01755
  0
LINE
  8
0
 10
21.8597
 20
4.01755
 11
22.1403
 21
4.01755
  0
LINE
  8
0
 10
22.1403
 20
4.01755
 11
22.4202
 21
3.99798
  0
LINE
  8
0
 10
22.4202
 20
3.99798
 11
22.6981
 21
3.95893
  0
LINE
  8
0
 10
22.6981
 20
3.95893
 11
22.9725
 21
3.90059
  0
LINE
  8
0
 10
22.9725
 20
3.90059
 11
23.2422
 21
3.82325
  0
LINE
  8
0
 10
23.2422
 20
3.82325
 11
23.5059
 21
3.72728
  0
LINE
  8
0
 10
23.5059
 20
3.72728
 11
23.7623
 21
3.61315
  0
LINE
  8
0
 10
23.7623
 20
3.61315
 11
24.01
 21
3.48142
  0
LINE
  8
0
 10
24.01
 20
3.48142
 11
24.248
 21
3.33273
  0
LINE
  8
0
 10
24.248
 20
3.33273
 11
24.475
 21
3.1678
  0
LINE
  8
0
 10
24.475
 20
3.1678
 11
24.6899
 21
2.98744
  0
LINE
  8
0
 10
24.6899
 20
2.98744
 11
24.8917
 21
2.79253
  0
LINE
  8
0
 10
24.8917
 20
2.79253
 11
25.0795
 21
2.58401
  0
LINE
  8
0
 10
25.0795
 20
2.58401
 11
25.2522
 21
2.3629
  0
LINE
  8
0
 10
25.2522
 20
2.3629
 11
25.4092
 21
2.13027
  0
LINE
  8
0
 10
25.4092
 20
2.13027
 11
25.5494
 21
1.88727
  0
LINE
  8
0
 10
25.5494
 20
1.88727
 11
25.6725
 21
1.63508
  0
LINE
  8
0
 10
25.6725
 20
1.63508
 11
25.7776
 21
1.37492
  0
LINE
  8
0
 10
25.7776
 20
1.37492
 11
25.8643
 21
1.10806
  0
LINE
  8
0
 10
25.8643
 20
1.10806
 11
25.9322
 21
0.835805
  0
LINE
  8
0
 10
25.9322
 20
0.835805
 11
25.9809
 21
0.559475
  0
LINE
  8
0
 10
25.9809
 20
0.559475
 11
26.0102
 21
0.28042
  0
LINE
  8
0
 10
26.0102
 20
0.28042
 11
26.02
 21
0
  0
LINE
  8
0
 10
26.02
 20
0
 11
26.0102
 21
-0.28042
  0
LINE
  8
0
 10
26.0102
 20
-0.28042
 11
25.9809
 21
-0.559475
  0
LINE
  8
0
 10
25.9809
 20
-0.559475
 11
25.9322
 21
-0.835805
  0
LINE
  8
0
 10
25.9322
 20
-0.835805
 11
25.8643
 21
-1.10806
  0
LINE
  8
0
 10
25.8643
 20
-1.10806
 11
25.7776
 21
-1.37492
  0
LINE
  8
0
 10
25.7776
 20
-1.37492
 11
25.6725
 21
-1.63508
  0
LINE
  8
0
 10
25.6725
 20
-1.63508
 11
25.5494
 21
-1.88727
  0
LINE
  8
0
 10
25.5494
 20
-1.88727
 11
25.4092
 21
-2.13027
  0
LINE
  8
0
 10
25.4092
 20
-2.13027
 11
25.2522
 21
-2.3629
  0
LINE
  8
0
 10
25.2522
 20
-2.3629
 11
25.0795
 21
-2.58401
  0
LINE
  8
0
 10
25.0795
 20
-2.58401
 11
24.8917
 21
-2.79253
  0
LINE
  8
0
 10
24.8917
 20
-2.79253
 11
24.6899
 21
-2.98744
  0
LINE
  8
0
 10
24.6899
 20
-2.98744
 11
24.475
 21
-3.1678
  0
LINE
  8
0
 10
24.475
 20
-3.1678
 11
24.248
 21
-3.33273
  0
LINE
  8
0
 10
24.248
 20
-3.33273
 11
24.01
 21
-3.48142
  0
LINE
  8
0
 10
24.01
 20
-3.48142
 11
23.7623
 21
-3.61315
  0
LINE
  8
0
 10
23.7623
 20
-3.61315
 11
23.5059
 21
-3.72728
  0
LINE
  8
0
 10
23.5059
 20
-3.72728
 11
23.2422
 21
-3.82325
  0
LINE
  8
0
 10
23.2422
 20
-3.82325
 11
22.9725
 21
-3.90059
  0
LINE
  8
0
 10
22.9725
 20
-3.90059
 11
22.6981
 21
-3.95893
  0
LINE
  8
0
 10
22.6981
 20
-3.95893
 11
22.4202
 21
-3.99798
  0
LINE
  8
0
 10
22.4202
 20
-3.99798
 11
22.1403
 21
-4.01755
  0
LINE
  8
0
 10
22.1403
 20
-4.01755
 11
21.8597
 21
-4.01755
  0
LINE
  8
0
 10
21.8597
 20
-4.01755
 11
21.5798
 21
-3.99798
  0
LINE
  8
0
 10
21.5798
 20
-3.99798
 11
21.3019
 21
-3.95893
  0
LINE
  8
0
 10
21.3019
 20
-3.95893
 11
21.0275
 21
-3.90059
  0
LINE
  8
0
 10
21.0275
 20
-3.90059
 11
20.7578
 21
-3.82325
  0
LINE
  8
0
 10
20.7578
 20
-3.82325
 11
20.4941
 21
-3.72728
  0
LINE
  8
0
 10
20.4941
 20
-3.72728
 11
20.2377
 21
-3.61315
  0
LINE
  8
0
 10
20.2377
 20
-3.61315
 11
19.99
 21
-3.48142
  0
LINE
  8
0
 10
19.99
 20
-3.48142
 11
19.752
 21
-3.33273
  0
LINE
  8
0
 10
19.752
 20
-3.33273
 11
19.525
 21
-3.1678
  0
LINE
  8
0
 10
19.525
 20
-3.1678
 11
19.3101
 21
-2.98744
  0
LINE
  8
0
 10
19.3101
 20
-2.98744
 11
19.1083
 21
-2.79253
  0
LINE
  8
0
 10
19.1083
 20
-2.79253
 11
18.9205
 21
-2.58401
  0
LINE
  8
0
 10
18.9205
 20
-2.58401
 11
18.7478
 21
-2.3629
  0
LINE
  8
0
 10
18.7478
 20
-2.3629
 11
18.5908
 21
-2.13027
  0
LINE
  8
0
 10
18.5908
 20
-2.13027
 11
18.4506
 21
-1.88727
  0
LINE
  8
0
 10
18.4506
 20
-1.88727
 11
18.3275
 21
-1.63508
  0
LINE
  8
0
 10
18.3275
 20
-1.63508
 11
18.2224
 21
-1.37492
  0
LINE
  8
0
 10
18.2224
 20
-1.37492
 11
18.1357
 21
-1.10806
  0
LINE
  8
0
 10
18.1357
 20
-1.10806
 11
18.0678
 21
-0.835805
  0
LINE
  8
0
 10
18.0678
 20
-0.835805
 11
18.0191
 21
-0.559475
  0
LINE
  8
0
 10
18.0191
 20
-0.559475
 11
17.9898
 21
-0.28042
  0
LINE
  8
0
 10
17.9898
 20
-0.28042
 11
17.98
 21
0
  0
ENDSEC
  0
SECTION
  2
OBJECTS
  0
DICTIONARY
  0
ENDSEC
  0
EOF
