  0
SECTION
  2
BLOCKS
  0
ENDSEC
  0
SECTION
  2
ENTITIES
  0
LINE
  8
0
 10
83.5397
 20
-99.8636
 11
84.7562
 21
-99.6926
  0
LINE
  8
0
 10
84.7562
 20
-99.6926
 11
85.9578
 21
-99.4372
  0
LINE
  8
0
 10
85.9578
 20
-99.4372
 11
87.1387
 21
-99.0986
  0
LINE
  8
0
 10
87.1387
 20
-99.0986
 11
88.2931
 21
-98.6784
  0
LINE
  8
0
 10
88.2931
 20
-98.6784
 11
89.4153
 21
-98.1788
  0
LINE
  8
0
 10
89.4153
 20
-98.1788
 11
90.5
 21
-97.6021
  0
LINE
  8
0
 10
90.5
 20
-97.6021
 11
91.5418
 21
-96.9511
  0
LINE
  8
0
 10
91.5418
 20
-96.9511
 11
92.5356
 21
-96.229
  0
LINE
  8
0
 10
92.5356
 20
-96.229
 11
93.4767
 21
-95.4393
  0
LINE
  8
0
 10
93.4767
 20
-95.4393
 11
94.3604
 21
-94.586
  0
LINE
  8
0
 10
94.3604
 20
-94.586
 11
95.1824
 21
-93.6731
  0
LINE
  8
0
 10
95.1824
 20
-93.6731
 11
95.9387
 21
-92.705
  0
LINE
  8
0
 10
95.9387
 20
-92.705
 11
96.6256
 21
-91.6866
  0
LINE
  8
0
 10
96.6256
 20
-91.6866
 11
97.2399
 21
-90.6227
  0
LINE
  8
0
 10
97.2399
 20
-90.6227
 11
97.7784
 21
-89.5186
  0
LINE
  8
0
 10
97.7784
 20
-89.5186
 11
98.2386
 21
-88.3795
  0
LINE
  8
0
 10
98.2386
 20
-88.3795
 11
98.6182
 21
-87.2112
  0
LINE
  8
0
 10
98.6182
 20
-87.2112
 11
98.9154
 21
-86.0192
  0
LINE
  8
0
 10
98.9154
 20
-86.0192
 11
99.1287
 21
-84.8094
  0
LINE
  8
0
 10
99.1287
 20
-84.8094
 11
99.2571
 21
-83.5877
  0
LINE
  8
0
 10
99.2571
 20
-83.5877
 11
99.3
 21
-82.36
  0
LINE
  8
0
 10
99.3
 20
-82.36
 11
99.3
 21
32.28
  0
LINE
  8
0
 10
99.3
 20
32.28
 11
99.2571
 21
33.5077
  0
LINE
  8
0
 10
99.2571
 20
33.5077
 11
99.1287
 21
34.7294
  0
LINE
  8
0
 10
99.1287
 20
34.7294
 11
98.9154
 21
35.9392
  0
LINE
  8
0
 10
98.9154
 20
35.9392
 11
98.6182
 21
37.1312
  0
LINE
  8
0
 10
98.6182
 20
37.1312
 11
98.2386
 21
38.2995
  0
LINE
  8
0
 10
98.2386
 20
38.2995
 11
97.7784
 21
39.4386
  0
LINE
  8
0
 10
97.7784
 20
39.4386
 11
97.2399
 21
40.5427
  0
LINE
  8
0
 10
97.2399
 20
40.5427
 11
18.3947
 21
189.236
  0
LINE
  8
0
 10
18.3947
 20
189.236
 11
17.6677
 21
190.495
  0
LINE
  8
0
 10
17.6677
 20
190.495
 11
16.8545
 21
191.701
  0
LINE
  8
0
 10
16.8545
 20
191.701
 11
15.9593
 21
192.846
  0
LINE
  8
0
 10
15.9593
 20
192.846
 11
14.9862
 21
193.927
  0
LINE
  8
0
 10
14.9862
 20
193.927
 11
13.9402
 21
194.937
  0
LINE
  8
0
 10
13.9402
 20
194.937
 11
12.8263
 21
195.872
  0
LINE
  8
0
 10
12.8263
 20
195.872
 11
11.6498
 21
196.727
  0
LINE
  8
0
 10
11.6498
 20
196.727
 11
10.4167
 21
197.497
  0
LINE
  8
0
 10
10.4167
 20
197.497
 11
9.13272
 21
198.18
  0
LINE
  8
0
 10
9.13272
 20
198.18
 11
7.80429
 21
198.771
  0
LINE
  8
0
 10
7.80429
 20
198.771
 11
6.43785
 21
199.269
  0
LINE
  8
0
 10
6.43785
 20
199.269
 11
5.04004
 21
199.669
  0
LINE
  8
0
 10
5.04004
 20
199.669
 11
3.61766
 21
199.972
  0
LINE
  8
0
 10
3.61766
 20
199.972
 11
2.17767
 21
200.174
  0
LINE
  8
0
 10
2.17767
 20
200.174
 11
0.727066
 21
200.276
  0
LINE
  8
0
 10
0.727066
 20
200.276
 11
-0.727066
 21
200.276
  0
LINE
  8
0
 10
-0.727066
 20
200.276
 11
-2.17767
 21
200.174
  0
LINE
  8
0
 10
-2.17767
 20
200.174
 11
-3.61766
 21
199.972
  0
LINE
  8
0
 10
-3.61766
 20
199.972
 11
-5.04004
 21
199.669
  0
LINE
  8
0
 10
-5.04004
 20
199.669
 11
-6.43785
 21
199.269
  0
LINE
  8
0
 10
-6.43785
 20
199.269
 11
-7.80429
 21
198.771
  0
LINE
  8
0
 10
-7.80429
 20
198.771
 11
-9.13272
 21
198.18
  0
LINE
  8
0
 10
-9.13272
 20
198.18
 11
-10.4167
 21
197.497
  0
LINE
  8
0
 10
-10.4167
 20
197.497
 11
-11.6498
 21
196.727
  0
LINE
  8
0
 10
-11.6498
 20
196.727
 11
-12.8263
 21
195.872
  0
LINE
  8
0
 10
-12.8263
 20
195.872
 11
-13.9402
 21
194.937
  0
LINE
  8
0
 10
-13.9402
 20
194.937
 11
-14.9862
 21
193.927
  0
LINE
  8
0
 10
-14.9862
 20
193.927
 11
-15.9593
 21
192.846
  0
LINE
  8
0
 10
-15.9593
 20
192.846
 11
-16.8545
 21
191.701
  0
LINE
  8
0
 10
-16.8545
 20
191.701
 11
-17.6677
 21
190.495
  0
LINE
  8
0
 10
-17.6677
 20
190.495
 11
-18.3947
 21
189.236
  0
LINE
  8
0
 10
-18.3947
 20
189.236
 11
-97.2399
 21
40.5427
  0
LINE
  8
0
 10
-97.2399
 20
40.5427
 11
-97.7784
 21
39.4386
  0
LINE
  8
0
 10
-97.7784
 20
39.4386
 11
-98.2386
 21
38.2995
  0
LINE
  8
0
 10
-98.2386
 20
38.2995
 11
-98.6182
 21
37.1312
  0
LINE
  8
0
 10
-98.6182
 20
37.1312
 11
-98.9154
 21
35.9392
  0
LINE
  8
0
 10
-98.9154
 20
35.9392
 11
-99.1287
 21
34.7294
  0
LINE
  8
0
 10
-99.1287
 20
34.7294
 11
-99.2571
 21
33.5077
  0
LINE
  8
0
 10
-99.2571
 20
33.5077
 11
-99.3
 21
32.28
  0
LINE
  8
0
 10
-99.3
 20
32.28
 11
-99.3
 21
-82.36
  0
LINE
  8
0
 10
-99.3
 20
-82.36
 11
-99.2571
 21
-83.5877
  0
LINE
  8
0
 10
-99.2571
 20
-83.5877
 11
-99.1287
 21
-84.8094
  0
LINE
  8
0
 10
-99.1287
 20
-84.8094
 11
-98.9154
 21
-86.0192
  0
LINE
  8
0
 10
-98.9154
 20
-86.0192
 11
-98.6182
 21
-87.2112
  0
LINE
  8
0
 10
-98.6182
 20
-87.2112
 11
-98.2386
 21
-88.3795
  0
LINE
  8
0
 10
-98.2386
 20
-88.3795
 11
-97.7784
 21
-89.5186
  0
LINE
  8
0
 10
-97.7784
 20
-89.5186
 11
-97.2399
 21
-90.6227
  0
LINE
  8
0
 10
-97.2399
 20
-90.6227
 11
-96.6256
 21
-91.6866
  0
LINE
  8
0
 10
-96.6256
 20
-91.6866
 11
-95.9387
 21
-92.705
  0
LINE
  8
0
 10
-95.9387
 20
-92.705
 11
-95.1824
 21
-93.6731
  0
LINE
  8
0
 10
-95.1824
 20
-93.6731
 11
-94.3604
 21
-94.586
  0
LINE
  8
0
 10
-94.3604
 20
-94.586
 11
-93.4767
 21
-95.4393
  0
LINE
  8
0
 10
-93.4767
 20
-95.4393
 11
-92.5356
 21
-96.229
  0
LINE
  8
0
 10
-92.5356
 20
-96.229
 11
-91.5418
 21
-96.9511
  0
LINE
  8
0
 10
-91.5418
 20
-96.9511
 11
-90.5
 21
-97.6021
  0
LINE
  8
0
 10
-90.5
 20
-97.6021
 11
-89.4153
 21
-98.1788
  0
LINE
  8
0
 10
-89.4153
 20
-98.1788
 11
-88.2931
 21
-98.6784
  0
LINE
  8
0
 10
-88.2931
 20
-98.6784
 11
-87.1387
 21
-99.0986
  0
LINE
  8
0
 10
-87.1387
 20
-99.0986
 11
-85.9578
 21
-99.4372
  0
LINE
  8
0
 10
-85.9578
 20
-99.4372
 11
-84.7562
 21
-99.6926
  0
LINE
  8
0
 10
-84.7562
 20
-99.6926
 11
-83.5397
 21
-99.8636
  0
LINE
  8
0
 10
-83.5397
 20
-99.8636
 11
-82.3142
 21
-99.9493
  0
LINE
  8
0
 10
-82.3142
 20
-99.9493
 11
82.3142
 21
-99.9493
  0
LINE
  8
0
 10
82.3142
 20
-99.9493
 11
83.5397
 21
-99.8636
  0
LINE
  8
0
 10
-0.141678
 20
175.397
 11
-0.424377
 21
175.417
  0
LINE
  8
0
 10
-0.424377
 20
175.417
 11
-0.705002
 21
175.457
  0
LINE
  8
0
 10
-0.705002
 20
175.457
 11
-0.982193
 21
175.516
  0
LINE
  8
0
 10
-0.982193
 20
175.516
 11
-1.25461
 21
175.594
  0
LINE
  8
0
 10
-1.25461
 20
175.594
 11
-1.52089
 21
175.691
  0
LINE
  8
0
 10
-1.52089
 20
175.691
 11
-1.77979
 21
175.806
  0
LINE
  8
0
 10
-1.77979
 20
175.806
 11
-2.03
 21
175.939
  0
LINE
  8
0
 10
-2.03
 20
175.939
 11
-2.27031
 21
176.089
  0
LINE
  8
0
 10
-2.27031
 20
176.089
 11
-2.49957
 21
176.256
  0
LINE
  8
0
 10
-2.49957
 20
176.256
 11
-2.71666
 21
176.438
  0
LINE
  8
0
 10
-2.71666
 20
176.438
 11
-2.92052
 21
176.635
  0
LINE
  8
0
 10
-2.92052
 20
176.635
 11
-3.11014
 21
176.845
  0
LINE
  8
0
 10
-3.11014
 20
176.845
 11
-3.28461
 21
177.069
  0
LINE
  8
0
 10
-3.28461
 20
177.069
 11
-3.44307
 21
177.304
  0
LINE
  8
0
 10
-3.44307
 20
177.304
 11
-3.58476
 21
177.549
  0
LINE
  8
0
 10
-3.58476
 20
177.549
 11
-3.70898
 21
177.804
  0
LINE
  8
0
 10
-3.70898
 20
177.804
 11
-3.81514
 21
178.066
  0
LINE
  8
0
 10
-3.81514
 20
178.066
 11
-3.90271
 21
178.336
  0
LINE
  8
0
 10
-3.90271
 20
178.336
 11
-3.97127
 21
178.611
  0
LINE
  8
0
 10
-3.97127
 20
178.611
 11
-4.02048
 21
178.89
  0
LINE
  8
0
 10
-4.02048
 20
178.89
 11
-4.05011
 21
179.172
  0
LINE
  8
0
 10
-4.05011
 20
179.172
 11
-4.06
 21
179.455
  0
LINE
  8
0
 10
-4.06
 20
179.455
 11
-4.05011
 21
179.738
  0
LINE
  8
0
 10
-4.05011
 20
179.738
 11
-4.02048
 21
180.02
  0
LINE
  8
0
 10
-4.02048
 20
180.02
 11
-3.97127
 21
180.299
  0
LINE
  8
0
 10
-3.97127
 20
180.299
 11
-3.90271
 21
180.574
  0
LINE
  8
0
 10
-3.90271
 20
180.574
 11
-3.81514
 21
180.844
  0
LINE
  8
0
 10
-3.81514
 20
180.844
 11
-3.70898
 21
181.106
  0
LINE
  8
0
 10
-3.70898
 20
181.106
 11
-3.58476
 21
181.361
  0
LINE
  8
0
 10
-3.58476
 20
181.361
 11
-3.44307
 21
181.606
  0
LINE
  8
0
 10
-3.44307
 20
181.606
 11
-3.28461
 21
181.841
  0
LINE
  8
0
 10
-3.28461
 20
181.841
 11
-3.11014
 21
182.065
  0
LINE
  8
0
 10
-3.11014
 20
182.065
 11
-2.92052
 21
182.275
  0
LINE
  8
0
 10
-2.92052
 20
182.275
 11
-2.71666
 21
182.472
  0
LINE
  8
0
 10
-2.71666
 20
182.472
 11
-2.49957
 21
182.654
  0
LINE
  8
0
 10
-2.49957
 20
182.654
 11
-2.27031
 21
182.821
  0
LINE
  8
0
 10
-2.27031
 20
182.821
 11
-2.03
 21
182.971
  0
LINE
  8
0
 10
-2.03
 20
182.971
 11
-1.77979
 21
183.104
  0
LINE
  8
0
 10
-1.77979
 20
183.104
 11
-1.52089
 21
183.219
  0
LINE
  8
0
 10
-1.52089
 20
183.219
 11
-1.25461
 21
183.316
  0
LINE
  8
0
 10
-1.25461
 20
183.316
 11
-0.982193
 21
183.394
  0
LINE
  8
0
 10
-0.982193
 20
183.394
 11
-0.705002
 21
183.453
  0
LINE
  8
0
 10
-0.705002
 20
183.453
 11
-0.424377
 21
183.493
  0
LINE
  8
0
 10
-0.424377
 20
183.493
 11
-0.141678
 21
183.513
  0
LINE
  8
0
 10
-0.141678
 20
183.513
 11
0.141678
 21
183.513
  0
LINE
  8
0
 10
0.141678
 20
183.513
 11
0.424377
 21
183.493
  0
LINE
  8
0
 10
0.424377
 20
183.493
 11
0.705002
 21
183.453
  0
LINE
  8
0
 10
0.705002
 20
183.453
 11
0.982193
 21
183.394
  0
LINE
  8
0
 10
0.982193
 20
183.394
 11
1.25461
 21
183.316
  0
LINE
  8
0
 10
1.25461
 20
183.316
 11
1.52089
 21
183.219
  0
LINE
  8
0
 10
1.52089
 20
183.219
 11
1.77979
 21
183.104
  0
LINE
  8
0
 10
1.77979
 20
183.104
 11
2.03
 21
182.971
  0
LINE
  8
0
 10
2.03
 20
182.971
 11
2.27031
 21
182.821
  0
LINE
  8
0
 10
2.27031
 20
182.821
 11
2.49957
 21
182.654
  0
LINE
  8
0
 10
2.49957
 20
182.654
 11
2.71666
 21
182.472
  0
LINE
  8
0
 10
2.71666
 20
182.472
 11
2.92052
 21
182.275
  0
LINE
  8
0
 10
2.92052
 20
182.275
 11
3.11014
 21
182.065
  0
LINE
  8
0
 10
3.11014
 20
182.065
 11
3.28461
 21
181.841
  0
LINE
  8
0
 10
3.28461
 20
181.841
 11
3.44307
 21
181.606
  0
LINE
  8
0
 10
3.44307
 20
181.606
 11
3.58476
 21
181.361
  0
LINE
  8
0
 10
3.58476
 20
181.361
 11
3.70898
 21
181.106
  0
LINE
  8
0
 10
3.70898
 20
181.106
 11
3.81514
 21
180.844
  0
LINE
  8
0
 10
3.81514
 20
180.844
 11
3.90271
 21
180.574
  0
LINE
  8
0
 10
3.90271
 20
180.574
 11
3.97127
 21
180.299
  0
LINE
  8
0
 10
3.97127
 20
180.299
 11
4.02048
 21
180.02
  0
LINE
  8
0
 10
4.02048
 20
180.02
 11
4.05011
 21
179.738
  0
LINE
  8
0
 10
4.05011
 20
179.738
 11
4.06
 21
179.455
  0
LINE
  8
0
 10
4.06
 20
179.455
 11
4.05011
 21
179.172
  0
LINE
  8
0
 10
4.05011
 20
179.172
 11
4.02048
 21
178.89
  0
LINE
  8
0
 10
4.02048
 20
178.89
 11
3.97127
 21
178.611
  0
LINE
  8
0
 10
3.97127
 20
178.611
 11
3.90271
 21
178.336
  0
LINE
  8
0
 10
3.90271
 20
178.336
 11
3.81514
 21
178.066
  0
LINE
  8
0
 10
3.81514
 20
178.066
 11
3.70898
 21
177.804
  0
LINE
  8
0
 10
3.70898
 20
177.804
 11
3.58476
 21
177.549
  0
LINE
  8
0
 10
3.58476
 20
177.549
 11
3.44307
 21
177.304
  0
LINE
  8
0
 10
3.44307
 20
177.304
 11
3.28461
 21
177.069
  0
LINE
  8
0
 10
3.28461
 20
177.069
 11
3.11014
 21
176.845
  0
LINE
  8
0
 10
3.11014
 20
176.845
 11
2.92052
 21
176.635
  0
LINE
  8
0
 10
2.92052
 20
176.635
 11
2.71666
 21
176.438
  0
LINE
  8
0
 10
2.71666
 20
176.438
 11
2.49957
 21
176.256
  0
LINE
  8
0
 10
2.49957
 20
176.256
 11
2.27031
 21
176.089
  0
LINE
  8
0
 10
2.27031
 20
176.089
 11
2.03
 21
175.939
  0
LINE
  8
0
 10
2.03
 20
175.939
 11
1.77979
 21
175.806
  0
LINE
  8
0
 10
1.77979
 20
175.806
 11
1.52089
 21
175.691
  0
LINE
  8
0
 10
1.52089
 20
175.691
 11
1.25461
 21
175.594
  0
LINE
  8
0
 10
1.25461
 20
175.594
 11
0.982193
 21
175.516
  0
LINE
  8
0
 10
0.982193
 20
175.516
 11
0.705002
 21
175.457
  0
LINE
  8
0
 10
0.705002
 20
175.457
 11
0.424377
 21
175.417
  0
LINE
  8
0
 10
0.424377
 20
175.417
 11
0.141678
 21
175.397
  0
LINE
  8
0
 10
0.141678
 20
175.397
 11
-0.141678
 21
175.397
  0
LINE
  8
0
 10
-1.08188
 20
76.5989
 11
-2.16245
 21
76.6555
  0
LINE
  8
0
 10
-2.16245
 20
76.6555
 11
-3.24037
 21
76.7498
  0
LINE
  8
0
 10
-3.24037
 20
76.7498
 11
-4.31436
 21
76.8817
  0
LINE
  8
0
 10
-4.31436
 20
76.8817
 11
-5.38309
 21
77.0509
  0
LINE
  8
0
 10
-5.38309
 20
77.0509
 11
-6.44525
 21
77.2574
  0
LINE
  8
0
 10
-6.44525
 20
77.2574
 11
-7.49957
 21
77.5008
  0
LINE
  8
0
 10
-7.49957
 20
77.5008
 11
-8.54475
 21
77.7809
  0
LINE
  8
0
 10
-8.54475
 20
77.7809
 11
-9.57951
 21
78.0972
  0
LINE
  8
0
 10
-9.57951
 20
78.0972
 11
-10.6026
 21
78.4495
  0
LINE
  8
0
 10
-10.6026
 20
78.4495
 11
-11.6128
 21
78.8373
  0
LINE
  8
0
 10
-11.6128
 20
78.8373
 11
-12.6088
 21
79.2601
  0
LINE
  8
0
 10
-12.6088
 20
79.2601
 11
-13.5895
 21
79.7174
  0
LINE
  8
0
 10
-13.5895
 20
79.7174
 11
-14.5536
 21
80.2086
  0
LINE
  8
0
 10
-14.5536
 20
80.2086
 11
-15.5
 21
80.7332
  0
LINE
  8
0
 10
-15.5
 20
80.7332
 11
-16.4275
 21
81.2905
  0
LINE
  8
0
 10
-16.4275
 20
81.2905
 11
-17.335
 21
81.8798
  0
LINE
  8
0
 10
-17.335
 20
81.8798
 11
-18.2213
 21
82.5005
  0
LINE
  8
0
 10
-18.2213
 20
82.5005
 11
-19.0855
 21
83.1517
  0
LINE
  8
0
 10
-19.0855
 20
83.1517
 11
-19.9264
 21
83.8326
  0
LINE
  8
0
 10
-19.9264
 20
83.8326
 11
-20.743
 21
84.5425
  0
LINE
  8
0
 10
-20.743
 20
84.5425
 11
-21.5344
 21
85.2805
  0
LINE
  8
0
 10
-21.5344
 20
85.2805
 11
-22.2995
 21
86.0456
  0
LINE
  8
0
 10
-22.2995
 20
86.0456
 11
-23.0375
 21
86.8369
  0
LINE
  8
0
 10
-23.0375
 20
86.8369
 11
-23.7474
 21
87.6536
  0
LINE
  8
0
 10
-23.7474
 20
87.6536
 11
-24.4283
 21
88.4945
  0
LINE
  8
0
 10
-24.4283
 20
88.4945
 11
-25.0795
 21
89.3587
  0
LINE
  8
0
 10
-25.0795
 20
89.3587
 11
-25.7002
 21
90.245
  0
LINE
  8
0
 10
-25.7002
 20
90.245
 11
-26.2895
 21
91.1525
  0
LINE
  8
0
 10
-26.2895
 20
91.1525
 11
-26.8468
 21
92.08
  0
LINE
  8
0
 10
-26.8468
 20
92.08
 11
-27.3714
 21
93.0264
  0
LINE
  8
0
 10
-27.3714
 20
93.0264
 11
-27.8626
 21
93.9905
  0
LINE
  8
0
 10
-27.8626
 20
93.9905
 11
-28.3199
 21
94.9712
  0
LINE
  8
0
 10
-28.3199
 20
94.9712
 11
-28.7427
 21
95.9672
  0
LINE
  8
0
 10
-28.7427
 20
95.9672
 11
-29.1305
 21
96.9774
  0
LINE
  8
0
 10
-29.1305
 20
96.9774
 11
-29.4827
 21
98.0005
  0
LINE
  8
0
 10
-29.4827
 20
98.0005
 11
-29.7991
 21
99.0352
  0
LINE
  8
0
 10
-29.7991
 20
99.0352
 11
-30.0792
 21
100.08
  0
LINE
  8
0
 10
-30.0792
 20
100.08
 11
-30.3226
 21
101.135
  0
LINE
  8
0
 10
-30.3226
 20
101.135
 11
-30.529
 21
102.197
  0
LINE
  8
0
 10
-30.529
 20
102.197
 11
-30.6983
 21
103.266
  0
LINE
  8
0
 10
-30.6983
 20
103.266
 11
-30.8302
 21
104.34
  0
LINE
  8
0
 10
-30.8302
 20
104.34
 11
-30.9245
 21
105.418
  0
LINE
  8
0
 10
-30.9245
 20
105.418
 11
-30.9811
 21
106.498
  0
LINE
  8
0
 10
-30.9811
 20
106.498
 11
-31
 21
107.58
  0
LINE
  8
0
 10
-31
 20
107.58
 11
-30.9811
 21
108.662
  0
LINE
  8
0
 10
-30.9811
 20
108.662
 11
-30.9245
 21
109.742
  0
LINE
  8
0
 10
-30.9245
 20
109.742
 11
-30.8302
 21
110.82
  0
LINE
  8
0
 10
-30.8302
 20
110.82
 11
-30.6983
 21
111.894
  0
LINE
  8
0
 10
-30.6983
 20
111.894
 11
-30.529
 21
112.963
  0
LINE
  8
0
 10
-30.529
 20
112.963
 11
-30.3226
 21
114.025
  0
LINE
  8
0
 10
-30.3226
 20
114.025
 11
-30.0792
 21
115.08
  0
LINE
  8
0
 10
-30.0792
 20
115.08
 11
-29.7991
 21
116.125
  0
LINE
  8
0
 10
-29.7991
 20
116.125
 11
-29.4827
 21
117.16
  0
LINE
  8
0
 10
-29.4827
 20
117.16
 11
-29.1305
 21
118.183
  0
LINE
  8
0
 10
-29.1305
 20
118.183
 11
-28.7427
 21
119.193
  0
LINE
  8
0
 10
-28.7427
 20
119.193
 11
-28.3199
 21
120.189
  0
LINE
  8
0
 10
-28.3199
 20
120.189
 11
-27.8626
 21
121.169
  0
LINE
  8
0
 10
-27.8626
 20
121.169
 11
-27.3714
 21
122.134
  0
LINE
  8
0
 10
-27.3714
 20
122.134
 11
-26.8468
 21
123.08
  0
LINE
  8
0
 10
-26.8468
 20
123.08
 11
-26.2895
 21
124.007
  0
LINE
  8
0
 10
-26.2895
 20
124.007
 11
-25.7002
 21
124.915
  0
LINE
  8
0
 10
-25.7002
 20
124.915
 11
-25.0795
 21
125.801
  0
LINE
  8
0
 10
-25.0795
 20
125.801
 11
-24.4283
 21
126.665
  0
LINE
  8
0
 10
-24.4283
 20
126.665
 11
-23.7474
 21
127.506
  0
LINE
  8
0
 10
-23.7474
 20
127.506
 11
-23.0375
 21
128.323
  0
LINE
  8
0
 10
-23.0375
 20
128.323
 11
-22.2995
 21
129.114
  0
LINE
  8
0
 10
-22.2995
 20
129.114
 11
-21.5344
 21
129.88
  0
LINE
  8
0
 10
-21.5344
 20
129.88
 11
-20.743
 21
130.617
  0
LINE
  8
0
 10
-20.743
 20
130.617
 11
-19.9264
 21
131.327
  0
LINE
  8
0
 10
-19.9264
 20
131.327
 11
-19.0855
 21
132.008
  0
LINE
  8
0
 10
-19.0855
 20
132.008
 11
-18.2213
 21
132.66
  0
LINE
  8
0
 10
-18.2213
 20
132.66
 11
-17.335
 21
133.28
  0
LINE
  8
0
 10
-17.335
 20
133.28
 11
-16.4275
 21
133.869
  0
LINE
  8
0
 10
-16.4275
 20
133.869
 11
-15.5
 21
134.427
  0
LINE
  8
0
 10
-15.5
 20
134.427
 11
-14.5536
 21
134.951
  0
LINE
  8
0
 10
-14.5536
 20
134.951
 11
-13.5895
 21
135.443
  0
LINE
  8
0
 10
-13.5895
 20
135.443
 11
-12.6088
 21
135.9
  0
LINE
  8
0
 10
-12.6088
 20
135.9
 11
-11.6128
 21
136.323
  0
LINE
  8
0
 10
-11.6128
 20
136.323
 11
-10.6026
 21
136.71
  0
LINE
  8
0
 10
-10.6026
 20
136.71
 11
-9.57951
 21
137.063
  0
LINE
  8
0
 10
-9.57951
 20
137.063
 11
-8.54475
 21
137.379
  0
LINE
  8
0
 10
-8.54475
 20
137.379
 11
-7.49957
 21
137.659
  0
LINE
  8
0
 10
-7.49957
 20
137.659
 11
-6.44525
 21
137.903
  0
LINE
  8
0
 10
-6.44525
 20
137.903
 11
-5.38309
 21
138.109
  0
LINE
  8
0
 10
-5.38309
 20
138.109
 11
-4.31436
 21
138.278
  0
LINE
  8
0
 10
-4.31436
 20
138.278
 11
-3.24037
 21
138.41
  0
LINE
  8
0
 10
-3.24037
 20
138.41
 11
-2.16245
 21
138.504
  0
LINE
  8
0
 10
-2.16245
 20
138.504
 11
-1.08188
 21
138.561
  0
LINE
  8
0
 10
-1.08188
 20
138.561
 11
0
 21
138.58
  0
LINE
  8
0
 10
0
 20
138.58
 11
1.08188
 21
138.561
  0
LINE
  8
0
 10
1.08188
 20
138.561
 11
2.16245
 21
138.504
  0
LINE
  8
0
 10
2.16245
 20
138.504
 11
3.24037
 21
138.41
  0
LINE
  8
0
 10
3.24037
 20
138.41
 11
4.31436
 21
138.278
  0
LINE
  8
0
 10
4.31436
 20
138.278
 11
5.38309
 21
138.109
  0
LINE
  8
0
 10
5.38309
 20
138.109
 11
6.44525
 21
137.903
  0
LINE
  8
0
 10
6.44525
 20
137.903
 11
7.49957
 21
137.659
  0
LINE
  8
0
 10
7.49957
 20
137.659
 11
8.54475
 21
137.379
  0
LINE
  8
0
 10
8.54475
 20
137.379
 11
9.57951
 21
137.063
  0
LINE
  8
0
 10
9.57951
 20
137.063
 11
10.6026
 21
136.71
  0
LINE
  8
0
 10
10.6026
 20
136.71
 11
11.6128
 21
136.323
  0
LINE
  8
0
 10
11.6128
 20
136.323
 11
12.6088
 21
135.9
  0
LINE
  8
0
 10
12.6088
 20
135.9
 11
13.5895
 21
135.443
  0
LINE
  8
0
 10
13.5895
 20
135.443
 11
14.5536
 21
134.951
  0
LINE
  8
0
 10
14.5536
 20
134.951
 11
15.5
 21
134.427
  0
LINE
  8
0
 10
15.5
 20
134.427
 11
16.4275
 21
133.869
  0
LINE
  8
0
 10
16.4275
 20
133.869
 11
17.335
 21
133.28
  0
LINE
  8
0
 10
17.335
 20
133.28
 11
18.2213
 21
132.66
  0
LINE
  8
0
 10
18.2213
 20
132.66
 11
19.0855
 21
132.008
  0
LINE
  8
0
 10
19.0855
 20
132.008
 11
19.9264
 21
131.327
  0
LINE
  8
0
 10
19.9264
 20
131.327
 11
20.743
 21
130.617
  0
LINE
  8
0
 10
20.743
 20
130.617
 11
21.5344
 21
129.88
  0
LINE
  8
0
 10
21.5344
 20
129.88
 11
22.2995
 21
129.114
  0
LINE
  8
0
 10
22.2995
 20
129.114
 11
23.0375
 21
128.323
  0
LINE
  8
0
 10
23.0375
 20
128.323
 11
23.7474
 21
127.506
  0
LINE
  8
0
 10
23.7474
 20
127.506
 11
24.4283
 21
126.665
  0
LINE
  8
0
 10
24.4283
 20
126.665
 11
25.0795
 21
125.801
  0
LINE
  8
0
 10
25.0795
 20
125.801
 11
25.7002
 21
124.915
  0
LINE
  8
0
 10
25.7002
 20
124.915
 11
26.2895
 21
124.007
  0
LINE
  8
0
 10
26.2895
 20
124.007
 11
26.8468
 21
123.08
  0
LINE
  8
0
 10
26.8468
 20
123.08
 11
27.3714
 21
122.134
  0
LINE
  8
0
 10
27.3714
 20
122.134
 11
27.8626
 21
121.169
  0
LINE
  8
0
 10
27.8626
 20
121.169
 11
28.3199
 21
120.189
  0
LINE
  8
0
 10
28.3199
 20
120.189
 11
28.7427
 21
119.193
  0
LINE
  8
0
 10
28.7427
 20
119.193
 11
29.1305
 21
118.183
  0
LINE
  8
0
 10
29.1305
 20
118.183
 11
29.4827
 21
117.16
  0
LINE
  8
0
 10
29.4827
 20
117.16
 11
29.7991
 21
116.125
  0
LINE
  8
0
 10
29.7991
 20
116.125
 11
30.0792
 21
115.08
  0
LINE
  8
0
 10
30.0792
 20
115.08
 11
30.3226
 21
114.025
  0
LINE
  8
0
 10
30.3226
 20
114.025
 11
30.529
 21
112.963
  0
LINE
  8
0
 10
30.529
 20
112.963
 11
30.6983
 21
111.894
  0
LINE
  8
0
 10
30.6983
 20
111.894
 11
30.8302
 21
110.82
  0
LINE
  8
0
 10
30.8302
 20
110.82
 11
30.9245
 21
109.742
  0
LINE
  8
0
 10
30.9245
 20
109.742
 11
30.9811
 21
108.662
  0
LINE
  8
0
 10
30.9811
 20
108.662
 11
31
 21
107.58
  0
LINE
  8
0
 10
31
 20
107.58
 11
30.9811
 21
106.498
  0
LINE
  8
0
 10
30.9811
 20
106.498
 11
30.9245
 21
105.418
  0
LINE
  8
0
 10
30.9245
 20
105.418
 11
30.8302
 21
104.34
  0
LINE
  8
0
 10
30.8302
 20
104.34
 11
30.6983
 21
103.266
  0
LINE
  8
0
 10
30.6983
 20
103.266
 11
30.529
 21
102.197
  0
LINE
  8
0
 10
30.529
 20
102.197
 11
30.3226
 21
101.135
  0
LINE
  8
0
 10
30.3226
 20
101.135
 11
30.0792
 21
100.08
  0
LINE
  8
0
 10
30.0792
 20
100.08
 11
29.7991
 21
99.0352
  0
LINE
  8
0
 10
29.7991
 20
99.0352
 11
29.4827
 21
98.0005
  0
LINE
  8
0
 10
29.4827
 20
98.0005
 11
29.1305
 21
96.9774
  0
LINE
  8
0
 10
29.1305
 20
96.9774
 11
28.7427
 21
95.9672
  0
LINE
  8
0
 10
28.7427
 20
95.9672
 11
28.3199
 21
94.9712
  0
LINE
  8
0
 10
28.3199
 20
94.9712
 11
27.8626
 21
93.9905
  0
LINE
  8
0
 10
27.8626
 20
93.9905
 11
27.3714
 21
93.0264
  0
LINE
  8
0
 10
27.3714
 20
93.0264
 11
26.8468
 21
92.08
  0
LINE
  8
0
 10
26.8468
 20
92.08
 11
26.2895
 21
91.1525
  0
LINE
  8
0
 10
26.2895
 20
91.1525
 11
25.7002
 21
90.245
  0
LINE
  8
0
 10
25.7002
 20
90.245
 11
25.0795
 21
89.3587
  0
LINE
  8
0
 10
25.0795
 20
89.3587
 11
24.4283
 21
88.4945
  0
LINE
  8
0
 10
24.4283
 20
88.4945
 11
23.7474
 21
87.6536
  0
LINE
  8
0
 10
23.7474
 20
87.6536
 11
23.0375
 21
86.8369
  0
LINE
  8
0
 10
23.0375
 20
86.8369
 11
22.2995
 21
86.0456
  0
LINE
  8
0
 10
22.2995
 20
86.0456
 11
21.5344
 21
85.2805
  0
LINE
  8
0
 10
21.5344
 20
85.2805
 11
20.743
 21
84.5425
  0
LINE
  8
0
 10
20.743
 20
84.5425
 11
19.9264
 21
83.8326
  0
LINE
  8
0
 10
19.9264
 20
83.8326
 11
19.0855
 21
83.1517
  0
LINE
  8
0
 10
19.0855
 20
83.1517
 11
18.2213
 21
82.5005
  0
LINE
  8
0
 10
18.2213
 20
82.5005
 11
17.335
 21
81.8798
  0
LINE
  8
0
 10
17.335
 20
81.8798
 11
16.4275
 21
81.2905
  0
LINE
  8
0
 10
16.4275
 20
81.2905
 11
15.5
 21
80.7332
  0
LINE
  8
0
 10
15.5
 20
80.7332
 11
14.5536
 21
80.2086
  0
LINE
  8
0
 10
14.5536
 20
80.2086
 11
13.5895
 21
79.7174
  0
LINE
  8
0
 10
13.5895
 20
79.7174
 11
12.6088
 21
79.2601
  0
LINE
  8
0
 10
12.6088
 20
79.2601
 11
11.6128
 21
78.8373
  0
LINE
  8
0
 10
11.6128
 20
78.8373
 11
10.6026
 21
78.4495
  0
LINE
  8
0
 10
10.6026
 20
78.4495
 11
9.57951
 21
78.0972
  0
LINE
  8
0
 10
9.57951
 20
78.0972
 11
8.54475
 21
77.7809
  0
LINE
  8
0
 10
8.54475
 20
77.7809
 11
7.49957
 21
77.5008
  0
LINE
  8
0
 10
7.49957
 20
77.5008
 11
6.44525
 21
77.2574
  0
LINE
  8
0
 10
6.44525
 20
77.2574
 11
5.38309
 21
77.0509
  0
LINE
  8
0
 10
5.38309
 20
77.0509
 11
4.31436
 21
76.8817
  0
LINE
  8
0
 10
4.31436
 20
76.8817
 11
3.24037
 21
76.7498
  0
LINE
  8
0
 10
3.24037
 20
76.7498
 11
2.16245
 21
76.6555
  0
LINE
  8
0
 10
2.16245
 20
76.6555
 11
1.08188
 21
76.5989
  0
LINE
  8
0
 10
1.08188
 20
76.5989
 11
0
 21
76.58
  0
LINE
  8
0
 10
0
 20
76.58
 11
-1.08188
 21
76.5989
  0
LINE
  8
0
 10
-4.87083
 20
68.3512
 11
-5.01219
 21
68.3611
  0
LINE
  8
0
 10
-5.01219
 20
68.3611
 11
-5.1525
 21
68.3808
  0
LINE
  8
0
 10
-5.1525
 20
68.3808
 11
-5.29109
 21
68.4103
  0
LINE
  8
0
 10
-5.29109
 20
68.4103
 11
-5.42729
 21
68.4494
  0
LINE
  8
0
 10
-5.42729
 20
68.4494
 11
-5.56044
 21
68.4978
  0
LINE
  8
0
 10
-5.56044
 20
68.4978
 11
-5.68988
 21
68.5555
  0
LINE
  8
0
 10
-5.68988
 20
68.5555
 11
-5.81499
 21
68.622
  0
LINE
  8
0
 10
-5.81499
 20
68.622
 11
-5.93515
 21
68.6971
  0
LINE
  8
0
 10
-5.93515
 20
68.6971
 11
-6.04979
 21
68.7803
  0
LINE
  8
0
 10
-6.04979
 20
68.7803
 11
-6.15833
 21
68.8714
  0
LINE
  8
0
 10
-6.15833
 20
68.8714
 11
-6.26025
 21
68.9698
  0
LINE
  8
0
 10
-6.26025
 20
68.9698
 11
-6.35506
 21
69.0751
  0
LINE
  8
0
 10
-6.35506
 20
69.0751
 11
-6.44229
 21
69.1868
  0
LINE
  8
0
 10
-6.44229
 20
69.1868
 11
-6.52153
 21
69.3043
  0
LINE
  8
0
 10
-6.52153
 20
69.3043
 11
-6.59238
 21
69.427
  0
LINE
  8
0
 10
-6.59238
 20
69.427
 11
-6.6545
 21
69.5543
  0
LINE
  8
0
 10
-6.6545
 20
69.5543
 11
-6.70757
 21
69.6857
  0
LINE
  8
0
 10
-6.70757
 20
69.6857
 11
-6.75136
 21
69.8204
  0
LINE
  8
0
 10
-6.75136
 20
69.8204
 11
-6.78563
 21
69.9579
  0
LINE
  8
0
 10
-6.78563
 20
69.9579
 11
-6.81024
 21
70.0975
  0
LINE
  8
0
 10
-6.81024
 20
70.0975
 11
-6.82504
 21
70.2384
  0
LINE
  8
0
 10
-6.82504
 20
70.2384
 11
-6.82999
 21
70.38
  0
LINE
  8
0
 10
-6.82999
 20
70.38
 11
-6.82504
 21
70.5216
  0
LINE
  8
0
 10
-6.82504
 20
70.5216
 11
-6.81024
 21
70.6625
  0
LINE
  8
0
 10
-6.81024
 20
70.6625
 11
-6.78563
 21
70.8021
  0
LINE
  8
0
 10
-6.78563
 20
70.8021
 11
-6.75136
 21
70.9395
  0
LINE
  8
0
 10
-6.75136
 20
70.9395
 11
-6.70757
 21
71.0743
  0
LINE
  8
0
 10
-6.70757
 20
71.0743
 11
-6.6545
 21
71.2057
  0
LINE
  8
0
 10
-6.6545
 20
71.2057
 11
-6.59238
 21
71.333
  0
LINE
  8
0
 10
-6.59238
 20
71.333
 11
-6.52153
 21
71.4557
  0
LINE
  8
0
 10
-6.52153
 20
71.4557
 11
-6.44229
 21
71.5732
  0
LINE
  8
0
 10
-6.44229
 20
71.5732
 11
-6.35506
 21
71.6849
  0
LINE
  8
0
 10
-6.35506
 20
71.6849
 11
-6.26025
 21
71.7901
  0
LINE
  8
0
 10
-6.26025
 20
71.7901
 11
-6.15833
 21
71.8886
  0
LINE
  8
0
 10
-6.15833
 20
71.8886
 11
-6.04979
 21
71.9797
  0
LINE
  8
0
 10
-6.04979
 20
71.9797
 11
-5.93515
 21
72.0629
  0
LINE
  8
0
 10
-5.93515
 20
72.0629
 11
-5.81499
 21
72.138
  0
LINE
  8
0
 10
-5.81499
 20
72.138
 11
-5.68988
 21
72.2045
  0
LINE
  8
0
 10
-5.68988
 20
72.2045
 11
-5.56044
 21
72.2622
  0
LINE
  8
0
 10
-5.56044
 20
72.2622
 11
-5.42729
 21
72.3106
  0
LINE
  8
0
 10
-5.42729
 20
72.3106
 11
-5.29109
 21
72.3497
  0
LINE
  8
0
 10
-5.29109
 20
72.3497
 11
-5.1525
 21
72.3792
  0
LINE
  8
0
 10
-5.1525
 20
72.3792
 11
-5.01219
 21
72.3989
  0
LINE
  8
0
 10
-5.01219
 20
72.3989
 11
-4.87083
 21
72.4088
  0
LINE
  8
0
 10
-4.87083
 20
72.4088
 11
-4.72914
 21
72.4088
  0
LINE
  8
0
 10
-4.72914
 20
72.4088
 11
-4.5878
 21
72.3989
  0
LINE
  8
0
 10
-4.5878
 20
72.3989
 11
-4.44748
 21
72.3792
  0
LINE
  8
0
 10
-4.44748
 20
72.3792
 11
-4.30888
 21
72.3497
  0
LINE
  8
0
 10
-4.30888
 20
72.3497
 11
-4.17268
 21
72.3106
  0
LINE
  8
0
 10
-4.17268
 20
72.3106
 11
-4.03954
 21
72.2622
  0
LINE
  8
0
 10
-4.03954
 20
72.2622
 11
-3.9101
 21
72.2045
  0
LINE
  8
0
 10
-3.9101
 20
72.2045
 11
-3.78499
 21
72.138
  0
LINE
  8
0
 10
-3.78499
 20
72.138
 11
-3.66483
 21
72.0629
  0
LINE
  8
0
 10
-3.66483
 20
72.0629
 11
-3.5502
 21
71.9797
  0
LINE
  8
0
 10
-3.5502
 20
71.9797
 11
-3.44165
 21
71.8886
  0
LINE
  8
0
 10
-3.44165
 20
71.8886
 11
-3.33974
 21
71.7901
  0
LINE
  8
0
 10
-3.33974
 20
71.7901
 11
-3.24492
 21
71.6849
  0
LINE
  8
0
 10
-3.24492
 20
71.6849
 11
-3.15768
 21
71.5732
  0
LINE
  8
0
 10
-3.15768
 20
71.5732
 11
-3.07846
 21
71.4557
  0
LINE
  8
0
 10
-3.07846
 20
71.4557
 11
-3.00761
 21
71.333
  0
LINE
  8
0
 10
-3.00761
 20
71.333
 11
-2.9455
 21
71.2057
  0
LINE
  8
0
 10
-2.9455
 20
71.2057
 11
-2.89241
 21
71.0743
  0
LINE
  8
0
 10
-2.89241
 20
71.0743
 11
-2.84863
 21
70.9395
  0
LINE
  8
0
 10
-2.84863
 20
70.9395
 11
-2.81435
 21
70.8021
  0
LINE
  8
0
 10
-2.81435
 20
70.8021
 11
-2.78975
 21
70.6625
  0
LINE
  8
0
 10
-2.78975
 20
70.6625
 11
-2.77493
 21
70.5216
  0
LINE
  8
0
 10
-2.77493
 20
70.5216
 11
-2.76999
 21
70.38
  0
LINE
  8
0
 10
-2.76999
 20
70.38
 11
-2.77493
 21
70.2384
  0
LINE
  8
0
 10
-2.77493
 20
70.2384
 11
-2.78975
 21
70.0975
  0
LINE
  8
0
 10
-2.78975
 20
70.0975
 11
-2.81435
 21
69.9579
  0
LINE
  8
0
 10
-2.81435
 20
69.9579
 11
-2.84863
 21
69.8204
  0
LINE
  8
0
 10
-2.84863
 20
69.8204
 11
-2.89241
 21
69.6857
  0
LINE
  8
0
 10
-2.89241
 20
69.6857
 11
-2.9455
 21
69.5543
  0
LINE
  8
0
 10
-2.9455
 20
69.5543
 11
-3.00761
 21
69.427
  0
LINE
  8
0
 10
-3.00761
 20
69.427
 11
-3.07846
 21
69.3043
  0
LINE
  8
0
 10
-3.07846
 20
69.3043
 11
-3.15768
 21
69.1868
  0
LINE
  8
0
 10
-3.15768
 20
69.1868
 11
-3.24492
 21
69.0751
  0
LINE
  8
0
 10
-3.24492
 20
69.0751
 11
-3.33974
 21
68.9698
  0
LINE
  8
0
 10
-3.33974
 20
68.9698
 11
-3.44165
 21
68.8714
  0
LINE
  8
0
 10
-3.44165
 20
68.8714
 11
-3.5502
 21
68.7803
  0
LINE
  8
0
 10
-3.5502
 20
68.7803
 11
-3.66483
 21
68.6971
  0
LINE
  8
0
 10
-3.66483
 20
68.6971
 11
-3.78499
 21
68.622
  0
LINE
  8
0
 10
-3.78499
 20
68.622
 11
-3.9101
 21
68.5555
  0
LINE
  8
0
 10
-3.9101
 20
68.5555
 11
-4.03954
 21
68.4978
  0
LINE
  8
0
 10
-4.03954
 20
68.4978
 11
-4.17268
 21
68.4494
  0
LINE
  8
0
 10
-4.17268
 20
68.4494
 11
-4.30888
 21
68.4103
  0
LINE
  8
0
 10
-4.30888
 20
68.4103
 11
-4.44748
 21
68.3808
  0
LINE
  8
0
 10
-4.44748
 20
68.3808
 11
-4.5878
 21
68.3611
  0
LINE
  8
0
 10
-4.5878
 20
68.3611
 11
-4.72914
 21
68.3512
  0
LINE
  8
0
 10
-4.72914
 20
68.3512
 11
-4.87083
 21
68.3512
  0
LINE
  8
0
 10
4.72914
 20
68.3512
 11
4.5878
 21
68.3611
  0
LINE
  8
0
 10
4.5878
 20
68.3611
 11
4.44748
 21
68.3808
  0
LINE
  8
0
 10
4.44748
 20
68.3808
 11
4.30888
 21
68.4103
  0
LINE
  8
0
 10
4.30888
 20
68.4103
 11
4.17268
 21
68.4494
  0
LINE
  8
0
 10
4.17268
 20
68.4494
 11
4.03954
 21
68.4978
  0
LINE
  8
0
 10
4.03954
 20
68.4978
 11
3.9101
 21
68.5555
  0
LINE
  8
0
 10
3.9101
 20
68.5555
 11
3.78499
 21
68.622
  0
LINE
  8
0
 10
3.78499
 20
68.622
 11
3.66483
 21
68.6971
  0
LINE
  8
0
 10
3.66483
 20
68.6971
 11
3.5502
 21
68.7803
  0
LINE
  8
0
 10
3.5502
 20
68.7803
 11
3.44165
 21
68.8714
  0
LINE
  8
0
 10
3.44165
 20
68.8714
 11
3.33974
 21
68.9698
  0
LINE
  8
0
 10
3.33974
 20
68.9698
 11
3.24492
 21
69.0751
  0
LINE
  8
0
 10
3.24492
 20
69.0751
 11
3.15768
 21
69.1868
  0
LINE
  8
0
 10
3.15768
 20
69.1868
 11
3.07846
 21
69.3043
  0
LINE
  8
0
 10
3.07846
 20
69.3043
 11
3.00761
 21
69.427
  0
LINE
  8
0
 10
3.00761
 20
69.427
 11
2.9455
 21
69.5543
  0
LINE
  8
0
 10
2.9455
 20
69.5543
 11
2.89241
 21
69.6857
  0
LINE
  8
0
 10
2.89241
 20
69.6857
 11
2.84863
 21
69.8204
  0
LINE
  8
0
 10
2.84863
 20
69.8204
 11
2.81435
 21
69.9579
  0
LINE
  8
0
 10
2.81435
 20
69.9579
 11
2.78975
 21
70.0975
  0
LINE
  8
0
 10
2.78975
 20
70.0975
 11
2.77493
 21
70.2384
  0
LINE
  8
0
 10
2.77493
 20
70.2384
 11
2.76999
 21
70.38
  0
LINE
  8
0
 10
2.76999
 20
70.38
 11
2.77493
 21
70.5216
  0
LINE
  8
0
 10
2.77493
 20
70.5216
 11
2.78975
 21
70.6625
  0
LINE
  8
0
 10
2.78975
 20
70.6625
 11
2.81435
 21
70.8021
  0
LINE
  8
0
 10
2.81435
 20
70.8021
 11
2.84863
 21
70.9395
  0
LINE
  8
0
 10
2.84863
 20
70.9395
 11
2.89241
 21
71.0743
  0
LINE
  8
0
 10
2.89241
 20
71.0743
 11
2.9455
 21
71.2057
  0
LINE
  8
0
 10
2.9455
 20
71.2057
 11
3.00761
 21
71.333
  0
LINE
  8
0
 10
3.00761
 20
71.333
 11
3.07846
 21
71.4557
  0
LINE
  8
0
 10
3.07846
 20
71.4557
 11
3.15768
 21
71.5732
  0
LINE
  8
0
 10
3.15768
 20
71.5732
 11
3.24492
 21
71.6849
  0
LINE
  8
0
 10
3.24492
 20
71.6849
 11
3.33974
 21
71.7901
  0
LINE
  8
0
 10
3.33974
 20
71.7901
 11
3.44165
 21
71.8886
  0
LINE
  8
0
 10
3.44165
 20
71.8886
 11
3.5502
 21
71.9797
  0
LINE
  8
0
 10
3.5502
 20
71.9797
 11
3.66483
 21
72.0629
  0
LINE
  8
0
 10
3.66483
 20
72.0629
 11
3.78499
 21
72.138
  0
LINE
  8
0
 10
3.78499
 20
72.138
 11
3.9101
 21
72.2045
  0
LINE
  8
0
 10
3.9101
 20
72.2045
 11
4.03954
 21
72.2622
  0
LINE
  8
0
 10
4.03954
 20
72.2622
 11
4.17268
 21
72.3106
  0
LINE
  8
0
 10
4.17268
 20
72.3106
 11
4.30888
 21
72.3497
  0
LINE
  8
0
 10
4.30888
 20
72.3497
 11
4.44748
 21
72.3792
  0
LINE
  8
0
 10
4.44748
 20
72.3792
 11
4.5878
 21
72.3989
  0
LINE
  8
0
 10
4.5878
 20
72.3989
 11
4.72914
 21
72.4088
  0
LINE
  8
0
 10
4.72914
 20
72.4088
 11
4.87083
 21
72.4088
  0
LINE
  8
0
 10
4.87083
 20
72.4088
 11
5.01219
 21
72.3989
  0
LINE
  8
0
 10
5.01219
 20
72.3989
 11
5.1525
 21
72.3792
  0
LINE
  8
0
 10
5.1525
 20
72.3792
 11
5.29109
 21
72.3497
  0
LINE
  8
0
 10
5.29109
 20
72.3497
 11
5.42729
 21
72.3106
  0
LINE
  8
0
 10
5.42729
 20
72.3106
 11
5.56044
 21
72.2622
  0
LINE
  8
0
 10
5.56044
 20
72.2622
 11
5.68988
 21
72.2045
  0
LINE
  8
0
 10
5.68988
 20
72.2045
 11
5.81499
 21
72.138
  0
LINE
  8
0
 10
5.81499
 20
72.138
 11
5.93515
 21
72.0629
  0
LINE
  8
0
 10
5.93515
 20
72.0629
 11
6.04979
 21
71.9797
  0
LINE
  8
0
 10
6.04979
 20
71.9797
 11
6.15833
 21
71.8886
  0
LINE
  8
0
 10
6.15833
 20
71.8886
 11
6.26025
 21
71.7901
  0
LINE
  8
0
 10
6.26025
 20
71.7901
 11
6.35506
 21
71.6849
  0
LINE
  8
0
 10
6.35506
 20
71.6849
 11
6.44229
 21
71.5732
  0
LINE
  8
0
 10
6.44229
 20
71.5732
 11
6.52153
 21
71.4557
  0
LINE
  8
0
 10
6.52153
 20
71.4557
 11
6.59238
 21
71.333
  0
LINE
  8
0
 10
6.59238
 20
71.333
 11
6.6545
 21
71.2057
  0
LINE
  8
0
 10
6.6545
 20
71.2057
 11
6.70757
 21
71.0743
  0
LINE
  8
0
 10
6.70757
 20
71.0743
 11
6.75136
 21
70.9395
  0
LINE
  8
0
 10
6.75136
 20
70.9395
 11
6.78563
 21
70.8021
  0
LINE
  8
0
 10
6.78563
 20
70.8021
 11
6.81024
 21
70.6625
  0
LINE
  8
0
 10
6.81024
 20
70.6625
 11
6.82504
 21
70.5216
  0
LINE
  8
0
 10
6.82504
 20
70.5216
 11
6.82999
 21
70.38
  0
LINE
  8
0
 10
6.82999
 20
70.38
 11
6.82504
 21
70.2384
  0
LINE
  8
0
 10
6.82504
 20
70.2384
 11
6.81024
 21
70.0975
  0
LINE
  8
0
 10
6.81024
 20
70.0975
 11
6.78563
 21
69.9579
  0
LINE
  8
0
 10
6.78563
 20
69.9579
 11
6.75136
 21
69.8204
  0
LINE
  8
0
 10
6.75136
 20
69.8204
 11
6.70757
 21
69.6857
  0
LINE
  8
0
 10
6.70757
 20
69.6857
 11
6.6545
 21
69.5543
  0
LINE
  8
0
 10
6.6545
 20
69.5543
 11
6.59238
 21
69.427
  0
LINE
  8
0
 10
6.59238
 20
69.427
 11
6.52153
 21
69.3043
  0
LINE
  8
0
 10
6.52153
 20
69.3043
 11
6.44229
 21
69.1868
  0
LINE
  8
0
 10
6.44229
 20
69.1868
 11
6.35506
 21
69.0751
  0
LINE
  8
0
 10
6.35506
 20
69.0751
 11
6.26025
 21
68.9698
  0
LINE
  8
0
 10
6.26025
 20
68.9698
 11
6.15833
 21
68.8714
  0
LINE
  8
0
 10
6.15833
 20
68.8714
 11
6.04979
 21
68.7803
  0
LINE
  8
0
 10
6.04979
 20
68.7803
 11
5.93515
 21
68.6971
  0
LINE
  8
0
 10
5.93515
 20
68.6971
 11
5.81499
 21
68.622
  0
LINE
  8
0
 10
5.81499
 20
68.622
 11
5.68988
 21
68.5555
  0
LINE
  8
0
 10
5.68988
 20
68.5555
 11
5.56044
 21
68.4978
  0
LINE
  8
0
 10
5.56044
 20
68.4978
 11
5.42729
 21
68.4494
  0
LINE
  8
0
 10
5.42729
 20
68.4494
 11
5.29109
 21
68.4103
  0
LINE
  8
0
 10
5.29109
 20
68.4103
 11
5.1525
 21
68.3808
  0
LINE
  8
0
 10
5.1525
 20
68.3808
 11
5.01219
 21
68.3611
  0
LINE
  8
0
 10
5.01219
 20
68.3611
 11
4.87083
 21
68.3512
  0
LINE
  8
0
 10
4.87083
 20
68.3512
 11
4.72914
 21
68.3512
  0
LINE
  8
0
 10
-7.98
 20
49.6
 11
-7.98
 21
65.56
  0
LINE
  8
0
 10
-7.98
 20
65.56
 11
7.98
 21
65.56
  0
LINE
  8
0
 10
7.98
 20
65.56
 11
7.98
 21
49.6
  0
LINE
  8
0
 10
7.98
 20
49.6
 11
-7.98
 21
49.6
  0
LINE
  8
0
 10
-7.50999
 20
40.33
 11
-7.50999
 21
43.35
  0
LINE
  8
0
 10
-7.50999
 20
43.35
 11
7.50999
 21
43.35
  0
LINE
  8
0
 10
7.50999
 20
43.35
 11
7.50999
 21
40.33
  0
LINE
  8
0
 10
7.50999
 20
40.33
 11
-7.50999
 21
40.33
  0
LINE
  8
0
 10
-61.585
 20
40.33
 11
-61.585
 21
43.35
  0
LINE
  8
0
 10
-61.585
 20
43.35
 11
-46.565
 21
43.35
  0
LINE
  8
0
 10
-46.565
 20
43.35
 11
-46.565
 21
40.33
  0
LINE
  8
0
 10
-46.565
 20
40.33
 11
-61.585
 21
40.33
  0
LINE
  8
0
 10
46.565
 20
40.33
 11
46.565
 21
43.35
  0
LINE
  8
0
 10
46.565
 20
43.35
 11
61.585
 21
43.35
  0
LINE
  8
0
 10
61.585
 20
43.35
 11
61.585
 21
40.33
  0
LINE
  8
0
 10
61.585
 20
40.33
 11
46.565
 21
40.33
  0
LINE
  8
0
 10
-72.2417
 20
28.2225
 11
-72.5244
 21
28.2422
  0
LINE
  8
0
 10
-72.5244
 20
28.2422
 11
-72.805
 21
28.2817
  0
LINE
  8
0
 10
-72.805
 20
28.2817
 11
-73.0822
 21
28.3406
  0
LINE
  8
0
 10
-73.0822
 20
28.3406
 11
-73.3546
 21
28.4187
  0
LINE
  8
0
 10
-73.3546
 20
28.4187
 11
-73.6209
 21
28.5156
  0
LINE
  8
0
 10
-73.6209
 20
28.5156
 11
-73.8798
 21
28.6309
  0
LINE
  8
0
 10
-73.8798
 20
28.6309
 11
-74.13
 21
28.7639
  0
LINE
  8
0
 10
-74.13
 20
28.7639
 11
-74.3703
 21
28.9141
  0
LINE
  8
0
 10
-74.3703
 20
28.9141
 11
-74.5996
 21
29.0807
  0
LINE
  8
0
 10
-74.5996
 20
29.0807
 11
-74.8167
 21
29.2628
  0
LINE
  8
0
 10
-74.8167
 20
29.2628
 11
-75.0205
 21
29.4597
  0
LINE
  8
0
 10
-75.0205
 20
29.4597
 11
-75.2101
 21
29.6703
  0
LINE
  8
0
 10
-75.2101
 20
29.6703
 11
-75.3846
 21
29.8936
  0
LINE
  8
0
 10
-75.3846
 20
29.8936
 11
-75.5431
 21
30.1285
  0
LINE
  8
0
 10
-75.5431
 20
30.1285
 11
-75.6848
 21
30.3739
  0
LINE
  8
0
 10
-75.6848
 20
30.3739
 11
-75.809
 21
30.6286
  0
LINE
  8
0
 10
-75.809
 20
30.6286
 11
-75.9151
 21
30.8914
  0
LINE
  8
0
 10
-75.9151
 20
30.8914
 11
-76.0027
 21
31.1609
  0
LINE
  8
0
 10
-76.0027
 20
31.1609
 11
-76.0713
 21
31.4359
  0
LINE
  8
0
 10
-76.0713
 20
31.4359
 11
-76.1205
 21
31.715
  0
LINE
  8
0
 10
-76.1205
 20
31.715
 11
-76.1501
 21
31.9968
  0
LINE
  8
0
 10
-76.1501
 20
31.9968
 11
-76.16
 21
32.28
  0
LINE
  8
0
 10
-76.16
 20
32.28
 11
-76.1501
 21
32.5632
  0
LINE
  8
0
 10
-76.1501
 20
32.5632
 11
-76.1205
 21
32.845
  0
LINE
  8
0
 10
-76.1205
 20
32.845
 11
-76.0713
 21
33.1241
  0
LINE
  8
0
 10
-76.0713
 20
33.1241
 11
-76.0027
 21
33.3991
  0
LINE
  8
0
 10
-76.0027
 20
33.3991
 11
-75.9151
 21
33.6686
  0
LINE
  8
0
 10
-75.9151
 20
33.6686
 11
-75.809
 21
33.9314
  0
LINE
  8
0
 10
-75.809
 20
33.9314
 11
-75.6848
 21
34.1861
  0
LINE
  8
0
 10
-75.6848
 20
34.1861
 11
-75.5431
 21
34.4315
  0
LINE
  8
0
 10
-75.5431
 20
34.4315
 11
-75.3846
 21
34.6664
  0
LINE
  8
0
 10
-75.3846
 20
34.6664
 11
-75.2101
 21
34.8897
  0
LINE
  8
0
 10
-75.2101
 20
34.8897
 11
-75.0205
 21
35.1003
  0
LINE
  8
0
 10
-75.0205
 20
35.1003
 11
-74.8167
 21
35.2972
  0
LINE
  8
0
 10
-74.8167
 20
35.2972
 11
-74.5996
 21
35.4793
  0
LINE
  8
0
 10
-74.5996
 20
35.4793
 11
-74.3703
 21
35.6459
  0
LINE
  8
0
 10
-74.3703
 20
35.6459
 11
-74.13
 21
35.7961
  0
LINE
  8
0
 10
-74.13
 20
35.7961
 11
-73.8798
 21
35.9291
  0
LINE
  8
0
 10
-73.8798
 20
35.9291
 11
-73.6209
 21
36.0444
  0
LINE
  8
0
 10
-73.6209
 20
36.0444
 11
-73.3546
 21
36.1413
  0
LINE
  8
0
 10
-73.3546
 20
36.1413
 11
-73.0822
 21
36.2194
  0
LINE
  8
0
 10
-73.0822
 20
36.2194
 11
-72.805
 21
36.2783
  0
LINE
  8
0
 10
-72.805
 20
36.2783
 11
-72.5244
 21
36.3177
  0
LINE
  8
0
 10
-72.5244
 20
36.3177
 11
-72.2417
 21
36.3375
  0
LINE
  8
0
 10
-72.2417
 20
36.3375
 11
-71.9583
 21
36.3375
  0
LINE
  8
0
 10
-71.9583
 20
36.3375
 11
-71.6756
 21
36.3177
  0
LINE
  8
0
 10
-71.6756
 20
36.3177
 11
-71.395
 21
36.2783
  0
LINE
  8
0
 10
-71.395
 20
36.2783
 11
-71.1178
 21
36.2194
  0
LINE
  8
0
 10
-71.1178
 20
36.2194
 11
-70.8454
 21
36.1413
  0
LINE
  8
0
 10
-70.8454
 20
36.1413
 11
-70.5791
 21
36.0444
  0
LINE
  8
0
 10
-70.5791
 20
36.0444
 11
-70.3202
 21
35.9291
  0
LINE
  8
0
 10
-70.3202
 20
35.9291
 11
-70.07
 21
35.7961
  0
LINE
  8
0
 10
-70.07
 20
35.7961
 11
-69.8297
 21
35.6459
  0
LINE
  8
0
 10
-69.8297
 20
35.6459
 11
-69.6004
 21
35.4793
  0
LINE
  8
0
 10
-69.6004
 20
35.4793
 11
-69.3833
 21
35.2972
  0
LINE
  8
0
 10
-69.3833
 20
35.2972
 11
-69.1795
 21
35.1003
  0
LINE
  8
0
 10
-69.1795
 20
35.1003
 11
-68.9899
 21
34.8897
  0
LINE
  8
0
 10
-68.9899
 20
34.8897
 11
-68.8154
 21
34.6664
  0
LINE
  8
0
 10
-68.8154
 20
34.6664
 11
-68.6569
 21
34.4315
  0
LINE
  8
0
 10
-68.6569
 20
34.4315
 11
-68.5152
 21
34.1861
  0
LINE
  8
0
 10
-68.5152
 20
34.1861
 11
-68.391
 21
33.9314
  0
LINE
  8
0
 10
-68.391
 20
33.9314
 11
-68.2849
 21
33.6686
  0
LINE
  8
0
 10
-68.2849
 20
33.6686
 11
-68.1973
 21
33.3991
  0
LINE
  8
0
 10
-68.1973
 20
33.3991
 11
-68.1287
 21
33.1241
  0
LINE
  8
0
 10
-68.1287
 20
33.1241
 11
-68.0795
 21
32.845
  0
LINE
  8
0
 10
-68.0795
 20
32.845
 11
-68.0499
 21
32.5632
  0
LINE
  8
0
 10
-68.0499
 20
32.5632
 11
-68.04
 21
32.28
  0
LINE
  8
0
 10
-68.04
 20
32.28
 11
-68.0499
 21
31.9968
  0
LINE
  8
0
 10
-68.0499
 20
31.9968
 11
-68.0795
 21
31.715
  0
LINE
  8
0
 10
-68.0795
 20
31.715
 11
-68.1287
 21
31.4359
  0
LINE
  8
0
 10
-68.1287
 20
31.4359
 11
-68.1973
 21
31.1609
  0
LINE
  8
0
 10
-68.1973
 20
31.1609
 11
-68.2849
 21
30.8914
  0
LINE
  8
0
 10
-68.2849
 20
30.8914
 11
-68.391
 21
30.6286
  0
LINE
  8
0
 10
-68.391
 20
30.6286
 11
-68.5152
 21
30.3739
  0
LINE
  8
0
 10
-68.5152
 20
30.3739
 11
-68.6569
 21
30.1285
  0
LINE
  8
0
 10
-68.6569
 20
30.1285
 11
-68.8154
 21
29.8936
  0
LINE
  8
0
 10
-68.8154
 20
29.8936
 11
-68.9899
 21
29.6703
  0
LINE
  8
0
 10
-68.9899
 20
29.6703
 11
-69.1795
 21
29.4597
  0
LINE
  8
0
 10
-69.1795
 20
29.4597
 11
-69.3833
 21
29.2628
  0
LINE
  8
0
 10
-69.3833
 20
29.2628
 11
-69.6004
 21
29.0807
  0
LINE
  8
0
 10
-69.6004
 20
29.0807
 11
-69.8297
 21
28.9141
  0
LINE
  8
0
 10
-69.8297
 20
28.9141
 11
-70.07
 21
28.7639
  0
LINE
  8
0
 10
-70.07
 20
28.7639
 11
-70.3202
 21
28.6309
  0
LINE
  8
0
 10
-70.3202
 20
28.6309
 11
-70.5791
 21
28.5156
  0
LINE
  8
0
 10
-70.5791
 20
28.5156
 11
-70.8454
 21
28.4187
  0
LINE
  8
0
 10
-70.8454
 20
28.4187
 11
-71.1178
 21
28.3406
  0
LINE
  8
0
 10
-71.1178
 20
28.3406
 11
-71.395
 21
28.2817
  0
LINE
  8
0
 10
-71.395
 20
28.2817
 11
-71.6756
 21
28.2422
  0
LINE
  8
0
 10
-71.6756
 20
28.2422
 11
-71.9583
 21
28.2225
  0
LINE
  8
0
 10
-71.9583
 20
28.2225
 11
-72.2417
 21
28.2225
  0
LINE
  8
0
 10
71.9583
 20
28.2225
 11
71.6756
 21
28.2422
  0
LINE
  8
0
 10
71.6756
 20
28.2422
 11
71.395
 21
28.2817
  0
LINE
  8
0
 10
71.395
 20
28.2817
 11
71.1178
 21
28.3406
  0
LINE
  8
0
 10
71.1178
 20
28.3406
 11
70.8454
 21
28.4187
  0
LINE
  8
0
 10
70.8454
 20
28.4187
 11
70.5791
 21
28.5156
  0
LINE
  8
0
 10
70.5791
 20
28.5156
 11
70.3202
 21
28.6309
  0
LINE
  8
0
 10
70.3202
 20
28.6309
 11
70.07
 21
28.7639
  0
LINE
  8
0
 10
70.07
 20
28.7639
 11
69.8297
 21
28.9141
  0
LINE
  8
0
 10
69.8297
 20
28.9141
 11
69.6004
 21
29.0807
  0
LINE
  8
0
 10
69.6004
 20
29.0807
 11
69.3833
 21
29.2628
  0
LINE
  8
0
 10
69.3833
 20
29.2628
 11
69.1795
 21
29.4597
  0
LINE
  8
0
 10
69.1795
 20
29.4597
 11
68.9899
 21
29.6703
  0
LINE
  8
0
 10
68.9899
 20
29.6703
 11
68.8154
 21
29.8936
  0
LINE
  8
0
 10
68.8154
 20
29.8936
 11
68.6569
 21
30.1285
  0
LINE
  8
0
 10
68.6569
 20
30.1285
 11
68.5152
 21
30.3739
  0
LINE
  8
0
 10
68.5152
 20
30.3739
 11
68.391
 21
30.6286
  0
LINE
  8
0
 10
68.391
 20
30.6286
 11
68.2849
 21
30.8914
  0
LINE
  8
0
 10
68.2849
 20
30.8914
 11
68.1973
 21
31.1609
  0
LINE
  8
0
 10
68.1973
 20
31.1609
 11
68.1287
 21
31.4359
  0
LINE
  8
0
 10
68.1287
 20
31.4359
 11
68.0795
 21
31.715
  0
LINE
  8
0
 10
68.0795
 20
31.715
 11
68.0499
 21
31.9968
  0
LINE
  8
0
 10
68.0499
 20
31.9968
 11
68.04
 21
32.28
  0
LINE
  8
0
 10
68.04
 20
32.28
 11
68.0499
 21
32.5632
  0
LINE
  8
0
 10
68.0499
 20
32.5632
 11
68.0795
 21
32.845
  0
LINE
  8
0
 10
68.0795
 20
32.845
 11
68.1287
 21
33.1241
  0
LINE
  8
0
 10
68.1287
 20
33.1241
 11
68.1973
 21
33.3991
  0
LINE
  8
0
 10
68.1973
 20
33.3991
 11
68.2849
 21
33.6686
  0
LINE
  8
0
 10
68.2849
 20
33.6686
 11
68.391
 21
33.9314
  0
LINE
  8
0
 10
68.391
 20
33.9314
 11
68.5152
 21
34.1861
  0
LINE
  8
0
 10
68.5152
 20
34.1861
 11
68.6569
 21
34.4315
  0
LINE
  8
0
 10
68.6569
 20
34.4315
 11
68.8154
 21
34.6664
  0
LINE
  8
0
 10
68.8154
 20
34.6664
 11
68.9899
 21
34.8897
  0
LINE
  8
0
 10
68.9899
 20
34.8897
 11
69.1795
 21
35.1003
  0
LINE
  8
0
 10
69.1795
 20
35.1003
 11
69.3833
 21
35.2972
  0
LINE
  8
0
 10
69.3833
 20
35.2972
 11
69.6004
 21
35.4793
  0
LINE
  8
0
 10
69.6004
 20
35.4793
 11
69.8297
 21
35.6459
  0
LINE
  8
0
 10
69.8297
 20
35.6459
 11
70.07
 21
35.7961
  0
LINE
  8
0
 10
70.07
 20
35.7961
 11
70.3202
 21
35.9291
  0
LINE
  8
0
 10
70.3202
 20
35.9291
 11
70.5791
 21
36.0444
  0
LINE
  8
0
 10
70.5791
 20
36.0444
 11
70.8454
 21
36.1413
  0
LINE
  8
0
 10
70.8454
 20
36.1413
 11
71.1178
 21
36.2194
  0
LINE
  8
0
 10
71.1178
 20
36.2194
 11
71.395
 21
36.2783
  0
LINE
  8
0
 10
71.395
 20
36.2783
 11
71.6756
 21
36.3177
  0
LINE
  8
0
 10
71.6756
 20
36.3177
 11
71.9583
 21
36.3375
  0
LINE
  8
0
 10
71.9583
 20
36.3375
 11
72.2417
 21
36.3375
  0
LINE
  8
0
 10
72.2417
 20
36.3375
 11
72.5244
 21
36.3177
  0
LINE
  8
0
 10
72.5244
 20
36.3177
 11
72.805
 21
36.2783
  0
LINE
  8
0
 10
72.805
 20
36.2783
 11
73.0822
 21
36.2194
  0
LINE
  8
0
 10
73.0822
 20
36.2194
 11
73.3546
 21
36.1413
  0
LINE
  8
0
 10
73.3546
 20
36.1413
 11
73.6209
 21
36.0444
  0
LINE
  8
0
 10
73.6209
 20
36.0444
 11
73.8798
 21
35.9291
  0
LINE
  8
0
 10
73.8798
 20
35.9291
 11
74.13
 21
35.7961
  0
LINE
  8
0
 10
74.13
 20
35.7961
 11
74.3703
 21
35.6459
  0
LINE
  8
0
 10
74.3703
 20
35.6459
 11
74.5996
 21
35.4793
  0
LINE
  8
0
 10
74.5996
 20
35.4793
 11
74.8167
 21
35.2972
  0
LINE
  8
0
 10
74.8167
 20
35.2972
 11
75.0205
 21
35.1003
  0
LINE
  8
0
 10
75.0205
 20
35.1003
 11
75.2101
 21
34.8897
  0
LINE
  8
0
 10
75.2101
 20
34.8897
 11
75.3846
 21
34.6664
  0
LINE
  8
0
 10
75.3846
 20
34.6664
 11
75.5431
 21
34.4315
  0
LINE
  8
0
 10
75.5431
 20
34.4315
 11
75.6848
 21
34.1861
  0
LINE
  8
0
 10
75.6848
 20
34.1861
 11
75.809
 21
33.9314
  0
LINE
  8
0
 10
75.809
 20
33.9314
 11
75.9151
 21
33.6686
  0
LINE
  8
0
 10
75.9151
 20
33.6686
 11
76.0027
 21
33.3991
  0
LINE
  8
0
 10
76.0027
 20
33.3991
 11
76.0713
 21
33.1241
  0
LINE
  8
0
 10
76.0713
 20
33.1241
 11
76.1205
 21
32.845
  0
LINE
  8
0
 10
76.1205
 20
32.845
 11
76.1501
 21
32.5632
  0
LINE
  8
0
 10
76.1501
 20
32.5632
 11
76.16
 21
32.28
  0
LINE
  8
0
 10
76.16
 20
32.28
 11
76.1501
 21
31.9968
  0
LINE
  8
0
 10
76.1501
 20
31.9968
 11
76.1205
 21
31.715
  0
LINE
  8
0
 10
76.1205
 20
31.715
 11
76.0713
 21
31.4359
  0
LINE
  8
0
 10
76.0713
 20
31.4359
 11
76.0027
 21
31.1609
  0
LINE
  8
0
 10
76.0027
 20
31.1609
 11
75.9151
 21
30.8914
  0
LINE
  8
0
 10
75.9151
 20
30.8914
 11
75.809
 21
30.6286
  0
LINE
  8
0
 10
75.809
 20
30.6286
 11
75.6848
 21
30.3739
  0
LINE
  8
0
 10
75.6848
 20
30.3739
 11
75.5431
 21
30.1285
  0
LINE
  8
0
 10
75.5431
 20
30.1285
 11
75.3846
 21
29.8936
  0
LINE
  8
0
 10
75.3846
 20
29.8936
 11
75.2101
 21
29.6703
  0
LINE
  8
0
 10
75.2101
 20
29.6703
 11
75.0205
 21
29.4597
  0
LINE
  8
0
 10
75.0205
 20
29.4597
 11
74.8167
 21
29.2628
  0
LINE
  8
0
 10
74.8167
 20
29.2628
 11
74.5996
 21
29.0807
  0
LINE
  8
0
 10
74.5996
 20
29.0807
 11
74.3703
 21
28.9141
  0
LINE
  8
0
 10
74.3703
 20
28.9141
 11
74.13
 21
28.7639
  0
LINE
  8
0
 10
74.13
 20
28.7639
 11
73.8798
 21
28.6309
  0
LINE
  8
0
 10
73.8798
 20
28.6309
 11
73.6209
 21
28.5156
  0
LINE
  8
0
 10
73.6209
 20
28.5156
 11
73.3546
 21
28.4187
  0
LINE
  8
0
 10
73.3546
 20
28.4187
 11
73.0822
 21
28.3406
  0
LINE
  8
0
 10
73.0822
 20
28.3406
 11
72.805
 21
28.2817
  0
LINE
  8
0
 10
72.805
 20
28.2817
 11
72.5244
 21
28.2422
  0
LINE
  8
0
 10
72.5244
 20
28.2422
 11
72.2417
 21
28.2225
  0
LINE
  8
0
 10
72.2417
 20
28.2225
 11
71.9583
 21
28.2225
  0
LINE
  8
0
 10
80.15
 20
10.44
 11
80.15
 21
25.46
  0
LINE
  8
0
 10
80.15
 20
25.46
 11
83.17
 21
25.46
  0
LINE
  8
0
 10
83.17
 20
25.46
 11
83.17
 21
10.44
  0
LINE
  8
0
 10
83.17
 20
10.44
 11
80.15
 21
10.44
  0
LINE
  8
0
 10
-83.17
 20
10.44
 11
-83.17
 21
25.46
  0
LINE
  8
0
 10
-83.17
 20
25.46
 11
-80.15
 21
25.46
  0
LINE
  8
0
 10
-80.15
 20
25.46
 11
-80.15
 21
10.44
  0
LINE
  8
0
 10
-80.15
 20
10.44
 11
-83.17
 21
10.44
  0
LINE
  8
0
 10
80.15
 20
-32.55
 11
80.15
 21
-17.53
  0
LINE
  8
0
 10
80.15
 20
-17.53
 11
83.17
 21
-17.53
  0
LINE
  8
0
 10
83.17
 20
-17.53
 11
83.17
 21
-32.55
  0
LINE
  8
0
 10
83.17
 20
-32.55
 11
80.15
 21
-32.55
  0
LINE
  8
0
 10
-83.17
 20
-32.55
 11
-83.17
 21
-17.53
  0
LINE
  8
0
 10
-83.17
 20
-17.53
 11
-80.15
 21
-17.53
  0
LINE
  8
0
 10
-80.15
 20
-17.53
 11
-80.15
 21
-32.55
  0
LINE
  8
0
 10
-80.15
 20
-32.55
 11
-83.17
 21
-32.55
  0
LINE
  8
0
 10
-83.17
 20
-75.54
 11
-83.17
 21
-60.52
  0
LINE
  8
0
 10
-83.17
 20
-60.52
 11
-80.15
 21
-60.52
  0
LINE
  8
0
 10
-80.15
 20
-60.52
 11
-80.15
 21
-75.54
  0
LINE
  8
0
 10
-80.15
 20
-75.54
 11
-83.17
 21
-75.54
  0
LINE
  8
0
 10
80.15
 20
-75.54
 11
80.15
 21
-60.52
  0
LINE
  8
0
 10
80.15
 20
-60.52
 11
83.17
 21
-60.52
  0
LINE
  8
0
 10
83.17
 20
-60.52
 11
83.17
 21
-75.54
  0
LINE
  8
0
 10
83.17
 20
-75.54
 11
80.15
 21
-75.54
  0
LINE
  8
0
 10
-72.2417
 20
-86.4175
 11
-72.5244
 21
-86.3978
  0
LINE
  8
0
 10
-72.5244
 20
-86.3978
 11
-72.805
 21
-86.3583
  0
LINE
  8
0
 10
-72.805
 20
-86.3583
 11
-73.0822
 21
-86.2994
  0
LINE
  8
0
 10
-73.0822
 20
-86.2994
 11
-73.3546
 21
-86.2213
  0
LINE
  8
0
 10
-73.3546
 20
-86.2213
 11
-73.6209
 21
-86.1244
  0
LINE
  8
0
 10
-73.6209
 20
-86.1244
 11
-73.8798
 21
-86.0091
  0
LINE
  8
0
 10
-73.8798
 20
-86.0091
 11
-74.13
 21
-85.8761
  0
LINE
  8
0
 10
-74.13
 20
-85.8761
 11
-74.3703
 21
-85.7259
  0
LINE
  8
0
 10
-74.3703
 20
-85.7259
 11
-74.5996
 21
-85.5593
  0
LINE
  8
0
 10
-74.5996
 20
-85.5593
 11
-74.8167
 21
-85.3772
  0
LINE
  8
0
 10
-74.8167
 20
-85.3772
 11
-75.0205
 21
-85.1803
  0
LINE
  8
0
 10
-75.0205
 20
-85.1803
 11
-75.2101
 21
-84.9697
  0
LINE
  8
0
 10
-75.2101
 20
-84.9697
 11
-75.3846
 21
-84.7464
  0
LINE
  8
0
 10
-75.3846
 20
-84.7464
 11
-75.5431
 21
-84.5115
  0
LINE
  8
0
 10
-75.5431
 20
-84.5115
 11
-75.6848
 21
-84.2661
  0
LINE
  8
0
 10
-75.6848
 20
-84.2661
 11
-75.809
 21
-84.0114
  0
LINE
  8
0
 10
-75.809
 20
-84.0114
 11
-75.9151
 21
-83.7486
  0
LINE
  8
0
 10
-75.9151
 20
-83.7486
 11
-76.0027
 21
-83.4791
  0
LINE
  8
0
 10
-76.0027
 20
-83.4791
 11
-76.0713
 21
-83.2041
  0
LINE
  8
0
 10
-76.0713
 20
-83.2041
 11
-76.1205
 21
-82.925
  0
LINE
  8
0
 10
-76.1205
 20
-82.925
 11
-76.1501
 21
-82.6432
  0
LINE
  8
0
 10
-76.1501
 20
-82.6432
 11
-76.16
 21
-82.36
  0
LINE
  8
0
 10
-76.16
 20
-82.36
 11
-76.1501
 21
-82.0768
  0
LINE
  8
0
 10
-76.1501
 20
-82.0768
 11
-76.1205
 21
-81.795
  0
LINE
  8
0
 10
-76.1205
 20
-81.795
 11
-76.0713
 21
-81.5159
  0
LINE
  8
0
 10
-76.0713
 20
-81.5159
 11
-76.0027
 21
-81.2409
  0
LINE
  8
0
 10
-76.0027
 20
-81.2409
 11
-75.9151
 21
-80.9714
  0
LINE
  8
0
 10
-75.9151
 20
-80.9714
 11
-75.809
 21
-80.7086
  0
LINE
  8
0
 10
-75.809
 20
-80.7086
 11
-75.6848
 21
-80.4539
  0
LINE
  8
0
 10
-75.6848
 20
-80.4539
 11
-75.5431
 21
-80.2085
  0
LINE
  8
0
 10
-75.5431
 20
-80.2085
 11
-75.3846
 21
-79.9736
  0
LINE
  8
0
 10
-75.3846
 20
-79.9736
 11
-75.2101
 21
-79.7503
  0
LINE
  8
0
 10
-75.2101
 20
-79.7503
 11
-75.0205
 21
-79.5397
  0
LINE
  8
0
 10
-75.0205
 20
-79.5397
 11
-74.8167
 21
-79.3428
  0
LINE
  8
0
 10
-74.8167
 20
-79.3428
 11
-74.5996
 21
-79.1607
  0
LINE
  8
0
 10
-74.5996
 20
-79.1607
 11
-74.3703
 21
-78.9941
  0
LINE
  8
0
 10
-74.3703
 20
-78.9941
 11
-74.13
 21
-78.8439
  0
LINE
  8
0
 10
-74.13
 20
-78.8439
 11
-73.8798
 21
-78.7109
  0
LINE
  8
0
 10
-73.8798
 20
-78.7109
 11
-73.6209
 21
-78.5956
  0
LINE
  8
0
 10
-73.6209
 20
-78.5956
 11
-73.3546
 21
-78.4987
  0
LINE
  8
0
 10
-73.3546
 20
-78.4987
 11
-73.0822
 21
-78.4206
  0
LINE
  8
0
 10
-73.0822
 20
-78.4206
 11
-72.805
 21
-78.3617
  0
LINE
  8
0
 10
-72.805
 20
-78.3617
 11
-72.5244
 21
-78.3222
  0
LINE
  8
0
 10
-72.5244
 20
-78.3222
 11
-72.2417
 21
-78.3025
  0
LINE
  8
0
 10
-72.2417
 20
-78.3025
 11
-71.9583
 21
-78.3025
  0
LINE
  8
0
 10
-71.9583
 20
-78.3025
 11
-71.6756
 21
-78.3222
  0
LINE
  8
0
 10
-71.6756
 20
-78.3222
 11
-71.395
 21
-78.3617
  0
LINE
  8
0
 10
-71.395
 20
-78.3617
 11
-71.1178
 21
-78.4206
  0
LINE
  8
0
 10
-71.1178
 20
-78.4206
 11
-70.8454
 21
-78.4987
  0
LINE
  8
0
 10
-70.8454
 20
-78.4987
 11
-70.5791
 21
-78.5956
  0
LINE
  8
0
 10
-70.5791
 20
-78.5956
 11
-70.3202
 21
-78.7109
  0
LINE
  8
0
 10
-70.3202
 20
-78.7109
 11
-70.07
 21
-78.8439
  0
LINE
  8
0
 10
-70.07
 20
-78.8439
 11
-69.8297
 21
-78.9941
  0
LINE
  8
0
 10
-69.8297
 20
-78.9941
 11
-69.6004
 21
-79.1607
  0
LINE
  8
0
 10
-69.6004
 20
-79.1607
 11
-69.3833
 21
-79.3428
  0
LINE
  8
0
 10
-69.3833
 20
-79.3428
 11
-69.1795
 21
-79.5397
  0
LINE
  8
0
 10
-69.1795
 20
-79.5397
 11
-68.9899
 21
-79.7503
  0
LINE
  8
0
 10
-68.9899
 20
-79.7503
 11
-68.8154
 21
-79.9736
  0
LINE
  8
0
 10
-68.8154
 20
-79.9736
 11
-68.6569
 21
-80.2085
  0
LINE
  8
0
 10
-68.6569
 20
-80.2085
 11
-68.5152
 21
-80.4539
  0
LINE
  8
0
 10
-68.5152
 20
-80.4539
 11
-68.391
 21
-80.7086
  0
LINE
  8
0
 10
-68.391
 20
-80.7086
 11
-68.2849
 21
-80.9714
  0
LINE
  8
0
 10
-68.2849
 20
-80.9714
 11
-68.1973
 21
-81.2409
  0
LINE
  8
0
 10
-68.1973
 20
-81.2409
 11
-68.1287
 21
-81.5159
  0
LINE
  8
0
 10
-68.1287
 20
-81.5159
 11
-68.0795
 21
-81.795
  0
LINE
  8
0
 10
-68.0795
 20
-81.795
 11
-68.0499
 21
-82.0768
  0
LINE
  8
0
 10
-68.0499
 20
-82.0768
 11
-68.04
 21
-82.36
  0
LINE
  8
0
 10
-68.04
 20
-82.36
 11
-68.0499
 21
-82.6432
  0
LINE
  8
0
 10
-68.0499
 20
-82.6432
 11
-68.0795
 21
-82.925
  0
LINE
  8
0
 10
-68.0795
 20
-82.925
 11
-68.1287
 21
-83.2041
  0
LINE
  8
0
 10
-68.1287
 20
-83.2041
 11
-68.1973
 21
-83.4791
  0
LINE
  8
0
 10
-68.1973
 20
-83.4791
 11
-68.2849
 21
-83.7486
  0
LINE
  8
0
 10
-68.2849
 20
-83.7486
 11
-68.391
 21
-84.0114
  0
LINE
  8
0
 10
-68.391
 20
-84.0114
 11
-68.5152
 21
-84.2661
  0
LINE
  8
0
 10
-68.5152
 20
-84.2661
 11
-68.6569
 21
-84.5115
  0
LINE
  8
0
 10
-68.6569
 20
-84.5115
 11
-68.8154
 21
-84.7464
  0
LINE
  8
0
 10
-68.8154
 20
-84.7464
 11
-68.9899
 21
-84.9697
  0
LINE
  8
0
 10
-68.9899
 20
-84.9697
 11
-69.1795
 21
-85.1803
  0
LINE
  8
0
 10
-69.1795
 20
-85.1803
 11
-69.3833
 21
-85.3772
  0
LINE
  8
0
 10
-69.3833
 20
-85.3772
 11
-69.6004
 21
-85.5593
  0
LINE
  8
0
 10
-69.6004
 20
-85.5593
 11
-69.8297
 21
-85.7259
  0
LINE
  8
0
 10
-69.8297
 20
-85.7259
 11
-70.07
 21
-85.8761
  0
LINE
  8
0
 10
-70.07
 20
-85.8761
 11
-70.3202
 21
-86.0091
  0
LINE
  8
0
 10
-70.3202
 20
-86.0091
 11
-70.5791
 21
-86.1244
  0
LINE
  8
0
 10
-70.5791
 20
-86.1244
 11
-70.8454
 21
-86.2213
  0
LINE
  8
0
 10
-70.8454
 20
-86.2213
 11
-71.1178
 21
-86.2994
  0
LINE
  8
0
 10
-71.1178
 20
-86.2994
 11
-71.395
 21
-86.3583
  0
LINE
  8
0
 10
-71.395
 20
-86.3583
 11
-71.6756
 21
-86.3978
  0
LINE
  8
0
 10
-71.6756
 20
-86.3978
 11
-71.9583
 21
-86.4175
  0
LINE
  8
0
 10
-71.9583
 20
-86.4175
 11
-72.2417
 21
-86.4175
  0
LINE
  8
0
 10
71.9583
 20
-86.4175
 11
71.6756
 21
-86.3978
  0
LINE
  8
0
 10
71.6756
 20
-86.3978
 11
71.395
 21
-86.3583
  0
LINE
  8
0
 10
71.395
 20
-86.3583
 11
71.1178
 21
-86.2994
  0
LINE
  8
0
 10
71.1178
 20
-86.2994
 11
70.8454
 21
-86.2213
  0
LINE
  8
0
 10
70.8454
 20
-86.2213
 11
70.5791
 21
-86.1244
  0
LINE
  8
0
 10
70.5791
 20
-86.1244
 11
70.3202
 21
-86.0091
  0
LINE
  8
0
 10
70.3202
 20
-86.0091
 11
70.07
 21
-85.8761
  0
LINE
  8
0
 10
70.07
 20
-85.8761
 11
69.8297
 21
-85.7259
  0
LINE
  8
0
 10
69.8297
 20
-85.7259
 11
69.6004
 21
-85.5593
  0
LINE
  8
0
 10
69.6004
 20
-85.5593
 11
69.3833
 21
-85.3772
  0
LINE
  8
0
 10
69.3833
 20
-85.3772
 11
69.1795
 21
-85.1803
  0
LINE
  8
0
 10
69.1795
 20
-85.1803
 11
68.9899
 21
-84.9697
  0
LINE
  8
0
 10
68.9899
 20
-84.9697
 11
68.8154
 21
-84.7464
  0
LINE
  8
0
 10
68.8154
 20
-84.7464
 11
68.6569
 21
-84.5115
  0
LINE
  8
0
 10
68.6569
 20
-84.5115
 11
68.5152
 21
-84.2661
  0
LINE
  8
0
 10
68.5152
 20
-84.2661
 11
68.391
 21
-84.0114
  0
LINE
  8
0
 10
68.391
 20
-84.0114
 11
68.2849
 21
-83.7486
  0
LINE
  8
0
 10
68.2849
 20
-83.7486
 11
68.1973
 21
-83.4791
  0
LINE
  8
0
 10
68.1973
 20
-83.4791
 11
68.1287
 21
-83.2041
  0
LINE
  8
0
 10
68.1287
 20
-83.2041
 11
68.0795
 21
-82.925
  0
LINE
  8
0
 10
68.0795
 20
-82.925
 11
68.0499
 21
-82.6432
  0
LINE
  8
0
 10
68.0499
 20
-82.6432
 11
68.04
 21
-82.36
  0
LINE
  8
0
 10
68.04
 20
-82.36
 11
68.0499
 21
-82.0768
  0
LINE
  8
0
 10
68.0499
 20
-82.0768
 11
68.0795
 21
-81.795
  0
LINE
  8
0
 10
68.0795
 20
-81.795
 11
68.1287
 21
-81.5159
  0
LINE
  8
0
 10
68.1287
 20
-81.5159
 11
68.1973
 21
-81.2409
  0
LINE
  8
0
 10
68.1973
 20
-81.2409
 11
68.2849
 21
-80.9714
  0
LINE
  8
0
 10
68.2849
 20
-80.9714
 11
68.391
 21
-80.7086
  0
LINE
  8
0
 10
68.391
 20
-80.7086
 11
68.5152
 21
-80.4539
  0
LINE
  8
0
 10
68.5152
 20
-80.4539
 11
68.6569
 21
-80.2085
  0
LINE
  8
0
 10
68.6569
 20
-80.2085
 11
68.8154
 21
-79.9736
  0
LINE
  8
0
 10
68.8154
 20
-79.9736
 11
68.9899
 21
-79.7503
  0
LINE
  8
0
 10
68.9899
 20
-79.7503
 11
69.1795
 21
-79.5397
  0
LINE
  8
0
 10
69.1795
 20
-79.5397
 11
69.3833
 21
-79.3428
  0
LINE
  8
0
 10
69.3833
 20
-79.3428
 11
69.6004
 21
-79.1607
  0
LINE
  8
0
 10
69.6004
 20
-79.1607
 11
69.8297
 21
-78.9941
  0
LINE
  8
0
 10
69.8297
 20
-78.9941
 11
70.07
 21
-78.8439
  0
LINE
  8
0
 10
70.07
 20
-78.8439
 11
70.3202
 21
-78.7109
  0
LINE
  8
0
 10
70.3202
 20
-78.7109
 11
70.5791
 21
-78.5956
  0
LINE
  8
0
 10
70.5791
 20
-78.5956
 11
70.8454
 21
-78.4987
  0
LINE
  8
0
 10
70.8454
 20
-78.4987
 11
71.1178
 21
-78.4206
  0
LINE
  8
0
 10
71.1178
 20
-78.4206
 11
71.395
 21
-78.3617
  0
LINE
  8
0
 10
71.395
 20
-78.3617
 11
71.6756
 21
-78.3222
  0
LINE
  8
0
 10
71.6756
 20
-78.3222
 11
71.9583
 21
-78.3025
  0
LINE
  8
0
 10
71.9583
 20
-78.3025
 11
72.2417
 21
-78.3025
  0
LINE
  8
0
 10
72.2417
 20
-78.3025
 11
72.5244
 21
-78.3222
  0
LINE
  8
0
 10
72.5244
 20
-78.3222
 11
72.805
 21
-78.3617
  0
LINE
  8
0
 10
72.805
 20
-78.3617
 11
73.0822
 21
-78.4206
  0
LINE
  8
0
 10
73.0822
 20
-78.4206
 11
73.3546
 21
-78.4987
  0
LINE
  8
0
 10
73.3546
 20
-78.4987
 11
73.6209
 21
-78.5956
  0
LINE
  8
0
 10
73.6209
 20
-78.5956
 11
73.8798
 21
-78.7109
  0
LINE
  8
0
 10
73.8798
 20
-78.7109
 11
74.13
 21
-78.8439
  0
LINE
  8
0
 10
74.13
 20
-78.8439
 11
74.3703
 21
-78.9941
  0
LINE
  8
0
 10
74.3703
 20
-78.9941
 11
74.5996
 21
-79.1607
  0
LINE
  8
0
 10
74.5996
 20
-79.1607
 11
74.8167
 21
-79.3428
  0
LINE
  8
0
 10
74.8167
 20
-79.3428
 11
75.0205
 21
-79.5397
  0
LINE
  8
0
 10
75.0205
 20
-79.5397
 11
75.2101
 21
-79.7503
  0
LINE
  8
0
 10
75.2101
 20
-79.7503
 11
75.3846
 21
-79.9736
  0
LINE
  8
0
 10
75.3846
 20
-79.9736
 11
75.5431
 21
-80.2085
  0
LINE
  8
0
 10
75.5431
 20
-80.2085
 11
75.6848
 21
-80.4539
  0
LINE
  8
0
 10
75.6848
 20
-80.4539
 11
75.809
 21
-80.7086
  0
LINE
  8
0
 10
75.809
 20
-80.7086
 11
75.9151
 21
-80.9714
  0
LINE
  8
0
 10
75.9151
 20
-80.9714
 11
76.0027
 21
-81.2409
  0
LINE
  8
0
 10
76.0027
 20
-81.2409
 11
76.0713
 21
-81.5159
  0
LINE
  8
0
 10
76.0713
 20
-81.5159
 11
76.1205
 21
-81.795
  0
LINE
  8
0
 10
76.1205
 20
-81.795
 11
76.1501
 21
-82.0768
  0
LINE
  8
0
 10
76.1501
 20
-82.0768
 11
76.16
 21
-82.36
  0
LINE
  8
0
 10
76.16
 20
-82.36
 11
76.1501
 21
-82.6432
  0
LINE
  8
0
 10
76.1501
 20
-82.6432
 11
76.1205
 21
-82.925
  0
LINE
  8
0
 10
76.1205
 20
-82.925
 11
76.0713
 21
-83.2041
  0
LINE
  8
0
 10
76.0713
 20
-83.2041
 11
76.0027
 21
-83.4791
  0
LINE
  8
0
 10
76.0027
 20
-83.4791
 11
75.9151
 21
-83.7486
  0
LINE
  8
0
 10
75.9151
 20
-83.7486
 11
75.809
 21
-84.0114
  0
LINE
  8
0
 10
75.809
 20
-84.0114
 11
75.6848
 21
-84.2661
  0
LINE
  8
0
 10
75.6848
 20
-84.2661
 11
75.5431
 21
-84.5115
  0
LINE
  8
0
 10
75.5431
 20
-84.5115
 11
75.3846
 21
-84.7464
  0
LINE
  8
0
 10
75.3846
 20
-84.7464
 11
75.2101
 21
-84.9697
  0
LINE
  8
0
 10
75.2101
 20
-84.9697
 11
75.0205
 21
-85.1803
  0
LINE
  8
0
 10
75.0205
 20
-85.1803
 11
74.8167
 21
-85.3772
  0
LINE
  8
0
 10
74.8167
 20
-85.3772
 11
74.5996
 21
-85.5593
  0
LINE
  8
0
 10
74.5996
 20
-85.5593
 11
74.3703
 21
-85.7259
  0
LINE
  8
0
 10
74.3703
 20
-85.7259
 11
74.13
 21
-85.8761
  0
LINE
  8
0
 10
74.13
 20
-85.8761
 11
73.8798
 21
-86.0091
  0
LINE
  8
0
 10
73.8798
 20
-86.0091
 11
73.6209
 21
-86.1244
  0
LINE
  8
0
 10
73.6209
 20
-86.1244
 11
73.3546
 21
-86.2213
  0
LINE
  8
0
 10
73.3546
 20
-86.2213
 11
73.0822
 21
-86.2994
  0
LINE
  8
0
 10
73.0822
 20
-86.2994
 11
72.805
 21
-86.3583
  0
LINE
  8
0
 10
72.805
 20
-86.3583
 11
72.5244
 21
-86.3978
  0
LINE
  8
0
 10
72.5244
 20
-86.3978
 11
72.2417
 21
-86.4175
  0
LINE
  8
0
 10
72.2417
 20
-86.4175
 11
71.9583
 21
-86.4175
  0
LINE
  8
0
 10
46.565
 20
-93.43
 11
46.565
 21
-90.41
  0
LINE
  8
0
 10
46.565
 20
-90.41
 11
61.585
 21
-90.41
  0
LINE
  8
0
 10
61.585
 20
-90.41
 11
61.585
 21
-93.43
  0
LINE
  8
0
 10
61.585
 20
-93.43
 11
46.565
 21
-93.43
  0
LINE
  8
0
 10
-61.585
 20
-93.43
 11
-61.585
 21
-90.41
  0
LINE
  8
0
 10
-61.585
 20
-90.41
 11
-46.565
 21
-90.41
  0
LINE
  8
0
 10
-46.565
 20
-90.41
 11
-46.565
 21
-93.43
  0
LINE
  8
0
 10
-46.565
 20
-93.43
 11
-61.585
 21
-93.43
  0
LINE
  8
0
 10
-7.50999
 20
-93.43
 11
-7.50999
 21
-90.41
  0
LINE
  8
0
 10
-7.50999
 20
-90.41
 11
7.50999
 21
-90.41
  0
LINE
  8
0
 10
7.50999
 20
-90.41
 11
7.50999
 21
-93.43
  0
LINE
  8
0
 10
7.50999
 20
-93.43
 11
-7.50999
 21
-93.43
  0
ENDSEC
  0
SECTION
  2
OBJECTS
  0
DICTIONARY
  0
ENDSEC
  0
EOF
