  0
SECTION
  2
BLOCKS
  0
ENDSEC
  0
SECTION
  2
ENTITIES
  0
LINE
  8
0
 10
-94.52
 20
-97
 11
-94.52
 21
-97.0014
  0
LINE
  8
0
 10
-94.52
 20
-97.0014
 11
-94.5198
 21
-97.0028
  0
LINE
  8
0
 10
-94.5198
 20
-97.0028
 11
-94.5196
 21
-97.0042
  0
LINE
  8
0
 10
-94.5196
 20
-97.0042
 11
-94.5192
 21
-97.0055
  0
LINE
  8
0
 10
-94.5192
 20
-97.0055
 11
-94.5188
 21
-97.0068
  0
LINE
  8
0
 10
-94.5188
 20
-97.0068
 11
-94.5183
 21
-97.0081
  0
LINE
  8
0
 10
-94.5183
 20
-97.0081
 11
-94.5177
 21
-97.0094
  0
LINE
  8
0
 10
-94.5177
 20
-97.0094
 11
-94.517
 21
-97.0106
  0
LINE
  8
0
 10
-94.517
 20
-97.0106
 11
-94.5162
 21
-97.0118
  0
LINE
  8
0
 10
-94.5162
 20
-97.0118
 11
-94.5153
 21
-97.0129
  0
LINE
  8
0
 10
-94.5153
 20
-97.0129
 11
-94.5144
 21
-97.0139
  0
LINE
  8
0
 10
-94.5144
 20
-97.0139
 11
-94.5134
 21
-97.0149
  0
LINE
  8
0
 10
-94.5134
 20
-97.0149
 11
-94.5123
 21
-97.0158
  0
LINE
  8
0
 10
-94.5123
 20
-97.0158
 11
-94.5112
 21
-97.0166
  0
LINE
  8
0
 10
-94.5112
 20
-97.0166
 11
-94.51
 21
-97.0173
  0
LINE
  8
0
 10
-94.51
 20
-97.0173
 11
-94.5088
 21
-97.018
  0
LINE
  8
0
 10
-94.5088
 20
-97.018
 11
-94.5075
 21
-97.0185
  0
LINE
  8
0
 10
-94.5075
 20
-97.0185
 11
-94.5062
 21
-97.019
  0
LINE
  8
0
 10
-94.5062
 20
-97.019
 11
-94.5048
 21
-97.0194
  0
LINE
  8
0
 10
-94.5048
 20
-97.0194
 11
-94.5035
 21
-97.0197
  0
LINE
  8
0
 10
-94.5035
 20
-97.0197
 11
-94.5021
 21
-97.0199
  0
LINE
  8
0
 10
-94.5021
 20
-97.0199
 11
-94.5007
 21
-97.02
  0
LINE
  8
0
 10
-94.5007
 20
-97.02
 11
-61.575
 21
-97.02
  0
LINE
  8
0
 10
-61.575
 20
-97.02
 11
-61.575
 21
-100
  0
LINE
  8
0
 10
-61.575
 20
-100
 11
-46.575
 21
-100
  0
LINE
  8
0
 10
-46.575
 20
-100
 11
-46.575
 21
-97.02
  0
LINE
  8
0
 10
-46.575
 20
-97.02
 11
-7.5
 21
-97.02
  0
LINE
  8
0
 10
-7.5
 20
-97.02
 11
-7.5
 21
-100
  0
LINE
  8
0
 10
-7.5
 20
-100
 11
7.5
 21
-100
  0
LINE
  8
0
 10
7.5
 20
-100
 11
7.5
 21
-97.02
  0
LINE
  8
0
 10
7.5
 20
-97.02
 11
46.575
 21
-97.02
  0
LINE
  8
0
 10
46.575
 20
-97.02
 11
46.575
 21
-100
  0
LINE
  8
0
 10
46.575
 20
-100
 11
61.575
 21
-100
  0
LINE
  8
0
 10
61.575
 20
-100
 11
61.575
 21
-97.02
  0
LINE
  8
0
 10
61.575
 20
-97.02
 11
94.5007
 21
-97.02
  0
LINE
  8
0
 10
94.5007
 20
-97.02
 11
94.5021
 21
-97.0199
  0
LINE
  8
0
 10
94.5021
 20
-97.0199
 11
94.5035
 21
-97.0197
  0
LINE
  8
0
 10
94.5035
 20
-97.0197
 11
94.5048
 21
-97.0194
  0
LINE
  8
0
 10
94.5048
 20
-97.0194
 11
94.5062
 21
-97.019
  0
LINE
  8
0
 10
94.5062
 20
-97.019
 11
94.5075
 21
-97.0185
  0
LINE
  8
0
 10
94.5075
 20
-97.0185
 11
94.5088
 21
-97.018
  0
LINE
  8
0
 10
94.5088
 20
-97.018
 11
94.51
 21
-97.0173
  0
LINE
  8
0
 10
94.51
 20
-97.0173
 11
94.5112
 21
-97.0166
  0
LINE
  8
0
 10
94.5112
 20
-97.0166
 11
94.5123
 21
-97.0158
  0
LINE
  8
0
 10
94.5123
 20
-97.0158
 11
94.5134
 21
-97.0149
  0
LINE
  8
0
 10
94.5134
 20
-97.0149
 11
94.5144
 21
-97.0139
  0
LINE
  8
0
 10
94.5144
 20
-97.0139
 11
94.5153
 21
-97.0129
  0
LINE
  8
0
 10
94.5153
 20
-97.0129
 11
94.5162
 21
-97.0118
  0
LINE
  8
0
 10
94.5162
 20
-97.0118
 11
94.517
 21
-97.0106
  0
LINE
  8
0
 10
94.517
 20
-97.0106
 11
94.5177
 21
-97.0094
  0
LINE
  8
0
 10
94.5177
 20
-97.0094
 11
94.5183
 21
-97.0081
  0
LINE
  8
0
 10
94.5183
 20
-97.0081
 11
94.5188
 21
-97.0068
  0
LINE
  8
0
 10
94.5188
 20
-97.0068
 11
94.5192
 21
-97.0055
  0
LINE
  8
0
 10
94.5192
 20
-97.0055
 11
94.5196
 21
-97.0042
  0
LINE
  8
0
 10
94.5196
 20
-97.0042
 11
94.5198
 21
-97.0028
  0
LINE
  8
0
 10
94.5198
 20
-97.0028
 11
94.52
 21
-97.0014
  0
LINE
  8
0
 10
94.52
 20
-97.0014
 11
94.52
 21
-97
  0
LINE
  8
0
 10
94.52
 20
-97
 11
94.52
 21
97
  0
LINE
  8
0
 10
94.52
 20
97
 11
94.52
 21
97.0014
  0
LINE
  8
0
 10
94.52
 20
97.0014
 11
94.5198
 21
97.0028
  0
LINE
  8
0
 10
94.5198
 20
97.0028
 11
94.5196
 21
97.0042
  0
LINE
  8
0
 10
94.5196
 20
97.0042
 11
94.5192
 21
97.0055
  0
LINE
  8
0
 10
94.5192
 20
97.0055
 11
94.5188
 21
97.0068
  0
LINE
  8
0
 10
94.5188
 20
97.0068
 11
94.5183
 21
97.0081
  0
LINE
  8
0
 10
94.5183
 20
97.0081
 11
94.5177
 21
97.0094
  0
LINE
  8
0
 10
94.5177
 20
97.0094
 11
94.517
 21
97.0106
  0
LINE
  8
0
 10
94.517
 20
97.0106
 11
94.5162
 21
97.0118
  0
LINE
  8
0
 10
94.5162
 20
97.0118
 11
94.5153
 21
97.0129
  0
LINE
  8
0
 10
94.5153
 20
97.0129
 11
94.5144
 21
97.0139
  0
LINE
  8
0
 10
94.5144
 20
97.0139
 11
94.5134
 21
97.0149
  0
LINE
  8
0
 10
94.5134
 20
97.0149
 11
94.5123
 21
97.0158
  0
LINE
  8
0
 10
94.5123
 20
97.0158
 11
94.5112
 21
97.0166
  0
LINE
  8
0
 10
94.5112
 20
97.0166
 11
94.51
 21
97.0173
  0
LINE
  8
0
 10
94.51
 20
97.0173
 11
94.5088
 21
97.018
  0
LINE
  8
0
 10
94.5088
 20
97.018
 11
94.5075
 21
97.0185
  0
LINE
  8
0
 10
94.5075
 20
97.0185
 11
94.5062
 21
97.019
  0
LINE
  8
0
 10
94.5062
 20
97.019
 11
94.5048
 21
97.0194
  0
LINE
  8
0
 10
94.5048
 20
97.0194
 11
94.5035
 21
97.0197
  0
LINE
  8
0
 10
94.5035
 20
97.0197
 11
94.5021
 21
97.0199
  0
LINE
  8
0
 10
94.5021
 20
97.0199
 11
94.5007
 21
97.02
  0
LINE
  8
0
 10
94.5007
 20
97.02
 11
61.575
 21
97.02
  0
LINE
  8
0
 10
61.575
 20
97.02
 11
61.575
 21
100
  0
LINE
  8
0
 10
61.575
 20
100
 11
46.575
 21
100
  0
LINE
  8
0
 10
46.575
 20
100
 11
46.575
 21
97.02
  0
LINE
  8
0
 10
46.575
 20
97.02
 11
7.5
 21
97.02
  0
LINE
  8
0
 10
7.5
 20
97.02
 11
7.5
 21
100
  0
LINE
  8
0
 10
7.5
 20
100
 11
-7.5
 21
100
  0
LINE
  8
0
 10
-7.5
 20
100
 11
-7.5
 21
97.02
  0
LINE
  8
0
 10
-7.5
 20
97.02
 11
-46.575
 21
97.02
  0
LINE
  8
0
 10
-46.575
 20
97.02
 11
-46.575
 21
100
  0
LINE
  8
0
 10
-46.575
 20
100
 11
-61.575
 21
100
  0
LINE
  8
0
 10
-61.575
 20
100
 11
-61.575
 21
97.02
  0
LINE
  8
0
 10
-61.575
 20
97.02
 11
-94.5007
 21
97.02
  0
LINE
  8
0
 10
-94.5007
 20
97.02
 11
-94.5021
 21
97.0199
  0
LINE
  8
0
 10
-94.5021
 20
97.0199
 11
-94.5035
 21
97.0197
  0
LINE
  8
0
 10
-94.5035
 20
97.0197
 11
-94.5048
 21
97.0194
  0
LINE
  8
0
 10
-94.5048
 20
97.0194
 11
-94.5062
 21
97.019
  0
LINE
  8
0
 10
-94.5062
 20
97.019
 11
-94.5075
 21
97.0185
  0
LINE
  8
0
 10
-94.5075
 20
97.0185
 11
-94.5088
 21
97.018
  0
LINE
  8
0
 10
-94.5088
 20
97.018
 11
-94.51
 21
97.0173
  0
LINE
  8
0
 10
-94.51
 20
97.0173
 11
-94.5112
 21
97.0166
  0
LINE
  8
0
 10
-94.5112
 20
97.0166
 11
-94.5123
 21
97.0158
  0
LINE
  8
0
 10
-94.5123
 20
97.0158
 11
-94.5134
 21
97.0149
  0
LINE
  8
0
 10
-94.5134
 20
97.0149
 11
-94.5144
 21
97.0139
  0
LINE
  8
0
 10
-94.5144
 20
97.0139
 11
-94.5153
 21
97.0129
  0
LINE
  8
0
 10
-94.5153
 20
97.0129
 11
-94.5162
 21
97.0118
  0
LINE
  8
0
 10
-94.5162
 20
97.0118
 11
-94.517
 21
97.0106
  0
LINE
  8
0
 10
-94.517
 20
97.0106
 11
-94.5177
 21
97.0094
  0
LINE
  8
0
 10
-94.5177
 20
97.0094
 11
-94.5183
 21
97.0081
  0
LINE
  8
0
 10
-94.5183
 20
97.0081
 11
-94.5188
 21
97.0068
  0
LINE
  8
0
 10
-94.5188
 20
97.0068
 11
-94.5192
 21
97.0055
  0
LINE
  8
0
 10
-94.5192
 20
97.0055
 11
-94.5196
 21
97.0042
  0
LINE
  8
0
 10
-94.5196
 20
97.0042
 11
-94.5198
 21
97.0028
  0
LINE
  8
0
 10
-94.5198
 20
97.0028
 11
-94.52
 21
97.0014
  0
LINE
  8
0
 10
-94.52
 20
97.0014
 11
-94.52
 21
97
  0
LINE
  8
0
 10
-94.52
 20
97
 11
-94.52
 21
-97
  0
LINE
  8
0
 10
-83.2
 20
-82.5
 11
-83.2
 21
-67.5
  0
LINE
  8
0
 10
-83.2
 20
-67.5
 11
-80.2
 21
-67.5
  0
LINE
  8
0
 10
-80.2
 20
-67.5
 11
-80.2
 21
-82.5
  0
LINE
  8
0
 10
-80.2
 20
-82.5
 11
-83.2
 21
-82.5
  0
LINE
  8
0
 10
-83.2
 20
-45
 11
-83.2
 21
-30
  0
LINE
  8
0
 10
-83.2
 20
-30
 11
-80.2
 21
-30
  0
LINE
  8
0
 10
-80.2
 20
-30
 11
-80.2
 21
-45
  0
LINE
  8
0
 10
-80.2
 20
-45
 11
-83.2
 21
-45
  0
LINE
  8
0
 10
-83.2
 20
-7.5
 11
-83.2
 21
7.5
  0
LINE
  8
0
 10
-83.2
 20
7.5
 11
-80.2
 21
7.5
  0
LINE
  8
0
 10
-80.2
 20
7.5
 11
-80.2
 21
-7.5
  0
LINE
  8
0
 10
-80.2
 20
-7.5
 11
-83.2
 21
-7.5
  0
LINE
  8
0
 10
-83.2
 20
30
 11
-83.2
 21
45
  0
LINE
  8
0
 10
-83.2
 20
45
 11
-80.2
 21
45
  0
LINE
  8
0
 10
-80.2
 20
45
 11
-80.2
 21
30
  0
LINE
  8
0
 10
-80.2
 20
30
 11
-83.2
 21
30
  0
LINE
  8
0
 10
-83.2
 20
67.5
 11
-83.2
 21
82.5
  0
LINE
  8
0
 10
-83.2
 20
82.5
 11
-80.2
 21
82.5
  0
LINE
  8
0
 10
-80.2
 20
82.5
 11
-80.2
 21
67.5
  0
LINE
  8
0
 10
-80.2
 20
67.5
 11
-83.2
 21
67.5
  0
LINE
  8
0
 10
-61.575
 20
-20.3
 11
-61.575
 21
-14.3
  0
LINE
  8
0
 10
-61.575
 20
-14.3
 11
-46.575
 21
-14.3
  0
LINE
  8
0
 10
-46.575
 20
-14.3
 11
-46.575
 21
-20.3
  0
LINE
  8
0
 10
-46.575
 20
-20.3
 11
-61.575
 21
-20.3
  0
LINE
  8
0
 10
-61.575
 20
14.3
 11
-61.575
 21
20.3
  0
LINE
  8
0
 10
-61.575
 20
20.3
 11
-46.575
 21
20.3
  0
LINE
  8
0
 10
-46.575
 20
20.3
 11
-46.575
 21
14.3
  0
LINE
  8
0
 10
-46.575
 20
14.3
 11
-61.575
 21
14.3
  0
LINE
  8
0
 10
-7.5
 20
-20.3
 11
-7.5
 21
-14.3
  0
LINE
  8
0
 10
-7.5
 20
-14.3
 11
7.5
 21
-14.3
  0
LINE
  8
0
 10
7.5
 20
-14.3
 11
7.5
 21
-20.3
  0
LINE
  8
0
 10
7.5
 20
-20.3
 11
-7.5
 21
-20.3
  0
LINE
  8
0
 10
-7.5
 20
14.3
 11
-7.5
 21
20.3
  0
LINE
  8
0
 10
-7.5
 20
20.3
 11
7.5
 21
20.3
  0
LINE
  8
0
 10
7.5
 20
20.3
 11
7.5
 21
14.3
  0
LINE
  8
0
 10
7.5
 20
14.3
 11
-7.5
 21
14.3
  0
LINE
  8
0
 10
46.575
 20
-20.3
 11
46.575
 21
-14.3
  0
LINE
  8
0
 10
46.575
 20
-14.3
 11
61.575
 21
-14.3
  0
LINE
  8
0
 10
61.575
 20
-14.3
 11
61.575
 21
-20.3
  0
LINE
  8
0
 10
61.575
 20
-20.3
 11
46.575
 21
-20.3
  0
LINE
  8
0
 10
46.575
 20
14.3
 11
46.575
 21
20.3
  0
LINE
  8
0
 10
46.575
 20
20.3
 11
61.575
 21
20.3
  0
LINE
  8
0
 10
61.575
 20
20.3
 11
61.575
 21
14.3
  0
LINE
  8
0
 10
61.575
 20
14.3
 11
46.575
 21
14.3
  0
LINE
  8
0
 10
80.2
 20
-82.5
 11
80.2
 21
-67.5
  0
LINE
  8
0
 10
80.2
 20
-67.5
 11
83.2
 21
-67.5
  0
LINE
  8
0
 10
83.2
 20
-67.5
 11
83.2
 21
-82.5
  0
LINE
  8
0
 10
83.2
 20
-82.5
 11
80.2
 21
-82.5
  0
LINE
  8
0
 10
80.2
 20
-45
 11
80.2
 21
-30
  0
LINE
  8
0
 10
80.2
 20
-30
 11
83.2
 21
-30
  0
LINE
  8
0
 10
83.2
 20
-30
 11
83.2
 21
-45
  0
LINE
  8
0
 10
83.2
 20
-45
 11
80.2
 21
-45
  0
LINE
  8
0
 10
80.2
 20
-7.5
 11
80.2
 21
7.5
  0
LINE
  8
0
 10
80.2
 20
7.5
 11
83.2
 21
7.5
  0
LINE
  8
0
 10
83.2
 20
7.5
 11
83.2
 21
-7.5
  0
LINE
  8
0
 10
83.2
 20
-7.5
 11
80.2
 21
-7.5
  0
LINE
  8
0
 10
80.2
 20
30
 11
80.2
 21
45
  0
LINE
  8
0
 10
80.2
 20
45
 11
83.2
 21
45
  0
LINE
  8
0
 10
83.2
 20
45
 11
83.2
 21
30
  0
LINE
  8
0
 10
83.2
 20
30
 11
80.2
 21
30
  0
LINE
  8
0
 10
80.2
 20
67.5
 11
80.2
 21
82.5
  0
LINE
  8
0
 10
80.2
 20
82.5
 11
83.2
 21
82.5
  0
LINE
  8
0
 10
83.2
 20
82.5
 11
83.2
 21
67.5
  0
LINE
  8
0
 10
83.2
 20
67.5
 11
80.2
 21
67.5
  0
ENDSEC
  0
SECTION
  2
OBJECTS
  0
DICTIONARY
  0
ENDSEC
  0
EOF
