  0
SECTION
  2
BLOCKS
  0
ENDSEC
  0
SECTION
  2
ENTITIES
  0
LINE
  8
0
 10
-4.02
 20
0
 11
-4.01021
 21
-0.28042
  0
LINE
  8
0
 10
-4.01021
 20
-0.28042
 11
-3.98088
 21
-0.559475
  0
LINE
  8
0
 10
-3.98088
 20
-0.559475
 11
-3.93215
 21
-0.835805
  0
LINE
  8
0
 10
-3.93215
 20
-0.835805
 11
-3.86427
 21
-1.10806
  0
LINE
  8
0
 10
-3.86427
 20
-1.10806
 11
-3.77756
 21
-1.37492
  0
LINE
  8
0
 10
-3.77756
 20
-1.37492
 11
-3.67245
 21
-1.63508
  0
LINE
  8
0
 10
-3.67245
 20
-1.63508
 11
-3.54945
 21
-1.88727
  0
LINE
  8
0
 10
-3.54945
 20
-1.88727
 11
-3.40915
 21
-2.13027
  0
LINE
  8
0
 10
-3.40915
 20
-2.13027
 11
-3.25225
 21
-2.3629
  0
LINE
  8
0
 10
-3.25225
 20
-2.3629
 11
-3.0795
 21
-2.58401
  0
LINE
  8
0
 10
-3.0795
 20
-2.58401
 11
-2.89175
 21
-2.79253
  0
LINE
  8
0
 10
-2.89175
 20
-2.79253
 11
-2.6899
 21
-2.98744
  0
LINE
  8
0
 10
-2.6899
 20
-2.98744
 11
-2.47496
 21
-3.1678
  0
LINE
  8
0
 10
-2.47496
 20
-3.1678
 11
-2.24796
 21
-3.33273
  0
LINE
  8
0
 10
-2.24796
 20
-3.33273
 11
-2.01
 21
-3.48142
  0
LINE
  8
0
 10
-2.01
 20
-3.48142
 11
-1.76225
 21
-3.61315
  0
LINE
  8
0
 10
-1.76225
 20
-3.61315
 11
-1.50592
 21
-3.72728
  0
LINE
  8
0
 10
-1.50592
 20
-3.72728
 11
-1.24225
 21
-3.82325
  0
LINE
  8
0
 10
-1.24225
 20
-3.82325
 11
-0.972526
 21
-3.90059
  0
LINE
  8
0
 10
-0.972526
 20
-3.90059
 11
-0.698065
 21
-3.95893
  0
LINE
  8
0
 10
-0.698065
 20
-3.95893
 11
-0.420204
 21
-3.99798
  0
LINE
  8
0
 10
-0.420204
 20
-3.99798
 11
-0.140295
 21
-4.01755
  0
LINE
  8
0
 10
-0.140295
 20
-4.01755
 11
0.140295
 21
-4.01755
  0
LINE
  8
0
 10
0.140295
 20
-4.01755
 11
0.420204
 21
-3.99798
  0
LINE
  8
0
 10
0.420204
 20
-3.99798
 11
0.698065
 21
-3.95893
  0
LINE
  8
0
 10
0.698065
 20
-3.95893
 11
0.972526
 21
-3.90059
  0
LINE
  8
0
 10
0.972526
 20
-3.90059
 11
1.24225
 21
-3.82325
  0
LINE
  8
0
 10
1.24225
 20
-3.82325
 11
1.50592
 21
-3.72728
  0
LINE
  8
0
 10
1.50592
 20
-3.72728
 11
1.76225
 21
-3.61315
  0
LINE
  8
0
 10
1.76225
 20
-3.61315
 11
2.01
 21
-3.48142
  0
LINE
  8
0
 10
2.01
 20
-3.48142
 11
2.24796
 21
-3.33273
  0
LINE
  8
0
 10
2.24796
 20
-3.33273
 11
2.47496
 21
-3.1678
  0
LINE
  8
0
 10
2.47496
 20
-3.1678
 11
2.6899
 21
-2.98744
  0
LINE
  8
0
 10
2.6899
 20
-2.98744
 11
2.89175
 21
-2.79253
  0
LINE
  8
0
 10
2.89175
 20
-2.79253
 11
3.0795
 21
-2.58401
  0
LINE
  8
0
 10
3.0795
 20
-2.58401
 11
3.25225
 21
-2.3629
  0
LINE
  8
0
 10
3.25225
 20
-2.3629
 11
3.40915
 21
-2.13027
  0
LINE
  8
0
 10
3.40915
 20
-2.13027
 11
3.54945
 21
-1.88727
  0
LINE
  8
0
 10
3.54945
 20
-1.88727
 11
3.67245
 21
-1.63508
  0
LINE
  8
0
 10
3.67245
 20
-1.63508
 11
3.77756
 21
-1.37492
  0
LINE
  8
0
 10
3.77756
 20
-1.37492
 11
3.86427
 21
-1.10806
  0
LINE
  8
0
 10
3.86427
 20
-1.10806
 11
3.93215
 21
-0.835805
  0
LINE
  8
0
 10
3.93215
 20
-0.835805
 11
3.98088
 21
-0.559475
  0
LINE
  8
0
 10
3.98088
 20
-0.559475
 11
4.01021
 21
-0.28042
  0
LINE
  8
0
 10
4.01021
 20
-0.28042
 11
4.02
 21
0
  0
LINE
  8
0
 10
4.02
 20
0
 11
4.01021
 21
0.28042
  0
LINE
  8
0
 10
4.01021
 20
0.28042
 11
3.98088
 21
0.559475
  0
LINE
  8
0
 10
3.98088
 20
0.559475
 11
3.93215
 21
0.835805
  0
LINE
  8
0
 10
3.93215
 20
0.835805
 11
3.86427
 21
1.10806
  0
LINE
  8
0
 10
3.86427
 20
1.10806
 11
3.77756
 21
1.37492
  0
LINE
  8
0
 10
3.77756
 20
1.37492
 11
3.67245
 21
1.63508
  0
LINE
  8
0
 10
3.67245
 20
1.63508
 11
3.54945
 21
1.88727
  0
LINE
  8
0
 10
3.54945
 20
1.88727
 11
3.40915
 21
2.13027
  0
LINE
  8
0
 10
3.40915
 20
2.13027
 11
3.25225
 21
2.3629
  0
LINE
  8
0
 10
3.25225
 20
2.3629
 11
3.0795
 21
2.58401
  0
LINE
  8
0
 10
3.0795
 20
2.58401
 11
2.89175
 21
2.79253
  0
LINE
  8
0
 10
2.89175
 20
2.79253
 11
2.6899
 21
2.98744
  0
LINE
  8
0
 10
2.6899
 20
2.98744
 11
2.47496
 21
3.1678
  0
LINE
  8
0
 10
2.47496
 20
3.1678
 11
2.24796
 21
3.33273
  0
LINE
  8
0
 10
2.24796
 20
3.33273
 11
2.01
 21
3.48142
  0
LINE
  8
0
 10
2.01
 20
3.48142
 11
1.76225
 21
3.61315
  0
LINE
  8
0
 10
1.76225
 20
3.61315
 11
1.50592
 21
3.72728
  0
LINE
  8
0
 10
1.50592
 20
3.72728
 11
1.24225
 21
3.82325
  0
LINE
  8
0
 10
1.24225
 20
3.82325
 11
0.972526
 21
3.90059
  0
LINE
  8
0
 10
0.972526
 20
3.90059
 11
0.698065
 21
3.95893
  0
LINE
  8
0
 10
0.698065
 20
3.95893
 11
0.420204
 21
3.99798
  0
LINE
  8
0
 10
0.420204
 20
3.99798
 11
0.140295
 21
4.01755
  0
LINE
  8
0
 10
0.140295
 20
4.01755
 11
-0.140295
 21
4.01755
  0
LINE
  8
0
 10
-0.140295
 20
4.01755
 11
-0.420204
 21
3.99798
  0
LINE
  8
0
 10
-0.420204
 20
3.99798
 11
-0.698065
 21
3.95893
  0
LINE
  8
0
 10
-0.698065
 20
3.95893
 11
-0.972526
 21
3.90059
  0
LINE
  8
0
 10
-0.972526
 20
3.90059
 11
-1.24225
 21
3.82325
  0
LINE
  8
0
 10
-1.24225
 20
3.82325
 11
-1.50592
 21
3.72728
  0
LINE
  8
0
 10
-1.50592
 20
3.72728
 11
-1.76225
 21
3.61315
  0
LINE
  8
0
 10
-1.76225
 20
3.61315
 11
-2.01
 21
3.48142
  0
LINE
  8
0
 10
-2.01
 20
3.48142
 11
-2.24796
 21
3.33273
  0
LINE
  8
0
 10
-2.24796
 20
3.33273
 11
-2.47496
 21
3.1678
  0
LINE
  8
0
 10
-2.47496
 20
3.1678
 11
-2.6899
 21
2.98744
  0
LINE
  8
0
 10
-2.6899
 20
2.98744
 11
-2.89175
 21
2.79253
  0
LINE
  8
0
 10
-2.89175
 20
2.79253
 11
-3.0795
 21
2.58401
  0
LINE
  8
0
 10
-3.0795
 20
2.58401
 11
-3.25225
 21
2.3629
  0
LINE
  8
0
 10
-3.25225
 20
2.3629
 11
-3.40915
 21
2.13027
  0
LINE
  8
0
 10
-3.40915
 20
2.13027
 11
-3.54945
 21
1.88727
  0
LINE
  8
0
 10
-3.54945
 20
1.88727
 11
-3.67245
 21
1.63508
  0
LINE
  8
0
 10
-3.67245
 20
1.63508
 11
-3.77756
 21
1.37492
  0
LINE
  8
0
 10
-3.77756
 20
1.37492
 11
-3.86427
 21
1.10806
  0
LINE
  8
0
 10
-3.86427
 20
1.10806
 11
-3.93215
 21
0.835805
  0
LINE
  8
0
 10
-3.93215
 20
0.835805
 11
-3.98088
 21
0.559475
  0
LINE
  8
0
 10
-3.98088
 20
0.559475
 11
-4.01021
 21
0.28042
  0
LINE
  8
0
 10
-4.01021
 20
0.28042
 11
-4.02
 21
0
  0
LINE
  8
0
 10
-1.98
 20
0
 11
-1.97518
 21
0.138118
  0
LINE
  8
0
 10
-1.97518
 20
0.138118
 11
-1.96073
 21
0.275562
  0
LINE
  8
0
 10
-1.96073
 20
0.275562
 11
-1.93673
 21
0.411665
  0
LINE
  8
0
 10
-1.93673
 20
0.411665
 11
-1.9033
 21
0.545761
  0
LINE
  8
0
 10
-1.9033
 20
0.545761
 11
-1.86059
 21
0.677199
  0
LINE
  8
0
 10
-1.86059
 20
0.677199
 11
-1.80882
 21
0.805338
  0
LINE
  8
0
 10
-1.80882
 20
0.805338
 11
-1.74824
 21
0.929553
  0
LINE
  8
0
 10
-1.74824
 20
0.929553
 11
-1.67913
 21
1.04924
  0
LINE
  8
0
 10
-1.67913
 20
1.04924
 11
-1.60185
 21
1.16381
  0
LINE
  8
0
 10
-1.60185
 20
1.16381
 11
-1.51677
 21
1.27272
  0
LINE
  8
0
 10
-1.51677
 20
1.27272
 11
-1.42429
 21
1.37542
  0
LINE
  8
0
 10
-1.42429
 20
1.37542
 11
-1.32488
 21
1.47143
  0
LINE
  8
0
 10
-1.32488
 20
1.47143
 11
-1.21901
 21
1.56026
  0
LINE
  8
0
 10
-1.21901
 20
1.56026
 11
-1.1072
 21
1.64149
  0
LINE
  8
0
 10
-1.1072
 20
1.64149
 11
-0.99
 21
1.71473
  0
LINE
  8
0
 10
-0.99
 20
1.71473
 11
-0.867974
 21
1.77961
  0
LINE
  8
0
 10
-0.867974
 20
1.77961
 11
-0.74172
 21
1.83582
  0
LINE
  8
0
 10
-0.74172
 20
1.83582
 11
-0.611854
 21
1.88309
  0
LINE
  8
0
 10
-0.611854
 20
1.88309
 11
-0.479005
 21
1.92119
  0
LINE
  8
0
 10
-0.479005
 20
1.92119
 11
-0.343822
 21
1.94992
  0
LINE
  8
0
 10
-0.343822
 20
1.94992
 11
-0.206965
 21
1.96915
  0
LINE
  8
0
 10
-0.206965
 20
1.96915
 11
-0.0691004
 21
1.97879
  0
LINE
  8
0
 10
-0.0691004
 20
1.97879
 11
0.0691004
 21
1.97879
  0
LINE
  8
0
 10
0.0691004
 20
1.97879
 11
0.206965
 21
1.96915
  0
LINE
  8
0
 10
0.206965
 20
1.96915
 11
0.343822
 21
1.94992
  0
LINE
  8
0
 10
0.343822
 20
1.94992
 11
0.479005
 21
1.92119
  0
LINE
  8
0
 10
0.479005
 20
1.92119
 11
0.611854
 21
1.88309
  0
LINE
  8
0
 10
0.611854
 20
1.88309
 11
0.74172
 21
1.83582
  0
LINE
  8
0
 10
0.74172
 20
1.83582
 11
0.867974
 21
1.77961
  0
LINE
  8
0
 10
0.867974
 20
1.77961
 11
0.99
 21
1.71473
  0
LINE
  8
0
 10
0.99
 20
1.71473
 11
1.1072
 21
1.64149
  0
LINE
  8
0
 10
1.1072
 20
1.64149
 11
1.21901
 21
1.56026
  0
LINE
  8
0
 10
1.21901
 20
1.56026
 11
1.32488
 21
1.47143
  0
LINE
  8
0
 10
1.32488
 20
1.47143
 11
1.42429
 21
1.37542
  0
LINE
  8
0
 10
1.42429
 20
1.37542
 11
1.51677
 21
1.27272
  0
LINE
  8
0
 10
1.51677
 20
1.27272
 11
1.60185
 21
1.16381
  0
LINE
  8
0
 10
1.60185
 20
1.16381
 11
1.67913
 21
1.04924
  0
LINE
  8
0
 10
1.67913
 20
1.04924
 11
1.74824
 21
0.929553
  0
LINE
  8
0
 10
1.74824
 20
0.929553
 11
1.80882
 21
0.805338
  0
LINE
  8
0
 10
1.80882
 20
0.805338
 11
1.86059
 21
0.677199
  0
LINE
  8
0
 10
1.86059
 20
0.677199
 11
1.9033
 21
0.545761
  0
LINE
  8
0
 10
1.9033
 20
0.545761
 11
1.93673
 21
0.411665
  0
LINE
  8
0
 10
1.93673
 20
0.411665
 11
1.96073
 21
0.275562
  0
LINE
  8
0
 10
1.96073
 20
0.275562
 11
1.97518
 21
0.138118
  0
LINE
  8
0
 10
1.97518
 20
0.138118
 11
1.98
 21
0
  0
LINE
  8
0
 10
1.98
 20
0
 11
1.97518
 21
-0.138118
  0
LINE
  8
0
 10
1.97518
 20
-0.138118
 11
1.96073
 21
-0.275562
  0
LINE
  8
0
 10
1.96073
 20
-0.275562
 11
1.93673
 21
-0.411665
  0
LINE
  8
0
 10
1.93673
 20
-0.411665
 11
1.9033
 21
-0.545761
  0
LINE
  8
0
 10
1.9033
 20
-0.545761
 11
1.86059
 21
-0.677199
  0
LINE
  8
0
 10
1.86059
 20
-0.677199
 11
1.80882
 21
-0.805338
  0
LINE
  8
0
 10
1.80882
 20
-0.805338
 11
1.74824
 21
-0.929553
  0
LINE
  8
0
 10
1.74824
 20
-0.929553
 11
1.67913
 21
-1.04924
  0
LINE
  8
0
 10
1.67913
 20
-1.04924
 11
1.60185
 21
-1.16381
  0
LINE
  8
0
 10
1.60185
 20
-1.16381
 11
1.51677
 21
-1.27272
  0
LINE
  8
0
 10
1.51677
 20
-1.27272
 11
1.42429
 21
-1.37542
  0
LINE
  8
0
 10
1.42429
 20
-1.37542
 11
1.32488
 21
-1.47143
  0
LINE
  8
0
 10
1.32488
 20
-1.47143
 11
1.21901
 21
-1.56026
  0
LINE
  8
0
 10
1.21901
 20
-1.56026
 11
1.1072
 21
-1.64149
  0
LINE
  8
0
 10
1.1072
 20
-1.64149
 11
0.99
 21
-1.71473
  0
LINE
  8
0
 10
0.99
 20
-1.71473
 11
0.867974
 21
-1.77961
  0
LINE
  8
0
 10
0.867974
 20
-1.77961
 11
0.74172
 21
-1.83582
  0
LINE
  8
0
 10
0.74172
 20
-1.83582
 11
0.611854
 21
-1.88309
  0
LINE
  8
0
 10
0.611854
 20
-1.88309
 11
0.479005
 21
-1.92119
  0
LINE
  8
0
 10
0.479005
 20
-1.92119
 11
0.343822
 21
-1.94992
  0
LINE
  8
0
 10
0.343822
 20
-1.94992
 11
0.206965
 21
-1.96915
  0
LINE
  8
0
 10
0.206965
 20
-1.96915
 11
0.0691004
 21
-1.97879
  0
LINE
  8
0
 10
0.0691004
 20
-1.97879
 11
-0.0691004
 21
-1.97879
  0
LINE
  8
0
 10
-0.0691004
 20
-1.97879
 11
-0.206965
 21
-1.96915
  0
LINE
  8
0
 10
-0.206965
 20
-1.96915
 11
-0.343822
 21
-1.94992
  0
LINE
  8
0
 10
-0.343822
 20
-1.94992
 11
-0.479005
 21
-1.92119
  0
LINE
  8
0
 10
-0.479005
 20
-1.92119
 11
-0.611854
 21
-1.88309
  0
LINE
  8
0
 10
-0.611854
 20
-1.88309
 11
-0.74172
 21
-1.83582
  0
LINE
  8
0
 10
-0.74172
 20
-1.83582
 11
-0.867974
 21
-1.77961
  0
LINE
  8
0
 10
-0.867974
 20
-1.77961
 11
-0.99
 21
-1.71473
  0
LINE
  8
0
 10
-0.99
 20
-1.71473
 11
-1.1072
 21
-1.64149
  0
LINE
  8
0
 10
-1.1072
 20
-1.64149
 11
-1.21901
 21
-1.56026
  0
LINE
  8
0
 10
-1.21901
 20
-1.56026
 11
-1.32488
 21
-1.47143
  0
LINE
  8
0
 10
-1.32488
 20
-1.47143
 11
-1.42429
 21
-1.37542
  0
LINE
  8
0
 10
-1.42429
 20
-1.37542
 11
-1.51677
 21
-1.27272
  0
LINE
  8
0
 10
-1.51677
 20
-1.27272
 11
-1.60185
 21
-1.16381
  0
LINE
  8
0
 10
-1.60185
 20
-1.16381
 11
-1.67913
 21
-1.04924
  0
LINE
  8
0
 10
-1.67913
 20
-1.04924
 11
-1.74824
 21
-0.929553
  0
LINE
  8
0
 10
-1.74824
 20
-0.929553
 11
-1.80882
 21
-0.805338
  0
LINE
  8
0
 10
-1.80882
 20
-0.805338
 11
-1.86059
 21
-0.677199
  0
LINE
  8
0
 10
-1.86059
 20
-0.677199
 11
-1.9033
 21
-0.545761
  0
LINE
  8
0
 10
-1.9033
 20
-0.545761
 11
-1.93673
 21
-0.411665
  0
LINE
  8
0
 10
-1.93673
 20
-0.411665
 11
-1.96073
 21
-0.275562
  0
LINE
  8
0
 10
-1.96073
 20
-0.275562
 11
-1.97518
 21
-0.138118
  0
LINE
  8
0
 10
-1.97518
 20
-0.138118
 11
-1.98
 21
0
  0
ENDSEC
  0
SECTION
  2
OBJECTS
  0
DICTIONARY
  0
ENDSEC
  0
EOF
