  0
SECTION
  2
BLOCKS
  0
ENDSEC
  0
SECTION
  2
ENTITIES
  0
LINE
  8
0
 10
-31.36
 20
0
 11
-31.2836
 21
-2.18756
  0
LINE
  8
0
 10
-31.2836
 20
-2.18756
 11
-31.0548
 21
-4.36447
  0
LINE
  8
0
 10
-31.0548
 20
-4.36447
 11
-30.6747
 21
-6.52011
  0
LINE
  8
0
 10
-30.6747
 20
-6.52011
 11
-30.1452
 21
-8.64399
  0
LINE
  8
0
 10
-30.1452
 20
-8.64399
 11
-29.4688
 21
-10.7258
  0
LINE
  8
0
 10
-29.4688
 20
-10.7258
 11
-28.6488
 21
-12.7553
  0
LINE
  8
0
 10
-28.6488
 20
-12.7553
 11
-27.6892
 21
-14.7226
  0
LINE
  8
0
 10
-27.6892
 20
-14.7226
 11
-26.5948
 21
-16.6183
  0
LINE
  8
0
 10
-26.5948
 20
-16.6183
 11
-25.3708
 21
-18.4329
  0
LINE
  8
0
 10
-25.3708
 20
-18.4329
 11
-24.0232
 21
-20.1578
  0
LINE
  8
0
 10
-24.0232
 20
-20.1578
 11
-22.5585
 21
-21.7845
  0
LINE
  8
0
 10
-22.5585
 20
-21.7845
 11
-20.9839
 21
-23.305
  0
LINE
  8
0
 10
-20.9839
 20
-23.305
 11
-19.3071
 21
-24.712
  0
LINE
  8
0
 10
-19.3071
 20
-24.712
 11
-17.5363
 21
-25.9986
  0
LINE
  8
0
 10
-17.5363
 20
-25.9986
 11
-15.68
 21
-27.1586
  0
LINE
  8
0
 10
-15.68
 20
-27.1586
 11
-13.7473
 21
-28.1862
  0
LINE
  8
0
 10
-13.7473
 20
-28.1862
 11
-11.7477
 21
-29.0765
  0
LINE
  8
0
 10
-11.7477
 20
-29.0765
 11
-9.69077
 21
-29.8251
  0
LINE
  8
0
 10
-9.69077
 20
-29.8251
 11
-7.58667
 21
-30.4285
  0
LINE
  8
0
 10
-7.58667
 20
-30.4285
 11
-5.44561
 21
-30.8836
  0
LINE
  8
0
 10
-5.44561
 20
-30.8836
 11
-3.27801
 21
-31.1882
  0
LINE
  8
0
 10
-3.27801
 20
-31.1882
 11
-1.09445
 21
-31.3409
  0
LINE
  8
0
 10
-1.09445
 20
-31.3409
 11
1.09445
 21
-31.3409
  0
LINE
  8
0
 10
1.09445
 20
-31.3409
 11
3.27801
 21
-31.1882
  0
LINE
  8
0
 10
3.27801
 20
-31.1882
 11
5.44561
 21
-30.8836
  0
LINE
  8
0
 10
5.44561
 20
-30.8836
 11
7.58667
 21
-30.4285
  0
LINE
  8
0
 10
7.58667
 20
-30.4285
 11
9.69077
 21
-29.8251
  0
LINE
  8
0
 10
9.69077
 20
-29.8251
 11
11.7477
 21
-29.0765
  0
LINE
  8
0
 10
11.7477
 20
-29.0765
 11
13.7473
 21
-28.1862
  0
LINE
  8
0
 10
13.7473
 20
-28.1862
 11
15.68
 21
-27.1586
  0
LINE
  8
0
 10
15.68
 20
-27.1586
 11
17.5363
 21
-25.9986
  0
LINE
  8
0
 10
17.5363
 20
-25.9986
 11
19.3071
 21
-24.712
  0
LINE
  8
0
 10
19.3071
 20
-24.712
 11
20.9839
 21
-23.305
  0
LINE
  8
0
 10
20.9839
 20
-23.305
 11
22.5585
 21
-21.7845
  0
LINE
  8
0
 10
22.5585
 20
-21.7845
 11
24.0232
 21
-20.1578
  0
LINE
  8
0
 10
24.0232
 20
-20.1578
 11
25.3708
 21
-18.4329
  0
LINE
  8
0
 10
25.3708
 20
-18.4329
 11
26.5948
 21
-16.6183
  0
LINE
  8
0
 10
26.5948
 20
-16.6183
 11
27.6892
 21
-14.7226
  0
LINE
  8
0
 10
27.6892
 20
-14.7226
 11
28.6488
 21
-12.7553
  0
LINE
  8
0
 10
28.6488
 20
-12.7553
 11
29.4688
 21
-10.7258
  0
LINE
  8
0
 10
29.4688
 20
-10.7258
 11
30.1452
 21
-8.64399
  0
LINE
  8
0
 10
30.1452
 20
-8.64399
 11
30.6747
 21
-6.52011
  0
LINE
  8
0
 10
30.6747
 20
-6.52011
 11
31.0548
 21
-4.36447
  0
LINE
  8
0
 10
31.0548
 20
-4.36447
 11
31.2836
 21
-2.18756
  0
LINE
  8
0
 10
31.2836
 20
-2.18756
 11
31.36
 21
0
  0
LINE
  8
0
 10
31.36
 20
0
 11
31.2836
 21
2.18756
  0
LINE
  8
0
 10
31.2836
 20
2.18756
 11
31.0548
 21
4.36447
  0
LINE
  8
0
 10
31.0548
 20
4.36447
 11
30.6747
 21
6.52011
  0
LINE
  8
0
 10
30.6747
 20
6.52011
 11
30.1452
 21
8.64399
  0
LINE
  8
0
 10
30.1452
 20
8.64399
 11
29.4688
 21
10.7258
  0
LINE
  8
0
 10
29.4688
 20
10.7258
 11
28.6488
 21
12.7553
  0
LINE
  8
0
 10
28.6488
 20
12.7553
 11
27.6892
 21
14.7226
  0
LINE
  8
0
 10
27.6892
 20
14.7226
 11
26.5948
 21
16.6183
  0
LINE
  8
0
 10
26.5948
 20
16.6183
 11
25.3708
 21
18.4329
  0
LINE
  8
0
 10
25.3708
 20
18.4329
 11
24.0232
 21
20.1578
  0
LINE
  8
0
 10
24.0232
 20
20.1578
 11
22.5585
 21
21.7845
  0
LINE
  8
0
 10
22.5585
 20
21.7845
 11
20.9839
 21
23.305
  0
LINE
  8
0
 10
20.9839
 20
23.305
 11
19.3071
 21
24.712
  0
LINE
  8
0
 10
19.3071
 20
24.712
 11
17.5363
 21
25.9986
  0
LINE
  8
0
 10
17.5363
 20
25.9986
 11
15.68
 21
27.1586
  0
LINE
  8
0
 10
15.68
 20
27.1586
 11
13.7473
 21
28.1862
  0
LINE
  8
0
 10
13.7473
 20
28.1862
 11
11.7477
 21
29.0765
  0
LINE
  8
0
 10
11.7477
 20
29.0765
 11
9.69077
 21
29.8251
  0
LINE
  8
0
 10
9.69077
 20
29.8251
 11
7.58667
 21
30.4285
  0
LINE
  8
0
 10
7.58667
 20
30.4285
 11
5.44561
 21
30.8836
  0
LINE
  8
0
 10
5.44561
 20
30.8836
 11
3.27801
 21
31.1882
  0
LINE
  8
0
 10
3.27801
 20
31.1882
 11
1.09445
 21
31.3409
  0
LINE
  8
0
 10
1.09445
 20
31.3409
 11
-1.09445
 21
31.3409
  0
LINE
  8
0
 10
-1.09445
 20
31.3409
 11
-3.27801
 21
31.1882
  0
LINE
  8
0
 10
-3.27801
 20
31.1882
 11
-5.44561
 21
30.8836
  0
LINE
  8
0
 10
-5.44561
 20
30.8836
 11
-7.58667
 21
30.4285
  0
LINE
  8
0
 10
-7.58667
 20
30.4285
 11
-9.69077
 21
29.8251
  0
LINE
  8
0
 10
-9.69077
 20
29.8251
 11
-11.7477
 21
29.0765
  0
LINE
  8
0
 10
-11.7477
 20
29.0765
 11
-13.7473
 21
28.1862
  0
LINE
  8
0
 10
-13.7473
 20
28.1862
 11
-15.68
 21
27.1586
  0
LINE
  8
0
 10
-15.68
 20
27.1586
 11
-17.5363
 21
25.9986
  0
LINE
  8
0
 10
-17.5363
 20
25.9986
 11
-19.3071
 21
24.712
  0
LINE
  8
0
 10
-19.3071
 20
24.712
 11
-20.9839
 21
23.305
  0
LINE
  8
0
 10
-20.9839
 20
23.305
 11
-22.5585
 21
21.7845
  0
LINE
  8
0
 10
-22.5585
 20
21.7845
 11
-24.0232
 21
20.1578
  0
LINE
  8
0
 10
-24.0232
 20
20.1578
 11
-25.3708
 21
18.4329
  0
LINE
  8
0
 10
-25.3708
 20
18.4329
 11
-26.5948
 21
16.6183
  0
LINE
  8
0
 10
-26.5948
 20
16.6183
 11
-27.6892
 21
14.7226
  0
LINE
  8
0
 10
-27.6892
 20
14.7226
 11
-28.6488
 21
12.7553
  0
LINE
  8
0
 10
-28.6488
 20
12.7553
 11
-29.4688
 21
10.7258
  0
LINE
  8
0
 10
-29.4688
 20
10.7258
 11
-30.1452
 21
8.64399
  0
LINE
  8
0
 10
-30.1452
 20
8.64399
 11
-30.6747
 21
6.52011
  0
LINE
  8
0
 10
-30.6747
 20
6.52011
 11
-31.0548
 21
4.36447
  0
LINE
  8
0
 10
-31.0548
 20
4.36447
 11
-31.2836
 21
2.18756
  0
LINE
  8
0
 10
-31.2836
 20
2.18756
 11
-31.36
 21
0
  0
LINE
  8
0
 10
-6.06
 20
-1.08445
 11
-6.06
 21
1.08445
  0
LINE
  8
0
 10
-6.06
 20
1.08445
 11
-6.02539
 21
1.28074
  0
LINE
  8
0
 10
-6.02539
 20
1.28074
 11
-5.92137
 21
1.69793
  0
LINE
  8
0
 10
-5.92137
 20
1.69793
 11
-5.78851
 21
2.10684
  0
LINE
  8
0
 10
-5.78851
 20
2.10684
 11
-5.62744
 21
2.5055
  0
LINE
  8
0
 10
-5.62744
 20
2.5055
 11
-5.43896
 21
2.89194
  0
LINE
  8
0
 10
-5.43896
 20
2.89194
 11
-5.22398
 21
3.2643
  0
LINE
  8
0
 10
-5.22398
 20
3.2643
 11
-4.98354
 21
3.62076
  0
LINE
  8
0
 10
-4.98354
 20
3.62076
 11
-4.71883
 21
3.95957
  0
LINE
  8
0
 10
-4.71883
 20
3.95957
 11
-4.43113
 21
4.27909
  0
LINE
  8
0
 10
-4.43113
 20
4.27909
 11
-4.33009
 21
4.37667
  0
LINE
  8
0
 10
-4.33009
 20
4.37667
 11
4.33009
 21
4.37667
  0
LINE
  8
0
 10
4.33009
 20
4.37667
 11
4.37667
 21
4.33169
  0
LINE
  8
0
 10
4.37667
 20
4.33169
 11
4.37667
 21
-4.33169
  0
LINE
  8
0
 10
4.37667
 20
-4.33169
 11
4.33009
 21
-4.37667
  0
LINE
  8
0
 10
4.33009
 20
-4.37667
 11
-4.33009
 21
-4.37667
  0
LINE
  8
0
 10
-4.33009
 20
-4.37667
 11
-4.43113
 21
-4.27909
  0
LINE
  8
0
 10
-4.43113
 20
-4.27909
 11
-4.71883
 21
-3.95957
  0
LINE
  8
0
 10
-4.71883
 20
-3.95957
 11
-4.98354
 21
-3.62076
  0
LINE
  8
0
 10
-4.98354
 20
-3.62076
 11
-5.22398
 21
-3.2643
  0
LINE
  8
0
 10
-5.22398
 20
-3.2643
 11
-5.43896
 21
-2.89194
  0
LINE
  8
0
 10
-5.43896
 20
-2.89194
 11
-5.62744
 21
-2.5055
  0
LINE
  8
0
 10
-5.62744
 20
-2.5055
 11
-5.78851
 21
-2.10684
  0
LINE
  8
0
 10
-5.78851
 20
-2.10684
 11
-5.92137
 21
-1.69793
  0
LINE
  8
0
 10
-5.92137
 20
-1.69793
 11
-6.02539
 21
-1.28074
  0
LINE
  8
0
 10
-6.02539
 20
-1.28074
 11
-6.06
 21
-1.08445
  0
LINE
  8
0
 10
-2.06
 20
-22
 11
-2.05498
 21
-21.8563
  0
LINE
  8
0
 10
-2.05498
 20
-21.8563
 11
-2.03995
 21
-21.7133
  0
LINE
  8
0
 10
-2.03995
 20
-21.7133
 11
-2.01498
 21
-21.5717
  0
LINE
  8
0
 10
-2.01498
 20
-21.5717
 11
-1.9802
 21
-21.4322
  0
LINE
  8
0
 10
-1.9802
 20
-21.4322
 11
-1.93577
 21
-21.2954
  0
LINE
  8
0
 10
-1.93577
 20
-21.2954
 11
-1.8819
 21
-21.1621
  0
LINE
  8
0
 10
-1.8819
 20
-21.1621
 11
-1.81887
 21
-21.0329
  0
LINE
  8
0
 10
-1.81887
 20
-21.0329
 11
-1.74698
 21
-20.9084
  0
LINE
  8
0
 10
-1.74698
 20
-20.9084
 11
-1.66657
 21
-20.7892
  0
LINE
  8
0
 10
-1.66657
 20
-20.7892
 11
-1.57805
 21
-20.6759
  0
LINE
  8
0
 10
-1.57805
 20
-20.6759
 11
-1.48184
 21
-20.569
  0
LINE
  8
0
 10
-1.48184
 20
-20.569
 11
-1.37841
 21
-20.4691
  0
LINE
  8
0
 10
-1.37841
 20
-20.4691
 11
-1.26826
 21
-20.3767
  0
LINE
  8
0
 10
-1.26826
 20
-20.3767
 11
-1.15194
 21
-20.2922
  0
LINE
  8
0
 10
-1.15194
 20
-20.2922
 11
-1.03
 21
-20.216
  0
LINE
  8
0
 10
-1.03
 20
-20.216
 11
-0.903044
 21
-20.1485
  0
LINE
  8
0
 10
-0.903044
 20
-20.1485
 11
-0.771689
 21
-20.09
  0
LINE
  8
0
 10
-0.771689
 20
-20.09
 11
-0.636575
 21
-20.0408
  0
LINE
  8
0
 10
-0.636575
 20
-20.0408
 11
-0.498359
 21
-20.0012
  0
LINE
  8
0
 10
-0.498359
 20
-20.0012
 11
-0.357715
 21
-19.9713
  0
LINE
  8
0
 10
-0.357715
 20
-19.9713
 11
-0.215328
 21
-19.9513
  0
LINE
  8
0
 10
-0.215328
 20
-19.9513
 11
-0.0718927
 21
-19.9413
  0
LINE
  8
0
 10
-0.0718927
 20
-19.9413
 11
0.0718927
 21
-19.9413
  0
LINE
  8
0
 10
0.0718927
 20
-19.9413
 11
0.215328
 21
-19.9513
  0
LINE
  8
0
 10
0.215328
 20
-19.9513
 11
0.357715
 21
-19.9713
  0
LINE
  8
0
 10
0.357715
 20
-19.9713
 11
0.498359
 21
-20.0012
  0
LINE
  8
0
 10
0.498359
 20
-20.0012
 11
0.636575
 21
-20.0408
  0
LINE
  8
0
 10
0.636575
 20
-20.0408
 11
0.771689
 21
-20.09
  0
LINE
  8
0
 10
0.771689
 20
-20.09
 11
0.903044
 21
-20.1485
  0
LINE
  8
0
 10
0.903044
 20
-20.1485
 11
1.03
 21
-20.216
  0
LINE
  8
0
 10
1.03
 20
-20.216
 11
1.15194
 21
-20.2922
  0
LINE
  8
0
 10
1.15194
 20
-20.2922
 11
1.26826
 21
-20.3767
  0
LINE
  8
0
 10
1.26826
 20
-20.3767
 11
1.37841
 21
-20.4691
  0
LINE
  8
0
 10
1.37841
 20
-20.4691
 11
1.48184
 21
-20.569
  0
LINE
  8
0
 10
1.48184
 20
-20.569
 11
1.57805
 21
-20.6759
  0
LINE
  8
0
 10
1.57805
 20
-20.6759
 11
1.66657
 21
-20.7892
  0
LINE
  8
0
 10
1.66657
 20
-20.7892
 11
1.74698
 21
-20.9084
  0
LINE
  8
0
 10
1.74698
 20
-20.9084
 11
1.81887
 21
-21.0329
  0
LINE
  8
0
 10
1.81887
 20
-21.0329
 11
1.8819
 21
-21.1621
  0
LINE
  8
0
 10
1.8819
 20
-21.1621
 11
1.93577
 21
-21.2954
  0
LINE
  8
0
 10
1.93577
 20
-21.2954
 11
1.9802
 21
-21.4322
  0
LINE
  8
0
 10
1.9802
 20
-21.4322
 11
2.01498
 21
-21.5717
  0
LINE
  8
0
 10
2.01498
 20
-21.5717
 11
2.03995
 21
-21.7133
  0
LINE
  8
0
 10
2.03995
 20
-21.7133
 11
2.05498
 21
-21.8563
  0
LINE
  8
0
 10
2.05498
 20
-21.8563
 11
2.06
 21
-22
  0
LINE
  8
0
 10
2.06
 20
-22
 11
2.05498
 21
-22.1437
  0
LINE
  8
0
 10
2.05498
 20
-22.1437
 11
2.03995
 21
-22.2867
  0
LINE
  8
0
 10
2.03995
 20
-22.2867
 11
2.01498
 21
-22.4283
  0
LINE
  8
0
 10
2.01498
 20
-22.4283
 11
1.9802
 21
-22.5678
  0
LINE
  8
0
 10
1.9802
 20
-22.5678
 11
1.93577
 21
-22.7046
  0
LINE
  8
0
 10
1.93577
 20
-22.7046
 11
1.8819
 21
-22.8379
  0
LINE
  8
0
 10
1.8819
 20
-22.8379
 11
1.81887
 21
-22.9671
  0
LINE
  8
0
 10
1.81887
 20
-22.9671
 11
1.74698
 21
-23.0916
  0
LINE
  8
0
 10
1.74698
 20
-23.0916
 11
1.66657
 21
-23.2108
  0
LINE
  8
0
 10
1.66657
 20
-23.2108
 11
1.57805
 21
-23.3241
  0
LINE
  8
0
 10
1.57805
 20
-23.3241
 11
1.48184
 21
-23.431
  0
LINE
  8
0
 10
1.48184
 20
-23.431
 11
1.37841
 21
-23.5309
  0
LINE
  8
0
 10
1.37841
 20
-23.5309
 11
1.26826
 21
-23.6233
  0
LINE
  8
0
 10
1.26826
 20
-23.6233
 11
1.15194
 21
-23.7078
  0
LINE
  8
0
 10
1.15194
 20
-23.7078
 11
1.03
 21
-23.784
  0
LINE
  8
0
 10
1.03
 20
-23.784
 11
0.903044
 21
-23.8515
  0
LINE
  8
0
 10
0.903044
 20
-23.8515
 11
0.771689
 21
-23.91
  0
LINE
  8
0
 10
0.771689
 20
-23.91
 11
0.636575
 21
-23.9592
  0
LINE
  8
0
 10
0.636575
 20
-23.9592
 11
0.498359
 21
-23.9988
  0
LINE
  8
0
 10
0.498359
 20
-23.9988
 11
0.357715
 21
-24.0287
  0
LINE
  8
0
 10
0.357715
 20
-24.0287
 11
0.215328
 21
-24.0487
  0
LINE
  8
0
 10
0.215328
 20
-24.0487
 11
0.0718927
 21
-24.0587
  0
LINE
  8
0
 10
0.0718927
 20
-24.0587
 11
-0.0718927
 21
-24.0587
  0
LINE
  8
0
 10
-0.0718927
 20
-24.0587
 11
-0.215328
 21
-24.0487
  0
LINE
  8
0
 10
-0.215328
 20
-24.0487
 11
-0.357715
 21
-24.0287
  0
LINE
  8
0
 10
-0.357715
 20
-24.0287
 11
-0.498359
 21
-23.9988
  0
LINE
  8
0
 10
-0.498359
 20
-23.9988
 11
-0.636575
 21
-23.9592
  0
LINE
  8
0
 10
-0.636575
 20
-23.9592
 11
-0.771689
 21
-23.91
  0
LINE
  8
0
 10
-0.771689
 20
-23.91
 11
-0.903044
 21
-23.8515
  0
LINE
  8
0
 10
-0.903044
 20
-23.8515
 11
-1.03
 21
-23.784
  0
LINE
  8
0
 10
-1.03
 20
-23.784
 11
-1.15194
 21
-23.7078
  0
LINE
  8
0
 10
-1.15194
 20
-23.7078
 11
-1.26826
 21
-23.6233
  0
LINE
  8
0
 10
-1.26826
 20
-23.6233
 11
-1.37841
 21
-23.5309
  0
LINE
  8
0
 10
-1.37841
 20
-23.5309
 11
-1.48184
 21
-23.431
  0
LINE
  8
0
 10
-1.48184
 20
-23.431
 11
-1.57805
 21
-23.3241
  0
LINE
  8
0
 10
-1.57805
 20
-23.3241
 11
-1.66657
 21
-23.2108
  0
LINE
  8
0
 10
-1.66657
 20
-23.2108
 11
-1.74698
 21
-23.0916
  0
LINE
  8
0
 10
-1.74698
 20
-23.0916
 11
-1.81887
 21
-22.9671
  0
LINE
  8
0
 10
-1.81887
 20
-22.9671
 11
-1.8819
 21
-22.8379
  0
LINE
  8
0
 10
-1.8819
 20
-22.8379
 11
-1.93577
 21
-22.7046
  0
LINE
  8
0
 10
-1.93577
 20
-22.7046
 11
-1.9802
 21
-22.5678
  0
LINE
  8
0
 10
-1.9802
 20
-22.5678
 11
-2.01498
 21
-22.4283
  0
LINE
  8
0
 10
-2.01498
 20
-22.4283
 11
-2.03995
 21
-22.2867
  0
LINE
  8
0
 10
-2.03995
 20
-22.2867
 11
-2.05498
 21
-22.1437
  0
LINE
  8
0
 10
-2.05498
 20
-22.1437
 11
-2.06
 21
-22
  0
LINE
  8
0
 10
-2.06
 20
22
 11
-2.05498
 21
22.1437
  0
LINE
  8
0
 10
-2.05498
 20
22.1437
 11
-2.03995
 21
22.2867
  0
LINE
  8
0
 10
-2.03995
 20
22.2867
 11
-2.01498
 21
22.4283
  0
LINE
  8
0
 10
-2.01498
 20
22.4283
 11
-1.9802
 21
22.5678
  0
LINE
  8
0
 10
-1.9802
 20
22.5678
 11
-1.93577
 21
22.7046
  0
LINE
  8
0
 10
-1.93577
 20
22.7046
 11
-1.8819
 21
22.8379
  0
LINE
  8
0
 10
-1.8819
 20
22.8379
 11
-1.81887
 21
22.9671
  0
LINE
  8
0
 10
-1.81887
 20
22.9671
 11
-1.74698
 21
23.0916
  0
LINE
  8
0
 10
-1.74698
 20
23.0916
 11
-1.66657
 21
23.2108
  0
LINE
  8
0
 10
-1.66657
 20
23.2108
 11
-1.57805
 21
23.3241
  0
LINE
  8
0
 10
-1.57805
 20
23.3241
 11
-1.48184
 21
23.431
  0
LINE
  8
0
 10
-1.48184
 20
23.431
 11
-1.37841
 21
23.5309
  0
LINE
  8
0
 10
-1.37841
 20
23.5309
 11
-1.26826
 21
23.6233
  0
LINE
  8
0
 10
-1.26826
 20
23.6233
 11
-1.15194
 21
23.7078
  0
LINE
  8
0
 10
-1.15194
 20
23.7078
 11
-1.03
 21
23.784
  0
LINE
  8
0
 10
-1.03
 20
23.784
 11
-0.903044
 21
23.8515
  0
LINE
  8
0
 10
-0.903044
 20
23.8515
 11
-0.771689
 21
23.91
  0
LINE
  8
0
 10
-0.771689
 20
23.91
 11
-0.636575
 21
23.9592
  0
LINE
  8
0
 10
-0.636575
 20
23.9592
 11
-0.498359
 21
23.9988
  0
LINE
  8
0
 10
-0.498359
 20
23.9988
 11
-0.357715
 21
24.0287
  0
LINE
  8
0
 10
-0.357715
 20
24.0287
 11
-0.215328
 21
24.0487
  0
LINE
  8
0
 10
-0.215328
 20
24.0487
 11
-0.0718927
 21
24.0587
  0
LINE
  8
0
 10
-0.0718927
 20
24.0587
 11
0.0718927
 21
24.0587
  0
LINE
  8
0
 10
0.0718927
 20
24.0587
 11
0.215328
 21
24.0487
  0
LINE
  8
0
 10
0.215328
 20
24.0487
 11
0.357715
 21
24.0287
  0
LINE
  8
0
 10
0.357715
 20
24.0287
 11
0.498359
 21
23.9988
  0
LINE
  8
0
 10
0.498359
 20
23.9988
 11
0.636575
 21
23.9592
  0
LINE
  8
0
 10
0.636575
 20
23.9592
 11
0.771689
 21
23.91
  0
LINE
  8
0
 10
0.771689
 20
23.91
 11
0.903044
 21
23.8515
  0
LINE
  8
0
 10
0.903044
 20
23.8515
 11
1.03
 21
23.784
  0
LINE
  8
0
 10
1.03
 20
23.784
 11
1.15194
 21
23.7078
  0
LINE
  8
0
 10
1.15194
 20
23.7078
 11
1.26826
 21
23.6233
  0
LINE
  8
0
 10
1.26826
 20
23.6233
 11
1.37841
 21
23.5309
  0
LINE
  8
0
 10
1.37841
 20
23.5309
 11
1.48184
 21
23.431
  0
LINE
  8
0
 10
1.48184
 20
23.431
 11
1.57805
 21
23.3241
  0
LINE
  8
0
 10
1.57805
 20
23.3241
 11
1.66657
 21
23.2108
  0
LINE
  8
0
 10
1.66657
 20
23.2108
 11
1.74698
 21
23.0916
  0
LINE
  8
0
 10
1.74698
 20
23.0916
 11
1.81887
 21
22.9671
  0
LINE
  8
0
 10
1.81887
 20
22.9671
 11
1.8819
 21
22.8379
  0
LINE
  8
0
 10
1.8819
 20
22.8379
 11
1.93577
 21
22.7046
  0
LINE
  8
0
 10
1.93577
 20
22.7046
 11
1.9802
 21
22.5678
  0
LINE
  8
0
 10
1.9802
 20
22.5678
 11
2.01498
 21
22.4283
  0
LINE
  8
0
 10
2.01498
 20
22.4283
 11
2.03995
 21
22.2867
  0
LINE
  8
0
 10
2.03995
 20
22.2867
 11
2.05498
 21
22.1437
  0
LINE
  8
0
 10
2.05498
 20
22.1437
 11
2.06
 21
22
  0
LINE
  8
0
 10
2.06
 20
22
 11
2.05498
 21
21.8563
  0
LINE
  8
0
 10
2.05498
 20
21.8563
 11
2.03995
 21
21.7133
  0
LINE
  8
0
 10
2.03995
 20
21.7133
 11
2.01498
 21
21.5717
  0
LINE
  8
0
 10
2.01498
 20
21.5717
 11
1.9802
 21
21.4322
  0
LINE
  8
0
 10
1.9802
 20
21.4322
 11
1.93577
 21
21.2954
  0
LINE
  8
0
 10
1.93577
 20
21.2954
 11
1.8819
 21
21.1621
  0
LINE
  8
0
 10
1.8819
 20
21.1621
 11
1.81887
 21
21.0329
  0
LINE
  8
0
 10
1.81887
 20
21.0329
 11
1.74698
 21
20.9084
  0
LINE
  8
0
 10
1.74698
 20
20.9084
 11
1.66657
 21
20.7892
  0
LINE
  8
0
 10
1.66657
 20
20.7892
 11
1.57805
 21
20.6759
  0
LINE
  8
0
 10
1.57805
 20
20.6759
 11
1.48184
 21
20.569
  0
LINE
  8
0
 10
1.48184
 20
20.569
 11
1.37841
 21
20.4691
  0
LINE
  8
0
 10
1.37841
 20
20.4691
 11
1.26826
 21
20.3767
  0
LINE
  8
0
 10
1.26826
 20
20.3767
 11
1.15194
 21
20.2922
  0
LINE
  8
0
 10
1.15194
 20
20.2922
 11
1.03
 21
20.216
  0
LINE
  8
0
 10
1.03
 20
20.216
 11
0.903044
 21
20.1485
  0
LINE
  8
0
 10
0.903044
 20
20.1485
 11
0.771689
 21
20.09
  0
LINE
  8
0
 10
0.771689
 20
20.09
 11
0.636575
 21
20.0408
  0
LINE
  8
0
 10
0.636575
 20
20.0408
 11
0.498359
 21
20.0012
  0
LINE
  8
0
 10
0.498359
 20
20.0012
 11
0.357715
 21
19.9713
  0
LINE
  8
0
 10
0.357715
 20
19.9713
 11
0.215328
 21
19.9513
  0
LINE
  8
0
 10
0.215328
 20
19.9513
 11
0.0718927
 21
19.9413
  0
LINE
  8
0
 10
0.0718927
 20
19.9413
 11
-0.0718927
 21
19.9413
  0
LINE
  8
0
 10
-0.0718927
 20
19.9413
 11
-0.215328
 21
19.9513
  0
LINE
  8
0
 10
-0.215328
 20
19.9513
 11
-0.357715
 21
19.9713
  0
LINE
  8
0
 10
-0.357715
 20
19.9713
 11
-0.498359
 21
20.0012
  0
LINE
  8
0
 10
-0.498359
 20
20.0012
 11
-0.636575
 21
20.0408
  0
LINE
  8
0
 10
-0.636575
 20
20.0408
 11
-0.771689
 21
20.09
  0
LINE
  8
0
 10
-0.771689
 20
20.09
 11
-0.903044
 21
20.1485
  0
LINE
  8
0
 10
-0.903044
 20
20.1485
 11
-1.03
 21
20.216
  0
LINE
  8
0
 10
-1.03
 20
20.216
 11
-1.15194
 21
20.2922
  0
LINE
  8
0
 10
-1.15194
 20
20.2922
 11
-1.26826
 21
20.3767
  0
LINE
  8
0
 10
-1.26826
 20
20.3767
 11
-1.37841
 21
20.4691
  0
LINE
  8
0
 10
-1.37841
 20
20.4691
 11
-1.48184
 21
20.569
  0
LINE
  8
0
 10
-1.48184
 20
20.569
 11
-1.57805
 21
20.6759
  0
LINE
  8
0
 10
-1.57805
 20
20.6759
 11
-1.66657
 21
20.7892
  0
LINE
  8
0
 10
-1.66657
 20
20.7892
 11
-1.74698
 21
20.9084
  0
LINE
  8
0
 10
-1.74698
 20
20.9084
 11
-1.81887
 21
21.0329
  0
LINE
  8
0
 10
-1.81887
 20
21.0329
 11
-1.8819
 21
21.1621
  0
LINE
  8
0
 10
-1.8819
 20
21.1621
 11
-1.93577
 21
21.2954
  0
LINE
  8
0
 10
-1.93577
 20
21.2954
 11
-1.9802
 21
21.4322
  0
LINE
  8
0
 10
-1.9802
 20
21.4322
 11
-2.01498
 21
21.5717
  0
LINE
  8
0
 10
-2.01498
 20
21.5717
 11
-2.03995
 21
21.7133
  0
LINE
  8
0
 10
-2.03995
 20
21.7133
 11
-2.05498
 21
21.8563
  0
LINE
  8
0
 10
-2.05498
 20
21.8563
 11
-2.06
 21
22
  0
ENDSEC
  0
SECTION
  2
OBJECTS
  0
DICTIONARY
  0
ENDSEC
  0
EOF
