  0
SECTION
  2
BLOCKS
  0
ENDSEC
  0
SECTION
  2
ENTITIES
  0
LINE
  8
0
 10
-46.525
 20
-90.4551
 11
-7.54999
 21
-90.4551
  0
LINE
  8
0
 10
-7.54999
 20
-90.4551
 11
-7.54999
 21
-93.47
  0
LINE
  8
0
 10
-7.54999
 20
-93.47
 11
7.54999
 21
-93.47
  0
LINE
  8
0
 10
7.54999
 20
-93.47
 11
7.54999
 21
-90.4551
  0
LINE
  8
0
 10
7.54999
 20
-90.4551
 11
46.525
 21
-90.4551
  0
LINE
  8
0
 10
46.525
 20
-90.4551
 11
46.525
 21
-93.47
  0
LINE
  8
0
 10
46.525
 20
-93.47
 11
61.625
 21
-93.47
  0
LINE
  8
0
 10
61.625
 20
-93.47
 11
61.625
 21
-90.4551
  0
LINE
  8
0
 10
61.625
 20
-90.4551
 11
72.3827
 21
-90.4551
  0
LINE
  8
0
 10
72.3827
 20
-90.4551
 11
72.9467
 21
-90.4156
  0
LINE
  8
0
 10
72.9467
 20
-90.4156
 11
73.5065
 21
-90.3369
  0
LINE
  8
0
 10
73.5065
 20
-90.3369
 11
74.0596
 21
-90.2194
  0
LINE
  8
0
 10
74.0596
 20
-90.2194
 11
74.603
 21
-90.0636
  0
LINE
  8
0
 10
74.603
 20
-90.0636
 11
75.1343
 21
-89.8702
  0
LINE
  8
0
 10
75.1343
 20
-89.8702
 11
75.6508
 21
-89.6402
  0
LINE
  8
0
 10
75.6508
 20
-89.6402
 11
76.15
 21
-89.3748
  0
LINE
  8
0
 10
76.15
 20
-89.3748
 11
76.6295
 21
-89.0752
  0
LINE
  8
0
 10
76.6295
 20
-89.0752
 11
77.0869
 21
-88.7429
  0
LINE
  8
0
 10
77.0869
 20
-88.7429
 11
77.52
 21
-88.3795
  0
LINE
  8
0
 10
77.52
 20
-88.3795
 11
77.9267
 21
-87.9867
  0
LINE
  8
0
 10
77.9267
 20
-87.9867
 11
78.305
 21
-87.5666
  0
LINE
  8
0
 10
78.305
 20
-87.5666
 11
78.653
 21
-87.1211
  0
LINE
  8
0
 10
78.653
 20
-87.1211
 11
78.9692
 21
-86.6523
  0
LINE
  8
0
 10
78.9692
 20
-86.6523
 11
79.2519
 21
-86.1627
  0
LINE
  8
0
 10
79.2519
 20
-86.1627
 11
79.4997
 21
-85.6546
  0
LINE
  8
0
 10
79.4997
 20
-85.6546
 11
79.7115
 21
-85.1304
  0
LINE
  8
0
 10
79.7115
 20
-85.1304
 11
79.8862
 21
-84.5927
  0
LINE
  8
0
 10
79.8862
 20
-84.5927
 11
80.023
 21
-84.0441
  0
LINE
  8
0
 10
80.023
 20
-84.0441
 11
80.1212
 21
-83.4873
  0
LINE
  8
0
 10
80.1212
 20
-83.4873
 11
80.1803
 21
-82.925
  0
LINE
  8
0
 10
80.1803
 20
-82.925
 11
80.2
 21
-82.36
  0
LINE
  8
0
 10
80.2
 20
-82.36
 11
80.2
 21
-75.58
  0
LINE
  8
0
 10
80.2
 20
-75.58
 11
83.21
 21
-75.58
  0
LINE
  8
0
 10
83.21
 20
-75.58
 11
83.21
 21
-75.53
  0
LINE
  8
0
 10
83.21
 20
-75.53
 11
89.4217
 21
-75.5254
  0
LINE
  8
0
 10
89.4217
 20
-75.5254
 11
89.944
 21
-75.4889
  0
LINE
  8
0
 10
89.944
 20
-75.4889
 11
90.4624
 21
-75.4161
  0
LINE
  8
0
 10
90.4624
 20
-75.4161
 11
90.9744
 21
-75.3072
  0
LINE
  8
0
 10
90.9744
 20
-75.3072
 11
91.4776
 21
-75.1629
  0
LINE
  8
0
 10
91.4776
 20
-75.1629
 11
91.9695
 21
-74.9839
  0
LINE
  8
0
 10
91.9695
 20
-74.9839
 11
92.4478
 21
-74.771
  0
LINE
  8
0
 10
92.4478
 20
-74.771
 11
92.91
 21
-74.5252
  0
LINE
  8
0
 10
92.91
 20
-74.5252
 11
93.3539
 21
-74.2478
  0
LINE
  8
0
 10
93.3539
 20
-74.2478
 11
93.7775
 21
-73.9401
  0
LINE
  8
0
 10
93.7775
 20
-73.9401
 11
94.1785
 21
-73.6036
  0
LINE
  8
0
 10
94.1785
 20
-73.6036
 11
94.555
 21
-73.2399
  0
LINE
  8
0
 10
94.555
 20
-73.2399
 11
94.9053
 21
-72.8509
  0
LINE
  8
0
 10
94.9053
 20
-72.8509
 11
95.2276
 21
-72.4384
  0
LINE
  8
0
 10
95.2276
 20
-72.4384
 11
95.5204
 21
-72.0044
  0
LINE
  8
0
 10
95.5204
 20
-72.0044
 11
95.7821
 21
-71.551
  0
LINE
  8
0
 10
95.7821
 20
-71.551
 11
96.0116
 21
-71.0805
  0
LINE
  8
0
 10
96.0116
 20
-71.0805
 11
96.2077
 21
-70.5952
  0
LINE
  8
0
 10
96.2077
 20
-70.5952
 11
96.3695
 21
-70.0973
  0
LINE
  8
0
 10
96.3695
 20
-70.0973
 11
96.4961
 21
-69.5893
  0
LINE
  8
0
 10
96.4961
 20
-69.5893
 11
96.587
 21
-69.0738
  0
LINE
  8
0
 10
96.587
 20
-69.0738
 11
96.6417
 21
-68.5532
  0
LINE
  8
0
 10
96.6417
 20
-68.5532
 11
96.66
 21
-68.03
  0
LINE
  8
0
 10
96.66
 20
-68.03
 11
96.6417
 21
-67.5068
  0
LINE
  8
0
 10
96.6417
 20
-67.5068
 11
96.587
 21
-66.9862
  0
LINE
  8
0
 10
96.587
 20
-66.9862
 11
96.4961
 21
-66.4707
  0
LINE
  8
0
 10
96.4961
 20
-66.4707
 11
96.3695
 21
-65.9627
  0
LINE
  8
0
 10
96.3695
 20
-65.9627
 11
96.2077
 21
-65.4648
  0
LINE
  8
0
 10
96.2077
 20
-65.4648
 11
96.0116
 21
-64.9795
  0
LINE
  8
0
 10
96.0116
 20
-64.9795
 11
95.7821
 21
-64.509
  0
LINE
  8
0
 10
95.7821
 20
-64.509
 11
95.5204
 21
-64.0556
  0
LINE
  8
0
 10
95.5204
 20
-64.0556
 11
95.2276
 21
-63.6216
  0
LINE
  8
0
 10
95.2276
 20
-63.6216
 11
94.9053
 21
-63.2091
  0
LINE
  8
0
 10
94.9053
 20
-63.2091
 11
94.555
 21
-62.8201
  0
LINE
  8
0
 10
94.555
 20
-62.8201
 11
94.1785
 21
-62.4564
  0
LINE
  8
0
 10
94.1785
 20
-62.4564
 11
93.7775
 21
-62.1199
  0
LINE
  8
0
 10
93.7775
 20
-62.1199
 11
93.3539
 21
-61.8122
  0
LINE
  8
0
 10
93.3539
 20
-61.8122
 11
92.91
 21
-61.5348
  0
LINE
  8
0
 10
92.91
 20
-61.5348
 11
92.4478
 21
-61.289
  0
LINE
  8
0
 10
92.4478
 20
-61.289
 11
91.9695
 21
-61.0761
  0
LINE
  8
0
 10
91.9695
 20
-61.0761
 11
91.4776
 21
-60.8971
  0
LINE
  8
0
 10
91.4776
 20
-60.8971
 11
90.9744
 21
-60.7528
  0
LINE
  8
0
 10
90.9744
 20
-60.7528
 11
90.4624
 21
-60.6439
  0
LINE
  8
0
 10
90.4624
 20
-60.6439
 11
89.944
 21
-60.5711
  0
LINE
  8
0
 10
89.944
 20
-60.5711
 11
89.4217
 21
-60.5346
  0
LINE
  8
0
 10
89.4217
 20
-60.5346
 11
83.21
 21
-60.53
  0
LINE
  8
0
 10
83.21
 20
-60.53
 11
83.21
 21
-60.48
  0
LINE
  8
0
 10
83.21
 20
-60.48
 11
80.2
 21
-60.48
  0
LINE
  8
0
 10
80.2
 20
-60.48
 11
80.2
 21
-59.7782
  0
LINE
  8
0
 10
80.2
 20
-59.7782
 11
80.0946
 21
-59.7782
  0
LINE
  8
0
 10
80.0946
 20
-59.7782
 11
79.8843
 21
-59.7634
  0
LINE
  8
0
 10
79.8843
 20
-59.7634
 11
79.6756
 21
-59.7341
  0
LINE
  8
0
 10
79.6756
 20
-59.7341
 11
79.4694
 21
-59.6903
  0
LINE
  8
0
 10
79.4694
 20
-59.6903
 11
56.8668
 21
-53.2322
  0
LINE
  8
0
 10
56.8668
 20
-53.2322
 11
56.6687
 21
-53.1601
  0
LINE
  8
0
 10
56.6687
 20
-53.1601
 11
56.4761
 21
-53.0744
  0
LINE
  8
0
 10
56.4761
 20
-53.0744
 11
56.29
 21
-52.9754
  0
LINE
  8
0
 10
56.29
 20
-52.9754
 11
56.1112
 21
-52.8637
  0
LINE
  8
0
 10
56.1112
 20
-52.8637
 11
55.9407
 21
-52.7398
  0
LINE
  8
0
 10
55.9407
 20
-52.7398
 11
55.7792
 21
-52.6043
  0
LINE
  8
0
 10
55.7792
 20
-52.6043
 11
55.6276
 21
-52.4579
  0
LINE
  8
0
 10
55.6276
 20
-52.4579
 11
55.4865
 21
-52.3012
  0
LINE
  8
0
 10
55.4865
 20
-52.3012
 11
55.3568
 21
-52.1351
  0
LINE
  8
0
 10
55.3568
 20
-52.1351
 11
55.2389
 21
-51.9604
  0
LINE
  8
0
 10
55.2389
 20
-51.9604
 11
55.1335
 21
-51.7778
  0
LINE
  8
0
 10
55.1335
 20
-51.7778
 11
55.0411
 21
-51.5883
  0
LINE
  8
0
 10
55.0411
 20
-51.5883
 11
54.9621
 21
-51.3929
  0
LINE
  8
0
 10
54.9621
 20
-51.3929
 11
54.897
 21
-51.1924
  0
LINE
  8
0
 10
54.897
 20
-51.1924
 11
54.846
 21
-50.9879
  0
LINE
  8
0
 10
54.846
 20
-50.9879
 11
54.8094
 21
-50.7803
  0
LINE
  8
0
 10
54.8094
 20
-50.7803
 11
54.7874
 21
-50.5707
  0
LINE
  8
0
 10
54.7874
 20
-50.5707
 11
54.78
 21
-50.36
  0
LINE
  8
0
 10
54.78
 20
-50.36
 11
54.78
 21
0.279999
  0
LINE
  8
0
 10
54.78
 20
0.279999
 11
54.7874
 21
0.490662
  0
LINE
  8
0
 10
54.7874
 20
0.490662
 11
54.8094
 21
0.700302
  0
LINE
  8
0
 10
54.8094
 20
0.700302
 11
54.846
 21
0.907883
  0
LINE
  8
0
 10
54.846
 20
0.907883
 11
54.897
 21
1.11241
  0
LINE
  8
0
 10
54.897
 20
1.11241
 11
54.9621
 21
1.3129
  0
LINE
  8
0
 10
54.9621
 20
1.3129
 11
55.0411
 21
1.50833
  0
LINE
  8
0
 10
55.0411
 20
1.50833
 11
55.1335
 21
1.6978
  0
LINE
  8
0
 10
55.1335
 20
1.6978
 11
55.2389
 21
1.88036
  0
LINE
  8
0
 10
55.2389
 20
1.88036
 11
55.3568
 21
2.0551
  0
LINE
  8
0
 10
55.3568
 20
2.0551
 11
55.4865
 21
2.22121
  0
LINE
  8
0
 10
55.4865
 20
2.22121
 11
55.6276
 21
2.37785
  0
LINE
  8
0
 10
55.6276
 20
2.37785
 11
55.7792
 21
2.52429
  0
LINE
  8
0
 10
55.7792
 20
2.52429
 11
55.9407
 21
2.65979
  0
LINE
  8
0
 10
55.9407
 20
2.65979
 11
56.1112
 21
2.78369
  0
LINE
  8
0
 10
56.1112
 20
2.78369
 11
56.29
 21
2.89539
  0
LINE
  8
0
 10
56.29
 20
2.89539
 11
56.4761
 21
2.99435
  0
LINE
  8
0
 10
56.4761
 20
2.99435
 11
56.6687
 21
3.08009
  0
LINE
  8
0
 10
56.6687
 20
3.08009
 11
56.8668
 21
3.15218
  0
LINE
  8
0
 10
56.8668
 20
3.15218
 11
79.4694
 21
9.61029
  0
LINE
  8
0
 10
79.4694
 20
9.61029
 11
79.6756
 21
9.65411
  0
LINE
  8
0
 10
79.6756
 20
9.65411
 11
79.8843
 21
9.68344
  0
LINE
  8
0
 10
79.8843
 20
9.68344
 11
80.0946
 21
9.69815
  0
LINE
  8
0
 10
80.0946
 20
9.69815
 11
80.2
 21
9.69815
  0
LINE
  8
0
 10
80.2
 20
9.69815
 11
80.2
 21
10.4
  0
LINE
  8
0
 10
80.2
 20
10.4
 11
83.21
 21
10.4
  0
LINE
  8
0
 10
83.21
 20
10.4
 11
83.21
 21
10.45
  0
LINE
  8
0
 10
83.21
 20
10.45
 11
89.4217
 21
10.4546
  0
LINE
  8
0
 10
89.4217
 20
10.4546
 11
89.944
 21
10.4911
  0
LINE
  8
0
 10
89.944
 20
10.4911
 11
90.4624
 21
10.5639
  0
LINE
  8
0
 10
90.4624
 20
10.5639
 11
90.9744
 21
10.6728
  0
LINE
  8
0
 10
90.9744
 20
10.6728
 11
91.4776
 21
10.8171
  0
LINE
  8
0
 10
91.4776
 20
10.8171
 11
91.9695
 21
10.9961
  0
LINE
  8
0
 10
91.9695
 20
10.9961
 11
92.4478
 21
11.209
  0
LINE
  8
0
 10
92.4478
 20
11.209
 11
92.91
 21
11.4548
  0
LINE
  8
0
 10
92.91
 20
11.4548
 11
93.3539
 21
11.7322
  0
LINE
  8
0
 10
93.3539
 20
11.7322
 11
93.7775
 21
12.0399
  0
LINE
  8
0
 10
93.7775
 20
12.0399
 11
94.1785
 21
12.3764
  0
LINE
  8
0
 10
94.1785
 20
12.3764
 11
94.555
 21
12.7401
  0
LINE
  8
0
 10
94.555
 20
12.7401
 11
94.9053
 21
13.1291
  0
LINE
  8
0
 10
94.9053
 20
13.1291
 11
95.2276
 21
13.5416
  0
LINE
  8
0
 10
95.2276
 20
13.5416
 11
95.5204
 21
13.9756
  0
LINE
  8
0
 10
95.5204
 20
13.9756
 11
95.7821
 21
14.429
  0
LINE
  8
0
 10
95.7821
 20
14.429
 11
96.0116
 21
14.8995
  0
LINE
  8
0
 10
96.0116
 20
14.8995
 11
96.2077
 21
15.3848
  0
LINE
  8
0
 10
96.2077
 20
15.3848
 11
96.3695
 21
15.8827
  0
LINE
  8
0
 10
96.3695
 20
15.8827
 11
96.4961
 21
16.3907
  0
LINE
  8
0
 10
96.4961
 20
16.3907
 11
96.587
 21
16.9062
  0
LINE
  8
0
 10
96.587
 20
16.9062
 11
96.6417
 21
17.4268
  0
LINE
  8
0
 10
96.6417
 20
17.4268
 11
96.66
 21
17.95
  0
LINE
  8
0
 10
96.66
 20
17.95
 11
96.6417
 21
18.4732
  0
LINE
  8
0
 10
96.6417
 20
18.4732
 11
96.587
 21
18.9938
  0
LINE
  8
0
 10
96.587
 20
18.9938
 11
96.4961
 21
19.5093
  0
LINE
  8
0
 10
96.4961
 20
19.5093
 11
96.3695
 21
20.0173
  0
LINE
  8
0
 10
96.3695
 20
20.0173
 11
96.2077
 21
20.5151
  0
LINE
  8
0
 10
96.2077
 20
20.5151
 11
96.0116
 21
21.0005
  0
LINE
  8
0
 10
96.0116
 20
21.0005
 11
95.7821
 21
21.471
  0
LINE
  8
0
 10
95.7821
 20
21.471
 11
95.5204
 21
21.9244
  0
LINE
  8
0
 10
95.5204
 20
21.9244
 11
95.2276
 21
22.3584
  0
LINE
  8
0
 10
95.2276
 20
22.3584
 11
94.9053
 21
22.7709
  0
LINE
  8
0
 10
94.9053
 20
22.7709
 11
94.555
 21
23.1599
  0
LINE
  8
0
 10
94.555
 20
23.1599
 11
94.1785
 21
23.5236
  0
LINE
  8
0
 10
94.1785
 20
23.5236
 11
93.7775
 21
23.8601
  0
LINE
  8
0
 10
93.7775
 20
23.8601
 11
93.3539
 21
24.1678
  0
LINE
  8
0
 10
93.3539
 20
24.1678
 11
92.91
 21
24.4452
  0
LINE
  8
0
 10
92.91
 20
24.4452
 11
92.4478
 21
24.6909
  0
LINE
  8
0
 10
92.4478
 20
24.6909
 11
91.9695
 21
24.9039
  0
LINE
  8
0
 10
91.9695
 20
24.9039
 11
91.4776
 21
25.0829
  0
LINE
  8
0
 10
91.4776
 20
25.0829
 11
90.9744
 21
25.2272
  0
LINE
  8
0
 10
90.9744
 20
25.2272
 11
90.4624
 21
25.336
  0
LINE
  8
0
 10
90.4624
 20
25.336
 11
89.944
 21
25.4089
  0
LINE
  8
0
 10
89.944
 20
25.4089
 11
89.4217
 21
25.4454
  0
LINE
  8
0
 10
89.4217
 20
25.4454
 11
83.21
 21
25.45
  0
LINE
  8
0
 10
83.21
 20
25.45
 11
83.21
 21
25.5
  0
LINE
  8
0
 10
83.21
 20
25.5
 11
80.2
 21
25.5
  0
LINE
  8
0
 10
80.2
 20
25.5
 11
80.2
 21
32.28
  0
LINE
  8
0
 10
80.2
 20
32.28
 11
80.1803
 21
32.845
  0
LINE
  8
0
 10
80.1803
 20
32.845
 11
80.1212
 21
33.4073
  0
LINE
  8
0
 10
80.1212
 20
33.4073
 11
80.023
 21
33.9641
  0
LINE
  8
0
 10
80.023
 20
33.9641
 11
79.8862
 21
34.5126
  0
LINE
  8
0
 10
79.8862
 20
34.5126
 11
79.7115
 21
35.0504
  0
LINE
  8
0
 10
79.7115
 20
35.0504
 11
79.4997
 21
35.5746
  0
LINE
  8
0
 10
79.4997
 20
35.5746
 11
79.2519
 21
36.0827
  0
LINE
  8
0
 10
79.2519
 20
36.0827
 11
78.9692
 21
36.5723
  0
LINE
  8
0
 10
78.9692
 20
36.5723
 11
78.653
 21
37.0411
  0
LINE
  8
0
 10
78.653
 20
37.0411
 11
78.305
 21
37.4866
  0
LINE
  8
0
 10
78.305
 20
37.4866
 11
77.9267
 21
37.9067
  0
LINE
  8
0
 10
77.9267
 20
37.9067
 11
77.52
 21
38.2995
  0
LINE
  8
0
 10
77.52
 20
38.2995
 11
77.0869
 21
38.6629
  0
LINE
  8
0
 10
77.0869
 20
38.6629
 11
76.6295
 21
38.9952
  0
LINE
  8
0
 10
76.6295
 20
38.9952
 11
76.15
 21
39.2948
  0
LINE
  8
0
 10
76.15
 20
39.2948
 11
75.6508
 21
39.5602
  0
LINE
  8
0
 10
75.6508
 20
39.5602
 11
75.1343
 21
39.7902
  0
LINE
  8
0
 10
75.1343
 20
39.7902
 11
74.603
 21
39.9836
  0
LINE
  8
0
 10
74.603
 20
39.9836
 11
74.0596
 21
40.1394
  0
LINE
  8
0
 10
74.0596
 20
40.1394
 11
73.5065
 21
40.2569
  0
LINE
  8
0
 10
73.5065
 20
40.2569
 11
72.9467
 21
40.3356
  0
LINE
  8
0
 10
72.9467
 20
40.3356
 11
72.3827
 21
40.3751
  0
LINE
  8
0
 10
72.3827
 20
40.3751
 11
61.625
 21
40.3751
  0
LINE
  8
0
 10
61.625
 20
40.3751
 11
61.625
 21
43.39
  0
LINE
  8
0
 10
61.625
 20
43.39
 11
46.525
 21
43.39
  0
LINE
  8
0
 10
46.525
 20
43.39
 11
46.525
 21
40.3751
  0
LINE
  8
0
 10
46.525
 20
40.3751
 11
7.54999
 21
40.3751
  0
LINE
  8
0
 10
7.54999
 20
40.3751
 11
7.54999
 21
43.39
  0
LINE
  8
0
 10
7.54999
 20
43.39
 11
-7.54999
 21
43.39
  0
LINE
  8
0
 10
-7.54999
 20
43.39
 11
-7.54999
 21
40.3751
  0
LINE
  8
0
 10
-7.54999
 20
40.3751
 11
-46.525
 21
40.3751
  0
LINE
  8
0
 10
-46.525
 20
40.3751
 11
-46.525
 21
43.39
  0
LINE
  8
0
 10
-46.525
 20
43.39
 11
-61.625
 21
43.39
  0
LINE
  8
0
 10
-61.625
 20
43.39
 11
-61.625
 21
40.3751
  0
LINE
  8
0
 10
-61.625
 20
40.3751
 11
-72.3827
 21
40.3751
  0
LINE
  8
0
 10
-72.3827
 20
40.3751
 11
-72.9467
 21
40.3356
  0
LINE
  8
0
 10
-72.9467
 20
40.3356
 11
-73.5065
 21
40.2569
  0
LINE
  8
0
 10
-73.5065
 20
40.2569
 11
-74.0596
 21
40.1394
  0
LINE
  8
0
 10
-74.0596
 20
40.1394
 11
-74.603
 21
39.9836
  0
LINE
  8
0
 10
-74.603
 20
39.9836
 11
-75.1343
 21
39.7902
  0
LINE
  8
0
 10
-75.1343
 20
39.7902
 11
-75.6508
 21
39.5602
  0
LINE
  8
0
 10
-75.6508
 20
39.5602
 11
-76.15
 21
39.2948
  0
LINE
  8
0
 10
-76.15
 20
39.2948
 11
-76.6295
 21
38.9952
  0
LINE
  8
0
 10
-76.6295
 20
38.9952
 11
-77.0869
 21
38.6629
  0
LINE
  8
0
 10
-77.0869
 20
38.6629
 11
-77.52
 21
38.2995
  0
LINE
  8
0
 10
-77.52
 20
38.2995
 11
-77.9267
 21
37.9067
  0
LINE
  8
0
 10
-77.9267
 20
37.9067
 11
-78.305
 21
37.4866
  0
LINE
  8
0
 10
-78.305
 20
37.4866
 11
-78.653
 21
37.0411
  0
LINE
  8
0
 10
-78.653
 20
37.0411
 11
-78.9692
 21
36.5723
  0
LINE
  8
0
 10
-78.9692
 20
36.5723
 11
-79.2519
 21
36.0827
  0
LINE
  8
0
 10
-79.2519
 20
36.0827
 11
-79.4997
 21
35.5746
  0
LINE
  8
0
 10
-79.4997
 20
35.5746
 11
-79.7115
 21
35.0504
  0
LINE
  8
0
 10
-79.7115
 20
35.0504
 11
-79.8862
 21
34.5126
  0
LINE
  8
0
 10
-79.8862
 20
34.5126
 11
-80.023
 21
33.9641
  0
LINE
  8
0
 10
-80.023
 20
33.9641
 11
-80.1212
 21
33.4073
  0
LINE
  8
0
 10
-80.1212
 20
33.4073
 11
-80.1803
 21
32.845
  0
LINE
  8
0
 10
-80.1803
 20
32.845
 11
-80.1993
 21
32.3
  0
LINE
  8
0
 10
-80.1993
 20
32.3
 11
-80.18
 21
32.3
  0
LINE
  8
0
 10
-80.18
 20
32.3
 11
-80.18
 21
27.2982
  0
LINE
  8
0
 10
-80.18
 20
27.2982
 11
-80.0946
 21
27.2982
  0
LINE
  8
0
 10
-80.0946
 20
27.2982
 11
-79.8843
 21
27.2834
  0
LINE
  8
0
 10
-79.8843
 20
27.2834
 11
-79.6756
 21
27.2541
  0
LINE
  8
0
 10
-79.6756
 20
27.2541
 11
-57.0694
 21
22.4103
  0
LINE
  8
0
 10
-57.0694
 20
22.4103
 11
-56.8668
 21
22.3522
  0
LINE
  8
0
 10
-56.8668
 20
22.3522
 11
-56.6687
 21
22.2801
  0
LINE
  8
0
 10
-56.6687
 20
22.2801
 11
-56.4761
 21
22.1944
  0
LINE
  8
0
 10
-56.4761
 20
22.1944
 11
-56.29
 21
22.0954
  0
LINE
  8
0
 10
-56.29
 20
22.0954
 11
-56.1112
 21
21.9837
  0
LINE
  8
0
 10
-56.1112
 20
21.9837
 11
-55.9407
 21
21.8598
  0
LINE
  8
0
 10
-55.9407
 20
21.8598
 11
-55.7792
 21
21.7243
  0
LINE
  8
0
 10
-55.7792
 20
21.7243
 11
-55.6276
 21
21.5779
  0
LINE
  8
0
 10
-55.6276
 20
21.5779
 11
-55.4865
 21
21.4212
  0
LINE
  8
0
 10
-55.4865
 20
21.4212
 11
-55.3568
 21
21.2551
  0
LINE
  8
0
 10
-55.3568
 20
21.2551
 11
-55.2389
 21
21.0804
  0
LINE
  8
0
 10
-55.2389
 20
21.0804
 11
-55.1335
 21
20.8978
  0
LINE
  8
0
 10
-55.1335
 20
20.8978
 11
-55.0411
 21
20.7083
  0
LINE
  8
0
 10
-55.0411
 20
20.7083
 11
-54.9621
 21
20.5129
  0
LINE
  8
0
 10
-54.9621
 20
20.5129
 11
-54.897
 21
20.3124
  0
LINE
  8
0
 10
-54.897
 20
20.3124
 11
-54.846
 21
20.1079
  0
LINE
  8
0
 10
-54.846
 20
20.1079
 11
-54.8094
 21
19.9003
  0
LINE
  8
0
 10
-54.8094
 20
19.9003
 11
-54.7874
 21
19.6907
  0
LINE
  8
0
 10
-54.7874
 20
19.6907
 11
-54.78
 21
19.48
  0
LINE
  8
0
 10
-54.78
 20
19.48
 11
-54.78
 21
-34.454
  0
LINE
  8
0
 10
-54.78
 20
-34.454
 11
-47.42
 21
-37.7927
  0
LINE
  8
0
 10
-47.42
 20
-37.7927
 11
-47.42
 21
-36.21
  0
LINE
  8
0
 10
-47.42
 20
-36.21
 11
-45.59
 21
-36.21
  0
LINE
  8
0
 10
-45.59
 20
-36.21
 11
-45.59
 21
-39.23
  0
LINE
  8
0
 10
-45.59
 20
-39.23
 11
-34.21
 21
-39.23
  0
LINE
  8
0
 10
-34.21
 20
-39.23
 11
-34.21
 21
-45.5
  0
LINE
  8
0
 10
-34.21
 20
-45.5
 11
-31.21
 21
-45.5
  0
LINE
  8
0
 10
-31.21
 20
-45.5
 11
-31.21
 21
-51.86
  0
LINE
  8
0
 10
-31.21
 20
-51.86
 11
-45.59
 21
-51.86
  0
LINE
  8
0
 10
-45.59
 20
-51.86
 11
-45.59
 21
-54.88
  0
LINE
  8
0
 10
-45.59
 20
-54.88
 11
-47.42
 21
-54.88
  0
LINE
  8
0
 10
-47.42
 20
-54.88
 11
-47.42
 21
-53.2973
  0
LINE
  8
0
 10
-47.42
 20
-53.2973
 11
-54.78
 21
-56.636
  0
LINE
  8
0
 10
-54.78
 20
-56.636
 11
-54.78
 21
-69.56
  0
LINE
  8
0
 10
-54.78
 20
-69.56
 11
-54.7874
 21
-69.7707
  0
LINE
  8
0
 10
-54.7874
 20
-69.7707
 11
-54.8094
 21
-69.9803
  0
LINE
  8
0
 10
-54.8094
 20
-69.9803
 11
-54.846
 21
-70.1879
  0
LINE
  8
0
 10
-54.846
 20
-70.1879
 11
-54.897
 21
-70.3924
  0
LINE
  8
0
 10
-54.897
 20
-70.3924
 11
-54.9621
 21
-70.5929
  0
LINE
  8
0
 10
-54.9621
 20
-70.5929
 11
-55.0411
 21
-70.7883
  0
LINE
  8
0
 10
-55.0411
 20
-70.7883
 11
-55.1335
 21
-70.9778
  0
LINE
  8
0
 10
-55.1335
 20
-70.9778
 11
-55.2389
 21
-71.1604
  0
LINE
  8
0
 10
-55.2389
 20
-71.1604
 11
-55.3568
 21
-71.3351
  0
LINE
  8
0
 10
-55.3568
 20
-71.3351
 11
-55.4865
 21
-71.5012
  0
LINE
  8
0
 10
-55.4865
 20
-71.5012
 11
-55.6276
 21
-71.6579
  0
LINE
  8
0
 10
-55.6276
 20
-71.6579
 11
-55.7792
 21
-71.8043
  0
LINE
  8
0
 10
-55.7792
 20
-71.8043
 11
-55.9407
 21
-71.9398
  0
LINE
  8
0
 10
-55.9407
 20
-71.9398
 11
-56.1112
 21
-72.0637
  0
LINE
  8
0
 10
-56.1112
 20
-72.0637
 11
-56.29
 21
-72.1754
  0
LINE
  8
0
 10
-56.29
 20
-72.1754
 11
-56.4761
 21
-72.2744
  0
LINE
  8
0
 10
-56.4761
 20
-72.2744
 11
-56.6687
 21
-72.3601
  0
LINE
  8
0
 10
-56.6687
 20
-72.3601
 11
-56.8668
 21
-72.4322
  0
LINE
  8
0
 10
-56.8668
 20
-72.4322
 11
-57.0694
 21
-72.4903
  0
LINE
  8
0
 10
-57.0694
 20
-72.4903
 11
-79.6756
 21
-77.3341
  0
LINE
  8
0
 10
-79.6756
 20
-77.3341
 11
-79.8843
 21
-77.3634
  0
LINE
  8
0
 10
-79.8843
 20
-77.3634
 11
-80.0946
 21
-77.3782
  0
LINE
  8
0
 10
-80.0946
 20
-77.3782
 11
-80.18
 21
-77.3782
  0
LINE
  8
0
 10
-80.18
 20
-77.3782
 11
-80.18
 21
-82.38
  0
LINE
  8
0
 10
-80.18
 20
-82.38
 11
-80.1993
 21
-82.38
  0
LINE
  8
0
 10
-80.1993
 20
-82.38
 11
-80.1803
 21
-82.925
  0
LINE
  8
0
 10
-80.1803
 20
-82.925
 11
-80.1212
 21
-83.4873
  0
LINE
  8
0
 10
-80.1212
 20
-83.4873
 11
-80.023
 21
-84.0441
  0
LINE
  8
0
 10
-80.023
 20
-84.0441
 11
-79.8862
 21
-84.5927
  0
LINE
  8
0
 10
-79.8862
 20
-84.5927
 11
-79.7115
 21
-85.1304
  0
LINE
  8
0
 10
-79.7115
 20
-85.1304
 11
-79.4997
 21
-85.6546
  0
LINE
  8
0
 10
-79.4997
 20
-85.6546
 11
-79.2519
 21
-86.1627
  0
LINE
  8
0
 10
-79.2519
 20
-86.1627
 11
-78.9692
 21
-86.6523
  0
LINE
  8
0
 10
-78.9692
 20
-86.6523
 11
-78.653
 21
-87.1211
  0
LINE
  8
0
 10
-78.653
 20
-87.1211
 11
-78.305
 21
-87.5666
  0
LINE
  8
0
 10
-78.305
 20
-87.5666
 11
-77.9267
 21
-87.9867
  0
LINE
  8
0
 10
-77.9267
 20
-87.9867
 11
-77.52
 21
-88.3795
  0
LINE
  8
0
 10
-77.52
 20
-88.3795
 11
-77.0869
 21
-88.7429
  0
LINE
  8
0
 10
-77.0869
 20
-88.7429
 11
-76.6295
 21
-89.0752
  0
LINE
  8
0
 10
-76.6295
 20
-89.0752
 11
-76.15
 21
-89.3748
  0
LINE
  8
0
 10
-76.15
 20
-89.3748
 11
-75.6508
 21
-89.6402
  0
LINE
  8
0
 10
-75.6508
 20
-89.6402
 11
-75.1343
 21
-89.8702
  0
LINE
  8
0
 10
-75.1343
 20
-89.8702
 11
-74.603
 21
-90.0636
  0
LINE
  8
0
 10
-74.603
 20
-90.0636
 11
-74.0596
 21
-90.2194
  0
LINE
  8
0
 10
-74.0596
 20
-90.2194
 11
-73.5065
 21
-90.3369
  0
LINE
  8
0
 10
-73.5065
 20
-90.3369
 11
-72.9467
 21
-90.4156
  0
LINE
  8
0
 10
-72.9467
 20
-90.4156
 11
-72.3827
 21
-90.4551
  0
LINE
  8
0
 10
-72.3827
 20
-90.4551
 11
-61.625
 21
-90.4551
  0
LINE
  8
0
 10
-61.625
 20
-90.4551
 11
-61.625
 21
-93.47
  0
LINE
  8
0
 10
-61.625
 20
-93.47
 11
-46.525
 21
-93.47
  0
LINE
  8
0
 10
-46.525
 20
-93.47
 11
-46.525
 21
-90.4551
  0
LINE
  8
0
 10
-72.2417
 20
28.2225
 11
-72.5244
 21
28.2422
  0
LINE
  8
0
 10
-72.5244
 20
28.2422
 11
-72.805
 21
28.2817
  0
LINE
  8
0
 10
-72.805
 20
28.2817
 11
-73.0822
 21
28.3406
  0
LINE
  8
0
 10
-73.0822
 20
28.3406
 11
-73.3546
 21
28.4187
  0
LINE
  8
0
 10
-73.3546
 20
28.4187
 11
-73.6209
 21
28.5156
  0
LINE
  8
0
 10
-73.6209
 20
28.5156
 11
-73.8798
 21
28.6309
  0
LINE
  8
0
 10
-73.8798
 20
28.6309
 11
-74.13
 21
28.7639
  0
LINE
  8
0
 10
-74.13
 20
28.7639
 11
-74.3703
 21
28.9141
  0
LINE
  8
0
 10
-74.3703
 20
28.9141
 11
-74.5996
 21
29.0807
  0
LINE
  8
0
 10
-74.5996
 20
29.0807
 11
-74.8167
 21
29.2628
  0
LINE
  8
0
 10
-74.8167
 20
29.2628
 11
-75.0205
 21
29.4597
  0
LINE
  8
0
 10
-75.0205
 20
29.4597
 11
-75.2101
 21
29.6703
  0
LINE
  8
0
 10
-75.2101
 20
29.6703
 11
-75.3846
 21
29.8936
  0
LINE
  8
0
 10
-75.3846
 20
29.8936
 11
-75.5431
 21
30.1285
  0
LINE
  8
0
 10
-75.5431
 20
30.1285
 11
-75.6848
 21
30.3739
  0
LINE
  8
0
 10
-75.6848
 20
30.3739
 11
-75.809
 21
30.6286
  0
LINE
  8
0
 10
-75.809
 20
30.6286
 11
-75.9151
 21
30.8914
  0
LINE
  8
0
 10
-75.9151
 20
30.8914
 11
-76.0027
 21
31.1609
  0
LINE
  8
0
 10
-76.0027
 20
31.1609
 11
-76.0713
 21
31.4359
  0
LINE
  8
0
 10
-76.0713
 20
31.4359
 11
-76.1205
 21
31.715
  0
LINE
  8
0
 10
-76.1205
 20
31.715
 11
-76.1501
 21
31.9968
  0
LINE
  8
0
 10
-76.1501
 20
31.9968
 11
-76.16
 21
32.28
  0
LINE
  8
0
 10
-76.16
 20
32.28
 11
-76.1501
 21
32.5632
  0
LINE
  8
0
 10
-76.1501
 20
32.5632
 11
-76.1205
 21
32.845
  0
LINE
  8
0
 10
-76.1205
 20
32.845
 11
-76.0713
 21
33.1241
  0
LINE
  8
0
 10
-76.0713
 20
33.1241
 11
-76.0027
 21
33.3991
  0
LINE
  8
0
 10
-76.0027
 20
33.3991
 11
-75.9151
 21
33.6686
  0
LINE
  8
0
 10
-75.9151
 20
33.6686
 11
-75.809
 21
33.9314
  0
LINE
  8
0
 10
-75.809
 20
33.9314
 11
-75.6848
 21
34.1861
  0
LINE
  8
0
 10
-75.6848
 20
34.1861
 11
-75.5431
 21
34.4315
  0
LINE
  8
0
 10
-75.5431
 20
34.4315
 11
-75.3846
 21
34.6664
  0
LINE
  8
0
 10
-75.3846
 20
34.6664
 11
-75.2101
 21
34.8897
  0
LINE
  8
0
 10
-75.2101
 20
34.8897
 11
-75.0205
 21
35.1003
  0
LINE
  8
0
 10
-75.0205
 20
35.1003
 11
-74.8167
 21
35.2972
  0
LINE
  8
0
 10
-74.8167
 20
35.2972
 11
-74.5996
 21
35.4793
  0
LINE
  8
0
 10
-74.5996
 20
35.4793
 11
-74.3703
 21
35.6459
  0
LINE
  8
0
 10
-74.3703
 20
35.6459
 11
-74.13
 21
35.7961
  0
LINE
  8
0
 10
-74.13
 20
35.7961
 11
-73.8798
 21
35.9291
  0
LINE
  8
0
 10
-73.8798
 20
35.9291
 11
-73.6209
 21
36.0444
  0
LINE
  8
0
 10
-73.6209
 20
36.0444
 11
-73.3546
 21
36.1413
  0
LINE
  8
0
 10
-73.3546
 20
36.1413
 11
-73.0822
 21
36.2194
  0
LINE
  8
0
 10
-73.0822
 20
36.2194
 11
-72.805
 21
36.2783
  0
LINE
  8
0
 10
-72.805
 20
36.2783
 11
-72.5244
 21
36.3177
  0
LINE
  8
0
 10
-72.5244
 20
36.3177
 11
-72.2417
 21
36.3375
  0
LINE
  8
0
 10
-72.2417
 20
36.3375
 11
-71.9583
 21
36.3375
  0
LINE
  8
0
 10
-71.9583
 20
36.3375
 11
-71.6756
 21
36.3177
  0
LINE
  8
0
 10
-71.6756
 20
36.3177
 11
-71.395
 21
36.2783
  0
LINE
  8
0
 10
-71.395
 20
36.2783
 11
-71.1178
 21
36.2194
  0
LINE
  8
0
 10
-71.1178
 20
36.2194
 11
-70.8454
 21
36.1413
  0
LINE
  8
0
 10
-70.8454
 20
36.1413
 11
-70.5791
 21
36.0444
  0
LINE
  8
0
 10
-70.5791
 20
36.0444
 11
-70.3202
 21
35.9291
  0
LINE
  8
0
 10
-70.3202
 20
35.9291
 11
-70.07
 21
35.7961
  0
LINE
  8
0
 10
-70.07
 20
35.7961
 11
-69.8297
 21
35.6459
  0
LINE
  8
0
 10
-69.8297
 20
35.6459
 11
-69.6004
 21
35.4793
  0
LINE
  8
0
 10
-69.6004
 20
35.4793
 11
-69.3833
 21
35.2972
  0
LINE
  8
0
 10
-69.3833
 20
35.2972
 11
-69.1795
 21
35.1003
  0
LINE
  8
0
 10
-69.1795
 20
35.1003
 11
-68.9899
 21
34.8897
  0
LINE
  8
0
 10
-68.9899
 20
34.8897
 11
-68.8154
 21
34.6664
  0
LINE
  8
0
 10
-68.8154
 20
34.6664
 11
-68.6569
 21
34.4315
  0
LINE
  8
0
 10
-68.6569
 20
34.4315
 11
-68.5152
 21
34.1861
  0
LINE
  8
0
 10
-68.5152
 20
34.1861
 11
-68.391
 21
33.9314
  0
LINE
  8
0
 10
-68.391
 20
33.9314
 11
-68.2849
 21
33.6686
  0
LINE
  8
0
 10
-68.2849
 20
33.6686
 11
-68.1973
 21
33.3991
  0
LINE
  8
0
 10
-68.1973
 20
33.3991
 11
-68.1287
 21
33.1241
  0
LINE
  8
0
 10
-68.1287
 20
33.1241
 11
-68.0795
 21
32.845
  0
LINE
  8
0
 10
-68.0795
 20
32.845
 11
-68.0499
 21
32.5632
  0
LINE
  8
0
 10
-68.0499
 20
32.5632
 11
-68.04
 21
32.28
  0
LINE
  8
0
 10
-68.04
 20
32.28
 11
-68.0499
 21
31.9968
  0
LINE
  8
0
 10
-68.0499
 20
31.9968
 11
-68.0795
 21
31.715
  0
LINE
  8
0
 10
-68.0795
 20
31.715
 11
-68.1287
 21
31.4359
  0
LINE
  8
0
 10
-68.1287
 20
31.4359
 11
-68.1973
 21
31.1609
  0
LINE
  8
0
 10
-68.1973
 20
31.1609
 11
-68.2849
 21
30.8914
  0
LINE
  8
0
 10
-68.2849
 20
30.8914
 11
-68.391
 21
30.6286
  0
LINE
  8
0
 10
-68.391
 20
30.6286
 11
-68.5152
 21
30.3739
  0
LINE
  8
0
 10
-68.5152
 20
30.3739
 11
-68.6569
 21
30.1285
  0
LINE
  8
0
 10
-68.6569
 20
30.1285
 11
-68.8154
 21
29.8936
  0
LINE
  8
0
 10
-68.8154
 20
29.8936
 11
-68.9899
 21
29.6703
  0
LINE
  8
0
 10
-68.9899
 20
29.6703
 11
-69.1795
 21
29.4597
  0
LINE
  8
0
 10
-69.1795
 20
29.4597
 11
-69.3833
 21
29.2628
  0
LINE
  8
0
 10
-69.3833
 20
29.2628
 11
-69.6004
 21
29.0807
  0
LINE
  8
0
 10
-69.6004
 20
29.0807
 11
-69.8297
 21
28.9141
  0
LINE
  8
0
 10
-69.8297
 20
28.9141
 11
-70.07
 21
28.7639
  0
LINE
  8
0
 10
-70.07
 20
28.7639
 11
-70.3202
 21
28.6309
  0
LINE
  8
0
 10
-70.3202
 20
28.6309
 11
-70.5791
 21
28.5156
  0
LINE
  8
0
 10
-70.5791
 20
28.5156
 11
-70.8454
 21
28.4187
  0
LINE
  8
0
 10
-70.8454
 20
28.4187
 11
-71.1178
 21
28.3406
  0
LINE
  8
0
 10
-71.1178
 20
28.3406
 11
-71.395
 21
28.2817
  0
LINE
  8
0
 10
-71.395
 20
28.2817
 11
-71.6756
 21
28.2422
  0
LINE
  8
0
 10
-71.6756
 20
28.2422
 11
-71.9583
 21
28.2225
  0
LINE
  8
0
 10
-71.9583
 20
28.2225
 11
-72.2417
 21
28.2225
  0
LINE
  8
0
 10
71.9583
 20
28.2225
 11
71.6756
 21
28.2422
  0
LINE
  8
0
 10
71.6756
 20
28.2422
 11
71.395
 21
28.2817
  0
LINE
  8
0
 10
71.395
 20
28.2817
 11
71.1178
 21
28.3406
  0
LINE
  8
0
 10
71.1178
 20
28.3406
 11
70.8454
 21
28.4187
  0
LINE
  8
0
 10
70.8454
 20
28.4187
 11
70.5791
 21
28.5156
  0
LINE
  8
0
 10
70.5791
 20
28.5156
 11
70.3202
 21
28.6309
  0
LINE
  8
0
 10
70.3202
 20
28.6309
 11
70.07
 21
28.7639
  0
LINE
  8
0
 10
70.07
 20
28.7639
 11
69.8297
 21
28.9141
  0
LINE
  8
0
 10
69.8297
 20
28.9141
 11
69.6004
 21
29.0807
  0
LINE
  8
0
 10
69.6004
 20
29.0807
 11
69.3833
 21
29.2628
  0
LINE
  8
0
 10
69.3833
 20
29.2628
 11
69.1795
 21
29.4597
  0
LINE
  8
0
 10
69.1795
 20
29.4597
 11
68.9899
 21
29.6703
  0
LINE
  8
0
 10
68.9899
 20
29.6703
 11
68.8154
 21
29.8936
  0
LINE
  8
0
 10
68.8154
 20
29.8936
 11
68.6569
 21
30.1285
  0
LINE
  8
0
 10
68.6569
 20
30.1285
 11
68.5152
 21
30.3739
  0
LINE
  8
0
 10
68.5152
 20
30.3739
 11
68.391
 21
30.6286
  0
LINE
  8
0
 10
68.391
 20
30.6286
 11
68.2849
 21
30.8914
  0
LINE
  8
0
 10
68.2849
 20
30.8914
 11
68.1973
 21
31.1609
  0
LINE
  8
0
 10
68.1973
 20
31.1609
 11
68.1287
 21
31.4359
  0
LINE
  8
0
 10
68.1287
 20
31.4359
 11
68.0795
 21
31.715
  0
LINE
  8
0
 10
68.0795
 20
31.715
 11
68.0499
 21
31.9968
  0
LINE
  8
0
 10
68.0499
 20
31.9968
 11
68.04
 21
32.28
  0
LINE
  8
0
 10
68.04
 20
32.28
 11
68.0499
 21
32.5632
  0
LINE
  8
0
 10
68.0499
 20
32.5632
 11
68.0795
 21
32.845
  0
LINE
  8
0
 10
68.0795
 20
32.845
 11
68.1287
 21
33.1241
  0
LINE
  8
0
 10
68.1287
 20
33.1241
 11
68.1973
 21
33.3991
  0
LINE
  8
0
 10
68.1973
 20
33.3991
 11
68.2849
 21
33.6686
  0
LINE
  8
0
 10
68.2849
 20
33.6686
 11
68.391
 21
33.9314
  0
LINE
  8
0
 10
68.391
 20
33.9314
 11
68.5152
 21
34.1861
  0
LINE
  8
0
 10
68.5152
 20
34.1861
 11
68.6569
 21
34.4315
  0
LINE
  8
0
 10
68.6569
 20
34.4315
 11
68.8154
 21
34.6664
  0
LINE
  8
0
 10
68.8154
 20
34.6664
 11
68.9899
 21
34.8897
  0
LINE
  8
0
 10
68.9899
 20
34.8897
 11
69.1795
 21
35.1003
  0
LINE
  8
0
 10
69.1795
 20
35.1003
 11
69.3833
 21
35.2972
  0
LINE
  8
0
 10
69.3833
 20
35.2972
 11
69.6004
 21
35.4793
  0
LINE
  8
0
 10
69.6004
 20
35.4793
 11
69.8297
 21
35.6459
  0
LINE
  8
0
 10
69.8297
 20
35.6459
 11
70.07
 21
35.7961
  0
LINE
  8
0
 10
70.07
 20
35.7961
 11
70.3202
 21
35.9291
  0
LINE
  8
0
 10
70.3202
 20
35.9291
 11
70.5791
 21
36.0444
  0
LINE
  8
0
 10
70.5791
 20
36.0444
 11
70.8454
 21
36.1413
  0
LINE
  8
0
 10
70.8454
 20
36.1413
 11
71.1178
 21
36.2194
  0
LINE
  8
0
 10
71.1178
 20
36.2194
 11
71.395
 21
36.2783
  0
LINE
  8
0
 10
71.395
 20
36.2783
 11
71.6756
 21
36.3177
  0
LINE
  8
0
 10
71.6756
 20
36.3177
 11
71.9583
 21
36.3375
  0
LINE
  8
0
 10
71.9583
 20
36.3375
 11
72.2417
 21
36.3375
  0
LINE
  8
0
 10
72.2417
 20
36.3375
 11
72.5244
 21
36.3177
  0
LINE
  8
0
 10
72.5244
 20
36.3177
 11
72.805
 21
36.2783
  0
LINE
  8
0
 10
72.805
 20
36.2783
 11
73.0822
 21
36.2194
  0
LINE
  8
0
 10
73.0822
 20
36.2194
 11
73.3546
 21
36.1413
  0
LINE
  8
0
 10
73.3546
 20
36.1413
 11
73.6209
 21
36.0444
  0
LINE
  8
0
 10
73.6209
 20
36.0444
 11
73.8798
 21
35.9291
  0
LINE
  8
0
 10
73.8798
 20
35.9291
 11
74.13
 21
35.7961
  0
LINE
  8
0
 10
74.13
 20
35.7961
 11
74.3703
 21
35.6459
  0
LINE
  8
0
 10
74.3703
 20
35.6459
 11
74.5996
 21
35.4793
  0
LINE
  8
0
 10
74.5996
 20
35.4793
 11
74.8167
 21
35.2972
  0
LINE
  8
0
 10
74.8167
 20
35.2972
 11
75.0205
 21
35.1003
  0
LINE
  8
0
 10
75.0205
 20
35.1003
 11
75.2101
 21
34.8897
  0
LINE
  8
0
 10
75.2101
 20
34.8897
 11
75.3846
 21
34.6664
  0
LINE
  8
0
 10
75.3846
 20
34.6664
 11
75.5431
 21
34.4315
  0
LINE
  8
0
 10
75.5431
 20
34.4315
 11
75.6848
 21
34.1861
  0
LINE
  8
0
 10
75.6848
 20
34.1861
 11
75.809
 21
33.9314
  0
LINE
  8
0
 10
75.809
 20
33.9314
 11
75.9151
 21
33.6686
  0
LINE
  8
0
 10
75.9151
 20
33.6686
 11
76.0027
 21
33.3991
  0
LINE
  8
0
 10
76.0027
 20
33.3991
 11
76.0713
 21
33.1241
  0
LINE
  8
0
 10
76.0713
 20
33.1241
 11
76.1205
 21
32.845
  0
LINE
  8
0
 10
76.1205
 20
32.845
 11
76.1501
 21
32.5632
  0
LINE
  8
0
 10
76.1501
 20
32.5632
 11
76.16
 21
32.28
  0
LINE
  8
0
 10
76.16
 20
32.28
 11
76.1501
 21
31.9968
  0
LINE
  8
0
 10
76.1501
 20
31.9968
 11
76.1205
 21
31.715
  0
LINE
  8
0
 10
76.1205
 20
31.715
 11
76.0713
 21
31.4359
  0
LINE
  8
0
 10
76.0713
 20
31.4359
 11
76.0027
 21
31.1609
  0
LINE
  8
0
 10
76.0027
 20
31.1609
 11
75.9151
 21
30.8914
  0
LINE
  8
0
 10
75.9151
 20
30.8914
 11
75.809
 21
30.6286
  0
LINE
  8
0
 10
75.809
 20
30.6286
 11
75.6848
 21
30.3739
  0
LINE
  8
0
 10
75.6848
 20
30.3739
 11
75.5431
 21
30.1285
  0
LINE
  8
0
 10
75.5431
 20
30.1285
 11
75.3846
 21
29.8936
  0
LINE
  8
0
 10
75.3846
 20
29.8936
 11
75.2101
 21
29.6703
  0
LINE
  8
0
 10
75.2101
 20
29.6703
 11
75.0205
 21
29.4597
  0
LINE
  8
0
 10
75.0205
 20
29.4597
 11
74.8167
 21
29.2628
  0
LINE
  8
0
 10
74.8167
 20
29.2628
 11
74.5996
 21
29.0807
  0
LINE
  8
0
 10
74.5996
 20
29.0807
 11
74.3703
 21
28.9141
  0
LINE
  8
0
 10
74.3703
 20
28.9141
 11
74.13
 21
28.7639
  0
LINE
  8
0
 10
74.13
 20
28.7639
 11
73.8798
 21
28.6309
  0
LINE
  8
0
 10
73.8798
 20
28.6309
 11
73.6209
 21
28.5156
  0
LINE
  8
0
 10
73.6209
 20
28.5156
 11
73.3546
 21
28.4187
  0
LINE
  8
0
 10
73.3546
 20
28.4187
 11
73.0822
 21
28.3406
  0
LINE
  8
0
 10
73.0822
 20
28.3406
 11
72.805
 21
28.2817
  0
LINE
  8
0
 10
72.805
 20
28.2817
 11
72.5244
 21
28.2422
  0
LINE
  8
0
 10
72.5244
 20
28.2422
 11
72.2417
 21
28.2225
  0
LINE
  8
0
 10
72.2417
 20
28.2225
 11
71.9583
 21
28.2225
  0
LINE
  8
0
 10
86.0029
 20
13.4527
 11
85.6896
 21
13.4746
  0
LINE
  8
0
 10
85.6896
 20
13.4746
 11
85.3786
 21
13.5184
  0
LINE
  8
0
 10
85.3786
 20
13.5184
 11
85.0714
 21
13.5837
  0
LINE
  8
0
 10
85.0714
 20
13.5837
 11
84.7694
 21
13.6702
  0
LINE
  8
0
 10
84.7694
 20
13.6702
 11
84.4743
 21
13.7777
  0
LINE
  8
0
 10
84.4743
 20
13.7777
 11
84.1873
 21
13.9054
  0
LINE
  8
0
 10
84.1873
 20
13.9054
 11
83.91
 21
14.0529
  0
LINE
  8
0
 10
83.91
 20
14.0529
 11
83.6436
 21
14.2193
  0
LINE
  8
0
 10
83.6436
 20
14.2193
 11
83.3895
 21
14.4039
  0
LINE
  8
0
 10
83.3895
 20
14.4039
 11
83.21
 21
14.5546
  0
LINE
  8
0
 10
83.21
 20
14.5546
 11
83.21
 21
21.3454
  0
LINE
  8
0
 10
83.21
 20
21.3454
 11
83.3895
 21
21.496
  0
LINE
  8
0
 10
83.3895
 20
21.496
 11
83.6436
 21
21.6807
  0
LINE
  8
0
 10
83.6436
 20
21.6807
 11
83.91
 21
21.8471
  0
LINE
  8
0
 10
83.91
 20
21.8471
 11
84.1873
 21
21.9946
  0
LINE
  8
0
 10
84.1873
 20
21.9946
 11
84.4743
 21
22.1223
  0
LINE
  8
0
 10
84.4743
 20
22.1223
 11
84.7694
 21
22.2298
  0
LINE
  8
0
 10
84.7694
 20
22.2298
 11
85.0714
 21
22.3163
  0
LINE
  8
0
 10
85.0714
 20
22.3163
 11
85.3786
 21
22.3816
  0
LINE
  8
0
 10
85.3786
 20
22.3816
 11
85.6896
 21
22.4253
  0
LINE
  8
0
 10
85.6896
 20
22.4253
 11
86.0029
 21
22.4473
  0
LINE
  8
0
 10
86.0029
 20
22.4473
 11
89.317
 21
22.4473
  0
LINE
  8
0
 10
89.317
 20
22.4473
 11
89.6304
 21
22.4253
  0
LINE
  8
0
 10
89.6304
 20
22.4253
 11
89.9414
 21
22.3816
  0
LINE
  8
0
 10
89.9414
 20
22.3816
 11
90.2486
 21
22.3163
  0
LINE
  8
0
 10
90.2486
 20
22.3163
 11
90.5506
 21
22.2298
  0
LINE
  8
0
 10
90.5506
 20
22.2298
 11
90.8457
 21
22.1223
  0
LINE
  8
0
 10
90.8457
 20
22.1223
 11
91.1327
 21
21.9946
  0
LINE
  8
0
 10
91.1327
 20
21.9946
 11
91.41
 21
21.8471
  0
LINE
  8
0
 10
91.41
 20
21.8471
 11
91.6764
 21
21.6807
  0
LINE
  8
0
 10
91.6764
 20
21.6807
 11
91.9305
 21
21.496
  0
LINE
  8
0
 10
91.9305
 20
21.496
 11
92.1711
 21
21.2941
  0
LINE
  8
0
 10
92.1711
 20
21.2941
 11
92.397
 21
21.076
  0
LINE
  8
0
 10
92.397
 20
21.076
 11
92.6072
 21
20.8425
  0
LINE
  8
0
 10
92.6072
 20
20.8425
 11
92.8006
 21
20.595
  0
LINE
  8
0
 10
92.8006
 20
20.595
 11
92.9762
 21
20.3346
  0
LINE
  8
0
 10
92.9762
 20
20.3346
 11
93.1333
 21
20.0626
  0
LINE
  8
0
 10
93.1333
 20
20.0626
 11
93.271
 21
19.7803
  0
LINE
  8
0
 10
93.271
 20
19.7803
 11
93.3886
 21
19.4891
  0
LINE
  8
0
 10
93.3886
 20
19.4891
 11
93.4857
 21
19.1904
  0
LINE
  8
0
 10
93.4857
 20
19.1904
 11
93.5617
 21
18.8856
  0
LINE
  8
0
 10
93.5617
 20
18.8856
 11
93.6162
 21
18.5763
  0
LINE
  8
0
 10
93.6162
 20
18.5763
 11
93.649
 21
18.2639
  0
LINE
  8
0
 10
93.649
 20
18.2639
 11
93.66
 21
17.95
  0
LINE
  8
0
 10
93.66
 20
17.95
 11
93.649
 21
17.6361
  0
LINE
  8
0
 10
93.649
 20
17.6361
 11
93.6162
 21
17.3237
  0
LINE
  8
0
 10
93.6162
 20
17.3237
 11
93.5617
 21
17.0144
  0
LINE
  8
0
 10
93.5617
 20
17.0144
 11
93.4857
 21
16.7096
  0
LINE
  8
0
 10
93.4857
 20
16.7096
 11
93.3886
 21
16.4109
  0
LINE
  8
0
 10
93.3886
 20
16.4109
 11
93.271
 21
16.1197
  0
LINE
  8
0
 10
93.271
 20
16.1197
 11
93.1333
 21
15.8374
  0
LINE
  8
0
 10
93.1333
 20
15.8374
 11
92.9762
 21
15.5654
  0
LINE
  8
0
 10
92.9762
 20
15.5654
 11
92.8006
 21
15.305
  0
LINE
  8
0
 10
92.8006
 20
15.305
 11
92.6072
 21
15.0574
  0
LINE
  8
0
 10
92.6072
 20
15.0574
 11
92.397
 21
14.824
  0
LINE
  8
0
 10
92.397
 20
14.824
 11
92.1711
 21
14.6058
  0
LINE
  8
0
 10
92.1711
 20
14.6058
 11
91.9305
 21
14.4039
  0
LINE
  8
0
 10
91.9305
 20
14.4039
 11
91.6764
 21
14.2193
  0
LINE
  8
0
 10
91.6764
 20
14.2193
 11
91.41
 21
14.0529
  0
LINE
  8
0
 10
91.41
 20
14.0529
 11
91.1327
 21
13.9054
  0
LINE
  8
0
 10
91.1327
 20
13.9054
 11
90.8457
 21
13.7777
  0
LINE
  8
0
 10
90.8457
 20
13.7777
 11
90.5506
 21
13.6702
  0
LINE
  8
0
 10
90.5506
 20
13.6702
 11
90.2486
 21
13.5837
  0
LINE
  8
0
 10
90.2486
 20
13.5837
 11
89.9414
 21
13.5184
  0
LINE
  8
0
 10
89.9414
 20
13.5184
 11
89.6304
 21
13.4746
  0
LINE
  8
0
 10
89.6304
 20
13.4746
 11
89.317
 21
13.4527
  0
LINE
  8
0
 10
89.317
 20
13.4527
 11
86.0029
 21
13.4527
  0
LINE
  8
0
 10
-22.1417
 20
-4.05753
 11
-22.4244
 21
-4.03775
  0
LINE
  8
0
 10
-22.4244
 20
-4.03775
 11
-22.705
 21
-3.99831
  0
LINE
  8
0
 10
-22.705
 20
-3.99831
 11
-22.9822
 21
-3.93939
  0
LINE
  8
0
 10
-22.9822
 20
-3.93939
 11
-23.2546
 21
-3.86128
  0
LINE
  8
0
 10
-23.2546
 20
-3.86128
 11
-23.5209
 21
-3.76436
  0
LINE
  8
0
 10
-23.5209
 20
-3.76436
 11
-23.7798
 21
-3.64909
  0
LINE
  8
0
 10
-23.7798
 20
-3.64909
 11
-24.03
 21
-3.51605
  0
LINE
  8
0
 10
-24.03
 20
-3.51605
 11
-24.2703
 21
-3.36589
  0
LINE
  8
0
 10
-24.2703
 20
-3.36589
 11
-24.4996
 21
-3.19931
  0
LINE
  8
0
 10
-24.4996
 20
-3.19931
 11
-24.7167
 21
-3.01717
  0
LINE
  8
0
 10
-24.7167
 20
-3.01717
 11
-24.9205
 21
-2.82031
  0
LINE
  8
0
 10
-24.9205
 20
-2.82031
 11
-25.1101
 21
-2.60971
  0
LINE
  8
0
 10
-25.1101
 20
-2.60971
 11
-25.2846
 21
-2.3864
  0
LINE
  8
0
 10
-25.2846
 20
-2.3864
 11
-25.4431
 21
-2.15146
  0
LINE
  8
0
 10
-25.4431
 20
-2.15146
 11
-25.5848
 21
-1.90605
  0
LINE
  8
0
 10
-25.5848
 20
-1.90605
 11
-25.709
 21
-1.65134
  0
LINE
  8
0
 10
-25.709
 20
-1.65134
 11
-25.8151
 21
-1.3886
  0
LINE
  8
0
 10
-25.8151
 20
-1.3886
 11
-25.9027
 21
-1.11908
  0
LINE
  8
0
 10
-25.9027
 20
-1.11908
 11
-25.9713
 21
-0.844116
  0
LINE
  8
0
 10
-25.9713
 20
-0.844116
 11
-26.0205
 21
-0.565033
  0
LINE
  8
0
 10
-26.0205
 20
-0.565033
 11
-26.0501
 21
-0.283203
  0
LINE
  8
0
 10
-26.0501
 20
-0.283203
 11
-26.06
 21
0
  0
LINE
  8
0
 10
-26.06
 20
0
 11
-26.0501
 21
0.283203
  0
LINE
  8
0
 10
-26.0501
 20
0.283203
 11
-26.0205
 21
0.565033
  0
LINE
  8
0
 10
-26.0205
 20
0.565033
 11
-25.9713
 21
0.844116
  0
LINE
  8
0
 10
-25.9713
 20
0.844116
 11
-25.9027
 21
1.11908
  0
LINE
  8
0
 10
-25.9027
 20
1.11908
 11
-25.8151
 21
1.3886
  0
LINE
  8
0
 10
-25.8151
 20
1.3886
 11
-25.709
 21
1.65134
  0
LINE
  8
0
 10
-25.709
 20
1.65134
 11
-25.5848
 21
1.90605
  0
LINE
  8
0
 10
-25.5848
 20
1.90605
 11
-25.4431
 21
2.15146
  0
LINE
  8
0
 10
-25.4431
 20
2.15146
 11
-25.2846
 21
2.3864
  0
LINE
  8
0
 10
-25.2846
 20
2.3864
 11
-25.1101
 21
2.60971
  0
LINE
  8
0
 10
-25.1101
 20
2.60971
 11
-24.9205
 21
2.82031
  0
LINE
  8
0
 10
-24.9205
 20
2.82031
 11
-24.7167
 21
3.01717
  0
LINE
  8
0
 10
-24.7167
 20
3.01717
 11
-24.4996
 21
3.19931
  0
LINE
  8
0
 10
-24.4996
 20
3.19931
 11
-24.2703
 21
3.36589
  0
LINE
  8
0
 10
-24.2703
 20
3.36589
 11
-24.03
 21
3.51605
  0
LINE
  8
0
 10
-24.03
 20
3.51605
 11
-23.7798
 21
3.64909
  0
LINE
  8
0
 10
-23.7798
 20
3.64909
 11
-23.5209
 21
3.76436
  0
LINE
  8
0
 10
-23.5209
 20
3.76436
 11
-23.2546
 21
3.86128
  0
LINE
  8
0
 10
-23.2546
 20
3.86128
 11
-22.9822
 21
3.93939
  0
LINE
  8
0
 10
-22.9822
 20
3.93939
 11
-22.705
 21
3.99831
  0
LINE
  8
0
 10
-22.705
 20
3.99831
 11
-22.4244
 21
4.03775
  0
LINE
  8
0
 10
-22.4244
 20
4.03775
 11
-22.1417
 21
4.05753
  0
LINE
  8
0
 10
-22.1417
 20
4.05753
 11
-21.8583
 21
4.05753
  0
LINE
  8
0
 10
-21.8583
 20
4.05753
 11
-21.5756
 21
4.03775
  0
LINE
  8
0
 10
-21.5756
 20
4.03775
 11
-21.295
 21
3.99831
  0
LINE
  8
0
 10
-21.295
 20
3.99831
 11
-21.0178
 21
3.93939
  0
LINE
  8
0
 10
-21.0178
 20
3.93939
 11
-20.7454
 21
3.86128
  0
LINE
  8
0
 10
-20.7454
 20
3.86128
 11
-20.4791
 21
3.76436
  0
LINE
  8
0
 10
-20.4791
 20
3.76436
 11
-20.2202
 21
3.64909
  0
LINE
  8
0
 10
-20.2202
 20
3.64909
 11
-19.97
 21
3.51605
  0
LINE
  8
0
 10
-19.97
 20
3.51605
 11
-19.7297
 21
3.36589
  0
LINE
  8
0
 10
-19.7297
 20
3.36589
 11
-19.5004
 21
3.19931
  0
LINE
  8
0
 10
-19.5004
 20
3.19931
 11
-19.2833
 21
3.01717
  0
LINE
  8
0
 10
-19.2833
 20
3.01717
 11
-19.0795
 21
2.82031
  0
LINE
  8
0
 10
-19.0795
 20
2.82031
 11
-18.8898
 21
2.60971
  0
LINE
  8
0
 10
-18.8898
 20
2.60971
 11
-18.7154
 21
2.3864
  0
LINE
  8
0
 10
-18.7154
 20
2.3864
 11
-18.5569
 21
2.15146
  0
LINE
  8
0
 10
-18.5569
 20
2.15146
 11
-18.4152
 21
1.90605
  0
LINE
  8
0
 10
-18.4152
 20
1.90605
 11
-18.291
 21
1.65134
  0
LINE
  8
0
 10
-18.291
 20
1.65134
 11
-18.1848
 21
1.3886
  0
LINE
  8
0
 10
-18.1848
 20
1.3886
 11
-18.0973
 21
1.11908
  0
LINE
  8
0
 10
-18.0973
 20
1.11908
 11
-18.0287
 21
0.844116
  0
LINE
  8
0
 10
-18.0287
 20
0.844116
 11
-17.9795
 21
0.565033
  0
LINE
  8
0
 10
-17.9795
 20
0.565033
 11
-17.9499
 21
0.283203
  0
LINE
  8
0
 10
-17.9499
 20
0.283203
 11
-17.94
 21
0
  0
LINE
  8
0
 10
-17.94
 20
0
 11
-17.9499
 21
-0.283203
  0
LINE
  8
0
 10
-17.9499
 20
-0.283203
 11
-17.9795
 21
-0.565033
  0
LINE
  8
0
 10
-17.9795
 20
-0.565033
 11
-18.0287
 21
-0.844116
  0
LINE
  8
0
 10
-18.0287
 20
-0.844116
 11
-18.0973
 21
-1.11908
  0
LINE
  8
0
 10
-18.0973
 20
-1.11908
 11
-18.1848
 21
-1.3886
  0
LINE
  8
0
 10
-18.1848
 20
-1.3886
 11
-18.291
 21
-1.65134
  0
LINE
  8
0
 10
-18.291
 20
-1.65134
 11
-18.4152
 21
-1.90605
  0
LINE
  8
0
 10
-18.4152
 20
-1.90605
 11
-18.5569
 21
-2.15146
  0
LINE
  8
0
 10
-18.5569
 20
-2.15146
 11
-18.7154
 21
-2.3864
  0
LINE
  8
0
 10
-18.7154
 20
-2.3864
 11
-18.8898
 21
-2.60971
  0
LINE
  8
0
 10
-18.8898
 20
-2.60971
 11
-19.0795
 21
-2.82031
  0
LINE
  8
0
 10
-19.0795
 20
-2.82031
 11
-19.2833
 21
-3.01717
  0
LINE
  8
0
 10
-19.2833
 20
-3.01717
 11
-19.5004
 21
-3.19931
  0
LINE
  8
0
 10
-19.5004
 20
-3.19931
 11
-19.7297
 21
-3.36589
  0
LINE
  8
0
 10
-19.7297
 20
-3.36589
 11
-19.97
 21
-3.51605
  0
LINE
  8
0
 10
-19.97
 20
-3.51605
 11
-20.2202
 21
-3.64909
  0
LINE
  8
0
 10
-20.2202
 20
-3.64909
 11
-20.4791
 21
-3.76436
  0
LINE
  8
0
 10
-20.4791
 20
-3.76436
 11
-20.7454
 21
-3.86128
  0
LINE
  8
0
 10
-20.7454
 20
-3.86128
 11
-21.0178
 21
-3.93939
  0
LINE
  8
0
 10
-21.0178
 20
-3.93939
 11
-21.295
 21
-3.99831
  0
LINE
  8
0
 10
-21.295
 20
-3.99831
 11
-21.5756
 21
-4.03775
  0
LINE
  8
0
 10
-21.5756
 20
-4.03775
 11
-21.8583
 21
-4.05753
  0
LINE
  8
0
 10
-21.8583
 20
-4.05753
 11
-22.1417
 21
-4.05753
  0
LINE
  8
0
 10
21.8583
 20
-4.05753
 11
21.5756
 21
-4.03775
  0
LINE
  8
0
 10
21.5756
 20
-4.03775
 11
21.295
 21
-3.99831
  0
LINE
  8
0
 10
21.295
 20
-3.99831
 11
21.0178
 21
-3.93939
  0
LINE
  8
0
 10
21.0178
 20
-3.93939
 11
20.7454
 21
-3.86128
  0
LINE
  8
0
 10
20.7454
 20
-3.86128
 11
20.4791
 21
-3.76436
  0
LINE
  8
0
 10
20.4791
 20
-3.76436
 11
20.2202
 21
-3.64909
  0
LINE
  8
0
 10
20.2202
 20
-3.64909
 11
19.97
 21
-3.51605
  0
LINE
  8
0
 10
19.97
 20
-3.51605
 11
19.7297
 21
-3.36589
  0
LINE
  8
0
 10
19.7297
 20
-3.36589
 11
19.5004
 21
-3.19931
  0
LINE
  8
0
 10
19.5004
 20
-3.19931
 11
19.2833
 21
-3.01717
  0
LINE
  8
0
 10
19.2833
 20
-3.01717
 11
19.0795
 21
-2.82031
  0
LINE
  8
0
 10
19.0795
 20
-2.82031
 11
18.8898
 21
-2.60971
  0
LINE
  8
0
 10
18.8898
 20
-2.60971
 11
18.7154
 21
-2.3864
  0
LINE
  8
0
 10
18.7154
 20
-2.3864
 11
18.5569
 21
-2.15146
  0
LINE
  8
0
 10
18.5569
 20
-2.15146
 11
18.4152
 21
-1.90605
  0
LINE
  8
0
 10
18.4152
 20
-1.90605
 11
18.291
 21
-1.65134
  0
LINE
  8
0
 10
18.291
 20
-1.65134
 11
18.1848
 21
-1.3886
  0
LINE
  8
0
 10
18.1848
 20
-1.3886
 11
18.0973
 21
-1.11908
  0
LINE
  8
0
 10
18.0973
 20
-1.11908
 11
18.0287
 21
-0.844116
  0
LINE
  8
0
 10
18.0287
 20
-0.844116
 11
17.9795
 21
-0.565033
  0
LINE
  8
0
 10
17.9795
 20
-0.565033
 11
17.9499
 21
-0.283203
  0
LINE
  8
0
 10
17.9499
 20
-0.283203
 11
17.94
 21
0
  0
LINE
  8
0
 10
17.94
 20
0
 11
17.9499
 21
0.283203
  0
LINE
  8
0
 10
17.9499
 20
0.283203
 11
17.9795
 21
0.565033
  0
LINE
  8
0
 10
17.9795
 20
0.565033
 11
18.0287
 21
0.844116
  0
LINE
  8
0
 10
18.0287
 20
0.844116
 11
18.0973
 21
1.11908
  0
LINE
  8
0
 10
18.0973
 20
1.11908
 11
18.1848
 21
1.3886
  0
LINE
  8
0
 10
18.1848
 20
1.3886
 11
18.291
 21
1.65134
  0
LINE
  8
0
 10
18.291
 20
1.65134
 11
18.4152
 21
1.90605
  0
LINE
  8
0
 10
18.4152
 20
1.90605
 11
18.5569
 21
2.15146
  0
LINE
  8
0
 10
18.5569
 20
2.15146
 11
18.7154
 21
2.3864
  0
LINE
  8
0
 10
18.7154
 20
2.3864
 11
18.8898
 21
2.60971
  0
LINE
  8
0
 10
18.8898
 20
2.60971
 11
19.0795
 21
2.82031
  0
LINE
  8
0
 10
19.0795
 20
2.82031
 11
19.2833
 21
3.01717
  0
LINE
  8
0
 10
19.2833
 20
3.01717
 11
19.5004
 21
3.19931
  0
LINE
  8
0
 10
19.5004
 20
3.19931
 11
19.7297
 21
3.36589
  0
LINE
  8
0
 10
19.7297
 20
3.36589
 11
19.97
 21
3.51605
  0
LINE
  8
0
 10
19.97
 20
3.51605
 11
20.2202
 21
3.64909
  0
LINE
  8
0
 10
20.2202
 20
3.64909
 11
20.4791
 21
3.76436
  0
LINE
  8
0
 10
20.4791
 20
3.76436
 11
20.7454
 21
3.86128
  0
LINE
  8
0
 10
20.7454
 20
3.86128
 11
21.0178
 21
3.93939
  0
LINE
  8
0
 10
21.0178
 20
3.93939
 11
21.295
 21
3.99831
  0
LINE
  8
0
 10
21.295
 20
3.99831
 11
21.5756
 21
4.03775
  0
LINE
  8
0
 10
21.5756
 20
4.03775
 11
21.8583
 21
4.05753
  0
LINE
  8
0
 10
21.8583
 20
4.05753
 11
22.1417
 21
4.05753
  0
LINE
  8
0
 10
22.1417
 20
4.05753
 11
22.4244
 21
4.03775
  0
LINE
  8
0
 10
22.4244
 20
4.03775
 11
22.705
 21
3.99831
  0
LINE
  8
0
 10
22.705
 20
3.99831
 11
22.9822
 21
3.93939
  0
LINE
  8
0
 10
22.9822
 20
3.93939
 11
23.2546
 21
3.86128
  0
LINE
  8
0
 10
23.2546
 20
3.86128
 11
23.5209
 21
3.76436
  0
LINE
  8
0
 10
23.5209
 20
3.76436
 11
23.7798
 21
3.64909
  0
LINE
  8
0
 10
23.7798
 20
3.64909
 11
24.03
 21
3.51605
  0
LINE
  8
0
 10
24.03
 20
3.51605
 11
24.2703
 21
3.36589
  0
LINE
  8
0
 10
24.2703
 20
3.36589
 11
24.4996
 21
3.19931
  0
LINE
  8
0
 10
24.4996
 20
3.19931
 11
24.7167
 21
3.01717
  0
LINE
  8
0
 10
24.7167
 20
3.01717
 11
24.9205
 21
2.82031
  0
LINE
  8
0
 10
24.9205
 20
2.82031
 11
25.1101
 21
2.60971
  0
LINE
  8
0
 10
25.1101
 20
2.60971
 11
25.2846
 21
2.3864
  0
LINE
  8
0
 10
25.2846
 20
2.3864
 11
25.4431
 21
2.15146
  0
LINE
  8
0
 10
25.4431
 20
2.15146
 11
25.5848
 21
1.90605
  0
LINE
  8
0
 10
25.5848
 20
1.90605
 11
25.709
 21
1.65134
  0
LINE
  8
0
 10
25.709
 20
1.65134
 11
25.8151
 21
1.3886
  0
LINE
  8
0
 10
25.8151
 20
1.3886
 11
25.9027
 21
1.11908
  0
LINE
  8
0
 10
25.9027
 20
1.11908
 11
25.9713
 21
0.844116
  0
LINE
  8
0
 10
25.9713
 20
0.844116
 11
26.0205
 21
0.565033
  0
LINE
  8
0
 10
26.0205
 20
0.565033
 11
26.0501
 21
0.283203
  0
LINE
  8
0
 10
26.0501
 20
0.283203
 11
26.06
 21
0
  0
LINE
  8
0
 10
26.06
 20
0
 11
26.0501
 21
-0.283203
  0
LINE
  8
0
 10
26.0501
 20
-0.283203
 11
26.0205
 21
-0.565033
  0
LINE
  8
0
 10
26.0205
 20
-0.565033
 11
25.9713
 21
-0.844116
  0
LINE
  8
0
 10
25.9713
 20
-0.844116
 11
25.9027
 21
-1.11908
  0
LINE
  8
0
 10
25.9027
 20
-1.11908
 11
25.8151
 21
-1.3886
  0
LINE
  8
0
 10
25.8151
 20
-1.3886
 11
25.709
 21
-1.65134
  0
LINE
  8
0
 10
25.709
 20
-1.65134
 11
25.5848
 21
-1.90605
  0
LINE
  8
0
 10
25.5848
 20
-1.90605
 11
25.4431
 21
-2.15146
  0
LINE
  8
0
 10
25.4431
 20
-2.15146
 11
25.2846
 21
-2.3864
  0
LINE
  8
0
 10
25.2846
 20
-2.3864
 11
25.1101
 21
-2.60971
  0
LINE
  8
0
 10
25.1101
 20
-2.60971
 11
24.9205
 21
-2.82031
  0
LINE
  8
0
 10
24.9205
 20
-2.82031
 11
24.7167
 21
-3.01717
  0
LINE
  8
0
 10
24.7167
 20
-3.01717
 11
24.4996
 21
-3.19931
  0
LINE
  8
0
 10
24.4996
 20
-3.19931
 11
24.2703
 21
-3.36589
  0
LINE
  8
0
 10
24.2703
 20
-3.36589
 11
24.03
 21
-3.51605
  0
LINE
  8
0
 10
24.03
 20
-3.51605
 11
23.7798
 21
-3.64909
  0
LINE
  8
0
 10
23.7798
 20
-3.64909
 11
23.5209
 21
-3.76436
  0
LINE
  8
0
 10
23.5209
 20
-3.76436
 11
23.2546
 21
-3.86128
  0
LINE
  8
0
 10
23.2546
 20
-3.86128
 11
22.9822
 21
-3.93939
  0
LINE
  8
0
 10
22.9822
 20
-3.93939
 11
22.705
 21
-3.99831
  0
LINE
  8
0
 10
22.705
 20
-3.99831
 11
22.4244
 21
-4.03775
  0
LINE
  8
0
 10
22.4244
 20
-4.03775
 11
22.1417
 21
-4.05753
  0
LINE
  8
0
 10
22.1417
 20
-4.05753
 11
21.8583
 21
-4.05753
  0
LINE
  8
0
 10
-0.385986
 20
-59.7733
 11
-1.15608
 21
-59.7194
  0
LINE
  8
0
 10
-1.15608
 20
-59.7194
 11
-1.92055
 21
-59.612
  0
LINE
  8
0
 10
-1.92055
 20
-59.612
 11
-2.67564
 21
-59.4515
  0
LINE
  8
0
 10
-2.67564
 20
-59.4515
 11
-3.41772
 21
-59.2387
  0
LINE
  8
0
 10
-3.41772
 20
-59.2387
 11
-4.14314
 21
-58.9747
  0
LINE
  8
0
 10
-4.14314
 20
-58.9747
 11
-4.84837
 21
-58.6607
  0
LINE
  8
0
 10
-4.84837
 20
-58.6607
 11
-5.53
 21
-58.2982
  0
LINE
  8
0
 10
-5.53
 20
-58.2982
 11
-6.18466
 21
-57.8891
  0
LINE
  8
0
 10
-6.18466
 20
-57.8891
 11
-6.8092
 21
-57.4354
  0
LINE
  8
0
 10
-6.8092
 20
-57.4354
 11
-7.40057
 21
-56.9392
  0
LINE
  8
0
 10
-7.40057
 20
-56.9392
 11
-7.95589
 21
-56.4029
  0
LINE
  8
0
 10
-7.95589
 20
-56.4029
 11
-8.47244
 21
-55.8292
  0
LINE
  8
0
 10
-8.47244
 20
-55.8292
 11
-8.94772
 21
-55.2209
  0
LINE
  8
0
 10
-8.94772
 20
-55.2209
 11
-9.37941
 21
-54.5809
  0
LINE
  8
0
 10
-9.37941
 20
-54.5809
 11
-9.7654
 21
-53.9124
  0
LINE
  8
0
 10
-9.7654
 20
-53.9124
 11
-10.1038
 21
-53.2185
  0
LINE
  8
0
 10
-10.1038
 20
-53.2185
 11
-10.393
 21
-52.5027
  0
LINE
  8
0
 10
-10.393
 20
-52.5027
 11
-10.6315
 21
-51.7685
  0
LINE
  8
0
 10
-10.6315
 20
-51.7685
 11
-10.8183
 21
-51.0195
  0
LINE
  8
0
 10
-10.8183
 20
-51.0195
 11
-10.9524
 21
-50.2592
  0
LINE
  8
0
 10
-10.9524
 20
-50.2592
 11
-11.0331
 21
-49.4915
  0
LINE
  8
0
 10
-11.0331
 20
-49.4915
 11
-11.06
 21
-48.72
  0
LINE
  8
0
 10
-11.06
 20
-48.72
 11
-11.0331
 21
-47.9485
  0
LINE
  8
0
 10
-11.0331
 20
-47.9485
 11
-10.9524
 21
-47.1807
  0
LINE
  8
0
 10
-10.9524
 20
-47.1807
 11
-10.8183
 21
-46.4205
  0
LINE
  8
0
 10
-10.8183
 20
-46.4205
 11
-10.6315
 21
-45.6714
  0
LINE
  8
0
 10
-10.6315
 20
-45.6714
 11
-10.393
 21
-44.9373
  0
LINE
  8
0
 10
-10.393
 20
-44.9373
 11
-10.1038
 21
-44.2215
  0
LINE
  8
0
 10
-10.1038
 20
-44.2215
 11
-9.7654
 21
-43.5276
  0
LINE
  8
0
 10
-9.7654
 20
-43.5276
 11
-9.37941
 21
-42.8591
  0
LINE
  8
0
 10
-9.37941
 20
-42.8591
 11
-8.94772
 21
-42.2191
  0
LINE
  8
0
 10
-8.94772
 20
-42.2191
 11
-8.47244
 21
-41.6108
  0
LINE
  8
0
 10
-8.47244
 20
-41.6108
 11
-7.95589
 21
-41.0371
  0
LINE
  8
0
 10
-7.95589
 20
-41.0371
 11
-7.40057
 21
-40.5008
  0
LINE
  8
0
 10
-7.40057
 20
-40.5008
 11
-6.8092
 21
-40.0046
  0
LINE
  8
0
 10
-6.8092
 20
-40.0046
 11
-6.18466
 21
-39.5508
  0
LINE
  8
0
 10
-6.18466
 20
-39.5508
 11
-5.53
 21
-39.1418
  0
LINE
  8
0
 10
-5.53
 20
-39.1418
 11
-4.84837
 21
-38.7793
  0
LINE
  8
0
 10
-4.84837
 20
-38.7793
 11
-4.14314
 21
-38.4653
  0
LINE
  8
0
 10
-4.14314
 20
-38.4653
 11
-3.41772
 21
-38.2013
  0
LINE
  8
0
 10
-3.41772
 20
-38.2013
 11
-2.67564
 21
-37.9885
  0
LINE
  8
0
 10
-2.67564
 20
-37.9885
 11
-1.92055
 21
-37.828
  0
LINE
  8
0
 10
-1.92055
 20
-37.828
 11
-1.15608
 21
-37.7206
  0
LINE
  8
0
 10
-1.15608
 20
-37.7206
 11
-0.385986
 21
-37.6667
  0
LINE
  8
0
 10
-0.385986
 20
-37.6667
 11
0.385986
 21
-37.6667
  0
LINE
  8
0
 10
0.385986
 20
-37.6667
 11
1.15608
 21
-37.7206
  0
LINE
  8
0
 10
1.15608
 20
-37.7206
 11
1.92055
 21
-37.828
  0
LINE
  8
0
 10
1.92055
 20
-37.828
 11
2.67564
 21
-37.9885
  0
LINE
  8
0
 10
2.67564
 20
-37.9885
 11
3.41772
 21
-38.2013
  0
LINE
  8
0
 10
3.41772
 20
-38.2013
 11
4.14314
 21
-38.4653
  0
LINE
  8
0
 10
4.14314
 20
-38.4653
 11
4.84837
 21
-38.7793
  0
LINE
  8
0
 10
4.84837
 20
-38.7793
 11
5.53
 21
-39.1418
  0
LINE
  8
0
 10
5.53
 20
-39.1418
 11
6.18466
 21
-39.5508
  0
LINE
  8
0
 10
6.18466
 20
-39.5508
 11
6.8092
 21
-40.0046
  0
LINE
  8
0
 10
6.8092
 20
-40.0046
 11
7.40057
 21
-40.5008
  0
LINE
  8
0
 10
7.40057
 20
-40.5008
 11
7.95589
 21
-41.0371
  0
LINE
  8
0
 10
7.95589
 20
-41.0371
 11
8.47244
 21
-41.6108
  0
LINE
  8
0
 10
8.47244
 20
-41.6108
 11
8.94772
 21
-42.2191
  0
LINE
  8
0
 10
8.94772
 20
-42.2191
 11
9.37941
 21
-42.8591
  0
LINE
  8
0
 10
9.37941
 20
-42.8591
 11
9.7654
 21
-43.5276
  0
LINE
  8
0
 10
9.7654
 20
-43.5276
 11
10.1038
 21
-44.2215
  0
LINE
  8
0
 10
10.1038
 20
-44.2215
 11
10.393
 21
-44.9373
  0
LINE
  8
0
 10
10.393
 20
-44.9373
 11
10.6315
 21
-45.6714
  0
LINE
  8
0
 10
10.6315
 20
-45.6714
 11
10.8183
 21
-46.4205
  0
LINE
  8
0
 10
10.8183
 20
-46.4205
 11
10.9524
 21
-47.1807
  0
LINE
  8
0
 10
10.9524
 20
-47.1807
 11
11.0331
 21
-47.9485
  0
LINE
  8
0
 10
11.0331
 20
-47.9485
 11
11.06
 21
-48.72
  0
LINE
  8
0
 10
11.06
 20
-48.72
 11
11.0331
 21
-49.4915
  0
LINE
  8
0
 10
11.0331
 20
-49.4915
 11
10.9524
 21
-50.2592
  0
LINE
  8
0
 10
10.9524
 20
-50.2592
 11
10.8183
 21
-51.0195
  0
LINE
  8
0
 10
10.8183
 20
-51.0195
 11
10.6315
 21
-51.7685
  0
LINE
  8
0
 10
10.6315
 20
-51.7685
 11
10.393
 21
-52.5027
  0
LINE
  8
0
 10
10.393
 20
-52.5027
 11
10.1038
 21
-53.2185
  0
LINE
  8
0
 10
10.1038
 20
-53.2185
 11
9.7654
 21
-53.9124
  0
LINE
  8
0
 10
9.7654
 20
-53.9124
 11
9.37941
 21
-54.5809
  0
LINE
  8
0
 10
9.37941
 20
-54.5809
 11
8.94772
 21
-55.2209
  0
LINE
  8
0
 10
8.94772
 20
-55.2209
 11
8.47244
 21
-55.8292
  0
LINE
  8
0
 10
8.47244
 20
-55.8292
 11
7.95589
 21
-56.4029
  0
LINE
  8
0
 10
7.95589
 20
-56.4029
 11
7.40057
 21
-56.9392
  0
LINE
  8
0
 10
7.40057
 20
-56.9392
 11
6.8092
 21
-57.4354
  0
LINE
  8
0
 10
6.8092
 20
-57.4354
 11
6.18466
 21
-57.8891
  0
LINE
  8
0
 10
6.18466
 20
-57.8891
 11
5.53
 21
-58.2982
  0
LINE
  8
0
 10
5.53
 20
-58.2982
 11
4.84837
 21
-58.6607
  0
LINE
  8
0
 10
4.84837
 20
-58.6607
 11
4.14314
 21
-58.9747
  0
LINE
  8
0
 10
4.14314
 20
-58.9747
 11
3.41772
 21
-59.2387
  0
LINE
  8
0
 10
3.41772
 20
-59.2387
 11
2.67564
 21
-59.4515
  0
LINE
  8
0
 10
2.67564
 20
-59.4515
 11
1.92055
 21
-59.612
  0
LINE
  8
0
 10
1.92055
 20
-59.612
 11
1.15608
 21
-59.7194
  0
LINE
  8
0
 10
1.15608
 20
-59.7194
 11
0.385986
 21
-59.7733
  0
LINE
  8
0
 10
0.385986
 20
-59.7733
 11
-0.385986
 21
-59.7733
  0
LINE
  8
0
 10
86.0029
 20
-72.5273
 11
85.6896
 21
-72.5053
  0
LINE
  8
0
 10
85.6896
 20
-72.5053
 11
85.3786
 21
-72.4616
  0
LINE
  8
0
 10
85.3786
 20
-72.4616
 11
85.0714
 21
-72.3963
  0
LINE
  8
0
 10
85.0714
 20
-72.3963
 11
84.7694
 21
-72.3098
  0
LINE
  8
0
 10
84.7694
 20
-72.3098
 11
84.4743
 21
-72.2023
  0
LINE
  8
0
 10
84.4743
 20
-72.2023
 11
84.1873
 21
-72.0746
  0
LINE
  8
0
 10
84.1873
 20
-72.0746
 11
83.91
 21
-71.9271
  0
LINE
  8
0
 10
83.91
 20
-71.9271
 11
83.6436
 21
-71.7607
  0
LINE
  8
0
 10
83.6436
 20
-71.7607
 11
83.3895
 21
-71.576
  0
LINE
  8
0
 10
83.3895
 20
-71.576
 11
83.21
 21
-71.4254
  0
LINE
  8
0
 10
83.21
 20
-71.4254
 11
83.21
 21
-64.6346
  0
LINE
  8
0
 10
83.21
 20
-64.6346
 11
83.3895
 21
-64.4839
  0
LINE
  8
0
 10
83.3895
 20
-64.4839
 11
83.6436
 21
-64.2993
  0
LINE
  8
0
 10
83.6436
 20
-64.2993
 11
83.91
 21
-64.1329
  0
LINE
  8
0
 10
83.91
 20
-64.1329
 11
84.1873
 21
-63.9854
  0
LINE
  8
0
 10
84.1873
 20
-63.9854
 11
84.4743
 21
-63.8577
  0
LINE
  8
0
 10
84.4743
 20
-63.8577
 11
84.7694
 21
-63.7502
  0
LINE
  8
0
 10
84.7694
 20
-63.7502
 11
85.0714
 21
-63.6637
  0
LINE
  8
0
 10
85.0714
 20
-63.6637
 11
85.3786
 21
-63.5984
  0
LINE
  8
0
 10
85.3786
 20
-63.5984
 11
85.6896
 21
-63.5546
  0
LINE
  8
0
 10
85.6896
 20
-63.5546
 11
86.0029
 21
-63.5327
  0
LINE
  8
0
 10
86.0029
 20
-63.5327
 11
89.317
 21
-63.5327
  0
LINE
  8
0
 10
89.317
 20
-63.5327
 11
89.6304
 21
-63.5546
  0
LINE
  8
0
 10
89.6304
 20
-63.5546
 11
89.9414
 21
-63.5984
  0
LINE
  8
0
 10
89.9414
 20
-63.5984
 11
90.2486
 21
-63.6637
  0
LINE
  8
0
 10
90.2486
 20
-63.6637
 11
90.5506
 21
-63.7502
  0
LINE
  8
0
 10
90.5506
 20
-63.7502
 11
90.8457
 21
-63.8577
  0
LINE
  8
0
 10
90.8457
 20
-63.8577
 11
91.1327
 21
-63.9854
  0
LINE
  8
0
 10
91.1327
 20
-63.9854
 11
91.41
 21
-64.1329
  0
LINE
  8
0
 10
91.41
 20
-64.1329
 11
91.6764
 21
-64.2993
  0
LINE
  8
0
 10
91.6764
 20
-64.2993
 11
91.9305
 21
-64.4839
  0
LINE
  8
0
 10
91.9305
 20
-64.4839
 11
92.1711
 21
-64.6859
  0
LINE
  8
0
 10
92.1711
 20
-64.6859
 11
92.397
 21
-64.904
  0
LINE
  8
0
 10
92.397
 20
-64.904
 11
92.6072
 21
-65.1375
  0
LINE
  8
0
 10
92.6072
 20
-65.1375
 11
92.8006
 21
-65.385
  0
LINE
  8
0
 10
92.8006
 20
-65.385
 11
92.9762
 21
-65.6454
  0
LINE
  8
0
 10
92.9762
 20
-65.6454
 11
93.1333
 21
-65.9174
  0
LINE
  8
0
 10
93.1333
 20
-65.9174
 11
93.271
 21
-66.1997
  0
LINE
  8
0
 10
93.271
 20
-66.1997
 11
93.3886
 21
-66.4909
  0
LINE
  8
0
 10
93.3886
 20
-66.4909
 11
93.4857
 21
-66.7896
  0
LINE
  8
0
 10
93.4857
 20
-66.7896
 11
93.5617
 21
-67.0944
  0
LINE
  8
0
 10
93.5617
 20
-67.0944
 11
93.6162
 21
-67.4037
  0
LINE
  8
0
 10
93.6162
 20
-67.4037
 11
93.649
 21
-67.7161
  0
LINE
  8
0
 10
93.649
 20
-67.7161
 11
93.66
 21
-68.03
  0
LINE
  8
0
 10
93.66
 20
-68.03
 11
93.649
 21
-68.3439
  0
LINE
  8
0
 10
93.649
 20
-68.3439
 11
93.6162
 21
-68.6563
  0
LINE
  8
0
 10
93.6162
 20
-68.6563
 11
93.5617
 21
-68.9656
  0
LINE
  8
0
 10
93.5617
 20
-68.9656
 11
93.4857
 21
-69.2704
  0
LINE
  8
0
 10
93.4857
 20
-69.2704
 11
93.3886
 21
-69.5691
  0
LINE
  8
0
 10
93.3886
 20
-69.5691
 11
93.271
 21
-69.8603
  0
LINE
  8
0
 10
93.271
 20
-69.8603
 11
93.1333
 21
-70.1426
  0
LINE
  8
0
 10
93.1333
 20
-70.1426
 11
92.9762
 21
-70.4146
  0
LINE
  8
0
 10
92.9762
 20
-70.4146
 11
92.8006
 21
-70.675
  0
LINE
  8
0
 10
92.8006
 20
-70.675
 11
92.6072
 21
-70.9225
  0
LINE
  8
0
 10
92.6072
 20
-70.9225
 11
92.397
 21
-71.156
  0
LINE
  8
0
 10
92.397
 20
-71.156
 11
92.1711
 21
-71.3741
  0
LINE
  8
0
 10
92.1711
 20
-71.3741
 11
91.9305
 21
-71.576
  0
LINE
  8
0
 10
91.9305
 20
-71.576
 11
91.6764
 21
-71.7607
  0
LINE
  8
0
 10
91.6764
 20
-71.7607
 11
91.41
 21
-71.9271
  0
LINE
  8
0
 10
91.41
 20
-71.9271
 11
91.1327
 21
-72.0746
  0
LINE
  8
0
 10
91.1327
 20
-72.0746
 11
90.8457
 21
-72.2023
  0
LINE
  8
0
 10
90.8457
 20
-72.2023
 11
90.5506
 21
-72.3098
  0
LINE
  8
0
 10
90.5506
 20
-72.3098
 11
90.2486
 21
-72.3963
  0
LINE
  8
0
 10
90.2486
 20
-72.3963
 11
89.9414
 21
-72.4616
  0
LINE
  8
0
 10
89.9414
 20
-72.4616
 11
89.6304
 21
-72.5053
  0
LINE
  8
0
 10
89.6304
 20
-72.5053
 11
89.317
 21
-72.5273
  0
LINE
  8
0
 10
89.317
 20
-72.5273
 11
86.0029
 21
-72.5273
  0
LINE
  8
0
 10
-0.0872345
 20
-78.6985
 11
-0.261307
 21
-78.6863
  0
LINE
  8
0
 10
-0.261307
 20
-78.6863
 11
-0.434113
 21
-78.662
  0
LINE
  8
0
 10
-0.434113
 20
-78.662
 11
-0.604797
 21
-78.6257
  0
LINE
  8
0
 10
-0.604797
 20
-78.6257
 11
-0.772537
 21
-78.5776
  0
LINE
  8
0
 10
-0.772537
 20
-78.5776
 11
-0.936508
 21
-78.518
  0
LINE
  8
0
 10
-0.936508
 20
-78.518
 11
-1.09592
 21
-78.447
  0
LINE
  8
0
 10
-1.09592
 20
-78.447
 11
-1.25
 21
-78.3651
  0
LINE
  8
0
 10
-1.25
 20
-78.3651
 11
-1.39798
 21
-78.2726
  0
LINE
  8
0
 10
-1.39798
 20
-78.2726
 11
-1.53914
 21
-78.17
  0
LINE
  8
0
 10
-1.53914
 20
-78.17
 11
-1.67282
 21
-78.0579
  0
LINE
  8
0
 10
-1.67282
 20
-78.0579
 11
-1.79834
 21
-77.9366
  0
LINE
  8
0
 10
-1.79834
 20
-77.9366
 11
-1.9151
 21
-77.807
  0
LINE
  8
0
 10
-1.9151
 20
-77.807
 11
-2.02254
 21
-77.6695
  0
LINE
  8
0
 10
-2.02254
 20
-77.6695
 11
-2.12012
 21
-77.5248
  0
LINE
  8
0
 10
-2.12012
 20
-77.5248
 11
-2.20737
 21
-77.3737
  0
LINE
  8
0
 10
-2.20737
 20
-77.3737
 11
-2.28386
 21
-77.2168
  0
LINE
  8
0
 10
-2.28386
 20
-77.2168
 11
-2.34923
 21
-77.0551
  0
LINE
  8
0
 10
-2.34923
 20
-77.0551
 11
-2.40315
 21
-76.8891
  0
LINE
  8
0
 10
-2.40315
 20
-76.8891
 11
-2.44536
 21
-76.7198
  0
LINE
  8
0
 10
-2.44536
 20
-76.7198
 11
-2.47566
 21
-76.5479
  0
LINE
  8
0
 10
-2.47566
 20
-76.5479
 11
-2.4939
 21
-76.3744
  0
LINE
  8
0
 10
-2.4939
 20
-76.3744
 11
-2.5
 21
-76.2
  0
LINE
  8
0
 10
-2.5
 20
-76.2
 11
-2.4939
 21
-76.0256
  0
LINE
  8
0
 10
-2.4939
 20
-76.0256
 11
-2.47566
 21
-75.8521
  0
LINE
  8
0
 10
-2.47566
 20
-75.8521
 11
-2.44536
 21
-75.6802
  0
LINE
  8
0
 10
-2.44536
 20
-75.6802
 11
-2.40315
 21
-75.5109
  0
LINE
  8
0
 10
-2.40315
 20
-75.5109
 11
-2.34923
 21
-75.3449
  0
LINE
  8
0
 10
-2.34923
 20
-75.3449
 11
-2.28386
 21
-75.1832
  0
LINE
  8
0
 10
-2.28386
 20
-75.1832
 11
-2.20737
 21
-75.0263
  0
LINE
  8
0
 10
-2.20737
 20
-75.0263
 11
-2.12012
 21
-74.8752
  0
LINE
  8
0
 10
-2.12012
 20
-74.8752
 11
-2.02254
 21
-74.7305
  0
LINE
  8
0
 10
-2.02254
 20
-74.7305
 11
-1.9151
 21
-74.593
  0
LINE
  8
0
 10
-1.9151
 20
-74.593
 11
-1.79834
 21
-74.4633
  0
LINE
  8
0
 10
-1.79834
 20
-74.4633
 11
-1.67282
 21
-74.3421
  0
LINE
  8
0
 10
-1.67282
 20
-74.3421
 11
-1.53914
 21
-74.23
  0
LINE
  8
0
 10
-1.53914
 20
-74.23
 11
-1.39798
 21
-74.1274
  0
LINE
  8
0
 10
-1.39798
 20
-74.1274
 11
-1.25
 21
-74.0349
  0
LINE
  8
0
 10
-1.25
 20
-74.0349
 11
-1.09592
 21
-73.953
  0
LINE
  8
0
 10
-1.09592
 20
-73.953
 11
-0.936508
 21
-73.882
  0
LINE
  8
0
 10
-0.936508
 20
-73.882
 11
-0.772537
 21
-73.8224
  0
LINE
  8
0
 10
-0.772537
 20
-73.8224
 11
-0.604797
 21
-73.7743
  0
LINE
  8
0
 10
-0.604797
 20
-73.7743
 11
-0.434113
 21
-73.738
  0
LINE
  8
0
 10
-0.434113
 20
-73.738
 11
-0.261307
 21
-73.7137
  0
LINE
  8
0
 10
-0.261307
 20
-73.7137
 11
-0.0872345
 21
-73.7015
  0
LINE
  8
0
 10
-0.0872345
 20
-73.7015
 11
0.0872345
 21
-73.7015
  0
LINE
  8
0
 10
0.0872345
 20
-73.7015
 11
0.261307
 21
-73.7137
  0
LINE
  8
0
 10
0.261307
 20
-73.7137
 11
0.434113
 21
-73.738
  0
LINE
  8
0
 10
0.434113
 20
-73.738
 11
0.604797
 21
-73.7743
  0
LINE
  8
0
 10
0.604797
 20
-73.7743
 11
0.772537
 21
-73.8224
  0
LINE
  8
0
 10
0.772537
 20
-73.8224
 11
0.936508
 21
-73.882
  0
LINE
  8
0
 10
0.936508
 20
-73.882
 11
1.09592
 21
-73.953
  0
LINE
  8
0
 10
1.09592
 20
-73.953
 11
1.24998
 21
-74.0349
  0
LINE
  8
0
 10
1.24998
 20
-74.0349
 11
1.39798
 21
-74.1274
  0
LINE
  8
0
 10
1.39798
 20
-74.1274
 11
1.53914
 21
-74.23
  0
LINE
  8
0
 10
1.53914
 20
-74.23
 11
1.67282
 21
-74.3421
  0
LINE
  8
0
 10
1.67282
 20
-74.3421
 11
1.79834
 21
-74.4633
  0
LINE
  8
0
 10
1.79834
 20
-74.4633
 11
1.9151
 21
-74.593
  0
LINE
  8
0
 10
1.9151
 20
-74.593
 11
2.02254
 21
-74.7305
  0
LINE
  8
0
 10
2.02254
 20
-74.7305
 11
2.12012
 21
-74.8752
  0
LINE
  8
0
 10
2.12012
 20
-74.8752
 11
2.20737
 21
-75.0263
  0
LINE
  8
0
 10
2.20737
 20
-75.0263
 11
2.28386
 21
-75.1832
  0
LINE
  8
0
 10
2.28386
 20
-75.1832
 11
2.34923
 21
-75.3449
  0
LINE
  8
0
 10
2.34923
 20
-75.3449
 11
2.40315
 21
-75.5109
  0
LINE
  8
0
 10
2.40315
 20
-75.5109
 11
2.44536
 21
-75.6802
  0
LINE
  8
0
 10
2.44536
 20
-75.6802
 11
2.47566
 21
-75.8521
  0
LINE
  8
0
 10
2.47566
 20
-75.8521
 11
2.4939
 21
-76.0256
  0
LINE
  8
0
 10
2.4939
 20
-76.0256
 11
2.5
 21
-76.2
  0
LINE
  8
0
 10
2.5
 20
-76.2
 11
2.4939
 21
-76.3744
  0
LINE
  8
0
 10
2.4939
 20
-76.3744
 11
2.47566
 21
-76.5479
  0
LINE
  8
0
 10
2.47566
 20
-76.5479
 11
2.44536
 21
-76.7198
  0
LINE
  8
0
 10
2.44536
 20
-76.7198
 11
2.40315
 21
-76.8891
  0
LINE
  8
0
 10
2.40315
 20
-76.8891
 11
2.34923
 21
-77.0551
  0
LINE
  8
0
 10
2.34923
 20
-77.0551
 11
2.28386
 21
-77.2168
  0
LINE
  8
0
 10
2.28386
 20
-77.2168
 11
2.20737
 21
-77.3737
  0
LINE
  8
0
 10
2.20737
 20
-77.3737
 11
2.12012
 21
-77.5248
  0
LINE
  8
0
 10
2.12012
 20
-77.5248
 11
2.02254
 21
-77.6695
  0
LINE
  8
0
 10
2.02254
 20
-77.6695
 11
1.9151
 21
-77.807
  0
LINE
  8
0
 10
1.9151
 20
-77.807
 11
1.79834
 21
-77.9366
  0
LINE
  8
0
 10
1.79834
 20
-77.9366
 11
1.67282
 21
-78.0579
  0
LINE
  8
0
 10
1.67282
 20
-78.0579
 11
1.53914
 21
-78.17
  0
LINE
  8
0
 10
1.53914
 20
-78.17
 11
1.39798
 21
-78.2726
  0
LINE
  8
0
 10
1.39798
 20
-78.2726
 11
1.25
 21
-78.3651
  0
LINE
  8
0
 10
1.25
 20
-78.3651
 11
1.09592
 21
-78.447
  0
LINE
  8
0
 10
1.09592
 20
-78.447
 11
0.936508
 21
-78.518
  0
LINE
  8
0
 10
0.936508
 20
-78.518
 11
0.772537
 21
-78.5776
  0
LINE
  8
0
 10
0.772537
 20
-78.5776
 11
0.604797
 21
-78.6257
  0
LINE
  8
0
 10
0.604797
 20
-78.6257
 11
0.434113
 21
-78.662
  0
LINE
  8
0
 10
0.434113
 20
-78.662
 11
0.261307
 21
-78.6863
  0
LINE
  8
0
 10
0.261307
 20
-78.6863
 11
0.0872345
 21
-78.6985
  0
LINE
  8
0
 10
0.0872345
 20
-78.6985
 11
-0.0872345
 21
-78.6985
  0
LINE
  8
0
 10
-72.2417
 20
-86.4175
 11
-72.5244
 21
-86.3978
  0
LINE
  8
0
 10
-72.5244
 20
-86.3978
 11
-72.805
 21
-86.3583
  0
LINE
  8
0
 10
-72.805
 20
-86.3583
 11
-73.0822
 21
-86.2994
  0
LINE
  8
0
 10
-73.0822
 20
-86.2994
 11
-73.3546
 21
-86.2213
  0
LINE
  8
0
 10
-73.3546
 20
-86.2213
 11
-73.6209
 21
-86.1244
  0
LINE
  8
0
 10
-73.6209
 20
-86.1244
 11
-73.8798
 21
-86.0091
  0
LINE
  8
0
 10
-73.8798
 20
-86.0091
 11
-74.13
 21
-85.8761
  0
LINE
  8
0
 10
-74.13
 20
-85.8761
 11
-74.3703
 21
-85.7259
  0
LINE
  8
0
 10
-74.3703
 20
-85.7259
 11
-74.5996
 21
-85.5593
  0
LINE
  8
0
 10
-74.5996
 20
-85.5593
 11
-74.8167
 21
-85.3772
  0
LINE
  8
0
 10
-74.8167
 20
-85.3772
 11
-75.0205
 21
-85.1803
  0
LINE
  8
0
 10
-75.0205
 20
-85.1803
 11
-75.2101
 21
-84.9697
  0
LINE
  8
0
 10
-75.2101
 20
-84.9697
 11
-75.3846
 21
-84.7464
  0
LINE
  8
0
 10
-75.3846
 20
-84.7464
 11
-75.5431
 21
-84.5115
  0
LINE
  8
0
 10
-75.5431
 20
-84.5115
 11
-75.6848
 21
-84.2661
  0
LINE
  8
0
 10
-75.6848
 20
-84.2661
 11
-75.809
 21
-84.0114
  0
LINE
  8
0
 10
-75.809
 20
-84.0114
 11
-75.9151
 21
-83.7486
  0
LINE
  8
0
 10
-75.9151
 20
-83.7486
 11
-76.0027
 21
-83.4791
  0
LINE
  8
0
 10
-76.0027
 20
-83.4791
 11
-76.0713
 21
-83.2041
  0
LINE
  8
0
 10
-76.0713
 20
-83.2041
 11
-76.1205
 21
-82.925
  0
LINE
  8
0
 10
-76.1205
 20
-82.925
 11
-76.1501
 21
-82.6432
  0
LINE
  8
0
 10
-76.1501
 20
-82.6432
 11
-76.16
 21
-82.36
  0
LINE
  8
0
 10
-76.16
 20
-82.36
 11
-76.1501
 21
-82.0768
  0
LINE
  8
0
 10
-76.1501
 20
-82.0768
 11
-76.1205
 21
-81.795
  0
LINE
  8
0
 10
-76.1205
 20
-81.795
 11
-76.0713
 21
-81.5159
  0
LINE
  8
0
 10
-76.0713
 20
-81.5159
 11
-76.0027
 21
-81.2409
  0
LINE
  8
0
 10
-76.0027
 20
-81.2409
 11
-75.9151
 21
-80.9714
  0
LINE
  8
0
 10
-75.9151
 20
-80.9714
 11
-75.809
 21
-80.7086
  0
LINE
  8
0
 10
-75.809
 20
-80.7086
 11
-75.6848
 21
-80.4539
  0
LINE
  8
0
 10
-75.6848
 20
-80.4539
 11
-75.5431
 21
-80.2085
  0
LINE
  8
0
 10
-75.5431
 20
-80.2085
 11
-75.3846
 21
-79.9736
  0
LINE
  8
0
 10
-75.3846
 20
-79.9736
 11
-75.2101
 21
-79.7503
  0
LINE
  8
0
 10
-75.2101
 20
-79.7503
 11
-75.0205
 21
-79.5397
  0
LINE
  8
0
 10
-75.0205
 20
-79.5397
 11
-74.8167
 21
-79.3428
  0
LINE
  8
0
 10
-74.8167
 20
-79.3428
 11
-74.5996
 21
-79.1607
  0
LINE
  8
0
 10
-74.5996
 20
-79.1607
 11
-74.3703
 21
-78.9941
  0
LINE
  8
0
 10
-74.3703
 20
-78.9941
 11
-74.13
 21
-78.8439
  0
LINE
  8
0
 10
-74.13
 20
-78.8439
 11
-73.8798
 21
-78.7109
  0
LINE
  8
0
 10
-73.8798
 20
-78.7109
 11
-73.6209
 21
-78.5956
  0
LINE
  8
0
 10
-73.6209
 20
-78.5956
 11
-73.3546
 21
-78.4987
  0
LINE
  8
0
 10
-73.3546
 20
-78.4987
 11
-73.0822
 21
-78.4206
  0
LINE
  8
0
 10
-73.0822
 20
-78.4206
 11
-72.805
 21
-78.3617
  0
LINE
  8
0
 10
-72.805
 20
-78.3617
 11
-72.5244
 21
-78.3222
  0
LINE
  8
0
 10
-72.5244
 20
-78.3222
 11
-72.2417
 21
-78.3025
  0
LINE
  8
0
 10
-72.2417
 20
-78.3025
 11
-71.9583
 21
-78.3025
  0
LINE
  8
0
 10
-71.9583
 20
-78.3025
 11
-71.6756
 21
-78.3222
  0
LINE
  8
0
 10
-71.6756
 20
-78.3222
 11
-71.395
 21
-78.3617
  0
LINE
  8
0
 10
-71.395
 20
-78.3617
 11
-71.1178
 21
-78.4206
  0
LINE
  8
0
 10
-71.1178
 20
-78.4206
 11
-70.8454
 21
-78.4987
  0
LINE
  8
0
 10
-70.8454
 20
-78.4987
 11
-70.5791
 21
-78.5956
  0
LINE
  8
0
 10
-70.5791
 20
-78.5956
 11
-70.3202
 21
-78.7109
  0
LINE
  8
0
 10
-70.3202
 20
-78.7109
 11
-70.07
 21
-78.8439
  0
LINE
  8
0
 10
-70.07
 20
-78.8439
 11
-69.8297
 21
-78.9941
  0
LINE
  8
0
 10
-69.8297
 20
-78.9941
 11
-69.6004
 21
-79.1607
  0
LINE
  8
0
 10
-69.6004
 20
-79.1607
 11
-69.3833
 21
-79.3428
  0
LINE
  8
0
 10
-69.3833
 20
-79.3428
 11
-69.1795
 21
-79.5397
  0
LINE
  8
0
 10
-69.1795
 20
-79.5397
 11
-68.9899
 21
-79.7503
  0
LINE
  8
0
 10
-68.9899
 20
-79.7503
 11
-68.8154
 21
-79.9736
  0
LINE
  8
0
 10
-68.8154
 20
-79.9736
 11
-68.6569
 21
-80.2085
  0
LINE
  8
0
 10
-68.6569
 20
-80.2085
 11
-68.5152
 21
-80.4539
  0
LINE
  8
0
 10
-68.5152
 20
-80.4539
 11
-68.391
 21
-80.7086
  0
LINE
  8
0
 10
-68.391
 20
-80.7086
 11
-68.2849
 21
-80.9714
  0
LINE
  8
0
 10
-68.2849
 20
-80.9714
 11
-68.1973
 21
-81.2409
  0
LINE
  8
0
 10
-68.1973
 20
-81.2409
 11
-68.1287
 21
-81.5159
  0
LINE
  8
0
 10
-68.1287
 20
-81.5159
 11
-68.0795
 21
-81.795
  0
LINE
  8
0
 10
-68.0795
 20
-81.795
 11
-68.0499
 21
-82.0768
  0
LINE
  8
0
 10
-68.0499
 20
-82.0768
 11
-68.04
 21
-82.36
  0
LINE
  8
0
 10
-68.04
 20
-82.36
 11
-68.0499
 21
-82.6432
  0
LINE
  8
0
 10
-68.0499
 20
-82.6432
 11
-68.0795
 21
-82.925
  0
LINE
  8
0
 10
-68.0795
 20
-82.925
 11
-68.1287
 21
-83.2041
  0
LINE
  8
0
 10
-68.1287
 20
-83.2041
 11
-68.1973
 21
-83.4791
  0
LINE
  8
0
 10
-68.1973
 20
-83.4791
 11
-68.2849
 21
-83.7486
  0
LINE
  8
0
 10
-68.2849
 20
-83.7486
 11
-68.391
 21
-84.0114
  0
LINE
  8
0
 10
-68.391
 20
-84.0114
 11
-68.5152
 21
-84.2661
  0
LINE
  8
0
 10
-68.5152
 20
-84.2661
 11
-68.6569
 21
-84.5115
  0
LINE
  8
0
 10
-68.6569
 20
-84.5115
 11
-68.8154
 21
-84.7464
  0
LINE
  8
0
 10
-68.8154
 20
-84.7464
 11
-68.9899
 21
-84.9697
  0
LINE
  8
0
 10
-68.9899
 20
-84.9697
 11
-69.1795
 21
-85.1803
  0
LINE
  8
0
 10
-69.1795
 20
-85.1803
 11
-69.3833
 21
-85.3772
  0
LINE
  8
0
 10
-69.3833
 20
-85.3772
 11
-69.6004
 21
-85.5593
  0
LINE
  8
0
 10
-69.6004
 20
-85.5593
 11
-69.8297
 21
-85.7259
  0
LINE
  8
0
 10
-69.8297
 20
-85.7259
 11
-70.07
 21
-85.8761
  0
LINE
  8
0
 10
-70.07
 20
-85.8761
 11
-70.3202
 21
-86.0091
  0
LINE
  8
0
 10
-70.3202
 20
-86.0091
 11
-70.5791
 21
-86.1244
  0
LINE
  8
0
 10
-70.5791
 20
-86.1244
 11
-70.8454
 21
-86.2213
  0
LINE
  8
0
 10
-70.8454
 20
-86.2213
 11
-71.1178
 21
-86.2994
  0
LINE
  8
0
 10
-71.1178
 20
-86.2994
 11
-71.395
 21
-86.3583
  0
LINE
  8
0
 10
-71.395
 20
-86.3583
 11
-71.6756
 21
-86.3978
  0
LINE
  8
0
 10
-71.6756
 20
-86.3978
 11
-71.9583
 21
-86.4175
  0
LINE
  8
0
 10
-71.9583
 20
-86.4175
 11
-72.2417
 21
-86.4175
  0
LINE
  8
0
 10
71.9583
 20
-86.4175
 11
71.6756
 21
-86.3978
  0
LINE
  8
0
 10
71.6756
 20
-86.3978
 11
71.395
 21
-86.3583
  0
LINE
  8
0
 10
71.395
 20
-86.3583
 11
71.1178
 21
-86.2994
  0
LINE
  8
0
 10
71.1178
 20
-86.2994
 11
70.8454
 21
-86.2213
  0
LINE
  8
0
 10
70.8454
 20
-86.2213
 11
70.5791
 21
-86.1244
  0
LINE
  8
0
 10
70.5791
 20
-86.1244
 11
70.3202
 21
-86.0091
  0
LINE
  8
0
 10
70.3202
 20
-86.0091
 11
70.07
 21
-85.8761
  0
LINE
  8
0
 10
70.07
 20
-85.8761
 11
69.8297
 21
-85.7259
  0
LINE
  8
0
 10
69.8297
 20
-85.7259
 11
69.6004
 21
-85.5593
  0
LINE
  8
0
 10
69.6004
 20
-85.5593
 11
69.3833
 21
-85.3772
  0
LINE
  8
0
 10
69.3833
 20
-85.3772
 11
69.1795
 21
-85.1803
  0
LINE
  8
0
 10
69.1795
 20
-85.1803
 11
68.9899
 21
-84.9697
  0
LINE
  8
0
 10
68.9899
 20
-84.9697
 11
68.8154
 21
-84.7464
  0
LINE
  8
0
 10
68.8154
 20
-84.7464
 11
68.6569
 21
-84.5115
  0
LINE
  8
0
 10
68.6569
 20
-84.5115
 11
68.5152
 21
-84.2661
  0
LINE
  8
0
 10
68.5152
 20
-84.2661
 11
68.391
 21
-84.0114
  0
LINE
  8
0
 10
68.391
 20
-84.0114
 11
68.2849
 21
-83.7486
  0
LINE
  8
0
 10
68.2849
 20
-83.7486
 11
68.1973
 21
-83.4791
  0
LINE
  8
0
 10
68.1973
 20
-83.4791
 11
68.1287
 21
-83.2041
  0
LINE
  8
0
 10
68.1287
 20
-83.2041
 11
68.0795
 21
-82.925
  0
LINE
  8
0
 10
68.0795
 20
-82.925
 11
68.0499
 21
-82.6432
  0
LINE
  8
0
 10
68.0499
 20
-82.6432
 11
68.04
 21
-82.36
  0
LINE
  8
0
 10
68.04
 20
-82.36
 11
68.0499
 21
-82.0768
  0
LINE
  8
0
 10
68.0499
 20
-82.0768
 11
68.0795
 21
-81.795
  0
LINE
  8
0
 10
68.0795
 20
-81.795
 11
68.1287
 21
-81.5159
  0
LINE
  8
0
 10
68.1287
 20
-81.5159
 11
68.1973
 21
-81.2409
  0
LINE
  8
0
 10
68.1973
 20
-81.2409
 11
68.2849
 21
-80.9714
  0
LINE
  8
0
 10
68.2849
 20
-80.9714
 11
68.391
 21
-80.7086
  0
LINE
  8
0
 10
68.391
 20
-80.7086
 11
68.5152
 21
-80.4539
  0
LINE
  8
0
 10
68.5152
 20
-80.4539
 11
68.6569
 21
-80.2085
  0
LINE
  8
0
 10
68.6569
 20
-80.2085
 11
68.8154
 21
-79.9736
  0
LINE
  8
0
 10
68.8154
 20
-79.9736
 11
68.9899
 21
-79.7503
  0
LINE
  8
0
 10
68.9899
 20
-79.7503
 11
69.1795
 21
-79.5397
  0
LINE
  8
0
 10
69.1795
 20
-79.5397
 11
69.3833
 21
-79.3428
  0
LINE
  8
0
 10
69.3833
 20
-79.3428
 11
69.6004
 21
-79.1607
  0
LINE
  8
0
 10
69.6004
 20
-79.1607
 11
69.8297
 21
-78.9941
  0
LINE
  8
0
 10
69.8297
 20
-78.9941
 11
70.07
 21
-78.8439
  0
LINE
  8
0
 10
70.07
 20
-78.8439
 11
70.3202
 21
-78.7109
  0
LINE
  8
0
 10
70.3202
 20
-78.7109
 11
70.5791
 21
-78.5956
  0
LINE
  8
0
 10
70.5791
 20
-78.5956
 11
70.8454
 21
-78.4987
  0
LINE
  8
0
 10
70.8454
 20
-78.4987
 11
71.1178
 21
-78.4206
  0
LINE
  8
0
 10
71.1178
 20
-78.4206
 11
71.395
 21
-78.3617
  0
LINE
  8
0
 10
71.395
 20
-78.3617
 11
71.6756
 21
-78.3222
  0
LINE
  8
0
 10
71.6756
 20
-78.3222
 11
71.9583
 21
-78.3025
  0
LINE
  8
0
 10
71.9583
 20
-78.3025
 11
72.2417
 21
-78.3025
  0
LINE
  8
0
 10
72.2417
 20
-78.3025
 11
72.5244
 21
-78.3222
  0
LINE
  8
0
 10
72.5244
 20
-78.3222
 11
72.805
 21
-78.3617
  0
LINE
  8
0
 10
72.805
 20
-78.3617
 11
73.0822
 21
-78.4206
  0
LINE
  8
0
 10
73.0822
 20
-78.4206
 11
73.3546
 21
-78.4987
  0
LINE
  8
0
 10
73.3546
 20
-78.4987
 11
73.6209
 21
-78.5956
  0
LINE
  8
0
 10
73.6209
 20
-78.5956
 11
73.8798
 21
-78.7109
  0
LINE
  8
0
 10
73.8798
 20
-78.7109
 11
74.13
 21
-78.8439
  0
LINE
  8
0
 10
74.13
 20
-78.8439
 11
74.3703
 21
-78.9941
  0
LINE
  8
0
 10
74.3703
 20
-78.9941
 11
74.5996
 21
-79.1607
  0
LINE
  8
0
 10
74.5996
 20
-79.1607
 11
74.8167
 21
-79.3428
  0
LINE
  8
0
 10
74.8167
 20
-79.3428
 11
75.0205
 21
-79.5397
  0
LINE
  8
0
 10
75.0205
 20
-79.5397
 11
75.2101
 21
-79.7503
  0
LINE
  8
0
 10
75.2101
 20
-79.7503
 11
75.3846
 21
-79.9736
  0
LINE
  8
0
 10
75.3846
 20
-79.9736
 11
75.5431
 21
-80.2085
  0
LINE
  8
0
 10
75.5431
 20
-80.2085
 11
75.6848
 21
-80.4539
  0
LINE
  8
0
 10
75.6848
 20
-80.4539
 11
75.809
 21
-80.7086
  0
LINE
  8
0
 10
75.809
 20
-80.7086
 11
75.9151
 21
-80.9714
  0
LINE
  8
0
 10
75.9151
 20
-80.9714
 11
76.0027
 21
-81.2409
  0
LINE
  8
0
 10
76.0027
 20
-81.2409
 11
76.0713
 21
-81.5159
  0
LINE
  8
0
 10
76.0713
 20
-81.5159
 11
76.1205
 21
-81.795
  0
LINE
  8
0
 10
76.1205
 20
-81.795
 11
76.1501
 21
-82.0768
  0
LINE
  8
0
 10
76.1501
 20
-82.0768
 11
76.16
 21
-82.36
  0
LINE
  8
0
 10
76.16
 20
-82.36
 11
76.1501
 21
-82.6432
  0
LINE
  8
0
 10
76.1501
 20
-82.6432
 11
76.1205
 21
-82.925
  0
LINE
  8
0
 10
76.1205
 20
-82.925
 11
76.0713
 21
-83.2041
  0
LINE
  8
0
 10
76.0713
 20
-83.2041
 11
76.0027
 21
-83.4791
  0
LINE
  8
0
 10
76.0027
 20
-83.4791
 11
75.9151
 21
-83.7486
  0
LINE
  8
0
 10
75.9151
 20
-83.7486
 11
75.809
 21
-84.0114
  0
LINE
  8
0
 10
75.809
 20
-84.0114
 11
75.6848
 21
-84.2661
  0
LINE
  8
0
 10
75.6848
 20
-84.2661
 11
75.5431
 21
-84.5115
  0
LINE
  8
0
 10
75.5431
 20
-84.5115
 11
75.3846
 21
-84.7464
  0
LINE
  8
0
 10
75.3846
 20
-84.7464
 11
75.2101
 21
-84.9697
  0
LINE
  8
0
 10
75.2101
 20
-84.9697
 11
75.0205
 21
-85.1803
  0
LINE
  8
0
 10
75.0205
 20
-85.1803
 11
74.8167
 21
-85.3772
  0
LINE
  8
0
 10
74.8167
 20
-85.3772
 11
74.5996
 21
-85.5593
  0
LINE
  8
0
 10
74.5996
 20
-85.5593
 11
74.3703
 21
-85.7259
  0
LINE
  8
0
 10
74.3703
 20
-85.7259
 11
74.13
 21
-85.8761
  0
LINE
  8
0
 10
74.13
 20
-85.8761
 11
73.8798
 21
-86.0091
  0
LINE
  8
0
 10
73.8798
 20
-86.0091
 11
73.6209
 21
-86.1244
  0
LINE
  8
0
 10
73.6209
 20
-86.1244
 11
73.3546
 21
-86.2213
  0
LINE
  8
0
 10
73.3546
 20
-86.2213
 11
73.0822
 21
-86.2994
  0
LINE
  8
0
 10
73.0822
 20
-86.2994
 11
72.805
 21
-86.3583
  0
LINE
  8
0
 10
72.805
 20
-86.3583
 11
72.5244
 21
-86.3978
  0
LINE
  8
0
 10
72.5244
 20
-86.3978
 11
72.2417
 21
-86.4175
  0
LINE
  8
0
 10
72.2417
 20
-86.4175
 11
71.9583
 21
-86.4175
  0
ENDSEC
  0
SECTION
  2
OBJECTS
  0
DICTIONARY
  0
ENDSEC
  0
EOF
