  0
SECTION
  2
BLOCKS
  0
ENDSEC
  0
SECTION
  2
ENTITIES
  0
LINE
  8
0
 10
-60.54
 20
97.98
 11
-60.4775
 21
93.684
  0
LINE
  8
0
 10
-60.4775
 20
93.684
 11
-60.2901
 21
89.3933
  0
LINE
  8
0
 10
-60.2901
 20
89.3933
 11
-59.9781
 21
85.113
  0
LINE
  8
0
 10
-59.9781
 20
85.113
 11
-59.5417
 21
80.8483
  0
LINE
  8
0
 10
-59.5417
 20
80.8483
 11
-58.9816
 21
76.6046
  0
LINE
  8
0
 10
-58.9816
 20
76.6046
 11
-58.2984
 21
72.3869
  0
LINE
  8
0
 10
-58.2984
 20
72.3869
 11
-57.4929
 21
68.2004
  0
LINE
  8
0
 10
-57.4929
 20
68.2004
 11
-56.5662
 21
64.0501
  0
LINE
  8
0
 10
-56.5662
 20
64.0501
 11
-55.5194
 21
59.9412
  0
LINE
  8
0
 10
-55.5194
 20
59.9412
 11
-54.3537
 21
55.8787
  0
LINE
  8
0
 10
-54.3537
 20
55.8787
 11
-53.0705
 21
51.8674
  0
LINE
  8
0
 10
-53.0705
 20
51.8674
 11
-51.6715
 21
47.9123
  0
LINE
  8
0
 10
-51.6715
 20
47.9123
 11
-50.1625
 21
44.0291
  0
LINE
  8
0
 10
-50.1625
 20
44.0291
 11
-50.1782
 21
44.0199
  0
LINE
  8
0
 10
-50.1782
 20
44.0199
 11
-49.7593
 21
43.0786
  0
LINE
  8
0
 10
-49.7593
 20
43.0786
 11
-48.5328
 21
40.1899
  0
LINE
  8
0
 10
-48.5328
 20
40.1899
 11
-46.917
 21
36.692
  0
LINE
  8
0
 10
-46.917
 20
36.692
 11
7.9
 21
-86.48
  0
LINE
  8
0
 10
7.9
 20
-86.48
 11
14.8258
 21
-87.9849
  0
LINE
  8
0
 10
14.8258
 20
-87.9849
 11
15.0443
 21
-88.0314
  0
LINE
  8
0
 10
15.0443
 20
-88.0314
 11
15.2655
 21
-88.0625
  0
LINE
  8
0
 10
15.2655
 20
-88.0625
 11
15.4883
 21
-88.0781
  0
LINE
  8
0
 10
15.4883
 20
-88.0781
 11
15.7117
 21
-88.0781
  0
LINE
  8
0
 10
15.7117
 20
-88.0781
 11
15.9345
 21
-88.0625
  0
LINE
  8
0
 10
15.9345
 20
-88.0625
 11
16.1557
 21
-88.0314
  0
LINE
  8
0
 10
16.1557
 20
-88.0314
 11
16.3741
 21
-87.9849
  0
LINE
  8
0
 10
16.3741
 20
-87.9849
 11
16.5889
 21
-87.9234
  0
LINE
  8
0
 10
16.5889
 20
-87.9234
 11
21.6
 21
-86.48
  0
LINE
  8
0
 10
21.6
 20
-86.48
 11
21.6
 21
-81.6796
  0
LINE
  8
0
 10
21.6
 20
-81.6796
 11
20.8481
 21
-81.6796
  0
LINE
  8
0
 10
20.8481
 20
-81.6796
 11
18.5946
 21
-81.2006
  0
LINE
  8
0
 10
18.5946
 20
-81.2006
 11
16.49
 21
-80.2636
  0
LINE
  8
0
 10
16.49
 20
-80.2636
 11
14.6262
 21
-78.9095
  0
LINE
  8
0
 10
14.6262
 20
-78.9095
 11
13.0846
 21
-77.1974
  0
LINE
  8
0
 10
13.0846
 20
-77.1974
 11
11.9327
 21
-75.2022
  0
LINE
  8
0
 10
11.9327
 20
-75.2022
 11
11.2208
 21
-73.0112
  0
LINE
  8
0
 10
11.2208
 20
-73.0112
 11
11.2208
 21
-73.0112
  0
LINE
  8
0
 10
11.2208
 20
-73.0112
 11
10.98
 21
-70.72
  0
LINE
  8
0
 10
10.98
 20
-70.72
 11
10.98
 21
-70.72
  0
LINE
  8
0
 10
10.98
 20
-70.72
 11
10.98
 21
-70.72
  0
LINE
  8
0
 10
10.98
 20
-70.72
 11
11.2208
 21
-68.4288
  0
LINE
  8
0
 10
11.2208
 20
-68.4288
 11
11.2592
 21
-68.3105
  0
LINE
  8
0
 10
11.2592
 20
-68.3105
 11
11.2604
 21
-68.3007
  0
LINE
  8
0
 10
11.2604
 20
-68.3007
 11
11.2604
 21
-68.2294
  0
LINE
  8
0
 10
11.2604
 20
-68.2294
 11
11.2944
 21
-68.0692
  0
LINE
  8
0
 10
11.2944
 20
-68.0692
 11
11.2961
 21
-67.9303
  0
LINE
  8
0
 10
11.2961
 20
-67.9303
 11
11.3291
 21
-67.7834
  0
LINE
  8
0
 10
11.3291
 20
-67.7834
 11
11.3327
 21
-67.6268
  0
LINE
  8
0
 10
11.3327
 20
-67.6268
 11
11.3643
 21
-67.4936
  0
LINE
  8
0
 10
11.3643
 20
-67.4936
 11
11.3704
 21
-67.3189
  0
LINE
  8
0
 10
11.3704
 20
-67.3189
 11
11.4001
 21
-67.1997
  0
LINE
  8
0
 10
11.4001
 20
-67.1997
 11
11.4091
 21
-67.0067
  0
LINE
  8
0
 10
11.4091
 20
-67.0067
 11
11.4192
 21
-66.9682
  0
LINE
  8
0
 10
11.4192
 20
-66.9682
 11
11.4438
 21
-66.7768
  0
LINE
  8
0
 10
11.4438
 20
-66.7768
 11
11.4455
 21
-66.7467
  0
LINE
  8
0
 10
11.4455
 20
-66.7467
 11
11.4379
 21
-66.6376
  0
LINE
  8
0
 10
11.4379
 20
-66.6376
 11
11.4684
 21
-66.4209
  0
LINE
  8
0
 10
11.4684
 20
-66.4209
 11
11.4604
 21
-66.2838
  0
LINE
  8
0
 10
11.4604
 20
-66.2838
 11
11.4914
 21
-66.0806
  0
LINE
  8
0
 10
11.4914
 20
-66.0806
 11
11.4842
 21
-65.9256
  0
LINE
  8
0
 10
11.4842
 20
-65.9256
 11
11.5153
 21
-65.7362
  0
LINE
  8
0
 10
11.5153
 20
-65.7362
 11
11.5092
 21
-65.5631
  0
LINE
  8
0
 10
11.5092
 20
-65.5631
 11
11.5401
 21
-65.3879
  0
LINE
  8
0
 10
11.5401
 20
-65.3879
 11
11.5357
 21
-65.1963
  0
LINE
  8
0
 10
11.5357
 20
-65.1963
 11
11.5659
 21
-65.0357
  0
LINE
  8
0
 10
11.5659
 20
-65.0357
 11
11.5634
 21
-64.8252
  0
LINE
  8
0
 10
11.5634
 20
-64.8252
 11
11.5926
 21
-64.6797
  0
LINE
  8
0
 10
11.5926
 20
-64.6797
 11
11.5926
 21
-64.45
  0
LINE
  8
0
 10
11.5926
 20
-64.45
 11
11.6203
 21
-64.3197
  0
LINE
  8
0
 10
11.6203
 20
-64.3197
 11
11.6232
 21
-64.0705
  0
LINE
  8
0
 10
11.6232
 20
-64.0705
 11
11.649
 21
-63.9559
  0
LINE
  8
0
 10
11.649
 20
-63.9559
 11
11.6552
 21
-63.6869
  0
LINE
  8
0
 10
11.6552
 20
-63.6869
 11
11.6688
 21
-63.6298
  0
LINE
  8
0
 10
11.6688
 20
-63.6298
 11
11.6645
 21
-63.5937
  0
LINE
  8
0
 10
11.6645
 20
-63.5937
 11
11.6867
 21
-63.3558
  0
LINE
  8
0
 10
11.6867
 20
-63.3558
 11
11.6887
 21
-63.2991
  0
LINE
  8
0
 10
11.6887
 20
-63.2991
 11
11.6918
 21
-63.2868
  0
LINE
  8
0
 10
11.6918
 20
-63.2868
 11
11.6805
 21
-63.1793
  0
LINE
  8
0
 10
11.6805
 20
-63.1793
 11
11.7105
 21
-62.8937
  0
LINE
  8
0
 10
11.7105
 20
-62.8937
 11
11.6981
 21
-62.7607
  0
LINE
  8
0
 10
11.6981
 20
-62.7607
 11
11.7298
 21
-62.4899
  0
LINE
  8
0
 10
11.7298
 20
-62.4899
 11
11.7174
 21
-62.3381
  0
LINE
  8
0
 10
11.7174
 20
-62.3381
 11
11.7503
 21
-62.0824
  0
LINE
  8
0
 10
11.7503
 20
-62.0824
 11
11.7383
 21
-61.9113
  0
LINE
  8
0
 10
11.7383
 20
-61.9113
 11
11.7721
 21
-61.6711
  0
LINE
  8
0
 10
11.7721
 20
-61.6711
 11
11.7609
 21
-61.4804
  0
LINE
  8
0
 10
11.7609
 20
-61.4804
 11
11.7951
 21
-61.2562
  0
LINE
  8
0
 10
11.7951
 20
-61.2562
 11
11.7853
 21
-61.0455
  0
LINE
  8
0
 10
11.7853
 20
-61.0455
 11
11.8195
 21
-60.8376
  0
LINE
  8
0
 10
11.8195
 20
-60.8376
 11
11.8114
 21
-60.6067
  0
LINE
  8
0
 10
11.8114
 20
-60.6067
 11
11.8451
 21
-60.4154
  0
LINE
  8
0
 10
11.8451
 20
-60.4154
 11
11.8393
 21
-60.1638
  0
LINE
  8
0
 10
11.8393
 20
-60.1638
 11
11.8721
 21
-59.9896
  0
LINE
  8
0
 10
11.8721
 20
-59.9896
 11
11.8689
 21
-59.7171
  0
LINE
  8
0
 10
11.8689
 20
-59.7171
 11
11.9004
 21
-59.5601
  0
LINE
  8
0
 10
11.9004
 20
-59.5601
 11
11.9004
 21
-59.2665
  0
LINE
  8
0
 10
11.9004
 20
-59.2665
 11
11.93
 21
-59.1272
  0
LINE
  8
0
 10
11.93
 20
-59.1272
 11
11.9337
 21
-58.8121
  0
LINE
  8
0
 10
11.9337
 20
-58.8121
 11
11.961
 21
-58.6907
  0
LINE
  8
0
 10
11.961
 20
-58.6907
 11
11.9688
 21
-58.3539
  0
LINE
  8
0
 10
11.9688
 20
-58.3539
 11
11.988
 21
-58.2733
  0
LINE
  8
0
 10
11.988
 20
-58.2733
 11
11.9959
 21
-58.1755
  0
LINE
  8
0
 10
11.9959
 20
-58.1755
 11
12.0058
 21
-57.892
  0
LINE
  8
0
 10
12.0058
 20
-57.892
 11
12.0111
 21
-57.8708
  0
LINE
  8
0
 10
12.0111
 20
-57.8708
 11
12.0054
 21
-57.8216
  0
LINE
  8
0
 10
12.0054
 20
-57.8216
 11
12.0397
 21
-57.4537
  0
LINE
  8
0
 10
12.0397
 20
-57.4537
 11
12.0273
 21
-57.3355
  0
LINE
  8
0
 10
12.0273
 20
-57.3355
 11
12.0642
 21
-56.9844
  0
LINE
  8
0
 10
12.0642
 20
-56.9844
 11
12.0512
 21
-56.8456
  0
LINE
  8
0
 10
12.0512
 20
-56.8456
 11
12.0902
 21
-56.5118
  0
LINE
  8
0
 10
12.0902
 20
-56.5118
 11
12.0772
 21
-56.352
  0
LINE
  8
0
 10
12.0772
 20
-56.352
 11
12.1179
 21
-56.0358
  0
LINE
  8
0
 10
12.1179
 20
-56.0358
 11
12.1053
 21
-55.8548
  0
LINE
  8
0
 10
12.1053
 20
-55.8548
 11
12.1472
 21
-55.5565
  0
LINE
  8
0
 10
12.1472
 20
-55.5565
 11
12.1354
 21
-55.354
  0
LINE
  8
0
 10
12.1354
 20
-55.354
 11
12.1781
 21
-55.0739
  0
LINE
  8
0
 10
12.1781
 20
-55.0739
 11
12.1676
 21
-54.8496
  0
LINE
  8
0
 10
12.1676
 20
-54.8496
 11
12.2106
 21
-54.5881
  0
LINE
  8
0
 10
12.2106
 20
-54.5881
 11
12.202
 21
-54.3416
  0
LINE
  8
0
 10
12.202
 20
-54.3416
 11
12.2447
 21
-54.0992
  0
LINE
  8
0
 10
12.2447
 20
-54.0992
 11
12.2385
 21
-53.8302
  0
LINE
  8
0
 10
12.2385
 20
-53.8302
 11
12.2805
 21
-53.607
  0
LINE
  8
0
 10
12.2805
 20
-53.607
 11
12.2771
 21
-53.3154
  0
LINE
  8
0
 10
12.2771
 20
-53.3154
 11
12.318
 21
-53.1117
  0
LINE
  8
0
 10
12.318
 20
-53.1117
 11
12.318
 21
-52.7972
  0
LINE
  8
0
 10
12.318
 20
-52.7972
 11
12.357
 21
-52.6133
  0
LINE
  8
0
 10
12.357
 20
-52.6133
 11
12.361
 21
-52.2757
  0
LINE
  8
0
 10
12.361
 20
-52.2757
 11
12.3978
 21
-52.1119
  0
LINE
  8
0
 10
12.3978
 20
-52.1119
 11
12.4062
 21
-51.7509
  0
LINE
  8
0
 10
12.4062
 20
-51.7509
 11
12.4402
 21
-51.6073
  0
LINE
  8
0
 10
12.4402
 20
-51.6073
 11
12.4536
 21
-51.2228
  0
LINE
  8
0
 10
12.4536
 20
-51.2228
 11
12.4843
 21
-51.0998
  0
LINE
  8
0
 10
12.4843
 20
-51.0998
 11
12.5033
 21
-50.6916
  0
LINE
  8
0
 10
12.5033
 20
-50.6916
 11
12.5301
 21
-50.5893
  0
LINE
  8
0
 10
12.5301
 20
-50.5893
 11
12.547
 21
-50.2993
  0
LINE
  8
0
 10
12.547
 20
-50.2993
 11
12.545
 21
-50.2806
  0
LINE
  8
0
 10
12.545
 20
-50.2806
 11
12.5519
 21
-50.2154
  0
LINE
  8
0
 10
12.5519
 20
-50.2154
 11
12.5553
 21
-50.1572
  0
LINE
  8
0
 10
12.5553
 20
-50.1572
 11
12.5597
 21
-50.1411
  0
LINE
  8
0
 10
12.5597
 20
-50.1411
 11
12.5918
 21
-49.8355
  0
LINE
  8
0
 10
12.5918
 20
-49.8355
 11
12.5818
 21
-49.7283
  0
LINE
  8
0
 10
12.5818
 20
-49.7283
 11
12.6315
 21
-49.3028
  0
LINE
  8
0
 10
12.6315
 20
-49.3028
 11
12.6209
 21
-49.1729
  0
LINE
  8
0
 10
12.6209
 20
-49.1729
 11
12.6732
 21
-48.7672
  0
LINE
  8
0
 10
12.6732
 20
-48.7672
 11
12.6625
 21
-48.6144
  0
LINE
  8
0
 10
12.6625
 20
-48.6144
 11
12.7167
 21
-48.2289
  0
LINE
  8
0
 10
12.7167
 20
-48.2289
 11
12.7064
 21
-48.0529
  0
LINE
  8
0
 10
12.7064
 20
-48.0529
 11
12.7327
 21
-47.8805
  0
LINE
  8
0
 10
12.7327
 20
-47.8805
 11
12.7142
 21
-47.8642
  0
LINE
  8
0
 10
12.7142
 20
-47.8642
 11
12.5791
 21
-47.7841
  0
LINE
  8
0
 10
12.5791
 20
-47.7841
 11
12.2108
 21
-47.4446
  0
LINE
  8
0
 10
12.2108
 20
-47.4446
 11
12.0784
 21
-47.3619
  0
LINE
  8
0
 10
12.0784
 20
-47.3619
 11
11.721
 21
-47.0167
  0
LINE
  8
0
 10
11.721
 20
-47.0167
 11
11.5916
 21
-46.9317
  0
LINE
  8
0
 10
11.5916
 20
-46.9317
 11
11.2449
 21
-46.5808
  0
LINE
  8
0
 10
11.2449
 20
-46.5808
 11
11.1191
 21
-46.4939
  0
LINE
  8
0
 10
11.1191
 20
-46.4939
 11
10.7827
 21
-46.1373
  0
LINE
  8
0
 10
10.7827
 20
-46.1373
 11
10.6609
 21
-46.0488
  0
LINE
  8
0
 10
10.6609
 20
-46.0488
 11
10.3346
 21
-45.6865
  0
LINE
  8
0
 10
10.3346
 20
-45.6865
 11
10.2172
 21
-45.5969
  0
LINE
  8
0
 10
10.2172
 20
-45.5969
 11
9.9008
 21
-45.2286
  0
LINE
  8
0
 10
9.9008
 20
-45.2286
 11
9.78813
 21
-45.1384
  0
LINE
  8
0
 10
9.78813
 20
-45.1384
 11
9.48137
 21
-44.7641
  0
LINE
  8
0
 10
9.48137
 20
-44.7641
 11
9.37381
 21
-44.6738
  0
LINE
  8
0
 10
9.37381
 20
-44.6738
 11
9.07647
 21
-44.2933
  0
LINE
  8
0
 10
9.07647
 20
-44.2933
 11
8.97435
 21
-44.2034
  0
LINE
  8
0
 10
8.97435
 20
-44.2034
 11
8.68627
 21
-43.8165
  0
LINE
  8
0
 10
8.68627
 20
-43.8165
 11
8.58987
 21
-43.7276
  0
LINE
  8
0
 10
8.58987
 20
-43.7276
 11
8.31088
 21
-43.3341
  0
LINE
  8
0
 10
8.31088
 20
-43.3341
 11
8.22047
 21
-43.2468
  0
LINE
  8
0
 10
8.22047
 20
-43.2468
 11
7.97791
 21
-42.8872
  0
LINE
  8
0
 10
7.97791
 20
-42.8872
 11
7.95544
 21
-42.8584
  0
LINE
  8
0
 10
7.95544
 20
-42.8584
 11
7.94879
 21
-42.8448
  0
LINE
  8
0
 10
7.94879
 20
-42.8448
 11
7.86624
 21
-42.7613
  0
LINE
  8
0
 10
7.86624
 20
-42.7613
 11
7.65248
 21
-42.4279
  0
LINE
  8
0
 10
7.65248
 20
-42.4279
 11
7.59861
 21
-42.3555
  0
LINE
  8
0
 10
7.59861
 20
-42.3555
 11
7.59106
 21
-42.3391
  0
LINE
  8
0
 10
7.59106
 20
-42.3391
 11
7.52726
 21
-42.2714
  0
LINE
  8
0
 10
7.52726
 20
-42.2714
 11
7.34302
 21
-41.9688
  0
LINE
  8
0
 10
7.34302
 20
-41.9688
 11
7.2575
 21
-41.8482
  0
LINE
  8
0
 10
7.2575
 20
-41.8482
 11
7.24871
 21
-41.8278
  0
LINE
  8
0
 10
7.24871
 20
-41.8278
 11
7.20361
 21
-41.7777
  0
LINE
  8
0
 10
7.20361
 20
-41.7777
 11
7.04934
 21
-41.5105
  0
LINE
  8
0
 10
7.04934
 20
-41.5105
 11
6.9322
 21
-41.3368
  0
LINE
  8
0
 10
6.9322
 20
-41.3368
 11
6.9219
 21
-41.3114
  0
LINE
  8
0
 10
6.9219
 20
-41.3114
 11
6.89534
 21
-41.2804
  0
LINE
  8
0
 10
6.89534
 20
-41.2804
 11
6.77119
 21
-41.0534
  0
LINE
  8
0
 10
6.77119
 20
-41.0534
 11
6.62276
 21
-40.8219
  0
LINE
  8
0
 10
6.62276
 20
-40.8219
 11
6.61078
 21
-40.7901
  0
LINE
  8
0
 10
6.61078
 20
-40.7901
 11
6.60253
 21
-40.78
  0
LINE
  8
0
 10
6.60253
 20
-40.78
 11
6.50835
 21
-40.5978
  0
LINE
  8
0
 10
6.50835
 20
-40.5978
 11
6.32924
 21
-40.3036
  0
LINE
  8
0
 10
6.32924
 20
-40.3036
 11
6.30611
 21
-40.2377
  0
LINE
  8
0
 10
6.30611
 20
-40.2377
 11
6.26057
 21
-40.1443
  0
LINE
  8
0
 10
6.26057
 20
-40.1443
 11
6.0517
 21
-39.7826
  0
LINE
  8
0
 10
6.0517
 20
-39.7826
 11
6.01552
 21
-39.6712
  0
LINE
  8
0
 10
6.01552
 20
-39.6712
 11
5.79018
 21
-39.259
  0
LINE
  8
0
 10
5.79018
 20
-39.259
 11
5.75414
 21
-39.1386
  0
LINE
  8
0
 10
5.75414
 20
-39.1386
 11
5.54469
 21
-38.7334
  0
LINE
  8
0
 10
5.54469
 20
-38.7334
 11
5.50907
 21
-38.6035
  0
LINE
  8
0
 10
5.50907
 20
-38.6035
 11
5.31528
 21
-38.2062
  0
LINE
  8
0
 10
5.31528
 20
-38.2062
 11
5.28038
 21
-38.0662
  0
LINE
  8
0
 10
5.28038
 20
-38.0662
 11
5.10194
 21
-37.6777
  0
LINE
  8
0
 10
5.10194
 20
-37.6777
 11
5.06811
 21
-37.5272
  0
LINE
  8
0
 10
5.06811
 20
-37.5272
 11
4.90467
 21
-37.1483
  0
LINE
  8
0
 10
4.90467
 20
-37.1483
 11
4.8723
 21
-36.9867
  0
LINE
  8
0
 10
4.8723
 20
-36.9867
 11
4.72348
 21
-36.6184
  0
LINE
  8
0
 10
4.72348
 20
-36.6184
 11
4.69297
 21
-36.4454
  0
LINE
  8
0
 10
4.69297
 20
-36.4454
 11
4.55834
 21
-36.0885
  0
LINE
  8
0
 10
4.55834
 20
-36.0885
 11
4.53014
 21
-35.9034
  0
LINE
  8
0
 10
4.53014
 20
-35.9034
 11
4.40924
 21
-35.5588
  0
LINE
  8
0
 10
4.40924
 20
-35.5588
 11
4.38383
 21
-35.3614
  0
LINE
  8
0
 10
4.38383
 20
-35.3614
 11
4.27612
 21
-35.0299
  0
LINE
  8
0
 10
4.27612
 20
-35.0299
 11
4.25402
 21
-34.8196
  0
LINE
  8
0
 10
4.25402
 20
-34.8196
 11
4.15896
 21
-34.5021
  0
LINE
  8
0
 10
4.15896
 20
-34.5021
 11
4.14071
 21
-34.2785
  0
LINE
  8
0
 10
4.14071
 20
-34.2785
 11
4.05769
 21
-33.9758
  0
LINE
  8
0
 10
4.05769
 20
-33.9758
 11
4.04388
 21
-33.7386
  0
LINE
  8
0
 10
4.04388
 20
-33.7386
 11
3.97226
 21
-33.4513
  0
LINE
  8
0
 10
3.97226
 20
-33.4513
 11
3.96348
 21
-33.2001
  0
LINE
  8
0
 10
3.96348
 20
-33.2001
 11
3.90258
 21
-32.9292
  0
LINE
  8
0
 10
3.90258
 20
-32.9292
 11
3.89949
 21
-32.6636
  0
LINE
  8
0
 10
3.89949
 20
-32.6636
 11
3.84859
 21
-32.4097
  0
LINE
  8
0
 10
3.84859
 20
-32.4097
 11
3.85185
 21
-32.1295
  0
LINE
  8
0
 10
3.85185
 20
-32.1295
 11
3.81019
 21
-31.8932
  0
LINE
  8
0
 10
3.81019
 20
-31.8932
 11
3.82049
 21
-31.5981
  0
LINE
  8
0
 10
3.82049
 20
-31.5981
 11
3.78727
 21
-31.3802
  0
LINE
  8
0
 10
3.78727
 20
-31.3802
 11
3.80534
 21
-31.0699
  0
LINE
  8
0
 10
3.80534
 20
-31.0699
 11
3.77974
 21
-30.8709
  0
LINE
  8
0
 10
3.77974
 20
-30.8709
 11
3.80633
 21
-30.5452
  0
LINE
  8
0
 10
3.80633
 20
-30.5452
 11
3.78747
 21
-30.3659
  0
LINE
  8
0
 10
3.78747
 20
-30.3659
 11
3.82334
 21
-30.0246
  0
LINE
  8
0
 10
3.82334
 20
-30.0246
 11
3.81035
 21
-29.8654
  0
LINE
  8
0
 10
3.81035
 20
-29.8654
 11
3.85629
 21
-29.5084
  0
LINE
  8
0
 10
3.85629
 20
-29.5084
 11
3.84822
 21
-29.3698
  0
LINE
  8
0
 10
3.84822
 20
-29.3698
 11
3.90506
 21
-28.997
  0
LINE
  8
0
 10
3.90506
 20
-28.997
 11
3.90096
 21
-28.8796
  0
LINE
  8
0
 10
3.90096
 20
-28.8796
 11
3.96952
 21
-28.4907
  0
LINE
  8
0
 10
3.96952
 20
-28.4907
 11
3.9684
 21
-28.395
  0
LINE
  8
0
 10
3.9684
 20
-28.395
 11
4.02354
 21
-28.1199
  0
LINE
  8
0
 10
4.02354
 20
-28.1199
 11
4.02829
 21
-28.0747
  0
LINE
  8
0
 10
4.02829
 20
-28.0747
 11
4.03952
 21
-28.0401
  0
LINE
  8
0
 10
4.03952
 20
-28.0401
 11
4.04954
 21
-27.9901
  0
LINE
  8
0
 10
4.04954
 20
-27.9901
 11
4.0504
 21
-27.9164
  0
LINE
  8
0
 10
4.0504
 20
-27.9164
 11
4.07562
 21
-27.8041
  0
LINE
  8
0
 10
4.07562
 20
-27.8041
 11
4.10441
 21
-27.5804
  0
LINE
  8
0
 10
4.10441
 20
-27.5804
 11
4.1337
 21
-27.4969
  0
LINE
  8
0
 10
4.1337
 20
-27.4969
 11
4.19537
 21
-27.0923
  0
LINE
  8
0
 10
4.19537
 20
-27.0923
 11
4.23429
 21
-26.9892
  0
LINE
  8
0
 10
4.23429
 20
-26.9892
 11
4.30101
 21
-26.6108
  0
LINE
  8
0
 10
4.30101
 20
-26.6108
 11
4.3506
 21
-26.488
  0
LINE
  8
0
 10
4.3506
 20
-26.488
 11
4.42114
 21
-26.1361
  0
LINE
  8
0
 10
4.42114
 20
-26.1361
 11
4.48247
 21
-25.9939
  0
LINE
  8
0
 10
4.48247
 20
-25.9939
 11
4.55557
 21
-25.6686
  0
LINE
  8
0
 10
4.55557
 20
-25.6686
 11
4.6297
 21
-25.5072
  0
LINE
  8
0
 10
4.6297
 20
-25.5072
 11
4.70411
 21
-25.2088
  0
LINE
  8
0
 10
4.70411
 20
-25.2088
 11
4.79209
 21
-25.0284
  0
LINE
  8
0
 10
4.79209
 20
-25.0284
 11
4.86654
 21
-24.7569
  0
LINE
  8
0
 10
4.86654
 20
-24.7569
 11
4.96945
 21
-24.5578
  0
LINE
  8
0
 10
4.96945
 20
-24.5578
 11
5.04266
 21
-24.3132
  0
LINE
  8
0
 10
5.04266
 20
-24.3132
 11
5.16156
 21
-24.0958
  0
LINE
  8
0
 10
5.16156
 20
-24.0958
 11
5.23225
 21
-23.8782
  0
LINE
  8
0
 10
5.23225
 20
-23.8782
 11
5.36817
 21
-23.6428
  0
LINE
  8
0
 10
5.36817
 20
-23.6428
 11
5.43507
 21
-23.4521
  0
LINE
  8
0
 10
5.43507
 20
-23.4521
 11
5.58907
 21
-23.1991
  0
LINE
  8
0
 10
5.58907
 20
-23.1991
 11
5.65088
 21
-23.0353
  0
LINE
  8
0
 10
5.65088
 20
-23.0353
 11
5.824
 21
-22.7653
  0
LINE
  8
0
 10
5.824
 20
-22.7653
 11
5.87945
 21
-22.628
  0
LINE
  8
0
 10
5.87945
 20
-22.628
 11
6.0727
 21
-22.3415
  0
LINE
  8
0
 10
6.0727
 20
-22.3415
 11
6.12051
 21
-22.2307
  0
LINE
  8
0
 10
6.12051
 20
-22.2307
 11
6.33491
 21
-21.9282
  0
LINE
  8
0
 10
6.33491
 20
-21.9282
 11
6.37382
 21
-21.8435
  0
LINE
  8
0
 10
6.37382
 20
-21.8435
 11
6.59635
 21
-21.5446
  0
LINE
  8
0
 10
6.59635
 20
-21.5446
 11
6.62064
 21
-21.5047
  0
LINE
  8
0
 10
6.62064
 20
-21.5047
 11
6.63909
 21
-21.4669
  0
LINE
  8
0
 10
6.63909
 20
-21.4669
 11
6.73602
 21
-21.3428
  0
LINE
  8
0
 10
6.73602
 20
-21.3428
 11
6.89436
 21
-21.0959
  0
LINE
  8
0
 10
6.89436
 20
-21.0959
 11
6.95274
 21
-21.0368
  0
LINE
  8
0
 10
6.95274
 20
-21.0368
 11
7.16772
 21
-20.7181
  0
LINE
  8
0
 10
7.16772
 20
-20.7181
 11
7.24727
 21
-20.6413
  0
LINE
  8
0
 10
7.24727
 20
-20.6413
 11
7.45288
 21
-20.3512
  0
LINE
  8
0
 10
7.45288
 20
-20.3512
 11
7.55458
 21
-20.2575
  0
LINE
  8
0
 10
7.55458
 20
-20.2575
 11
7.74955
 21
-19.9956
  0
LINE
  8
0
 10
7.74955
 20
-19.9956
 11
7.87435
 21
-19.8858
  0
LINE
  8
0
 10
7.87435
 20
-19.8858
 11
8.05746
 21
-19.6515
  0
LINE
  8
0
 10
8.05746
 20
-19.6515
 11
8.20625
 21
-19.5266
  0
LINE
  8
0
 10
8.20625
 20
-19.5266
 11
8.37629
 21
-19.3191
  0
LINE
  8
0
 10
8.37629
 20
-19.3191
 11
8.54996
 21
-19.1801
  0
LINE
  8
0
 10
8.54996
 20
-19.1801
 11
8.70576
 21
-18.9988
  0
LINE
  8
0
 10
8.70576
 20
-18.9988
 11
8.90512
 21
-18.8467
  0
LINE
  8
0
 10
8.90512
 20
-18.8467
 11
9.04554
 21
-18.6908
  0
LINE
  8
0
 10
9.04554
 20
-18.6908
 11
9.27141
 21
-18.5267
  0
LINE
  8
0
 10
9.27141
 20
-18.5267
 11
9.39532
 21
-18.3953
  0
LINE
  8
0
 10
9.39532
 20
-18.3953
 11
9.64844
 21
-18.2203
  0
LINE
  8
0
 10
9.64844
 20
-18.2203
 11
9.75478
 21
-18.1127
  0
LINE
  8
0
 10
9.75478
 20
-18.1127
 11
10.0359
 21
-17.9278
  0
LINE
  8
0
 10
10.0359
 20
-17.9278
 11
10.1236
 21
-17.8431
  0
LINE
  8
0
 10
10.1236
 20
-17.8431
 11
10.4333
 21
-17.6496
  0
LINE
  8
0
 10
10.4333
 20
-17.6496
 11
10.5014
 21
-17.5868
  0
LINE
  8
0
 10
10.5014
 20
-17.5868
 11
10.8404
 21
-17.3858
  0
LINE
  8
0
 10
10.8404
 20
-17.3858
 11
10.888
 21
-17.344
  0
LINE
  8
0
 10
10.888
 20
-17.344
 11
11.0353
 21
-17.2612
  0
LINE
  8
0
 10
11.0353
 20
-17.2612
 11
11.2901
 21
-17.0849
  0
LINE
  8
0
 10
11.2901
 20
-17.0849
 11
11.3649
 21
-17.0537
  0
LINE
  8
0
 10
11.3649
 20
-17.0537
 11
11.6796
 21
-16.8467
  0
LINE
  8
0
 10
11.6796
 20
-16.8467
 11
11.7824
 21
-16.8066
  0
LINE
  8
0
 10
11.7824
 20
-16.8066
 11
12.0773
 21
-16.6223
  0
LINE
  8
0
 10
12.0773
 20
-16.6223
 11
12.2086
 21
-16.5745
  0
LINE
  8
0
 10
12.2086
 20
-16.5745
 11
12.4831
 21
-16.4118
  0
LINE
  8
0
 10
12.4831
 20
-16.4118
 11
12.6431
 21
-16.3577
  0
LINE
  8
0
 10
12.6431
 20
-16.3577
 11
12.8964
 21
-16.2154
  0
LINE
  8
0
 10
12.8964
 20
-16.2154
 11
13.0856
 21
-16.1563
  0
LINE
  8
0
 10
13.0856
 20
-16.1563
 11
13.317
 21
-16.0333
  0
LINE
  8
0
 10
13.317
 20
-16.0333
 11
13.5356
 21
-15.9706
  0
LINE
  8
0
 10
13.5356
 20
-15.9706
 11
13.7444
 21
-15.8658
  0
LINE
  8
0
 10
13.7444
 20
-15.8658
 11
13.9928
 21
-15.8008
  0
LINE
  8
0
 10
13.9928
 20
-15.8008
 11
14.1784
 21
-15.7129
  0
LINE
  8
0
 10
14.1784
 20
-15.7129
 11
14.4566
 21
-15.6469
  0
LINE
  8
0
 10
14.4566
 20
-15.6469
 11
14.6185
 21
-15.5748
  0
LINE
  8
0
 10
14.6185
 20
-15.5748
 11
14.9266
 21
-15.5093
  0
LINE
  8
0
 10
14.9266
 20
-15.5093
 11
15.0644
 21
-15.4518
  0
LINE
  8
0
 10
15.0644
 20
-15.4518
 11
15.4025
 21
-15.3881
  0
LINE
  8
0
 10
15.4025
 20
-15.3881
 11
15.5158
 21
-15.3439
  0
LINE
  8
0
 10
15.5158
 20
-15.3439
 11
15.8838
 21
-15.2834
  0
LINE
  8
0
 10
15.8838
 20
-15.2834
 11
15.9721
 21
-15.2513
  0
LINE
  8
0
 10
15.9721
 20
-15.2513
 11
16.3503
 21
-15.1981
  0
LINE
  8
0
 10
16.3503
 20
-15.1981
 11
16.389
 21
-15.1889
  0
LINE
  8
0
 10
16.389
 20
-15.1889
 11
16.4331
 21
-15.1741
  0
LINE
  8
0
 10
16.4331
 20
-15.1741
 11
16.5907
 21
-15.1557
  0
LINE
  8
0
 10
16.5907
 20
-15.1557
 11
16.872
 21
-15.0958
  0
LINE
  8
0
 10
16.872
 20
-15.0958
 11
16.9543
 21
-15.0958
  0
LINE
  8
0
 10
16.9543
 20
-15.0958
 11
17.3284
 21
-15.0254
  0
LINE
  8
0
 10
17.3284
 20
-15.0254
 11
17.4383
 21
-15.0279
  0
LINE
  8
0
 10
17.4383
 20
-15.0279
 11
17.7891
 21
-14.9703
  0
LINE
  8
0
 10
17.7891
 20
-14.9703
 11
17.9261
 21
-14.9767
  0
LINE
  8
0
 10
17.9261
 20
-14.9767
 11
18.2535
 21
-14.9307
  0
LINE
  8
0
 10
18.2535
 20
-14.9307
 11
18.4175
 21
-14.9421
  0
LINE
  8
0
 10
18.4175
 20
-14.9421
 11
18.7213
 21
-14.9066
  0
LINE
  8
0
 10
18.7213
 20
-14.9066
 11
18.9119
 21
-14.9244
  0
LINE
  8
0
 10
18.9119
 20
-14.9244
 11
19.1921
 21
-14.8983
  0
LINE
  8
0
 10
19.1921
 20
-14.8983
 11
19.4088
 21
-14.9236
  0
LINE
  8
0
 10
19.4088
 20
-14.9236
 11
19.6655
 21
-14.9056
  0
LINE
  8
0
 10
19.6655
 20
-14.9056
 11
19.9079
 21
-14.9397
  0
LINE
  8
0
 10
19.9079
 20
-14.9397
 11
20.1412
 21
-14.9288
  0
LINE
  8
0
 10
20.1412
 20
-14.9288
 11
20.4087
 21
-14.9728
  0
LINE
  8
0
 10
20.4087
 20
-14.9728
 11
20.6186
 21
-14.9679
  0
LINE
  8
0
 10
20.6186
 20
-14.9679
 11
20.9108
 21
-15.023
  0
LINE
  8
0
 10
20.9108
 20
-15.023
 11
21.0975
 21
-15.023
  0
LINE
  8
0
 10
21.0975
 20
-15.023
 11
21.4136
 21
-15.0902
  0
LINE
  8
0
 10
21.4136
 20
-15.0902
 11
21.5774
 21
-15.094
  0
LINE
  8
0
 10
21.5774
 20
-15.094
 11
21.6
 21
-15.0993
  0
LINE
  8
0
 10
21.6
 20
-15.0993
 11
21.6
 21
0
  0
LINE
  8
0
 10
21.6
 20
0
 11
21.5474
 21
1.50674
  0
LINE
  8
0
 10
21.5474
 20
1.50674
 11
21.3898
 21
3.00614
  0
LINE
  8
0
 10
21.3898
 20
3.00614
 11
21.128
 21
4.49089
  0
LINE
  8
0
 10
21.128
 20
4.49089
 11
20.7633
 21
5.95377
  0
LINE
  8
0
 10
20.7633
 20
5.95377
 11
20.2974
 21
7.38763
  0
LINE
  8
0
 10
20.2974
 20
7.38763
 11
19.7326
 21
8.78551
  0
LINE
  8
0
 10
19.7326
 20
8.78551
 11
19.0717
 21
10.1406
  0
LINE
  8
0
 10
19.0717
 20
10.1406
 11
18.3178
 21
11.4463
  0
LINE
  8
0
 10
18.3178
 20
11.4463
 11
17.4748
 21
12.6962
  0
LINE
  8
0
 10
17.4748
 20
12.6962
 11
16.5466
 21
13.8842
  0
LINE
  8
0
 10
16.5466
 20
13.8842
 11
15.5377
 21
15.0046
  0
LINE
  8
0
 10
15.5377
 20
15.0046
 11
14.4532
 21
16.0519
  0
LINE
  8
0
 10
14.4532
 20
16.0519
 11
13.2983
 21
17.021
  0
LINE
  8
0
 10
13.2983
 20
17.021
 11
-15.2595
 21
39.8038
  0
LINE
  8
0
 10
-15.2595
 20
39.8038
 11
-15.2693
 21
39.805
  0
LINE
  8
0
 10
-15.2693
 20
39.805
 11
-16.4221
 21
40.8543
  0
LINE
  8
0
 10
-16.4221
 20
40.8543
 11
-18.6995
 21
43.0854
  0
LINE
  8
0
 10
-18.6995
 20
43.0854
 11
-20.9157
 21
45.4184
  0
LINE
  8
0
 10
-20.9157
 20
45.4184
 11
-23.068
 21
47.8506
  0
LINE
  8
0
 10
-23.068
 20
47.8506
 11
-25.1536
 21
50.3789
  0
LINE
  8
0
 10
-25.1536
 20
50.3789
 11
-27.1701
 21
53.0003
  0
LINE
  8
0
 10
-27.1701
 20
53.0003
 11
-29.1149
 21
55.7116
  0
LINE
  8
0
 10
-29.1149
 20
55.7116
 11
-30.9858
 21
58.5095
  0
LINE
  8
0
 10
-30.9858
 20
58.5095
 11
-32.7805
 21
61.3906
  0
LINE
  8
0
 10
-32.7805
 20
61.3906
 11
-34.4967
 21
64.3513
  0
LINE
  8
0
 10
-34.4967
 20
64.3513
 11
-36.1324
 21
67.3881
  0
LINE
  8
0
 10
-36.1324
 20
67.3881
 11
-37.6855
 21
70.4973
  0
LINE
  8
0
 10
-37.6855
 20
70.4973
 11
-39.1543
 21
73.675
  0
LINE
  8
0
 10
-39.1543
 20
73.675
 11
-40.5368
 21
76.9174
  0
LINE
  8
0
 10
-40.5368
 20
76.9174
 11
-41.8315
 21
80.2206
  0
LINE
  8
0
 10
-41.8315
 20
80.2206
 11
-43.0367
 21
83.5805
  0
LINE
  8
0
 10
-43.0367
 20
83.5805
 11
-44.1509
 21
86.993
  0
LINE
  8
0
 10
-44.1509
 20
86.993
 11
-45.1729
 21
90.454
  0
LINE
  8
0
 10
-45.1729
 20
90.454
 11
-46.1013
 21
93.9593
  0
LINE
  8
0
 10
-46.1013
 20
93.9593
 11
-46.2771
 21
94.7066
  0
LINE
  8
0
 10
-46.2771
 20
94.7066
 11
-46.348
 21
94.7807
  0
LINE
  8
0
 10
-46.348
 20
94.7807
 11
-46.2827
 21
94.8438
  0
LINE
  8
0
 10
-46.2827
 20
94.8438
 11
-46.1706
 21
94.9683
  0
LINE
  8
0
 10
-46.1706
 20
94.9683
 11
-46.0675
 21
95.1003
  0
LINE
  8
0
 10
-46.0675
 20
95.1003
 11
-45.9738
 21
95.2392
  0
LINE
  8
0
 10
-45.9738
 20
95.2392
 11
-45.89
 21
95.3842
  0
LINE
  8
0
 10
-45.89
 20
95.3842
 11
-45.8166
 21
95.5348
  0
LINE
  8
0
 10
-45.8166
 20
95.5348
 11
-45.7539
 21
95.6901
  0
LINE
  8
0
 10
-45.7539
 20
95.6901
 11
-45.7021
 21
95.8494
  0
LINE
  8
0
 10
-45.7021
 20
95.8494
 11
-45.6616
 21
96.012
  0
LINE
  8
0
 10
-45.6616
 20
96.012
 11
-45.6325
 21
96.177
  0
LINE
  8
0
 10
-45.6325
 20
96.177
 11
-45.615
 21
96.3436
  0
LINE
  8
0
 10
-45.615
 20
96.3436
 11
-45.6091
 21
96.511
  0
LINE
  8
0
 10
-45.6091
 20
96.511
 11
-45.615
 21
96.6784
  0
LINE
  8
0
 10
-45.615
 20
96.6784
 11
-45.6325
 21
96.845
  0
LINE
  8
0
 10
-45.6325
 20
96.845
 11
-45.6616
 21
97.01
  0
LINE
  8
0
 10
-45.6616
 20
97.01
 11
-45.7021
 21
97.1725
  0
LINE
  8
0
 10
-45.7021
 20
97.1725
 11
-45.7539
 21
97.3318
  0
LINE
  8
0
 10
-45.7539
 20
97.3318
 11
-49.038
 21
106.355
  0
LINE
  8
0
 10
-49.038
 20
106.355
 11
-45.7072
 21
107.566
  0
LINE
  8
0
 10
-45.7072
 20
107.566
 11
-45.6022
 21
107.604
  0
LINE
  8
0
 10
-45.6022
 20
107.604
 11
-45.5002
 21
107.65
  0
LINE
  8
0
 10
-45.5002
 20
107.65
 11
-45.4016
 21
107.702
  0
LINE
  8
0
 10
-45.4016
 20
107.702
 11
-45.3069
 21
107.761
  0
LINE
  8
0
 10
-45.3069
 20
107.761
 11
-45.2165
 21
107.827
  0
LINE
  8
0
 10
-45.2165
 20
107.827
 11
-45.131
 21
107.899
  0
LINE
  8
0
 10
-45.131
 20
107.899
 11
-45.0506
 21
107.976
  0
LINE
  8
0
 10
-45.0506
 20
107.976
 11
-44.9759
 21
108.059
  0
LINE
  8
0
 10
-44.9759
 20
108.059
 11
-44.9072
 21
108.147
  0
LINE
  8
0
 10
-44.9072
 20
108.147
 11
-44.8447
 21
108.24
  0
LINE
  8
0
 10
-44.8447
 20
108.24
 11
-44.7889
 21
108.336
  0
LINE
  8
0
 10
-44.7889
 20
108.336
 11
-44.7399
 21
108.437
  0
LINE
  8
0
 10
-44.7399
 20
108.437
 11
-44.6981
 21
108.54
  0
LINE
  8
0
 10
-44.6981
 20
108.54
 11
-44.6636
 21
108.647
  0
LINE
  8
0
 10
-44.6636
 20
108.647
 11
-44.6366
 21
108.755
  0
LINE
  8
0
 10
-44.6366
 20
108.755
 11
-44.6172
 21
108.865
  0
LINE
  8
0
 10
-44.6172
 20
108.865
 11
-44.6055
 21
108.976
  0
LINE
  8
0
 10
-44.6055
 20
108.976
 11
-44.6016
 21
109.088
  0
LINE
  8
0
 10
-44.6016
 20
109.088
 11
-44.6055
 21
109.199
  0
LINE
  8
0
 10
-44.6055
 20
109.199
 11
-44.6172
 21
109.31
  0
LINE
  8
0
 10
-44.6172
 20
109.31
 11
-44.6366
 21
109.42
  0
LINE
  8
0
 10
-44.6366
 20
109.42
 11
-44.6636
 21
109.529
  0
LINE
  8
0
 10
-44.6636
 20
109.529
 11
-44.6981
 21
109.635
  0
LINE
  8
0
 10
-44.6981
 20
109.635
 11
-46.887
 21
115.649
  0
LINE
  8
0
 10
-46.887
 20
115.649
 11
-46.9288
 21
115.752
  0
LINE
  8
0
 10
-46.9288
 20
115.752
 11
-46.9778
 21
115.853
  0
LINE
  8
0
 10
-46.9778
 20
115.853
 11
-47.0336
 21
115.95
  0
LINE
  8
0
 10
-47.0336
 20
115.95
 11
-47.0961
 21
116.042
  0
LINE
  8
0
 10
-47.0961
 20
116.042
 11
-47.1649
 21
116.13
  0
LINE
  8
0
 10
-47.1649
 20
116.13
 11
-47.2396
 21
116.213
  0
LINE
  8
0
 10
-47.2396
 20
116.213
 11
-47.3199
 21
116.291
  0
LINE
  8
0
 10
-47.3199
 20
116.291
 11
-47.4055
 21
116.362
  0
LINE
  8
0
 10
-47.4055
 20
116.362
 11
-47.4958
 21
116.428
  0
LINE
  8
0
 10
-47.4958
 20
116.428
 11
-47.5905
 21
116.487
  0
LINE
  8
0
 10
-47.5905
 20
116.487
 11
-47.6891
 21
116.54
  0
LINE
  8
0
 10
-47.6891
 20
116.54
 11
-47.7912
 21
116.585
  0
LINE
  8
0
 10
-47.7912
 20
116.585
 11
-47.8961
 21
116.623
  0
LINE
  8
0
 10
-47.8961
 20
116.623
 11
-48.0034
 21
116.654
  0
LINE
  8
0
 10
-48.0034
 20
116.654
 11
-48.1127
 21
116.677
  0
LINE
  8
0
 10
-48.1127
 20
116.677
 11
-48.2233
 21
116.693
  0
LINE
  8
0
 10
-48.2233
 20
116.693
 11
-48.3347
 21
116.701
  0
LINE
  8
0
 10
-48.3347
 20
116.701
 11
-48.4464
 21
116.701
  0
LINE
  8
0
 10
-48.4464
 20
116.701
 11
-48.5578
 21
116.693
  0
LINE
  8
0
 10
-48.5578
 20
116.693
 11
-48.6684
 21
116.677
  0
LINE
  8
0
 10
-48.6684
 20
116.677
 11
-48.7776
 21
116.654
  0
LINE
  8
0
 10
-48.7776
 20
116.654
 11
-48.8849
 21
116.623
  0
LINE
  8
0
 10
-48.8849
 20
116.623
 11
-48.9899
 21
116.585
  0
LINE
  8
0
 10
-48.9899
 20
116.585
 11
-52.3199
 21
115.372
  0
LINE
  8
0
 10
-52.3199
 20
115.372
 11
-55.604
 21
124.395
  0
LINE
  8
0
 10
-55.604
 20
124.395
 11
-55.6668
 21
124.55
  0
LINE
  8
0
 10
-55.6668
 20
124.55
 11
-55.7402
 21
124.701
  0
LINE
  8
0
 10
-55.7402
 20
124.701
 11
-55.824
 21
124.846
  0
LINE
  8
0
 10
-55.824
 20
124.846
 11
-55.9177
 21
124.985
  0
LINE
  8
0
 10
-55.9177
 20
124.985
 11
-56.0208
 21
125.117
  0
LINE
  8
0
 10
-56.0208
 20
125.117
 11
-56.1329
 21
125.241
  0
LINE
  8
0
 10
-56.1329
 20
125.241
 11
-56.2534
 21
125.358
  0
LINE
  8
0
 10
-56.2534
 20
125.358
 11
-56.3817
 21
125.465
  0
LINE
  8
0
 10
-56.3817
 20
125.465
 11
-56.5172
 21
125.564
  0
LINE
  8
0
 10
-56.5172
 20
125.564
 11
-56.6593
 21
125.653
  0
LINE
  8
0
 10
-56.6593
 20
125.653
 11
-56.8072
 21
125.731
  0
LINE
  8
0
 10
-56.8072
 20
125.731
 11
-56.9602
 21
125.799
  0
LINE
  8
0
 10
-56.9602
 20
125.799
 11
-57.1177
 21
125.857
  0
LINE
  8
0
 10
-57.1177
 20
125.857
 11
-57.2787
 21
125.903
  0
LINE
  8
0
 10
-57.2787
 20
125.903
 11
-57.4425
 21
125.938
  0
LINE
  8
0
 10
-57.4425
 20
125.938
 11
-57.6084
 21
125.961
  0
LINE
  8
0
 10
-57.6084
 20
125.961
 11
-57.7755
 21
125.973
  0
LINE
  8
0
 10
-57.7755
 20
125.973
 11
-57.9431
 21
125.973
  0
LINE
  8
0
 10
-57.9431
 20
125.973
 11
-58.1102
 21
125.961
  0
LINE
  8
0
 10
-58.1102
 20
125.961
 11
-58.2761
 21
125.938
  0
LINE
  8
0
 10
-58.2761
 20
125.938
 11
-58.4399
 21
125.903
  0
LINE
  8
0
 10
-58.4399
 20
125.903
 11
-58.6009
 21
125.857
  0
LINE
  8
0
 10
-58.6009
 20
125.857
 11
-58.7584
 21
125.799
  0
LINE
  8
0
 10
-58.7584
 20
125.799
 11
-58.9114
 21
125.731
  0
LINE
  8
0
 10
-58.9114
 20
125.731
 11
-59.0593
 21
125.653
  0
LINE
  8
0
 10
-59.0593
 20
125.653
 11
-59.2014
 21
125.564
  0
LINE
  8
0
 10
-59.2014
 20
125.564
 11
-59.3369
 21
125.465
  0
LINE
  8
0
 10
-59.3369
 20
125.465
 11
-59.4652
 21
125.358
  0
LINE
  8
0
 10
-59.4652
 20
125.358
 11
-59.5857
 21
125.241
  0
LINE
  8
0
 10
-59.5857
 20
125.241
 11
-59.6978
 21
125.117
  0
LINE
  8
0
 10
-59.6978
 20
125.117
 11
-59.8009
 21
124.985
  0
LINE
  8
0
 10
-59.8009
 20
124.985
 11
-59.8946
 21
124.846
  0
LINE
  8
0
 10
-59.8946
 20
124.846
 11
-59.9784
 21
124.701
  0
LINE
  8
0
 10
-59.9784
 20
124.701
 11
-60.0518
 21
124.55
  0
LINE
  8
0
 10
-60.0518
 20
124.55
 11
-60.1146
 21
124.395
  0
LINE
  8
0
 10
-60.1146
 20
124.395
 11
-60.1663
 21
124.236
  0
LINE
  8
0
 10
-60.1663
 20
124.236
 11
-60.2069
 21
124.073
  0
LINE
  8
0
 10
-60.2069
 20
124.073
 11
-60.2359
 21
123.908
  0
LINE
  8
0
 10
-60.2359
 20
123.908
 11
-60.2535
 21
123.742
  0
LINE
  8
0
 10
-60.2535
 20
123.742
 11
-60.2593
 21
123.574
  0
LINE
  8
0
 10
-60.2593
 20
123.574
 11
-60.3652
 21
108.211
  0
LINE
  8
0
 10
-60.3652
 20
108.211
 11
-60.3593
 21
108.044
  0
LINE
  8
0
 10
-60.3593
 20
108.044
 11
-60.3418
 21
107.877
  0
LINE
  8
0
 10
-60.3418
 20
107.877
 11
-60.3127
 21
107.712
  0
LINE
  8
0
 10
-60.3127
 20
107.712
 11
-60.2722
 21
107.55
  0
LINE
  8
0
 10
-60.2722
 20
107.55
 11
-60.2283
 21
107.415
  0
LINE
  8
0
 10
-60.2283
 20
107.415
 11
-60.2901
 21
106.567
  0
LINE
  8
0
 10
-60.2901
 20
106.567
 11
-60.4775
 21
102.276
  0
LINE
  8
0
 10
-60.4775
 20
102.276
 11
-60.54
 21
97.98
  0
LINE
  8
0
 10
-56.6495
 20
109.222
 11
-56.6459
 21
109.324
  0
LINE
  8
0
 10
-56.6459
 20
109.324
 11
-56.6353
 21
109.425
  0
LINE
  8
0
 10
-56.6353
 20
109.425
 11
-56.6176
 21
109.525
  0
LINE
  8
0
 10
-56.6176
 20
109.525
 11
-56.5929
 21
109.624
  0
LINE
  8
0
 10
-56.5929
 20
109.624
 11
-56.5614
 21
109.721
  0
LINE
  8
0
 10
-56.5614
 20
109.721
 11
-56.5233
 21
109.816
  0
LINE
  8
0
 10
-56.5233
 20
109.816
 11
-56.4786
 21
109.907
  0
LINE
  8
0
 10
-56.4786
 20
109.907
 11
-56.4276
 21
109.995
  0
LINE
  8
0
 10
-56.4276
 20
109.995
 11
-56.3706
 21
110.08
  0
LINE
  8
0
 10
-56.3706
 20
110.08
 11
-56.3079
 21
110.16
  0
LINE
  8
0
 10
-56.3079
 20
110.16
 11
-56.2397
 21
110.236
  0
LINE
  8
0
 10
-56.2397
 20
110.236
 11
-56.1664
 21
110.307
  0
LINE
  8
0
 10
-56.1664
 20
110.307
 11
-56.0883
 21
110.372
  0
LINE
  8
0
 10
-56.0883
 20
110.372
 11
-56.0059
 21
110.432
  0
LINE
  8
0
 10
-56.0059
 20
110.432
 11
-55.9195
 21
110.486
  0
LINE
  8
0
 10
-55.9195
 20
110.486
 11
-55.8295
 21
110.534
  0
LINE
  8
0
 10
-55.8295
 20
110.534
 11
-55.7364
 21
110.575
  0
LINE
  8
0
 10
-55.7364
 20
110.575
 11
-55.6406
 21
110.61
  0
LINE
  8
0
 10
-55.6406
 20
110.61
 11
-55.5427
 21
110.638
  0
LINE
  8
0
 10
-55.5427
 20
110.638
 11
-55.443
 21
110.66
  0
LINE
  8
0
 10
-55.443
 20
110.66
 11
-55.3421
 21
110.674
  0
LINE
  8
0
 10
-55.3421
 20
110.674
 11
-55.2404
 21
110.681
  0
LINE
  8
0
 10
-55.2404
 20
110.681
 11
-55.1385
 21
110.681
  0
LINE
  8
0
 10
-55.1385
 20
110.681
 11
-55.0369
 21
110.674
  0
LINE
  8
0
 10
-55.0369
 20
110.674
 11
-54.9359
 21
110.66
  0
LINE
  8
0
 10
-54.9359
 20
110.66
 11
-54.8363
 21
110.638
  0
LINE
  8
0
 10
-54.8363
 20
110.638
 11
-54.7383
 21
110.61
  0
LINE
  8
0
 10
-54.7383
 20
110.61
 11
-54.6425
 21
110.575
  0
LINE
  8
0
 10
-54.6425
 20
110.575
 11
-54.5495
 21
110.534
  0
LINE
  8
0
 10
-54.5495
 20
110.534
 11
-54.4595
 21
110.486
  0
LINE
  8
0
 10
-54.4595
 20
110.486
 11
-54.3731
 21
110.432
  0
LINE
  8
0
 10
-54.3731
 20
110.432
 11
-54.2906
 21
110.372
  0
LINE
  8
0
 10
-54.2906
 20
110.372
 11
-54.2125
 21
110.307
  0
LINE
  8
0
 10
-54.2125
 20
110.307
 11
-54.1392
 21
110.236
  0
LINE
  8
0
 10
-54.1392
 20
110.236
 11
-54.071
 21
110.16
  0
LINE
  8
0
 10
-54.071
 20
110.16
 11
-54.0083
 21
110.08
  0
LINE
  8
0
 10
-54.0083
 20
110.08
 11
-53.9513
 21
109.995
  0
LINE
  8
0
 10
-53.9513
 20
109.995
 11
-53.9004
 21
109.907
  0
LINE
  8
0
 10
-53.9004
 20
109.907
 11
-53.8557
 21
109.816
  0
LINE
  8
0
 10
-53.8557
 20
109.816
 11
-53.8175
 21
109.721
  0
LINE
  8
0
 10
-53.8175
 20
109.721
 11
-53.786
 21
109.624
  0
LINE
  8
0
 10
-53.786
 20
109.624
 11
-53.7614
 21
109.525
  0
LINE
  8
0
 10
-53.7614
 20
109.525
 11
-53.7437
 21
109.425
  0
LINE
  8
0
 10
-53.7437
 20
109.425
 11
-53.733
 21
109.324
  0
LINE
  8
0
 10
-53.733
 20
109.324
 11
-53.7295
 21
109.222
  0
LINE
  8
0
 10
-53.7295
 20
109.222
 11
-53.733
 21
109.12
  0
LINE
  8
0
 10
-53.733
 20
109.12
 11
-53.7437
 21
109.019
  0
LINE
  8
0
 10
-53.7437
 20
109.019
 11
-53.7614
 21
108.918
  0
LINE
  8
0
 10
-53.7614
 20
108.918
 11
-53.786
 21
108.819
  0
LINE
  8
0
 10
-53.786
 20
108.819
 11
-53.8175
 21
108.722
  0
LINE
  8
0
 10
-53.8175
 20
108.722
 11
-53.8557
 21
108.628
  0
LINE
  8
0
 10
-53.8557
 20
108.628
 11
-53.9004
 21
108.536
  0
LINE
  8
0
 10
-53.9004
 20
108.536
 11
-53.9513
 21
108.448
  0
LINE
  8
0
 10
-53.9513
 20
108.448
 11
-54.0083
 21
108.364
  0
LINE
  8
0
 10
-54.0083
 20
108.364
 11
-54.071
 21
108.283
  0
LINE
  8
0
 10
-54.071
 20
108.283
 11
-54.1392
 21
108.207
  0
LINE
  8
0
 10
-54.1392
 20
108.207
 11
-54.2125
 21
108.137
  0
LINE
  8
0
 10
-54.2125
 20
108.137
 11
-54.2906
 21
108.071
  0
LINE
  8
0
 10
-54.2906
 20
108.071
 11
-54.3731
 21
108.011
  0
LINE
  8
0
 10
-54.3731
 20
108.011
 11
-54.4595
 21
107.957
  0
LINE
  8
0
 10
-54.4595
 20
107.957
 11
-54.5495
 21
107.909
  0
LINE
  8
0
 10
-54.5495
 20
107.909
 11
-54.6425
 21
107.868
  0
LINE
  8
0
 10
-54.6425
 20
107.868
 11
-54.7383
 21
107.833
  0
LINE
  8
0
 10
-54.7383
 20
107.833
 11
-54.8363
 21
107.805
  0
LINE
  8
0
 10
-54.8363
 20
107.805
 11
-54.9359
 21
107.784
  0
LINE
  8
0
 10
-54.9359
 20
107.784
 11
-55.0369
 21
107.77
  0
LINE
  8
0
 10
-55.0369
 20
107.77
 11
-55.1385
 21
107.763
  0
LINE
  8
0
 10
-55.1385
 20
107.763
 11
-55.2404
 21
107.763
  0
LINE
  8
0
 10
-55.2404
 20
107.763
 11
-55.3421
 21
107.77
  0
LINE
  8
0
 10
-55.3421
 20
107.77
 11
-55.443
 21
107.784
  0
LINE
  8
0
 10
-55.443
 20
107.784
 11
-55.5427
 21
107.805
  0
LINE
  8
0
 10
-55.5427
 20
107.805
 11
-55.6406
 21
107.833
  0
LINE
  8
0
 10
-55.6406
 20
107.833
 11
-55.7364
 21
107.868
  0
LINE
  8
0
 10
-55.7364
 20
107.868
 11
-55.8295
 21
107.909
  0
LINE
  8
0
 10
-55.8295
 20
107.909
 11
-55.9195
 21
107.957
  0
LINE
  8
0
 10
-55.9195
 20
107.957
 11
-56.0059
 21
108.011
  0
LINE
  8
0
 10
-56.0059
 20
108.011
 11
-56.0883
 21
108.071
  0
LINE
  8
0
 10
-56.0883
 20
108.071
 11
-56.1664
 21
108.137
  0
LINE
  8
0
 10
-56.1664
 20
108.137
 11
-56.2397
 21
108.207
  0
LINE
  8
0
 10
-56.2397
 20
108.207
 11
-56.3079
 21
108.283
  0
LINE
  8
0
 10
-56.3079
 20
108.283
 11
-56.3706
 21
108.364
  0
LINE
  8
0
 10
-56.3706
 20
108.364
 11
-56.4276
 21
108.448
  0
LINE
  8
0
 10
-56.4276
 20
108.448
 11
-56.4786
 21
108.536
  0
LINE
  8
0
 10
-56.4786
 20
108.536
 11
-56.5233
 21
108.628
  0
LINE
  8
0
 10
-56.5233
 20
108.628
 11
-56.5614
 21
108.722
  0
LINE
  8
0
 10
-56.5614
 20
108.722
 11
-56.5929
 21
108.819
  0
LINE
  8
0
 10
-56.5929
 20
108.819
 11
-56.6176
 21
108.918
  0
LINE
  8
0
 10
-56.6176
 20
108.918
 11
-56.6353
 21
109.019
  0
LINE
  8
0
 10
-56.6353
 20
109.019
 11
-56.6459
 21
109.12
  0
LINE
  8
0
 10
-56.6459
 20
109.12
 11
-56.6495
 21
109.222
  0
LINE
  8
0
 10
-10.935
 20
-1.63773
 11
-10.935
 21
1.63773
  0
LINE
  8
0
 10
-10.935
 20
1.63773
 11
-10.8183
 21
2.2995
  0
LINE
  8
0
 10
-10.8183
 20
2.2995
 11
-10.6316
 21
3.04855
  0
LINE
  8
0
 10
-10.6316
 20
3.04855
 11
-10.393
 21
3.78274
  0
LINE
  8
0
 10
-10.393
 20
3.78274
 11
-10.1038
 21
4.49851
  0
LINE
  8
0
 10
-10.1038
 20
4.49851
 11
-9.7654
 21
5.19236
  0
LINE
  8
0
 10
-9.7654
 20
5.19236
 11
-9.37941
 21
5.86091
  0
LINE
  8
0
 10
-9.37941
 20
5.86091
 11
-8.94773
 21
6.5009
  0
LINE
  8
0
 10
-8.94773
 20
6.5009
 11
-8.47245
 21
7.10923
  0
LINE
  8
0
 10
-8.47245
 20
7.10923
 11
-7.9559
 21
7.68292
  0
LINE
  8
0
 10
-7.9559
 20
7.68292
 11
-7.40058
 21
8.21918
  0
LINE
  8
0
 10
-7.40058
 20
8.21918
 11
-6.80922
 21
8.7154
  0
LINE
  8
0
 10
-6.80922
 20
8.7154
 11
-6.18467
 21
9.16916
  0
LINE
  8
0
 10
-6.18467
 20
9.16916
 11
-5.53
 21
9.57824
  0
LINE
  8
0
 10
-5.53
 20
9.57824
 11
-4.84838
 21
9.94066
  0
LINE
  8
0
 10
-4.84838
 20
9.94066
 11
-4.14315
 21
10.2547
  0
LINE
  8
0
 10
-4.14315
 20
10.2547
 11
-3.41773
 21
10.5187
  0
LINE
  8
0
 10
-3.41773
 20
10.5187
 11
-2.67566
 21
10.7315
  0
LINE
  8
0
 10
-2.67566
 20
10.7315
 11
-1.92055
 21
10.892
  0
LINE
  8
0
 10
-1.92055
 20
10.892
 11
-1.43652
 21
10.96
  0
LINE
  8
0
 10
-1.43652
 20
10.96
 11
1.43652
 21
10.96
  0
LINE
  8
0
 10
1.43652
 20
10.96
 11
1.92055
 21
10.892
  0
LINE
  8
0
 10
1.92055
 20
10.892
 11
2.67566
 21
10.7315
  0
LINE
  8
0
 10
2.67566
 20
10.7315
 11
3.41773
 21
10.5187
  0
LINE
  8
0
 10
3.41773
 20
10.5187
 11
4.14315
 21
10.2547
  0
LINE
  8
0
 10
4.14315
 20
10.2547
 11
4.84838
 21
9.94066
  0
LINE
  8
0
 10
4.84838
 20
9.94066
 11
5.53
 21
9.57824
  0
LINE
  8
0
 10
5.53
 20
9.57824
 11
6.18467
 21
9.16916
  0
LINE
  8
0
 10
6.18467
 20
9.16916
 11
6.80922
 21
8.7154
  0
LINE
  8
0
 10
6.80922
 20
8.7154
 11
7.40058
 21
8.21918
  0
LINE
  8
0
 10
7.40058
 20
8.21918
 11
7.9559
 21
7.68292
  0
LINE
  8
0
 10
7.9559
 20
7.68292
 11
8.47245
 21
7.10923
  0
LINE
  8
0
 10
8.47245
 20
7.10923
 11
8.94773
 21
6.5009
  0
LINE
  8
0
 10
8.94773
 20
6.5009
 11
9.37941
 21
5.86091
  0
LINE
  8
0
 10
9.37941
 20
5.86091
 11
9.7654
 21
5.19236
  0
LINE
  8
0
 10
9.7654
 20
5.19236
 11
10.1038
 21
4.49851
  0
LINE
  8
0
 10
10.1038
 20
4.49851
 11
10.393
 21
3.78274
  0
LINE
  8
0
 10
10.393
 20
3.78274
 11
10.6316
 21
3.04855
  0
LINE
  8
0
 10
10.6316
 20
3.04855
 11
10.8183
 21
2.2995
  0
LINE
  8
0
 10
10.8183
 20
2.2995
 11
10.935
 21
1.63773
  0
LINE
  8
0
 10
10.935
 20
1.63773
 11
10.935
 21
-1.63773
  0
LINE
  8
0
 10
10.935
 20
-1.63773
 11
10.8183
 21
-2.2995
  0
LINE
  8
0
 10
10.8183
 20
-2.2995
 11
10.6316
 21
-3.04855
  0
LINE
  8
0
 10
10.6316
 20
-3.04855
 11
10.393
 21
-3.78274
  0
LINE
  8
0
 10
10.393
 20
-3.78274
 11
10.1038
 21
-4.49851
  0
LINE
  8
0
 10
10.1038
 20
-4.49851
 11
9.7654
 21
-5.19236
  0
LINE
  8
0
 10
9.7654
 20
-5.19236
 11
9.37941
 21
-5.86091
  0
LINE
  8
0
 10
9.37941
 20
-5.86091
 11
8.94773
 21
-6.5009
  0
LINE
  8
0
 10
8.94773
 20
-6.5009
 11
8.47245
 21
-7.10923
  0
LINE
  8
0
 10
8.47245
 20
-7.10923
 11
7.9559
 21
-7.68292
  0
LINE
  8
0
 10
7.9559
 20
-7.68292
 11
7.40058
 21
-8.21918
  0
LINE
  8
0
 10
7.40058
 20
-8.21918
 11
6.80922
 21
-8.7154
  0
LINE
  8
0
 10
6.80922
 20
-8.7154
 11
6.18467
 21
-9.16916
  0
LINE
  8
0
 10
6.18467
 20
-9.16916
 11
5.53
 21
-9.57824
  0
LINE
  8
0
 10
5.53
 20
-9.57824
 11
4.84838
 21
-9.94066
  0
LINE
  8
0
 10
4.84838
 20
-9.94066
 11
4.14315
 21
-10.2547
  0
LINE
  8
0
 10
4.14315
 20
-10.2547
 11
3.41773
 21
-10.5187
  0
LINE
  8
0
 10
3.41773
 20
-10.5187
 11
2.67566
 21
-10.7315
  0
LINE
  8
0
 10
2.67566
 20
-10.7315
 11
1.92055
 21
-10.892
  0
LINE
  8
0
 10
1.92055
 20
-10.892
 11
1.43652
 21
-10.96
  0
LINE
  8
0
 10
1.43652
 20
-10.96
 11
-1.43652
 21
-10.96
  0
LINE
  8
0
 10
-1.43652
 20
-10.96
 11
-1.92055
 21
-10.892
  0
LINE
  8
0
 10
-1.92055
 20
-10.892
 11
-2.67566
 21
-10.7315
  0
LINE
  8
0
 10
-2.67566
 20
-10.7315
 11
-3.41773
 21
-10.5187
  0
LINE
  8
0
 10
-3.41773
 20
-10.5187
 11
-4.14315
 21
-10.2547
  0
LINE
  8
0
 10
-4.14315
 20
-10.2547
 11
-4.84838
 21
-9.94066
  0
LINE
  8
0
 10
-4.84838
 20
-9.94066
 11
-5.53
 21
-9.57824
  0
LINE
  8
0
 10
-5.53
 20
-9.57824
 11
-6.18467
 21
-9.16916
  0
LINE
  8
0
 10
-6.18467
 20
-9.16916
 11
-6.80922
 21
-8.7154
  0
LINE
  8
0
 10
-6.80922
 20
-8.7154
 11
-7.40058
 21
-8.21918
  0
LINE
  8
0
 10
-7.40058
 20
-8.21918
 11
-7.9559
 21
-7.68292
  0
LINE
  8
0
 10
-7.9559
 20
-7.68292
 11
-8.47245
 21
-7.10923
  0
LINE
  8
0
 10
-8.47245
 20
-7.10923
 11
-8.94773
 21
-6.5009
  0
LINE
  8
0
 10
-8.94773
 20
-6.5009
 11
-9.37941
 21
-5.86091
  0
LINE
  8
0
 10
-9.37941
 20
-5.86091
 11
-9.7654
 21
-5.19236
  0
LINE
  8
0
 10
-9.7654
 20
-5.19236
 11
-10.1038
 21
-4.49851
  0
LINE
  8
0
 10
-10.1038
 20
-4.49851
 11
-10.393
 21
-3.78274
  0
LINE
  8
0
 10
-10.393
 20
-3.78274
 11
-10.6316
 21
-3.04855
  0
LINE
  8
0
 10
-10.6316
 20
-3.04855
 11
-10.8183
 21
-2.2995
  0
LINE
  8
0
 10
-10.8183
 20
-2.2995
 11
-10.935
 21
-1.63773
  0
LINE
  8
0
 10
14.14
 20
-84.88
 11
14.1436
 21
-84.7782
  0
LINE
  8
0
 10
14.1436
 20
-84.7782
 11
14.1542
 21
-84.6768
  0
LINE
  8
0
 10
14.1542
 20
-84.6768
 11
14.1719
 21
-84.5764
  0
LINE
  8
0
 10
14.1719
 20
-84.5764
 11
14.1966
 21
-84.4776
  0
LINE
  8
0
 10
14.1966
 20
-84.4776
 11
14.228
 21
-84.3807
  0
LINE
  8
0
 10
14.228
 20
-84.3807
 11
14.2662
 21
-84.2862
  0
LINE
  8
0
 10
14.2662
 20
-84.2862
 11
14.3109
 21
-84.1946
  0
LINE
  8
0
 10
14.3109
 20
-84.1946
 11
14.3618
 21
-84.1063
  0
LINE
  8
0
 10
14.3618
 20
-84.1063
 11
14.4188
 21
-84.0218
  0
LINE
  8
0
 10
14.4188
 20
-84.0218
 11
14.4816
 21
-83.9415
  0
LINE
  8
0
 10
14.4816
 20
-83.9415
 11
14.5498
 21
-83.8658
  0
LINE
  8
0
 10
14.5498
 20
-83.8658
 11
14.6231
 21
-83.795
  0
LINE
  8
0
 10
14.6231
 20
-83.795
 11
14.7011
 21
-83.7295
  0
LINE
  8
0
 10
14.7011
 20
-83.7295
 11
14.7836
 21
-83.6696
  0
LINE
  8
0
 10
14.7836
 20
-83.6696
 11
14.87
 21
-83.6156
  0
LINE
  8
0
 10
14.87
 20
-83.6156
 11
14.96
 21
-83.5678
  0
LINE
  8
0
 10
14.96
 20
-83.5678
 11
15.0531
 21
-83.5263
  0
LINE
  8
0
 10
15.0531
 20
-83.5263
 11
15.1488
 21
-83.4915
  0
LINE
  8
0
 10
15.1488
 20
-83.4915
 11
15.2468
 21
-83.4634
  0
LINE
  8
0
 10
15.2468
 20
-83.4634
 11
15.3465
 21
-83.4422
  0
LINE
  8
0
 10
15.3465
 20
-83.4422
 11
15.4474
 21
-83.428
  0
LINE
  8
0
 10
15.4474
 20
-83.428
 11
15.549
 21
-83.4209
  0
LINE
  8
0
 10
15.549
 20
-83.4209
 11
15.651
 21
-83.4209
  0
LINE
  8
0
 10
15.651
 20
-83.4209
 11
15.7526
 21
-83.428
  0
LINE
  8
0
 10
15.7526
 20
-83.428
 11
15.8535
 21
-83.4422
  0
LINE
  8
0
 10
15.8535
 20
-83.4422
 11
15.9532
 21
-83.4634
  0
LINE
  8
0
 10
15.9532
 20
-83.4634
 11
16.0512
 21
-83.4915
  0
LINE
  8
0
 10
16.0512
 20
-83.4915
 11
16.1469
 21
-83.5263
  0
LINE
  8
0
 10
16.1469
 20
-83.5263
 11
16.24
 21
-83.5678
  0
LINE
  8
0
 10
16.24
 20
-83.5678
 11
16.33
 21
-83.6156
  0
LINE
  8
0
 10
16.33
 20
-83.6156
 11
16.4164
 21
-83.6696
  0
LINE
  8
0
 10
16.4164
 20
-83.6696
 11
16.4989
 21
-83.7295
  0
LINE
  8
0
 10
16.4989
 20
-83.7295
 11
16.5769
 21
-83.795
  0
LINE
  8
0
 10
16.5769
 20
-83.795
 11
16.6502
 21
-83.8658
  0
LINE
  8
0
 10
16.6502
 20
-83.8658
 11
16.7184
 21
-83.9415
  0
LINE
  8
0
 10
16.7184
 20
-83.9415
 11
16.7812
 21
-84.0218
  0
LINE
  8
0
 10
16.7812
 20
-84.0218
 11
16.8382
 21
-84.1063
  0
LINE
  8
0
 10
16.8382
 20
-84.1063
 11
16.8891
 21
-84.1946
  0
LINE
  8
0
 10
16.8891
 20
-84.1946
 11
16.9338
 21
-84.2862
  0
LINE
  8
0
 10
16.9338
 20
-84.2862
 11
16.972
 21
-84.3807
  0
LINE
  8
0
 10
16.972
 20
-84.3807
 11
17.0034
 21
-84.4776
  0
LINE
  8
0
 10
17.0034
 20
-84.4776
 11
17.0281
 21
-84.5764
  0
LINE
  8
0
 10
17.0281
 20
-84.5764
 11
17.0458
 21
-84.6768
  0
LINE
  8
0
 10
17.0458
 20
-84.6768
 11
17.0564
 21
-84.7782
  0
LINE
  8
0
 10
17.0564
 20
-84.7782
 11
17.06
 21
-84.88
  0
LINE
  8
0
 10
17.06
 20
-84.88
 11
17.0564
 21
-84.9818
  0
LINE
  8
0
 10
17.0564
 20
-84.9818
 11
17.0458
 21
-85.0832
  0
LINE
  8
0
 10
17.0458
 20
-85.0832
 11
17.0281
 21
-85.1836
  0
LINE
  8
0
 10
17.0281
 20
-85.1836
 11
17.0034
 21
-85.2824
  0
LINE
  8
0
 10
17.0034
 20
-85.2824
 11
16.972
 21
-85.3793
  0
LINE
  8
0
 10
16.972
 20
-85.3793
 11
16.9338
 21
-85.4738
  0
LINE
  8
0
 10
16.9338
 20
-85.4738
 11
16.8891
 21
-85.5654
  0
LINE
  8
0
 10
16.8891
 20
-85.5654
 11
16.8382
 21
-85.6537
  0
LINE
  8
0
 10
16.8382
 20
-85.6537
 11
16.7812
 21
-85.7382
  0
LINE
  8
0
 10
16.7812
 20
-85.7382
 11
16.7184
 21
-85.8185
  0
LINE
  8
0
 10
16.7184
 20
-85.8185
 11
16.6502
 21
-85.8942
  0
LINE
  8
0
 10
16.6502
 20
-85.8942
 11
16.5769
 21
-85.965
  0
LINE
  8
0
 10
16.5769
 20
-85.965
 11
16.4989
 21
-86.0305
  0
LINE
  8
0
 10
16.4989
 20
-86.0305
 11
16.4164
 21
-86.0904
  0
LINE
  8
0
 10
16.4164
 20
-86.0904
 11
16.33
 21
-86.1444
  0
LINE
  8
0
 10
16.33
 20
-86.1444
 11
16.24
 21
-86.1922
  0
LINE
  8
0
 10
16.24
 20
-86.1922
 11
16.1469
 21
-86.2337
  0
LINE
  8
0
 10
16.1469
 20
-86.2337
 11
16.0512
 21
-86.2685
  0
LINE
  8
0
 10
16.0512
 20
-86.2685
 11
15.9532
 21
-86.2966
  0
LINE
  8
0
 10
15.9532
 20
-86.2966
 11
15.8535
 21
-86.3178
  0
LINE
  8
0
 10
15.8535
 20
-86.3178
 11
15.7526
 21
-86.332
  0
LINE
  8
0
 10
15.7526
 20
-86.332
 11
15.651
 21
-86.3391
  0
LINE
  8
0
 10
15.651
 20
-86.3391
 11
15.549
 21
-86.3391
  0
LINE
  8
0
 10
15.549
 20
-86.3391
 11
15.4474
 21
-86.332
  0
LINE
  8
0
 10
15.4474
 20
-86.332
 11
15.3465
 21
-86.3178
  0
LINE
  8
0
 10
15.3465
 20
-86.3178
 11
15.2468
 21
-86.2966
  0
LINE
  8
0
 10
15.2468
 20
-86.2966
 11
15.1488
 21
-86.2685
  0
LINE
  8
0
 10
15.1488
 20
-86.2685
 11
15.0531
 21
-86.2337
  0
LINE
  8
0
 10
15.0531
 20
-86.2337
 11
14.96
 21
-86.1922
  0
LINE
  8
0
 10
14.96
 20
-86.1922
 11
14.87
 21
-86.1444
  0
LINE
  8
0
 10
14.87
 20
-86.1444
 11
14.7836
 21
-86.0904
  0
LINE
  8
0
 10
14.7836
 20
-86.0904
 11
14.7011
 21
-86.0305
  0
LINE
  8
0
 10
14.7011
 20
-86.0305
 11
14.6231
 21
-85.965
  0
LINE
  8
0
 10
14.6231
 20
-85.965
 11
14.5498
 21
-85.8942
  0
LINE
  8
0
 10
14.5498
 20
-85.8942
 11
14.4816
 21
-85.8185
  0
LINE
  8
0
 10
14.4816
 20
-85.8185
 11
14.4188
 21
-85.7382
  0
LINE
  8
0
 10
14.4188
 20
-85.7382
 11
14.3618
 21
-85.6537
  0
LINE
  8
0
 10
14.3618
 20
-85.6537
 11
14.3109
 21
-85.5654
  0
LINE
  8
0
 10
14.3109
 20
-85.5654
 11
14.2662
 21
-85.4738
  0
LINE
  8
0
 10
14.2662
 20
-85.4738
 11
14.228
 21
-85.3793
  0
LINE
  8
0
 10
14.228
 20
-85.3793
 11
14.1966
 21
-85.2824
  0
LINE
  8
0
 10
14.1966
 20
-85.2824
 11
14.1719
 21
-85.1836
  0
LINE
  8
0
 10
14.1719
 20
-85.1836
 11
14.1542
 21
-85.0832
  0
LINE
  8
0
 10
14.1542
 20
-85.0832
 11
14.1436
 21
-84.9818
  0
LINE
  8
0
 10
14.1436
 20
-84.9818
 11
14.14
 21
-84.88
  0
ENDSEC
  0
SECTION
  2
OBJECTS
  0
DICTIONARY
  0
ENDSEC
  0
EOF
