  0
SECTION
  2
BLOCKS
  0
ENDSEC
  0
SECTION
  2
ENTITIES
  0
LINE
  8
0
 10
-47.7583
 20
94.1241
 11
-47.5924
 21
94.1474
  0
LINE
  8
0
 10
-47.5924
 20
94.1474
 11
-47.4285
 21
94.1823
  0
LINE
  8
0
 10
-47.4285
 20
94.1823
 11
-47.2675
 21
94.2284
  0
LINE
  8
0
 10
-47.2675
 20
94.2284
 11
-47.1101
 21
94.2857
  0
LINE
  8
0
 10
-47.1101
 20
94.2857
 11
-46.957
 21
94.3539
  0
LINE
  8
0
 10
-46.957
 20
94.3539
 11
-46.8091
 21
94.4325
  0
LINE
  8
0
 10
-46.8091
 20
94.4325
 11
-46.6671
 21
94.5213
  0
LINE
  8
0
 10
-46.6671
 20
94.5213
 11
-46.5315
 21
94.6197
  0
LINE
  8
0
 10
-46.5315
 20
94.6197
 11
-46.4032
 21
94.7274
  0
LINE
  8
0
 10
-46.4032
 20
94.7274
 11
-46.2827
 21
94.8438
  0
LINE
  8
0
 10
-46.2827
 20
94.8438
 11
-46.1706
 21
94.9683
  0
LINE
  8
0
 10
-46.1706
 20
94.9683
 11
-46.0675
 21
95.1003
  0
LINE
  8
0
 10
-46.0675
 20
95.1003
 11
-45.9738
 21
95.2392
  0
LINE
  8
0
 10
-45.9738
 20
95.2392
 11
-45.89
 21
95.3842
  0
LINE
  8
0
 10
-45.89
 20
95.3842
 11
-45.8166
 21
95.5348
  0
LINE
  8
0
 10
-45.8166
 20
95.5348
 11
-45.7539
 21
95.6901
  0
LINE
  8
0
 10
-45.7539
 20
95.6901
 11
-45.7021
 21
95.8494
  0
LINE
  8
0
 10
-45.7021
 20
95.8494
 11
-45.6616
 21
96.012
  0
LINE
  8
0
 10
-45.6616
 20
96.012
 11
-45.6325
 21
96.177
  0
LINE
  8
0
 10
-45.6325
 20
96.177
 11
-45.615
 21
96.3436
  0
LINE
  8
0
 10
-45.615
 20
96.3436
 11
-45.6091
 21
96.511
  0
LINE
  8
0
 10
-45.6091
 20
96.511
 11
-45.615
 21
96.6784
  0
LINE
  8
0
 10
-45.615
 20
96.6784
 11
-45.6325
 21
96.845
  0
LINE
  8
0
 10
-45.6325
 20
96.845
 11
-45.6616
 21
97.0099
  0
LINE
  8
0
 10
-45.6616
 20
97.0099
 11
-45.7021
 21
97.1725
  0
LINE
  8
0
 10
-45.7021
 20
97.1725
 11
-45.7539
 21
97.3318
  0
LINE
  8
0
 10
-45.7539
 20
97.3318
 11
-55.604
 21
124.395
  0
LINE
  8
0
 10
-55.604
 20
124.395
 11
-55.6668
 21
124.55
  0
LINE
  8
0
 10
-55.6668
 20
124.55
 11
-55.7402
 21
124.701
  0
LINE
  8
0
 10
-55.7402
 20
124.701
 11
-55.824
 21
124.846
  0
LINE
  8
0
 10
-55.824
 20
124.846
 11
-55.9177
 21
124.985
  0
LINE
  8
0
 10
-55.9177
 20
124.985
 11
-56.0208
 21
125.117
  0
LINE
  8
0
 10
-56.0208
 20
125.117
 11
-56.1329
 21
125.241
  0
LINE
  8
0
 10
-56.1329
 20
125.241
 11
-56.2534
 21
125.358
  0
LINE
  8
0
 10
-56.2534
 20
125.358
 11
-56.3817
 21
125.465
  0
LINE
  8
0
 10
-56.3817
 20
125.465
 11
-56.5172
 21
125.564
  0
LINE
  8
0
 10
-56.5172
 20
125.564
 11
-56.6593
 21
125.653
  0
LINE
  8
0
 10
-56.6593
 20
125.653
 11
-56.8072
 21
125.731
  0
LINE
  8
0
 10
-56.8072
 20
125.731
 11
-56.9602
 21
125.799
  0
LINE
  8
0
 10
-56.9602
 20
125.799
 11
-57.1177
 21
125.857
  0
LINE
  8
0
 10
-57.1177
 20
125.857
 11
-57.2787
 21
125.903
  0
LINE
  8
0
 10
-57.2787
 20
125.903
 11
-57.4425
 21
125.938
  0
LINE
  8
0
 10
-57.4425
 20
125.938
 11
-57.6084
 21
125.961
  0
LINE
  8
0
 10
-57.6084
 20
125.961
 11
-57.7755
 21
125.973
  0
LINE
  8
0
 10
-57.7755
 20
125.973
 11
-57.9431
 21
125.973
  0
LINE
  8
0
 10
-57.9431
 20
125.973
 11
-58.1102
 21
125.961
  0
LINE
  8
0
 10
-58.1102
 20
125.961
 11
-58.276
 21
125.938
  0
LINE
  8
0
 10
-58.276
 20
125.938
 11
-58.4399
 21
125.903
  0
LINE
  8
0
 10
-58.4399
 20
125.903
 11
-58.6009
 21
125.857
  0
LINE
  8
0
 10
-58.6009
 20
125.857
 11
-58.7583
 21
125.799
  0
LINE
  8
0
 10
-58.7583
 20
125.799
 11
-58.9114
 21
125.731
  0
LINE
  8
0
 10
-58.9114
 20
125.731
 11
-59.0593
 21
125.653
  0
LINE
  8
0
 10
-59.0593
 20
125.653
 11
-59.2014
 21
125.564
  0
LINE
  8
0
 10
-59.2014
 20
125.564
 11
-59.3369
 21
125.465
  0
LINE
  8
0
 10
-59.3369
 20
125.465
 11
-59.4652
 21
125.358
  0
LINE
  8
0
 10
-59.4652
 20
125.358
 11
-59.5857
 21
125.241
  0
LINE
  8
0
 10
-59.5857
 20
125.241
 11
-59.6978
 21
125.117
  0
LINE
  8
0
 10
-59.6978
 20
125.117
 11
-59.8009
 21
124.985
  0
LINE
  8
0
 10
-59.8009
 20
124.985
 11
-59.8946
 21
124.846
  0
LINE
  8
0
 10
-59.8946
 20
124.846
 11
-59.9784
 21
124.701
  0
LINE
  8
0
 10
-59.9784
 20
124.701
 11
-60.0518
 21
124.55
  0
LINE
  8
0
 10
-60.0518
 20
124.55
 11
-60.1146
 21
124.395
  0
LINE
  8
0
 10
-60.1146
 20
124.395
 11
-60.1663
 21
124.236
  0
LINE
  8
0
 10
-60.1663
 20
124.236
 11
-60.2068
 21
124.073
  0
LINE
  8
0
 10
-60.2068
 20
124.073
 11
-60.2359
 21
123.908
  0
LINE
  8
0
 10
-60.2359
 20
123.908
 11
-60.2534
 21
123.742
  0
LINE
  8
0
 10
-60.2534
 20
123.742
 11
-60.2593
 21
123.574
  0
LINE
  8
0
 10
-60.2593
 20
123.574
 11
-60.3652
 21
108.211
  0
LINE
  8
0
 10
-60.3652
 20
108.211
 11
-60.3593
 21
108.044
  0
LINE
  8
0
 10
-60.3593
 20
108.044
 11
-60.3418
 21
107.877
  0
LINE
  8
0
 10
-60.3418
 20
107.877
 11
-60.3127
 21
107.712
  0
LINE
  8
0
 10
-60.3127
 20
107.712
 11
-60.2722
 21
107.55
  0
LINE
  8
0
 10
-60.2722
 20
107.55
 11
-60.2204
 21
107.391
  0
LINE
  8
0
 10
-60.2204
 20
107.391
 11
-60.1577
 21
107.235
  0
LINE
  8
0
 10
-60.1577
 20
107.235
 11
-60.0842
 21
107.085
  0
LINE
  8
0
 10
-60.0842
 20
107.085
 11
-60.0005
 21
106.94
  0
LINE
  8
0
 10
-60.0005
 20
106.94
 11
-59.9068
 21
106.801
  0
LINE
  8
0
 10
-59.9068
 20
106.801
 11
-59.8037
 21
106.669
  0
LINE
  8
0
 10
-59.8037
 20
106.669
 11
-49.8476
 21
94.9683
  0
LINE
  8
0
 10
-49.8476
 20
94.9683
 11
-49.7355
 21
94.8438
  0
LINE
  8
0
 10
-49.7355
 20
94.8438
 11
-49.615
 21
94.7274
  0
LINE
  8
0
 10
-49.615
 20
94.7274
 11
-49.4867
 21
94.6197
  0
LINE
  8
0
 10
-49.4867
 20
94.6197
 11
-49.3512
 21
94.5213
  0
LINE
  8
0
 10
-49.3512
 20
94.5213
 11
-49.2091
 21
94.4325
  0
LINE
  8
0
 10
-49.2091
 20
94.4325
 11
-49.0612
 21
94.3539
  0
LINE
  8
0
 10
-49.0612
 20
94.3539
 11
-48.9082
 21
94.2857
  0
LINE
  8
0
 10
-48.9082
 20
94.2857
 11
-48.7508
 21
94.2284
  0
LINE
  8
0
 10
-48.7508
 20
94.2284
 11
-48.5897
 21
94.1823
  0
LINE
  8
0
 10
-48.5897
 20
94.1823
 11
-48.4259
 21
94.1474
  0
LINE
  8
0
 10
-48.4259
 20
94.1474
 11
-48.26
 21
94.1241
  0
LINE
  8
0
 10
-48.26
 20
94.1241
 11
-48.0929
 21
94.1124
  0
LINE
  8
0
 10
-48.0929
 20
94.1124
 11
-47.9254
 21
94.1124
  0
LINE
  8
0
 10
-47.9254
 20
94.1124
 11
-47.7583
 21
94.1241
  0
LINE
  8
0
 10
-55.2404
 20
107.763
 11
-55.3421
 21
107.77
  0
LINE
  8
0
 10
-55.3421
 20
107.77
 11
-55.443
 21
107.784
  0
LINE
  8
0
 10
-55.443
 20
107.784
 11
-55.5427
 21
107.805
  0
LINE
  8
0
 10
-55.5427
 20
107.805
 11
-55.6406
 21
107.833
  0
LINE
  8
0
 10
-55.6406
 20
107.833
 11
-55.7364
 21
107.868
  0
LINE
  8
0
 10
-55.7364
 20
107.868
 11
-55.8295
 21
107.909
  0
LINE
  8
0
 10
-55.8295
 20
107.909
 11
-55.9195
 21
107.957
  0
LINE
  8
0
 10
-55.9195
 20
107.957
 11
-56.0059
 21
108.011
  0
LINE
  8
0
 10
-56.0059
 20
108.011
 11
-56.0883
 21
108.071
  0
LINE
  8
0
 10
-56.0883
 20
108.071
 11
-56.1664
 21
108.137
  0
LINE
  8
0
 10
-56.1664
 20
108.137
 11
-56.2397
 21
108.207
  0
LINE
  8
0
 10
-56.2397
 20
108.207
 11
-56.3079
 21
108.283
  0
LINE
  8
0
 10
-56.3079
 20
108.283
 11
-56.3706
 21
108.364
  0
LINE
  8
0
 10
-56.3706
 20
108.364
 11
-56.4276
 21
108.448
  0
LINE
  8
0
 10
-56.4276
 20
108.448
 11
-56.4786
 21
108.536
  0
LINE
  8
0
 10
-56.4786
 20
108.536
 11
-56.5232
 21
108.628
  0
LINE
  8
0
 10
-56.5232
 20
108.628
 11
-56.5614
 21
108.722
  0
LINE
  8
0
 10
-56.5614
 20
108.722
 11
-56.5929
 21
108.819
  0
LINE
  8
0
 10
-56.5929
 20
108.819
 11
-56.6176
 21
108.918
  0
LINE
  8
0
 10
-56.6176
 20
108.918
 11
-56.6353
 21
109.018
  0
LINE
  8
0
 10
-56.6353
 20
109.018
 11
-56.6459
 21
109.12
  0
LINE
  8
0
 10
-56.6459
 20
109.12
 11
-56.6495
 21
109.222
  0
LINE
  8
0
 10
-56.6495
 20
109.222
 11
-56.6459
 21
109.324
  0
LINE
  8
0
 10
-56.6459
 20
109.324
 11
-56.6353
 21
109.425
  0
LINE
  8
0
 10
-56.6353
 20
109.425
 11
-56.6176
 21
109.525
  0
LINE
  8
0
 10
-56.6176
 20
109.525
 11
-56.5929
 21
109.624
  0
LINE
  8
0
 10
-56.5929
 20
109.624
 11
-56.5614
 21
109.721
  0
LINE
  8
0
 10
-56.5614
 20
109.721
 11
-56.5232
 21
109.816
  0
LINE
  8
0
 10
-56.5232
 20
109.816
 11
-56.4786
 21
109.907
  0
LINE
  8
0
 10
-56.4786
 20
109.907
 11
-56.4276
 21
109.995
  0
LINE
  8
0
 10
-56.4276
 20
109.995
 11
-56.3706
 21
110.08
  0
LINE
  8
0
 10
-56.3706
 20
110.08
 11
-56.3079
 21
110.16
  0
LINE
  8
0
 10
-56.3079
 20
110.16
 11
-56.2397
 21
110.236
  0
LINE
  8
0
 10
-56.2397
 20
110.236
 11
-56.1664
 21
110.307
  0
LINE
  8
0
 10
-56.1664
 20
110.307
 11
-56.0883
 21
110.372
  0
LINE
  8
0
 10
-56.0883
 20
110.372
 11
-56.0059
 21
110.432
  0
LINE
  8
0
 10
-56.0059
 20
110.432
 11
-55.9195
 21
110.486
  0
LINE
  8
0
 10
-55.9195
 20
110.486
 11
-55.8295
 21
110.534
  0
LINE
  8
0
 10
-55.8295
 20
110.534
 11
-55.7364
 21
110.575
  0
LINE
  8
0
 10
-55.7364
 20
110.575
 11
-55.6406
 21
110.61
  0
LINE
  8
0
 10
-55.6406
 20
110.61
 11
-55.5427
 21
110.638
  0
LINE
  8
0
 10
-55.5427
 20
110.638
 11
-55.443
 21
110.66
  0
LINE
  8
0
 10
-55.443
 20
110.66
 11
-55.3421
 21
110.674
  0
LINE
  8
0
 10
-55.3421
 20
110.674
 11
-55.2404
 21
110.681
  0
LINE
  8
0
 10
-55.2404
 20
110.681
 11
-55.1385
 21
110.681
  0
LINE
  8
0
 10
-55.1385
 20
110.681
 11
-55.0369
 21
110.674
  0
LINE
  8
0
 10
-55.0369
 20
110.674
 11
-54.9359
 21
110.66
  0
LINE
  8
0
 10
-54.9359
 20
110.66
 11
-54.8363
 21
110.638
  0
LINE
  8
0
 10
-54.8363
 20
110.638
 11
-54.7383
 21
110.61
  0
LINE
  8
0
 10
-54.7383
 20
110.61
 11
-54.6425
 21
110.575
  0
LINE
  8
0
 10
-54.6425
 20
110.575
 11
-54.5495
 21
110.534
  0
LINE
  8
0
 10
-54.5495
 20
110.534
 11
-54.4595
 21
110.486
  0
LINE
  8
0
 10
-54.4595
 20
110.486
 11
-54.373
 21
110.432
  0
LINE
  8
0
 10
-54.373
 20
110.432
 11
-54.2906
 21
110.372
  0
LINE
  8
0
 10
-54.2906
 20
110.372
 11
-54.2125
 21
110.307
  0
LINE
  8
0
 10
-54.2125
 20
110.307
 11
-54.1392
 21
110.236
  0
LINE
  8
0
 10
-54.1392
 20
110.236
 11
-54.071
 21
110.16
  0
LINE
  8
0
 10
-54.071
 20
110.16
 11
-54.0083
 21
110.08
  0
LINE
  8
0
 10
-54.0083
 20
110.08
 11
-53.9513
 21
109.995
  0
LINE
  8
0
 10
-53.9513
 20
109.995
 11
-53.9004
 21
109.907
  0
LINE
  8
0
 10
-53.9004
 20
109.907
 11
-53.8557
 21
109.816
  0
LINE
  8
0
 10
-53.8557
 20
109.816
 11
-53.8175
 21
109.721
  0
LINE
  8
0
 10
-53.8175
 20
109.721
 11
-53.786
 21
109.624
  0
LINE
  8
0
 10
-53.786
 20
109.624
 11
-53.7614
 21
109.525
  0
LINE
  8
0
 10
-53.7614
 20
109.525
 11
-53.7437
 21
109.425
  0
LINE
  8
0
 10
-53.7437
 20
109.425
 11
-53.733
 21
109.324
  0
LINE
  8
0
 10
-53.733
 20
109.324
 11
-53.7295
 21
109.222
  0
LINE
  8
0
 10
-53.7295
 20
109.222
 11
-53.733
 21
109.12
  0
LINE
  8
0
 10
-53.733
 20
109.12
 11
-53.7437
 21
109.018
  0
LINE
  8
0
 10
-53.7437
 20
109.018
 11
-53.7614
 21
108.918
  0
LINE
  8
0
 10
-53.7614
 20
108.918
 11
-53.786
 21
108.819
  0
LINE
  8
0
 10
-53.786
 20
108.819
 11
-53.8175
 21
108.722
  0
LINE
  8
0
 10
-53.8175
 20
108.722
 11
-53.8557
 21
108.628
  0
LINE
  8
0
 10
-53.8557
 20
108.628
 11
-53.9004
 21
108.536
  0
LINE
  8
0
 10
-53.9004
 20
108.536
 11
-53.9513
 21
108.448
  0
LINE
  8
0
 10
-53.9513
 20
108.448
 11
-54.0083
 21
108.364
  0
LINE
  8
0
 10
-54.0083
 20
108.364
 11
-54.071
 21
108.283
  0
LINE
  8
0
 10
-54.071
 20
108.283
 11
-54.1392
 21
108.207
  0
LINE
  8
0
 10
-54.1392
 20
108.207
 11
-54.2125
 21
108.137
  0
LINE
  8
0
 10
-54.2125
 20
108.137
 11
-54.2906
 21
108.071
  0
LINE
  8
0
 10
-54.2906
 20
108.071
 11
-54.373
 21
108.011
  0
LINE
  8
0
 10
-54.373
 20
108.011
 11
-54.4595
 21
107.957
  0
LINE
  8
0
 10
-54.4595
 20
107.957
 11
-54.5495
 21
107.909
  0
LINE
  8
0
 10
-54.5495
 20
107.909
 11
-54.6425
 21
107.868
  0
LINE
  8
0
 10
-54.6425
 20
107.868
 11
-54.7383
 21
107.833
  0
LINE
  8
0
 10
-54.7383
 20
107.833
 11
-54.8363
 21
107.805
  0
LINE
  8
0
 10
-54.8363
 20
107.805
 11
-54.9359
 21
107.784
  0
LINE
  8
0
 10
-54.9359
 20
107.784
 11
-55.0369
 21
107.77
  0
LINE
  8
0
 10
-55.0369
 20
107.77
 11
-55.1385
 21
107.763
  0
LINE
  8
0
 10
-55.1385
 20
107.763
 11
-55.2404
 21
107.763
  0
ENDSEC
  0
SECTION
  2
OBJECTS
  0
DICTIONARY
  0
ENDSEC
  0
EOF
