  0
SECTION
  2
BLOCKS
  0
ENDSEC
  0
SECTION
  2
ENTITIES
  0
LINE
  8
0
 10
-33.65
 20
0
 11
-33.3954
 21
-2.42217
  0
LINE
  8
0
 10
-33.3954
 20
-2.42217
 11
-32.6428
 21
-4.73848
  0
LINE
  8
0
 10
-32.6428
 20
-4.73848
 11
-31.425
 21
-6.8477
  0
LINE
  8
0
 10
-31.425
 20
-6.8477
 11
-29.7954
 21
-8.65764
  0
LINE
  8
0
 10
-29.7954
 20
-8.65764
 11
-27.825
 21
-10.0892
  0
LINE
  8
0
 10
-27.825
 20
-10.0892
 11
-25.6
 21
-11.0798
  0
LINE
  8
0
 10
-25.6
 20
-11.0798
 11
-23.2178
 21
-11.5862
  0
LINE
  8
0
 10
-23.2178
 20
-11.5862
 11
23.2178
 21
-11.5862
  0
LINE
  8
0
 10
23.2178
 20
-11.5862
 11
25.6
 21
-11.0798
  0
LINE
  8
0
 10
25.6
 20
-11.0798
 11
27.825
 21
-10.0892
  0
LINE
  8
0
 10
27.825
 20
-10.0892
 11
29.7954
 21
-8.65764
  0
LINE
  8
0
 10
29.7954
 20
-8.65764
 11
31.425
 21
-6.8477
  0
LINE
  8
0
 10
31.425
 20
-6.8477
 11
32.6428
 21
-4.73848
  0
LINE
  8
0
 10
32.6428
 20
-4.73848
 11
33.3954
 21
-2.42217
  0
LINE
  8
0
 10
33.3954
 20
-2.42217
 11
33.65
 21
0
  0
LINE
  8
0
 10
33.65
 20
0
 11
33.3954
 21
2.42217
  0
LINE
  8
0
 10
33.3954
 20
2.42217
 11
32.6428
 21
4.73848
  0
LINE
  8
0
 10
32.6428
 20
4.73848
 11
24.9233
 21
26.8016
  0
LINE
  8
0
 10
24.9233
 20
26.8016
 11
24.5889
 21
27.3809
  0
LINE
  8
0
 10
24.5889
 20
27.3809
 11
24.1412
 21
27.8781
  0
LINE
  8
0
 10
24.1412
 20
27.8781
 11
23.6
 21
28.2713
  0
LINE
  8
0
 10
23.6
 20
28.2713
 11
22.9889
 21
28.5434
  0
LINE
  8
0
 10
22.9889
 20
28.5434
 11
22.3345
 21
28.6825
  0
LINE
  8
0
 10
22.3345
 20
28.6825
 11
-22.3345
 21
28.6825
  0
LINE
  8
0
 10
-22.3345
 20
28.6825
 11
-22.9889
 21
28.5434
  0
LINE
  8
0
 10
-22.9889
 20
28.5434
 11
-23.6
 21
28.2713
  0
LINE
  8
0
 10
-23.6
 20
28.2713
 11
-24.1412
 21
27.8781
  0
LINE
  8
0
 10
-24.1412
 20
27.8781
 11
-24.5889
 21
27.3809
  0
LINE
  8
0
 10
-24.5889
 20
27.3809
 11
-24.9233
 21
26.8016
  0
LINE
  8
0
 10
-24.9233
 20
26.8016
 11
-32.6428
 21
4.73848
  0
LINE
  8
0
 10
-32.6428
 20
4.73848
 11
-33.3954
 21
2.42217
  0
LINE
  8
0
 10
-33.3954
 20
2.42217
 11
-33.65
 21
0
  0
LINE
  8
0
 10
-25.95
 20
0
 11
-25.8637
 21
0.821251
  0
LINE
  8
0
 10
-25.8637
 20
0.821251
 11
-25.6085
 21
1.60661
  0
LINE
  8
0
 10
-25.6085
 20
1.60661
 11
-25.1956
 21
2.32175
  0
LINE
  8
0
 10
-25.1956
 20
2.32175
 11
-24.6431
 21
2.93542
  0
LINE
  8
0
 10
-24.6431
 20
2.93542
 11
-23.975
 21
3.4208
  0
LINE
  8
0
 10
-23.975
 20
3.4208
 11
-23.2206
 21
3.75667
  0
LINE
  8
0
 10
-23.2206
 20
3.75667
 11
-22.4129
 21
3.92836
  0
LINE
  8
0
 10
-22.4129
 20
3.92836
 11
-21.5871
 21
3.92836
  0
LINE
  8
0
 10
-21.5871
 20
3.92836
 11
-20.7794
 21
3.75667
  0
LINE
  8
0
 10
-20.7794
 20
3.75667
 11
-20.025
 21
3.4208
  0
LINE
  8
0
 10
-20.025
 20
3.4208
 11
-19.3569
 21
2.93542
  0
LINE
  8
0
 10
-19.3569
 20
2.93542
 11
-18.8044
 21
2.32175
  0
LINE
  8
0
 10
-18.8044
 20
2.32175
 11
-18.3915
 21
1.60661
  0
LINE
  8
0
 10
-18.3915
 20
1.60661
 11
-18.1363
 21
0.821251
  0
LINE
  8
0
 10
-18.1363
 20
0.821251
 11
-18.05
 21
0
  0
LINE
  8
0
 10
-18.05
 20
0
 11
-18.1363
 21
-0.821251
  0
LINE
  8
0
 10
-18.1363
 20
-0.821251
 11
-18.3915
 21
-1.60661
  0
LINE
  8
0
 10
-18.3915
 20
-1.60661
 11
-18.8044
 21
-2.32175
  0
LINE
  8
0
 10
-18.8044
 20
-2.32175
 11
-19.3569
 21
-2.93542
  0
LINE
  8
0
 10
-19.3569
 20
-2.93542
 11
-20.025
 21
-3.4208
  0
LINE
  8
0
 10
-20.025
 20
-3.4208
 11
-20.7794
 21
-3.75667
  0
LINE
  8
0
 10
-20.7794
 20
-3.75667
 11
-21.5871
 21
-3.92836
  0
LINE
  8
0
 10
-21.5871
 20
-3.92836
 11
-22.4129
 21
-3.92836
  0
LINE
  8
0
 10
-22.4129
 20
-3.92836
 11
-23.2206
 21
-3.75667
  0
LINE
  8
0
 10
-23.2206
 20
-3.75667
 11
-23.975
 21
-3.4208
  0
LINE
  8
0
 10
-23.975
 20
-3.4208
 11
-24.6431
 21
-2.93542
  0
LINE
  8
0
 10
-24.6431
 20
-2.93542
 11
-25.1956
 21
-2.32175
  0
LINE
  8
0
 10
-25.1956
 20
-2.32175
 11
-25.6085
 21
-1.60661
  0
LINE
  8
0
 10
-25.6085
 20
-1.60661
 11
-25.8637
 21
-0.821251
  0
LINE
  8
0
 10
-25.8637
 20
-0.821251
 11
-25.95
 21
0
  0
LINE
  8
0
 10
-5.9
 20
-0.1
 11
-5.77107
 21
1.12668
  0
LINE
  8
0
 10
-5.77107
 20
1.12668
 11
-5.38992
 21
2.29975
  0
LINE
  8
0
 10
-5.38992
 20
2.29975
 11
-4.7732
 21
3.36793
  0
LINE
  8
0
 10
-4.7732
 20
3.36793
 11
-3.94787
 21
4.28455
  0
LINE
  8
0
 10
-3.94787
 20
4.28455
 11
-2.95
 21
5.00955
  0
LINE
  8
0
 10
-2.95
 20
5.00955
 11
-1.8232
 21
5.51123
  0
LINE
  8
0
 10
-1.8232
 20
5.51123
 11
-0.616717
 21
5.76768
  0
LINE
  8
0
 10
-0.616717
 20
5.76768
 11
0.616717
 21
5.76768
  0
LINE
  8
0
 10
0.616717
 20
5.76768
 11
1.8232
 21
5.51123
  0
LINE
  8
0
 10
1.8232
 20
5.51123
 11
2.95
 21
5.00955
  0
LINE
  8
0
 10
2.95
 20
5.00955
 11
3.94787
 21
4.28455
  0
LINE
  8
0
 10
3.94787
 20
4.28455
 11
4.7732
 21
3.36793
  0
LINE
  8
0
 10
4.7732
 20
3.36793
 11
5.38992
 21
2.29975
  0
LINE
  8
0
 10
5.38992
 20
2.29975
 11
5.77107
 21
1.12668
  0
LINE
  8
0
 10
5.77107
 20
1.12668
 11
5.9
 21
-0.1
  0
LINE
  8
0
 10
5.9
 20
-0.1
 11
5.77107
 21
-1.32668
  0
LINE
  8
0
 10
5.77107
 20
-1.32668
 11
5.38992
 21
-2.49975
  0
LINE
  8
0
 10
5.38992
 20
-2.49975
 11
4.7732
 21
-3.56793
  0
LINE
  8
0
 10
4.7732
 20
-3.56793
 11
3.94787
 21
-4.48455
  0
LINE
  8
0
 10
3.94787
 20
-4.48455
 11
2.95
 21
-5.20955
  0
LINE
  8
0
 10
2.95
 20
-5.20955
 11
1.8232
 21
-5.71123
  0
LINE
  8
0
 10
1.8232
 20
-5.71123
 11
0.616717
 21
-5.96768
  0
LINE
  8
0
 10
0.616717
 20
-5.96768
 11
-0.616717
 21
-5.96768
  0
LINE
  8
0
 10
-0.616717
 20
-5.96768
 11
-1.8232
 21
-5.71123
  0
LINE
  8
0
 10
-1.8232
 20
-5.71123
 11
-2.95
 21
-5.20955
  0
LINE
  8
0
 10
-2.95
 20
-5.20955
 11
-3.94787
 21
-4.48455
  0
LINE
  8
0
 10
-3.94787
 20
-4.48455
 11
-4.7732
 21
-3.56793
  0
LINE
  8
0
 10
-4.7732
 20
-3.56793
 11
-5.38992
 21
-2.49975
  0
LINE
  8
0
 10
-5.38992
 20
-2.49975
 11
-5.77107
 21
-1.32668
  0
LINE
  8
0
 10
-5.77107
 20
-1.32668
 11
-5.9
 21
-0.1
  0
LINE
  8
0
 10
18.05
 20
0
 11
18.1363
 21
0.821251
  0
LINE
  8
0
 10
18.1363
 20
0.821251
 11
18.3915
 21
1.60661
  0
LINE
  8
0
 10
18.3915
 20
1.60661
 11
18.8044
 21
2.32175
  0
LINE
  8
0
 10
18.8044
 20
2.32175
 11
19.3569
 21
2.93542
  0
LINE
  8
0
 10
19.3569
 20
2.93542
 11
20.025
 21
3.4208
  0
LINE
  8
0
 10
20.025
 20
3.4208
 11
20.7794
 21
3.75667
  0
LINE
  8
0
 10
20.7794
 20
3.75667
 11
21.5871
 21
3.92836
  0
LINE
  8
0
 10
21.5871
 20
3.92836
 11
22.4129
 21
3.92836
  0
LINE
  8
0
 10
22.4129
 20
3.92836
 11
23.2206
 21
3.75667
  0
LINE
  8
0
 10
23.2206
 20
3.75667
 11
23.975
 21
3.4208
  0
LINE
  8
0
 10
23.975
 20
3.4208
 11
24.6431
 21
2.93542
  0
LINE
  8
0
 10
24.6431
 20
2.93542
 11
25.1956
 21
2.32175
  0
LINE
  8
0
 10
25.1956
 20
2.32175
 11
25.6085
 21
1.60661
  0
LINE
  8
0
 10
25.6085
 20
1.60661
 11
25.8637
 21
0.821251
  0
LINE
  8
0
 10
25.8637
 20
0.821251
 11
25.95
 21
0
  0
LINE
  8
0
 10
25.95
 20
0
 11
25.8637
 21
-0.821251
  0
LINE
  8
0
 10
25.8637
 20
-0.821251
 11
25.6085
 21
-1.60661
  0
LINE
  8
0
 10
25.6085
 20
-1.60661
 11
25.1956
 21
-2.32175
  0
LINE
  8
0
 10
25.1956
 20
-2.32175
 11
24.6431
 21
-2.93542
  0
LINE
  8
0
 10
24.6431
 20
-2.93542
 11
23.975
 21
-3.4208
  0
LINE
  8
0
 10
23.975
 20
-3.4208
 11
23.2206
 21
-3.75667
  0
LINE
  8
0
 10
23.2206
 20
-3.75667
 11
22.4129
 21
-3.92836
  0
LINE
  8
0
 10
22.4129
 20
-3.92836
 11
21.5871
 21
-3.92836
  0
LINE
  8
0
 10
21.5871
 20
-3.92836
 11
20.7794
 21
-3.75667
  0
LINE
  8
0
 10
20.7794
 20
-3.75667
 11
20.025
 21
-3.4208
  0
LINE
  8
0
 10
20.025
 20
-3.4208
 11
19.3569
 21
-2.93542
  0
LINE
  8
0
 10
19.3569
 20
-2.93542
 11
18.8044
 21
-2.32175
  0
LINE
  8
0
 10
18.8044
 20
-2.32175
 11
18.3915
 21
-1.60661
  0
LINE
  8
0
 10
18.3915
 20
-1.60661
 11
18.1363
 21
-0.821251
  0
LINE
  8
0
 10
18.1363
 20
-0.821251
 11
18.05
 21
0
  0
ENDSEC
  0
SECTION
  2
OBJECTS
  0
DICTIONARY
  0
ENDSEC
  0
EOF
