  0
SECTION
  2
BLOCKS
  0
ENDSEC
  0
SECTION
  2
ENTITIES
  0
LINE
  8
0
 10
81.8997
 20
30.7196
 11
81.053
 21
32.1861
  0
LINE
  8
0
 10
81.053
 20
32.1861
 11
79.92
 21
33.4445
  0
LINE
  8
0
 10
79.92
 20
33.4445
 11
78.55
 21
34.4398
  0
LINE
  8
0
 10
78.55
 20
34.4398
 11
77.003
 21
35.1286
  0
LINE
  8
0
 10
77.003
 20
35.1286
 11
75.3467
 21
35.4806
  0
LINE
  8
0
 10
75.3467
 20
35.4806
 11
63.375
 21
35.4806
  0
LINE
  8
0
 10
63.375
 20
35.4806
 11
63.375
 21
38.525
  0
LINE
  8
0
 10
63.375
 20
38.525
 11
48.375
 21
38.525
  0
LINE
  8
0
 10
48.375
 20
38.525
 11
48.375
 21
35.4806
  0
LINE
  8
0
 10
48.375
 20
35.4806
 11
7.5
 21
35.4806
  0
LINE
  8
0
 10
7.5
 20
35.4806
 11
7.5
 21
38.525
  0
LINE
  8
0
 10
7.5
 20
38.525
 11
-7.5
 21
38.525
  0
LINE
  8
0
 10
-7.5
 20
38.525
 11
-7.5
 21
35.4806
  0
LINE
  8
0
 10
-7.5
 20
35.4806
 11
-48.375
 21
35.4806
  0
LINE
  8
0
 10
-48.375
 20
35.4806
 11
-48.375
 21
38.525
  0
LINE
  8
0
 10
-48.375
 20
38.525
 11
-63.375
 21
38.525
  0
LINE
  8
0
 10
-63.375
 20
38.525
 11
-63.375
 21
35.4806
  0
LINE
  8
0
 10
-63.375
 20
35.4806
 11
-75.3467
 21
35.4806
  0
LINE
  8
0
 10
-75.3467
 20
35.4806
 11
-77.003
 21
35.1286
  0
LINE
  8
0
 10
-77.003
 20
35.1286
 11
-78.55
 21
34.4398
  0
LINE
  8
0
 10
-78.55
 20
34.4398
 11
-79.92
 21
33.4445
  0
LINE
  8
0
 10
-79.92
 20
33.4445
 11
-81.053
 21
32.1861
  0
LINE
  8
0
 10
-81.053
 20
32.1861
 11
-81.8997
 21
30.7196
  0
LINE
  8
0
 10
-81.8997
 20
30.7196
 11
-82.423
 21
29.1091
  0
LINE
  8
0
 10
-82.423
 20
29.1091
 11
-82.6
 21
27.425
  0
LINE
  8
0
 10
-82.6
 20
27.425
 11
-82.6
 21
20.95
  0
LINE
  8
0
 10
-82.6
 20
20.95
 11
-85.6
 21
20.95
  0
LINE
  8
0
 10
-85.6
 20
20.95
 11
-85.6
 21
5.95
  0
LINE
  8
0
 10
-85.6
 20
5.95
 11
-82.6
 21
5.95
  0
LINE
  8
0
 10
-82.6
 20
5.95
 11
-82.6
 21
-20.975
  0
LINE
  8
0
 10
-82.6
 20
-20.975
 11
-85.6
 21
-20.975
  0
LINE
  8
0
 10
-85.6
 20
-20.975
 11
-85.6
 21
-35.975
  0
LINE
  8
0
 10
-85.6
 20
-35.975
 11
-82.6
 21
-35.975
  0
LINE
  8
0
 10
-82.6
 20
-35.975
 11
-82.6
 21
-62.9
  0
LINE
  8
0
 10
-82.6
 20
-62.9
 11
-85.6
 21
-62.9
  0
LINE
  8
0
 10
-85.6
 20
-62.9
 11
-85.6
 21
-77.9
  0
LINE
  8
0
 10
-85.6
 20
-77.9
 11
-82.6
 21
-77.9
  0
LINE
  8
0
 10
-82.6
 20
-77.9
 11
-82.6
 21
-84.375
  0
LINE
  8
0
 10
-82.6
 20
-84.375
 11
-82.423
 21
-86.0591
  0
LINE
  8
0
 10
-82.423
 20
-86.0591
 11
-81.8997
 21
-87.6696
  0
LINE
  8
0
 10
-81.8997
 20
-87.6696
 11
-81.053
 21
-89.1361
  0
LINE
  8
0
 10
-81.053
 20
-89.1361
 11
-79.92
 21
-90.3945
  0
LINE
  8
0
 10
-79.92
 20
-90.3945
 11
-78.55
 21
-91.3898
  0
LINE
  8
0
 10
-78.55
 20
-91.3898
 11
-77.003
 21
-92.0786
  0
LINE
  8
0
 10
-77.003
 20
-92.0786
 11
-75.3467
 21
-92.4306
  0
LINE
  8
0
 10
-75.3467
 20
-92.4306
 11
-63.375
 21
-92.4306
  0
LINE
  8
0
 10
-63.375
 20
-92.4306
 11
-63.375
 21
-95.475
  0
LINE
  8
0
 10
-63.375
 20
-95.475
 11
-48.375
 21
-95.475
  0
LINE
  8
0
 10
-48.375
 20
-95.475
 11
-48.375
 21
-92.4306
  0
LINE
  8
0
 10
-48.375
 20
-92.4306
 11
-7.5
 21
-92.4306
  0
LINE
  8
0
 10
-7.5
 20
-92.4306
 11
-7.5
 21
-95.475
  0
LINE
  8
0
 10
-7.5
 20
-95.475
 11
7.5
 21
-95.475
  0
LINE
  8
0
 10
7.5
 20
-95.475
 11
7.5
 21
-92.4306
  0
LINE
  8
0
 10
7.5
 20
-92.4306
 11
48.375
 21
-92.4306
  0
LINE
  8
0
 10
48.375
 20
-92.4306
 11
48.375
 21
-95.475
  0
LINE
  8
0
 10
48.375
 20
-95.475
 11
63.375
 21
-95.475
  0
LINE
  8
0
 10
63.375
 20
-95.475
 11
63.375
 21
-92.4306
  0
LINE
  8
0
 10
63.375
 20
-92.4306
 11
75.3467
 21
-92.4306
  0
LINE
  8
0
 10
75.3467
 20
-92.4306
 11
77.003
 21
-92.0786
  0
LINE
  8
0
 10
77.003
 20
-92.0786
 11
78.55
 21
-91.3898
  0
LINE
  8
0
 10
78.55
 20
-91.3898
 11
79.92
 21
-90.3945
  0
LINE
  8
0
 10
79.92
 20
-90.3945
 11
81.053
 21
-89.1361
  0
LINE
  8
0
 10
81.053
 20
-89.1361
 11
81.8997
 21
-87.6696
  0
LINE
  8
0
 10
81.8997
 20
-87.6696
 11
82.423
 21
-86.0591
  0
LINE
  8
0
 10
82.423
 20
-86.0591
 11
82.6
 21
-84.375
  0
LINE
  8
0
 10
82.6
 20
-84.375
 11
82.6
 21
-77.9
  0
LINE
  8
0
 10
82.6
 20
-77.9
 11
85.6
 21
-77.9
  0
LINE
  8
0
 10
85.6
 20
-77.9
 11
85.6
 21
-62.9
  0
LINE
  8
0
 10
85.6
 20
-62.9
 11
82.6
 21
-62.9
  0
LINE
  8
0
 10
82.6
 20
-62.9
 11
82.6
 21
-35.975
  0
LINE
  8
0
 10
82.6
 20
-35.975
 11
85.6
 21
-35.975
  0
LINE
  8
0
 10
85.6
 20
-35.975
 11
85.6
 21
-20.975
  0
LINE
  8
0
 10
85.6
 20
-20.975
 11
82.6
 21
-20.975
  0
LINE
  8
0
 10
82.6
 20
-20.975
 11
82.6
 21
5.95
  0
LINE
  8
0
 10
82.6
 20
5.95
 11
85.6
 21
5.95
  0
LINE
  8
0
 10
85.6
 20
5.95
 11
85.6
 21
20.95
  0
LINE
  8
0
 10
85.6
 20
20.95
 11
82.6
 21
20.95
  0
LINE
  8
0
 10
82.6
 20
20.95
 11
82.6
 21
27.425
  0
LINE
  8
0
 10
82.6
 20
27.425
 11
82.423
 21
29.1091
  0
LINE
  8
0
 10
82.423
 20
29.1091
 11
81.8997
 21
30.7196
  0
LINE
  8
0
 10
-74.9129
 20
23.4966
 11
-75.7206
 21
23.6683
  0
LINE
  8
0
 10
-75.7206
 20
23.6683
 11
-76.475
 21
24.0042
  0
LINE
  8
0
 10
-76.475
 20
24.0042
 11
-77.1431
 21
24.4896
  0
LINE
  8
0
 10
-77.1431
 20
24.4896
 11
-77.6956
 21
25.1032
  0
LINE
  8
0
 10
-77.6956
 20
25.1032
 11
-78.1085
 21
25.8184
  0
LINE
  8
0
 10
-78.1085
 20
25.8184
 11
-78.3637
 21
26.6037
  0
LINE
  8
0
 10
-78.3637
 20
26.6037
 11
-78.45
 21
27.425
  0
LINE
  8
0
 10
-78.45
 20
27.425
 11
-78.3637
 21
28.2462
  0
LINE
  8
0
 10
-78.3637
 20
28.2462
 11
-78.1085
 21
29.0316
  0
LINE
  8
0
 10
-78.1085
 20
29.0316
 11
-77.6956
 21
29.7467
  0
LINE
  8
0
 10
-77.6956
 20
29.7467
 11
-77.1431
 21
30.3604
  0
LINE
  8
0
 10
-77.1431
 20
30.3604
 11
-76.475
 21
30.8458
  0
LINE
  8
0
 10
-76.475
 20
30.8458
 11
-75.7206
 21
31.1817
  0
LINE
  8
0
 10
-75.7206
 20
31.1817
 11
-74.9129
 21
31.3533
  0
LINE
  8
0
 10
-74.9129
 20
31.3533
 11
-74.0871
 21
31.3533
  0
LINE
  8
0
 10
-74.0871
 20
31.3533
 11
-73.2794
 21
31.1817
  0
LINE
  8
0
 10
-73.2794
 20
31.1817
 11
-72.525
 21
30.8458
  0
LINE
  8
0
 10
-72.525
 20
30.8458
 11
-71.8569
 21
30.3604
  0
LINE
  8
0
 10
-71.8569
 20
30.3604
 11
-71.3044
 21
29.7467
  0
LINE
  8
0
 10
-71.3044
 20
29.7467
 11
-70.8915
 21
29.0316
  0
LINE
  8
0
 10
-70.8915
 20
29.0316
 11
-70.6363
 21
28.2462
  0
LINE
  8
0
 10
-70.6363
 20
28.2462
 11
-70.55
 21
27.425
  0
LINE
  8
0
 10
-70.55
 20
27.425
 11
-70.6363
 21
26.6037
  0
LINE
  8
0
 10
-70.6363
 20
26.6037
 11
-70.8915
 21
25.8184
  0
LINE
  8
0
 10
-70.8915
 20
25.8184
 11
-71.3044
 21
25.1032
  0
LINE
  8
0
 10
-71.3044
 20
25.1032
 11
-71.8569
 21
24.4896
  0
LINE
  8
0
 10
-71.8569
 20
24.4896
 11
-72.525
 21
24.0042
  0
LINE
  8
0
 10
-72.525
 20
24.0042
 11
-73.2794
 21
23.6683
  0
LINE
  8
0
 10
-73.2794
 20
23.6683
 11
-74.0871
 21
23.4966
  0
LINE
  8
0
 10
-74.0871
 20
23.4966
 11
-74.9129
 21
23.4966
  0
LINE
  8
0
 10
21.5871
 20
-3.92836
 11
20.7794
 21
-3.75667
  0
LINE
  8
0
 10
20.7794
 20
-3.75667
 11
20.025
 21
-3.42079
  0
LINE
  8
0
 10
20.025
 20
-3.42079
 11
19.3569
 21
-2.93541
  0
LINE
  8
0
 10
19.3569
 20
-2.93541
 11
18.8044
 21
-2.32175
  0
LINE
  8
0
 10
18.8044
 20
-2.32175
 11
18.3915
 21
-1.6066
  0
LINE
  8
0
 10
18.3915
 20
-1.6066
 11
18.1363
 21
-0.821243
  0
LINE
  8
0
 10
18.1363
 20
-0.821243
 11
18.05
 21
0
  0
LINE
  8
0
 10
18.05
 20
0
 11
18.1363
 21
0.821243
  0
LINE
  8
0
 10
18.1363
 20
0.821243
 11
18.3915
 21
1.6066
  0
LINE
  8
0
 10
18.3915
 20
1.6066
 11
18.8044
 21
2.32175
  0
LINE
  8
0
 10
18.8044
 20
2.32175
 11
19.3569
 21
2.93541
  0
LINE
  8
0
 10
19.3569
 20
2.93541
 11
20.025
 21
3.42079
  0
LINE
  8
0
 10
20.025
 20
3.42079
 11
20.7794
 21
3.75667
  0
LINE
  8
0
 10
20.7794
 20
3.75667
 11
21.5871
 21
3.92836
  0
LINE
  8
0
 10
21.5871
 20
3.92836
 11
22.4129
 21
3.92836
  0
LINE
  8
0
 10
22.4129
 20
3.92836
 11
23.2206
 21
3.75667
  0
LINE
  8
0
 10
23.2206
 20
3.75667
 11
23.975
 21
3.42079
  0
LINE
  8
0
 10
23.975
 20
3.42079
 11
24.6431
 21
2.93541
  0
LINE
  8
0
 10
24.6431
 20
2.93541
 11
25.1956
 21
2.32175
  0
LINE
  8
0
 10
25.1956
 20
2.32175
 11
25.6085
 21
1.6066
  0
LINE
  8
0
 10
25.6085
 20
1.6066
 11
25.8637
 21
0.821243
  0
LINE
  8
0
 10
25.8637
 20
0.821243
 11
25.95
 21
0
  0
LINE
  8
0
 10
25.95
 20
0
 11
25.8637
 21
-0.821243
  0
LINE
  8
0
 10
25.8637
 20
-0.821243
 11
25.6085
 21
-1.6066
  0
LINE
  8
0
 10
25.6085
 20
-1.6066
 11
25.1956
 21
-2.32175
  0
LINE
  8
0
 10
25.1956
 20
-2.32175
 11
24.6431
 21
-2.93541
  0
LINE
  8
0
 10
24.6431
 20
-2.93541
 11
23.975
 21
-3.42079
  0
LINE
  8
0
 10
23.975
 20
-3.42079
 11
23.2206
 21
-3.75667
  0
LINE
  8
0
 10
23.2206
 20
-3.75667
 11
22.4129
 21
-3.92836
  0
LINE
  8
0
 10
22.4129
 20
-3.92836
 11
21.5871
 21
-3.92836
  0
LINE
  8
0
 10
-22.4129
 20
-3.92836
 11
-23.2206
 21
-3.75667
  0
LINE
  8
0
 10
-23.2206
 20
-3.75667
 11
-23.975
 21
-3.42079
  0
LINE
  8
0
 10
-23.975
 20
-3.42079
 11
-24.6431
 21
-2.93541
  0
LINE
  8
0
 10
-24.6431
 20
-2.93541
 11
-25.1956
 21
-2.32175
  0
LINE
  8
0
 10
-25.1956
 20
-2.32175
 11
-25.6085
 21
-1.6066
  0
LINE
  8
0
 10
-25.6085
 20
-1.6066
 11
-25.8637
 21
-0.821243
  0
LINE
  8
0
 10
-25.8637
 20
-0.821243
 11
-25.95
 21
0
  0
LINE
  8
0
 10
-25.95
 20
0
 11
-25.8637
 21
0.821243
  0
LINE
  8
0
 10
-25.8637
 20
0.821243
 11
-25.6085
 21
1.6066
  0
LINE
  8
0
 10
-25.6085
 20
1.6066
 11
-25.1956
 21
2.32175
  0
LINE
  8
0
 10
-25.1956
 20
2.32175
 11
-24.6431
 21
2.93541
  0
LINE
  8
0
 10
-24.6431
 20
2.93541
 11
-23.975
 21
3.42079
  0
LINE
  8
0
 10
-23.975
 20
3.42079
 11
-23.2206
 21
3.75667
  0
LINE
  8
0
 10
-23.2206
 20
3.75667
 11
-22.4129
 21
3.92836
  0
LINE
  8
0
 10
-22.4129
 20
3.92836
 11
-21.5871
 21
3.92836
  0
LINE
  8
0
 10
-21.5871
 20
3.92836
 11
-20.7794
 21
3.75667
  0
LINE
  8
0
 10
-20.7794
 20
3.75667
 11
-20.025
 21
3.42079
  0
LINE
  8
0
 10
-20.025
 20
3.42079
 11
-19.3569
 21
2.93541
  0
LINE
  8
0
 10
-19.3569
 20
2.93541
 11
-18.8044
 21
2.32175
  0
LINE
  8
0
 10
-18.8044
 20
2.32175
 11
-18.3915
 21
1.6066
  0
LINE
  8
0
 10
-18.3915
 20
1.6066
 11
-18.1363
 21
0.821243
  0
LINE
  8
0
 10
-18.1363
 20
0.821243
 11
-18.05
 21
0
  0
LINE
  8
0
 10
-18.05
 20
0
 11
-18.1363
 21
-0.821243
  0
LINE
  8
0
 10
-18.1363
 20
-0.821243
 11
-18.3915
 21
-1.6066
  0
LINE
  8
0
 10
-18.3915
 20
-1.6066
 11
-18.8044
 21
-2.32175
  0
LINE
  8
0
 10
-18.8044
 20
-2.32175
 11
-19.3569
 21
-2.93541
  0
LINE
  8
0
 10
-19.3569
 20
-2.93541
 11
-20.025
 21
-3.42079
  0
LINE
  8
0
 10
-20.025
 20
-3.42079
 11
-20.7794
 21
-3.75667
  0
LINE
  8
0
 10
-20.7794
 20
-3.75667
 11
-21.5871
 21
-3.92836
  0
LINE
  8
0
 10
-21.5871
 20
-3.92836
 11
-22.4129
 21
-3.92836
  0
LINE
  8
0
 10
-0.30835
 20
-3.03383
 11
-0.911591
 21
-2.90561
  0
LINE
  8
0
 10
-0.911591
 20
-2.90561
 11
-1.47499
 21
-2.65477
  0
LINE
  8
0
 10
-1.47499
 20
-2.65477
 11
-1.97392
 21
-2.29227
  0
LINE
  8
0
 10
-1.97392
 20
-2.29227
 11
-2.3866
 21
-1.83395
  0
LINE
  8
0
 10
-2.3866
 20
-1.83395
 11
-2.69495
 21
-1.29987
  0
LINE
  8
0
 10
-2.69495
 20
-1.29987
 11
-2.88553
 21
-0.713333
  0
LINE
  8
0
 10
-2.88553
 20
-0.713333
 11
-2.95
 21
-0.0999908
  0
LINE
  8
0
 10
-2.95
 20
-0.0999908
 11
-2.88553
 21
0.513336
  0
LINE
  8
0
 10
-2.88553
 20
0.513336
 11
-2.69495
 21
1.09987
  0
LINE
  8
0
 10
-2.69495
 20
1.09987
 11
-2.3866
 21
1.63396
  0
LINE
  8
0
 10
-2.3866
 20
1.63396
 11
-1.97392
 21
2.09227
  0
LINE
  8
0
 10
-1.97392
 20
2.09227
 11
-1.47499
 21
2.45477
  0
LINE
  8
0
 10
-1.47499
 20
2.45477
 11
-0.911591
 21
2.70561
  0
LINE
  8
0
 10
-0.911591
 20
2.70561
 11
-0.30835
 21
2.83383
  0
LINE
  8
0
 10
-0.30835
 20
2.83383
 11
0.30835
 21
2.83383
  0
LINE
  8
0
 10
0.30835
 20
2.83383
 11
0.911591
 21
2.70561
  0
LINE
  8
0
 10
0.911591
 20
2.70561
 11
1.47499
 21
2.45477
  0
LINE
  8
0
 10
1.47499
 20
2.45477
 11
1.97392
 21
2.09227
  0
LINE
  8
0
 10
1.97392
 20
2.09227
 11
2.3866
 21
1.63396
  0
LINE
  8
0
 10
2.3866
 20
1.63396
 11
2.69495
 21
1.09987
  0
LINE
  8
0
 10
2.69495
 20
1.09987
 11
2.88553
 21
0.513336
  0
LINE
  8
0
 10
2.88553
 20
0.513336
 11
2.95
 21
-0.0999908
  0
LINE
  8
0
 10
2.95
 20
-0.0999908
 11
2.88553
 21
-0.713333
  0
LINE
  8
0
 10
2.88553
 20
-0.713333
 11
2.69495
 21
-1.29987
  0
LINE
  8
0
 10
2.69495
 20
-1.29987
 11
2.3866
 21
-1.83395
  0
LINE
  8
0
 10
2.3866
 20
-1.83395
 11
1.97392
 21
-2.29227
  0
LINE
  8
0
 10
1.97392
 20
-2.29227
 11
1.47499
 21
-2.65477
  0
LINE
  8
0
 10
1.47499
 20
-2.65477
 11
0.911591
 21
-2.90561
  0
LINE
  8
0
 10
0.911591
 20
-2.90561
 11
0.30835
 21
-3.03383
  0
LINE
  8
0
 10
0.30835
 20
-3.03383
 11
-0.30835
 21
-3.03383
  0
LINE
  8
0
 10
-1.32228
 20
-58.6807
 11
-3.90906
 21
-58.1309
  0
LINE
  8
0
 10
-3.90906
 20
-58.1309
 11
-6.325
 21
-57.0552
  0
LINE
  8
0
 10
-6.325
 20
-57.0552
 11
-8.46449
 21
-55.5008
  0
LINE
  8
0
 10
-8.46449
 20
-55.5008
 11
-10.2341
 21
-53.5355
  0
LINE
  8
0
 10
-10.2341
 20
-53.5355
 11
-11.5563
 21
-51.2452
  0
LINE
  8
0
 10
-11.5563
 20
-51.2452
 11
-12.3736
 21
-48.7301
  0
LINE
  8
0
 10
-12.3736
 20
-48.7301
 11
-12.65
 21
-46.1
  0
LINE
  8
0
 10
-12.65
 20
-46.1
 11
-12.3736
 21
-43.4699
  0
LINE
  8
0
 10
-12.3736
 20
-43.4699
 11
-11.5563
 21
-40.9548
  0
LINE
  8
0
 10
-11.5563
 20
-40.9548
 11
-10.2341
 21
-38.6645
  0
LINE
  8
0
 10
-10.2341
 20
-38.6645
 11
-8.46449
 21
-36.6992
  0
LINE
  8
0
 10
-8.46449
 20
-36.6992
 11
-6.325
 21
-35.1448
  0
LINE
  8
0
 10
-6.325
 20
-35.1448
 11
-3.90906
 21
-34.0691
  0
LINE
  8
0
 10
-3.90906
 20
-34.0691
 11
-1.32228
 21
-33.5193
  0
LINE
  8
0
 10
-1.32228
 20
-33.5193
 11
1.32228
 21
-33.5193
  0
LINE
  8
0
 10
1.32228
 20
-33.5193
 11
3.90906
 21
-34.0691
  0
LINE
  8
0
 10
3.90906
 20
-34.0691
 11
6.325
 21
-35.1448
  0
LINE
  8
0
 10
6.325
 20
-35.1448
 11
8.46449
 21
-36.6992
  0
LINE
  8
0
 10
8.46449
 20
-36.6992
 11
10.2341
 21
-38.6645
  0
LINE
  8
0
 10
10.2341
 20
-38.6645
 11
11.5563
 21
-40.9548
  0
LINE
  8
0
 10
11.5563
 20
-40.9548
 11
12.3736
 21
-43.4699
  0
LINE
  8
0
 10
12.3736
 20
-43.4699
 11
12.65
 21
-46.1
  0
LINE
  8
0
 10
12.65
 20
-46.1
 11
12.3736
 21
-48.7301
  0
LINE
  8
0
 10
12.3736
 20
-48.7301
 11
11.5563
 21
-51.2452
  0
LINE
  8
0
 10
11.5563
 20
-51.2452
 11
10.2341
 21
-53.5355
  0
LINE
  8
0
 10
10.2341
 20
-53.5355
 11
8.46449
 21
-55.5008
  0
LINE
  8
0
 10
8.46449
 20
-55.5008
 11
6.325
 21
-57.0552
  0
LINE
  8
0
 10
6.325
 20
-57.0552
 11
3.90906
 21
-58.1309
  0
LINE
  8
0
 10
3.90906
 20
-58.1309
 11
1.32228
 21
-58.6807
  0
LINE
  8
0
 10
1.32228
 20
-58.6807
 11
-1.32228
 21
-58.6807
  0
LINE
  8
0
 10
-28.5151
 20
-70.0593
 11
-29.1049
 21
-69.879
  0
LINE
  8
0
 10
-29.1049
 20
-69.879
 11
-29.6443
 21
-69.58
  0
LINE
  8
0
 10
-29.6443
 20
-69.58
 11
-30.1097
 21
-69.1754
  0
LINE
  8
0
 10
-30.1097
 20
-69.1754
 11
-30.4809
 21
-68.6829
  0
LINE
  8
0
 10
-30.4809
 20
-68.6829
 11
-30.7415
 21
-68.1239
  0
LINE
  8
0
 10
-30.7415
 20
-68.1239
 11
-30.8802
 21
-67.523
  0
LINE
  8
0
 10
-30.8802
 20
-67.523
 11
-30.891
 21
-66.9064
  0
LINE
  8
0
 10
-30.891
 20
-66.9064
 11
-30.7733
 21
-66.301
  0
LINE
  8
0
 10
-30.7733
 20
-66.301
 11
-30.5324
 21
-65.7333
  0
LINE
  8
0
 10
-30.5324
 20
-65.7333
 11
-30.1786
 21
-65.2281
  0
LINE
  8
0
 10
-30.1786
 20
-65.2281
 11
-29.7276
 21
-64.8075
  0
LINE
  8
0
 10
-29.7276
 20
-64.8075
 11
-29.199
 21
-64.4899
  0
LINE
  8
0
 10
-29.199
 20
-64.4899
 11
-28.6158
 21
-64.2891
  0
LINE
  8
0
 10
-28.6158
 20
-64.2891
 11
-28.0037
 21
-64.214
  0
LINE
  8
0
 10
-28.0037
 20
-64.214
 11
-27.3893
 21
-64.2677
  0
LINE
  8
0
 10
-27.3893
 20
-64.2677
 11
-26.7996
 21
-64.448
  0
LINE
  8
0
 10
-26.7996
 20
-64.448
 11
-26.2602
 21
-64.747
  0
LINE
  8
0
 10
-26.2602
 20
-64.747
 11
-25.7947
 21
-65.1516
  0
LINE
  8
0
 10
-25.7947
 20
-65.1516
 11
-25.4236
 21
-65.6442
  0
LINE
  8
0
 10
-25.4236
 20
-65.6442
 11
-25.163
 21
-66.2031
  0
LINE
  8
0
 10
-25.163
 20
-66.2031
 11
-25.0242
 21
-66.804
  0
LINE
  8
0
 10
-25.0242
 20
-66.804
 11
-25.0135
 21
-67.4206
  0
LINE
  8
0
 10
-25.0135
 20
-67.4206
 11
-25.1311
 21
-68.026
  0
LINE
  8
0
 10
-25.1311
 20
-68.026
 11
-25.3721
 21
-68.5937
  0
LINE
  8
0
 10
-25.3721
 20
-68.5937
 11
-25.7258
 21
-69.0989
  0
LINE
  8
0
 10
-25.7258
 20
-69.0989
 11
-26.1769
 21
-69.5195
  0
LINE
  8
0
 10
-26.1769
 20
-69.5195
 11
-26.7055
 21
-69.8371
  0
LINE
  8
0
 10
-26.7055
 20
-69.8371
 11
-27.2886
 21
-70.0379
  0
LINE
  8
0
 10
-27.2886
 20
-70.0379
 11
-27.9008
 21
-70.1131
  0
LINE
  8
0
 10
-27.9008
 20
-70.1131
 11
-28.5151
 21
-70.0593
  0
LINE
  8
0
 10
27.2886
 20
-70.0379
 11
26.7055
 21
-69.8371
  0
LINE
  8
0
 10
26.7055
 20
-69.8371
 11
26.1769
 21
-69.5195
  0
LINE
  8
0
 10
26.1769
 20
-69.5195
 11
25.7258
 21
-69.0989
  0
LINE
  8
0
 10
25.7258
 20
-69.0989
 11
25.3721
 21
-68.5937
  0
LINE
  8
0
 10
25.3721
 20
-68.5937
 11
25.1311
 21
-68.026
  0
LINE
  8
0
 10
25.1311
 20
-68.026
 11
25.0135
 21
-67.4206
  0
LINE
  8
0
 10
25.0135
 20
-67.4206
 11
25.0242
 21
-66.804
  0
LINE
  8
0
 10
25.0242
 20
-66.804
 11
25.163
 21
-66.2031
  0
LINE
  8
0
 10
25.163
 20
-66.2031
 11
25.4236
 21
-65.6442
  0
LINE
  8
0
 10
25.4236
 20
-65.6442
 11
25.7947
 21
-65.1516
  0
LINE
  8
0
 10
25.7947
 20
-65.1516
 11
26.2602
 21
-64.747
  0
LINE
  8
0
 10
26.2602
 20
-64.747
 11
26.7996
 21
-64.448
  0
LINE
  8
0
 10
26.7996
 20
-64.448
 11
27.3893
 21
-64.2677
  0
LINE
  8
0
 10
27.3893
 20
-64.2677
 11
28.0037
 21
-64.214
  0
LINE
  8
0
 10
28.0037
 20
-64.214
 11
28.6158
 21
-64.2891
  0
LINE
  8
0
 10
28.6158
 20
-64.2891
 11
29.199
 21
-64.4899
  0
LINE
  8
0
 10
29.199
 20
-64.4899
 11
29.7276
 21
-64.8075
  0
LINE
  8
0
 10
29.7276
 20
-64.8075
 11
30.1786
 21
-65.2281
  0
LINE
  8
0
 10
30.1786
 20
-65.2281
 11
30.5324
 21
-65.7333
  0
LINE
  8
0
 10
30.5324
 20
-65.7333
 11
30.7733
 21
-66.301
  0
LINE
  8
0
 10
30.7733
 20
-66.301
 11
30.891
 21
-66.9064
  0
LINE
  8
0
 10
30.891
 20
-66.9064
 11
30.8802
 21
-67.523
  0
LINE
  8
0
 10
30.8802
 20
-67.523
 11
30.7415
 21
-68.1239
  0
LINE
  8
0
 10
30.7415
 20
-68.1239
 11
30.4809
 21
-68.6829
  0
LINE
  8
0
 10
30.4809
 20
-68.6829
 11
30.1097
 21
-69.1754
  0
LINE
  8
0
 10
30.1097
 20
-69.1754
 11
29.6443
 21
-69.58
  0
LINE
  8
0
 10
29.6443
 20
-69.58
 11
29.1049
 21
-69.879
  0
LINE
  8
0
 10
29.1049
 20
-69.879
 11
28.5151
 21
-70.0593
  0
LINE
  8
0
 10
28.5151
 20
-70.0593
 11
27.9008
 21
-70.1131
  0
LINE
  8
0
 10
27.9008
 20
-70.1131
 11
27.2886
 21
-70.0379
  0
LINE
  8
0
 10
62.7057
 20
-80.5607
 11
61.4941
 21
-80.2388
  0
LINE
  8
0
 10
61.4941
 20
-80.2388
 11
60.3625
 21
-79.609
  0
LINE
  8
0
 10
60.3625
 20
-79.609
 11
59.3604
 21
-78.6989
  0
LINE
  8
0
 10
59.3604
 20
-78.6989
 11
58.5316
 21
-77.5483
  0
LINE
  8
0
 10
58.5316
 20
-77.5483
 11
57.9122
 21
-76.2074
  0
LINE
  8
0
 10
57.9122
 20
-76.2074
 11
57.5295
 21
-74.7348
  0
LINE
  8
0
 10
57.5295
 20
-74.7348
 11
57.4
 21
-73.195
  0
LINE
  8
0
 10
57.4
 20
-73.195
 11
57.5295
 21
-71.6552
  0
LINE
  8
0
 10
57.5295
 20
-71.6552
 11
57.9122
 21
-70.1826
  0
LINE
  8
0
 10
57.9122
 20
-70.1826
 11
58.5316
 21
-68.8417
  0
LINE
  8
0
 10
58.5316
 20
-68.8417
 11
59.3604
 21
-67.6911
  0
LINE
  8
0
 10
59.3604
 20
-67.6911
 11
60.3625
 21
-66.781
  0
LINE
  8
0
 10
60.3625
 20
-66.781
 11
61.4941
 21
-66.1512
  0
LINE
  8
0
 10
61.4941
 20
-66.1512
 11
62.7057
 21
-65.8293
  0
LINE
  8
0
 10
62.7057
 20
-65.8293
 11
63.9443
 21
-65.8293
  0
LINE
  8
0
 10
63.9443
 20
-65.8293
 11
65.1559
 21
-66.1512
  0
LINE
  8
0
 10
65.1559
 20
-66.1512
 11
66.2875
 21
-66.781
  0
LINE
  8
0
 10
66.2875
 20
-66.781
 11
67.2896
 21
-67.6911
  0
LINE
  8
0
 10
67.2896
 20
-67.6911
 11
68.1184
 21
-68.8417
  0
LINE
  8
0
 10
68.1184
 20
-68.8417
 11
68.7377
 21
-70.1826
  0
LINE
  8
0
 10
68.7377
 20
-70.1826
 11
69.1205
 21
-71.6552
  0
LINE
  8
0
 10
69.1205
 20
-71.6552
 11
69.25
 21
-73.195
  0
LINE
  8
0
 10
69.25
 20
-73.195
 11
69.1205
 21
-74.7348
  0
LINE
  8
0
 10
69.1205
 20
-74.7348
 11
68.7377
 21
-76.2074
  0
LINE
  8
0
 10
68.7377
 20
-76.2074
 11
68.1184
 21
-77.5483
  0
LINE
  8
0
 10
68.1184
 20
-77.5483
 11
67.2896
 21
-78.6989
  0
LINE
  8
0
 10
67.2896
 20
-78.6989
 11
66.2875
 21
-79.609
  0
LINE
  8
0
 10
66.2875
 20
-79.609
 11
65.1559
 21
-80.2388
  0
LINE
  8
0
 10
65.1559
 20
-80.2388
 11
63.9443
 21
-80.5607
  0
LINE
  8
0
 10
63.9443
 20
-80.5607
 11
62.7057
 21
-80.5607
  0
LINE
  8
0
 10
-63.9443
 20
-80.5607
 11
-65.1559
 21
-80.2388
  0
LINE
  8
0
 10
-65.1559
 20
-80.2388
 11
-66.2875
 21
-79.609
  0
LINE
  8
0
 10
-66.2875
 20
-79.609
 11
-67.2896
 21
-78.6989
  0
LINE
  8
0
 10
-67.2896
 20
-78.6989
 11
-68.1184
 21
-77.5483
  0
LINE
  8
0
 10
-68.1184
 20
-77.5483
 11
-68.7377
 21
-76.2074
  0
LINE
  8
0
 10
-68.7377
 20
-76.2074
 11
-69.1205
 21
-74.7348
  0
LINE
  8
0
 10
-69.1205
 20
-74.7348
 11
-69.25
 21
-73.195
  0
LINE
  8
0
 10
-69.25
 20
-73.195
 11
-69.1205
 21
-71.6552
  0
LINE
  8
0
 10
-69.1205
 20
-71.6552
 11
-68.7377
 21
-70.1826
  0
LINE
  8
0
 10
-68.7377
 20
-70.1826
 11
-68.1184
 21
-68.8417
  0
LINE
  8
0
 10
-68.1184
 20
-68.8417
 11
-67.2896
 21
-67.6911
  0
LINE
  8
0
 10
-67.2896
 20
-67.6911
 11
-66.2875
 21
-66.781
  0
LINE
  8
0
 10
-66.2875
 20
-66.781
 11
-65.1559
 21
-66.1512
  0
LINE
  8
0
 10
-65.1559
 20
-66.1512
 11
-63.9443
 21
-65.8293
  0
LINE
  8
0
 10
-63.9443
 20
-65.8293
 11
-62.7057
 21
-65.8293
  0
LINE
  8
0
 10
-62.7057
 20
-65.8293
 11
-61.4941
 21
-66.1512
  0
LINE
  8
0
 10
-61.4941
 20
-66.1512
 11
-60.3625
 21
-66.781
  0
LINE
  8
0
 10
-60.3625
 20
-66.781
 11
-59.3604
 21
-67.6911
  0
LINE
  8
0
 10
-59.3604
 20
-67.6911
 11
-58.5316
 21
-68.8417
  0
LINE
  8
0
 10
-58.5316
 20
-68.8417
 11
-57.9122
 21
-70.1826
  0
LINE
  8
0
 10
-57.9122
 20
-70.1826
 11
-57.5295
 21
-71.6552
  0
LINE
  8
0
 10
-57.5295
 20
-71.6552
 11
-57.4
 21
-73.195
  0
LINE
  8
0
 10
-57.4
 20
-73.195
 11
-57.5295
 21
-74.7348
  0
LINE
  8
0
 10
-57.5295
 20
-74.7348
 11
-57.9122
 21
-76.2074
  0
LINE
  8
0
 10
-57.9122
 20
-76.2074
 11
-58.5316
 21
-77.5483
  0
LINE
  8
0
 10
-58.5316
 20
-77.5483
 11
-59.3604
 21
-78.6989
  0
LINE
  8
0
 10
-59.3604
 20
-78.6989
 11
-60.3625
 21
-79.609
  0
LINE
  8
0
 10
-60.3625
 20
-79.609
 11
-61.4941
 21
-80.2388
  0
LINE
  8
0
 10
-61.4941
 20
-80.2388
 11
-62.7057
 21
-80.5607
  0
LINE
  8
0
 10
-62.7057
 20
-80.5607
 11
-63.9443
 21
-80.5607
  0
LINE
  8
0
 10
-0.261307
 20
-76.0113
 11
-0.772537
 21
-75.9026
  0
LINE
  8
0
 10
-0.772537
 20
-75.9026
 11
-1.25
 21
-75.6901
  0
LINE
  8
0
 10
-1.25
 20
-75.6901
 11
-1.67282
 21
-75.3829
  0
LINE
  8
0
 10
-1.67282
 20
-75.3829
 11
-2.02254
 21
-74.9945
  0
LINE
  8
0
 10
-2.02254
 20
-74.9945
 11
-2.28386
 21
-74.5418
  0
LINE
  8
0
 10
-2.28386
 20
-74.5418
 11
-2.44536
 21
-74.0448
  0
LINE
  8
0
 10
-2.44536
 20
-74.0448
 11
-2.5
 21
-73.525
  0
LINE
  8
0
 10
-2.5
 20
-73.525
 11
-2.44536
 21
-73.0052
  0
LINE
  8
0
 10
-2.44536
 20
-73.0052
 11
-2.28386
 21
-72.5081
  0
LINE
  8
0
 10
-2.28386
 20
-72.5081
 11
-2.02254
 21
-72.0555
  0
LINE
  8
0
 10
-2.02254
 20
-72.0555
 11
-1.67282
 21
-71.6671
  0
LINE
  8
0
 10
-1.67282
 20
-71.6671
 11
-1.24998
 21
-71.3599
  0
LINE
  8
0
 10
-1.24998
 20
-71.3599
 11
-0.772537
 21
-71.1474
  0
LINE
  8
0
 10
-0.772537
 20
-71.1474
 11
-0.261307
 21
-71.0387
  0
LINE
  8
0
 10
-0.261307
 20
-71.0387
 11
0.261307
 21
-71.0387
  0
LINE
  8
0
 10
0.261307
 20
-71.0387
 11
0.772537
 21
-71.1474
  0
LINE
  8
0
 10
0.772537
 20
-71.1474
 11
1.25
 21
-71.3599
  0
LINE
  8
0
 10
1.25
 20
-71.3599
 11
1.67282
 21
-71.6671
  0
LINE
  8
0
 10
1.67282
 20
-71.6671
 11
2.02254
 21
-72.0555
  0
LINE
  8
0
 10
2.02254
 20
-72.0555
 11
2.28386
 21
-72.5081
  0
LINE
  8
0
 10
2.28386
 20
-72.5081
 11
2.44536
 21
-73.0052
  0
LINE
  8
0
 10
2.44536
 20
-73.0052
 11
2.5
 21
-73.525
  0
LINE
  8
0
 10
2.5
 20
-73.525
 11
2.44536
 21
-74.0448
  0
LINE
  8
0
 10
2.44536
 20
-74.0448
 11
2.28386
 21
-74.5418
  0
LINE
  8
0
 10
2.28386
 20
-74.5418
 11
2.02254
 21
-74.9945
  0
LINE
  8
0
 10
2.02254
 20
-74.9945
 11
1.67282
 21
-75.3829
  0
LINE
  8
0
 10
1.67282
 20
-75.3829
 11
1.25
 21
-75.6901
  0
LINE
  8
0
 10
1.25
 20
-75.6901
 11
0.772537
 21
-75.9026
  0
LINE
  8
0
 10
0.772537
 20
-75.9026
 11
0.261307
 21
-76.0113
  0
LINE
  8
0
 10
0.261307
 20
-76.0113
 11
-0.261307
 21
-76.0113
  0
LINE
  8
0
 10
-74.9129
 20
-88.3034
 11
-75.7206
 21
-88.1317
  0
LINE
  8
0
 10
-75.7206
 20
-88.1317
 11
-76.475
 21
-87.7958
  0
LINE
  8
0
 10
-76.475
 20
-87.7958
 11
-77.1431
 21
-87.3104
  0
LINE
  8
0
 10
-77.1431
 20
-87.3104
 11
-77.6956
 21
-86.6967
  0
LINE
  8
0
 10
-77.6956
 20
-86.6967
 11
-78.1085
 21
-85.9816
  0
LINE
  8
0
 10
-78.1085
 20
-85.9816
 11
-78.3637
 21
-85.1962
  0
LINE
  8
0
 10
-78.3637
 20
-85.1962
 11
-78.45
 21
-84.375
  0
LINE
  8
0
 10
-78.45
 20
-84.375
 11
-78.3637
 21
-83.5537
  0
LINE
  8
0
 10
-78.3637
 20
-83.5537
 11
-78.1085
 21
-82.7684
  0
LINE
  8
0
 10
-78.1085
 20
-82.7684
 11
-77.6956
 21
-82.0532
  0
LINE
  8
0
 10
-77.6956
 20
-82.0532
 11
-77.1431
 21
-81.4396
  0
LINE
  8
0
 10
-77.1431
 20
-81.4396
 11
-76.475
 21
-80.9542
  0
LINE
  8
0
 10
-76.475
 20
-80.9542
 11
-75.7206
 21
-80.6183
  0
LINE
  8
0
 10
-75.7206
 20
-80.6183
 11
-74.9129
 21
-80.4466
  0
LINE
  8
0
 10
-74.9129
 20
-80.4466
 11
-74.0871
 21
-80.4466
  0
LINE
  8
0
 10
-74.0871
 20
-80.4466
 11
-73.2794
 21
-80.6183
  0
LINE
  8
0
 10
-73.2794
 20
-80.6183
 11
-72.525
 21
-80.9542
  0
LINE
  8
0
 10
-72.525
 20
-80.9542
 11
-71.8569
 21
-81.4396
  0
LINE
  8
0
 10
-71.8569
 20
-81.4396
 11
-71.3044
 21
-82.0532
  0
LINE
  8
0
 10
-71.3044
 20
-82.0532
 11
-70.8915
 21
-82.7684
  0
LINE
  8
0
 10
-70.8915
 20
-82.7684
 11
-70.6363
 21
-83.5537
  0
LINE
  8
0
 10
-70.6363
 20
-83.5537
 11
-70.55
 21
-84.375
  0
LINE
  8
0
 10
-70.55
 20
-84.375
 11
-70.6363
 21
-85.1962
  0
LINE
  8
0
 10
-70.6363
 20
-85.1962
 11
-70.8915
 21
-85.9816
  0
LINE
  8
0
 10
-70.8915
 20
-85.9816
 11
-71.3044
 21
-86.6967
  0
LINE
  8
0
 10
-71.3044
 20
-86.6967
 11
-71.8569
 21
-87.3104
  0
LINE
  8
0
 10
-71.8569
 20
-87.3104
 11
-72.525
 21
-87.7958
  0
LINE
  8
0
 10
-72.525
 20
-87.7958
 11
-73.2794
 21
-88.1317
  0
LINE
  8
0
 10
-73.2794
 20
-88.1317
 11
-74.0871
 21
-88.3034
  0
LINE
  8
0
 10
-74.0871
 20
-88.3034
 11
-74.9129
 21
-88.3034
  0
LINE
  8
0
 10
74.0871
 20
-88.3034
 11
73.2794
 21
-88.1317
  0
LINE
  8
0
 10
73.2794
 20
-88.1317
 11
72.525
 21
-87.7958
  0
LINE
  8
0
 10
72.525
 20
-87.7958
 11
71.8569
 21
-87.3104
  0
LINE
  8
0
 10
71.8569
 20
-87.3104
 11
71.3044
 21
-86.6967
  0
LINE
  8
0
 10
71.3044
 20
-86.6967
 11
70.8915
 21
-85.9816
  0
LINE
  8
0
 10
70.8915
 20
-85.9816
 11
70.6363
 21
-85.1962
  0
LINE
  8
0
 10
70.6363
 20
-85.1962
 11
70.55
 21
-84.375
  0
LINE
  8
0
 10
70.55
 20
-84.375
 11
70.6363
 21
-83.5537
  0
LINE
  8
0
 10
70.6363
 20
-83.5537
 11
70.8915
 21
-82.7684
  0
LINE
  8
0
 10
70.8915
 20
-82.7684
 11
71.3044
 21
-82.0532
  0
LINE
  8
0
 10
71.3044
 20
-82.0532
 11
71.8569
 21
-81.4396
  0
LINE
  8
0
 10
71.8569
 20
-81.4396
 11
72.525
 21
-80.9542
  0
LINE
  8
0
 10
72.525
 20
-80.9542
 11
73.2794
 21
-80.6183
  0
LINE
  8
0
 10
73.2794
 20
-80.6183
 11
74.0871
 21
-80.4466
  0
LINE
  8
0
 10
74.0871
 20
-80.4466
 11
74.9129
 21
-80.4466
  0
LINE
  8
0
 10
74.9129
 20
-80.4466
 11
75.7206
 21
-80.6183
  0
LINE
  8
0
 10
75.7206
 20
-80.6183
 11
76.475
 21
-80.9542
  0
LINE
  8
0
 10
76.475
 20
-80.9542
 11
77.1431
 21
-81.4396
  0
LINE
  8
0
 10
77.1431
 20
-81.4396
 11
77.6956
 21
-82.0532
  0
LINE
  8
0
 10
77.6956
 20
-82.0532
 11
78.1085
 21
-82.7684
  0
LINE
  8
0
 10
78.1085
 20
-82.7684
 11
78.3637
 21
-83.5537
  0
LINE
  8
0
 10
78.3637
 20
-83.5537
 11
78.45
 21
-84.375
  0
LINE
  8
0
 10
78.45
 20
-84.375
 11
78.3637
 21
-85.1962
  0
LINE
  8
0
 10
78.3637
 20
-85.1962
 11
78.1085
 21
-85.9816
  0
LINE
  8
0
 10
78.1085
 20
-85.9816
 11
77.6956
 21
-86.6967
  0
LINE
  8
0
 10
77.6956
 20
-86.6967
 11
77.1431
 21
-87.3104
  0
LINE
  8
0
 10
77.1431
 20
-87.3104
 11
76.475
 21
-87.7958
  0
LINE
  8
0
 10
76.475
 20
-87.7958
 11
75.7206
 21
-88.1317
  0
LINE
  8
0
 10
75.7206
 20
-88.1317
 11
74.9129
 21
-88.3034
  0
LINE
  8
0
 10
74.9129
 20
-88.3034
 11
74.0871
 21
-88.3034
  0
LINE
  8
0
 10
78.1085
 20
25.8184
 11
77.6956
 21
25.1032
  0
LINE
  8
0
 10
77.6956
 20
25.1032
 11
77.1431
 21
24.4896
  0
LINE
  8
0
 10
77.1431
 20
24.4896
 11
76.475
 21
24.0042
  0
LINE
  8
0
 10
76.475
 20
24.0042
 11
75.7206
 21
23.6683
  0
LINE
  8
0
 10
75.7206
 20
23.6683
 11
74.9129
 21
23.4966
  0
LINE
  8
0
 10
74.9129
 20
23.4966
 11
74.0871
 21
23.4966
  0
LINE
  8
0
 10
74.0871
 20
23.4966
 11
73.2794
 21
23.6683
  0
LINE
  8
0
 10
73.2794
 20
23.6683
 11
72.525
 21
24.0042
  0
LINE
  8
0
 10
72.525
 20
24.0042
 11
71.8569
 21
24.4896
  0
LINE
  8
0
 10
71.8569
 20
24.4896
 11
71.3044
 21
25.1032
  0
LINE
  8
0
 10
71.3044
 20
25.1032
 11
70.8915
 21
25.8184
  0
LINE
  8
0
 10
70.8915
 20
25.8184
 11
70.6363
 21
26.6037
  0
LINE
  8
0
 10
70.6363
 20
26.6037
 11
70.55
 21
27.425
  0
LINE
  8
0
 10
70.55
 20
27.425
 11
70.6363
 21
28.2462
  0
LINE
  8
0
 10
70.6363
 20
28.2462
 11
70.8915
 21
29.0316
  0
LINE
  8
0
 10
70.8915
 20
29.0316
 11
71.3044
 21
29.7467
  0
LINE
  8
0
 10
71.3044
 20
29.7467
 11
71.8569
 21
30.3604
  0
LINE
  8
0
 10
71.8569
 20
30.3604
 11
72.525
 21
30.8458
  0
LINE
  8
0
 10
72.525
 20
30.8458
 11
73.2794
 21
31.1817
  0
LINE
  8
0
 10
73.2794
 20
31.1817
 11
74.0871
 21
31.3533
  0
LINE
  8
0
 10
74.0871
 20
31.3533
 11
74.9129
 21
31.3533
  0
LINE
  8
0
 10
74.9129
 20
31.3533
 11
75.7206
 21
31.1817
  0
LINE
  8
0
 10
75.7206
 20
31.1817
 11
76.475
 21
30.8458
  0
LINE
  8
0
 10
76.475
 20
30.8458
 11
77.1431
 21
30.3604
  0
LINE
  8
0
 10
77.1431
 20
30.3604
 11
77.6956
 21
29.7467
  0
LINE
  8
0
 10
77.6956
 20
29.7467
 11
78.1085
 21
29.0316
  0
LINE
  8
0
 10
78.1085
 20
29.0316
 11
78.3637
 21
28.2462
  0
LINE
  8
0
 10
78.3637
 20
28.2462
 11
78.45
 21
27.425
  0
LINE
  8
0
 10
78.45
 20
27.425
 11
78.3637
 21
26.6037
  0
LINE
  8
0
 10
78.3637
 20
26.6037
 11
78.1085
 21
25.8184
  0
ENDSEC
  0
SECTION
  2
OBJECTS
  0
DICTIONARY
  0
ENDSEC
  0
EOF
