  0
SECTION
  2
BLOCKS
  0
ENDSEC
  0
SECTION
  2
ENTITIES
  0
LINE
  8
0
 10
-48.375
 20
-92.4306
 11
-7.5
 21
-92.4306
  0
LINE
  8
0
 10
-7.5
 20
-92.4306
 11
-7.5
 21
-95.475
  0
LINE
  8
0
 10
-7.5
 20
-95.475
 11
7.5
 21
-95.475
  0
LINE
  8
0
 10
7.5
 20
-95.475
 11
7.5
 21
-92.4306
  0
LINE
  8
0
 10
7.5
 20
-92.4306
 11
48.375
 21
-92.4306
  0
LINE
  8
0
 10
48.375
 20
-92.4306
 11
48.375
 21
-95.475
  0
LINE
  8
0
 10
48.375
 20
-95.475
 11
63.375
 21
-95.475
  0
LINE
  8
0
 10
63.375
 20
-95.475
 11
63.375
 21
-92.4306
  0
LINE
  8
0
 10
63.375
 20
-92.4306
 11
75.3467
 21
-92.4306
  0
LINE
  8
0
 10
75.3467
 20
-92.4306
 11
77.003
 21
-92.0786
  0
LINE
  8
0
 10
77.003
 20
-92.0786
 11
78.55
 21
-91.3898
  0
LINE
  8
0
 10
78.55
 20
-91.3898
 11
79.92
 21
-90.3945
  0
LINE
  8
0
 10
79.92
 20
-90.3945
 11
81.053
 21
-89.1361
  0
LINE
  8
0
 10
81.053
 20
-89.1361
 11
81.8997
 21
-87.6696
  0
LINE
  8
0
 10
81.8997
 20
-87.6696
 11
82.423
 21
-86.0591
  0
LINE
  8
0
 10
82.423
 20
-86.0591
 11
82.6
 21
-84.375
  0
LINE
  8
0
 10
82.6
 20
-84.375
 11
82.6
 21
-77.9
  0
LINE
  8
0
 10
82.6
 20
-77.9
 11
85.6
 21
-77.9
  0
LINE
  8
0
 10
85.6
 20
-77.9
 11
85.6
 21
-62.9
  0
LINE
  8
0
 10
85.6
 20
-62.9
 11
82.6
 21
-62.9
  0
LINE
  8
0
 10
82.6
 20
-62.9
 11
82.6
 21
-35.975
  0
LINE
  8
0
 10
82.6
 20
-35.975
 11
85.6
 21
-35.975
  0
LINE
  8
0
 10
85.6
 20
-35.975
 11
85.6
 21
-20.975
  0
LINE
  8
0
 10
85.6
 20
-20.975
 11
82.6
 21
-20.975
  0
LINE
  8
0
 10
82.6
 20
-20.975
 11
82.6
 21
5.95
  0
LINE
  8
0
 10
82.6
 20
5.95
 11
85.6
 21
5.95
  0
LINE
  8
0
 10
85.6
 20
5.95
 11
85.6
 21
20.95
  0
LINE
  8
0
 10
85.6
 20
20.95
 11
82.6
 21
20.95
  0
LINE
  8
0
 10
82.6
 20
20.95
 11
82.6
 21
27.425
  0
LINE
  8
0
 10
82.6
 20
27.425
 11
82.423
 21
29.1091
  0
LINE
  8
0
 10
82.423
 20
29.1091
 11
81.8997
 21
30.7196
  0
LINE
  8
0
 10
81.8997
 20
30.7196
 11
81.053
 21
32.1861
  0
LINE
  8
0
 10
81.053
 20
32.1861
 11
79.92
 21
33.4445
  0
LINE
  8
0
 10
79.92
 20
33.4445
 11
78.55
 21
34.4398
  0
LINE
  8
0
 10
78.55
 20
34.4398
 11
77.003
 21
35.1286
  0
LINE
  8
0
 10
77.003
 20
35.1286
 11
75.3467
 21
35.4806
  0
LINE
  8
0
 10
75.3467
 20
35.4806
 11
63.375
 21
35.4806
  0
LINE
  8
0
 10
63.375
 20
35.4806
 11
63.375
 21
38.525
  0
LINE
  8
0
 10
63.375
 20
38.525
 11
48.375
 21
38.525
  0
LINE
  8
0
 10
48.375
 20
38.525
 11
48.375
 21
35.4806
  0
LINE
  8
0
 10
48.375
 20
35.4806
 11
7.5
 21
35.4806
  0
LINE
  8
0
 10
7.5
 20
35.4806
 11
7.5
 21
38.525
  0
LINE
  8
0
 10
7.5
 20
38.525
 11
-7.5
 21
38.525
  0
LINE
  8
0
 10
-7.5
 20
38.525
 11
-7.5
 21
35.4806
  0
LINE
  8
0
 10
-7.5
 20
35.4806
 11
-48.375
 21
35.4806
  0
LINE
  8
0
 10
-48.375
 20
35.4806
 11
-48.375
 21
38.525
  0
LINE
  8
0
 10
-48.375
 20
38.525
 11
-63.375
 21
38.525
  0
LINE
  8
0
 10
-63.375
 20
38.525
 11
-63.375
 21
35.4806
  0
LINE
  8
0
 10
-63.375
 20
35.4806
 11
-75.3467
 21
35.4806
  0
LINE
  8
0
 10
-75.3467
 20
35.4806
 11
-77.003
 21
35.1286
  0
LINE
  8
0
 10
-77.003
 20
35.1286
 11
-78.55
 21
34.4398
  0
LINE
  8
0
 10
-78.55
 20
34.4398
 11
-79.92
 21
33.4445
  0
LINE
  8
0
 10
-79.92
 20
33.4445
 11
-81.053
 21
32.1861
  0
LINE
  8
0
 10
-81.053
 20
32.1861
 11
-81.8997
 21
30.7196
  0
LINE
  8
0
 10
-81.8997
 20
30.7196
 11
-82.423
 21
29.1091
  0
LINE
  8
0
 10
-82.423
 20
29.1091
 11
-82.6
 21
27.425
  0
LINE
  8
0
 10
-82.6
 20
27.425
 11
-82.6
 21
20.95
  0
LINE
  8
0
 10
-82.6
 20
20.95
 11
-85.6
 21
20.95
  0
LINE
  8
0
 10
-85.6
 20
20.95
 11
-85.6
 21
5.95
  0
LINE
  8
0
 10
-85.6
 20
5.95
 11
-82.6
 21
5.95
  0
LINE
  8
0
 10
-82.6
 20
5.95
 11
-82.6
 21
-20.975
  0
LINE
  8
0
 10
-82.6
 20
-20.975
 11
-85.6
 21
-20.975
  0
LINE
  8
0
 10
-85.6
 20
-20.975
 11
-85.6
 21
-35.975
  0
LINE
  8
0
 10
-85.6
 20
-35.975
 11
-82.6
 21
-35.975
  0
LINE
  8
0
 10
-82.6
 20
-35.975
 11
-82.6
 21
-62.9
  0
LINE
  8
0
 10
-82.6
 20
-62.9
 11
-85.6
 21
-62.9
  0
LINE
  8
0
 10
-85.6
 20
-62.9
 11
-85.6
 21
-77.9
  0
LINE
  8
0
 10
-85.6
 20
-77.9
 11
-82.6
 21
-77.9
  0
LINE
  8
0
 10
-82.6
 20
-77.9
 11
-82.6
 21
-84.375
  0
LINE
  8
0
 10
-82.6
 20
-84.375
 11
-82.423
 21
-86.0591
  0
LINE
  8
0
 10
-82.423
 20
-86.0591
 11
-81.8997
 21
-87.6696
  0
LINE
  8
0
 10
-81.8997
 20
-87.6696
 11
-81.053
 21
-89.1361
  0
LINE
  8
0
 10
-81.053
 20
-89.1361
 11
-79.92
 21
-90.3945
  0
LINE
  8
0
 10
-79.92
 20
-90.3945
 11
-78.55
 21
-91.3898
  0
LINE
  8
0
 10
-78.55
 20
-91.3898
 11
-77.003
 21
-92.0786
  0
LINE
  8
0
 10
-77.003
 20
-92.0786
 11
-75.3467
 21
-92.4306
  0
LINE
  8
0
 10
-75.3467
 20
-92.4306
 11
-63.375
 21
-92.4306
  0
LINE
  8
0
 10
-63.375
 20
-92.4306
 11
-63.375
 21
-95.475
  0
LINE
  8
0
 10
-63.375
 20
-95.475
 11
-48.375
 21
-95.475
  0
LINE
  8
0
 10
-48.375
 20
-95.475
 11
-48.375
 21
-92.4306
  0
LINE
  8
0
 10
-74.9129
 20
23.4966
 11
-75.7206
 21
23.6683
  0
LINE
  8
0
 10
-75.7206
 20
23.6683
 11
-76.475
 21
24.0042
  0
LINE
  8
0
 10
-76.475
 20
24.0042
 11
-77.1431
 21
24.4896
  0
LINE
  8
0
 10
-77.1431
 20
24.4896
 11
-77.6956
 21
25.1032
  0
LINE
  8
0
 10
-77.6956
 20
25.1032
 11
-78.1085
 21
25.8184
  0
LINE
  8
0
 10
-78.1085
 20
25.8184
 11
-78.3637
 21
26.6037
  0
LINE
  8
0
 10
-78.3637
 20
26.6037
 11
-78.45
 21
27.425
  0
LINE
  8
0
 10
-78.45
 20
27.425
 11
-78.3637
 21
28.2462
  0
LINE
  8
0
 10
-78.3637
 20
28.2462
 11
-78.1085
 21
29.0316
  0
LINE
  8
0
 10
-78.1085
 20
29.0316
 11
-77.6956
 21
29.7467
  0
LINE
  8
0
 10
-77.6956
 20
29.7467
 11
-77.1431
 21
30.3604
  0
LINE
  8
0
 10
-77.1431
 20
30.3604
 11
-76.475
 21
30.8458
  0
LINE
  8
0
 10
-76.475
 20
30.8458
 11
-75.7206
 21
31.1817
  0
LINE
  8
0
 10
-75.7206
 20
31.1817
 11
-74.9129
 21
31.3533
  0
LINE
  8
0
 10
-74.9129
 20
31.3533
 11
-74.0871
 21
31.3533
  0
LINE
  8
0
 10
-74.0871
 20
31.3533
 11
-73.2794
 21
31.1817
  0
LINE
  8
0
 10
-73.2794
 20
31.1817
 11
-72.525
 21
30.8458
  0
LINE
  8
0
 10
-72.525
 20
30.8458
 11
-71.8569
 21
30.3604
  0
LINE
  8
0
 10
-71.8569
 20
30.3604
 11
-71.3044
 21
29.7467
  0
LINE
  8
0
 10
-71.3044
 20
29.7467
 11
-70.8915
 21
29.0316
  0
LINE
  8
0
 10
-70.8915
 20
29.0316
 11
-70.6363
 21
28.2462
  0
LINE
  8
0
 10
-70.6363
 20
28.2462
 11
-70.55
 21
27.425
  0
LINE
  8
0
 10
-70.55
 20
27.425
 11
-70.6363
 21
26.6037
  0
LINE
  8
0
 10
-70.6363
 20
26.6037
 11
-70.8915
 21
25.8184
  0
LINE
  8
0
 10
-70.8915
 20
25.8184
 11
-71.3044
 21
25.1032
  0
LINE
  8
0
 10
-71.3044
 20
25.1032
 11
-71.8569
 21
24.4896
  0
LINE
  8
0
 10
-71.8569
 20
24.4896
 11
-72.525
 21
24.0042
  0
LINE
  8
0
 10
-72.525
 20
24.0042
 11
-73.2794
 21
23.6683
  0
LINE
  8
0
 10
-73.2794
 20
23.6683
 11
-74.0871
 21
23.4966
  0
LINE
  8
0
 10
-74.0871
 20
23.4966
 11
-74.9129
 21
23.4966
  0
LINE
  8
0
 10
74.0871
 20
23.4966
 11
73.2794
 21
23.6683
  0
LINE
  8
0
 10
73.2794
 20
23.6683
 11
72.525
 21
24.0042
  0
LINE
  8
0
 10
72.525
 20
24.0042
 11
71.8569
 21
24.4896
  0
LINE
  8
0
 10
71.8569
 20
24.4896
 11
71.3044
 21
25.1032
  0
LINE
  8
0
 10
71.3044
 20
25.1032
 11
70.8915
 21
25.8184
  0
LINE
  8
0
 10
70.8915
 20
25.8184
 11
70.6363
 21
26.6037
  0
LINE
  8
0
 10
70.6363
 20
26.6037
 11
70.55
 21
27.425
  0
LINE
  8
0
 10
70.55
 20
27.425
 11
70.6363
 21
28.2462
  0
LINE
  8
0
 10
70.6363
 20
28.2462
 11
70.8915
 21
29.0316
  0
LINE
  8
0
 10
70.8915
 20
29.0316
 11
71.3044
 21
29.7467
  0
LINE
  8
0
 10
71.3044
 20
29.7467
 11
71.8569
 21
30.3604
  0
LINE
  8
0
 10
71.8569
 20
30.3604
 11
72.525
 21
30.8458
  0
LINE
  8
0
 10
72.525
 20
30.8458
 11
73.2794
 21
31.1817
  0
LINE
  8
0
 10
73.2794
 20
31.1817
 11
74.0871
 21
31.3533
  0
LINE
  8
0
 10
74.0871
 20
31.3533
 11
74.9129
 21
31.3533
  0
LINE
  8
0
 10
74.9129
 20
31.3533
 11
75.7206
 21
31.1817
  0
LINE
  8
0
 10
75.7206
 20
31.1817
 11
76.475
 21
30.8458
  0
LINE
  8
0
 10
76.475
 20
30.8458
 11
77.1431
 21
30.3604
  0
LINE
  8
0
 10
77.1431
 20
30.3604
 11
77.6956
 21
29.7467
  0
LINE
  8
0
 10
77.6956
 20
29.7467
 11
78.1085
 21
29.0316
  0
LINE
  8
0
 10
78.1085
 20
29.0316
 11
78.3637
 21
28.2462
  0
LINE
  8
0
 10
78.3637
 20
28.2462
 11
78.45
 21
27.425
  0
LINE
  8
0
 10
78.45
 20
27.425
 11
78.3637
 21
26.6037
  0
LINE
  8
0
 10
78.3637
 20
26.6037
 11
78.1085
 21
25.8184
  0
LINE
  8
0
 10
78.1085
 20
25.8184
 11
77.6956
 21
25.1032
  0
LINE
  8
0
 10
77.6956
 20
25.1032
 11
77.1431
 21
24.4896
  0
LINE
  8
0
 10
77.1431
 20
24.4896
 11
76.475
 21
24.0042
  0
LINE
  8
0
 10
76.475
 20
24.0042
 11
75.7206
 21
23.6683
  0
LINE
  8
0
 10
75.7206
 20
23.6683
 11
74.9129
 21
23.4966
  0
LINE
  8
0
 10
74.9129
 20
23.4966
 11
74.0871
 21
23.4966
  0
LINE
  8
0
 10
21.5871
 20
-3.92836
 11
20.7794
 21
-3.75667
  0
LINE
  8
0
 10
20.7794
 20
-3.75667
 11
20.025
 21
-3.42079
  0
LINE
  8
0
 10
20.025
 20
-3.42079
 11
19.3569
 21
-2.93541
  0
LINE
  8
0
 10
19.3569
 20
-2.93541
 11
18.8044
 21
-2.32175
  0
LINE
  8
0
 10
18.8044
 20
-2.32175
 11
18.3915
 21
-1.6066
  0
LINE
  8
0
 10
18.3915
 20
-1.6066
 11
18.1363
 21
-0.821243
  0
LINE
  8
0
 10
18.1363
 20
-0.821243
 11
18.05
 21
0
  0
LINE
  8
0
 10
18.05
 20
0
 11
18.1363
 21
0.821243
  0
LINE
  8
0
 10
18.1363
 20
0.821243
 11
18.3915
 21
1.6066
  0
LINE
  8
0
 10
18.3915
 20
1.6066
 11
18.8044
 21
2.32175
  0
LINE
  8
0
 10
18.8044
 20
2.32175
 11
19.3569
 21
2.93541
  0
LINE
  8
0
 10
19.3569
 20
2.93541
 11
20.025
 21
3.42079
  0
LINE
  8
0
 10
20.025
 20
3.42079
 11
20.7794
 21
3.75667
  0
LINE
  8
0
 10
20.7794
 20
3.75667
 11
21.5871
 21
3.92836
  0
LINE
  8
0
 10
21.5871
 20
3.92836
 11
22.4129
 21
3.92836
  0
LINE
  8
0
 10
22.4129
 20
3.92836
 11
23.2206
 21
3.75667
  0
LINE
  8
0
 10
23.2206
 20
3.75667
 11
23.975
 21
3.42079
  0
LINE
  8
0
 10
23.975
 20
3.42079
 11
24.6431
 21
2.93541
  0
LINE
  8
0
 10
24.6431
 20
2.93541
 11
25.1956
 21
2.32175
  0
LINE
  8
0
 10
25.1956
 20
2.32175
 11
25.6085
 21
1.6066
  0
LINE
  8
0
 10
25.6085
 20
1.6066
 11
25.8637
 21
0.821243
  0
LINE
  8
0
 10
25.8637
 20
0.821243
 11
25.95
 21
0
  0
LINE
  8
0
 10
25.95
 20
0
 11
25.8637
 21
-0.821243
  0
LINE
  8
0
 10
25.8637
 20
-0.821243
 11
25.6085
 21
-1.6066
  0
LINE
  8
0
 10
25.6085
 20
-1.6066
 11
25.1956
 21
-2.32175
  0
LINE
  8
0
 10
25.1956
 20
-2.32175
 11
24.6431
 21
-2.93541
  0
LINE
  8
0
 10
24.6431
 20
-2.93541
 11
23.975
 21
-3.42079
  0
LINE
  8
0
 10
23.975
 20
-3.42079
 11
23.2206
 21
-3.75667
  0
LINE
  8
0
 10
23.2206
 20
-3.75667
 11
22.4129
 21
-3.92836
  0
LINE
  8
0
 10
22.4129
 20
-3.92836
 11
21.5871
 21
-3.92836
  0
LINE
  8
0
 10
-22.4129
 20
-3.92836
 11
-23.2206
 21
-3.75667
  0
LINE
  8
0
 10
-23.2206
 20
-3.75667
 11
-23.975
 21
-3.42079
  0
LINE
  8
0
 10
-23.975
 20
-3.42079
 11
-24.6431
 21
-2.93541
  0
LINE
  8
0
 10
-24.6431
 20
-2.93541
 11
-25.1956
 21
-2.32175
  0
LINE
  8
0
 10
-25.1956
 20
-2.32175
 11
-25.6085
 21
-1.6066
  0
LINE
  8
0
 10
-25.6085
 20
-1.6066
 11
-25.8637
 21
-0.821243
  0
LINE
  8
0
 10
-25.8637
 20
-0.821243
 11
-25.95
 21
0
  0
LINE
  8
0
 10
-25.95
 20
0
 11
-25.8637
 21
0.821243
  0
LINE
  8
0
 10
-25.8637
 20
0.821243
 11
-25.6085
 21
1.6066
  0
LINE
  8
0
 10
-25.6085
 20
1.6066
 11
-25.1956
 21
2.32175
  0
LINE
  8
0
 10
-25.1956
 20
2.32175
 11
-24.6431
 21
2.93541
  0
LINE
  8
0
 10
-24.6431
 20
2.93541
 11
-23.975
 21
3.42079
  0
LINE
  8
0
 10
-23.975
 20
3.42079
 11
-23.2206
 21
3.75667
  0
LINE
  8
0
 10
-23.2206
 20
3.75667
 11
-22.4129
 21
3.92836
  0
LINE
  8
0
 10
-22.4129
 20
3.92836
 11
-21.5871
 21
3.92836
  0
LINE
  8
0
 10
-21.5871
 20
3.92836
 11
-20.7794
 21
3.75667
  0
LINE
  8
0
 10
-20.7794
 20
3.75667
 11
-20.025
 21
3.42079
  0
LINE
  8
0
 10
-20.025
 20
3.42079
 11
-19.3569
 21
2.93541
  0
LINE
  8
0
 10
-19.3569
 20
2.93541
 11
-18.8044
 21
2.32175
  0
LINE
  8
0
 10
-18.8044
 20
2.32175
 11
-18.3915
 21
1.6066
  0
LINE
  8
0
 10
-18.3915
 20
1.6066
 11
-18.1363
 21
0.821243
  0
LINE
  8
0
 10
-18.1363
 20
0.821243
 11
-18.05
 21
0
  0
LINE
  8
0
 10
-18.05
 20
0
 11
-18.1363
 21
-0.821243
  0
LINE
  8
0
 10
-18.1363
 20
-0.821243
 11
-18.3915
 21
-1.6066
  0
LINE
  8
0
 10
-18.3915
 20
-1.6066
 11
-18.8044
 21
-2.32175
  0
LINE
  8
0
 10
-18.8044
 20
-2.32175
 11
-19.3569
 21
-2.93541
  0
LINE
  8
0
 10
-19.3569
 20
-2.93541
 11
-20.025
 21
-3.42079
  0
LINE
  8
0
 10
-20.025
 20
-3.42079
 11
-20.7794
 21
-3.75667
  0
LINE
  8
0
 10
-20.7794
 20
-3.75667
 11
-21.5871
 21
-3.92836
  0
LINE
  8
0
 10
-21.5871
 20
-3.92836
 11
-22.4129
 21
-3.92836
  0
LINE
  8
0
 10
-1.24388
 20
-57.9348
 11
-3.67729
 21
-57.4176
  0
LINE
  8
0
 10
-3.67729
 20
-57.4176
 11
-5.95
 21
-56.4057
  0
LINE
  8
0
 10
-5.95
 20
-56.4057
 11
-7.96265
 21
-54.9434
  0
LINE
  8
0
 10
-7.96265
 20
-54.9434
 11
-9.62729
 21
-53.0946
  0
LINE
  8
0
 10
-9.62729
 20
-53.0946
 11
-10.8712
 21
-50.9402
  0
LINE
  8
0
 10
-10.8712
 20
-50.9402
 11
-11.64
 21
-48.5741
  0
LINE
  8
0
 10
-11.64
 20
-48.5741
 11
-11.9
 21
-46.1
  0
LINE
  8
0
 10
-11.9
 20
-46.1
 11
-11.64
 21
-43.6258
  0
LINE
  8
0
 10
-11.64
 20
-43.6258
 11
-10.8712
 21
-41.2598
  0
LINE
  8
0
 10
-10.8712
 20
-41.2598
 11
-9.62729
 21
-39.1053
  0
LINE
  8
0
 10
-9.62729
 20
-39.1053
 11
-7.96265
 21
-37.2566
  0
LINE
  8
0
 10
-7.96265
 20
-37.2566
 11
-5.95
 21
-35.7943
  0
LINE
  8
0
 10
-5.95
 20
-35.7943
 11
-3.67729
 21
-34.7824
  0
LINE
  8
0
 10
-3.67729
 20
-34.7824
 11
-1.24388
 21
-34.2652
  0
LINE
  8
0
 10
-1.24388
 20
-34.2652
 11
1.24388
 21
-34.2652
  0
LINE
  8
0
 10
1.24388
 20
-34.2652
 11
3.67729
 21
-34.7824
  0
LINE
  8
0
 10
3.67729
 20
-34.7824
 11
5.95
 21
-35.7943
  0
LINE
  8
0
 10
5.95
 20
-35.7943
 11
7.96265
 21
-37.2566
  0
LINE
  8
0
 10
7.96265
 20
-37.2566
 11
9.62729
 21
-39.1053
  0
LINE
  8
0
 10
9.62729
 20
-39.1053
 11
10.8712
 21
-41.2598
  0
LINE
  8
0
 10
10.8712
 20
-41.2598
 11
11.64
 21
-43.6258
  0
LINE
  8
0
 10
11.64
 20
-43.6258
 11
11.9
 21
-46.1
  0
LINE
  8
0
 10
11.9
 20
-46.1
 11
11.64
 21
-48.5741
  0
LINE
  8
0
 10
11.64
 20
-48.5741
 11
10.8712
 21
-50.9402
  0
LINE
  8
0
 10
10.8712
 20
-50.9402
 11
9.62729
 21
-53.0946
  0
LINE
  8
0
 10
9.62729
 20
-53.0946
 11
7.96265
 21
-54.9434
  0
LINE
  8
0
 10
7.96265
 20
-54.9434
 11
5.95
 21
-56.4057
  0
LINE
  8
0
 10
5.95
 20
-56.4057
 11
3.67729
 21
-57.4176
  0
LINE
  8
0
 10
3.67729
 20
-57.4176
 11
1.24388
 21
-57.9348
  0
LINE
  8
0
 10
1.24388
 20
-57.9348
 11
-1.24388
 21
-57.9348
  0
LINE
  8
0
 10
-63.9443
 20
-80.5607
 11
-65.1559
 21
-80.2388
  0
LINE
  8
0
 10
-65.1559
 20
-80.2388
 11
-66.2875
 21
-79.609
  0
LINE
  8
0
 10
-66.2875
 20
-79.609
 11
-67.2896
 21
-78.6989
  0
LINE
  8
0
 10
-67.2896
 20
-78.6989
 11
-68.1184
 21
-77.5483
  0
LINE
  8
0
 10
-68.1184
 20
-77.5483
 11
-68.7377
 21
-76.2074
  0
LINE
  8
0
 10
-68.7377
 20
-76.2074
 11
-69.1205
 21
-74.7348
  0
LINE
  8
0
 10
-69.1205
 20
-74.7348
 11
-69.25
 21
-73.195
  0
LINE
  8
0
 10
-69.25
 20
-73.195
 11
-69.1205
 21
-71.6552
  0
LINE
  8
0
 10
-69.1205
 20
-71.6552
 11
-68.7377
 21
-70.1826
  0
LINE
  8
0
 10
-68.7377
 20
-70.1826
 11
-68.1184
 21
-68.8417
  0
LINE
  8
0
 10
-68.1184
 20
-68.8417
 11
-67.2896
 21
-67.6911
  0
LINE
  8
0
 10
-67.2896
 20
-67.6911
 11
-66.2875
 21
-66.781
  0
LINE
  8
0
 10
-66.2875
 20
-66.781
 11
-65.1559
 21
-66.1512
  0
LINE
  8
0
 10
-65.1559
 20
-66.1512
 11
-63.9443
 21
-65.8293
  0
LINE
  8
0
 10
-63.9443
 20
-65.8293
 11
-62.7057
 21
-65.8293
  0
LINE
  8
0
 10
-62.7057
 20
-65.8293
 11
-61.4941
 21
-66.1512
  0
LINE
  8
0
 10
-61.4941
 20
-66.1512
 11
-60.3625
 21
-66.781
  0
LINE
  8
0
 10
-60.3625
 20
-66.781
 11
-59.3604
 21
-67.6911
  0
LINE
  8
0
 10
-59.3604
 20
-67.6911
 11
-58.5316
 21
-68.8417
  0
LINE
  8
0
 10
-58.5316
 20
-68.8417
 11
-57.9122
 21
-70.1826
  0
LINE
  8
0
 10
-57.9122
 20
-70.1826
 11
-57.5295
 21
-71.6552
  0
LINE
  8
0
 10
-57.5295
 20
-71.6552
 11
-57.4
 21
-73.195
  0
LINE
  8
0
 10
-57.4
 20
-73.195
 11
-57.5295
 21
-74.7348
  0
LINE
  8
0
 10
-57.5295
 20
-74.7348
 11
-57.9122
 21
-76.2074
  0
LINE
  8
0
 10
-57.9122
 20
-76.2074
 11
-58.5316
 21
-77.5483
  0
LINE
  8
0
 10
-58.5316
 20
-77.5483
 11
-59.3604
 21
-78.6989
  0
LINE
  8
0
 10
-59.3604
 20
-78.6989
 11
-60.3625
 21
-79.609
  0
LINE
  8
0
 10
-60.3625
 20
-79.609
 11
-61.4941
 21
-80.2388
  0
LINE
  8
0
 10
-61.4941
 20
-80.2388
 11
-62.7057
 21
-80.5607
  0
LINE
  8
0
 10
-62.7057
 20
-80.5607
 11
-63.9443
 21
-80.5607
  0
LINE
  8
0
 10
62.7057
 20
-80.5607
 11
61.4941
 21
-80.2388
  0
LINE
  8
0
 10
61.4941
 20
-80.2388
 11
60.3625
 21
-79.609
  0
LINE
  8
0
 10
60.3625
 20
-79.609
 11
59.3604
 21
-78.6989
  0
LINE
  8
0
 10
59.3604
 20
-78.6989
 11
58.5316
 21
-77.5483
  0
LINE
  8
0
 10
58.5316
 20
-77.5483
 11
57.9122
 21
-76.2074
  0
LINE
  8
0
 10
57.9122
 20
-76.2074
 11
57.5295
 21
-74.7348
  0
LINE
  8
0
 10
57.5295
 20
-74.7348
 11
57.4
 21
-73.195
  0
LINE
  8
0
 10
57.4
 20
-73.195
 11
57.5295
 21
-71.6552
  0
LINE
  8
0
 10
57.5295
 20
-71.6552
 11
57.9122
 21
-70.1826
  0
LINE
  8
0
 10
57.9122
 20
-70.1826
 11
58.5316
 21
-68.8417
  0
LINE
  8
0
 10
58.5316
 20
-68.8417
 11
59.3604
 21
-67.6911
  0
LINE
  8
0
 10
59.3604
 20
-67.6911
 11
60.3625
 21
-66.781
  0
LINE
  8
0
 10
60.3625
 20
-66.781
 11
61.4941
 21
-66.1512
  0
LINE
  8
0
 10
61.4941
 20
-66.1512
 11
62.7057
 21
-65.8293
  0
LINE
  8
0
 10
62.7057
 20
-65.8293
 11
63.9443
 21
-65.8293
  0
LINE
  8
0
 10
63.9443
 20
-65.8293
 11
65.1559
 21
-66.1512
  0
LINE
  8
0
 10
65.1559
 20
-66.1512
 11
66.2875
 21
-66.781
  0
LINE
  8
0
 10
66.2875
 20
-66.781
 11
67.2896
 21
-67.6911
  0
LINE
  8
0
 10
67.2896
 20
-67.6911
 11
68.1184
 21
-68.8417
  0
LINE
  8
0
 10
68.1184
 20
-68.8417
 11
68.7377
 21
-70.1826
  0
LINE
  8
0
 10
68.7377
 20
-70.1826
 11
69.1205
 21
-71.6552
  0
LINE
  8
0
 10
69.1205
 20
-71.6552
 11
69.25
 21
-73.195
  0
LINE
  8
0
 10
69.25
 20
-73.195
 11
69.1205
 21
-74.7348
  0
LINE
  8
0
 10
69.1205
 20
-74.7348
 11
68.7377
 21
-76.2074
  0
LINE
  8
0
 10
68.7377
 20
-76.2074
 11
68.1184
 21
-77.5483
  0
LINE
  8
0
 10
68.1184
 20
-77.5483
 11
67.2896
 21
-78.6989
  0
LINE
  8
0
 10
67.2896
 20
-78.6989
 11
66.2875
 21
-79.609
  0
LINE
  8
0
 10
66.2875
 20
-79.609
 11
65.1559
 21
-80.2388
  0
LINE
  8
0
 10
65.1559
 20
-80.2388
 11
63.9443
 21
-80.5607
  0
LINE
  8
0
 10
63.9443
 20
-80.5607
 11
62.7057
 21
-80.5607
  0
LINE
  8
0
 10
-0.261307
 20
-76.0113
 11
-0.772537
 21
-75.9026
  0
LINE
  8
0
 10
-0.772537
 20
-75.9026
 11
-1.25
 21
-75.6901
  0
LINE
  8
0
 10
-1.25
 20
-75.6901
 11
-1.67282
 21
-75.3829
  0
LINE
  8
0
 10
-1.67282
 20
-75.3829
 11
-2.02254
 21
-74.9945
  0
LINE
  8
0
 10
-2.02254
 20
-74.9945
 11
-2.28386
 21
-74.5418
  0
LINE
  8
0
 10
-2.28386
 20
-74.5418
 11
-2.44536
 21
-74.0448
  0
LINE
  8
0
 10
-2.44536
 20
-74.0448
 11
-2.5
 21
-73.525
  0
LINE
  8
0
 10
-2.5
 20
-73.525
 11
-2.44536
 21
-73.0052
  0
LINE
  8
0
 10
-2.44536
 20
-73.0052
 11
-2.28386
 21
-72.5081
  0
LINE
  8
0
 10
-2.28386
 20
-72.5081
 11
-2.02254
 21
-72.0555
  0
LINE
  8
0
 10
-2.02254
 20
-72.0555
 11
-1.67282
 21
-71.6671
  0
LINE
  8
0
 10
-1.67282
 20
-71.6671
 11
-1.24998
 21
-71.3599
  0
LINE
  8
0
 10
-1.24998
 20
-71.3599
 11
-0.772537
 21
-71.1474
  0
LINE
  8
0
 10
-0.772537
 20
-71.1474
 11
-0.261307
 21
-71.0387
  0
LINE
  8
0
 10
-0.261307
 20
-71.0387
 11
0.261307
 21
-71.0387
  0
LINE
  8
0
 10
0.261307
 20
-71.0387
 11
0.772537
 21
-71.1474
  0
LINE
  8
0
 10
0.772537
 20
-71.1474
 11
1.25
 21
-71.3599
  0
LINE
  8
0
 10
1.25
 20
-71.3599
 11
1.67282
 21
-71.6671
  0
LINE
  8
0
 10
1.67282
 20
-71.6671
 11
2.02254
 21
-72.0555
  0
LINE
  8
0
 10
2.02254
 20
-72.0555
 11
2.28386
 21
-72.5081
  0
LINE
  8
0
 10
2.28386
 20
-72.5081
 11
2.44536
 21
-73.0052
  0
LINE
  8
0
 10
2.44536
 20
-73.0052
 11
2.5
 21
-73.525
  0
LINE
  8
0
 10
2.5
 20
-73.525
 11
2.44536
 21
-74.0448
  0
LINE
  8
0
 10
2.44536
 20
-74.0448
 11
2.28386
 21
-74.5418
  0
LINE
  8
0
 10
2.28386
 20
-74.5418
 11
2.02254
 21
-74.9945
  0
LINE
  8
0
 10
2.02254
 20
-74.9945
 11
1.67282
 21
-75.3829
  0
LINE
  8
0
 10
1.67282
 20
-75.3829
 11
1.25
 21
-75.6901
  0
LINE
  8
0
 10
1.25
 20
-75.6901
 11
0.772537
 21
-75.9026
  0
LINE
  8
0
 10
0.772537
 20
-75.9026
 11
0.261307
 21
-76.0113
  0
LINE
  8
0
 10
0.261307
 20
-76.0113
 11
-0.261307
 21
-76.0113
  0
LINE
  8
0
 10
-74.9129
 20
-88.3034
 11
-75.7206
 21
-88.1317
  0
LINE
  8
0
 10
-75.7206
 20
-88.1317
 11
-76.475
 21
-87.7958
  0
LINE
  8
0
 10
-76.475
 20
-87.7958
 11
-77.1431
 21
-87.3104
  0
LINE
  8
0
 10
-77.1431
 20
-87.3104
 11
-77.6956
 21
-86.6967
  0
LINE
  8
0
 10
-77.6956
 20
-86.6967
 11
-78.1085
 21
-85.9816
  0
LINE
  8
0
 10
-78.1085
 20
-85.9816
 11
-78.3637
 21
-85.1962
  0
LINE
  8
0
 10
-78.3637
 20
-85.1962
 11
-78.45
 21
-84.375
  0
LINE
  8
0
 10
-78.45
 20
-84.375
 11
-78.3637
 21
-83.5537
  0
LINE
  8
0
 10
-78.3637
 20
-83.5537
 11
-78.1085
 21
-82.7684
  0
LINE
  8
0
 10
-78.1085
 20
-82.7684
 11
-77.6956
 21
-82.0532
  0
LINE
  8
0
 10
-77.6956
 20
-82.0532
 11
-77.1431
 21
-81.4396
  0
LINE
  8
0
 10
-77.1431
 20
-81.4396
 11
-76.475
 21
-80.9542
  0
LINE
  8
0
 10
-76.475
 20
-80.9542
 11
-75.7206
 21
-80.6183
  0
LINE
  8
0
 10
-75.7206
 20
-80.6183
 11
-74.9129
 21
-80.4466
  0
LINE
  8
0
 10
-74.9129
 20
-80.4466
 11
-74.0871
 21
-80.4466
  0
LINE
  8
0
 10
-74.0871
 20
-80.4466
 11
-73.2794
 21
-80.6183
  0
LINE
  8
0
 10
-73.2794
 20
-80.6183
 11
-72.525
 21
-80.9542
  0
LINE
  8
0
 10
-72.525
 20
-80.9542
 11
-71.8569
 21
-81.4396
  0
LINE
  8
0
 10
-71.8569
 20
-81.4396
 11
-71.3044
 21
-82.0532
  0
LINE
  8
0
 10
-71.3044
 20
-82.0532
 11
-70.8915
 21
-82.7684
  0
LINE
  8
0
 10
-70.8915
 20
-82.7684
 11
-70.6363
 21
-83.5537
  0
LINE
  8
0
 10
-70.6363
 20
-83.5537
 11
-70.55
 21
-84.375
  0
LINE
  8
0
 10
-70.55
 20
-84.375
 11
-70.6363
 21
-85.1962
  0
LINE
  8
0
 10
-70.6363
 20
-85.1962
 11
-70.8915
 21
-85.9816
  0
LINE
  8
0
 10
-70.8915
 20
-85.9816
 11
-71.3044
 21
-86.6967
  0
LINE
  8
0
 10
-71.3044
 20
-86.6967
 11
-71.8569
 21
-87.3104
  0
LINE
  8
0
 10
-71.8569
 20
-87.3104
 11
-72.525
 21
-87.7958
  0
LINE
  8
0
 10
-72.525
 20
-87.7958
 11
-73.2794
 21
-88.1317
  0
LINE
  8
0
 10
-73.2794
 20
-88.1317
 11
-74.0871
 21
-88.3034
  0
LINE
  8
0
 10
-74.0871
 20
-88.3034
 11
-74.9129
 21
-88.3034
  0
LINE
  8
0
 10
74.0871
 20
-88.3034
 11
73.2794
 21
-88.1317
  0
LINE
  8
0
 10
73.2794
 20
-88.1317
 11
72.525
 21
-87.7958
  0
LINE
  8
0
 10
72.525
 20
-87.7958
 11
71.8569
 21
-87.3104
  0
LINE
  8
0
 10
71.8569
 20
-87.3104
 11
71.3044
 21
-86.6967
  0
LINE
  8
0
 10
71.3044
 20
-86.6967
 11
70.8915
 21
-85.9816
  0
LINE
  8
0
 10
70.8915
 20
-85.9816
 11
70.6363
 21
-85.1962
  0
LINE
  8
0
 10
70.6363
 20
-85.1962
 11
70.55
 21
-84.375
  0
LINE
  8
0
 10
70.55
 20
-84.375
 11
70.6363
 21
-83.5537
  0
LINE
  8
0
 10
70.6363
 20
-83.5537
 11
70.8915
 21
-82.7684
  0
LINE
  8
0
 10
70.8915
 20
-82.7684
 11
71.3044
 21
-82.0532
  0
LINE
  8
0
 10
71.3044
 20
-82.0532
 11
71.8569
 21
-81.4396
  0
LINE
  8
0
 10
71.8569
 20
-81.4396
 11
72.525
 21
-80.9542
  0
LINE
  8
0
 10
72.525
 20
-80.9542
 11
73.2794
 21
-80.6183
  0
LINE
  8
0
 10
73.2794
 20
-80.6183
 11
74.0871
 21
-80.4466
  0
LINE
  8
0
 10
74.0871
 20
-80.4466
 11
74.9129
 21
-80.4466
  0
LINE
  8
0
 10
74.9129
 20
-80.4466
 11
75.7206
 21
-80.6183
  0
LINE
  8
0
 10
75.7206
 20
-80.6183
 11
76.475
 21
-80.9542
  0
LINE
  8
0
 10
76.475
 20
-80.9542
 11
77.1431
 21
-81.4396
  0
LINE
  8
0
 10
77.1431
 20
-81.4396
 11
77.6956
 21
-82.0532
  0
LINE
  8
0
 10
77.6956
 20
-82.0532
 11
78.1085
 21
-82.7684
  0
LINE
  8
0
 10
78.1085
 20
-82.7684
 11
78.3637
 21
-83.5537
  0
LINE
  8
0
 10
78.3637
 20
-83.5537
 11
78.45
 21
-84.375
  0
LINE
  8
0
 10
78.45
 20
-84.375
 11
78.3637
 21
-85.1962
  0
LINE
  8
0
 10
78.3637
 20
-85.1962
 11
78.1085
 21
-85.9816
  0
LINE
  8
0
 10
78.1085
 20
-85.9816
 11
77.6956
 21
-86.6967
  0
LINE
  8
0
 10
77.6956
 20
-86.6967
 11
77.1431
 21
-87.3104
  0
LINE
  8
0
 10
77.1431
 20
-87.3104
 11
76.475
 21
-87.7958
  0
LINE
  8
0
 10
76.475
 20
-87.7958
 11
75.7206
 21
-88.1317
  0
LINE
  8
0
 10
75.7206
 20
-88.1317
 11
74.9129
 21
-88.3034
  0
LINE
  8
0
 10
74.9129
 20
-88.3034
 11
74.0871
 21
-88.3034
  0
ENDSEC
  0
SECTION
  2
OBJECTS
  0
DICTIONARY
  0
ENDSEC
  0
EOF
