<?xml version="1.0" standalone="no"?>
<!DOCTYPE svg PUBLIC "-//W3C//DTD SVG 1.1//EN" "http://www.w3.org/Graphics/SVG/1.1/DTD/svg11.dtd">
<svg width="38" height="38" viewBox="-19 16 38 38" xmlns="http://www.w3.org/2000/svg" version="1.1">
<title>OpenSCAD Model</title>
<path d="
M -18.5,35.4 L -18.4549,36.6905 L -18.32,37.9747 L -18.0957,39.2464 L -17.7833,40.4993 L -17.3843,41.7274
 L -16.9006,42.9246 L -16.3345,44.0852 L -15.6889,45.2035 L -14.9668,46.274 L -14.1718,47.2916 L -13.3078,48.2512
 L -12.3789,49.1482 L -11.3897,49.9782 L -10.3451,50.7372 L -9.25,51.4215 L -8.10987,52.0277 L -6.93022,52.5529
 L -5.71681,52.9945 L -4.47555,53.3505 L -3.21249,53.6189 L -1.93378,53.7987 L -0.64564,53.8887 L 0.64564,53.8887
 L 1.93378,53.7987 L 3.21249,53.6189 L 4.47555,53.3505 L 5.71681,52.9945 L 6.93022,52.5529 L 8.10987,52.0277
 L 9.25,51.4215 L 10.3451,50.7372 L 11.3897,49.9782 L 12.3789,49.1482 L 13.3078,48.2512 L 14.1718,47.2916
 L 14.9668,46.274 L 15.6889,45.2035 L 16.3345,44.0852 L 16.9006,42.9246 L 17.3843,41.7274 L 17.7833,40.4993
 L 18.0957,39.2464 L 18.32,37.9747 L 18.4549,36.6905 L 18.5,35.4 L 18.4549,34.1095 L 18.32,32.8253
 L 18.0957,31.5536 L 17.7833,30.3007 L 17.3843,29.0726 L 16.9006,27.8754 L 16.3345,26.7148 L 15.6889,25.5965
 L 14.9668,24.526 L 14.1718,23.5084 L 13.3078,22.5488 L 12.3789,21.6518 L 11.3897,20.8218 L 10.3451,20.0628
 L 9.25,19.3785 L 8.10987,18.7723 L 6.93022,18.2471 L 5.71681,17.8055 L 4.47555,17.4495 L 3.21249,17.1811
 L 1.93378,17.0013 L 0.64564,16.9113 L -0.64564,16.9113 L -1.93378,17.0013 L -3.21249,17.1811 L -4.47555,17.4495
 L -5.71681,17.8055 L -6.93022,18.2471 L -8.10987,18.7723 L -9.25,19.3785 L -10.3451,20.0628 L -11.3897,20.8218
 L -12.3789,21.6518 L -13.3078,22.5488 L -14.1718,23.5084 L -14.9668,24.526 L -15.6889,25.5965 L -16.3345,26.7148
 L -16.9006,27.8754 L -17.3843,29.0726 L -17.7833,30.3007 L -18.0957,31.5536 L -18.32,32.8253 L -18.4549,34.1095
 z
M -9.35,48.65 L -9.3461,48.5384 L -9.33443,48.4273 L -9.31504,48.3173 L -9.28802,48.209 L -9.25351,48.1028
 L -9.21167,47.9992 L -9.16272,47.8988 L -9.10688,47.8021 L -9.04443,47.7095 L -8.97567,47.6215 L -8.90094,47.5385
 L -8.82061,47.461 L -8.73506,47.3892 L -8.64471,47.3235 L -8.55,47.2644 L -8.45139,47.2119 L -8.34937,47.1665
 L -8.24443,47.1283 L -8.13707,47.0975 L -8.02784,47.0743 L -7.91724,47.0588 L -7.80584,47.051 L -7.69416,47.051
 L -7.58275,47.0588 L -7.47216,47.0743 L -7.36292,47.0975 L -7.25557,47.1283 L -7.15063,47.1665 L -7.04861,47.2119
 L -6.95,47.2644 L -6.85529,47.3235 L -6.76494,47.3892 L -6.67939,47.461 L -6.59906,47.5385 L -6.52433,47.6215
 L -6.45557,47.7095 L -6.39312,47.8021 L -6.33728,47.8988 L -6.28833,47.9992 L -6.24649,48.1028 L -6.21198,48.209
 L -6.18496,48.3173 L -6.16557,48.4273 L -6.1539,48.5384 L -6.15,48.65 L -6.1539,48.7616 L -6.16557,48.8727
 L -6.18496,48.9827 L -6.21198,49.091 L -6.24649,49.1972 L -6.28833,49.3008 L -6.33728,49.4012 L -6.39312,49.4979
 L -6.45557,49.5905 L -6.52433,49.6785 L -6.59906,49.7615 L -6.67939,49.839 L -6.76494,49.9108 L -6.85529,49.9765
 L -6.95,50.0356 L -7.04861,50.0881 L -7.15063,50.1335 L -7.25557,50.1717 L -7.36292,50.2025 L -7.47216,50.2257
 L -7.58275,50.2412 L -7.69416,50.249 L -7.80584,50.249 L -7.91724,50.2412 L -8.02784,50.2257 L -8.13707,50.2025
 L -8.24443,50.1717 L -8.34937,50.1335 L -8.45139,50.0881 L -8.55,50.0356 L -8.64471,49.9765 L -8.73506,49.9108
 L -8.82061,49.839 L -8.90094,49.7615 L -8.97567,49.6785 L -9.04443,49.5905 L -9.10688,49.4979 L -9.16272,49.4012
 L -9.21167,49.3008 L -9.25351,49.1972 L -9.28802,49.091 L -9.31504,48.9827 L -9.33443,48.8727 L -9.3461,48.7616
 z
M -9.35,21.9 L -9.3461,21.7884 L -9.33443,21.6773 L -9.31504,21.5673 L -9.28802,21.459 L -9.25351,21.3528
 L -9.21167,21.2492 L -9.16272,21.1488 L -9.10688,21.0521 L -9.04443,20.9595 L -8.97567,20.8715 L -8.90094,20.7885
 L -8.82061,20.711 L -8.73506,20.6392 L -8.64471,20.5735 L -8.55,20.5144 L -8.45139,20.4619 L -8.34937,20.4165
 L -8.24443,20.3783 L -8.13707,20.3475 L -8.02784,20.3243 L -7.91724,20.3088 L -7.80584,20.301 L -7.69416,20.301
 L -7.58275,20.3088 L -7.47216,20.3243 L -7.36292,20.3475 L -7.25557,20.3783 L -7.15063,20.4165 L -7.04861,20.4619
 L -6.95,20.5144 L -6.85529,20.5735 L -6.76494,20.6392 L -6.67939,20.711 L -6.59906,20.7885 L -6.52433,20.8715
 L -6.45557,20.9595 L -6.39312,21.0521 L -6.33728,21.1488 L -6.28833,21.2492 L -6.24649,21.3528 L -6.21198,21.459
 L -6.18496,21.5673 L -6.16557,21.6773 L -6.1539,21.7884 L -6.15,21.9 L -6.1539,22.0116 L -6.16557,22.1227
 L -6.18496,22.2327 L -6.21198,22.341 L -6.24649,22.4472 L -6.28833,22.5508 L -6.33728,22.6512 L -6.39312,22.7479
 L -6.45557,22.8405 L -6.52433,22.9285 L -6.59906,23.0115 L -6.67939,23.089 L -6.76494,23.1608 L -6.85529,23.2265
 L -6.95,23.2856 L -7.04861,23.3381 L -7.15063,23.3835 L -7.25557,23.4217 L -7.36292,23.4525 L -7.47216,23.4757
 L -7.58275,23.4912 L -7.69416,23.499 L -7.80584,23.499 L -7.91724,23.4912 L -8.02784,23.4757 L -8.13707,23.4525
 L -8.24443,23.4217 L -8.34937,23.3835 L -8.45139,23.3381 L -8.55,23.2856 L -8.64471,23.2265 L -8.73506,23.1608
 L -8.82061,23.089 L -8.90094,23.0115 L -8.97567,22.9285 L -9.04443,22.8405 L -9.10688,22.7479 L -9.16272,22.6512
 L -9.21167,22.5508 L -9.25351,22.4472 L -9.28802,22.341 L -9.31504,22.2327 L -9.33443,22.1227 L -9.3461,22.0116
 z
M -6.8,42.4 L -6.78343,41.9257 L -6.73382,41.4536 L -6.6514,40.9862 L -6.53658,40.5257 L -6.38991,40.0743
 L -6.21211,39.6342 L -6.00404,39.2076 L -5.76673,38.7965 L -5.50132,38.4031 L -5.2091,38.029 L -4.89151,37.6763
 L -4.55009,37.3466 L -4.1865,37.0415 L -3.80251,36.7625 L -3.4,36.511 L -2.98092,36.2882 L -2.54732,36.0952
 L -2.10132,35.9328 L -1.64507,35.802 L -1.18081,35.7033 L -0.710793,35.6373 L -0.237316,35.6041 L 0.237316,35.6041
 L 0.710793,35.6373 L 1.18081,35.7033 L 1.64507,35.802 L 2.10132,35.9328 L 2.54732,36.0952 L 2.98092,36.2882
 L 3.4,36.511 L 3.80251,36.7625 L 4.1865,37.0415 L 4.55009,37.3466 L 4.89151,37.6763 L 5.2091,38.029
 L 5.50132,38.4031 L 5.76673,38.7965 L 6.00404,39.2076 L 6.21211,39.6342 L 6.38991,40.0743 L 6.53658,40.5257
 L 6.6514,40.9862 L 6.73382,41.4536 L 6.78343,41.9257 L 6.8,42.4 L 6.78343,42.8743 L 6.73382,43.3464
 L 6.6514,43.8138 L 6.53658,44.2743 L 6.38991,44.7257 L 6.21211,45.1658 L 6.00404,45.5924 L 5.76673,46.0035
 L 5.50132,46.3969 L 5.2091,46.771 L 4.89151,47.1237 L 4.55009,47.4534 L 4.1865,47.7585 L 3.80251,48.0375
 L 3.4,48.289 L 2.98092,48.5118 L 2.54732,48.7048 L 2.10132,48.8672 L 1.64507,48.998 L 1.18081,49.0967
 L 0.710793,49.1627 L 0.237316,49.1959 L -0.237316,49.1959 L -0.710793,49.1627 L -1.18081,49.0967 L -1.64507,48.998
 L -2.10132,48.8672 L -2.54732,48.7048 L -2.98092,48.5118 L -3.4,48.289 L -3.80251,48.0375 L -4.1865,47.7585
 L -4.55009,47.4534 L -4.89151,47.1237 L -5.2091,46.771 L -5.50132,46.3969 L -5.76673,46.0035 L -6.00404,45.5924
 L -6.21211,45.1658 L -6.38991,44.7257 L -6.53658,44.2743 L -6.6514,43.8138 L -6.73382,43.3464 L -6.78343,42.8743
 z
M 6.15,48.65 L 6.1539,48.5384 L 6.16557,48.4273 L 6.18496,48.3173 L 6.21198,48.209 L 6.24649,48.1028
 L 6.28833,47.9992 L 6.33728,47.8988 L 6.39312,47.8021 L 6.45557,47.7095 L 6.52433,47.6215 L 6.59906,47.5385
 L 6.67939,47.461 L 6.76494,47.3892 L 6.85529,47.3235 L 6.95,47.2644 L 7.04861,47.2119 L 7.15063,47.1665
 L 7.25557,47.1283 L 7.36292,47.0975 L 7.47216,47.0743 L 7.58275,47.0588 L 7.69416,47.051 L 7.80584,47.051
 L 7.91724,47.0588 L 8.02784,47.0743 L 8.13707,47.0975 L 8.24443,47.1283 L 8.34937,47.1665 L 8.45139,47.2119
 L 8.55,47.2644 L 8.64471,47.3235 L 8.73506,47.3892 L 8.82061,47.461 L 8.90094,47.5385 L 8.97567,47.6215
 L 9.04443,47.7095 L 9.10688,47.8021 L 9.16272,47.8988 L 9.21167,47.9992 L 9.25351,48.1028 L 9.28802,48.209
 L 9.31504,48.3173 L 9.33443,48.4273 L 9.3461,48.5384 L 9.35,48.65 L 9.3461,48.7616 L 9.33443,48.8727
 L 9.31504,48.9827 L 9.28802,49.091 L 9.25351,49.1972 L 9.21167,49.3008 L 9.16272,49.4012 L 9.10688,49.4979
 L 9.04443,49.5905 L 8.97567,49.6785 L 8.90094,49.7615 L 8.82061,49.839 L 8.73506,49.9108 L 8.64471,49.9765
 L 8.55,50.0356 L 8.45139,50.0881 L 8.34937,50.1335 L 8.24443,50.1717 L 8.13707,50.2025 L 8.02784,50.2257
 L 7.91724,50.2412 L 7.80584,50.249 L 7.69416,50.249 L 7.58275,50.2412 L 7.47216,50.2257 L 7.36292,50.2025
 L 7.25557,50.1717 L 7.15063,50.1335 L 7.04861,50.0881 L 6.95,50.0356 L 6.85529,49.9765 L 6.76494,49.9108
 L 6.67939,49.839 L 6.59906,49.7615 L 6.52433,49.6785 L 6.45557,49.5905 L 6.39312,49.4979 L 6.33728,49.4012
 L 6.28833,49.3008 L 6.24649,49.1972 L 6.21198,49.091 L 6.18496,48.9827 L 6.16557,48.8727 L 6.1539,48.7616
 z
M 6.15,21.9 L 6.1539,21.7884 L 6.16557,21.6773 L 6.18496,21.5673 L 6.21198,21.459 L 6.24649,21.3528
 L 6.28833,21.2492 L 6.33728,21.1488 L 6.39312,21.0521 L 6.45557,20.9595 L 6.52433,20.8715 L 6.59906,20.7885
 L 6.67939,20.711 L 6.76494,20.6392 L 6.85529,20.5735 L 6.95,20.5144 L 7.04861,20.4619 L 7.15063,20.4165
 L 7.25557,20.3783 L 7.36292,20.3475 L 7.47216,20.3243 L 7.58275,20.3088 L 7.69416,20.301 L 7.80584,20.301
 L 7.91724,20.3088 L 8.02784,20.3243 L 8.13707,20.3475 L 8.24443,20.3783 L 8.34937,20.4165 L 8.45139,20.4619
 L 8.55,20.5144 L 8.64471,20.5735 L 8.73506,20.6392 L 8.82061,20.711 L 8.90094,20.7885 L 8.97567,20.8715
 L 9.04443,20.9595 L 9.10688,21.0521 L 9.16272,21.1488 L 9.21167,21.2492 L 9.25351,21.3528 L 9.28802,21.459
 L 9.31504,21.5673 L 9.33443,21.6773 L 9.3461,21.7884 L 9.35,21.9 L 9.3461,22.0116 L 9.33443,22.1227
 L 9.31504,22.2327 L 9.28802,22.341 L 9.25351,22.4472 L 9.21167,22.5508 L 9.16272,22.6512 L 9.10688,22.7479
 L 9.04443,22.8405 L 8.97567,22.9285 L 8.90094,23.0115 L 8.82061,23.089 L 8.73506,23.1608 L 8.64471,23.2265
 L 8.55,23.2856 L 8.45139,23.3381 L 8.34937,23.3835 L 8.24443,23.4217 L 8.13707,23.4525 L 8.02784,23.4757
 L 7.91724,23.4912 L 7.80584,23.499 L 7.69416,23.499 L 7.58275,23.4912 L 7.47216,23.4757 L 7.36292,23.4525
 L 7.25557,23.4217 L 7.15063,23.3835 L 7.04861,23.3381 L 6.95,23.2856 L 6.85529,23.2265 L 6.76494,23.1608
 L 6.67939,23.089 L 6.59906,23.0115 L 6.52433,22.9285 L 6.45557,22.8405 L 6.39312,22.7479 L 6.33728,22.6512
 L 6.28833,22.5508 L 6.24649,22.4472 L 6.21198,22.341 L 6.18496,22.2327 L 6.16557,22.1227 L 6.1539,22.0116
 z
" stroke="black" fill="lightgray" stroke-width="0.5"/></svg>
