  0
SECTION
  2
BLOCKS
  0
ENDSEC
  0
SECTION
  2
ENTITIES
  0
LINE
  8
0
 10
63.0495
 20
-82.4856
 11
63.5975
 21
-82.4425
  0
LINE
  8
0
 10
63.5975
 20
-82.4425
 11
64.1426
 21
-82.3707
  0
LINE
  8
0
 10
64.1426
 20
-82.3707
 11
64.6831
 21
-82.2706
  0
LINE
  8
0
 10
64.6831
 20
-82.2706
 11
65.2176
 21
-82.1422
  0
LINE
  8
0
 10
65.2176
 20
-82.1422
 11
65.7447
 21
-81.9861
  0
LINE
  8
0
 10
65.7447
 20
-81.9861
 11
66.2629
 21
-81.8026
  0
LINE
  8
0
 10
66.2629
 20
-81.8026
 11
66.7707
 21
-81.5922
  0
LINE
  8
0
 10
66.7707
 20
-81.5922
 11
67.2669
 21
-81.3556
  0
LINE
  8
0
 10
67.2669
 20
-81.3556
 11
67.75
 21
-81.0933
  0
LINE
  8
0
 10
67.75
 20
-81.0933
 11
68.2187
 21
-80.806
  0
LINE
  8
0
 10
68.2187
 20
-80.806
 11
68.6717
 21
-80.4947
  0
LINE
  8
0
 10
68.6717
 20
-80.4947
 11
69.1079
 21
-80.16
  0
LINE
  8
0
 10
69.1079
 20
-80.16
 11
69.5259
 21
-79.803
  0
LINE
  8
0
 10
69.5259
 20
-79.803
 11
69.9246
 21
-79.4246
  0
LINE
  8
0
 10
69.9246
 20
-79.4246
 11
70.303
 21
-79.0259
  0
LINE
  8
0
 10
70.303
 20
-79.0259
 11
70.66
 21
-78.6079
  0
LINE
  8
0
 10
70.66
 20
-78.6079
 11
70.9947
 21
-78.1717
  0
LINE
  8
0
 10
70.9947
 20
-78.1717
 11
71.306
 21
-77.7187
  0
LINE
  8
0
 10
71.306
 20
-77.7187
 11
71.5933
 21
-77.25
  0
LINE
  8
0
 10
71.5933
 20
-77.25
 11
71.8556
 21
-76.7669
  0
LINE
  8
0
 10
71.8556
 20
-76.7669
 11
72.0922
 21
-76.2707
  0
LINE
  8
0
 10
72.0922
 20
-76.2707
 11
72.3026
 21
-75.7629
  0
LINE
  8
0
 10
72.3026
 20
-75.7629
 11
72.4861
 21
-75.2447
  0
LINE
  8
0
 10
72.4861
 20
-75.2447
 11
72.6422
 21
-74.7176
  0
LINE
  8
0
 10
72.6422
 20
-74.7176
 11
72.7706
 21
-74.1831
  0
LINE
  8
0
 10
72.7706
 20
-74.1831
 11
72.8707
 21
-73.6426
  0
LINE
  8
0
 10
72.8707
 20
-73.6426
 11
72.9425
 21
-73.0975
  0
LINE
  8
0
 10
72.9425
 20
-73.0975
 11
72.9856
 21
-72.5495
  0
LINE
  8
0
 10
72.9856
 20
-72.5495
 11
73
 21
-72
  0
LINE
  8
0
 10
73
 20
-72
 11
72.9856
 21
-71.4505
  0
LINE
  8
0
 10
72.9856
 20
-71.4505
 11
72.9425
 21
-70.9025
  0
LINE
  8
0
 10
72.9425
 20
-70.9025
 11
72.8707
 21
-70.3574
  0
LINE
  8
0
 10
72.8707
 20
-70.3574
 11
72.7706
 21
-69.8169
  0
LINE
  8
0
 10
72.7706
 20
-69.8169
 11
72.6422
 21
-69.2824
  0
LINE
  8
0
 10
72.6422
 20
-69.2824
 11
72.4861
 21
-68.7553
  0
LINE
  8
0
 10
72.4861
 20
-68.7553
 11
72.3026
 21
-68.2371
  0
LINE
  8
0
 10
72.3026
 20
-68.2371
 11
72.0922
 21
-67.7293
  0
LINE
  8
0
 10
72.0922
 20
-67.7293
 11
71.8556
 21
-67.2331
  0
LINE
  8
0
 10
71.8556
 20
-67.2331
 11
71.5933
 21
-66.75
  0
LINE
  8
0
 10
71.5933
 20
-66.75
 11
71.306
 21
-66.2813
  0
LINE
  8
0
 10
71.306
 20
-66.2813
 11
70.9947
 21
-65.8282
  0
LINE
  8
0
 10
70.9947
 20
-65.8282
 11
70.66
 21
-65.3921
  0
LINE
  8
0
 10
70.66
 20
-65.3921
 11
70.303
 21
-64.9741
  0
LINE
  8
0
 10
70.303
 20
-64.9741
 11
69.9246
 21
-64.5754
  0
LINE
  8
0
 10
69.9246
 20
-64.5754
 11
69.5259
 21
-64.197
  0
LINE
  8
0
 10
69.5259
 20
-64.197
 11
69.1079
 21
-63.84
  0
LINE
  8
0
 10
69.1079
 20
-63.84
 11
68.6717
 21
-63.5053
  0
LINE
  8
0
 10
68.6717
 20
-63.5053
 11
68.2187
 21
-63.194
  0
LINE
  8
0
 10
68.2187
 20
-63.194
 11
67.75
 21
-62.9067
  0
LINE
  8
0
 10
67.75
 20
-62.9067
 11
67.2669
 21
-62.6444
  0
LINE
  8
0
 10
67.2669
 20
-62.6444
 11
66.7707
 21
-62.4078
  0
LINE
  8
0
 10
66.7707
 20
-62.4078
 11
66.2629
 21
-62.1974
  0
LINE
  8
0
 10
66.2629
 20
-62.1974
 11
65.7447
 21
-62.0139
  0
LINE
  8
0
 10
65.7447
 20
-62.0139
 11
65.2176
 21
-61.8578
  0
LINE
  8
0
 10
65.2176
 20
-61.8578
 11
64.6831
 21
-61.7294
  0
LINE
  8
0
 10
64.6831
 20
-61.7294
 11
64.1426
 21
-61.6293
  0
LINE
  8
0
 10
64.1426
 20
-61.6293
 11
54.4261
 21
-60.1855
  0
LINE
  8
0
 10
54.4261
 20
-60.1855
 11
46.8732
 21
-51.166
  0
LINE
  8
0
 10
46.8732
 20
-51.166
 11
46.7
 21
-50.9632
  0
LINE
  8
0
 10
46.7
 20
-50.9632
 11
46.7
 21
-1.0495
  0
LINE
  8
0
 10
46.7
 20
-1.0495
 11
67.0837
 21
50.3698
  0
LINE
  8
0
 10
67.0837
 20
50.3698
 11
67.2096
 21
50.7251
  0
LINE
  8
0
 10
67.2096
 20
50.7251
 11
67.3166
 21
51.0865
  0
LINE
  8
0
 10
67.3166
 20
51.0865
 11
67.4046
 21
51.453
  0
LINE
  8
0
 10
67.4046
 20
51.453
 11
67.4733
 21
51.8237
  0
LINE
  8
0
 10
67.4733
 20
51.8237
 11
67.5225
 21
52.1974
  0
LINE
  8
0
 10
67.5225
 20
52.1974
 11
67.5521
 21
52.5732
  0
LINE
  8
0
 10
67.5521
 20
52.5732
 11
67.562
 21
52.95
  0
LINE
  8
0
 10
67.562
 20
52.95
 11
67.5521
 21
53.3268
  0
LINE
  8
0
 10
67.5521
 20
53.3268
 11
67.5225
 21
53.7026
  0
LINE
  8
0
 10
67.5225
 20
53.7026
 11
67.4733
 21
54.0763
  0
LINE
  8
0
 10
67.4733
 20
54.0763
 11
67.4046
 21
54.447
  0
LINE
  8
0
 10
67.4046
 20
54.447
 11
67.3166
 21
54.8135
  0
LINE
  8
0
 10
67.3166
 20
54.8135
 11
67.2096
 21
55.1749
  0
LINE
  8
0
 10
67.2096
 20
55.1749
 11
67.0837
 21
55.5302
  0
LINE
  8
0
 10
67.0837
 20
55.5302
 11
66.9395
 21
55.8785
  0
LINE
  8
0
 10
66.9395
 20
55.8785
 11
66.7772
 21
56.2187
  0
LINE
  8
0
 10
66.7772
 20
56.2187
 11
66.5974
 21
56.55
  0
LINE
  8
0
 10
66.5974
 20
56.55
 11
66.4004
 21
56.8714
  0
LINE
  8
0
 10
66.4004
 20
56.8714
 11
66.1869
 21
57.1821
  0
LINE
  8
0
 10
66.1869
 20
57.1821
 11
65.9574
 21
57.4811
  0
LINE
  8
0
 10
65.9574
 20
57.4811
 11
65.7126
 21
57.7677
  0
LINE
  8
0
 10
65.7126
 20
57.7677
 11
65.4531
 21
58.0412
  0
LINE
  8
0
 10
65.4531
 20
58.0412
 11
65.1797
 21
58.3006
  0
LINE
  8
0
 10
65.1797
 20
58.3006
 11
64.8931
 21
58.5454
  0
LINE
  8
0
 10
64.8931
 20
58.5454
 11
64.594
 21
58.7749
  0
LINE
  8
0
 10
64.594
 20
58.7749
 11
64.2834
 21
58.9884
  0
LINE
  8
0
 10
64.2834
 20
58.9884
 11
63.962
 21
59.1854
  0
LINE
  8
0
 10
63.962
 20
59.1854
 11
63.6307
 21
59.3652
  0
LINE
  8
0
 10
63.6307
 20
59.3652
 11
63.2905
 21
59.5275
  0
LINE
  8
0
 10
63.2905
 20
59.5275
 11
62.9422
 21
59.6718
  0
LINE
  8
0
 10
62.9422
 20
59.6718
 11
62.5869
 21
59.7976
  0
LINE
  8
0
 10
62.5869
 20
59.7976
 11
62.2255
 21
59.9047
  0
LINE
  8
0
 10
62.2255
 20
59.9047
 11
61.8589
 21
59.9927
  0
LINE
  8
0
 10
61.8589
 20
59.9927
 11
61.4883
 21
60.0614
  0
LINE
  8
0
 10
61.4883
 20
60.0614
 11
61.1146
 21
60.1105
  0
LINE
  8
0
 10
61.1146
 20
60.1105
 11
60.7388
 21
60.1401
  0
LINE
  8
0
 10
60.7388
 20
60.1401
 11
60.362
 21
60.15
  0
LINE
  8
0
 10
60.362
 20
60.15
 11
59.9852
 21
60.1401
  0
LINE
  8
0
 10
59.9852
 20
60.1401
 11
59.6094
 21
60.1105
  0
LINE
  8
0
 10
59.6094
 20
60.1105
 11
59.2356
 21
60.0614
  0
LINE
  8
0
 10
59.2356
 20
60.0614
 11
58.865
 21
59.9927
  0
LINE
  8
0
 10
58.865
 20
59.9927
 11
58.4985
 21
59.9047
  0
LINE
  8
0
 10
58.4985
 20
59.9047
 11
58.137
 21
59.7976
  0
LINE
  8
0
 10
58.137
 20
59.7976
 11
57.7817
 21
59.6718
  0
LINE
  8
0
 10
57.7817
 20
59.6718
 11
57.4335
 21
59.5275
  0
LINE
  8
0
 10
57.4335
 20
59.5275
 11
57.0932
 21
59.3652
  0
LINE
  8
0
 10
57.0932
 20
59.3652
 11
56.762
 21
59.1854
  0
LINE
  8
0
 10
56.762
 20
59.1854
 11
56.4406
 21
58.9884
  0
LINE
  8
0
 10
56.4406
 20
58.9884
 11
56.1299
 21
58.7749
  0
LINE
  8
0
 10
56.1299
 20
58.7749
 11
55.8309
 21
58.5454
  0
LINE
  8
0
 10
55.8309
 20
58.5454
 11
55.5442
 21
58.3006
  0
LINE
  8
0
 10
55.5442
 20
58.3006
 11
55.2708
 21
58.0412
  0
LINE
  8
0
 10
55.2708
 20
58.0412
 11
55.0113
 21
57.7677
  0
LINE
  8
0
 10
55.0113
 20
57.7677
 11
54.7665
 21
57.4811
  0
LINE
  8
0
 10
54.7665
 20
57.4811
 11
42.6102
 21
42.0833
  0
LINE
  8
0
 10
42.6102
 20
42.0833
 11
41.8207
 21
41.3534
  0
LINE
  8
0
 10
41.8207
 20
41.3534
 11
40.5905
 21
40.2746
  0
LINE
  8
0
 10
40.5905
 20
40.2746
 11
39.3325
 21
39.2284
  0
LINE
  8
0
 10
39.3325
 20
39.2284
 11
38.0476
 21
38.2154
  0
LINE
  8
0
 10
38.0476
 20
38.2154
 11
36.7366
 21
37.2364
  0
LINE
  8
0
 10
36.7366
 20
37.2364
 11
35.4004
 21
36.2921
  0
LINE
  8
0
 10
35.4004
 20
36.2921
 11
34.0399
 21
35.3831
  0
LINE
  8
0
 10
34.0399
 20
35.3831
 11
32.6562
 21
34.51
  0
LINE
  8
0
 10
32.6562
 20
34.51
 11
31.25
 21
33.6734
  0
LINE
  8
0
 10
31.25
 20
33.6734
 11
29.8224
 21
32.8739
  0
LINE
  8
0
 10
29.8224
 20
32.8739
 11
28.3744
 21
32.1121
  0
LINE
  8
0
 10
28.3744
 20
32.1121
 11
26.9069
 21
31.3884
  0
LINE
  8
0
 10
26.9069
 20
31.3884
 11
25.421
 21
30.7034
  0
LINE
  8
0
 10
25.421
 20
30.7034
 11
23.9177
 21
30.0575
  0
LINE
  8
0
 10
23.9177
 20
30.0575
 11
22.398
 21
29.4512
  0
LINE
  8
0
 10
22.398
 20
29.4512
 11
20.8629
 21
28.8849
  0
LINE
  8
0
 10
20.8629
 20
28.8849
 11
19.3136
 21
28.359
  0
LINE
  8
0
 10
19.3136
 20
28.359
 11
17.7509
 21
27.8738
  0
LINE
  8
0
 10
17.7509
 20
27.8738
 11
16.1762
 21
27.4296
  0
LINE
  8
0
 10
16.1762
 20
27.4296
 11
14.5903
 21
27.0269
  0
LINE
  8
0
 10
14.5903
 20
27.0269
 11
12.9945
 21
26.6658
  0
LINE
  8
0
 10
12.9945
 20
26.6658
 11
11.3897
 21
26.3466
  0
LINE
  8
0
 10
11.3897
 20
26.3466
 11
9.77715
 21
26.0695
  0
LINE
  8
0
 10
9.77715
 20
26.0695
 11
8.15788
 21
25.8347
  0
LINE
  8
0
 10
8.15788
 20
25.8347
 11
8.04958
 21
25.8219
  0
LINE
  8
0
 10
8.04958
 20
25.8219
 11
7.98885
 21
25.8434
  0
LINE
  8
0
 10
7.98885
 20
25.8434
 11
7.82822
 21
25.891
  0
LINE
  8
0
 10
7.82822
 20
25.891
 11
7.66531
 21
25.9301
  0
LINE
  8
0
 10
7.66531
 20
25.9301
 11
7.50058
 21
25.9606
  0
LINE
  8
0
 10
7.50058
 20
25.9606
 11
7.33449
 21
25.9825
  0
LINE
  8
0
 10
7.33449
 20
25.9825
 11
7.16747
 21
25.9956
  0
LINE
  8
0
 10
7.16747
 20
25.9956
 11
7
 21
26
  0
LINE
  8
0
 10
7
 20
26
 11
-6.99998
 21
26
  0
LINE
  8
0
 10
-6.99998
 20
26
 11
-7.16747
 21
25.9956
  0
LINE
  8
0
 10
-7.16747
 20
25.9956
 11
-7.33449
 21
25.9825
  0
LINE
  8
0
 10
-7.33449
 20
25.9825
 11
-7.50058
 21
25.9606
  0
LINE
  8
0
 10
-7.50058
 20
25.9606
 11
-7.66531
 21
25.9301
  0
LINE
  8
0
 10
-7.66531
 20
25.9301
 11
-7.82822
 21
25.891
  0
LINE
  8
0
 10
-7.82822
 20
25.891
 11
-7.98885
 21
25.8434
  0
LINE
  8
0
 10
-7.98885
 20
25.8434
 11
-8.04958
 21
25.8219
  0
LINE
  8
0
 10
-8.04958
 20
25.8219
 11
-8.15788
 21
25.8347
  0
LINE
  8
0
 10
-8.15788
 20
25.8347
 11
-9.77715
 21
26.0695
  0
LINE
  8
0
 10
-9.77715
 20
26.0695
 11
-11.3897
 21
26.3466
  0
LINE
  8
0
 10
-11.3897
 20
26.3466
 11
-12.9945
 21
26.6658
  0
LINE
  8
0
 10
-12.9945
 20
26.6658
 11
-14.5903
 21
27.0269
  0
LINE
  8
0
 10
-14.5903
 20
27.0269
 11
-16.1762
 21
27.4296
  0
LINE
  8
0
 10
-16.1762
 20
27.4296
 11
-17.7509
 21
27.8738
  0
LINE
  8
0
 10
-17.7509
 20
27.8738
 11
-19.3136
 21
28.359
  0
LINE
  8
0
 10
-19.3136
 20
28.359
 11
-20.8629
 21
28.8849
  0
LINE
  8
0
 10
-20.8629
 20
28.8849
 11
-22.398
 21
29.4512
  0
LINE
  8
0
 10
-22.398
 20
29.4512
 11
-23.9177
 21
30.0575
  0
LINE
  8
0
 10
-23.9177
 20
30.0575
 11
-25.421
 21
30.7034
  0
LINE
  8
0
 10
-25.421
 20
30.7034
 11
-26.9069
 21
31.3884
  0
LINE
  8
0
 10
-26.9069
 20
31.3884
 11
-28.3744
 21
32.1121
  0
LINE
  8
0
 10
-28.3744
 20
32.1121
 11
-29.8224
 21
32.8739
  0
LINE
  8
0
 10
-29.8224
 20
32.8739
 11
-31.25
 21
33.6734
  0
LINE
  8
0
 10
-31.25
 20
33.6734
 11
-32.6562
 21
34.51
  0
LINE
  8
0
 10
-32.6562
 20
34.51
 11
-34.0399
 21
35.3831
  0
LINE
  8
0
 10
-34.0399
 20
35.3831
 11
-35.4004
 21
36.2921
  0
LINE
  8
0
 10
-35.4004
 20
36.2921
 11
-36.7366
 21
37.2364
  0
LINE
  8
0
 10
-36.7366
 20
37.2364
 11
-38.0476
 21
38.2154
  0
LINE
  8
0
 10
-38.0476
 20
38.2154
 11
-39.3325
 21
39.2284
  0
LINE
  8
0
 10
-39.3325
 20
39.2284
 11
-40.5905
 21
40.2746
  0
LINE
  8
0
 10
-40.5905
 20
40.2746
 11
-41.8207
 21
41.3534
  0
LINE
  8
0
 10
-41.8207
 20
41.3534
 11
-42.6102
 21
42.0833
  0
LINE
  8
0
 10
-42.6102
 20
42.0833
 11
-54.7665
 21
57.4811
  0
LINE
  8
0
 10
-54.7665
 20
57.4811
 11
-55.0113
 21
57.7677
  0
LINE
  8
0
 10
-55.0113
 20
57.7677
 11
-55.2708
 21
58.0412
  0
LINE
  8
0
 10
-55.2708
 20
58.0412
 11
-55.5442
 21
58.3006
  0
LINE
  8
0
 10
-55.5442
 20
58.3006
 11
-55.8309
 21
58.5454
  0
LINE
  8
0
 10
-55.8309
 20
58.5454
 11
-56.1299
 21
58.7749
  0
LINE
  8
0
 10
-56.1299
 20
58.7749
 11
-56.4406
 21
58.9884
  0
LINE
  8
0
 10
-56.4406
 20
58.9884
 11
-56.762
 21
59.1854
  0
LINE
  8
0
 10
-56.762
 20
59.1854
 11
-57.0932
 21
59.3652
  0
LINE
  8
0
 10
-57.0932
 20
59.3652
 11
-57.4335
 21
59.5275
  0
LINE
  8
0
 10
-57.4335
 20
59.5275
 11
-57.7817
 21
59.6718
  0
LINE
  8
0
 10
-57.7817
 20
59.6718
 11
-58.137
 21
59.7976
  0
LINE
  8
0
 10
-58.137
 20
59.7976
 11
-58.4985
 21
59.9047
  0
LINE
  8
0
 10
-58.4985
 20
59.9047
 11
-58.865
 21
59.9927
  0
LINE
  8
0
 10
-58.865
 20
59.9927
 11
-59.2356
 21
60.0614
  0
LINE
  8
0
 10
-59.2356
 20
60.0614
 11
-59.6094
 21
60.1105
  0
LINE
  8
0
 10
-59.6094
 20
60.1105
 11
-59.9852
 21
60.1401
  0
LINE
  8
0
 10
-59.9852
 20
60.1401
 11
-60.362
 21
60.15
  0
LINE
  8
0
 10
-60.362
 20
60.15
 11
-60.7388
 21
60.1401
  0
LINE
  8
0
 10
-60.7388
 20
60.1401
 11
-61.1146
 21
60.1105
  0
LINE
  8
0
 10
-61.1146
 20
60.1105
 11
-61.4883
 21
60.0614
  0
LINE
  8
0
 10
-61.4883
 20
60.0614
 11
-61.8589
 21
59.9927
  0
LINE
  8
0
 10
-61.8589
 20
59.9927
 11
-62.2255
 21
59.9047
  0
LINE
  8
0
 10
-62.2255
 20
59.9047
 11
-62.5869
 21
59.7976
  0
LINE
  8
0
 10
-62.5869
 20
59.7976
 11
-62.9422
 21
59.6718
  0
LINE
  8
0
 10
-62.9422
 20
59.6718
 11
-63.2905
 21
59.5275
  0
LINE
  8
0
 10
-63.2905
 20
59.5275
 11
-63.6307
 21
59.3652
  0
LINE
  8
0
 10
-63.6307
 20
59.3652
 11
-63.962
 21
59.1854
  0
LINE
  8
0
 10
-63.962
 20
59.1854
 11
-64.2834
 21
58.9884
  0
LINE
  8
0
 10
-64.2834
 20
58.9884
 11
-64.594
 21
58.7749
  0
LINE
  8
0
 10
-64.594
 20
58.7749
 11
-64.8931
 21
58.5454
  0
LINE
  8
0
 10
-64.8931
 20
58.5454
 11
-65.1797
 21
58.3006
  0
LINE
  8
0
 10
-65.1797
 20
58.3006
 11
-65.4531
 21
58.0412
  0
LINE
  8
0
 10
-65.4531
 20
58.0412
 11
-65.7126
 21
57.7677
  0
LINE
  8
0
 10
-65.7126
 20
57.7677
 11
-65.9574
 21
57.4811
  0
LINE
  8
0
 10
-65.9574
 20
57.4811
 11
-66.1869
 21
57.1821
  0
LINE
  8
0
 10
-66.1869
 20
57.1821
 11
-66.4004
 21
56.8714
  0
LINE
  8
0
 10
-66.4004
 20
56.8714
 11
-66.5974
 21
56.55
  0
LINE
  8
0
 10
-66.5974
 20
56.55
 11
-66.7772
 21
56.2187
  0
LINE
  8
0
 10
-66.7772
 20
56.2187
 11
-66.9395
 21
55.8785
  0
LINE
  8
0
 10
-66.9395
 20
55.8785
 11
-67.0837
 21
55.5302
  0
LINE
  8
0
 10
-67.0837
 20
55.5302
 11
-67.2096
 21
55.1749
  0
LINE
  8
0
 10
-67.2096
 20
55.1749
 11
-67.3166
 21
54.8135
  0
LINE
  8
0
 10
-67.3166
 20
54.8135
 11
-67.4046
 21
54.447
  0
LINE
  8
0
 10
-67.4046
 20
54.447
 11
-67.4733
 21
54.0763
  0
LINE
  8
0
 10
-67.4733
 20
54.0763
 11
-67.5225
 21
53.7026
  0
LINE
  8
0
 10
-67.5225
 20
53.7026
 11
-67.5521
 21
53.3268
  0
LINE
  8
0
 10
-67.5521
 20
53.3268
 11
-67.562
 21
52.95
  0
LINE
  8
0
 10
-67.562
 20
52.95
 11
-67.5521
 21
52.5732
  0
LINE
  8
0
 10
-67.5521
 20
52.5732
 11
-67.5225
 21
52.1974
  0
LINE
  8
0
 10
-67.5225
 20
52.1974
 11
-67.4733
 21
51.8237
  0
LINE
  8
0
 10
-67.4733
 20
51.8237
 11
-67.4046
 21
51.453
  0
LINE
  8
0
 10
-67.4046
 20
51.453
 11
-67.3166
 21
51.0865
  0
LINE
  8
0
 10
-67.3166
 20
51.0865
 11
-67.2096
 21
50.7251
  0
LINE
  8
0
 10
-67.2096
 20
50.7251
 11
-67.0837
 21
50.3698
  0
LINE
  8
0
 10
-67.0837
 20
50.3698
 11
-46.7
 21
-1.0495
  0
LINE
  8
0
 10
-46.7
 20
-1.0495
 11
-46.7
 21
-50.9632
  0
LINE
  8
0
 10
-46.7
 20
-50.9632
 11
-46.8732
 21
-51.166
  0
LINE
  8
0
 10
-46.8732
 20
-51.166
 11
-54.4261
 21
-60.1855
  0
LINE
  8
0
 10
-54.4261
 20
-60.1855
 11
-64.1426
 21
-61.6293
  0
LINE
  8
0
 10
-64.1426
 20
-61.6293
 11
-64.6831
 21
-61.7294
  0
LINE
  8
0
 10
-64.6831
 20
-61.7294
 11
-65.2176
 21
-61.8578
  0
LINE
  8
0
 10
-65.2176
 20
-61.8578
 11
-65.7447
 21
-62.0139
  0
LINE
  8
0
 10
-65.7447
 20
-62.0139
 11
-66.2629
 21
-62.1974
  0
LINE
  8
0
 10
-66.2629
 20
-62.1974
 11
-66.7707
 21
-62.4078
  0
LINE
  8
0
 10
-66.7707
 20
-62.4078
 11
-67.2669
 21
-62.6444
  0
LINE
  8
0
 10
-67.2669
 20
-62.6444
 11
-67.75
 21
-62.9067
  0
LINE
  8
0
 10
-67.75
 20
-62.9067
 11
-68.2187
 21
-63.194
  0
LINE
  8
0
 10
-68.2187
 20
-63.194
 11
-68.6717
 21
-63.5053
  0
LINE
  8
0
 10
-68.6717
 20
-63.5053
 11
-69.1079
 21
-63.84
  0
LINE
  8
0
 10
-69.1079
 20
-63.84
 11
-69.5259
 21
-64.197
  0
LINE
  8
0
 10
-69.5259
 20
-64.197
 11
-69.9246
 21
-64.5754
  0
LINE
  8
0
 10
-69.9246
 20
-64.5754
 11
-70.303
 21
-64.9741
  0
LINE
  8
0
 10
-70.303
 20
-64.9741
 11
-70.66
 21
-65.3921
  0
LINE
  8
0
 10
-70.66
 20
-65.3921
 11
-70.9947
 21
-65.8282
  0
LINE
  8
0
 10
-70.9947
 20
-65.8282
 11
-71.306
 21
-66.2813
  0
LINE
  8
0
 10
-71.306
 20
-66.2813
 11
-71.5933
 21
-66.75
  0
LINE
  8
0
 10
-71.5933
 20
-66.75
 11
-71.8556
 21
-67.2331
  0
LINE
  8
0
 10
-71.8556
 20
-67.2331
 11
-72.0922
 21
-67.7293
  0
LINE
  8
0
 10
-72.0922
 20
-67.7293
 11
-72.3026
 21
-68.2371
  0
LINE
  8
0
 10
-72.3026
 20
-68.2371
 11
-72.4861
 21
-68.7553
  0
LINE
  8
0
 10
-72.4861
 20
-68.7553
 11
-72.6422
 21
-69.2824
  0
LINE
  8
0
 10
-72.6422
 20
-69.2824
 11
-72.7706
 21
-69.8169
  0
LINE
  8
0
 10
-72.7706
 20
-69.8169
 11
-72.8707
 21
-70.3574
  0
LINE
  8
0
 10
-72.8707
 20
-70.3574
 11
-72.9425
 21
-70.9025
  0
LINE
  8
0
 10
-72.9425
 20
-70.9025
 11
-72.9856
 21
-71.4505
  0
LINE
  8
0
 10
-72.9856
 20
-71.4505
 11
-73
 21
-72
  0
LINE
  8
0
 10
-73
 20
-72
 11
-72.9856
 21
-72.5495
  0
LINE
  8
0
 10
-72.9856
 20
-72.5495
 11
-72.9425
 21
-73.0975
  0
LINE
  8
0
 10
-72.9425
 20
-73.0975
 11
-72.8707
 21
-73.6426
  0
LINE
  8
0
 10
-72.8707
 20
-73.6426
 11
-72.7706
 21
-74.1831
  0
LINE
  8
0
 10
-72.7706
 20
-74.1831
 11
-72.6422
 21
-74.7176
  0
LINE
  8
0
 10
-72.6422
 20
-74.7176
 11
-72.4861
 21
-75.2447
  0
LINE
  8
0
 10
-72.4861
 20
-75.2447
 11
-72.3026
 21
-75.7629
  0
LINE
  8
0
 10
-72.3026
 20
-75.7629
 11
-72.0922
 21
-76.2707
  0
LINE
  8
0
 10
-72.0922
 20
-76.2707
 11
-71.8556
 21
-76.7669
  0
LINE
  8
0
 10
-71.8556
 20
-76.7669
 11
-71.5933
 21
-77.25
  0
LINE
  8
0
 10
-71.5933
 20
-77.25
 11
-71.306
 21
-77.7187
  0
LINE
  8
0
 10
-71.306
 20
-77.7187
 11
-70.9947
 21
-78.1717
  0
LINE
  8
0
 10
-70.9947
 20
-78.1717
 11
-70.66
 21
-78.6079
  0
LINE
  8
0
 10
-70.66
 20
-78.6079
 11
-70.303
 21
-79.0259
  0
LINE
  8
0
 10
-70.303
 20
-79.0259
 11
-69.9246
 21
-79.4246
  0
LINE
  8
0
 10
-69.9246
 20
-79.4246
 11
-69.5259
 21
-79.803
  0
LINE
  8
0
 10
-69.5259
 20
-79.803
 11
-69.1079
 21
-80.16
  0
LINE
  8
0
 10
-69.1079
 20
-80.16
 11
-68.6717
 21
-80.4947
  0
LINE
  8
0
 10
-68.6717
 20
-80.4947
 11
-68.2187
 21
-80.806
  0
LINE
  8
0
 10
-68.2187
 20
-80.806
 11
-67.75
 21
-81.0933
  0
LINE
  8
0
 10
-67.75
 20
-81.0933
 11
-67.2669
 21
-81.3556
  0
LINE
  8
0
 10
-67.2669
 20
-81.3556
 11
-66.7707
 21
-81.5922
  0
LINE
  8
0
 10
-66.7707
 20
-81.5922
 11
-66.2629
 21
-81.8026
  0
LINE
  8
0
 10
-66.2629
 20
-81.8026
 11
-65.7447
 21
-81.9861
  0
LINE
  8
0
 10
-65.7447
 20
-81.9861
 11
-65.2176
 21
-82.1422
  0
LINE
  8
0
 10
-65.2176
 20
-82.1422
 11
-64.6831
 21
-82.2706
  0
LINE
  8
0
 10
-64.6831
 20
-82.2706
 11
-64.1426
 21
-82.3707
  0
LINE
  8
0
 10
-64.1426
 20
-82.3707
 11
-63.5975
 21
-82.4425
  0
LINE
  8
0
 10
-63.5975
 20
-82.4425
 11
-63.0495
 21
-82.4856
  0
LINE
  8
0
 10
-63.0495
 20
-82.4856
 11
-62.5
 21
-82.5
  0
LINE
  8
0
 10
-62.5
 20
-82.5
 11
62.5
 21
-82.5
  0
LINE
  8
0
 10
62.5
 20
-82.5
 11
63.0495
 21
-82.4856
  0
LINE
  8
0
 10
-3.5
 20
9.75
 11
-3.5
 21
20.25
  0
LINE
  8
0
 10
-3.5
 20
20.25
 11
3.5
 21
20.25
  0
LINE
  8
0
 10
3.5
 20
20.25
 11
3.5
 21
9.75
  0
LINE
  8
0
 10
3.5
 20
9.75
 11
-3.5
 21
9.75
  0
LINE
  8
0
 10
-18.2146
 20
-4.09438
 11
-18.4286
 21
-4.07753
  0
LINE
  8
0
 10
-18.4286
 20
-4.07753
 11
-18.6414
 21
-4.04951
  0
LINE
  8
0
 10
-18.6414
 20
-4.04951
 11
-18.8524
 21
-4.01039
  0
LINE
  8
0
 10
-18.8524
 20
-4.01039
 11
-19.0612
 21
-3.96028
  0
LINE
  8
0
 10
-19.0612
 20
-3.96028
 11
-19.267
 21
-3.89932
  0
LINE
  8
0
 10
-19.267
 20
-3.89932
 11
-19.4693
 21
-3.82767
  0
LINE
  8
0
 10
-19.4693
 20
-3.82767
 11
-19.6676
 21
-3.74553
  0
LINE
  8
0
 10
-19.6676
 20
-3.74553
 11
-19.8614
 21
-3.65312
  0
LINE
  8
0
 10
-19.8614
 20
-3.65312
 11
-20.05
 21
-3.55069
  0
LINE
  8
0
 10
-20.05
 20
-3.55069
 11
-20.233
 21
-3.43854
  0
LINE
  8
0
 10
-20.233
 20
-3.43854
 11
-20.4099
 21
-3.31696
  0
LINE
  8
0
 10
-20.4099
 20
-3.31696
 11
-20.5802
 21
-3.18629
  0
LINE
  8
0
 10
-20.5802
 20
-3.18629
 11
-20.7434
 21
-3.04689
  0
LINE
  8
0
 10
-20.7434
 20
-3.04689
 11
-20.8991
 21
-2.89912
  0
LINE
  8
0
 10
-20.8991
 20
-2.89912
 11
-21.0469
 21
-2.74342
  0
LINE
  8
0
 10
-21.0469
 20
-2.74342
 11
-21.1863
 21
-2.5802
  0
LINE
  8
0
 10
-21.1863
 20
-2.5802
 11
-21.317
 21
-2.40991
  0
LINE
  8
0
 10
-21.317
 20
-2.40991
 11
-21.4385
 21
-2.23302
  0
LINE
  8
0
 10
-21.4385
 20
-2.23302
 11
-21.5507
 21
-2.04999
  0
LINE
  8
0
 10
-21.5507
 20
-2.04999
 11
-21.6531
 21
-1.86136
  0
LINE
  8
0
 10
-21.6531
 20
-1.86136
 11
-21.7455
 21
-1.66762
  0
LINE
  8
0
 10
-21.7455
 20
-1.66762
 11
-21.8277
 21
-1.4693
  0
LINE
  8
0
 10
-21.8277
 20
-1.4693
 11
-21.8993
 21
-1.26697
  0
LINE
  8
0
 10
-21.8993
 20
-1.26697
 11
-21.9603
 21
-1.06116
  0
LINE
  8
0
 10
-21.9603
 20
-1.06116
 11
-22.0104
 21
-0.852432
  0
LINE
  8
0
 10
-22.0104
 20
-0.852432
 11
-22.0495
 21
-0.641373
  0
LINE
  8
0
 10
-22.0495
 20
-0.641373
 11
-22.0775
 21
-0.428558
  0
LINE
  8
0
 10
-22.0775
 20
-0.428558
 11
-22.0944
 21
-0.214569
  0
LINE
  8
0
 10
-22.0944
 20
-0.214569
 11
-22.1
 21
0
  0
LINE
  8
0
 10
-22.1
 20
0
 11
-22.0944
 21
0.214569
  0
LINE
  8
0
 10
-22.0944
 20
0.214569
 11
-22.0775
 21
0.428558
  0
LINE
  8
0
 10
-22.0775
 20
0.428558
 11
-22.0495
 21
0.641373
  0
LINE
  8
0
 10
-22.0495
 20
0.641373
 11
-22.0104
 21
0.852432
  0
LINE
  8
0
 10
-22.0104
 20
0.852432
 11
-21.9603
 21
1.06116
  0
LINE
  8
0
 10
-21.9603
 20
1.06116
 11
-21.8993
 21
1.26697
  0
LINE
  8
0
 10
-21.8993
 20
1.26697
 11
-21.8277
 21
1.4693
  0
LINE
  8
0
 10
-21.8277
 20
1.4693
 11
-21.7455
 21
1.66762
  0
LINE
  8
0
 10
-21.7455
 20
1.66762
 11
-21.6531
 21
1.86136
  0
LINE
  8
0
 10
-21.6531
 20
1.86136
 11
-21.5507
 21
2.04999
  0
LINE
  8
0
 10
-21.5507
 20
2.04999
 11
-21.4385
 21
2.23302
  0
LINE
  8
0
 10
-21.4385
 20
2.23302
 11
-21.317
 21
2.40991
  0
LINE
  8
0
 10
-21.317
 20
2.40991
 11
-21.1863
 21
2.5802
  0
LINE
  8
0
 10
-21.1863
 20
2.5802
 11
-21.0469
 21
2.74342
  0
LINE
  8
0
 10
-21.0469
 20
2.74342
 11
-20.8991
 21
2.89912
  0
LINE
  8
0
 10
-20.8991
 20
2.89912
 11
-20.7434
 21
3.04689
  0
LINE
  8
0
 10
-20.7434
 20
3.04689
 11
-20.5802
 21
3.18629
  0
LINE
  8
0
 10
-20.5802
 20
3.18629
 11
-20.4099
 21
3.31696
  0
LINE
  8
0
 10
-20.4099
 20
3.31696
 11
-20.233
 21
3.43854
  0
LINE
  8
0
 10
-20.233
 20
3.43854
 11
-20.05
 21
3.55069
  0
LINE
  8
0
 10
-20.05
 20
3.55069
 11
-19.8614
 21
3.65312
  0
LINE
  8
0
 10
-19.8614
 20
3.65312
 11
-19.6676
 21
3.74553
  0
LINE
  8
0
 10
-19.6676
 20
3.74553
 11
-19.4693
 21
3.82767
  0
LINE
  8
0
 10
-19.4693
 20
3.82767
 11
-19.267
 21
3.89932
  0
LINE
  8
0
 10
-19.267
 20
3.89932
 11
-19.0612
 21
3.96028
  0
LINE
  8
0
 10
-19.0612
 20
3.96028
 11
-18.8524
 21
4.01039
  0
LINE
  8
0
 10
-18.8524
 20
4.01039
 11
-18.6414
 21
4.04951
  0
LINE
  8
0
 10
-18.6414
 20
4.04951
 11
-18.4286
 21
4.07753
  0
LINE
  8
0
 10
-18.4286
 20
4.07753
 11
-18.2146
 21
4.09438
  0
LINE
  8
0
 10
-18.2146
 20
4.09438
 11
-18
 21
4.09999
  0
LINE
  8
0
 10
-18
 20
4.09999
 11
-17.7854
 21
4.09438
  0
LINE
  8
0
 10
-17.7854
 20
4.09438
 11
-17.5714
 21
4.07753
  0
LINE
  8
0
 10
-17.5714
 20
4.07753
 11
-17.3586
 21
4.04951
  0
LINE
  8
0
 10
-17.3586
 20
4.04951
 11
-17.1476
 21
4.01039
  0
LINE
  8
0
 10
-17.1476
 20
4.01039
 11
-16.9388
 21
3.96028
  0
LINE
  8
0
 10
-16.9388
 20
3.96028
 11
-16.733
 21
3.89932
  0
LINE
  8
0
 10
-16.733
 20
3.89932
 11
-16.5307
 21
3.82767
  0
LINE
  8
0
 10
-16.5307
 20
3.82767
 11
-16.3324
 21
3.74553
  0
LINE
  8
0
 10
-16.3324
 20
3.74553
 11
-16.1386
 21
3.65312
  0
LINE
  8
0
 10
-16.1386
 20
3.65312
 11
-15.95
 21
3.55069
  0
LINE
  8
0
 10
-15.95
 20
3.55069
 11
-15.767
 21
3.43854
  0
LINE
  8
0
 10
-15.767
 20
3.43854
 11
-15.5901
 21
3.31696
  0
LINE
  8
0
 10
-15.5901
 20
3.31696
 11
-15.4198
 21
3.18629
  0
LINE
  8
0
 10
-15.4198
 20
3.18629
 11
-15.2566
 21
3.04689
  0
LINE
  8
0
 10
-15.2566
 20
3.04689
 11
-15.1009
 21
2.89912
  0
LINE
  8
0
 10
-15.1009
 20
2.89912
 11
-14.9531
 21
2.74342
  0
LINE
  8
0
 10
-14.9531
 20
2.74342
 11
-14.8137
 21
2.5802
  0
LINE
  8
0
 10
-14.8137
 20
2.5802
 11
-14.683
 21
2.40991
  0
LINE
  8
0
 10
-14.683
 20
2.40991
 11
-14.5614
 21
2.23302
  0
LINE
  8
0
 10
-14.5614
 20
2.23302
 11
-14.4493
 21
2.04999
  0
LINE
  8
0
 10
-14.4493
 20
2.04999
 11
-14.3469
 21
1.86136
  0
LINE
  8
0
 10
-14.3469
 20
1.86136
 11
-14.2545
 21
1.66762
  0
LINE
  8
0
 10
-14.2545
 20
1.66762
 11
-14.1723
 21
1.4693
  0
LINE
  8
0
 10
-14.1723
 20
1.4693
 11
-14.1007
 21
1.26697
  0
LINE
  8
0
 10
-14.1007
 20
1.26697
 11
-14.0397
 21
1.06116
  0
LINE
  8
0
 10
-14.0397
 20
1.06116
 11
-13.9896
 21
0.852432
  0
LINE
  8
0
 10
-13.9896
 20
0.852432
 11
-13.9505
 21
0.641373
  0
LINE
  8
0
 10
-13.9505
 20
0.641373
 11
-13.9225
 21
0.428558
  0
LINE
  8
0
 10
-13.9225
 20
0.428558
 11
-13.9056
 21
0.214569
  0
LINE
  8
0
 10
-13.9056
 20
0.214569
 11
-13.9
 21
0
  0
LINE
  8
0
 10
-13.9
 20
0
 11
-13.9056
 21
-0.214569
  0
LINE
  8
0
 10
-13.9056
 20
-0.214569
 11
-13.9225
 21
-0.428558
  0
LINE
  8
0
 10
-13.9225
 20
-0.428558
 11
-13.9505
 21
-0.641373
  0
LINE
  8
0
 10
-13.9505
 20
-0.641373
 11
-13.9896
 21
-0.852432
  0
LINE
  8
0
 10
-13.9896
 20
-0.852432
 11
-14.0397
 21
-1.06116
  0
LINE
  8
0
 10
-14.0397
 20
-1.06116
 11
-14.1007
 21
-1.26697
  0
LINE
  8
0
 10
-14.1007
 20
-1.26697
 11
-14.1723
 21
-1.4693
  0
LINE
  8
0
 10
-14.1723
 20
-1.4693
 11
-14.2545
 21
-1.66762
  0
LINE
  8
0
 10
-14.2545
 20
-1.66762
 11
-14.3469
 21
-1.86136
  0
LINE
  8
0
 10
-14.3469
 20
-1.86136
 11
-14.4493
 21
-2.04999
  0
LINE
  8
0
 10
-14.4493
 20
-2.04999
 11
-14.5614
 21
-2.23302
  0
LINE
  8
0
 10
-14.5614
 20
-2.23302
 11
-14.683
 21
-2.40991
  0
LINE
  8
0
 10
-14.683
 20
-2.40991
 11
-14.8137
 21
-2.5802
  0
LINE
  8
0
 10
-14.8137
 20
-2.5802
 11
-14.9531
 21
-2.74342
  0
LINE
  8
0
 10
-14.9531
 20
-2.74342
 11
-15.1009
 21
-2.89912
  0
LINE
  8
0
 10
-15.1009
 20
-2.89912
 11
-15.2566
 21
-3.04689
  0
LINE
  8
0
 10
-15.2566
 20
-3.04689
 11
-15.4198
 21
-3.18629
  0
LINE
  8
0
 10
-15.4198
 20
-3.18629
 11
-15.5901
 21
-3.31696
  0
LINE
  8
0
 10
-15.5901
 20
-3.31696
 11
-15.767
 21
-3.43854
  0
LINE
  8
0
 10
-15.767
 20
-3.43854
 11
-15.95
 21
-3.55069
  0
LINE
  8
0
 10
-15.95
 20
-3.55069
 11
-16.1386
 21
-3.65312
  0
LINE
  8
0
 10
-16.1386
 20
-3.65312
 11
-16.3324
 21
-3.74553
  0
LINE
  8
0
 10
-16.3324
 20
-3.74553
 11
-16.5307
 21
-3.82767
  0
LINE
  8
0
 10
-16.5307
 20
-3.82767
 11
-16.733
 21
-3.89932
  0
LINE
  8
0
 10
-16.733
 20
-3.89932
 11
-16.9388
 21
-3.96028
  0
LINE
  8
0
 10
-16.9388
 20
-3.96028
 11
-17.1476
 21
-4.01039
  0
LINE
  8
0
 10
-17.1476
 20
-4.01039
 11
-17.3586
 21
-4.04951
  0
LINE
  8
0
 10
-17.3586
 20
-4.04951
 11
-17.5714
 21
-4.07753
  0
LINE
  8
0
 10
-17.5714
 20
-4.07753
 11
-17.7854
 21
-4.09438
  0
LINE
  8
0
 10
-17.7854
 20
-4.09438
 11
-18
 21
-4.09999
  0
LINE
  8
0
 10
-18
 20
-4.09999
 11
-18.2146
 21
-4.09438
  0
LINE
  8
0
 10
17.7854
 20
-4.09438
 11
17.5714
 21
-4.07753
  0
LINE
  8
0
 10
17.5714
 20
-4.07753
 11
17.3586
 21
-4.04951
  0
LINE
  8
0
 10
17.3586
 20
-4.04951
 11
17.1476
 21
-4.01039
  0
LINE
  8
0
 10
17.1476
 20
-4.01039
 11
16.9388
 21
-3.96028
  0
LINE
  8
0
 10
16.9388
 20
-3.96028
 11
16.733
 21
-3.89932
  0
LINE
  8
0
 10
16.733
 20
-3.89932
 11
16.5307
 21
-3.82767
  0
LINE
  8
0
 10
16.5307
 20
-3.82767
 11
16.3324
 21
-3.74553
  0
LINE
  8
0
 10
16.3324
 20
-3.74553
 11
16.1386
 21
-3.65312
  0
LINE
  8
0
 10
16.1386
 20
-3.65312
 11
15.95
 21
-3.55069
  0
LINE
  8
0
 10
15.95
 20
-3.55069
 11
15.767
 21
-3.43854
  0
LINE
  8
0
 10
15.767
 20
-3.43854
 11
15.5901
 21
-3.31696
  0
LINE
  8
0
 10
15.5901
 20
-3.31696
 11
15.4198
 21
-3.18629
  0
LINE
  8
0
 10
15.4198
 20
-3.18629
 11
15.2566
 21
-3.04689
  0
LINE
  8
0
 10
15.2566
 20
-3.04689
 11
15.1009
 21
-2.89912
  0
LINE
  8
0
 10
15.1009
 20
-2.89912
 11
14.9531
 21
-2.74342
  0
LINE
  8
0
 10
14.9531
 20
-2.74342
 11
14.8137
 21
-2.5802
  0
LINE
  8
0
 10
14.8137
 20
-2.5802
 11
14.683
 21
-2.40991
  0
LINE
  8
0
 10
14.683
 20
-2.40991
 11
14.5614
 21
-2.23302
  0
LINE
  8
0
 10
14.5614
 20
-2.23302
 11
14.4493
 21
-2.04999
  0
LINE
  8
0
 10
14.4493
 20
-2.04999
 11
14.3469
 21
-1.86136
  0
LINE
  8
0
 10
14.3469
 20
-1.86136
 11
14.2545
 21
-1.66762
  0
LINE
  8
0
 10
14.2545
 20
-1.66762
 11
14.1723
 21
-1.4693
  0
LINE
  8
0
 10
14.1723
 20
-1.4693
 11
14.1007
 21
-1.26697
  0
LINE
  8
0
 10
14.1007
 20
-1.26697
 11
14.0397
 21
-1.06116
  0
LINE
  8
0
 10
14.0397
 20
-1.06116
 11
13.9896
 21
-0.852432
  0
LINE
  8
0
 10
13.9896
 20
-0.852432
 11
13.9505
 21
-0.641373
  0
LINE
  8
0
 10
13.9505
 20
-0.641373
 11
13.9225
 21
-0.428558
  0
LINE
  8
0
 10
13.9225
 20
-0.428558
 11
13.9056
 21
-0.214569
  0
LINE
  8
0
 10
13.9056
 20
-0.214569
 11
13.9
 21
0
  0
LINE
  8
0
 10
13.9
 20
0
 11
13.9056
 21
0.214569
  0
LINE
  8
0
 10
13.9056
 20
0.214569
 11
13.9225
 21
0.428558
  0
LINE
  8
0
 10
13.9225
 20
0.428558
 11
13.9505
 21
0.641373
  0
LINE
  8
0
 10
13.9505
 20
0.641373
 11
13.9896
 21
0.852432
  0
LINE
  8
0
 10
13.9896
 20
0.852432
 11
14.0397
 21
1.06116
  0
LINE
  8
0
 10
14.0397
 20
1.06116
 11
14.1007
 21
1.26697
  0
LINE
  8
0
 10
14.1007
 20
1.26697
 11
14.1723
 21
1.4693
  0
LINE
  8
0
 10
14.1723
 20
1.4693
 11
14.2545
 21
1.66762
  0
LINE
  8
0
 10
14.2545
 20
1.66762
 11
14.3469
 21
1.86136
  0
LINE
  8
0
 10
14.3469
 20
1.86136
 11
14.4493
 21
2.04999
  0
LINE
  8
0
 10
14.4493
 20
2.04999
 11
14.5614
 21
2.23302
  0
LINE
  8
0
 10
14.5614
 20
2.23302
 11
14.683
 21
2.40991
  0
LINE
  8
0
 10
14.683
 20
2.40991
 11
14.8137
 21
2.5802
  0
LINE
  8
0
 10
14.8137
 20
2.5802
 11
14.9531
 21
2.74342
  0
LINE
  8
0
 10
14.9531
 20
2.74342
 11
15.1009
 21
2.89912
  0
LINE
  8
0
 10
15.1009
 20
2.89912
 11
15.2566
 21
3.04689
  0
LINE
  8
0
 10
15.2566
 20
3.04689
 11
15.4198
 21
3.18629
  0
LINE
  8
0
 10
15.4198
 20
3.18629
 11
15.5901
 21
3.31696
  0
LINE
  8
0
 10
15.5901
 20
3.31696
 11
15.767
 21
3.43854
  0
LINE
  8
0
 10
15.767
 20
3.43854
 11
15.95
 21
3.55069
  0
LINE
  8
0
 10
15.95
 20
3.55069
 11
16.1386
 21
3.65312
  0
LINE
  8
0
 10
16.1386
 20
3.65312
 11
16.3324
 21
3.74553
  0
LINE
  8
0
 10
16.3324
 20
3.74553
 11
16.5307
 21
3.82767
  0
LINE
  8
0
 10
16.5307
 20
3.82767
 11
16.733
 21
3.89932
  0
LINE
  8
0
 10
16.733
 20
3.89932
 11
16.9388
 21
3.96028
  0
LINE
  8
0
 10
16.9388
 20
3.96028
 11
17.1476
 21
4.01039
  0
LINE
  8
0
 10
17.1476
 20
4.01039
 11
17.3586
 21
4.04951
  0
LINE
  8
0
 10
17.3586
 20
4.04951
 11
17.5714
 21
4.07753
  0
LINE
  8
0
 10
17.5714
 20
4.07753
 11
17.7854
 21
4.09438
  0
LINE
  8
0
 10
17.7854
 20
4.09438
 11
18
 21
4.09999
  0
LINE
  8
0
 10
18
 20
4.09999
 11
18.2146
 21
4.09438
  0
LINE
  8
0
 10
18.2146
 20
4.09438
 11
18.4286
 21
4.07753
  0
LINE
  8
0
 10
18.4286
 20
4.07753
 11
18.6414
 21
4.04951
  0
LINE
  8
0
 10
18.6414
 20
4.04951
 11
18.8524
 21
4.01039
  0
LINE
  8
0
 10
18.8524
 20
4.01039
 11
19.0612
 21
3.96028
  0
LINE
  8
0
 10
19.0612
 20
3.96028
 11
19.267
 21
3.89932
  0
LINE
  8
0
 10
19.267
 20
3.89932
 11
19.4693
 21
3.82767
  0
LINE
  8
0
 10
19.4693
 20
3.82767
 11
19.6676
 21
3.74553
  0
LINE
  8
0
 10
19.6676
 20
3.74553
 11
19.8614
 21
3.65312
  0
LINE
  8
0
 10
19.8614
 20
3.65312
 11
20.05
 21
3.55069
  0
LINE
  8
0
 10
20.05
 20
3.55069
 11
20.233
 21
3.43854
  0
LINE
  8
0
 10
20.233
 20
3.43854
 11
20.4099
 21
3.31696
  0
LINE
  8
0
 10
20.4099
 20
3.31696
 11
20.5802
 21
3.18629
  0
LINE
  8
0
 10
20.5802
 20
3.18629
 11
20.7434
 21
3.04689
  0
LINE
  8
0
 10
20.7434
 20
3.04689
 11
20.8991
 21
2.89912
  0
LINE
  8
0
 10
20.8991
 20
2.89912
 11
21.0469
 21
2.74342
  0
LINE
  8
0
 10
21.0469
 20
2.74342
 11
21.1863
 21
2.5802
  0
LINE
  8
0
 10
21.1863
 20
2.5802
 11
21.317
 21
2.40991
  0
LINE
  8
0
 10
21.317
 20
2.40991
 11
21.4385
 21
2.23302
  0
LINE
  8
0
 10
21.4385
 20
2.23302
 11
21.5507
 21
2.04999
  0
LINE
  8
0
 10
21.5507
 20
2.04999
 11
21.6531
 21
1.86136
  0
LINE
  8
0
 10
21.6531
 20
1.86136
 11
21.7455
 21
1.66762
  0
LINE
  8
0
 10
21.7455
 20
1.66762
 11
21.8277
 21
1.4693
  0
LINE
  8
0
 10
21.8277
 20
1.4693
 11
21.8993
 21
1.26697
  0
LINE
  8
0
 10
21.8993
 20
1.26697
 11
21.9603
 21
1.06116
  0
LINE
  8
0
 10
21.9603
 20
1.06116
 11
22.0104
 21
0.852432
  0
LINE
  8
0
 10
22.0104
 20
0.852432
 11
22.0495
 21
0.641373
  0
LINE
  8
0
 10
22.0495
 20
0.641373
 11
22.0775
 21
0.428558
  0
LINE
  8
0
 10
22.0775
 20
0.428558
 11
22.0944
 21
0.214569
  0
LINE
  8
0
 10
22.0944
 20
0.214569
 11
22.1
 21
0
  0
LINE
  8
0
 10
22.1
 20
0
 11
22.0944
 21
-0.214569
  0
LINE
  8
0
 10
22.0944
 20
-0.214569
 11
22.0775
 21
-0.428558
  0
LINE
  8
0
 10
22.0775
 20
-0.428558
 11
22.0495
 21
-0.641373
  0
LINE
  8
0
 10
22.0495
 20
-0.641373
 11
22.0104
 21
-0.852432
  0
LINE
  8
0
 10
22.0104
 20
-0.852432
 11
21.9603
 21
-1.06116
  0
LINE
  8
0
 10
21.9603
 20
-1.06116
 11
21.8993
 21
-1.26697
  0
LINE
  8
0
 10
21.8993
 20
-1.26697
 11
21.8277
 21
-1.4693
  0
LINE
  8
0
 10
21.8277
 20
-1.4693
 11
21.7455
 21
-1.66762
  0
LINE
  8
0
 10
21.7455
 20
-1.66762
 11
21.6531
 21
-1.86136
  0
LINE
  8
0
 10
21.6531
 20
-1.86136
 11
21.5507
 21
-2.04999
  0
LINE
  8
0
 10
21.5507
 20
-2.04999
 11
21.4385
 21
-2.23302
  0
LINE
  8
0
 10
21.4385
 20
-2.23302
 11
21.317
 21
-2.40991
  0
LINE
  8
0
 10
21.317
 20
-2.40991
 11
21.1863
 21
-2.5802
  0
LINE
  8
0
 10
21.1863
 20
-2.5802
 11
21.0469
 21
-2.74342
  0
LINE
  8
0
 10
21.0469
 20
-2.74342
 11
20.8991
 21
-2.89912
  0
LINE
  8
0
 10
20.8991
 20
-2.89912
 11
20.7434
 21
-3.04689
  0
LINE
  8
0
 10
20.7434
 20
-3.04689
 11
20.5802
 21
-3.18629
  0
LINE
  8
0
 10
20.5802
 20
-3.18629
 11
20.4099
 21
-3.31696
  0
LINE
  8
0
 10
20.4099
 20
-3.31696
 11
20.233
 21
-3.43854
  0
LINE
  8
0
 10
20.233
 20
-3.43854
 11
20.05
 21
-3.55069
  0
LINE
  8
0
 10
20.05
 20
-3.55069
 11
19.8614
 21
-3.65312
  0
LINE
  8
0
 10
19.8614
 20
-3.65312
 11
19.6676
 21
-3.74553
  0
LINE
  8
0
 10
19.6676
 20
-3.74553
 11
19.4693
 21
-3.82767
  0
LINE
  8
0
 10
19.4693
 20
-3.82767
 11
19.267
 21
-3.89932
  0
LINE
  8
0
 10
19.267
 20
-3.89932
 11
19.0612
 21
-3.96028
  0
LINE
  8
0
 10
19.0612
 20
-3.96028
 11
18.8524
 21
-4.01039
  0
LINE
  8
0
 10
18.8524
 20
-4.01039
 11
18.6414
 21
-4.04951
  0
LINE
  8
0
 10
18.6414
 20
-4.04951
 11
18.4286
 21
-4.07753
  0
LINE
  8
0
 10
18.4286
 20
-4.07753
 11
18.2146
 21
-4.09438
  0
LINE
  8
0
 10
18.2146
 20
-4.09438
 11
18
 21
-4.09999
  0
LINE
  8
0
 10
18
 20
-4.09999
 11
17.7854
 21
-4.09438
  0
LINE
  8
0
 10
-7.83372
 20
-23.4978
 11
-7.91724
 21
-23.4912
  0
LINE
  8
0
 10
-7.91724
 20
-23.4912
 11
-8.00029
 21
-23.4803
  0
LINE
  8
0
 10
-8.00029
 20
-23.4803
 11
-8.08266
 21
-23.465
  0
LINE
  8
0
 10
-8.08266
 20
-23.465
 11
-8.16411
 21
-23.4455
  0
LINE
  8
0
 10
-8.16411
 20
-23.4455
 11
-8.24442
 21
-23.4217
  0
LINE
  8
0
 10
-8.24442
 20
-23.4217
 11
-8.32338
 21
-23.3937
  0
LINE
  8
0
 10
-8.32338
 20
-23.3937
 11
-8.40077
 21
-23.3617
  0
LINE
  8
0
 10
-8.40077
 20
-23.3617
 11
-8.47638
 21
-23.3256
  0
LINE
  8
0
 10
-8.47638
 20
-23.3256
 11
-8.54999
 21
-23.2856
  0
LINE
  8
0
 10
-8.54999
 20
-23.2856
 11
-8.62141
 21
-23.2419
  0
LINE
  8
0
 10
-8.62141
 20
-23.2419
 11
-8.69044
 21
-23.1944
  0
LINE
  8
0
 10
-8.69044
 20
-23.1944
 11
-8.75691
 21
-23.1434
  0
LINE
  8
0
 10
-8.75691
 20
-23.1434
 11
-8.8206
 21
-23.089
  0
LINE
  8
0
 10
-8.8206
 20
-23.089
 11
-8.88136
 21
-23.0314
  0
LINE
  8
0
 10
-8.88136
 20
-23.0314
 11
-8.93903
 21
-22.9706
  0
LINE
  8
0
 10
-8.93903
 20
-22.9706
 11
-8.99342
 21
-22.9069
  0
LINE
  8
0
 10
-8.99342
 20
-22.9069
 11
-9.04442
 21
-22.8405
  0
LINE
  8
0
 10
-9.04442
 20
-22.8405
 11
-9.09186
 21
-22.7714
  0
LINE
  8
0
 10
-9.09186
 20
-22.7714
 11
-9.13564
 21
-22.7
  0
LINE
  8
0
 10
-9.13564
 20
-22.7
 11
-9.1756
 21
-22.6264
  0
LINE
  8
0
 10
-9.1756
 20
-22.6264
 11
-9.21167
 21
-22.5508
  0
LINE
  8
0
 10
-9.21167
 20
-22.5508
 11
-9.24373
 21
-22.4734
  0
LINE
  8
0
 10
-9.24373
 20
-22.4734
 11
-9.27168
 21
-22.3944
  0
LINE
  8
0
 10
-9.27168
 20
-22.3944
 11
-9.29547
 21
-22.3141
  0
LINE
  8
0
 10
-9.29547
 20
-22.3141
 11
-9.31503
 21
-22.2327
  0
LINE
  8
0
 10
-9.31503
 20
-22.2327
 11
-9.33029
 21
-22.1503
  0
LINE
  8
0
 10
-9.33029
 20
-22.1503
 11
-9.34123
 21
-22.0672
  0
LINE
  8
0
 10
-9.34123
 20
-22.0672
 11
-9.34779
 21
-21.9837
  0
LINE
  8
0
 10
-9.34779
 20
-21.9837
 11
-9.34999
 21
-21.9
  0
LINE
  8
0
 10
-9.34999
 20
-21.9
 11
-9.34779
 21
-21.8163
  0
LINE
  8
0
 10
-9.34779
 20
-21.8163
 11
-9.34123
 21
-21.7327
  0
LINE
  8
0
 10
-9.34123
 20
-21.7327
 11
-9.33029
 21
-21.6497
  0
LINE
  8
0
 10
-9.33029
 20
-21.6497
 11
-9.31503
 21
-21.5673
  0
LINE
  8
0
 10
-9.31503
 20
-21.5673
 11
-9.29547
 21
-21.4859
  0
LINE
  8
0
 10
-9.29547
 20
-21.4859
 11
-9.27168
 21
-21.4056
  0
LINE
  8
0
 10
-9.27168
 20
-21.4056
 11
-9.24373
 21
-21.3266
  0
LINE
  8
0
 10
-9.24373
 20
-21.3266
 11
-9.21167
 21
-21.2492
  0
LINE
  8
0
 10
-9.21167
 20
-21.2492
 11
-9.1756
 21
-21.1736
  0
LINE
  8
0
 10
-9.1756
 20
-21.1736
 11
-9.13564
 21
-21.1
  0
LINE
  8
0
 10
-9.13564
 20
-21.1
 11
-9.09186
 21
-21.0286
  0
LINE
  8
0
 10
-9.09186
 20
-21.0286
 11
-9.04442
 21
-20.9595
  0
LINE
  8
0
 10
-9.04442
 20
-20.9595
 11
-8.99342
 21
-20.8931
  0
LINE
  8
0
 10
-8.99342
 20
-20.8931
 11
-8.93903
 21
-20.8294
  0
LINE
  8
0
 10
-8.93903
 20
-20.8294
 11
-8.88136
 21
-20.7686
  0
LINE
  8
0
 10
-8.88136
 20
-20.7686
 11
-8.8206
 21
-20.711
  0
LINE
  8
0
 10
-8.8206
 20
-20.711
 11
-8.75691
 21
-20.6566
  0
LINE
  8
0
 10
-8.75691
 20
-20.6566
 11
-8.69044
 21
-20.6056
  0
LINE
  8
0
 10
-8.69044
 20
-20.6056
 11
-8.62141
 21
-20.5581
  0
LINE
  8
0
 10
-8.62141
 20
-20.5581
 11
-8.54999
 21
-20.5144
  0
LINE
  8
0
 10
-8.54999
 20
-20.5144
 11
-8.47638
 21
-20.4744
  0
LINE
  8
0
 10
-8.47638
 20
-20.4744
 11
-8.40077
 21
-20.4383
  0
LINE
  8
0
 10
-8.40077
 20
-20.4383
 11
-8.32338
 21
-20.4063
  0
LINE
  8
0
 10
-8.32338
 20
-20.4063
 11
-8.24442
 21
-20.3783
  0
LINE
  8
0
 10
-8.24442
 20
-20.3783
 11
-8.16411
 21
-20.3545
  0
LINE
  8
0
 10
-8.16411
 20
-20.3545
 11
-8.08266
 21
-20.335
  0
LINE
  8
0
 10
-8.08266
 20
-20.335
 11
-8.00029
 21
-20.3197
  0
LINE
  8
0
 10
-8.00029
 20
-20.3197
 11
-7.91724
 21
-20.3088
  0
LINE
  8
0
 10
-7.91724
 20
-20.3088
 11
-7.83372
 21
-20.3022
  0
LINE
  8
0
 10
-7.83372
 20
-20.3022
 11
-7.74998
 21
-20.3
  0
LINE
  8
0
 10
-7.74998
 20
-20.3
 11
-7.66626
 21
-20.3022
  0
LINE
  8
0
 10
-7.66626
 20
-20.3022
 11
-7.58275
 21
-20.3088
  0
LINE
  8
0
 10
-7.58275
 20
-20.3088
 11
-7.49969
 21
-20.3197
  0
LINE
  8
0
 10
-7.49969
 20
-20.3197
 11
-7.41733
 21
-20.335
  0
LINE
  8
0
 10
-7.41733
 20
-20.335
 11
-7.33588
 21
-20.3545
  0
LINE
  8
0
 10
-7.33588
 20
-20.3545
 11
-7.25557
 21
-20.3783
  0
LINE
  8
0
 10
-7.25557
 20
-20.3783
 11
-7.17661
 21
-20.4063
  0
LINE
  8
0
 10
-7.17661
 20
-20.4063
 11
-7.09921
 21
-20.4383
  0
LINE
  8
0
 10
-7.09921
 20
-20.4383
 11
-7.02361
 21
-20.4744
  0
LINE
  8
0
 10
-7.02361
 20
-20.4744
 11
-6.95
 21
-20.5144
  0
LINE
  8
0
 10
-6.95
 20
-20.5144
 11
-6.87857
 21
-20.5581
  0
LINE
  8
0
 10
-6.87857
 20
-20.5581
 11
-6.80954
 21
-20.6056
  0
LINE
  8
0
 10
-6.80954
 20
-20.6056
 11
-6.74307
 21
-20.6566
  0
LINE
  8
0
 10
-6.74307
 20
-20.6566
 11
-6.67938
 21
-20.711
  0
LINE
  8
0
 10
-6.67938
 20
-20.711
 11
-6.61862
 21
-20.7686
  0
LINE
  8
0
 10
-6.61862
 20
-20.7686
 11
-6.56096
 21
-20.8294
  0
LINE
  8
0
 10
-6.56096
 20
-20.8294
 11
-6.50656
 21
-20.8931
  0
LINE
  8
0
 10
-6.50656
 20
-20.8931
 11
-6.45557
 21
-20.9595
  0
LINE
  8
0
 10
-6.45557
 20
-20.9595
 11
-6.40813
 21
-21.0286
  0
LINE
  8
0
 10
-6.40813
 20
-21.0286
 11
-6.36435
 21
-21.1
  0
LINE
  8
0
 10
-6.36435
 20
-21.1
 11
-6.32439
 21
-21.1736
  0
LINE
  8
0
 10
-6.32439
 20
-21.1736
 11
-6.28831
 21
-21.2492
  0
LINE
  8
0
 10
-6.28831
 20
-21.2492
 11
-6.25626
 21
-21.3266
  0
LINE
  8
0
 10
-6.25626
 20
-21.3266
 11
-6.2283
 21
-21.4056
  0
LINE
  8
0
 10
-6.2283
 20
-21.4056
 11
-6.20451
 21
-21.4859
  0
LINE
  8
0
 10
-6.20451
 20
-21.4859
 11
-6.18495
 21
-21.5673
  0
LINE
  8
0
 10
-6.18495
 20
-21.5673
 11
-6.16969
 21
-21.6497
  0
LINE
  8
0
 10
-6.16969
 20
-21.6497
 11
-6.15875
 21
-21.7327
  0
LINE
  8
0
 10
-6.15875
 20
-21.7327
 11
-6.15219
 21
-21.8163
  0
LINE
  8
0
 10
-6.15219
 20
-21.8163
 11
-6.14999
 21
-21.9
  0
LINE
  8
0
 10
-6.14999
 20
-21.9
 11
-6.15219
 21
-21.9837
  0
LINE
  8
0
 10
-6.15219
 20
-21.9837
 11
-6.15875
 21
-22.0672
  0
LINE
  8
0
 10
-6.15875
 20
-22.0672
 11
-6.16969
 21
-22.1503
  0
LINE
  8
0
 10
-6.16969
 20
-22.1503
 11
-6.18495
 21
-22.2327
  0
LINE
  8
0
 10
-6.18495
 20
-22.2327
 11
-6.20451
 21
-22.3141
  0
LINE
  8
0
 10
-6.20451
 20
-22.3141
 11
-6.2283
 21
-22.3944
  0
LINE
  8
0
 10
-6.2283
 20
-22.3944
 11
-6.25626
 21
-22.4734
  0
LINE
  8
0
 10
-6.25626
 20
-22.4734
 11
-6.28831
 21
-22.5508
  0
LINE
  8
0
 10
-6.28831
 20
-22.5508
 11
-6.32439
 21
-22.6264
  0
LINE
  8
0
 10
-6.32439
 20
-22.6264
 11
-6.36435
 21
-22.7
  0
LINE
  8
0
 10
-6.36435
 20
-22.7
 11
-6.40813
 21
-22.7714
  0
LINE
  8
0
 10
-6.40813
 20
-22.7714
 11
-6.45557
 21
-22.8405
  0
LINE
  8
0
 10
-6.45557
 20
-22.8405
 11
-6.50656
 21
-22.9069
  0
LINE
  8
0
 10
-6.50656
 20
-22.9069
 11
-6.56096
 21
-22.9706
  0
LINE
  8
0
 10
-6.56096
 20
-22.9706
 11
-6.61862
 21
-23.0314
  0
LINE
  8
0
 10
-6.61862
 20
-23.0314
 11
-6.67938
 21
-23.089
  0
LINE
  8
0
 10
-6.67938
 20
-23.089
 11
-6.74307
 21
-23.1434
  0
LINE
  8
0
 10
-6.74307
 20
-23.1434
 11
-6.80954
 21
-23.1944
  0
LINE
  8
0
 10
-6.80954
 20
-23.1944
 11
-6.87857
 21
-23.2419
  0
LINE
  8
0
 10
-6.87857
 20
-23.2419
 11
-6.95
 21
-23.2856
  0
LINE
  8
0
 10
-6.95
 20
-23.2856
 11
-7.02361
 21
-23.3256
  0
LINE
  8
0
 10
-7.02361
 20
-23.3256
 11
-7.09921
 21
-23.3617
  0
LINE
  8
0
 10
-7.09921
 20
-23.3617
 11
-7.17661
 21
-23.3937
  0
LINE
  8
0
 10
-7.17661
 20
-23.3937
 11
-7.25557
 21
-23.4217
  0
LINE
  8
0
 10
-7.25557
 20
-23.4217
 11
-7.33588
 21
-23.4455
  0
LINE
  8
0
 10
-7.33588
 20
-23.4455
 11
-7.41733
 21
-23.465
  0
LINE
  8
0
 10
-7.41733
 20
-23.465
 11
-7.49969
 21
-23.4803
  0
LINE
  8
0
 10
-7.49969
 20
-23.4803
 11
-7.58275
 21
-23.4912
  0
LINE
  8
0
 10
-7.58275
 20
-23.4912
 11
-7.66626
 21
-23.4978
  0
LINE
  8
0
 10
-7.66626
 20
-23.4978
 11
-7.75
 21
-23.5
  0
LINE
  8
0
 10
-7.75
 20
-23.5
 11
-7.83372
 21
-23.4978
  0
LINE
  8
0
 10
7.66626
 20
-23.4978
 11
7.58275
 21
-23.4912
  0
LINE
  8
0
 10
7.58275
 20
-23.4912
 11
7.49969
 21
-23.4803
  0
LINE
  8
0
 10
7.49969
 20
-23.4803
 11
7.41733
 21
-23.465
  0
LINE
  8
0
 10
7.41733
 20
-23.465
 11
7.33588
 21
-23.4455
  0
LINE
  8
0
 10
7.33588
 20
-23.4455
 11
7.25557
 21
-23.4217
  0
LINE
  8
0
 10
7.25557
 20
-23.4217
 11
7.17661
 21
-23.3937
  0
LINE
  8
0
 10
7.17661
 20
-23.3937
 11
7.09921
 21
-23.3617
  0
LINE
  8
0
 10
7.09921
 20
-23.3617
 11
7.02361
 21
-23.3256
  0
LINE
  8
0
 10
7.02361
 20
-23.3256
 11
6.95
 21
-23.2856
  0
LINE
  8
0
 10
6.95
 20
-23.2856
 11
6.87857
 21
-23.2419
  0
LINE
  8
0
 10
6.87857
 20
-23.2419
 11
6.80954
 21
-23.1944
  0
LINE
  8
0
 10
6.80954
 20
-23.1944
 11
6.74307
 21
-23.1434
  0
LINE
  8
0
 10
6.74307
 20
-23.1434
 11
6.67938
 21
-23.089
  0
LINE
  8
0
 10
6.67938
 20
-23.089
 11
6.61862
 21
-23.0314
  0
LINE
  8
0
 10
6.61862
 20
-23.0314
 11
6.56096
 21
-22.9706
  0
LINE
  8
0
 10
6.56096
 20
-22.9706
 11
6.50656
 21
-22.9069
  0
LINE
  8
0
 10
6.50656
 20
-22.9069
 11
6.45557
 21
-22.8405
  0
LINE
  8
0
 10
6.45557
 20
-22.8405
 11
6.40813
 21
-22.7714
  0
LINE
  8
0
 10
6.40813
 20
-22.7714
 11
6.36435
 21
-22.7
  0
LINE
  8
0
 10
6.36435
 20
-22.7
 11
6.32439
 21
-22.6264
  0
LINE
  8
0
 10
6.32439
 20
-22.6264
 11
6.28831
 21
-22.5508
  0
LINE
  8
0
 10
6.28831
 20
-22.5508
 11
6.25626
 21
-22.4734
  0
LINE
  8
0
 10
6.25626
 20
-22.4734
 11
6.2283
 21
-22.3944
  0
LINE
  8
0
 10
6.2283
 20
-22.3944
 11
6.20451
 21
-22.3141
  0
LINE
  8
0
 10
6.20451
 20
-22.3141
 11
6.18495
 21
-22.2327
  0
LINE
  8
0
 10
6.18495
 20
-22.2327
 11
6.16969
 21
-22.1503
  0
LINE
  8
0
 10
6.16969
 20
-22.1503
 11
6.15875
 21
-22.0672
  0
LINE
  8
0
 10
6.15875
 20
-22.0672
 11
6.15219
 21
-21.9837
  0
LINE
  8
0
 10
6.15219
 20
-21.9837
 11
6.14999
 21
-21.9
  0
LINE
  8
0
 10
6.14999
 20
-21.9
 11
6.15219
 21
-21.8163
  0
LINE
  8
0
 10
6.15219
 20
-21.8163
 11
6.15875
 21
-21.7327
  0
LINE
  8
0
 10
6.15875
 20
-21.7327
 11
6.16969
 21
-21.6497
  0
LINE
  8
0
 10
6.16969
 20
-21.6497
 11
6.18495
 21
-21.5673
  0
LINE
  8
0
 10
6.18495
 20
-21.5673
 11
6.20451
 21
-21.4859
  0
LINE
  8
0
 10
6.20451
 20
-21.4859
 11
6.2283
 21
-21.4056
  0
LINE
  8
0
 10
6.2283
 20
-21.4056
 11
6.25626
 21
-21.3266
  0
LINE
  8
0
 10
6.25626
 20
-21.3266
 11
6.28831
 21
-21.2492
  0
LINE
  8
0
 10
6.28831
 20
-21.2492
 11
6.32439
 21
-21.1736
  0
LINE
  8
0
 10
6.32439
 20
-21.1736
 11
6.36435
 21
-21.1
  0
LINE
  8
0
 10
6.36435
 20
-21.1
 11
6.40813
 21
-21.0286
  0
LINE
  8
0
 10
6.40813
 20
-21.0286
 11
6.45557
 21
-20.9595
  0
LINE
  8
0
 10
6.45557
 20
-20.9595
 11
6.50656
 21
-20.8931
  0
LINE
  8
0
 10
6.50656
 20
-20.8931
 11
6.56096
 21
-20.8294
  0
LINE
  8
0
 10
6.56096
 20
-20.8294
 11
6.61862
 21
-20.7686
  0
LINE
  8
0
 10
6.61862
 20
-20.7686
 11
6.67938
 21
-20.711
  0
LINE
  8
0
 10
6.67938
 20
-20.711
 11
6.74307
 21
-20.6566
  0
LINE
  8
0
 10
6.74307
 20
-20.6566
 11
6.80954
 21
-20.6056
  0
LINE
  8
0
 10
6.80954
 20
-20.6056
 11
6.87857
 21
-20.5581
  0
LINE
  8
0
 10
6.87857
 20
-20.5581
 11
6.95
 21
-20.5144
  0
LINE
  8
0
 10
6.95
 20
-20.5144
 11
7.02361
 21
-20.4744
  0
LINE
  8
0
 10
7.02361
 20
-20.4744
 11
7.09921
 21
-20.4383
  0
LINE
  8
0
 10
7.09921
 20
-20.4383
 11
7.17661
 21
-20.4063
  0
LINE
  8
0
 10
7.17661
 20
-20.4063
 11
7.25557
 21
-20.3783
  0
LINE
  8
0
 10
7.25557
 20
-20.3783
 11
7.33588
 21
-20.3545
  0
LINE
  8
0
 10
7.33588
 20
-20.3545
 11
7.41733
 21
-20.335
  0
LINE
  8
0
 10
7.41733
 20
-20.335
 11
7.49969
 21
-20.3197
  0
LINE
  8
0
 10
7.49969
 20
-20.3197
 11
7.58275
 21
-20.3088
  0
LINE
  8
0
 10
7.58275
 20
-20.3088
 11
7.66626
 21
-20.3022
  0
LINE
  8
0
 10
7.66626
 20
-20.3022
 11
7.75
 21
-20.3
  0
LINE
  8
0
 10
7.75
 20
-20.3
 11
7.83372
 21
-20.3022
  0
LINE
  8
0
 10
7.83372
 20
-20.3022
 11
7.91724
 21
-20.3088
  0
LINE
  8
0
 10
7.91724
 20
-20.3088
 11
8.00029
 21
-20.3197
  0
LINE
  8
0
 10
8.00029
 20
-20.3197
 11
8.08266
 21
-20.335
  0
LINE
  8
0
 10
8.08266
 20
-20.335
 11
8.16411
 21
-20.3545
  0
LINE
  8
0
 10
8.16411
 20
-20.3545
 11
8.24442
 21
-20.3783
  0
LINE
  8
0
 10
8.24442
 20
-20.3783
 11
8.32338
 21
-20.4063
  0
LINE
  8
0
 10
8.32338
 20
-20.4063
 11
8.40077
 21
-20.4383
  0
LINE
  8
0
 10
8.40077
 20
-20.4383
 11
8.47638
 21
-20.4744
  0
LINE
  8
0
 10
8.47638
 20
-20.4744
 11
8.54999
 21
-20.5144
  0
LINE
  8
0
 10
8.54999
 20
-20.5144
 11
8.62141
 21
-20.5581
  0
LINE
  8
0
 10
8.62141
 20
-20.5581
 11
8.69044
 21
-20.6056
  0
LINE
  8
0
 10
8.69044
 20
-20.6056
 11
8.75691
 21
-20.6566
  0
LINE
  8
0
 10
8.75691
 20
-20.6566
 11
8.8206
 21
-20.711
  0
LINE
  8
0
 10
8.8206
 20
-20.711
 11
8.88136
 21
-20.7686
  0
LINE
  8
0
 10
8.88136
 20
-20.7686
 11
8.93903
 21
-20.8294
  0
LINE
  8
0
 10
8.93903
 20
-20.8294
 11
8.99342
 21
-20.8931
  0
LINE
  8
0
 10
8.99342
 20
-20.8931
 11
9.04442
 21
-20.9595
  0
LINE
  8
0
 10
9.04442
 20
-20.9595
 11
9.09186
 21
-21.0286
  0
LINE
  8
0
 10
9.09186
 20
-21.0286
 11
9.13564
 21
-21.1
  0
LINE
  8
0
 10
9.13564
 20
-21.1
 11
9.1756
 21
-21.1736
  0
LINE
  8
0
 10
9.1756
 20
-21.1736
 11
9.21167
 21
-21.2492
  0
LINE
  8
0
 10
9.21167
 20
-21.2492
 11
9.24373
 21
-21.3266
  0
LINE
  8
0
 10
9.24373
 20
-21.3266
 11
9.27168
 21
-21.4056
  0
LINE
  8
0
 10
9.27168
 20
-21.4056
 11
9.29547
 21
-21.4859
  0
LINE
  8
0
 10
9.29547
 20
-21.4859
 11
9.31503
 21
-21.5673
  0
LINE
  8
0
 10
9.31503
 20
-21.5673
 11
9.33029
 21
-21.6497
  0
LINE
  8
0
 10
9.33029
 20
-21.6497
 11
9.34123
 21
-21.7327
  0
LINE
  8
0
 10
9.34123
 20
-21.7327
 11
9.34779
 21
-21.8163
  0
LINE
  8
0
 10
9.34779
 20
-21.8163
 11
9.34999
 21
-21.9
  0
LINE
  8
0
 10
9.34999
 20
-21.9
 11
9.34779
 21
-21.9837
  0
LINE
  8
0
 10
9.34779
 20
-21.9837
 11
9.34123
 21
-22.0672
  0
LINE
  8
0
 10
9.34123
 20
-22.0672
 11
9.33029
 21
-22.1503
  0
LINE
  8
0
 10
9.33029
 20
-22.1503
 11
9.31503
 21
-22.2327
  0
LINE
  8
0
 10
9.31503
 20
-22.2327
 11
9.29547
 21
-22.3141
  0
LINE
  8
0
 10
9.29547
 20
-22.3141
 11
9.27168
 21
-22.3944
  0
LINE
  8
0
 10
9.27168
 20
-22.3944
 11
9.24373
 21
-22.4734
  0
LINE
  8
0
 10
9.24373
 20
-22.4734
 11
9.21167
 21
-22.5508
  0
LINE
  8
0
 10
9.21167
 20
-22.5508
 11
9.1756
 21
-22.6264
  0
LINE
  8
0
 10
9.1756
 20
-22.6264
 11
9.13564
 21
-22.7
  0
LINE
  8
0
 10
9.13564
 20
-22.7
 11
9.09186
 21
-22.7714
  0
LINE
  8
0
 10
9.09186
 20
-22.7714
 11
9.04442
 21
-22.8405
  0
LINE
  8
0
 10
9.04442
 20
-22.8405
 11
8.99342
 21
-22.9069
  0
LINE
  8
0
 10
8.99342
 20
-22.9069
 11
8.93903
 21
-22.9706
  0
LINE
  8
0
 10
8.93903
 20
-22.9706
 11
8.88136
 21
-23.0314
  0
LINE
  8
0
 10
8.88136
 20
-23.0314
 11
8.8206
 21
-23.089
  0
LINE
  8
0
 10
8.8206
 20
-23.089
 11
8.75691
 21
-23.1434
  0
LINE
  8
0
 10
8.75691
 20
-23.1434
 11
8.69044
 21
-23.1944
  0
LINE
  8
0
 10
8.69044
 20
-23.1944
 11
8.62141
 21
-23.2419
  0
LINE
  8
0
 10
8.62141
 20
-23.2419
 11
8.54999
 21
-23.2856
  0
LINE
  8
0
 10
8.54999
 20
-23.2856
 11
8.47638
 21
-23.3256
  0
LINE
  8
0
 10
8.47638
 20
-23.3256
 11
8.40077
 21
-23.3617
  0
LINE
  8
0
 10
8.40077
 20
-23.3617
 11
8.32338
 21
-23.3937
  0
LINE
  8
0
 10
8.32338
 20
-23.3937
 11
8.24442
 21
-23.4217
  0
LINE
  8
0
 10
8.24442
 20
-23.4217
 11
8.16411
 21
-23.4455
  0
LINE
  8
0
 10
8.16411
 20
-23.4455
 11
8.08266
 21
-23.465
  0
LINE
  8
0
 10
8.08266
 20
-23.465
 11
8.00029
 21
-23.4803
  0
LINE
  8
0
 10
8.00029
 20
-23.4803
 11
7.91724
 21
-23.4912
  0
LINE
  8
0
 10
7.91724
 20
-23.4912
 11
7.83372
 21
-23.4978
  0
LINE
  8
0
 10
7.83372
 20
-23.4978
 11
7.75
 21
-23.5
  0
LINE
  8
0
 10
7.75
 20
-23.5
 11
7.66626
 21
-23.4978
  0
LINE
  8
0
 10
-0.355881
 20
-49.1907
 11
-0.710785
 21
-49.1628
  0
LINE
  8
0
 10
-0.710785
 20
-49.1628
 11
-1.06375
 21
-49.1163
  0
LINE
  8
0
 10
-1.06375
 20
-49.1163
 11
-1.41379
 21
-49.0514
  0
LINE
  8
0
 10
-1.41379
 20
-49.0514
 11
-1.75996
 21
-48.9683
  0
LINE
  8
0
 10
-1.75996
 20
-48.9683
 11
-2.1013
 21
-48.8672
  0
LINE
  8
0
 10
-2.1013
 20
-48.8672
 11
-2.43689
 21
-48.7483
  0
LINE
  8
0
 10
-2.43689
 20
-48.7483
 11
-2.76581
 21
-48.6121
  0
LINE
  8
0
 10
-2.76581
 20
-48.6121
 11
-3.08713
 21
-48.4588
  0
LINE
  8
0
 10
-3.08713
 20
-48.4588
 11
-3.39999
 21
-48.289
  0
LINE
  8
0
 10
-3.39999
 20
-48.289
 11
-3.70354
 21
-48.103
  0
LINE
  8
0
 10
-3.70354
 20
-48.103
 11
-3.99693
 21
-47.9013
  0
LINE
  8
0
 10
-3.99693
 20
-47.9013
 11
-4.27937
 21
-47.6846
  0
LINE
  8
0
 10
-4.27937
 20
-47.6846
 11
-4.55008
 21
-47.4534
  0
LINE
  8
0
 10
-4.55008
 20
-47.4534
 11
-4.80832
 21
-47.2083
  0
LINE
  8
0
 10
-4.80832
 20
-47.2083
 11
-5.05338
 21
-46.9501
  0
LINE
  8
0
 10
-5.05338
 20
-46.9501
 11
-5.28459
 21
-46.6794
  0
LINE
  8
0
 10
-5.28459
 20
-46.6794
 11
-5.50131
 21
-46.3969
  0
LINE
  8
0
 10
-5.50131
 20
-46.3969
 11
-5.70296
 21
-46.1035
  0
LINE
  8
0
 10
-5.70296
 20
-46.1035
 11
-5.88896
 21
-45.8
  0
LINE
  8
0
 10
-5.88896
 20
-45.8
 11
-6.05884
 21
-45.4871
  0
LINE
  8
0
 10
-6.05884
 20
-45.4871
 11
-6.2121
 21
-45.1658
  0
LINE
  8
0
 10
-6.2121
 20
-45.1658
 11
-6.34834
 21
-44.8369
  0
LINE
  8
0
 10
-6.34834
 20
-44.8369
 11
-6.46718
 21
-44.5013
  0
LINE
  8
0
 10
-6.46718
 20
-44.5013
 11
-6.56828
 21
-44.16
  0
LINE
  8
0
 10
-6.56828
 20
-44.16
 11
-6.6514
 21
-43.8138
  0
LINE
  8
0
 10
-6.6514
 20
-43.8138
 11
-6.71628
 21
-43.4637
  0
LINE
  8
0
 10
-6.71628
 20
-43.4637
 11
-6.76274
 21
-43.1108
  0
LINE
  8
0
 10
-6.76274
 20
-43.1108
 11
-6.79068
 21
-42.7559
  0
LINE
  8
0
 10
-6.79068
 20
-42.7559
 11
-6.79999
 21
-42.4
  0
LINE
  8
0
 10
-6.79999
 20
-42.4
 11
-6.79068
 21
-42.0441
  0
LINE
  8
0
 10
-6.79068
 20
-42.0441
 11
-6.76274
 21
-41.6892
  0
LINE
  8
0
 10
-6.76274
 20
-41.6892
 11
-6.71628
 21
-41.3362
  0
LINE
  8
0
 10
-6.71628
 20
-41.3362
 11
-6.6514
 21
-40.9862
  0
LINE
  8
0
 10
-6.6514
 20
-40.9862
 11
-6.56828
 21
-40.64
  0
LINE
  8
0
 10
-6.56828
 20
-40.64
 11
-6.46718
 21
-40.2987
  0
LINE
  8
0
 10
-6.46718
 20
-40.2987
 11
-6.34834
 21
-39.9631
  0
LINE
  8
0
 10
-6.34834
 20
-39.9631
 11
-6.2121
 21
-39.6342
  0
LINE
  8
0
 10
-6.2121
 20
-39.6342
 11
-6.05884
 21
-39.3129
  0
LINE
  8
0
 10
-6.05884
 20
-39.3129
 11
-5.88896
 21
-39
  0
LINE
  8
0
 10
-5.88896
 20
-39
 11
-5.70296
 21
-38.6965
  0
LINE
  8
0
 10
-5.70296
 20
-38.6965
 11
-5.50131
 21
-38.4031
  0
LINE
  8
0
 10
-5.50131
 20
-38.4031
 11
-5.28459
 21
-38.1206
  0
LINE
  8
0
 10
-5.28459
 20
-38.1206
 11
-5.05338
 21
-37.8499
  0
LINE
  8
0
 10
-5.05338
 20
-37.8499
 11
-4.80832
 21
-37.5917
  0
LINE
  8
0
 10
-4.80832
 20
-37.5917
 11
-4.55008
 21
-37.3466
  0
LINE
  8
0
 10
-4.55008
 20
-37.3466
 11
-4.27937
 21
-37.1154
  0
LINE
  8
0
 10
-4.27937
 20
-37.1154
 11
-3.99693
 21
-36.8987
  0
LINE
  8
0
 10
-3.99693
 20
-36.8987
 11
-3.70354
 21
-36.697
  0
LINE
  8
0
 10
-3.70354
 20
-36.697
 11
-3.39999
 21
-36.511
  0
LINE
  8
0
 10
-3.39999
 20
-36.511
 11
-3.08713
 21
-36.3412
  0
LINE
  8
0
 10
-3.08713
 20
-36.3412
 11
-2.76581
 21
-36.1879
  0
LINE
  8
0
 10
-2.76581
 20
-36.1879
 11
-2.43689
 21
-36.0517
  0
LINE
  8
0
 10
-2.43689
 20
-36.0517
 11
-2.1013
 21
-35.9328
  0
LINE
  8
0
 10
-2.1013
 20
-35.9328
 11
-1.75996
 21
-35.8317
  0
LINE
  8
0
 10
-1.75996
 20
-35.8317
 11
-1.41379
 21
-35.7486
  0
LINE
  8
0
 10
-1.41379
 20
-35.7486
 11
-1.06375
 21
-35.6837
  0
LINE
  8
0
 10
-1.06375
 20
-35.6837
 11
-0.710785
 21
-35.6373
  0
LINE
  8
0
 10
-0.710785
 20
-35.6373
 11
-0.355881
 21
-35.6093
  0
LINE
  8
0
 10
-0.355881
 20
-35.6093
 11
0
 21
-35.6
  0
LINE
  8
0
 10
0
 20
-35.6
 11
0.355881
 21
-35.6093
  0
LINE
  8
0
 10
0.355881
 20
-35.6093
 11
0.710785
 21
-35.6373
  0
LINE
  8
0
 10
0.710785
 20
-35.6373
 11
1.06375
 21
-35.6837
  0
LINE
  8
0
 10
1.06375
 20
-35.6837
 11
1.41379
 21
-35.7486
  0
LINE
  8
0
 10
1.41379
 20
-35.7486
 11
1.75996
 21
-35.8317
  0
LINE
  8
0
 10
1.75996
 20
-35.8317
 11
2.1013
 21
-35.9328
  0
LINE
  8
0
 10
2.1013
 20
-35.9328
 11
2.43689
 21
-36.0517
  0
LINE
  8
0
 10
2.43689
 20
-36.0517
 11
2.76581
 21
-36.1879
  0
LINE
  8
0
 10
2.76581
 20
-36.1879
 11
3.08713
 21
-36.3412
  0
LINE
  8
0
 10
3.08713
 20
-36.3412
 11
3.39999
 21
-36.511
  0
LINE
  8
0
 10
3.39999
 20
-36.511
 11
3.70354
 21
-36.697
  0
LINE
  8
0
 10
3.70354
 20
-36.697
 11
3.99693
 21
-36.8987
  0
LINE
  8
0
 10
3.99693
 20
-36.8987
 11
4.27937
 21
-37.1154
  0
LINE
  8
0
 10
4.27937
 20
-37.1154
 11
4.55008
 21
-37.3466
  0
LINE
  8
0
 10
4.55008
 20
-37.3466
 11
4.80832
 21
-37.5917
  0
LINE
  8
0
 10
4.80832
 20
-37.5917
 11
5.05338
 21
-37.8499
  0
LINE
  8
0
 10
5.05338
 20
-37.8499
 11
5.28459
 21
-38.1206
  0
LINE
  8
0
 10
5.28459
 20
-38.1206
 11
5.50131
 21
-38.4031
  0
LINE
  8
0
 10
5.50131
 20
-38.4031
 11
5.70296
 21
-38.6965
  0
LINE
  8
0
 10
5.70296
 20
-38.6965
 11
5.88896
 21
-39
  0
LINE
  8
0
 10
5.88896
 20
-39
 11
6.05884
 21
-39.3129
  0
LINE
  8
0
 10
6.05884
 20
-39.3129
 11
6.2121
 21
-39.6342
  0
LINE
  8
0
 10
6.2121
 20
-39.6342
 11
6.34834
 21
-39.9631
  0
LINE
  8
0
 10
6.34834
 20
-39.9631
 11
6.46718
 21
-40.2987
  0
LINE
  8
0
 10
6.46718
 20
-40.2987
 11
6.56828
 21
-40.64
  0
LINE
  8
0
 10
6.56828
 20
-40.64
 11
6.6514
 21
-40.9862
  0
LINE
  8
0
 10
6.6514
 20
-40.9862
 11
6.71628
 21
-41.3362
  0
LINE
  8
0
 10
6.71628
 20
-41.3362
 11
6.76274
 21
-41.6892
  0
LINE
  8
0
 10
6.76274
 20
-41.6892
 11
6.79068
 21
-42.0441
  0
LINE
  8
0
 10
6.79068
 20
-42.0441
 11
6.79999
 21
-42.4
  0
LINE
  8
0
 10
6.79999
 20
-42.4
 11
6.79068
 21
-42.7559
  0
LINE
  8
0
 10
6.79068
 20
-42.7559
 11
6.76274
 21
-43.1108
  0
LINE
  8
0
 10
6.76274
 20
-43.1108
 11
6.71628
 21
-43.4637
  0
LINE
  8
0
 10
6.71628
 20
-43.4637
 11
6.6514
 21
-43.8138
  0
LINE
  8
0
 10
6.6514
 20
-43.8138
 11
6.56828
 21
-44.16
  0
LINE
  8
0
 10
6.56828
 20
-44.16
 11
6.46718
 21
-44.5013
  0
LINE
  8
0
 10
6.46718
 20
-44.5013
 11
6.34834
 21
-44.8369
  0
LINE
  8
0
 10
6.34834
 20
-44.8369
 11
6.2121
 21
-45.1658
  0
LINE
  8
0
 10
6.2121
 20
-45.1658
 11
6.05884
 21
-45.4871
  0
LINE
  8
0
 10
6.05884
 20
-45.4871
 11
5.88896
 21
-45.8
  0
LINE
  8
0
 10
5.88896
 20
-45.8
 11
5.70296
 21
-46.1035
  0
LINE
  8
0
 10
5.70296
 20
-46.1035
 11
5.50131
 21
-46.3969
  0
LINE
  8
0
 10
5.50131
 20
-46.3969
 11
5.28459
 21
-46.6794
  0
LINE
  8
0
 10
5.28459
 20
-46.6794
 11
5.05338
 21
-46.9501
  0
LINE
  8
0
 10
5.05338
 20
-46.9501
 11
4.80832
 21
-47.2083
  0
LINE
  8
0
 10
4.80832
 20
-47.2083
 11
4.55008
 21
-47.4534
  0
LINE
  8
0
 10
4.55008
 20
-47.4534
 11
4.27937
 21
-47.6846
  0
LINE
  8
0
 10
4.27937
 20
-47.6846
 11
3.99693
 21
-47.9013
  0
LINE
  8
0
 10
3.99693
 20
-47.9013
 11
3.70354
 21
-48.103
  0
LINE
  8
0
 10
3.70354
 20
-48.103
 11
3.39999
 21
-48.289
  0
LINE
  8
0
 10
3.39999
 20
-48.289
 11
3.08713
 21
-48.4588
  0
LINE
  8
0
 10
3.08713
 20
-48.4588
 11
2.76581
 21
-48.6121
  0
LINE
  8
0
 10
2.76581
 20
-48.6121
 11
2.43689
 21
-48.7483
  0
LINE
  8
0
 10
2.43689
 20
-48.7483
 11
2.1013
 21
-48.8672
  0
LINE
  8
0
 10
2.1013
 20
-48.8672
 11
1.75996
 21
-48.9683
  0
LINE
  8
0
 10
1.75996
 20
-48.9683
 11
1.41379
 21
-49.0514
  0
LINE
  8
0
 10
1.41379
 20
-49.0514
 11
1.06375
 21
-49.1163
  0
LINE
  8
0
 10
1.06375
 20
-49.1163
 11
0.710785
 21
-49.1628
  0
LINE
  8
0
 10
0.710785
 20
-49.1628
 11
0.355881
 21
-49.1907
  0
LINE
  8
0
 10
0.355881
 20
-49.1907
 11
0
 21
-49.2
  0
LINE
  8
0
 10
0
 20
-49.2
 11
-0.355881
 21
-49.1907
  0
LINE
  8
0
 10
7.66626
 20
-50.2478
 11
7.58275
 21
-50.2412
  0
LINE
  8
0
 10
7.58275
 20
-50.2412
 11
7.49969
 21
-50.2303
  0
LINE
  8
0
 10
7.49969
 20
-50.2303
 11
7.41733
 21
-50.215
  0
LINE
  8
0
 10
7.41733
 20
-50.215
 11
7.33588
 21
-50.1955
  0
LINE
  8
0
 10
7.33588
 20
-50.1955
 11
7.25557
 21
-50.1717
  0
LINE
  8
0
 10
7.25557
 20
-50.1717
 11
7.17661
 21
-50.1437
  0
LINE
  8
0
 10
7.17661
 20
-50.1437
 11
7.09921
 21
-50.1117
  0
LINE
  8
0
 10
7.09921
 20
-50.1117
 11
7.02361
 21
-50.0756
  0
LINE
  8
0
 10
7.02361
 20
-50.0756
 11
6.95
 21
-50.0356
  0
LINE
  8
0
 10
6.95
 20
-50.0356
 11
6.87857
 21
-49.9919
  0
LINE
  8
0
 10
6.87857
 20
-49.9919
 11
6.80954
 21
-49.9444
  0
LINE
  8
0
 10
6.80954
 20
-49.9444
 11
6.74307
 21
-49.8934
  0
LINE
  8
0
 10
6.74307
 20
-49.8934
 11
6.67938
 21
-49.839
  0
LINE
  8
0
 10
6.67938
 20
-49.839
 11
6.61862
 21
-49.7814
  0
LINE
  8
0
 10
6.61862
 20
-49.7814
 11
6.56096
 21
-49.7206
  0
LINE
  8
0
 10
6.56096
 20
-49.7206
 11
6.50656
 21
-49.6569
  0
LINE
  8
0
 10
6.50656
 20
-49.6569
 11
6.45557
 21
-49.5905
  0
LINE
  8
0
 10
6.45557
 20
-49.5905
 11
6.40813
 21
-49.5214
  0
LINE
  8
0
 10
6.40813
 20
-49.5214
 11
6.36435
 21
-49.45
  0
LINE
  8
0
 10
6.36435
 20
-49.45
 11
6.32439
 21
-49.3764
  0
LINE
  8
0
 10
6.32439
 20
-49.3764
 11
6.28831
 21
-49.3008
  0
LINE
  8
0
 10
6.28831
 20
-49.3008
 11
6.25626
 21
-49.2234
  0
LINE
  8
0
 10
6.25626
 20
-49.2234
 11
6.2283
 21
-49.1444
  0
LINE
  8
0
 10
6.2283
 20
-49.1444
 11
6.20451
 21
-49.0641
  0
LINE
  8
0
 10
6.20451
 20
-49.0641
 11
6.18495
 21
-48.9827
  0
LINE
  8
0
 10
6.18495
 20
-48.9827
 11
6.16969
 21
-48.9003
  0
LINE
  8
0
 10
6.16969
 20
-48.9003
 11
6.15875
 21
-48.8172
  0
LINE
  8
0
 10
6.15875
 20
-48.8172
 11
6.15219
 21
-48.7337
  0
LINE
  8
0
 10
6.15219
 20
-48.7337
 11
6.14999
 21
-48.65
  0
LINE
  8
0
 10
6.14999
 20
-48.65
 11
6.15219
 21
-48.5663
  0
LINE
  8
0
 10
6.15219
 20
-48.5663
 11
6.15875
 21
-48.4827
  0
LINE
  8
0
 10
6.15875
 20
-48.4827
 11
6.16969
 21
-48.3997
  0
LINE
  8
0
 10
6.16969
 20
-48.3997
 11
6.18495
 21
-48.3173
  0
LINE
  8
0
 10
6.18495
 20
-48.3173
 11
6.20451
 21
-48.2359
  0
LINE
  8
0
 10
6.20451
 20
-48.2359
 11
6.2283
 21
-48.1556
  0
LINE
  8
0
 10
6.2283
 20
-48.1556
 11
6.25626
 21
-48.0766
  0
LINE
  8
0
 10
6.25626
 20
-48.0766
 11
6.28831
 21
-47.9992
  0
LINE
  8
0
 10
6.28831
 20
-47.9992
 11
6.32439
 21
-47.9236
  0
LINE
  8
0
 10
6.32439
 20
-47.9236
 11
6.36435
 21
-47.85
  0
LINE
  8
0
 10
6.36435
 20
-47.85
 11
6.40813
 21
-47.7786
  0
LINE
  8
0
 10
6.40813
 20
-47.7786
 11
6.45557
 21
-47.7095
  0
LINE
  8
0
 10
6.45557
 20
-47.7095
 11
6.50656
 21
-47.6431
  0
LINE
  8
0
 10
6.50656
 20
-47.6431
 11
6.56096
 21
-47.5794
  0
LINE
  8
0
 10
6.56096
 20
-47.5794
 11
6.61862
 21
-47.5186
  0
LINE
  8
0
 10
6.61862
 20
-47.5186
 11
6.67938
 21
-47.461
  0
LINE
  8
0
 10
6.67938
 20
-47.461
 11
6.74307
 21
-47.4066
  0
LINE
  8
0
 10
6.74307
 20
-47.4066
 11
6.80954
 21
-47.3556
  0
LINE
  8
0
 10
6.80954
 20
-47.3556
 11
6.87857
 21
-47.3081
  0
LINE
  8
0
 10
6.87857
 20
-47.3081
 11
6.95
 21
-47.2644
  0
LINE
  8
0
 10
6.95
 20
-47.2644
 11
7.02361
 21
-47.2244
  0
LINE
  8
0
 10
7.02361
 20
-47.2244
 11
7.09921
 21
-47.1883
  0
LINE
  8
0
 10
7.09921
 20
-47.1883
 11
7.17661
 21
-47.1563
  0
LINE
  8
0
 10
7.17661
 20
-47.1563
 11
7.25557
 21
-47.1283
  0
LINE
  8
0
 10
7.25557
 20
-47.1283
 11
7.33588
 21
-47.1045
  0
LINE
  8
0
 10
7.33588
 20
-47.1045
 11
7.41733
 21
-47.085
  0
LINE
  8
0
 10
7.41733
 20
-47.085
 11
7.49969
 21
-47.0697
  0
LINE
  8
0
 10
7.49969
 20
-47.0697
 11
7.58275
 21
-47.0588
  0
LINE
  8
0
 10
7.58275
 20
-47.0588
 11
7.66626
 21
-47.0522
  0
LINE
  8
0
 10
7.66626
 20
-47.0522
 11
7.75
 21
-47.05
  0
LINE
  8
0
 10
7.75
 20
-47.05
 11
7.83372
 21
-47.0522
  0
LINE
  8
0
 10
7.83372
 20
-47.0522
 11
7.91724
 21
-47.0588
  0
LINE
  8
0
 10
7.91724
 20
-47.0588
 11
8.00029
 21
-47.0697
  0
LINE
  8
0
 10
8.00029
 20
-47.0697
 11
8.08266
 21
-47.085
  0
LINE
  8
0
 10
8.08266
 20
-47.085
 11
8.16411
 21
-47.1045
  0
LINE
  8
0
 10
8.16411
 20
-47.1045
 11
8.24442
 21
-47.1283
  0
LINE
  8
0
 10
8.24442
 20
-47.1283
 11
8.32338
 21
-47.1563
  0
LINE
  8
0
 10
8.32338
 20
-47.1563
 11
8.40077
 21
-47.1883
  0
LINE
  8
0
 10
8.40077
 20
-47.1883
 11
8.47638
 21
-47.2244
  0
LINE
  8
0
 10
8.47638
 20
-47.2244
 11
8.54999
 21
-47.2644
  0
LINE
  8
0
 10
8.54999
 20
-47.2644
 11
8.62141
 21
-47.3081
  0
LINE
  8
0
 10
8.62141
 20
-47.3081
 11
8.69044
 21
-47.3556
  0
LINE
  8
0
 10
8.69044
 20
-47.3556
 11
8.75691
 21
-47.4066
  0
LINE
  8
0
 10
8.75691
 20
-47.4066
 11
8.8206
 21
-47.461
  0
LINE
  8
0
 10
8.8206
 20
-47.461
 11
8.88136
 21
-47.5186
  0
LINE
  8
0
 10
8.88136
 20
-47.5186
 11
8.93903
 21
-47.5794
  0
LINE
  8
0
 10
8.93903
 20
-47.5794
 11
8.99342
 21
-47.6431
  0
LINE
  8
0
 10
8.99342
 20
-47.6431
 11
9.04442
 21
-47.7095
  0
LINE
  8
0
 10
9.04442
 20
-47.7095
 11
9.09186
 21
-47.7786
  0
LINE
  8
0
 10
9.09186
 20
-47.7786
 11
9.13564
 21
-47.85
  0
LINE
  8
0
 10
9.13564
 20
-47.85
 11
9.1756
 21
-47.9236
  0
LINE
  8
0
 10
9.1756
 20
-47.9236
 11
9.21167
 21
-47.9992
  0
LINE
  8
0
 10
9.21167
 20
-47.9992
 11
9.24373
 21
-48.0766
  0
LINE
  8
0
 10
9.24373
 20
-48.0766
 11
9.27168
 21
-48.1556
  0
LINE
  8
0
 10
9.27168
 20
-48.1556
 11
9.29547
 21
-48.2359
  0
LINE
  8
0
 10
9.29547
 20
-48.2359
 11
9.31503
 21
-48.3173
  0
LINE
  8
0
 10
9.31503
 20
-48.3173
 11
9.33029
 21
-48.3997
  0
LINE
  8
0
 10
9.33029
 20
-48.3997
 11
9.34123
 21
-48.4827
  0
LINE
  8
0
 10
9.34123
 20
-48.4827
 11
9.34779
 21
-48.5663
  0
LINE
  8
0
 10
9.34779
 20
-48.5663
 11
9.34999
 21
-48.65
  0
LINE
  8
0
 10
9.34999
 20
-48.65
 11
9.34779
 21
-48.7337
  0
LINE
  8
0
 10
9.34779
 20
-48.7337
 11
9.34123
 21
-48.8172
  0
LINE
  8
0
 10
9.34123
 20
-48.8172
 11
9.33029
 21
-48.9003
  0
LINE
  8
0
 10
9.33029
 20
-48.9003
 11
9.31503
 21
-48.9827
  0
LINE
  8
0
 10
9.31503
 20
-48.9827
 11
9.29547
 21
-49.0641
  0
LINE
  8
0
 10
9.29547
 20
-49.0641
 11
9.27168
 21
-49.1444
  0
LINE
  8
0
 10
9.27168
 20
-49.1444
 11
9.24373
 21
-49.2234
  0
LINE
  8
0
 10
9.24373
 20
-49.2234
 11
9.21167
 21
-49.3008
  0
LINE
  8
0
 10
9.21167
 20
-49.3008
 11
9.1756
 21
-49.3764
  0
LINE
  8
0
 10
9.1756
 20
-49.3764
 11
9.13564
 21
-49.45
  0
LINE
  8
0
 10
9.13564
 20
-49.45
 11
9.09186
 21
-49.5214
  0
LINE
  8
0
 10
9.09186
 20
-49.5214
 11
9.04442
 21
-49.5905
  0
LINE
  8
0
 10
9.04442
 20
-49.5905
 11
8.99342
 21
-49.6569
  0
LINE
  8
0
 10
8.99342
 20
-49.6569
 11
8.93903
 21
-49.7206
  0
LINE
  8
0
 10
8.93903
 20
-49.7206
 11
8.88136
 21
-49.7814
  0
LINE
  8
0
 10
8.88136
 20
-49.7814
 11
8.8206
 21
-49.839
  0
LINE
  8
0
 10
8.8206
 20
-49.839
 11
8.75691
 21
-49.8934
  0
LINE
  8
0
 10
8.75691
 20
-49.8934
 11
8.69044
 21
-49.9444
  0
LINE
  8
0
 10
8.69044
 20
-49.9444
 11
8.62141
 21
-49.9919
  0
LINE
  8
0
 10
8.62141
 20
-49.9919
 11
8.54999
 21
-50.0356
  0
LINE
  8
0
 10
8.54999
 20
-50.0356
 11
8.47638
 21
-50.0756
  0
LINE
  8
0
 10
8.47638
 20
-50.0756
 11
8.40077
 21
-50.1117
  0
LINE
  8
0
 10
8.40077
 20
-50.1117
 11
8.32338
 21
-50.1437
  0
LINE
  8
0
 10
8.32338
 20
-50.1437
 11
8.24442
 21
-50.1717
  0
LINE
  8
0
 10
8.24442
 20
-50.1717
 11
8.16411
 21
-50.1955
  0
LINE
  8
0
 10
8.16411
 20
-50.1955
 11
8.08266
 21
-50.215
  0
LINE
  8
0
 10
8.08266
 20
-50.215
 11
8.00029
 21
-50.2303
  0
LINE
  8
0
 10
8.00029
 20
-50.2303
 11
7.91724
 21
-50.2412
  0
LINE
  8
0
 10
7.91724
 20
-50.2412
 11
7.83372
 21
-50.2478
  0
LINE
  8
0
 10
7.83372
 20
-50.2478
 11
7.75
 21
-50.25
  0
LINE
  8
0
 10
7.75
 20
-50.25
 11
7.66626
 21
-50.2478
  0
LINE
  8
0
 10
-7.83372
 20
-50.2478
 11
-7.91724
 21
-50.2412
  0
LINE
  8
0
 10
-7.91724
 20
-50.2412
 11
-8.00029
 21
-50.2303
  0
LINE
  8
0
 10
-8.00029
 20
-50.2303
 11
-8.08266
 21
-50.215
  0
LINE
  8
0
 10
-8.08266
 20
-50.215
 11
-8.16411
 21
-50.1955
  0
LINE
  8
0
 10
-8.16411
 20
-50.1955
 11
-8.24442
 21
-50.1717
  0
LINE
  8
0
 10
-8.24442
 20
-50.1717
 11
-8.32338
 21
-50.1437
  0
LINE
  8
0
 10
-8.32338
 20
-50.1437
 11
-8.40077
 21
-50.1117
  0
LINE
  8
0
 10
-8.40077
 20
-50.1117
 11
-8.47638
 21
-50.0756
  0
LINE
  8
0
 10
-8.47638
 20
-50.0756
 11
-8.54999
 21
-50.0356
  0
LINE
  8
0
 10
-8.54999
 20
-50.0356
 11
-8.62141
 21
-49.9919
  0
LINE
  8
0
 10
-8.62141
 20
-49.9919
 11
-8.69044
 21
-49.9444
  0
LINE
  8
0
 10
-8.69044
 20
-49.9444
 11
-8.75691
 21
-49.8934
  0
LINE
  8
0
 10
-8.75691
 20
-49.8934
 11
-8.8206
 21
-49.839
  0
LINE
  8
0
 10
-8.8206
 20
-49.839
 11
-8.88136
 21
-49.7814
  0
LINE
  8
0
 10
-8.88136
 20
-49.7814
 11
-8.93903
 21
-49.7206
  0
LINE
  8
0
 10
-8.93903
 20
-49.7206
 11
-8.99342
 21
-49.6569
  0
LINE
  8
0
 10
-8.99342
 20
-49.6569
 11
-9.04442
 21
-49.5905
  0
LINE
  8
0
 10
-9.04442
 20
-49.5905
 11
-9.09186
 21
-49.5214
  0
LINE
  8
0
 10
-9.09186
 20
-49.5214
 11
-9.13564
 21
-49.45
  0
LINE
  8
0
 10
-9.13564
 20
-49.45
 11
-9.1756
 21
-49.3764
  0
LINE
  8
0
 10
-9.1756
 20
-49.3764
 11
-9.21167
 21
-49.3008
  0
LINE
  8
0
 10
-9.21167
 20
-49.3008
 11
-9.24373
 21
-49.2234
  0
LINE
  8
0
 10
-9.24373
 20
-49.2234
 11
-9.27168
 21
-49.1444
  0
LINE
  8
0
 10
-9.27168
 20
-49.1444
 11
-9.29547
 21
-49.0641
  0
LINE
  8
0
 10
-9.29547
 20
-49.0641
 11
-9.31503
 21
-48.9827
  0
LINE
  8
0
 10
-9.31503
 20
-48.9827
 11
-9.33029
 21
-48.9003
  0
LINE
  8
0
 10
-9.33029
 20
-48.9003
 11
-9.34123
 21
-48.8172
  0
LINE
  8
0
 10
-9.34123
 20
-48.8172
 11
-9.34779
 21
-48.7337
  0
LINE
  8
0
 10
-9.34779
 20
-48.7337
 11
-9.34999
 21
-48.65
  0
LINE
  8
0
 10
-9.34999
 20
-48.65
 11
-9.34779
 21
-48.5663
  0
LINE
  8
0
 10
-9.34779
 20
-48.5663
 11
-9.34123
 21
-48.4827
  0
LINE
  8
0
 10
-9.34123
 20
-48.4827
 11
-9.33029
 21
-48.3997
  0
LINE
  8
0
 10
-9.33029
 20
-48.3997
 11
-9.31503
 21
-48.3173
  0
LINE
  8
0
 10
-9.31503
 20
-48.3173
 11
-9.29547
 21
-48.2359
  0
LINE
  8
0
 10
-9.29547
 20
-48.2359
 11
-9.27168
 21
-48.1556
  0
LINE
  8
0
 10
-9.27168
 20
-48.1556
 11
-9.24373
 21
-48.0766
  0
LINE
  8
0
 10
-9.24373
 20
-48.0766
 11
-9.21167
 21
-47.9992
  0
LINE
  8
0
 10
-9.21167
 20
-47.9992
 11
-9.1756
 21
-47.9236
  0
LINE
  8
0
 10
-9.1756
 20
-47.9236
 11
-9.13564
 21
-47.85
  0
LINE
  8
0
 10
-9.13564
 20
-47.85
 11
-9.09186
 21
-47.7786
  0
LINE
  8
0
 10
-9.09186
 20
-47.7786
 11
-9.04442
 21
-47.7095
  0
LINE
  8
0
 10
-9.04442
 20
-47.7095
 11
-8.99342
 21
-47.6431
  0
LINE
  8
0
 10
-8.99342
 20
-47.6431
 11
-8.93903
 21
-47.5794
  0
LINE
  8
0
 10
-8.93903
 20
-47.5794
 11
-8.88136
 21
-47.5186
  0
LINE
  8
0
 10
-8.88136
 20
-47.5186
 11
-8.8206
 21
-47.461
  0
LINE
  8
0
 10
-8.8206
 20
-47.461
 11
-8.75691
 21
-47.4066
  0
LINE
  8
0
 10
-8.75691
 20
-47.4066
 11
-8.69044
 21
-47.3556
  0
LINE
  8
0
 10
-8.69044
 20
-47.3556
 11
-8.62141
 21
-47.3081
  0
LINE
  8
0
 10
-8.62141
 20
-47.3081
 11
-8.54999
 21
-47.2644
  0
LINE
  8
0
 10
-8.54999
 20
-47.2644
 11
-8.47638
 21
-47.2244
  0
LINE
  8
0
 10
-8.47638
 20
-47.2244
 11
-8.40077
 21
-47.1883
  0
LINE
  8
0
 10
-8.40077
 20
-47.1883
 11
-8.32338
 21
-47.1563
  0
LINE
  8
0
 10
-8.32338
 20
-47.1563
 11
-8.24442
 21
-47.1283
  0
LINE
  8
0
 10
-8.24442
 20
-47.1283
 11
-8.16411
 21
-47.1045
  0
LINE
  8
0
 10
-8.16411
 20
-47.1045
 11
-8.08266
 21
-47.085
  0
LINE
  8
0
 10
-8.08266
 20
-47.085
 11
-8.00029
 21
-47.0697
  0
LINE
  8
0
 10
-8.00029
 20
-47.0697
 11
-7.91724
 21
-47.0588
  0
LINE
  8
0
 10
-7.91724
 20
-47.0588
 11
-7.83372
 21
-47.0522
  0
LINE
  8
0
 10
-7.83372
 20
-47.0522
 11
-7.74998
 21
-47.05
  0
LINE
  8
0
 10
-7.74998
 20
-47.05
 11
-7.66626
 21
-47.0522
  0
LINE
  8
0
 10
-7.66626
 20
-47.0522
 11
-7.58275
 21
-47.0588
  0
LINE
  8
0
 10
-7.58275
 20
-47.0588
 11
-7.49969
 21
-47.0697
  0
LINE
  8
0
 10
-7.49969
 20
-47.0697
 11
-7.41733
 21
-47.085
  0
LINE
  8
0
 10
-7.41733
 20
-47.085
 11
-7.33588
 21
-47.1045
  0
LINE
  8
0
 10
-7.33588
 20
-47.1045
 11
-7.25557
 21
-47.1283
  0
LINE
  8
0
 10
-7.25557
 20
-47.1283
 11
-7.17661
 21
-47.1563
  0
LINE
  8
0
 10
-7.17661
 20
-47.1563
 11
-7.09921
 21
-47.1883
  0
LINE
  8
0
 10
-7.09921
 20
-47.1883
 11
-7.02361
 21
-47.2244
  0
LINE
  8
0
 10
-7.02361
 20
-47.2244
 11
-6.95
 21
-47.2644
  0
LINE
  8
0
 10
-6.95
 20
-47.2644
 11
-6.87857
 21
-47.3081
  0
LINE
  8
0
 10
-6.87857
 20
-47.3081
 11
-6.80954
 21
-47.3556
  0
LINE
  8
0
 10
-6.80954
 20
-47.3556
 11
-6.74307
 21
-47.4066
  0
LINE
  8
0
 10
-6.74307
 20
-47.4066
 11
-6.67938
 21
-47.461
  0
LINE
  8
0
 10
-6.67938
 20
-47.461
 11
-6.61862
 21
-47.5186
  0
LINE
  8
0
 10
-6.61862
 20
-47.5186
 11
-6.56096
 21
-47.5794
  0
LINE
  8
0
 10
-6.56096
 20
-47.5794
 11
-6.50656
 21
-47.6431
  0
LINE
  8
0
 10
-6.50656
 20
-47.6431
 11
-6.45557
 21
-47.7095
  0
LINE
  8
0
 10
-6.45557
 20
-47.7095
 11
-6.40813
 21
-47.7786
  0
LINE
  8
0
 10
-6.40813
 20
-47.7786
 11
-6.36435
 21
-47.85
  0
LINE
  8
0
 10
-6.36435
 20
-47.85
 11
-6.32439
 21
-47.9236
  0
LINE
  8
0
 10
-6.32439
 20
-47.9236
 11
-6.28831
 21
-47.9992
  0
LINE
  8
0
 10
-6.28831
 20
-47.9992
 11
-6.25626
 21
-48.0766
  0
LINE
  8
0
 10
-6.25626
 20
-48.0766
 11
-6.2283
 21
-48.1556
  0
LINE
  8
0
 10
-6.2283
 20
-48.1556
 11
-6.20451
 21
-48.2359
  0
LINE
  8
0
 10
-6.20451
 20
-48.2359
 11
-6.18495
 21
-48.3173
  0
LINE
  8
0
 10
-6.18495
 20
-48.3173
 11
-6.16969
 21
-48.3997
  0
LINE
  8
0
 10
-6.16969
 20
-48.3997
 11
-6.15875
 21
-48.4827
  0
LINE
  8
0
 10
-6.15875
 20
-48.4827
 11
-6.15219
 21
-48.5663
  0
LINE
  8
0
 10
-6.15219
 20
-48.5663
 11
-6.14999
 21
-48.65
  0
LINE
  8
0
 10
-6.14999
 20
-48.65
 11
-6.15219
 21
-48.7337
  0
LINE
  8
0
 10
-6.15219
 20
-48.7337
 11
-6.15875
 21
-48.8172
  0
LINE
  8
0
 10
-6.15875
 20
-48.8172
 11
-6.16969
 21
-48.9003
  0
LINE
  8
0
 10
-6.16969
 20
-48.9003
 11
-6.18495
 21
-48.9827
  0
LINE
  8
0
 10
-6.18495
 20
-48.9827
 11
-6.20451
 21
-49.0641
  0
LINE
  8
0
 10
-6.20451
 20
-49.0641
 11
-6.2283
 21
-49.1444
  0
LINE
  8
0
 10
-6.2283
 20
-49.1444
 11
-6.25626
 21
-49.2234
  0
LINE
  8
0
 10
-6.25626
 20
-49.2234
 11
-6.28831
 21
-49.3008
  0
LINE
  8
0
 10
-6.28831
 20
-49.3008
 11
-6.32439
 21
-49.3764
  0
LINE
  8
0
 10
-6.32439
 20
-49.3764
 11
-6.36435
 21
-49.45
  0
LINE
  8
0
 10
-6.36435
 20
-49.45
 11
-6.40813
 21
-49.5214
  0
LINE
  8
0
 10
-6.40813
 20
-49.5214
 11
-6.45557
 21
-49.5905
  0
LINE
  8
0
 10
-6.45557
 20
-49.5905
 11
-6.50656
 21
-49.6569
  0
LINE
  8
0
 10
-6.50656
 20
-49.6569
 11
-6.56096
 21
-49.7206
  0
LINE
  8
0
 10
-6.56096
 20
-49.7206
 11
-6.61862
 21
-49.7814
  0
LINE
  8
0
 10
-6.61862
 20
-49.7814
 11
-6.67938
 21
-49.839
  0
LINE
  8
0
 10
-6.67938
 20
-49.839
 11
-6.74307
 21
-49.8934
  0
LINE
  8
0
 10
-6.74307
 20
-49.8934
 11
-6.80954
 21
-49.9444
  0
LINE
  8
0
 10
-6.80954
 20
-49.9444
 11
-6.87857
 21
-49.9919
  0
LINE
  8
0
 10
-6.87857
 20
-49.9919
 11
-6.95
 21
-50.0356
  0
LINE
  8
0
 10
-6.95
 20
-50.0356
 11
-7.02361
 21
-50.0756
  0
LINE
  8
0
 10
-7.02361
 20
-50.0756
 11
-7.09921
 21
-50.1117
  0
LINE
  8
0
 10
-7.09921
 20
-50.1117
 11
-7.17661
 21
-50.1437
  0
LINE
  8
0
 10
-7.17661
 20
-50.1437
 11
-7.25557
 21
-50.1717
  0
LINE
  8
0
 10
-7.25557
 20
-50.1717
 11
-7.33588
 21
-50.1955
  0
LINE
  8
0
 10
-7.33588
 20
-50.1955
 11
-7.41733
 21
-50.215
  0
LINE
  8
0
 10
-7.41733
 20
-50.215
 11
-7.49969
 21
-50.2303
  0
LINE
  8
0
 10
-7.49969
 20
-50.2303
 11
-7.58275
 21
-50.2412
  0
LINE
  8
0
 10
-7.58275
 20
-50.2412
 11
-7.66626
 21
-50.2478
  0
LINE
  8
0
 10
-7.66626
 20
-50.2478
 11
-7.75
 21
-50.25
  0
LINE
  8
0
 10
-7.75
 20
-50.25
 11
-7.83372
 21
-50.2478
  0
LINE
  8
0
 10
-0.130829
 20
-68.3966
 11
-0.261307
 21
-68.3863
  0
LINE
  8
0
 10
-0.261307
 20
-68.3863
 11
-0.391083
 21
-68.3692
  0
LINE
  8
0
 10
-0.391083
 20
-68.3692
 11
-0.519775
 21
-68.3454
  0
LINE
  8
0
 10
-0.519775
 20
-68.3454
 11
-0.647034
 21
-68.3148
  0
LINE
  8
0
 10
-0.647034
 20
-68.3148
 11
-0.772537
 21
-68.2776
  0
LINE
  8
0
 10
-0.772537
 20
-68.2776
 11
-0.89592
 21
-68.2339
  0
LINE
  8
0
 10
-0.89592
 20
-68.2339
 11
-1.01683
 21
-68.1839
  0
LINE
  8
0
 10
-1.01683
 20
-68.1839
 11
-1.13496
 21
-68.1275
  0
LINE
  8
0
 10
-1.13496
 20
-68.1275
 11
-1.25
 21
-68.0651
  0
LINE
  8
0
 10
-1.25
 20
-68.0651
 11
-1.36159
 21
-67.9967
  0
LINE
  8
0
 10
-1.36159
 20
-67.9967
 11
-1.46945
 21
-67.9225
  0
LINE
  8
0
 10
-1.46945
 20
-67.9225
 11
-1.57329
 21
-67.8429
  0
LINE
  8
0
 10
-1.57329
 20
-67.8429
 11
-1.67282
 21
-67.7579
  0
LINE
  8
0
 10
-1.67282
 20
-67.7579
 11
-1.76776
 21
-67.6678
  0
LINE
  8
0
 10
-1.76776
 20
-67.6678
 11
-1.85785
 21
-67.5728
  0
LINE
  8
0
 10
-1.85785
 20
-67.5728
 11
-1.94286
 21
-67.4733
  0
LINE
  8
0
 10
-1.94286
 20
-67.4733
 11
-2.02254
 21
-67.3695
  0
LINE
  8
0
 10
-2.02254
 20
-67.3695
 11
-2.09666
 21
-67.2616
  0
LINE
  8
0
 10
-2.09666
 20
-67.2616
 11
-2.16505
 21
-67.15
  0
LINE
  8
0
 10
-2.16505
 20
-67.15
 11
-2.22751
 21
-67.035
  0
LINE
  8
0
 10
-2.22751
 20
-67.035
 11
-2.28386
 21
-66.9168
  0
LINE
  8
0
 10
-2.28386
 20
-66.9168
 11
-2.33394
 21
-66.7959
  0
LINE
  8
0
 10
-2.33394
 20
-66.7959
 11
-2.37764
 21
-66.6725
  0
LINE
  8
0
 10
-2.37764
 20
-66.6725
 11
-2.41481
 21
-66.547
  0
LINE
  8
0
 10
-2.41481
 20
-66.547
 11
-2.44536
 21
-66.4198
  0
LINE
  8
0
 10
-2.44536
 20
-66.4198
 11
-2.46921
 21
-66.2911
  0
LINE
  8
0
 10
-2.46921
 20
-66.2911
 11
-2.4863
 21
-66.1613
  0
LINE
  8
0
 10
-2.4863
 20
-66.1613
 11
-2.49657
 21
-66.0308
  0
LINE
  8
0
 10
-2.49657
 20
-66.0308
 11
-2.5
 21
-65.9
  0
LINE
  8
0
 10
-2.5
 20
-65.9
 11
-2.49657
 21
-65.7691
  0
LINE
  8
0
 10
-2.49657
 20
-65.7691
 11
-2.4863
 21
-65.6387
  0
LINE
  8
0
 10
-2.4863
 20
-65.6387
 11
-2.46921
 21
-65.5089
  0
LINE
  8
0
 10
-2.46921
 20
-65.5089
 11
-2.44536
 21
-65.3802
  0
LINE
  8
0
 10
-2.44536
 20
-65.3802
 11
-2.41481
 21
-65.2529
  0
LINE
  8
0
 10
-2.41481
 20
-65.2529
 11
-2.37764
 21
-65.1275
  0
LINE
  8
0
 10
-2.37764
 20
-65.1275
 11
-2.33394
 21
-65.0041
  0
LINE
  8
0
 10
-2.33394
 20
-65.0041
 11
-2.28386
 21
-64.8831
  0
LINE
  8
0
 10
-2.28386
 20
-64.8831
 11
-2.22751
 21
-64.765
  0
LINE
  8
0
 10
-2.22751
 20
-64.765
 11
-2.16505
 21
-64.65
  0
LINE
  8
0
 10
-2.16505
 20
-64.65
 11
-2.09666
 21
-64.5384
  0
LINE
  8
0
 10
-2.09666
 20
-64.5384
 11
-2.02254
 21
-64.4305
  0
LINE
  8
0
 10
-2.02254
 20
-64.4305
 11
-1.94286
 21
-64.3267
  0
LINE
  8
0
 10
-1.94286
 20
-64.3267
 11
-1.85785
 21
-64.2272
  0
LINE
  8
0
 10
-1.85785
 20
-64.2272
 11
-1.76776
 21
-64.1322
  0
LINE
  8
0
 10
-1.76776
 20
-64.1322
 11
-1.67282
 21
-64.0421
  0
LINE
  8
0
 10
-1.67282
 20
-64.0421
 11
-1.57329
 21
-63.9571
  0
LINE
  8
0
 10
-1.57329
 20
-63.9571
 11
-1.46945
 21
-63.8775
  0
LINE
  8
0
 10
-1.46945
 20
-63.8775
 11
-1.36159
 21
-63.8033
  0
LINE
  8
0
 10
-1.36159
 20
-63.8033
 11
-1.24998
 21
-63.7349
  0
LINE
  8
0
 10
-1.24998
 20
-63.7349
 11
-1.13496
 21
-63.6725
  0
LINE
  8
0
 10
-1.13496
 20
-63.6725
 11
-1.01683
 21
-63.6161
  0
LINE
  8
0
 10
-1.01683
 20
-63.6161
 11
-0.89592
 21
-63.566
  0
LINE
  8
0
 10
-0.89592
 20
-63.566
 11
-0.772537
 21
-63.5224
  0
LINE
  8
0
 10
-0.772537
 20
-63.5224
 11
-0.647034
 21
-63.4852
  0
LINE
  8
0
 10
-0.647034
 20
-63.4852
 11
-0.519775
 21
-63.4546
  0
LINE
  8
0
 10
-0.519775
 20
-63.4546
 11
-0.391083
 21
-63.4308
  0
LINE
  8
0
 10
-0.391083
 20
-63.4308
 11
-0.261307
 21
-63.4137
  0
LINE
  8
0
 10
-0.261307
 20
-63.4137
 11
-0.130829
 21
-63.4034
  0
LINE
  8
0
 10
-0.130829
 20
-63.4034
 11
0
 21
-63.4
  0
LINE
  8
0
 10
0
 20
-63.4
 11
0.130829
 21
-63.4034
  0
LINE
  8
0
 10
0.130829
 20
-63.4034
 11
0.261307
 21
-63.4137
  0
LINE
  8
0
 10
0.261307
 20
-63.4137
 11
0.391083
 21
-63.4308
  0
LINE
  8
0
 10
0.391083
 20
-63.4308
 11
0.519775
 21
-63.4546
  0
LINE
  8
0
 10
0.519775
 20
-63.4546
 11
0.647034
 21
-63.4852
  0
LINE
  8
0
 10
0.647034
 20
-63.4852
 11
0.772537
 21
-63.5224
  0
LINE
  8
0
 10
0.772537
 20
-63.5224
 11
0.89592
 21
-63.566
  0
LINE
  8
0
 10
0.89592
 20
-63.566
 11
1.01683
 21
-63.6161
  0
LINE
  8
0
 10
1.01683
 20
-63.6161
 11
1.13496
 21
-63.6725
  0
LINE
  8
0
 10
1.13496
 20
-63.6725
 11
1.25
 21
-63.7349
  0
LINE
  8
0
 10
1.25
 20
-63.7349
 11
1.36159
 21
-63.8033
  0
LINE
  8
0
 10
1.36159
 20
-63.8033
 11
1.46945
 21
-63.8775
  0
LINE
  8
0
 10
1.46945
 20
-63.8775
 11
1.57329
 21
-63.9571
  0
LINE
  8
0
 10
1.57329
 20
-63.9571
 11
1.67282
 21
-64.0421
  0
LINE
  8
0
 10
1.67282
 20
-64.0421
 11
1.76776
 21
-64.1322
  0
LINE
  8
0
 10
1.76776
 20
-64.1322
 11
1.85785
 21
-64.2272
  0
LINE
  8
0
 10
1.85785
 20
-64.2272
 11
1.94286
 21
-64.3267
  0
LINE
  8
0
 10
1.94286
 20
-64.3267
 11
2.02254
 21
-64.4305
  0
LINE
  8
0
 10
2.02254
 20
-64.4305
 11
2.09666
 21
-64.5384
  0
LINE
  8
0
 10
2.09666
 20
-64.5384
 11
2.16505
 21
-64.65
  0
LINE
  8
0
 10
2.16505
 20
-64.65
 11
2.22751
 21
-64.765
  0
LINE
  8
0
 10
2.22751
 20
-64.765
 11
2.28386
 21
-64.8831
  0
LINE
  8
0
 10
2.28386
 20
-64.8831
 11
2.33394
 21
-65.0041
  0
LINE
  8
0
 10
2.33394
 20
-65.0041
 11
2.37764
 21
-65.1275
  0
LINE
  8
0
 10
2.37764
 20
-65.1275
 11
2.41481
 21
-65.2529
  0
LINE
  8
0
 10
2.41481
 20
-65.2529
 11
2.44536
 21
-65.3802
  0
LINE
  8
0
 10
2.44536
 20
-65.3802
 11
2.46921
 21
-65.5089
  0
LINE
  8
0
 10
2.46921
 20
-65.5089
 11
2.4863
 21
-65.6387
  0
LINE
  8
0
 10
2.4863
 20
-65.6387
 11
2.49657
 21
-65.7691
  0
LINE
  8
0
 10
2.49657
 20
-65.7691
 11
2.5
 21
-65.9
  0
LINE
  8
0
 10
2.5
 20
-65.9
 11
2.49657
 21
-66.0308
  0
LINE
  8
0
 10
2.49657
 20
-66.0308
 11
2.4863
 21
-66.1613
  0
LINE
  8
0
 10
2.4863
 20
-66.1613
 11
2.46921
 21
-66.2911
  0
LINE
  8
0
 10
2.46921
 20
-66.2911
 11
2.44536
 21
-66.4198
  0
LINE
  8
0
 10
2.44536
 20
-66.4198
 11
2.41481
 21
-66.547
  0
LINE
  8
0
 10
2.41481
 20
-66.547
 11
2.37764
 21
-66.6725
  0
LINE
  8
0
 10
2.37764
 20
-66.6725
 11
2.33394
 21
-66.7959
  0
LINE
  8
0
 10
2.33394
 20
-66.7959
 11
2.28386
 21
-66.9168
  0
LINE
  8
0
 10
2.28386
 20
-66.9168
 11
2.22751
 21
-67.035
  0
LINE
  8
0
 10
2.22751
 20
-67.035
 11
2.16505
 21
-67.15
  0
LINE
  8
0
 10
2.16505
 20
-67.15
 11
2.09666
 21
-67.2616
  0
LINE
  8
0
 10
2.09666
 20
-67.2616
 11
2.02254
 21
-67.3695
  0
LINE
  8
0
 10
2.02254
 20
-67.3695
 11
1.94286
 21
-67.4733
  0
LINE
  8
0
 10
1.94286
 20
-67.4733
 11
1.85785
 21
-67.5728
  0
LINE
  8
0
 10
1.85785
 20
-67.5728
 11
1.76776
 21
-67.6678
  0
LINE
  8
0
 10
1.76776
 20
-67.6678
 11
1.67282
 21
-67.7579
  0
LINE
  8
0
 10
1.67282
 20
-67.7579
 11
1.57329
 21
-67.8429
  0
LINE
  8
0
 10
1.57329
 20
-67.8429
 11
1.46945
 21
-67.9225
  0
LINE
  8
0
 10
1.46945
 20
-67.9225
 11
1.36159
 21
-67.9967
  0
LINE
  8
0
 10
1.36159
 20
-67.9967
 11
1.25
 21
-68.0651
  0
LINE
  8
0
 10
1.25
 20
-68.0651
 11
1.13496
 21
-68.1275
  0
LINE
  8
0
 10
1.13496
 20
-68.1275
 11
1.01683
 21
-68.1839
  0
LINE
  8
0
 10
1.01683
 20
-68.1839
 11
0.89592
 21
-68.2339
  0
LINE
  8
0
 10
0.89592
 20
-68.2339
 11
0.772537
 21
-68.2776
  0
LINE
  8
0
 10
0.772537
 20
-68.2776
 11
0.647034
 21
-68.3148
  0
LINE
  8
0
 10
0.647034
 20
-68.3148
 11
0.519775
 21
-68.3454
  0
LINE
  8
0
 10
0.519775
 20
-68.3454
 11
0.391083
 21
-68.3692
  0
LINE
  8
0
 10
0.391083
 20
-68.3692
 11
0.261307
 21
-68.3863
  0
LINE
  8
0
 10
0.261307
 20
-68.3863
 11
0.130829
 21
-68.3966
  0
LINE
  8
0
 10
0.130829
 20
-68.3966
 11
0
 21
-68.4
  0
LINE
  8
0
 10
0
 20
-68.4
 11
-0.130829
 21
-68.3966
  0
LINE
  8
0
 10
-62.7146
 20
-76.0944
 11
-62.9286
 21
-76.0775
  0
LINE
  8
0
 10
-62.9286
 20
-76.0775
 11
-63.1414
 21
-76.0495
  0
LINE
  8
0
 10
-63.1414
 20
-76.0495
 11
-63.3524
 21
-76.0104
  0
LINE
  8
0
 10
-63.3524
 20
-76.0104
 11
-63.5612
 21
-75.9603
  0
LINE
  8
0
 10
-63.5612
 20
-75.9603
 11
-63.767
 21
-75.8993
  0
LINE
  8
0
 10
-63.767
 20
-75.8993
 11
-63.9693
 21
-75.8277
  0
LINE
  8
0
 10
-63.9693
 20
-75.8277
 11
-64.1676
 21
-75.7455
  0
LINE
  8
0
 10
-64.1676
 20
-75.7455
 11
-64.3614
 21
-75.6531
  0
LINE
  8
0
 10
-64.3614
 20
-75.6531
 11
-64.55
 21
-75.5507
  0
LINE
  8
0
 10
-64.55
 20
-75.5507
 11
-64.733
 21
-75.4386
  0
LINE
  8
0
 10
-64.733
 20
-75.4386
 11
-64.9099
 21
-75.317
  0
LINE
  8
0
 10
-64.9099
 20
-75.317
 11
-65.0802
 21
-75.1863
  0
LINE
  8
0
 10
-65.0802
 20
-75.1863
 11
-65.2434
 21
-75.0469
  0
LINE
  8
0
 10
-65.2434
 20
-75.0469
 11
-65.3991
 21
-74.8991
  0
LINE
  8
0
 10
-65.3991
 20
-74.8991
 11
-65.5469
 21
-74.7434
  0
LINE
  8
0
 10
-65.5469
 20
-74.7434
 11
-65.6863
 21
-74.5802
  0
LINE
  8
0
 10
-65.6863
 20
-74.5802
 11
-65.817
 21
-74.4099
  0
LINE
  8
0
 10
-65.817
 20
-74.4099
 11
-65.9386
 21
-74.233
  0
LINE
  8
0
 10
-65.9386
 20
-74.233
 11
-66.0507
 21
-74.05
  0
LINE
  8
0
 10
-66.0507
 20
-74.05
 11
-66.1531
 21
-73.8614
  0
LINE
  8
0
 10
-66.1531
 20
-73.8614
 11
-66.2455
 21
-73.6676
  0
LINE
  8
0
 10
-66.2455
 20
-73.6676
 11
-66.3277
 21
-73.4693
  0
LINE
  8
0
 10
-66.3277
 20
-73.4693
 11
-66.3993
 21
-73.267
  0
LINE
  8
0
 10
-66.3993
 20
-73.267
 11
-66.4603
 21
-73.0612
  0
LINE
  8
0
 10
-66.4603
 20
-73.0612
 11
-66.5104
 21
-72.8524
  0
LINE
  8
0
 10
-66.5104
 20
-72.8524
 11
-66.5495
 21
-72.6414
  0
LINE
  8
0
 10
-66.5495
 20
-72.6414
 11
-66.5775
 21
-72.4286
  0
LINE
  8
0
 10
-66.5775
 20
-72.4286
 11
-66.5944
 21
-72.2146
  0
LINE
  8
0
 10
-66.5944
 20
-72.2146
 11
-66.6
 21
-72
  0
LINE
  8
0
 10
-66.6
 20
-72
 11
-66.5944
 21
-71.7854
  0
LINE
  8
0
 10
-66.5944
 20
-71.7854
 11
-66.5775
 21
-71.5714
  0
LINE
  8
0
 10
-66.5775
 20
-71.5714
 11
-66.5495
 21
-71.3586
  0
LINE
  8
0
 10
-66.5495
 20
-71.3586
 11
-66.5104
 21
-71.1476
  0
LINE
  8
0
 10
-66.5104
 20
-71.1476
 11
-66.4603
 21
-70.9388
  0
LINE
  8
0
 10
-66.4603
 20
-70.9388
 11
-66.3993
 21
-70.733
  0
LINE
  8
0
 10
-66.3993
 20
-70.733
 11
-66.3277
 21
-70.5307
  0
LINE
  8
0
 10
-66.3277
 20
-70.5307
 11
-66.2455
 21
-70.3324
  0
LINE
  8
0
 10
-66.2455
 20
-70.3324
 11
-66.1531
 21
-70.1386
  0
LINE
  8
0
 10
-66.1531
 20
-70.1386
 11
-66.0507
 21
-69.95
  0
LINE
  8
0
 10
-66.0507
 20
-69.95
 11
-65.9386
 21
-69.767
  0
LINE
  8
0
 10
-65.9386
 20
-69.767
 11
-65.817
 21
-69.5901
  0
LINE
  8
0
 10
-65.817
 20
-69.5901
 11
-65.6863
 21
-69.4198
  0
LINE
  8
0
 10
-65.6863
 20
-69.4198
 11
-65.5469
 21
-69.2566
  0
LINE
  8
0
 10
-65.5469
 20
-69.2566
 11
-65.3991
 21
-69.1009
  0
LINE
  8
0
 10
-65.3991
 20
-69.1009
 11
-65.2434
 21
-68.9531
  0
LINE
  8
0
 10
-65.2434
 20
-68.9531
 11
-65.0802
 21
-68.8137
  0
LINE
  8
0
 10
-65.0802
 20
-68.8137
 11
-64.9099
 21
-68.683
  0
LINE
  8
0
 10
-64.9099
 20
-68.683
 11
-64.733
 21
-68.5614
  0
LINE
  8
0
 10
-64.733
 20
-68.5614
 11
-64.55
 21
-68.4493
  0
LINE
  8
0
 10
-64.55
 20
-68.4493
 11
-64.3614
 21
-68.3469
  0
LINE
  8
0
 10
-64.3614
 20
-68.3469
 11
-64.1676
 21
-68.2545
  0
LINE
  8
0
 10
-64.1676
 20
-68.2545
 11
-63.9693
 21
-68.1723
  0
LINE
  8
0
 10
-63.9693
 20
-68.1723
 11
-63.767
 21
-68.1007
  0
LINE
  8
0
 10
-63.767
 20
-68.1007
 11
-63.5612
 21
-68.0397
  0
LINE
  8
0
 10
-63.5612
 20
-68.0397
 11
-63.3524
 21
-67.9896
  0
LINE
  8
0
 10
-63.3524
 20
-67.9896
 11
-63.1414
 21
-67.9505
  0
LINE
  8
0
 10
-63.1414
 20
-67.9505
 11
-62.9286
 21
-67.9225
  0
LINE
  8
0
 10
-62.9286
 20
-67.9225
 11
-62.7146
 21
-67.9056
  0
LINE
  8
0
 10
-62.7146
 20
-67.9056
 11
-62.5
 21
-67.9
  0
LINE
  8
0
 10
-62.5
 20
-67.9
 11
-62.2854
 21
-67.9056
  0
LINE
  8
0
 10
-62.2854
 20
-67.9056
 11
-62.0714
 21
-67.9225
  0
LINE
  8
0
 10
-62.0714
 20
-67.9225
 11
-61.8586
 21
-67.9505
  0
LINE
  8
0
 10
-61.8586
 20
-67.9505
 11
-61.6476
 21
-67.9896
  0
LINE
  8
0
 10
-61.6476
 20
-67.9896
 11
-61.4388
 21
-68.0397
  0
LINE
  8
0
 10
-61.4388
 20
-68.0397
 11
-61.233
 21
-68.1007
  0
LINE
  8
0
 10
-61.233
 20
-68.1007
 11
-61.0307
 21
-68.1723
  0
LINE
  8
0
 10
-61.0307
 20
-68.1723
 11
-60.8324
 21
-68.2545
  0
LINE
  8
0
 10
-60.8324
 20
-68.2545
 11
-60.6386
 21
-68.3469
  0
LINE
  8
0
 10
-60.6386
 20
-68.3469
 11
-60.45
 21
-68.4493
  0
LINE
  8
0
 10
-60.45
 20
-68.4493
 11
-60.267
 21
-68.5614
  0
LINE
  8
0
 10
-60.267
 20
-68.5614
 11
-60.0901
 21
-68.683
  0
LINE
  8
0
 10
-60.0901
 20
-68.683
 11
-59.9198
 21
-68.8137
  0
LINE
  8
0
 10
-59.9198
 20
-68.8137
 11
-59.7566
 21
-68.9531
  0
LINE
  8
0
 10
-59.7566
 20
-68.9531
 11
-59.6009
 21
-69.1009
  0
LINE
  8
0
 10
-59.6009
 20
-69.1009
 11
-59.4531
 21
-69.2566
  0
LINE
  8
0
 10
-59.4531
 20
-69.2566
 11
-59.3137
 21
-69.4198
  0
LINE
  8
0
 10
-59.3137
 20
-69.4198
 11
-59.183
 21
-69.5901
  0
LINE
  8
0
 10
-59.183
 20
-69.5901
 11
-59.0614
 21
-69.767
  0
LINE
  8
0
 10
-59.0614
 20
-69.767
 11
-58.9493
 21
-69.95
  0
LINE
  8
0
 10
-58.9493
 20
-69.95
 11
-58.8469
 21
-70.1386
  0
LINE
  8
0
 10
-58.8469
 20
-70.1386
 11
-58.7545
 21
-70.3324
  0
LINE
  8
0
 10
-58.7545
 20
-70.3324
 11
-58.6723
 21
-70.5307
  0
LINE
  8
0
 10
-58.6723
 20
-70.5307
 11
-58.6007
 21
-70.733
  0
LINE
  8
0
 10
-58.6007
 20
-70.733
 11
-58.5397
 21
-70.9388
  0
LINE
  8
0
 10
-58.5397
 20
-70.9388
 11
-58.4896
 21
-71.1476
  0
LINE
  8
0
 10
-58.4896
 20
-71.1476
 11
-58.4505
 21
-71.3586
  0
LINE
  8
0
 10
-58.4505
 20
-71.3586
 11
-58.4225
 21
-71.5714
  0
LINE
  8
0
 10
-58.4225
 20
-71.5714
 11
-58.4056
 21
-71.7854
  0
LINE
  8
0
 10
-58.4056
 20
-71.7854
 11
-58.4
 21
-72
  0
LINE
  8
0
 10
-58.4
 20
-72
 11
-58.4056
 21
-72.2146
  0
LINE
  8
0
 10
-58.4056
 20
-72.2146
 11
-58.4225
 21
-72.4286
  0
LINE
  8
0
 10
-58.4225
 20
-72.4286
 11
-58.4505
 21
-72.6414
  0
LINE
  8
0
 10
-58.4505
 20
-72.6414
 11
-58.4896
 21
-72.8524
  0
LINE
  8
0
 10
-58.4896
 20
-72.8524
 11
-58.5397
 21
-73.0612
  0
LINE
  8
0
 10
-58.5397
 20
-73.0612
 11
-58.6007
 21
-73.267
  0
LINE
  8
0
 10
-58.6007
 20
-73.267
 11
-58.6723
 21
-73.4693
  0
LINE
  8
0
 10
-58.6723
 20
-73.4693
 11
-58.7545
 21
-73.6676
  0
LINE
  8
0
 10
-58.7545
 20
-73.6676
 11
-58.8469
 21
-73.8614
  0
LINE
  8
0
 10
-58.8469
 20
-73.8614
 11
-58.9493
 21
-74.05
  0
LINE
  8
0
 10
-58.9493
 20
-74.05
 11
-59.0614
 21
-74.233
  0
LINE
  8
0
 10
-59.0614
 20
-74.233
 11
-59.183
 21
-74.4099
  0
LINE
  8
0
 10
-59.183
 20
-74.4099
 11
-59.3137
 21
-74.5802
  0
LINE
  8
0
 10
-59.3137
 20
-74.5802
 11
-59.4531
 21
-74.7434
  0
LINE
  8
0
 10
-59.4531
 20
-74.7434
 11
-59.6009
 21
-74.8991
  0
LINE
  8
0
 10
-59.6009
 20
-74.8991
 11
-59.7566
 21
-75.0469
  0
LINE
  8
0
 10
-59.7566
 20
-75.0469
 11
-59.9198
 21
-75.1863
  0
LINE
  8
0
 10
-59.9198
 20
-75.1863
 11
-60.0901
 21
-75.317
  0
LINE
  8
0
 10
-60.0901
 20
-75.317
 11
-60.267
 21
-75.4386
  0
LINE
  8
0
 10
-60.267
 20
-75.4386
 11
-60.45
 21
-75.5507
  0
LINE
  8
0
 10
-60.45
 20
-75.5507
 11
-60.6386
 21
-75.6531
  0
LINE
  8
0
 10
-60.6386
 20
-75.6531
 11
-60.8324
 21
-75.7455
  0
LINE
  8
0
 10
-60.8324
 20
-75.7455
 11
-61.0307
 21
-75.8277
  0
LINE
  8
0
 10
-61.0307
 20
-75.8277
 11
-61.233
 21
-75.8993
  0
LINE
  8
0
 10
-61.233
 20
-75.8993
 11
-61.4388
 21
-75.9603
  0
LINE
  8
0
 10
-61.4388
 20
-75.9603
 11
-61.6476
 21
-76.0104
  0
LINE
  8
0
 10
-61.6476
 20
-76.0104
 11
-61.8586
 21
-76.0495
  0
LINE
  8
0
 10
-61.8586
 20
-76.0495
 11
-62.0714
 21
-76.0775
  0
LINE
  8
0
 10
-62.0714
 20
-76.0775
 11
-62.2854
 21
-76.0944
  0
LINE
  8
0
 10
-62.2854
 20
-76.0944
 11
-62.5
 21
-76.1
  0
LINE
  8
0
 10
-62.5
 20
-76.1
 11
-62.7146
 21
-76.0944
  0
LINE
  8
0
 10
62.2854
 20
-76.0944
 11
62.0714
 21
-76.0775
  0
LINE
  8
0
 10
62.0714
 20
-76.0775
 11
61.8586
 21
-76.0495
  0
LINE
  8
0
 10
61.8586
 20
-76.0495
 11
61.6476
 21
-76.0104
  0
LINE
  8
0
 10
61.6476
 20
-76.0104
 11
61.4388
 21
-75.9603
  0
LINE
  8
0
 10
61.4388
 20
-75.9603
 11
61.233
 21
-75.8993
  0
LINE
  8
0
 10
61.233
 20
-75.8993
 11
61.0307
 21
-75.8277
  0
LINE
  8
0
 10
61.0307
 20
-75.8277
 11
60.8324
 21
-75.7455
  0
LINE
  8
0
 10
60.8324
 20
-75.7455
 11
60.6386
 21
-75.6531
  0
LINE
  8
0
 10
60.6386
 20
-75.6531
 11
60.45
 21
-75.5507
  0
LINE
  8
0
 10
60.45
 20
-75.5507
 11
60.267
 21
-75.4386
  0
LINE
  8
0
 10
60.267
 20
-75.4386
 11
60.0901
 21
-75.317
  0
LINE
  8
0
 10
60.0901
 20
-75.317
 11
59.9198
 21
-75.1863
  0
LINE
  8
0
 10
59.9198
 20
-75.1863
 11
59.7566
 21
-75.0469
  0
LINE
  8
0
 10
59.7566
 20
-75.0469
 11
59.6009
 21
-74.8991
  0
LINE
  8
0
 10
59.6009
 20
-74.8991
 11
59.4531
 21
-74.7434
  0
LINE
  8
0
 10
59.4531
 20
-74.7434
 11
59.3137
 21
-74.5802
  0
LINE
  8
0
 10
59.3137
 20
-74.5802
 11
59.183
 21
-74.4099
  0
LINE
  8
0
 10
59.183
 20
-74.4099
 11
59.0614
 21
-74.233
  0
LINE
  8
0
 10
59.0614
 20
-74.233
 11
58.9493
 21
-74.05
  0
LINE
  8
0
 10
58.9493
 20
-74.05
 11
58.8469
 21
-73.8614
  0
LINE
  8
0
 10
58.8469
 20
-73.8614
 11
58.7545
 21
-73.6676
  0
LINE
  8
0
 10
58.7545
 20
-73.6676
 11
58.6723
 21
-73.4693
  0
LINE
  8
0
 10
58.6723
 20
-73.4693
 11
58.6007
 21
-73.267
  0
LINE
  8
0
 10
58.6007
 20
-73.267
 11
58.5397
 21
-73.0612
  0
LINE
  8
0
 10
58.5397
 20
-73.0612
 11
58.4896
 21
-72.8524
  0
LINE
  8
0
 10
58.4896
 20
-72.8524
 11
58.4505
 21
-72.6414
  0
LINE
  8
0
 10
58.4505
 20
-72.6414
 11
58.4225
 21
-72.4286
  0
LINE
  8
0
 10
58.4225
 20
-72.4286
 11
58.4056
 21
-72.2146
  0
LINE
  8
0
 10
58.4056
 20
-72.2146
 11
58.4
 21
-72
  0
LINE
  8
0
 10
58.4
 20
-72
 11
58.4056
 21
-71.7854
  0
LINE
  8
0
 10
58.4056
 20
-71.7854
 11
58.4225
 21
-71.5714
  0
LINE
  8
0
 10
58.4225
 20
-71.5714
 11
58.4505
 21
-71.3586
  0
LINE
  8
0
 10
58.4505
 20
-71.3586
 11
58.4896
 21
-71.1476
  0
LINE
  8
0
 10
58.4896
 20
-71.1476
 11
58.5397
 21
-70.9388
  0
LINE
  8
0
 10
58.5397
 20
-70.9388
 11
58.6007
 21
-70.733
  0
LINE
  8
0
 10
58.6007
 20
-70.733
 11
58.6723
 21
-70.5307
  0
LINE
  8
0
 10
58.6723
 20
-70.5307
 11
58.7545
 21
-70.3324
  0
LINE
  8
0
 10
58.7545
 20
-70.3324
 11
58.8469
 21
-70.1386
  0
LINE
  8
0
 10
58.8469
 20
-70.1386
 11
58.9493
 21
-69.95
  0
LINE
  8
0
 10
58.9493
 20
-69.95
 11
59.0614
 21
-69.767
  0
LINE
  8
0
 10
59.0614
 20
-69.767
 11
59.183
 21
-69.5901
  0
LINE
  8
0
 10
59.183
 20
-69.5901
 11
59.3137
 21
-69.4198
  0
LINE
  8
0
 10
59.3137
 20
-69.4198
 11
59.4531
 21
-69.2566
  0
LINE
  8
0
 10
59.4531
 20
-69.2566
 11
59.6009
 21
-69.1009
  0
LINE
  8
0
 10
59.6009
 20
-69.1009
 11
59.7566
 21
-68.9531
  0
LINE
  8
0
 10
59.7566
 20
-68.9531
 11
59.9198
 21
-68.8137
  0
LINE
  8
0
 10
59.9198
 20
-68.8137
 11
60.0901
 21
-68.683
  0
LINE
  8
0
 10
60.0901
 20
-68.683
 11
60.267
 21
-68.5614
  0
LINE
  8
0
 10
60.267
 20
-68.5614
 11
60.45
 21
-68.4493
  0
LINE
  8
0
 10
60.45
 20
-68.4493
 11
60.6386
 21
-68.3469
  0
LINE
  8
0
 10
60.6386
 20
-68.3469
 11
60.8324
 21
-68.2545
  0
LINE
  8
0
 10
60.8324
 20
-68.2545
 11
61.0307
 21
-68.1723
  0
LINE
  8
0
 10
61.0307
 20
-68.1723
 11
61.233
 21
-68.1007
  0
LINE
  8
0
 10
61.233
 20
-68.1007
 11
61.4388
 21
-68.0397
  0
LINE
  8
0
 10
61.4388
 20
-68.0397
 11
61.6476
 21
-67.9896
  0
LINE
  8
0
 10
61.6476
 20
-67.9896
 11
61.8586
 21
-67.9505
  0
LINE
  8
0
 10
61.8586
 20
-67.9505
 11
62.0714
 21
-67.9225
  0
LINE
  8
0
 10
62.0714
 20
-67.9225
 11
62.2854
 21
-67.9056
  0
LINE
  8
0
 10
62.2854
 20
-67.9056
 11
62.5
 21
-67.9
  0
LINE
  8
0
 10
62.5
 20
-67.9
 11
62.7146
 21
-67.9056
  0
LINE
  8
0
 10
62.7146
 20
-67.9056
 11
62.9286
 21
-67.9225
  0
LINE
  8
0
 10
62.9286
 20
-67.9225
 11
63.1414
 21
-67.9505
  0
LINE
  8
0
 10
63.1414
 20
-67.9505
 11
63.3524
 21
-67.9896
  0
LINE
  8
0
 10
63.3524
 20
-67.9896
 11
63.5612
 21
-68.0397
  0
LINE
  8
0
 10
63.5612
 20
-68.0397
 11
63.767
 21
-68.1007
  0
LINE
  8
0
 10
63.767
 20
-68.1007
 11
63.9693
 21
-68.1723
  0
LINE
  8
0
 10
63.9693
 20
-68.1723
 11
64.1676
 21
-68.2545
  0
LINE
  8
0
 10
64.1676
 20
-68.2545
 11
64.3614
 21
-68.3469
  0
LINE
  8
0
 10
64.3614
 20
-68.3469
 11
64.55
 21
-68.4493
  0
LINE
  8
0
 10
64.55
 20
-68.4493
 11
64.733
 21
-68.5614
  0
LINE
  8
0
 10
64.733
 20
-68.5614
 11
64.9099
 21
-68.683
  0
LINE
  8
0
 10
64.9099
 20
-68.683
 11
65.0802
 21
-68.8137
  0
LINE
  8
0
 10
65.0802
 20
-68.8137
 11
65.2434
 21
-68.9531
  0
LINE
  8
0
 10
65.2434
 20
-68.9531
 11
65.3991
 21
-69.1009
  0
LINE
  8
0
 10
65.3991
 20
-69.1009
 11
65.5469
 21
-69.2566
  0
LINE
  8
0
 10
65.5469
 20
-69.2566
 11
65.6863
 21
-69.4198
  0
LINE
  8
0
 10
65.6863
 20
-69.4198
 11
65.817
 21
-69.5901
  0
LINE
  8
0
 10
65.817
 20
-69.5901
 11
65.9386
 21
-69.767
  0
LINE
  8
0
 10
65.9386
 20
-69.767
 11
66.0507
 21
-69.95
  0
LINE
  8
0
 10
66.0507
 20
-69.95
 11
66.1531
 21
-70.1386
  0
LINE
  8
0
 10
66.1531
 20
-70.1386
 11
66.2455
 21
-70.3324
  0
LINE
  8
0
 10
66.2455
 20
-70.3324
 11
66.3277
 21
-70.5307
  0
LINE
  8
0
 10
66.3277
 20
-70.5307
 11
66.3993
 21
-70.733
  0
LINE
  8
0
 10
66.3993
 20
-70.733
 11
66.4603
 21
-70.9388
  0
LINE
  8
0
 10
66.4603
 20
-70.9388
 11
66.5104
 21
-71.1476
  0
LINE
  8
0
 10
66.5104
 20
-71.1476
 11
66.5495
 21
-71.3586
  0
LINE
  8
0
 10
66.5495
 20
-71.3586
 11
66.5775
 21
-71.5714
  0
LINE
  8
0
 10
66.5775
 20
-71.5714
 11
66.5944
 21
-71.7854
  0
LINE
  8
0
 10
66.5944
 20
-71.7854
 11
66.6
 21
-72
  0
LINE
  8
0
 10
66.6
 20
-72
 11
66.5944
 21
-72.2146
  0
LINE
  8
0
 10
66.5944
 20
-72.2146
 11
66.5775
 21
-72.4286
  0
LINE
  8
0
 10
66.5775
 20
-72.4286
 11
66.5495
 21
-72.6414
  0
LINE
  8
0
 10
66.5495
 20
-72.6414
 11
66.5104
 21
-72.8524
  0
LINE
  8
0
 10
66.5104
 20
-72.8524
 11
66.4603
 21
-73.0612
  0
LINE
  8
0
 10
66.4603
 20
-73.0612
 11
66.3993
 21
-73.267
  0
LINE
  8
0
 10
66.3993
 20
-73.267
 11
66.3277
 21
-73.4693
  0
LINE
  8
0
 10
66.3277
 20
-73.4693
 11
66.2455
 21
-73.6676
  0
LINE
  8
0
 10
66.2455
 20
-73.6676
 11
66.1531
 21
-73.8614
  0
LINE
  8
0
 10
66.1531
 20
-73.8614
 11
66.0507
 21
-74.05
  0
LINE
  8
0
 10
66.0507
 20
-74.05
 11
65.9386
 21
-74.233
  0
LINE
  8
0
 10
65.9386
 20
-74.233
 11
65.817
 21
-74.4099
  0
LINE
  8
0
 10
65.817
 20
-74.4099
 11
65.6863
 21
-74.5802
  0
LINE
  8
0
 10
65.6863
 20
-74.5802
 11
65.5469
 21
-74.7434
  0
LINE
  8
0
 10
65.5469
 20
-74.7434
 11
65.3991
 21
-74.8991
  0
LINE
  8
0
 10
65.3991
 20
-74.8991
 11
65.2434
 21
-75.0469
  0
LINE
  8
0
 10
65.2434
 20
-75.0469
 11
65.0802
 21
-75.1863
  0
LINE
  8
0
 10
65.0802
 20
-75.1863
 11
64.9099
 21
-75.317
  0
LINE
  8
0
 10
64.9099
 20
-75.317
 11
64.733
 21
-75.4386
  0
LINE
  8
0
 10
64.733
 20
-75.4386
 11
64.55
 21
-75.5507
  0
LINE
  8
0
 10
64.55
 20
-75.5507
 11
64.3614
 21
-75.6531
  0
LINE
  8
0
 10
64.3614
 20
-75.6531
 11
64.1676
 21
-75.7455
  0
LINE
  8
0
 10
64.1676
 20
-75.7455
 11
63.9693
 21
-75.8277
  0
LINE
  8
0
 10
63.9693
 20
-75.8277
 11
63.767
 21
-75.8993
  0
LINE
  8
0
 10
63.767
 20
-75.8993
 11
63.5612
 21
-75.9603
  0
LINE
  8
0
 10
63.5612
 20
-75.9603
 11
63.3524
 21
-76.0104
  0
LINE
  8
0
 10
63.3524
 20
-76.0104
 11
63.1414
 21
-76.0495
  0
LINE
  8
0
 10
63.1414
 20
-76.0495
 11
62.9286
 21
-76.0775
  0
LINE
  8
0
 10
62.9286
 20
-76.0775
 11
62.7146
 21
-76.0944
  0
LINE
  8
0
 10
62.7146
 20
-76.0944
 11
62.5
 21
-76.1
  0
LINE
  8
0
 10
62.5
 20
-76.1
 11
62.2854
 21
-76.0944
  0
ENDSEC
  0
SECTION
  2
OBJECTS
  0
DICTIONARY
  0
ENDSEC
  0
EOF
