  0
SECTION
  2
BLOCKS
  0
ENDSEC
  0
SECTION
  2
ENTITIES
  0
LINE
  8
0
 10
-8.4
 20
-9.75
 11
-7.86187
 21
-9.75
  0
LINE
  8
0
 10
-7.86187
 20
-9.75
 11
-7.62809
 21
-9.52815
  0
LINE
  8
0
 10
-7.62809
 20
-9.52815
 11
-7.17425
 21
-9.14054
  0
LINE
  8
0
 10
-7.17425
 20
-9.14054
 11
-6.70075
 21
-8.77721
  0
LINE
  8
0
 10
-6.70075
 20
-8.77721
 11
-6.20888
 21
-8.43916
  0
LINE
  8
0
 10
-6.20888
 20
-8.43916
 11
-5.7
 21
-8.12731
  0
LINE
  8
0
 10
-5.7
 20
-8.12731
 11
-5.17549
 21
-7.84253
  0
LINE
  8
0
 10
-5.17549
 20
-7.84253
 11
-4.6368
 21
-7.58558
  0
LINE
  8
0
 10
-4.6368
 20
-7.58558
 11
-4.08539
 21
-7.35718
  0
LINE
  8
0
 10
-4.08539
 20
-7.35718
 11
-3.52279
 21
-7.15796
  0
LINE
  8
0
 10
-3.52279
 20
-7.15796
 11
-2.95054
 21
-6.98845
  0
LINE
  8
0
 10
-2.95054
 20
-6.98845
 11
-2.37019
 21
-6.84912
  0
LINE
  8
0
 10
-2.37019
 20
-6.84912
 11
-1.78335
 21
-6.74035
  0
LINE
  8
0
 10
-1.78335
 20
-6.74035
 11
-1.19162
 21
-6.66245
  0
LINE
  8
0
 10
-1.19162
 20
-6.66245
 11
-0.596629
 21
-6.61562
  0
LINE
  8
0
 10
-0.596629
 20
-6.61562
 11
0
 21
-6.6
  0
LINE
  8
0
 10
0
 20
-6.6
 11
0.596629
 21
-6.61562
  0
LINE
  8
0
 10
0.596629
 20
-6.61562
 11
1.19162
 21
-6.66245
  0
LINE
  8
0
 10
1.19162
 20
-6.66245
 11
1.78335
 21
-6.74035
  0
LINE
  8
0
 10
1.78335
 20
-6.74035
 11
2.37019
 21
-6.84912
  0
LINE
  8
0
 10
2.37019
 20
-6.84912
 11
2.95054
 21
-6.98845
  0
LINE
  8
0
 10
2.95054
 20
-6.98845
 11
3.52279
 21
-7.15796
  0
LINE
  8
0
 10
3.52279
 20
-7.15796
 11
4.08539
 21
-7.35718
  0
LINE
  8
0
 10
4.08539
 20
-7.35718
 11
4.6368
 21
-7.58558
  0
LINE
  8
0
 10
4.6368
 20
-7.58558
 11
5.17549
 21
-7.84253
  0
LINE
  8
0
 10
5.17549
 20
-7.84253
 11
5.7
 21
-8.12731
  0
LINE
  8
0
 10
5.7
 20
-8.12731
 11
6.20888
 21
-8.43916
  0
LINE
  8
0
 10
6.20888
 20
-8.43916
 11
6.70075
 21
-8.77721
  0
LINE
  8
0
 10
6.70075
 20
-8.77721
 11
7.17425
 21
-9.14054
  0
LINE
  8
0
 10
7.17425
 20
-9.14054
 11
7.62809
 21
-9.52815
  0
LINE
  8
0
 10
7.62809
 20
-9.52815
 11
7.86187
 21
-9.75
  0
LINE
  8
0
 10
7.86187
 20
-9.75
 11
8.4
 21
-9.75
  0
LINE
  8
0
 10
8.4
 20
-9.75
 11
8.4
 21
9.75
  0
LINE
  8
0
 10
8.4
 20
9.75
 11
7.86187
 21
9.75
  0
LINE
  8
0
 10
7.86187
 20
9.75
 11
7.62809
 21
9.52815
  0
LINE
  8
0
 10
7.62809
 20
9.52815
 11
7.17425
 21
9.14054
  0
LINE
  8
0
 10
7.17425
 20
9.14054
 11
6.70075
 21
8.77721
  0
LINE
  8
0
 10
6.70075
 20
8.77721
 11
6.20888
 21
8.43916
  0
LINE
  8
0
 10
6.20888
 20
8.43916
 11
5.7
 21
8.12731
  0
LINE
  8
0
 10
5.7
 20
8.12731
 11
5.17549
 21
7.84253
  0
LINE
  8
0
 10
5.17549
 20
7.84253
 11
4.6368
 21
7.58558
  0
LINE
  8
0
 10
4.6368
 20
7.58558
 11
4.08539
 21
7.35718
  0
LINE
  8
0
 10
4.08539
 20
7.35718
 11
3.52279
 21
7.15796
  0
LINE
  8
0
 10
3.52279
 20
7.15796
 11
2.95054
 21
6.98845
  0
LINE
  8
0
 10
2.95054
 20
6.98845
 11
2.37019
 21
6.84912
  0
LINE
  8
0
 10
2.37019
 20
6.84912
 11
1.78335
 21
6.74035
  0
LINE
  8
0
 10
1.78335
 20
6.74035
 11
1.19162
 21
6.66245
  0
LINE
  8
0
 10
1.19162
 20
6.66245
 11
0.596629
 21
6.61562
  0
LINE
  8
0
 10
0.596629
 20
6.61562
 11
0
 21
6.6
  0
LINE
  8
0
 10
0
 20
6.6
 11
-0.596629
 21
6.61562
  0
LINE
  8
0
 10
-0.596629
 20
6.61562
 11
-1.19162
 21
6.66245
  0
LINE
  8
0
 10
-1.19162
 20
6.66245
 11
-1.78335
 21
6.74035
  0
LINE
  8
0
 10
-1.78335
 20
6.74035
 11
-2.37019
 21
6.84912
  0
LINE
  8
0
 10
-2.37019
 20
6.84912
 11
-2.95054
 21
6.98845
  0
LINE
  8
0
 10
-2.95054
 20
6.98845
 11
-3.52279
 21
7.15796
  0
LINE
  8
0
 10
-3.52279
 20
7.15796
 11
-4.08539
 21
7.35718
  0
LINE
  8
0
 10
-4.08539
 20
7.35718
 11
-4.6368
 21
7.58558
  0
LINE
  8
0
 10
-4.6368
 20
7.58558
 11
-5.17549
 21
7.84253
  0
LINE
  8
0
 10
-5.17549
 20
7.84253
 11
-5.7
 21
8.12731
  0
LINE
  8
0
 10
-5.7
 20
8.12731
 11
-6.20888
 21
8.43916
  0
LINE
  8
0
 10
-6.20888
 20
8.43916
 11
-6.70075
 21
8.77721
  0
LINE
  8
0
 10
-6.70075
 20
8.77721
 11
-7.17425
 21
9.14054
  0
LINE
  8
0
 10
-7.17425
 20
9.14054
 11
-7.62809
 21
9.52815
  0
LINE
  8
0
 10
-7.62809
 20
9.52815
 11
-7.86187
 21
9.75
  0
LINE
  8
0
 10
-7.86187
 20
9.75
 11
-8.4
 21
9.75
  0
LINE
  8
0
 10
-8.4
 20
9.75
 11
-8.4
 21
-9.75
  0
LINE
  8
0
 10
-4.2
 20
0
 11
-4.19424
 21
0.21981
  0
LINE
  8
0
 10
-4.19424
 20
0.21981
 11
-4.17699
 21
0.439019
  0
LINE
  8
0
 10
-4.17699
 20
0.439019
 11
-4.14829
 21
0.657024
  0
LINE
  8
0
 10
-4.14829
 20
0.657024
 11
-4.10822
 21
0.873229
  0
LINE
  8
0
 10
-4.10822
 20
0.873229
 11
-4.05689
 21
1.08704
  0
LINE
  8
0
 10
-4.05689
 20
1.08704
 11
-3.99444
 21
1.29787
  0
LINE
  8
0
 10
-3.99444
 20
1.29787
 11
-3.92104
 21
1.50515
  0
LINE
  8
0
 10
-3.92104
 20
1.50515
 11
-3.83689
 21
1.70829
  0
LINE
  8
0
 10
-3.83689
 20
1.70829
 11
-3.74223
 21
1.90676
  0
LINE
  8
0
 10
-3.74223
 20
1.90676
 11
-3.63731
 21
2.1
  0
LINE
  8
0
 10
-3.63731
 20
2.1
 11
-3.52242
 21
2.28748
  0
LINE
  8
0
 10
-3.52242
 20
2.28748
 11
-3.39787
 21
2.4687
  0
LINE
  8
0
 10
-3.39787
 20
2.4687
 11
-3.26401
 21
2.64315
  0
LINE
  8
0
 10
-3.26401
 20
2.64315
 11
-3.12121
 21
2.81035
  0
LINE
  8
0
 10
-3.12121
 20
2.81035
 11
-2.96985
 21
2.96985
  0
LINE
  8
0
 10
-2.96985
 20
2.96985
 11
-2.81035
 21
3.12121
  0
LINE
  8
0
 10
-2.81035
 20
3.12121
 11
-2.64315
 21
3.26401
  0
LINE
  8
0
 10
-2.64315
 20
3.26401
 11
-2.4687
 21
3.39787
  0
LINE
  8
0
 10
-2.4687
 20
3.39787
 11
-2.28748
 21
3.52242
  0
LINE
  8
0
 10
-2.28748
 20
3.52242
 11
-2.1
 21
3.63731
  0
LINE
  8
0
 10
-2.1
 20
3.63731
 11
-1.90676
 21
3.74223
  0
LINE
  8
0
 10
-1.90676
 20
3.74223
 11
-1.70829
 21
3.83689
  0
LINE
  8
0
 10
-1.70829
 20
3.83689
 11
-1.50515
 21
3.92104
  0
LINE
  8
0
 10
-1.50515
 20
3.92104
 11
-1.29787
 21
3.99444
  0
LINE
  8
0
 10
-1.29787
 20
3.99444
 11
-1.08704
 21
4.05689
  0
LINE
  8
0
 10
-1.08704
 20
4.05689
 11
-0.873229
 21
4.10822
  0
LINE
  8
0
 10
-0.873229
 20
4.10822
 11
-0.657024
 21
4.14829
  0
LINE
  8
0
 10
-0.657024
 20
4.14829
 11
-0.439019
 21
4.17699
  0
LINE
  8
0
 10
-0.439019
 20
4.17699
 11
-0.21981
 21
4.19424
  0
LINE
  8
0
 10
-0.21981
 20
4.19424
 11
0
 21
4.2
  0
LINE
  8
0
 10
0
 20
4.2
 11
0.21981
 21
4.19424
  0
LINE
  8
0
 10
0.21981
 20
4.19424
 11
0.439019
 21
4.17699
  0
LINE
  8
0
 10
0.439019
 20
4.17699
 11
0.657024
 21
4.14829
  0
LINE
  8
0
 10
0.657024
 20
4.14829
 11
0.873229
 21
4.10822
  0
LINE
  8
0
 10
0.873229
 20
4.10822
 11
1.08704
 21
4.05689
  0
LINE
  8
0
 10
1.08704
 20
4.05689
 11
1.29787
 21
3.99444
  0
LINE
  8
0
 10
1.29787
 20
3.99444
 11
1.50515
 21
3.92104
  0
LINE
  8
0
 10
1.50515
 20
3.92104
 11
1.70829
 21
3.83689
  0
LINE
  8
0
 10
1.70829
 20
3.83689
 11
1.90676
 21
3.74223
  0
LINE
  8
0
 10
1.90676
 20
3.74223
 11
2.1
 21
3.63731
  0
LINE
  8
0
 10
2.1
 20
3.63731
 11
2.28748
 21
3.52242
  0
LINE
  8
0
 10
2.28748
 20
3.52242
 11
2.4687
 21
3.39787
  0
LINE
  8
0
 10
2.4687
 20
3.39787
 11
2.64315
 21
3.26401
  0
LINE
  8
0
 10
2.64315
 20
3.26401
 11
2.81035
 21
3.12121
  0
LINE
  8
0
 10
2.81035
 20
3.12121
 11
2.96985
 21
2.96985
  0
LINE
  8
0
 10
2.96985
 20
2.96985
 11
3.12121
 21
2.81035
  0
LINE
  8
0
 10
3.12121
 20
2.81035
 11
3.26401
 21
2.64315
  0
LINE
  8
0
 10
3.26401
 20
2.64315
 11
3.39787
 21
2.4687
  0
LINE
  8
0
 10
3.39787
 20
2.4687
 11
3.52242
 21
2.28748
  0
LINE
  8
0
 10
3.52242
 20
2.28748
 11
3.63731
 21
2.1
  0
LINE
  8
0
 10
3.63731
 20
2.1
 11
3.74223
 21
1.90676
  0
LINE
  8
0
 10
3.74223
 20
1.90676
 11
3.83689
 21
1.70829
  0
LINE
  8
0
 10
3.83689
 20
1.70829
 11
3.92104
 21
1.50515
  0
LINE
  8
0
 10
3.92104
 20
1.50515
 11
3.99444
 21
1.29787
  0
LINE
  8
0
 10
3.99444
 20
1.29787
 11
4.05689
 21
1.08704
  0
LINE
  8
0
 10
4.05689
 20
1.08704
 11
4.10822
 21
0.873229
  0
LINE
  8
0
 10
4.10822
 20
0.873229
 11
4.14829
 21
0.657024
  0
LINE
  8
0
 10
4.14829
 20
0.657024
 11
4.17699
 21
0.439019
  0
LINE
  8
0
 10
4.17699
 20
0.439019
 11
4.19424
 21
0.21981
  0
LINE
  8
0
 10
4.19424
 20
0.21981
 11
4.2
 21
0
  0
LINE
  8
0
 10
4.2
 20
0
 11
4.19424
 21
-0.21981
  0
LINE
  8
0
 10
4.19424
 20
-0.21981
 11
4.17699
 21
-0.439019
  0
LINE
  8
0
 10
4.17699
 20
-0.439019
 11
4.14829
 21
-0.657024
  0
LINE
  8
0
 10
4.14829
 20
-0.657024
 11
4.10822
 21
-0.873229
  0
LINE
  8
0
 10
4.10822
 20
-0.873229
 11
4.05689
 21
-1.08704
  0
LINE
  8
0
 10
4.05689
 20
-1.08704
 11
3.99444
 21
-1.29787
  0
LINE
  8
0
 10
3.99444
 20
-1.29787
 11
3.92104
 21
-1.50515
  0
LINE
  8
0
 10
3.92104
 20
-1.50515
 11
3.83689
 21
-1.70829
  0
LINE
  8
0
 10
3.83689
 20
-1.70829
 11
3.74223
 21
-1.90676
  0
LINE
  8
0
 10
3.74223
 20
-1.90676
 11
3.63731
 21
-2.1
  0
LINE
  8
0
 10
3.63731
 20
-2.1
 11
3.52242
 21
-2.28748
  0
LINE
  8
0
 10
3.52242
 20
-2.28748
 11
3.39787
 21
-2.4687
  0
LINE
  8
0
 10
3.39787
 20
-2.4687
 11
3.26401
 21
-2.64315
  0
LINE
  8
0
 10
3.26401
 20
-2.64315
 11
3.12121
 21
-2.81035
  0
LINE
  8
0
 10
3.12121
 20
-2.81035
 11
2.96985
 21
-2.96985
  0
LINE
  8
0
 10
2.96985
 20
-2.96985
 11
2.81035
 21
-3.12121
  0
LINE
  8
0
 10
2.81035
 20
-3.12121
 11
2.64315
 21
-3.26401
  0
LINE
  8
0
 10
2.64315
 20
-3.26401
 11
2.4687
 21
-3.39787
  0
LINE
  8
0
 10
2.4687
 20
-3.39787
 11
2.28748
 21
-3.52242
  0
LINE
  8
0
 10
2.28748
 20
-3.52242
 11
2.1
 21
-3.63731
  0
LINE
  8
0
 10
2.1
 20
-3.63731
 11
1.90676
 21
-3.74223
  0
LINE
  8
0
 10
1.90676
 20
-3.74223
 11
1.70829
 21
-3.83689
  0
LINE
  8
0
 10
1.70829
 20
-3.83689
 11
1.50515
 21
-3.92104
  0
LINE
  8
0
 10
1.50515
 20
-3.92104
 11
1.29787
 21
-3.99444
  0
LINE
  8
0
 10
1.29787
 20
-3.99444
 11
1.08704
 21
-4.05689
  0
LINE
  8
0
 10
1.08704
 20
-4.05689
 11
0.873229
 21
-4.10822
  0
LINE
  8
0
 10
0.873229
 20
-4.10822
 11
0.657024
 21
-4.14829
  0
LINE
  8
0
 10
0.657024
 20
-4.14829
 11
0.439019
 21
-4.17699
  0
LINE
  8
0
 10
0.439019
 20
-4.17699
 11
0.21981
 21
-4.19424
  0
LINE
  8
0
 10
0.21981
 20
-4.19424
 11
0
 21
-4.2
  0
LINE
  8
0
 10
0
 20
-4.2
 11
-0.21981
 21
-4.19424
  0
LINE
  8
0
 10
-0.21981
 20
-4.19424
 11
-0.439019
 21
-4.17699
  0
LINE
  8
0
 10
-0.439019
 20
-4.17699
 11
-0.657024
 21
-4.14829
  0
LINE
  8
0
 10
-0.657024
 20
-4.14829
 11
-0.873229
 21
-4.10822
  0
LINE
  8
0
 10
-0.873229
 20
-4.10822
 11
-1.08704
 21
-4.05689
  0
LINE
  8
0
 10
-1.08704
 20
-4.05689
 11
-1.29787
 21
-3.99444
  0
LINE
  8
0
 10
-1.29787
 20
-3.99444
 11
-1.50515
 21
-3.92104
  0
LINE
  8
0
 10
-1.50515
 20
-3.92104
 11
-1.70829
 21
-3.83689
  0
LINE
  8
0
 10
-1.70829
 20
-3.83689
 11
-1.90676
 21
-3.74223
  0
LINE
  8
0
 10
-1.90676
 20
-3.74223
 11
-2.1
 21
-3.63731
  0
LINE
  8
0
 10
-2.1
 20
-3.63731
 11
-2.28748
 21
-3.52242
  0
LINE
  8
0
 10
-2.28748
 20
-3.52242
 11
-2.4687
 21
-3.39787
  0
LINE
  8
0
 10
-2.4687
 20
-3.39787
 11
-2.64315
 21
-3.26401
  0
LINE
  8
0
 10
-2.64315
 20
-3.26401
 11
-2.81035
 21
-3.12121
  0
LINE
  8
0
 10
-2.81035
 20
-3.12121
 11
-2.96985
 21
-2.96985
  0
LINE
  8
0
 10
-2.96985
 20
-2.96985
 11
-3.12121
 21
-2.81035
  0
LINE
  8
0
 10
-3.12121
 20
-2.81035
 11
-3.26401
 21
-2.64315
  0
LINE
  8
0
 10
-3.26401
 20
-2.64315
 11
-3.39787
 21
-2.4687
  0
LINE
  8
0
 10
-3.39787
 20
-2.4687
 11
-3.52242
 21
-2.28748
  0
LINE
  8
0
 10
-3.52242
 20
-2.28748
 11
-3.63731
 21
-2.1
  0
LINE
  8
0
 10
-3.63731
 20
-2.1
 11
-3.74223
 21
-1.90676
  0
LINE
  8
0
 10
-3.74223
 20
-1.90676
 11
-3.83689
 21
-1.70829
  0
LINE
  8
0
 10
-3.83689
 20
-1.70829
 11
-3.92104
 21
-1.50515
  0
LINE
  8
0
 10
-3.92104
 20
-1.50515
 11
-3.99444
 21
-1.29787
  0
LINE
  8
0
 10
-3.99444
 20
-1.29787
 11
-4.05689
 21
-1.08704
  0
LINE
  8
0
 10
-4.05689
 20
-1.08704
 11
-4.10822
 21
-0.873229
  0
LINE
  8
0
 10
-4.10822
 20
-0.873229
 11
-4.14829
 21
-0.657024
  0
LINE
  8
0
 10
-4.14829
 20
-0.657024
 11
-4.17699
 21
-0.439019
  0
LINE
  8
0
 10
-4.17699
 20
-0.439019
 11
-4.19424
 21
-0.21981
  0
LINE
  8
0
 10
-4.19424
 20
-0.21981
 11
-4.2
 21
0
  0
ENDSEC
  0
SECTION
  2
OBJECTS
  0
DICTIONARY
  0
ENDSEC
  0
EOF
