<?xml version="1.0" standalone="no"?>
<!DOCTYPE svg PUBLIC "-//W3C//DTD SVG 1.1//EN" "http://www.w3.org/Graphics/SVG/1.1/DTD/svg11.dtd">
<svg width="65" height="136" viewBox="-12 -9 65 136" xmlns="http://www.w3.org/2000/svg" version="1.1">
<title>OpenSCAD Model</title>
<path d="
M -11.6921,2.15 L -2.65406,20.3229 L -2.53287,21.6505 L -2.17689,25.0192 L -1.77418,28.3692 L -1.32503,31.6982
 L -0.829735,35.004 L -0.288639,38.2842 L 0.297889,41.5366 L 0.929444,44.7591 L 1.6056,47.9492 L 2.32588,51.105
 L 3.08981,54.2242 L 3.89685,57.3047 L 4.74645,60.3444 L 5.63803,63.3412 L 6.57098,66.293 L 7.54466,69.1978
 L 8.5584,72.0537 L 9.61152,74.8586 L 10.7033,77.6107 L 11.8329,80.308 L 12.9997,82.9488 L 14.2028,85.5311
 L 15.4414,88.0533 L 16.7147,90.5136 L 18.0217,92.9103 L 19.3616,95.2418 L 20.7335,97.5064 L 22.1364,99.7027
 L 23.5693,101.829 L 25.0314,103.884 L 26.5215,105.867 L 28.0387,107.775 L 29.5819,109.608 L 31.15,111.364
 L 32.742,113.042 L 34.3569,114.641 L 35.9934,116.16 L 37.6505,117.598 L 39.327,118.954 L 41.0218,120.227
 L 42.5559,121.292 L 42.5675,121.571 L 42.5894,121.883 L 42.6199,122.194 L 42.659,122.5 L 42.7066,122.803
 L 42.7625,123.1 L 42.8267,123.391 L 42.8988,123.676 L 42.9787,123.953 L 43.0663,124.222 L 43.1611,124.482
 L 43.2631,124.732 L 43.3719,124.972 L 43.4873,125.2 L 43.6088,125.418 L 43.7362,125.622 L 43.8691,125.814
 L 44.0072,125.993 L 44.15,126.158 L 44.2972,126.308 L 44.4484,126.444 L 44.6032,126.565 L 44.7611,126.67
 L 44.9218,126.759 L 45.0847,126.833 L 45.2494,126.891 L 45.4155,126.932 L 45.5825,126.956 L 45.75,126.965
 L 49.25,126.965 L 49.4175,126.956 L 49.5845,126.932 L 49.7506,126.891 L 49.9153,126.833 L 50.0782,126.759
 L 50.2389,126.67 L 50.3968,126.565 L 50.5516,126.444 L 50.7028,126.308 L 50.85,126.158 L 50.9928,125.993
 L 51.1309,125.814 L 51.2638,125.622 L 51.3912,125.418 L 51.5127,125.2 L 51.6281,124.972 L 51.7369,124.732
 L 51.8389,124.482 L 51.9337,124.222 L 52.0213,123.953 L 52.1012,123.676 L 52.1733,123.391 L 52.2375,123.1
 L 52.2934,122.803 L 52.341,122.5 L 52.3801,122.194 L 52.4106,121.883 L 52.4325,121.571 L 52.4456,121.256
 L 52.45,120.941 L 52.45,114.353 L 52.4456,114.038 L 52.4325,113.723 L 52.4106,113.411 L 52.3801,113.101
 L 52.341,112.794 L 52.2934,112.492 L 52.2375,112.194 L 52.1733,111.903 L 52.1012,111.618 L 52.0213,111.341
 L 51.9337,111.072 L 51.8389,110.812 L 51.7369,110.562 L 51.6281,110.322 L 51.5127,110.094 L 51.3912,109.877
 L 51.2638,109.672 L 51.1309,109.48 L 50.9928,109.301 L 50.85,109.136 L 50.7028,108.986 L 50.5516,108.85
 L 50.3968,108.729 L 50.2389,108.624 L 50.0782,108.535 L 49.9153,108.461 L 49.7506,108.404 L 49.5845,108.362
 L 49.4175,108.338 L 49.25,108.329 L 45.75,108.329 L 45.5825,108.338 L 45.4155,108.362 L 45.2494,108.404
 L 45.0847,108.461 L 44.9218,108.535 L 44.7611,108.624 L 44.6032,108.729 L 44.4484,108.85 L 44.2972,108.986
 L 44.15,109.136 L 44.0072,109.301 L 43.8691,109.48 L 43.7362,109.672 L 43.6257,109.849 L 43.602,109.833
 L 42.0823,108.692 L 40.579,107.476 L 39.0931,106.187 L 37.6256,104.824 L 36.1776,103.39 L 34.75,101.885
 L 33.3438,100.311 L 31.9601,98.6671 L 30.5996,96.956 L 29.2634,95.1785 L 27.9524,93.3357 L 26.6675,91.4289
 L 25.4095,89.4595 L 24.1793,87.4288 L 22.9778,85.3382 L 21.8058,83.189 L 20.6641,80.9829 L 19.5534,78.7212
 L 18.4746,76.4057 L 17.4284,74.0377 L 16.4154,71.619 L 15.4364,69.1512 L 14.4921,66.636 L 13.5831,64.0752
 L 12.71,61.4704 L 11.8734,58.8235 L 11.0739,56.1363 L 10.3121,53.4106 L 9.58842,50.6484 L 8.90341,47.8514
 L 8.25753,45.0216 L 7.65122,42.1609 L 7.08491,39.2714 L 6.55897,36.3549 L 6.07377,33.4136 L 5.62964,30.4493
 L 5.22688,27.4642 L 4.86578,24.4602 L 4.54657,21.4395 L 4.26948,18.4041 L 4.0347,15.356 L 3.84238,12.2975
 L 3.69267,9.23048 L 3.58565,6.15717 L 3.52142,3.07964 L 3.5,-0 L -0.420415,-0 L -1.5921,-8.15
 L -11.6921,-8.15 z
M 45.9,119.294 L 45.9,116 L 45.9022,115.842 L 45.9088,115.685 L 45.9197,115.529 L 45.935,115.374
 L 45.9545,115.22 L 45.9783,115.069 L 46.0063,114.921 L 46.0383,114.775 L 46.0744,114.633 L 46.1144,114.494
 L 46.1581,114.36 L 46.2056,114.23 L 46.2566,114.105 L 46.311,113.985 L 46.3686,113.87 L 46.4294,113.762
 L 46.4931,113.659 L 46.5595,113.563 L 46.6286,113.474 L 46.7,113.392 L 46.7736,113.316 L 46.8492,113.249
 L 46.9266,113.188 L 47.0056,113.136 L 47.0859,113.091 L 47.1673,113.054 L 47.2497,113.025 L 47.3328,113.005
 L 47.4163,112.992 L 47.5,112.988 L 47.5837,112.992 L 47.6672,113.005 L 47.7503,113.025 L 47.8327,113.054
 L 47.9141,113.091 L 47.9944,113.136 L 48.0734,113.188 L 48.1508,113.249 L 48.2264,113.316 L 48.3,113.392
 L 48.3714,113.474 L 48.4405,113.563 L 48.5069,113.659 L 48.5706,113.762 L 48.6314,113.87 L 48.689,113.985
 L 48.7434,114.105 L 48.7944,114.23 L 48.8419,114.36 L 48.8856,114.494 L 48.9256,114.633 L 48.9617,114.775
 L 48.9937,114.921 L 49.0217,115.069 L 49.0455,115.22 L 49.065,115.374 L 49.0803,115.529 L 49.0912,115.685
 L 49.0978,115.842 L 49.1,116 L 49.1,119.294 L 49.0978,119.452 L 49.0912,119.609 L 49.0803,119.765
 L 49.065,119.92 L 49.0455,120.074 L 49.0217,120.225 L 48.9937,120.373 L 48.9617,120.519 L 48.9256,120.661
 L 48.8856,120.8 L 48.8419,120.934 L 48.7944,121.064 L 48.7434,121.189 L 48.689,121.309 L 48.6314,121.424
 L 48.5706,121.532 L 48.5069,121.635 L 48.4405,121.731 L 48.3714,121.82 L 48.3,121.902 L 48.2264,121.978
 L 48.1508,122.045 L 48.0734,122.106 L 47.9944,122.158 L 47.9141,122.203 L 47.8327,122.24 L 47.7503,122.269
 L 47.6672,122.289 L 47.5837,122.302 L 47.5,122.306 L 47.4163,122.302 L 47.3328,122.289 L 47.2497,122.269
 L 47.1673,122.24 L 47.0859,122.203 L 47.0056,122.158 L 46.9266,122.106 L 46.8492,122.045 L 46.7736,121.978
 L 46.7,121.902 L 46.6286,121.82 L 46.5595,121.731 L 46.4931,121.635 L 46.4294,121.532 L 46.3686,121.424
 L 46.311,121.309 L 46.2566,121.189 L 46.2056,121.064 L 46.1581,120.934 L 46.1144,120.8 L 46.0744,120.661
 L 46.0383,120.519 L 46.0063,120.373 L 45.9783,120.225 L 45.9545,120.074 L 45.935,119.92 L 45.9197,119.765
 L 45.9088,119.609 L 45.9022,119.452 z
" stroke="black" fill="lightgray" stroke-width="0.5"/></svg>
