  0
SECTION
  2
BLOCKS
  0
ENDSEC
  0
SECTION
  2
ENTITIES
  0
LINE
  8
0
 10
-68.2
 20
-82.5
 11
-65.22
 21
-82.5
  0
LINE
  8
0
 10
-65.22
 20
-82.5
 11
-65.22
 21
-97
  0
LINE
  8
0
 10
-65.22
 20
-97
 11
-65.22
 21
-97.0014
  0
LINE
  8
0
 10
-65.22
 20
-97.0014
 11
-65.2198
 21
-97.0028
  0
LINE
  8
0
 10
-65.2198
 20
-97.0028
 11
-65.2196
 21
-97.0042
  0
LINE
  8
0
 10
-65.2196
 20
-97.0042
 11
-65.2192
 21
-97.0055
  0
LINE
  8
0
 10
-65.2192
 20
-97.0055
 11
-65.2188
 21
-97.0068
  0
LINE
  8
0
 10
-65.2188
 20
-97.0068
 11
-65.2183
 21
-97.0081
  0
LINE
  8
0
 10
-65.2183
 20
-97.0081
 11
-65.2177
 21
-97.0094
  0
LINE
  8
0
 10
-65.2177
 20
-97.0094
 11
-65.217
 21
-97.0106
  0
LINE
  8
0
 10
-65.217
 20
-97.0106
 11
-65.2162
 21
-97.0118
  0
LINE
  8
0
 10
-65.2162
 20
-97.0118
 11
-65.2153
 21
-97.0129
  0
LINE
  8
0
 10
-65.2153
 20
-97.0129
 11
-65.2144
 21
-97.0139
  0
LINE
  8
0
 10
-65.2144
 20
-97.0139
 11
-65.2134
 21
-97.0149
  0
LINE
  8
0
 10
-65.2134
 20
-97.0149
 11
-65.2123
 21
-97.0158
  0
LINE
  8
0
 10
-65.2123
 20
-97.0158
 11
-65.2112
 21
-97.0166
  0
LINE
  8
0
 10
-65.2112
 20
-97.0166
 11
-65.21
 21
-97.0173
  0
LINE
  8
0
 10
-65.21
 20
-97.0173
 11
-65.2088
 21
-97.018
  0
LINE
  8
0
 10
-65.2088
 20
-97.018
 11
-65.2075
 21
-97.0185
  0
LINE
  8
0
 10
-65.2075
 20
-97.0185
 11
-65.2062
 21
-97.019
  0
LINE
  8
0
 10
-65.2062
 20
-97.019
 11
-65.2048
 21
-97.0194
  0
LINE
  8
0
 10
-65.2048
 20
-97.0194
 11
-65.2035
 21
-97.0197
  0
LINE
  8
0
 10
-65.2035
 20
-97.0197
 11
-65.2021
 21
-97.0199
  0
LINE
  8
0
 10
-65.2021
 20
-97.0199
 11
-65.2007
 21
-97.02
  0
LINE
  8
0
 10
-65.2007
 20
-97.02
 11
-50.325
 21
-97.02
  0
LINE
  8
0
 10
-50.325
 20
-97.02
 11
-50.325
 21
-100
  0
LINE
  8
0
 10
-50.325
 20
-100
 11
-35.325
 21
-100
  0
LINE
  8
0
 10
-35.325
 20
-100
 11
-35.325
 21
-97.02
  0
LINE
  8
0
 10
-35.325
 20
-97.02
 11
-7.5
 21
-97.02
  0
LINE
  8
0
 10
-7.5
 20
-97.02
 11
-7.5
 21
-100
  0
LINE
  8
0
 10
-7.5
 20
-100
 11
7.5
 21
-100
  0
LINE
  8
0
 10
7.5
 20
-100
 11
7.5
 21
-97.02
  0
LINE
  8
0
 10
7.5
 20
-97.02
 11
35.325
 21
-97.02
  0
LINE
  8
0
 10
35.325
 20
-97.02
 11
35.325
 21
-100
  0
LINE
  8
0
 10
35.325
 20
-100
 11
50.325
 21
-100
  0
LINE
  8
0
 10
50.325
 20
-100
 11
50.325
 21
-97.02
  0
LINE
  8
0
 10
50.325
 20
-97.02
 11
65.2007
 21
-97.02
  0
LINE
  8
0
 10
65.2007
 20
-97.02
 11
65.2021
 21
-97.0199
  0
LINE
  8
0
 10
65.2021
 20
-97.0199
 11
65.2035
 21
-97.0197
  0
LINE
  8
0
 10
65.2035
 20
-97.0197
 11
65.2048
 21
-97.0194
  0
LINE
  8
0
 10
65.2048
 20
-97.0194
 11
65.2062
 21
-97.019
  0
LINE
  8
0
 10
65.2062
 20
-97.019
 11
65.2075
 21
-97.0185
  0
LINE
  8
0
 10
65.2075
 20
-97.0185
 11
65.2088
 21
-97.018
  0
LINE
  8
0
 10
65.2088
 20
-97.018
 11
65.21
 21
-97.0173
  0
LINE
  8
0
 10
65.21
 20
-97.0173
 11
65.2112
 21
-97.0166
  0
LINE
  8
0
 10
65.2112
 20
-97.0166
 11
65.2123
 21
-97.0158
  0
LINE
  8
0
 10
65.2123
 20
-97.0158
 11
65.2134
 21
-97.0149
  0
LINE
  8
0
 10
65.2134
 20
-97.0149
 11
65.2144
 21
-97.0139
  0
LINE
  8
0
 10
65.2144
 20
-97.0139
 11
65.2153
 21
-97.0129
  0
LINE
  8
0
 10
65.2153
 20
-97.0129
 11
65.2162
 21
-97.0118
  0
LINE
  8
0
 10
65.2162
 20
-97.0118
 11
65.217
 21
-97.0106
  0
LINE
  8
0
 10
65.217
 20
-97.0106
 11
65.2177
 21
-97.0094
  0
LINE
  8
0
 10
65.2177
 20
-97.0094
 11
65.2183
 21
-97.0081
  0
LINE
  8
0
 10
65.2183
 20
-97.0081
 11
65.2188
 21
-97.0068
  0
LINE
  8
0
 10
65.2188
 20
-97.0068
 11
65.2192
 21
-97.0055
  0
LINE
  8
0
 10
65.2192
 20
-97.0055
 11
65.2196
 21
-97.0042
  0
LINE
  8
0
 10
65.2196
 20
-97.0042
 11
65.2198
 21
-97.0028
  0
LINE
  8
0
 10
65.2198
 20
-97.0028
 11
65.22
 21
-97.0014
  0
LINE
  8
0
 10
65.22
 20
-97.0014
 11
65.22
 21
-97
  0
LINE
  8
0
 10
65.22
 20
-97
 11
65.22
 21
-82.5
  0
LINE
  8
0
 10
65.22
 20
-82.5
 11
68.2
 21
-82.5
  0
LINE
  8
0
 10
68.2
 20
-82.5
 11
68.2
 21
-67.5
  0
LINE
  8
0
 10
68.2
 20
-67.5
 11
65.22
 21
-67.5
  0
LINE
  8
0
 10
65.22
 20
-67.5
 11
65.22
 21
-45
  0
LINE
  8
0
 10
65.22
 20
-45
 11
68.2
 21
-45
  0
LINE
  8
0
 10
68.2
 20
-45
 11
68.2
 21
-30
  0
LINE
  8
0
 10
68.2
 20
-30
 11
65.22
 21
-30
  0
LINE
  8
0
 10
65.22
 20
-30
 11
65.22
 21
-7.5
  0
LINE
  8
0
 10
65.22
 20
-7.5
 11
68.2
 21
-7.5
  0
LINE
  8
0
 10
68.2
 20
-7.5
 11
68.2
 21
7.5
  0
LINE
  8
0
 10
68.2
 20
7.5
 11
65.22
 21
7.5
  0
LINE
  8
0
 10
65.22
 20
7.5
 11
65.22
 21
30
  0
LINE
  8
0
 10
65.22
 20
30
 11
68.2
 21
30
  0
LINE
  8
0
 10
68.2
 20
30
 11
68.2
 21
45
  0
LINE
  8
0
 10
68.2
 20
45
 11
65.22
 21
45
  0
LINE
  8
0
 10
65.22
 20
45
 11
65.22
 21
67.5
  0
LINE
  8
0
 10
65.22
 20
67.5
 11
68.2
 21
67.5
  0
LINE
  8
0
 10
68.2
 20
67.5
 11
68.2
 21
82.5
  0
LINE
  8
0
 10
68.2
 20
82.5
 11
65.22
 21
82.5
  0
LINE
  8
0
 10
65.22
 20
82.5
 11
65.22
 21
97
  0
LINE
  8
0
 10
65.22
 20
97
 11
65.22
 21
97.0014
  0
LINE
  8
0
 10
65.22
 20
97.0014
 11
65.2198
 21
97.0028
  0
LINE
  8
0
 10
65.2198
 20
97.0028
 11
65.2196
 21
97.0042
  0
LINE
  8
0
 10
65.2196
 20
97.0042
 11
65.2192
 21
97.0055
  0
LINE
  8
0
 10
65.2192
 20
97.0055
 11
65.2188
 21
97.0068
  0
LINE
  8
0
 10
65.2188
 20
97.0068
 11
65.2183
 21
97.0081
  0
LINE
  8
0
 10
65.2183
 20
97.0081
 11
65.2177
 21
97.0094
  0
LINE
  8
0
 10
65.2177
 20
97.0094
 11
65.217
 21
97.0106
  0
LINE
  8
0
 10
65.217
 20
97.0106
 11
65.2162
 21
97.0118
  0
LINE
  8
0
 10
65.2162
 20
97.0118
 11
65.2153
 21
97.0129
  0
LINE
  8
0
 10
65.2153
 20
97.0129
 11
65.2144
 21
97.0139
  0
LINE
  8
0
 10
65.2144
 20
97.0139
 11
65.2134
 21
97.0149
  0
LINE
  8
0
 10
65.2134
 20
97.0149
 11
65.2123
 21
97.0158
  0
LINE
  8
0
 10
65.2123
 20
97.0158
 11
65.2112
 21
97.0166
  0
LINE
  8
0
 10
65.2112
 20
97.0166
 11
65.21
 21
97.0173
  0
LINE
  8
0
 10
65.21
 20
97.0173
 11
65.2088
 21
97.018
  0
LINE
  8
0
 10
65.2088
 20
97.018
 11
65.2075
 21
97.0185
  0
LINE
  8
0
 10
65.2075
 20
97.0185
 11
65.2062
 21
97.019
  0
LINE
  8
0
 10
65.2062
 20
97.019
 11
65.2048
 21
97.0194
  0
LINE
  8
0
 10
65.2048
 20
97.0194
 11
65.2035
 21
97.0197
  0
LINE
  8
0
 10
65.2035
 20
97.0197
 11
65.2021
 21
97.0199
  0
LINE
  8
0
 10
65.2021
 20
97.0199
 11
65.2007
 21
97.02
  0
LINE
  8
0
 10
65.2007
 20
97.02
 11
50.325
 21
97.02
  0
LINE
  8
0
 10
50.325
 20
97.02
 11
50.325
 21
100
  0
LINE
  8
0
 10
50.325
 20
100
 11
35.325
 21
100
  0
LINE
  8
0
 10
35.325
 20
100
 11
35.325
 21
97.02
  0
LINE
  8
0
 10
35.325
 20
97.02
 11
7.5
 21
97.02
  0
LINE
  8
0
 10
7.5
 20
97.02
 11
7.5
 21
100
  0
LINE
  8
0
 10
7.5
 20
100
 11
-7.5
 21
100
  0
LINE
  8
0
 10
-7.5
 20
100
 11
-7.5
 21
97.02
  0
LINE
  8
0
 10
-7.5
 20
97.02
 11
-35.325
 21
97.02
  0
LINE
  8
0
 10
-35.325
 20
97.02
 11
-35.325
 21
100
  0
LINE
  8
0
 10
-35.325
 20
100
 11
-50.325
 21
100
  0
LINE
  8
0
 10
-50.325
 20
100
 11
-50.325
 21
97.02
  0
LINE
  8
0
 10
-50.325
 20
97.02
 11
-65.2007
 21
97.02
  0
LINE
  8
0
 10
-65.2007
 20
97.02
 11
-65.2021
 21
97.0199
  0
LINE
  8
0
 10
-65.2021
 20
97.0199
 11
-65.2035
 21
97.0197
  0
LINE
  8
0
 10
-65.2035
 20
97.0197
 11
-65.2048
 21
97.0194
  0
LINE
  8
0
 10
-65.2048
 20
97.0194
 11
-65.2062
 21
97.019
  0
LINE
  8
0
 10
-65.2062
 20
97.019
 11
-65.2075
 21
97.0185
  0
LINE
  8
0
 10
-65.2075
 20
97.0185
 11
-65.2088
 21
97.018
  0
LINE
  8
0
 10
-65.2088
 20
97.018
 11
-65.21
 21
97.0173
  0
LINE
  8
0
 10
-65.21
 20
97.0173
 11
-65.2112
 21
97.0166
  0
LINE
  8
0
 10
-65.2112
 20
97.0166
 11
-65.2123
 21
97.0158
  0
LINE
  8
0
 10
-65.2123
 20
97.0158
 11
-65.2134
 21
97.0149
  0
LINE
  8
0
 10
-65.2134
 20
97.0149
 11
-65.2144
 21
97.0139
  0
LINE
  8
0
 10
-65.2144
 20
97.0139
 11
-65.2153
 21
97.0129
  0
LINE
  8
0
 10
-65.2153
 20
97.0129
 11
-65.2162
 21
97.0118
  0
LINE
  8
0
 10
-65.2162
 20
97.0118
 11
-65.217
 21
97.0106
  0
LINE
  8
0
 10
-65.217
 20
97.0106
 11
-65.2177
 21
97.0094
  0
LINE
  8
0
 10
-65.2177
 20
97.0094
 11
-65.2183
 21
97.0081
  0
LINE
  8
0
 10
-65.2183
 20
97.0081
 11
-65.2188
 21
97.0068
  0
LINE
  8
0
 10
-65.2188
 20
97.0068
 11
-65.2192
 21
97.0055
  0
LINE
  8
0
 10
-65.2192
 20
97.0055
 11
-65.2196
 21
97.0042
  0
LINE
  8
0
 10
-65.2196
 20
97.0042
 11
-65.2198
 21
97.0028
  0
LINE
  8
0
 10
-65.2198
 20
97.0028
 11
-65.22
 21
97.0014
  0
LINE
  8
0
 10
-65.22
 20
97.0014
 11
-65.22
 21
97
  0
LINE
  8
0
 10
-65.22
 20
97
 11
-65.22
 21
82.5
  0
LINE
  8
0
 10
-65.22
 20
82.5
 11
-68.2
 21
82.5
  0
LINE
  8
0
 10
-68.2
 20
82.5
 11
-68.2
 21
67.5
  0
LINE
  8
0
 10
-68.2
 20
67.5
 11
-65.22
 21
67.5
  0
LINE
  8
0
 10
-65.22
 20
67.5
 11
-65.22
 21
45
  0
LINE
  8
0
 10
-65.22
 20
45
 11
-68.2
 21
45
  0
LINE
  8
0
 10
-68.2
 20
45
 11
-68.2
 21
30
  0
LINE
  8
0
 10
-68.2
 20
30
 11
-65.22
 21
30
  0
LINE
  8
0
 10
-65.22
 20
30
 11
-65.22
 21
7.5
  0
LINE
  8
0
 10
-65.22
 20
7.5
 11
-68.2
 21
7.5
  0
LINE
  8
0
 10
-68.2
 20
7.5
 11
-68.2
 21
-7.5
  0
LINE
  8
0
 10
-68.2
 20
-7.5
 11
-65.22
 21
-7.5
  0
LINE
  8
0
 10
-65.22
 20
-7.5
 11
-65.22
 21
-30
  0
LINE
  8
0
 10
-65.22
 20
-30
 11
-68.2
 21
-30
  0
LINE
  8
0
 10
-68.2
 20
-30
 11
-68.2
 21
-45
  0
LINE
  8
0
 10
-68.2
 20
-45
 11
-65.22
 21
-45
  0
LINE
  8
0
 10
-65.22
 20
-45
 11
-65.22
 21
-67.5
  0
LINE
  8
0
 10
-65.22
 20
-67.5
 11
-68.2
 21
-67.5
  0
LINE
  8
0
 10
-68.2
 20
-67.5
 11
-68.2
 21
-82.5
  0
LINE
  8
0
 10
-43.47
 20
-20
 11
-43.4615
 21
-19.7559
  0
LINE
  8
0
 10
-43.4615
 20
-19.7559
 11
-43.4359
 21
-19.5129
  0
LINE
  8
0
 10
-43.4359
 20
-19.5129
 11
-43.3935
 21
-19.2723
  0
LINE
  8
0
 10
-43.3935
 20
-19.2723
 11
-43.3344
 21
-19.0353
  0
LINE
  8
0
 10
-43.3344
 20
-19.0353
 11
-43.2589
 21
-18.8029
  0
LINE
  8
0
 10
-43.2589
 20
-18.8029
 11
-43.1674
 21
-18.5764
  0
LINE
  8
0
 10
-43.1674
 20
-18.5764
 11
-43.0603
 21
-18.3568
  0
LINE
  8
0
 10
-43.0603
 20
-18.3568
 11
-42.9382
 21
-18.1453
  0
LINE
  8
0
 10
-42.9382
 20
-18.1453
 11
-42.8016
 21
-17.9428
  0
LINE
  8
0
 10
-42.8016
 20
-17.9428
 11
-42.6512
 21
-17.7502
  0
LINE
  8
0
 10
-42.6512
 20
-17.7502
 11
-42.4877
 21
-17.5687
  0
LINE
  8
0
 10
-42.4877
 20
-17.5687
 11
-42.312
 21
-17.399
  0
LINE
  8
0
 10
-42.312
 20
-17.399
 11
-42.1248
 21
-17.242
  0
LINE
  8
0
 10
-42.1248
 20
-17.242
 11
-41.9272
 21
-17.0984
  0
LINE
  8
0
 10
-41.9272
 20
-17.0984
 11
-41.72
 21
-16.9689
  0
LINE
  8
0
 10
-41.72
 20
-16.9689
 11
-41.5043
 21
-16.8542
  0
LINE
  8
0
 10
-41.5043
 20
-16.8542
 11
-41.2811
 21
-16.7549
  0
LINE
  8
0
 10
-41.2811
 20
-16.7549
 11
-41.0516
 21
-16.6713
  0
LINE
  8
0
 10
-41.0516
 20
-16.6713
 11
-40.8167
 21
-16.604
  0
LINE
  8
0
 10
-40.8167
 20
-16.604
 11
-40.5778
 21
-16.5532
  0
LINE
  8
0
 10
-40.5778
 20
-16.5532
 11
-40.3358
 21
-16.5192
  0
LINE
  8
0
 10
-40.3358
 20
-16.5192
 11
-40.0921
 21
-16.5021
  0
LINE
  8
0
 10
-40.0921
 20
-16.5021
 11
-39.8479
 21
-16.5021
  0
LINE
  8
0
 10
-39.8479
 20
-16.5021
 11
-39.6042
 21
-16.5192
  0
LINE
  8
0
 10
-39.6042
 20
-16.5192
 11
-39.3622
 21
-16.5532
  0
LINE
  8
0
 10
-39.3622
 20
-16.5532
 11
-39.1233
 21
-16.604
  0
LINE
  8
0
 10
-39.1233
 20
-16.604
 11
-38.8884
 21
-16.6713
  0
LINE
  8
0
 10
-38.8884
 20
-16.6713
 11
-38.6589
 21
-16.7549
  0
LINE
  8
0
 10
-38.6589
 20
-16.7549
 11
-38.4357
 21
-16.8542
  0
LINE
  8
0
 10
-38.4357
 20
-16.8542
 11
-38.22
 21
-16.9689
  0
LINE
  8
0
 10
-38.22
 20
-16.9689
 11
-38.0128
 21
-17.0984
  0
LINE
  8
0
 10
-38.0128
 20
-17.0984
 11
-37.8152
 21
-17.242
  0
LINE
  8
0
 10
-37.8152
 20
-17.242
 11
-37.628
 21
-17.399
  0
LINE
  8
0
 10
-37.628
 20
-17.399
 11
-37.4523
 21
-17.5687
  0
LINE
  8
0
 10
-37.4523
 20
-17.5687
 11
-37.2888
 21
-17.7502
  0
LINE
  8
0
 10
-37.2888
 20
-17.7502
 11
-37.1384
 21
-17.9428
  0
LINE
  8
0
 10
-37.1384
 20
-17.9428
 11
-37.0018
 21
-18.1453
  0
LINE
  8
0
 10
-37.0018
 20
-18.1453
 11
-36.8797
 21
-18.3568
  0
LINE
  8
0
 10
-36.8797
 20
-18.3568
 11
-36.7726
 21
-18.5764
  0
LINE
  8
0
 10
-36.7726
 20
-18.5764
 11
-36.6811
 21
-18.8029
  0
LINE
  8
0
 10
-36.6811
 20
-18.8029
 11
-36.6056
 21
-19.0353
  0
LINE
  8
0
 10
-36.6056
 20
-19.0353
 11
-36.5465
 21
-19.2723
  0
LINE
  8
0
 10
-36.5465
 20
-19.2723
 11
-36.5041
 21
-19.5129
  0
LINE
  8
0
 10
-36.5041
 20
-19.5129
 11
-36.4785
 21
-19.7559
  0
LINE
  8
0
 10
-36.4785
 20
-19.7559
 11
-36.47
 21
-20
  0
LINE
  8
0
 10
-36.47
 20
-20
 11
-36.4785
 21
-20.2441
  0
LINE
  8
0
 10
-36.4785
 20
-20.2441
 11
-36.5041
 21
-20.4871
  0
LINE
  8
0
 10
-36.5041
 20
-20.4871
 11
-36.5465
 21
-20.7277
  0
LINE
  8
0
 10
-36.5465
 20
-20.7277
 11
-36.6056
 21
-20.9647
  0
LINE
  8
0
 10
-36.6056
 20
-20.9647
 11
-36.6811
 21
-21.1971
  0
LINE
  8
0
 10
-36.6811
 20
-21.1971
 11
-36.7726
 21
-21.4236
  0
LINE
  8
0
 10
-36.7726
 20
-21.4236
 11
-36.8797
 21
-21.6432
  0
LINE
  8
0
 10
-36.8797
 20
-21.6432
 11
-37.0018
 21
-21.8547
  0
LINE
  8
0
 10
-37.0018
 20
-21.8547
 11
-37.1384
 21
-22.0572
  0
LINE
  8
0
 10
-37.1384
 20
-22.0572
 11
-37.2888
 21
-22.2498
  0
LINE
  8
0
 10
-37.2888
 20
-22.2498
 11
-37.4523
 21
-22.4313
  0
LINE
  8
0
 10
-37.4523
 20
-22.4313
 11
-37.628
 21
-22.601
  0
LINE
  8
0
 10
-37.628
 20
-22.601
 11
-37.8152
 21
-22.758
  0
LINE
  8
0
 10
-37.8152
 20
-22.758
 11
-38.0128
 21
-22.9016
  0
LINE
  8
0
 10
-38.0128
 20
-22.9016
 11
-38.22
 21
-23.0311
  0
LINE
  8
0
 10
-38.22
 20
-23.0311
 11
-38.4357
 21
-23.1458
  0
LINE
  8
0
 10
-38.4357
 20
-23.1458
 11
-38.6589
 21
-23.2451
  0
LINE
  8
0
 10
-38.6589
 20
-23.2451
 11
-38.8884
 21
-23.3287
  0
LINE
  8
0
 10
-38.8884
 20
-23.3287
 11
-39.1233
 21
-23.396
  0
LINE
  8
0
 10
-39.1233
 20
-23.396
 11
-39.3622
 21
-23.4468
  0
LINE
  8
0
 10
-39.3622
 20
-23.4468
 11
-39.6042
 21
-23.4808
  0
LINE
  8
0
 10
-39.6042
 20
-23.4808
 11
-39.8479
 21
-23.4979
  0
LINE
  8
0
 10
-39.8479
 20
-23.4979
 11
-40.0921
 21
-23.4979
  0
LINE
  8
0
 10
-40.0921
 20
-23.4979
 11
-40.3358
 21
-23.4808
  0
LINE
  8
0
 10
-40.3358
 20
-23.4808
 11
-40.5778
 21
-23.4468
  0
LINE
  8
0
 10
-40.5778
 20
-23.4468
 11
-40.8167
 21
-23.396
  0
LINE
  8
0
 10
-40.8167
 20
-23.396
 11
-41.0516
 21
-23.3287
  0
LINE
  8
0
 10
-41.0516
 20
-23.3287
 11
-41.2811
 21
-23.2451
  0
LINE
  8
0
 10
-41.2811
 20
-23.2451
 11
-41.5043
 21
-23.1458
  0
LINE
  8
0
 10
-41.5043
 20
-23.1458
 11
-41.72
 21
-23.0311
  0
LINE
  8
0
 10
-41.72
 20
-23.0311
 11
-41.9272
 21
-22.9016
  0
LINE
  8
0
 10
-41.9272
 20
-22.9016
 11
-42.1248
 21
-22.758
  0
LINE
  8
0
 10
-42.1248
 20
-22.758
 11
-42.312
 21
-22.601
  0
LINE
  8
0
 10
-42.312
 20
-22.601
 11
-42.4877
 21
-22.4313
  0
LINE
  8
0
 10
-42.4877
 20
-22.4313
 11
-42.6512
 21
-22.2498
  0
LINE
  8
0
 10
-42.6512
 20
-22.2498
 11
-42.8016
 21
-22.0572
  0
LINE
  8
0
 10
-42.8016
 20
-22.0572
 11
-42.9382
 21
-21.8547
  0
LINE
  8
0
 10
-42.9382
 20
-21.8547
 11
-43.0603
 21
-21.6432
  0
LINE
  8
0
 10
-43.0603
 20
-21.6432
 11
-43.1674
 21
-21.4236
  0
LINE
  8
0
 10
-43.1674
 20
-21.4236
 11
-43.2589
 21
-21.1971
  0
LINE
  8
0
 10
-43.2589
 20
-21.1971
 11
-43.3344
 21
-20.9647
  0
LINE
  8
0
 10
-43.3344
 20
-20.9647
 11
-43.3935
 21
-20.7277
  0
LINE
  8
0
 10
-43.3935
 20
-20.7277
 11
-43.4359
 21
-20.4871
  0
LINE
  8
0
 10
-43.4359
 20
-20.4871
 11
-43.4615
 21
-20.2441
  0
LINE
  8
0
 10
-43.4615
 20
-20.2441
 11
-43.47
 21
-20
  0
LINE
  8
0
 10
-43.47
 20
20
 11
-43.4615
 21
20.2441
  0
LINE
  8
0
 10
-43.4615
 20
20.2441
 11
-43.4359
 21
20.4871
  0
LINE
  8
0
 10
-43.4359
 20
20.4871
 11
-43.3935
 21
20.7277
  0
LINE
  8
0
 10
-43.3935
 20
20.7277
 11
-43.3344
 21
20.9647
  0
LINE
  8
0
 10
-43.3344
 20
20.9647
 11
-43.2589
 21
21.1971
  0
LINE
  8
0
 10
-43.2589
 20
21.1971
 11
-43.1674
 21
21.4236
  0
LINE
  8
0
 10
-43.1674
 20
21.4236
 11
-43.0603
 21
21.6432
  0
LINE
  8
0
 10
-43.0603
 20
21.6432
 11
-42.9382
 21
21.8547
  0
LINE
  8
0
 10
-42.9382
 20
21.8547
 11
-42.8016
 21
22.0572
  0
LINE
  8
0
 10
-42.8016
 20
22.0572
 11
-42.6512
 21
22.2498
  0
LINE
  8
0
 10
-42.6512
 20
22.2498
 11
-42.4877
 21
22.4313
  0
LINE
  8
0
 10
-42.4877
 20
22.4313
 11
-42.312
 21
22.601
  0
LINE
  8
0
 10
-42.312
 20
22.601
 11
-42.1248
 21
22.758
  0
LINE
  8
0
 10
-42.1248
 20
22.758
 11
-41.9272
 21
22.9016
  0
LINE
  8
0
 10
-41.9272
 20
22.9016
 11
-41.72
 21
23.0311
  0
LINE
  8
0
 10
-41.72
 20
23.0311
 11
-41.5043
 21
23.1458
  0
LINE
  8
0
 10
-41.5043
 20
23.1458
 11
-41.2811
 21
23.2451
  0
LINE
  8
0
 10
-41.2811
 20
23.2451
 11
-41.0516
 21
23.3287
  0
LINE
  8
0
 10
-41.0516
 20
23.3287
 11
-40.8167
 21
23.396
  0
LINE
  8
0
 10
-40.8167
 20
23.396
 11
-40.5778
 21
23.4468
  0
LINE
  8
0
 10
-40.5778
 20
23.4468
 11
-40.3358
 21
23.4808
  0
LINE
  8
0
 10
-40.3358
 20
23.4808
 11
-40.0921
 21
23.4979
  0
LINE
  8
0
 10
-40.0921
 20
23.4979
 11
-39.8479
 21
23.4979
  0
LINE
  8
0
 10
-39.8479
 20
23.4979
 11
-39.6042
 21
23.4808
  0
LINE
  8
0
 10
-39.6042
 20
23.4808
 11
-39.3622
 21
23.4468
  0
LINE
  8
0
 10
-39.3622
 20
23.4468
 11
-39.1233
 21
23.396
  0
LINE
  8
0
 10
-39.1233
 20
23.396
 11
-38.8884
 21
23.3287
  0
LINE
  8
0
 10
-38.8884
 20
23.3287
 11
-38.6589
 21
23.2451
  0
LINE
  8
0
 10
-38.6589
 20
23.2451
 11
-38.4357
 21
23.1458
  0
LINE
  8
0
 10
-38.4357
 20
23.1458
 11
-38.22
 21
23.0311
  0
LINE
  8
0
 10
-38.22
 20
23.0311
 11
-38.0128
 21
22.9016
  0
LINE
  8
0
 10
-38.0128
 20
22.9016
 11
-37.8152
 21
22.758
  0
LINE
  8
0
 10
-37.8152
 20
22.758
 11
-37.628
 21
22.601
  0
LINE
  8
0
 10
-37.628
 20
22.601
 11
-37.4523
 21
22.4313
  0
LINE
  8
0
 10
-37.4523
 20
22.4313
 11
-37.2888
 21
22.2498
  0
LINE
  8
0
 10
-37.2888
 20
22.2498
 11
-37.1384
 21
22.0572
  0
LINE
  8
0
 10
-37.1384
 20
22.0572
 11
-37.0018
 21
21.8547
  0
LINE
  8
0
 10
-37.0018
 20
21.8547
 11
-36.8797
 21
21.6432
  0
LINE
  8
0
 10
-36.8797
 20
21.6432
 11
-36.7726
 21
21.4236
  0
LINE
  8
0
 10
-36.7726
 20
21.4236
 11
-36.6811
 21
21.1971
  0
LINE
  8
0
 10
-36.6811
 20
21.1971
 11
-36.6056
 21
20.9647
  0
LINE
  8
0
 10
-36.6056
 20
20.9647
 11
-36.5465
 21
20.7277
  0
LINE
  8
0
 10
-36.5465
 20
20.7277
 11
-36.5041
 21
20.4871
  0
LINE
  8
0
 10
-36.5041
 20
20.4871
 11
-36.4785
 21
20.2441
  0
LINE
  8
0
 10
-36.4785
 20
20.2441
 11
-36.47
 21
20
  0
LINE
  8
0
 10
-36.47
 20
20
 11
-36.4785
 21
19.7559
  0
LINE
  8
0
 10
-36.4785
 20
19.7559
 11
-36.5041
 21
19.5129
  0
LINE
  8
0
 10
-36.5041
 20
19.5129
 11
-36.5465
 21
19.2723
  0
LINE
  8
0
 10
-36.5465
 20
19.2723
 11
-36.6056
 21
19.0353
  0
LINE
  8
0
 10
-36.6056
 20
19.0353
 11
-36.6811
 21
18.8029
  0
LINE
  8
0
 10
-36.6811
 20
18.8029
 11
-36.7726
 21
18.5764
  0
LINE
  8
0
 10
-36.7726
 20
18.5764
 11
-36.8797
 21
18.3568
  0
LINE
  8
0
 10
-36.8797
 20
18.3568
 11
-37.0018
 21
18.1453
  0
LINE
  8
0
 10
-37.0018
 20
18.1453
 11
-37.1384
 21
17.9428
  0
LINE
  8
0
 10
-37.1384
 20
17.9428
 11
-37.2888
 21
17.7502
  0
LINE
  8
0
 10
-37.2888
 20
17.7502
 11
-37.4523
 21
17.5687
  0
LINE
  8
0
 10
-37.4523
 20
17.5687
 11
-37.628
 21
17.399
  0
LINE
  8
0
 10
-37.628
 20
17.399
 11
-37.8152
 21
17.242
  0
LINE
  8
0
 10
-37.8152
 20
17.242
 11
-38.0128
 21
17.0984
  0
LINE
  8
0
 10
-38.0128
 20
17.0984
 11
-38.22
 21
16.9689
  0
LINE
  8
0
 10
-38.22
 20
16.9689
 11
-38.4357
 21
16.8542
  0
LINE
  8
0
 10
-38.4357
 20
16.8542
 11
-38.6589
 21
16.7549
  0
LINE
  8
0
 10
-38.6589
 20
16.7549
 11
-38.8884
 21
16.6713
  0
LINE
  8
0
 10
-38.8884
 20
16.6713
 11
-39.1233
 21
16.604
  0
LINE
  8
0
 10
-39.1233
 20
16.604
 11
-39.3622
 21
16.5532
  0
LINE
  8
0
 10
-39.3622
 20
16.5532
 11
-39.6042
 21
16.5192
  0
LINE
  8
0
 10
-39.6042
 20
16.5192
 11
-39.8479
 21
16.5021
  0
LINE
  8
0
 10
-39.8479
 20
16.5021
 11
-40.0921
 21
16.5021
  0
LINE
  8
0
 10
-40.0921
 20
16.5021
 11
-40.3358
 21
16.5192
  0
LINE
  8
0
 10
-40.3358
 20
16.5192
 11
-40.5778
 21
16.5532
  0
LINE
  8
0
 10
-40.5778
 20
16.5532
 11
-40.8167
 21
16.604
  0
LINE
  8
0
 10
-40.8167
 20
16.604
 11
-41.0516
 21
16.6713
  0
LINE
  8
0
 10
-41.0516
 20
16.6713
 11
-41.2811
 21
16.7549
  0
LINE
  8
0
 10
-41.2811
 20
16.7549
 11
-41.5043
 21
16.8542
  0
LINE
  8
0
 10
-41.5043
 20
16.8542
 11
-41.72
 21
16.9689
  0
LINE
  8
0
 10
-41.72
 20
16.9689
 11
-41.9272
 21
17.0984
  0
LINE
  8
0
 10
-41.9272
 20
17.0984
 11
-42.1248
 21
17.242
  0
LINE
  8
0
 10
-42.1248
 20
17.242
 11
-42.312
 21
17.399
  0
LINE
  8
0
 10
-42.312
 20
17.399
 11
-42.4877
 21
17.5687
  0
LINE
  8
0
 10
-42.4877
 20
17.5687
 11
-42.6512
 21
17.7502
  0
LINE
  8
0
 10
-42.6512
 20
17.7502
 11
-42.8016
 21
17.9428
  0
LINE
  8
0
 10
-42.8016
 20
17.9428
 11
-42.9382
 21
18.1453
  0
LINE
  8
0
 10
-42.9382
 20
18.1453
 11
-43.0603
 21
18.3568
  0
LINE
  8
0
 10
-43.0603
 20
18.3568
 11
-43.1674
 21
18.5764
  0
LINE
  8
0
 10
-43.1674
 20
18.5764
 11
-43.2589
 21
18.8029
  0
LINE
  8
0
 10
-43.2589
 20
18.8029
 11
-43.3344
 21
19.0353
  0
LINE
  8
0
 10
-43.3344
 20
19.0353
 11
-43.3935
 21
19.2723
  0
LINE
  8
0
 10
-43.3935
 20
19.2723
 11
-43.4359
 21
19.5129
  0
LINE
  8
0
 10
-43.4359
 20
19.5129
 11
-43.4615
 21
19.7559
  0
LINE
  8
0
 10
-43.4615
 20
19.7559
 11
-43.47
 21
20
  0
LINE
  8
0
 10
-43.4679
 20
-63.3699
 11
-43.4508
 21
-63.1262
  0
LINE
  8
0
 10
-43.4508
 20
-63.1262
 11
-43.4168
 21
-62.8843
  0
LINE
  8
0
 10
-43.4168
 20
-62.8843
 11
-43.366
 21
-62.6453
  0
LINE
  8
0
 10
-43.366
 20
-62.6453
 11
-43.2987
 21
-62.4105
  0
LINE
  8
0
 10
-43.2987
 20
-62.4105
 11
-43.2151
 21
-62.1809
  0
LINE
  8
0
 10
-43.2151
 20
-62.1809
 11
-43.1158
 21
-61.9578
  0
LINE
  8
0
 10
-43.1158
 20
-61.9578
 11
-43.0011
 21
-61.7421
  0
LINE
  8
0
 10
-43.0011
 20
-61.7421
 11
-42.8716
 21
-61.5349
  0
LINE
  8
0
 10
-42.8716
 20
-61.5349
 11
-42.728
 21
-61.3372
  0
LINE
  8
0
 10
-42.728
 20
-61.3372
 11
-42.571
 21
-61.1501
  0
LINE
  8
0
 10
-42.571
 20
-61.1501
 11
-42.4013
 21
-60.9744
  0
LINE
  8
0
 10
-42.4013
 20
-60.9744
 11
-42.2198
 21
-60.8109
  0
LINE
  8
0
 10
-42.2198
 20
-60.8109
 11
-42.0272
 21
-60.6605
  0
LINE
  8
0
 10
-42.0272
 20
-60.6605
 11
-41.8247
 21
-60.5239
  0
LINE
  8
0
 10
-41.8247
 20
-60.5239
 11
-41.6132
 21
-60.4017
  0
LINE
  8
0
 10
-41.6132
 20
-60.4017
 11
-41.3936
 21
-60.2947
  0
LINE
  8
0
 10
-41.3936
 20
-60.2947
 11
-41.1671
 21
-60.2031
  0
LINE
  8
0
 10
-41.1671
 20
-60.2031
 11
-40.9347
 21
-60.1276
  0
LINE
  8
0
 10
-40.9347
 20
-60.1276
 11
-40.6977
 21
-60.0685
  0
LINE
  8
0
 10
-40.6977
 20
-60.0685
 11
-40.4571
 21
-60.0261
  0
LINE
  8
0
 10
-40.4571
 20
-60.0261
 11
-40.2141
 21
-60.0006
  0
LINE
  8
0
 10
-40.2141
 20
-60.0006
 11
-39.97
 21
-59.9921
  0
LINE
  8
0
 10
-39.97
 20
-59.9921
 11
-39.7259
 21
-60.0006
  0
LINE
  8
0
 10
-39.7259
 20
-60.0006
 11
-39.4829
 21
-60.0261
  0
LINE
  8
0
 10
-39.4829
 20
-60.0261
 11
-39.2423
 21
-60.0685
  0
LINE
  8
0
 10
-39.2423
 20
-60.0685
 11
-39.0053
 21
-60.1276
  0
LINE
  8
0
 10
-39.0053
 20
-60.1276
 11
-38.7729
 21
-60.2031
  0
LINE
  8
0
 10
-38.7729
 20
-60.2031
 11
-38.5464
 21
-60.2947
  0
LINE
  8
0
 10
-38.5464
 20
-60.2947
 11
-38.3268
 21
-60.4017
  0
LINE
  8
0
 10
-38.3268
 20
-60.4017
 11
-38.1153
 21
-60.5239
  0
LINE
  8
0
 10
-38.1153
 20
-60.5239
 11
-37.9128
 21
-60.6605
  0
LINE
  8
0
 10
-37.9128
 20
-60.6605
 11
-37.7202
 21
-60.8109
  0
LINE
  8
0
 10
-37.7202
 20
-60.8109
 11
-37.5387
 21
-60.9744
  0
LINE
  8
0
 10
-37.5387
 20
-60.9744
 11
-37.369
 21
-61.1501
  0
LINE
  8
0
 10
-37.369
 20
-61.1501
 11
-37.212
 21
-61.3372
  0
LINE
  8
0
 10
-37.212
 20
-61.3372
 11
-37.0684
 21
-61.5349
  0
LINE
  8
0
 10
-37.0684
 20
-61.5349
 11
-36.9389
 21
-61.7421
  0
LINE
  8
0
 10
-36.9389
 20
-61.7421
 11
-36.8242
 21
-61.9578
  0
LINE
  8
0
 10
-36.8242
 20
-61.9578
 11
-36.7249
 21
-62.1809
  0
LINE
  8
0
 10
-36.7249
 20
-62.1809
 11
-36.6413
 21
-62.4105
  0
LINE
  8
0
 10
-36.6413
 20
-62.4105
 11
-36.574
 21
-62.6453
  0
LINE
  8
0
 10
-36.574
 20
-62.6453
 11
-36.5232
 21
-62.8843
  0
LINE
  8
0
 10
-36.5232
 20
-62.8843
 11
-36.4892
 21
-63.1262
  0
LINE
  8
0
 10
-36.4892
 20
-63.1262
 11
-36.4721
 21
-63.3699
  0
LINE
  8
0
 10
-36.4721
 20
-63.3699
 11
-36.4721
 21
-63.6142
  0
LINE
  8
0
 10
-36.4721
 20
-63.6142
 11
-36.4892
 21
-63.8579
  0
LINE
  8
0
 10
-36.4892
 20
-63.8579
 11
-36.5232
 21
-64.0998
  0
LINE
  8
0
 10
-36.5232
 20
-64.0998
 11
-36.574
 21
-64.3388
  0
LINE
  8
0
 10
-36.574
 20
-64.3388
 11
-36.6413
 21
-64.5736
  0
LINE
  8
0
 10
-36.6413
 20
-64.5736
 11
-36.7249
 21
-64.8032
  0
LINE
  8
0
 10
-36.7249
 20
-64.8032
 11
-36.8242
 21
-65.0264
  0
LINE
  8
0
 10
-36.8242
 20
-65.0264
 11
-36.9389
 21
-65.2421
  0
LINE
  8
0
 10
-36.9389
 20
-65.2421
 11
-37.0684
 21
-65.4492
  0
LINE
  8
0
 10
-37.0684
 20
-65.4492
 11
-37.212
 21
-65.6469
  0
LINE
  8
0
 10
-37.212
 20
-65.6469
 11
-37.369
 21
-65.834
  0
LINE
  8
0
 10
-37.369
 20
-65.834
 11
-37.5387
 21
-66.0098
  0
LINE
  8
0
 10
-37.5387
 20
-66.0098
 11
-37.7202
 21
-66.1732
  0
LINE
  8
0
 10
-37.7202
 20
-66.1732
 11
-37.9128
 21
-66.3236
  0
LINE
  8
0
 10
-37.9128
 20
-66.3236
 11
-38.1153
 21
-66.4602
  0
LINE
  8
0
 10
-38.1153
 20
-66.4602
 11
-38.3268
 21
-66.5824
  0
LINE
  8
0
 10
-38.3268
 20
-66.5824
 11
-38.5464
 21
-66.6895
  0
LINE
  8
0
 10
-38.5464
 20
-66.6895
 11
-38.7729
 21
-66.781
  0
LINE
  8
0
 10
-38.7729
 20
-66.781
 11
-39.0053
 21
-66.8565
  0
LINE
  8
0
 10
-39.0053
 20
-66.8565
 11
-39.2423
 21
-66.9156
  0
LINE
  8
0
 10
-39.2423
 20
-66.9156
 11
-39.4829
 21
-66.958
  0
LINE
  8
0
 10
-39.4829
 20
-66.958
 11
-39.7259
 21
-66.9835
  0
LINE
  8
0
 10
-39.7259
 20
-66.9835
 11
-39.97
 21
-66.9921
  0
LINE
  8
0
 10
-39.97
 20
-66.9921
 11
-40.2141
 21
-66.9835
  0
LINE
  8
0
 10
-40.2141
 20
-66.9835
 11
-40.4571
 21
-66.958
  0
LINE
  8
0
 10
-40.4571
 20
-66.958
 11
-40.6977
 21
-66.9156
  0
LINE
  8
0
 10
-40.6977
 20
-66.9156
 11
-40.9347
 21
-66.8565
  0
LINE
  8
0
 10
-40.9347
 20
-66.8565
 11
-41.1671
 21
-66.781
  0
LINE
  8
0
 10
-41.1671
 20
-66.781
 11
-41.3936
 21
-66.6895
  0
LINE
  8
0
 10
-41.3936
 20
-66.6895
 11
-41.6132
 21
-66.5824
  0
LINE
  8
0
 10
-41.6132
 20
-66.5824
 11
-41.8247
 21
-66.4602
  0
LINE
  8
0
 10
-41.8247
 20
-66.4602
 11
-42.0272
 21
-66.3236
  0
LINE
  8
0
 10
-42.0272
 20
-66.3236
 11
-42.2198
 21
-66.1732
  0
LINE
  8
0
 10
-42.2198
 20
-66.1732
 11
-42.4013
 21
-66.0098
  0
LINE
  8
0
 10
-42.4013
 20
-66.0098
 11
-42.571
 21
-65.834
  0
LINE
  8
0
 10
-42.571
 20
-65.834
 11
-42.728
 21
-65.6469
  0
LINE
  8
0
 10
-42.728
 20
-65.6469
 11
-42.8716
 21
-65.4492
  0
LINE
  8
0
 10
-42.8716
 20
-65.4492
 11
-43.0011
 21
-65.2421
  0
LINE
  8
0
 10
-43.0011
 20
-65.2421
 11
-43.1158
 21
-65.0264
  0
LINE
  8
0
 10
-43.1158
 20
-65.0264
 11
-43.2151
 21
-64.8032
  0
LINE
  8
0
 10
-43.2151
 20
-64.8032
 11
-43.2987
 21
-64.5736
  0
LINE
  8
0
 10
-43.2987
 20
-64.5736
 11
-43.366
 21
-64.3388
  0
LINE
  8
0
 10
-43.366
 20
-64.3388
 11
-43.4168
 21
-64.0998
  0
LINE
  8
0
 10
-43.4168
 20
-64.0998
 11
-43.4508
 21
-63.8579
  0
LINE
  8
0
 10
-43.4508
 20
-63.8579
 11
-43.4679
 21
-63.6142
  0
LINE
  8
0
 10
-43.4679
 20
-63.6142
 11
-43.4679
 21
-63.3699
  0
LINE
  8
0
 10
-41.47
 20
-28.75
 11
-41.47
 21
-27.25
  0
LINE
  8
0
 10
-41.47
 20
-27.25
 11
-38.47
 21
-27.25
  0
LINE
  8
0
 10
-38.47
 20
-27.25
 11
-38.47
 21
-28.75
  0
LINE
  8
0
 10
-38.47
 20
-28.75
 11
-41.47
 21
-28.75
  0
LINE
  8
0
 10
-41.47
 20
11.25
 11
-41.47
 21
12.75
  0
LINE
  8
0
 10
-41.47
 20
12.75
 11
-38.47
 21
12.75
  0
LINE
  8
0
 10
-38.47
 20
12.75
 11
-38.47
 21
11.25
  0
LINE
  8
0
 10
-38.47
 20
11.25
 11
-41.47
 21
11.25
  0
LINE
  8
0
 10
-32.72
 20
-61.9921
 11
-31.22
 21
-61.9921
  0
LINE
  8
0
 10
-31.22
 20
-61.9921
 11
-31.22
 21
-64.9921
  0
LINE
  8
0
 10
-31.22
 20
-64.9921
 11
-32.72
 21
-64.9921
  0
LINE
  8
0
 10
-32.72
 20
-64.9921
 11
-32.72
 21
-61.9921
  0
LINE
  8
0
 10
-14.92
 20
-35
 11
-14.92
 21
35
  0
LINE
  8
0
 10
-14.92
 20
35
 11
35.08
 21
35
  0
LINE
  8
0
 10
35.08
 20
35
 11
35.08
 21
-35
  0
LINE
  8
0
 10
35.08
 20
-35
 11
-14.92
 21
-35
  0
LINE
  8
0
 10
-14.9179
 20
-63.3699
 11
-14.9008
 21
-63.1262
  0
LINE
  8
0
 10
-14.9008
 20
-63.1262
 11
-14.8668
 21
-62.8843
  0
LINE
  8
0
 10
-14.8668
 20
-62.8843
 11
-14.816
 21
-62.6453
  0
LINE
  8
0
 10
-14.816
 20
-62.6453
 11
-14.7487
 21
-62.4105
  0
LINE
  8
0
 10
-14.7487
 20
-62.4105
 11
-14.6651
 21
-62.1809
  0
LINE
  8
0
 10
-14.6651
 20
-62.1809
 11
-14.5658
 21
-61.9578
  0
LINE
  8
0
 10
-14.5658
 20
-61.9578
 11
-14.4511
 21
-61.7421
  0
LINE
  8
0
 10
-14.4511
 20
-61.7421
 11
-14.3216
 21
-61.5349
  0
LINE
  8
0
 10
-14.3216
 20
-61.5349
 11
-14.178
 21
-61.3372
  0
LINE
  8
0
 10
-14.178
 20
-61.3372
 11
-14.021
 21
-61.1501
  0
LINE
  8
0
 10
-14.021
 20
-61.1501
 11
-13.8513
 21
-60.9744
  0
LINE
  8
0
 10
-13.8513
 20
-60.9744
 11
-13.6698
 21
-60.8109
  0
LINE
  8
0
 10
-13.6698
 20
-60.8109
 11
-13.4772
 21
-60.6605
  0
LINE
  8
0
 10
-13.4772
 20
-60.6605
 11
-13.2747
 21
-60.5239
  0
LINE
  8
0
 10
-13.2747
 20
-60.5239
 11
-13.0632
 21
-60.4017
  0
LINE
  8
0
 10
-13.0632
 20
-60.4017
 11
-12.8436
 21
-60.2947
  0
LINE
  8
0
 10
-12.8436
 20
-60.2947
 11
-12.6171
 21
-60.2031
  0
LINE
  8
0
 10
-12.6171
 20
-60.2031
 11
-12.3847
 21
-60.1276
  0
LINE
  8
0
 10
-12.3847
 20
-60.1276
 11
-12.1477
 21
-60.0685
  0
LINE
  8
0
 10
-12.1477
 20
-60.0685
 11
-11.9071
 21
-60.0261
  0
LINE
  8
0
 10
-11.9071
 20
-60.0261
 11
-11.6641
 21
-60.0006
  0
LINE
  8
0
 10
-11.6641
 20
-60.0006
 11
-11.42
 21
-59.9921
  0
LINE
  8
0
 10
-11.42
 20
-59.9921
 11
-11.1759
 21
-60.0006
  0
LINE
  8
0
 10
-11.1759
 20
-60.0006
 11
-10.9329
 21
-60.0261
  0
LINE
  8
0
 10
-10.9329
 20
-60.0261
 11
-10.6923
 21
-60.0685
  0
LINE
  8
0
 10
-10.6923
 20
-60.0685
 11
-10.4553
 21
-60.1276
  0
LINE
  8
0
 10
-10.4553
 20
-60.1276
 11
-10.2229
 21
-60.2031
  0
LINE
  8
0
 10
-10.2229
 20
-60.2031
 11
-9.99642
 21
-60.2947
  0
LINE
  8
0
 10
-9.99642
 20
-60.2947
 11
-9.77685
 21
-60.4017
  0
LINE
  8
0
 10
-9.77685
 20
-60.4017
 11
-9.56528
 21
-60.5239
  0
LINE
  8
0
 10
-9.56528
 20
-60.5239
 11
-9.36275
 21
-60.6605
  0
LINE
  8
0
 10
-9.36275
 20
-60.6605
 11
-9.17024
 21
-60.8109
  0
LINE
  8
0
 10
-9.17024
 20
-60.8109
 11
-8.9887
 21
-60.9744
  0
LINE
  8
0
 10
-8.9887
 20
-60.9744
 11
-8.81899
 21
-61.1501
  0
LINE
  8
0
 10
-8.81899
 20
-61.1501
 11
-8.66196
 21
-61.3372
  0
LINE
  8
0
 10
-8.66196
 20
-61.3372
 11
-8.51837
 21
-61.5349
  0
LINE
  8
0
 10
-8.51837
 20
-61.5349
 11
-8.38891
 21
-61.7421
  0
LINE
  8
0
 10
-8.38891
 20
-61.7421
 11
-8.27422
 21
-61.9578
  0
LINE
  8
0
 10
-8.27422
 20
-61.9578
 11
-8.17486
 21
-62.1809
  0
LINE
  8
0
 10
-8.17486
 20
-62.1809
 11
-8.0913
 21
-62.4105
  0
LINE
  8
0
 10
-8.0913
 20
-62.4105
 11
-8.02397
 21
-62.6453
  0
LINE
  8
0
 10
-8.02397
 20
-62.6453
 11
-7.97317
 21
-62.8843
  0
LINE
  8
0
 10
-7.97317
 20
-62.8843
 11
-7.93917
 21
-63.1262
  0
LINE
  8
0
 10
-7.93917
 20
-63.1262
 11
-7.92213
 21
-63.3699
  0
LINE
  8
0
 10
-7.92213
 20
-63.3699
 11
-7.92213
 21
-63.6142
  0
LINE
  8
0
 10
-7.92213
 20
-63.6142
 11
-7.93917
 21
-63.8579
  0
LINE
  8
0
 10
-7.93917
 20
-63.8579
 11
-7.97317
 21
-64.0998
  0
LINE
  8
0
 10
-7.97317
 20
-64.0998
 11
-8.02397
 21
-64.3388
  0
LINE
  8
0
 10
-8.02397
 20
-64.3388
 11
-8.0913
 21
-64.5736
  0
LINE
  8
0
 10
-8.0913
 20
-64.5736
 11
-8.17486
 21
-64.8032
  0
LINE
  8
0
 10
-8.17486
 20
-64.8032
 11
-8.27422
 21
-65.0264
  0
LINE
  8
0
 10
-8.27422
 20
-65.0264
 11
-8.38891
 21
-65.2421
  0
LINE
  8
0
 10
-8.38891
 20
-65.2421
 11
-8.51837
 21
-65.4492
  0
LINE
  8
0
 10
-8.51837
 20
-65.4492
 11
-8.66196
 21
-65.6469
  0
LINE
  8
0
 10
-8.66196
 20
-65.6469
 11
-8.81899
 21
-65.834
  0
LINE
  8
0
 10
-8.81899
 20
-65.834
 11
-8.9887
 21
-66.0098
  0
LINE
  8
0
 10
-8.9887
 20
-66.0098
 11
-9.17024
 21
-66.1732
  0
LINE
  8
0
 10
-9.17024
 20
-66.1732
 11
-9.36275
 21
-66.3236
  0
LINE
  8
0
 10
-9.36275
 20
-66.3236
 11
-9.56528
 21
-66.4602
  0
LINE
  8
0
 10
-9.56528
 20
-66.4602
 11
-9.77685
 21
-66.5824
  0
LINE
  8
0
 10
-9.77685
 20
-66.5824
 11
-9.99642
 21
-66.6895
  0
LINE
  8
0
 10
-9.99642
 20
-66.6895
 11
-10.2229
 21
-66.781
  0
LINE
  8
0
 10
-10.2229
 20
-66.781
 11
-10.4553
 21
-66.8565
  0
LINE
  8
0
 10
-10.4553
 20
-66.8565
 11
-10.6923
 21
-66.9156
  0
LINE
  8
0
 10
-10.6923
 20
-66.9156
 11
-10.9329
 21
-66.958
  0
LINE
  8
0
 10
-10.9329
 20
-66.958
 11
-11.1759
 21
-66.9835
  0
LINE
  8
0
 10
-11.1759
 20
-66.9835
 11
-11.42
 21
-66.9921
  0
LINE
  8
0
 10
-11.42
 20
-66.9921
 11
-11.6641
 21
-66.9835
  0
LINE
  8
0
 10
-11.6641
 20
-66.9835
 11
-11.9071
 21
-66.958
  0
LINE
  8
0
 10
-11.9071
 20
-66.958
 11
-12.1477
 21
-66.9156
  0
LINE
  8
0
 10
-12.1477
 20
-66.9156
 11
-12.3847
 21
-66.8565
  0
LINE
  8
0
 10
-12.3847
 20
-66.8565
 11
-12.6171
 21
-66.781
  0
LINE
  8
0
 10
-12.6171
 20
-66.781
 11
-12.8436
 21
-66.6895
  0
LINE
  8
0
 10
-12.8436
 20
-66.6895
 11
-13.0632
 21
-66.5824
  0
LINE
  8
0
 10
-13.0632
 20
-66.5824
 11
-13.2747
 21
-66.4602
  0
LINE
  8
0
 10
-13.2747
 20
-66.4602
 11
-13.4772
 21
-66.3236
  0
LINE
  8
0
 10
-13.4772
 20
-66.3236
 11
-13.6698
 21
-66.1732
  0
LINE
  8
0
 10
-13.6698
 20
-66.1732
 11
-13.8513
 21
-66.0098
  0
LINE
  8
0
 10
-13.8513
 20
-66.0098
 11
-14.021
 21
-65.834
  0
LINE
  8
0
 10
-14.021
 20
-65.834
 11
-14.178
 21
-65.6469
  0
LINE
  8
0
 10
-14.178
 20
-65.6469
 11
-14.3216
 21
-65.4492
  0
LINE
  8
0
 10
-14.3216
 20
-65.4492
 11
-14.4511
 21
-65.2421
  0
LINE
  8
0
 10
-14.4511
 20
-65.2421
 11
-14.5658
 21
-65.0264
  0
LINE
  8
0
 10
-14.5658
 20
-65.0264
 11
-14.6651
 21
-64.8032
  0
LINE
  8
0
 10
-14.6651
 20
-64.8032
 11
-14.7487
 21
-64.5736
  0
LINE
  8
0
 10
-14.7487
 20
-64.5736
 11
-14.816
 21
-64.3388
  0
LINE
  8
0
 10
-14.816
 20
-64.3388
 11
-14.8668
 21
-64.0998
  0
LINE
  8
0
 10
-14.8668
 20
-64.0998
 11
-14.9008
 21
-63.8579
  0
LINE
  8
0
 10
-14.9008
 20
-63.8579
 11
-14.9179
 21
-63.6142
  0
LINE
  8
0
 10
-14.9179
 20
-63.6142
 11
-14.9179
 21
-63.3699
  0
LINE
  8
0
 10
-4.17
 20
-61.9921
 11
-2.67
 21
-61.9921
  0
LINE
  8
0
 10
-2.67
 20
-61.9921
 11
-2.67
 21
-64.9921
  0
LINE
  8
0
 10
-2.67
 20
-64.9921
 11
-4.17
 21
-64.9921
  0
LINE
  8
0
 10
-4.17
 20
-64.9921
 11
-4.17
 21
-61.9921
  0
LINE
  8
0
 10
13.6321
 20
-63.3699
 11
13.6492
 21
-63.1262
  0
LINE
  8
0
 10
13.6492
 20
-63.1262
 11
13.6832
 21
-62.8843
  0
LINE
  8
0
 10
13.6832
 20
-62.8843
 11
13.734
 21
-62.6453
  0
LINE
  8
0
 10
13.734
 20
-62.6453
 11
13.8013
 21
-62.4105
  0
LINE
  8
0
 10
13.8013
 20
-62.4105
 11
13.8849
 21
-62.1809
  0
LINE
  8
0
 10
13.8849
 20
-62.1809
 11
13.9842
 21
-61.9578
  0
LINE
  8
0
 10
13.9842
 20
-61.9578
 11
14.0989
 21
-61.7421
  0
LINE
  8
0
 10
14.0989
 20
-61.7421
 11
14.2284
 21
-61.5349
  0
LINE
  8
0
 10
14.2284
 20
-61.5349
 11
14.372
 21
-61.3372
  0
LINE
  8
0
 10
14.372
 20
-61.3372
 11
14.529
 21
-61.1501
  0
LINE
  8
0
 10
14.529
 20
-61.1501
 11
14.6987
 21
-60.9744
  0
LINE
  8
0
 10
14.6987
 20
-60.9744
 11
14.8802
 21
-60.8109
  0
LINE
  8
0
 10
14.8802
 20
-60.8109
 11
15.0728
 21
-60.6605
  0
LINE
  8
0
 10
15.0728
 20
-60.6605
 11
15.2753
 21
-60.5239
  0
LINE
  8
0
 10
15.2753
 20
-60.5239
 11
15.4868
 21
-60.4017
  0
LINE
  8
0
 10
15.4868
 20
-60.4017
 11
15.7064
 21
-60.2947
  0
LINE
  8
0
 10
15.7064
 20
-60.2947
 11
15.9329
 21
-60.2031
  0
LINE
  8
0
 10
15.9329
 20
-60.2031
 11
16.1653
 21
-60.1276
  0
LINE
  8
0
 10
16.1653
 20
-60.1276
 11
16.4023
 21
-60.0685
  0
LINE
  8
0
 10
16.4023
 20
-60.0685
 11
16.6429
 21
-60.0261
  0
LINE
  8
0
 10
16.6429
 20
-60.0261
 11
16.8859
 21
-60.0006
  0
LINE
  8
0
 10
16.8859
 20
-60.0006
 11
17.13
 21
-59.9921
  0
LINE
  8
0
 10
17.13
 20
-59.9921
 11
17.3741
 21
-60.0006
  0
LINE
  8
0
 10
17.3741
 20
-60.0006
 11
17.6171
 21
-60.0261
  0
LINE
  8
0
 10
17.6171
 20
-60.0261
 11
17.8577
 21
-60.0685
  0
LINE
  8
0
 10
17.8577
 20
-60.0685
 11
18.0947
 21
-60.1276
  0
LINE
  8
0
 10
18.0947
 20
-60.1276
 11
18.3271
 21
-60.2031
  0
LINE
  8
0
 10
18.3271
 20
-60.2031
 11
18.5536
 21
-60.2947
  0
LINE
  8
0
 10
18.5536
 20
-60.2947
 11
18.7732
 21
-60.4017
  0
LINE
  8
0
 10
18.7732
 20
-60.4017
 11
18.9847
 21
-60.5239
  0
LINE
  8
0
 10
18.9847
 20
-60.5239
 11
19.1872
 21
-60.6605
  0
LINE
  8
0
 10
19.1872
 20
-60.6605
 11
19.3798
 21
-60.8109
  0
LINE
  8
0
 10
19.3798
 20
-60.8109
 11
19.5613
 21
-60.9744
  0
LINE
  8
0
 10
19.5613
 20
-60.9744
 11
19.731
 21
-61.1501
  0
LINE
  8
0
 10
19.731
 20
-61.1501
 11
19.888
 21
-61.3372
  0
LINE
  8
0
 10
19.888
 20
-61.3372
 11
20.0316
 21
-61.5349
  0
LINE
  8
0
 10
20.0316
 20
-61.5349
 11
20.1611
 21
-61.7421
  0
LINE
  8
0
 10
20.1611
 20
-61.7421
 11
20.2758
 21
-61.9578
  0
LINE
  8
0
 10
20.2758
 20
-61.9578
 11
20.3751
 21
-62.1809
  0
LINE
  8
0
 10
20.3751
 20
-62.1809
 11
20.4587
 21
-62.4105
  0
LINE
  8
0
 10
20.4587
 20
-62.4105
 11
20.526
 21
-62.6453
  0
LINE
  8
0
 10
20.526
 20
-62.6453
 11
20.5768
 21
-62.8843
  0
LINE
  8
0
 10
20.5768
 20
-62.8843
 11
20.6108
 21
-63.1262
  0
LINE
  8
0
 10
20.6108
 20
-63.1262
 11
20.6279
 21
-63.3699
  0
LINE
  8
0
 10
20.6279
 20
-63.3699
 11
20.6279
 21
-63.6142
  0
LINE
  8
0
 10
20.6279
 20
-63.6142
 11
20.6108
 21
-63.8579
  0
LINE
  8
0
 10
20.6108
 20
-63.8579
 11
20.5768
 21
-64.0998
  0
LINE
  8
0
 10
20.5768
 20
-64.0998
 11
20.526
 21
-64.3388
  0
LINE
  8
0
 10
20.526
 20
-64.3388
 11
20.4587
 21
-64.5736
  0
LINE
  8
0
 10
20.4587
 20
-64.5736
 11
20.3751
 21
-64.8032
  0
LINE
  8
0
 10
20.3751
 20
-64.8032
 11
20.2758
 21
-65.0264
  0
LINE
  8
0
 10
20.2758
 20
-65.0264
 11
20.1611
 21
-65.2421
  0
LINE
  8
0
 10
20.1611
 20
-65.2421
 11
20.0316
 21
-65.4492
  0
LINE
  8
0
 10
20.0316
 20
-65.4492
 11
19.888
 21
-65.6469
  0
LINE
  8
0
 10
19.888
 20
-65.6469
 11
19.731
 21
-65.834
  0
LINE
  8
0
 10
19.731
 20
-65.834
 11
19.5613
 21
-66.0098
  0
LINE
  8
0
 10
19.5613
 20
-66.0098
 11
19.3798
 21
-66.1732
  0
LINE
  8
0
 10
19.3798
 20
-66.1732
 11
19.1872
 21
-66.3236
  0
LINE
  8
0
 10
19.1872
 20
-66.3236
 11
18.9847
 21
-66.4602
  0
LINE
  8
0
 10
18.9847
 20
-66.4602
 11
18.7732
 21
-66.5824
  0
LINE
  8
0
 10
18.7732
 20
-66.5824
 11
18.5536
 21
-66.6895
  0
LINE
  8
0
 10
18.5536
 20
-66.6895
 11
18.3271
 21
-66.781
  0
LINE
  8
0
 10
18.3271
 20
-66.781
 11
18.0947
 21
-66.8565
  0
LINE
  8
0
 10
18.0947
 20
-66.8565
 11
17.8577
 21
-66.9156
  0
LINE
  8
0
 10
17.8577
 20
-66.9156
 11
17.6171
 21
-66.958
  0
LINE
  8
0
 10
17.6171
 20
-66.958
 11
17.3741
 21
-66.9835
  0
LINE
  8
0
 10
17.3741
 20
-66.9835
 11
17.13
 21
-66.9921
  0
LINE
  8
0
 10
17.13
 20
-66.9921
 11
16.8859
 21
-66.9835
  0
LINE
  8
0
 10
16.8859
 20
-66.9835
 11
16.6429
 21
-66.958
  0
LINE
  8
0
 10
16.6429
 20
-66.958
 11
16.4023
 21
-66.9156
  0
LINE
  8
0
 10
16.4023
 20
-66.9156
 11
16.1653
 21
-66.8565
  0
LINE
  8
0
 10
16.1653
 20
-66.8565
 11
15.9329
 21
-66.781
  0
LINE
  8
0
 10
15.9329
 20
-66.781
 11
15.7064
 21
-66.6895
  0
LINE
  8
0
 10
15.7064
 20
-66.6895
 11
15.4868
 21
-66.5824
  0
LINE
  8
0
 10
15.4868
 20
-66.5824
 11
15.2753
 21
-66.4602
  0
LINE
  8
0
 10
15.2753
 20
-66.4602
 11
15.0728
 21
-66.3236
  0
LINE
  8
0
 10
15.0728
 20
-66.3236
 11
14.8802
 21
-66.1732
  0
LINE
  8
0
 10
14.8802
 20
-66.1732
 11
14.6987
 21
-66.0098
  0
LINE
  8
0
 10
14.6987
 20
-66.0098
 11
14.529
 21
-65.834
  0
LINE
  8
0
 10
14.529
 20
-65.834
 11
14.372
 21
-65.6469
  0
LINE
  8
0
 10
14.372
 20
-65.6469
 11
14.2284
 21
-65.4492
  0
LINE
  8
0
 10
14.2284
 20
-65.4492
 11
14.0989
 21
-65.2421
  0
LINE
  8
0
 10
14.0989
 20
-65.2421
 11
13.9842
 21
-65.0264
  0
LINE
  8
0
 10
13.9842
 20
-65.0264
 11
13.8849
 21
-64.8032
  0
LINE
  8
0
 10
13.8849
 20
-64.8032
 11
13.8013
 21
-64.5736
  0
LINE
  8
0
 10
13.8013
 20
-64.5736
 11
13.734
 21
-64.3388
  0
LINE
  8
0
 10
13.734
 20
-64.3388
 11
13.6832
 21
-64.0998
  0
LINE
  8
0
 10
13.6832
 20
-64.0998
 11
13.6492
 21
-63.8579
  0
LINE
  8
0
 10
13.6492
 20
-63.8579
 11
13.6321
 21
-63.6142
  0
LINE
  8
0
 10
13.6321
 20
-63.6142
 11
13.6321
 21
-63.3699
  0
LINE
  8
0
 10
24.38
 20
-61.9921
 11
25.88
 21
-61.9921
  0
LINE
  8
0
 10
25.88
 20
-61.9921
 11
25.88
 21
-64.9921
  0
LINE
  8
0
 10
25.88
 20
-64.9921
 11
24.38
 21
-64.9921
  0
LINE
  8
0
 10
24.38
 20
-64.9921
 11
24.38
 21
-61.9921
  0
LINE
  8
0
 10
38.7
 20
-75.4921
 11
38.7195
 21
-74.934
  0
LINE
  8
0
 10
38.7195
 20
-74.934
 11
38.7779
 21
-74.3787
  0
LINE
  8
0
 10
38.7779
 20
-74.3787
 11
38.8748
 21
-73.8288
  0
LINE
  8
0
 10
38.8748
 20
-73.8288
 11
39.0099
 21
-73.287
  0
LINE
  8
0
 10
39.0099
 20
-73.287
 11
39.1825
 21
-72.7559
  0
LINE
  8
0
 10
39.1825
 20
-72.7559
 11
39.3916
 21
-72.2382
  0
LINE
  8
0
 10
39.3916
 20
-72.2382
 11
39.6364
 21
-71.7363
  0
LINE
  8
0
 10
39.6364
 20
-71.7363
 11
39.9156
 21
-71.2527
  0
LINE
  8
0
 10
39.9156
 20
-71.2527
 11
40.2279
 21
-70.7898
  0
LINE
  8
0
 10
40.2279
 20
-70.7898
 11
40.5716
 21
-70.3498
  0
LINE
  8
0
 10
40.5716
 20
-70.3498
 11
40.9453
 21
-69.9348
  0
LINE
  8
0
 10
40.9453
 20
-69.9348
 11
41.347
 21
-69.5469
  0
LINE
  8
0
 10
41.347
 20
-69.5469
 11
41.7747
 21
-69.188
  0
LINE
  8
0
 10
41.7747
 20
-69.188
 11
42.2265
 21
-68.8598
  0
LINE
  8
0
 10
42.2265
 20
-68.8598
 11
42.7
 21
-68.5639
  0
LINE
  8
0
 10
42.7
 20
-68.5639
 11
43.193
 21
-68.3017
  0
LINE
  8
0
 10
43.193
 20
-68.3017
 11
43.7031
 21
-68.0746
  0
LINE
  8
0
 10
43.7031
 20
-68.0746
 11
44.2279
 21
-67.8836
  0
LINE
  8
0
 10
44.2279
 20
-67.8836
 11
44.7646
 21
-67.7297
  0
LINE
  8
0
 10
44.7646
 20
-67.7297
 11
45.3108
 21
-67.6136
  0
LINE
  8
0
 10
45.3108
 20
-67.6136
 11
45.8638
 21
-67.5359
  0
LINE
  8
0
 10
45.8638
 20
-67.5359
 11
46.4208
 21
-67.4969
  0
LINE
  8
0
 10
46.4208
 20
-67.4969
 11
46.9792
 21
-67.4969
  0
LINE
  8
0
 10
46.9792
 20
-67.4969
 11
47.5362
 21
-67.5359
  0
LINE
  8
0
 10
47.5362
 20
-67.5359
 11
48.0892
 21
-67.6136
  0
LINE
  8
0
 10
48.0892
 20
-67.6136
 11
48.6354
 21
-67.7297
  0
LINE
  8
0
 10
48.6354
 20
-67.7297
 11
49.1721
 21
-67.8836
  0
LINE
  8
0
 10
49.1721
 20
-67.8836
 11
49.6969
 21
-68.0746
  0
LINE
  8
0
 10
49.6969
 20
-68.0746
 11
50.207
 21
-68.3017
  0
LINE
  8
0
 10
50.207
 20
-68.3017
 11
50.7
 21
-68.5639
  0
LINE
  8
0
 10
50.7
 20
-68.5639
 11
51.1735
 21
-68.8598
  0
LINE
  8
0
 10
51.1735
 20
-68.8598
 11
51.6253
 21
-69.188
  0
LINE
  8
0
 10
51.6253
 20
-69.188
 11
52.053
 21
-69.5469
  0
LINE
  8
0
 10
52.053
 20
-69.5469
 11
52.4547
 21
-69.9348
  0
LINE
  8
0
 10
52.4547
 20
-69.9348
 11
52.8284
 21
-70.3498
  0
LINE
  8
0
 10
52.8284
 20
-70.3498
 11
53.1721
 21
-70.7898
  0
LINE
  8
0
 10
53.1721
 20
-70.7898
 11
53.4844
 21
-71.2527
  0
LINE
  8
0
 10
53.4844
 20
-71.2527
 11
53.7636
 21
-71.7363
  0
LINE
  8
0
 10
53.7636
 20
-71.7363
 11
54.0084
 21
-72.2382
  0
LINE
  8
0
 10
54.0084
 20
-72.2382
 11
54.2175
 21
-72.7559
  0
LINE
  8
0
 10
54.2175
 20
-72.7559
 11
54.3901
 21
-73.287
  0
LINE
  8
0
 10
54.3901
 20
-73.287
 11
54.5252
 21
-73.8288
  0
LINE
  8
0
 10
54.5252
 20
-73.8288
 11
54.6221
 21
-74.3787
  0
LINE
  8
0
 10
54.6221
 20
-74.3787
 11
54.6805
 21
-74.934
  0
LINE
  8
0
 10
54.6805
 20
-74.934
 11
54.7
 21
-75.4921
  0
LINE
  8
0
 10
54.7
 20
-75.4921
 11
54.6805
 21
-76.0501
  0
LINE
  8
0
 10
54.6805
 20
-76.0501
 11
54.6221
 21
-76.6054
  0
LINE
  8
0
 10
54.6221
 20
-76.6054
 11
54.5252
 21
-77.1554
  0
LINE
  8
0
 10
54.5252
 20
-77.1554
 11
54.3901
 21
-77.6972
  0
LINE
  8
0
 10
54.3901
 20
-77.6972
 11
54.2175
 21
-78.2282
  0
LINE
  8
0
 10
54.2175
 20
-78.2282
 11
54.0084
 21
-78.746
  0
LINE
  8
0
 10
54.0084
 20
-78.746
 11
53.7636
 21
-79.2478
  0
LINE
  8
0
 10
53.7636
 20
-79.2478
 11
53.4844
 21
-79.7314
  0
LINE
  8
0
 10
53.4844
 20
-79.7314
 11
53.1721
 21
-80.1943
  0
LINE
  8
0
 10
53.1721
 20
-80.1943
 11
52.8284
 21
-80.6344
  0
LINE
  8
0
 10
52.8284
 20
-80.6344
 11
52.4547
 21
-81.0493
  0
LINE
  8
0
 10
52.4547
 20
-81.0493
 11
52.053
 21
-81.4372
  0
LINE
  8
0
 10
52.053
 20
-81.4372
 11
51.6253
 21
-81.7961
  0
LINE
  8
0
 10
51.6253
 20
-81.7961
 11
51.1735
 21
-82.1244
  0
LINE
  8
0
 10
51.1735
 20
-82.1244
 11
50.7
 21
-82.4203
  0
LINE
  8
0
 10
50.7
 20
-82.4203
 11
50.207
 21
-82.6824
  0
LINE
  8
0
 10
50.207
 20
-82.6824
 11
49.6969
 21
-82.9095
  0
LINE
  8
0
 10
49.6969
 20
-82.9095
 11
49.1721
 21
-83.1005
  0
LINE
  8
0
 10
49.1721
 20
-83.1005
 11
48.6354
 21
-83.2544
  0
LINE
  8
0
 10
48.6354
 20
-83.2544
 11
48.0892
 21
-83.3705
  0
LINE
  8
0
 10
48.0892
 20
-83.3705
 11
47.5362
 21
-83.4482
  0
LINE
  8
0
 10
47.5362
 20
-83.4482
 11
46.9792
 21
-83.4872
  0
LINE
  8
0
 10
46.9792
 20
-83.4872
 11
46.4208
 21
-83.4872
  0
LINE
  8
0
 10
46.4208
 20
-83.4872
 11
45.8638
 21
-83.4482
  0
LINE
  8
0
 10
45.8638
 20
-83.4482
 11
45.3108
 21
-83.3705
  0
LINE
  8
0
 10
45.3108
 20
-83.3705
 11
44.7646
 21
-83.2544
  0
LINE
  8
0
 10
44.7646
 20
-83.2544
 11
44.2279
 21
-83.1005
  0
LINE
  8
0
 10
44.2279
 20
-83.1005
 11
43.7031
 21
-82.9095
  0
LINE
  8
0
 10
43.7031
 20
-82.9095
 11
43.193
 21
-82.6824
  0
LINE
  8
0
 10
43.193
 20
-82.6824
 11
42.7
 21
-82.4203
  0
LINE
  8
0
 10
42.7
 20
-82.4203
 11
42.2265
 21
-82.1244
  0
LINE
  8
0
 10
42.2265
 20
-82.1244
 11
41.7747
 21
-81.7961
  0
LINE
  8
0
 10
41.7747
 20
-81.7961
 11
41.347
 21
-81.4372
  0
LINE
  8
0
 10
41.347
 20
-81.4372
 11
40.9453
 21
-81.0493
  0
LINE
  8
0
 10
40.9453
 20
-81.0493
 11
40.5716
 21
-80.6344
  0
LINE
  8
0
 10
40.5716
 20
-80.6344
 11
40.2279
 21
-80.1943
  0
LINE
  8
0
 10
40.2279
 20
-80.1943
 11
39.9156
 21
-79.7314
  0
LINE
  8
0
 10
39.9156
 20
-79.7314
 11
39.6364
 21
-79.2478
  0
LINE
  8
0
 10
39.6364
 20
-79.2478
 11
39.3916
 21
-78.746
  0
LINE
  8
0
 10
39.3916
 20
-78.746
 11
39.1825
 21
-78.2282
  0
LINE
  8
0
 10
39.1825
 20
-78.2282
 11
39.0099
 21
-77.6972
  0
LINE
  8
0
 10
39.0099
 20
-77.6972
 11
38.8748
 21
-77.1554
  0
LINE
  8
0
 10
38.8748
 20
-77.1554
 11
38.7779
 21
-76.6054
  0
LINE
  8
0
 10
38.7779
 20
-76.6054
 11
38.7195
 21
-76.0501
  0
LINE
  8
0
 10
38.7195
 20
-76.0501
 11
38.7
 21
-75.4921
  0
LINE
  8
0
 10
38.7
 20
-51.4921
 11
38.7195
 21
-50.934
  0
LINE
  8
0
 10
38.7195
 20
-50.934
 11
38.7779
 21
-50.3787
  0
LINE
  8
0
 10
38.7779
 20
-50.3787
 11
38.8748
 21
-49.8288
  0
LINE
  8
0
 10
38.8748
 20
-49.8288
 11
39.0099
 21
-49.287
  0
LINE
  8
0
 10
39.0099
 20
-49.287
 11
39.1825
 21
-48.7559
  0
LINE
  8
0
 10
39.1825
 20
-48.7559
 11
39.3916
 21
-48.2382
  0
LINE
  8
0
 10
39.3916
 20
-48.2382
 11
39.6364
 21
-47.7363
  0
LINE
  8
0
 10
39.6364
 20
-47.7363
 11
39.9156
 21
-47.2527
  0
LINE
  8
0
 10
39.9156
 20
-47.2527
 11
40.2279
 21
-46.7898
  0
LINE
  8
0
 10
40.2279
 20
-46.7898
 11
40.5716
 21
-46.3498
  0
LINE
  8
0
 10
40.5716
 20
-46.3498
 11
40.9453
 21
-45.9348
  0
LINE
  8
0
 10
40.9453
 20
-45.9348
 11
41.347
 21
-45.5469
  0
LINE
  8
0
 10
41.347
 20
-45.5469
 11
41.7747
 21
-45.188
  0
LINE
  8
0
 10
41.7747
 20
-45.188
 11
42.2265
 21
-44.8598
  0
LINE
  8
0
 10
42.2265
 20
-44.8598
 11
42.7
 21
-44.5639
  0
LINE
  8
0
 10
42.7
 20
-44.5639
 11
43.193
 21
-44.3017
  0
LINE
  8
0
 10
43.193
 20
-44.3017
 11
43.7031
 21
-44.0746
  0
LINE
  8
0
 10
43.7031
 20
-44.0746
 11
44.2279
 21
-43.8836
  0
LINE
  8
0
 10
44.2279
 20
-43.8836
 11
44.7646
 21
-43.7297
  0
LINE
  8
0
 10
44.7646
 20
-43.7297
 11
45.3108
 21
-43.6136
  0
LINE
  8
0
 10
45.3108
 20
-43.6136
 11
45.8638
 21
-43.5359
  0
LINE
  8
0
 10
45.8638
 20
-43.5359
 11
46.4208
 21
-43.4969
  0
LINE
  8
0
 10
46.4208
 20
-43.4969
 11
46.9792
 21
-43.4969
  0
LINE
  8
0
 10
46.9792
 20
-43.4969
 11
47.5362
 21
-43.5359
  0
LINE
  8
0
 10
47.5362
 20
-43.5359
 11
48.0892
 21
-43.6136
  0
LINE
  8
0
 10
48.0892
 20
-43.6136
 11
48.6354
 21
-43.7297
  0
LINE
  8
0
 10
48.6354
 20
-43.7297
 11
49.1721
 21
-43.8836
  0
LINE
  8
0
 10
49.1721
 20
-43.8836
 11
49.6969
 21
-44.0746
  0
LINE
  8
0
 10
49.6969
 20
-44.0746
 11
50.207
 21
-44.3017
  0
LINE
  8
0
 10
50.207
 20
-44.3017
 11
50.7
 21
-44.5639
  0
LINE
  8
0
 10
50.7
 20
-44.5639
 11
51.1735
 21
-44.8598
  0
LINE
  8
0
 10
51.1735
 20
-44.8598
 11
51.6253
 21
-45.188
  0
LINE
  8
0
 10
51.6253
 20
-45.188
 11
52.053
 21
-45.5469
  0
LINE
  8
0
 10
52.053
 20
-45.5469
 11
52.4547
 21
-45.9348
  0
LINE
  8
0
 10
52.4547
 20
-45.9348
 11
52.8284
 21
-46.3498
  0
LINE
  8
0
 10
52.8284
 20
-46.3498
 11
53.1721
 21
-46.7898
  0
LINE
  8
0
 10
53.1721
 20
-46.7898
 11
53.4844
 21
-47.2527
  0
LINE
  8
0
 10
53.4844
 20
-47.2527
 11
53.7636
 21
-47.7363
  0
LINE
  8
0
 10
53.7636
 20
-47.7363
 11
54.0084
 21
-48.2382
  0
LINE
  8
0
 10
54.0084
 20
-48.2382
 11
54.2175
 21
-48.7559
  0
LINE
  8
0
 10
54.2175
 20
-48.7559
 11
54.3901
 21
-49.287
  0
LINE
  8
0
 10
54.3901
 20
-49.287
 11
54.5252
 21
-49.8288
  0
LINE
  8
0
 10
54.5252
 20
-49.8288
 11
54.6221
 21
-50.3787
  0
LINE
  8
0
 10
54.6221
 20
-50.3787
 11
54.6805
 21
-50.934
  0
LINE
  8
0
 10
54.6805
 20
-50.934
 11
54.7
 21
-51.4921
  0
LINE
  8
0
 10
54.7
 20
-51.4921
 11
54.6805
 21
-52.0501
  0
LINE
  8
0
 10
54.6805
 20
-52.0501
 11
54.6221
 21
-52.6054
  0
LINE
  8
0
 10
54.6221
 20
-52.6054
 11
54.5252
 21
-53.1554
  0
LINE
  8
0
 10
54.5252
 20
-53.1554
 11
54.3901
 21
-53.6972
  0
LINE
  8
0
 10
54.3901
 20
-53.6972
 11
54.2175
 21
-54.2282
  0
LINE
  8
0
 10
54.2175
 20
-54.2282
 11
54.0084
 21
-54.746
  0
LINE
  8
0
 10
54.0084
 20
-54.746
 11
53.7636
 21
-55.2478
  0
LINE
  8
0
 10
53.7636
 20
-55.2478
 11
53.4844
 21
-55.7314
  0
LINE
  8
0
 10
53.4844
 20
-55.7314
 11
53.1721
 21
-56.1943
  0
LINE
  8
0
 10
53.1721
 20
-56.1943
 11
52.8284
 21
-56.6344
  0
LINE
  8
0
 10
52.8284
 20
-56.6344
 11
52.4547
 21
-57.0493
  0
LINE
  8
0
 10
52.4547
 20
-57.0493
 11
52.053
 21
-57.4372
  0
LINE
  8
0
 10
52.053
 20
-57.4372
 11
51.6253
 21
-57.7961
  0
LINE
  8
0
 10
51.6253
 20
-57.7961
 11
51.1735
 21
-58.1244
  0
LINE
  8
0
 10
51.1735
 20
-58.1244
 11
50.7
 21
-58.4203
  0
LINE
  8
0
 10
50.7
 20
-58.4203
 11
50.207
 21
-58.6824
  0
LINE
  8
0
 10
50.207
 20
-58.6824
 11
49.6969
 21
-58.9095
  0
LINE
  8
0
 10
49.6969
 20
-58.9095
 11
49.1721
 21
-59.1005
  0
LINE
  8
0
 10
49.1721
 20
-59.1005
 11
48.6354
 21
-59.2544
  0
LINE
  8
0
 10
48.6354
 20
-59.2544
 11
48.0892
 21
-59.3705
  0
LINE
  8
0
 10
48.0892
 20
-59.3705
 11
47.5362
 21
-59.4482
  0
LINE
  8
0
 10
47.5362
 20
-59.4482
 11
46.9792
 21
-59.4872
  0
LINE
  8
0
 10
46.9792
 20
-59.4872
 11
46.4208
 21
-59.4872
  0
LINE
  8
0
 10
46.4208
 20
-59.4872
 11
45.8638
 21
-59.4482
  0
LINE
  8
0
 10
45.8638
 20
-59.4482
 11
45.3108
 21
-59.3705
  0
LINE
  8
0
 10
45.3108
 20
-59.3705
 11
44.7646
 21
-59.2544
  0
LINE
  8
0
 10
44.7646
 20
-59.2544
 11
44.2279
 21
-59.1005
  0
LINE
  8
0
 10
44.2279
 20
-59.1005
 11
43.7031
 21
-58.9095
  0
LINE
  8
0
 10
43.7031
 20
-58.9095
 11
43.193
 21
-58.6824
  0
LINE
  8
0
 10
43.193
 20
-58.6824
 11
42.7
 21
-58.4203
  0
LINE
  8
0
 10
42.7
 20
-58.4203
 11
42.2265
 21
-58.1244
  0
LINE
  8
0
 10
42.2265
 20
-58.1244
 11
41.7747
 21
-57.7961
  0
LINE
  8
0
 10
41.7747
 20
-57.7961
 11
41.347
 21
-57.4372
  0
LINE
  8
0
 10
41.347
 20
-57.4372
 11
40.9453
 21
-57.0493
  0
LINE
  8
0
 10
40.9453
 20
-57.0493
 11
40.5716
 21
-56.6344
  0
LINE
  8
0
 10
40.5716
 20
-56.6344
 11
40.2279
 21
-56.1943
  0
LINE
  8
0
 10
40.2279
 20
-56.1943
 11
39.9156
 21
-55.7314
  0
LINE
  8
0
 10
39.9156
 20
-55.7314
 11
39.6364
 21
-55.2478
  0
LINE
  8
0
 10
39.6364
 20
-55.2478
 11
39.3916
 21
-54.746
  0
LINE
  8
0
 10
39.3916
 20
-54.746
 11
39.1825
 21
-54.2282
  0
LINE
  8
0
 10
39.1825
 20
-54.2282
 11
39.0099
 21
-53.6972
  0
LINE
  8
0
 10
39.0099
 20
-53.6972
 11
38.8748
 21
-53.1554
  0
LINE
  8
0
 10
38.8748
 20
-53.1554
 11
38.7779
 21
-52.6054
  0
LINE
  8
0
 10
38.7779
 20
-52.6054
 11
38.7195
 21
-52.0501
  0
LINE
  8
0
 10
38.7195
 20
-52.0501
 11
38.7
 21
-51.4921
  0
LINE
  8
0
 10
43.5
 20
-26.4
 11
43.5097
 21
-26.121
  0
LINE
  8
0
 10
43.5097
 20
-26.121
 11
43.5389
 21
-25.8433
  0
LINE
  8
0
 10
43.5389
 20
-25.8433
 11
43.5874
 21
-25.5684
  0
LINE
  8
0
 10
43.5874
 20
-25.5684
 11
43.655
 21
-25.2975
  0
LINE
  8
0
 10
43.655
 20
-25.2975
 11
43.7412
 21
-25.0319
  0
LINE
  8
0
 10
43.7412
 20
-25.0319
 11
43.8458
 21
-24.7731
  0
LINE
  8
0
 10
43.8458
 20
-24.7731
 11
43.9682
 21
-24.5221
  0
LINE
  8
0
 10
43.9682
 20
-24.5221
 11
44.1078
 21
-24.2803
  0
LINE
  8
0
 10
44.1078
 20
-24.2803
 11
44.2639
 21
-24.0489
  0
LINE
  8
0
 10
44.2639
 20
-24.0489
 11
44.4358
 21
-23.8289
  0
LINE
  8
0
 10
44.4358
 20
-23.8289
 11
44.6226
 21
-23.6214
  0
LINE
  8
0
 10
44.6226
 20
-23.6214
 11
44.8235
 21
-23.4274
  0
LINE
  8
0
 10
44.8235
 20
-23.4274
 11
45.0374
 21
-23.248
  0
LINE
  8
0
 10
45.0374
 20
-23.248
 11
45.2632
 21
-23.0839
  0
LINE
  8
0
 10
45.2632
 20
-23.0839
 11
45.5
 21
-22.9359
  0
LINE
  8
0
 10
45.5
 20
-22.9359
 11
45.7465
 21
-22.8048
  0
LINE
  8
0
 10
45.7465
 20
-22.8048
 11
46.0016
 21
-22.6913
  0
LINE
  8
0
 10
46.0016
 20
-22.6913
 11
46.2639
 21
-22.5958
  0
LINE
  8
0
 10
46.2639
 20
-22.5958
 11
46.5323
 21
-22.5188
  0
LINE
  8
0
 10
46.5323
 20
-22.5188
 11
46.8054
 21
-22.4608
  0
LINE
  8
0
 10
46.8054
 20
-22.4608
 11
47.0819
 21
-22.4219
  0
LINE
  8
0
 10
47.0819
 20
-22.4219
 11
47.3604
 21
-22.4024
  0
LINE
  8
0
 10
47.3604
 20
-22.4024
 11
47.6396
 21
-22.4024
  0
LINE
  8
0
 10
47.6396
 20
-22.4024
 11
47.9181
 21
-22.4219
  0
LINE
  8
0
 10
47.9181
 20
-22.4219
 11
48.1946
 21
-22.4608
  0
LINE
  8
0
 10
48.1946
 20
-22.4608
 11
48.4677
 21
-22.5188
  0
LINE
  8
0
 10
48.4677
 20
-22.5188
 11
48.7361
 21
-22.5958
  0
LINE
  8
0
 10
48.7361
 20
-22.5958
 11
48.9984
 21
-22.6913
  0
LINE
  8
0
 10
48.9984
 20
-22.6913
 11
49.2535
 21
-22.8048
  0
LINE
  8
0
 10
49.2535
 20
-22.8048
 11
49.5
 21
-22.9359
  0
LINE
  8
0
 10
49.5
 20
-22.9359
 11
49.7368
 21
-23.0839
  0
LINE
  8
0
 10
49.7368
 20
-23.0839
 11
49.9626
 21
-23.248
  0
LINE
  8
0
 10
49.9626
 20
-23.248
 11
50.1765
 21
-23.4274
  0
LINE
  8
0
 10
50.1765
 20
-23.4274
 11
50.3774
 21
-23.6214
  0
LINE
  8
0
 10
50.3774
 20
-23.6214
 11
50.5642
 21
-23.8289
  0
LINE
  8
0
 10
50.5642
 20
-23.8289
 11
50.7361
 21
-24.0489
  0
LINE
  8
0
 10
50.7361
 20
-24.0489
 11
50.8922
 21
-24.2803
  0
LINE
  8
0
 10
50.8922
 20
-24.2803
 11
51.0318
 21
-24.5221
  0
LINE
  8
0
 10
51.0318
 20
-24.5221
 11
51.1542
 21
-24.7731
  0
LINE
  8
0
 10
51.1542
 20
-24.7731
 11
51.2588
 21
-25.0319
  0
LINE
  8
0
 10
51.2588
 20
-25.0319
 11
51.345
 21
-25.2975
  0
LINE
  8
0
 10
51.345
 20
-25.2975
 11
51.4126
 21
-25.5684
  0
LINE
  8
0
 10
51.4126
 20
-25.5684
 11
51.4611
 21
-25.8433
  0
LINE
  8
0
 10
51.4611
 20
-25.8433
 11
51.4903
 21
-26.121
  0
LINE
  8
0
 10
51.4903
 20
-26.121
 11
51.5
 21
-26.4
  0
LINE
  8
0
 10
51.5
 20
-26.4
 11
51.4903
 21
-26.679
  0
LINE
  8
0
 10
51.4903
 20
-26.679
 11
51.4611
 21
-26.9567
  0
LINE
  8
0
 10
51.4611
 20
-26.9567
 11
51.4126
 21
-27.2316
  0
LINE
  8
0
 10
51.4126
 20
-27.2316
 11
51.345
 21
-27.5025
  0
LINE
  8
0
 10
51.345
 20
-27.5025
 11
51.2588
 21
-27.7681
  0
LINE
  8
0
 10
51.2588
 20
-27.7681
 11
51.1542
 21
-28.0269
  0
LINE
  8
0
 10
51.1542
 20
-28.0269
 11
51.0318
 21
-28.2779
  0
LINE
  8
0
 10
51.0318
 20
-28.2779
 11
50.8922
 21
-28.5197
  0
LINE
  8
0
 10
50.8922
 20
-28.5197
 11
50.7361
 21
-28.7511
  0
LINE
  8
0
 10
50.7361
 20
-28.7511
 11
50.5642
 21
-28.9711
  0
LINE
  8
0
 10
50.5642
 20
-28.9711
 11
50.3774
 21
-29.1786
  0
LINE
  8
0
 10
50.3774
 20
-29.1786
 11
50.1765
 21
-29.3726
  0
LINE
  8
0
 10
50.1765
 20
-29.3726
 11
49.9626
 21
-29.552
  0
LINE
  8
0
 10
49.9626
 20
-29.552
 11
49.7368
 21
-29.7161
  0
LINE
  8
0
 10
49.7368
 20
-29.7161
 11
49.5
 21
-29.8641
  0
LINE
  8
0
 10
49.5
 20
-29.8641
 11
49.2535
 21
-29.9952
  0
LINE
  8
0
 10
49.2535
 20
-29.9952
 11
48.9984
 21
-30.1087
  0
LINE
  8
0
 10
48.9984
 20
-30.1087
 11
48.7361
 21
-30.2042
  0
LINE
  8
0
 10
48.7361
 20
-30.2042
 11
48.4677
 21
-30.2812
  0
LINE
  8
0
 10
48.4677
 20
-30.2812
 11
48.1946
 21
-30.3392
  0
LINE
  8
0
 10
48.1946
 20
-30.3392
 11
47.9181
 21
-30.3781
  0
LINE
  8
0
 10
47.9181
 20
-30.3781
 11
47.6396
 21
-30.3976
  0
LINE
  8
0
 10
47.6396
 20
-30.3976
 11
47.3604
 21
-30.3976
  0
LINE
  8
0
 10
47.3604
 20
-30.3976
 11
47.0819
 21
-30.3781
  0
LINE
  8
0
 10
47.0819
 20
-30.3781
 11
46.8054
 21
-30.3392
  0
LINE
  8
0
 10
46.8054
 20
-30.3392
 11
46.5323
 21
-30.2812
  0
LINE
  8
0
 10
46.5323
 20
-30.2812
 11
46.2639
 21
-30.2042
  0
LINE
  8
0
 10
46.2639
 20
-30.2042
 11
46.0016
 21
-30.1087
  0
LINE
  8
0
 10
46.0016
 20
-30.1087
 11
45.7465
 21
-29.9952
  0
LINE
  8
0
 10
45.7465
 20
-29.9952
 11
45.5
 21
-29.8641
  0
LINE
  8
0
 10
45.5
 20
-29.8641
 11
45.2632
 21
-29.7161
  0
LINE
  8
0
 10
45.2632
 20
-29.7161
 11
45.0374
 21
-29.552
  0
LINE
  8
0
 10
45.0374
 20
-29.552
 11
44.8235
 21
-29.3726
  0
LINE
  8
0
 10
44.8235
 20
-29.3726
 11
44.6226
 21
-29.1786
  0
LINE
  8
0
 10
44.6226
 20
-29.1786
 11
44.4358
 21
-28.9711
  0
LINE
  8
0
 10
44.4358
 20
-28.9711
 11
44.2639
 21
-28.7511
  0
LINE
  8
0
 10
44.2639
 20
-28.7511
 11
44.1078
 21
-28.5197
  0
LINE
  8
0
 10
44.1078
 20
-28.5197
 11
43.9682
 21
-28.2779
  0
LINE
  8
0
 10
43.9682
 20
-28.2779
 11
43.8458
 21
-28.0269
  0
LINE
  8
0
 10
43.8458
 20
-28.0269
 11
43.7412
 21
-27.7681
  0
LINE
  8
0
 10
43.7412
 20
-27.7681
 11
43.655
 21
-27.5025
  0
LINE
  8
0
 10
43.655
 20
-27.5025
 11
43.5874
 21
-27.2316
  0
LINE
  8
0
 10
43.5874
 20
-27.2316
 11
43.5389
 21
-26.9567
  0
LINE
  8
0
 10
43.5389
 20
-26.9567
 11
43.5097
 21
-26.679
  0
LINE
  8
0
 10
43.5097
 20
-26.679
 11
43.5
 21
-26.4
  0
LINE
  8
0
 10
43.5
 20
-8.8
 11
43.5097
 21
-8.52097
  0
LINE
  8
0
 10
43.5097
 20
-8.52097
 11
43.5389
 21
-8.24331
  0
LINE
  8
0
 10
43.5389
 20
-8.24331
 11
43.5874
 21
-7.96835
  0
LINE
  8
0
 10
43.5874
 20
-7.96835
 11
43.655
 21
-7.69745
  0
LINE
  8
0
 10
43.655
 20
-7.69745
 11
43.7412
 21
-7.43192
  0
LINE
  8
0
 10
43.7412
 20
-7.43192
 11
43.8458
 21
-7.17305
  0
LINE
  8
0
 10
43.8458
 20
-7.17305
 11
43.9682
 21
-6.92211
  0
LINE
  8
0
 10
43.9682
 20
-6.92211
 11
44.1078
 21
-6.68032
  0
LINE
  8
0
 10
44.1078
 20
-6.68032
 11
44.2639
 21
-6.44886
  0
LINE
  8
0
 10
44.2639
 20
-6.44886
 11
44.4358
 21
-6.22885
  0
LINE
  8
0
 10
44.4358
 20
-6.22885
 11
44.6226
 21
-6.02137
  0
LINE
  8
0
 10
44.6226
 20
-6.02137
 11
44.8235
 21
-5.82742
  0
LINE
  8
0
 10
44.8235
 20
-5.82742
 11
45.0374
 21
-5.64796
  0
LINE
  8
0
 10
45.0374
 20
-5.64796
 11
45.2632
 21
-5.48385
  0
LINE
  8
0
 10
45.2632
 20
-5.48385
 11
45.5
 21
-5.3359
  0
LINE
  8
0
 10
45.5
 20
-5.3359
 11
45.7465
 21
-5.20482
  0
LINE
  8
0
 10
45.7465
 20
-5.20482
 11
46.0016
 21
-5.09127
  0
LINE
  8
0
 10
46.0016
 20
-5.09127
 11
46.2639
 21
-4.99577
  0
LINE
  8
0
 10
46.2639
 20
-4.99577
 11
46.5323
 21
-4.91882
  0
LINE
  8
0
 10
46.5323
 20
-4.91882
 11
46.8054
 21
-4.86077
  0
LINE
  8
0
 10
46.8054
 20
-4.86077
 11
47.0819
 21
-4.82191
  0
LINE
  8
0
 10
47.0819
 20
-4.82191
 11
47.3604
 21
-4.80244
  0
LINE
  8
0
 10
47.3604
 20
-4.80244
 11
47.6396
 21
-4.80244
  0
LINE
  8
0
 10
47.6396
 20
-4.80244
 11
47.9181
 21
-4.82191
  0
LINE
  8
0
 10
47.9181
 20
-4.82191
 11
48.1946
 21
-4.86077
  0
LINE
  8
0
 10
48.1946
 20
-4.86077
 11
48.4677
 21
-4.91882
  0
LINE
  8
0
 10
48.4677
 20
-4.91882
 11
48.7361
 21
-4.99577
  0
LINE
  8
0
 10
48.7361
 20
-4.99577
 11
48.9984
 21
-5.09127
  0
LINE
  8
0
 10
48.9984
 20
-5.09127
 11
49.2535
 21
-5.20482
  0
LINE
  8
0
 10
49.2535
 20
-5.20482
 11
49.5
 21
-5.3359
  0
LINE
  8
0
 10
49.5
 20
-5.3359
 11
49.7368
 21
-5.48385
  0
LINE
  8
0
 10
49.7368
 20
-5.48385
 11
49.9626
 21
-5.64796
  0
LINE
  8
0
 10
49.9626
 20
-5.64796
 11
50.1765
 21
-5.82742
  0
LINE
  8
0
 10
50.1765
 20
-5.82742
 11
50.3774
 21
-6.02137
  0
LINE
  8
0
 10
50.3774
 20
-6.02137
 11
50.5642
 21
-6.22885
  0
LINE
  8
0
 10
50.5642
 20
-6.22885
 11
50.7361
 21
-6.44886
  0
LINE
  8
0
 10
50.7361
 20
-6.44886
 11
50.8922
 21
-6.68032
  0
LINE
  8
0
 10
50.8922
 20
-6.68032
 11
51.0318
 21
-6.92211
  0
LINE
  8
0
 10
51.0318
 20
-6.92211
 11
51.1542
 21
-7.17305
  0
LINE
  8
0
 10
51.1542
 20
-7.17305
 11
51.2588
 21
-7.43192
  0
LINE
  8
0
 10
51.2588
 20
-7.43192
 11
51.345
 21
-7.69745
  0
LINE
  8
0
 10
51.345
 20
-7.69745
 11
51.4126
 21
-7.96835
  0
LINE
  8
0
 10
51.4126
 20
-7.96835
 11
51.4611
 21
-8.24331
  0
LINE
  8
0
 10
51.4611
 20
-8.24331
 11
51.4903
 21
-8.52097
  0
LINE
  8
0
 10
51.4903
 20
-8.52097
 11
51.5
 21
-8.8
  0
LINE
  8
0
 10
51.5
 20
-8.8
 11
51.4903
 21
-9.07903
  0
LINE
  8
0
 10
51.4903
 20
-9.07903
 11
51.4611
 21
-9.35669
  0
LINE
  8
0
 10
51.4611
 20
-9.35669
 11
51.4126
 21
-9.63165
  0
LINE
  8
0
 10
51.4126
 20
-9.63165
 11
51.345
 21
-9.90255
  0
LINE
  8
0
 10
51.345
 20
-9.90255
 11
51.2588
 21
-10.1681
  0
LINE
  8
0
 10
51.2588
 20
-10.1681
 11
51.1542
 21
-10.4269
  0
LINE
  8
0
 10
51.1542
 20
-10.4269
 11
51.0318
 21
-10.6779
  0
LINE
  8
0
 10
51.0318
 20
-10.6779
 11
50.8922
 21
-10.9197
  0
LINE
  8
0
 10
50.8922
 20
-10.9197
 11
50.7361
 21
-11.1511
  0
LINE
  8
0
 10
50.7361
 20
-11.1511
 11
50.5642
 21
-11.3711
  0
LINE
  8
0
 10
50.5642
 20
-11.3711
 11
50.3774
 21
-11.5786
  0
LINE
  8
0
 10
50.3774
 20
-11.5786
 11
50.1765
 21
-11.7726
  0
LINE
  8
0
 10
50.1765
 20
-11.7726
 11
49.9626
 21
-11.952
  0
LINE
  8
0
 10
49.9626
 20
-11.952
 11
49.7368
 21
-12.1161
  0
LINE
  8
0
 10
49.7368
 20
-12.1161
 11
49.5
 21
-12.2641
  0
LINE
  8
0
 10
49.5
 20
-12.2641
 11
49.2535
 21
-12.3952
  0
LINE
  8
0
 10
49.2535
 20
-12.3952
 11
48.9984
 21
-12.5087
  0
LINE
  8
0
 10
48.9984
 20
-12.5087
 11
48.7361
 21
-12.6042
  0
LINE
  8
0
 10
48.7361
 20
-12.6042
 11
48.4677
 21
-12.6812
  0
LINE
  8
0
 10
48.4677
 20
-12.6812
 11
48.1946
 21
-12.7392
  0
LINE
  8
0
 10
48.1946
 20
-12.7392
 11
47.9181
 21
-12.7781
  0
LINE
  8
0
 10
47.9181
 20
-12.7781
 11
47.6396
 21
-12.7976
  0
LINE
  8
0
 10
47.6396
 20
-12.7976
 11
47.3604
 21
-12.7976
  0
LINE
  8
0
 10
47.3604
 20
-12.7976
 11
47.0819
 21
-12.7781
  0
LINE
  8
0
 10
47.0819
 20
-12.7781
 11
46.8054
 21
-12.7392
  0
LINE
  8
0
 10
46.8054
 20
-12.7392
 11
46.5323
 21
-12.6812
  0
LINE
  8
0
 10
46.5323
 20
-12.6812
 11
46.2639
 21
-12.6042
  0
LINE
  8
0
 10
46.2639
 20
-12.6042
 11
46.0016
 21
-12.5087
  0
LINE
  8
0
 10
46.0016
 20
-12.5087
 11
45.7465
 21
-12.3952
  0
LINE
  8
0
 10
45.7465
 20
-12.3952
 11
45.5
 21
-12.2641
  0
LINE
  8
0
 10
45.5
 20
-12.2641
 11
45.2632
 21
-12.1161
  0
LINE
  8
0
 10
45.2632
 20
-12.1161
 11
45.0374
 21
-11.952
  0
LINE
  8
0
 10
45.0374
 20
-11.952
 11
44.8235
 21
-11.7726
  0
LINE
  8
0
 10
44.8235
 20
-11.7726
 11
44.6226
 21
-11.5786
  0
LINE
  8
0
 10
44.6226
 20
-11.5786
 11
44.4358
 21
-11.3711
  0
LINE
  8
0
 10
44.4358
 20
-11.3711
 11
44.2639
 21
-11.1511
  0
LINE
  8
0
 10
44.2639
 20
-11.1511
 11
44.1078
 21
-10.9197
  0
LINE
  8
0
 10
44.1078
 20
-10.9197
 11
43.9682
 21
-10.6779
  0
LINE
  8
0
 10
43.9682
 20
-10.6779
 11
43.8458
 21
-10.4269
  0
LINE
  8
0
 10
43.8458
 20
-10.4269
 11
43.7412
 21
-10.1681
  0
LINE
  8
0
 10
43.7412
 20
-10.1681
 11
43.655
 21
-9.90255
  0
LINE
  8
0
 10
43.655
 20
-9.90255
 11
43.5874
 21
-9.63165
  0
LINE
  8
0
 10
43.5874
 20
-9.63165
 11
43.5389
 21
-9.35669
  0
LINE
  8
0
 10
43.5389
 20
-9.35669
 11
43.5097
 21
-9.07903
  0
LINE
  8
0
 10
43.5097
 20
-9.07903
 11
43.5
 21
-8.8
  0
LINE
  8
0
 10
43.5
 20
8.8
 11
43.5097
 21
9.07903
  0
LINE
  8
0
 10
43.5097
 20
9.07903
 11
43.5389
 21
9.35669
  0
LINE
  8
0
 10
43.5389
 20
9.35669
 11
43.5874
 21
9.63165
  0
LINE
  8
0
 10
43.5874
 20
9.63165
 11
43.655
 21
9.90255
  0
LINE
  8
0
 10
43.655
 20
9.90255
 11
43.7412
 21
10.1681
  0
LINE
  8
0
 10
43.7412
 20
10.1681
 11
43.8458
 21
10.4269
  0
LINE
  8
0
 10
43.8458
 20
10.4269
 11
43.9682
 21
10.6779
  0
LINE
  8
0
 10
43.9682
 20
10.6779
 11
44.1078
 21
10.9197
  0
LINE
  8
0
 10
44.1078
 20
10.9197
 11
44.2639
 21
11.1511
  0
LINE
  8
0
 10
44.2639
 20
11.1511
 11
44.4358
 21
11.3711
  0
LINE
  8
0
 10
44.4358
 20
11.3711
 11
44.6226
 21
11.5786
  0
LINE
  8
0
 10
44.6226
 20
11.5786
 11
44.8235
 21
11.7726
  0
LINE
  8
0
 10
44.8235
 20
11.7726
 11
45.0374
 21
11.952
  0
LINE
  8
0
 10
45.0374
 20
11.952
 11
45.2632
 21
12.1161
  0
LINE
  8
0
 10
45.2632
 20
12.1161
 11
45.5
 21
12.2641
  0
LINE
  8
0
 10
45.5
 20
12.2641
 11
45.7465
 21
12.3952
  0
LINE
  8
0
 10
45.7465
 20
12.3952
 11
46.0016
 21
12.5087
  0
LINE
  8
0
 10
46.0016
 20
12.5087
 11
46.2639
 21
12.6042
  0
LINE
  8
0
 10
46.2639
 20
12.6042
 11
46.5323
 21
12.6812
  0
LINE
  8
0
 10
46.5323
 20
12.6812
 11
46.8054
 21
12.7392
  0
LINE
  8
0
 10
46.8054
 20
12.7392
 11
47.0819
 21
12.7781
  0
LINE
  8
0
 10
47.0819
 20
12.7781
 11
47.3604
 21
12.7976
  0
LINE
  8
0
 10
47.3604
 20
12.7976
 11
47.6396
 21
12.7976
  0
LINE
  8
0
 10
47.6396
 20
12.7976
 11
47.9181
 21
12.7781
  0
LINE
  8
0
 10
47.9181
 20
12.7781
 11
48.1946
 21
12.7392
  0
LINE
  8
0
 10
48.1946
 20
12.7392
 11
48.4677
 21
12.6812
  0
LINE
  8
0
 10
48.4677
 20
12.6812
 11
48.7361
 21
12.6042
  0
LINE
  8
0
 10
48.7361
 20
12.6042
 11
48.9984
 21
12.5087
  0
LINE
  8
0
 10
48.9984
 20
12.5087
 11
49.2535
 21
12.3952
  0
LINE
  8
0
 10
49.2535
 20
12.3952
 11
49.5
 21
12.2641
  0
LINE
  8
0
 10
49.5
 20
12.2641
 11
49.7368
 21
12.1161
  0
LINE
  8
0
 10
49.7368
 20
12.1161
 11
49.9626
 21
11.952
  0
LINE
  8
0
 10
49.9626
 20
11.952
 11
50.1765
 21
11.7726
  0
LINE
  8
0
 10
50.1765
 20
11.7726
 11
50.3774
 21
11.5786
  0
LINE
  8
0
 10
50.3774
 20
11.5786
 11
50.5642
 21
11.3711
  0
LINE
  8
0
 10
50.5642
 20
11.3711
 11
50.7361
 21
11.1511
  0
LINE
  8
0
 10
50.7361
 20
11.1511
 11
50.8922
 21
10.9197
  0
LINE
  8
0
 10
50.8922
 20
10.9197
 11
51.0318
 21
10.6779
  0
LINE
  8
0
 10
51.0318
 20
10.6779
 11
51.1542
 21
10.4269
  0
LINE
  8
0
 10
51.1542
 20
10.4269
 11
51.2588
 21
10.1681
  0
LINE
  8
0
 10
51.2588
 20
10.1681
 11
51.345
 21
9.90255
  0
LINE
  8
0
 10
51.345
 20
9.90255
 11
51.4126
 21
9.63165
  0
LINE
  8
0
 10
51.4126
 20
9.63165
 11
51.4611
 21
9.35669
  0
LINE
  8
0
 10
51.4611
 20
9.35669
 11
51.4903
 21
9.07903
  0
LINE
  8
0
 10
51.4903
 20
9.07903
 11
51.5
 21
8.8
  0
LINE
  8
0
 10
51.5
 20
8.8
 11
51.4903
 21
8.52097
  0
LINE
  8
0
 10
51.4903
 20
8.52097
 11
51.4611
 21
8.24331
  0
LINE
  8
0
 10
51.4611
 20
8.24331
 11
51.4126
 21
7.96835
  0
LINE
  8
0
 10
51.4126
 20
7.96835
 11
51.345
 21
7.69745
  0
LINE
  8
0
 10
51.345
 20
7.69745
 11
51.2588
 21
7.43192
  0
LINE
  8
0
 10
51.2588
 20
7.43192
 11
51.1542
 21
7.17305
  0
LINE
  8
0
 10
51.1542
 20
7.17305
 11
51.0318
 21
6.92211
  0
LINE
  8
0
 10
51.0318
 20
6.92211
 11
50.8922
 21
6.68032
  0
LINE
  8
0
 10
50.8922
 20
6.68032
 11
50.7361
 21
6.44886
  0
LINE
  8
0
 10
50.7361
 20
6.44886
 11
50.5642
 21
6.22885
  0
LINE
  8
0
 10
50.5642
 20
6.22885
 11
50.3774
 21
6.02137
  0
LINE
  8
0
 10
50.3774
 20
6.02137
 11
50.1765
 21
5.82742
  0
LINE
  8
0
 10
50.1765
 20
5.82742
 11
49.9626
 21
5.64796
  0
LINE
  8
0
 10
49.9626
 20
5.64796
 11
49.7368
 21
5.48385
  0
LINE
  8
0
 10
49.7368
 20
5.48385
 11
49.5
 21
5.3359
  0
LINE
  8
0
 10
49.5
 20
5.3359
 11
49.2535
 21
5.20482
  0
LINE
  8
0
 10
49.2535
 20
5.20482
 11
48.9984
 21
5.09127
  0
LINE
  8
0
 10
48.9984
 20
5.09127
 11
48.7361
 21
4.99577
  0
LINE
  8
0
 10
48.7361
 20
4.99577
 11
48.4677
 21
4.91882
  0
LINE
  8
0
 10
48.4677
 20
4.91882
 11
48.1946
 21
4.86077
  0
LINE
  8
0
 10
48.1946
 20
4.86077
 11
47.9181
 21
4.82191
  0
LINE
  8
0
 10
47.9181
 20
4.82191
 11
47.6396
 21
4.80244
  0
LINE
  8
0
 10
47.6396
 20
4.80244
 11
47.3604
 21
4.80244
  0
LINE
  8
0
 10
47.3604
 20
4.80244
 11
47.0819
 21
4.82191
  0
LINE
  8
0
 10
47.0819
 20
4.82191
 11
46.8054
 21
4.86077
  0
LINE
  8
0
 10
46.8054
 20
4.86077
 11
46.5323
 21
4.91882
  0
LINE
  8
0
 10
46.5323
 20
4.91882
 11
46.2639
 21
4.99577
  0
LINE
  8
0
 10
46.2639
 20
4.99577
 11
46.0016
 21
5.09127
  0
LINE
  8
0
 10
46.0016
 20
5.09127
 11
45.7465
 21
5.20482
  0
LINE
  8
0
 10
45.7465
 20
5.20482
 11
45.5
 21
5.3359
  0
LINE
  8
0
 10
45.5
 20
5.3359
 11
45.2632
 21
5.48385
  0
LINE
  8
0
 10
45.2632
 20
5.48385
 11
45.0374
 21
5.64796
  0
LINE
  8
0
 10
45.0374
 20
5.64796
 11
44.8235
 21
5.82742
  0
LINE
  8
0
 10
44.8235
 20
5.82742
 11
44.6226
 21
6.02137
  0
LINE
  8
0
 10
44.6226
 20
6.02137
 11
44.4358
 21
6.22885
  0
LINE
  8
0
 10
44.4358
 20
6.22885
 11
44.2639
 21
6.44886
  0
LINE
  8
0
 10
44.2639
 20
6.44886
 11
44.1078
 21
6.68032
  0
LINE
  8
0
 10
44.1078
 20
6.68032
 11
43.9682
 21
6.92211
  0
LINE
  8
0
 10
43.9682
 20
6.92211
 11
43.8458
 21
7.17305
  0
LINE
  8
0
 10
43.8458
 20
7.17305
 11
43.7412
 21
7.43192
  0
LINE
  8
0
 10
43.7412
 20
7.43192
 11
43.655
 21
7.69745
  0
LINE
  8
0
 10
43.655
 20
7.69745
 11
43.5874
 21
7.96835
  0
LINE
  8
0
 10
43.5874
 20
7.96835
 11
43.5389
 21
8.24331
  0
LINE
  8
0
 10
43.5389
 20
8.24331
 11
43.5097
 21
8.52097
  0
LINE
  8
0
 10
43.5097
 20
8.52097
 11
43.5
 21
8.8
  0
LINE
  8
0
 10
43.5
 20
26.4
 11
43.5097
 21
26.679
  0
LINE
  8
0
 10
43.5097
 20
26.679
 11
43.5389
 21
26.9567
  0
LINE
  8
0
 10
43.5389
 20
26.9567
 11
43.5874
 21
27.2316
  0
LINE
  8
0
 10
43.5874
 20
27.2316
 11
43.655
 21
27.5025
  0
LINE
  8
0
 10
43.655
 20
27.5025
 11
43.7412
 21
27.7681
  0
LINE
  8
0
 10
43.7412
 20
27.7681
 11
43.8458
 21
28.0269
  0
LINE
  8
0
 10
43.8458
 20
28.0269
 11
43.9682
 21
28.2779
  0
LINE
  8
0
 10
43.9682
 20
28.2779
 11
44.1078
 21
28.5197
  0
LINE
  8
0
 10
44.1078
 20
28.5197
 11
44.2639
 21
28.7511
  0
LINE
  8
0
 10
44.2639
 20
28.7511
 11
44.4358
 21
28.9711
  0
LINE
  8
0
 10
44.4358
 20
28.9711
 11
44.6226
 21
29.1786
  0
LINE
  8
0
 10
44.6226
 20
29.1786
 11
44.8235
 21
29.3726
  0
LINE
  8
0
 10
44.8235
 20
29.3726
 11
45.0374
 21
29.552
  0
LINE
  8
0
 10
45.0374
 20
29.552
 11
45.2632
 21
29.7161
  0
LINE
  8
0
 10
45.2632
 20
29.7161
 11
45.5
 21
29.8641
  0
LINE
  8
0
 10
45.5
 20
29.8641
 11
45.7465
 21
29.9952
  0
LINE
  8
0
 10
45.7465
 20
29.9952
 11
46.0016
 21
30.1087
  0
LINE
  8
0
 10
46.0016
 20
30.1087
 11
46.2639
 21
30.2042
  0
LINE
  8
0
 10
46.2639
 20
30.2042
 11
46.5323
 21
30.2812
  0
LINE
  8
0
 10
46.5323
 20
30.2812
 11
46.8054
 21
30.3392
  0
LINE
  8
0
 10
46.8054
 20
30.3392
 11
47.0819
 21
30.3781
  0
LINE
  8
0
 10
47.0819
 20
30.3781
 11
47.3604
 21
30.3976
  0
LINE
  8
0
 10
47.3604
 20
30.3976
 11
47.6396
 21
30.3976
  0
LINE
  8
0
 10
47.6396
 20
30.3976
 11
47.9181
 21
30.3781
  0
LINE
  8
0
 10
47.9181
 20
30.3781
 11
48.1946
 21
30.3392
  0
LINE
  8
0
 10
48.1946
 20
30.3392
 11
48.4677
 21
30.2812
  0
LINE
  8
0
 10
48.4677
 20
30.2812
 11
48.7361
 21
30.2042
  0
LINE
  8
0
 10
48.7361
 20
30.2042
 11
48.9984
 21
30.1087
  0
LINE
  8
0
 10
48.9984
 20
30.1087
 11
49.2535
 21
29.9952
  0
LINE
  8
0
 10
49.2535
 20
29.9952
 11
49.5
 21
29.8641
  0
LINE
  8
0
 10
49.5
 20
29.8641
 11
49.7368
 21
29.7161
  0
LINE
  8
0
 10
49.7368
 20
29.7161
 11
49.9626
 21
29.552
  0
LINE
  8
0
 10
49.9626
 20
29.552
 11
50.1765
 21
29.3726
  0
LINE
  8
0
 10
50.1765
 20
29.3726
 11
50.3774
 21
29.1786
  0
LINE
  8
0
 10
50.3774
 20
29.1786
 11
50.5642
 21
28.9711
  0
LINE
  8
0
 10
50.5642
 20
28.9711
 11
50.7361
 21
28.7511
  0
LINE
  8
0
 10
50.7361
 20
28.7511
 11
50.8922
 21
28.5197
  0
LINE
  8
0
 10
50.8922
 20
28.5197
 11
51.0318
 21
28.2779
  0
LINE
  8
0
 10
51.0318
 20
28.2779
 11
51.1542
 21
28.0269
  0
LINE
  8
0
 10
51.1542
 20
28.0269
 11
51.2588
 21
27.7681
  0
LINE
  8
0
 10
51.2588
 20
27.7681
 11
51.345
 21
27.5025
  0
LINE
  8
0
 10
51.345
 20
27.5025
 11
51.4126
 21
27.2316
  0
LINE
  8
0
 10
51.4126
 20
27.2316
 11
51.4611
 21
26.9567
  0
LINE
  8
0
 10
51.4611
 20
26.9567
 11
51.4903
 21
26.679
  0
LINE
  8
0
 10
51.4903
 20
26.679
 11
51.5
 21
26.4
  0
LINE
  8
0
 10
51.5
 20
26.4
 11
51.4903
 21
26.121
  0
LINE
  8
0
 10
51.4903
 20
26.121
 11
51.4611
 21
25.8433
  0
LINE
  8
0
 10
51.4611
 20
25.8433
 11
51.4126
 21
25.5684
  0
LINE
  8
0
 10
51.4126
 20
25.5684
 11
51.345
 21
25.2975
  0
LINE
  8
0
 10
51.345
 20
25.2975
 11
51.2588
 21
25.0319
  0
LINE
  8
0
 10
51.2588
 20
25.0319
 11
51.1542
 21
24.7731
  0
LINE
  8
0
 10
51.1542
 20
24.7731
 11
51.0318
 21
24.5221
  0
LINE
  8
0
 10
51.0318
 20
24.5221
 11
50.8922
 21
24.2803
  0
LINE
  8
0
 10
50.8922
 20
24.2803
 11
50.7361
 21
24.0489
  0
LINE
  8
0
 10
50.7361
 20
24.0489
 11
50.5642
 21
23.8289
  0
LINE
  8
0
 10
50.5642
 20
23.8289
 11
50.3774
 21
23.6214
  0
LINE
  8
0
 10
50.3774
 20
23.6214
 11
50.1765
 21
23.4274
  0
LINE
  8
0
 10
50.1765
 20
23.4274
 11
49.9626
 21
23.248
  0
LINE
  8
0
 10
49.9626
 20
23.248
 11
49.7368
 21
23.0839
  0
LINE
  8
0
 10
49.7368
 20
23.0839
 11
49.5
 21
22.9359
  0
LINE
  8
0
 10
49.5
 20
22.9359
 11
49.2535
 21
22.8048
  0
LINE
  8
0
 10
49.2535
 20
22.8048
 11
48.9984
 21
22.6913
  0
LINE
  8
0
 10
48.9984
 20
22.6913
 11
48.7361
 21
22.5958
  0
LINE
  8
0
 10
48.7361
 20
22.5958
 11
48.4677
 21
22.5188
  0
LINE
  8
0
 10
48.4677
 20
22.5188
 11
48.1946
 21
22.4608
  0
LINE
  8
0
 10
48.1946
 20
22.4608
 11
47.9181
 21
22.4219
  0
LINE
  8
0
 10
47.9181
 20
22.4219
 11
47.6396
 21
22.4024
  0
LINE
  8
0
 10
47.6396
 20
22.4024
 11
47.3604
 21
22.4024
  0
LINE
  8
0
 10
47.3604
 20
22.4024
 11
47.0819
 21
22.4219
  0
LINE
  8
0
 10
47.0819
 20
22.4219
 11
46.8054
 21
22.4608
  0
LINE
  8
0
 10
46.8054
 20
22.4608
 11
46.5323
 21
22.5188
  0
LINE
  8
0
 10
46.5323
 20
22.5188
 11
46.2639
 21
22.5958
  0
LINE
  8
0
 10
46.2639
 20
22.5958
 11
46.0016
 21
22.6913
  0
LINE
  8
0
 10
46.0016
 20
22.6913
 11
45.7465
 21
22.8048
  0
LINE
  8
0
 10
45.7465
 20
22.8048
 11
45.5
 21
22.9359
  0
LINE
  8
0
 10
45.5
 20
22.9359
 11
45.2632
 21
23.0839
  0
LINE
  8
0
 10
45.2632
 20
23.0839
 11
45.0374
 21
23.248
  0
LINE
  8
0
 10
45.0374
 20
23.248
 11
44.8235
 21
23.4274
  0
LINE
  8
0
 10
44.8235
 20
23.4274
 11
44.6226
 21
23.6214
  0
LINE
  8
0
 10
44.6226
 20
23.6214
 11
44.4358
 21
23.8289
  0
LINE
  8
0
 10
44.4358
 20
23.8289
 11
44.2639
 21
24.0489
  0
LINE
  8
0
 10
44.2639
 20
24.0489
 11
44.1078
 21
24.2803
  0
LINE
  8
0
 10
44.1078
 20
24.2803
 11
43.9682
 21
24.5221
  0
LINE
  8
0
 10
43.9682
 20
24.5221
 11
43.8458
 21
24.7731
  0
LINE
  8
0
 10
43.8458
 20
24.7731
 11
43.7412
 21
25.0319
  0
LINE
  8
0
 10
43.7412
 20
25.0319
 11
43.655
 21
25.2975
  0
LINE
  8
0
 10
43.655
 20
25.2975
 11
43.5874
 21
25.5684
  0
LINE
  8
0
 10
43.5874
 20
25.5684
 11
43.5389
 21
25.8433
  0
LINE
  8
0
 10
43.5389
 20
25.8433
 11
43.5097
 21
26.121
  0
LINE
  8
0
 10
43.5097
 20
26.121
 11
43.5
 21
26.4
  0
ENDSEC
  0
SECTION
  2
OBJECTS
  0
DICTIONARY
  0
ENDSEC
  0
EOF
