  0
SECTION
  2
BLOCKS
  0
ENDSEC
  0
SECTION
  2
ENTITIES
  0
LINE
  8
0
 10
-8.4
 20
-9.75
 11
-7.86187
 21
-9.75
  0
LINE
  8
0
 10
-7.86187
 20
-9.75
 11
-7.62809
 21
-9.52815
  0
LINE
  8
0
 10
-7.62809
 20
-9.52815
 11
-7.17425
 21
-9.14054
  0
LINE
  8
0
 10
-7.17425
 20
-9.14054
 11
-6.70075
 21
-8.77721
  0
LINE
  8
0
 10
-6.70075
 20
-8.77721
 11
-6.20888
 21
-8.43916
  0
LINE
  8
0
 10
-6.20888
 20
-8.43916
 11
-5.7
 21
-8.12731
  0
LINE
  8
0
 10
-5.7
 20
-8.12731
 11
-5.17549
 21
-7.84253
  0
LINE
  8
0
 10
-5.17549
 20
-7.84253
 11
-4.6368
 21
-7.58558
  0
LINE
  8
0
 10
-4.6368
 20
-7.58558
 11
-4.08539
 21
-7.35718
  0
LINE
  8
0
 10
-4.08539
 20
-7.35718
 11
-3.52279
 21
-7.15796
  0
LINE
  8
0
 10
-3.52279
 20
-7.15796
 11
-2.95054
 21
-6.98845
  0
LINE
  8
0
 10
-2.95054
 20
-6.98845
 11
-2.37019
 21
-6.84912
  0
LINE
  8
0
 10
-2.37019
 20
-6.84912
 11
-1.78335
 21
-6.74035
  0
LINE
  8
0
 10
-1.78335
 20
-6.74035
 11
-1.19162
 21
-6.66245
  0
LINE
  8
0
 10
-1.19162
 20
-6.66245
 11
-0.596629
 21
-6.61562
  0
LINE
  8
0
 10
-0.596629
 20
-6.61562
 11
0
 21
-6.6
  0
LINE
  8
0
 10
0
 20
-6.6
 11
0.596629
 21
-6.61562
  0
LINE
  8
0
 10
0.596629
 20
-6.61562
 11
1.19162
 21
-6.66245
  0
LINE
  8
0
 10
1.19162
 20
-6.66245
 11
1.78335
 21
-6.74035
  0
LINE
  8
0
 10
1.78335
 20
-6.74035
 11
2.37019
 21
-6.84912
  0
LINE
  8
0
 10
2.37019
 20
-6.84912
 11
2.95054
 21
-6.98845
  0
LINE
  8
0
 10
2.95054
 20
-6.98845
 11
3.52279
 21
-7.15796
  0
LINE
  8
0
 10
3.52279
 20
-7.15796
 11
4.08539
 21
-7.35718
  0
LINE
  8
0
 10
4.08539
 20
-7.35718
 11
4.6368
 21
-7.58558
  0
LINE
  8
0
 10
4.6368
 20
-7.58558
 11
5.17549
 21
-7.84253
  0
LINE
  8
0
 10
5.17549
 20
-7.84253
 11
5.7
 21
-8.12731
  0
LINE
  8
0
 10
5.7
 20
-8.12731
 11
6.20888
 21
-8.43916
  0
LINE
  8
0
 10
6.20888
 20
-8.43916
 11
6.70075
 21
-8.77721
  0
LINE
  8
0
 10
6.70075
 20
-8.77721
 11
7.17425
 21
-9.14054
  0
LINE
  8
0
 10
7.17425
 20
-9.14054
 11
7.62809
 21
-9.52815
  0
LINE
  8
0
 10
7.62809
 20
-9.52815
 11
7.86187
 21
-9.75
  0
LINE
  8
0
 10
7.86187
 20
-9.75
 11
8.4
 21
-9.75
  0
LINE
  8
0
 10
8.4
 20
-9.75
 11
8.4
 21
9.75
  0
LINE
  8
0
 10
8.4
 20
9.75
 11
7.86187
 21
9.75
  0
LINE
  8
0
 10
7.86187
 20
9.75
 11
7.62809
 21
9.52815
  0
LINE
  8
0
 10
7.62809
 20
9.52815
 11
7.17425
 21
9.14054
  0
LINE
  8
0
 10
7.17425
 20
9.14054
 11
6.70075
 21
8.77721
  0
LINE
  8
0
 10
6.70075
 20
8.77721
 11
6.20888
 21
8.43916
  0
LINE
  8
0
 10
6.20888
 20
8.43916
 11
5.7
 21
8.12731
  0
LINE
  8
0
 10
5.7
 20
8.12731
 11
5.17549
 21
7.84253
  0
LINE
  8
0
 10
5.17549
 20
7.84253
 11
4.6368
 21
7.58558
  0
LINE
  8
0
 10
4.6368
 20
7.58558
 11
4.08539
 21
7.35718
  0
LINE
  8
0
 10
4.08539
 20
7.35718
 11
3.52279
 21
7.15796
  0
LINE
  8
0
 10
3.52279
 20
7.15796
 11
2.95054
 21
6.98845
  0
LINE
  8
0
 10
2.95054
 20
6.98845
 11
2.37019
 21
6.84912
  0
LINE
  8
0
 10
2.37019
 20
6.84912
 11
1.78335
 21
6.74035
  0
LINE
  8
0
 10
1.78335
 20
6.74035
 11
1.19162
 21
6.66245
  0
LINE
  8
0
 10
1.19162
 20
6.66245
 11
0.596629
 21
6.61562
  0
LINE
  8
0
 10
0.596629
 20
6.61562
 11
0
 21
6.6
  0
LINE
  8
0
 10
0
 20
6.6
 11
-0.596629
 21
6.61562
  0
LINE
  8
0
 10
-0.596629
 20
6.61562
 11
-1.19162
 21
6.66245
  0
LINE
  8
0
 10
-1.19162
 20
6.66245
 11
-1.78335
 21
6.74035
  0
LINE
  8
0
 10
-1.78335
 20
6.74035
 11
-2.37019
 21
6.84912
  0
LINE
  8
0
 10
-2.37019
 20
6.84912
 11
-2.95054
 21
6.98845
  0
LINE
  8
0
 10
-2.95054
 20
6.98845
 11
-3.52279
 21
7.15796
  0
LINE
  8
0
 10
-3.52279
 20
7.15796
 11
-4.08539
 21
7.35718
  0
LINE
  8
0
 10
-4.08539
 20
7.35718
 11
-4.6368
 21
7.58558
  0
LINE
  8
0
 10
-4.6368
 20
7.58558
 11
-5.17549
 21
7.84253
  0
LINE
  8
0
 10
-5.17549
 20
7.84253
 11
-5.7
 21
8.12731
  0
LINE
  8
0
 10
-5.7
 20
8.12731
 11
-6.20888
 21
8.43916
  0
LINE
  8
0
 10
-6.20888
 20
8.43916
 11
-6.70075
 21
8.77721
  0
LINE
  8
0
 10
-6.70075
 20
8.77721
 11
-7.17425
 21
9.14054
  0
LINE
  8
0
 10
-7.17425
 20
9.14054
 11
-7.62809
 21
9.52815
  0
LINE
  8
0
 10
-7.62809
 20
9.52815
 11
-7.86187
 21
9.75
  0
LINE
  8
0
 10
-7.86187
 20
9.75
 11
-8.4
 21
9.75
  0
LINE
  8
0
 10
-8.4
 20
9.75
 11
-8.4
 21
-9.75
  0
LINE
  8
0
 10
-6.2
 20
0
 11
-6.1915
 21
0.324483
  0
LINE
  8
0
 10
-6.1915
 20
0.324483
 11
-6.16604
 21
0.648076
  0
LINE
  8
0
 10
-6.16604
 20
0.648076
 11
-6.12367
 21
0.969893
  0
LINE
  8
0
 10
-6.12367
 20
0.969893
 11
-6.06452
 21
1.28905
  0
LINE
  8
0
 10
-6.06452
 20
1.28905
 11
-5.98874
 21
1.60468
  0
LINE
  8
0
 10
-5.98874
 20
1.60468
 11
-5.89655
 21
1.9159
  0
LINE
  8
0
 10
-5.89655
 20
1.9159
 11
-5.7882
 21
2.22188
  0
LINE
  8
0
 10
-5.7882
 20
2.22188
 11
-5.66398
 21
2.52177
  0
LINE
  8
0
 10
-5.66398
 20
2.52177
 11
-5.52424
 21
2.81474
  0
LINE
  8
0
 10
-5.52424
 20
2.81474
 11
-5.36936
 21
3.1
  0
LINE
  8
0
 10
-5.36936
 20
3.1
 11
-5.19976
 21
3.37676
  0
LINE
  8
0
 10
-5.19976
 20
3.37676
 11
-5.0159
 21
3.64427
  0
LINE
  8
0
 10
-5.0159
 20
3.64427
 11
-4.8183
 21
3.90179
  0
LINE
  8
0
 10
-4.8183
 20
3.90179
 11
-4.6075
 21
4.14861
  0
LINE
  8
0
 10
-4.6075
 20
4.14861
 11
-4.38406
 21
4.38406
  0
LINE
  8
0
 10
-4.38406
 20
4.38406
 11
-4.14861
 21
4.6075
  0
LINE
  8
0
 10
-4.14861
 20
4.6075
 11
-3.90179
 21
4.8183
  0
LINE
  8
0
 10
-3.90179
 20
4.8183
 11
-3.64427
 21
5.0159
  0
LINE
  8
0
 10
-3.64427
 20
5.0159
 11
-3.37676
 21
5.19976
  0
LINE
  8
0
 10
-3.37676
 20
5.19976
 11
-3.1
 21
5.36936
  0
LINE
  8
0
 10
-3.1
 20
5.36936
 11
-2.81474
 21
5.52424
  0
LINE
  8
0
 10
-2.81474
 20
5.52424
 11
-2.52177
 21
5.66398
  0
LINE
  8
0
 10
-2.52177
 20
5.66398
 11
-2.22188
 21
5.7882
  0
LINE
  8
0
 10
-2.22188
 20
5.7882
 11
-1.9159
 21
5.89655
  0
LINE
  8
0
 10
-1.9159
 20
5.89655
 11
-1.60468
 21
5.98874
  0
LINE
  8
0
 10
-1.60468
 20
5.98874
 11
-1.28905
 21
6.06452
  0
LINE
  8
0
 10
-1.28905
 20
6.06452
 11
-0.969893
 21
6.12367
  0
LINE
  8
0
 10
-0.969893
 20
6.12367
 11
-0.648076
 21
6.16604
  0
LINE
  8
0
 10
-0.648076
 20
6.16604
 11
-0.324483
 21
6.1915
  0
LINE
  8
0
 10
-0.324483
 20
6.1915
 11
0
 21
6.2
  0
LINE
  8
0
 10
0
 20
6.2
 11
0.324483
 21
6.1915
  0
LINE
  8
0
 10
0.324483
 20
6.1915
 11
0.648076
 21
6.16604
  0
LINE
  8
0
 10
0.648076
 20
6.16604
 11
0.969893
 21
6.12367
  0
LINE
  8
0
 10
0.969893
 20
6.12367
 11
1.28905
 21
6.06452
  0
LINE
  8
0
 10
1.28905
 20
6.06452
 11
1.60468
 21
5.98874
  0
LINE
  8
0
 10
1.60468
 20
5.98874
 11
1.9159
 21
5.89655
  0
LINE
  8
0
 10
1.9159
 20
5.89655
 11
2.22188
 21
5.7882
  0
LINE
  8
0
 10
2.22188
 20
5.7882
 11
2.52177
 21
5.66398
  0
LINE
  8
0
 10
2.52177
 20
5.66398
 11
2.81474
 21
5.52424
  0
LINE
  8
0
 10
2.81474
 20
5.52424
 11
3.1
 21
5.36936
  0
LINE
  8
0
 10
3.1
 20
5.36936
 11
3.37676
 21
5.19976
  0
LINE
  8
0
 10
3.37676
 20
5.19976
 11
3.64427
 21
5.0159
  0
LINE
  8
0
 10
3.64427
 20
5.0159
 11
3.90179
 21
4.8183
  0
LINE
  8
0
 10
3.90179
 20
4.8183
 11
4.14861
 21
4.6075
  0
LINE
  8
0
 10
4.14861
 20
4.6075
 11
4.38406
 21
4.38406
  0
LINE
  8
0
 10
4.38406
 20
4.38406
 11
4.6075
 21
4.14861
  0
LINE
  8
0
 10
4.6075
 20
4.14861
 11
4.8183
 21
3.90179
  0
LINE
  8
0
 10
4.8183
 20
3.90179
 11
5.0159
 21
3.64427
  0
LINE
  8
0
 10
5.0159
 20
3.64427
 11
5.19976
 21
3.37676
  0
LINE
  8
0
 10
5.19976
 20
3.37676
 11
5.36936
 21
3.1
  0
LINE
  8
0
 10
5.36936
 20
3.1
 11
5.52424
 21
2.81474
  0
LINE
  8
0
 10
5.52424
 20
2.81474
 11
5.66398
 21
2.52177
  0
LINE
  8
0
 10
5.66398
 20
2.52177
 11
5.7882
 21
2.22188
  0
LINE
  8
0
 10
5.7882
 20
2.22188
 11
5.89655
 21
1.9159
  0
LINE
  8
0
 10
5.89655
 20
1.9159
 11
5.98874
 21
1.60468
  0
LINE
  8
0
 10
5.98874
 20
1.60468
 11
6.06452
 21
1.28905
  0
LINE
  8
0
 10
6.06452
 20
1.28905
 11
6.12367
 21
0.969893
  0
LINE
  8
0
 10
6.12367
 20
0.969893
 11
6.16604
 21
0.648076
  0
LINE
  8
0
 10
6.16604
 20
0.648076
 11
6.1915
 21
0.324483
  0
LINE
  8
0
 10
6.1915
 20
0.324483
 11
6.2
 21
0
  0
LINE
  8
0
 10
6.2
 20
0
 11
6.1915
 21
-0.324483
  0
LINE
  8
0
 10
6.1915
 20
-0.324483
 11
6.16604
 21
-0.648076
  0
LINE
  8
0
 10
6.16604
 20
-0.648076
 11
6.12367
 21
-0.969893
  0
LINE
  8
0
 10
6.12367
 20
-0.969893
 11
6.06452
 21
-1.28905
  0
LINE
  8
0
 10
6.06452
 20
-1.28905
 11
5.98874
 21
-1.60468
  0
LINE
  8
0
 10
5.98874
 20
-1.60468
 11
5.89655
 21
-1.9159
  0
LINE
  8
0
 10
5.89655
 20
-1.9159
 11
5.7882
 21
-2.22188
  0
LINE
  8
0
 10
5.7882
 20
-2.22188
 11
5.66398
 21
-2.52177
  0
LINE
  8
0
 10
5.66398
 20
-2.52177
 11
5.52424
 21
-2.81474
  0
LINE
  8
0
 10
5.52424
 20
-2.81474
 11
5.36936
 21
-3.1
  0
LINE
  8
0
 10
5.36936
 20
-3.1
 11
5.19976
 21
-3.37676
  0
LINE
  8
0
 10
5.19976
 20
-3.37676
 11
5.0159
 21
-3.64427
  0
LINE
  8
0
 10
5.0159
 20
-3.64427
 11
4.8183
 21
-3.90179
  0
LINE
  8
0
 10
4.8183
 20
-3.90179
 11
4.6075
 21
-4.14861
  0
LINE
  8
0
 10
4.6075
 20
-4.14861
 11
4.38406
 21
-4.38406
  0
LINE
  8
0
 10
4.38406
 20
-4.38406
 11
4.14861
 21
-4.6075
  0
LINE
  8
0
 10
4.14861
 20
-4.6075
 11
3.90179
 21
-4.8183
  0
LINE
  8
0
 10
3.90179
 20
-4.8183
 11
3.64427
 21
-5.0159
  0
LINE
  8
0
 10
3.64427
 20
-5.0159
 11
3.37676
 21
-5.19976
  0
LINE
  8
0
 10
3.37676
 20
-5.19976
 11
3.1
 21
-5.36936
  0
LINE
  8
0
 10
3.1
 20
-5.36936
 11
2.81474
 21
-5.52424
  0
LINE
  8
0
 10
2.81474
 20
-5.52424
 11
2.52177
 21
-5.66398
  0
LINE
  8
0
 10
2.52177
 20
-5.66398
 11
2.22188
 21
-5.7882
  0
LINE
  8
0
 10
2.22188
 20
-5.7882
 11
1.9159
 21
-5.89655
  0
LINE
  8
0
 10
1.9159
 20
-5.89655
 11
1.60468
 21
-5.98874
  0
LINE
  8
0
 10
1.60468
 20
-5.98874
 11
1.28905
 21
-6.06452
  0
LINE
  8
0
 10
1.28905
 20
-6.06452
 11
0.969893
 21
-6.12367
  0
LINE
  8
0
 10
0.969893
 20
-6.12367
 11
0.648076
 21
-6.16604
  0
LINE
  8
0
 10
0.648076
 20
-6.16604
 11
0.324483
 21
-6.1915
  0
LINE
  8
0
 10
0.324483
 20
-6.1915
 11
0
 21
-6.2
  0
LINE
  8
0
 10
0
 20
-6.2
 11
-0.324483
 21
-6.1915
  0
LINE
  8
0
 10
-0.324483
 20
-6.1915
 11
-0.648076
 21
-6.16604
  0
LINE
  8
0
 10
-0.648076
 20
-6.16604
 11
-0.969893
 21
-6.12367
  0
LINE
  8
0
 10
-0.969893
 20
-6.12367
 11
-1.28905
 21
-6.06452
  0
LINE
  8
0
 10
-1.28905
 20
-6.06452
 11
-1.60468
 21
-5.98874
  0
LINE
  8
0
 10
-1.60468
 20
-5.98874
 11
-1.9159
 21
-5.89655
  0
LINE
  8
0
 10
-1.9159
 20
-5.89655
 11
-2.22188
 21
-5.7882
  0
LINE
  8
0
 10
-2.22188
 20
-5.7882
 11
-2.52177
 21
-5.66398
  0
LINE
  8
0
 10
-2.52177
 20
-5.66398
 11
-2.81474
 21
-5.52424
  0
LINE
  8
0
 10
-2.81474
 20
-5.52424
 11
-3.1
 21
-5.36936
  0
LINE
  8
0
 10
-3.1
 20
-5.36936
 11
-3.37676
 21
-5.19976
  0
LINE
  8
0
 10
-3.37676
 20
-5.19976
 11
-3.64427
 21
-5.0159
  0
LINE
  8
0
 10
-3.64427
 20
-5.0159
 11
-3.90179
 21
-4.8183
  0
LINE
  8
0
 10
-3.90179
 20
-4.8183
 11
-4.14861
 21
-4.6075
  0
LINE
  8
0
 10
-4.14861
 20
-4.6075
 11
-4.38406
 21
-4.38406
  0
LINE
  8
0
 10
-4.38406
 20
-4.38406
 11
-4.6075
 21
-4.14861
  0
LINE
  8
0
 10
-4.6075
 20
-4.14861
 11
-4.8183
 21
-3.90179
  0
LINE
  8
0
 10
-4.8183
 20
-3.90179
 11
-5.0159
 21
-3.64427
  0
LINE
  8
0
 10
-5.0159
 20
-3.64427
 11
-5.19976
 21
-3.37676
  0
LINE
  8
0
 10
-5.19976
 20
-3.37676
 11
-5.36936
 21
-3.1
  0
LINE
  8
0
 10
-5.36936
 20
-3.1
 11
-5.52424
 21
-2.81474
  0
LINE
  8
0
 10
-5.52424
 20
-2.81474
 11
-5.66398
 21
-2.52177
  0
LINE
  8
0
 10
-5.66398
 20
-2.52177
 11
-5.7882
 21
-2.22188
  0
LINE
  8
0
 10
-5.7882
 20
-2.22188
 11
-5.89655
 21
-1.9159
  0
LINE
  8
0
 10
-5.89655
 20
-1.9159
 11
-5.98874
 21
-1.60468
  0
LINE
  8
0
 10
-5.98874
 20
-1.60468
 11
-6.06452
 21
-1.28905
  0
LINE
  8
0
 10
-6.06452
 20
-1.28905
 11
-6.12367
 21
-0.969893
  0
LINE
  8
0
 10
-6.12367
 20
-0.969893
 11
-6.16604
 21
-0.648076
  0
LINE
  8
0
 10
-6.16604
 20
-0.648076
 11
-6.1915
 21
-0.324483
  0
LINE
  8
0
 10
-6.1915
 20
-0.324483
 11
-6.2
 21
0
  0
ENDSEC
  0
SECTION
  2
OBJECTS
  0
DICTIONARY
  0
ENDSEC
  0
EOF
