  0
SECTION
  2
BLOCKS
  0
ENDSEC
  0
SECTION
  2
ENTITIES
  0
LINE
  8
0
 10
-31.25
 20
0
 11
-31.2072
 21
-1.6355
  0
LINE
  8
0
 10
-31.2072
 20
-1.6355
 11
-31.0788
 21
-3.26651
  0
LINE
  8
0
 10
-31.0788
 20
-3.26651
 11
-30.8653
 21
-4.88858
  0
LINE
  8
0
 10
-30.8653
 20
-4.88858
 11
-30.5671
 21
-6.49724
  0
LINE
  8
0
 10
-30.5671
 20
-6.49724
 11
-30.1852
 21
-8.08809
  0
LINE
  8
0
 10
-30.1852
 20
-8.08809
 11
-29.7205
 21
-9.65678
  0
LINE
  8
0
 10
-29.7205
 20
-9.65678
 11
-29.1744
 21
-11.199
  0
LINE
  8
0
 10
-29.1744
 20
-11.199
 11
-28.5483
 21
-12.7105
  0
LINE
  8
0
 10
-28.5483
 20
-12.7105
 11
-27.844
 21
-14.1872
  0
LINE
  8
0
 10
-27.844
 20
-14.1872
 11
-27.0633
 21
-15.625
  0
LINE
  8
0
 10
-27.0633
 20
-15.625
 11
-26.2085
 21
-17.02
  0
LINE
  8
0
 10
-26.2085
 20
-17.02
 11
-25.2818
 21
-18.3683
  0
LINE
  8
0
 10
-25.2818
 20
-18.3683
 11
-24.2858
 21
-19.6663
  0
LINE
  8
0
 10
-24.2858
 20
-19.6663
 11
-23.2233
 21
-20.9103
  0
LINE
  8
0
 10
-23.2233
 20
-20.9103
 11
-22.0971
 21
-22.0971
  0
LINE
  8
0
 10
-22.0971
 20
-22.0971
 11
-20.9103
 21
-23.2233
  0
LINE
  8
0
 10
-20.9103
 20
-23.2233
 11
-19.6663
 21
-24.2858
  0
LINE
  8
0
 10
-19.6663
 20
-24.2858
 11
-18.3683
 21
-25.2818
  0
LINE
  8
0
 10
-18.3683
 20
-25.2818
 11
-17.02
 21
-26.2085
  0
LINE
  8
0
 10
-17.02
 20
-26.2085
 11
-15.625
 21
-27.0633
  0
LINE
  8
0
 10
-15.625
 20
-27.0633
 11
-14.1872
 21
-27.844
  0
LINE
  8
0
 10
-14.1872
 20
-27.844
 11
-12.7105
 21
-28.5483
  0
LINE
  8
0
 10
-12.7105
 20
-28.5483
 11
-11.199
 21
-29.1744
  0
LINE
  8
0
 10
-11.199
 20
-29.1744
 11
-9.65678
 21
-29.7205
  0
LINE
  8
0
 10
-9.65678
 20
-29.7205
 11
-8.08809
 21
-30.1852
  0
LINE
  8
0
 10
-8.08809
 20
-30.1852
 11
-6.49724
 21
-30.5671
  0
LINE
  8
0
 10
-6.49724
 20
-30.5671
 11
-4.88858
 21
-30.8653
  0
LINE
  8
0
 10
-4.88858
 20
-30.8653
 11
-3.26651
 21
-31.0788
  0
LINE
  8
0
 10
-3.26651
 20
-31.0788
 11
-1.6355
 21
-31.2072
  0
LINE
  8
0
 10
-1.6355
 20
-31.2072
 11
0
 21
-31.25
  0
LINE
  8
0
 10
0
 20
-31.25
 11
1.6355
 21
-31.2072
  0
LINE
  8
0
 10
1.6355
 20
-31.2072
 11
3.26651
 21
-31.0788
  0
LINE
  8
0
 10
3.26651
 20
-31.0788
 11
4.88858
 21
-30.8653
  0
LINE
  8
0
 10
4.88858
 20
-30.8653
 11
6.49724
 21
-30.5671
  0
LINE
  8
0
 10
6.49724
 20
-30.5671
 11
8.08809
 21
-30.1852
  0
LINE
  8
0
 10
8.08809
 20
-30.1852
 11
9.65678
 21
-29.7205
  0
LINE
  8
0
 10
9.65678
 20
-29.7205
 11
11.199
 21
-29.1744
  0
LINE
  8
0
 10
11.199
 20
-29.1744
 11
12.7105
 21
-28.5483
  0
LINE
  8
0
 10
12.7105
 20
-28.5483
 11
14.1872
 21
-27.844
  0
LINE
  8
0
 10
14.1872
 20
-27.844
 11
15.625
 21
-27.0633
  0
LINE
  8
0
 10
15.625
 20
-27.0633
 11
17.02
 21
-26.2085
  0
LINE
  8
0
 10
17.02
 20
-26.2085
 11
18.3683
 21
-25.2818
  0
LINE
  8
0
 10
18.3683
 20
-25.2818
 11
19.6663
 21
-24.2858
  0
LINE
  8
0
 10
19.6663
 20
-24.2858
 11
20.9103
 21
-23.2233
  0
LINE
  8
0
 10
20.9103
 20
-23.2233
 11
22.0971
 21
-22.0971
  0
LINE
  8
0
 10
22.0971
 20
-22.0971
 11
23.2233
 21
-20.9103
  0
LINE
  8
0
 10
23.2233
 20
-20.9103
 11
24.2858
 21
-19.6663
  0
LINE
  8
0
 10
24.2858
 20
-19.6663
 11
25.2818
 21
-18.3683
  0
LINE
  8
0
 10
25.2818
 20
-18.3683
 11
26.2085
 21
-17.02
  0
LINE
  8
0
 10
26.2085
 20
-17.02
 11
27.0633
 21
-15.625
  0
LINE
  8
0
 10
27.0633
 20
-15.625
 11
27.844
 21
-14.1872
  0
LINE
  8
0
 10
27.844
 20
-14.1872
 11
28.5483
 21
-12.7105
  0
LINE
  8
0
 10
28.5483
 20
-12.7105
 11
29.1744
 21
-11.199
  0
LINE
  8
0
 10
29.1744
 20
-11.199
 11
29.7205
 21
-9.65678
  0
LINE
  8
0
 10
29.7205
 20
-9.65678
 11
30.1852
 21
-8.08809
  0
LINE
  8
0
 10
30.1852
 20
-8.08809
 11
30.5671
 21
-6.49724
  0
LINE
  8
0
 10
30.5671
 20
-6.49724
 11
30.8653
 21
-4.88858
  0
LINE
  8
0
 10
30.8653
 20
-4.88858
 11
31.0788
 21
-3.26651
  0
LINE
  8
0
 10
31.0788
 20
-3.26651
 11
31.2072
 21
-1.6355
  0
LINE
  8
0
 10
31.2072
 20
-1.6355
 11
31.25
 21
0
  0
LINE
  8
0
 10
31.25
 20
0
 11
31.2072
 21
1.6355
  0
LINE
  8
0
 10
31.2072
 20
1.6355
 11
31.0788
 21
3.26651
  0
LINE
  8
0
 10
31.0788
 20
3.26651
 11
30.8653
 21
4.88858
  0
LINE
  8
0
 10
30.8653
 20
4.88858
 11
30.5671
 21
6.49724
  0
LINE
  8
0
 10
30.5671
 20
6.49724
 11
30.1852
 21
8.08809
  0
LINE
  8
0
 10
30.1852
 20
8.08809
 11
29.7205
 21
9.65678
  0
LINE
  8
0
 10
29.7205
 20
9.65678
 11
29.1744
 21
11.199
  0
LINE
  8
0
 10
29.1744
 20
11.199
 11
28.5483
 21
12.7105
  0
LINE
  8
0
 10
28.5483
 20
12.7105
 11
27.844
 21
14.1872
  0
LINE
  8
0
 10
27.844
 20
14.1872
 11
27.0633
 21
15.625
  0
LINE
  8
0
 10
27.0633
 20
15.625
 11
26.2085
 21
17.02
  0
LINE
  8
0
 10
26.2085
 20
17.02
 11
25.2818
 21
18.3683
  0
LINE
  8
0
 10
25.2818
 20
18.3683
 11
24.2858
 21
19.6663
  0
LINE
  8
0
 10
24.2858
 20
19.6663
 11
23.2233
 21
20.9103
  0
LINE
  8
0
 10
23.2233
 20
20.9103
 11
22.0971
 21
22.0971
  0
LINE
  8
0
 10
22.0971
 20
22.0971
 11
20.9103
 21
23.2233
  0
LINE
  8
0
 10
20.9103
 20
23.2233
 11
19.6663
 21
24.2858
  0
LINE
  8
0
 10
19.6663
 20
24.2858
 11
18.3683
 21
25.2818
  0
LINE
  8
0
 10
18.3683
 20
25.2818
 11
17.02
 21
26.2085
  0
LINE
  8
0
 10
17.02
 20
26.2085
 11
15.625
 21
27.0633
  0
LINE
  8
0
 10
15.625
 20
27.0633
 11
14.1872
 21
27.844
  0
LINE
  8
0
 10
14.1872
 20
27.844
 11
12.7105
 21
28.5483
  0
LINE
  8
0
 10
12.7105
 20
28.5483
 11
11.199
 21
29.1744
  0
LINE
  8
0
 10
11.199
 20
29.1744
 11
9.65678
 21
29.7205
  0
LINE
  8
0
 10
9.65678
 20
29.7205
 11
8.08809
 21
30.1852
  0
LINE
  8
0
 10
8.08809
 20
30.1852
 11
6.49724
 21
30.5671
  0
LINE
  8
0
 10
6.49724
 20
30.5671
 11
4.88858
 21
30.8653
  0
LINE
  8
0
 10
4.88858
 20
30.8653
 11
3.26651
 21
31.0788
  0
LINE
  8
0
 10
3.26651
 20
31.0788
 11
1.6355
 21
31.2072
  0
LINE
  8
0
 10
1.6355
 20
31.2072
 11
0
 21
31.25
  0
LINE
  8
0
 10
0
 20
31.25
 11
-1.6355
 21
31.2072
  0
LINE
  8
0
 10
-1.6355
 20
31.2072
 11
-3.26651
 21
31.0788
  0
LINE
  8
0
 10
-3.26651
 20
31.0788
 11
-4.88858
 21
30.8653
  0
LINE
  8
0
 10
-4.88858
 20
30.8653
 11
-6.49724
 21
30.5671
  0
LINE
  8
0
 10
-6.49724
 20
30.5671
 11
-8.08809
 21
30.1852
  0
LINE
  8
0
 10
-8.08809
 20
30.1852
 11
-9.65678
 21
29.7205
  0
LINE
  8
0
 10
-9.65678
 20
29.7205
 11
-11.199
 21
29.1744
  0
LINE
  8
0
 10
-11.199
 20
29.1744
 11
-12.7105
 21
28.5483
  0
LINE
  8
0
 10
-12.7105
 20
28.5483
 11
-14.1872
 21
27.844
  0
LINE
  8
0
 10
-14.1872
 20
27.844
 11
-15.625
 21
27.0633
  0
LINE
  8
0
 10
-15.625
 20
27.0633
 11
-17.02
 21
26.2085
  0
LINE
  8
0
 10
-17.02
 20
26.2085
 11
-18.3683
 21
25.2818
  0
LINE
  8
0
 10
-18.3683
 20
25.2818
 11
-19.6663
 21
24.2858
  0
LINE
  8
0
 10
-19.6663
 20
24.2858
 11
-20.9103
 21
23.2233
  0
LINE
  8
0
 10
-20.9103
 20
23.2233
 11
-22.0971
 21
22.0971
  0
LINE
  8
0
 10
-22.0971
 20
22.0971
 11
-23.2233
 21
20.9103
  0
LINE
  8
0
 10
-23.2233
 20
20.9103
 11
-24.2858
 21
19.6663
  0
LINE
  8
0
 10
-24.2858
 20
19.6663
 11
-25.2818
 21
18.3683
  0
LINE
  8
0
 10
-25.2818
 20
18.3683
 11
-26.2085
 21
17.02
  0
LINE
  8
0
 10
-26.2085
 20
17.02
 11
-27.0633
 21
15.625
  0
LINE
  8
0
 10
-27.0633
 20
15.625
 11
-27.844
 21
14.1872
  0
LINE
  8
0
 10
-27.844
 20
14.1872
 11
-28.5483
 21
12.7105
  0
LINE
  8
0
 10
-28.5483
 20
12.7105
 11
-29.1744
 21
11.199
  0
LINE
  8
0
 10
-29.1744
 20
11.199
 11
-29.7205
 21
9.65678
  0
LINE
  8
0
 10
-29.7205
 20
9.65678
 11
-30.1852
 21
8.08809
  0
LINE
  8
0
 10
-30.1852
 20
8.08809
 11
-30.5671
 21
6.49724
  0
LINE
  8
0
 10
-30.5671
 20
6.49724
 11
-30.8653
 21
4.88858
  0
LINE
  8
0
 10
-30.8653
 20
4.88858
 11
-31.0788
 21
3.26651
  0
LINE
  8
0
 10
-31.0788
 20
3.26651
 11
-31.2072
 21
1.6355
  0
LINE
  8
0
 10
-31.2072
 20
1.6355
 11
-31.25
 21
0
  0
LINE
  8
0
 10
-8.0975
 20
-5
 11
-8.0975
 21
5
  0
LINE
  8
0
 10
-8.0975
 20
5
 11
8.0975
 21
5
  0
LINE
  8
0
 10
8.0975
 20
5
 11
8.0975
 21
-5
  0
LINE
  8
0
 10
8.0975
 20
-5
 11
-8.0975
 21
-5
  0
ENDSEC
  0
SECTION
  2
OBJECTS
  0
DICTIONARY
  0
ENDSEC
  0
EOF
