<?xml version="1.0" standalone="no"?>
<!DOCTYPE svg PUBLIC "-//W3C//DTD SVG 1.1//EN" "http://www.w3.org/Graphics/SVG/1.1/DTD/svg11.dtd">
<svg width="18" height="20" viewBox="-9 -10 18 20" xmlns="http://www.w3.org/2000/svg" version="1.1">
<title>OpenSCAD Model</title>
<path d="
M -8.4,9.75 L -7.85782,9.75 L -7.62809,9.52815 L -7.01854,9.01668 L -6.3748,8.54897 L -5.7,8.12731
 L -4.99743,7.75375 L -4.27051,7.4301 L -3.52279,7.15796 L -2.75791,6.93863 L -1.97959,6.77319 L -1.19162,6.66245
 L -0.397854,6.60695 L 0.397854,6.60695 L 1.19162,6.66245 L 1.97959,6.77319 L 2.75791,6.93863 L 3.52279,7.15796
 L 4.27051,7.4301 L 4.99743,7.75375 L 5.7,8.12731 L 6.3748,8.54897 L 7.01854,9.01668 L 7.62809,9.52815
 L 7.85782,9.75 L 8.4,9.75 L 8.4,-9.75 L 7.85782,-9.75 L 7.62809,-9.52815 L 7.01854,-9.01668
 L 6.3748,-8.54897 L 5.7,-8.12731 L 4.99743,-7.75375 L 4.27051,-7.4301 L 3.52279,-7.15796 L 2.75791,-6.93863
 L 1.97959,-6.77319 L 1.19162,-6.66245 L 0.397854,-6.60695 L -0.397854,-6.60695 L -1.19162,-6.66245 L -1.97959,-6.77319
 L -2.75791,-6.93863 L -3.52279,-7.15796 L -4.27051,-7.4301 L -4.99743,-7.75375 L -5.7,-8.12731 L -6.3748,-8.54897
 L -7.01854,-9.01668 L -7.62809,-9.52815 L -7.85782,-9.75 L -8.4,-9.75 z
M -3,0.773902 L -3,-0.773902 L -2.97991,-0.854475 L -2.91305,-1.06026 L -2.83199,-1.26088 L -2.73714,-1.45536
 L -2.62895,-1.64275 L -2.50795,-1.82213 L -2.37474,-1.99264 L -2.22995,-2.15344 L -2.0743,-2.30375 L -1.90855,-2.44283
 L -1.7335,-2.57002 L -1.55,-2.68468 L -1.35895,-2.78626 L -1.16128,-2.87427 L -0.957952,-2.94827 L -0.749957,-3.00792
 L -0.538309,-3.0529 L -0.324038,-3.08302 L -0.108188,-3.09811 L 0.108188,-3.09811 L 0.324038,-3.08302 L 0.538309,-3.0529
 L 0.749957,-3.00792 L 0.957952,-2.94827 L 1.16128,-2.87427 L 1.35895,-2.78626 L 1.55,-2.68468 L 1.7335,-2.57002
 L 1.90855,-2.44283 L 2.0743,-2.30375 L 2.22995,-2.15344 L 2.37474,-1.99264 L 2.50795,-1.82213 L 2.62895,-1.64275
 L 2.73714,-1.45536 L 2.83199,-1.26088 L 2.91305,-1.06026 L 2.97991,-0.854475 L 3,-0.773902 L 3,0.773902
 L 2.97991,0.854475 L 2.91305,1.06026 L 2.83199,1.26088 L 2.73714,1.45536 L 2.62895,1.64275 L 2.50795,1.82213
 L 2.37474,1.99264 L 2.22995,2.15344 L 2.0743,2.30375 L 1.90855,2.44283 L 1.82987,2.5 L -1.82987,2.5
 L -1.90855,2.44283 L -2.0743,2.30375 L -2.22995,2.15344 L -2.37474,1.99264 L -2.50795,1.82213 L -2.62895,1.64275
 L -2.73714,1.45536 L -2.83199,1.26088 L -2.91305,1.06026 L -2.97991,0.854475 z
" stroke="black" fill="lightgray" stroke-width="0.5"/></svg>
