<?xml version="1.0" standalone="no"?>
<!DOCTYPE svg PUBLIC "-//W3C//DTD SVG 1.1//EN" "http://www.w3.org/Graphics/SVG/1.1/DTD/svg11.dtd">
<svg width="138" height="131" viewBox="-69 -59 138 131" xmlns="http://www.w3.org/2000/svg" version="1.1">
<title>OpenSCAD Model</title>
<path d="
M -68.9,64.85 L -68.7601,66.1806 L -68.3467,67.4531 L -67.6777,68.6118 L -66.7824,69.6061 L -65.7,70.3926
 L -64.4777,70.9368 L -63.169,71.2149 L 63.169,71.2149 L 64.4777,70.9368 L 65.7,70.3926 L 66.7824,69.6061
 L 67.6777,68.6118 L 68.3467,67.4531 L 68.7601,66.1806 L 68.9,64.85 L 68.7601,63.5194 L 68.3467,62.2469
 L 67.6777,61.0882 L 66.7824,60.0939 L 65.7,59.3074 L 64.4777,58.7632 L 48.0239,55.2189 L 42.5875,48.7953
 L 42.5875,1.07798 L 65.3638,-54.3234 L 65.5705,-54.9597 L 65.6404,-55.625 L 65.5705,-56.2903 L 65.3638,-56.9266
 L 65.0293,-57.5059 L 64.5816,-58.0031 L 64.0404,-58.3963 L 63.4293,-58.6684 L 62.7749,-58.8075 L 62.1059,-58.8075
 L 61.4516,-58.6684 L 60.8404,-58.3963 L 60.2992,-58.0031 L 34.7366,-33.3294 L 6.54309,-25.9575 L -6.54309,-25.9575
 L -34.7366,-33.3294 L -60.2992,-58.0031 L -60.8404,-58.3963 L -61.4516,-58.6684 L -62.1059,-58.8075 L -62.7749,-58.8075
 L -63.4293,-58.6684 L -64.0404,-58.3963 L -64.5816,-58.0031 L -65.0293,-57.5059 L -65.3638,-56.9266 L -65.5705,-56.2903
 L -65.6404,-55.625 L -65.5705,-54.9597 L -65.3638,-54.3234 L -42.5875,1.07798 L -42.5875,48.7953 L -48.0239,55.2189
 L -64.4777,58.7632 L -65.7,59.3074 L -66.7824,60.0939 L -67.6777,61.0882 L -68.3467,62.2469 L -68.7601,63.5194
 z
M -64.075,64.85 L -64.0406,64.5225 L -63.9388,64.2094 L -63.7742,63.9242 L -63.5539,63.6795 L -63.2875,63.486
 L -62.9867,63.3521 L -62.6646,63.2836 L -62.3354,63.2836 L -62.0133,63.3521 L -61.7125,63.486 L -61.4461,63.6795
 L -61.2258,63.9242 L -61.0612,64.2094 L -60.9594,64.5225 L -60.925,64.85 L -60.9594,65.1775 L -61.0612,65.4906
 L -61.2258,65.7758 L -61.4461,66.0205 L -61.7125,66.214 L -62.0133,66.3479 L -62.3354,66.4164 L -62.6646,66.4164
 L -62.9867,66.3479 L -63.2875,66.214 L -63.5539,66.0205 L -63.7742,65.7758 L -63.9388,65.4906 L -64.0406,65.1775
 z
M -25.65,60.9 L -25.6041,60.4634 L -25.4684,60.0459 L -25.2489,59.6657 L -24.9552,59.3394 L -24.6,59.0813
 L -24.1989,58.9028 L -23.7695,58.8115 L -23.3305,58.8115 L -22.9011,58.9028 L -22.5,59.0813 L -22.1448,59.3394
 L -21.8511,59.6657 L -21.6316,60.0459 L -21.4959,60.4634 L -21.45,60.9 L -21.4959,61.3366 L -21.6316,61.7541
 L -21.8511,62.1343 L -22.1448,62.4606 L -22.5,62.7187 L -22.9011,62.8972 L -23.3305,62.9885 L -23.7695,62.9885
 L -24.1989,62.8972 L -24.6,62.7187 L -24.9552,62.4606 L -25.2489,62.1343 L -25.4684,61.7541 L -25.6041,61.3366
 z
M -25.65,13.8 L -25.6041,13.3634 L -25.4684,12.9459 L -25.2489,12.5657 L -24.9552,12.2394 L -24.6,11.9813
 L -24.1989,11.8028 L -23.7695,11.7115 L -23.3305,11.7115 L -22.9011,11.8028 L -22.5,11.9813 L -22.1448,12.2394
 L -21.8511,12.5657 L -21.6316,12.9459 L -21.4959,13.3634 L -21.45,13.8 L -21.4959,14.2366 L -21.6316,14.6541
 L -21.8511,15.0343 L -22.1448,15.3606 L -22.5,15.6187 L -22.9011,15.7972 L -23.3305,15.8885 L -23.7695,15.8885
 L -24.1989,15.7972 L -24.6,15.6187 L -24.9552,15.3606 L -25.2489,15.0343 L -25.4684,14.6541 L -25.6041,14.2366
 z
M -19.825,37.35 L -19.3918,33.2282 L -18.111,29.2864 L -16.0388,25.6972 L -13.2655,22.6172 L -9.9125,20.181
 L -6.12626,18.4953 L -2.07228,17.6336 L 2.07228,17.6336 L 6.12626,18.4953 L 9.9125,20.181 L 13.2655,22.6172
 L 16.0388,25.6972 L 18.111,29.2864 L 19.3918,33.2282 L 19.825,37.35 L 19.3918,41.4718 L 18.111,45.4136
 L 16.0388,49.0028 L 13.2655,52.0828 L 9.9125,54.519 L 6.12626,56.2047 L 2.07228,57.0664 L -2.07228,57.0664
 L -6.12626,56.2047 L -9.9125,54.519 L -13.2655,52.0828 L -16.0388,49.0028 L -18.111,45.4136 L -19.3918,41.4718
 z
M -17.575,-0 L -17.5406,-0.32746 L -17.4388,-0.64061 L -17.2742,-0.925761 L -17.0539,-1.17045 L -16.7875,-1.36399
 L -16.4867,-1.49791 L -16.1646,-1.56637 L -15.8354,-1.56637 L -15.5133,-1.49791 L -15.2125,-1.36399 L -14.9461,-1.17045
 L -14.7258,-0.925761 L -14.5612,-0.64061 L -14.4594,-0.32746 L -14.425,-0 L -14.4594,0.32746 L -14.5612,0.64061
 L -14.7258,0.925761 L -14.9461,1.17045 L -15.2125,1.36399 L -15.5133,1.49791 L -15.8354,1.56637 L -16.1646,1.56637
 L -16.4867,1.49791 L -16.7875,1.36399 L -17.0539,1.17045 L -17.2742,0.925761 L -17.4388,0.64061 L -17.5406,0.32746
 z
M -3.5,-9.75 L -3.5,-20.25 L 3.5,-20.25 L 3.5,-9.75 z
M 14.425,-0 L 14.4594,-0.32746 L 14.5612,-0.64061 L 14.7258,-0.925761 L 14.9461,-1.17045 L 15.2125,-1.36399
 L 15.5133,-1.49791 L 15.8354,-1.56637 L 16.1646,-1.56637 L 16.4867,-1.49791 L 16.7875,-1.36399 L 17.0539,-1.17045
 L 17.2742,-0.925761 L 17.4388,-0.64061 L 17.5406,-0.32746 L 17.575,-0 L 17.5406,0.32746 L 17.4388,0.64061
 L 17.2742,0.925761 L 17.0539,1.17045 L 16.7875,1.36399 L 16.4867,1.49791 L 16.1646,1.56637 L 15.8354,1.56637
 L 15.5133,1.49791 L 15.2125,1.36399 L 14.9461,1.17045 L 14.7258,0.925761 L 14.5612,0.64061 L 14.4594,0.32746
 z
M 21.45,60.9 L 21.4959,60.4634 L 21.6316,60.0459 L 21.8511,59.6657 L 22.1448,59.3394 L 22.5,59.0813
 L 22.9011,58.9028 L 23.3305,58.8115 L 23.7695,58.8115 L 24.1989,58.9028 L 24.6,59.0813 L 24.9552,59.3394
 L 25.2489,59.6657 L 25.4684,60.0459 L 25.6041,60.4634 L 25.65,60.9 L 25.6041,61.3366 L 25.4684,61.7541
 L 25.2489,62.1343 L 24.9552,62.4606 L 24.6,62.7187 L 24.1989,62.8972 L 23.7695,62.9885 L 23.3305,62.9885
 L 22.9011,62.8972 L 22.5,62.7187 L 22.1448,62.4606 L 21.8511,62.1343 L 21.6316,61.7541 L 21.4959,61.3366
 z
M 21.45,13.8 L 21.4959,13.3634 L 21.6316,12.9459 L 21.8511,12.5657 L 22.1448,12.2394 L 22.5,11.9813
 L 22.9011,11.8028 L 23.3305,11.7115 L 23.7695,11.7115 L 24.1989,11.8028 L 24.6,11.9813 L 24.9552,12.2394
 L 25.2489,12.5657 L 25.4684,12.9459 L 25.6041,13.3634 L 25.65,13.8 L 25.6041,14.2366 L 25.4684,14.6541
 L 25.2489,15.0343 L 24.9552,15.3606 L 24.6,15.6187 L 24.1989,15.7972 L 23.7695,15.8885 L 23.3305,15.8885
 L 22.9011,15.7972 L 22.5,15.6187 L 22.1448,15.3606 L 21.8511,15.0343 L 21.6316,14.6541 L 21.4959,14.2366
 z
M 60.925,64.85 L 60.9594,64.5225 L 61.0612,64.2094 L 61.2258,63.9242 L 61.4461,63.6795 L 61.7125,63.486
 L 62.0133,63.3521 L 62.3354,63.2836 L 62.6646,63.2836 L 62.9867,63.3521 L 63.2875,63.486 L 63.5539,63.6795
 L 63.7742,63.9242 L 63.9388,64.2094 L 64.0406,64.5225 L 64.075,64.85 L 64.0406,65.1775 L 63.9388,65.4906
 L 63.7742,65.7758 L 63.5539,66.0205 L 63.2875,66.214 L 62.9867,66.3479 L 62.6646,66.4164 L 62.3354,66.4164
 L 62.0133,66.3479 L 61.7125,66.214 L 61.4461,66.0205 L 61.2258,65.7758 L 61.0612,65.4906 L 60.9594,65.1775
 z
" stroke="black" fill="lightgray" stroke-width="0.5"/></svg>
