  0
SECTION
  2
BLOCKS
  0
ENDSEC
  0
SECTION
  2
ENTITIES
  0
LINE
  8
0
 10
-9.8
 20
-18
 11
-9.78657
 21
-18.5129
  0
LINE
  8
0
 10
-9.78657
 20
-18.5129
 11
-9.74631
 21
-19.0244
  0
LINE
  8
0
 10
-9.74631
 20
-19.0244
 11
-9.67935
 21
-19.5331
  0
LINE
  8
0
 10
-9.67935
 20
-19.5331
 11
-9.58585
 21
-20.0375
  0
LINE
  8
0
 10
-9.58585
 20
-20.0375
 11
-9.46607
 21
-20.5364
  0
LINE
  8
0
 10
-9.46607
 20
-20.5364
 11
-9.32035
 21
-21.0284
  0
LINE
  8
0
 10
-9.32035
 20
-21.0284
 11
-9.14909
 21
-21.512
  0
LINE
  8
0
 10
-9.14909
 20
-21.512
 11
-8.95275
 21
-21.986
  0
LINE
  8
0
 10
-8.95275
 20
-21.986
 11
-8.73186
 21
-22.4491
  0
LINE
  8
0
 10
-8.73186
 20
-22.4491
 11
-8.48705
 21
-22.9
  0
LINE
  8
0
 10
-8.48705
 20
-22.9
 11
-8.21897
 21
-23.3375
  0
LINE
  8
0
 10
-8.21897
 20
-23.3375
 11
-7.92837
 21
-23.7603
  0
LINE
  8
0
 10
-7.92837
 20
-23.7603
 11
-7.61603
 21
-24.1673
  0
LINE
  8
0
 10
-7.61603
 20
-24.1673
 11
-7.28282
 21
-24.5575
  0
LINE
  8
0
 10
-7.28282
 20
-24.5575
 11
-6.92965
 21
-24.9296
  0
LINE
  8
0
 10
-6.92965
 20
-24.9296
 11
-6.55748
 21
-25.2828
  0
LINE
  8
0
 10
-6.55748
 20
-25.2828
 11
-6.16734
 21
-25.616
  0
LINE
  8
0
 10
-6.16734
 20
-25.616
 11
-5.76029
 21
-25.9284
  0
LINE
  8
0
 10
-5.76029
 20
-25.9284
 11
-5.33746
 21
-26.219
  0
LINE
  8
0
 10
-5.33746
 20
-26.219
 11
-4.9
 21
-26.487
  0
LINE
  8
0
 10
-4.9
 20
-26.487
 11
-4.44911
 21
-26.7319
  0
LINE
  8
0
 10
-4.44911
 20
-26.7319
 11
-3.98602
 21
-26.9527
  0
LINE
  8
0
 10
-3.98602
 20
-26.9527
 11
-3.51201
 21
-27.1491
  0
LINE
  8
0
 10
-3.51201
 20
-27.1491
 11
-3.02837
 21
-27.3204
  0
LINE
  8
0
 10
-3.02837
 20
-27.3204
 11
-2.53643
 21
-27.4661
  0
LINE
  8
0
 10
-2.53643
 20
-27.4661
 11
-2.03753
 21
-27.5858
  0
LINE
  8
0
 10
-2.03753
 20
-27.5858
 11
-1.53306
 21
-27.6793
  0
LINE
  8
0
 10
-1.53306
 20
-27.6793
 11
-1.02438
 21
-27.7463
  0
LINE
  8
0
 10
-1.02438
 20
-27.7463
 11
-0.512892
 21
-27.7866
  0
LINE
  8
0
 10
-0.512892
 20
-27.7866
 11
0
 21
-27.8
  0
LINE
  8
0
 10
0
 20
-27.8
 11
0.512892
 21
-27.7866
  0
LINE
  8
0
 10
0.512892
 20
-27.7866
 11
1.02438
 21
-27.7463
  0
LINE
  8
0
 10
1.02438
 20
-27.7463
 11
1.53306
 21
-27.6793
  0
LINE
  8
0
 10
1.53306
 20
-27.6793
 11
2.03753
 21
-27.5858
  0
LINE
  8
0
 10
2.03753
 20
-27.5858
 11
2.53643
 21
-27.4661
  0
LINE
  8
0
 10
2.53643
 20
-27.4661
 11
3.02837
 21
-27.3204
  0
LINE
  8
0
 10
3.02837
 20
-27.3204
 11
3.51201
 21
-27.1491
  0
LINE
  8
0
 10
3.51201
 20
-27.1491
 11
3.98602
 21
-26.9527
  0
LINE
  8
0
 10
3.98602
 20
-26.9527
 11
4.44911
 21
-26.7319
  0
LINE
  8
0
 10
4.44911
 20
-26.7319
 11
4.9
 21
-26.487
  0
LINE
  8
0
 10
4.9
 20
-26.487
 11
5.33746
 21
-26.219
  0
LINE
  8
0
 10
5.33746
 20
-26.219
 11
5.76029
 21
-25.9284
  0
LINE
  8
0
 10
5.76029
 20
-25.9284
 11
6.16734
 21
-25.616
  0
LINE
  8
0
 10
6.16734
 20
-25.616
 11
6.55748
 21
-25.2828
  0
LINE
  8
0
 10
6.55748
 20
-25.2828
 11
6.92965
 21
-24.9296
  0
LINE
  8
0
 10
6.92965
 20
-24.9296
 11
7.28282
 21
-24.5575
  0
LINE
  8
0
 10
7.28282
 20
-24.5575
 11
7.61603
 21
-24.1673
  0
LINE
  8
0
 10
7.61603
 20
-24.1673
 11
7.92837
 21
-23.7603
  0
LINE
  8
0
 10
7.92837
 20
-23.7603
 11
8.21897
 21
-23.3375
  0
LINE
  8
0
 10
8.21897
 20
-23.3375
 11
8.48705
 21
-22.9
  0
LINE
  8
0
 10
8.48705
 20
-22.9
 11
8.73186
 21
-22.4491
  0
LINE
  8
0
 10
8.73186
 20
-22.4491
 11
8.95275
 21
-21.986
  0
LINE
  8
0
 10
8.95275
 20
-21.986
 11
9.14909
 21
-21.512
  0
LINE
  8
0
 10
9.14909
 20
-21.512
 11
9.32035
 21
-21.0284
  0
LINE
  8
0
 10
9.32035
 20
-21.0284
 11
9.46607
 21
-20.5364
  0
LINE
  8
0
 10
9.46607
 20
-20.5364
 11
9.58585
 21
-20.0375
  0
LINE
  8
0
 10
9.58585
 20
-20.0375
 11
9.67935
 21
-19.5331
  0
LINE
  8
0
 10
9.67935
 20
-19.5331
 11
9.74631
 21
-19.0244
  0
LINE
  8
0
 10
9.74631
 20
-19.0244
 11
9.78657
 21
-18.5129
  0
LINE
  8
0
 10
9.78657
 20
-18.5129
 11
9.8
 21
-18
  0
LINE
  8
0
 10
9.8
 20
-18
 11
9.78657
 21
-17.4871
  0
LINE
  8
0
 10
9.78657
 20
-17.4871
 11
9.74631
 21
-16.9756
  0
LINE
  8
0
 10
9.74631
 20
-16.9756
 11
9.67935
 21
-16.4669
  0
LINE
  8
0
 10
9.67935
 20
-16.4669
 11
9.58585
 21
-15.9625
  0
LINE
  8
0
 10
9.58585
 20
-15.9625
 11
9.46607
 21
-15.4636
  0
LINE
  8
0
 10
9.46607
 20
-15.4636
 11
9.32035
 21
-14.9716
  0
LINE
  8
0
 10
9.32035
 20
-14.9716
 11
9.14909
 21
-14.488
  0
LINE
  8
0
 10
9.14909
 20
-14.488
 11
8.95275
 21
-14.014
  0
LINE
  8
0
 10
8.95275
 20
-14.014
 11
8.73186
 21
-13.5509
  0
LINE
  8
0
 10
8.73186
 20
-13.5509
 11
8.48705
 21
-13.1
  0
LINE
  8
0
 10
8.48705
 20
-13.1
 11
8.4
 21
-12.9579
  0
LINE
  8
0
 10
8.4
 20
-12.9579
 11
8.4
 21
12.9579
  0
LINE
  8
0
 10
8.4
 20
12.9579
 11
8.48705
 21
13.1
  0
LINE
  8
0
 10
8.48705
 20
13.1
 11
8.73186
 21
13.5509
  0
LINE
  8
0
 10
8.73186
 20
13.5509
 11
8.95275
 21
14.014
  0
LINE
  8
0
 10
8.95275
 20
14.014
 11
9.14909
 21
14.488
  0
LINE
  8
0
 10
9.14909
 20
14.488
 11
9.32035
 21
14.9716
  0
LINE
  8
0
 10
9.32035
 20
14.9716
 11
9.46607
 21
15.4636
  0
LINE
  8
0
 10
9.46607
 20
15.4636
 11
9.58585
 21
15.9625
  0
LINE
  8
0
 10
9.58585
 20
15.9625
 11
9.67935
 21
16.4669
  0
LINE
  8
0
 10
9.67935
 20
16.4669
 11
9.74631
 21
16.9756
  0
LINE
  8
0
 10
9.74631
 20
16.9756
 11
9.78657
 21
17.4871
  0
LINE
  8
0
 10
9.78657
 20
17.4871
 11
9.8
 21
18
  0
LINE
  8
0
 10
9.8
 20
18
 11
9.78657
 21
18.5129
  0
LINE
  8
0
 10
9.78657
 20
18.5129
 11
9.74631
 21
19.0244
  0
LINE
  8
0
 10
9.74631
 20
19.0244
 11
9.67935
 21
19.5331
  0
LINE
  8
0
 10
9.67935
 20
19.5331
 11
9.58585
 21
20.0375
  0
LINE
  8
0
 10
9.58585
 20
20.0375
 11
9.46607
 21
20.5364
  0
LINE
  8
0
 10
9.46607
 20
20.5364
 11
9.32035
 21
21.0284
  0
LINE
  8
0
 10
9.32035
 20
21.0284
 11
9.14909
 21
21.512
  0
LINE
  8
0
 10
9.14909
 20
21.512
 11
8.95275
 21
21.986
  0
LINE
  8
0
 10
8.95275
 20
21.986
 11
8.73186
 21
22.4491
  0
LINE
  8
0
 10
8.73186
 20
22.4491
 11
8.48705
 21
22.9
  0
LINE
  8
0
 10
8.48705
 20
22.9
 11
8.21897
 21
23.3375
  0
LINE
  8
0
 10
8.21897
 20
23.3375
 11
7.92837
 21
23.7603
  0
LINE
  8
0
 10
7.92837
 20
23.7603
 11
7.61603
 21
24.1673
  0
LINE
  8
0
 10
7.61603
 20
24.1673
 11
7.28282
 21
24.5575
  0
LINE
  8
0
 10
7.28282
 20
24.5575
 11
6.92965
 21
24.9296
  0
LINE
  8
0
 10
6.92965
 20
24.9296
 11
6.55748
 21
25.2828
  0
LINE
  8
0
 10
6.55748
 20
25.2828
 11
6.16734
 21
25.616
  0
LINE
  8
0
 10
6.16734
 20
25.616
 11
5.76029
 21
25.9284
  0
LINE
  8
0
 10
5.76029
 20
25.9284
 11
5.33746
 21
26.219
  0
LINE
  8
0
 10
5.33746
 20
26.219
 11
4.9
 21
26.487
  0
LINE
  8
0
 10
4.9
 20
26.487
 11
4.44911
 21
26.7319
  0
LINE
  8
0
 10
4.44911
 20
26.7319
 11
3.98602
 21
26.9527
  0
LINE
  8
0
 10
3.98602
 20
26.9527
 11
3.51201
 21
27.1491
  0
LINE
  8
0
 10
3.51201
 20
27.1491
 11
3.02837
 21
27.3204
  0
LINE
  8
0
 10
3.02837
 20
27.3204
 11
2.53643
 21
27.4661
  0
LINE
  8
0
 10
2.53643
 20
27.4661
 11
2.03753
 21
27.5858
  0
LINE
  8
0
 10
2.03753
 20
27.5858
 11
1.53306
 21
27.6793
  0
LINE
  8
0
 10
1.53306
 20
27.6793
 11
1.02438
 21
27.7463
  0
LINE
  8
0
 10
1.02438
 20
27.7463
 11
0.512892
 21
27.7866
  0
LINE
  8
0
 10
0.512892
 20
27.7866
 11
0
 21
27.8
  0
LINE
  8
0
 10
0
 20
27.8
 11
-0.512892
 21
27.7866
  0
LINE
  8
0
 10
-0.512892
 20
27.7866
 11
-1.02438
 21
27.7463
  0
LINE
  8
0
 10
-1.02438
 20
27.7463
 11
-1.53306
 21
27.6793
  0
LINE
  8
0
 10
-1.53306
 20
27.6793
 11
-2.03753
 21
27.5858
  0
LINE
  8
0
 10
-2.03753
 20
27.5858
 11
-2.53643
 21
27.4661
  0
LINE
  8
0
 10
-2.53643
 20
27.4661
 11
-3.02837
 21
27.3204
  0
LINE
  8
0
 10
-3.02837
 20
27.3204
 11
-3.51201
 21
27.1491
  0
LINE
  8
0
 10
-3.51201
 20
27.1491
 11
-3.98602
 21
26.9527
  0
LINE
  8
0
 10
-3.98602
 20
26.9527
 11
-4.44911
 21
26.7319
  0
LINE
  8
0
 10
-4.44911
 20
26.7319
 11
-4.9
 21
26.487
  0
LINE
  8
0
 10
-4.9
 20
26.487
 11
-5.33746
 21
26.219
  0
LINE
  8
0
 10
-5.33746
 20
26.219
 11
-5.76029
 21
25.9284
  0
LINE
  8
0
 10
-5.76029
 20
25.9284
 11
-6.16734
 21
25.616
  0
LINE
  8
0
 10
-6.16734
 20
25.616
 11
-6.55748
 21
25.2828
  0
LINE
  8
0
 10
-6.55748
 20
25.2828
 11
-6.92965
 21
24.9296
  0
LINE
  8
0
 10
-6.92965
 20
24.9296
 11
-7.28282
 21
24.5575
  0
LINE
  8
0
 10
-7.28282
 20
24.5575
 11
-7.61603
 21
24.1673
  0
LINE
  8
0
 10
-7.61603
 20
24.1673
 11
-7.92837
 21
23.7603
  0
LINE
  8
0
 10
-7.92837
 20
23.7603
 11
-8.21897
 21
23.3375
  0
LINE
  8
0
 10
-8.21897
 20
23.3375
 11
-8.48705
 21
22.9
  0
LINE
  8
0
 10
-8.48705
 20
22.9
 11
-8.73186
 21
22.4491
  0
LINE
  8
0
 10
-8.73186
 20
22.4491
 11
-8.95275
 21
21.986
  0
LINE
  8
0
 10
-8.95275
 20
21.986
 11
-9.14909
 21
21.512
  0
LINE
  8
0
 10
-9.14909
 20
21.512
 11
-9.32035
 21
21.0284
  0
LINE
  8
0
 10
-9.32035
 20
21.0284
 11
-9.46607
 21
20.5364
  0
LINE
  8
0
 10
-9.46607
 20
20.5364
 11
-9.58585
 21
20.0375
  0
LINE
  8
0
 10
-9.58585
 20
20.0375
 11
-9.67935
 21
19.5331
  0
LINE
  8
0
 10
-9.67935
 20
19.5331
 11
-9.74631
 21
19.0244
  0
LINE
  8
0
 10
-9.74631
 20
19.0244
 11
-9.78657
 21
18.5129
  0
LINE
  8
0
 10
-9.78657
 20
18.5129
 11
-9.8
 21
18
  0
LINE
  8
0
 10
-9.8
 20
18
 11
-9.78657
 21
17.4871
  0
LINE
  8
0
 10
-9.78657
 20
17.4871
 11
-9.74631
 21
16.9756
  0
LINE
  8
0
 10
-9.74631
 20
16.9756
 11
-9.67935
 21
16.4669
  0
LINE
  8
0
 10
-9.67935
 20
16.4669
 11
-9.58585
 21
15.9625
  0
LINE
  8
0
 10
-9.58585
 20
15.9625
 11
-9.46607
 21
15.4636
  0
LINE
  8
0
 10
-9.46607
 20
15.4636
 11
-9.32035
 21
14.9716
  0
LINE
  8
0
 10
-9.32035
 20
14.9716
 11
-9.14909
 21
14.488
  0
LINE
  8
0
 10
-9.14909
 20
14.488
 11
-8.95275
 21
14.014
  0
LINE
  8
0
 10
-8.95275
 20
14.014
 11
-8.73186
 21
13.5509
  0
LINE
  8
0
 10
-8.73186
 20
13.5509
 11
-8.48705
 21
13.1
  0
LINE
  8
0
 10
-8.48705
 20
13.1
 11
-8.4
 21
12.9579
  0
LINE
  8
0
 10
-8.4
 20
12.9579
 11
-8.4
 21
-12.9579
  0
LINE
  8
0
 10
-8.4
 20
-12.9579
 11
-8.48705
 21
-13.1
  0
LINE
  8
0
 10
-8.48705
 20
-13.1
 11
-8.73186
 21
-13.5509
  0
LINE
  8
0
 10
-8.73186
 20
-13.5509
 11
-8.95275
 21
-14.014
  0
LINE
  8
0
 10
-8.95275
 20
-14.014
 11
-9.14909
 21
-14.488
  0
LINE
  8
0
 10
-9.14909
 20
-14.488
 11
-9.32035
 21
-14.9716
  0
LINE
  8
0
 10
-9.32035
 20
-14.9716
 11
-9.46607
 21
-15.4636
  0
LINE
  8
0
 10
-9.46607
 20
-15.4636
 11
-9.58585
 21
-15.9625
  0
LINE
  8
0
 10
-9.58585
 20
-15.9625
 11
-9.67935
 21
-16.4669
  0
LINE
  8
0
 10
-9.67935
 20
-16.4669
 11
-9.74631
 21
-16.9756
  0
LINE
  8
0
 10
-9.74631
 20
-16.9756
 11
-9.78657
 21
-17.4871
  0
LINE
  8
0
 10
-9.78657
 20
-17.4871
 11
-9.8
 21
-18
  0
LINE
  8
0
 10
-6.1
 20
-1.09759
 11
-6.1
 21
1.09759
  0
LINE
  8
0
 10
-6.1
 20
1.09759
 11
-6.06452
 21
1.28905
  0
LINE
  8
0
 10
-6.06452
 20
1.28905
 11
-5.98874
 21
1.60468
  0
LINE
  8
0
 10
-5.98874
 20
1.60468
 11
-5.89655
 21
1.9159
  0
LINE
  8
0
 10
-5.89655
 20
1.9159
 11
-5.7882
 21
2.22188
  0
LINE
  8
0
 10
-5.7882
 20
2.22188
 11
-5.66398
 21
2.52177
  0
LINE
  8
0
 10
-5.66398
 20
2.52177
 11
-5.52424
 21
2.81474
  0
LINE
  8
0
 10
-5.52424
 20
2.81474
 11
-5.36936
 21
3.1
  0
LINE
  8
0
 10
-5.36936
 20
3.1
 11
-5.19976
 21
3.37676
  0
LINE
  8
0
 10
-5.19976
 20
3.37676
 11
-5.0159
 21
3.64427
  0
LINE
  8
0
 10
-5.0159
 20
3.64427
 11
-4.8183
 21
3.90179
  0
LINE
  8
0
 10
-4.8183
 20
3.90179
 11
-4.6075
 21
4.14861
  0
LINE
  8
0
 10
-4.6075
 20
4.14861
 11
-4.38406
 21
4.38406
  0
LINE
  8
0
 10
-4.38406
 20
4.38406
 11
-4.14861
 21
4.6075
  0
LINE
  8
0
 10
-4.14861
 20
4.6075
 11
-3.90179
 21
4.8183
  0
LINE
  8
0
 10
-3.90179
 20
4.8183
 11
-3.64427
 21
5.0159
  0
LINE
  8
0
 10
-3.64427
 20
5.0159
 11
-3.54616
 21
5.08333
  0
LINE
  8
0
 10
-3.54616
 20
5.08333
 11
3.54616
 21
5.08333
  0
LINE
  8
0
 10
3.54616
 20
5.08333
 11
3.64427
 21
5.0159
  0
LINE
  8
0
 10
3.64427
 20
5.0159
 11
3.90179
 21
4.8183
  0
LINE
  8
0
 10
3.90179
 20
4.8183
 11
4.14861
 21
4.6075
  0
LINE
  8
0
 10
4.14861
 20
4.6075
 11
4.38406
 21
4.38406
  0
LINE
  8
0
 10
4.38406
 20
4.38406
 11
4.6075
 21
4.14861
  0
LINE
  8
0
 10
4.6075
 20
4.14861
 11
4.8183
 21
3.90179
  0
LINE
  8
0
 10
4.8183
 20
3.90179
 11
5.0159
 21
3.64427
  0
LINE
  8
0
 10
5.0159
 20
3.64427
 11
5.19976
 21
3.37676
  0
LINE
  8
0
 10
5.19976
 20
3.37676
 11
5.36936
 21
3.1
  0
LINE
  8
0
 10
5.36936
 20
3.1
 11
5.52424
 21
2.81474
  0
LINE
  8
0
 10
5.52424
 20
2.81474
 11
5.66398
 21
2.52177
  0
LINE
  8
0
 10
5.66398
 20
2.52177
 11
5.7882
 21
2.22188
  0
LINE
  8
0
 10
5.7882
 20
2.22188
 11
5.89655
 21
1.9159
  0
LINE
  8
0
 10
5.89655
 20
1.9159
 11
5.98874
 21
1.60468
  0
LINE
  8
0
 10
5.98874
 20
1.60468
 11
6.06452
 21
1.28905
  0
LINE
  8
0
 10
6.06452
 20
1.28905
 11
6.1
 21
1.09759
  0
LINE
  8
0
 10
6.1
 20
1.09759
 11
6.1
 21
-1.09759
  0
LINE
  8
0
 10
6.1
 20
-1.09759
 11
6.06452
 21
-1.28905
  0
LINE
  8
0
 10
6.06452
 20
-1.28905
 11
5.98874
 21
-1.60468
  0
LINE
  8
0
 10
5.98874
 20
-1.60468
 11
5.89655
 21
-1.9159
  0
LINE
  8
0
 10
5.89655
 20
-1.9159
 11
5.7882
 21
-2.22188
  0
LINE
  8
0
 10
5.7882
 20
-2.22188
 11
5.66398
 21
-2.52177
  0
LINE
  8
0
 10
5.66398
 20
-2.52177
 11
5.52424
 21
-2.81474
  0
LINE
  8
0
 10
5.52424
 20
-2.81474
 11
5.36936
 21
-3.1
  0
LINE
  8
0
 10
5.36936
 20
-3.1
 11
5.19976
 21
-3.37676
  0
LINE
  8
0
 10
5.19976
 20
-3.37676
 11
5.0159
 21
-3.64427
  0
LINE
  8
0
 10
5.0159
 20
-3.64427
 11
4.8183
 21
-3.90179
  0
LINE
  8
0
 10
4.8183
 20
-3.90179
 11
4.6075
 21
-4.14861
  0
LINE
  8
0
 10
4.6075
 20
-4.14861
 11
4.38406
 21
-4.38406
  0
LINE
  8
0
 10
4.38406
 20
-4.38406
 11
4.14861
 21
-4.6075
  0
LINE
  8
0
 10
4.14861
 20
-4.6075
 11
3.90179
 21
-4.8183
  0
LINE
  8
0
 10
3.90179
 20
-4.8183
 11
3.64427
 21
-5.0159
  0
LINE
  8
0
 10
3.64427
 20
-5.0159
 11
3.54616
 21
-5.08333
  0
LINE
  8
0
 10
3.54616
 20
-5.08333
 11
-3.54616
 21
-5.08333
  0
LINE
  8
0
 10
-3.54616
 20
-5.08333
 11
-3.64427
 21
-5.0159
  0
LINE
  8
0
 10
-3.64427
 20
-5.0159
 11
-3.90179
 21
-4.8183
  0
LINE
  8
0
 10
-3.90179
 20
-4.8183
 11
-4.14861
 21
-4.6075
  0
LINE
  8
0
 10
-4.14861
 20
-4.6075
 11
-4.38406
 21
-4.38406
  0
LINE
  8
0
 10
-4.38406
 20
-4.38406
 11
-4.6075
 21
-4.14861
  0
LINE
  8
0
 10
-4.6075
 20
-4.14861
 11
-4.8183
 21
-3.90179
  0
LINE
  8
0
 10
-4.8183
 20
-3.90179
 11
-5.0159
 21
-3.64427
  0
LINE
  8
0
 10
-5.0159
 20
-3.64427
 11
-5.19976
 21
-3.37676
  0
LINE
  8
0
 10
-5.19976
 20
-3.37676
 11
-5.36936
 21
-3.1
  0
LINE
  8
0
 10
-5.36936
 20
-3.1
 11
-5.52424
 21
-2.81474
  0
LINE
  8
0
 10
-5.52424
 20
-2.81474
 11
-5.66398
 21
-2.52177
  0
LINE
  8
0
 10
-5.66398
 20
-2.52177
 11
-5.7882
 21
-2.22188
  0
LINE
  8
0
 10
-5.7882
 20
-2.22188
 11
-5.89655
 21
-1.9159
  0
LINE
  8
0
 10
-5.89655
 20
-1.9159
 11
-5.98874
 21
-1.60468
  0
LINE
  8
0
 10
-5.98874
 20
-1.60468
 11
-6.06452
 21
-1.28905
  0
LINE
  8
0
 10
-6.06452
 20
-1.28905
 11
-6.1
 21
-1.09759
  0
LINE
  8
0
 10
-2.1
 20
-18
 11
-2.09712
 21
-17.8901
  0
LINE
  8
0
 10
-2.09712
 20
-17.8901
 11
-2.0885
 21
-17.7805
  0
LINE
  8
0
 10
-2.0885
 20
-17.7805
 11
-2.07415
 21
-17.6715
  0
LINE
  8
0
 10
-2.07415
 20
-17.6715
 11
-2.05411
 21
-17.5634
  0
LINE
  8
0
 10
-2.05411
 20
-17.5634
 11
-2.02844
 21
-17.4565
  0
LINE
  8
0
 10
-2.02844
 20
-17.4565
 11
-1.99722
 21
-17.3511
  0
LINE
  8
0
 10
-1.99722
 20
-17.3511
 11
-1.96052
 21
-17.2474
  0
LINE
  8
0
 10
-1.96052
 20
-17.2474
 11
-1.91844
 21
-17.1459
  0
LINE
  8
0
 10
-1.91844
 20
-17.1459
 11
-1.87111
 21
-17.0466
  0
LINE
  8
0
 10
-1.87111
 20
-17.0466
 11
-1.81865
 21
-16.95
  0
LINE
  8
0
 10
-1.81865
 20
-16.95
 11
-1.76121
 21
-16.8563
  0
LINE
  8
0
 10
-1.76121
 20
-16.8563
 11
-1.69894
 21
-16.7657
  0
LINE
  8
0
 10
-1.69894
 20
-16.7657
 11
-1.63201
 21
-16.6784
  0
LINE
  8
0
 10
-1.63201
 20
-16.6784
 11
-1.5606
 21
-16.5948
  0
LINE
  8
0
 10
-1.5606
 20
-16.5948
 11
-1.48492
 21
-16.5151
  0
LINE
  8
0
 10
-1.48492
 20
-16.5151
 11
-1.40517
 21
-16.4394
  0
LINE
  8
0
 10
-1.40517
 20
-16.4394
 11
-1.32157
 21
-16.368
  0
LINE
  8
0
 10
-1.32157
 20
-16.368
 11
-1.23435
 21
-16.3011
  0
LINE
  8
0
 10
-1.23435
 20
-16.3011
 11
-1.14374
 21
-16.2388
  0
LINE
  8
0
 10
-1.14374
 20
-16.2388
 11
-1.05
 21
-16.1813
  0
LINE
  8
0
 10
-1.05
 20
-16.1813
 11
-0.95338
 21
-16.1289
  0
LINE
  8
0
 10
-0.95338
 20
-16.1289
 11
-0.854146
 21
-16.0816
  0
LINE
  8
0
 10
-0.854146
 20
-16.0816
 11
-0.752572
 21
-16.0395
  0
LINE
  8
0
 10
-0.752572
 20
-16.0395
 11
-0.648935
 21
-16.0028
  0
LINE
  8
0
 10
-0.648935
 20
-16.0028
 11
-0.54352
 21
-15.9716
  0
LINE
  8
0
 10
-0.54352
 20
-15.9716
 11
-0.436614
 21
-15.9459
  0
LINE
  8
0
 10
-0.436614
 20
-15.9459
 11
-0.328512
 21
-15.9259
  0
LINE
  8
0
 10
-0.328512
 20
-15.9259
 11
-0.219509
 21
-15.9115
  0
LINE
  8
0
 10
-0.219509
 20
-15.9115
 11
-0.109905
 21
-15.9029
  0
LINE
  8
0
 10
-0.109905
 20
-15.9029
 11
0
 21
-15.9
  0
LINE
  8
0
 10
0
 20
-15.9
 11
0.109905
 21
-15.9029
  0
LINE
  8
0
 10
0.109905
 20
-15.9029
 11
0.219509
 21
-15.9115
  0
LINE
  8
0
 10
0.219509
 20
-15.9115
 11
0.328512
 21
-15.9259
  0
LINE
  8
0
 10
0.328512
 20
-15.9259
 11
0.436614
 21
-15.9459
  0
LINE
  8
0
 10
0.436614
 20
-15.9459
 11
0.54352
 21
-15.9716
  0
LINE
  8
0
 10
0.54352
 20
-15.9716
 11
0.648935
 21
-16.0028
  0
LINE
  8
0
 10
0.648935
 20
-16.0028
 11
0.752572
 21
-16.0395
  0
LINE
  8
0
 10
0.752572
 20
-16.0395
 11
0.854146
 21
-16.0816
  0
LINE
  8
0
 10
0.854146
 20
-16.0816
 11
0.95338
 21
-16.1289
  0
LINE
  8
0
 10
0.95338
 20
-16.1289
 11
1.05
 21
-16.1813
  0
LINE
  8
0
 10
1.05
 20
-16.1813
 11
1.14374
 21
-16.2388
  0
LINE
  8
0
 10
1.14374
 20
-16.2388
 11
1.23435
 21
-16.3011
  0
LINE
  8
0
 10
1.23435
 20
-16.3011
 11
1.32157
 21
-16.368
  0
LINE
  8
0
 10
1.32157
 20
-16.368
 11
1.40517
 21
-16.4394
  0
LINE
  8
0
 10
1.40517
 20
-16.4394
 11
1.48492
 21
-16.5151
  0
LINE
  8
0
 10
1.48492
 20
-16.5151
 11
1.5606
 21
-16.5948
  0
LINE
  8
0
 10
1.5606
 20
-16.5948
 11
1.63201
 21
-16.6784
  0
LINE
  8
0
 10
1.63201
 20
-16.6784
 11
1.69894
 21
-16.7657
  0
LINE
  8
0
 10
1.69894
 20
-16.7657
 11
1.76121
 21
-16.8563
  0
LINE
  8
0
 10
1.76121
 20
-16.8563
 11
1.81865
 21
-16.95
  0
LINE
  8
0
 10
1.81865
 20
-16.95
 11
1.87111
 21
-17.0466
  0
LINE
  8
0
 10
1.87111
 20
-17.0466
 11
1.91844
 21
-17.1459
  0
LINE
  8
0
 10
1.91844
 20
-17.1459
 11
1.96052
 21
-17.2474
  0
LINE
  8
0
 10
1.96052
 20
-17.2474
 11
1.99722
 21
-17.3511
  0
LINE
  8
0
 10
1.99722
 20
-17.3511
 11
2.02844
 21
-17.4565
  0
LINE
  8
0
 10
2.02844
 20
-17.4565
 11
2.05411
 21
-17.5634
  0
LINE
  8
0
 10
2.05411
 20
-17.5634
 11
2.07415
 21
-17.6715
  0
LINE
  8
0
 10
2.07415
 20
-17.6715
 11
2.0885
 21
-17.7805
  0
LINE
  8
0
 10
2.0885
 20
-17.7805
 11
2.09712
 21
-17.8901
  0
LINE
  8
0
 10
2.09712
 20
-17.8901
 11
2.1
 21
-18
  0
LINE
  8
0
 10
2.1
 20
-18
 11
2.09712
 21
-18.1099
  0
LINE
  8
0
 10
2.09712
 20
-18.1099
 11
2.0885
 21
-18.2195
  0
LINE
  8
0
 10
2.0885
 20
-18.2195
 11
2.07415
 21
-18.3285
  0
LINE
  8
0
 10
2.07415
 20
-18.3285
 11
2.05411
 21
-18.4366
  0
LINE
  8
0
 10
2.05411
 20
-18.4366
 11
2.02844
 21
-18.5435
  0
LINE
  8
0
 10
2.02844
 20
-18.5435
 11
1.99722
 21
-18.6489
  0
LINE
  8
0
 10
1.99722
 20
-18.6489
 11
1.96052
 21
-18.7526
  0
LINE
  8
0
 10
1.96052
 20
-18.7526
 11
1.91844
 21
-18.8541
  0
LINE
  8
0
 10
1.91844
 20
-18.8541
 11
1.87111
 21
-18.9534
  0
LINE
  8
0
 10
1.87111
 20
-18.9534
 11
1.81865
 21
-19.05
  0
LINE
  8
0
 10
1.81865
 20
-19.05
 11
1.76121
 21
-19.1437
  0
LINE
  8
0
 10
1.76121
 20
-19.1437
 11
1.69894
 21
-19.2343
  0
LINE
  8
0
 10
1.69894
 20
-19.2343
 11
1.63201
 21
-19.3216
  0
LINE
  8
0
 10
1.63201
 20
-19.3216
 11
1.5606
 21
-19.4052
  0
LINE
  8
0
 10
1.5606
 20
-19.4052
 11
1.48492
 21
-19.4849
  0
LINE
  8
0
 10
1.48492
 20
-19.4849
 11
1.40517
 21
-19.5606
  0
LINE
  8
0
 10
1.40517
 20
-19.5606
 11
1.32157
 21
-19.632
  0
LINE
  8
0
 10
1.32157
 20
-19.632
 11
1.23435
 21
-19.6989
  0
LINE
  8
0
 10
1.23435
 20
-19.6989
 11
1.14374
 21
-19.7612
  0
LINE
  8
0
 10
1.14374
 20
-19.7612
 11
1.05
 21
-19.8187
  0
LINE
  8
0
 10
1.05
 20
-19.8187
 11
0.95338
 21
-19.8711
  0
LINE
  8
0
 10
0.95338
 20
-19.8711
 11
0.854146
 21
-19.9184
  0
LINE
  8
0
 10
0.854146
 20
-19.9184
 11
0.752572
 21
-19.9605
  0
LINE
  8
0
 10
0.752572
 20
-19.9605
 11
0.648935
 21
-19.9972
  0
LINE
  8
0
 10
0.648935
 20
-19.9972
 11
0.54352
 21
-20.0284
  0
LINE
  8
0
 10
0.54352
 20
-20.0284
 11
0.436614
 21
-20.0541
  0
LINE
  8
0
 10
0.436614
 20
-20.0541
 11
0.328512
 21
-20.0741
  0
LINE
  8
0
 10
0.328512
 20
-20.0741
 11
0.219509
 21
-20.0885
  0
LINE
  8
0
 10
0.219509
 20
-20.0885
 11
0.109905
 21
-20.0971
  0
LINE
  8
0
 10
0.109905
 20
-20.0971
 11
0
 21
-20.1
  0
LINE
  8
0
 10
0
 20
-20.1
 11
-0.109905
 21
-20.0971
  0
LINE
  8
0
 10
-0.109905
 20
-20.0971
 11
-0.219509
 21
-20.0885
  0
LINE
  8
0
 10
-0.219509
 20
-20.0885
 11
-0.328512
 21
-20.0741
  0
LINE
  8
0
 10
-0.328512
 20
-20.0741
 11
-0.436614
 21
-20.0541
  0
LINE
  8
0
 10
-0.436614
 20
-20.0541
 11
-0.54352
 21
-20.0284
  0
LINE
  8
0
 10
-0.54352
 20
-20.0284
 11
-0.648935
 21
-19.9972
  0
LINE
  8
0
 10
-0.648935
 20
-19.9972
 11
-0.752572
 21
-19.9605
  0
LINE
  8
0
 10
-0.752572
 20
-19.9605
 11
-0.854146
 21
-19.9184
  0
LINE
  8
0
 10
-0.854146
 20
-19.9184
 11
-0.95338
 21
-19.8711
  0
LINE
  8
0
 10
-0.95338
 20
-19.8711
 11
-1.05
 21
-19.8187
  0
LINE
  8
0
 10
-1.05
 20
-19.8187
 11
-1.14374
 21
-19.7612
  0
LINE
  8
0
 10
-1.14374
 20
-19.7612
 11
-1.23435
 21
-19.6989
  0
LINE
  8
0
 10
-1.23435
 20
-19.6989
 11
-1.32157
 21
-19.632
  0
LINE
  8
0
 10
-1.32157
 20
-19.632
 11
-1.40517
 21
-19.5606
  0
LINE
  8
0
 10
-1.40517
 20
-19.5606
 11
-1.48492
 21
-19.4849
  0
LINE
  8
0
 10
-1.48492
 20
-19.4849
 11
-1.5606
 21
-19.4052
  0
LINE
  8
0
 10
-1.5606
 20
-19.4052
 11
-1.63201
 21
-19.3216
  0
LINE
  8
0
 10
-1.63201
 20
-19.3216
 11
-1.69894
 21
-19.2343
  0
LINE
  8
0
 10
-1.69894
 20
-19.2343
 11
-1.76121
 21
-19.1437
  0
LINE
  8
0
 10
-1.76121
 20
-19.1437
 11
-1.81865
 21
-19.05
  0
LINE
  8
0
 10
-1.81865
 20
-19.05
 11
-1.87111
 21
-18.9534
  0
LINE
  8
0
 10
-1.87111
 20
-18.9534
 11
-1.91844
 21
-18.8541
  0
LINE
  8
0
 10
-1.91844
 20
-18.8541
 11
-1.96052
 21
-18.7526
  0
LINE
  8
0
 10
-1.96052
 20
-18.7526
 11
-1.99722
 21
-18.6489
  0
LINE
  8
0
 10
-1.99722
 20
-18.6489
 11
-2.02844
 21
-18.5435
  0
LINE
  8
0
 10
-2.02844
 20
-18.5435
 11
-2.05411
 21
-18.4366
  0
LINE
  8
0
 10
-2.05411
 20
-18.4366
 11
-2.07415
 21
-18.3285
  0
LINE
  8
0
 10
-2.07415
 20
-18.3285
 11
-2.0885
 21
-18.2195
  0
LINE
  8
0
 10
-2.0885
 20
-18.2195
 11
-2.09712
 21
-18.1099
  0
LINE
  8
0
 10
-2.09712
 20
-18.1099
 11
-2.1
 21
-18
  0
LINE
  8
0
 10
-2.1
 20
18
 11
-2.09712
 21
18.1099
  0
LINE
  8
0
 10
-2.09712
 20
18.1099
 11
-2.0885
 21
18.2195
  0
LINE
  8
0
 10
-2.0885
 20
18.2195
 11
-2.07415
 21
18.3285
  0
LINE
  8
0
 10
-2.07415
 20
18.3285
 11
-2.05411
 21
18.4366
  0
LINE
  8
0
 10
-2.05411
 20
18.4366
 11
-2.02844
 21
18.5435
  0
LINE
  8
0
 10
-2.02844
 20
18.5435
 11
-1.99722
 21
18.6489
  0
LINE
  8
0
 10
-1.99722
 20
18.6489
 11
-1.96052
 21
18.7526
  0
LINE
  8
0
 10
-1.96052
 20
18.7526
 11
-1.91844
 21
18.8541
  0
LINE
  8
0
 10
-1.91844
 20
18.8541
 11
-1.87111
 21
18.9534
  0
LINE
  8
0
 10
-1.87111
 20
18.9534
 11
-1.81865
 21
19.05
  0
LINE
  8
0
 10
-1.81865
 20
19.05
 11
-1.76121
 21
19.1437
  0
LINE
  8
0
 10
-1.76121
 20
19.1437
 11
-1.69894
 21
19.2343
  0
LINE
  8
0
 10
-1.69894
 20
19.2343
 11
-1.63201
 21
19.3216
  0
LINE
  8
0
 10
-1.63201
 20
19.3216
 11
-1.5606
 21
19.4052
  0
LINE
  8
0
 10
-1.5606
 20
19.4052
 11
-1.48492
 21
19.4849
  0
LINE
  8
0
 10
-1.48492
 20
19.4849
 11
-1.40517
 21
19.5606
  0
LINE
  8
0
 10
-1.40517
 20
19.5606
 11
-1.32157
 21
19.632
  0
LINE
  8
0
 10
-1.32157
 20
19.632
 11
-1.23435
 21
19.6989
  0
LINE
  8
0
 10
-1.23435
 20
19.6989
 11
-1.14374
 21
19.7612
  0
LINE
  8
0
 10
-1.14374
 20
19.7612
 11
-1.05
 21
19.8187
  0
LINE
  8
0
 10
-1.05
 20
19.8187
 11
-0.95338
 21
19.8711
  0
LINE
  8
0
 10
-0.95338
 20
19.8711
 11
-0.854146
 21
19.9184
  0
LINE
  8
0
 10
-0.854146
 20
19.9184
 11
-0.752572
 21
19.9605
  0
LINE
  8
0
 10
-0.752572
 20
19.9605
 11
-0.648935
 21
19.9972
  0
LINE
  8
0
 10
-0.648935
 20
19.9972
 11
-0.54352
 21
20.0284
  0
LINE
  8
0
 10
-0.54352
 20
20.0284
 11
-0.436614
 21
20.0541
  0
LINE
  8
0
 10
-0.436614
 20
20.0541
 11
-0.328512
 21
20.0741
  0
LINE
  8
0
 10
-0.328512
 20
20.0741
 11
-0.219509
 21
20.0885
  0
LINE
  8
0
 10
-0.219509
 20
20.0885
 11
-0.109905
 21
20.0971
  0
LINE
  8
0
 10
-0.109905
 20
20.0971
 11
0
 21
20.1
  0
LINE
  8
0
 10
0
 20
20.1
 11
0.109905
 21
20.0971
  0
LINE
  8
0
 10
0.109905
 20
20.0971
 11
0.219509
 21
20.0885
  0
LINE
  8
0
 10
0.219509
 20
20.0885
 11
0.328512
 21
20.0741
  0
LINE
  8
0
 10
0.328512
 20
20.0741
 11
0.436614
 21
20.0541
  0
LINE
  8
0
 10
0.436614
 20
20.0541
 11
0.54352
 21
20.0284
  0
LINE
  8
0
 10
0.54352
 20
20.0284
 11
0.648935
 21
19.9972
  0
LINE
  8
0
 10
0.648935
 20
19.9972
 11
0.752572
 21
19.9605
  0
LINE
  8
0
 10
0.752572
 20
19.9605
 11
0.854146
 21
19.9184
  0
LINE
  8
0
 10
0.854146
 20
19.9184
 11
0.95338
 21
19.8711
  0
LINE
  8
0
 10
0.95338
 20
19.8711
 11
1.05
 21
19.8187
  0
LINE
  8
0
 10
1.05
 20
19.8187
 11
1.14374
 21
19.7612
  0
LINE
  8
0
 10
1.14374
 20
19.7612
 11
1.23435
 21
19.6989
  0
LINE
  8
0
 10
1.23435
 20
19.6989
 11
1.32157
 21
19.632
  0
LINE
  8
0
 10
1.32157
 20
19.632
 11
1.40517
 21
19.5606
  0
LINE
  8
0
 10
1.40517
 20
19.5606
 11
1.48492
 21
19.4849
  0
LINE
  8
0
 10
1.48492
 20
19.4849
 11
1.5606
 21
19.4052
  0
LINE
  8
0
 10
1.5606
 20
19.4052
 11
1.63201
 21
19.3216
  0
LINE
  8
0
 10
1.63201
 20
19.3216
 11
1.69894
 21
19.2343
  0
LINE
  8
0
 10
1.69894
 20
19.2343
 11
1.76121
 21
19.1437
  0
LINE
  8
0
 10
1.76121
 20
19.1437
 11
1.81865
 21
19.05
  0
LINE
  8
0
 10
1.81865
 20
19.05
 11
1.87111
 21
18.9534
  0
LINE
  8
0
 10
1.87111
 20
18.9534
 11
1.91844
 21
18.8541
  0
LINE
  8
0
 10
1.91844
 20
18.8541
 11
1.96052
 21
18.7526
  0
LINE
  8
0
 10
1.96052
 20
18.7526
 11
1.99722
 21
18.6489
  0
LINE
  8
0
 10
1.99722
 20
18.6489
 11
2.02844
 21
18.5435
  0
LINE
  8
0
 10
2.02844
 20
18.5435
 11
2.05411
 21
18.4366
  0
LINE
  8
0
 10
2.05411
 20
18.4366
 11
2.07415
 21
18.3285
  0
LINE
  8
0
 10
2.07415
 20
18.3285
 11
2.0885
 21
18.2195
  0
LINE
  8
0
 10
2.0885
 20
18.2195
 11
2.09712
 21
18.1099
  0
LINE
  8
0
 10
2.09712
 20
18.1099
 11
2.1
 21
18
  0
LINE
  8
0
 10
2.1
 20
18
 11
2.09712
 21
17.8901
  0
LINE
  8
0
 10
2.09712
 20
17.8901
 11
2.0885
 21
17.7805
  0
LINE
  8
0
 10
2.0885
 20
17.7805
 11
2.07415
 21
17.6715
  0
LINE
  8
0
 10
2.07415
 20
17.6715
 11
2.05411
 21
17.5634
  0
LINE
  8
0
 10
2.05411
 20
17.5634
 11
2.02844
 21
17.4565
  0
LINE
  8
0
 10
2.02844
 20
17.4565
 11
1.99722
 21
17.3511
  0
LINE
  8
0
 10
1.99722
 20
17.3511
 11
1.96052
 21
17.2474
  0
LINE
  8
0
 10
1.96052
 20
17.2474
 11
1.91844
 21
17.1459
  0
LINE
  8
0
 10
1.91844
 20
17.1459
 11
1.87111
 21
17.0466
  0
LINE
  8
0
 10
1.87111
 20
17.0466
 11
1.81865
 21
16.95
  0
LINE
  8
0
 10
1.81865
 20
16.95
 11
1.76121
 21
16.8563
  0
LINE
  8
0
 10
1.76121
 20
16.8563
 11
1.69894
 21
16.7657
  0
LINE
  8
0
 10
1.69894
 20
16.7657
 11
1.63201
 21
16.6784
  0
LINE
  8
0
 10
1.63201
 20
16.6784
 11
1.5606
 21
16.5948
  0
LINE
  8
0
 10
1.5606
 20
16.5948
 11
1.48492
 21
16.5151
  0
LINE
  8
0
 10
1.48492
 20
16.5151
 11
1.40517
 21
16.4394
  0
LINE
  8
0
 10
1.40517
 20
16.4394
 11
1.32157
 21
16.368
  0
LINE
  8
0
 10
1.32157
 20
16.368
 11
1.23435
 21
16.3011
  0
LINE
  8
0
 10
1.23435
 20
16.3011
 11
1.14374
 21
16.2388
  0
LINE
  8
0
 10
1.14374
 20
16.2388
 11
1.05
 21
16.1813
  0
LINE
  8
0
 10
1.05
 20
16.1813
 11
0.95338
 21
16.1289
  0
LINE
  8
0
 10
0.95338
 20
16.1289
 11
0.854146
 21
16.0816
  0
LINE
  8
0
 10
0.854146
 20
16.0816
 11
0.752572
 21
16.0395
  0
LINE
  8
0
 10
0.752572
 20
16.0395
 11
0.648935
 21
16.0028
  0
LINE
  8
0
 10
0.648935
 20
16.0028
 11
0.54352
 21
15.9716
  0
LINE
  8
0
 10
0.54352
 20
15.9716
 11
0.436614
 21
15.9459
  0
LINE
  8
0
 10
0.436614
 20
15.9459
 11
0.328512
 21
15.9259
  0
LINE
  8
0
 10
0.328512
 20
15.9259
 11
0.219509
 21
15.9115
  0
LINE
  8
0
 10
0.219509
 20
15.9115
 11
0.109905
 21
15.9029
  0
LINE
  8
0
 10
0.109905
 20
15.9029
 11
0
 21
15.9
  0
LINE
  8
0
 10
0
 20
15.9
 11
-0.109905
 21
15.9029
  0
LINE
  8
0
 10
-0.109905
 20
15.9029
 11
-0.219509
 21
15.9115
  0
LINE
  8
0
 10
-0.219509
 20
15.9115
 11
-0.328512
 21
15.9259
  0
LINE
  8
0
 10
-0.328512
 20
15.9259
 11
-0.436614
 21
15.9459
  0
LINE
  8
0
 10
-0.436614
 20
15.9459
 11
-0.54352
 21
15.9716
  0
LINE
  8
0
 10
-0.54352
 20
15.9716
 11
-0.648935
 21
16.0028
  0
LINE
  8
0
 10
-0.648935
 20
16.0028
 11
-0.752572
 21
16.0395
  0
LINE
  8
0
 10
-0.752572
 20
16.0395
 11
-0.854146
 21
16.0816
  0
LINE
  8
0
 10
-0.854146
 20
16.0816
 11
-0.95338
 21
16.1289
  0
LINE
  8
0
 10
-0.95338
 20
16.1289
 11
-1.05
 21
16.1813
  0
LINE
  8
0
 10
-1.05
 20
16.1813
 11
-1.14374
 21
16.2388
  0
LINE
  8
0
 10
-1.14374
 20
16.2388
 11
-1.23435
 21
16.3011
  0
LINE
  8
0
 10
-1.23435
 20
16.3011
 11
-1.32157
 21
16.368
  0
LINE
  8
0
 10
-1.32157
 20
16.368
 11
-1.40517
 21
16.4394
  0
LINE
  8
0
 10
-1.40517
 20
16.4394
 11
-1.48492
 21
16.5151
  0
LINE
  8
0
 10
-1.48492
 20
16.5151
 11
-1.5606
 21
16.5948
  0
LINE
  8
0
 10
-1.5606
 20
16.5948
 11
-1.63201
 21
16.6784
  0
LINE
  8
0
 10
-1.63201
 20
16.6784
 11
-1.69894
 21
16.7657
  0
LINE
  8
0
 10
-1.69894
 20
16.7657
 11
-1.76121
 21
16.8563
  0
LINE
  8
0
 10
-1.76121
 20
16.8563
 11
-1.81865
 21
16.95
  0
LINE
  8
0
 10
-1.81865
 20
16.95
 11
-1.87111
 21
17.0466
  0
LINE
  8
0
 10
-1.87111
 20
17.0466
 11
-1.91844
 21
17.1459
  0
LINE
  8
0
 10
-1.91844
 20
17.1459
 11
-1.96052
 21
17.2474
  0
LINE
  8
0
 10
-1.96052
 20
17.2474
 11
-1.99722
 21
17.3511
  0
LINE
  8
0
 10
-1.99722
 20
17.3511
 11
-2.02844
 21
17.4565
  0
LINE
  8
0
 10
-2.02844
 20
17.4565
 11
-2.05411
 21
17.5634
  0
LINE
  8
0
 10
-2.05411
 20
17.5634
 11
-2.07415
 21
17.6715
  0
LINE
  8
0
 10
-2.07415
 20
17.6715
 11
-2.0885
 21
17.7805
  0
LINE
  8
0
 10
-2.0885
 20
17.7805
 11
-2.09712
 21
17.8901
  0
LINE
  8
0
 10
-2.09712
 20
17.8901
 11
-2.1
 21
18
  0
ENDSEC
  0
SECTION
  2
OBJECTS
  0
DICTIONARY
  0
ENDSEC
  0
EOF
