  0
SECTION
  2
BLOCKS
  0
ENDSEC
  0
SECTION
  2
ENTITIES
  0
LINE
  8
0
 10
-18.5
 20
-35.4
 11
-18.4746
 21
-36.3682
  0
LINE
  8
0
 10
-18.4746
 20
-36.3682
 11
-18.3987
 21
-37.3338
  0
LINE
  8
0
 10
-18.3987
 20
-37.3338
 11
-18.2722
 21
-38.294
  0
LINE
  8
0
 10
-18.2722
 20
-38.294
 11
-18.0957
 21
-39.2464
  0
LINE
  8
0
 10
-18.0957
 20
-39.2464
 11
-17.8696
 21
-40.1882
  0
LINE
  8
0
 10
-17.8696
 20
-40.1882
 11
-17.5945
 21
-41.1168
  0
LINE
  8
0
 10
-17.5945
 20
-41.1168
 11
-17.2712
 21
-42.0298
  0
LINE
  8
0
 10
-17.2712
 20
-42.0298
 11
-16.9006
 21
-42.9246
  0
LINE
  8
0
 10
-16.9006
 20
-42.9246
 11
-16.4836
 21
-43.7988
  0
LINE
  8
0
 10
-16.4836
 20
-43.7988
 11
-16.0215
 21
-44.65
  0
LINE
  8
0
 10
-16.0215
 20
-44.65
 11
-15.5154
 21
-45.4758
  0
LINE
  8
0
 10
-15.5154
 20
-45.4758
 11
-14.9668
 21
-46.274
  0
LINE
  8
0
 10
-14.9668
 20
-46.274
 11
-14.3772
 21
-47.0424
  0
LINE
  8
0
 10
-14.3772
 20
-47.0424
 11
-13.7482
 21
-47.7789
  0
LINE
  8
0
 10
-13.7482
 20
-47.7789
 11
-13.0815
 21
-48.4815
  0
LINE
  8
0
 10
-13.0815
 20
-48.4815
 11
-12.3789
 21
-49.1482
  0
LINE
  8
0
 10
-12.3789
 20
-49.1482
 11
-11.6424
 21
-49.7772
  0
LINE
  8
0
 10
-11.6424
 20
-49.7772
 11
-10.874
 21
-50.3668
  0
LINE
  8
0
 10
-10.874
 20
-50.3668
 11
-10.0758
 21
-50.9154
  0
LINE
  8
0
 10
-10.0758
 20
-50.9154
 11
-9.25
 21
-51.4215
  0
LINE
  8
0
 10
-9.25
 20
-51.4215
 11
-8.39882
 21
-51.8836
  0
LINE
  8
0
 10
-8.39882
 20
-51.8836
 11
-7.52463
 21
-52.3006
  0
LINE
  8
0
 10
-7.52463
 20
-52.3006
 11
-6.62981
 21
-52.6712
  0
LINE
  8
0
 10
-6.62981
 20
-52.6712
 11
-5.71681
 21
-52.9945
  0
LINE
  8
0
 10
-5.71681
 20
-52.9945
 11
-4.78815
 21
-53.2696
  0
LINE
  8
0
 10
-4.78815
 20
-53.2696
 11
-3.84637
 21
-53.4957
  0
LINE
  8
0
 10
-3.84637
 20
-53.4957
 11
-2.89404
 21
-53.6722
  0
LINE
  8
0
 10
-2.89404
 20
-53.6722
 11
-1.93378
 21
-53.7987
  0
LINE
  8
0
 10
-1.93378
 20
-53.7987
 11
-0.968215
 21
-53.8746
  0
LINE
  8
0
 10
-0.968215
 20
-53.8746
 11
0
 21
-53.9
  0
LINE
  8
0
 10
0
 20
-53.9
 11
0.968215
 21
-53.8746
  0
LINE
  8
0
 10
0.968215
 20
-53.8746
 11
1.93378
 21
-53.7987
  0
LINE
  8
0
 10
1.93378
 20
-53.7987
 11
2.89404
 21
-53.6722
  0
LINE
  8
0
 10
2.89404
 20
-53.6722
 11
3.84637
 21
-53.4957
  0
LINE
  8
0
 10
3.84637
 20
-53.4957
 11
4.78815
 21
-53.2696
  0
LINE
  8
0
 10
4.78815
 20
-53.2696
 11
5.71681
 21
-52.9945
  0
LINE
  8
0
 10
5.71681
 20
-52.9945
 11
6.62981
 21
-52.6712
  0
LINE
  8
0
 10
6.62981
 20
-52.6712
 11
7.52463
 21
-52.3006
  0
LINE
  8
0
 10
7.52463
 20
-52.3006
 11
8.39882
 21
-51.8836
  0
LINE
  8
0
 10
8.39882
 20
-51.8836
 11
9.25
 21
-51.4215
  0
LINE
  8
0
 10
9.25
 20
-51.4215
 11
10.0758
 21
-50.9154
  0
LINE
  8
0
 10
10.0758
 20
-50.9154
 11
10.874
 21
-50.3668
  0
LINE
  8
0
 10
10.874
 20
-50.3668
 11
11.6424
 21
-49.7772
  0
LINE
  8
0
 10
11.6424
 20
-49.7772
 11
12.3789
 21
-49.1482
  0
LINE
  8
0
 10
12.3789
 20
-49.1482
 11
13.0815
 21
-48.4815
  0
LINE
  8
0
 10
13.0815
 20
-48.4815
 11
13.7482
 21
-47.7789
  0
LINE
  8
0
 10
13.7482
 20
-47.7789
 11
14.3772
 21
-47.0424
  0
LINE
  8
0
 10
14.3772
 20
-47.0424
 11
14.9668
 21
-46.274
  0
LINE
  8
0
 10
14.9668
 20
-46.274
 11
15.5154
 21
-45.4758
  0
LINE
  8
0
 10
15.5154
 20
-45.4758
 11
16.0215
 21
-44.65
  0
LINE
  8
0
 10
16.0215
 20
-44.65
 11
16.4836
 21
-43.7988
  0
LINE
  8
0
 10
16.4836
 20
-43.7988
 11
16.9006
 21
-42.9246
  0
LINE
  8
0
 10
16.9006
 20
-42.9246
 11
17.2712
 21
-42.0298
  0
LINE
  8
0
 10
17.2712
 20
-42.0298
 11
17.5945
 21
-41.1168
  0
LINE
  8
0
 10
17.5945
 20
-41.1168
 11
17.8696
 21
-40.1882
  0
LINE
  8
0
 10
17.8696
 20
-40.1882
 11
18.0957
 21
-39.2464
  0
LINE
  8
0
 10
18.0957
 20
-39.2464
 11
18.2722
 21
-38.294
  0
LINE
  8
0
 10
18.2722
 20
-38.294
 11
18.3987
 21
-37.3338
  0
LINE
  8
0
 10
18.3987
 20
-37.3338
 11
18.4746
 21
-36.3682
  0
LINE
  8
0
 10
18.4746
 20
-36.3682
 11
18.5
 21
-35.4
  0
LINE
  8
0
 10
18.5
 20
-35.4
 11
18.4746
 21
-34.4318
  0
LINE
  8
0
 10
18.4746
 20
-34.4318
 11
18.3987
 21
-33.4662
  0
LINE
  8
0
 10
18.3987
 20
-33.4662
 11
18.2722
 21
-32.506
  0
LINE
  8
0
 10
18.2722
 20
-32.506
 11
18.0957
 21
-31.5536
  0
LINE
  8
0
 10
18.0957
 20
-31.5536
 11
17.8696
 21
-30.6118
  0
LINE
  8
0
 10
17.8696
 20
-30.6118
 11
17.5945
 21
-29.6832
  0
LINE
  8
0
 10
17.5945
 20
-29.6832
 11
17.2712
 21
-28.7702
  0
LINE
  8
0
 10
17.2712
 20
-28.7702
 11
16.9006
 21
-27.8754
  0
LINE
  8
0
 10
16.9006
 20
-27.8754
 11
16.4836
 21
-27.0012
  0
LINE
  8
0
 10
16.4836
 20
-27.0012
 11
16.0215
 21
-26.15
  0
LINE
  8
0
 10
16.0215
 20
-26.15
 11
15.5154
 21
-25.3242
  0
LINE
  8
0
 10
15.5154
 20
-25.3242
 11
14.9668
 21
-24.526
  0
LINE
  8
0
 10
14.9668
 20
-24.526
 11
14.3772
 21
-23.7576
  0
LINE
  8
0
 10
14.3772
 20
-23.7576
 11
13.7482
 21
-23.0211
  0
LINE
  8
0
 10
13.7482
 20
-23.0211
 11
13.0815
 21
-22.3185
  0
LINE
  8
0
 10
13.0815
 20
-22.3185
 11
12.3789
 21
-21.6518
  0
LINE
  8
0
 10
12.3789
 20
-21.6518
 11
11.6424
 21
-21.0228
  0
LINE
  8
0
 10
11.6424
 20
-21.0228
 11
10.874
 21
-20.4332
  0
LINE
  8
0
 10
10.874
 20
-20.4332
 11
10.0758
 21
-19.8846
  0
LINE
  8
0
 10
10.0758
 20
-19.8846
 11
9.25
 21
-19.3785
  0
LINE
  8
0
 10
9.25
 20
-19.3785
 11
8.39882
 21
-18.9164
  0
LINE
  8
0
 10
8.39882
 20
-18.9164
 11
7.52463
 21
-18.4994
  0
LINE
  8
0
 10
7.52463
 20
-18.4994
 11
6.62981
 21
-18.1288
  0
LINE
  8
0
 10
6.62981
 20
-18.1288
 11
5.71681
 21
-17.8055
  0
LINE
  8
0
 10
5.71681
 20
-17.8055
 11
4.78815
 21
-17.5304
  0
LINE
  8
0
 10
4.78815
 20
-17.5304
 11
3.84637
 21
-17.3043
  0
LINE
  8
0
 10
3.84637
 20
-17.3043
 11
2.89404
 21
-17.1278
  0
LINE
  8
0
 10
2.89404
 20
-17.1278
 11
1.93378
 21
-17.0013
  0
LINE
  8
0
 10
1.93378
 20
-17.0013
 11
0.968215
 21
-16.9254
  0
LINE
  8
0
 10
0.968215
 20
-16.9254
 11
0
 21
-16.9
  0
LINE
  8
0
 10
0
 20
-16.9
 11
-0.968215
 21
-16.9254
  0
LINE
  8
0
 10
-0.968215
 20
-16.9254
 11
-1.93378
 21
-17.0013
  0
LINE
  8
0
 10
-1.93378
 20
-17.0013
 11
-2.89404
 21
-17.1278
  0
LINE
  8
0
 10
-2.89404
 20
-17.1278
 11
-3.84637
 21
-17.3043
  0
LINE
  8
0
 10
-3.84637
 20
-17.3043
 11
-4.78815
 21
-17.5304
  0
LINE
  8
0
 10
-4.78815
 20
-17.5304
 11
-5.71681
 21
-17.8055
  0
LINE
  8
0
 10
-5.71681
 20
-17.8055
 11
-6.62981
 21
-18.1288
  0
LINE
  8
0
 10
-6.62981
 20
-18.1288
 11
-7.52463
 21
-18.4994
  0
LINE
  8
0
 10
-7.52463
 20
-18.4994
 11
-8.39882
 21
-18.9164
  0
LINE
  8
0
 10
-8.39882
 20
-18.9164
 11
-9.25
 21
-19.3785
  0
LINE
  8
0
 10
-9.25
 20
-19.3785
 11
-10.0758
 21
-19.8846
  0
LINE
  8
0
 10
-10.0758
 20
-19.8846
 11
-10.874
 21
-20.4332
  0
LINE
  8
0
 10
-10.874
 20
-20.4332
 11
-11.6424
 21
-21.0228
  0
LINE
  8
0
 10
-11.6424
 20
-21.0228
 11
-12.3789
 21
-21.6518
  0
LINE
  8
0
 10
-12.3789
 20
-21.6518
 11
-13.0815
 21
-22.3185
  0
LINE
  8
0
 10
-13.0815
 20
-22.3185
 11
-13.7482
 21
-23.0211
  0
LINE
  8
0
 10
-13.7482
 20
-23.0211
 11
-14.3772
 21
-23.7576
  0
LINE
  8
0
 10
-14.3772
 20
-23.7576
 11
-14.9668
 21
-24.526
  0
LINE
  8
0
 10
-14.9668
 20
-24.526
 11
-15.5154
 21
-25.3242
  0
LINE
  8
0
 10
-15.5154
 20
-25.3242
 11
-16.0215
 21
-26.15
  0
LINE
  8
0
 10
-16.0215
 20
-26.15
 11
-16.4836
 21
-27.0012
  0
LINE
  8
0
 10
-16.4836
 20
-27.0012
 11
-16.9006
 21
-27.8754
  0
LINE
  8
0
 10
-16.9006
 20
-27.8754
 11
-17.2712
 21
-28.7702
  0
LINE
  8
0
 10
-17.2712
 20
-28.7702
 11
-17.5945
 21
-29.6832
  0
LINE
  8
0
 10
-17.5945
 20
-29.6832
 11
-17.8696
 21
-30.6118
  0
LINE
  8
0
 10
-17.8696
 20
-30.6118
 11
-18.0957
 21
-31.5536
  0
LINE
  8
0
 10
-18.0957
 20
-31.5536
 11
-18.2722
 21
-32.506
  0
LINE
  8
0
 10
-18.2722
 20
-32.506
 11
-18.3987
 21
-33.4662
  0
LINE
  8
0
 10
-18.3987
 20
-33.4662
 11
-18.4746
 21
-34.4318
  0
LINE
  8
0
 10
-18.4746
 20
-34.4318
 11
-18.5
 21
-35.4
  0
LINE
  8
0
 10
-9.35
 20
-48.65
 11
-9.34781
 21
-48.5663
  0
LINE
  8
0
 10
-9.34781
 20
-48.5663
 11
-9.34123
 21
-48.4828
  0
LINE
  8
0
 10
-9.34123
 20
-48.4828
 11
-9.3303
 21
-48.3997
  0
LINE
  8
0
 10
-9.3303
 20
-48.3997
 11
-9.31504
 21
-48.3173
  0
LINE
  8
0
 10
-9.31504
 20
-48.3173
 11
-9.29548
 21
-48.2359
  0
LINE
  8
0
 10
-9.29548
 20
-48.2359
 11
-9.27169
 21
-48.1556
  0
LINE
  8
0
 10
-9.27169
 20
-48.1556
 11
-9.24373
 21
-48.0766
  0
LINE
  8
0
 10
-9.24373
 20
-48.0766
 11
-9.21167
 21
-47.9992
  0
LINE
  8
0
 10
-9.21167
 20
-47.9992
 11
-9.17561
 21
-47.9236
  0
LINE
  8
0
 10
-9.17561
 20
-47.9236
 11
-9.13564
 21
-47.85
  0
LINE
  8
0
 10
-9.13564
 20
-47.85
 11
-9.09187
 21
-47.7786
  0
LINE
  8
0
 10
-9.09187
 20
-47.7786
 11
-9.04443
 21
-47.7095
  0
LINE
  8
0
 10
-9.04443
 20
-47.7095
 11
-8.99343
 21
-47.6431
  0
LINE
  8
0
 10
-8.99343
 20
-47.6431
 11
-8.93903
 21
-47.5794
  0
LINE
  8
0
 10
-8.93903
 20
-47.5794
 11
-8.88137
 21
-47.5186
  0
LINE
  8
0
 10
-8.88137
 20
-47.5186
 11
-8.82061
 21
-47.461
  0
LINE
  8
0
 10
-8.82061
 20
-47.461
 11
-8.75691
 21
-47.4066
  0
LINE
  8
0
 10
-8.75691
 20
-47.4066
 11
-8.69046
 21
-47.3556
  0
LINE
  8
0
 10
-8.69046
 20
-47.3556
 11
-8.62142
 21
-47.3081
  0
LINE
  8
0
 10
-8.62142
 20
-47.3081
 11
-8.55
 21
-47.2644
  0
LINE
  8
0
 10
-8.55
 20
-47.2644
 11
-8.47638
 21
-47.2244
  0
LINE
  8
0
 10
-8.47638
 20
-47.2244
 11
-8.40078
 21
-47.1883
  0
LINE
  8
0
 10
-8.40078
 20
-47.1883
 11
-8.32339
 21
-47.1563
  0
LINE
  8
0
 10
-8.32339
 20
-47.1563
 11
-8.24443
 21
-47.1283
  0
LINE
  8
0
 10
-8.24443
 20
-47.1283
 11
-8.16411
 21
-47.1045
  0
LINE
  8
0
 10
-8.16411
 20
-47.1045
 11
-8.08266
 21
-47.085
  0
LINE
  8
0
 10
-8.08266
 20
-47.085
 11
-8.00029
 21
-47.0697
  0
LINE
  8
0
 10
-8.00029
 20
-47.0697
 11
-7.91724
 21
-47.0588
  0
LINE
  8
0
 10
-7.91724
 20
-47.0588
 11
-7.83374
 21
-47.0522
  0
LINE
  8
0
 10
-7.83374
 20
-47.0522
 11
-7.75
 21
-47.05
  0
LINE
  8
0
 10
-7.75
 20
-47.05
 11
-7.66626
 21
-47.0522
  0
LINE
  8
0
 10
-7.66626
 20
-47.0522
 11
-7.58275
 21
-47.0588
  0
LINE
  8
0
 10
-7.58275
 20
-47.0588
 11
-7.4997
 21
-47.0697
  0
LINE
  8
0
 10
-7.4997
 20
-47.0697
 11
-7.41734
 21
-47.085
  0
LINE
  8
0
 10
-7.41734
 20
-47.085
 11
-7.33589
 21
-47.1045
  0
LINE
  8
0
 10
-7.33589
 20
-47.1045
 11
-7.25557
 21
-47.1283
  0
LINE
  8
0
 10
-7.25557
 20
-47.1283
 11
-7.17661
 21
-47.1563
  0
LINE
  8
0
 10
-7.17661
 20
-47.1563
 11
-7.09922
 21
-47.1883
  0
LINE
  8
0
 10
-7.09922
 20
-47.1883
 11
-7.02361
 21
-47.2244
  0
LINE
  8
0
 10
-7.02361
 20
-47.2244
 11
-6.95
 21
-47.2644
  0
LINE
  8
0
 10
-6.95
 20
-47.2644
 11
-6.87858
 21
-47.3081
  0
LINE
  8
0
 10
-6.87858
 20
-47.3081
 11
-6.80954
 21
-47.3556
  0
LINE
  8
0
 10
-6.80954
 20
-47.3556
 11
-6.74309
 21
-47.4066
  0
LINE
  8
0
 10
-6.74309
 20
-47.4066
 11
-6.67939
 21
-47.461
  0
LINE
  8
0
 10
-6.67939
 20
-47.461
 11
-6.61863
 21
-47.5186
  0
LINE
  8
0
 10
-6.61863
 20
-47.5186
 11
-6.56097
 21
-47.5794
  0
LINE
  8
0
 10
-6.56097
 20
-47.5794
 11
-6.50657
 21
-47.6431
  0
LINE
  8
0
 10
-6.50657
 20
-47.6431
 11
-6.45557
 21
-47.7095
  0
LINE
  8
0
 10
-6.45557
 20
-47.7095
 11
-6.40813
 21
-47.7786
  0
LINE
  8
0
 10
-6.40813
 20
-47.7786
 11
-6.36436
 21
-47.85
  0
LINE
  8
0
 10
-6.36436
 20
-47.85
 11
-6.32439
 21
-47.9236
  0
LINE
  8
0
 10
-6.32439
 20
-47.9236
 11
-6.28833
 21
-47.9992
  0
LINE
  8
0
 10
-6.28833
 20
-47.9992
 11
-6.25627
 21
-48.0766
  0
LINE
  8
0
 10
-6.25627
 20
-48.0766
 11
-6.22831
 21
-48.1556
  0
LINE
  8
0
 10
-6.22831
 20
-48.1556
 11
-6.20452
 21
-48.2359
  0
LINE
  8
0
 10
-6.20452
 20
-48.2359
 11
-6.18496
 21
-48.3173
  0
LINE
  8
0
 10
-6.18496
 20
-48.3173
 11
-6.1697
 21
-48.3997
  0
LINE
  8
0
 10
-6.1697
 20
-48.3997
 11
-6.15876
 21
-48.4828
  0
LINE
  8
0
 10
-6.15876
 20
-48.4828
 11
-6.15219
 21
-48.5663
  0
LINE
  8
0
 10
-6.15219
 20
-48.5663
 11
-6.15
 21
-48.65
  0
LINE
  8
0
 10
-6.15
 20
-48.65
 11
-6.15219
 21
-48.7337
  0
LINE
  8
0
 10
-6.15219
 20
-48.7337
 11
-6.15876
 21
-48.8172
  0
LINE
  8
0
 10
-6.15876
 20
-48.8172
 11
-6.1697
 21
-48.9003
  0
LINE
  8
0
 10
-6.1697
 20
-48.9003
 11
-6.18496
 21
-48.9827
  0
LINE
  8
0
 10
-6.18496
 20
-48.9827
 11
-6.20452
 21
-49.0641
  0
LINE
  8
0
 10
-6.20452
 20
-49.0641
 11
-6.22831
 21
-49.1444
  0
LINE
  8
0
 10
-6.22831
 20
-49.1444
 11
-6.25627
 21
-49.2234
  0
LINE
  8
0
 10
-6.25627
 20
-49.2234
 11
-6.28833
 21
-49.3008
  0
LINE
  8
0
 10
-6.28833
 20
-49.3008
 11
-6.32439
 21
-49.3764
  0
LINE
  8
0
 10
-6.32439
 20
-49.3764
 11
-6.36436
 21
-49.45
  0
LINE
  8
0
 10
-6.36436
 20
-49.45
 11
-6.40813
 21
-49.5214
  0
LINE
  8
0
 10
-6.40813
 20
-49.5214
 11
-6.45557
 21
-49.5905
  0
LINE
  8
0
 10
-6.45557
 20
-49.5905
 11
-6.50657
 21
-49.6569
  0
LINE
  8
0
 10
-6.50657
 20
-49.6569
 11
-6.56097
 21
-49.7206
  0
LINE
  8
0
 10
-6.56097
 20
-49.7206
 11
-6.61863
 21
-49.7814
  0
LINE
  8
0
 10
-6.61863
 20
-49.7814
 11
-6.67939
 21
-49.839
  0
LINE
  8
0
 10
-6.67939
 20
-49.839
 11
-6.74309
 21
-49.8934
  0
LINE
  8
0
 10
-6.74309
 20
-49.8934
 11
-6.80954
 21
-49.9444
  0
LINE
  8
0
 10
-6.80954
 20
-49.9444
 11
-6.87858
 21
-49.9919
  0
LINE
  8
0
 10
-6.87858
 20
-49.9919
 11
-6.95
 21
-50.0356
  0
LINE
  8
0
 10
-6.95
 20
-50.0356
 11
-7.02361
 21
-50.0756
  0
LINE
  8
0
 10
-7.02361
 20
-50.0756
 11
-7.09922
 21
-50.1117
  0
LINE
  8
0
 10
-7.09922
 20
-50.1117
 11
-7.17661
 21
-50.1437
  0
LINE
  8
0
 10
-7.17661
 20
-50.1437
 11
-7.25557
 21
-50.1717
  0
LINE
  8
0
 10
-7.25557
 20
-50.1717
 11
-7.33589
 21
-50.1955
  0
LINE
  8
0
 10
-7.33589
 20
-50.1955
 11
-7.41734
 21
-50.215
  0
LINE
  8
0
 10
-7.41734
 20
-50.215
 11
-7.4997
 21
-50.2303
  0
LINE
  8
0
 10
-7.4997
 20
-50.2303
 11
-7.58275
 21
-50.2412
  0
LINE
  8
0
 10
-7.58275
 20
-50.2412
 11
-7.66626
 21
-50.2478
  0
LINE
  8
0
 10
-7.66626
 20
-50.2478
 11
-7.75
 21
-50.25
  0
LINE
  8
0
 10
-7.75
 20
-50.25
 11
-7.83374
 21
-50.2478
  0
LINE
  8
0
 10
-7.83374
 20
-50.2478
 11
-7.91724
 21
-50.2412
  0
LINE
  8
0
 10
-7.91724
 20
-50.2412
 11
-8.00029
 21
-50.2303
  0
LINE
  8
0
 10
-8.00029
 20
-50.2303
 11
-8.08266
 21
-50.215
  0
LINE
  8
0
 10
-8.08266
 20
-50.215
 11
-8.16411
 21
-50.1955
  0
LINE
  8
0
 10
-8.16411
 20
-50.1955
 11
-8.24443
 21
-50.1717
  0
LINE
  8
0
 10
-8.24443
 20
-50.1717
 11
-8.32339
 21
-50.1437
  0
LINE
  8
0
 10
-8.32339
 20
-50.1437
 11
-8.40078
 21
-50.1117
  0
LINE
  8
0
 10
-8.40078
 20
-50.1117
 11
-8.47638
 21
-50.0756
  0
LINE
  8
0
 10
-8.47638
 20
-50.0756
 11
-8.55
 21
-50.0356
  0
LINE
  8
0
 10
-8.55
 20
-50.0356
 11
-8.62142
 21
-49.9919
  0
LINE
  8
0
 10
-8.62142
 20
-49.9919
 11
-8.69046
 21
-49.9444
  0
LINE
  8
0
 10
-8.69046
 20
-49.9444
 11
-8.75691
 21
-49.8934
  0
LINE
  8
0
 10
-8.75691
 20
-49.8934
 11
-8.82061
 21
-49.839
  0
LINE
  8
0
 10
-8.82061
 20
-49.839
 11
-8.88137
 21
-49.7814
  0
LINE
  8
0
 10
-8.88137
 20
-49.7814
 11
-8.93903
 21
-49.7206
  0
LINE
  8
0
 10
-8.93903
 20
-49.7206
 11
-8.99343
 21
-49.6569
  0
LINE
  8
0
 10
-8.99343
 20
-49.6569
 11
-9.04443
 21
-49.5905
  0
LINE
  8
0
 10
-9.04443
 20
-49.5905
 11
-9.09187
 21
-49.5214
  0
LINE
  8
0
 10
-9.09187
 20
-49.5214
 11
-9.13564
 21
-49.45
  0
LINE
  8
0
 10
-9.13564
 20
-49.45
 11
-9.17561
 21
-49.3764
  0
LINE
  8
0
 10
-9.17561
 20
-49.3764
 11
-9.21167
 21
-49.3008
  0
LINE
  8
0
 10
-9.21167
 20
-49.3008
 11
-9.24373
 21
-49.2234
  0
LINE
  8
0
 10
-9.24373
 20
-49.2234
 11
-9.27169
 21
-49.1444
  0
LINE
  8
0
 10
-9.27169
 20
-49.1444
 11
-9.29548
 21
-49.0641
  0
LINE
  8
0
 10
-9.29548
 20
-49.0641
 11
-9.31504
 21
-48.9827
  0
LINE
  8
0
 10
-9.31504
 20
-48.9827
 11
-9.3303
 21
-48.9003
  0
LINE
  8
0
 10
-9.3303
 20
-48.9003
 11
-9.34123
 21
-48.8172
  0
LINE
  8
0
 10
-9.34123
 20
-48.8172
 11
-9.34781
 21
-48.7337
  0
LINE
  8
0
 10
-9.34781
 20
-48.7337
 11
-9.35
 21
-48.65
  0
LINE
  8
0
 10
-9.35
 20
-21.9
 11
-9.34781
 21
-21.8163
  0
LINE
  8
0
 10
-9.34781
 20
-21.8163
 11
-9.34123
 21
-21.7328
  0
LINE
  8
0
 10
-9.34123
 20
-21.7328
 11
-9.3303
 21
-21.6497
  0
LINE
  8
0
 10
-9.3303
 20
-21.6497
 11
-9.31504
 21
-21.5673
  0
LINE
  8
0
 10
-9.31504
 20
-21.5673
 11
-9.29548
 21
-21.4859
  0
LINE
  8
0
 10
-9.29548
 20
-21.4859
 11
-9.27169
 21
-21.4056
  0
LINE
  8
0
 10
-9.27169
 20
-21.4056
 11
-9.24373
 21
-21.3266
  0
LINE
  8
0
 10
-9.24373
 20
-21.3266
 11
-9.21167
 21
-21.2492
  0
LINE
  8
0
 10
-9.21167
 20
-21.2492
 11
-9.17561
 21
-21.1736
  0
LINE
  8
0
 10
-9.17561
 20
-21.1736
 11
-9.13564
 21
-21.1
  0
LINE
  8
0
 10
-9.13564
 20
-21.1
 11
-9.09187
 21
-21.0286
  0
LINE
  8
0
 10
-9.09187
 20
-21.0286
 11
-9.04443
 21
-20.9595
  0
LINE
  8
0
 10
-9.04443
 20
-20.9595
 11
-8.99343
 21
-20.8931
  0
LINE
  8
0
 10
-8.99343
 20
-20.8931
 11
-8.93903
 21
-20.8294
  0
LINE
  8
0
 10
-8.93903
 20
-20.8294
 11
-8.88137
 21
-20.7686
  0
LINE
  8
0
 10
-8.88137
 20
-20.7686
 11
-8.82061
 21
-20.711
  0
LINE
  8
0
 10
-8.82061
 20
-20.711
 11
-8.75691
 21
-20.6566
  0
LINE
  8
0
 10
-8.75691
 20
-20.6566
 11
-8.69046
 21
-20.6056
  0
LINE
  8
0
 10
-8.69046
 20
-20.6056
 11
-8.62142
 21
-20.5581
  0
LINE
  8
0
 10
-8.62142
 20
-20.5581
 11
-8.55
 21
-20.5144
  0
LINE
  8
0
 10
-8.55
 20
-20.5144
 11
-8.47638
 21
-20.4744
  0
LINE
  8
0
 10
-8.47638
 20
-20.4744
 11
-8.40078
 21
-20.4383
  0
LINE
  8
0
 10
-8.40078
 20
-20.4383
 11
-8.32339
 21
-20.4063
  0
LINE
  8
0
 10
-8.32339
 20
-20.4063
 11
-8.24443
 21
-20.3783
  0
LINE
  8
0
 10
-8.24443
 20
-20.3783
 11
-8.16411
 21
-20.3545
  0
LINE
  8
0
 10
-8.16411
 20
-20.3545
 11
-8.08266
 21
-20.335
  0
LINE
  8
0
 10
-8.08266
 20
-20.335
 11
-8.00029
 21
-20.3197
  0
LINE
  8
0
 10
-8.00029
 20
-20.3197
 11
-7.91724
 21
-20.3088
  0
LINE
  8
0
 10
-7.91724
 20
-20.3088
 11
-7.83374
 21
-20.3022
  0
LINE
  8
0
 10
-7.83374
 20
-20.3022
 11
-7.75
 21
-20.3
  0
LINE
  8
0
 10
-7.75
 20
-20.3
 11
-7.66626
 21
-20.3022
  0
LINE
  8
0
 10
-7.66626
 20
-20.3022
 11
-7.58275
 21
-20.3088
  0
LINE
  8
0
 10
-7.58275
 20
-20.3088
 11
-7.4997
 21
-20.3197
  0
LINE
  8
0
 10
-7.4997
 20
-20.3197
 11
-7.41734
 21
-20.335
  0
LINE
  8
0
 10
-7.41734
 20
-20.335
 11
-7.33589
 21
-20.3545
  0
LINE
  8
0
 10
-7.33589
 20
-20.3545
 11
-7.25557
 21
-20.3783
  0
LINE
  8
0
 10
-7.25557
 20
-20.3783
 11
-7.17661
 21
-20.4063
  0
LINE
  8
0
 10
-7.17661
 20
-20.4063
 11
-7.09922
 21
-20.4383
  0
LINE
  8
0
 10
-7.09922
 20
-20.4383
 11
-7.02361
 21
-20.4744
  0
LINE
  8
0
 10
-7.02361
 20
-20.4744
 11
-6.95
 21
-20.5144
  0
LINE
  8
0
 10
-6.95
 20
-20.5144
 11
-6.87858
 21
-20.5581
  0
LINE
  8
0
 10
-6.87858
 20
-20.5581
 11
-6.80954
 21
-20.6056
  0
LINE
  8
0
 10
-6.80954
 20
-20.6056
 11
-6.74309
 21
-20.6566
  0
LINE
  8
0
 10
-6.74309
 20
-20.6566
 11
-6.67939
 21
-20.711
  0
LINE
  8
0
 10
-6.67939
 20
-20.711
 11
-6.61863
 21
-20.7686
  0
LINE
  8
0
 10
-6.61863
 20
-20.7686
 11
-6.56097
 21
-20.8294
  0
LINE
  8
0
 10
-6.56097
 20
-20.8294
 11
-6.50657
 21
-20.8931
  0
LINE
  8
0
 10
-6.50657
 20
-20.8931
 11
-6.45557
 21
-20.9595
  0
LINE
  8
0
 10
-6.45557
 20
-20.9595
 11
-6.40813
 21
-21.0286
  0
LINE
  8
0
 10
-6.40813
 20
-21.0286
 11
-6.36436
 21
-21.1
  0
LINE
  8
0
 10
-6.36436
 20
-21.1
 11
-6.32439
 21
-21.1736
  0
LINE
  8
0
 10
-6.32439
 20
-21.1736
 11
-6.28833
 21
-21.2492
  0
LINE
  8
0
 10
-6.28833
 20
-21.2492
 11
-6.25627
 21
-21.3266
  0
LINE
  8
0
 10
-6.25627
 20
-21.3266
 11
-6.22831
 21
-21.4056
  0
LINE
  8
0
 10
-6.22831
 20
-21.4056
 11
-6.20452
 21
-21.4859
  0
LINE
  8
0
 10
-6.20452
 20
-21.4859
 11
-6.18496
 21
-21.5673
  0
LINE
  8
0
 10
-6.18496
 20
-21.5673
 11
-6.1697
 21
-21.6497
  0
LINE
  8
0
 10
-6.1697
 20
-21.6497
 11
-6.15876
 21
-21.7328
  0
LINE
  8
0
 10
-6.15876
 20
-21.7328
 11
-6.15219
 21
-21.8163
  0
LINE
  8
0
 10
-6.15219
 20
-21.8163
 11
-6.15
 21
-21.9
  0
LINE
  8
0
 10
-6.15
 20
-21.9
 11
-6.15219
 21
-21.9837
  0
LINE
  8
0
 10
-6.15219
 20
-21.9837
 11
-6.15876
 21
-22.0672
  0
LINE
  8
0
 10
-6.15876
 20
-22.0672
 11
-6.1697
 21
-22.1503
  0
LINE
  8
0
 10
-6.1697
 20
-22.1503
 11
-6.18496
 21
-22.2327
  0
LINE
  8
0
 10
-6.18496
 20
-22.2327
 11
-6.20452
 21
-22.3141
  0
LINE
  8
0
 10
-6.20452
 20
-22.3141
 11
-6.22831
 21
-22.3944
  0
LINE
  8
0
 10
-6.22831
 20
-22.3944
 11
-6.25627
 21
-22.4734
  0
LINE
  8
0
 10
-6.25627
 20
-22.4734
 11
-6.28833
 21
-22.5508
  0
LINE
  8
0
 10
-6.28833
 20
-22.5508
 11
-6.32439
 21
-22.6264
  0
LINE
  8
0
 10
-6.32439
 20
-22.6264
 11
-6.36436
 21
-22.7
  0
LINE
  8
0
 10
-6.36436
 20
-22.7
 11
-6.40813
 21
-22.7714
  0
LINE
  8
0
 10
-6.40813
 20
-22.7714
 11
-6.45557
 21
-22.8405
  0
LINE
  8
0
 10
-6.45557
 20
-22.8405
 11
-6.50657
 21
-22.9069
  0
LINE
  8
0
 10
-6.50657
 20
-22.9069
 11
-6.56097
 21
-22.9706
  0
LINE
  8
0
 10
-6.56097
 20
-22.9706
 11
-6.61863
 21
-23.0314
  0
LINE
  8
0
 10
-6.61863
 20
-23.0314
 11
-6.67939
 21
-23.089
  0
LINE
  8
0
 10
-6.67939
 20
-23.089
 11
-6.74309
 21
-23.1434
  0
LINE
  8
0
 10
-6.74309
 20
-23.1434
 11
-6.80954
 21
-23.1944
  0
LINE
  8
0
 10
-6.80954
 20
-23.1944
 11
-6.87858
 21
-23.2419
  0
LINE
  8
0
 10
-6.87858
 20
-23.2419
 11
-6.95
 21
-23.2856
  0
LINE
  8
0
 10
-6.95
 20
-23.2856
 11
-7.02361
 21
-23.3256
  0
LINE
  8
0
 10
-7.02361
 20
-23.3256
 11
-7.09922
 21
-23.3617
  0
LINE
  8
0
 10
-7.09922
 20
-23.3617
 11
-7.17661
 21
-23.3937
  0
LINE
  8
0
 10
-7.17661
 20
-23.3937
 11
-7.25557
 21
-23.4217
  0
LINE
  8
0
 10
-7.25557
 20
-23.4217
 11
-7.33589
 21
-23.4455
  0
LINE
  8
0
 10
-7.33589
 20
-23.4455
 11
-7.41734
 21
-23.465
  0
LINE
  8
0
 10
-7.41734
 20
-23.465
 11
-7.4997
 21
-23.4803
  0
LINE
  8
0
 10
-7.4997
 20
-23.4803
 11
-7.58275
 21
-23.4912
  0
LINE
  8
0
 10
-7.58275
 20
-23.4912
 11
-7.66626
 21
-23.4978
  0
LINE
  8
0
 10
-7.66626
 20
-23.4978
 11
-7.75
 21
-23.5
  0
LINE
  8
0
 10
-7.75
 20
-23.5
 11
-7.83374
 21
-23.4978
  0
LINE
  8
0
 10
-7.83374
 20
-23.4978
 11
-7.91724
 21
-23.4912
  0
LINE
  8
0
 10
-7.91724
 20
-23.4912
 11
-8.00029
 21
-23.4803
  0
LINE
  8
0
 10
-8.00029
 20
-23.4803
 11
-8.08266
 21
-23.465
  0
LINE
  8
0
 10
-8.08266
 20
-23.465
 11
-8.16411
 21
-23.4455
  0
LINE
  8
0
 10
-8.16411
 20
-23.4455
 11
-8.24443
 21
-23.4217
  0
LINE
  8
0
 10
-8.24443
 20
-23.4217
 11
-8.32339
 21
-23.3937
  0
LINE
  8
0
 10
-8.32339
 20
-23.3937
 11
-8.40078
 21
-23.3617
  0
LINE
  8
0
 10
-8.40078
 20
-23.3617
 11
-8.47638
 21
-23.3256
  0
LINE
  8
0
 10
-8.47638
 20
-23.3256
 11
-8.55
 21
-23.2856
  0
LINE
  8
0
 10
-8.55
 20
-23.2856
 11
-8.62142
 21
-23.2419
  0
LINE
  8
0
 10
-8.62142
 20
-23.2419
 11
-8.69046
 21
-23.1944
  0
LINE
  8
0
 10
-8.69046
 20
-23.1944
 11
-8.75691
 21
-23.1434
  0
LINE
  8
0
 10
-8.75691
 20
-23.1434
 11
-8.82061
 21
-23.089
  0
LINE
  8
0
 10
-8.82061
 20
-23.089
 11
-8.88137
 21
-23.0314
  0
LINE
  8
0
 10
-8.88137
 20
-23.0314
 11
-8.93903
 21
-22.9706
  0
LINE
  8
0
 10
-8.93903
 20
-22.9706
 11
-8.99343
 21
-22.9069
  0
LINE
  8
0
 10
-8.99343
 20
-22.9069
 11
-9.04443
 21
-22.8405
  0
LINE
  8
0
 10
-9.04443
 20
-22.8405
 11
-9.09187
 21
-22.7714
  0
LINE
  8
0
 10
-9.09187
 20
-22.7714
 11
-9.13564
 21
-22.7
  0
LINE
  8
0
 10
-9.13564
 20
-22.7
 11
-9.17561
 21
-22.6264
  0
LINE
  8
0
 10
-9.17561
 20
-22.6264
 11
-9.21167
 21
-22.5508
  0
LINE
  8
0
 10
-9.21167
 20
-22.5508
 11
-9.24373
 21
-22.4734
  0
LINE
  8
0
 10
-9.24373
 20
-22.4734
 11
-9.27169
 21
-22.3944
  0
LINE
  8
0
 10
-9.27169
 20
-22.3944
 11
-9.29548
 21
-22.3141
  0
LINE
  8
0
 10
-9.29548
 20
-22.3141
 11
-9.31504
 21
-22.2327
  0
LINE
  8
0
 10
-9.31504
 20
-22.2327
 11
-9.3303
 21
-22.1503
  0
LINE
  8
0
 10
-9.3303
 20
-22.1503
 11
-9.34123
 21
-22.0672
  0
LINE
  8
0
 10
-9.34123
 20
-22.0672
 11
-9.34781
 21
-21.9837
  0
LINE
  8
0
 10
-9.34781
 20
-21.9837
 11
-9.35
 21
-21.9
  0
LINE
  8
0
 10
-6.8
 20
-42.4
 11
-6.79068
 21
-42.0441
  0
LINE
  8
0
 10
-6.79068
 20
-42.0441
 11
-6.76275
 21
-41.6892
  0
LINE
  8
0
 10
-6.76275
 20
-41.6892
 11
-6.71628
 21
-41.3362
  0
LINE
  8
0
 10
-6.71628
 20
-41.3362
 11
-6.6514
 21
-40.9862
  0
LINE
  8
0
 10
-6.6514
 20
-40.9862
 11
-6.5683
 21
-40.64
  0
LINE
  8
0
 10
-6.5683
 20
-40.64
 11
-6.46718
 21
-40.2987
  0
LINE
  8
0
 10
-6.46718
 20
-40.2987
 11
-6.34835
 21
-39.9631
  0
LINE
  8
0
 10
-6.34835
 20
-39.9631
 11
-6.21211
 21
-39.6342
  0
LINE
  8
0
 10
-6.21211
 20
-39.6342
 11
-6.05884
 21
-39.3129
  0
LINE
  8
0
 10
-6.05884
 20
-39.3129
 11
-5.88897
 21
-39
  0
LINE
  8
0
 10
-5.88897
 20
-39
 11
-5.70296
 21
-38.6965
  0
LINE
  8
0
 10
-5.70296
 20
-38.6965
 11
-5.50132
 21
-38.4031
  0
LINE
  8
0
 10
-5.50132
 20
-38.4031
 11
-5.28459
 21
-38.1206
  0
LINE
  8
0
 10
-5.28459
 20
-38.1206
 11
-5.05338
 21
-37.8499
  0
LINE
  8
0
 10
-5.05338
 20
-37.8499
 11
-4.80833
 21
-37.5917
  0
LINE
  8
0
 10
-4.80833
 20
-37.5917
 11
-4.55009
 21
-37.3466
  0
LINE
  8
0
 10
-4.55009
 20
-37.3466
 11
-4.27938
 21
-37.1154
  0
LINE
  8
0
 10
-4.27938
 20
-37.1154
 11
-3.99694
 21
-36.8987
  0
LINE
  8
0
 10
-3.99694
 20
-36.8987
 11
-3.70354
 21
-36.697
  0
LINE
  8
0
 10
-3.70354
 20
-36.697
 11
-3.4
 21
-36.511
  0
LINE
  8
0
 10
-3.4
 20
-36.511
 11
-3.08714
 21
-36.3412
  0
LINE
  8
0
 10
-3.08714
 20
-36.3412
 11
-2.76581
 21
-36.1879
  0
LINE
  8
0
 10
-2.76581
 20
-36.1879
 11
-2.4369
 21
-36.0517
  0
LINE
  8
0
 10
-2.4369
 20
-36.0517
 11
-2.10132
 21
-35.9328
  0
LINE
  8
0
 10
-2.10132
 20
-35.9328
 11
-1.75997
 21
-35.8317
  0
LINE
  8
0
 10
-1.75997
 20
-35.8317
 11
-1.4138
 21
-35.7486
  0
LINE
  8
0
 10
-1.4138
 20
-35.7486
 11
-1.06375
 21
-35.6837
  0
LINE
  8
0
 10
-1.06375
 20
-35.6837
 11
-0.710793
 21
-35.6373
  0
LINE
  8
0
 10
-0.710793
 20
-35.6373
 11
-0.355884
 21
-35.6093
  0
LINE
  8
0
 10
-0.355884
 20
-35.6093
 11
0
 21
-35.6
  0
LINE
  8
0
 10
0
 20
-35.6
 11
0.355884
 21
-35.6093
  0
LINE
  8
0
 10
0.355884
 20
-35.6093
 11
0.710793
 21
-35.6373
  0
LINE
  8
0
 10
0.710793
 20
-35.6373
 11
1.06375
 21
-35.6837
  0
LINE
  8
0
 10
1.06375
 20
-35.6837
 11
1.4138
 21
-35.7486
  0
LINE
  8
0
 10
1.4138
 20
-35.7486
 11
1.75997
 21
-35.8317
  0
LINE
  8
0
 10
1.75997
 20
-35.8317
 11
2.10132
 21
-35.9328
  0
LINE
  8
0
 10
2.10132
 20
-35.9328
 11
2.4369
 21
-36.0517
  0
LINE
  8
0
 10
2.4369
 20
-36.0517
 11
2.76581
 21
-36.1879
  0
LINE
  8
0
 10
2.76581
 20
-36.1879
 11
3.08714
 21
-36.3412
  0
LINE
  8
0
 10
3.08714
 20
-36.3412
 11
3.4
 21
-36.511
  0
LINE
  8
0
 10
3.4
 20
-36.511
 11
3.70354
 21
-36.697
  0
LINE
  8
0
 10
3.70354
 20
-36.697
 11
3.99694
 21
-36.8987
  0
LINE
  8
0
 10
3.99694
 20
-36.8987
 11
4.27938
 21
-37.1154
  0
LINE
  8
0
 10
4.27938
 20
-37.1154
 11
4.55009
 21
-37.3466
  0
LINE
  8
0
 10
4.55009
 20
-37.3466
 11
4.80833
 21
-37.5917
  0
LINE
  8
0
 10
4.80833
 20
-37.5917
 11
5.05338
 21
-37.8499
  0
LINE
  8
0
 10
5.05338
 20
-37.8499
 11
5.28459
 21
-38.1206
  0
LINE
  8
0
 10
5.28459
 20
-38.1206
 11
5.50132
 21
-38.4031
  0
LINE
  8
0
 10
5.50132
 20
-38.4031
 11
5.70296
 21
-38.6965
  0
LINE
  8
0
 10
5.70296
 20
-38.6965
 11
5.88897
 21
-39
  0
LINE
  8
0
 10
5.88897
 20
-39
 11
6.05884
 21
-39.3129
  0
LINE
  8
0
 10
6.05884
 20
-39.3129
 11
6.21211
 21
-39.6342
  0
LINE
  8
0
 10
6.21211
 20
-39.6342
 11
6.34835
 21
-39.9631
  0
LINE
  8
0
 10
6.34835
 20
-39.9631
 11
6.46718
 21
-40.2987
  0
LINE
  8
0
 10
6.46718
 20
-40.2987
 11
6.5683
 21
-40.64
  0
LINE
  8
0
 10
6.5683
 20
-40.64
 11
6.6514
 21
-40.9862
  0
LINE
  8
0
 10
6.6514
 20
-40.9862
 11
6.71628
 21
-41.3362
  0
LINE
  8
0
 10
6.71628
 20
-41.3362
 11
6.76275
 21
-41.6892
  0
LINE
  8
0
 10
6.76275
 20
-41.6892
 11
6.79068
 21
-42.0441
  0
LINE
  8
0
 10
6.79068
 20
-42.0441
 11
6.8
 21
-42.4
  0
LINE
  8
0
 10
6.8
 20
-42.4
 11
6.79068
 21
-42.7559
  0
LINE
  8
0
 10
6.79068
 20
-42.7559
 11
6.76275
 21
-43.1108
  0
LINE
  8
0
 10
6.76275
 20
-43.1108
 11
6.71628
 21
-43.4638
  0
LINE
  8
0
 10
6.71628
 20
-43.4638
 11
6.6514
 21
-43.8138
  0
LINE
  8
0
 10
6.6514
 20
-43.8138
 11
6.5683
 21
-44.16
  0
LINE
  8
0
 10
6.5683
 20
-44.16
 11
6.46718
 21
-44.5013
  0
LINE
  8
0
 10
6.46718
 20
-44.5013
 11
6.34835
 21
-44.8369
  0
LINE
  8
0
 10
6.34835
 20
-44.8369
 11
6.21211
 21
-45.1658
  0
LINE
  8
0
 10
6.21211
 20
-45.1658
 11
6.05884
 21
-45.4871
  0
LINE
  8
0
 10
6.05884
 20
-45.4871
 11
5.88897
 21
-45.8
  0
LINE
  8
0
 10
5.88897
 20
-45.8
 11
5.70296
 21
-46.1035
  0
LINE
  8
0
 10
5.70296
 20
-46.1035
 11
5.50132
 21
-46.3969
  0
LINE
  8
0
 10
5.50132
 20
-46.3969
 11
5.28459
 21
-46.6794
  0
LINE
  8
0
 10
5.28459
 20
-46.6794
 11
5.05338
 21
-46.9501
  0
LINE
  8
0
 10
5.05338
 20
-46.9501
 11
4.80833
 21
-47.2083
  0
LINE
  8
0
 10
4.80833
 20
-47.2083
 11
4.55009
 21
-47.4534
  0
LINE
  8
0
 10
4.55009
 20
-47.4534
 11
4.27938
 21
-47.6846
  0
LINE
  8
0
 10
4.27938
 20
-47.6846
 11
3.99694
 21
-47.9013
  0
LINE
  8
0
 10
3.99694
 20
-47.9013
 11
3.70354
 21
-48.103
  0
LINE
  8
0
 10
3.70354
 20
-48.103
 11
3.4
 21
-48.289
  0
LINE
  8
0
 10
3.4
 20
-48.289
 11
3.08714
 21
-48.4588
  0
LINE
  8
0
 10
3.08714
 20
-48.4588
 11
2.76581
 21
-48.6121
  0
LINE
  8
0
 10
2.76581
 20
-48.6121
 11
2.4369
 21
-48.7483
  0
LINE
  8
0
 10
2.4369
 20
-48.7483
 11
2.10132
 21
-48.8672
  0
LINE
  8
0
 10
2.10132
 20
-48.8672
 11
1.75997
 21
-48.9683
  0
LINE
  8
0
 10
1.75997
 20
-48.9683
 11
1.4138
 21
-49.0514
  0
LINE
  8
0
 10
1.4138
 20
-49.0514
 11
1.06375
 21
-49.1163
  0
LINE
  8
0
 10
1.06375
 20
-49.1163
 11
0.710793
 21
-49.1627
  0
LINE
  8
0
 10
0.710793
 20
-49.1627
 11
0.355884
 21
-49.1907
  0
LINE
  8
0
 10
0.355884
 20
-49.1907
 11
0
 21
-49.2
  0
LINE
  8
0
 10
0
 20
-49.2
 11
-0.355884
 21
-49.1907
  0
LINE
  8
0
 10
-0.355884
 20
-49.1907
 11
-0.710793
 21
-49.1627
  0
LINE
  8
0
 10
-0.710793
 20
-49.1627
 11
-1.06375
 21
-49.1163
  0
LINE
  8
0
 10
-1.06375
 20
-49.1163
 11
-1.4138
 21
-49.0514
  0
LINE
  8
0
 10
-1.4138
 20
-49.0514
 11
-1.75997
 21
-48.9683
  0
LINE
  8
0
 10
-1.75997
 20
-48.9683
 11
-2.10132
 21
-48.8672
  0
LINE
  8
0
 10
-2.10132
 20
-48.8672
 11
-2.4369
 21
-48.7483
  0
LINE
  8
0
 10
-2.4369
 20
-48.7483
 11
-2.76581
 21
-48.6121
  0
LINE
  8
0
 10
-2.76581
 20
-48.6121
 11
-3.08714
 21
-48.4588
  0
LINE
  8
0
 10
-3.08714
 20
-48.4588
 11
-3.4
 21
-48.289
  0
LINE
  8
0
 10
-3.4
 20
-48.289
 11
-3.70354
 21
-48.103
  0
LINE
  8
0
 10
-3.70354
 20
-48.103
 11
-3.99694
 21
-47.9013
  0
LINE
  8
0
 10
-3.99694
 20
-47.9013
 11
-4.27938
 21
-47.6846
  0
LINE
  8
0
 10
-4.27938
 20
-47.6846
 11
-4.55009
 21
-47.4534
  0
LINE
  8
0
 10
-4.55009
 20
-47.4534
 11
-4.80833
 21
-47.2083
  0
LINE
  8
0
 10
-4.80833
 20
-47.2083
 11
-5.05338
 21
-46.9501
  0
LINE
  8
0
 10
-5.05338
 20
-46.9501
 11
-5.28459
 21
-46.6794
  0
LINE
  8
0
 10
-5.28459
 20
-46.6794
 11
-5.50132
 21
-46.3969
  0
LINE
  8
0
 10
-5.50132
 20
-46.3969
 11
-5.70296
 21
-46.1035
  0
LINE
  8
0
 10
-5.70296
 20
-46.1035
 11
-5.88897
 21
-45.8
  0
LINE
  8
0
 10
-5.88897
 20
-45.8
 11
-6.05884
 21
-45.4871
  0
LINE
  8
0
 10
-6.05884
 20
-45.4871
 11
-6.21211
 21
-45.1658
  0
LINE
  8
0
 10
-6.21211
 20
-45.1658
 11
-6.34835
 21
-44.8369
  0
LINE
  8
0
 10
-6.34835
 20
-44.8369
 11
-6.46718
 21
-44.5013
  0
LINE
  8
0
 10
-6.46718
 20
-44.5013
 11
-6.5683
 21
-44.16
  0
LINE
  8
0
 10
-6.5683
 20
-44.16
 11
-6.6514
 21
-43.8138
  0
LINE
  8
0
 10
-6.6514
 20
-43.8138
 11
-6.71628
 21
-43.4638
  0
LINE
  8
0
 10
-6.71628
 20
-43.4638
 11
-6.76275
 21
-43.1108
  0
LINE
  8
0
 10
-6.76275
 20
-43.1108
 11
-6.79068
 21
-42.7559
  0
LINE
  8
0
 10
-6.79068
 20
-42.7559
 11
-6.8
 21
-42.4
  0
LINE
  8
0
 10
6.15
 20
-48.65
 11
6.15219
 21
-48.5663
  0
LINE
  8
0
 10
6.15219
 20
-48.5663
 11
6.15876
 21
-48.4828
  0
LINE
  8
0
 10
6.15876
 20
-48.4828
 11
6.1697
 21
-48.3997
  0
LINE
  8
0
 10
6.1697
 20
-48.3997
 11
6.18496
 21
-48.3173
  0
LINE
  8
0
 10
6.18496
 20
-48.3173
 11
6.20452
 21
-48.2359
  0
LINE
  8
0
 10
6.20452
 20
-48.2359
 11
6.22831
 21
-48.1556
  0
LINE
  8
0
 10
6.22831
 20
-48.1556
 11
6.25627
 21
-48.0766
  0
LINE
  8
0
 10
6.25627
 20
-48.0766
 11
6.28833
 21
-47.9992
  0
LINE
  8
0
 10
6.28833
 20
-47.9992
 11
6.32439
 21
-47.9236
  0
LINE
  8
0
 10
6.32439
 20
-47.9236
 11
6.36436
 21
-47.85
  0
LINE
  8
0
 10
6.36436
 20
-47.85
 11
6.40813
 21
-47.7786
  0
LINE
  8
0
 10
6.40813
 20
-47.7786
 11
6.45557
 21
-47.7095
  0
LINE
  8
0
 10
6.45557
 20
-47.7095
 11
6.50657
 21
-47.6431
  0
LINE
  8
0
 10
6.50657
 20
-47.6431
 11
6.56097
 21
-47.5794
  0
LINE
  8
0
 10
6.56097
 20
-47.5794
 11
6.61863
 21
-47.5186
  0
LINE
  8
0
 10
6.61863
 20
-47.5186
 11
6.67939
 21
-47.461
  0
LINE
  8
0
 10
6.67939
 20
-47.461
 11
6.74309
 21
-47.4066
  0
LINE
  8
0
 10
6.74309
 20
-47.4066
 11
6.80954
 21
-47.3556
  0
LINE
  8
0
 10
6.80954
 20
-47.3556
 11
6.87858
 21
-47.3081
  0
LINE
  8
0
 10
6.87858
 20
-47.3081
 11
6.95
 21
-47.2644
  0
LINE
  8
0
 10
6.95
 20
-47.2644
 11
7.02361
 21
-47.2244
  0
LINE
  8
0
 10
7.02361
 20
-47.2244
 11
7.09922
 21
-47.1883
  0
LINE
  8
0
 10
7.09922
 20
-47.1883
 11
7.17661
 21
-47.1563
  0
LINE
  8
0
 10
7.17661
 20
-47.1563
 11
7.25557
 21
-47.1283
  0
LINE
  8
0
 10
7.25557
 20
-47.1283
 11
7.33589
 21
-47.1045
  0
LINE
  8
0
 10
7.33589
 20
-47.1045
 11
7.41734
 21
-47.085
  0
LINE
  8
0
 10
7.41734
 20
-47.085
 11
7.4997
 21
-47.0697
  0
LINE
  8
0
 10
7.4997
 20
-47.0697
 11
7.58275
 21
-47.0588
  0
LINE
  8
0
 10
7.58275
 20
-47.0588
 11
7.66626
 21
-47.0522
  0
LINE
  8
0
 10
7.66626
 20
-47.0522
 11
7.75
 21
-47.05
  0
LINE
  8
0
 10
7.75
 20
-47.05
 11
7.83374
 21
-47.0522
  0
LINE
  8
0
 10
7.83374
 20
-47.0522
 11
7.91724
 21
-47.0588
  0
LINE
  8
0
 10
7.91724
 20
-47.0588
 11
8.00029
 21
-47.0697
  0
LINE
  8
0
 10
8.00029
 20
-47.0697
 11
8.08266
 21
-47.085
  0
LINE
  8
0
 10
8.08266
 20
-47.085
 11
8.16411
 21
-47.1045
  0
LINE
  8
0
 10
8.16411
 20
-47.1045
 11
8.24443
 21
-47.1283
  0
LINE
  8
0
 10
8.24443
 20
-47.1283
 11
8.32339
 21
-47.1563
  0
LINE
  8
0
 10
8.32339
 20
-47.1563
 11
8.40078
 21
-47.1883
  0
LINE
  8
0
 10
8.40078
 20
-47.1883
 11
8.47638
 21
-47.2244
  0
LINE
  8
0
 10
8.47638
 20
-47.2244
 11
8.55
 21
-47.2644
  0
LINE
  8
0
 10
8.55
 20
-47.2644
 11
8.62142
 21
-47.3081
  0
LINE
  8
0
 10
8.62142
 20
-47.3081
 11
8.69046
 21
-47.3556
  0
LINE
  8
0
 10
8.69046
 20
-47.3556
 11
8.75691
 21
-47.4066
  0
LINE
  8
0
 10
8.75691
 20
-47.4066
 11
8.82061
 21
-47.461
  0
LINE
  8
0
 10
8.82061
 20
-47.461
 11
8.88137
 21
-47.5186
  0
LINE
  8
0
 10
8.88137
 20
-47.5186
 11
8.93903
 21
-47.5794
  0
LINE
  8
0
 10
8.93903
 20
-47.5794
 11
8.99343
 21
-47.6431
  0
LINE
  8
0
 10
8.99343
 20
-47.6431
 11
9.04443
 21
-47.7095
  0
LINE
  8
0
 10
9.04443
 20
-47.7095
 11
9.09187
 21
-47.7786
  0
LINE
  8
0
 10
9.09187
 20
-47.7786
 11
9.13564
 21
-47.85
  0
LINE
  8
0
 10
9.13564
 20
-47.85
 11
9.17561
 21
-47.9236
  0
LINE
  8
0
 10
9.17561
 20
-47.9236
 11
9.21167
 21
-47.9992
  0
LINE
  8
0
 10
9.21167
 20
-47.9992
 11
9.24373
 21
-48.0766
  0
LINE
  8
0
 10
9.24373
 20
-48.0766
 11
9.27169
 21
-48.1556
  0
LINE
  8
0
 10
9.27169
 20
-48.1556
 11
9.29548
 21
-48.2359
  0
LINE
  8
0
 10
9.29548
 20
-48.2359
 11
9.31504
 21
-48.3173
  0
LINE
  8
0
 10
9.31504
 20
-48.3173
 11
9.3303
 21
-48.3997
  0
LINE
  8
0
 10
9.3303
 20
-48.3997
 11
9.34123
 21
-48.4828
  0
LINE
  8
0
 10
9.34123
 20
-48.4828
 11
9.34781
 21
-48.5663
  0
LINE
  8
0
 10
9.34781
 20
-48.5663
 11
9.35
 21
-48.65
  0
LINE
  8
0
 10
9.35
 20
-48.65
 11
9.34781
 21
-48.7337
  0
LINE
  8
0
 10
9.34781
 20
-48.7337
 11
9.34123
 21
-48.8172
  0
LINE
  8
0
 10
9.34123
 20
-48.8172
 11
9.3303
 21
-48.9003
  0
LINE
  8
0
 10
9.3303
 20
-48.9003
 11
9.31504
 21
-48.9827
  0
LINE
  8
0
 10
9.31504
 20
-48.9827
 11
9.29548
 21
-49.0641
  0
LINE
  8
0
 10
9.29548
 20
-49.0641
 11
9.27169
 21
-49.1444
  0
LINE
  8
0
 10
9.27169
 20
-49.1444
 11
9.24373
 21
-49.2234
  0
LINE
  8
0
 10
9.24373
 20
-49.2234
 11
9.21167
 21
-49.3008
  0
LINE
  8
0
 10
9.21167
 20
-49.3008
 11
9.17561
 21
-49.3764
  0
LINE
  8
0
 10
9.17561
 20
-49.3764
 11
9.13564
 21
-49.45
  0
LINE
  8
0
 10
9.13564
 20
-49.45
 11
9.09187
 21
-49.5214
  0
LINE
  8
0
 10
9.09187
 20
-49.5214
 11
9.04443
 21
-49.5905
  0
LINE
  8
0
 10
9.04443
 20
-49.5905
 11
8.99343
 21
-49.6569
  0
LINE
  8
0
 10
8.99343
 20
-49.6569
 11
8.93903
 21
-49.7206
  0
LINE
  8
0
 10
8.93903
 20
-49.7206
 11
8.88137
 21
-49.7814
  0
LINE
  8
0
 10
8.88137
 20
-49.7814
 11
8.82061
 21
-49.839
  0
LINE
  8
0
 10
8.82061
 20
-49.839
 11
8.75691
 21
-49.8934
  0
LINE
  8
0
 10
8.75691
 20
-49.8934
 11
8.69046
 21
-49.9444
  0
LINE
  8
0
 10
8.69046
 20
-49.9444
 11
8.62142
 21
-49.9919
  0
LINE
  8
0
 10
8.62142
 20
-49.9919
 11
8.55
 21
-50.0356
  0
LINE
  8
0
 10
8.55
 20
-50.0356
 11
8.47638
 21
-50.0756
  0
LINE
  8
0
 10
8.47638
 20
-50.0756
 11
8.40078
 21
-50.1117
  0
LINE
  8
0
 10
8.40078
 20
-50.1117
 11
8.32339
 21
-50.1437
  0
LINE
  8
0
 10
8.32339
 20
-50.1437
 11
8.24443
 21
-50.1717
  0
LINE
  8
0
 10
8.24443
 20
-50.1717
 11
8.16411
 21
-50.1955
  0
LINE
  8
0
 10
8.16411
 20
-50.1955
 11
8.08266
 21
-50.215
  0
LINE
  8
0
 10
8.08266
 20
-50.215
 11
8.00029
 21
-50.2303
  0
LINE
  8
0
 10
8.00029
 20
-50.2303
 11
7.91724
 21
-50.2412
  0
LINE
  8
0
 10
7.91724
 20
-50.2412
 11
7.83374
 21
-50.2478
  0
LINE
  8
0
 10
7.83374
 20
-50.2478
 11
7.75
 21
-50.25
  0
LINE
  8
0
 10
7.75
 20
-50.25
 11
7.66626
 21
-50.2478
  0
LINE
  8
0
 10
7.66626
 20
-50.2478
 11
7.58275
 21
-50.2412
  0
LINE
  8
0
 10
7.58275
 20
-50.2412
 11
7.4997
 21
-50.2303
  0
LINE
  8
0
 10
7.4997
 20
-50.2303
 11
7.41734
 21
-50.215
  0
LINE
  8
0
 10
7.41734
 20
-50.215
 11
7.33589
 21
-50.1955
  0
LINE
  8
0
 10
7.33589
 20
-50.1955
 11
7.25557
 21
-50.1717
  0
LINE
  8
0
 10
7.25557
 20
-50.1717
 11
7.17661
 21
-50.1437
  0
LINE
  8
0
 10
7.17661
 20
-50.1437
 11
7.09922
 21
-50.1117
  0
LINE
  8
0
 10
7.09922
 20
-50.1117
 11
7.02361
 21
-50.0756
  0
LINE
  8
0
 10
7.02361
 20
-50.0756
 11
6.95
 21
-50.0356
  0
LINE
  8
0
 10
6.95
 20
-50.0356
 11
6.87858
 21
-49.9919
  0
LINE
  8
0
 10
6.87858
 20
-49.9919
 11
6.80954
 21
-49.9444
  0
LINE
  8
0
 10
6.80954
 20
-49.9444
 11
6.74309
 21
-49.8934
  0
LINE
  8
0
 10
6.74309
 20
-49.8934
 11
6.67939
 21
-49.839
  0
LINE
  8
0
 10
6.67939
 20
-49.839
 11
6.61863
 21
-49.7814
  0
LINE
  8
0
 10
6.61863
 20
-49.7814
 11
6.56097
 21
-49.7206
  0
LINE
  8
0
 10
6.56097
 20
-49.7206
 11
6.50657
 21
-49.6569
  0
LINE
  8
0
 10
6.50657
 20
-49.6569
 11
6.45557
 21
-49.5905
  0
LINE
  8
0
 10
6.45557
 20
-49.5905
 11
6.40813
 21
-49.5214
  0
LINE
  8
0
 10
6.40813
 20
-49.5214
 11
6.36436
 21
-49.45
  0
LINE
  8
0
 10
6.36436
 20
-49.45
 11
6.32439
 21
-49.3764
  0
LINE
  8
0
 10
6.32439
 20
-49.3764
 11
6.28833
 21
-49.3008
  0
LINE
  8
0
 10
6.28833
 20
-49.3008
 11
6.25627
 21
-49.2234
  0
LINE
  8
0
 10
6.25627
 20
-49.2234
 11
6.22831
 21
-49.1444
  0
LINE
  8
0
 10
6.22831
 20
-49.1444
 11
6.20452
 21
-49.0641
  0
LINE
  8
0
 10
6.20452
 20
-49.0641
 11
6.18496
 21
-48.9827
  0
LINE
  8
0
 10
6.18496
 20
-48.9827
 11
6.1697
 21
-48.9003
  0
LINE
  8
0
 10
6.1697
 20
-48.9003
 11
6.15876
 21
-48.8172
  0
LINE
  8
0
 10
6.15876
 20
-48.8172
 11
6.15219
 21
-48.7337
  0
LINE
  8
0
 10
6.15219
 20
-48.7337
 11
6.15
 21
-48.65
  0
LINE
  8
0
 10
6.15
 20
-21.9
 11
6.15219
 21
-21.8163
  0
LINE
  8
0
 10
6.15219
 20
-21.8163
 11
6.15876
 21
-21.7328
  0
LINE
  8
0
 10
6.15876
 20
-21.7328
 11
6.1697
 21
-21.6497
  0
LINE
  8
0
 10
6.1697
 20
-21.6497
 11
6.18496
 21
-21.5673
  0
LINE
  8
0
 10
6.18496
 20
-21.5673
 11
6.20452
 21
-21.4859
  0
LINE
  8
0
 10
6.20452
 20
-21.4859
 11
6.22831
 21
-21.4056
  0
LINE
  8
0
 10
6.22831
 20
-21.4056
 11
6.25627
 21
-21.3266
  0
LINE
  8
0
 10
6.25627
 20
-21.3266
 11
6.28833
 21
-21.2492
  0
LINE
  8
0
 10
6.28833
 20
-21.2492
 11
6.32439
 21
-21.1736
  0
LINE
  8
0
 10
6.32439
 20
-21.1736
 11
6.36436
 21
-21.1
  0
LINE
  8
0
 10
6.36436
 20
-21.1
 11
6.40813
 21
-21.0286
  0
LINE
  8
0
 10
6.40813
 20
-21.0286
 11
6.45557
 21
-20.9595
  0
LINE
  8
0
 10
6.45557
 20
-20.9595
 11
6.50657
 21
-20.8931
  0
LINE
  8
0
 10
6.50657
 20
-20.8931
 11
6.56097
 21
-20.8294
  0
LINE
  8
0
 10
6.56097
 20
-20.8294
 11
6.61863
 21
-20.7686
  0
LINE
  8
0
 10
6.61863
 20
-20.7686
 11
6.67939
 21
-20.711
  0
LINE
  8
0
 10
6.67939
 20
-20.711
 11
6.74309
 21
-20.6566
  0
LINE
  8
0
 10
6.74309
 20
-20.6566
 11
6.80954
 21
-20.6056
  0
LINE
  8
0
 10
6.80954
 20
-20.6056
 11
6.87858
 21
-20.5581
  0
LINE
  8
0
 10
6.87858
 20
-20.5581
 11
6.95
 21
-20.5144
  0
LINE
  8
0
 10
6.95
 20
-20.5144
 11
7.02361
 21
-20.4744
  0
LINE
  8
0
 10
7.02361
 20
-20.4744
 11
7.09922
 21
-20.4383
  0
LINE
  8
0
 10
7.09922
 20
-20.4383
 11
7.17661
 21
-20.4063
  0
LINE
  8
0
 10
7.17661
 20
-20.4063
 11
7.25557
 21
-20.3783
  0
LINE
  8
0
 10
7.25557
 20
-20.3783
 11
7.33589
 21
-20.3545
  0
LINE
  8
0
 10
7.33589
 20
-20.3545
 11
7.41734
 21
-20.335
  0
LINE
  8
0
 10
7.41734
 20
-20.335
 11
7.4997
 21
-20.3197
  0
LINE
  8
0
 10
7.4997
 20
-20.3197
 11
7.58275
 21
-20.3088
  0
LINE
  8
0
 10
7.58275
 20
-20.3088
 11
7.66626
 21
-20.3022
  0
LINE
  8
0
 10
7.66626
 20
-20.3022
 11
7.75
 21
-20.3
  0
LINE
  8
0
 10
7.75
 20
-20.3
 11
7.83374
 21
-20.3022
  0
LINE
  8
0
 10
7.83374
 20
-20.3022
 11
7.91724
 21
-20.3088
  0
LINE
  8
0
 10
7.91724
 20
-20.3088
 11
8.00029
 21
-20.3197
  0
LINE
  8
0
 10
8.00029
 20
-20.3197
 11
8.08266
 21
-20.335
  0
LINE
  8
0
 10
8.08266
 20
-20.335
 11
8.16411
 21
-20.3545
  0
LINE
  8
0
 10
8.16411
 20
-20.3545
 11
8.24443
 21
-20.3783
  0
LINE
  8
0
 10
8.24443
 20
-20.3783
 11
8.32339
 21
-20.4063
  0
LINE
  8
0
 10
8.32339
 20
-20.4063
 11
8.40078
 21
-20.4383
  0
LINE
  8
0
 10
8.40078
 20
-20.4383
 11
8.47638
 21
-20.4744
  0
LINE
  8
0
 10
8.47638
 20
-20.4744
 11
8.55
 21
-20.5144
  0
LINE
  8
0
 10
8.55
 20
-20.5144
 11
8.62142
 21
-20.5581
  0
LINE
  8
0
 10
8.62142
 20
-20.5581
 11
8.69046
 21
-20.6056
  0
LINE
  8
0
 10
8.69046
 20
-20.6056
 11
8.75691
 21
-20.6566
  0
LINE
  8
0
 10
8.75691
 20
-20.6566
 11
8.82061
 21
-20.711
  0
LINE
  8
0
 10
8.82061
 20
-20.711
 11
8.88137
 21
-20.7686
  0
LINE
  8
0
 10
8.88137
 20
-20.7686
 11
8.93903
 21
-20.8294
  0
LINE
  8
0
 10
8.93903
 20
-20.8294
 11
8.99343
 21
-20.8931
  0
LINE
  8
0
 10
8.99343
 20
-20.8931
 11
9.04443
 21
-20.9595
  0
LINE
  8
0
 10
9.04443
 20
-20.9595
 11
9.09187
 21
-21.0286
  0
LINE
  8
0
 10
9.09187
 20
-21.0286
 11
9.13564
 21
-21.1
  0
LINE
  8
0
 10
9.13564
 20
-21.1
 11
9.17561
 21
-21.1736
  0
LINE
  8
0
 10
9.17561
 20
-21.1736
 11
9.21167
 21
-21.2492
  0
LINE
  8
0
 10
9.21167
 20
-21.2492
 11
9.24373
 21
-21.3266
  0
LINE
  8
0
 10
9.24373
 20
-21.3266
 11
9.27169
 21
-21.4056
  0
LINE
  8
0
 10
9.27169
 20
-21.4056
 11
9.29548
 21
-21.4859
  0
LINE
  8
0
 10
9.29548
 20
-21.4859
 11
9.31504
 21
-21.5673
  0
LINE
  8
0
 10
9.31504
 20
-21.5673
 11
9.3303
 21
-21.6497
  0
LINE
  8
0
 10
9.3303
 20
-21.6497
 11
9.34123
 21
-21.7328
  0
LINE
  8
0
 10
9.34123
 20
-21.7328
 11
9.34781
 21
-21.8163
  0
LINE
  8
0
 10
9.34781
 20
-21.8163
 11
9.35
 21
-21.9
  0
LINE
  8
0
 10
9.35
 20
-21.9
 11
9.34781
 21
-21.9837
  0
LINE
  8
0
 10
9.34781
 20
-21.9837
 11
9.34123
 21
-22.0672
  0
LINE
  8
0
 10
9.34123
 20
-22.0672
 11
9.3303
 21
-22.1503
  0
LINE
  8
0
 10
9.3303
 20
-22.1503
 11
9.31504
 21
-22.2327
  0
LINE
  8
0
 10
9.31504
 20
-22.2327
 11
9.29548
 21
-22.3141
  0
LINE
  8
0
 10
9.29548
 20
-22.3141
 11
9.27169
 21
-22.3944
  0
LINE
  8
0
 10
9.27169
 20
-22.3944
 11
9.24373
 21
-22.4734
  0
LINE
  8
0
 10
9.24373
 20
-22.4734
 11
9.21167
 21
-22.5508
  0
LINE
  8
0
 10
9.21167
 20
-22.5508
 11
9.17561
 21
-22.6264
  0
LINE
  8
0
 10
9.17561
 20
-22.6264
 11
9.13564
 21
-22.7
  0
LINE
  8
0
 10
9.13564
 20
-22.7
 11
9.09187
 21
-22.7714
  0
LINE
  8
0
 10
9.09187
 20
-22.7714
 11
9.04443
 21
-22.8405
  0
LINE
  8
0
 10
9.04443
 20
-22.8405
 11
8.99343
 21
-22.9069
  0
LINE
  8
0
 10
8.99343
 20
-22.9069
 11
8.93903
 21
-22.9706
  0
LINE
  8
0
 10
8.93903
 20
-22.9706
 11
8.88137
 21
-23.0314
  0
LINE
  8
0
 10
8.88137
 20
-23.0314
 11
8.82061
 21
-23.089
  0
LINE
  8
0
 10
8.82061
 20
-23.089
 11
8.75691
 21
-23.1434
  0
LINE
  8
0
 10
8.75691
 20
-23.1434
 11
8.69046
 21
-23.1944
  0
LINE
  8
0
 10
8.69046
 20
-23.1944
 11
8.62142
 21
-23.2419
  0
LINE
  8
0
 10
8.62142
 20
-23.2419
 11
8.55
 21
-23.2856
  0
LINE
  8
0
 10
8.55
 20
-23.2856
 11
8.47638
 21
-23.3256
  0
LINE
  8
0
 10
8.47638
 20
-23.3256
 11
8.40078
 21
-23.3617
  0
LINE
  8
0
 10
8.40078
 20
-23.3617
 11
8.32339
 21
-23.3937
  0
LINE
  8
0
 10
8.32339
 20
-23.3937
 11
8.24443
 21
-23.4217
  0
LINE
  8
0
 10
8.24443
 20
-23.4217
 11
8.16411
 21
-23.4455
  0
LINE
  8
0
 10
8.16411
 20
-23.4455
 11
8.08266
 21
-23.465
  0
LINE
  8
0
 10
8.08266
 20
-23.465
 11
8.00029
 21
-23.4803
  0
LINE
  8
0
 10
8.00029
 20
-23.4803
 11
7.91724
 21
-23.4912
  0
LINE
  8
0
 10
7.91724
 20
-23.4912
 11
7.83374
 21
-23.4978
  0
LINE
  8
0
 10
7.83374
 20
-23.4978
 11
7.75
 21
-23.5
  0
LINE
  8
0
 10
7.75
 20
-23.5
 11
7.66626
 21
-23.4978
  0
LINE
  8
0
 10
7.66626
 20
-23.4978
 11
7.58275
 21
-23.4912
  0
LINE
  8
0
 10
7.58275
 20
-23.4912
 11
7.4997
 21
-23.4803
  0
LINE
  8
0
 10
7.4997
 20
-23.4803
 11
7.41734
 21
-23.465
  0
LINE
  8
0
 10
7.41734
 20
-23.465
 11
7.33589
 21
-23.4455
  0
LINE
  8
0
 10
7.33589
 20
-23.4455
 11
7.25557
 21
-23.4217
  0
LINE
  8
0
 10
7.25557
 20
-23.4217
 11
7.17661
 21
-23.3937
  0
LINE
  8
0
 10
7.17661
 20
-23.3937
 11
7.09922
 21
-23.3617
  0
LINE
  8
0
 10
7.09922
 20
-23.3617
 11
7.02361
 21
-23.3256
  0
LINE
  8
0
 10
7.02361
 20
-23.3256
 11
6.95
 21
-23.2856
  0
LINE
  8
0
 10
6.95
 20
-23.2856
 11
6.87858
 21
-23.2419
  0
LINE
  8
0
 10
6.87858
 20
-23.2419
 11
6.80954
 21
-23.1944
  0
LINE
  8
0
 10
6.80954
 20
-23.1944
 11
6.74309
 21
-23.1434
  0
LINE
  8
0
 10
6.74309
 20
-23.1434
 11
6.67939
 21
-23.089
  0
LINE
  8
0
 10
6.67939
 20
-23.089
 11
6.61863
 21
-23.0314
  0
LINE
  8
0
 10
6.61863
 20
-23.0314
 11
6.56097
 21
-22.9706
  0
LINE
  8
0
 10
6.56097
 20
-22.9706
 11
6.50657
 21
-22.9069
  0
LINE
  8
0
 10
6.50657
 20
-22.9069
 11
6.45557
 21
-22.8405
  0
LINE
  8
0
 10
6.45557
 20
-22.8405
 11
6.40813
 21
-22.7714
  0
LINE
  8
0
 10
6.40813
 20
-22.7714
 11
6.36436
 21
-22.7
  0
LINE
  8
0
 10
6.36436
 20
-22.7
 11
6.32439
 21
-22.6264
  0
LINE
  8
0
 10
6.32439
 20
-22.6264
 11
6.28833
 21
-22.5508
  0
LINE
  8
0
 10
6.28833
 20
-22.5508
 11
6.25627
 21
-22.4734
  0
LINE
  8
0
 10
6.25627
 20
-22.4734
 11
6.22831
 21
-22.3944
  0
LINE
  8
0
 10
6.22831
 20
-22.3944
 11
6.20452
 21
-22.3141
  0
LINE
  8
0
 10
6.20452
 20
-22.3141
 11
6.18496
 21
-22.2327
  0
LINE
  8
0
 10
6.18496
 20
-22.2327
 11
6.1697
 21
-22.1503
  0
LINE
  8
0
 10
6.1697
 20
-22.1503
 11
6.15876
 21
-22.0672
  0
LINE
  8
0
 10
6.15876
 20
-22.0672
 11
6.15219
 21
-21.9837
  0
LINE
  8
0
 10
6.15219
 20
-21.9837
 11
6.15
 21
-21.9
  0
ENDSEC
  0
SECTION
  2
OBJECTS
  0
DICTIONARY
  0
ENDSEC
  0
EOF
