<?xml version="1.0" standalone="no"?>
<!DOCTYPE svg PUBLIC "-//W3C//DTD SVG 1.1//EN" "http://www.w3.org/Graphics/SVG/1.1/DTD/svg11.dtd">
<svg width="18" height="16" viewBox="-9 -8 18 16" xmlns="http://www.w3.org/2000/svg" version="1.1">
<title>OpenSCAD Model</title>
<path d="
M -8.38,7.16875 L -7.83338,7.16875 L -7.61136,6.94673 L -6.68606,6.19743 L -5.6875,5.54896 L -4.62663,5.00842
 L -3.51507,4.58173 L -2.365,4.27357 L -1.18901,4.08731 L 0,4.025 L 1.18901,4.08731 L 2.365,4.27357
 L 3.51507,4.58173 L 4.62663,5.00842 L 5.6875,5.54896 L 6.68606,6.19743 L 7.61136,6.94673 L 7.83338,7.16875
 L 8.38,7.16875 L 8.38,-7.16875 L 7.83338,-7.16875 L 7.61136,-6.94673 L 6.68606,-6.19743 L 5.6875,-5.54896
 L 4.62663,-5.00842 L 3.51507,-4.58173 L 2.365,-4.27357 L 1.18901,-4.08731 L 0,-4.025 L -1.18901,-4.08731
 L -2.365,-4.27357 L -3.51507,-4.58173 L -4.62663,-5.00842 L -5.6875,-5.54896 L -6.68606,-6.19743 L -7.61136,-6.94673
 L -7.83338,-7.16875 L -8.38,-7.16875 z
M -3.15,0.783865 L -3.15,-0.783865 L -3.09093,-1.0043 L -2.96902,-1.32189 L -2.81458,-1.625 L -2.6293,-1.9103
 L -2.41522,-2.17467 L -2.17467,-2.41522 L -1.9103,-2.6293 L -1.625,-2.81458 L -1.32189,-2.96902 L -1.0043,-3.09093
 L -0.675713,-3.17898 L -0.339717,-3.2322 L 0,-3.25 L 0.339717,-3.2322 L 0.675713,-3.17898 L 1.0043,-3.09093
 L 1.32189,-2.96902 L 1.625,-2.81458 L 1.9103,-2.6293 L 2.17467,-2.41522 L 2.41522,-2.17467 L 2.6293,-1.9103
 L 2.81458,-1.625 L 2.96902,-1.32189 L 3.09093,-1.0043 L 3.15,-0.783865 L 3.15,0.783865 L 3.09093,1.0043
 L 2.96902,1.32189 L 2.81458,1.625 L 2.6293,1.9103 L 2.41522,2.17467 L 2.17467,2.41522 L 1.91562,2.625
 L -1.91562,2.625 L -2.17467,2.41522 L -2.41522,2.17467 L -2.6293,1.9103 L -2.81458,1.625 L -2.96902,1.32189
 L -3.09093,1.0043 z
" stroke="black" fill="lightgray" stroke-width="0.5"/></svg>
