  0
SECTION
  2
BLOCKS
  0
ENDSEC
  0
SECTION
  2
ENTITIES
  0
LINE
  8
0
 10
-39.25
 20
0
 11
-39.1962
 21
-2.05419
  0
LINE
  8
0
 10
-39.1962
 20
-2.05419
 11
-39.035
 21
-4.10274
  0
LINE
  8
0
 10
-39.035
 20
-4.10274
 11
-38.7668
 21
-6.14005
  0
LINE
  8
0
 10
-38.7668
 20
-6.14005
 11
-38.3923
 21
-8.16053
  0
LINE
  8
0
 10
-38.3923
 20
-8.16053
 11
-37.9126
 21
-10.1586
  0
LINE
  8
0
 10
-37.9126
 20
-10.1586
 11
-37.329
 21
-12.1289
  0
LINE
  8
0
 10
-37.329
 20
-12.1289
 11
-36.643
 21
-14.0659
  0
LINE
  8
0
 10
-36.643
 20
-14.0659
 11
-35.8567
 21
-15.9644
  0
LINE
  8
0
 10
-35.8567
 20
-15.9644
 11
-34.972
 21
-17.8191
  0
LINE
  8
0
 10
-34.972
 20
-17.8191
 11
-33.9915
 21
-19.625
  0
LINE
  8
0
 10
-33.9915
 20
-19.625
 11
-32.9178
 21
-21.3771
  0
LINE
  8
0
 10
-32.9178
 20
-21.3771
 11
-31.7539
 21
-23.0706
  0
LINE
  8
0
 10
-31.7539
 20
-23.0706
 11
-30.503
 21
-24.7008
  0
LINE
  8
0
 10
-30.503
 20
-24.7008
 11
-29.1684
 21
-26.2634
  0
LINE
  8
0
 10
-29.1684
 20
-26.2634
 11
-27.7539
 21
-27.7539
  0
LINE
  8
0
 10
-27.7539
 20
-27.7539
 11
-26.2634
 21
-29.1684
  0
LINE
  8
0
 10
-26.2634
 20
-29.1684
 11
-24.7008
 21
-30.503
  0
LINE
  8
0
 10
-24.7008
 20
-30.503
 11
-23.0706
 21
-31.7539
  0
LINE
  8
0
 10
-23.0706
 20
-31.7539
 11
-21.3771
 21
-32.9178
  0
LINE
  8
0
 10
-21.3771
 20
-32.9178
 11
-19.625
 21
-33.9915
  0
LINE
  8
0
 10
-19.625
 20
-33.9915
 11
-17.8191
 21
-34.972
  0
LINE
  8
0
 10
-17.8191
 20
-34.972
 11
-15.9644
 21
-35.8567
  0
LINE
  8
0
 10
-15.9644
 20
-35.8567
 11
-14.0659
 21
-36.643
  0
LINE
  8
0
 10
-14.0659
 20
-36.643
 11
-12.1289
 21
-37.329
  0
LINE
  8
0
 10
-12.1289
 20
-37.329
 11
-10.1586
 21
-37.9126
  0
LINE
  8
0
 10
-10.1586
 20
-37.9126
 11
-8.16053
 21
-38.3923
  0
LINE
  8
0
 10
-8.16053
 20
-38.3923
 11
-6.14005
 21
-38.7668
  0
LINE
  8
0
 10
-6.14005
 20
-38.7668
 11
-4.10274
 21
-39.035
  0
LINE
  8
0
 10
-4.10274
 20
-39.035
 11
-2.05419
 21
-39.1962
  0
LINE
  8
0
 10
-2.05419
 20
-39.1962
 11
0
 21
-39.25
  0
LINE
  8
0
 10
0
 20
-39.25
 11
2.05419
 21
-39.1962
  0
LINE
  8
0
 10
2.05419
 20
-39.1962
 11
4.10274
 21
-39.035
  0
LINE
  8
0
 10
4.10274
 20
-39.035
 11
6.14005
 21
-38.7668
  0
LINE
  8
0
 10
6.14005
 20
-38.7668
 11
8.16053
 21
-38.3923
  0
LINE
  8
0
 10
8.16053
 20
-38.3923
 11
10.1586
 21
-37.9126
  0
LINE
  8
0
 10
10.1586
 20
-37.9126
 11
12.1289
 21
-37.329
  0
LINE
  8
0
 10
12.1289
 20
-37.329
 11
14.0659
 21
-36.643
  0
LINE
  8
0
 10
14.0659
 20
-36.643
 11
15.9644
 21
-35.8567
  0
LINE
  8
0
 10
15.9644
 20
-35.8567
 11
17.8191
 21
-34.972
  0
LINE
  8
0
 10
17.8191
 20
-34.972
 11
19.625
 21
-33.9915
  0
LINE
  8
0
 10
19.625
 20
-33.9915
 11
21.3771
 21
-32.9178
  0
LINE
  8
0
 10
21.3771
 20
-32.9178
 11
23.0706
 21
-31.7539
  0
LINE
  8
0
 10
23.0706
 20
-31.7539
 11
24.7008
 21
-30.503
  0
LINE
  8
0
 10
24.7008
 20
-30.503
 11
26.2634
 21
-29.1684
  0
LINE
  8
0
 10
26.2634
 20
-29.1684
 11
27.7539
 21
-27.7539
  0
LINE
  8
0
 10
27.7539
 20
-27.7539
 11
29.1684
 21
-26.2634
  0
LINE
  8
0
 10
29.1684
 20
-26.2634
 11
30.503
 21
-24.7008
  0
LINE
  8
0
 10
30.503
 20
-24.7008
 11
31.7539
 21
-23.0706
  0
LINE
  8
0
 10
31.7539
 20
-23.0706
 11
32.9178
 21
-21.3771
  0
LINE
  8
0
 10
32.9178
 20
-21.3771
 11
33.9915
 21
-19.625
  0
LINE
  8
0
 10
33.9915
 20
-19.625
 11
34.972
 21
-17.8191
  0
LINE
  8
0
 10
34.972
 20
-17.8191
 11
35.8567
 21
-15.9644
  0
LINE
  8
0
 10
35.8567
 20
-15.9644
 11
36.643
 21
-14.0659
  0
LINE
  8
0
 10
36.643
 20
-14.0659
 11
37.329
 21
-12.1289
  0
LINE
  8
0
 10
37.329
 20
-12.1289
 11
37.9126
 21
-10.1586
  0
LINE
  8
0
 10
37.9126
 20
-10.1586
 11
38.3923
 21
-8.16053
  0
LINE
  8
0
 10
38.3923
 20
-8.16053
 11
38.7668
 21
-6.14005
  0
LINE
  8
0
 10
38.7668
 20
-6.14005
 11
39.035
 21
-4.10274
  0
LINE
  8
0
 10
39.035
 20
-4.10274
 11
39.1962
 21
-2.05419
  0
LINE
  8
0
 10
39.1962
 20
-2.05419
 11
39.25
 21
0
  0
LINE
  8
0
 10
39.25
 20
0
 11
39.1962
 21
2.05419
  0
LINE
  8
0
 10
39.1962
 20
2.05419
 11
39.035
 21
4.10274
  0
LINE
  8
0
 10
39.035
 20
4.10274
 11
38.7668
 21
6.14005
  0
LINE
  8
0
 10
38.7668
 20
6.14005
 11
38.3923
 21
8.16053
  0
LINE
  8
0
 10
38.3923
 20
8.16053
 11
37.9126
 21
10.1586
  0
LINE
  8
0
 10
37.9126
 20
10.1586
 11
37.329
 21
12.1289
  0
LINE
  8
0
 10
37.329
 20
12.1289
 11
36.643
 21
14.0659
  0
LINE
  8
0
 10
36.643
 20
14.0659
 11
35.8567
 21
15.9644
  0
LINE
  8
0
 10
35.8567
 20
15.9644
 11
34.972
 21
17.8191
  0
LINE
  8
0
 10
34.972
 20
17.8191
 11
33.9915
 21
19.625
  0
LINE
  8
0
 10
33.9915
 20
19.625
 11
32.9178
 21
21.3771
  0
LINE
  8
0
 10
32.9178
 20
21.3771
 11
31.7539
 21
23.0706
  0
LINE
  8
0
 10
31.7539
 20
23.0706
 11
30.503
 21
24.7008
  0
LINE
  8
0
 10
30.503
 20
24.7008
 11
29.1684
 21
26.2634
  0
LINE
  8
0
 10
29.1684
 20
26.2634
 11
27.7539
 21
27.7539
  0
LINE
  8
0
 10
27.7539
 20
27.7539
 11
26.2634
 21
29.1684
  0
LINE
  8
0
 10
26.2634
 20
29.1684
 11
24.7008
 21
30.503
  0
LINE
  8
0
 10
24.7008
 20
30.503
 11
23.0706
 21
31.7539
  0
LINE
  8
0
 10
23.0706
 20
31.7539
 11
21.3771
 21
32.9178
  0
LINE
  8
0
 10
21.3771
 20
32.9178
 11
19.625
 21
33.9915
  0
LINE
  8
0
 10
19.625
 20
33.9915
 11
17.8191
 21
34.972
  0
LINE
  8
0
 10
17.8191
 20
34.972
 11
15.9644
 21
35.8567
  0
LINE
  8
0
 10
15.9644
 20
35.8567
 11
14.0659
 21
36.643
  0
LINE
  8
0
 10
14.0659
 20
36.643
 11
12.1289
 21
37.329
  0
LINE
  8
0
 10
12.1289
 20
37.329
 11
10.1586
 21
37.9126
  0
LINE
  8
0
 10
10.1586
 20
37.9126
 11
8.16053
 21
38.3923
  0
LINE
  8
0
 10
8.16053
 20
38.3923
 11
6.14005
 21
38.7668
  0
LINE
  8
0
 10
6.14005
 20
38.7668
 11
4.10274
 21
39.035
  0
LINE
  8
0
 10
4.10274
 20
39.035
 11
2.05419
 21
39.1962
  0
LINE
  8
0
 10
2.05419
 20
39.1962
 11
0
 21
39.25
  0
LINE
  8
0
 10
0
 20
39.25
 11
-2.05419
 21
39.1962
  0
LINE
  8
0
 10
-2.05419
 20
39.1962
 11
-4.10274
 21
39.035
  0
LINE
  8
0
 10
-4.10274
 20
39.035
 11
-6.14005
 21
38.7668
  0
LINE
  8
0
 10
-6.14005
 20
38.7668
 11
-8.16053
 21
38.3923
  0
LINE
  8
0
 10
-8.16053
 20
38.3923
 11
-10.1586
 21
37.9126
  0
LINE
  8
0
 10
-10.1586
 20
37.9126
 11
-12.1289
 21
37.329
  0
LINE
  8
0
 10
-12.1289
 20
37.329
 11
-14.0659
 21
36.643
  0
LINE
  8
0
 10
-14.0659
 20
36.643
 11
-15.9644
 21
35.8567
  0
LINE
  8
0
 10
-15.9644
 20
35.8567
 11
-17.8191
 21
34.972
  0
LINE
  8
0
 10
-17.8191
 20
34.972
 11
-19.625
 21
33.9915
  0
LINE
  8
0
 10
-19.625
 20
33.9915
 11
-21.3771
 21
32.9178
  0
LINE
  8
0
 10
-21.3771
 20
32.9178
 11
-23.0706
 21
31.7539
  0
LINE
  8
0
 10
-23.0706
 20
31.7539
 11
-24.7008
 21
30.503
  0
LINE
  8
0
 10
-24.7008
 20
30.503
 11
-26.2634
 21
29.1684
  0
LINE
  8
0
 10
-26.2634
 20
29.1684
 11
-27.7539
 21
27.7539
  0
LINE
  8
0
 10
-27.7539
 20
27.7539
 11
-29.1684
 21
26.2634
  0
LINE
  8
0
 10
-29.1684
 20
26.2634
 11
-30.503
 21
24.7008
  0
LINE
  8
0
 10
-30.503
 20
24.7008
 11
-31.7539
 21
23.0706
  0
LINE
  8
0
 10
-31.7539
 20
23.0706
 11
-32.9178
 21
21.3771
  0
LINE
  8
0
 10
-32.9178
 20
21.3771
 11
-33.9915
 21
19.625
  0
LINE
  8
0
 10
-33.9915
 20
19.625
 11
-34.972
 21
17.8191
  0
LINE
  8
0
 10
-34.972
 20
17.8191
 11
-35.8567
 21
15.9644
  0
LINE
  8
0
 10
-35.8567
 20
15.9644
 11
-36.643
 21
14.0659
  0
LINE
  8
0
 10
-36.643
 20
14.0659
 11
-37.329
 21
12.1289
  0
LINE
  8
0
 10
-37.329
 20
12.1289
 11
-37.9126
 21
10.1586
  0
LINE
  8
0
 10
-37.9126
 20
10.1586
 11
-38.3923
 21
8.16053
  0
LINE
  8
0
 10
-38.3923
 20
8.16053
 11
-38.7668
 21
6.14005
  0
LINE
  8
0
 10
-38.7668
 20
6.14005
 11
-39.035
 21
4.10274
  0
LINE
  8
0
 10
-39.035
 20
4.10274
 11
-39.1962
 21
2.05419
  0
LINE
  8
0
 10
-39.1962
 20
2.05419
 11
-39.25
 21
0
  0
LINE
  8
0
 10
-38.4363
 20
-0.963463
 11
-38.3892
 21
-0.214943
  0
LINE
  8
0
 10
-38.3892
 20
-0.214943
 11
-35.3952
 21
-0.403315
  0
LINE
  8
0
 10
-35.3952
 20
-0.403315
 11
-35.4423
 21
-1.15183
  0
LINE
  8
0
 10
-35.4423
 20
-1.15183
 11
-38.4363
 21
-0.963463
  0
LINE
  8
0
 10
-38.421
 20
1.45188
 11
-38.327
 21
2.19596
  0
LINE
  8
0
 10
-38.327
 20
2.19596
 11
-35.3506
 21
1.81996
  0
LINE
  8
0
 10
-35.3506
 20
1.81996
 11
-35.4446
 21
1.07588
  0
LINE
  8
0
 10
-35.4446
 20
1.07588
 11
-38.421
 21
1.45188
  0
LINE
  8
0
 10
-38.3
 20
-3.375
 11
-38.3
 21
-2.625
  0
LINE
  8
0
 10
-38.3
 20
-2.625
 11
-35.3
 21
-2.625
  0
LINE
  8
0
 10
-35.3
 20
-2.625
 11
-35.3
 21
-3.375
  0
LINE
  8
0
 10
-35.3
 20
-3.375
 11
-38.3
 21
-3.375
  0
LINE
  8
0
 10
-38.254
 20
3.86148
 11
-38.1135
 21
4.5982
  0
LINE
  8
0
 10
-38.1135
 20
4.5982
 11
-35.1666
 21
4.03606
  0
LINE
  8
0
 10
-35.1666
 20
4.03606
 11
-35.2927
 21
3.375
  0
LINE
  8
0
 10
-35.2927
 20
3.375
 11
-32.3
 21
3.375
  0
LINE
  8
0
 10
-32.3
 20
3.375
 11
-32.3
 21
2.625
  0
LINE
  8
0
 10
-32.3
 20
2.625
 11
-35.3
 21
2.625
  0
LINE
  8
0
 10
-35.3
 20
2.625
 11
-35.3
 21
3.33684
  0
LINE
  8
0
 10
-35.3
 20
3.33684
 11
-35.3072
 21
3.29934
  0
LINE
  8
0
 10
-35.3072
 20
3.29934
 11
-38.254
 21
3.86148
  0
LINE
  8
0
 10
-38.0596
 20
-5.0247
 11
-35.0655
 21
-4.83632
  0
LINE
  8
0
 10
-35.0655
 20
-4.83632
 11
-35.0184
 21
-5.58485
  0
LINE
  8
0
 10
-35.0184
 20
-5.58485
 11
-38.0125
 21
-5.77322
  0
LINE
  8
0
 10
-38.0125
 20
-5.77322
 11
-38.0596
 21
-5.0247
  0
LINE
  8
0
 10
-37.9361
 20
6.25585
 11
-37.7495
 21
6.98229
  0
LINE
  8
0
 10
-37.7495
 20
6.98229
 11
-34.8438
 21
6.23622
  0
LINE
  8
0
 10
-34.8438
 20
6.23622
 11
-35.0303
 21
5.50978
  0
LINE
  8
0
 10
-35.0303
 20
5.50978
 11
-37.9361
 21
6.25585
  0
LINE
  8
0
 10
-37.669
 20
-7.40456
 11
-34.6926
 21
-7.02856
  0
LINE
  8
0
 10
-34.6926
 20
-7.02856
 11
-34.5986
 21
-7.77265
  0
LINE
  8
0
 10
-34.5986
 20
-7.77265
 11
-37.575
 21
-8.14865
  0
LINE
  8
0
 10
-37.575
 20
-8.14865
 11
-37.669
 21
-7.40456
  0
LINE
  8
0
 10
-37.4684
 20
8.62554
 11
-37.2366
 21
9.33883
  0
LINE
  8
0
 10
-37.2366
 20
9.33883
 11
-34.3835
 21
8.41178
  0
LINE
  8
0
 10
-34.3835
 20
8.41178
 11
-34.6152
 21
7.69848
  0
LINE
  8
0
 10
-34.6152
 20
7.69848
 11
-37.4684
 21
8.62554
  0
LINE
  8
0
 10
-37.1297
 20
-9.75521
 11
-34.1829
 21
-9.19306
  0
LINE
  8
0
 10
-34.1829
 20
-9.19306
 11
-34.0423
 21
-9.92978
  0
LINE
  8
0
 10
-34.0423
 20
-9.92978
 11
-36.9892
 21
-10.4919
  0
LINE
  8
0
 10
-36.9892
 20
-10.4919
 11
-37.1297
 21
-9.75521
  0
LINE
  8
0
 10
-36.8529
 20
10.9612
 11
-36.5768
 21
11.6585
  0
LINE
  8
0
 10
-36.5768
 20
11.6585
 11
-33.7874
 21
10.5541
  0
LINE
  8
0
 10
-33.7874
 20
10.5541
 11
-34.0635
 21
9.8568
  0
LINE
  8
0
 10
-34.0635
 20
9.8568
 11
-36.8529
 21
10.9612
  0
LINE
  8
0
 10
-36.4439
 20
-12.0674
 11
-33.5382
 21
-11.3213
  0
LINE
  8
0
 10
-33.5382
 20
-11.3213
 11
-33.3517
 21
-12.0477
  0
LINE
  8
0
 10
-33.3517
 20
-12.0477
 11
-36.2574
 21
-12.7938
  0
LINE
  8
0
 10
-36.2574
 20
-12.7938
 11
-36.4439
 21
-12.0674
  0
LINE
  8
0
 10
-36.0919
 20
13.2536
 11
-35.7725
 21
13.9322
  0
LINE
  8
0
 10
-35.7725
 20
13.9322
 11
-33.0581
 21
12.6548
  0
LINE
  8
0
 10
-33.0581
 20
12.6548
 11
-33.3774
 21
11.9762
  0
LINE
  8
0
 10
-33.3774
 20
11.9762
 11
-36.0919
 21
13.2536
  0
LINE
  8
0
 10
-35.6143
 20
-14.3319
 11
-32.7611
 21
-13.4048
  0
LINE
  8
0
 10
-32.7611
 20
-13.4048
 11
-32.5294
 21
-14.1181
  0
LINE
  8
0
 10
-32.5294
 20
-14.1181
 11
-35.3825
 21
-15.0452
  0
LINE
  8
0
 10
-35.3825
 20
-15.0452
 11
-35.6143
 21
-14.3319
  0
LINE
  8
0
 10
-35.1885
 20
15.4936
 11
-34.8271
 21
16.1509
  0
LINE
  8
0
 10
-34.8271
 20
16.1509
 11
-32.1982
 21
14.7056
  0
LINE
  8
0
 10
-32.1982
 20
14.7056
 11
-32.5595
 21
14.0484
  0
LINE
  8
0
 10
-32.5595
 20
14.0484
 11
-35.1885
 21
15.4936
  0
LINE
  8
0
 10
-34.6441
 20
-16.5398
 11
-31.8548
 21
-15.4355
  0
LINE
  8
0
 10
-31.8548
 20
-15.4355
 11
-31.5787
 21
-16.1328
  0
LINE
  8
0
 10
-31.5787
 20
-16.1328
 11
-34.368
 21
-17.2372
  0
LINE
  8
0
 10
-34.368
 20
-17.2372
 11
-34.6441
 21
-16.5398
  0
LINE
  8
0
 10
-34.1462
 20
17.6726
 11
-33.7443
 21
18.3058
  0
LINE
  8
0
 10
-33.7443
 20
18.3058
 11
-31.2113
 21
16.6983
  0
LINE
  8
0
 10
-31.2113
 20
16.6983
 11
-31.6132
 21
16.0651
  0
LINE
  8
0
 10
-31.6132
 20
16.0651
 11
-34.1462
 21
17.6726
  0
LINE
  8
0
 10
-33.5372
 20
-18.6825
 11
-30.8227
 21
-17.4052
  0
LINE
  8
0
 10
-30.8227
 20
-17.4052
 11
-30.5034
 21
-18.0838
  0
LINE
  8
0
 10
-30.5034
 20
-18.0838
 11
-33.2179
 21
-19.3611
  0
LINE
  8
0
 10
-33.2179
 20
-19.3611
 11
-33.5372
 21
-18.6825
  0
LINE
  8
0
 10
-32.9691
 20
19.7817
 11
-32.5283
 21
20.3885
  0
LINE
  8
0
 10
-32.5283
 20
20.3885
 11
-30.1012
 21
18.6251
  0
LINE
  8
0
 10
-30.1012
 20
18.6251
 11
-30.5421
 21
18.0184
  0
LINE
  8
0
 10
-30.5421
 20
18.0184
 11
-32.9691
 21
19.7817
  0
LINE
  8
0
 10
-32.2979
 20
-20.7515
 11
-29.669
 21
-19.3062
  0
LINE
  8
0
 10
-29.669
 20
-19.3062
 11
-29.3077
 21
-19.9634
  0
LINE
  8
0
 10
-29.3077
 20
-19.9634
 11
-31.9366
 21
-21.4087
  0
LINE
  8
0
 10
-31.9366
 20
-21.4087
 11
-32.2979
 21
-20.7515
  0
LINE
  8
0
 10
-31.662
 20
21.8129
 11
-31.1839
 21
22.3907
  0
LINE
  8
0
 10
-31.1839
 20
22.3907
 11
-28.8724
 21
20.4785
  0
LINE
  8
0
 10
-28.8724
 20
20.4785
 11
-29.3504
 21
19.9006
  0
LINE
  8
0
 10
-29.3504
 20
19.9006
 11
-31.662
 21
21.8129
  0
LINE
  8
0
 10
-30.9312
 20
-22.7385
 11
-28.3982
 21
-21.131
  0
LINE
  8
0
 10
-28.3982
 20
-21.131
 11
-27.9964
 21
-21.7643
  0
LINE
  8
0
 10
-27.9964
 20
-21.7643
 11
-30.5293
 21
-23.3718
  0
LINE
  8
0
 10
-30.5293
 20
-23.3718
 11
-30.9312
 21
-22.7385
  0
LINE
  8
0
 10
-30.2298
 20
23.7579
 11
-29.7164
 21
24.3046
  0
LINE
  8
0
 10
-29.7164
 20
24.3046
 11
-27.5295
 21
22.251
  0
LINE
  8
0
 10
-27.5295
 20
22.251
 11
-28.0429
 21
21.7042
  0
LINE
  8
0
 10
-28.0429
 20
21.7042
 11
-30.2298
 21
23.7579
  0
LINE
  8
0
 10
-29.4424
 20
-24.6358
 11
-27.0154
 21
-22.8725
  0
LINE
  8
0
 10
-27.0154
 20
-22.8725
 11
-26.5745
 21
-23.4793
  0
LINE
  8
0
 10
-26.5745
 20
-23.4793
 11
-29.0016
 21
-25.2426
  0
LINE
  8
0
 10
-29.0016
 20
-25.2426
 11
-29.4424
 21
-24.6358
  0
LINE
  8
0
 10
-28.6784
 20
25.6092
 11
-28.1317
 21
26.1226
  0
LINE
  8
0
 10
-28.1317
 20
26.1226
 11
-26.0781
 21
23.9357
  0
LINE
  8
0
 10
-26.0781
 20
23.9357
 11
-26.6248
 21
23.4222
  0
LINE
  8
0
 10
-26.6248
 20
23.4222
 11
-28.6784
 21
25.6092
  0
LINE
  8
0
 10
-27.8374
 20
-26.4359
 11
-25.5259
 21
-24.5237
  0
LINE
  8
0
 10
-25.5259
 20
-24.5237
 11
-25.0478
 21
-25.1015
  0
LINE
  8
0
 10
-25.0478
 20
-25.1015
 11
-27.3594
 21
-27.0138
  0
LINE
  8
0
 10
-27.3594
 20
-27.0138
 11
-27.8374
 21
-26.4359
  0
LINE
  8
0
 10
-27.0138
 20
27.3594
 11
-26.4359
 21
27.8374
  0
LINE
  8
0
 10
-26.4359
 20
27.8374
 11
-24.5237
 21
25.5259
  0
LINE
  8
0
 10
-24.5237
 20
25.5259
 11
-25.1015
 21
25.0478
  0
LINE
  8
0
 10
-25.1015
 20
25.0478
 11
-27.0138
 21
27.3594
  0
LINE
  8
0
 10
-26.1226
 20
-28.1317
 11
-23.9357
 21
-26.0781
  0
LINE
  8
0
 10
-23.9357
 20
-26.0781
 11
-23.4222
 21
-26.6248
  0
LINE
  8
0
 10
-23.4222
 20
-26.6248
 11
-25.6092
 21
-28.6784
  0
LINE
  8
0
 10
-25.6092
 20
-28.6784
 11
-26.1226
 21
-28.1317
  0
LINE
  8
0
 10
-25.2426
 20
29.0016
 11
-24.6358
 21
29.4424
  0
LINE
  8
0
 10
-24.6358
 20
29.4424
 11
-22.8725
 21
27.0154
  0
LINE
  8
0
 10
-22.8725
 20
27.0154
 11
-23.4793
 21
26.5745
  0
LINE
  8
0
 10
-23.4793
 20
26.5745
 11
-25.2426
 21
29.0016
  0
LINE
  8
0
 10
-24.3046
 20
-29.7164
 11
-22.251
 21
-27.5295
  0
LINE
  8
0
 10
-22.251
 20
-27.5295
 11
-21.7042
 21
-28.0429
  0
LINE
  8
0
 10
-21.7042
 20
-28.0429
 11
-23.7579
 21
-30.2298
  0
LINE
  8
0
 10
-23.7579
 20
-30.2298
 11
-24.3046
 21
-29.7164
  0
LINE
  8
0
 10
-23.3718
 20
30.5293
 11
-22.7385
 21
30.9312
  0
LINE
  8
0
 10
-22.7385
 20
30.9312
 11
-21.131
 21
28.3982
  0
LINE
  8
0
 10
-21.131
 20
28.3982
 11
-21.7643
 21
27.9964
  0
LINE
  8
0
 10
-21.7643
 20
27.9964
 11
-23.3718
 21
30.5293
  0
LINE
  8
0
 10
-22.3907
 20
-31.1839
 11
-20.4785
 21
-28.8724
  0
LINE
  8
0
 10
-20.4785
 20
-28.8724
 11
-19.9006
 21
-29.3504
  0
LINE
  8
0
 10
-19.9006
 20
-29.3504
 11
-21.8129
 21
-31.662
  0
LINE
  8
0
 10
-21.8129
 20
-31.662
 11
-22.3907
 21
-31.1839
  0
LINE
  8
0
 10
-21.4087
 20
31.9366
 11
-20.7515
 21
32.2979
  0
LINE
  8
0
 10
-20.7515
 20
32.2979
 11
-19.3062
 21
29.669
  0
LINE
  8
0
 10
-19.3062
 20
29.669
 11
-19.9634
 21
29.3077
  0
LINE
  8
0
 10
-19.9634
 20
29.3077
 11
-21.4087
 21
31.9366
  0
LINE
  8
0
 10
-20.3885
 20
-32.5283
 11
-18.6251
 21
-30.1012
  0
LINE
  8
0
 10
-18.6251
 20
-30.1012
 11
-18.0184
 21
-30.5421
  0
LINE
  8
0
 10
-18.0184
 20
-30.5421
 11
-19.7817
 21
-32.9691
  0
LINE
  8
0
 10
-19.7817
 20
-32.9691
 11
-20.3885
 21
-32.5283
  0
LINE
  8
0
 10
-19.3611
 20
33.2179
 11
-18.6825
 21
33.5372
  0
LINE
  8
0
 10
-18.6825
 20
33.5372
 11
-17.4052
 21
30.8227
  0
LINE
  8
0
 10
-17.4052
 20
30.8227
 11
-18.0838
 21
30.5034
  0
LINE
  8
0
 10
-18.0838
 20
30.5034
 11
-19.3611
 21
33.2179
  0
LINE
  8
0
 10
-18.3058
 20
-33.7443
 11
-16.6983
 21
-31.2113
  0
LINE
  8
0
 10
-16.6983
 20
-31.2113
 11
-16.0651
 21
-31.6132
  0
LINE
  8
0
 10
-16.0651
 20
-31.6132
 11
-17.6726
 21
-34.1462
  0
LINE
  8
0
 10
-17.6726
 20
-34.1462
 11
-18.3058
 21
-33.7443
  0
LINE
  8
0
 10
-17.2372
 20
34.368
 11
-16.5398
 21
34.6441
  0
LINE
  8
0
 10
-16.5398
 20
34.6441
 11
-15.4355
 21
31.8548
  0
LINE
  8
0
 10
-15.4355
 20
31.8548
 11
-16.1328
 21
31.5787
  0
LINE
  8
0
 10
-16.1328
 20
31.5787
 11
-17.2372
 21
34.368
  0
LINE
  8
0
 10
-16.1509
 20
-34.8271
 11
-14.7056
 21
-32.1982
  0
LINE
  8
0
 10
-14.7056
 20
-32.1982
 11
-14.0484
 21
-32.5595
  0
LINE
  8
0
 10
-14.0484
 20
-32.5595
 11
-15.4936
 21
-35.1885
  0
LINE
  8
0
 10
-15.4936
 20
-35.1885
 11
-16.1509
 21
-34.8271
  0
LINE
  8
0
 10
-15.0452
 20
35.3825
 11
-14.3319
 21
35.6143
  0
LINE
  8
0
 10
-14.3319
 20
35.6143
 11
-13.4048
 21
32.7611
  0
LINE
  8
0
 10
-13.4048
 20
32.7611
 11
-14.1181
 21
32.5294
  0
LINE
  8
0
 10
-14.1181
 20
32.5294
 11
-15.0452
 21
35.3825
  0
LINE
  8
0
 10
-13.9322
 20
-35.7725
 11
-12.6548
 21
-33.0581
  0
LINE
  8
0
 10
-12.6548
 20
-33.0581
 11
-11.9762
 21
-33.3774
  0
LINE
  8
0
 10
-11.9762
 20
-33.3774
 11
-13.2536
 21
-36.0919
  0
LINE
  8
0
 10
-13.2536
 20
-36.0919
 11
-13.9322
 21
-35.7725
  0
LINE
  8
0
 10
-12.7938
 20
36.2574
 11
-12.0674
 21
36.4439
  0
LINE
  8
0
 10
-12.0674
 20
36.4439
 11
-11.3213
 21
33.5382
  0
LINE
  8
0
 10
-11.3213
 20
33.5382
 11
-12.0477
 21
33.3517
  0
LINE
  8
0
 10
-12.0477
 20
33.3517
 11
-12.7938
 21
36.2574
  0
LINE
  8
0
 10
-11.6585
 20
-36.5768
 11
-10.5541
 21
-33.7874
  0
LINE
  8
0
 10
-10.5541
 20
-33.7874
 11
-9.8568
 21
-34.0635
  0
LINE
  8
0
 10
-9.8568
 20
-34.0635
 11
-10.9612
 21
-36.8529
  0
LINE
  8
0
 10
-10.9612
 20
-36.8529
 11
-11.6585
 21
-36.5768
  0
LINE
  8
0
 10
-10.4919
 20
36.9892
 11
-9.75521
 21
37.1297
  0
LINE
  8
0
 10
-9.75521
 20
37.1297
 11
-9.19306
 21
34.1829
  0
LINE
  8
0
 10
-9.19306
 20
34.1829
 11
-9.92978
 21
34.0423
  0
LINE
  8
0
 10
-9.92978
 20
34.0423
 11
-10.4919
 21
36.9892
  0
LINE
  8
0
 10
-9.33883
 20
-37.2366
 11
-8.41178
 21
-34.3835
  0
LINE
  8
0
 10
-8.41178
 20
-34.3835
 11
-7.69848
 21
-34.6152
  0
LINE
  8
0
 10
-7.69848
 20
-34.6152
 11
-8.62554
 21
-37.4684
  0
LINE
  8
0
 10
-8.62554
 20
-37.4684
 11
-9.33883
 21
-37.2366
  0
LINE
  8
0
 10
-8.14865
 20
37.575
 11
-7.40456
 21
37.669
  0
LINE
  8
0
 10
-7.40456
 20
37.669
 11
-7.02856
 21
34.6926
  0
LINE
  8
0
 10
-7.02856
 20
34.6926
 11
-7.77265
 21
34.5986
  0
LINE
  8
0
 10
-7.77265
 20
34.5986
 11
-8.14865
 21
37.575
  0
LINE
  8
0
 10
-6.98229
 20
-37.7495
 11
-6.23622
 21
-34.8438
  0
LINE
  8
0
 10
-6.23622
 20
-34.8438
 11
-5.50978
 21
-35.0303
  0
LINE
  8
0
 10
-5.50978
 20
-35.0303
 11
-6.25585
 21
-37.9361
  0
LINE
  8
0
 10
-6.25585
 20
-37.9361
 11
-6.98229
 21
-37.7495
  0
LINE
  8
0
 10
-5.77322
 20
38.0125
 11
-5.0247
 21
38.0596
  0
LINE
  8
0
 10
-5.0247
 20
38.0596
 11
-4.83632
 21
35.0655
  0
LINE
  8
0
 10
-4.83632
 20
35.0655
 11
-5.58485
 21
35.0184
  0
LINE
  8
0
 10
-5.58485
 20
35.0184
 11
-5.77322
 21
38.0125
  0
LINE
  8
0
 10
-4.5982
 20
-38.1135
 11
-4.03606
 21
-35.1666
  0
LINE
  8
0
 10
-4.03606
 20
-35.1666
 11
-3.29934
 21
-35.3072
  0
LINE
  8
0
 10
-3.29934
 20
-35.3072
 11
-3.86148
 21
-38.254
  0
LINE
  8
0
 10
-3.86148
 20
-38.254
 11
-4.5982
 21
-38.1135
  0
LINE
  8
0
 10
-3.375
 20
35.3
 11
-3.375
 21
38.3
  0
LINE
  8
0
 10
-3.375
 20
38.3
 11
-2.625
 21
38.3
  0
LINE
  8
0
 10
-2.625
 20
38.3
 11
-2.625
 21
35.3
  0
LINE
  8
0
 10
-2.625
 20
35.3
 11
-3.375
 21
35.3
  0
LINE
  8
0
 10
-2.95
 20
0
 11
-2.88554
 21
0.613339
  0
LINE
  8
0
 10
-2.88554
 20
0.613339
 11
-2.69496
 21
1.19987
  0
LINE
  8
0
 10
-2.69496
 20
1.19987
 11
-2.3866
 21
1.73397
  0
LINE
  8
0
 10
-2.3866
 20
1.73397
 11
-1.97394
 21
2.19228
  0
LINE
  8
0
 10
-1.97394
 20
2.19228
 11
-1.475
 21
2.55477
  0
LINE
  8
0
 10
-1.475
 20
2.55477
 11
-0.9116
 21
2.80562
  0
LINE
  8
0
 10
-0.9116
 20
2.80562
 11
-0.308358
 21
2.93384
  0
LINE
  8
0
 10
-0.308358
 20
2.93384
 11
0.308358
 21
2.93384
  0
LINE
  8
0
 10
0.308358
 20
2.93384
 11
0.9116
 21
2.80562
  0
LINE
  8
0
 10
0.9116
 20
2.80562
 11
1.475
 21
2.55477
  0
LINE
  8
0
 10
1.475
 20
2.55477
 11
1.97394
 21
2.19228
  0
LINE
  8
0
 10
1.97394
 20
2.19228
 11
2.3866
 21
1.73397
  0
LINE
  8
0
 10
2.3866
 20
1.73397
 11
2.69496
 21
1.19987
  0
LINE
  8
0
 10
2.69496
 20
1.19987
 11
2.88554
 21
0.613339
  0
LINE
  8
0
 10
2.88554
 20
0.613339
 11
2.95
 21
0
  0
LINE
  8
0
 10
2.95
 20
0
 11
2.88554
 21
-0.613339
  0
LINE
  8
0
 10
2.88554
 20
-0.613339
 11
2.69496
 21
-1.19987
  0
LINE
  8
0
 10
2.69496
 20
-1.19987
 11
2.3866
 21
-1.73397
  0
LINE
  8
0
 10
2.3866
 20
-1.73397
 11
1.97394
 21
-2.19228
  0
LINE
  8
0
 10
1.97394
 20
-2.19228
 11
1.475
 21
-2.55477
  0
LINE
  8
0
 10
1.475
 20
-2.55477
 11
0.9116
 21
-2.80562
  0
LINE
  8
0
 10
0.9116
 20
-2.80562
 11
0.308358
 21
-2.93384
  0
LINE
  8
0
 10
0.308358
 20
-2.93384
 11
-0.308358
 21
-2.93384
  0
LINE
  8
0
 10
-0.308358
 20
-2.93384
 11
-0.9116
 21
-2.80562
  0
LINE
  8
0
 10
-0.9116
 20
-2.80562
 11
-1.475
 21
-2.55477
  0
LINE
  8
0
 10
-1.475
 20
-2.55477
 11
-1.97394
 21
-2.19228
  0
LINE
  8
0
 10
-1.97394
 20
-2.19228
 11
-2.3866
 21
-1.73397
  0
LINE
  8
0
 10
-2.3866
 20
-1.73397
 11
-2.69496
 21
-1.19987
  0
LINE
  8
0
 10
-2.69496
 20
-1.19987
 11
-2.88554
 21
-0.613339
  0
LINE
  8
0
 10
-2.88554
 20
-0.613339
 11
-2.95
 21
0
  0
LINE
  8
0
 10
-2.19596
 20
-38.327
 11
-1.81996
 21
-35.3506
  0
LINE
  8
0
 10
-1.81996
 20
-35.3506
 11
-1.07588
 21
-35.4446
  0
LINE
  8
0
 10
-1.07588
 20
-35.4446
 11
-1.45188
 21
-38.421
  0
LINE
  8
0
 10
-1.45188
 20
-38.421
 11
-2.19596
 21
-38.327
  0
LINE
  8
0
 10
-1.95
 20
-22
 11
-1.90739
 21
-21.5946
  0
LINE
  8
0
 10
-1.90739
 20
-21.5946
 11
-1.78141
 21
-21.2069
  0
LINE
  8
0
 10
-1.78141
 20
-21.2069
 11
-1.57758
 21
-20.8538
  0
LINE
  8
0
 10
-1.57758
 20
-20.8538
 11
-1.3048
 21
-20.5509
  0
LINE
  8
0
 10
-1.3048
 20
-20.5509
 11
-0.974999
 21
-20.3112
  0
LINE
  8
0
 10
-0.974999
 20
-20.3112
 11
-0.602583
 21
-20.1454
  0
LINE
  8
0
 10
-0.602583
 20
-20.1454
 11
-0.20383
 21
-20.0607
  0
LINE
  8
0
 10
-0.20383
 20
-20.0607
 11
0.20383
 21
-20.0607
  0
LINE
  8
0
 10
0.20383
 20
-20.0607
 11
0.602583
 21
-20.1454
  0
LINE
  8
0
 10
0.602583
 20
-20.1454
 11
0.974999
 21
-20.3112
  0
LINE
  8
0
 10
0.974999
 20
-20.3112
 11
1.3048
 21
-20.5509
  0
LINE
  8
0
 10
1.3048
 20
-20.5509
 11
1.57758
 21
-20.8538
  0
LINE
  8
0
 10
1.57758
 20
-20.8538
 11
1.78141
 21
-21.2069
  0
LINE
  8
0
 10
1.78141
 20
-21.2069
 11
1.90739
 21
-21.5946
  0
LINE
  8
0
 10
1.90739
 20
-21.5946
 11
1.95
 21
-22
  0
LINE
  8
0
 10
1.95
 20
-22
 11
1.90739
 21
-22.4054
  0
LINE
  8
0
 10
1.90739
 20
-22.4054
 11
1.78141
 21
-22.7931
  0
LINE
  8
0
 10
1.78141
 20
-22.7931
 11
1.57758
 21
-23.1462
  0
LINE
  8
0
 10
1.57758
 20
-23.1462
 11
1.3048
 21
-23.4491
  0
LINE
  8
0
 10
1.3048
 20
-23.4491
 11
0.974999
 21
-23.6887
  0
LINE
  8
0
 10
0.974999
 20
-23.6887
 11
0.602583
 21
-23.8546
  0
LINE
  8
0
 10
0.602583
 20
-23.8546
 11
0.20383
 21
-23.9393
  0
LINE
  8
0
 10
0.20383
 20
-23.9393
 11
-0.20383
 21
-23.9393
  0
LINE
  8
0
 10
-0.20383
 20
-23.9393
 11
-0.602583
 21
-23.8546
  0
LINE
  8
0
 10
-0.602583
 20
-23.8546
 11
-0.974999
 21
-23.6887
  0
LINE
  8
0
 10
-0.974999
 20
-23.6887
 11
-1.3048
 21
-23.4491
  0
LINE
  8
0
 10
-1.3048
 20
-23.4491
 11
-1.57758
 21
-23.1462
  0
LINE
  8
0
 10
-1.57758
 20
-23.1462
 11
-1.78141
 21
-22.7931
  0
LINE
  8
0
 10
-1.78141
 20
-22.7931
 11
-1.90739
 21
-22.4054
  0
LINE
  8
0
 10
-1.90739
 20
-22.4054
 11
-1.95
 21
-22
  0
LINE
  8
0
 10
-1.95
 20
22
 11
-1.90739
 21
22.4054
  0
LINE
  8
0
 10
-1.90739
 20
22.4054
 11
-1.78141
 21
22.7931
  0
LINE
  8
0
 10
-1.78141
 20
22.7931
 11
-1.57758
 21
23.1462
  0
LINE
  8
0
 10
-1.57758
 20
23.1462
 11
-1.3048
 21
23.4491
  0
LINE
  8
0
 10
-1.3048
 20
23.4491
 11
-0.974999
 21
23.6887
  0
LINE
  8
0
 10
-0.974999
 20
23.6887
 11
-0.602583
 21
23.8546
  0
LINE
  8
0
 10
-0.602583
 20
23.8546
 11
-0.20383
 21
23.9393
  0
LINE
  8
0
 10
-0.20383
 20
23.9393
 11
0.20383
 21
23.9393
  0
LINE
  8
0
 10
0.20383
 20
23.9393
 11
0.602583
 21
23.8546
  0
LINE
  8
0
 10
0.602583
 20
23.8546
 11
0.974999
 21
23.6887
  0
LINE
  8
0
 10
0.974999
 20
23.6887
 11
1.3048
 21
23.4491
  0
LINE
  8
0
 10
1.3048
 20
23.4491
 11
1.57758
 21
23.1462
  0
LINE
  8
0
 10
1.57758
 20
23.1462
 11
1.78141
 21
22.7931
  0
LINE
  8
0
 10
1.78141
 20
22.7931
 11
1.90739
 21
22.4054
  0
LINE
  8
0
 10
1.90739
 20
22.4054
 11
1.95
 21
22
  0
LINE
  8
0
 10
1.95
 20
22
 11
1.90739
 21
21.5946
  0
LINE
  8
0
 10
1.90739
 20
21.5946
 11
1.78141
 21
21.2069
  0
LINE
  8
0
 10
1.78141
 20
21.2069
 11
1.57758
 21
20.8538
  0
LINE
  8
0
 10
1.57758
 20
20.8538
 11
1.3048
 21
20.5509
  0
LINE
  8
0
 10
1.3048
 20
20.5509
 11
0.974999
 21
20.3112
  0
LINE
  8
0
 10
0.974999
 20
20.3112
 11
0.602583
 21
20.1454
  0
LINE
  8
0
 10
0.602583
 20
20.1454
 11
0.20383
 21
20.0607
  0
LINE
  8
0
 10
0.20383
 20
20.0607
 11
-0.20383
 21
20.0607
  0
LINE
  8
0
 10
-0.20383
 20
20.0607
 11
-0.602583
 21
20.1454
  0
LINE
  8
0
 10
-0.602583
 20
20.1454
 11
-0.974999
 21
20.3112
  0
LINE
  8
0
 10
-0.974999
 20
20.3112
 11
-1.3048
 21
20.5509
  0
LINE
  8
0
 10
-1.3048
 20
20.5509
 11
-1.57758
 21
20.8538
  0
LINE
  8
0
 10
-1.57758
 20
20.8538
 11
-1.78141
 21
21.2069
  0
LINE
  8
0
 10
-1.78141
 20
21.2069
 11
-1.90739
 21
21.5946
  0
LINE
  8
0
 10
-1.90739
 20
21.5946
 11
-1.95
 21
22
  0
LINE
  8
0
 10
-1.15183
 20
35.4423
 11
-0.963463
 21
38.4363
  0
LINE
  8
0
 10
-0.963463
 20
38.4363
 11
-0.214943
 21
38.3892
  0
LINE
  8
0
 10
-0.214943
 20
38.3892
 11
-0.403315
 21
35.3952
  0
LINE
  8
0
 10
-0.403315
 20
35.3952
 11
-1.15183
 21
35.4423
  0
LINE
  8
0
 10
0.214943
 20
-38.3892
 11
0.403315
 21
-35.3952
  0
LINE
  8
0
 10
0.403315
 20
-35.3952
 11
1.15183
 21
-35.4423
  0
LINE
  8
0
 10
1.15183
 20
-35.4423
 11
0.963463
 21
-38.4363
  0
LINE
  8
0
 10
0.963463
 20
-38.4363
 11
0.214943
 21
-38.3892
  0
LINE
  8
0
 10
1.07588
 20
35.4446
 11
1.45188
 21
38.421
  0
LINE
  8
0
 10
1.45188
 20
38.421
 11
2.19596
 21
38.327
  0
LINE
  8
0
 10
2.19596
 20
38.327
 11
1.81996
 21
35.3506
  0
LINE
  8
0
 10
1.81996
 20
35.3506
 11
1.07588
 21
35.4446
  0
LINE
  8
0
 10
2.625
 20
-38.3
 11
2.625
 21
-35.3
  0
LINE
  8
0
 10
2.625
 20
-35.3
 11
3.375
 21
-35.3
  0
LINE
  8
0
 10
3.375
 20
-35.3
 11
3.375
 21
-38.3
  0
LINE
  8
0
 10
3.375
 20
-38.3
 11
2.625
 21
-38.3
  0
LINE
  8
0
 10
3.29934
 20
35.3072
 11
3.86148
 21
38.254
  0
LINE
  8
0
 10
3.86148
 20
38.254
 11
4.5982
 21
38.1135
  0
LINE
  8
0
 10
4.5982
 20
38.1135
 11
4.03606
 21
35.1666
  0
LINE
  8
0
 10
4.03606
 20
35.1666
 11
3.29934
 21
35.3072
  0
LINE
  8
0
 10
4.83632
 20
-35.0655
 11
5.58485
 21
-35.0184
  0
LINE
  8
0
 10
5.58485
 20
-35.0184
 11
5.77322
 21
-38.0125
  0
LINE
  8
0
 10
5.77322
 20
-38.0125
 11
5.0247
 21
-38.0596
  0
LINE
  8
0
 10
5.0247
 20
-38.0596
 11
4.83632
 21
-35.0655
  0
LINE
  8
0
 10
5.50978
 20
35.0303
 11
6.25585
 21
37.9361
  0
LINE
  8
0
 10
6.25585
 20
37.9361
 11
6.98229
 21
37.7495
  0
LINE
  8
0
 10
6.98229
 20
37.7495
 11
6.23622
 21
34.8438
  0
LINE
  8
0
 10
6.23622
 20
34.8438
 11
5.50978
 21
35.0303
  0
LINE
  8
0
 10
7.02856
 20
-34.6926
 11
7.77265
 21
-34.5986
  0
LINE
  8
0
 10
7.77265
 20
-34.5986
 11
8.14865
 21
-37.575
  0
LINE
  8
0
 10
8.14865
 20
-37.575
 11
7.40456
 21
-37.669
  0
LINE
  8
0
 10
7.40456
 20
-37.669
 11
7.02856
 21
-34.6926
  0
LINE
  8
0
 10
7.69848
 20
34.6152
 11
8.62554
 21
37.4684
  0
LINE
  8
0
 10
8.62554
 20
37.4684
 11
9.33883
 21
37.2366
  0
LINE
  8
0
 10
9.33883
 20
37.2366
 11
8.41178
 21
34.3835
  0
LINE
  8
0
 10
8.41178
 20
34.3835
 11
7.69848
 21
34.6152
  0
LINE
  8
0
 10
9.19306
 20
-34.1829
 11
9.92978
 21
-34.0423
  0
LINE
  8
0
 10
9.92978
 20
-34.0423
 11
10.4919
 21
-36.9892
  0
LINE
  8
0
 10
10.4919
 20
-36.9892
 11
9.75521
 21
-37.1297
  0
LINE
  8
0
 10
9.75521
 20
-37.1297
 11
9.19306
 21
-34.1829
  0
LINE
  8
0
 10
9.8568
 20
34.0635
 11
10.9612
 21
36.8529
  0
LINE
  8
0
 10
10.9612
 20
36.8529
 11
11.6585
 21
36.5768
  0
LINE
  8
0
 10
11.6585
 20
36.5768
 11
10.5541
 21
33.7874
  0
LINE
  8
0
 10
10.5541
 20
33.7874
 11
9.8568
 21
34.0635
  0
LINE
  8
0
 10
11.3213
 20
-33.5382
 11
12.0477
 21
-33.3517
  0
LINE
  8
0
 10
12.0477
 20
-33.3517
 11
12.7938
 21
-36.2574
  0
LINE
  8
0
 10
12.7938
 20
-36.2574
 11
12.0674
 21
-36.4439
  0
LINE
  8
0
 10
12.0674
 20
-36.4439
 11
11.3213
 21
-33.5382
  0
LINE
  8
0
 10
11.9762
 20
33.3774
 11
13.2536
 21
36.0919
  0
LINE
  8
0
 10
13.2536
 20
36.0919
 11
13.9322
 21
35.7725
  0
LINE
  8
0
 10
13.9322
 20
35.7725
 11
12.6548
 21
33.0581
  0
LINE
  8
0
 10
12.6548
 20
33.0581
 11
11.9762
 21
33.3774
  0
LINE
  8
0
 10
13.4048
 20
-32.7611
 11
14.1181
 21
-32.5294
  0
LINE
  8
0
 10
14.1181
 20
-32.5294
 11
15.0452
 21
-35.3825
  0
LINE
  8
0
 10
15.0452
 20
-35.3825
 11
14.3319
 21
-35.6143
  0
LINE
  8
0
 10
14.3319
 20
-35.6143
 11
13.4048
 21
-32.7611
  0
LINE
  8
0
 10
14.0484
 20
32.5595
 11
15.4936
 21
35.1885
  0
LINE
  8
0
 10
15.4936
 20
35.1885
 11
16.1509
 21
34.8271
  0
LINE
  8
0
 10
16.1509
 20
34.8271
 11
14.7056
 21
32.1982
  0
LINE
  8
0
 10
14.7056
 20
32.1982
 11
14.0484
 21
32.5595
  0
LINE
  8
0
 10
15.4355
 20
-31.8548
 11
16.1328
 21
-31.5787
  0
LINE
  8
0
 10
16.1328
 20
-31.5787
 11
17.2372
 21
-34.368
  0
LINE
  8
0
 10
17.2372
 20
-34.368
 11
16.5398
 21
-34.6441
  0
LINE
  8
0
 10
16.5398
 20
-34.6441
 11
15.4355
 21
-31.8548
  0
LINE
  8
0
 10
16.0651
 20
31.6132
 11
17.6726
 21
34.1462
  0
LINE
  8
0
 10
17.6726
 20
34.1462
 11
18.3058
 21
33.7443
  0
LINE
  8
0
 10
18.3058
 20
33.7443
 11
16.6983
 21
31.2113
  0
LINE
  8
0
 10
16.6983
 20
31.2113
 11
16.0651
 21
31.6132
  0
LINE
  8
0
 10
17.4052
 20
-30.8227
 11
18.0838
 21
-30.5034
  0
LINE
  8
0
 10
18.0838
 20
-30.5034
 11
19.3611
 21
-33.2179
  0
LINE
  8
0
 10
19.3611
 20
-33.2179
 11
18.6825
 21
-33.5372
  0
LINE
  8
0
 10
18.6825
 20
-33.5372
 11
17.4052
 21
-30.8227
  0
LINE
  8
0
 10
18.0184
 20
30.5421
 11
19.7817
 21
32.9691
  0
LINE
  8
0
 10
19.7817
 20
32.9691
 11
20.3885
 21
32.5283
  0
LINE
  8
0
 10
20.3885
 20
32.5283
 11
18.6251
 21
30.1012
  0
LINE
  8
0
 10
18.6251
 20
30.1012
 11
18.0184
 21
30.5421
  0
LINE
  8
0
 10
19.3062
 20
-29.669
 11
19.9634
 21
-29.3077
  0
LINE
  8
0
 10
19.9634
 20
-29.3077
 11
21.4087
 21
-31.9366
  0
LINE
  8
0
 10
21.4087
 20
-31.9366
 11
20.7515
 21
-32.2979
  0
LINE
  8
0
 10
20.7515
 20
-32.2979
 11
19.3062
 21
-29.669
  0
LINE
  8
0
 10
19.9006
 20
29.3504
 11
21.8129
 21
31.662
  0
LINE
  8
0
 10
21.8129
 20
31.662
 11
22.3907
 21
31.1839
  0
LINE
  8
0
 10
22.3907
 20
31.1839
 11
20.4785
 21
28.8724
  0
LINE
  8
0
 10
20.4785
 20
28.8724
 11
19.9006
 21
29.3504
  0
LINE
  8
0
 10
21.131
 20
-28.3982
 11
21.7643
 21
-27.9964
  0
LINE
  8
0
 10
21.7643
 20
-27.9964
 11
23.3718
 21
-30.5293
  0
LINE
  8
0
 10
23.3718
 20
-30.5293
 11
22.7385
 21
-30.9312
  0
LINE
  8
0
 10
22.7385
 20
-30.9312
 11
21.131
 21
-28.3982
  0
LINE
  8
0
 10
21.7042
 20
28.0429
 11
23.7579
 21
30.2298
  0
LINE
  8
0
 10
23.7579
 20
30.2298
 11
24.3046
 21
29.7164
  0
LINE
  8
0
 10
24.3046
 20
29.7164
 11
22.251
 21
27.5295
  0
LINE
  8
0
 10
22.251
 20
27.5295
 11
21.7042
 21
28.0429
  0
LINE
  8
0
 10
22.8725
 20
-27.0154
 11
23.4793
 21
-26.5745
  0
LINE
  8
0
 10
23.4793
 20
-26.5745
 11
25.2426
 21
-29.0016
  0
LINE
  8
0
 10
25.2426
 20
-29.0016
 11
24.6358
 21
-29.4424
  0
LINE
  8
0
 10
24.6358
 20
-29.4424
 11
22.8725
 21
-27.0154
  0
LINE
  8
0
 10
23.4222
 20
26.6248
 11
25.6092
 21
28.6784
  0
LINE
  8
0
 10
25.6092
 20
28.6784
 11
26.1226
 21
28.1317
  0
LINE
  8
0
 10
26.1226
 20
28.1317
 11
23.9357
 21
26.0781
  0
LINE
  8
0
 10
23.9357
 20
26.0781
 11
23.4222
 21
26.6248
  0
LINE
  8
0
 10
24.5237
 20
-25.5259
 11
25.1015
 21
-25.0478
  0
LINE
  8
0
 10
25.1015
 20
-25.0478
 11
27.0138
 21
-27.3594
  0
LINE
  8
0
 10
27.0138
 20
-27.3594
 11
26.4359
 21
-27.8374
  0
LINE
  8
0
 10
26.4359
 20
-27.8374
 11
24.5237
 21
-25.5259
  0
LINE
  8
0
 10
25.0478
 20
25.1015
 11
27.3594
 21
27.0138
  0
LINE
  8
0
 10
27.3594
 20
27.0138
 11
27.8374
 21
26.4359
  0
LINE
  8
0
 10
27.8374
 20
26.4359
 11
25.5259
 21
24.5237
  0
LINE
  8
0
 10
25.5259
 20
24.5237
 11
25.0478
 21
25.1015
  0
LINE
  8
0
 10
26.0781
 20
-23.9357
 11
26.6248
 21
-23.4222
  0
LINE
  8
0
 10
26.6248
 20
-23.4222
 11
28.6784
 21
-25.6092
  0
LINE
  8
0
 10
28.6784
 20
-25.6092
 11
28.1317
 21
-26.1226
  0
LINE
  8
0
 10
28.1317
 20
-26.1226
 11
26.0781
 21
-23.9357
  0
LINE
  8
0
 10
26.5745
 20
23.4793
 11
29.0016
 21
25.2426
  0
LINE
  8
0
 10
29.0016
 20
25.2426
 11
29.4424
 21
24.6358
  0
LINE
  8
0
 10
29.4424
 20
24.6358
 11
27.0154
 21
22.8725
  0
LINE
  8
0
 10
27.0154
 20
22.8725
 11
26.5745
 21
23.4793
  0
LINE
  8
0
 10
27.5295
 20
-22.251
 11
28.0429
 21
-21.7042
  0
LINE
  8
0
 10
28.0429
 20
-21.7042
 11
30.2298
 21
-23.7579
  0
LINE
  8
0
 10
30.2298
 20
-23.7579
 11
29.7164
 21
-24.3046
  0
LINE
  8
0
 10
29.7164
 20
-24.3046
 11
27.5295
 21
-22.251
  0
LINE
  8
0
 10
27.9964
 20
21.7643
 11
30.5293
 21
23.3718
  0
LINE
  8
0
 10
30.5293
 20
23.3718
 11
30.9312
 21
22.7385
  0
LINE
  8
0
 10
30.9312
 20
22.7385
 11
28.3982
 21
21.131
  0
LINE
  8
0
 10
28.3982
 20
21.131
 11
27.9964
 21
21.7643
  0
LINE
  8
0
 10
28.8724
 20
-20.4785
 11
29.3504
 21
-19.9006
  0
LINE
  8
0
 10
29.3504
 20
-19.9006
 11
31.662
 21
-21.8129
  0
LINE
  8
0
 10
31.662
 20
-21.8129
 11
31.1839
 21
-22.3907
  0
LINE
  8
0
 10
31.1839
 20
-22.3907
 11
28.8724
 21
-20.4785
  0
LINE
  8
0
 10
29.3077
 20
19.9634
 11
31.9366
 21
21.4087
  0
LINE
  8
0
 10
31.9366
 20
21.4087
 11
32.2979
 21
20.7515
  0
LINE
  8
0
 10
32.2979
 20
20.7515
 11
29.669
 21
19.3062
  0
LINE
  8
0
 10
29.669
 20
19.3062
 11
29.3077
 21
19.9634
  0
LINE
  8
0
 10
30.1012
 20
-18.6251
 11
30.5421
 21
-18.0184
  0
LINE
  8
0
 10
30.5421
 20
-18.0184
 11
32.9691
 21
-19.7817
  0
LINE
  8
0
 10
32.9691
 20
-19.7817
 11
32.5283
 21
-20.3885
  0
LINE
  8
0
 10
32.5283
 20
-20.3885
 11
30.1012
 21
-18.6251
  0
LINE
  8
0
 10
30.5034
 20
18.0838
 11
33.2179
 21
19.3611
  0
LINE
  8
0
 10
33.2179
 20
19.3611
 11
33.5372
 21
18.6825
  0
LINE
  8
0
 10
33.5372
 20
18.6825
 11
30.8227
 21
17.4052
  0
LINE
  8
0
 10
30.8227
 20
17.4052
 11
30.5034
 21
18.0838
  0
LINE
  8
0
 10
31.2113
 20
-16.6983
 11
31.6132
 21
-16.0651
  0
LINE
  8
0
 10
31.6132
 20
-16.0651
 11
34.1462
 21
-17.6726
  0
LINE
  8
0
 10
34.1462
 20
-17.6726
 11
33.7443
 21
-18.3058
  0
LINE
  8
0
 10
33.7443
 20
-18.3058
 11
31.2113
 21
-16.6983
  0
LINE
  8
0
 10
31.5787
 20
16.1328
 11
34.368
 21
17.2372
  0
LINE
  8
0
 10
34.368
 20
17.2372
 11
34.6441
 21
16.5398
  0
LINE
  8
0
 10
34.6441
 20
16.5398
 11
31.8548
 21
15.4355
  0
LINE
  8
0
 10
31.8548
 20
15.4355
 11
31.5787
 21
16.1328
  0
LINE
  8
0
 10
32.1982
 20
-14.7056
 11
32.5595
 21
-14.0484
  0
LINE
  8
0
 10
32.5595
 20
-14.0484
 11
35.1885
 21
-15.4936
  0
LINE
  8
0
 10
35.1885
 20
-15.4936
 11
34.8271
 21
-16.1509
  0
LINE
  8
0
 10
34.8271
 20
-16.1509
 11
32.1982
 21
-14.7056
  0
LINE
  8
0
 10
32.3
 20
-3.375
 11
32.3
 21
-2.625
  0
LINE
  8
0
 10
32.3
 20
-2.625
 11
35.3
 21
-2.625
  0
LINE
  8
0
 10
35.3
 20
-2.625
 11
35.3
 21
-3.33684
  0
LINE
  8
0
 10
35.3
 20
-3.33684
 11
35.3072
 21
-3.29934
  0
LINE
  8
0
 10
35.3072
 20
-3.29934
 11
38.254
 21
-3.86148
  0
LINE
  8
0
 10
38.254
 20
-3.86148
 11
38.1135
 21
-4.5982
  0
LINE
  8
0
 10
38.1135
 20
-4.5982
 11
35.1666
 21
-4.03606
  0
LINE
  8
0
 10
35.1666
 20
-4.03606
 11
35.2927
 21
-3.375
  0
LINE
  8
0
 10
35.2927
 20
-3.375
 11
32.3
 21
-3.375
  0
LINE
  8
0
 10
32.5294
 20
14.1181
 11
35.3825
 21
15.0452
  0
LINE
  8
0
 10
35.3825
 20
15.0452
 11
35.6143
 21
14.3319
  0
LINE
  8
0
 10
35.6143
 20
14.3319
 11
32.7611
 21
13.4048
  0
LINE
  8
0
 10
32.7611
 20
13.4048
 11
32.5294
 21
14.1181
  0
LINE
  8
0
 10
33.0581
 20
-12.6548
 11
33.3774
 21
-11.9762
  0
LINE
  8
0
 10
33.3774
 20
-11.9762
 11
36.0919
 21
-13.2536
  0
LINE
  8
0
 10
36.0919
 20
-13.2536
 11
35.7725
 21
-13.9322
  0
LINE
  8
0
 10
35.7725
 20
-13.9322
 11
33.0581
 21
-12.6548
  0
LINE
  8
0
 10
33.3517
 20
12.0477
 11
36.2574
 21
12.7938
  0
LINE
  8
0
 10
36.2574
 20
12.7938
 11
36.4439
 21
12.0674
  0
LINE
  8
0
 10
36.4439
 20
12.0674
 11
33.5382
 21
11.3213
  0
LINE
  8
0
 10
33.5382
 20
11.3213
 11
33.3517
 21
12.0477
  0
LINE
  8
0
 10
33.7874
 20
-10.5541
 11
34.0635
 21
-9.8568
  0
LINE
  8
0
 10
34.0635
 20
-9.8568
 11
36.8529
 21
-10.9612
  0
LINE
  8
0
 10
36.8529
 20
-10.9612
 11
36.5768
 21
-11.6585
  0
LINE
  8
0
 10
36.5768
 20
-11.6585
 11
33.7874
 21
-10.5541
  0
LINE
  8
0
 10
34.0423
 20
9.92978
 11
36.9892
 21
10.4919
  0
LINE
  8
0
 10
36.9892
 20
10.4919
 11
37.1297
 21
9.75521
  0
LINE
  8
0
 10
37.1297
 20
9.75521
 11
34.1829
 21
9.19306
  0
LINE
  8
0
 10
34.1829
 20
9.19306
 11
34.0423
 21
9.92978
  0
LINE
  8
0
 10
34.3835
 20
-8.41178
 11
34.6152
 21
-7.69848
  0
LINE
  8
0
 10
34.6152
 20
-7.69848
 11
37.4684
 21
-8.62554
  0
LINE
  8
0
 10
37.4684
 20
-8.62554
 11
37.2366
 21
-9.33883
  0
LINE
  8
0
 10
37.2366
 20
-9.33883
 11
34.3835
 21
-8.41178
  0
LINE
  8
0
 10
34.5986
 20
7.77265
 11
37.575
 21
8.14865
  0
LINE
  8
0
 10
37.575
 20
8.14865
 11
37.669
 21
7.40456
  0
LINE
  8
0
 10
37.669
 20
7.40456
 11
34.6926
 21
7.02856
  0
LINE
  8
0
 10
34.6926
 20
7.02856
 11
34.5986
 21
7.77265
  0
LINE
  8
0
 10
34.8438
 20
-6.23622
 11
35.0303
 21
-5.50978
  0
LINE
  8
0
 10
35.0303
 20
-5.50978
 11
37.9361
 21
-6.25585
  0
LINE
  8
0
 10
37.9361
 20
-6.25585
 11
37.7495
 21
-6.98229
  0
LINE
  8
0
 10
37.7495
 20
-6.98229
 11
34.8438
 21
-6.23622
  0
LINE
  8
0
 10
35.0184
 20
5.58485
 11
38.0125
 21
5.77322
  0
LINE
  8
0
 10
38.0125
 20
5.77322
 11
38.0596
 21
5.0247
  0
LINE
  8
0
 10
38.0596
 20
5.0247
 11
35.0655
 21
4.83632
  0
LINE
  8
0
 10
35.0655
 20
4.83632
 11
35.0184
 21
5.58485
  0
LINE
  8
0
 10
35.3
 20
2.625
 11
35.3
 21
3.375
  0
LINE
  8
0
 10
35.3
 20
3.375
 11
38.3
 21
3.375
  0
LINE
  8
0
 10
38.3
 20
3.375
 11
38.3
 21
2.625
  0
LINE
  8
0
 10
38.3
 20
2.625
 11
35.3
 21
2.625
  0
LINE
  8
0
 10
35.3506
 20
-1.81996
 11
35.4446
 21
-1.07588
  0
LINE
  8
0
 10
35.4446
 20
-1.07588
 11
38.421
 21
-1.45188
  0
LINE
  8
0
 10
38.421
 20
-1.45188
 11
38.327
 21
-2.19596
  0
LINE
  8
0
 10
38.327
 20
-2.19596
 11
35.3506
 21
-1.81996
  0
LINE
  8
0
 10
35.3952
 20
0.403315
 11
35.4423
 21
1.15183
  0
LINE
  8
0
 10
35.4423
 20
1.15183
 11
38.4363
 21
0.963463
  0
LINE
  8
0
 10
38.4363
 20
0.963463
 11
38.3892
 21
0.214943
  0
LINE
  8
0
 10
38.3892
 20
0.214943
 11
35.3952
 21
0.403315
  0
ENDSEC
  0
SECTION
  2
OBJECTS
  0
DICTIONARY
  0
ENDSEC
  0
EOF
