  0
SECTION
  2
BLOCKS
  0
ENDSEC
  0
SECTION
  2
ENTITIES
  0
LINE
  8
0
 10
-94.52
 20
-97
 11
-94.5196
 21
-97.0042
  0
LINE
  8
0
 10
-94.5196
 20
-97.0042
 11
-94.5183
 21
-97.0081
  0
LINE
  8
0
 10
-94.5183
 20
-97.0081
 11
-94.5162
 21
-97.0118
  0
LINE
  8
0
 10
-94.5162
 20
-97.0118
 11
-94.5134
 21
-97.0149
  0
LINE
  8
0
 10
-94.5134
 20
-97.0149
 11
-94.51
 21
-97.0173
  0
LINE
  8
0
 10
-94.51
 20
-97.0173
 11
-94.5062
 21
-97.019
  0
LINE
  8
0
 10
-94.5062
 20
-97.019
 11
-94.5021
 21
-97.0199
  0
LINE
  8
0
 10
-94.5021
 20
-97.0199
 11
-61.575
 21
-97.0199
  0
LINE
  8
0
 10
-61.575
 20
-97.0199
 11
-61.575
 21
-100
  0
LINE
  8
0
 10
-61.575
 20
-100
 11
-46.575
 21
-100
  0
LINE
  8
0
 10
-46.575
 20
-100
 11
-46.575
 21
-97.0199
  0
LINE
  8
0
 10
-46.575
 20
-97.0199
 11
-7.5
 21
-97.0199
  0
LINE
  8
0
 10
-7.5
 20
-97.0199
 11
-7.5
 21
-100
  0
LINE
  8
0
 10
-7.5
 20
-100
 11
7.5
 21
-100
  0
LINE
  8
0
 10
7.5
 20
-100
 11
7.5
 21
-97.0199
  0
LINE
  8
0
 10
7.5
 20
-97.0199
 11
46.575
 21
-97.0199
  0
LINE
  8
0
 10
46.575
 20
-97.0199
 11
46.575
 21
-100
  0
LINE
  8
0
 10
46.575
 20
-100
 11
61.575
 21
-100
  0
LINE
  8
0
 10
61.575
 20
-100
 11
61.575
 21
-97.0199
  0
LINE
  8
0
 10
61.575
 20
-97.0199
 11
94.5021
 21
-97.0199
  0
LINE
  8
0
 10
94.5021
 20
-97.0199
 11
94.5062
 21
-97.019
  0
LINE
  8
0
 10
94.5062
 20
-97.019
 11
94.51
 21
-97.0173
  0
LINE
  8
0
 10
94.51
 20
-97.0173
 11
94.5134
 21
-97.0149
  0
LINE
  8
0
 10
94.5134
 20
-97.0149
 11
94.5162
 21
-97.0118
  0
LINE
  8
0
 10
94.5162
 20
-97.0118
 11
94.5183
 21
-97.0081
  0
LINE
  8
0
 10
94.5183
 20
-97.0081
 11
94.5196
 21
-97.0042
  0
LINE
  8
0
 10
94.5196
 20
-97.0042
 11
94.52
 21
-97
  0
LINE
  8
0
 10
94.52
 20
-97
 11
94.52
 21
97
  0
LINE
  8
0
 10
94.52
 20
97
 11
94.5196
 21
97.0042
  0
LINE
  8
0
 10
94.5196
 20
97.0042
 11
94.5183
 21
97.0081
  0
LINE
  8
0
 10
94.5183
 20
97.0081
 11
94.5162
 21
97.0118
  0
LINE
  8
0
 10
94.5162
 20
97.0118
 11
94.5134
 21
97.0149
  0
LINE
  8
0
 10
94.5134
 20
97.0149
 11
94.51
 21
97.0173
  0
LINE
  8
0
 10
94.51
 20
97.0173
 11
94.5062
 21
97.019
  0
LINE
  8
0
 10
94.5062
 20
97.019
 11
94.5021
 21
97.0199
  0
LINE
  8
0
 10
94.5021
 20
97.0199
 11
61.575
 21
97.0199
  0
LINE
  8
0
 10
61.575
 20
97.0199
 11
61.575
 21
100
  0
LINE
  8
0
 10
61.575
 20
100
 11
46.575
 21
100
  0
LINE
  8
0
 10
46.575
 20
100
 11
46.575
 21
97.0199
  0
LINE
  8
0
 10
46.575
 20
97.0199
 11
7.5
 21
97.0199
  0
LINE
  8
0
 10
7.5
 20
97.0199
 11
7.5
 21
100
  0
LINE
  8
0
 10
7.5
 20
100
 11
-7.5
 21
100
  0
LINE
  8
0
 10
-7.5
 20
100
 11
-7.5
 21
97.0199
  0
LINE
  8
0
 10
-7.5
 20
97.0199
 11
-46.575
 21
97.0199
  0
LINE
  8
0
 10
-46.575
 20
97.0199
 11
-46.575
 21
100
  0
LINE
  8
0
 10
-46.575
 20
100
 11
-61.575
 21
100
  0
LINE
  8
0
 10
-61.575
 20
100
 11
-61.575
 21
97.0199
  0
LINE
  8
0
 10
-61.575
 20
97.0199
 11
-94.5021
 21
97.0199
  0
LINE
  8
0
 10
-94.5021
 20
97.0199
 11
-94.5062
 21
97.019
  0
LINE
  8
0
 10
-94.5062
 20
97.019
 11
-94.51
 21
97.0173
  0
LINE
  8
0
 10
-94.51
 20
97.0173
 11
-94.5134
 21
97.0149
  0
LINE
  8
0
 10
-94.5134
 20
97.0149
 11
-94.5162
 21
97.0118
  0
LINE
  8
0
 10
-94.5162
 20
97.0118
 11
-94.5183
 21
97.0081
  0
LINE
  8
0
 10
-94.5183
 20
97.0081
 11
-94.5196
 21
97.0042
  0
LINE
  8
0
 10
-94.5196
 20
97.0042
 11
-94.52
 21
97
  0
LINE
  8
0
 10
-94.52
 20
97
 11
-94.52
 21
-97
  0
LINE
  8
0
 10
-83.2
 20
-82.5
 11
-83.2
 21
-67.5
  0
LINE
  8
0
 10
-83.2
 20
-67.5
 11
-80.2
 21
-67.5
  0
LINE
  8
0
 10
-80.2
 20
-67.5
 11
-80.2
 21
-82.5
  0
LINE
  8
0
 10
-80.2
 20
-82.5
 11
-83.2
 21
-82.5
  0
LINE
  8
0
 10
-83.2
 20
-45
 11
-83.2
 21
-30
  0
LINE
  8
0
 10
-83.2
 20
-30
 11
-80.2
 21
-30
  0
LINE
  8
0
 10
-80.2
 20
-30
 11
-80.2
 21
-45
  0
LINE
  8
0
 10
-80.2
 20
-45
 11
-83.2
 21
-45
  0
LINE
  8
0
 10
-83.2
 20
-7.5
 11
-83.2
 21
7.5
  0
LINE
  8
0
 10
-83.2
 20
7.5
 11
-80.2
 21
7.5
  0
LINE
  8
0
 10
-80.2
 20
7.5
 11
-80.2
 21
-7.5
  0
LINE
  8
0
 10
-80.2
 20
-7.5
 11
-83.2
 21
-7.5
  0
LINE
  8
0
 10
-83.2
 20
30
 11
-83.2
 21
45
  0
LINE
  8
0
 10
-83.2
 20
45
 11
-80.2
 21
45
  0
LINE
  8
0
 10
-80.2
 20
45
 11
-80.2
 21
30
  0
LINE
  8
0
 10
-80.2
 20
30
 11
-83.2
 21
30
  0
LINE
  8
0
 10
-83.2
 20
67.5
 11
-83.2
 21
82.5
  0
LINE
  8
0
 10
-83.2
 20
82.5
 11
-80.2
 21
82.5
  0
LINE
  8
0
 10
-80.2
 20
82.5
 11
-80.2
 21
67.5
  0
LINE
  8
0
 10
-80.2
 20
67.5
 11
-83.2
 21
67.5
  0
LINE
  8
0
 10
-74.4
 20
-4.9
 11
-74.4
 21
4.9
  0
LINE
  8
0
 10
-74.4
 20
4.9
 11
-13.6
 21
4.9
  0
LINE
  8
0
 10
-13.6
 20
4.9
 11
-13.6
 21
-4.9
  0
LINE
  8
0
 10
-13.6
 20
-4.9
 11
-74.4
 21
-4.9
  0
LINE
  8
0
 10
-61.575
 20
-20.3
 11
-61.575
 21
-14.3
  0
LINE
  8
0
 10
-61.575
 20
-14.3
 11
-46.575
 21
-14.3
  0
LINE
  8
0
 10
-46.575
 20
-14.3
 11
-46.575
 21
-20.3
  0
LINE
  8
0
 10
-46.575
 20
-20.3
 11
-61.575
 21
-20.3
  0
LINE
  8
0
 10
-61.575
 20
14.3
 11
-61.575
 21
20.3
  0
LINE
  8
0
 10
-61.575
 20
20.3
 11
-46.575
 21
20.3
  0
LINE
  8
0
 10
-46.575
 20
20.3
 11
-46.575
 21
14.3
  0
LINE
  8
0
 10
-46.575
 20
14.3
 11
-61.575
 21
14.3
  0
LINE
  8
0
 10
-7.5
 20
-20.3
 11
-7.5
 21
-14.3
  0
LINE
  8
0
 10
-7.5
 20
-14.3
 11
7.5
 21
-14.3
  0
LINE
  8
0
 10
7.5
 20
-14.3
 11
7.5
 21
-20.3
  0
LINE
  8
0
 10
7.5
 20
-20.3
 11
-7.5
 21
-20.3
  0
LINE
  8
0
 10
-7.5
 20
14.3
 11
-7.5
 21
20.3
  0
LINE
  8
0
 10
-7.5
 20
20.3
 11
7.5
 21
20.3
  0
LINE
  8
0
 10
7.5
 20
20.3
 11
7.5
 21
14.3
  0
LINE
  8
0
 10
7.5
 20
14.3
 11
-7.5
 21
14.3
  0
LINE
  8
0
 10
13.6
 20
-4.9
 11
13.6
 21
4.9
  0
LINE
  8
0
 10
13.6
 20
4.9
 11
74.4
 21
4.9
  0
LINE
  8
0
 10
74.4
 20
4.9
 11
74.4
 21
-4.9
  0
LINE
  8
0
 10
74.4
 20
-4.9
 11
13.6
 21
-4.9
  0
LINE
  8
0
 10
18.05
 20
80.8
 11
18.1363
 21
81.6213
  0
LINE
  8
0
 10
18.1363
 20
81.6213
 11
18.3915
 21
82.4066
  0
LINE
  8
0
 10
18.3915
 20
82.4066
 11
18.8044
 21
83.1218
  0
LINE
  8
0
 10
18.8044
 20
83.1218
 11
19.3569
 21
83.7354
  0
LINE
  8
0
 10
19.3569
 20
83.7354
 11
20.025
 21
84.2208
  0
LINE
  8
0
 10
20.025
 20
84.2208
 11
20.7794
 21
84.5567
  0
LINE
  8
0
 10
20.7794
 20
84.5567
 11
21.5871
 21
84.7284
  0
LINE
  8
0
 10
21.5871
 20
84.7284
 11
22.4129
 21
84.7284
  0
LINE
  8
0
 10
22.4129
 20
84.7284
 11
23.2206
 21
84.5567
  0
LINE
  8
0
 10
23.2206
 20
84.5567
 11
23.975
 21
84.2208
  0
LINE
  8
0
 10
23.975
 20
84.2208
 11
24.6431
 21
83.7354
  0
LINE
  8
0
 10
24.6431
 20
83.7354
 11
25.1956
 21
83.1218
  0
LINE
  8
0
 10
25.1956
 20
83.1218
 11
25.6085
 21
82.4066
  0
LINE
  8
0
 10
25.6085
 20
82.4066
 11
25.8637
 21
81.6213
  0
LINE
  8
0
 10
25.8637
 20
81.6213
 11
25.95
 21
80.8
  0
LINE
  8
0
 10
25.95
 20
80.8
 11
25.8637
 21
79.9787
  0
LINE
  8
0
 10
25.8637
 20
79.9787
 11
25.6085
 21
79.1934
  0
LINE
  8
0
 10
25.6085
 20
79.1934
 11
25.1956
 21
78.4782
  0
LINE
  8
0
 10
25.1956
 20
78.4782
 11
24.6431
 21
77.8646
  0
LINE
  8
0
 10
24.6431
 20
77.8646
 11
23.975
 21
77.3792
  0
LINE
  8
0
 10
23.975
 20
77.3792
 11
23.2206
 21
77.0433
  0
LINE
  8
0
 10
23.2206
 20
77.0433
 11
22.4129
 21
76.8716
  0
LINE
  8
0
 10
22.4129
 20
76.8716
 11
21.5871
 21
76.8716
  0
LINE
  8
0
 10
21.5871
 20
76.8716
 11
20.7794
 21
77.0433
  0
LINE
  8
0
 10
20.7794
 20
77.0433
 11
20.025
 21
77.3792
  0
LINE
  8
0
 10
20.025
 20
77.3792
 11
19.3569
 21
77.8646
  0
LINE
  8
0
 10
19.3569
 20
77.8646
 11
18.8044
 21
78.4782
  0
LINE
  8
0
 10
18.8044
 20
78.4782
 11
18.3915
 21
79.1934
  0
LINE
  8
0
 10
18.3915
 20
79.1934
 11
18.1363
 21
79.9787
  0
LINE
  8
0
 10
18.1363
 20
79.9787
 11
18.05
 21
80.8
  0
LINE
  8
0
 10
46.575
 20
-20.3
 11
46.575
 21
-14.3
  0
LINE
  8
0
 10
46.575
 20
-14.3
 11
61.575
 21
-14.3
  0
LINE
  8
0
 10
61.575
 20
-14.3
 11
61.575
 21
-20.3
  0
LINE
  8
0
 10
61.575
 20
-20.3
 11
46.575
 21
-20.3
  0
LINE
  8
0
 10
46.575
 20
14.3
 11
46.575
 21
20.3
  0
LINE
  8
0
 10
46.575
 20
20.3
 11
61.575
 21
20.3
  0
LINE
  8
0
 10
61.575
 20
20.3
 11
61.575
 21
14.3
  0
LINE
  8
0
 10
61.575
 20
14.3
 11
46.575
 21
14.3
  0
LINE
  8
0
 10
80.2
 20
-82.5
 11
80.2
 21
-67.5
  0
LINE
  8
0
 10
80.2
 20
-67.5
 11
83.2
 21
-67.5
  0
LINE
  8
0
 10
83.2
 20
-67.5
 11
83.2
 21
-82.5
  0
LINE
  8
0
 10
83.2
 20
-82.5
 11
80.2
 21
-82.5
  0
LINE
  8
0
 10
80.2
 20
-45
 11
80.2
 21
-30
  0
LINE
  8
0
 10
80.2
 20
-30
 11
83.2
 21
-30
  0
LINE
  8
0
 10
83.2
 20
-30
 11
83.2
 21
-45
  0
LINE
  8
0
 10
83.2
 20
-45
 11
80.2
 21
-45
  0
LINE
  8
0
 10
80.2
 20
-7.5
 11
80.2
 21
7.5
  0
LINE
  8
0
 10
80.2
 20
7.5
 11
83.2
 21
7.5
  0
LINE
  8
0
 10
83.2
 20
7.5
 11
83.2
 21
-7.5
  0
LINE
  8
0
 10
83.2
 20
-7.5
 11
80.2
 21
-7.5
  0
LINE
  8
0
 10
80.2
 20
30
 11
80.2
 21
45
  0
LINE
  8
0
 10
80.2
 20
45
 11
83.2
 21
45
  0
LINE
  8
0
 10
83.2
 20
45
 11
83.2
 21
30
  0
LINE
  8
0
 10
83.2
 20
30
 11
80.2
 21
30
  0
LINE
  8
0
 10
80.2
 20
67.5
 11
80.2
 21
82.5
  0
LINE
  8
0
 10
80.2
 20
82.5
 11
83.2
 21
82.5
  0
LINE
  8
0
 10
83.2
 20
82.5
 11
83.2
 21
67.5
  0
LINE
  8
0
 10
83.2
 20
67.5
 11
80.2
 21
67.5
  0
ENDSEC
  0
SECTION
  2
OBJECTS
  0
DICTIONARY
  0
ENDSEC
  0
EOF
