  0
SECTION
  2
BLOCKS
  0
ENDSEC
  0
SECTION
  2
ENTITIES
  0
LINE
  8
0
 10
-68.2
 20
-82.5
 11
-65.22
 21
-82.5
  0
LINE
  8
0
 10
-65.22
 20
-82.5
 11
-65.22
 21
-97
  0
LINE
  8
0
 10
-65.22
 20
-97
 11
-65.2196
 21
-97.0042
  0
LINE
  8
0
 10
-65.2196
 20
-97.0042
 11
-65.2183
 21
-97.0081
  0
LINE
  8
0
 10
-65.2183
 20
-97.0081
 11
-65.2162
 21
-97.0118
  0
LINE
  8
0
 10
-65.2162
 20
-97.0118
 11
-65.2134
 21
-97.0149
  0
LINE
  8
0
 10
-65.2134
 20
-97.0149
 11
-65.21
 21
-97.0173
  0
LINE
  8
0
 10
-65.21
 20
-97.0173
 11
-65.2062
 21
-97.019
  0
LINE
  8
0
 10
-65.2062
 20
-97.019
 11
-65.2021
 21
-97.0199
  0
LINE
  8
0
 10
-65.2021
 20
-97.0199
 11
-50.325
 21
-97.0199
  0
LINE
  8
0
 10
-50.325
 20
-97.0199
 11
-50.325
 21
-100
  0
LINE
  8
0
 10
-50.325
 20
-100
 11
-35.325
 21
-100
  0
LINE
  8
0
 10
-35.325
 20
-100
 11
-35.325
 21
-97.0199
  0
LINE
  8
0
 10
-35.325
 20
-97.0199
 11
-7.5
 21
-97.0199
  0
LINE
  8
0
 10
-7.5
 20
-97.0199
 11
-7.5
 21
-100
  0
LINE
  8
0
 10
-7.5
 20
-100
 11
7.5
 21
-100
  0
LINE
  8
0
 10
7.5
 20
-100
 11
7.5
 21
-97.0199
  0
LINE
  8
0
 10
7.5
 20
-97.0199
 11
35.325
 21
-97.0199
  0
LINE
  8
0
 10
35.325
 20
-97.0199
 11
35.325
 21
-100
  0
LINE
  8
0
 10
35.325
 20
-100
 11
50.325
 21
-100
  0
LINE
  8
0
 10
50.325
 20
-100
 11
50.325
 21
-97.0199
  0
LINE
  8
0
 10
50.325
 20
-97.0199
 11
65.2021
 21
-97.0199
  0
LINE
  8
0
 10
65.2021
 20
-97.0199
 11
65.2062
 21
-97.019
  0
LINE
  8
0
 10
65.2062
 20
-97.019
 11
65.21
 21
-97.0173
  0
LINE
  8
0
 10
65.21
 20
-97.0173
 11
65.2134
 21
-97.0149
  0
LINE
  8
0
 10
65.2134
 20
-97.0149
 11
65.2162
 21
-97.0118
  0
LINE
  8
0
 10
65.2162
 20
-97.0118
 11
65.2183
 21
-97.0081
  0
LINE
  8
0
 10
65.2183
 20
-97.0081
 11
65.2196
 21
-97.0042
  0
LINE
  8
0
 10
65.2196
 20
-97.0042
 11
65.22
 21
-97
  0
LINE
  8
0
 10
65.22
 20
-97
 11
65.22
 21
-82.5
  0
LINE
  8
0
 10
65.22
 20
-82.5
 11
68.2
 21
-82.5
  0
LINE
  8
0
 10
68.2
 20
-82.5
 11
68.2
 21
-67.5
  0
LINE
  8
0
 10
68.2
 20
-67.5
 11
65.22
 21
-67.5
  0
LINE
  8
0
 10
65.22
 20
-67.5
 11
65.22
 21
-45
  0
LINE
  8
0
 10
65.22
 20
-45
 11
68.2
 21
-45
  0
LINE
  8
0
 10
68.2
 20
-45
 11
68.2
 21
-30
  0
LINE
  8
0
 10
68.2
 20
-30
 11
65.22
 21
-30
  0
LINE
  8
0
 10
65.22
 20
-30
 11
65.22
 21
-7.5
  0
LINE
  8
0
 10
65.22
 20
-7.5
 11
68.2
 21
-7.5
  0
LINE
  8
0
 10
68.2
 20
-7.5
 11
68.2
 21
7.5
  0
LINE
  8
0
 10
68.2
 20
7.5
 11
65.22
 21
7.5
  0
LINE
  8
0
 10
65.22
 20
7.5
 11
65.22
 21
30
  0
LINE
  8
0
 10
65.22
 20
30
 11
68.2
 21
30
  0
LINE
  8
0
 10
68.2
 20
30
 11
68.2
 21
45
  0
LINE
  8
0
 10
68.2
 20
45
 11
65.22
 21
45
  0
LINE
  8
0
 10
65.22
 20
45
 11
65.22
 21
67.5
  0
LINE
  8
0
 10
65.22
 20
67.5
 11
68.2
 21
67.5
  0
LINE
  8
0
 10
68.2
 20
67.5
 11
68.2
 21
82.5
  0
LINE
  8
0
 10
68.2
 20
82.5
 11
65.22
 21
82.5
  0
LINE
  8
0
 10
65.22
 20
82.5
 11
65.22
 21
97
  0
LINE
  8
0
 10
65.22
 20
97
 11
65.2196
 21
97.0042
  0
LINE
  8
0
 10
65.2196
 20
97.0042
 11
65.2183
 21
97.0081
  0
LINE
  8
0
 10
65.2183
 20
97.0081
 11
65.2162
 21
97.0118
  0
LINE
  8
0
 10
65.2162
 20
97.0118
 11
65.2134
 21
97.0149
  0
LINE
  8
0
 10
65.2134
 20
97.0149
 11
65.21
 21
97.0173
  0
LINE
  8
0
 10
65.21
 20
97.0173
 11
65.2062
 21
97.019
  0
LINE
  8
0
 10
65.2062
 20
97.019
 11
65.2021
 21
97.0199
  0
LINE
  8
0
 10
65.2021
 20
97.0199
 11
50.325
 21
97.0199
  0
LINE
  8
0
 10
50.325
 20
97.0199
 11
50.325
 21
100
  0
LINE
  8
0
 10
50.325
 20
100
 11
35.325
 21
100
  0
LINE
  8
0
 10
35.325
 20
100
 11
35.325
 21
97.0199
  0
LINE
  8
0
 10
35.325
 20
97.0199
 11
7.5
 21
97.0199
  0
LINE
  8
0
 10
7.5
 20
97.0199
 11
7.5
 21
100
  0
LINE
  8
0
 10
7.5
 20
100
 11
-7.5
 21
100
  0
LINE
  8
0
 10
-7.5
 20
100
 11
-7.5
 21
97.0199
  0
LINE
  8
0
 10
-7.5
 20
97.0199
 11
-35.325
 21
97.0199
  0
LINE
  8
0
 10
-35.325
 20
97.0199
 11
-35.325
 21
100
  0
LINE
  8
0
 10
-35.325
 20
100
 11
-50.325
 21
100
  0
LINE
  8
0
 10
-50.325
 20
100
 11
-50.325
 21
97.0199
  0
LINE
  8
0
 10
-50.325
 20
97.0199
 11
-65.2021
 21
97.0199
  0
LINE
  8
0
 10
-65.2021
 20
97.0199
 11
-65.2062
 21
97.019
  0
LINE
  8
0
 10
-65.2062
 20
97.019
 11
-65.21
 21
97.0173
  0
LINE
  8
0
 10
-65.21
 20
97.0173
 11
-65.2134
 21
97.0149
  0
LINE
  8
0
 10
-65.2134
 20
97.0149
 11
-65.2162
 21
97.0118
  0
LINE
  8
0
 10
-65.2162
 20
97.0118
 11
-65.2183
 21
97.0081
  0
LINE
  8
0
 10
-65.2183
 20
97.0081
 11
-65.2196
 21
97.0042
  0
LINE
  8
0
 10
-65.2196
 20
97.0042
 11
-65.22
 21
97
  0
LINE
  8
0
 10
-65.22
 20
97
 11
-65.22
 21
82.5
  0
LINE
  8
0
 10
-65.22
 20
82.5
 11
-68.2
 21
82.5
  0
LINE
  8
0
 10
-68.2
 20
82.5
 11
-68.2
 21
67.5
  0
LINE
  8
0
 10
-68.2
 20
67.5
 11
-65.22
 21
67.5
  0
LINE
  8
0
 10
-65.22
 20
67.5
 11
-65.22
 21
45
  0
LINE
  8
0
 10
-65.22
 20
45
 11
-68.2
 21
45
  0
LINE
  8
0
 10
-68.2
 20
45
 11
-68.2
 21
30
  0
LINE
  8
0
 10
-68.2
 20
30
 11
-65.22
 21
30
  0
LINE
  8
0
 10
-65.22
 20
30
 11
-65.22
 21
7.5
  0
LINE
  8
0
 10
-65.22
 20
7.5
 11
-68.2
 21
7.5
  0
LINE
  8
0
 10
-68.2
 20
7.5
 11
-68.2
 21
-7.5
  0
LINE
  8
0
 10
-68.2
 20
-7.5
 11
-65.22
 21
-7.5
  0
LINE
  8
0
 10
-65.22
 20
-7.5
 11
-65.22
 21
-30
  0
LINE
  8
0
 10
-65.22
 20
-30
 11
-68.2
 21
-30
  0
LINE
  8
0
 10
-68.2
 20
-30
 11
-68.2
 21
-45
  0
LINE
  8
0
 10
-68.2
 20
-45
 11
-65.22
 21
-45
  0
LINE
  8
0
 10
-65.22
 20
-45
 11
-65.22
 21
-67.5
  0
LINE
  8
0
 10
-65.22
 20
-67.5
 11
-68.2
 21
-67.5
  0
LINE
  8
0
 10
-68.2
 20
-67.5
 11
-68.2
 21
-82.5
  0
LINE
  8
0
 10
-43.47
 20
-20
 11
-43.3935
 21
-19.2723
  0
LINE
  8
0
 10
-43.3935
 20
-19.2723
 11
-43.1674
 21
-18.5764
  0
LINE
  8
0
 10
-43.1674
 20
-18.5764
 11
-42.8016
 21
-17.9428
  0
LINE
  8
0
 10
-42.8016
 20
-17.9428
 11
-42.312
 21
-17.399
  0
LINE
  8
0
 10
-42.312
 20
-17.399
 11
-41.72
 21
-16.9689
  0
LINE
  8
0
 10
-41.72
 20
-16.9689
 11
-41.0516
 21
-16.6713
  0
LINE
  8
0
 10
-41.0516
 20
-16.6713
 11
-40.3358
 21
-16.5192
  0
LINE
  8
0
 10
-40.3358
 20
-16.5192
 11
-39.6042
 21
-16.5192
  0
LINE
  8
0
 10
-39.6042
 20
-16.5192
 11
-38.8884
 21
-16.6713
  0
LINE
  8
0
 10
-38.8884
 20
-16.6713
 11
-38.22
 21
-16.9689
  0
LINE
  8
0
 10
-38.22
 20
-16.9689
 11
-37.628
 21
-17.399
  0
LINE
  8
0
 10
-37.628
 20
-17.399
 11
-37.1384
 21
-17.9428
  0
LINE
  8
0
 10
-37.1384
 20
-17.9428
 11
-36.7726
 21
-18.5764
  0
LINE
  8
0
 10
-36.7726
 20
-18.5764
 11
-36.5465
 21
-19.2723
  0
LINE
  8
0
 10
-36.5465
 20
-19.2723
 11
-36.47
 21
-20
  0
LINE
  8
0
 10
-36.47
 20
-20
 11
-36.5465
 21
-20.7277
  0
LINE
  8
0
 10
-36.5465
 20
-20.7277
 11
-36.7726
 21
-21.4236
  0
LINE
  8
0
 10
-36.7726
 20
-21.4236
 11
-37.1384
 21
-22.0572
  0
LINE
  8
0
 10
-37.1384
 20
-22.0572
 11
-37.628
 21
-22.601
  0
LINE
  8
0
 10
-37.628
 20
-22.601
 11
-38.22
 21
-23.0311
  0
LINE
  8
0
 10
-38.22
 20
-23.0311
 11
-38.8884
 21
-23.3287
  0
LINE
  8
0
 10
-38.8884
 20
-23.3287
 11
-39.6042
 21
-23.4808
  0
LINE
  8
0
 10
-39.6042
 20
-23.4808
 11
-40.3358
 21
-23.4808
  0
LINE
  8
0
 10
-40.3358
 20
-23.4808
 11
-41.0516
 21
-23.3287
  0
LINE
  8
0
 10
-41.0516
 20
-23.3287
 11
-41.72
 21
-23.0311
  0
LINE
  8
0
 10
-41.72
 20
-23.0311
 11
-42.312
 21
-22.601
  0
LINE
  8
0
 10
-42.312
 20
-22.601
 11
-42.8016
 21
-22.0572
  0
LINE
  8
0
 10
-42.8016
 20
-22.0572
 11
-43.1674
 21
-21.4236
  0
LINE
  8
0
 10
-43.1674
 20
-21.4236
 11
-43.3935
 21
-20.7277
  0
LINE
  8
0
 10
-43.3935
 20
-20.7277
 11
-43.47
 21
-20
  0
LINE
  8
0
 10
-43.47
 20
20
 11
-43.3935
 21
20.7277
  0
LINE
  8
0
 10
-43.3935
 20
20.7277
 11
-43.1674
 21
21.4236
  0
LINE
  8
0
 10
-43.1674
 20
21.4236
 11
-42.8016
 21
22.0572
  0
LINE
  8
0
 10
-42.8016
 20
22.0572
 11
-42.312
 21
22.601
  0
LINE
  8
0
 10
-42.312
 20
22.601
 11
-41.72
 21
23.0311
  0
LINE
  8
0
 10
-41.72
 20
23.0311
 11
-41.0516
 21
23.3287
  0
LINE
  8
0
 10
-41.0516
 20
23.3287
 11
-40.3358
 21
23.4808
  0
LINE
  8
0
 10
-40.3358
 20
23.4808
 11
-39.6042
 21
23.4808
  0
LINE
  8
0
 10
-39.6042
 20
23.4808
 11
-38.8884
 21
23.3287
  0
LINE
  8
0
 10
-38.8884
 20
23.3287
 11
-38.22
 21
23.0311
  0
LINE
  8
0
 10
-38.22
 20
23.0311
 11
-37.628
 21
22.601
  0
LINE
  8
0
 10
-37.628
 20
22.601
 11
-37.1384
 21
22.0572
  0
LINE
  8
0
 10
-37.1384
 20
22.0572
 11
-36.7726
 21
21.4236
  0
LINE
  8
0
 10
-36.7726
 20
21.4236
 11
-36.5465
 21
20.7277
  0
LINE
  8
0
 10
-36.5465
 20
20.7277
 11
-36.47
 21
20
  0
LINE
  8
0
 10
-36.47
 20
20
 11
-36.5465
 21
19.2723
  0
LINE
  8
0
 10
-36.5465
 20
19.2723
 11
-36.7726
 21
18.5764
  0
LINE
  8
0
 10
-36.7726
 20
18.5764
 11
-37.1384
 21
17.9428
  0
LINE
  8
0
 10
-37.1384
 20
17.9428
 11
-37.628
 21
17.399
  0
LINE
  8
0
 10
-37.628
 20
17.399
 11
-38.22
 21
16.9689
  0
LINE
  8
0
 10
-38.22
 20
16.9689
 11
-38.8884
 21
16.6713
  0
LINE
  8
0
 10
-38.8884
 20
16.6713
 11
-39.6042
 21
16.5192
  0
LINE
  8
0
 10
-39.6042
 20
16.5192
 11
-40.3358
 21
16.5192
  0
LINE
  8
0
 10
-40.3358
 20
16.5192
 11
-41.0516
 21
16.6713
  0
LINE
  8
0
 10
-41.0516
 20
16.6713
 11
-41.72
 21
16.9689
  0
LINE
  8
0
 10
-41.72
 20
16.9689
 11
-42.312
 21
17.399
  0
LINE
  8
0
 10
-42.312
 20
17.399
 11
-42.8016
 21
17.9428
  0
LINE
  8
0
 10
-42.8016
 20
17.9428
 11
-43.1674
 21
18.5764
  0
LINE
  8
0
 10
-43.1674
 20
18.5764
 11
-43.3935
 21
19.2723
  0
LINE
  8
0
 10
-43.3935
 20
19.2723
 11
-43.47
 21
20
  0
LINE
  8
0
 10
-43.4508
 20
-63.1262
 11
-43.2987
 21
-62.4105
  0
LINE
  8
0
 10
-43.2987
 20
-62.4105
 11
-43.0011
 21
-61.7421
  0
LINE
  8
0
 10
-43.0011
 20
-61.7421
 11
-42.571
 21
-61.1501
  0
LINE
  8
0
 10
-42.571
 20
-61.1501
 11
-42.0272
 21
-60.6605
  0
LINE
  8
0
 10
-42.0272
 20
-60.6605
 11
-41.3936
 21
-60.2947
  0
LINE
  8
0
 10
-41.3936
 20
-60.2947
 11
-40.6977
 21
-60.0685
  0
LINE
  8
0
 10
-40.6977
 20
-60.0685
 11
-39.97
 21
-59.9921
  0
LINE
  8
0
 10
-39.97
 20
-59.9921
 11
-39.2423
 21
-60.0685
  0
LINE
  8
0
 10
-39.2423
 20
-60.0685
 11
-38.5464
 21
-60.2947
  0
LINE
  8
0
 10
-38.5464
 20
-60.2947
 11
-37.9128
 21
-60.6605
  0
LINE
  8
0
 10
-37.9128
 20
-60.6605
 11
-37.369
 21
-61.1501
  0
LINE
  8
0
 10
-37.369
 20
-61.1501
 11
-36.9389
 21
-61.7421
  0
LINE
  8
0
 10
-36.9389
 20
-61.7421
 11
-36.6413
 21
-62.4105
  0
LINE
  8
0
 10
-36.6413
 20
-62.4105
 11
-36.4892
 21
-63.1262
  0
LINE
  8
0
 10
-36.4892
 20
-63.1262
 11
-36.4892
 21
-63.8579
  0
LINE
  8
0
 10
-36.4892
 20
-63.8579
 11
-36.6413
 21
-64.5736
  0
LINE
  8
0
 10
-36.6413
 20
-64.5736
 11
-36.9389
 21
-65.2421
  0
LINE
  8
0
 10
-36.9389
 20
-65.2421
 11
-37.369
 21
-65.834
  0
LINE
  8
0
 10
-37.369
 20
-65.834
 11
-37.9128
 21
-66.3236
  0
LINE
  8
0
 10
-37.9128
 20
-66.3236
 11
-38.5464
 21
-66.6895
  0
LINE
  8
0
 10
-38.5464
 20
-66.6895
 11
-39.2423
 21
-66.9156
  0
LINE
  8
0
 10
-39.2423
 20
-66.9156
 11
-39.97
 21
-66.9921
  0
LINE
  8
0
 10
-39.97
 20
-66.9921
 11
-40.6977
 21
-66.9156
  0
LINE
  8
0
 10
-40.6977
 20
-66.9156
 11
-41.3936
 21
-66.6895
  0
LINE
  8
0
 10
-41.3936
 20
-66.6895
 11
-42.0272
 21
-66.3236
  0
LINE
  8
0
 10
-42.0272
 20
-66.3236
 11
-42.571
 21
-65.834
  0
LINE
  8
0
 10
-42.571
 20
-65.834
 11
-43.0011
 21
-65.2421
  0
LINE
  8
0
 10
-43.0011
 20
-65.2421
 11
-43.2987
 21
-64.5736
  0
LINE
  8
0
 10
-43.2987
 20
-64.5736
 11
-43.4508
 21
-63.8579
  0
LINE
  8
0
 10
-43.4508
 20
-63.8579
 11
-43.4508
 21
-63.1262
  0
LINE
  8
0
 10
-41.47
 20
-28.75
 11
-41.47
 21
-27.25
  0
LINE
  8
0
 10
-41.47
 20
-27.25
 11
-38.47
 21
-27.25
  0
LINE
  8
0
 10
-38.47
 20
-27.25
 11
-38.47
 21
-28.75
  0
LINE
  8
0
 10
-38.47
 20
-28.75
 11
-41.47
 21
-28.75
  0
LINE
  8
0
 10
-41.47
 20
11.25
 11
-41.47
 21
12.75
  0
LINE
  8
0
 10
-41.47
 20
12.75
 11
-38.47
 21
12.75
  0
LINE
  8
0
 10
-38.47
 20
12.75
 11
-38.47
 21
11.25
  0
LINE
  8
0
 10
-38.47
 20
11.25
 11
-41.47
 21
11.25
  0
LINE
  8
0
 10
-32.72
 20
-61.9921
 11
-31.22
 21
-61.9921
  0
LINE
  8
0
 10
-31.22
 20
-61.9921
 11
-31.22
 21
-64.9921
  0
LINE
  8
0
 10
-31.22
 20
-64.9921
 11
-32.72
 21
-64.9921
  0
LINE
  8
0
 10
-32.72
 20
-64.9921
 11
-32.72
 21
-61.9921
  0
LINE
  8
0
 10
-14.92
 20
-35
 11
-14.92
 21
35
  0
LINE
  8
0
 10
-14.92
 20
35
 11
35.08
 21
35
  0
LINE
  8
0
 10
35.08
 20
35
 11
35.08
 21
-35
  0
LINE
  8
0
 10
35.08
 20
-35
 11
-14.92
 21
-35
  0
LINE
  8
0
 10
-14.9008
 20
-63.1262
 11
-14.7487
 21
-62.4105
  0
LINE
  8
0
 10
-14.7487
 20
-62.4105
 11
-14.4511
 21
-61.7421
  0
LINE
  8
0
 10
-14.4511
 20
-61.7421
 11
-14.021
 21
-61.1501
  0
LINE
  8
0
 10
-14.021
 20
-61.1501
 11
-13.4772
 21
-60.6605
  0
LINE
  8
0
 10
-13.4772
 20
-60.6605
 11
-12.8436
 21
-60.2947
  0
LINE
  8
0
 10
-12.8436
 20
-60.2947
 11
-12.1477
 21
-60.0685
  0
LINE
  8
0
 10
-12.1477
 20
-60.0685
 11
-11.42
 21
-59.9921
  0
LINE
  8
0
 10
-11.42
 20
-59.9921
 11
-10.6923
 21
-60.0685
  0
LINE
  8
0
 10
-10.6923
 20
-60.0685
 11
-9.99642
 21
-60.2947
  0
LINE
  8
0
 10
-9.99642
 20
-60.2947
 11
-9.36275
 21
-60.6605
  0
LINE
  8
0
 10
-9.36275
 20
-60.6605
 11
-8.81899
 21
-61.1501
  0
LINE
  8
0
 10
-8.81899
 20
-61.1501
 11
-8.38891
 21
-61.7421
  0
LINE
  8
0
 10
-8.38891
 20
-61.7421
 11
-8.0913
 21
-62.4105
  0
LINE
  8
0
 10
-8.0913
 20
-62.4105
 11
-7.93917
 21
-63.1262
  0
LINE
  8
0
 10
-7.93917
 20
-63.1262
 11
-7.93917
 21
-63.8579
  0
LINE
  8
0
 10
-7.93917
 20
-63.8579
 11
-8.0913
 21
-64.5736
  0
LINE
  8
0
 10
-8.0913
 20
-64.5736
 11
-8.38891
 21
-65.2421
  0
LINE
  8
0
 10
-8.38891
 20
-65.2421
 11
-8.81899
 21
-65.834
  0
LINE
  8
0
 10
-8.81899
 20
-65.834
 11
-9.36275
 21
-66.3236
  0
LINE
  8
0
 10
-9.36275
 20
-66.3236
 11
-9.99642
 21
-66.6895
  0
LINE
  8
0
 10
-9.99642
 20
-66.6895
 11
-10.6923
 21
-66.9156
  0
LINE
  8
0
 10
-10.6923
 20
-66.9156
 11
-11.42
 21
-66.9921
  0
LINE
  8
0
 10
-11.42
 20
-66.9921
 11
-12.1477
 21
-66.9156
  0
LINE
  8
0
 10
-12.1477
 20
-66.9156
 11
-12.8436
 21
-66.6895
  0
LINE
  8
0
 10
-12.8436
 20
-66.6895
 11
-13.4772
 21
-66.3236
  0
LINE
  8
0
 10
-13.4772
 20
-66.3236
 11
-14.021
 21
-65.834
  0
LINE
  8
0
 10
-14.021
 20
-65.834
 11
-14.4511
 21
-65.2421
  0
LINE
  8
0
 10
-14.4511
 20
-65.2421
 11
-14.7487
 21
-64.5736
  0
LINE
  8
0
 10
-14.7487
 20
-64.5736
 11
-14.9008
 21
-63.8579
  0
LINE
  8
0
 10
-14.9008
 20
-63.8579
 11
-14.9008
 21
-63.1262
  0
LINE
  8
0
 10
-4.17
 20
-61.9921
 11
-2.67
 21
-61.9921
  0
LINE
  8
0
 10
-2.67
 20
-61.9921
 11
-2.67
 21
-64.9921
  0
LINE
  8
0
 10
-2.67
 20
-64.9921
 11
-4.17
 21
-64.9921
  0
LINE
  8
0
 10
-4.17
 20
-64.9921
 11
-4.17
 21
-61.9921
  0
LINE
  8
0
 10
13.6492
 20
-63.1262
 11
13.8013
 21
-62.4105
  0
LINE
  8
0
 10
13.8013
 20
-62.4105
 11
14.0989
 21
-61.7421
  0
LINE
  8
0
 10
14.0989
 20
-61.7421
 11
14.529
 21
-61.1501
  0
LINE
  8
0
 10
14.529
 20
-61.1501
 11
15.0728
 21
-60.6605
  0
LINE
  8
0
 10
15.0728
 20
-60.6605
 11
15.7064
 21
-60.2947
  0
LINE
  8
0
 10
15.7064
 20
-60.2947
 11
16.4023
 21
-60.0685
  0
LINE
  8
0
 10
16.4023
 20
-60.0685
 11
17.13
 21
-59.9921
  0
LINE
  8
0
 10
17.13
 20
-59.9921
 11
17.8577
 21
-60.0685
  0
LINE
  8
0
 10
17.8577
 20
-60.0685
 11
18.5536
 21
-60.2947
  0
LINE
  8
0
 10
18.5536
 20
-60.2947
 11
19.1872
 21
-60.6605
  0
LINE
  8
0
 10
19.1872
 20
-60.6605
 11
19.731
 21
-61.1501
  0
LINE
  8
0
 10
19.731
 20
-61.1501
 11
20.1611
 21
-61.7421
  0
LINE
  8
0
 10
20.1611
 20
-61.7421
 11
20.4587
 21
-62.4105
  0
LINE
  8
0
 10
20.4587
 20
-62.4105
 11
20.6108
 21
-63.1262
  0
LINE
  8
0
 10
20.6108
 20
-63.1262
 11
20.6108
 21
-63.8579
  0
LINE
  8
0
 10
20.6108
 20
-63.8579
 11
20.4587
 21
-64.5736
  0
LINE
  8
0
 10
20.4587
 20
-64.5736
 11
20.1611
 21
-65.2421
  0
LINE
  8
0
 10
20.1611
 20
-65.2421
 11
19.731
 21
-65.834
  0
LINE
  8
0
 10
19.731
 20
-65.834
 11
19.1872
 21
-66.3236
  0
LINE
  8
0
 10
19.1872
 20
-66.3236
 11
18.5536
 21
-66.6895
  0
LINE
  8
0
 10
18.5536
 20
-66.6895
 11
17.8577
 21
-66.9156
  0
LINE
  8
0
 10
17.8577
 20
-66.9156
 11
17.13
 21
-66.9921
  0
LINE
  8
0
 10
17.13
 20
-66.9921
 11
16.4023
 21
-66.9156
  0
LINE
  8
0
 10
16.4023
 20
-66.9156
 11
15.7064
 21
-66.6895
  0
LINE
  8
0
 10
15.7064
 20
-66.6895
 11
15.0728
 21
-66.3236
  0
LINE
  8
0
 10
15.0728
 20
-66.3236
 11
14.529
 21
-65.834
  0
LINE
  8
0
 10
14.529
 20
-65.834
 11
14.0989
 21
-65.2421
  0
LINE
  8
0
 10
14.0989
 20
-65.2421
 11
13.8013
 21
-64.5736
  0
LINE
  8
0
 10
13.8013
 20
-64.5736
 11
13.6492
 21
-63.8579
  0
LINE
  8
0
 10
13.6492
 20
-63.8579
 11
13.6492
 21
-63.1262
  0
LINE
  8
0
 10
24.38
 20
-61.9921
 11
25.88
 21
-61.9921
  0
LINE
  8
0
 10
25.88
 20
-61.9921
 11
25.88
 21
-64.9921
  0
LINE
  8
0
 10
25.88
 20
-64.9921
 11
24.38
 21
-64.9921
  0
LINE
  8
0
 10
24.38
 20
-64.9921
 11
24.38
 21
-61.9921
  0
LINE
  8
0
 10
38.7
 20
-75.4921
 11
38.8748
 21
-73.8288
  0
LINE
  8
0
 10
38.8748
 20
-73.8288
 11
39.3916
 21
-72.2382
  0
LINE
  8
0
 10
39.3916
 20
-72.2382
 11
40.2279
 21
-70.7898
  0
LINE
  8
0
 10
40.2279
 20
-70.7898
 11
41.347
 21
-69.5469
  0
LINE
  8
0
 10
41.347
 20
-69.5469
 11
42.7
 21
-68.5639
  0
LINE
  8
0
 10
42.7
 20
-68.5639
 11
44.2279
 21
-67.8836
  0
LINE
  8
0
 10
44.2279
 20
-67.8836
 11
45.8638
 21
-67.5359
  0
LINE
  8
0
 10
45.8638
 20
-67.5359
 11
47.5362
 21
-67.5359
  0
LINE
  8
0
 10
47.5362
 20
-67.5359
 11
49.1721
 21
-67.8836
  0
LINE
  8
0
 10
49.1721
 20
-67.8836
 11
50.7
 21
-68.5639
  0
LINE
  8
0
 10
50.7
 20
-68.5639
 11
52.053
 21
-69.5469
  0
LINE
  8
0
 10
52.053
 20
-69.5469
 11
53.1721
 21
-70.7898
  0
LINE
  8
0
 10
53.1721
 20
-70.7898
 11
54.0084
 21
-72.2382
  0
LINE
  8
0
 10
54.0084
 20
-72.2382
 11
54.5252
 21
-73.8288
  0
LINE
  8
0
 10
54.5252
 20
-73.8288
 11
54.7
 21
-75.4921
  0
LINE
  8
0
 10
54.7
 20
-75.4921
 11
54.5252
 21
-77.1554
  0
LINE
  8
0
 10
54.5252
 20
-77.1554
 11
54.0084
 21
-78.746
  0
LINE
  8
0
 10
54.0084
 20
-78.746
 11
53.1721
 21
-80.1943
  0
LINE
  8
0
 10
53.1721
 20
-80.1943
 11
52.053
 21
-81.4372
  0
LINE
  8
0
 10
52.053
 20
-81.4372
 11
50.7
 21
-82.4203
  0
LINE
  8
0
 10
50.7
 20
-82.4203
 11
49.1721
 21
-83.1005
  0
LINE
  8
0
 10
49.1721
 20
-83.1005
 11
47.5362
 21
-83.4482
  0
LINE
  8
0
 10
47.5362
 20
-83.4482
 11
45.8638
 21
-83.4482
  0
LINE
  8
0
 10
45.8638
 20
-83.4482
 11
44.2279
 21
-83.1005
  0
LINE
  8
0
 10
44.2279
 20
-83.1005
 11
42.7
 21
-82.4203
  0
LINE
  8
0
 10
42.7
 20
-82.4203
 11
41.347
 21
-81.4372
  0
LINE
  8
0
 10
41.347
 20
-81.4372
 11
40.2279
 21
-80.1943
  0
LINE
  8
0
 10
40.2279
 20
-80.1943
 11
39.3916
 21
-78.746
  0
LINE
  8
0
 10
39.3916
 20
-78.746
 11
38.8748
 21
-77.1554
  0
LINE
  8
0
 10
38.8748
 20
-77.1554
 11
38.7
 21
-75.4921
  0
LINE
  8
0
 10
38.7
 20
-51.4921
 11
38.8748
 21
-49.8288
  0
LINE
  8
0
 10
38.8748
 20
-49.8288
 11
39.3916
 21
-48.2382
  0
LINE
  8
0
 10
39.3916
 20
-48.2382
 11
40.2279
 21
-46.7898
  0
LINE
  8
0
 10
40.2279
 20
-46.7898
 11
41.347
 21
-45.5469
  0
LINE
  8
0
 10
41.347
 20
-45.5469
 11
42.7
 21
-44.5639
  0
LINE
  8
0
 10
42.7
 20
-44.5639
 11
44.2279
 21
-43.8836
  0
LINE
  8
0
 10
44.2279
 20
-43.8836
 11
45.8638
 21
-43.5359
  0
LINE
  8
0
 10
45.8638
 20
-43.5359
 11
47.5362
 21
-43.5359
  0
LINE
  8
0
 10
47.5362
 20
-43.5359
 11
49.1721
 21
-43.8836
  0
LINE
  8
0
 10
49.1721
 20
-43.8836
 11
50.7
 21
-44.5639
  0
LINE
  8
0
 10
50.7
 20
-44.5639
 11
52.053
 21
-45.5469
  0
LINE
  8
0
 10
52.053
 20
-45.5469
 11
53.1721
 21
-46.7898
  0
LINE
  8
0
 10
53.1721
 20
-46.7898
 11
54.0084
 21
-48.2382
  0
LINE
  8
0
 10
54.0084
 20
-48.2382
 11
54.5252
 21
-49.8288
  0
LINE
  8
0
 10
54.5252
 20
-49.8288
 11
54.7
 21
-51.4921
  0
LINE
  8
0
 10
54.7
 20
-51.4921
 11
54.5252
 21
-53.1554
  0
LINE
  8
0
 10
54.5252
 20
-53.1554
 11
54.0084
 21
-54.746
  0
LINE
  8
0
 10
54.0084
 20
-54.746
 11
53.1721
 21
-56.1943
  0
LINE
  8
0
 10
53.1721
 20
-56.1943
 11
52.053
 21
-57.4372
  0
LINE
  8
0
 10
52.053
 20
-57.4372
 11
50.7
 21
-58.4203
  0
LINE
  8
0
 10
50.7
 20
-58.4203
 11
49.1721
 21
-59.1005
  0
LINE
  8
0
 10
49.1721
 20
-59.1005
 11
47.5362
 21
-59.4482
  0
LINE
  8
0
 10
47.5362
 20
-59.4482
 11
45.8638
 21
-59.4482
  0
LINE
  8
0
 10
45.8638
 20
-59.4482
 11
44.2279
 21
-59.1005
  0
LINE
  8
0
 10
44.2279
 20
-59.1005
 11
42.7
 21
-58.4203
  0
LINE
  8
0
 10
42.7
 20
-58.4203
 11
41.347
 21
-57.4372
  0
LINE
  8
0
 10
41.347
 20
-57.4372
 11
40.2279
 21
-56.1943
  0
LINE
  8
0
 10
40.2279
 20
-56.1943
 11
39.3916
 21
-54.746
  0
LINE
  8
0
 10
39.3916
 20
-54.746
 11
38.8748
 21
-53.1554
  0
LINE
  8
0
 10
38.8748
 20
-53.1554
 11
38.7
 21
-51.4921
  0
LINE
  8
0
 10
44.5
 20
-26.4
 11
44.5656
 21
-25.7763
  0
LINE
  8
0
 10
44.5656
 20
-25.7763
 11
44.7594
 21
-25.1798
  0
LINE
  8
0
 10
44.7594
 20
-25.1798
 11
45.0729
 21
-24.6366
  0
LINE
  8
0
 10
45.0729
 20
-24.6366
 11
45.4926
 21
-24.1706
  0
LINE
  8
0
 10
45.4926
 20
-24.1706
 11
46
 21
-23.8019
  0
LINE
  8
0
 10
46
 20
-23.8019
 11
46.5729
 21
-23.5468
  0
LINE
  8
0
 10
46.5729
 20
-23.5468
 11
47.1864
 21
-23.4164
  0
LINE
  8
0
 10
47.1864
 20
-23.4164
 11
47.8136
 21
-23.4164
  0
LINE
  8
0
 10
47.8136
 20
-23.4164
 11
48.4271
 21
-23.5468
  0
LINE
  8
0
 10
48.4271
 20
-23.5468
 11
49
 21
-23.8019
  0
LINE
  8
0
 10
49
 20
-23.8019
 11
49.5074
 21
-24.1706
  0
LINE
  8
0
 10
49.5074
 20
-24.1706
 11
49.9271
 21
-24.6366
  0
LINE
  8
0
 10
49.9271
 20
-24.6366
 11
50.2406
 21
-25.1798
  0
LINE
  8
0
 10
50.2406
 20
-25.1798
 11
50.4344
 21
-25.7763
  0
LINE
  8
0
 10
50.4344
 20
-25.7763
 11
50.5
 21
-26.4
  0
LINE
  8
0
 10
50.5
 20
-26.4
 11
50.4344
 21
-27.0237
  0
LINE
  8
0
 10
50.4344
 20
-27.0237
 11
50.2406
 21
-27.6202
  0
LINE
  8
0
 10
50.2406
 20
-27.6202
 11
49.9271
 21
-28.1634
  0
LINE
  8
0
 10
49.9271
 20
-28.1634
 11
49.5074
 21
-28.6294
  0
LINE
  8
0
 10
49.5074
 20
-28.6294
 11
49
 21
-28.9981
  0
LINE
  8
0
 10
49
 20
-28.9981
 11
48.4271
 21
-29.2532
  0
LINE
  8
0
 10
48.4271
 20
-29.2532
 11
47.8136
 21
-29.3836
  0
LINE
  8
0
 10
47.8136
 20
-29.3836
 11
47.1864
 21
-29.3836
  0
LINE
  8
0
 10
47.1864
 20
-29.3836
 11
46.5729
 21
-29.2532
  0
LINE
  8
0
 10
46.5729
 20
-29.2532
 11
46
 21
-28.9981
  0
LINE
  8
0
 10
46
 20
-28.9981
 11
45.4926
 21
-28.6294
  0
LINE
  8
0
 10
45.4926
 20
-28.6294
 11
45.0729
 21
-28.1634
  0
LINE
  8
0
 10
45.0729
 20
-28.1634
 11
44.7594
 21
-27.6202
  0
LINE
  8
0
 10
44.7594
 20
-27.6202
 11
44.5656
 21
-27.0237
  0
LINE
  8
0
 10
44.5656
 20
-27.0237
 11
44.5
 21
-26.4
  0
LINE
  8
0
 10
44.5
 20
-8.8
 11
44.5656
 21
-8.17627
  0
LINE
  8
0
 10
44.5656
 20
-8.17627
 11
44.7594
 21
-7.57979
  0
LINE
  8
0
 10
44.7594
 20
-7.57979
 11
45.0729
 21
-7.03664
  0
LINE
  8
0
 10
45.0729
 20
-7.03664
 11
45.4926
 21
-6.57057
  0
LINE
  8
0
 10
45.4926
 20
-6.57057
 11
46
 21
-6.20192
  0
LINE
  8
0
 10
46
 20
-6.20192
 11
46.5729
 21
-5.94683
  0
LINE
  8
0
 10
46.5729
 20
-5.94683
 11
47.1864
 21
-5.81643
  0
LINE
  8
0
 10
47.1864
 20
-5.81643
 11
47.8136
 21
-5.81643
  0
LINE
  8
0
 10
47.8136
 20
-5.81643
 11
48.4271
 21
-5.94683
  0
LINE
  8
0
 10
48.4271
 20
-5.94683
 11
49
 21
-6.20192
  0
LINE
  8
0
 10
49
 20
-6.20192
 11
49.5074
 21
-6.57057
  0
LINE
  8
0
 10
49.5074
 20
-6.57057
 11
49.9271
 21
-7.03664
  0
LINE
  8
0
 10
49.9271
 20
-7.03664
 11
50.2406
 21
-7.57979
  0
LINE
  8
0
 10
50.2406
 20
-7.57979
 11
50.4344
 21
-8.17627
  0
LINE
  8
0
 10
50.4344
 20
-8.17627
 11
50.5
 21
-8.8
  0
LINE
  8
0
 10
50.5
 20
-8.8
 11
50.4344
 21
-9.42373
  0
LINE
  8
0
 10
50.4344
 20
-9.42373
 11
50.2406
 21
-10.0202
  0
LINE
  8
0
 10
50.2406
 20
-10.0202
 11
49.9271
 21
-10.5634
  0
LINE
  8
0
 10
49.9271
 20
-10.5634
 11
49.5074
 21
-11.0294
  0
LINE
  8
0
 10
49.5074
 20
-11.0294
 11
49
 21
-11.3981
  0
LINE
  8
0
 10
49
 20
-11.3981
 11
48.4271
 21
-11.6532
  0
LINE
  8
0
 10
48.4271
 20
-11.6532
 11
47.8136
 21
-11.7836
  0
LINE
  8
0
 10
47.8136
 20
-11.7836
 11
47.1864
 21
-11.7836
  0
LINE
  8
0
 10
47.1864
 20
-11.7836
 11
46.5729
 21
-11.6532
  0
LINE
  8
0
 10
46.5729
 20
-11.6532
 11
46
 21
-11.3981
  0
LINE
  8
0
 10
46
 20
-11.3981
 11
45.4926
 21
-11.0294
  0
LINE
  8
0
 10
45.4926
 20
-11.0294
 11
45.0729
 21
-10.5634
  0
LINE
  8
0
 10
45.0729
 20
-10.5634
 11
44.7594
 21
-10.0202
  0
LINE
  8
0
 10
44.7594
 20
-10.0202
 11
44.5656
 21
-9.42373
  0
LINE
  8
0
 10
44.5656
 20
-9.42373
 11
44.5
 21
-8.8
  0
LINE
  8
0
 10
44.5
 20
8.8
 11
44.5656
 21
9.42373
  0
LINE
  8
0
 10
44.5656
 20
9.42373
 11
44.7594
 21
10.0202
  0
LINE
  8
0
 10
44.7594
 20
10.0202
 11
45.0729
 21
10.5634
  0
LINE
  8
0
 10
45.0729
 20
10.5634
 11
45.4926
 21
11.0294
  0
LINE
  8
0
 10
45.4926
 20
11.0294
 11
46
 21
11.3981
  0
LINE
  8
0
 10
46
 20
11.3981
 11
46.5729
 21
11.6532
  0
LINE
  8
0
 10
46.5729
 20
11.6532
 11
47.1864
 21
11.7836
  0
LINE
  8
0
 10
47.1864
 20
11.7836
 11
47.8136
 21
11.7836
  0
LINE
  8
0
 10
47.8136
 20
11.7836
 11
48.4271
 21
11.6532
  0
LINE
  8
0
 10
48.4271
 20
11.6532
 11
49
 21
11.3981
  0
LINE
  8
0
 10
49
 20
11.3981
 11
49.5074
 21
11.0294
  0
LINE
  8
0
 10
49.5074
 20
11.0294
 11
49.9271
 21
10.5634
  0
LINE
  8
0
 10
49.9271
 20
10.5634
 11
50.2406
 21
10.0202
  0
LINE
  8
0
 10
50.2406
 20
10.0202
 11
50.4344
 21
9.42373
  0
LINE
  8
0
 10
50.4344
 20
9.42373
 11
50.5
 21
8.8
  0
LINE
  8
0
 10
50.5
 20
8.8
 11
50.4344
 21
8.17627
  0
LINE
  8
0
 10
50.4344
 20
8.17627
 11
50.2406
 21
7.57979
  0
LINE
  8
0
 10
50.2406
 20
7.57979
 11
49.9271
 21
7.03664
  0
LINE
  8
0
 10
49.9271
 20
7.03664
 11
49.5074
 21
6.57057
  0
LINE
  8
0
 10
49.5074
 20
6.57057
 11
49
 21
6.20192
  0
LINE
  8
0
 10
49
 20
6.20192
 11
48.4271
 21
5.94683
  0
LINE
  8
0
 10
48.4271
 20
5.94683
 11
47.8136
 21
5.81643
  0
LINE
  8
0
 10
47.8136
 20
5.81643
 11
47.1864
 21
5.81643
  0
LINE
  8
0
 10
47.1864
 20
5.81643
 11
46.5729
 21
5.94683
  0
LINE
  8
0
 10
46.5729
 20
5.94683
 11
46
 21
6.20192
  0
LINE
  8
0
 10
46
 20
6.20192
 11
45.4926
 21
6.57057
  0
LINE
  8
0
 10
45.4926
 20
6.57057
 11
45.0729
 21
7.03664
  0
LINE
  8
0
 10
45.0729
 20
7.03664
 11
44.7594
 21
7.57979
  0
LINE
  8
0
 10
44.7594
 20
7.57979
 11
44.5656
 21
8.17627
  0
LINE
  8
0
 10
44.5656
 20
8.17627
 11
44.5
 21
8.8
  0
LINE
  8
0
 10
44.5
 20
26.4
 11
44.5656
 21
27.0237
  0
LINE
  8
0
 10
44.5656
 20
27.0237
 11
44.7594
 21
27.6202
  0
LINE
  8
0
 10
44.7594
 20
27.6202
 11
45.0729
 21
28.1634
  0
LINE
  8
0
 10
45.0729
 20
28.1634
 11
45.4926
 21
28.6294
  0
LINE
  8
0
 10
45.4926
 20
28.6294
 11
46
 21
28.9981
  0
LINE
  8
0
 10
46
 20
28.9981
 11
46.5729
 21
29.2532
  0
LINE
  8
0
 10
46.5729
 20
29.2532
 11
47.1864
 21
29.3836
  0
LINE
  8
0
 10
47.1864
 20
29.3836
 11
47.8136
 21
29.3836
  0
LINE
  8
0
 10
47.8136
 20
29.3836
 11
48.4271
 21
29.2532
  0
LINE
  8
0
 10
48.4271
 20
29.2532
 11
49
 21
28.9981
  0
LINE
  8
0
 10
49
 20
28.9981
 11
49.5074
 21
28.6294
  0
LINE
  8
0
 10
49.5074
 20
28.6294
 11
49.9271
 21
28.1634
  0
LINE
  8
0
 10
49.9271
 20
28.1634
 11
50.2406
 21
27.6202
  0
LINE
  8
0
 10
50.2406
 20
27.6202
 11
50.4344
 21
27.0237
  0
LINE
  8
0
 10
50.4344
 20
27.0237
 11
50.5
 21
26.4
  0
LINE
  8
0
 10
50.5
 20
26.4
 11
50.4344
 21
25.7763
  0
LINE
  8
0
 10
50.4344
 20
25.7763
 11
50.2406
 21
25.1798
  0
LINE
  8
0
 10
50.2406
 20
25.1798
 11
49.9271
 21
24.6366
  0
LINE
  8
0
 10
49.9271
 20
24.6366
 11
49.5074
 21
24.1706
  0
LINE
  8
0
 10
49.5074
 20
24.1706
 11
49
 21
23.8019
  0
LINE
  8
0
 10
49
 20
23.8019
 11
48.4271
 21
23.5468
  0
LINE
  8
0
 10
48.4271
 20
23.5468
 11
47.8136
 21
23.4164
  0
LINE
  8
0
 10
47.8136
 20
23.4164
 11
47.1864
 21
23.4164
  0
LINE
  8
0
 10
47.1864
 20
23.4164
 11
46.5729
 21
23.5468
  0
LINE
  8
0
 10
46.5729
 20
23.5468
 11
46
 21
23.8019
  0
LINE
  8
0
 10
46
 20
23.8019
 11
45.4926
 21
24.1706
  0
LINE
  8
0
 10
45.4926
 20
24.1706
 11
45.0729
 21
24.6366
  0
LINE
  8
0
 10
45.0729
 20
24.6366
 11
44.7594
 21
25.1798
  0
LINE
  8
0
 10
44.7594
 20
25.1798
 11
44.5656
 21
25.7763
  0
LINE
  8
0
 10
44.5656
 20
25.7763
 11
44.5
 21
26.4
  0
ENDSEC
  0
SECTION
  2
OBJECTS
  0
DICTIONARY
  0
ENDSEC
  0
EOF
