<?xml version="1.0" standalone="no"?>
<!DOCTYPE svg PUBLIC "-//W3C//DTD SVG 1.1//EN" "http://www.w3.org/Graphics/SVG/1.1/DTD/svg11.dtd">
<svg width="64" height="64" viewBox="-32 -32 64 64" xmlns="http://www.w3.org/2000/svg" version="1.1">
<title>OpenSCAD Model</title>
<path d="
M -31.25,-0 L -31.1739,2.17989 L -30.9459,4.34916 L -30.5671,6.49724 L -30.0394,8.61367 L -29.3654,10.6881
 L -28.5483,12.7105 L -27.5921,14.671 L -26.5015,16.56 L -25.2818,18.3683 L -23.9389,20.0871 L -22.4794,21.7081
 L -20.9103,23.2233 L -19.2394,24.6253 L -17.4748,25.9074 L -15.625,27.0633 L -13.6991,28.0873 L -11.7065,28.9745
 L -9.65678,29.7205 L -7.56006,30.3217 L -5.42651,30.7752 L -3.26651,31.0788 L -1.09061,31.231 L 1.09061,31.231
 L 3.26651,31.0788 L 5.42651,30.7752 L 7.56006,30.3217 L 9.65678,29.7205 L 11.7065,28.9745 L 13.6991,28.0873
 L 15.625,27.0633 L 17.4748,25.9074 L 19.2394,24.6253 L 20.9103,23.2233 L 22.4794,21.7081 L 23.9389,20.0871
 L 25.2818,18.3683 L 26.5015,16.56 L 27.5921,14.671 L 28.5483,12.7105 L 29.3654,10.6881 L 30.0394,8.61367
 L 30.5671,6.49724 L 30.9459,4.34916 L 31.1739,2.17989 L 31.25,-0 L 31.1739,-2.17989 L 30.9459,-4.34916
 L 30.5671,-6.49724 L 30.0394,-8.61367 L 29.3654,-10.6881 L 28.5483,-12.7105 L 27.5921,-14.671 L 26.5015,-16.56
 L 25.2818,-18.3683 L 23.9389,-20.0871 L 22.4794,-21.7081 L 20.9103,-23.2233 L 19.2394,-24.6253 L 17.4748,-25.9074
 L 15.625,-27.0633 L 13.6991,-28.0873 L 11.7065,-28.9745 L 9.65678,-29.7205 L 7.56006,-30.3217 L 5.42651,-30.7752
 L 3.26651,-31.0788 L 1.09061,-31.231 L -1.09061,-31.231 L -3.26651,-31.0788 L -5.42651,-30.7752 L -7.56006,-30.3217
 L -9.65678,-29.7205 L -11.7065,-28.9745 L -13.6991,-28.0873 L -15.625,-27.0633 L -17.4748,-25.9074 L -19.2394,-24.6253
 L -20.9103,-23.2233 L -22.4794,-21.7081 L -23.9389,-20.0871 L -25.2818,-18.3683 L -26.5015,-16.56 L -27.5921,-14.671
 L -28.5483,-12.7105 L -29.3654,-10.6881 L -30.0394,-8.61367 L -30.5671,-6.49724 L -30.9459,-4.34916 L -31.1739,-2.17989
 z
M -8.0975,4.99695 L -8.0975,-4.99695 L 8.0975,-4.99695 L 8.0975,4.99695 z
" stroke="black" fill="lightgray" stroke-width="0.5"/></svg>
