<?xml version="1.0" standalone="no"?>
<!DOCTYPE svg PUBLIC "-//W3C//DTD SVG 1.1//EN" "http://www.w3.org/Graphics/SVG/1.1/DTD/svg11.dtd">
<svg width="16" height="16" viewBox="-8 -8 16 16" xmlns="http://www.w3.org/2000/svg" version="1.1">
<title>OpenSCAD Model</title>
<path d="
M -7.5,-0 L -7.45891,0.783963 L -7.33611,1.55934 L -7.13292,2.31763 L -6.85159,3.05052 L -6.49519,3.75
 L -6.06763,4.40839 L -5.57359,5.01848 L -5.01848,5.57359 L -4.40839,6.06763 L -3.75,6.49519 L -3.05052,6.85159
 L -2.31763,7.13292 L -1.55934,7.33611 L -0.783963,7.45891 L 0,7.5 L 0.783963,7.45891 L 1.55934,7.33611
 L 2.31763,7.13292 L 3.05052,6.85159 L 3.75,6.49519 L 4.40839,6.06763 L 5.01848,5.57359 L 5.57359,5.01848
 L 6.06763,4.40839 L 6.49519,3.75 L 6.85159,3.05052 L 7.13292,2.31763 L 7.33611,1.55934 L 7.45891,0.783963
 L 7.5,-0 L 7.45891,-0.783963 L 7.33611,-1.55934 L 7.13292,-2.31763 L 6.85159,-3.05052 L 6.49519,-3.75
 L 6.06763,-4.40839 L 5.57359,-5.01848 L 5.01848,-5.57359 L 4.40839,-6.06763 L 3.75,-6.49519 L 3.05052,-6.85159
 L 2.31763,-7.13292 L 1.55934,-7.33611 L 0.783963,-7.45891 L 0,-7.5 L -0.783963,-7.45891 L -1.55934,-7.33611
 L -2.31763,-7.13292 L -3.05052,-6.85159 L -3.75,-6.49519 L -4.40839,-6.06763 L -5.01848,-5.57359 L -5.57359,-5.01848
 L -6.06763,-4.40839 L -6.49519,-3.75 L -6.85159,-3.05052 L -7.13292,-2.31763 L -7.33611,-1.55934 L -7.45891,-0.783963
 z
M -1.575,-0 L -1.56637,-0.164632 L -1.54058,-0.32746 L -1.49791,-0.486701 L -1.43883,-0.64061 L -1.36399,-0.787499
 L -1.2742,-0.925761 L -1.17045,-1.05388 L -1.05388,-1.17045 L -0.925761,-1.2742 L -0.787499,-1.36399 L -0.64061,-1.43883
 L -0.486701,-1.49791 L -0.32746,-1.54058 L -0.164632,-1.56637 L 0,-1.575 L 0.164632,-1.56637 L 0.32746,-1.54058
 L 0.486701,-1.49791 L 0.64061,-1.43883 L 0.787499,-1.36399 L 0.925761,-1.2742 L 1.05388,-1.17045 L 1.17045,-1.05388
 L 1.2742,-0.925761 L 1.36399,-0.787499 L 1.43883,-0.64061 L 1.49791,-0.486701 L 1.54058,-0.32746 L 1.56637,-0.164632
 L 1.575,-0 L 1.56637,0.164632 L 1.54058,0.32746 L 1.49791,0.486701 L 1.43883,0.64061 L 1.36399,0.787499
 L 1.2742,0.925761 L 1.17045,1.05388 L 1.05388,1.17045 L 0.925761,1.2742 L 0.787499,1.36399 L 0.64061,1.43883
 L 0.486701,1.49791 L 0.32746,1.54058 L 0.164632,1.56637 L 0,1.575 L -0.164632,1.56637 L -0.32746,1.54058
 L -0.486701,1.49791 L -0.64061,1.43883 L -0.787499,1.36399 L -0.925761,1.2742 L -1.05388,1.17045 L -1.17045,1.05388
 L -1.2742,0.925761 L -1.36399,0.787499 L -1.43883,0.64061 L -1.49791,0.486701 L -1.54058,0.32746 L -1.56637,0.164632
 z
" stroke="black" fill="lightgray" stroke-width="0.5"/></svg>
