  0
SECTION
  2
BLOCKS
  0
ENDSEC
  0
SECTION
  2
ENTITIES
  0
LINE
  8
0
 10
-68.2
 20
-82.5
 11
-65.22
 21
-82.5
  0
LINE
  8
0
 10
-65.22
 20
-82.5
 11
-65.22
 21
-97
  0
LINE
  8
0
 10
-65.22
 20
-97
 11
-65.22
 21
-97.0014
  0
LINE
  8
0
 10
-65.22
 20
-97.0014
 11
-65.2198
 21
-97.0028
  0
LINE
  8
0
 10
-65.2198
 20
-97.0028
 11
-65.2196
 21
-97.0042
  0
LINE
  8
0
 10
-65.2196
 20
-97.0042
 11
-65.2192
 21
-97.0055
  0
LINE
  8
0
 10
-65.2192
 20
-97.0055
 11
-65.2188
 21
-97.0068
  0
LINE
  8
0
 10
-65.2188
 20
-97.0068
 11
-65.2183
 21
-97.0081
  0
LINE
  8
0
 10
-65.2183
 20
-97.0081
 11
-65.2177
 21
-97.0094
  0
LINE
  8
0
 10
-65.2177
 20
-97.0094
 11
-65.217
 21
-97.0106
  0
LINE
  8
0
 10
-65.217
 20
-97.0106
 11
-65.2162
 21
-97.0118
  0
LINE
  8
0
 10
-65.2162
 20
-97.0118
 11
-65.2153
 21
-97.0129
  0
LINE
  8
0
 10
-65.2153
 20
-97.0129
 11
-65.2144
 21
-97.0139
  0
LINE
  8
0
 10
-65.2144
 20
-97.0139
 11
-65.2134
 21
-97.0149
  0
LINE
  8
0
 10
-65.2134
 20
-97.0149
 11
-65.2123
 21
-97.0158
  0
LINE
  8
0
 10
-65.2123
 20
-97.0158
 11
-65.2112
 21
-97.0166
  0
LINE
  8
0
 10
-65.2112
 20
-97.0166
 11
-65.21
 21
-97.0173
  0
LINE
  8
0
 10
-65.21
 20
-97.0173
 11
-65.2088
 21
-97.018
  0
LINE
  8
0
 10
-65.2088
 20
-97.018
 11
-65.2075
 21
-97.0185
  0
LINE
  8
0
 10
-65.2075
 20
-97.0185
 11
-65.2062
 21
-97.019
  0
LINE
  8
0
 10
-65.2062
 20
-97.019
 11
-65.2048
 21
-97.0194
  0
LINE
  8
0
 10
-65.2048
 20
-97.0194
 11
-65.2035
 21
-97.0197
  0
LINE
  8
0
 10
-65.2035
 20
-97.0197
 11
-65.2021
 21
-97.0199
  0
LINE
  8
0
 10
-65.2021
 20
-97.0199
 11
-65.2007
 21
-97.02
  0
LINE
  8
0
 10
-65.2007
 20
-97.02
 11
-50.325
 21
-97.02
  0
LINE
  8
0
 10
-50.325
 20
-97.02
 11
-50.325
 21
-100
  0
LINE
  8
0
 10
-50.325
 20
-100
 11
-35.325
 21
-100
  0
LINE
  8
0
 10
-35.325
 20
-100
 11
-35.325
 21
-97.02
  0
LINE
  8
0
 10
-35.325
 20
-97.02
 11
-7.5
 21
-97.02
  0
LINE
  8
0
 10
-7.5
 20
-97.02
 11
-7.5
 21
-100
  0
LINE
  8
0
 10
-7.5
 20
-100
 11
7.5
 21
-100
  0
LINE
  8
0
 10
7.5
 20
-100
 11
7.5
 21
-97.02
  0
LINE
  8
0
 10
7.5
 20
-97.02
 11
35.325
 21
-97.02
  0
LINE
  8
0
 10
35.325
 20
-97.02
 11
35.325
 21
-100
  0
LINE
  8
0
 10
35.325
 20
-100
 11
50.325
 21
-100
  0
LINE
  8
0
 10
50.325
 20
-100
 11
50.325
 21
-97.02
  0
LINE
  8
0
 10
50.325
 20
-97.02
 11
65.2007
 21
-97.02
  0
LINE
  8
0
 10
65.2007
 20
-97.02
 11
65.2021
 21
-97.0199
  0
LINE
  8
0
 10
65.2021
 20
-97.0199
 11
65.2035
 21
-97.0197
  0
LINE
  8
0
 10
65.2035
 20
-97.0197
 11
65.2048
 21
-97.0194
  0
LINE
  8
0
 10
65.2048
 20
-97.0194
 11
65.2062
 21
-97.019
  0
LINE
  8
0
 10
65.2062
 20
-97.019
 11
65.2075
 21
-97.0185
  0
LINE
  8
0
 10
65.2075
 20
-97.0185
 11
65.2088
 21
-97.018
  0
LINE
  8
0
 10
65.2088
 20
-97.018
 11
65.21
 21
-97.0173
  0
LINE
  8
0
 10
65.21
 20
-97.0173
 11
65.2112
 21
-97.0166
  0
LINE
  8
0
 10
65.2112
 20
-97.0166
 11
65.2123
 21
-97.0158
  0
LINE
  8
0
 10
65.2123
 20
-97.0158
 11
65.2134
 21
-97.0149
  0
LINE
  8
0
 10
65.2134
 20
-97.0149
 11
65.2144
 21
-97.0139
  0
LINE
  8
0
 10
65.2144
 20
-97.0139
 11
65.2153
 21
-97.0129
  0
LINE
  8
0
 10
65.2153
 20
-97.0129
 11
65.2162
 21
-97.0118
  0
LINE
  8
0
 10
65.2162
 20
-97.0118
 11
65.217
 21
-97.0106
  0
LINE
  8
0
 10
65.217
 20
-97.0106
 11
65.2177
 21
-97.0094
  0
LINE
  8
0
 10
65.2177
 20
-97.0094
 11
65.2183
 21
-97.0081
  0
LINE
  8
0
 10
65.2183
 20
-97.0081
 11
65.2188
 21
-97.0068
  0
LINE
  8
0
 10
65.2188
 20
-97.0068
 11
65.2192
 21
-97.0055
  0
LINE
  8
0
 10
65.2192
 20
-97.0055
 11
65.2196
 21
-97.0042
  0
LINE
  8
0
 10
65.2196
 20
-97.0042
 11
65.2198
 21
-97.0028
  0
LINE
  8
0
 10
65.2198
 20
-97.0028
 11
65.22
 21
-97.0014
  0
LINE
  8
0
 10
65.22
 20
-97.0014
 11
65.22
 21
-97
  0
LINE
  8
0
 10
65.22
 20
-97
 11
65.22
 21
-82.5
  0
LINE
  8
0
 10
65.22
 20
-82.5
 11
68.2
 21
-82.5
  0
LINE
  8
0
 10
68.2
 20
-82.5
 11
68.2
 21
-67.5
  0
LINE
  8
0
 10
68.2
 20
-67.5
 11
65.22
 21
-67.5
  0
LINE
  8
0
 10
65.22
 20
-67.5
 11
65.22
 21
-45
  0
LINE
  8
0
 10
65.22
 20
-45
 11
68.2
 21
-45
  0
LINE
  8
0
 10
68.2
 20
-45
 11
68.2
 21
-30
  0
LINE
  8
0
 10
68.2
 20
-30
 11
65.22
 21
-30
  0
LINE
  8
0
 10
65.22
 20
-30
 11
65.22
 21
-7.5
  0
LINE
  8
0
 10
65.22
 20
-7.5
 11
68.2
 21
-7.5
  0
LINE
  8
0
 10
68.2
 20
-7.5
 11
68.2
 21
7.5
  0
LINE
  8
0
 10
68.2
 20
7.5
 11
65.22
 21
7.5
  0
LINE
  8
0
 10
65.22
 20
7.5
 11
65.22
 21
30
  0
LINE
  8
0
 10
65.22
 20
30
 11
68.2
 21
30
  0
LINE
  8
0
 10
68.2
 20
30
 11
68.2
 21
45
  0
LINE
  8
0
 10
68.2
 20
45
 11
65.22
 21
45
  0
LINE
  8
0
 10
65.22
 20
45
 11
65.22
 21
67.5
  0
LINE
  8
0
 10
65.22
 20
67.5
 11
68.2
 21
67.5
  0
LINE
  8
0
 10
68.2
 20
67.5
 11
68.2
 21
82.5
  0
LINE
  8
0
 10
68.2
 20
82.5
 11
65.22
 21
82.5
  0
LINE
  8
0
 10
65.22
 20
82.5
 11
65.22
 21
97
  0
LINE
  8
0
 10
65.22
 20
97
 11
65.22
 21
97.0014
  0
LINE
  8
0
 10
65.22
 20
97.0014
 11
65.2198
 21
97.0028
  0
LINE
  8
0
 10
65.2198
 20
97.0028
 11
65.2196
 21
97.0042
  0
LINE
  8
0
 10
65.2196
 20
97.0042
 11
65.2192
 21
97.0055
  0
LINE
  8
0
 10
65.2192
 20
97.0055
 11
65.2188
 21
97.0068
  0
LINE
  8
0
 10
65.2188
 20
97.0068
 11
65.2183
 21
97.0081
  0
LINE
  8
0
 10
65.2183
 20
97.0081
 11
65.2177
 21
97.0094
  0
LINE
  8
0
 10
65.2177
 20
97.0094
 11
65.217
 21
97.0106
  0
LINE
  8
0
 10
65.217
 20
97.0106
 11
65.2162
 21
97.0118
  0
LINE
  8
0
 10
65.2162
 20
97.0118
 11
65.2153
 21
97.0129
  0
LINE
  8
0
 10
65.2153
 20
97.0129
 11
65.2144
 21
97.0139
  0
LINE
  8
0
 10
65.2144
 20
97.0139
 11
65.2134
 21
97.0149
  0
LINE
  8
0
 10
65.2134
 20
97.0149
 11
65.2123
 21
97.0158
  0
LINE
  8
0
 10
65.2123
 20
97.0158
 11
65.2112
 21
97.0166
  0
LINE
  8
0
 10
65.2112
 20
97.0166
 11
65.21
 21
97.0173
  0
LINE
  8
0
 10
65.21
 20
97.0173
 11
65.2088
 21
97.018
  0
LINE
  8
0
 10
65.2088
 20
97.018
 11
65.2075
 21
97.0185
  0
LINE
  8
0
 10
65.2075
 20
97.0185
 11
65.2062
 21
97.019
  0
LINE
  8
0
 10
65.2062
 20
97.019
 11
65.2048
 21
97.0194
  0
LINE
  8
0
 10
65.2048
 20
97.0194
 11
65.2035
 21
97.0197
  0
LINE
  8
0
 10
65.2035
 20
97.0197
 11
65.2021
 21
97.0199
  0
LINE
  8
0
 10
65.2021
 20
97.0199
 11
65.2007
 21
97.02
  0
LINE
  8
0
 10
65.2007
 20
97.02
 11
50.325
 21
97.02
  0
LINE
  8
0
 10
50.325
 20
97.02
 11
50.325
 21
100
  0
LINE
  8
0
 10
50.325
 20
100
 11
35.325
 21
100
  0
LINE
  8
0
 10
35.325
 20
100
 11
35.325
 21
97.02
  0
LINE
  8
0
 10
35.325
 20
97.02
 11
7.5
 21
97.02
  0
LINE
  8
0
 10
7.5
 20
97.02
 11
7.5
 21
100
  0
LINE
  8
0
 10
7.5
 20
100
 11
-7.5
 21
100
  0
LINE
  8
0
 10
-7.5
 20
100
 11
-7.5
 21
97.02
  0
LINE
  8
0
 10
-7.5
 20
97.02
 11
-35.325
 21
97.02
  0
LINE
  8
0
 10
-35.325
 20
97.02
 11
-35.325
 21
100
  0
LINE
  8
0
 10
-35.325
 20
100
 11
-50.325
 21
100
  0
LINE
  8
0
 10
-50.325
 20
100
 11
-50.325
 21
97.02
  0
LINE
  8
0
 10
-50.325
 20
97.02
 11
-65.2007
 21
97.02
  0
LINE
  8
0
 10
-65.2007
 20
97.02
 11
-65.2021
 21
97.0199
  0
LINE
  8
0
 10
-65.2021
 20
97.0199
 11
-65.2035
 21
97.0197
  0
LINE
  8
0
 10
-65.2035
 20
97.0197
 11
-65.2048
 21
97.0194
  0
LINE
  8
0
 10
-65.2048
 20
97.0194
 11
-65.2062
 21
97.019
  0
LINE
  8
0
 10
-65.2062
 20
97.019
 11
-65.2075
 21
97.0185
  0
LINE
  8
0
 10
-65.2075
 20
97.0185
 11
-65.2088
 21
97.018
  0
LINE
  8
0
 10
-65.2088
 20
97.018
 11
-65.21
 21
97.0173
  0
LINE
  8
0
 10
-65.21
 20
97.0173
 11
-65.2112
 21
97.0166
  0
LINE
  8
0
 10
-65.2112
 20
97.0166
 11
-65.2123
 21
97.0158
  0
LINE
  8
0
 10
-65.2123
 20
97.0158
 11
-65.2134
 21
97.0149
  0
LINE
  8
0
 10
-65.2134
 20
97.0149
 11
-65.2144
 21
97.0139
  0
LINE
  8
0
 10
-65.2144
 20
97.0139
 11
-65.2153
 21
97.0129
  0
LINE
  8
0
 10
-65.2153
 20
97.0129
 11
-65.2162
 21
97.0118
  0
LINE
  8
0
 10
-65.2162
 20
97.0118
 11
-65.217
 21
97.0106
  0
LINE
  8
0
 10
-65.217
 20
97.0106
 11
-65.2177
 21
97.0094
  0
LINE
  8
0
 10
-65.2177
 20
97.0094
 11
-65.2183
 21
97.0081
  0
LINE
  8
0
 10
-65.2183
 20
97.0081
 11
-65.2188
 21
97.0068
  0
LINE
  8
0
 10
-65.2188
 20
97.0068
 11
-65.2192
 21
97.0055
  0
LINE
  8
0
 10
-65.2192
 20
97.0055
 11
-65.2196
 21
97.0042
  0
LINE
  8
0
 10
-65.2196
 20
97.0042
 11
-65.2198
 21
97.0028
  0
LINE
  8
0
 10
-65.2198
 20
97.0028
 11
-65.22
 21
97.0014
  0
LINE
  8
0
 10
-65.22
 20
97.0014
 11
-65.22
 21
97
  0
LINE
  8
0
 10
-65.22
 20
97
 11
-65.22
 21
82.5
  0
LINE
  8
0
 10
-65.22
 20
82.5
 11
-68.2
 21
82.5
  0
LINE
  8
0
 10
-68.2
 20
82.5
 11
-68.2
 21
67.5
  0
LINE
  8
0
 10
-68.2
 20
67.5
 11
-65.22
 21
67.5
  0
LINE
  8
0
 10
-65.22
 20
67.5
 11
-65.22
 21
45
  0
LINE
  8
0
 10
-65.22
 20
45
 11
-68.2
 21
45
  0
LINE
  8
0
 10
-68.2
 20
45
 11
-68.2
 21
30
  0
LINE
  8
0
 10
-68.2
 20
30
 11
-65.22
 21
30
  0
LINE
  8
0
 10
-65.22
 20
30
 11
-65.22
 21
7.5
  0
LINE
  8
0
 10
-65.22
 20
7.5
 11
-68.2
 21
7.5
  0
LINE
  8
0
 10
-68.2
 20
7.5
 11
-68.2
 21
-7.5
  0
LINE
  8
0
 10
-68.2
 20
-7.5
 11
-65.22
 21
-7.5
  0
LINE
  8
0
 10
-65.22
 20
-7.5
 11
-65.22
 21
-30
  0
LINE
  8
0
 10
-65.22
 20
-30
 11
-68.2
 21
-30
  0
LINE
  8
0
 10
-68.2
 20
-30
 11
-68.2
 21
-45
  0
LINE
  8
0
 10
-68.2
 20
-45
 11
-65.22
 21
-45
  0
LINE
  8
0
 10
-65.22
 20
-45
 11
-65.22
 21
-67.5
  0
LINE
  8
0
 10
-65.22
 20
-67.5
 11
-68.2
 21
-67.5
  0
LINE
  8
0
 10
-68.2
 20
-67.5
 11
-68.2
 21
-82.5
  0
LINE
  8
0
 10
-44.45
 20
-42.6667
 11
-44.45
 21
42.6667
  0
LINE
  8
0
 10
-44.45
 20
42.6667
 11
-44.4465
 21
42.7678
  0
LINE
  8
0
 10
-44.4465
 20
42.7678
 11
-44.4359
 21
42.8685
  0
LINE
  8
0
 10
-44.4359
 20
42.8685
 11
-44.4183
 21
42.9681
  0
LINE
  8
0
 10
-44.4183
 20
42.9681
 11
-44.3938
 21
43.0663
  0
LINE
  8
0
 10
-44.3938
 20
43.0663
 11
-44.3626
 21
43.1626
  0
LINE
  8
0
 10
-44.3626
 20
43.1626
 11
-44.3246
 21
43.2564
  0
LINE
  8
0
 10
-44.3246
 20
43.2564
 11
-44.2803
 21
43.3474
  0
LINE
  8
0
 10
-44.2803
 20
43.3474
 11
-44.2297
 21
43.435
  0
LINE
  8
0
 10
-44.2297
 20
43.435
 11
-44.1731
 21
43.519
  0
LINE
  8
0
 10
-44.1731
 20
43.519
 11
-44.1108
 21
43.5987
  0
LINE
  8
0
 10
-44.1108
 20
43.5987
 11
-44.043
 21
43.6739
  0
LINE
  8
0
 10
-44.043
 20
43.6739
 11
-43.9702
 21
43.7442
  0
LINE
  8
0
 10
-43.9702
 20
43.7442
 11
-43.8927
 21
43.8093
  0
LINE
  8
0
 10
-43.8927
 20
43.8093
 11
-43.8108
 21
43.8688
  0
LINE
  8
0
 10
-43.8108
 20
43.8688
 11
-43.725
 21
43.9224
  0
LINE
  8
0
 10
-43.725
 20
43.9224
 11
-43.6356
 21
43.9699
  0
LINE
  8
0
 10
-43.6356
 20
43.9699
 11
-43.5432
 21
44.0111
  0
LINE
  8
0
 10
-43.5432
 20
44.0111
 11
-43.4481
 21
44.0457
  0
LINE
  8
0
 10
-43.4481
 20
44.0457
 11
-43.3508
 21
44.0736
  0
LINE
  8
0
 10
-43.3508
 20
44.0736
 11
-43.2518
 21
44.0946
  0
LINE
  8
0
 10
-43.2518
 20
44.0946
 11
-43.1516
 21
44.1087
  0
LINE
  8
0
 10
-43.1516
 20
44.1087
 11
-43.0506
 21
44.1158
  0
LINE
  8
0
 10
-43.0506
 20
44.1158
 11
-34.45
 21
44.1158
  0
LINE
  8
0
 10
-34.45
 20
44.1158
 11
-34.45
 21
54
  0
LINE
  8
0
 10
-34.45
 20
54
 11
-34.4465
 21
54.1011
  0
LINE
  8
0
 10
-34.4465
 20
54.1011
 11
-34.4359
 21
54.2018
  0
LINE
  8
0
 10
-34.4359
 20
54.2018
 11
-34.4183
 21
54.3015
  0
LINE
  8
0
 10
-34.4183
 20
54.3015
 11
-34.3938
 21
54.3997
  0
LINE
  8
0
 10
-34.3938
 20
54.3997
 11
-34.3626
 21
54.4959
  0
LINE
  8
0
 10
-34.3626
 20
54.4959
 11
-34.3246
 21
54.5898
  0
LINE
  8
0
 10
-34.3246
 20
54.5898
 11
-34.2803
 21
54.6807
  0
LINE
  8
0
 10
-34.2803
 20
54.6807
 11
-34.2297
 21
54.7684
  0
LINE
  8
0
 10
-34.2297
 20
54.7684
 11
-34.1731
 21
54.8523
  0
LINE
  8
0
 10
-34.1731
 20
54.8523
 11
-34.1108
 21
54.932
  0
LINE
  8
0
 10
-34.1108
 20
54.932
 11
-34.043
 21
55.0073
  0
LINE
  8
0
 10
-34.043
 20
55.0073
 11
-33.9702
 21
55.0776
  0
LINE
  8
0
 10
-33.9702
 20
55.0776
 11
-33.8927
 21
55.1426
  0
LINE
  8
0
 10
-33.8927
 20
55.1426
 11
-33.8108
 21
55.2021
  0
LINE
  8
0
 10
-33.8108
 20
55.2021
 11
-33.725
 21
55.2557
  0
LINE
  8
0
 10
-33.725
 20
55.2557
 11
-33.6356
 21
55.3033
  0
LINE
  8
0
 10
-33.6356
 20
55.3033
 11
-33.5432
 21
55.3444
  0
LINE
  8
0
 10
-33.5432
 20
55.3444
 11
-33.4481
 21
55.379
  0
LINE
  8
0
 10
-33.4481
 20
55.379
 11
-33.3508
 21
55.4069
  0
LINE
  8
0
 10
-33.3508
 20
55.4069
 11
-33.2518
 21
55.428
  0
LINE
  8
0
 10
-33.2518
 20
55.428
 11
-33.1516
 21
55.4421
  0
LINE
  8
0
 10
-33.1516
 20
55.4421
 11
-33.0506
 21
55.4491
  0
LINE
  8
0
 10
-33.0506
 20
55.4491
 11
33.0506
 21
55.4491
  0
LINE
  8
0
 10
33.0506
 20
55.4491
 11
33.1516
 21
55.4421
  0
LINE
  8
0
 10
33.1516
 20
55.4421
 11
33.2518
 21
55.428
  0
LINE
  8
0
 10
33.2518
 20
55.428
 11
33.3508
 21
55.4069
  0
LINE
  8
0
 10
33.3508
 20
55.4069
 11
33.4481
 21
55.379
  0
LINE
  8
0
 10
33.4481
 20
55.379
 11
33.5432
 21
55.3444
  0
LINE
  8
0
 10
33.5432
 20
55.3444
 11
33.6356
 21
55.3033
  0
LINE
  8
0
 10
33.6356
 20
55.3033
 11
33.725
 21
55.2557
  0
LINE
  8
0
 10
33.725
 20
55.2557
 11
33.8108
 21
55.2021
  0
LINE
  8
0
 10
33.8108
 20
55.2021
 11
33.8927
 21
55.1426
  0
LINE
  8
0
 10
33.8927
 20
55.1426
 11
33.9702
 21
55.0776
  0
LINE
  8
0
 10
33.9702
 20
55.0776
 11
34.043
 21
55.0073
  0
LINE
  8
0
 10
34.043
 20
55.0073
 11
34.1108
 21
54.932
  0
LINE
  8
0
 10
34.1108
 20
54.932
 11
34.1731
 21
54.8523
  0
LINE
  8
0
 10
34.1731
 20
54.8523
 11
34.2297
 21
54.7684
  0
LINE
  8
0
 10
34.2297
 20
54.7684
 11
34.2803
 21
54.6807
  0
LINE
  8
0
 10
34.2803
 20
54.6807
 11
34.3246
 21
54.5898
  0
LINE
  8
0
 10
34.3246
 20
54.5898
 11
34.3626
 21
54.4959
  0
LINE
  8
0
 10
34.3626
 20
54.4959
 11
34.3938
 21
54.3997
  0
LINE
  8
0
 10
34.3938
 20
54.3997
 11
34.4183
 21
54.3015
  0
LINE
  8
0
 10
34.4183
 20
54.3015
 11
34.4359
 21
54.2018
  0
LINE
  8
0
 10
34.4359
 20
54.2018
 11
34.4465
 21
54.1011
  0
LINE
  8
0
 10
34.4465
 20
54.1011
 11
34.45
 21
54
  0
LINE
  8
0
 10
34.45
 20
54
 11
34.45
 21
44.1158
  0
LINE
  8
0
 10
34.45
 20
44.1158
 11
43.0506
 21
44.1158
  0
LINE
  8
0
 10
43.0506
 20
44.1158
 11
43.1516
 21
44.1087
  0
LINE
  8
0
 10
43.1516
 20
44.1087
 11
43.2518
 21
44.0946
  0
LINE
  8
0
 10
43.2518
 20
44.0946
 11
43.3508
 21
44.0736
  0
LINE
  8
0
 10
43.3508
 20
44.0736
 11
43.4481
 21
44.0457
  0
LINE
  8
0
 10
43.4481
 20
44.0457
 11
43.5432
 21
44.0111
  0
LINE
  8
0
 10
43.5432
 20
44.0111
 11
43.6356
 21
43.9699
  0
LINE
  8
0
 10
43.6356
 20
43.9699
 11
43.725
 21
43.9224
  0
LINE
  8
0
 10
43.725
 20
43.9224
 11
43.8108
 21
43.8688
  0
LINE
  8
0
 10
43.8108
 20
43.8688
 11
43.8927
 21
43.8093
  0
LINE
  8
0
 10
43.8927
 20
43.8093
 11
43.9702
 21
43.7442
  0
LINE
  8
0
 10
43.9702
 20
43.7442
 11
44.043
 21
43.6739
  0
LINE
  8
0
 10
44.043
 20
43.6739
 11
44.1108
 21
43.5987
  0
LINE
  8
0
 10
44.1108
 20
43.5987
 11
44.1731
 21
43.519
  0
LINE
  8
0
 10
44.1731
 20
43.519
 11
44.2297
 21
43.435
  0
LINE
  8
0
 10
44.2297
 20
43.435
 11
44.2803
 21
43.3474
  0
LINE
  8
0
 10
44.2803
 20
43.3474
 11
44.3246
 21
43.2564
  0
LINE
  8
0
 10
44.3246
 20
43.2564
 11
44.3626
 21
43.1626
  0
LINE
  8
0
 10
44.3626
 20
43.1626
 11
44.3938
 21
43.0663
  0
LINE
  8
0
 10
44.3938
 20
43.0663
 11
44.4183
 21
42.9681
  0
LINE
  8
0
 10
44.4183
 20
42.9681
 11
44.4359
 21
42.8685
  0
LINE
  8
0
 10
44.4359
 20
42.8685
 11
44.4465
 21
42.7678
  0
LINE
  8
0
 10
44.4465
 20
42.7678
 11
44.45
 21
42.6667
  0
LINE
  8
0
 10
44.45
 20
42.6667
 11
44.45
 21
-42.6667
  0
LINE
  8
0
 10
44.45
 20
-42.6667
 11
44.4465
 21
-42.7678
  0
LINE
  8
0
 10
44.4465
 20
-42.7678
 11
44.4359
 21
-42.8685
  0
LINE
  8
0
 10
44.4359
 20
-42.8685
 11
44.4183
 21
-42.9681
  0
LINE
  8
0
 10
44.4183
 20
-42.9681
 11
44.3938
 21
-43.0663
  0
LINE
  8
0
 10
44.3938
 20
-43.0663
 11
44.3626
 21
-43.1626
  0
LINE
  8
0
 10
44.3626
 20
-43.1626
 11
44.3246
 21
-43.2564
  0
LINE
  8
0
 10
44.3246
 20
-43.2564
 11
44.2803
 21
-43.3474
  0
LINE
  8
0
 10
44.2803
 20
-43.3474
 11
44.2297
 21
-43.435
  0
LINE
  8
0
 10
44.2297
 20
-43.435
 11
44.1731
 21
-43.519
  0
LINE
  8
0
 10
44.1731
 20
-43.519
 11
44.1108
 21
-43.5987
  0
LINE
  8
0
 10
44.1108
 20
-43.5987
 11
44.043
 21
-43.6739
  0
LINE
  8
0
 10
44.043
 20
-43.6739
 11
43.9702
 21
-43.7442
  0
LINE
  8
0
 10
43.9702
 20
-43.7442
 11
43.8927
 21
-43.8093
  0
LINE
  8
0
 10
43.8927
 20
-43.8093
 11
43.8108
 21
-43.8688
  0
LINE
  8
0
 10
43.8108
 20
-43.8688
 11
43.725
 21
-43.9224
  0
LINE
  8
0
 10
43.725
 20
-43.9224
 11
43.6356
 21
-43.9699
  0
LINE
  8
0
 10
43.6356
 20
-43.9699
 11
43.5432
 21
-44.0111
  0
LINE
  8
0
 10
43.5432
 20
-44.0111
 11
43.4481
 21
-44.0457
  0
LINE
  8
0
 10
43.4481
 20
-44.0457
 11
43.3508
 21
-44.0736
  0
LINE
  8
0
 10
43.3508
 20
-44.0736
 11
43.2518
 21
-44.0946
  0
LINE
  8
0
 10
43.2518
 20
-44.0946
 11
43.1516
 21
-44.1087
  0
LINE
  8
0
 10
43.1516
 20
-44.1087
 11
43.0506
 21
-44.1158
  0
LINE
  8
0
 10
43.0506
 20
-44.1158
 11
34.45
 21
-44.1158
  0
LINE
  8
0
 10
34.45
 20
-44.1158
 11
34.45
 21
-54
  0
LINE
  8
0
 10
34.45
 20
-54
 11
34.4465
 21
-54.1011
  0
LINE
  8
0
 10
34.4465
 20
-54.1011
 11
34.4359
 21
-54.2018
  0
LINE
  8
0
 10
34.4359
 20
-54.2018
 11
34.4183
 21
-54.3015
  0
LINE
  8
0
 10
34.4183
 20
-54.3015
 11
34.3938
 21
-54.3997
  0
LINE
  8
0
 10
34.3938
 20
-54.3997
 11
34.3626
 21
-54.4959
  0
LINE
  8
0
 10
34.3626
 20
-54.4959
 11
34.3246
 21
-54.5898
  0
LINE
  8
0
 10
34.3246
 20
-54.5898
 11
34.2803
 21
-54.6807
  0
LINE
  8
0
 10
34.2803
 20
-54.6807
 11
34.2297
 21
-54.7684
  0
LINE
  8
0
 10
34.2297
 20
-54.7684
 11
34.1731
 21
-54.8523
  0
LINE
  8
0
 10
34.1731
 20
-54.8523
 11
34.1108
 21
-54.932
  0
LINE
  8
0
 10
34.1108
 20
-54.932
 11
34.043
 21
-55.0073
  0
LINE
  8
0
 10
34.043
 20
-55.0073
 11
33.9702
 21
-55.0776
  0
LINE
  8
0
 10
33.9702
 20
-55.0776
 11
33.8927
 21
-55.1426
  0
LINE
  8
0
 10
33.8927
 20
-55.1426
 11
33.8108
 21
-55.2021
  0
LINE
  8
0
 10
33.8108
 20
-55.2021
 11
33.725
 21
-55.2557
  0
LINE
  8
0
 10
33.725
 20
-55.2557
 11
33.6356
 21
-55.3033
  0
LINE
  8
0
 10
33.6356
 20
-55.3033
 11
33.5432
 21
-55.3444
  0
LINE
  8
0
 10
33.5432
 20
-55.3444
 11
33.4481
 21
-55.379
  0
LINE
  8
0
 10
33.4481
 20
-55.379
 11
33.3508
 21
-55.4069
  0
LINE
  8
0
 10
33.3508
 20
-55.4069
 11
33.2518
 21
-55.428
  0
LINE
  8
0
 10
33.2518
 20
-55.428
 11
33.1516
 21
-55.4421
  0
LINE
  8
0
 10
33.1516
 20
-55.4421
 11
33.0506
 21
-55.4491
  0
LINE
  8
0
 10
33.0506
 20
-55.4491
 11
-33.0506
 21
-55.4491
  0
LINE
  8
0
 10
-33.0506
 20
-55.4491
 11
-33.1516
 21
-55.4421
  0
LINE
  8
0
 10
-33.1516
 20
-55.4421
 11
-33.2518
 21
-55.428
  0
LINE
  8
0
 10
-33.2518
 20
-55.428
 11
-33.3508
 21
-55.4069
  0
LINE
  8
0
 10
-33.3508
 20
-55.4069
 11
-33.4481
 21
-55.379
  0
LINE
  8
0
 10
-33.4481
 20
-55.379
 11
-33.5432
 21
-55.3444
  0
LINE
  8
0
 10
-33.5432
 20
-55.3444
 11
-33.6356
 21
-55.3033
  0
LINE
  8
0
 10
-33.6356
 20
-55.3033
 11
-33.725
 21
-55.2557
  0
LINE
  8
0
 10
-33.725
 20
-55.2557
 11
-33.8108
 21
-55.2021
  0
LINE
  8
0
 10
-33.8108
 20
-55.2021
 11
-33.8927
 21
-55.1426
  0
LINE
  8
0
 10
-33.8927
 20
-55.1426
 11
-33.9702
 21
-55.0776
  0
LINE
  8
0
 10
-33.9702
 20
-55.0776
 11
-34.043
 21
-55.0073
  0
LINE
  8
0
 10
-34.043
 20
-55.0073
 11
-34.1108
 21
-54.932
  0
LINE
  8
0
 10
-34.1108
 20
-54.932
 11
-34.1731
 21
-54.8523
  0
LINE
  8
0
 10
-34.1731
 20
-54.8523
 11
-34.2297
 21
-54.7684
  0
LINE
  8
0
 10
-34.2297
 20
-54.7684
 11
-34.2803
 21
-54.6807
  0
LINE
  8
0
 10
-34.2803
 20
-54.6807
 11
-34.3246
 21
-54.5898
  0
LINE
  8
0
 10
-34.3246
 20
-54.5898
 11
-34.3626
 21
-54.4959
  0
LINE
  8
0
 10
-34.3626
 20
-54.4959
 11
-34.3938
 21
-54.3997
  0
LINE
  8
0
 10
-34.3938
 20
-54.3997
 11
-34.4183
 21
-54.3015
  0
LINE
  8
0
 10
-34.4183
 20
-54.3015
 11
-34.4359
 21
-54.2018
  0
LINE
  8
0
 10
-34.4359
 20
-54.2018
 11
-34.4465
 21
-54.1011
  0
LINE
  8
0
 10
-34.4465
 20
-54.1011
 11
-34.45
 21
-54
  0
LINE
  8
0
 10
-34.45
 20
-54
 11
-34.45
 21
-44.1158
  0
LINE
  8
0
 10
-34.45
 20
-44.1158
 11
-43.0506
 21
-44.1158
  0
LINE
  8
0
 10
-43.0506
 20
-44.1158
 11
-43.1516
 21
-44.1087
  0
LINE
  8
0
 10
-43.1516
 20
-44.1087
 11
-43.2518
 21
-44.0946
  0
LINE
  8
0
 10
-43.2518
 20
-44.0946
 11
-43.3508
 21
-44.0736
  0
LINE
  8
0
 10
-43.3508
 20
-44.0736
 11
-43.4481
 21
-44.0457
  0
LINE
  8
0
 10
-43.4481
 20
-44.0457
 11
-43.5432
 21
-44.0111
  0
LINE
  8
0
 10
-43.5432
 20
-44.0111
 11
-43.6356
 21
-43.9699
  0
LINE
  8
0
 10
-43.6356
 20
-43.9699
 11
-43.725
 21
-43.9224
  0
LINE
  8
0
 10
-43.725
 20
-43.9224
 11
-43.8108
 21
-43.8688
  0
LINE
  8
0
 10
-43.8108
 20
-43.8688
 11
-43.8927
 21
-43.8093
  0
LINE
  8
0
 10
-43.8927
 20
-43.8093
 11
-43.9702
 21
-43.7442
  0
LINE
  8
0
 10
-43.9702
 20
-43.7442
 11
-44.043
 21
-43.6739
  0
LINE
  8
0
 10
-44.043
 20
-43.6739
 11
-44.1108
 21
-43.5987
  0
LINE
  8
0
 10
-44.1108
 20
-43.5987
 11
-44.1731
 21
-43.519
  0
LINE
  8
0
 10
-44.1731
 20
-43.519
 11
-44.2297
 21
-43.435
  0
LINE
  8
0
 10
-44.2297
 20
-43.435
 11
-44.2803
 21
-43.3474
  0
LINE
  8
0
 10
-44.2803
 20
-43.3474
 11
-44.3246
 21
-43.2564
  0
LINE
  8
0
 10
-44.3246
 20
-43.2564
 11
-44.3626
 21
-43.1626
  0
LINE
  8
0
 10
-44.3626
 20
-43.1626
 11
-44.3938
 21
-43.0663
  0
LINE
  8
0
 10
-44.3938
 20
-43.0663
 11
-44.4183
 21
-42.9681
  0
LINE
  8
0
 10
-44.4183
 20
-42.9681
 11
-44.4359
 21
-42.8685
  0
LINE
  8
0
 10
-44.4359
 20
-42.8685
 11
-44.4465
 21
-42.7678
  0
LINE
  8
0
 10
-44.4465
 20
-42.7678
 11
-44.45
 21
-42.6667
  0
LINE
  8
0
 10
-34.45
 20
-64
 11
-34.4465
 21
-63.8989
  0
LINE
  8
0
 10
-34.4465
 20
-63.8989
 11
-34.4359
 21
-63.7982
  0
LINE
  8
0
 10
-34.4359
 20
-63.7982
 11
-34.4183
 21
-63.6985
  0
LINE
  8
0
 10
-34.4183
 20
-63.6985
 11
-34.3938
 21
-63.6003
  0
LINE
  8
0
 10
-34.3938
 20
-63.6003
 11
-34.3626
 21
-63.5041
  0
LINE
  8
0
 10
-34.3626
 20
-63.5041
 11
-34.3246
 21
-63.4102
  0
LINE
  8
0
 10
-34.3246
 20
-63.4102
 11
-34.2803
 21
-63.3193
  0
LINE
  8
0
 10
-34.2803
 20
-63.3193
 11
-34.2297
 21
-63.2316
  0
LINE
  8
0
 10
-34.2297
 20
-63.2316
 11
-34.1731
 21
-63.1477
  0
LINE
  8
0
 10
-34.1731
 20
-63.1477
 11
-34.1108
 21
-63.068
  0
LINE
  8
0
 10
-34.1108
 20
-63.068
 11
-34.043
 21
-62.9927
  0
LINE
  8
0
 10
-34.043
 20
-62.9927
 11
-33.9702
 21
-62.9224
  0
LINE
  8
0
 10
-33.9702
 20
-62.9224
 11
-33.8927
 21
-62.8574
  0
LINE
  8
0
 10
-33.8927
 20
-62.8574
 11
-33.8108
 21
-62.7979
  0
LINE
  8
0
 10
-33.8108
 20
-62.7979
 11
-33.725
 21
-62.7443
  0
LINE
  8
0
 10
-33.725
 20
-62.7443
 11
-33.6356
 21
-62.6967
  0
LINE
  8
0
 10
-33.6356
 20
-62.6967
 11
-33.5432
 21
-62.6556
  0
LINE
  8
0
 10
-33.5432
 20
-62.6556
 11
-33.4481
 21
-62.621
  0
LINE
  8
0
 10
-33.4481
 20
-62.621
 11
-33.3508
 21
-62.5931
  0
LINE
  8
0
 10
-33.3508
 20
-62.5931
 11
-33.2518
 21
-62.572
  0
LINE
  8
0
 10
-33.2518
 20
-62.572
 11
-33.1516
 21
-62.5579
  0
LINE
  8
0
 10
-33.1516
 20
-62.5579
 11
-33.0506
 21
-62.5509
  0
LINE
  8
0
 10
-33.0506
 20
-62.5509
 11
-32.9494
 21
-62.5509
  0
LINE
  8
0
 10
-32.9494
 20
-62.5509
 11
-32.8484
 21
-62.5579
  0
LINE
  8
0
 10
-32.8484
 20
-62.5579
 11
-32.7482
 21
-62.572
  0
LINE
  8
0
 10
-32.7482
 20
-62.572
 11
-32.6492
 21
-62.5931
  0
LINE
  8
0
 10
-32.6492
 20
-62.5931
 11
-32.5519
 21
-62.621
  0
LINE
  8
0
 10
-32.5519
 20
-62.621
 11
-32.4568
 21
-62.6556
  0
LINE
  8
0
 10
-32.4568
 20
-62.6556
 11
-32.3644
 21
-62.6967
  0
LINE
  8
0
 10
-32.3644
 20
-62.6967
 11
-32.275
 21
-62.7443
  0
LINE
  8
0
 10
-32.275
 20
-62.7443
 11
-32.1892
 21
-62.7979
  0
LINE
  8
0
 10
-32.1892
 20
-62.7979
 11
-32.1073
 21
-62.8574
  0
LINE
  8
0
 10
-32.1073
 20
-62.8574
 11
-32.0298
 21
-62.9224
  0
LINE
  8
0
 10
-32.0298
 20
-62.9224
 11
-31.957
 21
-62.9927
  0
LINE
  8
0
 10
-31.957
 20
-62.9927
 11
-31.8892
 21
-63.068
  0
LINE
  8
0
 10
-31.8892
 20
-63.068
 11
-31.8269
 21
-63.1477
  0
LINE
  8
0
 10
-31.8269
 20
-63.1477
 11
-31.7703
 21
-63.2316
  0
LINE
  8
0
 10
-31.7703
 20
-63.2316
 11
-31.7197
 21
-63.3193
  0
LINE
  8
0
 10
-31.7197
 20
-63.3193
 11
-31.6754
 21
-63.4102
  0
LINE
  8
0
 10
-31.6754
 20
-63.4102
 11
-31.6374
 21
-63.5041
  0
LINE
  8
0
 10
-31.6374
 20
-63.5041
 11
-31.6062
 21
-63.6003
  0
LINE
  8
0
 10
-31.6062
 20
-63.6003
 11
-31.5817
 21
-63.6985
  0
LINE
  8
0
 10
-31.5817
 20
-63.6985
 11
-31.5641
 21
-63.7982
  0
LINE
  8
0
 10
-31.5641
 20
-63.7982
 11
-31.5535
 21
-63.8989
  0
LINE
  8
0
 10
-31.5535
 20
-63.8989
 11
-31.55
 21
-64
  0
LINE
  8
0
 10
-31.55
 20
-64
 11
-31.5535
 21
-64.1011
  0
LINE
  8
0
 10
-31.5535
 20
-64.1011
 11
-31.5641
 21
-64.2018
  0
LINE
  8
0
 10
-31.5641
 20
-64.2018
 11
-31.5817
 21
-64.3015
  0
LINE
  8
0
 10
-31.5817
 20
-64.3015
 11
-31.6062
 21
-64.3997
  0
LINE
  8
0
 10
-31.6062
 20
-64.3997
 11
-31.6374
 21
-64.4959
  0
LINE
  8
0
 10
-31.6374
 20
-64.4959
 11
-31.6754
 21
-64.5898
  0
LINE
  8
0
 10
-31.6754
 20
-64.5898
 11
-31.7197
 21
-64.6807
  0
LINE
  8
0
 10
-31.7197
 20
-64.6807
 11
-31.7703
 21
-64.7684
  0
LINE
  8
0
 10
-31.7703
 20
-64.7684
 11
-31.8269
 21
-64.8523
  0
LINE
  8
0
 10
-31.8269
 20
-64.8523
 11
-31.8892
 21
-64.932
  0
LINE
  8
0
 10
-31.8892
 20
-64.932
 11
-31.957
 21
-65.0073
  0
LINE
  8
0
 10
-31.957
 20
-65.0073
 11
-32.0298
 21
-65.0776
  0
LINE
  8
0
 10
-32.0298
 20
-65.0776
 11
-32.1073
 21
-65.1426
  0
LINE
  8
0
 10
-32.1073
 20
-65.1426
 11
-32.1892
 21
-65.2021
  0
LINE
  8
0
 10
-32.1892
 20
-65.2021
 11
-32.275
 21
-65.2557
  0
LINE
  8
0
 10
-32.275
 20
-65.2557
 11
-32.3644
 21
-65.3033
  0
LINE
  8
0
 10
-32.3644
 20
-65.3033
 11
-32.4568
 21
-65.3444
  0
LINE
  8
0
 10
-32.4568
 20
-65.3444
 11
-32.5519
 21
-65.379
  0
LINE
  8
0
 10
-32.5519
 20
-65.379
 11
-32.6492
 21
-65.4069
  0
LINE
  8
0
 10
-32.6492
 20
-65.4069
 11
-32.7482
 21
-65.428
  0
LINE
  8
0
 10
-32.7482
 20
-65.428
 11
-32.8484
 21
-65.4421
  0
LINE
  8
0
 10
-32.8484
 20
-65.4421
 11
-32.9494
 21
-65.4491
  0
LINE
  8
0
 10
-32.9494
 20
-65.4491
 11
-33.0506
 21
-65.4491
  0
LINE
  8
0
 10
-33.0506
 20
-65.4491
 11
-33.1516
 21
-65.4421
  0
LINE
  8
0
 10
-33.1516
 20
-65.4421
 11
-33.2518
 21
-65.428
  0
LINE
  8
0
 10
-33.2518
 20
-65.428
 11
-33.3508
 21
-65.4069
  0
LINE
  8
0
 10
-33.3508
 20
-65.4069
 11
-33.4481
 21
-65.379
  0
LINE
  8
0
 10
-33.4481
 20
-65.379
 11
-33.5432
 21
-65.3444
  0
LINE
  8
0
 10
-33.5432
 20
-65.3444
 11
-33.6356
 21
-65.3033
  0
LINE
  8
0
 10
-33.6356
 20
-65.3033
 11
-33.725
 21
-65.2557
  0
LINE
  8
0
 10
-33.725
 20
-65.2557
 11
-33.8108
 21
-65.2021
  0
LINE
  8
0
 10
-33.8108
 20
-65.2021
 11
-33.8927
 21
-65.1426
  0
LINE
  8
0
 10
-33.8927
 20
-65.1426
 11
-33.9702
 21
-65.0776
  0
LINE
  8
0
 10
-33.9702
 20
-65.0776
 11
-34.043
 21
-65.0073
  0
LINE
  8
0
 10
-34.043
 20
-65.0073
 11
-34.1108
 21
-64.932
  0
LINE
  8
0
 10
-34.1108
 20
-64.932
 11
-34.1731
 21
-64.8523
  0
LINE
  8
0
 10
-34.1731
 20
-64.8523
 11
-34.2297
 21
-64.7684
  0
LINE
  8
0
 10
-34.2297
 20
-64.7684
 11
-34.2803
 21
-64.6807
  0
LINE
  8
0
 10
-34.2803
 20
-64.6807
 11
-34.3246
 21
-64.5898
  0
LINE
  8
0
 10
-34.3246
 20
-64.5898
 11
-34.3626
 21
-64.4959
  0
LINE
  8
0
 10
-34.3626
 20
-64.4959
 11
-34.3938
 21
-64.3997
  0
LINE
  8
0
 10
-34.3938
 20
-64.3997
 11
-34.4183
 21
-64.3015
  0
LINE
  8
0
 10
-34.4183
 20
-64.3015
 11
-34.4359
 21
-64.2018
  0
LINE
  8
0
 10
-34.4359
 20
-64.2018
 11
-34.4465
 21
-64.1011
  0
LINE
  8
0
 10
-34.4465
 20
-64.1011
 11
-34.45
 21
-64
  0
LINE
  8
0
 10
-34.45
 20
64
 11
-34.4465
 21
64.1011
  0
LINE
  8
0
 10
-34.4465
 20
64.1011
 11
-34.4359
 21
64.2018
  0
LINE
  8
0
 10
-34.4359
 20
64.2018
 11
-34.4183
 21
64.3015
  0
LINE
  8
0
 10
-34.4183
 20
64.3015
 11
-34.3938
 21
64.3997
  0
LINE
  8
0
 10
-34.3938
 20
64.3997
 11
-34.3626
 21
64.4959
  0
LINE
  8
0
 10
-34.3626
 20
64.4959
 11
-34.3246
 21
64.5898
  0
LINE
  8
0
 10
-34.3246
 20
64.5898
 11
-34.2803
 21
64.6807
  0
LINE
  8
0
 10
-34.2803
 20
64.6807
 11
-34.2297
 21
64.7684
  0
LINE
  8
0
 10
-34.2297
 20
64.7684
 11
-34.1731
 21
64.8523
  0
LINE
  8
0
 10
-34.1731
 20
64.8523
 11
-34.1108
 21
64.932
  0
LINE
  8
0
 10
-34.1108
 20
64.932
 11
-34.043
 21
65.0073
  0
LINE
  8
0
 10
-34.043
 20
65.0073
 11
-33.9702
 21
65.0776
  0
LINE
  8
0
 10
-33.9702
 20
65.0776
 11
-33.8927
 21
65.1426
  0
LINE
  8
0
 10
-33.8927
 20
65.1426
 11
-33.8108
 21
65.2021
  0
LINE
  8
0
 10
-33.8108
 20
65.2021
 11
-33.725
 21
65.2557
  0
LINE
  8
0
 10
-33.725
 20
65.2557
 11
-33.6356
 21
65.3033
  0
LINE
  8
0
 10
-33.6356
 20
65.3033
 11
-33.5432
 21
65.3444
  0
LINE
  8
0
 10
-33.5432
 20
65.3444
 11
-33.4481
 21
65.379
  0
LINE
  8
0
 10
-33.4481
 20
65.379
 11
-33.3508
 21
65.4069
  0
LINE
  8
0
 10
-33.3508
 20
65.4069
 11
-33.2518
 21
65.428
  0
LINE
  8
0
 10
-33.2518
 20
65.428
 11
-33.1516
 21
65.4421
  0
LINE
  8
0
 10
-33.1516
 20
65.4421
 11
-33.0506
 21
65.4491
  0
LINE
  8
0
 10
-33.0506
 20
65.4491
 11
-32.9494
 21
65.4491
  0
LINE
  8
0
 10
-32.9494
 20
65.4491
 11
-32.8484
 21
65.4421
  0
LINE
  8
0
 10
-32.8484
 20
65.4421
 11
-32.7482
 21
65.428
  0
LINE
  8
0
 10
-32.7482
 20
65.428
 11
-32.6492
 21
65.4069
  0
LINE
  8
0
 10
-32.6492
 20
65.4069
 11
-32.5519
 21
65.379
  0
LINE
  8
0
 10
-32.5519
 20
65.379
 11
-32.4568
 21
65.3444
  0
LINE
  8
0
 10
-32.4568
 20
65.3444
 11
-32.3644
 21
65.3033
  0
LINE
  8
0
 10
-32.3644
 20
65.3033
 11
-32.275
 21
65.2557
  0
LINE
  8
0
 10
-32.275
 20
65.2557
 11
-32.1892
 21
65.2021
  0
LINE
  8
0
 10
-32.1892
 20
65.2021
 11
-32.1073
 21
65.1426
  0
LINE
  8
0
 10
-32.1073
 20
65.1426
 11
-32.0298
 21
65.0776
  0
LINE
  8
0
 10
-32.0298
 20
65.0776
 11
-31.957
 21
65.0073
  0
LINE
  8
0
 10
-31.957
 20
65.0073
 11
-31.8892
 21
64.932
  0
LINE
  8
0
 10
-31.8892
 20
64.932
 11
-31.8269
 21
64.8523
  0
LINE
  8
0
 10
-31.8269
 20
64.8523
 11
-31.7703
 21
64.7684
  0
LINE
  8
0
 10
-31.7703
 20
64.7684
 11
-31.7197
 21
64.6807
  0
LINE
  8
0
 10
-31.7197
 20
64.6807
 11
-31.6754
 21
64.5898
  0
LINE
  8
0
 10
-31.6754
 20
64.5898
 11
-31.6374
 21
64.4959
  0
LINE
  8
0
 10
-31.6374
 20
64.4959
 11
-31.6062
 21
64.3997
  0
LINE
  8
0
 10
-31.6062
 20
64.3997
 11
-31.5817
 21
64.3015
  0
LINE
  8
0
 10
-31.5817
 20
64.3015
 11
-31.5641
 21
64.2018
  0
LINE
  8
0
 10
-31.5641
 20
64.2018
 11
-31.5535
 21
64.1011
  0
LINE
  8
0
 10
-31.5535
 20
64.1011
 11
-31.55
 21
64
  0
LINE
  8
0
 10
-31.55
 20
64
 11
-31.5535
 21
63.8989
  0
LINE
  8
0
 10
-31.5535
 20
63.8989
 11
-31.5641
 21
63.7982
  0
LINE
  8
0
 10
-31.5641
 20
63.7982
 11
-31.5817
 21
63.6985
  0
LINE
  8
0
 10
-31.5817
 20
63.6985
 11
-31.6062
 21
63.6003
  0
LINE
  8
0
 10
-31.6062
 20
63.6003
 11
-31.6374
 21
63.5041
  0
LINE
  8
0
 10
-31.6374
 20
63.5041
 11
-31.6754
 21
63.4102
  0
LINE
  8
0
 10
-31.6754
 20
63.4102
 11
-31.7197
 21
63.3193
  0
LINE
  8
0
 10
-31.7197
 20
63.3193
 11
-31.7703
 21
63.2316
  0
LINE
  8
0
 10
-31.7703
 20
63.2316
 11
-31.8269
 21
63.1477
  0
LINE
  8
0
 10
-31.8269
 20
63.1477
 11
-31.8892
 21
63.068
  0
LINE
  8
0
 10
-31.8892
 20
63.068
 11
-31.957
 21
62.9927
  0
LINE
  8
0
 10
-31.957
 20
62.9927
 11
-32.0298
 21
62.9224
  0
LINE
  8
0
 10
-32.0298
 20
62.9224
 11
-32.1073
 21
62.8574
  0
LINE
  8
0
 10
-32.1073
 20
62.8574
 11
-32.1892
 21
62.7979
  0
LINE
  8
0
 10
-32.1892
 20
62.7979
 11
-32.275
 21
62.7443
  0
LINE
  8
0
 10
-32.275
 20
62.7443
 11
-32.3644
 21
62.6967
  0
LINE
  8
0
 10
-32.3644
 20
62.6967
 11
-32.4568
 21
62.6556
  0
LINE
  8
0
 10
-32.4568
 20
62.6556
 11
-32.5519
 21
62.621
  0
LINE
  8
0
 10
-32.5519
 20
62.621
 11
-32.6492
 21
62.5931
  0
LINE
  8
0
 10
-32.6492
 20
62.5931
 11
-32.7482
 21
62.572
  0
LINE
  8
0
 10
-32.7482
 20
62.572
 11
-32.8484
 21
62.5579
  0
LINE
  8
0
 10
-32.8484
 20
62.5579
 11
-32.9494
 21
62.5509
  0
LINE
  8
0
 10
-32.9494
 20
62.5509
 11
-33.0506
 21
62.5509
  0
LINE
  8
0
 10
-33.0506
 20
62.5509
 11
-33.1516
 21
62.5579
  0
LINE
  8
0
 10
-33.1516
 20
62.5579
 11
-33.2518
 21
62.572
  0
LINE
  8
0
 10
-33.2518
 20
62.572
 11
-33.3508
 21
62.5931
  0
LINE
  8
0
 10
-33.3508
 20
62.5931
 11
-33.4481
 21
62.621
  0
LINE
  8
0
 10
-33.4481
 20
62.621
 11
-33.5432
 21
62.6556
  0
LINE
  8
0
 10
-33.5432
 20
62.6556
 11
-33.6356
 21
62.6967
  0
LINE
  8
0
 10
-33.6356
 20
62.6967
 11
-33.725
 21
62.7443
  0
LINE
  8
0
 10
-33.725
 20
62.7443
 11
-33.8108
 21
62.7979
  0
LINE
  8
0
 10
-33.8108
 20
62.7979
 11
-33.8927
 21
62.8574
  0
LINE
  8
0
 10
-33.8927
 20
62.8574
 11
-33.9702
 21
62.9224
  0
LINE
  8
0
 10
-33.9702
 20
62.9224
 11
-34.043
 21
62.9927
  0
LINE
  8
0
 10
-34.043
 20
62.9927
 11
-34.1108
 21
63.068
  0
LINE
  8
0
 10
-34.1108
 20
63.068
 11
-34.1731
 21
63.1477
  0
LINE
  8
0
 10
-34.1731
 20
63.1477
 11
-34.2297
 21
63.2316
  0
LINE
  8
0
 10
-34.2297
 20
63.2316
 11
-34.2803
 21
63.3193
  0
LINE
  8
0
 10
-34.2803
 20
63.3193
 11
-34.3246
 21
63.4102
  0
LINE
  8
0
 10
-34.3246
 20
63.4102
 11
-34.3626
 21
63.5041
  0
LINE
  8
0
 10
-34.3626
 20
63.5041
 11
-34.3938
 21
63.6003
  0
LINE
  8
0
 10
-34.3938
 20
63.6003
 11
-34.4183
 21
63.6985
  0
LINE
  8
0
 10
-34.4183
 20
63.6985
 11
-34.4359
 21
63.7982
  0
LINE
  8
0
 10
-34.4359
 20
63.7982
 11
-34.4465
 21
63.8989
  0
LINE
  8
0
 10
-34.4465
 20
63.8989
 11
-34.45
 21
64
  0
LINE
  8
0
 10
31.55
 20
-64
 11
31.5535
 21
-63.8989
  0
LINE
  8
0
 10
31.5535
 20
-63.8989
 11
31.5641
 21
-63.7982
  0
LINE
  8
0
 10
31.5641
 20
-63.7982
 11
31.5817
 21
-63.6985
  0
LINE
  8
0
 10
31.5817
 20
-63.6985
 11
31.6062
 21
-63.6003
  0
LINE
  8
0
 10
31.6062
 20
-63.6003
 11
31.6374
 21
-63.5041
  0
LINE
  8
0
 10
31.6374
 20
-63.5041
 11
31.6754
 21
-63.4102
  0
LINE
  8
0
 10
31.6754
 20
-63.4102
 11
31.7197
 21
-63.3193
  0
LINE
  8
0
 10
31.7197
 20
-63.3193
 11
31.7703
 21
-63.2316
  0
LINE
  8
0
 10
31.7703
 20
-63.2316
 11
31.8269
 21
-63.1477
  0
LINE
  8
0
 10
31.8269
 20
-63.1477
 11
31.8892
 21
-63.068
  0
LINE
  8
0
 10
31.8892
 20
-63.068
 11
31.957
 21
-62.9927
  0
LINE
  8
0
 10
31.957
 20
-62.9927
 11
32.0298
 21
-62.9224
  0
LINE
  8
0
 10
32.0298
 20
-62.9224
 11
32.1073
 21
-62.8574
  0
LINE
  8
0
 10
32.1073
 20
-62.8574
 11
32.1892
 21
-62.7979
  0
LINE
  8
0
 10
32.1892
 20
-62.7979
 11
32.275
 21
-62.7443
  0
LINE
  8
0
 10
32.275
 20
-62.7443
 11
32.3644
 21
-62.6967
  0
LINE
  8
0
 10
32.3644
 20
-62.6967
 11
32.4568
 21
-62.6556
  0
LINE
  8
0
 10
32.4568
 20
-62.6556
 11
32.5519
 21
-62.621
  0
LINE
  8
0
 10
32.5519
 20
-62.621
 11
32.6492
 21
-62.5931
  0
LINE
  8
0
 10
32.6492
 20
-62.5931
 11
32.7482
 21
-62.572
  0
LINE
  8
0
 10
32.7482
 20
-62.572
 11
32.8484
 21
-62.5579
  0
LINE
  8
0
 10
32.8484
 20
-62.5579
 11
32.9494
 21
-62.5509
  0
LINE
  8
0
 10
32.9494
 20
-62.5509
 11
33.0506
 21
-62.5509
  0
LINE
  8
0
 10
33.0506
 20
-62.5509
 11
33.1516
 21
-62.5579
  0
LINE
  8
0
 10
33.1516
 20
-62.5579
 11
33.2518
 21
-62.572
  0
LINE
  8
0
 10
33.2518
 20
-62.572
 11
33.3508
 21
-62.5931
  0
LINE
  8
0
 10
33.3508
 20
-62.5931
 11
33.4481
 21
-62.621
  0
LINE
  8
0
 10
33.4481
 20
-62.621
 11
33.5432
 21
-62.6556
  0
LINE
  8
0
 10
33.5432
 20
-62.6556
 11
33.6356
 21
-62.6967
  0
LINE
  8
0
 10
33.6356
 20
-62.6967
 11
33.725
 21
-62.7443
  0
LINE
  8
0
 10
33.725
 20
-62.7443
 11
33.8108
 21
-62.7979
  0
LINE
  8
0
 10
33.8108
 20
-62.7979
 11
33.8927
 21
-62.8574
  0
LINE
  8
0
 10
33.8927
 20
-62.8574
 11
33.9702
 21
-62.9224
  0
LINE
  8
0
 10
33.9702
 20
-62.9224
 11
34.043
 21
-62.9927
  0
LINE
  8
0
 10
34.043
 20
-62.9927
 11
34.1108
 21
-63.068
  0
LINE
  8
0
 10
34.1108
 20
-63.068
 11
34.1731
 21
-63.1477
  0
LINE
  8
0
 10
34.1731
 20
-63.1477
 11
34.2297
 21
-63.2316
  0
LINE
  8
0
 10
34.2297
 20
-63.2316
 11
34.2803
 21
-63.3193
  0
LINE
  8
0
 10
34.2803
 20
-63.3193
 11
34.3246
 21
-63.4102
  0
LINE
  8
0
 10
34.3246
 20
-63.4102
 11
34.3626
 21
-63.5041
  0
LINE
  8
0
 10
34.3626
 20
-63.5041
 11
34.3938
 21
-63.6003
  0
LINE
  8
0
 10
34.3938
 20
-63.6003
 11
34.4183
 21
-63.6985
  0
LINE
  8
0
 10
34.4183
 20
-63.6985
 11
34.4359
 21
-63.7982
  0
LINE
  8
0
 10
34.4359
 20
-63.7982
 11
34.4465
 21
-63.8989
  0
LINE
  8
0
 10
34.4465
 20
-63.8989
 11
34.45
 21
-64
  0
LINE
  8
0
 10
34.45
 20
-64
 11
34.4465
 21
-64.1011
  0
LINE
  8
0
 10
34.4465
 20
-64.1011
 11
34.4359
 21
-64.2018
  0
LINE
  8
0
 10
34.4359
 20
-64.2018
 11
34.4183
 21
-64.3015
  0
LINE
  8
0
 10
34.4183
 20
-64.3015
 11
34.3938
 21
-64.3997
  0
LINE
  8
0
 10
34.3938
 20
-64.3997
 11
34.3626
 21
-64.4959
  0
LINE
  8
0
 10
34.3626
 20
-64.4959
 11
34.3246
 21
-64.5898
  0
LINE
  8
0
 10
34.3246
 20
-64.5898
 11
34.2803
 21
-64.6807
  0
LINE
  8
0
 10
34.2803
 20
-64.6807
 11
34.2297
 21
-64.7684
  0
LINE
  8
0
 10
34.2297
 20
-64.7684
 11
34.1731
 21
-64.8523
  0
LINE
  8
0
 10
34.1731
 20
-64.8523
 11
34.1108
 21
-64.932
  0
LINE
  8
0
 10
34.1108
 20
-64.932
 11
34.043
 21
-65.0073
  0
LINE
  8
0
 10
34.043
 20
-65.0073
 11
33.9702
 21
-65.0776
  0
LINE
  8
0
 10
33.9702
 20
-65.0776
 11
33.8927
 21
-65.1426
  0
LINE
  8
0
 10
33.8927
 20
-65.1426
 11
33.8108
 21
-65.2021
  0
LINE
  8
0
 10
33.8108
 20
-65.2021
 11
33.725
 21
-65.2557
  0
LINE
  8
0
 10
33.725
 20
-65.2557
 11
33.6356
 21
-65.3033
  0
LINE
  8
0
 10
33.6356
 20
-65.3033
 11
33.5432
 21
-65.3444
  0
LINE
  8
0
 10
33.5432
 20
-65.3444
 11
33.4481
 21
-65.379
  0
LINE
  8
0
 10
33.4481
 20
-65.379
 11
33.3508
 21
-65.4069
  0
LINE
  8
0
 10
33.3508
 20
-65.4069
 11
33.2518
 21
-65.428
  0
LINE
  8
0
 10
33.2518
 20
-65.428
 11
33.1516
 21
-65.4421
  0
LINE
  8
0
 10
33.1516
 20
-65.4421
 11
33.0506
 21
-65.4491
  0
LINE
  8
0
 10
33.0506
 20
-65.4491
 11
32.9494
 21
-65.4491
  0
LINE
  8
0
 10
32.9494
 20
-65.4491
 11
32.8484
 21
-65.4421
  0
LINE
  8
0
 10
32.8484
 20
-65.4421
 11
32.7482
 21
-65.428
  0
LINE
  8
0
 10
32.7482
 20
-65.428
 11
32.6492
 21
-65.4069
  0
LINE
  8
0
 10
32.6492
 20
-65.4069
 11
32.5519
 21
-65.379
  0
LINE
  8
0
 10
32.5519
 20
-65.379
 11
32.4568
 21
-65.3444
  0
LINE
  8
0
 10
32.4568
 20
-65.3444
 11
32.3644
 21
-65.3033
  0
LINE
  8
0
 10
32.3644
 20
-65.3033
 11
32.275
 21
-65.2557
  0
LINE
  8
0
 10
32.275
 20
-65.2557
 11
32.1892
 21
-65.2021
  0
LINE
  8
0
 10
32.1892
 20
-65.2021
 11
32.1073
 21
-65.1426
  0
LINE
  8
0
 10
32.1073
 20
-65.1426
 11
32.0298
 21
-65.0776
  0
LINE
  8
0
 10
32.0298
 20
-65.0776
 11
31.957
 21
-65.0073
  0
LINE
  8
0
 10
31.957
 20
-65.0073
 11
31.8892
 21
-64.932
  0
LINE
  8
0
 10
31.8892
 20
-64.932
 11
31.8269
 21
-64.8523
  0
LINE
  8
0
 10
31.8269
 20
-64.8523
 11
31.7703
 21
-64.7684
  0
LINE
  8
0
 10
31.7703
 20
-64.7684
 11
31.7197
 21
-64.6807
  0
LINE
  8
0
 10
31.7197
 20
-64.6807
 11
31.6754
 21
-64.5898
  0
LINE
  8
0
 10
31.6754
 20
-64.5898
 11
31.6374
 21
-64.4959
  0
LINE
  8
0
 10
31.6374
 20
-64.4959
 11
31.6062
 21
-64.3997
  0
LINE
  8
0
 10
31.6062
 20
-64.3997
 11
31.5817
 21
-64.3015
  0
LINE
  8
0
 10
31.5817
 20
-64.3015
 11
31.5641
 21
-64.2018
  0
LINE
  8
0
 10
31.5641
 20
-64.2018
 11
31.5535
 21
-64.1011
  0
LINE
  8
0
 10
31.5535
 20
-64.1011
 11
31.55
 21
-64
  0
LINE
  8
0
 10
31.55
 20
64
 11
31.5535
 21
64.1011
  0
LINE
  8
0
 10
31.5535
 20
64.1011
 11
31.5641
 21
64.2018
  0
LINE
  8
0
 10
31.5641
 20
64.2018
 11
31.5817
 21
64.3015
  0
LINE
  8
0
 10
31.5817
 20
64.3015
 11
31.6062
 21
64.3997
  0
LINE
  8
0
 10
31.6062
 20
64.3997
 11
31.6374
 21
64.4959
  0
LINE
  8
0
 10
31.6374
 20
64.4959
 11
31.6754
 21
64.5898
  0
LINE
  8
0
 10
31.6754
 20
64.5898
 11
31.7197
 21
64.6807
  0
LINE
  8
0
 10
31.7197
 20
64.6807
 11
31.7703
 21
64.7684
  0
LINE
  8
0
 10
31.7703
 20
64.7684
 11
31.8269
 21
64.8523
  0
LINE
  8
0
 10
31.8269
 20
64.8523
 11
31.8892
 21
64.932
  0
LINE
  8
0
 10
31.8892
 20
64.932
 11
31.957
 21
65.0073
  0
LINE
  8
0
 10
31.957
 20
65.0073
 11
32.0298
 21
65.0776
  0
LINE
  8
0
 10
32.0298
 20
65.0776
 11
32.1073
 21
65.1426
  0
LINE
  8
0
 10
32.1073
 20
65.1426
 11
32.1892
 21
65.2021
  0
LINE
  8
0
 10
32.1892
 20
65.2021
 11
32.275
 21
65.2557
  0
LINE
  8
0
 10
32.275
 20
65.2557
 11
32.3644
 21
65.3033
  0
LINE
  8
0
 10
32.3644
 20
65.3033
 11
32.4568
 21
65.3444
  0
LINE
  8
0
 10
32.4568
 20
65.3444
 11
32.5519
 21
65.379
  0
LINE
  8
0
 10
32.5519
 20
65.379
 11
32.6492
 21
65.4069
  0
LINE
  8
0
 10
32.6492
 20
65.4069
 11
32.7482
 21
65.428
  0
LINE
  8
0
 10
32.7482
 20
65.428
 11
32.8484
 21
65.4421
  0
LINE
  8
0
 10
32.8484
 20
65.4421
 11
32.9494
 21
65.4491
  0
LINE
  8
0
 10
32.9494
 20
65.4491
 11
33.0506
 21
65.4491
  0
LINE
  8
0
 10
33.0506
 20
65.4491
 11
33.1516
 21
65.4421
  0
LINE
  8
0
 10
33.1516
 20
65.4421
 11
33.2518
 21
65.428
  0
LINE
  8
0
 10
33.2518
 20
65.428
 11
33.3508
 21
65.4069
  0
LINE
  8
0
 10
33.3508
 20
65.4069
 11
33.4481
 21
65.379
  0
LINE
  8
0
 10
33.4481
 20
65.379
 11
33.5432
 21
65.3444
  0
LINE
  8
0
 10
33.5432
 20
65.3444
 11
33.6356
 21
65.3033
  0
LINE
  8
0
 10
33.6356
 20
65.3033
 11
33.725
 21
65.2557
  0
LINE
  8
0
 10
33.725
 20
65.2557
 11
33.8108
 21
65.2021
  0
LINE
  8
0
 10
33.8108
 20
65.2021
 11
33.8927
 21
65.1426
  0
LINE
  8
0
 10
33.8927
 20
65.1426
 11
33.9702
 21
65.0776
  0
LINE
  8
0
 10
33.9702
 20
65.0776
 11
34.043
 21
65.0073
  0
LINE
  8
0
 10
34.043
 20
65.0073
 11
34.1108
 21
64.932
  0
LINE
  8
0
 10
34.1108
 20
64.932
 11
34.1731
 21
64.8523
  0
LINE
  8
0
 10
34.1731
 20
64.8523
 11
34.2297
 21
64.7684
  0
LINE
  8
0
 10
34.2297
 20
64.7684
 11
34.2803
 21
64.6807
  0
LINE
  8
0
 10
34.2803
 20
64.6807
 11
34.3246
 21
64.5898
  0
LINE
  8
0
 10
34.3246
 20
64.5898
 11
34.3626
 21
64.4959
  0
LINE
  8
0
 10
34.3626
 20
64.4959
 11
34.3938
 21
64.3997
  0
LINE
  8
0
 10
34.3938
 20
64.3997
 11
34.4183
 21
64.3015
  0
LINE
  8
0
 10
34.4183
 20
64.3015
 11
34.4359
 21
64.2018
  0
LINE
  8
0
 10
34.4359
 20
64.2018
 11
34.4465
 21
64.1011
  0
LINE
  8
0
 10
34.4465
 20
64.1011
 11
34.45
 21
64
  0
LINE
  8
0
 10
34.45
 20
64
 11
34.4465
 21
63.8989
  0
LINE
  8
0
 10
34.4465
 20
63.8989
 11
34.4359
 21
63.7982
  0
LINE
  8
0
 10
34.4359
 20
63.7982
 11
34.4183
 21
63.6985
  0
LINE
  8
0
 10
34.4183
 20
63.6985
 11
34.3938
 21
63.6003
  0
LINE
  8
0
 10
34.3938
 20
63.6003
 11
34.3626
 21
63.5041
  0
LINE
  8
0
 10
34.3626
 20
63.5041
 11
34.3246
 21
63.4102
  0
LINE
  8
0
 10
34.3246
 20
63.4102
 11
34.2803
 21
63.3193
  0
LINE
  8
0
 10
34.2803
 20
63.3193
 11
34.2297
 21
63.2316
  0
LINE
  8
0
 10
34.2297
 20
63.2316
 11
34.1731
 21
63.1477
  0
LINE
  8
0
 10
34.1731
 20
63.1477
 11
34.1108
 21
63.068
  0
LINE
  8
0
 10
34.1108
 20
63.068
 11
34.043
 21
62.9927
  0
LINE
  8
0
 10
34.043
 20
62.9927
 11
33.9702
 21
62.9224
  0
LINE
  8
0
 10
33.9702
 20
62.9224
 11
33.8927
 21
62.8574
  0
LINE
  8
0
 10
33.8927
 20
62.8574
 11
33.8108
 21
62.7979
  0
LINE
  8
0
 10
33.8108
 20
62.7979
 11
33.725
 21
62.7443
  0
LINE
  8
0
 10
33.725
 20
62.7443
 11
33.6356
 21
62.6967
  0
LINE
  8
0
 10
33.6356
 20
62.6967
 11
33.5432
 21
62.6556
  0
LINE
  8
0
 10
33.5432
 20
62.6556
 11
33.4481
 21
62.621
  0
LINE
  8
0
 10
33.4481
 20
62.621
 11
33.3508
 21
62.5931
  0
LINE
  8
0
 10
33.3508
 20
62.5931
 11
33.2518
 21
62.572
  0
LINE
  8
0
 10
33.2518
 20
62.572
 11
33.1516
 21
62.5579
  0
LINE
  8
0
 10
33.1516
 20
62.5579
 11
33.0506
 21
62.5509
  0
LINE
  8
0
 10
33.0506
 20
62.5509
 11
32.9494
 21
62.5509
  0
LINE
  8
0
 10
32.9494
 20
62.5509
 11
32.8484
 21
62.5579
  0
LINE
  8
0
 10
32.8484
 20
62.5579
 11
32.7482
 21
62.572
  0
LINE
  8
0
 10
32.7482
 20
62.572
 11
32.6492
 21
62.5931
  0
LINE
  8
0
 10
32.6492
 20
62.5931
 11
32.5519
 21
62.621
  0
LINE
  8
0
 10
32.5519
 20
62.621
 11
32.4568
 21
62.6556
  0
LINE
  8
0
 10
32.4568
 20
62.6556
 11
32.3644
 21
62.6967
  0
LINE
  8
0
 10
32.3644
 20
62.6967
 11
32.275
 21
62.7443
  0
LINE
  8
0
 10
32.275
 20
62.7443
 11
32.1892
 21
62.7979
  0
LINE
  8
0
 10
32.1892
 20
62.7979
 11
32.1073
 21
62.8574
  0
LINE
  8
0
 10
32.1073
 20
62.8574
 11
32.0298
 21
62.9224
  0
LINE
  8
0
 10
32.0298
 20
62.9224
 11
31.957
 21
62.9927
  0
LINE
  8
0
 10
31.957
 20
62.9927
 11
31.8892
 21
63.068
  0
LINE
  8
0
 10
31.8892
 20
63.068
 11
31.8269
 21
63.1477
  0
LINE
  8
0
 10
31.8269
 20
63.1477
 11
31.7703
 21
63.2316
  0
LINE
  8
0
 10
31.7703
 20
63.2316
 11
31.7197
 21
63.3193
  0
LINE
  8
0
 10
31.7197
 20
63.3193
 11
31.6754
 21
63.4102
  0
LINE
  8
0
 10
31.6754
 20
63.4102
 11
31.6374
 21
63.5041
  0
LINE
  8
0
 10
31.6374
 20
63.5041
 11
31.6062
 21
63.6003
  0
LINE
  8
0
 10
31.6062
 20
63.6003
 11
31.5817
 21
63.6985
  0
LINE
  8
0
 10
31.5817
 20
63.6985
 11
31.5641
 21
63.7982
  0
LINE
  8
0
 10
31.5641
 20
63.7982
 11
31.5535
 21
63.8989
  0
LINE
  8
0
 10
31.5535
 20
63.8989
 11
31.55
 21
64
  0
ENDSEC
  0
SECTION
  2
OBJECTS
  0
DICTIONARY
  0
ENDSEC
  0
EOF
