  0
SECTION
  2
BLOCKS
  0
ENDSEC
  0
SECTION
  2
ENTITIES
  0
LINE
  8
0
 10
-46.525
 20
-90.0306
 11
-7.54999
 21
-90.0306
  0
LINE
  8
0
 10
-7.54999
 20
-90.0306
 11
-7.54999
 21
-93.085
  0
LINE
  8
0
 10
-7.54999
 20
-93.085
 11
7.54999
 21
-93.085
  0
LINE
  8
0
 10
7.54999
 20
-93.085
 11
7.54999
 21
-90.0306
  0
LINE
  8
0
 10
7.54999
 20
-90.0306
 11
46.525
 21
-90.0306
  0
LINE
  8
0
 10
46.525
 20
-90.0306
 11
46.525
 21
-93.085
  0
LINE
  8
0
 10
46.525
 20
-93.085
 11
61.625
 21
-93.085
  0
LINE
  8
0
 10
61.625
 20
-93.085
 11
61.625
 21
-90.0306
  0
LINE
  8
0
 10
61.625
 20
-90.0306
 11
72.9467
 21
-90.0306
  0
LINE
  8
0
 10
72.9467
 20
-90.0306
 11
74.603
 21
-89.6786
  0
LINE
  8
0
 10
74.603
 20
-89.6786
 11
76.15
 21
-88.9898
  0
LINE
  8
0
 10
76.15
 20
-88.9898
 11
77.52
 21
-87.9945
  0
LINE
  8
0
 10
77.52
 20
-87.9945
 11
78.653
 21
-86.7361
  0
LINE
  8
0
 10
78.653
 20
-86.7361
 11
79.4997
 21
-85.2696
  0
LINE
  8
0
 10
79.4997
 20
-85.2696
 11
80.023
 21
-83.6591
  0
LINE
  8
0
 10
80.023
 20
-83.6591
 11
80.2
 21
-81.975
  0
LINE
  8
0
 10
80.2
 20
-81.975
 11
80.19
 21
-81.975
  0
LINE
  8
0
 10
80.19
 20
-81.975
 11
80.19
 21
-75.3586
  0
LINE
  8
0
 10
80.19
 20
-75.3586
 11
79.8864
 21
-75.3586
  0
LINE
  8
0
 10
79.8864
 20
-75.3586
 11
79.2729
 21
-75.2282
  0
LINE
  8
0
 10
79.2729
 20
-75.2282
 11
56.8729
 21
-68.8282
  0
LINE
  8
0
 10
56.8729
 20
-68.8282
 11
56.3
 21
-68.5731
  0
LINE
  8
0
 10
56.3
 20
-68.5731
 11
55.7926
 21
-68.2044
  0
LINE
  8
0
 10
55.7926
 20
-68.2044
 11
55.3729
 21
-67.7384
  0
LINE
  8
0
 10
55.3729
 20
-67.7384
 11
55.0594
 21
-67.1952
  0
LINE
  8
0
 10
55.0594
 20
-67.1952
 11
54.8656
 21
-66.5987
  0
LINE
  8
0
 10
54.8656
 20
-66.5987
 11
54.8
 21
-65.975
  0
LINE
  8
0
 10
54.8
 20
-65.975
 11
54.8
 21
-54.4745
  0
LINE
  8
0
 10
54.8
 20
-54.4745
 11
27.8529
 21
-54.4745
  0
LINE
  8
0
 10
27.8529
 20
-54.4745
 11
27.6484
 21
-54.431
  0
LINE
  8
0
 10
27.6484
 20
-54.431
 11
27.4574
 21
-54.346
  0
LINE
  8
0
 10
27.4574
 20
-54.346
 11
27.2883
 21
-54.2231
  0
LINE
  8
0
 10
27.2883
 20
-54.2231
 11
27.1484
 21
-54.0678
  0
LINE
  8
0
 10
27.1484
 20
-54.0678
 11
27.0439
 21
-53.8867
  0
LINE
  8
0
 10
27.0439
 20
-53.8867
 11
26.9793
 21
-53.6879
  0
LINE
  8
0
 10
26.9793
 20
-53.6879
 11
26.9574
 21
-53.48
  0
LINE
  8
0
 10
26.9574
 20
-53.48
 11
26.9574
 21
-49.48
  0
LINE
  8
0
 10
26.9574
 20
-49.48
 11
26.9793
 21
-49.2721
  0
LINE
  8
0
 10
26.9793
 20
-49.2721
 11
27.0439
 21
-49.0733
  0
LINE
  8
0
 10
27.0439
 20
-49.0733
 11
27.1484
 21
-48.8922
  0
LINE
  8
0
 10
27.1484
 20
-48.8922
 11
27.2883
 21
-48.7368
  0
LINE
  8
0
 10
27.2883
 20
-48.7368
 11
27.4574
 21
-48.614
  0
LINE
  8
0
 10
27.4574
 20
-48.614
 11
27.6484
 21
-48.5289
  0
LINE
  8
0
 10
27.6484
 20
-48.5289
 11
27.8529
 21
-48.4855
  0
LINE
  8
0
 10
27.8529
 20
-48.4855
 11
30.317
 21
-48.4855
  0
LINE
  8
0
 10
30.317
 20
-48.4855
 11
30.2491
 21
-48.4711
  0
LINE
  8
0
 10
30.2491
 20
-48.4711
 11
30.0581
 21
-48.386
  0
LINE
  8
0
 10
30.0581
 20
-48.386
 11
29.889
 21
-48.2631
  0
LINE
  8
0
 10
29.889
 20
-48.2631
 11
29.7491
 21
-48.1078
  0
LINE
  8
0
 10
29.7491
 20
-48.1078
 11
29.6446
 21
-47.9267
  0
LINE
  8
0
 10
29.6446
 20
-47.9267
 11
29.58
 21
-47.7279
  0
LINE
  8
0
 10
29.58
 20
-47.7279
 11
29.5581
 21
-47.52
  0
LINE
  8
0
 10
29.5581
 20
-47.52
 11
29.5581
 21
-43.52
  0
LINE
  8
0
 10
29.5581
 20
-43.52
 11
29.58
 21
-43.3121
  0
LINE
  8
0
 10
29.58
 20
-43.3121
 11
29.6446
 21
-43.1133
  0
LINE
  8
0
 10
29.6446
 20
-43.1133
 11
29.7491
 21
-42.9322
  0
LINE
  8
0
 10
29.7491
 20
-42.9322
 11
29.889
 21
-42.7769
  0
LINE
  8
0
 10
29.889
 20
-42.7769
 11
30.0581
 21
-42.654
  0
LINE
  8
0
 10
30.0581
 20
-42.654
 11
30.2491
 21
-42.5689
  0
LINE
  8
0
 10
30.2491
 20
-42.5689
 11
30.4536
 21
-42.5255
  0
LINE
  8
0
 10
30.4536
 20
-42.5255
 11
54.8
 21
-42.5255
  0
LINE
  8
0
 10
54.8
 20
-42.5255
 11
54.8
 21
16.225
  0
LINE
  8
0
 10
54.8
 20
16.225
 11
54.8656
 21
16.8487
  0
LINE
  8
0
 10
54.8656
 20
16.8487
 11
55.0594
 21
17.4452
  0
LINE
  8
0
 10
55.0594
 20
17.4452
 11
55.3729
 21
17.9883
  0
LINE
  8
0
 10
55.3729
 20
17.9883
 11
55.7926
 21
18.4544
  0
LINE
  8
0
 10
55.7926
 20
18.4544
 11
56.3
 21
18.8231
  0
LINE
  8
0
 10
56.3
 20
18.8231
 11
56.8729
 21
19.0782
  0
LINE
  8
0
 10
56.8729
 20
19.0782
 11
79.2729
 21
25.4782
  0
LINE
  8
0
 10
79.2729
 20
25.4782
 11
79.8864
 21
25.6086
  0
LINE
  8
0
 10
79.8864
 20
25.6086
 11
80.19
 21
25.6086
  0
LINE
  8
0
 10
80.19
 20
25.6086
 11
80.19
 21
32.225
  0
LINE
  8
0
 10
80.19
 20
32.225
 11
80.2
 21
32.225
  0
LINE
  8
0
 10
80.2
 20
32.225
 11
80.023
 21
33.9091
  0
LINE
  8
0
 10
80.023
 20
33.9091
 11
79.4997
 21
35.5196
  0
LINE
  8
0
 10
79.4997
 20
35.5196
 11
78.653
 21
36.9861
  0
LINE
  8
0
 10
78.653
 20
36.9861
 11
77.52
 21
38.2445
  0
LINE
  8
0
 10
77.52
 20
38.2445
 11
76.15
 21
39.2398
  0
LINE
  8
0
 10
76.15
 20
39.2398
 11
74.603
 21
39.9286
  0
LINE
  8
0
 10
74.603
 20
39.9286
 11
72.9467
 21
40.2806
  0
LINE
  8
0
 10
72.9467
 20
40.2806
 11
61.625
 21
40.2806
  0
LINE
  8
0
 10
61.625
 20
40.2806
 11
61.625
 21
43.335
  0
LINE
  8
0
 10
61.625
 20
43.335
 11
46.525
 21
43.335
  0
LINE
  8
0
 10
46.525
 20
43.335
 11
46.525
 21
40.2806
  0
LINE
  8
0
 10
46.525
 20
40.2806
 11
7.54999
 21
40.2806
  0
LINE
  8
0
 10
7.54999
 20
40.2806
 11
7.54999
 21
43.335
  0
LINE
  8
0
 10
7.54999
 20
43.335
 11
-7.54999
 21
43.335
  0
LINE
  8
0
 10
-7.54999
 20
43.335
 11
-7.54999
 21
40.2806
  0
LINE
  8
0
 10
-7.54999
 20
40.2806
 11
-46.525
 21
40.2806
  0
LINE
  8
0
 10
-46.525
 20
40.2806
 11
-46.525
 21
43.335
  0
LINE
  8
0
 10
-46.525
 20
43.335
 11
-61.625
 21
43.335
  0
LINE
  8
0
 10
-61.625
 20
43.335
 11
-61.625
 21
40.2806
  0
LINE
  8
0
 10
-61.625
 20
40.2806
 11
-72.9467
 21
40.2806
  0
LINE
  8
0
 10
-72.9467
 20
40.2806
 11
-74.603
 21
39.9286
  0
LINE
  8
0
 10
-74.603
 20
39.9286
 11
-76.15
 21
39.2398
  0
LINE
  8
0
 10
-76.15
 20
39.2398
 11
-77.52
 21
38.2445
  0
LINE
  8
0
 10
-77.52
 20
38.2445
 11
-78.653
 21
36.9861
  0
LINE
  8
0
 10
-78.653
 20
36.9861
 11
-79.4997
 21
35.5196
  0
LINE
  8
0
 10
-79.4997
 20
35.5196
 11
-80.023
 21
33.9091
  0
LINE
  8
0
 10
-80.023
 20
33.9091
 11
-80.2
 21
32.225
  0
LINE
  8
0
 10
-80.2
 20
32.225
 11
-80.2
 21
25.5
  0
LINE
  8
0
 10
-80.2
 20
25.5
 11
-83.21
 21
25.5
  0
LINE
  8
0
 10
-83.21
 20
25.5
 11
-83.21
 21
25.4499
  0
LINE
  8
0
 10
-83.21
 20
25.4499
 11
-89.944
 21
25.4089
  0
LINE
  8
0
 10
-89.944
 20
25.4089
 11
-91.4776
 21
25.0829
  0
LINE
  8
0
 10
-91.4776
 20
25.0829
 11
-92.91
 21
24.4452
  0
LINE
  8
0
 10
-92.91
 20
24.4452
 11
-94.1785
 21
23.5236
  0
LINE
  8
0
 10
-94.1785
 20
23.5236
 11
-95.2276
 21
22.3584
  0
LINE
  8
0
 10
-95.2276
 20
22.3584
 11
-96.0116
 21
21.0005
  0
LINE
  8
0
 10
-96.0116
 20
21.0005
 11
-96.4961
 21
19.5093
  0
LINE
  8
0
 10
-96.4961
 20
19.5093
 11
-96.66
 21
17.95
  0
LINE
  8
0
 10
-96.66
 20
17.95
 11
-96.4961
 21
16.3907
  0
LINE
  8
0
 10
-96.4961
 20
16.3907
 11
-96.0116
 21
14.8995
  0
LINE
  8
0
 10
-96.0116
 20
14.8995
 11
-95.2276
 21
13.5416
  0
LINE
  8
0
 10
-95.2276
 20
13.5416
 11
-94.1785
 21
12.3764
  0
LINE
  8
0
 10
-94.1785
 20
12.3764
 11
-92.91
 21
11.4548
  0
LINE
  8
0
 10
-92.91
 20
11.4548
 11
-91.4776
 21
10.8171
  0
LINE
  8
0
 10
-91.4776
 20
10.8171
 11
-89.944
 21
10.4911
  0
LINE
  8
0
 10
-89.944
 20
10.4911
 11
-83.21
 21
10.4501
  0
LINE
  8
0
 10
-83.21
 20
10.4501
 11
-83.21
 21
10.4
  0
LINE
  8
0
 10
-83.21
 20
10.4
 11
-80.2
 21
10.4
  0
LINE
  8
0
 10
-80.2
 20
10.4
 11
-80.2
 21
9.60855
  0
LINE
  8
0
 10
-80.2
 20
9.60855
 11
-79.8864
 21
9.60855
  0
LINE
  8
0
 10
-79.8864
 20
9.60855
 11
-79.2729
 21
9.47816
  0
LINE
  8
0
 10
-79.2729
 20
9.47816
 11
-56.8729
 21
3.07816
  0
LINE
  8
0
 10
-56.8729
 20
3.07816
 11
-56.3
 21
2.82307
  0
LINE
  8
0
 10
-56.3
 20
2.82307
 11
-55.7926
 21
2.45442
  0
LINE
  8
0
 10
-55.7926
 20
2.45442
 11
-55.3729
 21
1.98834
  0
LINE
  8
0
 10
-55.3729
 20
1.98834
 11
-55.0594
 21
1.44521
  0
LINE
  8
0
 10
-55.0594
 20
1.44521
 11
-54.8656
 21
0.848724
  0
LINE
  8
0
 10
-54.8656
 20
0.848724
 11
-54.8
 21
0.224991
  0
LINE
  8
0
 10
-54.8
 20
0.224991
 11
-54.8
 21
-49.975
  0
LINE
  8
0
 10
-54.8
 20
-49.975
 11
-54.8656
 21
-50.5987
  0
LINE
  8
0
 10
-54.8656
 20
-50.5987
 11
-55.0594
 21
-51.1952
  0
LINE
  8
0
 10
-55.0594
 20
-51.1952
 11
-55.3729
 21
-51.7384
  0
LINE
  8
0
 10
-55.3729
 20
-51.7384
 11
-55.7926
 21
-52.2044
  0
LINE
  8
0
 10
-55.7926
 20
-52.2044
 11
-56.3
 21
-52.5731
  0
LINE
  8
0
 10
-56.3
 20
-52.5731
 11
-56.8729
 21
-52.8282
  0
LINE
  8
0
 10
-56.8729
 20
-52.8282
 11
-79.2729
 21
-59.2282
  0
LINE
  8
0
 10
-79.2729
 20
-59.2282
 11
-79.8864
 21
-59.3586
  0
LINE
  8
0
 10
-79.8864
 20
-59.3586
 11
-80.2
 21
-59.3586
  0
LINE
  8
0
 10
-80.2
 20
-59.3586
 11
-80.2
 21
-60.15
  0
LINE
  8
0
 10
-80.2
 20
-60.15
 11
-83.21
 21
-60.15
  0
LINE
  8
0
 10
-83.21
 20
-60.15
 11
-83.21
 21
-60.2001
  0
LINE
  8
0
 10
-83.21
 20
-60.2001
 11
-89.944
 21
-60.2411
  0
LINE
  8
0
 10
-89.944
 20
-60.2411
 11
-91.4776
 21
-60.5671
  0
LINE
  8
0
 10
-91.4776
 20
-60.5671
 11
-92.91
 21
-61.2048
  0
LINE
  8
0
 10
-92.91
 20
-61.2048
 11
-94.1785
 21
-62.1264
  0
LINE
  8
0
 10
-94.1785
 20
-62.1264
 11
-95.2276
 21
-63.2916
  0
LINE
  8
0
 10
-95.2276
 20
-63.2916
 11
-96.0116
 21
-64.6495
  0
LINE
  8
0
 10
-96.0116
 20
-64.6495
 11
-96.4961
 21
-66.1407
  0
LINE
  8
0
 10
-96.4961
 20
-66.1407
 11
-96.66
 21
-67.7
  0
LINE
  8
0
 10
-96.66
 20
-67.7
 11
-96.4961
 21
-69.2593
  0
LINE
  8
0
 10
-96.4961
 20
-69.2593
 11
-96.0116
 21
-70.7505
  0
LINE
  8
0
 10
-96.0116
 20
-70.7505
 11
-95.2276
 21
-72.1084
  0
LINE
  8
0
 10
-95.2276
 20
-72.1084
 11
-94.1785
 21
-73.2736
  0
LINE
  8
0
 10
-94.1785
 20
-73.2736
 11
-92.91
 21
-74.1952
  0
LINE
  8
0
 10
-92.91
 20
-74.1952
 11
-91.4776
 21
-74.8329
  0
LINE
  8
0
 10
-91.4776
 20
-74.8329
 11
-89.944
 21
-75.1589
  0
LINE
  8
0
 10
-89.944
 20
-75.1589
 11
-83.21
 21
-75.1999
  0
LINE
  8
0
 10
-83.21
 20
-75.1999
 11
-83.21
 21
-75.25
  0
LINE
  8
0
 10
-83.21
 20
-75.25
 11
-80.2
 21
-75.25
  0
LINE
  8
0
 10
-80.2
 20
-75.25
 11
-80.2
 21
-81.975
  0
LINE
  8
0
 10
-80.2
 20
-81.975
 11
-80.023
 21
-83.6591
  0
LINE
  8
0
 10
-80.023
 20
-83.6591
 11
-79.4997
 21
-85.2696
  0
LINE
  8
0
 10
-79.4997
 20
-85.2696
 11
-78.653
 21
-86.7361
  0
LINE
  8
0
 10
-78.653
 20
-86.7361
 11
-77.52
 21
-87.9945
  0
LINE
  8
0
 10
-77.52
 20
-87.9945
 11
-76.15
 21
-88.9898
  0
LINE
  8
0
 10
-76.15
 20
-88.9898
 11
-74.603
 21
-89.6786
  0
LINE
  8
0
 10
-74.603
 20
-89.6786
 11
-72.9467
 21
-90.0306
  0
LINE
  8
0
 10
-72.9467
 20
-90.0306
 11
-61.625
 21
-90.0306
  0
LINE
  8
0
 10
-61.625
 20
-90.0306
 11
-61.625
 21
-93.085
  0
LINE
  8
0
 10
-61.625
 20
-93.085
 11
-46.525
 21
-93.085
  0
LINE
  8
0
 10
-46.525
 20
-93.085
 11
-46.525
 21
-90.0306
  0
LINE
  8
0
 10
-72.5129
 20
28.2966
 11
-73.3206
 21
28.4683
  0
LINE
  8
0
 10
-73.3206
 20
28.4683
 11
-74.075
 21
28.8042
  0
LINE
  8
0
 10
-74.075
 20
28.8042
 11
-74.7431
 21
29.2896
  0
LINE
  8
0
 10
-74.7431
 20
29.2896
 11
-75.2956
 21
29.9032
  0
LINE
  8
0
 10
-75.2956
 20
29.9032
 11
-75.7085
 21
30.6184
  0
LINE
  8
0
 10
-75.7085
 20
30.6184
 11
-75.9637
 21
31.4037
  0
LINE
  8
0
 10
-75.9637
 20
31.4037
 11
-76.05
 21
32.225
  0
LINE
  8
0
 10
-76.05
 20
32.225
 11
-75.9637
 21
33.0462
  0
LINE
  8
0
 10
-75.9637
 20
33.0462
 11
-75.7085
 21
33.8316
  0
LINE
  8
0
 10
-75.7085
 20
33.8316
 11
-75.2956
 21
34.5468
  0
LINE
  8
0
 10
-75.2956
 20
34.5468
 11
-74.7431
 21
35.1604
  0
LINE
  8
0
 10
-74.7431
 20
35.1604
 11
-74.075
 21
35.6458
  0
LINE
  8
0
 10
-74.075
 20
35.6458
 11
-73.3206
 21
35.9817
  0
LINE
  8
0
 10
-73.3206
 20
35.9817
 11
-72.5129
 21
36.1534
  0
LINE
  8
0
 10
-72.5129
 20
36.1534
 11
-71.6871
 21
36.1534
  0
LINE
  8
0
 10
-71.6871
 20
36.1534
 11
-70.8794
 21
35.9817
  0
LINE
  8
0
 10
-70.8794
 20
35.9817
 11
-70.125
 21
35.6458
  0
LINE
  8
0
 10
-70.125
 20
35.6458
 11
-69.4569
 21
35.1604
  0
LINE
  8
0
 10
-69.4569
 20
35.1604
 11
-68.9044
 21
34.5468
  0
LINE
  8
0
 10
-68.9044
 20
34.5468
 11
-68.4915
 21
33.8316
  0
LINE
  8
0
 10
-68.4915
 20
33.8316
 11
-68.2363
 21
33.0462
  0
LINE
  8
0
 10
-68.2363
 20
33.0462
 11
-68.15
 21
32.225
  0
LINE
  8
0
 10
-68.15
 20
32.225
 11
-68.2363
 21
31.4037
  0
LINE
  8
0
 10
-68.2363
 20
31.4037
 11
-68.4915
 21
30.6184
  0
LINE
  8
0
 10
-68.4915
 20
30.6184
 11
-68.9044
 21
29.9032
  0
LINE
  8
0
 10
-68.9044
 20
29.9032
 11
-69.4569
 21
29.2896
  0
LINE
  8
0
 10
-69.4569
 20
29.2896
 11
-70.125
 21
28.8042
  0
LINE
  8
0
 10
-70.125
 20
28.8042
 11
-70.8794
 21
28.4683
  0
LINE
  8
0
 10
-70.8794
 20
28.4683
 11
-71.6871
 21
28.2966
  0
LINE
  8
0
 10
-71.6871
 20
28.2966
 11
-72.5129
 21
28.2966
  0
LINE
  8
0
 10
71.6871
 20
28.2966
 11
70.8794
 21
28.4683
  0
LINE
  8
0
 10
70.8794
 20
28.4683
 11
70.125
 21
28.8042
  0
LINE
  8
0
 10
70.125
 20
28.8042
 11
69.4569
 21
29.2896
  0
LINE
  8
0
 10
69.4569
 20
29.2896
 11
68.9044
 21
29.9032
  0
LINE
  8
0
 10
68.9044
 20
29.9032
 11
68.4915
 21
30.6184
  0
LINE
  8
0
 10
68.4915
 20
30.6184
 11
68.2363
 21
31.4037
  0
LINE
  8
0
 10
68.2363
 20
31.4037
 11
68.15
 21
32.225
  0
LINE
  8
0
 10
68.15
 20
32.225
 11
68.2363
 21
33.0462
  0
LINE
  8
0
 10
68.2363
 20
33.0462
 11
68.4915
 21
33.8316
  0
LINE
  8
0
 10
68.4915
 20
33.8316
 11
68.9044
 21
34.5468
  0
LINE
  8
0
 10
68.9044
 20
34.5468
 11
69.4569
 21
35.1604
  0
LINE
  8
0
 10
69.4569
 20
35.1604
 11
70.125
 21
35.6458
  0
LINE
  8
0
 10
70.125
 20
35.6458
 11
70.8794
 21
35.9817
  0
LINE
  8
0
 10
70.8794
 20
35.9817
 11
71.6871
 21
36.1534
  0
LINE
  8
0
 10
71.6871
 20
36.1534
 11
72.5129
 21
36.1534
  0
LINE
  8
0
 10
72.5129
 20
36.1534
 11
73.3206
 21
35.9817
  0
LINE
  8
0
 10
73.3206
 20
35.9817
 11
74.075
 21
35.6458
  0
LINE
  8
0
 10
74.075
 20
35.6458
 11
74.7431
 21
35.1604
  0
LINE
  8
0
 10
74.7431
 20
35.1604
 11
75.2956
 21
34.5468
  0
LINE
  8
0
 10
75.2956
 20
34.5468
 11
75.7085
 21
33.8316
  0
LINE
  8
0
 10
75.7085
 20
33.8316
 11
75.9637
 21
33.0462
  0
LINE
  8
0
 10
75.9637
 20
33.0462
 11
76.05
 21
32.225
  0
LINE
  8
0
 10
76.05
 20
32.225
 11
75.9637
 21
31.4037
  0
LINE
  8
0
 10
75.9637
 20
31.4037
 11
75.7085
 21
30.6184
  0
LINE
  8
0
 10
75.7085
 20
30.6184
 11
75.2956
 21
29.9032
  0
LINE
  8
0
 10
75.2956
 20
29.9032
 11
74.7431
 21
29.2896
  0
LINE
  8
0
 10
74.7431
 20
29.2896
 11
74.075
 21
28.8042
  0
LINE
  8
0
 10
74.075
 20
28.8042
 11
73.3206
 21
28.4683
  0
LINE
  8
0
 10
73.3206
 20
28.4683
 11
72.5129
 21
28.2966
  0
LINE
  8
0
 10
72.5129
 20
28.2966
 11
71.6871
 21
28.2966
  0
LINE
  8
0
 10
-89.6304
 20
13.4746
 11
-90.5506
 21
13.6702
  0
LINE
  8
0
 10
-90.5506
 20
13.6702
 11
-91.41
 21
14.0529
  0
LINE
  8
0
 10
-91.41
 20
14.0529
 11
-92.1711
 21
14.6058
  0
LINE
  8
0
 10
-92.1711
 20
14.6058
 11
-92.8006
 21
15.305
  0
LINE
  8
0
 10
-92.8006
 20
15.305
 11
-93.271
 21
16.1197
  0
LINE
  8
0
 10
-93.271
 20
16.1197
 11
-93.5617
 21
17.0144
  0
LINE
  8
0
 10
-93.5617
 20
17.0144
 11
-93.66
 21
17.95
  0
LINE
  8
0
 10
-93.66
 20
17.95
 11
-93.5617
 21
18.8856
  0
LINE
  8
0
 10
-93.5617
 20
18.8856
 11
-93.271
 21
19.7803
  0
LINE
  8
0
 10
-93.271
 20
19.7803
 11
-92.8006
 21
20.595
  0
LINE
  8
0
 10
-92.8006
 20
20.595
 11
-92.1711
 21
21.2941
  0
LINE
  8
0
 10
-92.1711
 20
21.2941
 11
-91.41
 21
21.8471
  0
LINE
  8
0
 10
-91.41
 20
21.8471
 11
-90.5506
 21
22.2298
  0
LINE
  8
0
 10
-90.5506
 20
22.2298
 11
-89.6304
 21
22.4253
  0
LINE
  8
0
 10
-89.6304
 20
22.4253
 11
-88.6896
 21
22.4253
  0
LINE
  8
0
 10
-88.6896
 20
22.4253
 11
-87.7694
 21
22.2298
  0
LINE
  8
0
 10
-87.7694
 20
22.2298
 11
-86.91
 21
21.8471
  0
LINE
  8
0
 10
-86.91
 20
21.8471
 11
-86.1489
 21
21.2941
  0
LINE
  8
0
 10
-86.1489
 20
21.2941
 11
-85.5194
 21
20.595
  0
LINE
  8
0
 10
-85.5194
 20
20.595
 11
-85.049
 21
19.7803
  0
LINE
  8
0
 10
-85.049
 20
19.7803
 11
-84.7583
 21
18.8856
  0
LINE
  8
0
 10
-84.7583
 20
18.8856
 11
-84.66
 21
17.95
  0
LINE
  8
0
 10
-84.66
 20
17.95
 11
-84.7583
 21
17.0144
  0
LINE
  8
0
 10
-84.7583
 20
17.0144
 11
-85.049
 21
16.1197
  0
LINE
  8
0
 10
-85.049
 20
16.1197
 11
-85.5194
 21
15.305
  0
LINE
  8
0
 10
-85.5194
 20
15.305
 11
-86.1489
 21
14.6058
  0
LINE
  8
0
 10
-86.1489
 20
14.6058
 11
-86.91
 21
14.0529
  0
LINE
  8
0
 10
-86.91
 20
14.0529
 11
-87.7694
 21
13.6702
  0
LINE
  8
0
 10
-87.7694
 20
13.6702
 11
-88.6896
 21
13.4746
  0
LINE
  8
0
 10
-88.6896
 20
13.4746
 11
-89.6304
 21
13.4746
  0
LINE
  8
0
 10
21.5871
 20
-3.92836
 11
20.7794
 21
-3.75667
  0
LINE
  8
0
 10
20.7794
 20
-3.75667
 11
20.025
 21
-3.42079
  0
LINE
  8
0
 10
20.025
 20
-3.42079
 11
19.3569
 21
-2.93541
  0
LINE
  8
0
 10
19.3569
 20
-2.93541
 11
18.8044
 21
-2.32175
  0
LINE
  8
0
 10
18.8044
 20
-2.32175
 11
18.3915
 21
-1.6066
  0
LINE
  8
0
 10
18.3915
 20
-1.6066
 11
18.1363
 21
-0.821243
  0
LINE
  8
0
 10
18.1363
 20
-0.821243
 11
18.05
 21
0
  0
LINE
  8
0
 10
18.05
 20
0
 11
18.1363
 21
0.821243
  0
LINE
  8
0
 10
18.1363
 20
0.821243
 11
18.3915
 21
1.6066
  0
LINE
  8
0
 10
18.3915
 20
1.6066
 11
18.8044
 21
2.32175
  0
LINE
  8
0
 10
18.8044
 20
2.32175
 11
19.3569
 21
2.93541
  0
LINE
  8
0
 10
19.3569
 20
2.93541
 11
20.025
 21
3.42079
  0
LINE
  8
0
 10
20.025
 20
3.42079
 11
20.7794
 21
3.75667
  0
LINE
  8
0
 10
20.7794
 20
3.75667
 11
21.5871
 21
3.92836
  0
LINE
  8
0
 10
21.5871
 20
3.92836
 11
22.4129
 21
3.92836
  0
LINE
  8
0
 10
22.4129
 20
3.92836
 11
23.2206
 21
3.75667
  0
LINE
  8
0
 10
23.2206
 20
3.75667
 11
23.975
 21
3.42079
  0
LINE
  8
0
 10
23.975
 20
3.42079
 11
24.6431
 21
2.93541
  0
LINE
  8
0
 10
24.6431
 20
2.93541
 11
25.1956
 21
2.32175
  0
LINE
  8
0
 10
25.1956
 20
2.32175
 11
25.6085
 21
1.6066
  0
LINE
  8
0
 10
25.6085
 20
1.6066
 11
25.8637
 21
0.821243
  0
LINE
  8
0
 10
25.8637
 20
0.821243
 11
25.95
 21
0
  0
LINE
  8
0
 10
25.95
 20
0
 11
25.8637
 21
-0.821243
  0
LINE
  8
0
 10
25.8637
 20
-0.821243
 11
25.6085
 21
-1.6066
  0
LINE
  8
0
 10
25.6085
 20
-1.6066
 11
25.1956
 21
-2.32175
  0
LINE
  8
0
 10
25.1956
 20
-2.32175
 11
24.6431
 21
-2.93541
  0
LINE
  8
0
 10
24.6431
 20
-2.93541
 11
23.975
 21
-3.42079
  0
LINE
  8
0
 10
23.975
 20
-3.42079
 11
23.2206
 21
-3.75667
  0
LINE
  8
0
 10
23.2206
 20
-3.75667
 11
22.4129
 21
-3.92836
  0
LINE
  8
0
 10
22.4129
 20
-3.92836
 11
21.5871
 21
-3.92836
  0
LINE
  8
0
 10
-22.4129
 20
-3.92836
 11
-23.2206
 21
-3.75667
  0
LINE
  8
0
 10
-23.2206
 20
-3.75667
 11
-23.975
 21
-3.42079
  0
LINE
  8
0
 10
-23.975
 20
-3.42079
 11
-24.6431
 21
-2.93541
  0
LINE
  8
0
 10
-24.6431
 20
-2.93541
 11
-25.1956
 21
-2.32175
  0
LINE
  8
0
 10
-25.1956
 20
-2.32175
 11
-25.6085
 21
-1.6066
  0
LINE
  8
0
 10
-25.6085
 20
-1.6066
 11
-25.8637
 21
-0.821243
  0
LINE
  8
0
 10
-25.8637
 20
-0.821243
 11
-25.95
 21
0
  0
LINE
  8
0
 10
-25.95
 20
0
 11
-25.8637
 21
0.821243
  0
LINE
  8
0
 10
-25.8637
 20
0.821243
 11
-25.6085
 21
1.6066
  0
LINE
  8
0
 10
-25.6085
 20
1.6066
 11
-25.1956
 21
2.32175
  0
LINE
  8
0
 10
-25.1956
 20
2.32175
 11
-24.6431
 21
2.93541
  0
LINE
  8
0
 10
-24.6431
 20
2.93541
 11
-23.975
 21
3.42079
  0
LINE
  8
0
 10
-23.975
 20
3.42079
 11
-23.2206
 21
3.75667
  0
LINE
  8
0
 10
-23.2206
 20
3.75667
 11
-22.4129
 21
3.92836
  0
LINE
  8
0
 10
-22.4129
 20
3.92836
 11
-21.5871
 21
3.92836
  0
LINE
  8
0
 10
-21.5871
 20
3.92836
 11
-20.7794
 21
3.75667
  0
LINE
  8
0
 10
-20.7794
 20
3.75667
 11
-20.025
 21
3.42079
  0
LINE
  8
0
 10
-20.025
 20
3.42079
 11
-19.3569
 21
2.93541
  0
LINE
  8
0
 10
-19.3569
 20
2.93541
 11
-18.8044
 21
2.32175
  0
LINE
  8
0
 10
-18.8044
 20
2.32175
 11
-18.3915
 21
1.6066
  0
LINE
  8
0
 10
-18.3915
 20
1.6066
 11
-18.1363
 21
0.821243
  0
LINE
  8
0
 10
-18.1363
 20
0.821243
 11
-18.05
 21
0
  0
LINE
  8
0
 10
-18.05
 20
0
 11
-18.1363
 21
-0.821243
  0
LINE
  8
0
 10
-18.1363
 20
-0.821243
 11
-18.3915
 21
-1.6066
  0
LINE
  8
0
 10
-18.3915
 20
-1.6066
 11
-18.8044
 21
-2.32175
  0
LINE
  8
0
 10
-18.8044
 20
-2.32175
 11
-19.3569
 21
-2.93541
  0
LINE
  8
0
 10
-19.3569
 20
-2.93541
 11
-20.025
 21
-3.42079
  0
LINE
  8
0
 10
-20.025
 20
-3.42079
 11
-20.7794
 21
-3.75667
  0
LINE
  8
0
 10
-20.7794
 20
-3.75667
 11
-21.5871
 21
-3.92836
  0
LINE
  8
0
 10
-21.5871
 20
-3.92836
 11
-22.4129
 21
-3.92836
  0
LINE
  8
0
 10
-1.13412
 20
-59.2906
 11
-3.35283
 21
-58.819
  0
LINE
  8
0
 10
-3.35283
 20
-58.819
 11
-5.42499
 21
-57.8964
  0
LINE
  8
0
 10
-5.42499
 20
-57.8964
 11
-7.26006
 21
-56.5631
  0
LINE
  8
0
 10
-7.26006
 20
-56.5631
 11
-8.77783
 21
-54.8775
  0
LINE
  8
0
 10
-8.77783
 20
-54.8775
 11
-9.91196
 21
-52.9131
  0
LINE
  8
0
 10
-9.91196
 20
-52.9131
 11
-10.6129
 21
-50.7558
  0
LINE
  8
0
 10
-10.6129
 20
-50.7558
 11
-10.85
 21
-48.5
  0
LINE
  8
0
 10
-10.85
 20
-48.5
 11
-10.6129
 21
-46.2442
  0
LINE
  8
0
 10
-10.6129
 20
-46.2442
 11
-9.91196
 21
-44.0869
  0
LINE
  8
0
 10
-9.91196
 20
-44.0869
 11
-8.77783
 21
-42.1225
  0
LINE
  8
0
 10
-8.77783
 20
-42.1225
 11
-7.26006
 21
-40.4369
  0
LINE
  8
0
 10
-7.26006
 20
-40.4369
 11
-5.42499
 21
-39.1036
  0
LINE
  8
0
 10
-5.42499
 20
-39.1036
 11
-3.35283
 21
-38.181
  0
LINE
  8
0
 10
-3.35283
 20
-38.181
 11
-1.13412
 21
-37.7094
  0
LINE
  8
0
 10
-1.13412
 20
-37.7094
 11
1.13412
 21
-37.7094
  0
LINE
  8
0
 10
1.13412
 20
-37.7094
 11
3.35283
 21
-38.181
  0
LINE
  8
0
 10
3.35283
 20
-38.181
 11
5.42499
 21
-39.1036
  0
LINE
  8
0
 10
5.42499
 20
-39.1036
 11
7.26006
 21
-40.4369
  0
LINE
  8
0
 10
7.26006
 20
-40.4369
 11
8.77783
 21
-42.1225
  0
LINE
  8
0
 10
8.77783
 20
-42.1225
 11
9.91196
 21
-44.0869
  0
LINE
  8
0
 10
9.91196
 20
-44.0869
 11
10.6129
 21
-46.2442
  0
LINE
  8
0
 10
10.6129
 20
-46.2442
 11
10.85
 21
-48.5
  0
LINE
  8
0
 10
10.85
 20
-48.5
 11
10.6129
 21
-50.7558
  0
LINE
  8
0
 10
10.6129
 20
-50.7558
 11
9.91196
 21
-52.9131
  0
LINE
  8
0
 10
9.91196
 20
-52.9131
 11
8.77783
 21
-54.8775
  0
LINE
  8
0
 10
8.77783
 20
-54.8775
 11
7.26006
 21
-56.5631
  0
LINE
  8
0
 10
7.26006
 20
-56.5631
 11
5.42499
 21
-57.8964
  0
LINE
  8
0
 10
5.42499
 20
-57.8964
 11
3.35283
 21
-58.819
  0
LINE
  8
0
 10
3.35283
 20
-58.819
 11
1.13412
 21
-59.2906
  0
LINE
  8
0
 10
1.13412
 20
-59.2906
 11
-1.13412
 21
-59.2906
  0
LINE
  8
0
 10
-89.6304
 20
-72.1753
 11
-90.5506
 21
-71.9798
  0
LINE
  8
0
 10
-90.5506
 20
-71.9798
 11
-91.41
 21
-71.5971
  0
LINE
  8
0
 10
-91.41
 20
-71.5971
 11
-92.1711
 21
-71.0441
  0
LINE
  8
0
 10
-92.1711
 20
-71.0441
 11
-92.8006
 21
-70.345
  0
LINE
  8
0
 10
-92.8006
 20
-70.345
 11
-93.271
 21
-69.5303
  0
LINE
  8
0
 10
-93.271
 20
-69.5303
 11
-93.5617
 21
-68.6356
  0
LINE
  8
0
 10
-93.5617
 20
-68.6356
 11
-93.66
 21
-67.7
  0
LINE
  8
0
 10
-93.66
 20
-67.7
 11
-93.5617
 21
-66.7644
  0
LINE
  8
0
 10
-93.5617
 20
-66.7644
 11
-93.271
 21
-65.8697
  0
LINE
  8
0
 10
-93.271
 20
-65.8697
 11
-92.8006
 21
-65.055
  0
LINE
  8
0
 10
-92.8006
 20
-65.055
 11
-92.1711
 21
-64.3559
  0
LINE
  8
0
 10
-92.1711
 20
-64.3559
 11
-91.41
 21
-63.8029
  0
LINE
  8
0
 10
-91.41
 20
-63.8029
 11
-90.5506
 21
-63.4202
  0
LINE
  8
0
 10
-90.5506
 20
-63.4202
 11
-89.6304
 21
-63.2246
  0
LINE
  8
0
 10
-89.6304
 20
-63.2246
 11
-88.6896
 21
-63.2246
  0
LINE
  8
0
 10
-88.6896
 20
-63.2246
 11
-87.7694
 21
-63.4202
  0
LINE
  8
0
 10
-87.7694
 20
-63.4202
 11
-86.91
 21
-63.8029
  0
LINE
  8
0
 10
-86.91
 20
-63.8029
 11
-86.1489
 21
-64.3559
  0
LINE
  8
0
 10
-86.1489
 20
-64.3559
 11
-85.5194
 21
-65.055
  0
LINE
  8
0
 10
-85.5194
 20
-65.055
 11
-85.049
 21
-65.8697
  0
LINE
  8
0
 10
-85.049
 20
-65.8697
 11
-84.7583
 21
-66.7644
  0
LINE
  8
0
 10
-84.7583
 20
-66.7644
 11
-84.66
 21
-67.7
  0
LINE
  8
0
 10
-84.66
 20
-67.7
 11
-84.7583
 21
-68.6356
  0
LINE
  8
0
 10
-84.7583
 20
-68.6356
 11
-85.049
 21
-69.5303
  0
LINE
  8
0
 10
-85.049
 20
-69.5303
 11
-85.5194
 21
-70.345
  0
LINE
  8
0
 10
-85.5194
 20
-70.345
 11
-86.1489
 21
-71.0441
  0
LINE
  8
0
 10
-86.1489
 20
-71.0441
 11
-86.91
 21
-71.5971
  0
LINE
  8
0
 10
-86.91
 20
-71.5971
 11
-87.7694
 21
-71.9798
  0
LINE
  8
0
 10
-87.7694
 20
-71.9798
 11
-88.6896
 21
-72.1753
  0
LINE
  8
0
 10
-88.6896
 20
-72.1753
 11
-89.6304
 21
-72.1753
  0
LINE
  8
0
 10
-0.261307
 20
-78.4113
 11
-0.772537
 21
-78.3026
  0
LINE
  8
0
 10
-0.772537
 20
-78.3026
 11
-1.25
 21
-78.0901
  0
LINE
  8
0
 10
-1.25
 20
-78.0901
 11
-1.67282
 21
-77.7829
  0
LINE
  8
0
 10
-1.67282
 20
-77.7829
 11
-2.02254
 21
-77.3945
  0
LINE
  8
0
 10
-2.02254
 20
-77.3945
 11
-2.28386
 21
-76.9418
  0
LINE
  8
0
 10
-2.28386
 20
-76.9418
 11
-2.44536
 21
-76.4448
  0
LINE
  8
0
 10
-2.44536
 20
-76.4448
 11
-2.5
 21
-75.925
  0
LINE
  8
0
 10
-2.5
 20
-75.925
 11
-2.44536
 21
-75.4052
  0
LINE
  8
0
 10
-2.44536
 20
-75.4052
 11
-2.28386
 21
-74.9082
  0
LINE
  8
0
 10
-2.28386
 20
-74.9082
 11
-2.02254
 21
-74.4555
  0
LINE
  8
0
 10
-2.02254
 20
-74.4555
 11
-1.67282
 21
-74.0671
  0
LINE
  8
0
 10
-1.67282
 20
-74.0671
 11
-1.24998
 21
-73.7599
  0
LINE
  8
0
 10
-1.24998
 20
-73.7599
 11
-0.772537
 21
-73.5473
  0
LINE
  8
0
 10
-0.772537
 20
-73.5473
 11
-0.261307
 21
-73.4387
  0
LINE
  8
0
 10
-0.261307
 20
-73.4387
 11
0.261307
 21
-73.4387
  0
LINE
  8
0
 10
0.261307
 20
-73.4387
 11
0.772537
 21
-73.5473
  0
LINE
  8
0
 10
0.772537
 20
-73.5473
 11
1.25
 21
-73.7599
  0
LINE
  8
0
 10
1.25
 20
-73.7599
 11
1.67282
 21
-74.0671
  0
LINE
  8
0
 10
1.67282
 20
-74.0671
 11
2.02254
 21
-74.4555
  0
LINE
  8
0
 10
2.02254
 20
-74.4555
 11
2.28386
 21
-74.9082
  0
LINE
  8
0
 10
2.28386
 20
-74.9082
 11
2.44536
 21
-75.4052
  0
LINE
  8
0
 10
2.44536
 20
-75.4052
 11
2.5
 21
-75.925
  0
LINE
  8
0
 10
2.5
 20
-75.925
 11
2.44536
 21
-76.4448
  0
LINE
  8
0
 10
2.44536
 20
-76.4448
 11
2.28386
 21
-76.9418
  0
LINE
  8
0
 10
2.28386
 20
-76.9418
 11
2.02254
 21
-77.3945
  0
LINE
  8
0
 10
2.02254
 20
-77.3945
 11
1.67282
 21
-77.7829
  0
LINE
  8
0
 10
1.67282
 20
-77.7829
 11
1.25
 21
-78.0901
  0
LINE
  8
0
 10
1.25
 20
-78.0901
 11
0.772537
 21
-78.3026
  0
LINE
  8
0
 10
0.772537
 20
-78.3026
 11
0.261307
 21
-78.4113
  0
LINE
  8
0
 10
0.261307
 20
-78.4113
 11
-0.261307
 21
-78.4113
  0
LINE
  8
0
 10
-72.5129
 20
-85.9034
 11
-73.3206
 21
-85.7317
  0
LINE
  8
0
 10
-73.3206
 20
-85.7317
 11
-74.075
 21
-85.3958
  0
LINE
  8
0
 10
-74.075
 20
-85.3958
 11
-74.7431
 21
-84.9104
  0
LINE
  8
0
 10
-74.7431
 20
-84.9104
 11
-75.2956
 21
-84.2968
  0
LINE
  8
0
 10
-75.2956
 20
-84.2968
 11
-75.7085
 21
-83.5816
  0
LINE
  8
0
 10
-75.7085
 20
-83.5816
 11
-75.9637
 21
-82.7962
  0
LINE
  8
0
 10
-75.9637
 20
-82.7962
 11
-76.05
 21
-81.975
  0
LINE
  8
0
 10
-76.05
 20
-81.975
 11
-75.9637
 21
-81.1537
  0
LINE
  8
0
 10
-75.9637
 20
-81.1537
 11
-75.7085
 21
-80.3684
  0
LINE
  8
0
 10
-75.7085
 20
-80.3684
 11
-75.2956
 21
-79.6532
  0
LINE
  8
0
 10
-75.2956
 20
-79.6532
 11
-74.7431
 21
-79.0396
  0
LINE
  8
0
 10
-74.7431
 20
-79.0396
 11
-74.075
 21
-78.5542
  0
LINE
  8
0
 10
-74.075
 20
-78.5542
 11
-73.3206
 21
-78.2183
  0
LINE
  8
0
 10
-73.3206
 20
-78.2183
 11
-72.5129
 21
-78.0466
  0
LINE
  8
0
 10
-72.5129
 20
-78.0466
 11
-71.6871
 21
-78.0466
  0
LINE
  8
0
 10
-71.6871
 20
-78.0466
 11
-70.8794
 21
-78.2183
  0
LINE
  8
0
 10
-70.8794
 20
-78.2183
 11
-70.125
 21
-78.5542
  0
LINE
  8
0
 10
-70.125
 20
-78.5542
 11
-69.4569
 21
-79.0396
  0
LINE
  8
0
 10
-69.4569
 20
-79.0396
 11
-68.9044
 21
-79.6532
  0
LINE
  8
0
 10
-68.9044
 20
-79.6532
 11
-68.4915
 21
-80.3684
  0
LINE
  8
0
 10
-68.4915
 20
-80.3684
 11
-68.2363
 21
-81.1537
  0
LINE
  8
0
 10
-68.2363
 20
-81.1537
 11
-68.15
 21
-81.975
  0
LINE
  8
0
 10
-68.15
 20
-81.975
 11
-68.2363
 21
-82.7962
  0
LINE
  8
0
 10
-68.2363
 20
-82.7962
 11
-68.4915
 21
-83.5816
  0
LINE
  8
0
 10
-68.4915
 20
-83.5816
 11
-68.9044
 21
-84.2968
  0
LINE
  8
0
 10
-68.9044
 20
-84.2968
 11
-69.4569
 21
-84.9104
  0
LINE
  8
0
 10
-69.4569
 20
-84.9104
 11
-70.125
 21
-85.3958
  0
LINE
  8
0
 10
-70.125
 20
-85.3958
 11
-70.8794
 21
-85.7317
  0
LINE
  8
0
 10
-70.8794
 20
-85.7317
 11
-71.6871
 21
-85.9034
  0
LINE
  8
0
 10
-71.6871
 20
-85.9034
 11
-72.5129
 21
-85.9034
  0
LINE
  8
0
 10
71.6871
 20
-85.9034
 11
70.8794
 21
-85.7317
  0
LINE
  8
0
 10
70.8794
 20
-85.7317
 11
70.125
 21
-85.3958
  0
LINE
  8
0
 10
70.125
 20
-85.3958
 11
69.4569
 21
-84.9104
  0
LINE
  8
0
 10
69.4569
 20
-84.9104
 11
68.9044
 21
-84.2968
  0
LINE
  8
0
 10
68.9044
 20
-84.2968
 11
68.4915
 21
-83.5816
  0
LINE
  8
0
 10
68.4915
 20
-83.5816
 11
68.2363
 21
-82.7962
  0
LINE
  8
0
 10
68.2363
 20
-82.7962
 11
68.15
 21
-81.975
  0
LINE
  8
0
 10
68.15
 20
-81.975
 11
68.2363
 21
-81.1537
  0
LINE
  8
0
 10
68.2363
 20
-81.1537
 11
68.4915
 21
-80.3684
  0
LINE
  8
0
 10
68.4915
 20
-80.3684
 11
68.9044
 21
-79.6532
  0
LINE
  8
0
 10
68.9044
 20
-79.6532
 11
69.4569
 21
-79.0396
  0
LINE
  8
0
 10
69.4569
 20
-79.0396
 11
70.125
 21
-78.5542
  0
LINE
  8
0
 10
70.125
 20
-78.5542
 11
70.8794
 21
-78.2183
  0
LINE
  8
0
 10
70.8794
 20
-78.2183
 11
71.6871
 21
-78.0466
  0
LINE
  8
0
 10
71.6871
 20
-78.0466
 11
72.5129
 21
-78.0466
  0
LINE
  8
0
 10
72.5129
 20
-78.0466
 11
73.3206
 21
-78.2183
  0
LINE
  8
0
 10
73.3206
 20
-78.2183
 11
74.075
 21
-78.5542
  0
LINE
  8
0
 10
74.075
 20
-78.5542
 11
74.7431
 21
-79.0396
  0
LINE
  8
0
 10
74.7431
 20
-79.0396
 11
75.2956
 21
-79.6532
  0
LINE
  8
0
 10
75.2956
 20
-79.6532
 11
75.7085
 21
-80.3684
  0
LINE
  8
0
 10
75.7085
 20
-80.3684
 11
75.9637
 21
-81.1537
  0
LINE
  8
0
 10
75.9637
 20
-81.1537
 11
76.05
 21
-81.975
  0
LINE
  8
0
 10
76.05
 20
-81.975
 11
75.9637
 21
-82.7962
  0
LINE
  8
0
 10
75.9637
 20
-82.7962
 11
75.7085
 21
-83.5816
  0
LINE
  8
0
 10
75.7085
 20
-83.5816
 11
75.2956
 21
-84.2968
  0
LINE
  8
0
 10
75.2956
 20
-84.2968
 11
74.7431
 21
-84.9104
  0
LINE
  8
0
 10
74.7431
 20
-84.9104
 11
74.075
 21
-85.3958
  0
LINE
  8
0
 10
74.075
 20
-85.3958
 11
73.3206
 21
-85.7317
  0
LINE
  8
0
 10
73.3206
 20
-85.7317
 11
72.5129
 21
-85.9034
  0
LINE
  8
0
 10
72.5129
 20
-85.9034
 11
71.6871
 21
-85.9034
  0
LINE
  8
0
 10
-83.2
 20
-17.325
 11
-83.21
 21
-17.325
  0
LINE
  8
0
 10
-83.21
 20
-17.325
 11
-83.21
 21
-32.425
  0
LINE
  8
0
 10
-83.21
 20
-32.425
 11
-83.2
 21
-32.425
  0
LINE
  8
0
 10
-83.2
 20
-32.425
 11
-83.2
 21
-17.325
  0
ENDSEC
  0
SECTION
  2
OBJECTS
  0
DICTIONARY
  0
ENDSEC
  0
EOF
