<?xml version="1.0" standalone="no"?>
<!DOCTYPE svg PUBLIC "-//W3C//DTD SVG 1.1//EN" "http://www.w3.org/Graphics/SVG/1.1/DTD/svg11.dtd">
<svg width="56" height="38" viewBox="-28 -26 56 38" xmlns="http://www.w3.org/2000/svg" version="1.1">
<title>OpenSCAD Model</title>
<path d="
M -27.775,-0 L -27.7105,1.23082 L -27.5177,2.44816 L -27.1987,3.63867 L -26.757,4.78932 L -26.1974,5.8875
 L -25.5262,6.92117 L -24.7505,7.87901 L -23.879,8.75053 L -22.9212,9.52617 L -21.8875,10.1974 L -20.7893,10.757
 L -19.6387,11.1987 L -18.4482,11.5177 L -17.2308,11.7105 L -16,11.775 L 16,11.775 L 17.2308,11.7105
 L 18.4482,11.5177 L 19.6387,11.1987 L 20.7893,10.757 L 21.8875,10.1974 L 22.9212,9.52617 L 23.879,8.75053
 L 24.7505,7.87901 L 25.5262,6.92117 L 26.1974,5.8875 L 26.757,4.78932 L 27.1987,3.63867 L 27.5177,2.44816
 L 27.7105,1.23082 L 27.775,-0 L 27.7105,-1.23082 L 27.5177,-2.44816 L 27.1987,-3.63867 L 26.757,-4.78932
 L 26.1974,-5.8875 L 25.5262,-6.92117 L 24.7505,-7.87901 L 9.37806,-24.9162 L 9.14122,-25.1531 L 8.88091,-25.3639
 L 8.6,-25.5463 L 8.30156,-25.6983 L 7.98885,-25.8184 L 7.66532,-25.9051 L 7.33449,-25.9575 L 7,-25.975
 L -7,-25.975 L -7.33449,-25.9575 L -7.66532,-25.9051 L -7.98885,-25.8184 L -8.30156,-25.6983 L -8.6,-25.5463
 L -8.88091,-25.3639 L -9.14122,-25.1531 L -9.37806,-24.9162 L -24.7505,-7.87901 L -25.5262,-6.92117 L -26.1974,-5.8875
 L -26.757,-4.78932 L -27.1987,-3.63867 L -27.5177,-2.44816 L -27.7105,-1.23082 z
M -17.575,-0 L -17.5664,-0.164632 L -17.5406,-0.32746 L -17.4979,-0.486701 L -17.4388,-0.64061 L -17.364,-0.787499
 L -17.2742,-0.925761 L -17.1705,-1.05388 L -17.0539,-1.17045 L -16.9258,-1.2742 L -16.7875,-1.36399 L -16.6406,-1.43883
 L -16.4867,-1.49791 L -16.3275,-1.54058 L -16.1646,-1.56637 L -16,-1.575 L -15.8354,-1.56637 L -15.6725,-1.54058
 L -15.5133,-1.49791 L -15.3594,-1.43883 L -15.2125,-1.36399 L -15.0742,-1.2742 L -14.9461,-1.17045 L -14.8295,-1.05388
 L -14.7258,-0.925761 L -14.636,-0.787499 L -14.5612,-0.64061 L -14.5021,-0.486701 L -14.4594,-0.32746 L -14.4336,-0.164632
 L -14.425,-0 L -14.4336,0.164632 L -14.4594,0.32746 L -14.5021,0.486701 L -14.5612,0.64061 L -14.636,0.787499
 L -14.7258,0.925761 L -14.8295,1.05388 L -14.9461,1.17045 L -15.0742,1.2742 L -15.2125,1.36399 L -15.3594,1.43883
 L -15.5133,1.49791 L -15.6725,1.54058 L -15.8354,1.56637 L -16,1.575 L -16.1646,1.56637 L -16.3275,1.54058
 L -16.4867,1.49791 L -16.6406,1.43883 L -16.7875,1.36399 L -16.9258,1.2742 L -17.0539,1.17045 L -17.1705,1.05388
 L -17.2742,0.925761 L -17.364,0.787499 L -17.4388,0.64061 L -17.4979,0.486701 L -17.5406,0.32746 L -17.5664,0.164632
 z
M -3.5,-9.75 L -3.5,-20.25 L 3.5,-20.25 L 3.5,-9.75 z
M 14.425,-0 L 14.4336,-0.164632 L 14.4594,-0.32746 L 14.5021,-0.486701 L 14.5612,-0.64061 L 14.636,-0.787499
 L 14.7258,-0.925761 L 14.8295,-1.05388 L 14.9461,-1.17045 L 15.0742,-1.2742 L 15.2125,-1.36399 L 15.3594,-1.43883
 L 15.5133,-1.49791 L 15.6725,-1.54058 L 15.8354,-1.56637 L 16,-1.575 L 16.1646,-1.56637 L 16.3275,-1.54058
 L 16.4867,-1.49791 L 16.6406,-1.43883 L 16.7875,-1.36399 L 16.9258,-1.2742 L 17.0539,-1.17045 L 17.1705,-1.05388
 L 17.2742,-0.925761 L 17.364,-0.787499 L 17.4388,-0.64061 L 17.4979,-0.486701 L 17.5406,-0.32746 L 17.5664,-0.164632
 L 17.575,-0 L 17.5664,0.164632 L 17.5406,0.32746 L 17.4979,0.486701 L 17.4388,0.64061 L 17.364,0.787499
 L 17.2742,0.925761 L 17.1705,1.05388 L 17.0539,1.17045 L 16.9258,1.2742 L 16.7875,1.36399 L 16.6406,1.43883
 L 16.4867,1.49791 L 16.3275,1.54058 L 16.1646,1.56637 L 16,1.575 L 15.8354,1.56637 L 15.6725,1.54058
 L 15.5133,1.49791 L 15.3594,1.43883 L 15.2125,1.36399 L 15.0742,1.2742 L 14.9461,1.17045 L 14.8295,1.05388
 L 14.7258,0.925761 L 14.636,0.787499 L 14.5612,0.64061 L 14.5021,0.486701 L 14.4594,0.32746 L 14.4336,0.164632
 z
" stroke="black" fill="lightgray" stroke-width="0.5"/></svg>
