  0
SECTION
  2
BLOCKS
  0
ENDSEC
  0
SECTION
  2
ENTITIES
  0
LINE
  8
0
 10
-20.8333
 20
0
 11
-20.8048
 21
-1.09033
  0
LINE
  8
0
 10
-20.8048
 20
-1.09033
 11
-20.7192
 21
-2.17768
  0
LINE
  8
0
 10
-20.7192
 20
-2.17768
 11
-20.5768
 21
-3.25905
  0
LINE
  8
0
 10
-20.5768
 20
-3.25905
 11
-20.3781
 21
-4.33149
  0
LINE
  8
0
 10
-20.3781
 20
-4.33149
 11
-20.1235
 21
-5.39206
  0
LINE
  8
0
 10
-20.1235
 20
-5.39206
 11
-19.8137
 21
-6.43785
  0
LINE
  8
0
 10
-19.8137
 20
-6.43785
 11
-19.4496
 21
-7.466
  0
LINE
  8
0
 10
-19.4496
 20
-7.466
 11
-19.0322
 21
-8.47368
  0
LINE
  8
0
 10
-19.0322
 20
-8.47368
 11
-18.5626
 21
-9.45813
  0
LINE
  8
0
 10
-18.5626
 20
-9.45813
 11
-18.0422
 21
-10.4167
  0
LINE
  8
0
 10
-18.0422
 20
-10.4167
 11
-17.4723
 21
-11.3466
  0
LINE
  8
0
 10
-17.4723
 20
-11.3466
 11
-16.8545
 21
-12.2455
  0
LINE
  8
0
 10
-16.8545
 20
-12.2455
 11
-16.1905
 21
-13.1108
  0
LINE
  8
0
 10
-16.1905
 20
-13.1108
 11
-15.4822
 21
-13.9402
  0
LINE
  8
0
 10
-15.4822
 20
-13.9402
 11
-14.7314
 21
-14.7314
  0
LINE
  8
0
 10
-14.7314
 20
-14.7314
 11
-13.9402
 21
-15.4822
  0
LINE
  8
0
 10
-13.9402
 20
-15.4822
 11
-13.1108
 21
-16.1905
  0
LINE
  8
0
 10
-13.1108
 20
-16.1905
 11
-12.2455
 21
-16.8545
  0
LINE
  8
0
 10
-12.2455
 20
-16.8545
 11
-11.3466
 21
-17.4723
  0
LINE
  8
0
 10
-11.3466
 20
-17.4723
 11
-10.4167
 21
-18.0422
  0
LINE
  8
0
 10
-10.4167
 20
-18.0422
 11
-9.45813
 21
-18.5626
  0
LINE
  8
0
 10
-9.45813
 20
-18.5626
 11
-8.47368
 21
-19.0322
  0
LINE
  8
0
 10
-8.47368
 20
-19.0322
 11
-7.466
 21
-19.4496
  0
LINE
  8
0
 10
-7.466
 20
-19.4496
 11
-6.43785
 21
-19.8137
  0
LINE
  8
0
 10
-6.43785
 20
-19.8137
 11
-5.39206
 21
-20.1235
  0
LINE
  8
0
 10
-5.39206
 20
-20.1235
 11
-4.33149
 21
-20.3781
  0
LINE
  8
0
 10
-4.33149
 20
-20.3781
 11
-3.25905
 21
-20.5768
  0
LINE
  8
0
 10
-3.25905
 20
-20.5768
 11
-2.17768
 21
-20.7192
  0
LINE
  8
0
 10
-2.17768
 20
-20.7192
 11
-1.09033
 21
-20.8048
  0
LINE
  8
0
 10
-1.09033
 20
-20.8048
 11
0
 21
-20.8333
  0
LINE
  8
0
 10
0
 20
-20.8333
 11
1.09033
 21
-20.8048
  0
LINE
  8
0
 10
1.09033
 20
-20.8048
 11
2.17768
 21
-20.7192
  0
LINE
  8
0
 10
2.17768
 20
-20.7192
 11
3.25905
 21
-20.5768
  0
LINE
  8
0
 10
3.25905
 20
-20.5768
 11
4.33149
 21
-20.3781
  0
LINE
  8
0
 10
4.33149
 20
-20.3781
 11
5.39206
 21
-20.1235
  0
LINE
  8
0
 10
5.39206
 20
-20.1235
 11
6.43785
 21
-19.8137
  0
LINE
  8
0
 10
6.43785
 20
-19.8137
 11
7.466
 21
-19.4496
  0
LINE
  8
0
 10
7.466
 20
-19.4496
 11
8.47368
 21
-19.0322
  0
LINE
  8
0
 10
8.47368
 20
-19.0322
 11
9.45813
 21
-18.5626
  0
LINE
  8
0
 10
9.45813
 20
-18.5626
 11
10.4167
 21
-18.0422
  0
LINE
  8
0
 10
10.4167
 20
-18.0422
 11
11.3466
 21
-17.4723
  0
LINE
  8
0
 10
11.3466
 20
-17.4723
 11
12.2455
 21
-16.8545
  0
LINE
  8
0
 10
12.2455
 20
-16.8545
 11
13.1108
 21
-16.1905
  0
LINE
  8
0
 10
13.1108
 20
-16.1905
 11
13.9402
 21
-15.4822
  0
LINE
  8
0
 10
13.9402
 20
-15.4822
 11
14.7314
 21
-14.7314
  0
LINE
  8
0
 10
14.7314
 20
-14.7314
 11
15.4822
 21
-13.9402
  0
LINE
  8
0
 10
15.4822
 20
-13.9402
 11
16.1905
 21
-13.1108
  0
LINE
  8
0
 10
16.1905
 20
-13.1108
 11
16.8545
 21
-12.2455
  0
LINE
  8
0
 10
16.8545
 20
-12.2455
 11
17.4723
 21
-11.3466
  0
LINE
  8
0
 10
17.4723
 20
-11.3466
 11
18.0422
 21
-10.4167
  0
LINE
  8
0
 10
18.0422
 20
-10.4167
 11
18.5626
 21
-9.45813
  0
LINE
  8
0
 10
18.5626
 20
-9.45813
 11
19.0322
 21
-8.47368
  0
LINE
  8
0
 10
19.0322
 20
-8.47368
 11
19.4496
 21
-7.466
  0
LINE
  8
0
 10
19.4496
 20
-7.466
 11
19.8137
 21
-6.43785
  0
LINE
  8
0
 10
19.8137
 20
-6.43785
 11
20.1235
 21
-5.39206
  0
LINE
  8
0
 10
20.1235
 20
-5.39206
 11
20.3781
 21
-4.33149
  0
LINE
  8
0
 10
20.3781
 20
-4.33149
 11
20.5768
 21
-3.25905
  0
LINE
  8
0
 10
20.5768
 20
-3.25905
 11
20.7192
 21
-2.17768
  0
LINE
  8
0
 10
20.7192
 20
-2.17768
 11
20.8048
 21
-1.09033
  0
LINE
  8
0
 10
20.8048
 20
-1.09033
 11
20.8333
 21
0
  0
LINE
  8
0
 10
20.8333
 20
0
 11
20.8048
 21
1.09033
  0
LINE
  8
0
 10
20.8048
 20
1.09033
 11
20.7192
 21
2.17768
  0
LINE
  8
0
 10
20.7192
 20
2.17768
 11
20.5768
 21
3.25905
  0
LINE
  8
0
 10
20.5768
 20
3.25905
 11
20.3781
 21
4.33149
  0
LINE
  8
0
 10
20.3781
 20
4.33149
 11
20.1235
 21
5.39206
  0
LINE
  8
0
 10
20.1235
 20
5.39206
 11
19.8137
 21
6.43785
  0
LINE
  8
0
 10
19.8137
 20
6.43785
 11
19.4496
 21
7.466
  0
LINE
  8
0
 10
19.4496
 20
7.466
 11
19.0322
 21
8.47368
  0
LINE
  8
0
 10
19.0322
 20
8.47368
 11
18.5626
 21
9.45813
  0
LINE
  8
0
 10
18.5626
 20
9.45813
 11
18.0422
 21
10.4167
  0
LINE
  8
0
 10
18.0422
 20
10.4167
 11
17.4723
 21
11.3466
  0
LINE
  8
0
 10
17.4723
 20
11.3466
 11
16.8545
 21
12.2455
  0
LINE
  8
0
 10
16.8545
 20
12.2455
 11
16.1905
 21
13.1108
  0
LINE
  8
0
 10
16.1905
 20
13.1108
 11
15.4822
 21
13.9402
  0
LINE
  8
0
 10
15.4822
 20
13.9402
 11
14.7314
 21
14.7314
  0
LINE
  8
0
 10
14.7314
 20
14.7314
 11
13.9402
 21
15.4822
  0
LINE
  8
0
 10
13.9402
 20
15.4822
 11
13.1108
 21
16.1905
  0
LINE
  8
0
 10
13.1108
 20
16.1905
 11
12.2455
 21
16.8545
  0
LINE
  8
0
 10
12.2455
 20
16.8545
 11
11.3466
 21
17.4723
  0
LINE
  8
0
 10
11.3466
 20
17.4723
 11
10.4167
 21
18.0422
  0
LINE
  8
0
 10
10.4167
 20
18.0422
 11
9.45813
 21
18.5626
  0
LINE
  8
0
 10
9.45813
 20
18.5626
 11
8.47368
 21
19.0322
  0
LINE
  8
0
 10
8.47368
 20
19.0322
 11
7.466
 21
19.4496
  0
LINE
  8
0
 10
7.466
 20
19.4496
 11
6.43785
 21
19.8137
  0
LINE
  8
0
 10
6.43785
 20
19.8137
 11
5.39206
 21
20.1235
  0
LINE
  8
0
 10
5.39206
 20
20.1235
 11
4.33149
 21
20.3781
  0
LINE
  8
0
 10
4.33149
 20
20.3781
 11
3.25905
 21
20.5768
  0
LINE
  8
0
 10
3.25905
 20
20.5768
 11
2.17768
 21
20.7192
  0
LINE
  8
0
 10
2.17768
 20
20.7192
 11
1.09033
 21
20.8048
  0
LINE
  8
0
 10
1.09033
 20
20.8048
 11
0
 21
20.8333
  0
LINE
  8
0
 10
0
 20
20.8333
 11
-1.09033
 21
20.8048
  0
LINE
  8
0
 10
-1.09033
 20
20.8048
 11
-2.17768
 21
20.7192
  0
LINE
  8
0
 10
-2.17768
 20
20.7192
 11
-3.25905
 21
20.5768
  0
LINE
  8
0
 10
-3.25905
 20
20.5768
 11
-4.33149
 21
20.3781
  0
LINE
  8
0
 10
-4.33149
 20
20.3781
 11
-5.39206
 21
20.1235
  0
LINE
  8
0
 10
-5.39206
 20
20.1235
 11
-6.43785
 21
19.8137
  0
LINE
  8
0
 10
-6.43785
 20
19.8137
 11
-7.466
 21
19.4496
  0
LINE
  8
0
 10
-7.466
 20
19.4496
 11
-8.47368
 21
19.0322
  0
LINE
  8
0
 10
-8.47368
 20
19.0322
 11
-9.45813
 21
18.5626
  0
LINE
  8
0
 10
-9.45813
 20
18.5626
 11
-10.4167
 21
18.0422
  0
LINE
  8
0
 10
-10.4167
 20
18.0422
 11
-11.3466
 21
17.4723
  0
LINE
  8
0
 10
-11.3466
 20
17.4723
 11
-12.2455
 21
16.8545
  0
LINE
  8
0
 10
-12.2455
 20
16.8545
 11
-13.1108
 21
16.1905
  0
LINE
  8
0
 10
-13.1108
 20
16.1905
 11
-13.9402
 21
15.4822
  0
LINE
  8
0
 10
-13.9402
 20
15.4822
 11
-14.7314
 21
14.7314
  0
LINE
  8
0
 10
-14.7314
 20
14.7314
 11
-15.4822
 21
13.9402
  0
LINE
  8
0
 10
-15.4822
 20
13.9402
 11
-16.1905
 21
13.1108
  0
LINE
  8
0
 10
-16.1905
 20
13.1108
 11
-16.8545
 21
12.2455
  0
LINE
  8
0
 10
-16.8545
 20
12.2455
 11
-17.4723
 21
11.3466
  0
LINE
  8
0
 10
-17.4723
 20
11.3466
 11
-18.0422
 21
10.4167
  0
LINE
  8
0
 10
-18.0422
 20
10.4167
 11
-18.5626
 21
9.45813
  0
LINE
  8
0
 10
-18.5626
 20
9.45813
 11
-19.0322
 21
8.47368
  0
LINE
  8
0
 10
-19.0322
 20
8.47368
 11
-19.4496
 21
7.466
  0
LINE
  8
0
 10
-19.4496
 20
7.466
 11
-19.8137
 21
6.43785
  0
LINE
  8
0
 10
-19.8137
 20
6.43785
 11
-20.1235
 21
5.39206
  0
LINE
  8
0
 10
-20.1235
 20
5.39206
 11
-20.3781
 21
4.33149
  0
LINE
  8
0
 10
-20.3781
 20
4.33149
 11
-20.5768
 21
3.25905
  0
LINE
  8
0
 10
-20.5768
 20
3.25905
 11
-20.7192
 21
2.17768
  0
LINE
  8
0
 10
-20.7192
 20
2.17768
 11
-20.8048
 21
1.09033
  0
LINE
  8
0
 10
-20.8048
 20
1.09033
 11
-20.8333
 21
0
  0
LINE
  8
0
 10
-8.0975
 20
-5
 11
-8.0975
 21
5
  0
LINE
  8
0
 10
-8.0975
 20
5
 11
8.0975
 21
5
  0
LINE
  8
0
 10
8.0975
 20
5
 11
8.0975
 21
-5
  0
LINE
  8
0
 10
8.0975
 20
-5
 11
-8.0975
 21
-5
  0
ENDSEC
  0
SECTION
  2
OBJECTS
  0
DICTIONARY
  0
ENDSEC
  0
EOF
