  0
SECTION
  2
BLOCKS
  0
ENDSEC
  0
SECTION
  2
ENTITIES
  0
LINE
  8
0
 10
-11.6921
 20
-2.15
 11
-2.65406
 21
-20.3229
  0
LINE
  8
0
 10
-2.65406
 20
-20.3229
 11
-2.53287
 21
-21.6505
  0
LINE
  8
0
 10
-2.53287
 20
-21.6505
 11
-2.17689
 21
-25.0192
  0
LINE
  8
0
 10
-2.17689
 20
-25.0192
 11
-1.77418
 21
-28.3692
  0
LINE
  8
0
 10
-1.77418
 20
-28.3692
 11
-1.32503
 21
-31.6982
  0
LINE
  8
0
 10
-1.32503
 20
-31.6982
 11
-0.829735
 21
-35.004
  0
LINE
  8
0
 10
-0.829735
 20
-35.004
 11
-0.288639
 21
-38.2842
  0
LINE
  8
0
 10
-0.288639
 20
-38.2842
 11
0.297889
 21
-41.5366
  0
LINE
  8
0
 10
0.297889
 20
-41.5366
 11
0.929444
 21
-44.7591
  0
LINE
  8
0
 10
0.929444
 20
-44.7591
 11
1.6056
 21
-47.9492
  0
LINE
  8
0
 10
1.6056
 20
-47.9492
 11
2.32588
 21
-51.105
  0
LINE
  8
0
 10
2.32588
 20
-51.105
 11
3.08981
 21
-54.2242
  0
LINE
  8
0
 10
3.08981
 20
-54.2242
 11
3.89685
 21
-57.3047
  0
LINE
  8
0
 10
3.89685
 20
-57.3047
 11
4.74645
 21
-60.3444
  0
LINE
  8
0
 10
4.74645
 20
-60.3444
 11
5.63803
 21
-63.3412
  0
LINE
  8
0
 10
5.63803
 20
-63.3412
 11
6.57098
 21
-66.293
  0
LINE
  8
0
 10
6.57098
 20
-66.293
 11
7.54466
 21
-69.1978
  0
LINE
  8
0
 10
7.54466
 20
-69.1978
 11
8.5584
 21
-72.0537
  0
LINE
  8
0
 10
8.5584
 20
-72.0537
 11
9.61152
 21
-74.8586
  0
LINE
  8
0
 10
9.61152
 20
-74.8586
 11
10.7033
 21
-77.6107
  0
LINE
  8
0
 10
10.7033
 20
-77.6107
 11
11.8329
 21
-80.308
  0
LINE
  8
0
 10
11.8329
 20
-80.308
 11
12.9997
 21
-82.9488
  0
LINE
  8
0
 10
12.9997
 20
-82.9488
 11
14.2028
 21
-85.5311
  0
LINE
  8
0
 10
14.2028
 20
-85.5311
 11
15.4414
 21
-88.0533
  0
LINE
  8
0
 10
15.4414
 20
-88.0533
 11
16.7147
 21
-90.5136
  0
LINE
  8
0
 10
16.7147
 20
-90.5136
 11
18.0217
 21
-92.9103
  0
LINE
  8
0
 10
18.0217
 20
-92.9103
 11
19.3616
 21
-95.2418
  0
LINE
  8
0
 10
19.3616
 20
-95.2418
 11
20.7335
 21
-97.5064
  0
LINE
  8
0
 10
20.7335
 20
-97.5064
 11
22.1364
 21
-99.7027
  0
LINE
  8
0
 10
22.1364
 20
-99.7027
 11
23.5693
 21
-101.829
  0
LINE
  8
0
 10
23.5693
 20
-101.829
 11
25.0314
 21
-103.884
  0
LINE
  8
0
 10
25.0314
 20
-103.884
 11
26.5215
 21
-105.867
  0
LINE
  8
0
 10
26.5215
 20
-105.867
 11
28.0387
 21
-107.775
  0
LINE
  8
0
 10
28.0387
 20
-107.775
 11
29.5819
 21
-109.608
  0
LINE
  8
0
 10
29.5819
 20
-109.608
 11
31.15
 21
-111.364
  0
LINE
  8
0
 10
31.15
 20
-111.364
 11
32.742
 21
-113.042
  0
LINE
  8
0
 10
32.742
 20
-113.042
 11
34.3569
 21
-114.641
  0
LINE
  8
0
 10
34.3569
 20
-114.641
 11
35.9934
 21
-116.16
  0
LINE
  8
0
 10
35.9934
 20
-116.16
 11
37.6505
 21
-117.598
  0
LINE
  8
0
 10
37.6505
 20
-117.598
 11
39.327
 21
-118.954
  0
LINE
  8
0
 10
39.327
 20
-118.954
 11
41.0218
 21
-120.227
  0
LINE
  8
0
 10
41.0218
 20
-120.227
 11
42.5559
 21
-121.292
  0
LINE
  8
0
 10
42.5559
 20
-121.292
 11
42.5675
 21
-121.571
  0
LINE
  8
0
 10
42.5675
 20
-121.571
 11
42.5894
 21
-121.883
  0
LINE
  8
0
 10
42.5894
 20
-121.883
 11
42.6199
 21
-122.194
  0
LINE
  8
0
 10
42.6199
 20
-122.194
 11
42.659
 21
-122.5
  0
LINE
  8
0
 10
42.659
 20
-122.5
 11
42.7066
 21
-122.803
  0
LINE
  8
0
 10
42.7066
 20
-122.803
 11
42.7625
 21
-123.1
  0
LINE
  8
0
 10
42.7625
 20
-123.1
 11
42.8267
 21
-123.391
  0
LINE
  8
0
 10
42.8267
 20
-123.391
 11
42.8988
 21
-123.676
  0
LINE
  8
0
 10
42.8988
 20
-123.676
 11
42.9787
 21
-123.953
  0
LINE
  8
0
 10
42.9787
 20
-123.953
 11
43.0663
 21
-124.222
  0
LINE
  8
0
 10
43.0663
 20
-124.222
 11
43.1611
 21
-124.482
  0
LINE
  8
0
 10
43.1611
 20
-124.482
 11
43.2631
 21
-124.732
  0
LINE
  8
0
 10
43.2631
 20
-124.732
 11
43.3719
 21
-124.972
  0
LINE
  8
0
 10
43.3719
 20
-124.972
 11
43.4873
 21
-125.2
  0
LINE
  8
0
 10
43.4873
 20
-125.2
 11
43.6088
 21
-125.418
  0
LINE
  8
0
 10
43.6088
 20
-125.418
 11
43.7362
 21
-125.622
  0
LINE
  8
0
 10
43.7362
 20
-125.622
 11
43.8691
 21
-125.814
  0
LINE
  8
0
 10
43.8691
 20
-125.814
 11
44.0072
 21
-125.993
  0
LINE
  8
0
 10
44.0072
 20
-125.993
 11
44.15
 21
-126.158
  0
LINE
  8
0
 10
44.15
 20
-126.158
 11
44.2972
 21
-126.308
  0
LINE
  8
0
 10
44.2972
 20
-126.308
 11
44.4484
 21
-126.444
  0
LINE
  8
0
 10
44.4484
 20
-126.444
 11
44.6032
 21
-126.565
  0
LINE
  8
0
 10
44.6032
 20
-126.565
 11
44.7611
 21
-126.67
  0
LINE
  8
0
 10
44.7611
 20
-126.67
 11
44.9218
 21
-126.759
  0
LINE
  8
0
 10
44.9218
 20
-126.759
 11
45.0847
 21
-126.833
  0
LINE
  8
0
 10
45.0847
 20
-126.833
 11
45.2494
 21
-126.891
  0
LINE
  8
0
 10
45.2494
 20
-126.891
 11
45.4155
 21
-126.932
  0
LINE
  8
0
 10
45.4155
 20
-126.932
 11
45.5825
 21
-126.956
  0
LINE
  8
0
 10
45.5825
 20
-126.956
 11
45.75
 21
-126.965
  0
LINE
  8
0
 10
45.75
 20
-126.965
 11
49.25
 21
-126.965
  0
LINE
  8
0
 10
49.25
 20
-126.965
 11
49.4175
 21
-126.956
  0
LINE
  8
0
 10
49.4175
 20
-126.956
 11
49.5845
 21
-126.932
  0
LINE
  8
0
 10
49.5845
 20
-126.932
 11
49.7506
 21
-126.891
  0
LINE
  8
0
 10
49.7506
 20
-126.891
 11
49.9153
 21
-126.833
  0
LINE
  8
0
 10
49.9153
 20
-126.833
 11
50.0782
 21
-126.759
  0
LINE
  8
0
 10
50.0782
 20
-126.759
 11
50.2389
 21
-126.67
  0
LINE
  8
0
 10
50.2389
 20
-126.67
 11
50.3968
 21
-126.565
  0
LINE
  8
0
 10
50.3968
 20
-126.565
 11
50.5516
 21
-126.444
  0
LINE
  8
0
 10
50.5516
 20
-126.444
 11
50.7028
 21
-126.308
  0
LINE
  8
0
 10
50.7028
 20
-126.308
 11
50.85
 21
-126.158
  0
LINE
  8
0
 10
50.85
 20
-126.158
 11
50.9928
 21
-125.993
  0
LINE
  8
0
 10
50.9928
 20
-125.993
 11
51.1309
 21
-125.814
  0
LINE
  8
0
 10
51.1309
 20
-125.814
 11
51.2638
 21
-125.622
  0
LINE
  8
0
 10
51.2638
 20
-125.622
 11
51.3912
 21
-125.418
  0
LINE
  8
0
 10
51.3912
 20
-125.418
 11
51.5127
 21
-125.2
  0
LINE
  8
0
 10
51.5127
 20
-125.2
 11
51.6281
 21
-124.972
  0
LINE
  8
0
 10
51.6281
 20
-124.972
 11
51.7369
 21
-124.732
  0
LINE
  8
0
 10
51.7369
 20
-124.732
 11
51.8389
 21
-124.482
  0
LINE
  8
0
 10
51.8389
 20
-124.482
 11
51.9337
 21
-124.222
  0
LINE
  8
0
 10
51.9337
 20
-124.222
 11
52.0213
 21
-123.953
  0
LINE
  8
0
 10
52.0213
 20
-123.953
 11
52.1012
 21
-123.676
  0
LINE
  8
0
 10
52.1012
 20
-123.676
 11
52.1733
 21
-123.391
  0
LINE
  8
0
 10
52.1733
 20
-123.391
 11
52.2375
 21
-123.1
  0
LINE
  8
0
 10
52.2375
 20
-123.1
 11
52.2934
 21
-122.803
  0
LINE
  8
0
 10
52.2934
 20
-122.803
 11
52.341
 21
-122.5
  0
LINE
  8
0
 10
52.341
 20
-122.5
 11
52.3801
 21
-122.194
  0
LINE
  8
0
 10
52.3801
 20
-122.194
 11
52.4106
 21
-121.883
  0
LINE
  8
0
 10
52.4106
 20
-121.883
 11
52.4325
 21
-121.571
  0
LINE
  8
0
 10
52.4325
 20
-121.571
 11
52.4456
 21
-121.256
  0
LINE
  8
0
 10
52.4456
 20
-121.256
 11
52.45
 21
-120.941
  0
LINE
  8
0
 10
52.45
 20
-120.941
 11
52.45
 21
-114.353
  0
LINE
  8
0
 10
52.45
 20
-114.353
 11
52.4456
 21
-114.038
  0
LINE
  8
0
 10
52.4456
 20
-114.038
 11
52.4325
 21
-113.723
  0
LINE
  8
0
 10
52.4325
 20
-113.723
 11
52.4106
 21
-113.411
  0
LINE
  8
0
 10
52.4106
 20
-113.411
 11
52.3801
 21
-113.101
  0
LINE
  8
0
 10
52.3801
 20
-113.101
 11
52.341
 21
-112.794
  0
LINE
  8
0
 10
52.341
 20
-112.794
 11
52.2934
 21
-112.492
  0
LINE
  8
0
 10
52.2934
 20
-112.492
 11
52.2375
 21
-112.194
  0
LINE
  8
0
 10
52.2375
 20
-112.194
 11
52.1733
 21
-111.903
  0
LINE
  8
0
 10
52.1733
 20
-111.903
 11
52.1012
 21
-111.618
  0
LINE
  8
0
 10
52.1012
 20
-111.618
 11
52.0213
 21
-111.341
  0
LINE
  8
0
 10
52.0213
 20
-111.341
 11
51.9337
 21
-111.072
  0
LINE
  8
0
 10
51.9337
 20
-111.072
 11
51.8389
 21
-110.812
  0
LINE
  8
0
 10
51.8389
 20
-110.812
 11
51.7369
 21
-110.562
  0
LINE
  8
0
 10
51.7369
 20
-110.562
 11
51.6281
 21
-110.322
  0
LINE
  8
0
 10
51.6281
 20
-110.322
 11
51.5127
 21
-110.094
  0
LINE
  8
0
 10
51.5127
 20
-110.094
 11
51.3912
 21
-109.877
  0
LINE
  8
0
 10
51.3912
 20
-109.877
 11
51.2638
 21
-109.672
  0
LINE
  8
0
 10
51.2638
 20
-109.672
 11
51.1309
 21
-109.48
  0
LINE
  8
0
 10
51.1309
 20
-109.48
 11
50.9928
 21
-109.301
  0
LINE
  8
0
 10
50.9928
 20
-109.301
 11
50.85
 21
-109.136
  0
LINE
  8
0
 10
50.85
 20
-109.136
 11
50.7028
 21
-108.986
  0
LINE
  8
0
 10
50.7028
 20
-108.986
 11
50.5516
 21
-108.85
  0
LINE
  8
0
 10
50.5516
 20
-108.85
 11
50.3968
 21
-108.729
  0
LINE
  8
0
 10
50.3968
 20
-108.729
 11
50.2389
 21
-108.624
  0
LINE
  8
0
 10
50.2389
 20
-108.624
 11
50.0782
 21
-108.535
  0
LINE
  8
0
 10
50.0782
 20
-108.535
 11
49.9153
 21
-108.461
  0
LINE
  8
0
 10
49.9153
 20
-108.461
 11
49.7506
 21
-108.404
  0
LINE
  8
0
 10
49.7506
 20
-108.404
 11
49.5845
 21
-108.362
  0
LINE
  8
0
 10
49.5845
 20
-108.362
 11
49.4175
 21
-108.338
  0
LINE
  8
0
 10
49.4175
 20
-108.338
 11
49.25
 21
-108.329
  0
LINE
  8
0
 10
49.25
 20
-108.329
 11
45.75
 21
-108.329
  0
LINE
  8
0
 10
45.75
 20
-108.329
 11
45.5825
 21
-108.338
  0
LINE
  8
0
 10
45.5825
 20
-108.338
 11
45.4155
 21
-108.362
  0
LINE
  8
0
 10
45.4155
 20
-108.362
 11
45.2494
 21
-108.404
  0
LINE
  8
0
 10
45.2494
 20
-108.404
 11
45.0847
 21
-108.461
  0
LINE
  8
0
 10
45.0847
 20
-108.461
 11
44.9218
 21
-108.535
  0
LINE
  8
0
 10
44.9218
 20
-108.535
 11
44.7611
 21
-108.624
  0
LINE
  8
0
 10
44.7611
 20
-108.624
 11
44.6032
 21
-108.729
  0
LINE
  8
0
 10
44.6032
 20
-108.729
 11
44.4484
 21
-108.85
  0
LINE
  8
0
 10
44.4484
 20
-108.85
 11
44.2972
 21
-108.986
  0
LINE
  8
0
 10
44.2972
 20
-108.986
 11
44.15
 21
-109.136
  0
LINE
  8
0
 10
44.15
 20
-109.136
 11
44.0072
 21
-109.301
  0
LINE
  8
0
 10
44.0072
 20
-109.301
 11
43.8691
 21
-109.48
  0
LINE
  8
0
 10
43.8691
 20
-109.48
 11
43.7362
 21
-109.672
  0
LINE
  8
0
 10
43.7362
 20
-109.672
 11
43.6257
 21
-109.849
  0
LINE
  8
0
 10
43.6257
 20
-109.849
 11
43.602
 21
-109.833
  0
LINE
  8
0
 10
43.602
 20
-109.833
 11
42.0823
 21
-108.692
  0
LINE
  8
0
 10
42.0823
 20
-108.692
 11
40.579
 21
-107.476
  0
LINE
  8
0
 10
40.579
 20
-107.476
 11
39.0931
 21
-106.187
  0
LINE
  8
0
 10
39.0931
 20
-106.187
 11
37.6256
 21
-104.824
  0
LINE
  8
0
 10
37.6256
 20
-104.824
 11
36.1776
 21
-103.39
  0
LINE
  8
0
 10
36.1776
 20
-103.39
 11
34.75
 21
-101.885
  0
LINE
  8
0
 10
34.75
 20
-101.885
 11
33.3438
 21
-100.311
  0
LINE
  8
0
 10
33.3438
 20
-100.311
 11
31.9601
 21
-98.6671
  0
LINE
  8
0
 10
31.9601
 20
-98.6671
 11
30.5996
 21
-96.956
  0
LINE
  8
0
 10
30.5996
 20
-96.956
 11
29.2634
 21
-95.1785
  0
LINE
  8
0
 10
29.2634
 20
-95.1785
 11
27.9524
 21
-93.3357
  0
LINE
  8
0
 10
27.9524
 20
-93.3357
 11
26.6675
 21
-91.4289
  0
LINE
  8
0
 10
26.6675
 20
-91.4289
 11
25.4095
 21
-89.4595
  0
LINE
  8
0
 10
25.4095
 20
-89.4595
 11
24.1793
 21
-87.4288
  0
LINE
  8
0
 10
24.1793
 20
-87.4288
 11
22.9778
 21
-85.3382
  0
LINE
  8
0
 10
22.9778
 20
-85.3382
 11
21.8058
 21
-83.189
  0
LINE
  8
0
 10
21.8058
 20
-83.189
 11
20.6641
 21
-80.9829
  0
LINE
  8
0
 10
20.6641
 20
-80.9829
 11
19.5534
 21
-78.7212
  0
LINE
  8
0
 10
19.5534
 20
-78.7212
 11
18.4746
 21
-76.4057
  0
LINE
  8
0
 10
18.4746
 20
-76.4057
 11
17.4284
 21
-74.0377
  0
LINE
  8
0
 10
17.4284
 20
-74.0377
 11
16.4154
 21
-71.619
  0
LINE
  8
0
 10
16.4154
 20
-71.619
 11
15.4364
 21
-69.1512
  0
LINE
  8
0
 10
15.4364
 20
-69.1512
 11
14.4921
 21
-66.636
  0
LINE
  8
0
 10
14.4921
 20
-66.636
 11
13.5831
 21
-64.0752
  0
LINE
  8
0
 10
13.5831
 20
-64.0752
 11
12.71
 21
-61.4704
  0
LINE
  8
0
 10
12.71
 20
-61.4704
 11
11.8734
 21
-58.8235
  0
LINE
  8
0
 10
11.8734
 20
-58.8235
 11
11.0739
 21
-56.1363
  0
LINE
  8
0
 10
11.0739
 20
-56.1363
 11
10.3121
 21
-53.4106
  0
LINE
  8
0
 10
10.3121
 20
-53.4106
 11
9.58842
 21
-50.6484
  0
LINE
  8
0
 10
9.58842
 20
-50.6484
 11
8.90341
 21
-47.8514
  0
LINE
  8
0
 10
8.90341
 20
-47.8514
 11
8.25753
 21
-45.0216
  0
LINE
  8
0
 10
8.25753
 20
-45.0216
 11
7.65122
 21
-42.1609
  0
LINE
  8
0
 10
7.65122
 20
-42.1609
 11
7.08491
 21
-39.2714
  0
LINE
  8
0
 10
7.08491
 20
-39.2714
 11
6.55897
 21
-36.3549
  0
LINE
  8
0
 10
6.55897
 20
-36.3549
 11
6.07377
 21
-33.4136
  0
LINE
  8
0
 10
6.07377
 20
-33.4136
 11
5.62964
 21
-30.4493
  0
LINE
  8
0
 10
5.62964
 20
-30.4493
 11
5.22688
 21
-27.4642
  0
LINE
  8
0
 10
5.22688
 20
-27.4642
 11
4.86578
 21
-24.4602
  0
LINE
  8
0
 10
4.86578
 20
-24.4602
 11
4.54657
 21
-21.4395
  0
LINE
  8
0
 10
4.54657
 20
-21.4395
 11
4.26948
 21
-18.4041
  0
LINE
  8
0
 10
4.26948
 20
-18.4041
 11
4.0347
 21
-15.356
  0
LINE
  8
0
 10
4.0347
 20
-15.356
 11
3.84238
 21
-12.2975
  0
LINE
  8
0
 10
3.84238
 20
-12.2975
 11
3.69267
 21
-9.23048
  0
LINE
  8
0
 10
3.69267
 20
-9.23048
 11
3.58565
 21
-6.15717
  0
LINE
  8
0
 10
3.58565
 20
-6.15717
 11
3.52142
 21
-3.07964
  0
LINE
  8
0
 10
3.52142
 20
-3.07964
 11
3.5
 21
0
  0
LINE
  8
0
 10
3.5
 20
0
 11
-0.420415
 21
0
  0
LINE
  8
0
 10
-0.420415
 20
0
 11
-1.5921
 21
8.15
  0
LINE
  8
0
 10
-1.5921
 20
8.15
 11
-11.6921
 21
8.15
  0
LINE
  8
0
 10
-11.6921
 20
8.15
 11
-11.6921
 21
-2.15
  0
LINE
  8
0
 10
45.9
 20
-119.294
 11
45.9
 21
-116
  0
LINE
  8
0
 10
45.9
 20
-116
 11
45.9022
 21
-115.842
  0
LINE
  8
0
 10
45.9022
 20
-115.842
 11
45.9088
 21
-115.685
  0
LINE
  8
0
 10
45.9088
 20
-115.685
 11
45.9197
 21
-115.529
  0
LINE
  8
0
 10
45.9197
 20
-115.529
 11
45.935
 21
-115.374
  0
LINE
  8
0
 10
45.935
 20
-115.374
 11
45.9545
 21
-115.22
  0
LINE
  8
0
 10
45.9545
 20
-115.22
 11
45.9783
 21
-115.069
  0
LINE
  8
0
 10
45.9783
 20
-115.069
 11
46.0063
 21
-114.921
  0
LINE
  8
0
 10
46.0063
 20
-114.921
 11
46.0383
 21
-114.775
  0
LINE
  8
0
 10
46.0383
 20
-114.775
 11
46.0744
 21
-114.633
  0
LINE
  8
0
 10
46.0744
 20
-114.633
 11
46.1144
 21
-114.494
  0
LINE
  8
0
 10
46.1144
 20
-114.494
 11
46.1581
 21
-114.36
  0
LINE
  8
0
 10
46.1581
 20
-114.36
 11
46.2056
 21
-114.23
  0
LINE
  8
0
 10
46.2056
 20
-114.23
 11
46.2566
 21
-114.105
  0
LINE
  8
0
 10
46.2566
 20
-114.105
 11
46.311
 21
-113.985
  0
LINE
  8
0
 10
46.311
 20
-113.985
 11
46.3686
 21
-113.87
  0
LINE
  8
0
 10
46.3686
 20
-113.87
 11
46.4294
 21
-113.762
  0
LINE
  8
0
 10
46.4294
 20
-113.762
 11
46.4931
 21
-113.659
  0
LINE
  8
0
 10
46.4931
 20
-113.659
 11
46.5595
 21
-113.563
  0
LINE
  8
0
 10
46.5595
 20
-113.563
 11
46.6286
 21
-113.474
  0
LINE
  8
0
 10
46.6286
 20
-113.474
 11
46.7
 21
-113.392
  0
LINE
  8
0
 10
46.7
 20
-113.392
 11
46.7736
 21
-113.316
  0
LINE
  8
0
 10
46.7736
 20
-113.316
 11
46.8492
 21
-113.249
  0
LINE
  8
0
 10
46.8492
 20
-113.249
 11
46.9266
 21
-113.188
  0
LINE
  8
0
 10
46.9266
 20
-113.188
 11
47.0056
 21
-113.136
  0
LINE
  8
0
 10
47.0056
 20
-113.136
 11
47.0859
 21
-113.091
  0
LINE
  8
0
 10
47.0859
 20
-113.091
 11
47.1673
 21
-113.054
  0
LINE
  8
0
 10
47.1673
 20
-113.054
 11
47.2497
 21
-113.025
  0
LINE
  8
0
 10
47.2497
 20
-113.025
 11
47.3328
 21
-113.005
  0
LINE
  8
0
 10
47.3328
 20
-113.005
 11
47.4163
 21
-112.992
  0
LINE
  8
0
 10
47.4163
 20
-112.992
 11
47.5
 21
-112.988
  0
LINE
  8
0
 10
47.5
 20
-112.988
 11
47.5837
 21
-112.992
  0
LINE
  8
0
 10
47.5837
 20
-112.992
 11
47.6672
 21
-113.005
  0
LINE
  8
0
 10
47.6672
 20
-113.005
 11
47.7503
 21
-113.025
  0
LINE
  8
0
 10
47.7503
 20
-113.025
 11
47.8327
 21
-113.054
  0
LINE
  8
0
 10
47.8327
 20
-113.054
 11
47.9141
 21
-113.091
  0
LINE
  8
0
 10
47.9141
 20
-113.091
 11
47.9944
 21
-113.136
  0
LINE
  8
0
 10
47.9944
 20
-113.136
 11
48.0734
 21
-113.188
  0
LINE
  8
0
 10
48.0734
 20
-113.188
 11
48.1508
 21
-113.249
  0
LINE
  8
0
 10
48.1508
 20
-113.249
 11
48.2264
 21
-113.316
  0
LINE
  8
0
 10
48.2264
 20
-113.316
 11
48.3
 21
-113.392
  0
LINE
  8
0
 10
48.3
 20
-113.392
 11
48.3714
 21
-113.474
  0
LINE
  8
0
 10
48.3714
 20
-113.474
 11
48.4405
 21
-113.563
  0
LINE
  8
0
 10
48.4405
 20
-113.563
 11
48.5069
 21
-113.659
  0
LINE
  8
0
 10
48.5069
 20
-113.659
 11
48.5706
 21
-113.762
  0
LINE
  8
0
 10
48.5706
 20
-113.762
 11
48.6314
 21
-113.87
  0
LINE
  8
0
 10
48.6314
 20
-113.87
 11
48.689
 21
-113.985
  0
LINE
  8
0
 10
48.689
 20
-113.985
 11
48.7434
 21
-114.105
  0
LINE
  8
0
 10
48.7434
 20
-114.105
 11
48.7944
 21
-114.23
  0
LINE
  8
0
 10
48.7944
 20
-114.23
 11
48.8419
 21
-114.36
  0
LINE
  8
0
 10
48.8419
 20
-114.36
 11
48.8856
 21
-114.494
  0
LINE
  8
0
 10
48.8856
 20
-114.494
 11
48.9256
 21
-114.633
  0
LINE
  8
0
 10
48.9256
 20
-114.633
 11
48.9617
 21
-114.775
  0
LINE
  8
0
 10
48.9617
 20
-114.775
 11
48.9937
 21
-114.921
  0
LINE
  8
0
 10
48.9937
 20
-114.921
 11
49.0217
 21
-115.069
  0
LINE
  8
0
 10
49.0217
 20
-115.069
 11
49.0455
 21
-115.22
  0
LINE
  8
0
 10
49.0455
 20
-115.22
 11
49.065
 21
-115.374
  0
LINE
  8
0
 10
49.065
 20
-115.374
 11
49.0803
 21
-115.529
  0
LINE
  8
0
 10
49.0803
 20
-115.529
 11
49.0912
 21
-115.685
  0
LINE
  8
0
 10
49.0912
 20
-115.685
 11
49.0978
 21
-115.842
  0
LINE
  8
0
 10
49.0978
 20
-115.842
 11
49.1
 21
-116
  0
LINE
  8
0
 10
49.1
 20
-116
 11
49.1
 21
-119.294
  0
LINE
  8
0
 10
49.1
 20
-119.294
 11
49.0978
 21
-119.452
  0
LINE
  8
0
 10
49.0978
 20
-119.452
 11
49.0912
 21
-119.609
  0
LINE
  8
0
 10
49.0912
 20
-119.609
 11
49.0803
 21
-119.765
  0
LINE
  8
0
 10
49.0803
 20
-119.765
 11
49.065
 21
-119.92
  0
LINE
  8
0
 10
49.065
 20
-119.92
 11
49.0455
 21
-120.074
  0
LINE
  8
0
 10
49.0455
 20
-120.074
 11
49.0217
 21
-120.225
  0
LINE
  8
0
 10
49.0217
 20
-120.225
 11
48.9937
 21
-120.373
  0
LINE
  8
0
 10
48.9937
 20
-120.373
 11
48.9617
 21
-120.519
  0
LINE
  8
0
 10
48.9617
 20
-120.519
 11
48.9256
 21
-120.661
  0
LINE
  8
0
 10
48.9256
 20
-120.661
 11
48.8856
 21
-120.8
  0
LINE
  8
0
 10
48.8856
 20
-120.8
 11
48.8419
 21
-120.934
  0
LINE
  8
0
 10
48.8419
 20
-120.934
 11
48.7944
 21
-121.064
  0
LINE
  8
0
 10
48.7944
 20
-121.064
 11
48.7434
 21
-121.189
  0
LINE
  8
0
 10
48.7434
 20
-121.189
 11
48.689
 21
-121.309
  0
LINE
  8
0
 10
48.689
 20
-121.309
 11
48.6314
 21
-121.424
  0
LINE
  8
0
 10
48.6314
 20
-121.424
 11
48.5706
 21
-121.532
  0
LINE
  8
0
 10
48.5706
 20
-121.532
 11
48.5069
 21
-121.635
  0
LINE
  8
0
 10
48.5069
 20
-121.635
 11
48.4405
 21
-121.731
  0
LINE
  8
0
 10
48.4405
 20
-121.731
 11
48.3714
 21
-121.82
  0
LINE
  8
0
 10
48.3714
 20
-121.82
 11
48.3
 21
-121.902
  0
LINE
  8
0
 10
48.3
 20
-121.902
 11
48.2264
 21
-121.978
  0
LINE
  8
0
 10
48.2264
 20
-121.978
 11
48.1508
 21
-122.045
  0
LINE
  8
0
 10
48.1508
 20
-122.045
 11
48.0734
 21
-122.106
  0
LINE
  8
0
 10
48.0734
 20
-122.106
 11
47.9944
 21
-122.158
  0
LINE
  8
0
 10
47.9944
 20
-122.158
 11
47.9141
 21
-122.203
  0
LINE
  8
0
 10
47.9141
 20
-122.203
 11
47.8327
 21
-122.24
  0
LINE
  8
0
 10
47.8327
 20
-122.24
 11
47.7503
 21
-122.269
  0
LINE
  8
0
 10
47.7503
 20
-122.269
 11
47.6672
 21
-122.289
  0
LINE
  8
0
 10
47.6672
 20
-122.289
 11
47.5837
 21
-122.302
  0
LINE
  8
0
 10
47.5837
 20
-122.302
 11
47.5
 21
-122.306
  0
LINE
  8
0
 10
47.5
 20
-122.306
 11
47.4163
 21
-122.302
  0
LINE
  8
0
 10
47.4163
 20
-122.302
 11
47.3328
 21
-122.289
  0
LINE
  8
0
 10
47.3328
 20
-122.289
 11
47.2497
 21
-122.269
  0
LINE
  8
0
 10
47.2497
 20
-122.269
 11
47.1673
 21
-122.24
  0
LINE
  8
0
 10
47.1673
 20
-122.24
 11
47.0859
 21
-122.203
  0
LINE
  8
0
 10
47.0859
 20
-122.203
 11
47.0056
 21
-122.158
  0
LINE
  8
0
 10
47.0056
 20
-122.158
 11
46.9266
 21
-122.106
  0
LINE
  8
0
 10
46.9266
 20
-122.106
 11
46.8492
 21
-122.045
  0
LINE
  8
0
 10
46.8492
 20
-122.045
 11
46.7736
 21
-121.978
  0
LINE
  8
0
 10
46.7736
 20
-121.978
 11
46.7
 21
-121.902
  0
LINE
  8
0
 10
46.7
 20
-121.902
 11
46.6286
 21
-121.82
  0
LINE
  8
0
 10
46.6286
 20
-121.82
 11
46.5595
 21
-121.731
  0
LINE
  8
0
 10
46.5595
 20
-121.731
 11
46.4931
 21
-121.635
  0
LINE
  8
0
 10
46.4931
 20
-121.635
 11
46.4294
 21
-121.532
  0
LINE
  8
0
 10
46.4294
 20
-121.532
 11
46.3686
 21
-121.424
  0
LINE
  8
0
 10
46.3686
 20
-121.424
 11
46.311
 21
-121.309
  0
LINE
  8
0
 10
46.311
 20
-121.309
 11
46.2566
 21
-121.189
  0
LINE
  8
0
 10
46.2566
 20
-121.189
 11
46.2056
 21
-121.064
  0
LINE
  8
0
 10
46.2056
 20
-121.064
 11
46.1581
 21
-120.934
  0
LINE
  8
0
 10
46.1581
 20
-120.934
 11
46.1144
 21
-120.8
  0
LINE
  8
0
 10
46.1144
 20
-120.8
 11
46.0744
 21
-120.661
  0
LINE
  8
0
 10
46.0744
 20
-120.661
 11
46.0383
 21
-120.519
  0
LINE
  8
0
 10
46.0383
 20
-120.519
 11
46.0063
 21
-120.373
  0
LINE
  8
0
 10
46.0063
 20
-120.373
 11
45.9783
 21
-120.225
  0
LINE
  8
0
 10
45.9783
 20
-120.225
 11
45.9545
 21
-120.074
  0
LINE
  8
0
 10
45.9545
 20
-120.074
 11
45.935
 21
-119.92
  0
LINE
  8
0
 10
45.935
 20
-119.92
 11
45.9197
 21
-119.765
  0
LINE
  8
0
 10
45.9197
 20
-119.765
 11
45.9088
 21
-119.609
  0
LINE
  8
0
 10
45.9088
 20
-119.609
 11
45.9022
 21
-119.452
  0
LINE
  8
0
 10
45.9022
 20
-119.452
 11
45.9
 21
-119.294
  0
ENDSEC
  0
SECTION
  2
OBJECTS
  0
DICTIONARY
  0
ENDSEC
  0
EOF
