  0
SECTION
  2
BLOCKS
  0
ENDSEC
  0
SECTION
  2
ENTITIES
  0
LINE
  8
0
 10
-42.6102
 20
42.0833
 11
-54.7665
 21
57.4811
  0
LINE
  8
0
 10
-54.7665
 20
57.4811
 11
-55.0113
 21
57.7677
  0
LINE
  8
0
 10
-55.0113
 20
57.7677
 11
-55.2708
 21
58.0412
  0
LINE
  8
0
 10
-55.2708
 20
58.0412
 11
-55.5442
 21
58.3006
  0
LINE
  8
0
 10
-55.5442
 20
58.3006
 11
-55.8309
 21
58.5454
  0
LINE
  8
0
 10
-55.8309
 20
58.5454
 11
-56.1299
 21
58.7749
  0
LINE
  8
0
 10
-56.1299
 20
58.7749
 11
-56.4406
 21
58.9884
  0
LINE
  8
0
 10
-56.4406
 20
58.9884
 11
-56.762
 21
59.1854
  0
LINE
  8
0
 10
-56.762
 20
59.1854
 11
-57.0932
 21
59.3652
  0
LINE
  8
0
 10
-57.0932
 20
59.3652
 11
-57.4335
 21
59.5275
  0
LINE
  8
0
 10
-57.4335
 20
59.5275
 11
-57.7817
 21
59.6718
  0
LINE
  8
0
 10
-57.7817
 20
59.6718
 11
-58.137
 21
59.7976
  0
LINE
  8
0
 10
-58.137
 20
59.7976
 11
-58.4985
 21
59.9047
  0
LINE
  8
0
 10
-58.4985
 20
59.9047
 11
-58.865
 21
59.9927
  0
LINE
  8
0
 10
-58.865
 20
59.9927
 11
-59.2356
 21
60.0614
  0
LINE
  8
0
 10
-59.2356
 20
60.0614
 11
-59.6094
 21
60.1105
  0
LINE
  8
0
 10
-59.6094
 20
60.1105
 11
-59.9852
 21
60.1401
  0
LINE
  8
0
 10
-59.9852
 20
60.1401
 11
-60.362
 21
60.15
  0
LINE
  8
0
 10
-60.362
 20
60.15
 11
-60.7388
 21
60.1401
  0
LINE
  8
0
 10
-60.7388
 20
60.1401
 11
-61.1146
 21
60.1105
  0
LINE
  8
0
 10
-61.1146
 20
60.1105
 11
-61.4883
 21
60.0614
  0
LINE
  8
0
 10
-61.4883
 20
60.0614
 11
-61.8589
 21
59.9927
  0
LINE
  8
0
 10
-61.8589
 20
59.9927
 11
-62.2255
 21
59.9047
  0
LINE
  8
0
 10
-62.2255
 20
59.9047
 11
-62.5869
 21
59.7976
  0
LINE
  8
0
 10
-62.5869
 20
59.7976
 11
-62.9422
 21
59.6718
  0
LINE
  8
0
 10
-62.9422
 20
59.6718
 11
-63.2905
 21
59.5275
  0
LINE
  8
0
 10
-63.2905
 20
59.5275
 11
-63.6307
 21
59.3652
  0
LINE
  8
0
 10
-63.6307
 20
59.3652
 11
-63.962
 21
59.1854
  0
LINE
  8
0
 10
-63.962
 20
59.1854
 11
-64.2834
 21
58.9884
  0
LINE
  8
0
 10
-64.2834
 20
58.9884
 11
-64.594
 21
58.7749
  0
LINE
  8
0
 10
-64.594
 20
58.7749
 11
-64.8931
 21
58.5454
  0
LINE
  8
0
 10
-64.8931
 20
58.5454
 11
-65.1797
 21
58.3006
  0
LINE
  8
0
 10
-65.1797
 20
58.3006
 11
-65.4531
 21
58.0412
  0
LINE
  8
0
 10
-65.4531
 20
58.0412
 11
-65.7126
 21
57.7677
  0
LINE
  8
0
 10
-65.7126
 20
57.7677
 11
-65.9574
 21
57.4811
  0
LINE
  8
0
 10
-65.9574
 20
57.4811
 11
-66.1869
 21
57.1821
  0
LINE
  8
0
 10
-66.1869
 20
57.1821
 11
-66.4004
 21
56.8714
  0
LINE
  8
0
 10
-66.4004
 20
56.8714
 11
-66.5974
 21
56.55
  0
LINE
  8
0
 10
-66.5974
 20
56.55
 11
-66.7772
 21
56.2187
  0
LINE
  8
0
 10
-66.7772
 20
56.2187
 11
-66.9395
 21
55.8785
  0
LINE
  8
0
 10
-66.9395
 20
55.8785
 11
-67.0837
 21
55.5302
  0
LINE
  8
0
 10
-67.0837
 20
55.5302
 11
-67.2096
 21
55.1749
  0
LINE
  8
0
 10
-67.2096
 20
55.1749
 11
-67.3166
 21
54.8135
  0
LINE
  8
0
 10
-67.3166
 20
54.8135
 11
-67.4046
 21
54.447
  0
LINE
  8
0
 10
-67.4046
 20
54.447
 11
-67.4733
 21
54.0763
  0
LINE
  8
0
 10
-67.4733
 20
54.0763
 11
-67.5225
 21
53.7026
  0
LINE
  8
0
 10
-67.5225
 20
53.7026
 11
-67.5521
 21
53.3268
  0
LINE
  8
0
 10
-67.5521
 20
53.3268
 11
-67.562
 21
52.95
  0
LINE
  8
0
 10
-67.562
 20
52.95
 11
-67.5521
 21
52.5732
  0
LINE
  8
0
 10
-67.5521
 20
52.5732
 11
-67.5225
 21
52.1974
  0
LINE
  8
0
 10
-67.5225
 20
52.1974
 11
-67.4733
 21
51.8237
  0
LINE
  8
0
 10
-67.4733
 20
51.8237
 11
-67.4046
 21
51.453
  0
LINE
  8
0
 10
-67.4046
 20
51.453
 11
-67.3166
 21
51.0865
  0
LINE
  8
0
 10
-67.3166
 20
51.0865
 11
-67.2096
 21
50.7251
  0
LINE
  8
0
 10
-67.2096
 20
50.7251
 11
-67.0837
 21
50.3698
  0
LINE
  8
0
 10
-67.0837
 20
50.3698
 11
-46.7
 21
-1.0495
  0
LINE
  8
0
 10
-46.7
 20
-1.0495
 11
-46.7
 21
-50.9632
  0
LINE
  8
0
 10
-46.7
 20
-50.9632
 11
-46.8732
 21
-51.166
  0
LINE
  8
0
 10
-46.8732
 20
-51.166
 11
-54.4261
 21
-60.1855
  0
LINE
  8
0
 10
-54.4261
 20
-60.1855
 11
-64.1426
 21
-61.6293
  0
LINE
  8
0
 10
-64.1426
 20
-61.6293
 11
-64.6831
 21
-61.7294
  0
LINE
  8
0
 10
-64.6831
 20
-61.7294
 11
-65.2176
 21
-61.8578
  0
LINE
  8
0
 10
-65.2176
 20
-61.8578
 11
-65.7447
 21
-62.0139
  0
LINE
  8
0
 10
-65.7447
 20
-62.0139
 11
-66.2629
 21
-62.1974
  0
LINE
  8
0
 10
-66.2629
 20
-62.1974
 11
-66.7707
 21
-62.4078
  0
LINE
  8
0
 10
-66.7707
 20
-62.4078
 11
-67.2669
 21
-62.6444
  0
LINE
  8
0
 10
-67.2669
 20
-62.6444
 11
-67.75
 21
-62.9067
  0
LINE
  8
0
 10
-67.75
 20
-62.9067
 11
-68.2187
 21
-63.194
  0
LINE
  8
0
 10
-68.2187
 20
-63.194
 11
-68.6717
 21
-63.5053
  0
LINE
  8
0
 10
-68.6717
 20
-63.5053
 11
-69.1079
 21
-63.84
  0
LINE
  8
0
 10
-69.1079
 20
-63.84
 11
-69.5259
 21
-64.197
  0
LINE
  8
0
 10
-69.5259
 20
-64.197
 11
-69.9246
 21
-64.5754
  0
LINE
  8
0
 10
-69.9246
 20
-64.5754
 11
-70.303
 21
-64.9741
  0
LINE
  8
0
 10
-70.303
 20
-64.9741
 11
-70.66
 21
-65.3921
  0
LINE
  8
0
 10
-70.66
 20
-65.3921
 11
-70.9947
 21
-65.8282
  0
LINE
  8
0
 10
-70.9947
 20
-65.8282
 11
-71.306
 21
-66.2813
  0
LINE
  8
0
 10
-71.306
 20
-66.2813
 11
-71.5933
 21
-66.75
  0
LINE
  8
0
 10
-71.5933
 20
-66.75
 11
-71.8556
 21
-67.2331
  0
LINE
  8
0
 10
-71.8556
 20
-67.2331
 11
-72.0922
 21
-67.7293
  0
LINE
  8
0
 10
-72.0922
 20
-67.7293
 11
-72.3026
 21
-68.2371
  0
LINE
  8
0
 10
-72.3026
 20
-68.2371
 11
-72.4861
 21
-68.7553
  0
LINE
  8
0
 10
-72.4861
 20
-68.7553
 11
-72.6422
 21
-69.2824
  0
LINE
  8
0
 10
-72.6422
 20
-69.2824
 11
-72.7706
 21
-69.8169
  0
LINE
  8
0
 10
-72.7706
 20
-69.8169
 11
-72.8707
 21
-70.3574
  0
LINE
  8
0
 10
-72.8707
 20
-70.3574
 11
-72.9425
 21
-70.9025
  0
LINE
  8
0
 10
-72.9425
 20
-70.9025
 11
-72.9856
 21
-71.4505
  0
LINE
  8
0
 10
-72.9856
 20
-71.4505
 11
-73
 21
-72
  0
LINE
  8
0
 10
-73
 20
-72
 11
-72.9856
 21
-72.5495
  0
LINE
  8
0
 10
-72.9856
 20
-72.5495
 11
-72.9425
 21
-73.0975
  0
LINE
  8
0
 10
-72.9425
 20
-73.0975
 11
-72.8707
 21
-73.6426
  0
LINE
  8
0
 10
-72.8707
 20
-73.6426
 11
-72.7706
 21
-74.1831
  0
LINE
  8
0
 10
-72.7706
 20
-74.1831
 11
-72.6422
 21
-74.7176
  0
LINE
  8
0
 10
-72.6422
 20
-74.7176
 11
-72.4861
 21
-75.2447
  0
LINE
  8
0
 10
-72.4861
 20
-75.2447
 11
-72.3026
 21
-75.7629
  0
LINE
  8
0
 10
-72.3026
 20
-75.7629
 11
-72.0922
 21
-76.2707
  0
LINE
  8
0
 10
-72.0922
 20
-76.2707
 11
-71.8556
 21
-76.7669
  0
LINE
  8
0
 10
-71.8556
 20
-76.7669
 11
-71.5933
 21
-77.25
  0
LINE
  8
0
 10
-71.5933
 20
-77.25
 11
-71.306
 21
-77.7187
  0
LINE
  8
0
 10
-71.306
 20
-77.7187
 11
-70.9947
 21
-78.1717
  0
LINE
  8
0
 10
-70.9947
 20
-78.1717
 11
-70.66
 21
-78.6079
  0
LINE
  8
0
 10
-70.66
 20
-78.6079
 11
-70.303
 21
-79.0259
  0
LINE
  8
0
 10
-70.303
 20
-79.0259
 11
-69.9246
 21
-79.4246
  0
LINE
  8
0
 10
-69.9246
 20
-79.4246
 11
-69.5259
 21
-79.803
  0
LINE
  8
0
 10
-69.5259
 20
-79.803
 11
-69.1079
 21
-80.16
  0
LINE
  8
0
 10
-69.1079
 20
-80.16
 11
-68.6717
 21
-80.4947
  0
LINE
  8
0
 10
-68.6717
 20
-80.4947
 11
-68.2187
 21
-80.806
  0
LINE
  8
0
 10
-68.2187
 20
-80.806
 11
-67.75
 21
-81.0933
  0
LINE
  8
0
 10
-67.75
 20
-81.0933
 11
-67.2669
 21
-81.3556
  0
LINE
  8
0
 10
-67.2669
 20
-81.3556
 11
-66.7707
 21
-81.5922
  0
LINE
  8
0
 10
-66.7707
 20
-81.5922
 11
-66.2629
 21
-81.8026
  0
LINE
  8
0
 10
-66.2629
 20
-81.8026
 11
-65.7447
 21
-81.9861
  0
LINE
  8
0
 10
-65.7447
 20
-81.9861
 11
-65.2176
 21
-82.1422
  0
LINE
  8
0
 10
-65.2176
 20
-82.1422
 11
-64.6831
 21
-82.2706
  0
LINE
  8
0
 10
-64.6831
 20
-82.2706
 11
-64.1426
 21
-82.3707
  0
LINE
  8
0
 10
-64.1426
 20
-82.3707
 11
-63.5975
 21
-82.4425
  0
LINE
  8
0
 10
-63.5975
 20
-82.4425
 11
-63.0495
 21
-82.4856
  0
LINE
  8
0
 10
-63.0495
 20
-82.4856
 11
-62.5
 21
-82.5
  0
LINE
  8
0
 10
-62.5
 20
-82.5
 11
62.5
 21
-82.5
  0
LINE
  8
0
 10
62.5
 20
-82.5
 11
63.0495
 21
-82.4856
  0
LINE
  8
0
 10
63.0495
 20
-82.4856
 11
63.5975
 21
-82.4425
  0
LINE
  8
0
 10
63.5975
 20
-82.4425
 11
64.1426
 21
-82.3707
  0
LINE
  8
0
 10
64.1426
 20
-82.3707
 11
64.6831
 21
-82.2706
  0
LINE
  8
0
 10
64.6831
 20
-82.2706
 11
65.2176
 21
-82.1422
  0
LINE
  8
0
 10
65.2176
 20
-82.1422
 11
65.7447
 21
-81.9861
  0
LINE
  8
0
 10
65.7447
 20
-81.9861
 11
66.2629
 21
-81.8026
  0
LINE
  8
0
 10
66.2629
 20
-81.8026
 11
66.7707
 21
-81.5922
  0
LINE
  8
0
 10
66.7707
 20
-81.5922
 11
67.2669
 21
-81.3556
  0
LINE
  8
0
 10
67.2669
 20
-81.3556
 11
67.75
 21
-81.0933
  0
LINE
  8
0
 10
67.75
 20
-81.0933
 11
68.2187
 21
-80.806
  0
LINE
  8
0
 10
68.2187
 20
-80.806
 11
68.6717
 21
-80.4947
  0
LINE
  8
0
 10
68.6717
 20
-80.4947
 11
69.1079
 21
-80.16
  0
LINE
  8
0
 10
69.1079
 20
-80.16
 11
69.5259
 21
-79.803
  0
LINE
  8
0
 10
69.5259
 20
-79.803
 11
69.9246
 21
-79.4246
  0
LINE
  8
0
 10
69.9246
 20
-79.4246
 11
70.303
 21
-79.0259
  0
LINE
  8
0
 10
70.303
 20
-79.0259
 11
70.66
 21
-78.6079
  0
LINE
  8
0
 10
70.66
 20
-78.6079
 11
70.9947
 21
-78.1717
  0
LINE
  8
0
 10
70.9947
 20
-78.1717
 11
71.306
 21
-77.7187
  0
LINE
  8
0
 10
71.306
 20
-77.7187
 11
71.5933
 21
-77.25
  0
LINE
  8
0
 10
71.5933
 20
-77.25
 11
71.8556
 21
-76.7669
  0
LINE
  8
0
 10
71.8556
 20
-76.7669
 11
72.0922
 21
-76.2707
  0
LINE
  8
0
 10
72.0922
 20
-76.2707
 11
72.3026
 21
-75.7629
  0
LINE
  8
0
 10
72.3026
 20
-75.7629
 11
72.4861
 21
-75.2447
  0
LINE
  8
0
 10
72.4861
 20
-75.2447
 11
72.6422
 21
-74.7176
  0
LINE
  8
0
 10
72.6422
 20
-74.7176
 11
72.7706
 21
-74.1831
  0
LINE
  8
0
 10
72.7706
 20
-74.1831
 11
72.8707
 21
-73.6426
  0
LINE
  8
0
 10
72.8707
 20
-73.6426
 11
72.9425
 21
-73.0975
  0
LINE
  8
0
 10
72.9425
 20
-73.0975
 11
72.9856
 21
-72.5495
  0
LINE
  8
0
 10
72.9856
 20
-72.5495
 11
73
 21
-72
  0
LINE
  8
0
 10
73
 20
-72
 11
72.9856
 21
-71.4505
  0
LINE
  8
0
 10
72.9856
 20
-71.4505
 11
72.9425
 21
-70.9025
  0
LINE
  8
0
 10
72.9425
 20
-70.9025
 11
72.8707
 21
-70.3574
  0
LINE
  8
0
 10
72.8707
 20
-70.3574
 11
72.7706
 21
-69.8169
  0
LINE
  8
0
 10
72.7706
 20
-69.8169
 11
72.6422
 21
-69.2824
  0
LINE
  8
0
 10
72.6422
 20
-69.2824
 11
72.4861
 21
-68.7553
  0
LINE
  8
0
 10
72.4861
 20
-68.7553
 11
72.3026
 21
-68.2371
  0
LINE
  8
0
 10
72.3026
 20
-68.2371
 11
72.0922
 21
-67.7293
  0
LINE
  8
0
 10
72.0922
 20
-67.7293
 11
71.8556
 21
-67.2331
  0
LINE
  8
0
 10
71.8556
 20
-67.2331
 11
71.5933
 21
-66.75
  0
LINE
  8
0
 10
71.5933
 20
-66.75
 11
71.306
 21
-66.2813
  0
LINE
  8
0
 10
71.306
 20
-66.2813
 11
70.9947
 21
-65.8282
  0
LINE
  8
0
 10
70.9947
 20
-65.8282
 11
70.66
 21
-65.3921
  0
LINE
  8
0
 10
70.66
 20
-65.3921
 11
70.303
 21
-64.9741
  0
LINE
  8
0
 10
70.303
 20
-64.9741
 11
69.9246
 21
-64.5754
  0
LINE
  8
0
 10
69.9246
 20
-64.5754
 11
69.5259
 21
-64.197
  0
LINE
  8
0
 10
69.5259
 20
-64.197
 11
69.1079
 21
-63.84
  0
LINE
  8
0
 10
69.1079
 20
-63.84
 11
68.6717
 21
-63.5053
  0
LINE
  8
0
 10
68.6717
 20
-63.5053
 11
68.2187
 21
-63.194
  0
LINE
  8
0
 10
68.2187
 20
-63.194
 11
67.75
 21
-62.9067
  0
LINE
  8
0
 10
67.75
 20
-62.9067
 11
67.2669
 21
-62.6444
  0
LINE
  8
0
 10
67.2669
 20
-62.6444
 11
66.7707
 21
-62.4078
  0
LINE
  8
0
 10
66.7707
 20
-62.4078
 11
66.2629
 21
-62.1974
  0
LINE
  8
0
 10
66.2629
 20
-62.1974
 11
65.7447
 21
-62.0139
  0
LINE
  8
0
 10
65.7447
 20
-62.0139
 11
65.2176
 21
-61.8578
  0
LINE
  8
0
 10
65.2176
 20
-61.8578
 11
64.6831
 21
-61.7294
  0
LINE
  8
0
 10
64.6831
 20
-61.7294
 11
64.1426
 21
-61.6293
  0
LINE
  8
0
 10
64.1426
 20
-61.6293
 11
54.4261
 21
-60.1855
  0
LINE
  8
0
 10
54.4261
 20
-60.1855
 11
46.8732
 21
-51.166
  0
LINE
  8
0
 10
46.8732
 20
-51.166
 11
46.7
 21
-50.9632
  0
LINE
  8
0
 10
46.7
 20
-50.9632
 11
46.7
 21
-1.0495
  0
LINE
  8
0
 10
46.7
 20
-1.0495
 11
67.0837
 21
50.3698
  0
LINE
  8
0
 10
67.0837
 20
50.3698
 11
67.2096
 21
50.7251
  0
LINE
  8
0
 10
67.2096
 20
50.7251
 11
67.3166
 21
51.0865
  0
LINE
  8
0
 10
67.3166
 20
51.0865
 11
67.4046
 21
51.453
  0
LINE
  8
0
 10
67.4046
 20
51.453
 11
67.4733
 21
51.8237
  0
LINE
  8
0
 10
67.4733
 20
51.8237
 11
67.5225
 21
52.1974
  0
LINE
  8
0
 10
67.5225
 20
52.1974
 11
67.5521
 21
52.5732
  0
LINE
  8
0
 10
67.5521
 20
52.5732
 11
67.562
 21
52.95
  0
LINE
  8
0
 10
67.562
 20
52.95
 11
67.5521
 21
53.3268
  0
LINE
  8
0
 10
67.5521
 20
53.3268
 11
67.5225
 21
53.7026
  0
LINE
  8
0
 10
67.5225
 20
53.7026
 11
67.4733
 21
54.0763
  0
LINE
  8
0
 10
67.4733
 20
54.0763
 11
67.4046
 21
54.447
  0
LINE
  8
0
 10
67.4046
 20
54.447
 11
67.3166
 21
54.8135
  0
LINE
  8
0
 10
67.3166
 20
54.8135
 11
67.2096
 21
55.1749
  0
LINE
  8
0
 10
67.2096
 20
55.1749
 11
67.0837
 21
55.5302
  0
LINE
  8
0
 10
67.0837
 20
55.5302
 11
66.9395
 21
55.8785
  0
LINE
  8
0
 10
66.9395
 20
55.8785
 11
66.7772
 21
56.2187
  0
LINE
  8
0
 10
66.7772
 20
56.2187
 11
66.5974
 21
56.55
  0
LINE
  8
0
 10
66.5974
 20
56.55
 11
66.4004
 21
56.8714
  0
LINE
  8
0
 10
66.4004
 20
56.8714
 11
66.1869
 21
57.1821
  0
LINE
  8
0
 10
66.1869
 20
57.1821
 11
65.9574
 21
57.4811
  0
LINE
  8
0
 10
65.9574
 20
57.4811
 11
65.7126
 21
57.7677
  0
LINE
  8
0
 10
65.7126
 20
57.7677
 11
65.4531
 21
58.0412
  0
LINE
  8
0
 10
65.4531
 20
58.0412
 11
65.1797
 21
58.3006
  0
LINE
  8
0
 10
65.1797
 20
58.3006
 11
64.8931
 21
58.5454
  0
LINE
  8
0
 10
64.8931
 20
58.5454
 11
64.594
 21
58.7749
  0
LINE
  8
0
 10
64.594
 20
58.7749
 11
64.2834
 21
58.9884
  0
LINE
  8
0
 10
64.2834
 20
58.9884
 11
63.962
 21
59.1854
  0
LINE
  8
0
 10
63.962
 20
59.1854
 11
63.6307
 21
59.3652
  0
LINE
  8
0
 10
63.6307
 20
59.3652
 11
63.2905
 21
59.5275
  0
LINE
  8
0
 10
63.2905
 20
59.5275
 11
62.9422
 21
59.6718
  0
LINE
  8
0
 10
62.9422
 20
59.6718
 11
62.5869
 21
59.7976
  0
LINE
  8
0
 10
62.5869
 20
59.7976
 11
62.2255
 21
59.9047
  0
LINE
  8
0
 10
62.2255
 20
59.9047
 11
61.8589
 21
59.9927
  0
LINE
  8
0
 10
61.8589
 20
59.9927
 11
61.4883
 21
60.0614
  0
LINE
  8
0
 10
61.4883
 20
60.0614
 11
61.1146
 21
60.1105
  0
LINE
  8
0
 10
61.1146
 20
60.1105
 11
60.7388
 21
60.1401
  0
LINE
  8
0
 10
60.7388
 20
60.1401
 11
60.362
 21
60.15
  0
LINE
  8
0
 10
60.362
 20
60.15
 11
59.9852
 21
60.1401
  0
LINE
  8
0
 10
59.9852
 20
60.1401
 11
59.6094
 21
60.1105
  0
LINE
  8
0
 10
59.6094
 20
60.1105
 11
59.2356
 21
60.0614
  0
LINE
  8
0
 10
59.2356
 20
60.0614
 11
58.865
 21
59.9927
  0
LINE
  8
0
 10
58.865
 20
59.9927
 11
58.4985
 21
59.9047
  0
LINE
  8
0
 10
58.4985
 20
59.9047
 11
58.137
 21
59.7976
  0
LINE
  8
0
 10
58.137
 20
59.7976
 11
57.7817
 21
59.6718
  0
LINE
  8
0
 10
57.7817
 20
59.6718
 11
57.4335
 21
59.5275
  0
LINE
  8
0
 10
57.4335
 20
59.5275
 11
57.0932
 21
59.3652
  0
LINE
  8
0
 10
57.0932
 20
59.3652
 11
56.762
 21
59.1854
  0
LINE
  8
0
 10
56.762
 20
59.1854
 11
56.4406
 21
58.9884
  0
LINE
  8
0
 10
56.4406
 20
58.9884
 11
56.1299
 21
58.7749
  0
LINE
  8
0
 10
56.1299
 20
58.7749
 11
55.8309
 21
58.5454
  0
LINE
  8
0
 10
55.8309
 20
58.5454
 11
55.5442
 21
58.3006
  0
LINE
  8
0
 10
55.5442
 20
58.3006
 11
55.2708
 21
58.0412
  0
LINE
  8
0
 10
55.2708
 20
58.0412
 11
55.0113
 21
57.7677
  0
LINE
  8
0
 10
55.0113
 20
57.7677
 11
54.7665
 21
57.4811
  0
LINE
  8
0
 10
54.7665
 20
57.4811
 11
42.6102
 21
42.0833
  0
LINE
  8
0
 10
42.6102
 20
42.0833
 11
41.8207
 21
41.3534
  0
LINE
  8
0
 10
41.8207
 20
41.3534
 11
40.5905
 21
40.2746
  0
LINE
  8
0
 10
40.5905
 20
40.2746
 11
39.3325
 21
39.2284
  0
LINE
  8
0
 10
39.3325
 20
39.2284
 11
38.0476
 21
38.2154
  0
LINE
  8
0
 10
38.0476
 20
38.2154
 11
36.7366
 21
37.2364
  0
LINE
  8
0
 10
36.7366
 20
37.2364
 11
35.4004
 21
36.2921
  0
LINE
  8
0
 10
35.4004
 20
36.2921
 11
34.0399
 21
35.3831
  0
LINE
  8
0
 10
34.0399
 20
35.3831
 11
32.6562
 21
34.51
  0
LINE
  8
0
 10
32.6562
 20
34.51
 11
31.25
 21
33.6734
  0
LINE
  8
0
 10
31.25
 20
33.6734
 11
29.8224
 21
32.8739
  0
LINE
  8
0
 10
29.8224
 20
32.8739
 11
28.3744
 21
32.1121
  0
LINE
  8
0
 10
28.3744
 20
32.1121
 11
26.9069
 21
31.3884
  0
LINE
  8
0
 10
26.9069
 20
31.3884
 11
25.421
 21
30.7034
  0
LINE
  8
0
 10
25.421
 20
30.7034
 11
23.9177
 21
30.0575
  0
LINE
  8
0
 10
23.9177
 20
30.0575
 11
22.398
 21
29.4512
  0
LINE
  8
0
 10
22.398
 20
29.4512
 11
20.8629
 21
28.8849
  0
LINE
  8
0
 10
20.8629
 20
28.8849
 11
19.3136
 21
28.359
  0
LINE
  8
0
 10
19.3136
 20
28.359
 11
17.7509
 21
27.8738
  0
LINE
  8
0
 10
17.7509
 20
27.8738
 11
16.1762
 21
27.4296
  0
LINE
  8
0
 10
16.1762
 20
27.4296
 11
14.5903
 21
27.0269
  0
LINE
  8
0
 10
14.5903
 20
27.0269
 11
12.9945
 21
26.6658
  0
LINE
  8
0
 10
12.9945
 20
26.6658
 11
11.3897
 21
26.3466
  0
LINE
  8
0
 10
11.3897
 20
26.3466
 11
9.77715
 21
26.0695
  0
LINE
  8
0
 10
9.77715
 20
26.0695
 11
8.15788
 21
25.8347
  0
LINE
  8
0
 10
8.15788
 20
25.8347
 11
8.04958
 21
25.8219
  0
LINE
  8
0
 10
8.04958
 20
25.8219
 11
7.98885
 21
25.8434
  0
LINE
  8
0
 10
7.98885
 20
25.8434
 11
7.82822
 21
25.891
  0
LINE
  8
0
 10
7.82822
 20
25.891
 11
7.66531
 21
25.9301
  0
LINE
  8
0
 10
7.66531
 20
25.9301
 11
7.50058
 21
25.9606
  0
LINE
  8
0
 10
7.50058
 20
25.9606
 11
7.33449
 21
25.9825
  0
LINE
  8
0
 10
7.33449
 20
25.9825
 11
7.16747
 21
25.9956
  0
LINE
  8
0
 10
7.16747
 20
25.9956
 11
7
 21
26
  0
LINE
  8
0
 10
7
 20
26
 11
-6.99998
 21
26
  0
LINE
  8
0
 10
-6.99998
 20
26
 11
-7.16747
 21
25.9956
  0
LINE
  8
0
 10
-7.16747
 20
25.9956
 11
-7.33449
 21
25.9825
  0
LINE
  8
0
 10
-7.33449
 20
25.9825
 11
-7.50058
 21
25.9606
  0
LINE
  8
0
 10
-7.50058
 20
25.9606
 11
-7.66531
 21
25.9301
  0
LINE
  8
0
 10
-7.66531
 20
25.9301
 11
-7.82822
 21
25.891
  0
LINE
  8
0
 10
-7.82822
 20
25.891
 11
-7.98885
 21
25.8434
  0
LINE
  8
0
 10
-7.98885
 20
25.8434
 11
-8.04958
 21
25.8219
  0
LINE
  8
0
 10
-8.04958
 20
25.8219
 11
-8.15788
 21
25.8347
  0
LINE
  8
0
 10
-8.15788
 20
25.8347
 11
-9.77715
 21
26.0695
  0
LINE
  8
0
 10
-9.77715
 20
26.0695
 11
-11.3897
 21
26.3466
  0
LINE
  8
0
 10
-11.3897
 20
26.3466
 11
-12.9945
 21
26.6658
  0
LINE
  8
0
 10
-12.9945
 20
26.6658
 11
-14.5903
 21
27.0269
  0
LINE
  8
0
 10
-14.5903
 20
27.0269
 11
-16.1762
 21
27.4296
  0
LINE
  8
0
 10
-16.1762
 20
27.4296
 11
-17.7509
 21
27.8738
  0
LINE
  8
0
 10
-17.7509
 20
27.8738
 11
-19.3136
 21
28.359
  0
LINE
  8
0
 10
-19.3136
 20
28.359
 11
-20.8629
 21
28.8849
  0
LINE
  8
0
 10
-20.8629
 20
28.8849
 11
-22.398
 21
29.4512
  0
LINE
  8
0
 10
-22.398
 20
29.4512
 11
-23.9177
 21
30.0575
  0
LINE
  8
0
 10
-23.9177
 20
30.0575
 11
-25.421
 21
30.7034
  0
LINE
  8
0
 10
-25.421
 20
30.7034
 11
-26.9069
 21
31.3884
  0
LINE
  8
0
 10
-26.9069
 20
31.3884
 11
-28.3744
 21
32.1121
  0
LINE
  8
0
 10
-28.3744
 20
32.1121
 11
-29.8224
 21
32.8739
  0
LINE
  8
0
 10
-29.8224
 20
32.8739
 11
-31.25
 21
33.6734
  0
LINE
  8
0
 10
-31.25
 20
33.6734
 11
-32.6562
 21
34.51
  0
LINE
  8
0
 10
-32.6562
 20
34.51
 11
-34.0399
 21
35.3831
  0
LINE
  8
0
 10
-34.0399
 20
35.3831
 11
-35.4004
 21
36.2921
  0
LINE
  8
0
 10
-35.4004
 20
36.2921
 11
-36.7366
 21
37.2364
  0
LINE
  8
0
 10
-36.7366
 20
37.2364
 11
-38.0476
 21
38.2154
  0
LINE
  8
0
 10
-38.0476
 20
38.2154
 11
-39.3325
 21
39.2284
  0
LINE
  8
0
 10
-39.3325
 20
39.2284
 11
-40.5905
 21
40.2746
  0
LINE
  8
0
 10
-40.5905
 20
40.2746
 11
-41.8207
 21
41.3534
  0
LINE
  8
0
 10
-41.8207
 20
41.3534
 11
-42.6102
 21
42.0833
  0
LINE
  8
0
 10
-3.5
 20
9.75
 11
-3.5
 21
20.25
  0
LINE
  8
0
 10
-3.5
 20
20.25
 11
3.5
 21
20.25
  0
LINE
  8
0
 10
3.5
 20
20.25
 11
3.5
 21
9.75
  0
LINE
  8
0
 10
3.5
 20
9.75
 11
-3.5
 21
9.75
  0
LINE
  8
0
 10
-0.162231
 20
0.504242
 11
-0.324036
 21
0.516968
  0
LINE
  8
0
 10
-0.324036
 20
0.516968
 11
-0.48494
 21
0.538162
  0
LINE
  8
0
 10
-0.48494
 20
0.538162
 11
-0.644516
 21
0.567734
  0
LINE
  8
0
 10
-0.644516
 20
0.567734
 11
-0.802338
 21
0.605621
  0
LINE
  8
0
 10
-0.802338
 20
0.605621
 11
-0.957947
 21
0.651718
  0
LINE
  8
0
 10
-0.957947
 20
0.651718
 11
-1.11093
 21
0.705887
  0
LINE
  8
0
 10
-1.11093
 20
0.705887
 11
-1.26088
 21
0.768005
  0
LINE
  8
0
 10
-1.26088
 20
0.768005
 11
-1.40736
 21
0.837875
  0
LINE
  8
0
 10
-1.40736
 20
0.837875
 11
-1.54999
 21
0.915314
  0
LINE
  8
0
 10
-1.54999
 20
0.915314
 11
-1.68837
 21
1.00011
  0
LINE
  8
0
 10
-1.68837
 20
1.00011
 11
-1.82213
 21
1.09204
  0
LINE
  8
0
 10
-1.82213
 20
1.09204
 11
-1.95088
 21
1.19084
  0
LINE
  8
0
 10
-1.95088
 20
1.19084
 11
-2.0743
 21
1.29625
  0
LINE
  8
0
 10
-2.0743
 20
1.29625
 11
-2.19202
 21
1.40796
  0
LINE
  8
0
 10
-2.19202
 20
1.40796
 11
-2.30374
 21
1.52568
  0
LINE
  8
0
 10
-2.30374
 20
1.52568
 11
-2.40915
 21
1.64909
  0
LINE
  8
0
 10
-2.40915
 20
1.64909
 11
-2.50795
 21
1.77786
  0
LINE
  8
0
 10
-2.50795
 20
1.77786
 11
-2.59987
 21
1.91161
  0
LINE
  8
0
 10
-2.59987
 20
1.91161
 11
-2.68468
 21
2.04999
  0
LINE
  8
0
 10
-2.68468
 20
2.04999
 11
-2.76212
 21
2.19263
  0
LINE
  8
0
 10
-2.76212
 20
2.19263
 11
-2.83199
 21
2.33911
  0
LINE
  8
0
 10
-2.83199
 20
2.33911
 11
-2.89409
 21
2.48906
  0
LINE
  8
0
 10
-2.89409
 20
2.48906
 11
-2.94827
 21
2.64204
  0
LINE
  8
0
 10
-2.94827
 20
2.64204
 11
-2.99437
 21
2.79765
  0
LINE
  8
0
 10
-2.99437
 20
2.79765
 11
-3.03226
 21
2.95546
  0
LINE
  8
0
 10
-3.03226
 20
2.95546
 11
-3.06183
 21
3.11505
  0
LINE
  8
0
 10
-3.06183
 20
3.11505
 11
-3.08301
 21
3.27596
  0
LINE
  8
0
 10
-3.08301
 20
3.27596
 11
-3.09575
 21
3.43774
  0
LINE
  8
0
 10
-3.09575
 20
3.43774
 11
-3.09999
 21
3.59999
  0
LINE
  8
0
 10
-3.09999
 20
3.59999
 11
-3.09575
 21
3.76224
  0
LINE
  8
0
 10
-3.09575
 20
3.76224
 11
-3.08301
 21
3.92403
  0
LINE
  8
0
 10
-3.08301
 20
3.92403
 11
-3.06183
 21
4.08495
  0
LINE
  8
0
 10
-3.06183
 20
4.08495
 11
-3.03226
 21
4.24452
  0
LINE
  8
0
 10
-3.03226
 20
4.24452
 11
-2.99437
 21
4.40233
  0
LINE
  8
0
 10
-2.99437
 20
4.40233
 11
-2.94827
 21
4.55794
  0
LINE
  8
0
 10
-2.94827
 20
4.55794
 11
-2.89409
 21
4.71094
  0
LINE
  8
0
 10
-2.89409
 20
4.71094
 11
-2.83199
 21
4.86087
  0
LINE
  8
0
 10
-2.83199
 20
4.86087
 11
-2.76212
 21
5.00735
  0
LINE
  8
0
 10
-2.76212
 20
5.00735
 11
-2.68468
 21
5.14999
  0
LINE
  8
0
 10
-2.68468
 20
5.14999
 11
-2.59987
 21
5.28838
  0
LINE
  8
0
 10
-2.59987
 20
5.28838
 11
-2.50795
 21
5.42212
  0
LINE
  8
0
 10
-2.50795
 20
5.42212
 11
-2.40915
 21
5.55089
  0
LINE
  8
0
 10
-2.40915
 20
5.55089
 11
-2.30374
 21
5.6743
  0
LINE
  8
0
 10
-2.30374
 20
5.6743
 11
-2.19202
 21
5.79202
  0
LINE
  8
0
 10
-2.19202
 20
5.79202
 11
-2.0743
 21
5.90375
  0
LINE
  8
0
 10
-2.0743
 20
5.90375
 11
-1.95088
 21
6.00914
  0
LINE
  8
0
 10
-1.95088
 20
6.00914
 11
-1.82213
 21
6.10794
  0
LINE
  8
0
 10
-1.82213
 20
6.10794
 11
-1.68837
 21
6.19987
  0
LINE
  8
0
 10
-1.68837
 20
6.19987
 11
-1.54999
 21
6.28467
  0
LINE
  8
0
 10
-1.54999
 20
6.28467
 11
-1.40736
 21
6.36211
  0
LINE
  8
0
 10
-1.40736
 20
6.36211
 11
-1.26088
 21
6.43198
  0
LINE
  8
0
 10
-1.26088
 20
6.43198
 11
-1.11093
 21
6.49409
  0
LINE
  8
0
 10
-1.11093
 20
6.49409
 11
-0.957947
 21
6.54826
  0
LINE
  8
0
 10
-0.957947
 20
6.54826
 11
-0.802338
 21
6.59436
  0
LINE
  8
0
 10
-0.802338
 20
6.59436
 11
-0.644516
 21
6.63225
  0
LINE
  8
0
 10
-0.644516
 20
6.63225
 11
-0.48494
 21
6.66182
  0
LINE
  8
0
 10
-0.48494
 20
6.66182
 11
-0.324036
 21
6.68301
  0
LINE
  8
0
 10
-0.324036
 20
6.68301
 11
-0.162231
 21
6.69574
  0
LINE
  8
0
 10
-0.162231
 20
6.69574
 11
0
 21
6.7
  0
LINE
  8
0
 10
0
 20
6.7
 11
0.162231
 21
6.69574
  0
LINE
  8
0
 10
0.162231
 20
6.69574
 11
0.324036
 21
6.68301
  0
LINE
  8
0
 10
0.324036
 20
6.68301
 11
0.48494
 21
6.66182
  0
LINE
  8
0
 10
0.48494
 20
6.66182
 11
0.644516
 21
6.63225
  0
LINE
  8
0
 10
0.644516
 20
6.63225
 11
0.802338
 21
6.59436
  0
LINE
  8
0
 10
0.802338
 20
6.59436
 11
0.957947
 21
6.54826
  0
LINE
  8
0
 10
0.957947
 20
6.54826
 11
1.11093
 21
6.49409
  0
LINE
  8
0
 10
1.11093
 20
6.49409
 11
1.26088
 21
6.43198
  0
LINE
  8
0
 10
1.26088
 20
6.43198
 11
1.40736
 21
6.36211
  0
LINE
  8
0
 10
1.40736
 20
6.36211
 11
1.54999
 21
6.28467
  0
LINE
  8
0
 10
1.54999
 20
6.28467
 11
1.68837
 21
6.19987
  0
LINE
  8
0
 10
1.68837
 20
6.19987
 11
1.82213
 21
6.10794
  0
LINE
  8
0
 10
1.82213
 20
6.10794
 11
1.95088
 21
6.00914
  0
LINE
  8
0
 10
1.95088
 20
6.00914
 11
2.0743
 21
5.90375
  0
LINE
  8
0
 10
2.0743
 20
5.90375
 11
2.19202
 21
5.79202
  0
LINE
  8
0
 10
2.19202
 20
5.79202
 11
2.30374
 21
5.6743
  0
LINE
  8
0
 10
2.30374
 20
5.6743
 11
2.40915
 21
5.55089
  0
LINE
  8
0
 10
2.40915
 20
5.55089
 11
2.50795
 21
5.42212
  0
LINE
  8
0
 10
2.50795
 20
5.42212
 11
2.59987
 21
5.28838
  0
LINE
  8
0
 10
2.59987
 20
5.28838
 11
2.68468
 21
5.14999
  0
LINE
  8
0
 10
2.68468
 20
5.14999
 11
2.76212
 21
5.00735
  0
LINE
  8
0
 10
2.76212
 20
5.00735
 11
2.83199
 21
4.86087
  0
LINE
  8
0
 10
2.83199
 20
4.86087
 11
2.89409
 21
4.71094
  0
LINE
  8
0
 10
2.89409
 20
4.71094
 11
2.94827
 21
4.55794
  0
LINE
  8
0
 10
2.94827
 20
4.55794
 11
2.99437
 21
4.40233
  0
LINE
  8
0
 10
2.99437
 20
4.40233
 11
3.03226
 21
4.24452
  0
LINE
  8
0
 10
3.03226
 20
4.24452
 11
3.06183
 21
4.08495
  0
LINE
  8
0
 10
3.06183
 20
4.08495
 11
3.08301
 21
3.92403
  0
LINE
  8
0
 10
3.08301
 20
3.92403
 11
3.09575
 21
3.76224
  0
LINE
  8
0
 10
3.09575
 20
3.76224
 11
3.09999
 21
3.59999
  0
LINE
  8
0
 10
3.09999
 20
3.59999
 11
3.09575
 21
3.43774
  0
LINE
  8
0
 10
3.09575
 20
3.43774
 11
3.08301
 21
3.27596
  0
LINE
  8
0
 10
3.08301
 20
3.27596
 11
3.06183
 21
3.11505
  0
LINE
  8
0
 10
3.06183
 20
3.11505
 11
3.03226
 21
2.95546
  0
LINE
  8
0
 10
3.03226
 20
2.95546
 11
2.99437
 21
2.79765
  0
LINE
  8
0
 10
2.99437
 20
2.79765
 11
2.94827
 21
2.64204
  0
LINE
  8
0
 10
2.94827
 20
2.64204
 11
2.89409
 21
2.48906
  0
LINE
  8
0
 10
2.89409
 20
2.48906
 11
2.83199
 21
2.33911
  0
LINE
  8
0
 10
2.83199
 20
2.33911
 11
2.76212
 21
2.19263
  0
LINE
  8
0
 10
2.76212
 20
2.19263
 11
2.68468
 21
2.04999
  0
LINE
  8
0
 10
2.68468
 20
2.04999
 11
2.59987
 21
1.91161
  0
LINE
  8
0
 10
2.59987
 20
1.91161
 11
2.50795
 21
1.77786
  0
LINE
  8
0
 10
2.50795
 20
1.77786
 11
2.40915
 21
1.64909
  0
LINE
  8
0
 10
2.40915
 20
1.64909
 11
2.30374
 21
1.52568
  0
LINE
  8
0
 10
2.30374
 20
1.52568
 11
2.19202
 21
1.40796
  0
LINE
  8
0
 10
2.19202
 20
1.40796
 11
2.0743
 21
1.29625
  0
LINE
  8
0
 10
2.0743
 20
1.29625
 11
1.95088
 21
1.19084
  0
LINE
  8
0
 10
1.95088
 20
1.19084
 11
1.82213
 21
1.09204
  0
LINE
  8
0
 10
1.82213
 20
1.09204
 11
1.68837
 21
1.00011
  0
LINE
  8
0
 10
1.68837
 20
1.00011
 11
1.54999
 21
0.915314
  0
LINE
  8
0
 10
1.54999
 20
0.915314
 11
1.40736
 21
0.837875
  0
LINE
  8
0
 10
1.40736
 20
0.837875
 11
1.26088
 21
0.768005
  0
LINE
  8
0
 10
1.26088
 20
0.768005
 11
1.11093
 21
0.705887
  0
LINE
  8
0
 10
1.11093
 20
0.705887
 11
0.957947
 21
0.651718
  0
LINE
  8
0
 10
0.957947
 20
0.651718
 11
0.802338
 21
0.605621
  0
LINE
  8
0
 10
0.802338
 20
0.605621
 11
0.644516
 21
0.567734
  0
LINE
  8
0
 10
0.644516
 20
0.567734
 11
0.48494
 21
0.538162
  0
LINE
  8
0
 10
0.48494
 20
0.538162
 11
0.324036
 21
0.516968
  0
LINE
  8
0
 10
0.324036
 20
0.516968
 11
0.162231
 21
0.504242
  0
LINE
  8
0
 10
0.162231
 20
0.504242
 11
0
 21
0.5
  0
LINE
  8
0
 10
0
 20
0.5
 11
-0.162231
 21
0.504242
  0
LINE
  8
0
 10
-18.2146
 20
-4.09438
 11
-18.4286
 21
-4.07753
  0
LINE
  8
0
 10
-18.4286
 20
-4.07753
 11
-18.6414
 21
-4.04951
  0
LINE
  8
0
 10
-18.6414
 20
-4.04951
 11
-18.8524
 21
-4.01039
  0
LINE
  8
0
 10
-18.8524
 20
-4.01039
 11
-19.0612
 21
-3.96028
  0
LINE
  8
0
 10
-19.0612
 20
-3.96028
 11
-19.267
 21
-3.89932
  0
LINE
  8
0
 10
-19.267
 20
-3.89932
 11
-19.4693
 21
-3.82767
  0
LINE
  8
0
 10
-19.4693
 20
-3.82767
 11
-19.6676
 21
-3.74553
  0
LINE
  8
0
 10
-19.6676
 20
-3.74553
 11
-19.8614
 21
-3.65312
  0
LINE
  8
0
 10
-19.8614
 20
-3.65312
 11
-20.05
 21
-3.55069
  0
LINE
  8
0
 10
-20.05
 20
-3.55069
 11
-20.233
 21
-3.43854
  0
LINE
  8
0
 10
-20.233
 20
-3.43854
 11
-20.4099
 21
-3.31696
  0
LINE
  8
0
 10
-20.4099
 20
-3.31696
 11
-20.5802
 21
-3.18629
  0
LINE
  8
0
 10
-20.5802
 20
-3.18629
 11
-20.7434
 21
-3.04689
  0
LINE
  8
0
 10
-20.7434
 20
-3.04689
 11
-20.8991
 21
-2.89912
  0
LINE
  8
0
 10
-20.8991
 20
-2.89912
 11
-21.0469
 21
-2.74342
  0
LINE
  8
0
 10
-21.0469
 20
-2.74342
 11
-21.1863
 21
-2.5802
  0
LINE
  8
0
 10
-21.1863
 20
-2.5802
 11
-21.317
 21
-2.40991
  0
LINE
  8
0
 10
-21.317
 20
-2.40991
 11
-21.4385
 21
-2.23302
  0
LINE
  8
0
 10
-21.4385
 20
-2.23302
 11
-21.5507
 21
-2.04999
  0
LINE
  8
0
 10
-21.5507
 20
-2.04999
 11
-21.6531
 21
-1.86136
  0
LINE
  8
0
 10
-21.6531
 20
-1.86136
 11
-21.7455
 21
-1.66762
  0
LINE
  8
0
 10
-21.7455
 20
-1.66762
 11
-21.8277
 21
-1.4693
  0
LINE
  8
0
 10
-21.8277
 20
-1.4693
 11
-21.8993
 21
-1.26697
  0
LINE
  8
0
 10
-21.8993
 20
-1.26697
 11
-21.9603
 21
-1.06116
  0
LINE
  8
0
 10
-21.9603
 20
-1.06116
 11
-22.0104
 21
-0.852432
  0
LINE
  8
0
 10
-22.0104
 20
-0.852432
 11
-22.0495
 21
-0.641373
  0
LINE
  8
0
 10
-22.0495
 20
-0.641373
 11
-22.0775
 21
-0.428558
  0
LINE
  8
0
 10
-22.0775
 20
-0.428558
 11
-22.0944
 21
-0.214569
  0
LINE
  8
0
 10
-22.0944
 20
-0.214569
 11
-22.1
 21
0
  0
LINE
  8
0
 10
-22.1
 20
0
 11
-22.0944
 21
0.214569
  0
LINE
  8
0
 10
-22.0944
 20
0.214569
 11
-22.0775
 21
0.428558
  0
LINE
  8
0
 10
-22.0775
 20
0.428558
 11
-22.0495
 21
0.641373
  0
LINE
  8
0
 10
-22.0495
 20
0.641373
 11
-22.0104
 21
0.852432
  0
LINE
  8
0
 10
-22.0104
 20
0.852432
 11
-21.9603
 21
1.06116
  0
LINE
  8
0
 10
-21.9603
 20
1.06116
 11
-21.8993
 21
1.26697
  0
LINE
  8
0
 10
-21.8993
 20
1.26697
 11
-21.8277
 21
1.4693
  0
LINE
  8
0
 10
-21.8277
 20
1.4693
 11
-21.7455
 21
1.66762
  0
LINE
  8
0
 10
-21.7455
 20
1.66762
 11
-21.6531
 21
1.86136
  0
LINE
  8
0
 10
-21.6531
 20
1.86136
 11
-21.5507
 21
2.04999
  0
LINE
  8
0
 10
-21.5507
 20
2.04999
 11
-21.4385
 21
2.23302
  0
LINE
  8
0
 10
-21.4385
 20
2.23302
 11
-21.317
 21
2.40991
  0
LINE
  8
0
 10
-21.317
 20
2.40991
 11
-21.1863
 21
2.5802
  0
LINE
  8
0
 10
-21.1863
 20
2.5802
 11
-21.0469
 21
2.74342
  0
LINE
  8
0
 10
-21.0469
 20
2.74342
 11
-20.8991
 21
2.89912
  0
LINE
  8
0
 10
-20.8991
 20
2.89912
 11
-20.7434
 21
3.04689
  0
LINE
  8
0
 10
-20.7434
 20
3.04689
 11
-20.5802
 21
3.18629
  0
LINE
  8
0
 10
-20.5802
 20
3.18629
 11
-20.4099
 21
3.31696
  0
LINE
  8
0
 10
-20.4099
 20
3.31696
 11
-20.233
 21
3.43854
  0
LINE
  8
0
 10
-20.233
 20
3.43854
 11
-20.05
 21
3.55069
  0
LINE
  8
0
 10
-20.05
 20
3.55069
 11
-19.8614
 21
3.65312
  0
LINE
  8
0
 10
-19.8614
 20
3.65312
 11
-19.6676
 21
3.74553
  0
LINE
  8
0
 10
-19.6676
 20
3.74553
 11
-19.4693
 21
3.82767
  0
LINE
  8
0
 10
-19.4693
 20
3.82767
 11
-19.267
 21
3.89932
  0
LINE
  8
0
 10
-19.267
 20
3.89932
 11
-19.0612
 21
3.96028
  0
LINE
  8
0
 10
-19.0612
 20
3.96028
 11
-18.8524
 21
4.01039
  0
LINE
  8
0
 10
-18.8524
 20
4.01039
 11
-18.6414
 21
4.04951
  0
LINE
  8
0
 10
-18.6414
 20
4.04951
 11
-18.4286
 21
4.07753
  0
LINE
  8
0
 10
-18.4286
 20
4.07753
 11
-18.2146
 21
4.09438
  0
LINE
  8
0
 10
-18.2146
 20
4.09438
 11
-18
 21
4.09999
  0
LINE
  8
0
 10
-18
 20
4.09999
 11
-17.7854
 21
4.09438
  0
LINE
  8
0
 10
-17.7854
 20
4.09438
 11
-17.5714
 21
4.07753
  0
LINE
  8
0
 10
-17.5714
 20
4.07753
 11
-17.3586
 21
4.04951
  0
LINE
  8
0
 10
-17.3586
 20
4.04951
 11
-17.1476
 21
4.01039
  0
LINE
  8
0
 10
-17.1476
 20
4.01039
 11
-16.9388
 21
3.96028
  0
LINE
  8
0
 10
-16.9388
 20
3.96028
 11
-16.733
 21
3.89932
  0
LINE
  8
0
 10
-16.733
 20
3.89932
 11
-16.5307
 21
3.82767
  0
LINE
  8
0
 10
-16.5307
 20
3.82767
 11
-16.3324
 21
3.74553
  0
LINE
  8
0
 10
-16.3324
 20
3.74553
 11
-16.1386
 21
3.65312
  0
LINE
  8
0
 10
-16.1386
 20
3.65312
 11
-15.95
 21
3.55069
  0
LINE
  8
0
 10
-15.95
 20
3.55069
 11
-15.767
 21
3.43854
  0
LINE
  8
0
 10
-15.767
 20
3.43854
 11
-15.5901
 21
3.31696
  0
LINE
  8
0
 10
-15.5901
 20
3.31696
 11
-15.4198
 21
3.18629
  0
LINE
  8
0
 10
-15.4198
 20
3.18629
 11
-15.2566
 21
3.04689
  0
LINE
  8
0
 10
-15.2566
 20
3.04689
 11
-15.1009
 21
2.89912
  0
LINE
  8
0
 10
-15.1009
 20
2.89912
 11
-14.9531
 21
2.74342
  0
LINE
  8
0
 10
-14.9531
 20
2.74342
 11
-14.8137
 21
2.5802
  0
LINE
  8
0
 10
-14.8137
 20
2.5802
 11
-14.683
 21
2.40991
  0
LINE
  8
0
 10
-14.683
 20
2.40991
 11
-14.5614
 21
2.23302
  0
LINE
  8
0
 10
-14.5614
 20
2.23302
 11
-14.4493
 21
2.04999
  0
LINE
  8
0
 10
-14.4493
 20
2.04999
 11
-14.3469
 21
1.86136
  0
LINE
  8
0
 10
-14.3469
 20
1.86136
 11
-14.2545
 21
1.66762
  0
LINE
  8
0
 10
-14.2545
 20
1.66762
 11
-14.1723
 21
1.4693
  0
LINE
  8
0
 10
-14.1723
 20
1.4693
 11
-14.1007
 21
1.26697
  0
LINE
  8
0
 10
-14.1007
 20
1.26697
 11
-14.0397
 21
1.06116
  0
LINE
  8
0
 10
-14.0397
 20
1.06116
 11
-13.9896
 21
0.852432
  0
LINE
  8
0
 10
-13.9896
 20
0.852432
 11
-13.9505
 21
0.641373
  0
LINE
  8
0
 10
-13.9505
 20
0.641373
 11
-13.9225
 21
0.428558
  0
LINE
  8
0
 10
-13.9225
 20
0.428558
 11
-13.9056
 21
0.214569
  0
LINE
  8
0
 10
-13.9056
 20
0.214569
 11
-13.9
 21
0
  0
LINE
  8
0
 10
-13.9
 20
0
 11
-13.9056
 21
-0.214569
  0
LINE
  8
0
 10
-13.9056
 20
-0.214569
 11
-13.9225
 21
-0.428558
  0
LINE
  8
0
 10
-13.9225
 20
-0.428558
 11
-13.9505
 21
-0.641373
  0
LINE
  8
0
 10
-13.9505
 20
-0.641373
 11
-13.9896
 21
-0.852432
  0
LINE
  8
0
 10
-13.9896
 20
-0.852432
 11
-14.0397
 21
-1.06116
  0
LINE
  8
0
 10
-14.0397
 20
-1.06116
 11
-14.1007
 21
-1.26697
  0
LINE
  8
0
 10
-14.1007
 20
-1.26697
 11
-14.1723
 21
-1.4693
  0
LINE
  8
0
 10
-14.1723
 20
-1.4693
 11
-14.2545
 21
-1.66762
  0
LINE
  8
0
 10
-14.2545
 20
-1.66762
 11
-14.3469
 21
-1.86136
  0
LINE
  8
0
 10
-14.3469
 20
-1.86136
 11
-14.4493
 21
-2.04999
  0
LINE
  8
0
 10
-14.4493
 20
-2.04999
 11
-14.5614
 21
-2.23302
  0
LINE
  8
0
 10
-14.5614
 20
-2.23302
 11
-14.683
 21
-2.40991
  0
LINE
  8
0
 10
-14.683
 20
-2.40991
 11
-14.8137
 21
-2.5802
  0
LINE
  8
0
 10
-14.8137
 20
-2.5802
 11
-14.9531
 21
-2.74342
  0
LINE
  8
0
 10
-14.9531
 20
-2.74342
 11
-15.1009
 21
-2.89912
  0
LINE
  8
0
 10
-15.1009
 20
-2.89912
 11
-15.2566
 21
-3.04689
  0
LINE
  8
0
 10
-15.2566
 20
-3.04689
 11
-15.4198
 21
-3.18629
  0
LINE
  8
0
 10
-15.4198
 20
-3.18629
 11
-15.5901
 21
-3.31696
  0
LINE
  8
0
 10
-15.5901
 20
-3.31696
 11
-15.767
 21
-3.43854
  0
LINE
  8
0
 10
-15.767
 20
-3.43854
 11
-15.95
 21
-3.55069
  0
LINE
  8
0
 10
-15.95
 20
-3.55069
 11
-16.1386
 21
-3.65312
  0
LINE
  8
0
 10
-16.1386
 20
-3.65312
 11
-16.3324
 21
-3.74553
  0
LINE
  8
0
 10
-16.3324
 20
-3.74553
 11
-16.5307
 21
-3.82767
  0
LINE
  8
0
 10
-16.5307
 20
-3.82767
 11
-16.733
 21
-3.89932
  0
LINE
  8
0
 10
-16.733
 20
-3.89932
 11
-16.9388
 21
-3.96028
  0
LINE
  8
0
 10
-16.9388
 20
-3.96028
 11
-17.1476
 21
-4.01039
  0
LINE
  8
0
 10
-17.1476
 20
-4.01039
 11
-17.3586
 21
-4.04951
  0
LINE
  8
0
 10
-17.3586
 20
-4.04951
 11
-17.5714
 21
-4.07753
  0
LINE
  8
0
 10
-17.5714
 20
-4.07753
 11
-17.7854
 21
-4.09438
  0
LINE
  8
0
 10
-17.7854
 20
-4.09438
 11
-18
 21
-4.09999
  0
LINE
  8
0
 10
-18
 20
-4.09999
 11
-18.2146
 21
-4.09438
  0
LINE
  8
0
 10
17.7854
 20
-4.09438
 11
17.5714
 21
-4.07753
  0
LINE
  8
0
 10
17.5714
 20
-4.07753
 11
17.3586
 21
-4.04951
  0
LINE
  8
0
 10
17.3586
 20
-4.04951
 11
17.1476
 21
-4.01039
  0
LINE
  8
0
 10
17.1476
 20
-4.01039
 11
16.9388
 21
-3.96028
  0
LINE
  8
0
 10
16.9388
 20
-3.96028
 11
16.733
 21
-3.89932
  0
LINE
  8
0
 10
16.733
 20
-3.89932
 11
16.5307
 21
-3.82767
  0
LINE
  8
0
 10
16.5307
 20
-3.82767
 11
16.3324
 21
-3.74553
  0
LINE
  8
0
 10
16.3324
 20
-3.74553
 11
16.1386
 21
-3.65312
  0
LINE
  8
0
 10
16.1386
 20
-3.65312
 11
15.95
 21
-3.55069
  0
LINE
  8
0
 10
15.95
 20
-3.55069
 11
15.767
 21
-3.43854
  0
LINE
  8
0
 10
15.767
 20
-3.43854
 11
15.5901
 21
-3.31696
  0
LINE
  8
0
 10
15.5901
 20
-3.31696
 11
15.4198
 21
-3.18629
  0
LINE
  8
0
 10
15.4198
 20
-3.18629
 11
15.2566
 21
-3.04689
  0
LINE
  8
0
 10
15.2566
 20
-3.04689
 11
15.1009
 21
-2.89912
  0
LINE
  8
0
 10
15.1009
 20
-2.89912
 11
14.9531
 21
-2.74342
  0
LINE
  8
0
 10
14.9531
 20
-2.74342
 11
14.8137
 21
-2.5802
  0
LINE
  8
0
 10
14.8137
 20
-2.5802
 11
14.683
 21
-2.40991
  0
LINE
  8
0
 10
14.683
 20
-2.40991
 11
14.5614
 21
-2.23302
  0
LINE
  8
0
 10
14.5614
 20
-2.23302
 11
14.4493
 21
-2.04999
  0
LINE
  8
0
 10
14.4493
 20
-2.04999
 11
14.3469
 21
-1.86136
  0
LINE
  8
0
 10
14.3469
 20
-1.86136
 11
14.2545
 21
-1.66762
  0
LINE
  8
0
 10
14.2545
 20
-1.66762
 11
14.1723
 21
-1.4693
  0
LINE
  8
0
 10
14.1723
 20
-1.4693
 11
14.1007
 21
-1.26697
  0
LINE
  8
0
 10
14.1007
 20
-1.26697
 11
14.0397
 21
-1.06116
  0
LINE
  8
0
 10
14.0397
 20
-1.06116
 11
13.9896
 21
-0.852432
  0
LINE
  8
0
 10
13.9896
 20
-0.852432
 11
13.9505
 21
-0.641373
  0
LINE
  8
0
 10
13.9505
 20
-0.641373
 11
13.9225
 21
-0.428558
  0
LINE
  8
0
 10
13.9225
 20
-0.428558
 11
13.9056
 21
-0.214569
  0
LINE
  8
0
 10
13.9056
 20
-0.214569
 11
13.9
 21
0
  0
LINE
  8
0
 10
13.9
 20
0
 11
13.9056
 21
0.214569
  0
LINE
  8
0
 10
13.9056
 20
0.214569
 11
13.9225
 21
0.428558
  0
LINE
  8
0
 10
13.9225
 20
0.428558
 11
13.9505
 21
0.641373
  0
LINE
  8
0
 10
13.9505
 20
0.641373
 11
13.9896
 21
0.852432
  0
LINE
  8
0
 10
13.9896
 20
0.852432
 11
14.0397
 21
1.06116
  0
LINE
  8
0
 10
14.0397
 20
1.06116
 11
14.1007
 21
1.26697
  0
LINE
  8
0
 10
14.1007
 20
1.26697
 11
14.1723
 21
1.4693
  0
LINE
  8
0
 10
14.1723
 20
1.4693
 11
14.2545
 21
1.66762
  0
LINE
  8
0
 10
14.2545
 20
1.66762
 11
14.3469
 21
1.86136
  0
LINE
  8
0
 10
14.3469
 20
1.86136
 11
14.4493
 21
2.04999
  0
LINE
  8
0
 10
14.4493
 20
2.04999
 11
14.5614
 21
2.23302
  0
LINE
  8
0
 10
14.5614
 20
2.23302
 11
14.683
 21
2.40991
  0
LINE
  8
0
 10
14.683
 20
2.40991
 11
14.8137
 21
2.5802
  0
LINE
  8
0
 10
14.8137
 20
2.5802
 11
14.9531
 21
2.74342
  0
LINE
  8
0
 10
14.9531
 20
2.74342
 11
15.1009
 21
2.89912
  0
LINE
  8
0
 10
15.1009
 20
2.89912
 11
15.2566
 21
3.04689
  0
LINE
  8
0
 10
15.2566
 20
3.04689
 11
15.4198
 21
3.18629
  0
LINE
  8
0
 10
15.4198
 20
3.18629
 11
15.5901
 21
3.31696
  0
LINE
  8
0
 10
15.5901
 20
3.31696
 11
15.767
 21
3.43854
  0
LINE
  8
0
 10
15.767
 20
3.43854
 11
15.95
 21
3.55069
  0
LINE
  8
0
 10
15.95
 20
3.55069
 11
16.1386
 21
3.65312
  0
LINE
  8
0
 10
16.1386
 20
3.65312
 11
16.3324
 21
3.74553
  0
LINE
  8
0
 10
16.3324
 20
3.74553
 11
16.5307
 21
3.82767
  0
LINE
  8
0
 10
16.5307
 20
3.82767
 11
16.733
 21
3.89932
  0
LINE
  8
0
 10
16.733
 20
3.89932
 11
16.9388
 21
3.96028
  0
LINE
  8
0
 10
16.9388
 20
3.96028
 11
17.1476
 21
4.01039
  0
LINE
  8
0
 10
17.1476
 20
4.01039
 11
17.3586
 21
4.04951
  0
LINE
  8
0
 10
17.3586
 20
4.04951
 11
17.5714
 21
4.07753
  0
LINE
  8
0
 10
17.5714
 20
4.07753
 11
17.7854
 21
4.09438
  0
LINE
  8
0
 10
17.7854
 20
4.09438
 11
18
 21
4.09999
  0
LINE
  8
0
 10
18
 20
4.09999
 11
18.2146
 21
4.09438
  0
LINE
  8
0
 10
18.2146
 20
4.09438
 11
18.4286
 21
4.07753
  0
LINE
  8
0
 10
18.4286
 20
4.07753
 11
18.6414
 21
4.04951
  0
LINE
  8
0
 10
18.6414
 20
4.04951
 11
18.8524
 21
4.01039
  0
LINE
  8
0
 10
18.8524
 20
4.01039
 11
19.0612
 21
3.96028
  0
LINE
  8
0
 10
19.0612
 20
3.96028
 11
19.267
 21
3.89932
  0
LINE
  8
0
 10
19.267
 20
3.89932
 11
19.4693
 21
3.82767
  0
LINE
  8
0
 10
19.4693
 20
3.82767
 11
19.6676
 21
3.74553
  0
LINE
  8
0
 10
19.6676
 20
3.74553
 11
19.8614
 21
3.65312
  0
LINE
  8
0
 10
19.8614
 20
3.65312
 11
20.05
 21
3.55069
  0
LINE
  8
0
 10
20.05
 20
3.55069
 11
20.233
 21
3.43854
  0
LINE
  8
0
 10
20.233
 20
3.43854
 11
20.4099
 21
3.31696
  0
LINE
  8
0
 10
20.4099
 20
3.31696
 11
20.5802
 21
3.18629
  0
LINE
  8
0
 10
20.5802
 20
3.18629
 11
20.7434
 21
3.04689
  0
LINE
  8
0
 10
20.7434
 20
3.04689
 11
20.8991
 21
2.89912
  0
LINE
  8
0
 10
20.8991
 20
2.89912
 11
21.0469
 21
2.74342
  0
LINE
  8
0
 10
21.0469
 20
2.74342
 11
21.1863
 21
2.5802
  0
LINE
  8
0
 10
21.1863
 20
2.5802
 11
21.317
 21
2.40991
  0
LINE
  8
0
 10
21.317
 20
2.40991
 11
21.4385
 21
2.23302
  0
LINE
  8
0
 10
21.4385
 20
2.23302
 11
21.5507
 21
2.04999
  0
LINE
  8
0
 10
21.5507
 20
2.04999
 11
21.6531
 21
1.86136
  0
LINE
  8
0
 10
21.6531
 20
1.86136
 11
21.7455
 21
1.66762
  0
LINE
  8
0
 10
21.7455
 20
1.66762
 11
21.8277
 21
1.4693
  0
LINE
  8
0
 10
21.8277
 20
1.4693
 11
21.8993
 21
1.26697
  0
LINE
  8
0
 10
21.8993
 20
1.26697
 11
21.9603
 21
1.06116
  0
LINE
  8
0
 10
21.9603
 20
1.06116
 11
22.0104
 21
0.852432
  0
LINE
  8
0
 10
22.0104
 20
0.852432
 11
22.0495
 21
0.641373
  0
LINE
  8
0
 10
22.0495
 20
0.641373
 11
22.0775
 21
0.428558
  0
LINE
  8
0
 10
22.0775
 20
0.428558
 11
22.0944
 21
0.214569
  0
LINE
  8
0
 10
22.0944
 20
0.214569
 11
22.1
 21
0
  0
LINE
  8
0
 10
22.1
 20
0
 11
22.0944
 21
-0.214569
  0
LINE
  8
0
 10
22.0944
 20
-0.214569
 11
22.0775
 21
-0.428558
  0
LINE
  8
0
 10
22.0775
 20
-0.428558
 11
22.0495
 21
-0.641373
  0
LINE
  8
0
 10
22.0495
 20
-0.641373
 11
22.0104
 21
-0.852432
  0
LINE
  8
0
 10
22.0104
 20
-0.852432
 11
21.9603
 21
-1.06116
  0
LINE
  8
0
 10
21.9603
 20
-1.06116
 11
21.8993
 21
-1.26697
  0
LINE
  8
0
 10
21.8993
 20
-1.26697
 11
21.8277
 21
-1.4693
  0
LINE
  8
0
 10
21.8277
 20
-1.4693
 11
21.7455
 21
-1.66762
  0
LINE
  8
0
 10
21.7455
 20
-1.66762
 11
21.6531
 21
-1.86136
  0
LINE
  8
0
 10
21.6531
 20
-1.86136
 11
21.5507
 21
-2.04999
  0
LINE
  8
0
 10
21.5507
 20
-2.04999
 11
21.4385
 21
-2.23302
  0
LINE
  8
0
 10
21.4385
 20
-2.23302
 11
21.317
 21
-2.40991
  0
LINE
  8
0
 10
21.317
 20
-2.40991
 11
21.1863
 21
-2.5802
  0
LINE
  8
0
 10
21.1863
 20
-2.5802
 11
21.0469
 21
-2.74342
  0
LINE
  8
0
 10
21.0469
 20
-2.74342
 11
20.8991
 21
-2.89912
  0
LINE
  8
0
 10
20.8991
 20
-2.89912
 11
20.7434
 21
-3.04689
  0
LINE
  8
0
 10
20.7434
 20
-3.04689
 11
20.5802
 21
-3.18629
  0
LINE
  8
0
 10
20.5802
 20
-3.18629
 11
20.4099
 21
-3.31696
  0
LINE
  8
0
 10
20.4099
 20
-3.31696
 11
20.233
 21
-3.43854
  0
LINE
  8
0
 10
20.233
 20
-3.43854
 11
20.05
 21
-3.55069
  0
LINE
  8
0
 10
20.05
 20
-3.55069
 11
19.8614
 21
-3.65312
  0
LINE
  8
0
 10
19.8614
 20
-3.65312
 11
19.6676
 21
-3.74553
  0
LINE
  8
0
 10
19.6676
 20
-3.74553
 11
19.4693
 21
-3.82767
  0
LINE
  8
0
 10
19.4693
 20
-3.82767
 11
19.267
 21
-3.89932
  0
LINE
  8
0
 10
19.267
 20
-3.89932
 11
19.0612
 21
-3.96028
  0
LINE
  8
0
 10
19.0612
 20
-3.96028
 11
18.8524
 21
-4.01039
  0
LINE
  8
0
 10
18.8524
 20
-4.01039
 11
18.6414
 21
-4.04951
  0
LINE
  8
0
 10
18.6414
 20
-4.04951
 11
18.4286
 21
-4.07753
  0
LINE
  8
0
 10
18.4286
 20
-4.07753
 11
18.2146
 21
-4.09438
  0
LINE
  8
0
 10
18.2146
 20
-4.09438
 11
18
 21
-4.09999
  0
LINE
  8
0
 10
18
 20
-4.09999
 11
17.7854
 21
-4.09438
  0
LINE
  8
0
 10
-0.669891
 20
-55.1824
 11
-1.33795
 21
-55.1299
  0
LINE
  8
0
 10
-1.33795
 20
-55.1299
 11
-2.00235
 21
-55.0424
  0
LINE
  8
0
 10
-2.00235
 20
-55.0424
 11
-2.66125
 21
-54.9203
  0
LINE
  8
0
 10
-2.66125
 20
-54.9203
 11
-3.31288
 21
-54.7638
  0
LINE
  8
0
 10
-3.31288
 20
-54.7638
 11
-3.95541
 21
-54.5735
  0
LINE
  8
0
 10
-3.95541
 20
-54.5735
 11
-4.5871
 21
-54.3498
  0
LINE
  8
0
 10
-4.5871
 20
-54.3498
 11
-5.20622
 21
-54.0934
  0
LINE
  8
0
 10
-5.20622
 20
-54.0934
 11
-5.81107
 21
-53.8049
  0
LINE
  8
0
 10
-5.81107
 20
-53.8049
 11
-6.39999
 21
-53.4851
  0
LINE
  8
0
 10
-6.39999
 20
-53.4851
 11
-6.97137
 21
-53.135
  0
LINE
  8
0
 10
-6.97137
 20
-53.135
 11
-7.52365
 21
-52.7554
  0
LINE
  8
0
 10
-7.52365
 20
-52.7554
 11
-8.0553
 21
-52.3475
  0
LINE
  8
0
 10
-8.0553
 20
-52.3475
 11
-8.56487
 21
-51.9122
  0
LINE
  8
0
 10
-8.56487
 20
-51.9122
 11
-9.05096
 21
-51.451
  0
LINE
  8
0
 10
-9.05096
 20
-51.451
 11
-9.51225
 21
-50.9649
  0
LINE
  8
0
 10
-9.51225
 20
-50.9649
 11
-9.94746
 21
-50.4553
  0
LINE
  8
0
 10
-9.94746
 20
-50.4553
 11
-10.3554
 21
-49.9236
  0
LINE
  8
0
 10
-10.3554
 20
-49.9236
 11
-10.735
 21
-49.3714
  0
LINE
  8
0
 10
-10.735
 20
-49.3714
 11
-11.0851
 21
-48.8
  0
LINE
  8
0
 10
-11.0851
 20
-48.8
 11
-11.4049
 21
-48.2111
  0
LINE
  8
0
 10
-11.4049
 20
-48.2111
 11
-11.6934
 21
-47.6062
  0
LINE
  8
0
 10
-11.6934
 20
-47.6062
 11
-11.9498
 21
-46.9871
  0
LINE
  8
0
 10
-11.9498
 20
-46.9871
 11
-12.1735
 21
-46.3554
  0
LINE
  8
0
 10
-12.1735
 20
-46.3554
 11
-12.3638
 21
-45.7129
  0
LINE
  8
0
 10
-12.3638
 20
-45.7129
 11
-12.5203
 21
-45.0613
  0
LINE
  8
0
 10
-12.5203
 20
-45.0613
 11
-12.6424
 21
-44.4024
  0
LINE
  8
0
 10
-12.6424
 20
-44.4024
 11
-12.7299
 21
-43.738
  0
LINE
  8
0
 10
-12.7299
 20
-43.738
 11
-12.7825
 21
-43.0699
  0
LINE
  8
0
 10
-12.7825
 20
-43.0699
 11
-12.8
 21
-42.4
  0
LINE
  8
0
 10
-12.8
 20
-42.4
 11
-12.7825
 21
-41.7301
  0
LINE
  8
0
 10
-12.7825
 20
-41.7301
 11
-12.7299
 21
-41.062
  0
LINE
  8
0
 10
-12.7299
 20
-41.062
 11
-12.6424
 21
-40.3976
  0
LINE
  8
0
 10
-12.6424
 20
-40.3976
 11
-12.5203
 21
-39.7387
  0
LINE
  8
0
 10
-12.5203
 20
-39.7387
 11
-12.3638
 21
-39.0871
  0
LINE
  8
0
 10
-12.3638
 20
-39.0871
 11
-12.1735
 21
-38.4446
  0
LINE
  8
0
 10
-12.1735
 20
-38.4446
 11
-11.9498
 21
-37.8129
  0
LINE
  8
0
 10
-11.9498
 20
-37.8129
 11
-11.6934
 21
-37.1938
  0
LINE
  8
0
 10
-11.6934
 20
-37.1938
 11
-11.4049
 21
-36.5889
  0
LINE
  8
0
 10
-11.4049
 20
-36.5889
 11
-11.0851
 21
-36
  0
LINE
  8
0
 10
-11.0851
 20
-36
 11
-10.735
 21
-35.4286
  0
LINE
  8
0
 10
-10.735
 20
-35.4286
 11
-10.3554
 21
-34.8763
  0
LINE
  8
0
 10
-10.3554
 20
-34.8763
 11
-9.94746
 21
-34.3447
  0
LINE
  8
0
 10
-9.94746
 20
-34.3447
 11
-9.51225
 21
-33.8351
  0
LINE
  8
0
 10
-9.51225
 20
-33.8351
 11
-9.05096
 21
-33.349
  0
LINE
  8
0
 10
-9.05096
 20
-33.349
 11
-8.56487
 21
-32.8877
  0
LINE
  8
0
 10
-8.56487
 20
-32.8877
 11
-8.0553
 21
-32.4525
  0
LINE
  8
0
 10
-8.0553
 20
-32.4525
 11
-7.52365
 21
-32.0446
  0
LINE
  8
0
 10
-7.52365
 20
-32.0446
 11
-6.97137
 21
-31.665
  0
LINE
  8
0
 10
-6.97137
 20
-31.665
 11
-6.39999
 21
-31.3149
  0
LINE
  8
0
 10
-6.39999
 20
-31.3149
 11
-5.81107
 21
-30.9951
  0
LINE
  8
0
 10
-5.81107
 20
-30.9951
 11
-5.20622
 21
-30.7066
  0
LINE
  8
0
 10
-5.20622
 20
-30.7066
 11
-4.5871
 21
-30.4502
  0
LINE
  8
0
 10
-4.5871
 20
-30.4502
 11
-3.95541
 21
-30.2265
  0
LINE
  8
0
 10
-3.95541
 20
-30.2265
 11
-3.31288
 21
-30.0361
  0
LINE
  8
0
 10
-3.31288
 20
-30.0361
 11
-2.66125
 21
-29.8797
  0
LINE
  8
0
 10
-2.66125
 20
-29.8797
 11
-2.00235
 21
-29.7576
  0
LINE
  8
0
 10
-2.00235
 20
-29.7576
 11
-1.33795
 21
-29.6701
  0
LINE
  8
0
 10
-1.33795
 20
-29.6701
 11
-0.669891
 21
-29.6175
  0
LINE
  8
0
 10
-0.669891
 20
-29.6175
 11
0
 21
-29.6
  0
LINE
  8
0
 10
0
 20
-29.6
 11
0.669891
 21
-29.6175
  0
LINE
  8
0
 10
0.669891
 20
-29.6175
 11
1.33795
 21
-29.6701
  0
LINE
  8
0
 10
1.33795
 20
-29.6701
 11
2.00235
 21
-29.7576
  0
LINE
  8
0
 10
2.00235
 20
-29.7576
 11
2.66125
 21
-29.8797
  0
LINE
  8
0
 10
2.66125
 20
-29.8797
 11
3.31288
 21
-30.0361
  0
LINE
  8
0
 10
3.31288
 20
-30.0361
 11
3.95541
 21
-30.2265
  0
LINE
  8
0
 10
3.95541
 20
-30.2265
 11
4.5871
 21
-30.4502
  0
LINE
  8
0
 10
4.5871
 20
-30.4502
 11
5.20622
 21
-30.7066
  0
LINE
  8
0
 10
5.20622
 20
-30.7066
 11
5.81107
 21
-30.9951
  0
LINE
  8
0
 10
5.81107
 20
-30.9951
 11
6.39999
 21
-31.3149
  0
LINE
  8
0
 10
6.39999
 20
-31.3149
 11
6.97137
 21
-31.665
  0
LINE
  8
0
 10
6.97137
 20
-31.665
 11
7.52365
 21
-32.0446
  0
LINE
  8
0
 10
7.52365
 20
-32.0446
 11
8.0553
 21
-32.4525
  0
LINE
  8
0
 10
8.0553
 20
-32.4525
 11
8.56487
 21
-32.8877
  0
LINE
  8
0
 10
8.56487
 20
-32.8877
 11
9.05096
 21
-33.349
  0
LINE
  8
0
 10
9.05096
 20
-33.349
 11
9.51225
 21
-33.8351
  0
LINE
  8
0
 10
9.51225
 20
-33.8351
 11
9.94746
 21
-34.3447
  0
LINE
  8
0
 10
9.94746
 20
-34.3447
 11
10.3554
 21
-34.8763
  0
LINE
  8
0
 10
10.3554
 20
-34.8763
 11
10.735
 21
-35.4286
  0
LINE
  8
0
 10
10.735
 20
-35.4286
 11
11.0851
 21
-36
  0
LINE
  8
0
 10
11.0851
 20
-36
 11
11.4049
 21
-36.5889
  0
LINE
  8
0
 10
11.4049
 20
-36.5889
 11
11.6934
 21
-37.1938
  0
LINE
  8
0
 10
11.6934
 20
-37.1938
 11
11.9498
 21
-37.8129
  0
LINE
  8
0
 10
11.9498
 20
-37.8129
 11
12.1735
 21
-38.4446
  0
LINE
  8
0
 10
12.1735
 20
-38.4446
 11
12.3638
 21
-39.0871
  0
LINE
  8
0
 10
12.3638
 20
-39.0871
 11
12.5203
 21
-39.7387
  0
LINE
  8
0
 10
12.5203
 20
-39.7387
 11
12.6424
 21
-40.3976
  0
LINE
  8
0
 10
12.6424
 20
-40.3976
 11
12.7299
 21
-41.062
  0
LINE
  8
0
 10
12.7299
 20
-41.062
 11
12.7825
 21
-41.7301
  0
LINE
  8
0
 10
12.7825
 20
-41.7301
 11
12.8
 21
-42.4
  0
LINE
  8
0
 10
12.8
 20
-42.4
 11
12.7825
 21
-43.0699
  0
LINE
  8
0
 10
12.7825
 20
-43.0699
 11
12.7299
 21
-43.738
  0
LINE
  8
0
 10
12.7299
 20
-43.738
 11
12.6424
 21
-44.4024
  0
LINE
  8
0
 10
12.6424
 20
-44.4024
 11
12.5203
 21
-45.0613
  0
LINE
  8
0
 10
12.5203
 20
-45.0613
 11
12.3638
 21
-45.7129
  0
LINE
  8
0
 10
12.3638
 20
-45.7129
 11
12.1735
 21
-46.3554
  0
LINE
  8
0
 10
12.1735
 20
-46.3554
 11
11.9498
 21
-46.9871
  0
LINE
  8
0
 10
11.9498
 20
-46.9871
 11
11.6934
 21
-47.6062
  0
LINE
  8
0
 10
11.6934
 20
-47.6062
 11
11.4049
 21
-48.2111
  0
LINE
  8
0
 10
11.4049
 20
-48.2111
 11
11.0851
 21
-48.8
  0
LINE
  8
0
 10
11.0851
 20
-48.8
 11
10.735
 21
-49.3714
  0
LINE
  8
0
 10
10.735
 20
-49.3714
 11
10.3554
 21
-49.9236
  0
LINE
  8
0
 10
10.3554
 20
-49.9236
 11
9.94746
 21
-50.4553
  0
LINE
  8
0
 10
9.94746
 20
-50.4553
 11
9.51225
 21
-50.9649
  0
LINE
  8
0
 10
9.51225
 20
-50.9649
 11
9.05096
 21
-51.451
  0
LINE
  8
0
 10
9.05096
 20
-51.451
 11
8.56487
 21
-51.9122
  0
LINE
  8
0
 10
8.56487
 20
-51.9122
 11
8.0553
 21
-52.3475
  0
LINE
  8
0
 10
8.0553
 20
-52.3475
 11
7.52365
 21
-52.7554
  0
LINE
  8
0
 10
7.52365
 20
-52.7554
 11
6.97137
 21
-53.135
  0
LINE
  8
0
 10
6.97137
 20
-53.135
 11
6.39999
 21
-53.4851
  0
LINE
  8
0
 10
6.39999
 20
-53.4851
 11
5.81107
 21
-53.8049
  0
LINE
  8
0
 10
5.81107
 20
-53.8049
 11
5.20622
 21
-54.0934
  0
LINE
  8
0
 10
5.20622
 20
-54.0934
 11
4.5871
 21
-54.3498
  0
LINE
  8
0
 10
4.5871
 20
-54.3498
 11
3.95541
 21
-54.5735
  0
LINE
  8
0
 10
3.95541
 20
-54.5735
 11
3.31288
 21
-54.7638
  0
LINE
  8
0
 10
3.31288
 20
-54.7638
 11
2.66125
 21
-54.9203
  0
LINE
  8
0
 10
2.66125
 20
-54.9203
 11
2.00235
 21
-55.0424
  0
LINE
  8
0
 10
2.00235
 20
-55.0424
 11
1.33795
 21
-55.1299
  0
LINE
  8
0
 10
1.33795
 20
-55.1299
 11
0.669891
 21
-55.1824
  0
LINE
  8
0
 10
0.669891
 20
-55.1824
 11
0
 21
-55.2
  0
LINE
  8
0
 10
0
 20
-55.2
 11
-0.669891
 21
-55.1824
  0
LINE
  8
0
 10
-30.4731
 20
-62.9957
 11
-30.6349
 21
-62.983
  0
LINE
  8
0
 10
-30.6349
 20
-62.983
 11
-30.7958
 21
-62.9618
  0
LINE
  8
0
 10
-30.7958
 20
-62.9618
 11
-30.9554
 21
-62.9323
  0
LINE
  8
0
 10
-30.9554
 20
-62.9323
 11
-31.1132
 21
-62.8944
  0
LINE
  8
0
 10
-31.1132
 20
-62.8944
 11
-31.2688
 21
-62.8483
  0
LINE
  8
0
 10
-31.2688
 20
-62.8483
 11
-31.4218
 21
-62.7941
  0
LINE
  8
0
 10
-31.4218
 20
-62.7941
 11
-31.5718
 21
-62.732
  0
LINE
  8
0
 10
-31.5718
 20
-62.732
 11
-31.7182
 21
-62.6621
  0
LINE
  8
0
 10
-31.7182
 20
-62.6621
 11
-31.8609
 21
-62.5847
  0
LINE
  8
0
 10
-31.8609
 20
-62.5847
 11
-31.9993
 21
-62.4999
  0
LINE
  8
0
 10
-31.9993
 20
-62.4999
 11
-32.133
 21
-62.4079
  0
LINE
  8
0
 10
-32.133
 20
-62.4079
 11
-32.2618
 21
-62.3091
  0
LINE
  8
0
 10
-32.2618
 20
-62.3091
 11
-32.3852
 21
-62.2037
  0
LINE
  8
0
 10
-32.3852
 20
-62.2037
 11
-32.5029
 21
-62.092
  0
LINE
  8
0
 10
-32.5029
 20
-62.092
 11
-32.6146
 21
-61.9743
  0
LINE
  8
0
 10
-32.6146
 20
-61.9743
 11
-32.72
 21
-61.8509
  0
LINE
  8
0
 10
-32.72
 20
-61.8509
 11
-32.8188
 21
-61.7221
  0
LINE
  8
0
 10
-32.8188
 20
-61.7221
 11
-32.9108
 21
-61.5884
  0
LINE
  8
0
 10
-32.9108
 20
-61.5884
 11
-32.9956
 21
-61.45
  0
LINE
  8
0
 10
-32.9956
 20
-61.45
 11
-33.073
 21
-61.3074
  0
LINE
  8
0
 10
-33.073
 20
-61.3074
 11
-33.1429
 21
-61.1609
  0
LINE
  8
0
 10
-33.1429
 20
-61.1609
 11
-33.205
 21
-61.0109
  0
LINE
  8
0
 10
-33.205
 20
-61.0109
 11
-33.2592
 21
-60.8579
  0
LINE
  8
0
 10
-33.2592
 20
-60.8579
 11
-33.3053
 21
-60.7023
  0
LINE
  8
0
 10
-33.3053
 20
-60.7023
 11
-33.3431
 21
-60.5445
  0
LINE
  8
0
 10
-33.3431
 20
-60.5445
 11
-33.3727
 21
-60.3849
  0
LINE
  8
0
 10
-33.3727
 20
-60.3849
 11
-33.3939
 21
-60.224
  0
LINE
  8
0
 10
-33.3939
 20
-60.224
 11
-33.4066
 21
-60.0622
  0
LINE
  8
0
 10
-33.4066
 20
-60.0622
 11
-33.4109
 21
-59.9
  0
LINE
  8
0
 10
-33.4109
 20
-59.9
 11
-33.4066
 21
-59.7377
  0
LINE
  8
0
 10
-33.4066
 20
-59.7377
 11
-33.3939
 21
-59.576
  0
LINE
  8
0
 10
-33.3939
 20
-59.576
 11
-33.3727
 21
-59.4151
  0
LINE
  8
0
 10
-33.3727
 20
-59.4151
 11
-33.3431
 21
-59.2555
  0
LINE
  8
0
 10
-33.3431
 20
-59.2555
 11
-33.3053
 21
-59.0977
  0
LINE
  8
0
 10
-33.3053
 20
-59.0977
 11
-33.2592
 21
-58.942
  0
LINE
  8
0
 10
-33.2592
 20
-58.942
 11
-33.205
 21
-58.789
  0
LINE
  8
0
 10
-33.205
 20
-58.789
 11
-33.1429
 21
-58.6391
  0
LINE
  8
0
 10
-33.1429
 20
-58.6391
 11
-33.073
 21
-58.4926
  0
LINE
  8
0
 10
-33.073
 20
-58.4926
 11
-32.9956
 21
-58.35
  0
LINE
  8
0
 10
-32.9956
 20
-58.35
 11
-32.9108
 21
-58.2116
  0
LINE
  8
0
 10
-32.9108
 20
-58.2116
 11
-32.8188
 21
-58.0779
  0
LINE
  8
0
 10
-32.8188
 20
-58.0779
 11
-32.72
 21
-57.9491
  0
LINE
  8
0
 10
-32.72
 20
-57.9491
 11
-32.6146
 21
-57.8257
  0
LINE
  8
0
 10
-32.6146
 20
-57.8257
 11
-32.5029
 21
-57.708
  0
LINE
  8
0
 10
-32.5029
 20
-57.708
 11
-32.3852
 21
-57.5963
  0
LINE
  8
0
 10
-32.3852
 20
-57.5963
 11
-32.2618
 21
-57.4908
  0
LINE
  8
0
 10
-32.2618
 20
-57.4908
 11
-32.133
 21
-57.392
  0
LINE
  8
0
 10
-32.133
 20
-57.392
 11
-31.9993
 21
-57.3001
  0
LINE
  8
0
 10
-31.9993
 20
-57.3001
 11
-31.8609
 21
-57.2153
  0
LINE
  8
0
 10
-31.8609
 20
-57.2153
 11
-31.7182
 21
-57.1379
  0
LINE
  8
0
 10
-31.7182
 20
-57.1379
 11
-31.5718
 21
-57.068
  0
LINE
  8
0
 10
-31.5718
 20
-57.068
 11
-31.4218
 21
-57.0059
  0
LINE
  8
0
 10
-31.4218
 20
-57.0059
 11
-31.2688
 21
-56.9517
  0
LINE
  8
0
 10
-31.2688
 20
-56.9517
 11
-31.1132
 21
-56.9056
  0
LINE
  8
0
 10
-31.1132
 20
-56.9056
 11
-30.9554
 21
-56.8677
  0
LINE
  8
0
 10
-30.9554
 20
-56.8677
 11
-30.7958
 21
-56.8382
  0
LINE
  8
0
 10
-30.7958
 20
-56.8382
 11
-30.6349
 21
-56.817
  0
LINE
  8
0
 10
-30.6349
 20
-56.817
 11
-30.4731
 21
-56.8042
  0
LINE
  8
0
 10
-30.4731
 20
-56.8042
 11
-30.3109
 21
-56.8
  0
LINE
  8
0
 10
-30.3109
 20
-56.8
 11
-30.1486
 21
-56.8042
  0
LINE
  8
0
 10
-30.1486
 20
-56.8042
 11
-29.9868
 21
-56.817
  0
LINE
  8
0
 10
-29.9868
 20
-56.817
 11
-29.8259
 21
-56.8382
  0
LINE
  8
0
 10
-29.8259
 20
-56.8382
 11
-29.6664
 21
-56.8677
  0
LINE
  8
0
 10
-29.6664
 20
-56.8677
 11
-29.5085
 21
-56.9056
  0
LINE
  8
0
 10
-29.5085
 20
-56.9056
 11
-29.3529
 21
-56.9517
  0
LINE
  8
0
 10
-29.3529
 20
-56.9517
 11
-29.1999
 21
-57.0059
  0
LINE
  8
0
 10
-29.1999
 20
-57.0059
 11
-29.05
 21
-57.068
  0
LINE
  8
0
 10
-29.05
 20
-57.068
 11
-28.9035
 21
-57.1379
  0
LINE
  8
0
 10
-28.9035
 20
-57.1379
 11
-28.7609
 21
-57.2153
  0
LINE
  8
0
 10
-28.7609
 20
-57.2153
 11
-28.6225
 21
-57.3001
  0
LINE
  8
0
 10
-28.6225
 20
-57.3001
 11
-28.4888
 21
-57.392
  0
LINE
  8
0
 10
-28.4888
 20
-57.392
 11
-28.36
 21
-57.4908
  0
LINE
  8
0
 10
-28.36
 20
-57.4908
 11
-28.2366
 21
-57.5963
  0
LINE
  8
0
 10
-28.2366
 20
-57.5963
 11
-28.1189
 21
-57.708
  0
LINE
  8
0
 10
-28.1189
 20
-57.708
 11
-28.0071
 21
-57.8257
  0
LINE
  8
0
 10
-28.0071
 20
-57.8257
 11
-27.9017
 21
-57.9491
  0
LINE
  8
0
 10
-27.9017
 20
-57.9491
 11
-27.8029
 21
-58.0779
  0
LINE
  8
0
 10
-27.8029
 20
-58.0779
 11
-27.711
 21
-58.2116
  0
LINE
  8
0
 10
-27.711
 20
-58.2116
 11
-27.6262
 21
-58.35
  0
LINE
  8
0
 10
-27.6262
 20
-58.35
 11
-27.5488
 21
-58.4926
  0
LINE
  8
0
 10
-27.5488
 20
-58.4926
 11
-27.4789
 21
-58.6391
  0
LINE
  8
0
 10
-27.4789
 20
-58.6391
 11
-27.4168
 21
-58.789
  0
LINE
  8
0
 10
-27.4168
 20
-58.789
 11
-27.3626
 21
-58.942
  0
LINE
  8
0
 10
-27.3626
 20
-58.942
 11
-27.3165
 21
-59.0977
  0
LINE
  8
0
 10
-27.3165
 20
-59.0977
 11
-27.2786
 21
-59.2555
  0
LINE
  8
0
 10
-27.2786
 20
-59.2555
 11
-27.2491
 21
-59.4151
  0
LINE
  8
0
 10
-27.2491
 20
-59.4151
 11
-27.2279
 21
-59.576
  0
LINE
  8
0
 10
-27.2279
 20
-59.576
 11
-27.2151
 21
-59.7377
  0
LINE
  8
0
 10
-27.2151
 20
-59.7377
 11
-27.2109
 21
-59.9
  0
LINE
  8
0
 10
-27.2109
 20
-59.9
 11
-27.2151
 21
-60.0622
  0
LINE
  8
0
 10
-27.2151
 20
-60.0622
 11
-27.2279
 21
-60.224
  0
LINE
  8
0
 10
-27.2279
 20
-60.224
 11
-27.2491
 21
-60.3849
  0
LINE
  8
0
 10
-27.2491
 20
-60.3849
 11
-27.2786
 21
-60.5445
  0
LINE
  8
0
 10
-27.2786
 20
-60.5445
 11
-27.3165
 21
-60.7023
  0
LINE
  8
0
 10
-27.3165
 20
-60.7023
 11
-27.3626
 21
-60.8579
  0
LINE
  8
0
 10
-27.3626
 20
-60.8579
 11
-27.4168
 21
-61.0109
  0
LINE
  8
0
 10
-27.4168
 20
-61.0109
 11
-27.4789
 21
-61.1609
  0
LINE
  8
0
 10
-27.4789
 20
-61.1609
 11
-27.5488
 21
-61.3074
  0
LINE
  8
0
 10
-27.5488
 20
-61.3074
 11
-27.6262
 21
-61.45
  0
LINE
  8
0
 10
-27.6262
 20
-61.45
 11
-27.711
 21
-61.5884
  0
LINE
  8
0
 10
-27.711
 20
-61.5884
 11
-27.8029
 21
-61.7221
  0
LINE
  8
0
 10
-27.8029
 20
-61.7221
 11
-27.9017
 21
-61.8509
  0
LINE
  8
0
 10
-27.9017
 20
-61.8509
 11
-28.0071
 21
-61.9743
  0
LINE
  8
0
 10
-28.0071
 20
-61.9743
 11
-28.1189
 21
-62.092
  0
LINE
  8
0
 10
-28.1189
 20
-62.092
 11
-28.2366
 21
-62.2037
  0
LINE
  8
0
 10
-28.2366
 20
-62.2037
 11
-28.36
 21
-62.3091
  0
LINE
  8
0
 10
-28.36
 20
-62.3091
 11
-28.4888
 21
-62.4079
  0
LINE
  8
0
 10
-28.4888
 20
-62.4079
 11
-28.6225
 21
-62.4999
  0
LINE
  8
0
 10
-28.6225
 20
-62.4999
 11
-28.7609
 21
-62.5847
  0
LINE
  8
0
 10
-28.7609
 20
-62.5847
 11
-28.9035
 21
-62.6621
  0
LINE
  8
0
 10
-28.9035
 20
-62.6621
 11
-29.05
 21
-62.732
  0
LINE
  8
0
 10
-29.05
 20
-62.732
 11
-29.1999
 21
-62.7941
  0
LINE
  8
0
 10
-29.1999
 20
-62.7941
 11
-29.3529
 21
-62.8483
  0
LINE
  8
0
 10
-29.3529
 20
-62.8483
 11
-29.5085
 21
-62.8944
  0
LINE
  8
0
 10
-29.5085
 20
-62.8944
 11
-29.6664
 21
-62.9323
  0
LINE
  8
0
 10
-29.6664
 20
-62.9323
 11
-29.8259
 21
-62.9618
  0
LINE
  8
0
 10
-29.8259
 20
-62.9618
 11
-29.9868
 21
-62.983
  0
LINE
  8
0
 10
-29.9868
 20
-62.983
 11
-30.1486
 21
-62.9957
  0
LINE
  8
0
 10
-30.1486
 20
-62.9957
 11
-30.3109
 21
-63
  0
LINE
  8
0
 10
-30.3109
 20
-63
 11
-30.4731
 21
-62.9957
  0
LINE
  8
0
 10
30.1486
 20
-62.9957
 11
29.9868
 21
-62.983
  0
LINE
  8
0
 10
29.9868
 20
-62.983
 11
29.8259
 21
-62.9618
  0
LINE
  8
0
 10
29.8259
 20
-62.9618
 11
29.6664
 21
-62.9323
  0
LINE
  8
0
 10
29.6664
 20
-62.9323
 11
29.5085
 21
-62.8944
  0
LINE
  8
0
 10
29.5085
 20
-62.8944
 11
29.3529
 21
-62.8483
  0
LINE
  8
0
 10
29.3529
 20
-62.8483
 11
29.1999
 21
-62.7941
  0
LINE
  8
0
 10
29.1999
 20
-62.7941
 11
29.05
 21
-62.732
  0
LINE
  8
0
 10
29.05
 20
-62.732
 11
28.9035
 21
-62.6621
  0
LINE
  8
0
 10
28.9035
 20
-62.6621
 11
28.7609
 21
-62.5847
  0
LINE
  8
0
 10
28.7609
 20
-62.5847
 11
28.6225
 21
-62.4999
  0
LINE
  8
0
 10
28.6225
 20
-62.4999
 11
28.4888
 21
-62.4079
  0
LINE
  8
0
 10
28.4888
 20
-62.4079
 11
28.36
 21
-62.3091
  0
LINE
  8
0
 10
28.36
 20
-62.3091
 11
28.2366
 21
-62.2037
  0
LINE
  8
0
 10
28.2366
 20
-62.2037
 11
28.1189
 21
-62.092
  0
LINE
  8
0
 10
28.1189
 20
-62.092
 11
28.0071
 21
-61.9743
  0
LINE
  8
0
 10
28.0071
 20
-61.9743
 11
27.9017
 21
-61.8509
  0
LINE
  8
0
 10
27.9017
 20
-61.8509
 11
27.8029
 21
-61.7221
  0
LINE
  8
0
 10
27.8029
 20
-61.7221
 11
27.711
 21
-61.5884
  0
LINE
  8
0
 10
27.711
 20
-61.5884
 11
27.6262
 21
-61.45
  0
LINE
  8
0
 10
27.6262
 20
-61.45
 11
27.5488
 21
-61.3074
  0
LINE
  8
0
 10
27.5488
 20
-61.3074
 11
27.4789
 21
-61.1609
  0
LINE
  8
0
 10
27.4789
 20
-61.1609
 11
27.4168
 21
-61.0109
  0
LINE
  8
0
 10
27.4168
 20
-61.0109
 11
27.3626
 21
-60.8579
  0
LINE
  8
0
 10
27.3626
 20
-60.8579
 11
27.3165
 21
-60.7023
  0
LINE
  8
0
 10
27.3165
 20
-60.7023
 11
27.2786
 21
-60.5445
  0
LINE
  8
0
 10
27.2786
 20
-60.5445
 11
27.2491
 21
-60.3849
  0
LINE
  8
0
 10
27.2491
 20
-60.3849
 11
27.2279
 21
-60.224
  0
LINE
  8
0
 10
27.2279
 20
-60.224
 11
27.2151
 21
-60.0622
  0
LINE
  8
0
 10
27.2151
 20
-60.0622
 11
27.2109
 21
-59.9
  0
LINE
  8
0
 10
27.2109
 20
-59.9
 11
27.2151
 21
-59.7377
  0
LINE
  8
0
 10
27.2151
 20
-59.7377
 11
27.2279
 21
-59.576
  0
LINE
  8
0
 10
27.2279
 20
-59.576
 11
27.2491
 21
-59.4151
  0
LINE
  8
0
 10
27.2491
 20
-59.4151
 11
27.2786
 21
-59.2555
  0
LINE
  8
0
 10
27.2786
 20
-59.2555
 11
27.3165
 21
-59.0977
  0
LINE
  8
0
 10
27.3165
 20
-59.0977
 11
27.3626
 21
-58.942
  0
LINE
  8
0
 10
27.3626
 20
-58.942
 11
27.4168
 21
-58.789
  0
LINE
  8
0
 10
27.4168
 20
-58.789
 11
27.4789
 21
-58.6391
  0
LINE
  8
0
 10
27.4789
 20
-58.6391
 11
27.5488
 21
-58.4926
  0
LINE
  8
0
 10
27.5488
 20
-58.4926
 11
27.6262
 21
-58.35
  0
LINE
  8
0
 10
27.6262
 20
-58.35
 11
27.711
 21
-58.2116
  0
LINE
  8
0
 10
27.711
 20
-58.2116
 11
27.8029
 21
-58.0779
  0
LINE
  8
0
 10
27.8029
 20
-58.0779
 11
27.9017
 21
-57.9491
  0
LINE
  8
0
 10
27.9017
 20
-57.9491
 11
28.0071
 21
-57.8257
  0
LINE
  8
0
 10
28.0071
 20
-57.8257
 11
28.1189
 21
-57.708
  0
LINE
  8
0
 10
28.1189
 20
-57.708
 11
28.2366
 21
-57.5963
  0
LINE
  8
0
 10
28.2366
 20
-57.5963
 11
28.36
 21
-57.4908
  0
LINE
  8
0
 10
28.36
 20
-57.4908
 11
28.4888
 21
-57.392
  0
LINE
  8
0
 10
28.4888
 20
-57.392
 11
28.6225
 21
-57.3001
  0
LINE
  8
0
 10
28.6225
 20
-57.3001
 11
28.7609
 21
-57.2153
  0
LINE
  8
0
 10
28.7609
 20
-57.2153
 11
28.9035
 21
-57.1379
  0
LINE
  8
0
 10
28.9035
 20
-57.1379
 11
29.05
 21
-57.068
  0
LINE
  8
0
 10
29.05
 20
-57.068
 11
29.1999
 21
-57.0059
  0
LINE
  8
0
 10
29.1999
 20
-57.0059
 11
29.3529
 21
-56.9517
  0
LINE
  8
0
 10
29.3529
 20
-56.9517
 11
29.5085
 21
-56.9056
  0
LINE
  8
0
 10
29.5085
 20
-56.9056
 11
29.6664
 21
-56.8677
  0
LINE
  8
0
 10
29.6664
 20
-56.8677
 11
29.8259
 21
-56.8382
  0
LINE
  8
0
 10
29.8259
 20
-56.8382
 11
29.9868
 21
-56.817
  0
LINE
  8
0
 10
29.9868
 20
-56.817
 11
30.1486
 21
-56.8042
  0
LINE
  8
0
 10
30.1486
 20
-56.8042
 11
30.3109
 21
-56.8
  0
LINE
  8
0
 10
30.3109
 20
-56.8
 11
30.4731
 21
-56.8042
  0
LINE
  8
0
 10
30.4731
 20
-56.8042
 11
30.6349
 21
-56.817
  0
LINE
  8
0
 10
30.6349
 20
-56.817
 11
30.7958
 21
-56.8382
  0
LINE
  8
0
 10
30.7958
 20
-56.8382
 11
30.9554
 21
-56.8677
  0
LINE
  8
0
 10
30.9554
 20
-56.8677
 11
31.1132
 21
-56.9056
  0
LINE
  8
0
 10
31.1132
 20
-56.9056
 11
31.2688
 21
-56.9517
  0
LINE
  8
0
 10
31.2688
 20
-56.9517
 11
31.4218
 21
-57.0059
  0
LINE
  8
0
 10
31.4218
 20
-57.0059
 11
31.5718
 21
-57.068
  0
LINE
  8
0
 10
31.5718
 20
-57.068
 11
31.7182
 21
-57.1379
  0
LINE
  8
0
 10
31.7182
 20
-57.1379
 11
31.8609
 21
-57.2153
  0
LINE
  8
0
 10
31.8609
 20
-57.2153
 11
31.9993
 21
-57.3001
  0
LINE
  8
0
 10
31.9993
 20
-57.3001
 11
32.133
 21
-57.392
  0
LINE
  8
0
 10
32.133
 20
-57.392
 11
32.2618
 21
-57.4908
  0
LINE
  8
0
 10
32.2618
 20
-57.4908
 11
32.3852
 21
-57.5963
  0
LINE
  8
0
 10
32.3852
 20
-57.5963
 11
32.5029
 21
-57.708
  0
LINE
  8
0
 10
32.5029
 20
-57.708
 11
32.6146
 21
-57.8257
  0
LINE
  8
0
 10
32.6146
 20
-57.8257
 11
32.72
 21
-57.9491
  0
LINE
  8
0
 10
32.72
 20
-57.9491
 11
32.8188
 21
-58.0779
  0
LINE
  8
0
 10
32.8188
 20
-58.0779
 11
32.9108
 21
-58.2116
  0
LINE
  8
0
 10
32.9108
 20
-58.2116
 11
32.9956
 21
-58.35
  0
LINE
  8
0
 10
32.9956
 20
-58.35
 11
33.073
 21
-58.4926
  0
LINE
  8
0
 10
33.073
 20
-58.4926
 11
33.1429
 21
-58.6391
  0
LINE
  8
0
 10
33.1429
 20
-58.6391
 11
33.205
 21
-58.789
  0
LINE
  8
0
 10
33.205
 20
-58.789
 11
33.2592
 21
-58.942
  0
LINE
  8
0
 10
33.2592
 20
-58.942
 11
33.3053
 21
-59.0977
  0
LINE
  8
0
 10
33.3053
 20
-59.0977
 11
33.3431
 21
-59.2555
  0
LINE
  8
0
 10
33.3431
 20
-59.2555
 11
33.3727
 21
-59.4151
  0
LINE
  8
0
 10
33.3727
 20
-59.4151
 11
33.3939
 21
-59.576
  0
LINE
  8
0
 10
33.3939
 20
-59.576
 11
33.4066
 21
-59.7377
  0
LINE
  8
0
 10
33.4066
 20
-59.7377
 11
33.4109
 21
-59.9
  0
LINE
  8
0
 10
33.4109
 20
-59.9
 11
33.4066
 21
-60.0622
  0
LINE
  8
0
 10
33.4066
 20
-60.0622
 11
33.3939
 21
-60.224
  0
LINE
  8
0
 10
33.3939
 20
-60.224
 11
33.3727
 21
-60.3849
  0
LINE
  8
0
 10
33.3727
 20
-60.3849
 11
33.3431
 21
-60.5445
  0
LINE
  8
0
 10
33.3431
 20
-60.5445
 11
33.3053
 21
-60.7023
  0
LINE
  8
0
 10
33.3053
 20
-60.7023
 11
33.2592
 21
-60.8579
  0
LINE
  8
0
 10
33.2592
 20
-60.8579
 11
33.205
 21
-61.0109
  0
LINE
  8
0
 10
33.205
 20
-61.0109
 11
33.1429
 21
-61.1609
  0
LINE
  8
0
 10
33.1429
 20
-61.1609
 11
33.073
 21
-61.3074
  0
LINE
  8
0
 10
33.073
 20
-61.3074
 11
32.9956
 21
-61.45
  0
LINE
  8
0
 10
32.9956
 20
-61.45
 11
32.9108
 21
-61.5884
  0
LINE
  8
0
 10
32.9108
 20
-61.5884
 11
32.8188
 21
-61.7221
  0
LINE
  8
0
 10
32.8188
 20
-61.7221
 11
32.72
 21
-61.8509
  0
LINE
  8
0
 10
32.72
 20
-61.8509
 11
32.6146
 21
-61.9743
  0
LINE
  8
0
 10
32.6146
 20
-61.9743
 11
32.5029
 21
-62.092
  0
LINE
  8
0
 10
32.5029
 20
-62.092
 11
32.3852
 21
-62.2037
  0
LINE
  8
0
 10
32.3852
 20
-62.2037
 11
32.2618
 21
-62.3091
  0
LINE
  8
0
 10
32.2618
 20
-62.3091
 11
32.133
 21
-62.4079
  0
LINE
  8
0
 10
32.133
 20
-62.4079
 11
31.9993
 21
-62.4999
  0
LINE
  8
0
 10
31.9993
 20
-62.4999
 11
31.8609
 21
-62.5847
  0
LINE
  8
0
 10
31.8609
 20
-62.5847
 11
31.7182
 21
-62.6621
  0
LINE
  8
0
 10
31.7182
 20
-62.6621
 11
31.5718
 21
-62.732
  0
LINE
  8
0
 10
31.5718
 20
-62.732
 11
31.4218
 21
-62.7941
  0
LINE
  8
0
 10
31.4218
 20
-62.7941
 11
31.2688
 21
-62.8483
  0
LINE
  8
0
 10
31.2688
 20
-62.8483
 11
31.1132
 21
-62.8944
  0
LINE
  8
0
 10
31.1132
 20
-62.8944
 11
30.9554
 21
-62.9323
  0
LINE
  8
0
 10
30.9554
 20
-62.9323
 11
30.7958
 21
-62.9618
  0
LINE
  8
0
 10
30.7958
 20
-62.9618
 11
30.6349
 21
-62.983
  0
LINE
  8
0
 10
30.6349
 20
-62.983
 11
30.4731
 21
-62.9957
  0
LINE
  8
0
 10
30.4731
 20
-62.9957
 11
30.3109
 21
-63
  0
LINE
  8
0
 10
30.3109
 20
-63
 11
30.1486
 21
-62.9957
  0
LINE
  8
0
 10
-0.130829
 20
-68.3966
 11
-0.261307
 21
-68.3863
  0
LINE
  8
0
 10
-0.261307
 20
-68.3863
 11
-0.391083
 21
-68.3692
  0
LINE
  8
0
 10
-0.391083
 20
-68.3692
 11
-0.519775
 21
-68.3454
  0
LINE
  8
0
 10
-0.519775
 20
-68.3454
 11
-0.647034
 21
-68.3148
  0
LINE
  8
0
 10
-0.647034
 20
-68.3148
 11
-0.772537
 21
-68.2776
  0
LINE
  8
0
 10
-0.772537
 20
-68.2776
 11
-0.89592
 21
-68.2339
  0
LINE
  8
0
 10
-0.89592
 20
-68.2339
 11
-1.01683
 21
-68.1839
  0
LINE
  8
0
 10
-1.01683
 20
-68.1839
 11
-1.13496
 21
-68.1275
  0
LINE
  8
0
 10
-1.13496
 20
-68.1275
 11
-1.25
 21
-68.0651
  0
LINE
  8
0
 10
-1.25
 20
-68.0651
 11
-1.36159
 21
-67.9967
  0
LINE
  8
0
 10
-1.36159
 20
-67.9967
 11
-1.46945
 21
-67.9225
  0
LINE
  8
0
 10
-1.46945
 20
-67.9225
 11
-1.57329
 21
-67.8429
  0
LINE
  8
0
 10
-1.57329
 20
-67.8429
 11
-1.67282
 21
-67.7579
  0
LINE
  8
0
 10
-1.67282
 20
-67.7579
 11
-1.76776
 21
-67.6678
  0
LINE
  8
0
 10
-1.76776
 20
-67.6678
 11
-1.85785
 21
-67.5728
  0
LINE
  8
0
 10
-1.85785
 20
-67.5728
 11
-1.94286
 21
-67.4733
  0
LINE
  8
0
 10
-1.94286
 20
-67.4733
 11
-2.02254
 21
-67.3695
  0
LINE
  8
0
 10
-2.02254
 20
-67.3695
 11
-2.09666
 21
-67.2616
  0
LINE
  8
0
 10
-2.09666
 20
-67.2616
 11
-2.16505
 21
-67.15
  0
LINE
  8
0
 10
-2.16505
 20
-67.15
 11
-2.22751
 21
-67.035
  0
LINE
  8
0
 10
-2.22751
 20
-67.035
 11
-2.28386
 21
-66.9168
  0
LINE
  8
0
 10
-2.28386
 20
-66.9168
 11
-2.33394
 21
-66.7959
  0
LINE
  8
0
 10
-2.33394
 20
-66.7959
 11
-2.37764
 21
-66.6725
  0
LINE
  8
0
 10
-2.37764
 20
-66.6725
 11
-2.41481
 21
-66.547
  0
LINE
  8
0
 10
-2.41481
 20
-66.547
 11
-2.44536
 21
-66.4198
  0
LINE
  8
0
 10
-2.44536
 20
-66.4198
 11
-2.46921
 21
-66.2911
  0
LINE
  8
0
 10
-2.46921
 20
-66.2911
 11
-2.4863
 21
-66.1613
  0
LINE
  8
0
 10
-2.4863
 20
-66.1613
 11
-2.49657
 21
-66.0308
  0
LINE
  8
0
 10
-2.49657
 20
-66.0308
 11
-2.5
 21
-65.9
  0
LINE
  8
0
 10
-2.5
 20
-65.9
 11
-2.49657
 21
-65.7691
  0
LINE
  8
0
 10
-2.49657
 20
-65.7691
 11
-2.4863
 21
-65.6387
  0
LINE
  8
0
 10
-2.4863
 20
-65.6387
 11
-2.46921
 21
-65.5089
  0
LINE
  8
0
 10
-2.46921
 20
-65.5089
 11
-2.44536
 21
-65.3802
  0
LINE
  8
0
 10
-2.44536
 20
-65.3802
 11
-2.41481
 21
-65.2529
  0
LINE
  8
0
 10
-2.41481
 20
-65.2529
 11
-2.37764
 21
-65.1275
  0
LINE
  8
0
 10
-2.37764
 20
-65.1275
 11
-2.33394
 21
-65.0041
  0
LINE
  8
0
 10
-2.33394
 20
-65.0041
 11
-2.28386
 21
-64.8831
  0
LINE
  8
0
 10
-2.28386
 20
-64.8831
 11
-2.22751
 21
-64.765
  0
LINE
  8
0
 10
-2.22751
 20
-64.765
 11
-2.16505
 21
-64.65
  0
LINE
  8
0
 10
-2.16505
 20
-64.65
 11
-2.09666
 21
-64.5384
  0
LINE
  8
0
 10
-2.09666
 20
-64.5384
 11
-2.02254
 21
-64.4305
  0
LINE
  8
0
 10
-2.02254
 20
-64.4305
 11
-1.94286
 21
-64.3267
  0
LINE
  8
0
 10
-1.94286
 20
-64.3267
 11
-1.85785
 21
-64.2272
  0
LINE
  8
0
 10
-1.85785
 20
-64.2272
 11
-1.76776
 21
-64.1322
  0
LINE
  8
0
 10
-1.76776
 20
-64.1322
 11
-1.67282
 21
-64.0421
  0
LINE
  8
0
 10
-1.67282
 20
-64.0421
 11
-1.57329
 21
-63.9571
  0
LINE
  8
0
 10
-1.57329
 20
-63.9571
 11
-1.46945
 21
-63.8775
  0
LINE
  8
0
 10
-1.46945
 20
-63.8775
 11
-1.36159
 21
-63.8033
  0
LINE
  8
0
 10
-1.36159
 20
-63.8033
 11
-1.24998
 21
-63.7349
  0
LINE
  8
0
 10
-1.24998
 20
-63.7349
 11
-1.13496
 21
-63.6725
  0
LINE
  8
0
 10
-1.13496
 20
-63.6725
 11
-1.01683
 21
-63.6161
  0
LINE
  8
0
 10
-1.01683
 20
-63.6161
 11
-0.89592
 21
-63.566
  0
LINE
  8
0
 10
-0.89592
 20
-63.566
 11
-0.772537
 21
-63.5224
  0
LINE
  8
0
 10
-0.772537
 20
-63.5224
 11
-0.647034
 21
-63.4852
  0
LINE
  8
0
 10
-0.647034
 20
-63.4852
 11
-0.519775
 21
-63.4546
  0
LINE
  8
0
 10
-0.519775
 20
-63.4546
 11
-0.391083
 21
-63.4308
  0
LINE
  8
0
 10
-0.391083
 20
-63.4308
 11
-0.261307
 21
-63.4137
  0
LINE
  8
0
 10
-0.261307
 20
-63.4137
 11
-0.130829
 21
-63.4034
  0
LINE
  8
0
 10
-0.130829
 20
-63.4034
 11
0
 21
-63.4
  0
LINE
  8
0
 10
0
 20
-63.4
 11
0.130829
 21
-63.4034
  0
LINE
  8
0
 10
0.130829
 20
-63.4034
 11
0.261307
 21
-63.4137
  0
LINE
  8
0
 10
0.261307
 20
-63.4137
 11
0.391083
 21
-63.4308
  0
LINE
  8
0
 10
0.391083
 20
-63.4308
 11
0.519775
 21
-63.4546
  0
LINE
  8
0
 10
0.519775
 20
-63.4546
 11
0.647034
 21
-63.4852
  0
LINE
  8
0
 10
0.647034
 20
-63.4852
 11
0.772537
 21
-63.5224
  0
LINE
  8
0
 10
0.772537
 20
-63.5224
 11
0.89592
 21
-63.566
  0
LINE
  8
0
 10
0.89592
 20
-63.566
 11
1.01683
 21
-63.6161
  0
LINE
  8
0
 10
1.01683
 20
-63.6161
 11
1.13496
 21
-63.6725
  0
LINE
  8
0
 10
1.13496
 20
-63.6725
 11
1.25
 21
-63.7349
  0
LINE
  8
0
 10
1.25
 20
-63.7349
 11
1.36159
 21
-63.8033
  0
LINE
  8
0
 10
1.36159
 20
-63.8033
 11
1.46945
 21
-63.8775
  0
LINE
  8
0
 10
1.46945
 20
-63.8775
 11
1.57329
 21
-63.9571
  0
LINE
  8
0
 10
1.57329
 20
-63.9571
 11
1.67282
 21
-64.0421
  0
LINE
  8
0
 10
1.67282
 20
-64.0421
 11
1.76776
 21
-64.1322
  0
LINE
  8
0
 10
1.76776
 20
-64.1322
 11
1.85785
 21
-64.2272
  0
LINE
  8
0
 10
1.85785
 20
-64.2272
 11
1.94286
 21
-64.3267
  0
LINE
  8
0
 10
1.94286
 20
-64.3267
 11
2.02254
 21
-64.4305
  0
LINE
  8
0
 10
2.02254
 20
-64.4305
 11
2.09666
 21
-64.5384
  0
LINE
  8
0
 10
2.09666
 20
-64.5384
 11
2.16505
 21
-64.65
  0
LINE
  8
0
 10
2.16505
 20
-64.65
 11
2.22751
 21
-64.765
  0
LINE
  8
0
 10
2.22751
 20
-64.765
 11
2.28386
 21
-64.8831
  0
LINE
  8
0
 10
2.28386
 20
-64.8831
 11
2.33394
 21
-65.0041
  0
LINE
  8
0
 10
2.33394
 20
-65.0041
 11
2.37764
 21
-65.1275
  0
LINE
  8
0
 10
2.37764
 20
-65.1275
 11
2.41481
 21
-65.2529
  0
LINE
  8
0
 10
2.41481
 20
-65.2529
 11
2.44536
 21
-65.3802
  0
LINE
  8
0
 10
2.44536
 20
-65.3802
 11
2.46921
 21
-65.5089
  0
LINE
  8
0
 10
2.46921
 20
-65.5089
 11
2.4863
 21
-65.6387
  0
LINE
  8
0
 10
2.4863
 20
-65.6387
 11
2.49657
 21
-65.7691
  0
LINE
  8
0
 10
2.49657
 20
-65.7691
 11
2.5
 21
-65.9
  0
LINE
  8
0
 10
2.5
 20
-65.9
 11
2.49657
 21
-66.0308
  0
LINE
  8
0
 10
2.49657
 20
-66.0308
 11
2.4863
 21
-66.1613
  0
LINE
  8
0
 10
2.4863
 20
-66.1613
 11
2.46921
 21
-66.2911
  0
LINE
  8
0
 10
2.46921
 20
-66.2911
 11
2.44536
 21
-66.4198
  0
LINE
  8
0
 10
2.44536
 20
-66.4198
 11
2.41481
 21
-66.547
  0
LINE
  8
0
 10
2.41481
 20
-66.547
 11
2.37764
 21
-66.6725
  0
LINE
  8
0
 10
2.37764
 20
-66.6725
 11
2.33394
 21
-66.7959
  0
LINE
  8
0
 10
2.33394
 20
-66.7959
 11
2.28386
 21
-66.9168
  0
LINE
  8
0
 10
2.28386
 20
-66.9168
 11
2.22751
 21
-67.035
  0
LINE
  8
0
 10
2.22751
 20
-67.035
 11
2.16505
 21
-67.15
  0
LINE
  8
0
 10
2.16505
 20
-67.15
 11
2.09666
 21
-67.2616
  0
LINE
  8
0
 10
2.09666
 20
-67.2616
 11
2.02254
 21
-67.3695
  0
LINE
  8
0
 10
2.02254
 20
-67.3695
 11
1.94286
 21
-67.4733
  0
LINE
  8
0
 10
1.94286
 20
-67.4733
 11
1.85785
 21
-67.5728
  0
LINE
  8
0
 10
1.85785
 20
-67.5728
 11
1.76776
 21
-67.6678
  0
LINE
  8
0
 10
1.76776
 20
-67.6678
 11
1.67282
 21
-67.7579
  0
LINE
  8
0
 10
1.67282
 20
-67.7579
 11
1.57329
 21
-67.8429
  0
LINE
  8
0
 10
1.57329
 20
-67.8429
 11
1.46945
 21
-67.9225
  0
LINE
  8
0
 10
1.46945
 20
-67.9225
 11
1.36159
 21
-67.9967
  0
LINE
  8
0
 10
1.36159
 20
-67.9967
 11
1.25
 21
-68.0651
  0
LINE
  8
0
 10
1.25
 20
-68.0651
 11
1.13496
 21
-68.1275
  0
LINE
  8
0
 10
1.13496
 20
-68.1275
 11
1.01683
 21
-68.1839
  0
LINE
  8
0
 10
1.01683
 20
-68.1839
 11
0.89592
 21
-68.2339
  0
LINE
  8
0
 10
0.89592
 20
-68.2339
 11
0.772537
 21
-68.2776
  0
LINE
  8
0
 10
0.772537
 20
-68.2776
 11
0.647034
 21
-68.3148
  0
LINE
  8
0
 10
0.647034
 20
-68.3148
 11
0.519775
 21
-68.3454
  0
LINE
  8
0
 10
0.519775
 20
-68.3454
 11
0.391083
 21
-68.3692
  0
LINE
  8
0
 10
0.391083
 20
-68.3692
 11
0.261307
 21
-68.3863
  0
LINE
  8
0
 10
0.261307
 20
-68.3863
 11
0.130829
 21
-68.3966
  0
LINE
  8
0
 10
0.130829
 20
-68.3966
 11
0
 21
-68.4
  0
LINE
  8
0
 10
0
 20
-68.4
 11
-0.130829
 21
-68.3966
  0
LINE
  8
0
 10
-62.7146
 20
-76.0944
 11
-62.9286
 21
-76.0775
  0
LINE
  8
0
 10
-62.9286
 20
-76.0775
 11
-63.1414
 21
-76.0495
  0
LINE
  8
0
 10
-63.1414
 20
-76.0495
 11
-63.3524
 21
-76.0104
  0
LINE
  8
0
 10
-63.3524
 20
-76.0104
 11
-63.5612
 21
-75.9603
  0
LINE
  8
0
 10
-63.5612
 20
-75.9603
 11
-63.767
 21
-75.8993
  0
LINE
  8
0
 10
-63.767
 20
-75.8993
 11
-63.9693
 21
-75.8277
  0
LINE
  8
0
 10
-63.9693
 20
-75.8277
 11
-64.1676
 21
-75.7455
  0
LINE
  8
0
 10
-64.1676
 20
-75.7455
 11
-64.3614
 21
-75.6531
  0
LINE
  8
0
 10
-64.3614
 20
-75.6531
 11
-64.55
 21
-75.5507
  0
LINE
  8
0
 10
-64.55
 20
-75.5507
 11
-64.733
 21
-75.4386
  0
LINE
  8
0
 10
-64.733
 20
-75.4386
 11
-64.9099
 21
-75.317
  0
LINE
  8
0
 10
-64.9099
 20
-75.317
 11
-65.0802
 21
-75.1863
  0
LINE
  8
0
 10
-65.0802
 20
-75.1863
 11
-65.2434
 21
-75.0469
  0
LINE
  8
0
 10
-65.2434
 20
-75.0469
 11
-65.3991
 21
-74.8991
  0
LINE
  8
0
 10
-65.3991
 20
-74.8991
 11
-65.5469
 21
-74.7434
  0
LINE
  8
0
 10
-65.5469
 20
-74.7434
 11
-65.6863
 21
-74.5802
  0
LINE
  8
0
 10
-65.6863
 20
-74.5802
 11
-65.817
 21
-74.4099
  0
LINE
  8
0
 10
-65.817
 20
-74.4099
 11
-65.9386
 21
-74.233
  0
LINE
  8
0
 10
-65.9386
 20
-74.233
 11
-66.0507
 21
-74.05
  0
LINE
  8
0
 10
-66.0507
 20
-74.05
 11
-66.1531
 21
-73.8614
  0
LINE
  8
0
 10
-66.1531
 20
-73.8614
 11
-66.2455
 21
-73.6676
  0
LINE
  8
0
 10
-66.2455
 20
-73.6676
 11
-66.3277
 21
-73.4693
  0
LINE
  8
0
 10
-66.3277
 20
-73.4693
 11
-66.3993
 21
-73.267
  0
LINE
  8
0
 10
-66.3993
 20
-73.267
 11
-66.4603
 21
-73.0612
  0
LINE
  8
0
 10
-66.4603
 20
-73.0612
 11
-66.5104
 21
-72.8524
  0
LINE
  8
0
 10
-66.5104
 20
-72.8524
 11
-66.5495
 21
-72.6414
  0
LINE
  8
0
 10
-66.5495
 20
-72.6414
 11
-66.5775
 21
-72.4286
  0
LINE
  8
0
 10
-66.5775
 20
-72.4286
 11
-66.5944
 21
-72.2146
  0
LINE
  8
0
 10
-66.5944
 20
-72.2146
 11
-66.6
 21
-72
  0
LINE
  8
0
 10
-66.6
 20
-72
 11
-66.5944
 21
-71.7854
  0
LINE
  8
0
 10
-66.5944
 20
-71.7854
 11
-66.5775
 21
-71.5714
  0
LINE
  8
0
 10
-66.5775
 20
-71.5714
 11
-66.5495
 21
-71.3586
  0
LINE
  8
0
 10
-66.5495
 20
-71.3586
 11
-66.5104
 21
-71.1476
  0
LINE
  8
0
 10
-66.5104
 20
-71.1476
 11
-66.4603
 21
-70.9388
  0
LINE
  8
0
 10
-66.4603
 20
-70.9388
 11
-66.3993
 21
-70.733
  0
LINE
  8
0
 10
-66.3993
 20
-70.733
 11
-66.3277
 21
-70.5307
  0
LINE
  8
0
 10
-66.3277
 20
-70.5307
 11
-66.2455
 21
-70.3324
  0
LINE
  8
0
 10
-66.2455
 20
-70.3324
 11
-66.1531
 21
-70.1386
  0
LINE
  8
0
 10
-66.1531
 20
-70.1386
 11
-66.0507
 21
-69.95
  0
LINE
  8
0
 10
-66.0507
 20
-69.95
 11
-65.9386
 21
-69.767
  0
LINE
  8
0
 10
-65.9386
 20
-69.767
 11
-65.817
 21
-69.5901
  0
LINE
  8
0
 10
-65.817
 20
-69.5901
 11
-65.6863
 21
-69.4198
  0
LINE
  8
0
 10
-65.6863
 20
-69.4198
 11
-65.5469
 21
-69.2566
  0
LINE
  8
0
 10
-65.5469
 20
-69.2566
 11
-65.3991
 21
-69.1009
  0
LINE
  8
0
 10
-65.3991
 20
-69.1009
 11
-65.2434
 21
-68.9531
  0
LINE
  8
0
 10
-65.2434
 20
-68.9531
 11
-65.0802
 21
-68.8137
  0
LINE
  8
0
 10
-65.0802
 20
-68.8137
 11
-64.9099
 21
-68.683
  0
LINE
  8
0
 10
-64.9099
 20
-68.683
 11
-64.733
 21
-68.5614
  0
LINE
  8
0
 10
-64.733
 20
-68.5614
 11
-64.55
 21
-68.4493
  0
LINE
  8
0
 10
-64.55
 20
-68.4493
 11
-64.3614
 21
-68.3469
  0
LINE
  8
0
 10
-64.3614
 20
-68.3469
 11
-64.1676
 21
-68.2545
  0
LINE
  8
0
 10
-64.1676
 20
-68.2545
 11
-63.9693
 21
-68.1723
  0
LINE
  8
0
 10
-63.9693
 20
-68.1723
 11
-63.767
 21
-68.1007
  0
LINE
  8
0
 10
-63.767
 20
-68.1007
 11
-63.5612
 21
-68.0397
  0
LINE
  8
0
 10
-63.5612
 20
-68.0397
 11
-63.3524
 21
-67.9896
  0
LINE
  8
0
 10
-63.3524
 20
-67.9896
 11
-63.1414
 21
-67.9505
  0
LINE
  8
0
 10
-63.1414
 20
-67.9505
 11
-62.9286
 21
-67.9225
  0
LINE
  8
0
 10
-62.9286
 20
-67.9225
 11
-62.7146
 21
-67.9056
  0
LINE
  8
0
 10
-62.7146
 20
-67.9056
 11
-62.5
 21
-67.9
  0
LINE
  8
0
 10
-62.5
 20
-67.9
 11
-62.2854
 21
-67.9056
  0
LINE
  8
0
 10
-62.2854
 20
-67.9056
 11
-62.0714
 21
-67.9225
  0
LINE
  8
0
 10
-62.0714
 20
-67.9225
 11
-61.8586
 21
-67.9505
  0
LINE
  8
0
 10
-61.8586
 20
-67.9505
 11
-61.6476
 21
-67.9896
  0
LINE
  8
0
 10
-61.6476
 20
-67.9896
 11
-61.4388
 21
-68.0397
  0
LINE
  8
0
 10
-61.4388
 20
-68.0397
 11
-61.233
 21
-68.1007
  0
LINE
  8
0
 10
-61.233
 20
-68.1007
 11
-61.0307
 21
-68.1723
  0
LINE
  8
0
 10
-61.0307
 20
-68.1723
 11
-60.8324
 21
-68.2545
  0
LINE
  8
0
 10
-60.8324
 20
-68.2545
 11
-60.6386
 21
-68.3469
  0
LINE
  8
0
 10
-60.6386
 20
-68.3469
 11
-60.45
 21
-68.4493
  0
LINE
  8
0
 10
-60.45
 20
-68.4493
 11
-60.267
 21
-68.5614
  0
LINE
  8
0
 10
-60.267
 20
-68.5614
 11
-60.0901
 21
-68.683
  0
LINE
  8
0
 10
-60.0901
 20
-68.683
 11
-59.9198
 21
-68.8137
  0
LINE
  8
0
 10
-59.9198
 20
-68.8137
 11
-59.7566
 21
-68.9531
  0
LINE
  8
0
 10
-59.7566
 20
-68.9531
 11
-59.6009
 21
-69.1009
  0
LINE
  8
0
 10
-59.6009
 20
-69.1009
 11
-59.4531
 21
-69.2566
  0
LINE
  8
0
 10
-59.4531
 20
-69.2566
 11
-59.3137
 21
-69.4198
  0
LINE
  8
0
 10
-59.3137
 20
-69.4198
 11
-59.183
 21
-69.5901
  0
LINE
  8
0
 10
-59.183
 20
-69.5901
 11
-59.0614
 21
-69.767
  0
LINE
  8
0
 10
-59.0614
 20
-69.767
 11
-58.9493
 21
-69.95
  0
LINE
  8
0
 10
-58.9493
 20
-69.95
 11
-58.8469
 21
-70.1386
  0
LINE
  8
0
 10
-58.8469
 20
-70.1386
 11
-58.7545
 21
-70.3324
  0
LINE
  8
0
 10
-58.7545
 20
-70.3324
 11
-58.6723
 21
-70.5307
  0
LINE
  8
0
 10
-58.6723
 20
-70.5307
 11
-58.6007
 21
-70.733
  0
LINE
  8
0
 10
-58.6007
 20
-70.733
 11
-58.5397
 21
-70.9388
  0
LINE
  8
0
 10
-58.5397
 20
-70.9388
 11
-58.4896
 21
-71.1476
  0
LINE
  8
0
 10
-58.4896
 20
-71.1476
 11
-58.4505
 21
-71.3586
  0
LINE
  8
0
 10
-58.4505
 20
-71.3586
 11
-58.4225
 21
-71.5714
  0
LINE
  8
0
 10
-58.4225
 20
-71.5714
 11
-58.4056
 21
-71.7854
  0
LINE
  8
0
 10
-58.4056
 20
-71.7854
 11
-58.4
 21
-72
  0
LINE
  8
0
 10
-58.4
 20
-72
 11
-58.4056
 21
-72.2146
  0
LINE
  8
0
 10
-58.4056
 20
-72.2146
 11
-58.4225
 21
-72.4286
  0
LINE
  8
0
 10
-58.4225
 20
-72.4286
 11
-58.4505
 21
-72.6414
  0
LINE
  8
0
 10
-58.4505
 20
-72.6414
 11
-58.4896
 21
-72.8524
  0
LINE
  8
0
 10
-58.4896
 20
-72.8524
 11
-58.5397
 21
-73.0612
  0
LINE
  8
0
 10
-58.5397
 20
-73.0612
 11
-58.6007
 21
-73.267
  0
LINE
  8
0
 10
-58.6007
 20
-73.267
 11
-58.6723
 21
-73.4693
  0
LINE
  8
0
 10
-58.6723
 20
-73.4693
 11
-58.7545
 21
-73.6676
  0
LINE
  8
0
 10
-58.7545
 20
-73.6676
 11
-58.8469
 21
-73.8614
  0
LINE
  8
0
 10
-58.8469
 20
-73.8614
 11
-58.9493
 21
-74.05
  0
LINE
  8
0
 10
-58.9493
 20
-74.05
 11
-59.0614
 21
-74.233
  0
LINE
  8
0
 10
-59.0614
 20
-74.233
 11
-59.183
 21
-74.4099
  0
LINE
  8
0
 10
-59.183
 20
-74.4099
 11
-59.3137
 21
-74.5802
  0
LINE
  8
0
 10
-59.3137
 20
-74.5802
 11
-59.4531
 21
-74.7434
  0
LINE
  8
0
 10
-59.4531
 20
-74.7434
 11
-59.6009
 21
-74.8991
  0
LINE
  8
0
 10
-59.6009
 20
-74.8991
 11
-59.7566
 21
-75.0469
  0
LINE
  8
0
 10
-59.7566
 20
-75.0469
 11
-59.9198
 21
-75.1863
  0
LINE
  8
0
 10
-59.9198
 20
-75.1863
 11
-60.0901
 21
-75.317
  0
LINE
  8
0
 10
-60.0901
 20
-75.317
 11
-60.267
 21
-75.4386
  0
LINE
  8
0
 10
-60.267
 20
-75.4386
 11
-60.45
 21
-75.5507
  0
LINE
  8
0
 10
-60.45
 20
-75.5507
 11
-60.6386
 21
-75.6531
  0
LINE
  8
0
 10
-60.6386
 20
-75.6531
 11
-60.8324
 21
-75.7455
  0
LINE
  8
0
 10
-60.8324
 20
-75.7455
 11
-61.0307
 21
-75.8277
  0
LINE
  8
0
 10
-61.0307
 20
-75.8277
 11
-61.233
 21
-75.8993
  0
LINE
  8
0
 10
-61.233
 20
-75.8993
 11
-61.4388
 21
-75.9603
  0
LINE
  8
0
 10
-61.4388
 20
-75.9603
 11
-61.6476
 21
-76.0104
  0
LINE
  8
0
 10
-61.6476
 20
-76.0104
 11
-61.8586
 21
-76.0495
  0
LINE
  8
0
 10
-61.8586
 20
-76.0495
 11
-62.0714
 21
-76.0775
  0
LINE
  8
0
 10
-62.0714
 20
-76.0775
 11
-62.2854
 21
-76.0944
  0
LINE
  8
0
 10
-62.2854
 20
-76.0944
 11
-62.5
 21
-76.1
  0
LINE
  8
0
 10
-62.5
 20
-76.1
 11
-62.7146
 21
-76.0944
  0
LINE
  8
0
 10
62.2854
 20
-76.0944
 11
62.0714
 21
-76.0775
  0
LINE
  8
0
 10
62.0714
 20
-76.0775
 11
61.8586
 21
-76.0495
  0
LINE
  8
0
 10
61.8586
 20
-76.0495
 11
61.6476
 21
-76.0104
  0
LINE
  8
0
 10
61.6476
 20
-76.0104
 11
61.4388
 21
-75.9603
  0
LINE
  8
0
 10
61.4388
 20
-75.9603
 11
61.233
 21
-75.8993
  0
LINE
  8
0
 10
61.233
 20
-75.8993
 11
61.0307
 21
-75.8277
  0
LINE
  8
0
 10
61.0307
 20
-75.8277
 11
60.8324
 21
-75.7455
  0
LINE
  8
0
 10
60.8324
 20
-75.7455
 11
60.6386
 21
-75.6531
  0
LINE
  8
0
 10
60.6386
 20
-75.6531
 11
60.45
 21
-75.5507
  0
LINE
  8
0
 10
60.45
 20
-75.5507
 11
60.267
 21
-75.4386
  0
LINE
  8
0
 10
60.267
 20
-75.4386
 11
60.0901
 21
-75.317
  0
LINE
  8
0
 10
60.0901
 20
-75.317
 11
59.9198
 21
-75.1863
  0
LINE
  8
0
 10
59.9198
 20
-75.1863
 11
59.7566
 21
-75.0469
  0
LINE
  8
0
 10
59.7566
 20
-75.0469
 11
59.6009
 21
-74.8991
  0
LINE
  8
0
 10
59.6009
 20
-74.8991
 11
59.4531
 21
-74.7434
  0
LINE
  8
0
 10
59.4531
 20
-74.7434
 11
59.3137
 21
-74.5802
  0
LINE
  8
0
 10
59.3137
 20
-74.5802
 11
59.183
 21
-74.4099
  0
LINE
  8
0
 10
59.183
 20
-74.4099
 11
59.0614
 21
-74.233
  0
LINE
  8
0
 10
59.0614
 20
-74.233
 11
58.9493
 21
-74.05
  0
LINE
  8
0
 10
58.9493
 20
-74.05
 11
58.8469
 21
-73.8614
  0
LINE
  8
0
 10
58.8469
 20
-73.8614
 11
58.7545
 21
-73.6676
  0
LINE
  8
0
 10
58.7545
 20
-73.6676
 11
58.6723
 21
-73.4693
  0
LINE
  8
0
 10
58.6723
 20
-73.4693
 11
58.6007
 21
-73.267
  0
LINE
  8
0
 10
58.6007
 20
-73.267
 11
58.5397
 21
-73.0612
  0
LINE
  8
0
 10
58.5397
 20
-73.0612
 11
58.4896
 21
-72.8524
  0
LINE
  8
0
 10
58.4896
 20
-72.8524
 11
58.4505
 21
-72.6414
  0
LINE
  8
0
 10
58.4505
 20
-72.6414
 11
58.4225
 21
-72.4286
  0
LINE
  8
0
 10
58.4225
 20
-72.4286
 11
58.4056
 21
-72.2146
  0
LINE
  8
0
 10
58.4056
 20
-72.2146
 11
58.4
 21
-72
  0
LINE
  8
0
 10
58.4
 20
-72
 11
58.4056
 21
-71.7854
  0
LINE
  8
0
 10
58.4056
 20
-71.7854
 11
58.4225
 21
-71.5714
  0
LINE
  8
0
 10
58.4225
 20
-71.5714
 11
58.4505
 21
-71.3586
  0
LINE
  8
0
 10
58.4505
 20
-71.3586
 11
58.4896
 21
-71.1476
  0
LINE
  8
0
 10
58.4896
 20
-71.1476
 11
58.5397
 21
-70.9388
  0
LINE
  8
0
 10
58.5397
 20
-70.9388
 11
58.6007
 21
-70.733
  0
LINE
  8
0
 10
58.6007
 20
-70.733
 11
58.6723
 21
-70.5307
  0
LINE
  8
0
 10
58.6723
 20
-70.5307
 11
58.7545
 21
-70.3324
  0
LINE
  8
0
 10
58.7545
 20
-70.3324
 11
58.8469
 21
-70.1386
  0
LINE
  8
0
 10
58.8469
 20
-70.1386
 11
58.9493
 21
-69.95
  0
LINE
  8
0
 10
58.9493
 20
-69.95
 11
59.0614
 21
-69.767
  0
LINE
  8
0
 10
59.0614
 20
-69.767
 11
59.183
 21
-69.5901
  0
LINE
  8
0
 10
59.183
 20
-69.5901
 11
59.3137
 21
-69.4198
  0
LINE
  8
0
 10
59.3137
 20
-69.4198
 11
59.4531
 21
-69.2566
  0
LINE
  8
0
 10
59.4531
 20
-69.2566
 11
59.6009
 21
-69.1009
  0
LINE
  8
0
 10
59.6009
 20
-69.1009
 11
59.7566
 21
-68.9531
  0
LINE
  8
0
 10
59.7566
 20
-68.9531
 11
59.9198
 21
-68.8137
  0
LINE
  8
0
 10
59.9198
 20
-68.8137
 11
60.0901
 21
-68.683
  0
LINE
  8
0
 10
60.0901
 20
-68.683
 11
60.267
 21
-68.5614
  0
LINE
  8
0
 10
60.267
 20
-68.5614
 11
60.45
 21
-68.4493
  0
LINE
  8
0
 10
60.45
 20
-68.4493
 11
60.6386
 21
-68.3469
  0
LINE
  8
0
 10
60.6386
 20
-68.3469
 11
60.8324
 21
-68.2545
  0
LINE
  8
0
 10
60.8324
 20
-68.2545
 11
61.0307
 21
-68.1723
  0
LINE
  8
0
 10
61.0307
 20
-68.1723
 11
61.233
 21
-68.1007
  0
LINE
  8
0
 10
61.233
 20
-68.1007
 11
61.4388
 21
-68.0397
  0
LINE
  8
0
 10
61.4388
 20
-68.0397
 11
61.6476
 21
-67.9896
  0
LINE
  8
0
 10
61.6476
 20
-67.9896
 11
61.8586
 21
-67.9505
  0
LINE
  8
0
 10
61.8586
 20
-67.9505
 11
62.0714
 21
-67.9225
  0
LINE
  8
0
 10
62.0714
 20
-67.9225
 11
62.2854
 21
-67.9056
  0
LINE
  8
0
 10
62.2854
 20
-67.9056
 11
62.5
 21
-67.9
  0
LINE
  8
0
 10
62.5
 20
-67.9
 11
62.7146
 21
-67.9056
  0
LINE
  8
0
 10
62.7146
 20
-67.9056
 11
62.9286
 21
-67.9225
  0
LINE
  8
0
 10
62.9286
 20
-67.9225
 11
63.1414
 21
-67.9505
  0
LINE
  8
0
 10
63.1414
 20
-67.9505
 11
63.3524
 21
-67.9896
  0
LINE
  8
0
 10
63.3524
 20
-67.9896
 11
63.5612
 21
-68.0397
  0
LINE
  8
0
 10
63.5612
 20
-68.0397
 11
63.767
 21
-68.1007
  0
LINE
  8
0
 10
63.767
 20
-68.1007
 11
63.9693
 21
-68.1723
  0
LINE
  8
0
 10
63.9693
 20
-68.1723
 11
64.1676
 21
-68.2545
  0
LINE
  8
0
 10
64.1676
 20
-68.2545
 11
64.3614
 21
-68.3469
  0
LINE
  8
0
 10
64.3614
 20
-68.3469
 11
64.55
 21
-68.4493
  0
LINE
  8
0
 10
64.55
 20
-68.4493
 11
64.733
 21
-68.5614
  0
LINE
  8
0
 10
64.733
 20
-68.5614
 11
64.9099
 21
-68.683
  0
LINE
  8
0
 10
64.9099
 20
-68.683
 11
65.0802
 21
-68.8137
  0
LINE
  8
0
 10
65.0802
 20
-68.8137
 11
65.2434
 21
-68.9531
  0
LINE
  8
0
 10
65.2434
 20
-68.9531
 11
65.3991
 21
-69.1009
  0
LINE
  8
0
 10
65.3991
 20
-69.1009
 11
65.5469
 21
-69.2566
  0
LINE
  8
0
 10
65.5469
 20
-69.2566
 11
65.6863
 21
-69.4198
  0
LINE
  8
0
 10
65.6863
 20
-69.4198
 11
65.817
 21
-69.5901
  0
LINE
  8
0
 10
65.817
 20
-69.5901
 11
65.9386
 21
-69.767
  0
LINE
  8
0
 10
65.9386
 20
-69.767
 11
66.0507
 21
-69.95
  0
LINE
  8
0
 10
66.0507
 20
-69.95
 11
66.1531
 21
-70.1386
  0
LINE
  8
0
 10
66.1531
 20
-70.1386
 11
66.2455
 21
-70.3324
  0
LINE
  8
0
 10
66.2455
 20
-70.3324
 11
66.3277
 21
-70.5307
  0
LINE
  8
0
 10
66.3277
 20
-70.5307
 11
66.3993
 21
-70.733
  0
LINE
  8
0
 10
66.3993
 20
-70.733
 11
66.4603
 21
-70.9388
  0
LINE
  8
0
 10
66.4603
 20
-70.9388
 11
66.5104
 21
-71.1476
  0
LINE
  8
0
 10
66.5104
 20
-71.1476
 11
66.5495
 21
-71.3586
  0
LINE
  8
0
 10
66.5495
 20
-71.3586
 11
66.5775
 21
-71.5714
  0
LINE
  8
0
 10
66.5775
 20
-71.5714
 11
66.5944
 21
-71.7854
  0
LINE
  8
0
 10
66.5944
 20
-71.7854
 11
66.6
 21
-72
  0
LINE
  8
0
 10
66.6
 20
-72
 11
66.5944
 21
-72.2146
  0
LINE
  8
0
 10
66.5944
 20
-72.2146
 11
66.5775
 21
-72.4286
  0
LINE
  8
0
 10
66.5775
 20
-72.4286
 11
66.5495
 21
-72.6414
  0
LINE
  8
0
 10
66.5495
 20
-72.6414
 11
66.5104
 21
-72.8524
  0
LINE
  8
0
 10
66.5104
 20
-72.8524
 11
66.4603
 21
-73.0612
  0
LINE
  8
0
 10
66.4603
 20
-73.0612
 11
66.3993
 21
-73.267
  0
LINE
  8
0
 10
66.3993
 20
-73.267
 11
66.3277
 21
-73.4693
  0
LINE
  8
0
 10
66.3277
 20
-73.4693
 11
66.2455
 21
-73.6676
  0
LINE
  8
0
 10
66.2455
 20
-73.6676
 11
66.1531
 21
-73.8614
  0
LINE
  8
0
 10
66.1531
 20
-73.8614
 11
66.0507
 21
-74.05
  0
LINE
  8
0
 10
66.0507
 20
-74.05
 11
65.9386
 21
-74.233
  0
LINE
  8
0
 10
65.9386
 20
-74.233
 11
65.817
 21
-74.4099
  0
LINE
  8
0
 10
65.817
 20
-74.4099
 11
65.6863
 21
-74.5802
  0
LINE
  8
0
 10
65.6863
 20
-74.5802
 11
65.5469
 21
-74.7434
  0
LINE
  8
0
 10
65.5469
 20
-74.7434
 11
65.3991
 21
-74.8991
  0
LINE
  8
0
 10
65.3991
 20
-74.8991
 11
65.2434
 21
-75.0469
  0
LINE
  8
0
 10
65.2434
 20
-75.0469
 11
65.0802
 21
-75.1863
  0
LINE
  8
0
 10
65.0802
 20
-75.1863
 11
64.9099
 21
-75.317
  0
LINE
  8
0
 10
64.9099
 20
-75.317
 11
64.733
 21
-75.4386
  0
LINE
  8
0
 10
64.733
 20
-75.4386
 11
64.55
 21
-75.5507
  0
LINE
  8
0
 10
64.55
 20
-75.5507
 11
64.3614
 21
-75.6531
  0
LINE
  8
0
 10
64.3614
 20
-75.6531
 11
64.1676
 21
-75.7455
  0
LINE
  8
0
 10
64.1676
 20
-75.7455
 11
63.9693
 21
-75.8277
  0
LINE
  8
0
 10
63.9693
 20
-75.8277
 11
63.767
 21
-75.8993
  0
LINE
  8
0
 10
63.767
 20
-75.8993
 11
63.5612
 21
-75.9603
  0
LINE
  8
0
 10
63.5612
 20
-75.9603
 11
63.3524
 21
-76.0104
  0
LINE
  8
0
 10
63.3524
 20
-76.0104
 11
63.1414
 21
-76.0495
  0
LINE
  8
0
 10
63.1414
 20
-76.0495
 11
62.9286
 21
-76.0775
  0
LINE
  8
0
 10
62.9286
 20
-76.0775
 11
62.7146
 21
-76.0944
  0
LINE
  8
0
 10
62.7146
 20
-76.0944
 11
62.5
 21
-76.1
  0
LINE
  8
0
 10
62.5
 20
-76.1
 11
62.2854
 21
-76.0944
  0
ENDSEC
  0
SECTION
  2
OBJECTS
  0
DICTIONARY
  0
ENDSEC
  0
EOF
