<?xml version="1.0" standalone="no"?>
<!DOCTYPE svg PUBLIC "-//W3C//DTD SVG 1.1//EN" "http://www.w3.org/Graphics/SVG/1.1/DTD/svg11.dtd">
<svg width="146" height="144" viewBox="-73 -61 146 144" xmlns="http://www.w3.org/2000/svg" version="1.1">
<title>OpenSCAD Model</title>
<path d="
M -73,72 L -72.9744,72.7324 L -72.8978,73.4613 L -72.7705,74.1831 L -72.5932,74.8942 L -72.3668,75.5912
 L -72.0922,76.2707 L -71.7709,76.9295 L -71.4045,77.5642 L -70.9947,78.1717 L -70.5435,78.7493 L -70.0531,79.2939
 L -69.5259,79.803 L -68.9644,80.2741 L -68.3715,80.7049 L -67.75,81.0933 L -67.1029,81.4373 L -66.4334,81.7354
 L -65.7447,81.9861 L -65.0402,82.1881 L -64.3233,82.3405 L -63.5975,82.4425 L -62.8664,82.4936 L 62.8664,82.4936
 L 63.5975,82.4425 L 64.3233,82.3405 L 65.0402,82.1881 L 65.7447,81.9861 L 66.4334,81.7354 L 67.1029,81.4373
 L 67.75,81.0933 L 68.3715,80.7049 L 68.9644,80.2741 L 69.5259,79.803 L 70.0531,79.2939 L 70.5435,78.7493
 L 70.9947,78.1717 L 71.4045,77.5642 L 71.7709,76.9295 L 72.0922,76.2707 L 72.3668,75.5912 L 72.5932,74.8942
 L 72.7705,74.1831 L 72.8978,73.4613 L 72.9744,72.7324 L 73,72 L 72.9744,71.2676 L 72.8978,70.5387
 L 72.7705,69.8169 L 72.5932,69.1058 L 72.3668,68.4088 L 72.0922,67.7293 L 71.7709,67.0705 L 71.4045,66.4358
 L 70.9947,65.8283 L 70.5435,65.2507 L 70.0531,64.7061 L 69.5259,64.197 L 68.9644,63.7259 L 68.3715,63.2951
 L 67.75,62.9067 L 67.1029,62.5627 L 66.4334,62.2646 L 65.7447,62.0139 L 65.0402,61.8119 L 64.3233,61.6595
 L 54.4304,60.189 L 46.7921,51.0676 L 46.7,50.9653 L 46.7,1.04437 L 67.1278,-50.4875 L 67.2831,-50.9654
 L 67.4046,-51.453 L 67.4919,-51.948 L 67.5444,-52.4478 L 67.562,-52.95 L 67.562,-52.95 L 67.562,-52.95
 L 67.5444,-53.4522 L 67.4919,-53.952 L 67.4046,-54.447 L 67.2831,-54.9346 L 67.1278,-55.4125 L 66.9395,-55.8785
 L 66.7192,-56.3302 L 66.4679,-56.7654 L 66.1869,-57.1821 L 65.8775,-57.5781 L 65.5412,-57.9515 L 65.1797,-58.3006
 L 64.7947,-58.6237 L 64.3882,-58.9191 L 63.962,-59.1854 L 63.5182,-59.4213 L 63.0591,-59.6257 L 62.5869,-59.7976
 L 62.1038,-59.9361 L 61.6122,-60.0406 L 61.1146,-60.1106 L 60.6132,-60.1456 L 60.1107,-60.1456 L 59.6094,-60.1106
 L 59.1117,-60.0406 L 58.6201,-59.9361 L 58.137,-59.7976 L 57.6648,-59.6257 L 57.2057,-59.4213 L 56.762,-59.1854
 L 56.3358,-58.9191 L 55.9292,-58.6237 L 55.5442,-58.3006 L 55.1827,-57.9515 L 54.8464,-57.5781 L 54.8464,-57.578
 L 42.6443,-42.1215 L 41.8207,-41.3534 L 40.1742,-39.9222 L 38.4788,-38.5493 L 36.7366,-37.2364 L 34.9496,-35.9852
 L 33.12,-34.797 L 31.25,-33.6734 L 29.342,-32.6158 L 27.3982,-31.6254 L 25.421,-30.7034 L 23.4129,-29.851
 L 21.3763,-29.0692 L 19.3136,-28.359 L 17.2273,-27.7211 L 15.1201,-27.1565 L 12.9945,-26.6658 L 10.853,-26.2495
 L 8.69832,-25.9082 L 8.03455,-25.8267 L 7.98885,-25.8434 L 7.77415,-25.9049 L 7.55567,-25.9514 L 7.33449,-25.9825
 L 7.11168,-25.998 L -7.11168,-25.998 L -7.33449,-25.9825 L -7.55567,-25.9514 L -7.77415,-25.9049 L -7.98885,-25.8434
 L -8.03455,-25.8267 L -8.69832,-25.9082 L -10.853,-26.2495 L -12.9945,-26.6658 L -15.1201,-27.1565 L -17.2273,-27.7211
 L -19.3136,-28.359 L -21.3763,-29.0692 L -23.4129,-29.851 L -25.421,-30.7034 L -27.3982,-31.6254 L -29.342,-32.6158
 L -31.25,-33.6734 L -33.12,-34.797 L -34.9496,-35.9852 L -36.7366,-37.2364 L -38.4788,-38.5493 L -40.1742,-39.9222
 L -41.8207,-41.3534 L -42.6443,-42.1215 L -54.8464,-57.578 L -54.8464,-57.5781 L -55.1827,-57.9515 L -55.5442,-58.3006
 L -55.9292,-58.6237 L -56.3358,-58.9191 L -56.762,-59.1854 L -57.2057,-59.4213 L -57.6648,-59.6257 L -58.137,-59.7976
 L -58.6201,-59.9361 L -59.1117,-60.0406 L -59.6094,-60.1106 L -60.1107,-60.1456 L -60.6132,-60.1456 L -61.1146,-60.1106
 L -61.6122,-60.0406 L -62.1038,-59.9361 L -62.5869,-59.7976 L -63.0591,-59.6257 L -63.5182,-59.4213 L -63.962,-59.1854
 L -64.3882,-58.9191 L -64.7947,-58.6237 L -65.1797,-58.3006 L -65.5412,-57.9515 L -65.8775,-57.5781 L -66.1869,-57.1821
 L -66.4679,-56.7654 L -66.7192,-56.3302 L -66.9395,-55.8785 L -67.1278,-55.4125 L -67.2831,-54.9346 L -67.4046,-54.447
 L -67.4919,-53.952 L -67.5444,-53.4522 L -67.562,-52.95 L -67.562,-52.95 L -67.562,-52.95 L -67.5444,-52.4478
 L -67.4919,-51.948 L -67.4046,-51.453 L -67.2831,-50.9654 L -67.1278,-50.4875 L -46.7,1.04437 L -46.7,50.9653
 L -46.7921,51.0676 L -54.4304,60.189 L -64.3233,61.6595 L -65.0402,61.8119 L -65.7447,62.0139 L -66.4334,62.2646
 L -67.1029,62.5627 L -67.75,62.9067 L -68.3715,63.2951 L -68.9644,63.7259 L -69.5259,64.197 L -70.0531,64.7061
 L -70.5435,65.2507 L -70.9947,65.8283 L -71.4045,66.4358 L -71.7709,67.0705 L -72.0922,67.7293 L -72.3668,68.4088
 L -72.5932,69.1058 L -72.7705,69.8169 L -72.8978,70.5387 L -72.9744,71.2676 z
M -66.6,72 L -66.59,71.714 L -66.5601,71.4294 L -66.5104,71.1476 L -66.4412,70.8699 L -66.3527,70.5977
 L -66.2455,70.3324 L -66.1201,70.0752 L -65.977,69.8273 L -65.817,69.5901 L -65.6408,69.3646 L -65.4493,69.1519
 L -65.2434,68.9531 L -65.0242,68.7692 L -64.7927,68.6009 L -64.55,68.4493 L -64.2973,68.3149 L -64.0359,68.1985
 L -63.767,68.1007 L -63.4919,68.0218 L -63.212,67.9623 L -62.9286,67.9225 L -62.6431,67.9025 L -62.3569,67.9025
 L -62.0714,67.9225 L -61.788,67.9623 L -61.5081,68.0218 L -61.233,68.1007 L -60.9641,68.1985 L -60.7027,68.3149
 L -60.45,68.4493 L -60.2073,68.6009 L -59.9758,68.7692 L -59.7566,68.9531 L -59.5507,69.1519 L -59.3592,69.3646
 L -59.183,69.5901 L -59.023,69.8273 L -58.8799,70.0752 L -58.7545,70.3324 L -58.6473,70.5977 L -58.5588,70.8699
 L -58.4896,71.1476 L -58.4399,71.4294 L -58.41,71.714 L -58.4,72 L -58.41,72.286 L -58.4399,72.5706
 L -58.4896,72.8524 L -58.5588,73.1301 L -58.6473,73.4023 L -58.7545,73.6676 L -58.8799,73.9248 L -59.023,74.1727
 L -59.183,74.4099 L -59.3592,74.6354 L -59.5507,74.8481 L -59.7566,75.0469 L -59.9758,75.2308 L -60.2073,75.3991
 L -60.45,75.5507 L -60.7027,75.6851 L -60.9641,75.8015 L -61.233,75.8993 L -61.5081,75.9782 L -61.788,76.0377
 L -62.0714,76.0775 L -62.3569,76.0975 L -62.6431,76.0975 L -62.9286,76.0775 L -63.212,76.0377 L -63.4919,75.9782
 L -63.767,75.8993 L -64.0359,75.8015 L -64.2973,75.6851 L -64.55,75.5507 L -64.7927,75.3991 L -65.0242,75.2308
 L -65.2434,75.0469 L -65.4493,74.8481 L -65.6408,74.6354 L -65.817,74.4099 L -65.977,74.1727 L -66.1201,73.9248
 L -66.2455,73.6676 L -66.3527,73.4023 L -66.4412,73.1301 L -66.5104,72.8524 L -66.5601,72.5706 L -66.59,72.286
 z
M -25.65,65.95 L -25.6449,65.8035 L -25.6296,65.6577 L -25.6041,65.5134 L -25.5686,65.3712 L -25.5234,65.2318
 L -25.4684,65.0959 L -25.4042,64.9641 L -25.3309,64.8372 L -25.2489,64.7157 L -25.1587,64.6001 L -25.0606,64.4912
 L -24.9552,64.3894 L -24.8429,64.2952 L -24.7243,64.209 L -24.6,64.1313 L -24.4706,64.0625 L -24.3367,64.0029
 L -24.1989,63.9528 L -24.058,63.9124 L -23.9147,63.8819 L -23.7695,63.8615 L -23.6233,63.8513 L -23.4767,63.8513
 L -23.3305,63.8615 L -23.1853,63.8819 L -23.042,63.9124 L -22.9011,63.9528 L -22.7633,64.0029 L -22.6294,64.0625
 L -22.5,64.1313 L -22.3757,64.209 L -22.2571,64.2952 L -22.1448,64.3894 L -22.0394,64.4912 L -21.9413,64.6001
 L -21.8511,64.7157 L -21.7691,64.8372 L -21.6958,64.9641 L -21.6316,65.0959 L -21.5766,65.2318 L -21.5314,65.3712
 L -21.4959,65.5134 L -21.4704,65.6577 L -21.4551,65.8035 L -21.45,65.95 L -21.4551,66.0965 L -21.4704,66.2423
 L -21.4959,66.3866 L -21.5314,66.5288 L -21.5766,66.6682 L -21.6316,66.8041 L -21.6958,66.9359 L -21.7691,67.0628
 L -21.8511,67.1843 L -21.9413,67.2999 L -22.0394,67.4088 L -22.1448,67.5106 L -22.2571,67.6048 L -22.3757,67.691
 L -22.5,67.7687 L -22.6294,67.8375 L -22.7633,67.8971 L -22.9011,67.9472 L -23.042,67.9876 L -23.1853,68.0181
 L -23.3305,68.0385 L -23.4767,68.0487 L -23.6233,68.0487 L -23.7695,68.0385 L -23.9147,68.0181 L -24.058,67.9876
 L -24.1989,67.9472 L -24.3367,67.8971 L -24.4706,67.8375 L -24.6,67.7687 L -24.7243,67.691 L -24.8429,67.6048
 L -24.9552,67.5106 L -25.0606,67.4088 L -25.1587,67.2999 L -25.2489,67.1843 L -25.3309,67.0628 L -25.4042,66.9359
 L -25.4684,66.8041 L -25.5234,66.6682 L -25.5686,66.5288 L -25.6041,66.3866 L -25.6296,66.2423 L -25.6449,66.0965
 z
M -25.65,18.85 L -25.6449,18.7035 L -25.6296,18.5577 L -25.6041,18.4134 L -25.5686,18.2712 L -25.5234,18.1318
 L -25.4684,17.9959 L -25.4042,17.8641 L -25.3309,17.7372 L -25.2489,17.6157 L -25.1587,17.5001 L -25.0606,17.3912
 L -24.9552,17.2894 L -24.8429,17.1952 L -24.7243,17.109 L -24.6,17.0313 L -24.4706,16.9625 L -24.3367,16.9029
 L -24.1989,16.8528 L -24.058,16.8124 L -23.9147,16.7819 L -23.7695,16.7615 L -23.6233,16.7513 L -23.4767,16.7513
 L -23.3305,16.7615 L -23.1853,16.7819 L -23.042,16.8124 L -22.9011,16.8528 L -22.7633,16.9029 L -22.6294,16.9625
 L -22.5,17.0313 L -22.3757,17.109 L -22.2571,17.1952 L -22.1448,17.2894 L -22.0394,17.3912 L -21.9413,17.5001
 L -21.8511,17.6157 L -21.7691,17.7372 L -21.6958,17.8641 L -21.6316,17.9959 L -21.5766,18.1318 L -21.5314,18.2712
 L -21.4959,18.4134 L -21.4704,18.5577 L -21.4551,18.7035 L -21.45,18.85 L -21.4551,18.9965 L -21.4704,19.1423
 L -21.4959,19.2866 L -21.5314,19.4288 L -21.5766,19.5682 L -21.6316,19.7041 L -21.6958,19.8359 L -21.7691,19.9628
 L -21.8511,20.0843 L -21.9413,20.1999 L -22.0394,20.3088 L -22.1448,20.4106 L -22.2571,20.5048 L -22.3757,20.591
 L -22.5,20.6687 L -22.6294,20.7375 L -22.7633,20.7971 L -22.9011,20.8472 L -23.042,20.8876 L -23.1853,20.9181
 L -23.3305,20.9385 L -23.4767,20.9487 L -23.6233,20.9487 L -23.7695,20.9385 L -23.9147,20.9181 L -24.058,20.8876
 L -24.1989,20.8472 L -24.3367,20.7971 L -24.4706,20.7375 L -24.6,20.6687 L -24.7243,20.591 L -24.8429,20.5048
 L -24.9552,20.4106 L -25.0606,20.3088 L -25.1587,20.1999 L -25.2489,20.0843 L -25.3309,19.9628 L -25.4042,19.8359
 L -25.4684,19.7041 L -25.5234,19.5682 L -25.5686,19.4288 L -25.6041,19.2866 L -25.6296,19.1423 L -25.6449,18.9965
 z
M -22.1,-0 L -22.09,-0.286001 L -22.0601,-0.570609 L -22.0104,-0.852437 L -21.9412,-1.13011 L -21.8527,-1.40228
 L -21.7455,-1.66762 L -21.6201,-1.92483 L -21.477,-2.17267 L -21.317,-2.40992 L -21.1408,-2.63543 L -20.9493,-2.8481
 L -20.7434,-3.04689 L -20.5242,-3.23084 L -20.2927,-3.39905 L -20.05,-3.5507 L -19.7973,-3.68505 L -19.5359,-3.80145
 L -19.267,-3.89933 L -18.9919,-3.97821 L -18.712,-4.03771 L -18.4286,-4.07754 L -18.1431,-4.0975 L -17.8569,-4.0975
 L -17.5714,-4.07754 L -17.288,-4.03771 L -17.0081,-3.97821 L -16.733,-3.89933 L -16.4641,-3.80145 L -16.2027,-3.68505
 L -15.95,-3.5507 L -15.7073,-3.39905 L -15.4758,-3.23084 L -15.2566,-3.04689 L -15.0507,-2.8481 L -14.8592,-2.63543
 L -14.683,-2.40992 L -14.523,-2.17267 L -14.3799,-1.92483 L -14.2545,-1.66762 L -14.1473,-1.40228 L -14.0588,-1.13011
 L -13.9896,-0.852437 L -13.9399,-0.570609 L -13.91,-0.286001 L -13.9,-0 L -13.91,0.286001 L -13.9399,0.570609
 L -13.9896,0.852437 L -14.0588,1.13011 L -14.1473,1.40228 L -14.2545,1.66762 L -14.3799,1.92483 L -14.523,2.17267
 L -14.683,2.40992 L -14.8592,2.63543 L -15.0507,2.8481 L -15.2566,3.04689 L -15.4758,3.23084 L -15.7073,3.39905
 L -15.95,3.5507 L -16.2027,3.68505 L -16.4641,3.80145 L -16.733,3.89933 L -17.0081,3.97821 L -17.288,4.03771
 L -17.5714,4.07754 L -17.8569,4.0975 L -18.1431,4.0975 L -18.4286,4.07754 L -18.712,4.03771 L -18.9919,3.97821
 L -19.267,3.89933 L -19.5359,3.80145 L -19.7973,3.68505 L -20.05,3.5507 L -20.2927,3.39905 L -20.5242,3.23084
 L -20.7434,3.04689 L -20.9493,2.8481 L -21.1408,2.63543 L -21.317,2.40992 L -21.477,2.17267 L -21.6201,1.92483
 L -21.7455,1.66762 L -21.8527,1.40228 L -21.9412,1.13011 L -22.0104,0.852437 L -22.0601,0.570609 L -22.09,0.286001
 z
M -19.85,42.4 L -19.8016,41.0153 L -19.6568,39.6374 L -19.4162,38.273 L -19.081,36.9286 L -18.6529,35.6109
 L -18.1339,34.3263 L -17.5265,33.081 L -16.8338,31.8811 L -16.059,30.7325 L -15.206,29.6407 L -14.2789,28.611
 L -13.2822,27.6486 L -12.2209,26.758 L -11.1,25.9436 L -9.925,25.2094 L -8.70167,24.5589 L -7.43594,23.9954
 L -6.13399,23.5215 L -4.80215,23.1396 L -3.44692,22.8516 L -2.07489,22.6587 L -0.692755,22.5621 L 0.692755,22.5621
 L 2.07489,22.6587 L 3.44692,22.8516 L 4.80215,23.1396 L 6.13399,23.5215 L 7.43594,23.9954 L 8.70167,24.5589
 L 9.925,25.2094 L 11.1,25.9436 L 12.2209,26.758 L 13.2822,27.6486 L 14.2789,28.611 L 15.206,29.6407
 L 16.059,30.7325 L 16.8338,31.8811 L 17.5265,33.081 L 18.1339,34.3263 L 18.6529,35.6109 L 19.081,36.9286
 L 19.4162,38.273 L 19.6568,39.6374 L 19.8016,41.0153 L 19.85,42.4 L 19.8016,43.7847 L 19.6568,45.1626
 L 19.4162,46.527 L 19.081,47.8714 L 18.6529,49.1891 L 18.1339,50.4737 L 17.5265,51.719 L 16.8338,52.9189
 L 16.059,54.0675 L 15.206,55.1593 L 14.2789,56.189 L 13.2822,57.1514 L 12.2209,58.042 L 11.1,58.8564
 L 9.925,59.5906 L 8.70167,60.2411 L 7.43594,60.8046 L 6.13399,61.2785 L 4.80215,61.6604 L 3.44692,61.9484
 L 2.07489,62.1413 L 0.692755,62.2379 L -0.692755,62.2379 L -2.07489,62.1413 L -3.44692,61.9484 L -4.80215,61.6604
 L -6.13399,61.2785 L -7.43594,60.8046 L -8.70167,60.2411 L -9.925,59.5906 L -11.1,58.8564 L -12.2209,58.042
 L -13.2822,57.1514 L -14.2789,56.189 L -15.206,55.1593 L -16.059,54.0675 L -16.8338,52.9189 L -17.5265,51.719
 L -18.1339,50.4737 L -18.6529,49.1891 L -19.081,47.8714 L -19.4162,46.527 L -19.6568,45.1626 L -19.8016,43.7847
 z
M -3.5,-9.75 L -3.5,-20.25 L 3.5,-20.25 L 3.5,-9.75 z
M -2.5,65.9 L -2.49391,65.7256 L -2.47567,65.5521 L -2.44537,65.3802 L -2.40315,65.2109 L -2.34923,65.0449
 L -2.28386,64.8832 L -2.20737,64.7263 L -2.12012,64.5752 L -2.02254,64.4305 L -1.91511,64.293 L -1.79835,64.1634
 L -1.67283,64.0421 L -1.53915,63.93 L -1.39798,63.8274 L -1.25,63.7349 L -1.09593,63.653 L -0.936516,63.582
 L -0.772542,63.5224 L -0.604804,63.4743 L -0.43412,63.438 L -0.261321,63.4137 L -0.0872478,63.4015 L 0.0872478,63.4015
 L 0.261321,63.4137 L 0.43412,63.438 L 0.604804,63.4743 L 0.772542,63.5224 L 0.936516,63.582 L 1.09593,63.653
 L 1.25,63.7349 L 1.39798,63.8274 L 1.53915,63.93 L 1.67283,64.0421 L 1.79835,64.1634 L 1.91511,64.293
 L 2.02254,64.4305 L 2.12012,64.5752 L 2.20737,64.7263 L 2.28386,64.8832 L 2.34923,65.0449 L 2.40315,65.2109
 L 2.44537,65.3802 L 2.47567,65.5521 L 2.49391,65.7256 L 2.5,65.9 L 2.49391,66.0744 L 2.47567,66.2479
 L 2.44537,66.4198 L 2.40315,66.5891 L 2.34923,66.755 L 2.28386,66.9168 L 2.20737,67.0737 L 2.12012,67.2248
 L 2.02254,67.3695 L 1.91511,67.507 L 1.79835,67.6366 L 1.67283,67.7579 L 1.53915,67.87 L 1.39798,67.9726
 L 1.25,68.0651 L 1.09593,68.147 L 0.936516,68.218 L 0.772542,68.2776 L 0.604804,68.3257 L 0.43412,68.362
 L 0.261321,68.3863 L 0.0872478,68.3985 L -0.0872478,68.3985 L -0.261321,68.3863 L -0.43412,68.362 L -0.604804,68.3257
 L -0.772542,68.2776 L -0.936516,68.218 L -1.09593,68.147 L -1.25,68.0651 L -1.39798,67.9726 L -1.53915,67.87
 L -1.67283,67.7579 L -1.79835,67.6366 L -1.91511,67.507 L -2.02254,67.3695 L -2.12012,67.2248 L -2.20737,67.0737
 L -2.28386,66.9168 L -2.34923,66.755 L -2.40315,66.5891 L -2.44537,66.4198 L -2.47567,66.2479 L -2.49391,66.0744
 z
M 13.9,-0 L 13.91,-0.286001 L 13.9399,-0.570609 L 13.9896,-0.852437 L 14.0588,-1.13011 L 14.1473,-1.40228
 L 14.2545,-1.66762 L 14.3799,-1.92483 L 14.523,-2.17267 L 14.683,-2.40992 L 14.8592,-2.63543 L 15.0507,-2.8481
 L 15.2566,-3.04689 L 15.4758,-3.23084 L 15.7073,-3.39905 L 15.95,-3.5507 L 16.2027,-3.68505 L 16.4641,-3.80145
 L 16.733,-3.89933 L 17.0081,-3.97821 L 17.288,-4.03771 L 17.5714,-4.07754 L 17.8569,-4.0975 L 18.1431,-4.0975
 L 18.4286,-4.07754 L 18.712,-4.03771 L 18.9919,-3.97821 L 19.267,-3.89933 L 19.5359,-3.80145 L 19.7973,-3.68505
 L 20.05,-3.5507 L 20.2927,-3.39905 L 20.5242,-3.23084 L 20.7434,-3.04689 L 20.9493,-2.8481 L 21.1408,-2.63543
 L 21.317,-2.40992 L 21.477,-2.17267 L 21.6201,-1.92483 L 21.7455,-1.66762 L 21.8527,-1.40228 L 21.9412,-1.13011
 L 22.0104,-0.852437 L 22.0601,-0.570609 L 22.09,-0.286001 L 22.1,-0 L 22.09,0.286001 L 22.0601,0.570609
 L 22.0104,0.852437 L 21.9412,1.13011 L 21.8527,1.40228 L 21.7455,1.66762 L 21.6201,1.92483 L 21.477,2.17267
 L 21.317,2.40992 L 21.1408,2.63543 L 20.9493,2.8481 L 20.7434,3.04689 L 20.5242,3.23084 L 20.2927,3.39905
 L 20.05,3.5507 L 19.7973,3.68505 L 19.5359,3.80145 L 19.267,3.89933 L 18.9919,3.97821 L 18.712,4.03771
 L 18.4286,4.07754 L 18.1431,4.0975 L 17.8569,4.0975 L 17.5714,4.07754 L 17.288,4.03771 L 17.0081,3.97821
 L 16.733,3.89933 L 16.4641,3.80145 L 16.2027,3.68505 L 15.95,3.5507 L 15.7073,3.39905 L 15.4758,3.23084
 L 15.2566,3.04689 L 15.0507,2.8481 L 14.8592,2.63543 L 14.683,2.40992 L 14.523,2.17267 L 14.3799,1.92483
 L 14.2545,1.66762 L 14.1473,1.40228 L 14.0588,1.13011 L 13.9896,0.852437 L 13.9399,0.570609 L 13.91,0.286001
 z
M 21.45,65.95 L 21.4551,65.8035 L 21.4704,65.6577 L 21.4959,65.5134 L 21.5314,65.3712 L 21.5766,65.2318
 L 21.6316,65.0959 L 21.6958,64.9641 L 21.7691,64.8372 L 21.8511,64.7157 L 21.9413,64.6001 L 22.0394,64.4912
 L 22.1448,64.3894 L 22.2571,64.2952 L 22.3757,64.209 L 22.5,64.1313 L 22.6294,64.0625 L 22.7633,64.0029
 L 22.9011,63.9528 L 23.042,63.9124 L 23.1853,63.8819 L 23.3305,63.8615 L 23.4767,63.8513 L 23.6233,63.8513
 L 23.7695,63.8615 L 23.9147,63.8819 L 24.058,63.9124 L 24.1989,63.9528 L 24.3367,64.0029 L 24.4706,64.0625
 L 24.6,64.1313 L 24.7243,64.209 L 24.8429,64.2952 L 24.9552,64.3894 L 25.0606,64.4912 L 25.1587,64.6001
 L 25.2489,64.7157 L 25.3309,64.8372 L 25.4042,64.9641 L 25.4684,65.0959 L 25.5234,65.2318 L 25.5686,65.3712
 L 25.6041,65.5134 L 25.6296,65.6577 L 25.6449,65.8035 L 25.65,65.95 L 25.6449,66.0965 L 25.6296,66.2423
 L 25.6041,66.3866 L 25.5686,66.5288 L 25.5234,66.6682 L 25.4684,66.8041 L 25.4042,66.9359 L 25.3309,67.0628
 L 25.2489,67.1843 L 25.1587,67.2999 L 25.0606,67.4088 L 24.9552,67.5106 L 24.8429,67.6048 L 24.7243,67.691
 L 24.6,67.7687 L 24.4706,67.8375 L 24.3367,67.8971 L 24.1989,67.9472 L 24.058,67.9876 L 23.9147,68.0181
 L 23.7695,68.0385 L 23.6233,68.0487 L 23.4767,68.0487 L 23.3305,68.0385 L 23.1853,68.0181 L 23.042,67.9876
 L 22.9011,67.9472 L 22.7633,67.8971 L 22.6294,67.8375 L 22.5,67.7687 L 22.3757,67.691 L 22.2571,67.6048
 L 22.1448,67.5106 L 22.0394,67.4088 L 21.9413,67.2999 L 21.8511,67.1843 L 21.7691,67.0628 L 21.6958,66.9359
 L 21.6316,66.8041 L 21.5766,66.6682 L 21.5314,66.5288 L 21.4959,66.3866 L 21.4704,66.2423 L 21.4551,66.0965
 z
M 21.45,18.85 L 21.4551,18.7035 L 21.4704,18.5577 L 21.4959,18.4134 L 21.5314,18.2712 L 21.5766,18.1318
 L 21.6316,17.9959 L 21.6958,17.8641 L 21.7691,17.7372 L 21.8511,17.6157 L 21.9413,17.5001 L 22.0394,17.3912
 L 22.1448,17.2894 L 22.2571,17.1952 L 22.3757,17.109 L 22.5,17.0313 L 22.6294,16.9625 L 22.7633,16.9029
 L 22.9011,16.8528 L 23.042,16.8124 L 23.1853,16.7819 L 23.3305,16.7615 L 23.4767,16.7513 L 23.6233,16.7513
 L 23.7695,16.7615 L 23.9147,16.7819 L 24.058,16.8124 L 24.1989,16.8528 L 24.3367,16.9029 L 24.4706,16.9625
 L 24.6,17.0313 L 24.7243,17.109 L 24.8429,17.1952 L 24.9552,17.2894 L 25.0606,17.3912 L 25.1587,17.5001
 L 25.2489,17.6157 L 25.3309,17.7372 L 25.4042,17.8641 L 25.4684,17.9959 L 25.5234,18.1318 L 25.5686,18.2712
 L 25.6041,18.4134 L 25.6296,18.5577 L 25.6449,18.7035 L 25.65,18.85 L 25.6449,18.9965 L 25.6296,19.1423
 L 25.6041,19.2866 L 25.5686,19.4288 L 25.5234,19.5682 L 25.4684,19.7041 L 25.4042,19.8359 L 25.3309,19.9628
 L 25.2489,20.0843 L 25.1587,20.1999 L 25.0606,20.3088 L 24.9552,20.4106 L 24.8429,20.5048 L 24.7243,20.591
 L 24.6,20.6687 L 24.4706,20.7375 L 24.3367,20.7971 L 24.1989,20.8472 L 24.058,20.8876 L 23.9147,20.9181
 L 23.7695,20.9385 L 23.6233,20.9487 L 23.4767,20.9487 L 23.3305,20.9385 L 23.1853,20.9181 L 23.042,20.8876
 L 22.9011,20.8472 L 22.7633,20.7971 L 22.6294,20.7375 L 22.5,20.6687 L 22.3757,20.591 L 22.2571,20.5048
 L 22.1448,20.4106 L 22.0394,20.3088 L 21.9413,20.1999 L 21.8511,20.0843 L 21.7691,19.9628 L 21.6958,19.8359
 L 21.6316,19.7041 L 21.5766,19.5682 L 21.5314,19.4288 L 21.4959,19.2866 L 21.4704,19.1423 L 21.4551,18.9965
 z
M 58.4,72 L 58.41,71.714 L 58.4399,71.4294 L 58.4896,71.1476 L 58.5588,70.8699 L 58.6473,70.5977
 L 58.7545,70.3324 L 58.8799,70.0752 L 59.023,69.8273 L 59.183,69.5901 L 59.3592,69.3646 L 59.5507,69.1519
 L 59.7566,68.9531 L 59.9758,68.7692 L 60.2073,68.6009 L 60.45,68.4493 L 60.7027,68.3149 L 60.9641,68.1985
 L 61.233,68.1007 L 61.5081,68.0218 L 61.788,67.9623 L 62.0714,67.9225 L 62.3569,67.9025 L 62.6431,67.9025
 L 62.9286,67.9225 L 63.212,67.9623 L 63.4919,68.0218 L 63.767,68.1007 L 64.0359,68.1985 L 64.2973,68.3149
 L 64.55,68.4493 L 64.7927,68.6009 L 65.0242,68.7692 L 65.2434,68.9531 L 65.4493,69.1519 L 65.6408,69.3646
 L 65.817,69.5901 L 65.977,69.8273 L 66.1201,70.0752 L 66.2455,70.3324 L 66.3527,70.5977 L 66.4412,70.8699
 L 66.5104,71.1476 L 66.5601,71.4294 L 66.59,71.714 L 66.6,72 L 66.59,72.286 L 66.5601,72.5706
 L 66.5104,72.8524 L 66.4412,73.1301 L 66.3527,73.4023 L 66.2455,73.6676 L 66.1201,73.9248 L 65.977,74.1727
 L 65.817,74.4099 L 65.6408,74.6354 L 65.4493,74.8481 L 65.2434,75.0469 L 65.0242,75.2308 L 64.7927,75.3991
 L 64.55,75.5507 L 64.2973,75.6851 L 64.0359,75.8015 L 63.767,75.8993 L 63.4919,75.9782 L 63.212,76.0377
 L 62.9286,76.0775 L 62.6431,76.0975 L 62.3569,76.0975 L 62.0714,76.0775 L 61.788,76.0377 L 61.5081,75.9782
 L 61.233,75.8993 L 60.9641,75.8015 L 60.7027,75.6851 L 60.45,75.5507 L 60.2073,75.3991 L 59.9758,75.2308
 L 59.7566,75.0469 L 59.5507,74.8481 L 59.3592,74.6354 L 59.183,74.4099 L 59.023,74.1727 L 58.8799,73.9248
 L 58.7545,73.6676 L 58.6473,73.4023 L 58.5588,73.1301 L 58.4896,72.8524 L 58.4399,72.5706 L 58.41,72.286
 z
" stroke="black" fill="lightgray" stroke-width="0.5"/></svg>
