  0
SECTION
  2
BLOCKS
  0
ENDSEC
  0
SECTION
  2
ENTITIES
  0
LINE
  8
0
 10
-39.25
 20
0
 11
-39.1962
 21
-2.05419
  0
LINE
  8
0
 10
-39.1962
 20
-2.05419
 11
-39.035
 21
-4.10274
  0
LINE
  8
0
 10
-39.035
 20
-4.10274
 11
-38.7668
 21
-6.14005
  0
LINE
  8
0
 10
-38.7668
 20
-6.14005
 11
-38.3923
 21
-8.16053
  0
LINE
  8
0
 10
-38.3923
 20
-8.16053
 11
-37.9126
 21
-10.1586
  0
LINE
  8
0
 10
-37.9126
 20
-10.1586
 11
-37.329
 21
-12.1289
  0
LINE
  8
0
 10
-37.329
 20
-12.1289
 11
-36.643
 21
-14.0659
  0
LINE
  8
0
 10
-36.643
 20
-14.0659
 11
-35.8567
 21
-15.9644
  0
LINE
  8
0
 10
-35.8567
 20
-15.9644
 11
-34.972
 21
-17.8191
  0
LINE
  8
0
 10
-34.972
 20
-17.8191
 11
-33.9915
 21
-19.625
  0
LINE
  8
0
 10
-33.9915
 20
-19.625
 11
-32.9178
 21
-21.3771
  0
LINE
  8
0
 10
-32.9178
 20
-21.3771
 11
-31.7539
 21
-23.0706
  0
LINE
  8
0
 10
-31.7539
 20
-23.0706
 11
-30.503
 21
-24.7008
  0
LINE
  8
0
 10
-30.503
 20
-24.7008
 11
-29.1684
 21
-26.2634
  0
LINE
  8
0
 10
-29.1684
 20
-26.2634
 11
-27.7539
 21
-27.7539
  0
LINE
  8
0
 10
-27.7539
 20
-27.7539
 11
-26.2634
 21
-29.1684
  0
LINE
  8
0
 10
-26.2634
 20
-29.1684
 11
-24.7008
 21
-30.503
  0
LINE
  8
0
 10
-24.7008
 20
-30.503
 11
-23.0706
 21
-31.7539
  0
LINE
  8
0
 10
-23.0706
 20
-31.7539
 11
-21.3771
 21
-32.9178
  0
LINE
  8
0
 10
-21.3771
 20
-32.9178
 11
-19.625
 21
-33.9915
  0
LINE
  8
0
 10
-19.625
 20
-33.9915
 11
-17.8191
 21
-34.972
  0
LINE
  8
0
 10
-17.8191
 20
-34.972
 11
-15.9644
 21
-35.8567
  0
LINE
  8
0
 10
-15.9644
 20
-35.8567
 11
-14.0659
 21
-36.643
  0
LINE
  8
0
 10
-14.0659
 20
-36.643
 11
-12.1289
 21
-37.329
  0
LINE
  8
0
 10
-12.1289
 20
-37.329
 11
-10.1586
 21
-37.9126
  0
LINE
  8
0
 10
-10.1586
 20
-37.9126
 11
-8.16053
 21
-38.3923
  0
LINE
  8
0
 10
-8.16053
 20
-38.3923
 11
-6.14005
 21
-38.7668
  0
LINE
  8
0
 10
-6.14005
 20
-38.7668
 11
-4.10274
 21
-39.035
  0
LINE
  8
0
 10
-4.10274
 20
-39.035
 11
-2.05419
 21
-39.1962
  0
LINE
  8
0
 10
-2.05419
 20
-39.1962
 11
0
 21
-39.25
  0
LINE
  8
0
 10
0
 20
-39.25
 11
2.05419
 21
-39.1962
  0
LINE
  8
0
 10
2.05419
 20
-39.1962
 11
4.10274
 21
-39.035
  0
LINE
  8
0
 10
4.10274
 20
-39.035
 11
6.14005
 21
-38.7668
  0
LINE
  8
0
 10
6.14005
 20
-38.7668
 11
8.16053
 21
-38.3923
  0
LINE
  8
0
 10
8.16053
 20
-38.3923
 11
10.1586
 21
-37.9126
  0
LINE
  8
0
 10
10.1586
 20
-37.9126
 11
12.1289
 21
-37.329
  0
LINE
  8
0
 10
12.1289
 20
-37.329
 11
14.0659
 21
-36.643
  0
LINE
  8
0
 10
14.0659
 20
-36.643
 11
15.9644
 21
-35.8567
  0
LINE
  8
0
 10
15.9644
 20
-35.8567
 11
17.8191
 21
-34.972
  0
LINE
  8
0
 10
17.8191
 20
-34.972
 11
19.625
 21
-33.9915
  0
LINE
  8
0
 10
19.625
 20
-33.9915
 11
21.3771
 21
-32.9178
  0
LINE
  8
0
 10
21.3771
 20
-32.9178
 11
23.0706
 21
-31.7539
  0
LINE
  8
0
 10
23.0706
 20
-31.7539
 11
24.7008
 21
-30.503
  0
LINE
  8
0
 10
24.7008
 20
-30.503
 11
26.2634
 21
-29.1684
  0
LINE
  8
0
 10
26.2634
 20
-29.1684
 11
27.7539
 21
-27.7539
  0
LINE
  8
0
 10
27.7539
 20
-27.7539
 11
29.1684
 21
-26.2634
  0
LINE
  8
0
 10
29.1684
 20
-26.2634
 11
30.503
 21
-24.7008
  0
LINE
  8
0
 10
30.503
 20
-24.7008
 11
31.7539
 21
-23.0706
  0
LINE
  8
0
 10
31.7539
 20
-23.0706
 11
32.9178
 21
-21.3771
  0
LINE
  8
0
 10
32.9178
 20
-21.3771
 11
33.9915
 21
-19.625
  0
LINE
  8
0
 10
33.9915
 20
-19.625
 11
34.972
 21
-17.8191
  0
LINE
  8
0
 10
34.972
 20
-17.8191
 11
35.8567
 21
-15.9644
  0
LINE
  8
0
 10
35.8567
 20
-15.9644
 11
36.643
 21
-14.0659
  0
LINE
  8
0
 10
36.643
 20
-14.0659
 11
37.329
 21
-12.1289
  0
LINE
  8
0
 10
37.329
 20
-12.1289
 11
37.9126
 21
-10.1586
  0
LINE
  8
0
 10
37.9126
 20
-10.1586
 11
38.3923
 21
-8.16053
  0
LINE
  8
0
 10
38.3923
 20
-8.16053
 11
38.7668
 21
-6.14005
  0
LINE
  8
0
 10
38.7668
 20
-6.14005
 11
39.035
 21
-4.10274
  0
LINE
  8
0
 10
39.035
 20
-4.10274
 11
39.1962
 21
-2.05419
  0
LINE
  8
0
 10
39.1962
 20
-2.05419
 11
39.25
 21
0
  0
LINE
  8
0
 10
39.25
 20
0
 11
39.1962
 21
2.05419
  0
LINE
  8
0
 10
39.1962
 20
2.05419
 11
39.035
 21
4.10274
  0
LINE
  8
0
 10
39.035
 20
4.10274
 11
38.7668
 21
6.14005
  0
LINE
  8
0
 10
38.7668
 20
6.14005
 11
38.3923
 21
8.16053
  0
LINE
  8
0
 10
38.3923
 20
8.16053
 11
37.9126
 21
10.1586
  0
LINE
  8
0
 10
37.9126
 20
10.1586
 11
37.329
 21
12.1289
  0
LINE
  8
0
 10
37.329
 20
12.1289
 11
36.643
 21
14.0659
  0
LINE
  8
0
 10
36.643
 20
14.0659
 11
35.8567
 21
15.9644
  0
LINE
  8
0
 10
35.8567
 20
15.9644
 11
34.972
 21
17.8191
  0
LINE
  8
0
 10
34.972
 20
17.8191
 11
33.9915
 21
19.625
  0
LINE
  8
0
 10
33.9915
 20
19.625
 11
32.9178
 21
21.3771
  0
LINE
  8
0
 10
32.9178
 20
21.3771
 11
31.7539
 21
23.0706
  0
LINE
  8
0
 10
31.7539
 20
23.0706
 11
30.503
 21
24.7008
  0
LINE
  8
0
 10
30.503
 20
24.7008
 11
29.1684
 21
26.2634
  0
LINE
  8
0
 10
29.1684
 20
26.2634
 11
27.7539
 21
27.7539
  0
LINE
  8
0
 10
27.7539
 20
27.7539
 11
26.2634
 21
29.1684
  0
LINE
  8
0
 10
26.2634
 20
29.1684
 11
24.7008
 21
30.503
  0
LINE
  8
0
 10
24.7008
 20
30.503
 11
23.0706
 21
31.7539
  0
LINE
  8
0
 10
23.0706
 20
31.7539
 11
21.3771
 21
32.9178
  0
LINE
  8
0
 10
21.3771
 20
32.9178
 11
19.625
 21
33.9915
  0
LINE
  8
0
 10
19.625
 20
33.9915
 11
17.8191
 21
34.972
  0
LINE
  8
0
 10
17.8191
 20
34.972
 11
15.9644
 21
35.8567
  0
LINE
  8
0
 10
15.9644
 20
35.8567
 11
14.0659
 21
36.643
  0
LINE
  8
0
 10
14.0659
 20
36.643
 11
12.1289
 21
37.329
  0
LINE
  8
0
 10
12.1289
 20
37.329
 11
10.1586
 21
37.9126
  0
LINE
  8
0
 10
10.1586
 20
37.9126
 11
8.16053
 21
38.3923
  0
LINE
  8
0
 10
8.16053
 20
38.3923
 11
6.14005
 21
38.7668
  0
LINE
  8
0
 10
6.14005
 20
38.7668
 11
4.10274
 21
39.035
  0
LINE
  8
0
 10
4.10274
 20
39.035
 11
2.05419
 21
39.1962
  0
LINE
  8
0
 10
2.05419
 20
39.1962
 11
0
 21
39.25
  0
LINE
  8
0
 10
0
 20
39.25
 11
-2.05419
 21
39.1962
  0
LINE
  8
0
 10
-2.05419
 20
39.1962
 11
-4.10274
 21
39.035
  0
LINE
  8
0
 10
-4.10274
 20
39.035
 11
-6.14005
 21
38.7668
  0
LINE
  8
0
 10
-6.14005
 20
38.7668
 11
-8.16053
 21
38.3923
  0
LINE
  8
0
 10
-8.16053
 20
38.3923
 11
-10.1586
 21
37.9126
  0
LINE
  8
0
 10
-10.1586
 20
37.9126
 11
-12.1289
 21
37.329
  0
LINE
  8
0
 10
-12.1289
 20
37.329
 11
-14.0659
 21
36.643
  0
LINE
  8
0
 10
-14.0659
 20
36.643
 11
-15.9644
 21
35.8567
  0
LINE
  8
0
 10
-15.9644
 20
35.8567
 11
-17.8191
 21
34.972
  0
LINE
  8
0
 10
-17.8191
 20
34.972
 11
-19.625
 21
33.9915
  0
LINE
  8
0
 10
-19.625
 20
33.9915
 11
-21.3771
 21
32.9178
  0
LINE
  8
0
 10
-21.3771
 20
32.9178
 11
-23.0706
 21
31.7539
  0
LINE
  8
0
 10
-23.0706
 20
31.7539
 11
-24.7008
 21
30.503
  0
LINE
  8
0
 10
-24.7008
 20
30.503
 11
-26.2634
 21
29.1684
  0
LINE
  8
0
 10
-26.2634
 20
29.1684
 11
-27.7539
 21
27.7539
  0
LINE
  8
0
 10
-27.7539
 20
27.7539
 11
-29.1684
 21
26.2634
  0
LINE
  8
0
 10
-29.1684
 20
26.2634
 11
-30.503
 21
24.7008
  0
LINE
  8
0
 10
-30.503
 20
24.7008
 11
-31.7539
 21
23.0706
  0
LINE
  8
0
 10
-31.7539
 20
23.0706
 11
-32.9178
 21
21.3771
  0
LINE
  8
0
 10
-32.9178
 20
21.3771
 11
-33.9915
 21
19.625
  0
LINE
  8
0
 10
-33.9915
 20
19.625
 11
-34.972
 21
17.8191
  0
LINE
  8
0
 10
-34.972
 20
17.8191
 11
-35.8567
 21
15.9644
  0
LINE
  8
0
 10
-35.8567
 20
15.9644
 11
-36.643
 21
14.0659
  0
LINE
  8
0
 10
-36.643
 20
14.0659
 11
-37.329
 21
12.1289
  0
LINE
  8
0
 10
-37.329
 20
12.1289
 11
-37.9126
 21
10.1586
  0
LINE
  8
0
 10
-37.9126
 20
10.1586
 11
-38.3923
 21
8.16053
  0
LINE
  8
0
 10
-38.3923
 20
8.16053
 11
-38.7668
 21
6.14005
  0
LINE
  8
0
 10
-38.7668
 20
6.14005
 11
-39.035
 21
4.10274
  0
LINE
  8
0
 10
-39.035
 20
4.10274
 11
-39.1962
 21
2.05419
  0
LINE
  8
0
 10
-39.1962
 20
2.05419
 11
-39.25
 21
0
  0
LINE
  8
0
 10
-38.5539
 20
0.421744
 11
-38.3852
 21
1.3058
  0
LINE
  8
0
 10
-38.3852
 20
1.3058
 11
-36.126
 21
0.874825
  0
LINE
  8
0
 10
-36.126
 20
0.874825
 11
-36.2946
 21
-0.00923157
  0
LINE
  8
0
 10
-36.2946
 20
-0.00923157
 11
-38.5539
 21
0.421744
  0
LINE
  8
0
 10
-38.5043
 20
-1.9999
 11
-38.3915
 21
-1.107
  0
LINE
  8
0
 10
-38.3915
 20
-1.107
 11
-36.1096
 21
-1.39527
  0
LINE
  8
0
 10
-36.1096
 20
-1.39527
 11
-36.2224
 21
-2.28817
  0
LINE
  8
0
 10
-36.2224
 20
-2.28817
 11
-38.5043
 21
-1.9999
  0
LINE
  8
0
 10
-38.4513
 20
2.84173
 11
-38.2275
 21
3.71345
  0
LINE
  8
0
 10
-38.2275
 20
3.71345
 11
-35.9997
 21
3.14147
  0
LINE
  8
0
 10
-35.9997
 20
3.14147
 11
-36.2236
 21
2.26974
  0
LINE
  8
0
 10
-36.2236
 20
2.26974
 11
-38.4513
 21
2.84173
  0
LINE
  8
0
 10
-38.3027
 20
-4.41366
 11
-38.2462
 21
-3.51544
  0
LINE
  8
0
 10
-38.2462
 20
-3.51544
 11
-35.9507
 21
-3.65986
  0
LINE
  8
0
 10
-35.9507
 20
-3.65986
 11
-36.0073
 21
-4.55808
  0
LINE
  8
0
 10
-36.0073
 20
-4.55808
 11
-38.3027
 21
-4.41366
  0
LINE
  8
0
 10
-38.197
 20
5.2505
 11
-37.9189
 21
6.10645
  0
LINE
  8
0
 10
-37.9189
 20
6.10645
 11
-35.7315
 21
5.39571
  0
LINE
  8
0
 10
-35.7315
 20
5.39571
 11
-36.0096
 21
4.53976
  0
LINE
  8
0
 10
-36.0096
 20
4.53976
 11
-38.197
 21
5.2505
  0
LINE
  8
0
 10
-37.95
 20
-6.81
 11
-37.95
 21
-5.91
  0
LINE
  8
0
 10
-37.95
 20
-5.91
 11
-35.65
 21
-5.91
  0
LINE
  8
0
 10
-35.65
 20
-5.91
 11
-35.65
 21
-6.81
  0
LINE
  8
0
 10
-35.65
 20
-6.81
 11
-37.95
 21
-6.81
  0
LINE
  8
0
 10
-37.7919
 20
7.63855
 11
-37.4606
 21
8.47535
  0
LINE
  8
0
 10
-37.4606
 20
8.47535
 11
-35.3221
 21
7.62866
  0
LINE
  8
0
 10
-35.3221
 20
7.62866
 11
-35.6535
 21
6.79186
  0
LINE
  8
0
 10
-35.6535
 20
6.79186
 11
-37.7919
 21
7.63855
  0
LINE
  8
0
 10
-37.504
 20
-8.28124
 11
-35.2086
 21
-8.13682
  0
LINE
  8
0
 10
-35.2086
 20
-8.13682
 11
-35.152
 21
-9.03504
  0
LINE
  8
0
 10
-35.152
 20
-9.03504
 11
-37.4475
 21
-9.17946
  0
LINE
  8
0
 10
-37.4475
 20
-9.17946
 11
-37.504
 21
-8.28124
  0
LINE
  8
0
 10
-37.2377
 20
9.99645
 11
-36.8545
 21
10.8108
  0
LINE
  8
0
 10
-36.8545
 20
10.8108
 11
-34.7734
 21
9.8315
  0
LINE
  8
0
 10
-34.7734
 20
9.8315
 11
-35.1566
 21
9.01716
  0
LINE
  8
0
 10
-35.1566
 20
9.01716
 11
-37.2377
 21
9.99645
  0
LINE
  8
0
 10
-36.91
 20
-10.6198
 11
-34.6282
 21
-10.3315
  0
LINE
  8
0
 10
-34.6282
 20
-10.3315
 11
-34.5154
 21
-11.2244
  0
LINE
  8
0
 10
-34.5154
 20
-11.2244
 11
-36.7972
 21
-11.5127
  0
LINE
  8
0
 10
-36.7972
 20
-11.5127
 11
-36.91
 21
-10.6198
  0
LINE
  8
0
 10
-36.5366
 20
12.3149
 11
-36.103
 21
13.1036
  0
LINE
  8
0
 10
-36.103
 20
13.1036
 11
-34.0875
 21
11.9955
  0
LINE
  8
0
 10
-34.0875
 20
11.9955
 11
-34.5211
 21
11.2069
  0
LINE
  8
0
 10
-34.5211
 20
11.2069
 11
-36.5366
 21
12.3149
  0
LINE
  8
0
 10
-36.1704
 20
-12.9164
 11
-33.9111
 21
-12.4855
  0
LINE
  8
0
 10
-33.9111
 20
-12.4855
 11
-33.7425
 21
-13.3695
  0
LINE
  8
0
 10
-33.7425
 20
-13.3695
 11
-36.0017
 21
-13.8005
  0
LINE
  8
0
 10
-36.0017
 20
-13.8005
 11
-36.1704
 21
-12.9164
  0
LINE
  8
0
 10
-35.6912
 20
14.5848
 11
-35.209
 21
15.3446
  0
LINE
  8
0
 10
-35.209
 20
15.3446
 11
-33.267
 21
14.1122
  0
LINE
  8
0
 10
-33.267
 20
14.1122
 11
-33.7493
 21
13.3524
  0
LINE
  8
0
 10
-33.7493
 20
13.3524
 11
-35.6912
 21
14.5848
  0
LINE
  8
0
 10
-35.288
 20
-15.1621
 11
-33.0602
 21
-14.5901
  0
LINE
  8
0
 10
-33.0602
 20
-14.5901
 11
-32.8364
 21
-15.4618
  0
LINE
  8
0
 10
-32.8364
 20
-15.4618
 11
-35.0642
 21
-16.0338
  0
LINE
  8
0
 10
-35.0642
 20
-16.0338
 11
-35.288
 21
-15.1621
  0
LINE
  8
0
 10
-34.95
 20
-0.45
 11
-34.95
 21
0.45
  0
LINE
  8
0
 10
-34.95
 20
0.45
 11
-32.65
 21
0.45
  0
LINE
  8
0
 10
-32.65
 20
0.45
 11
-32.65
 21
-0.45
  0
LINE
  8
0
 10
-32.65
 20
-0.45
 11
-34.95
 21
-0.45
  0
LINE
  8
0
 10
-34.705
 20
16.797
 11
-34.176
 21
17.5252
  0
LINE
  8
0
 10
-34.176
 20
17.5252
 11
-32.3153
 21
16.1733
  0
LINE
  8
0
 10
-32.3153
 20
16.1733
 11
-32.8443
 21
15.4451
  0
LINE
  8
0
 10
-32.8443
 20
15.4451
 11
-34.705
 21
16.797
  0
LINE
  8
0
 10
-34.2663
 20
-17.3479
 11
-32.0789
 21
-16.6372
  0
LINE
  8
0
 10
-32.0789
 20
-16.6372
 11
-31.8008
 21
-17.4932
  0
LINE
  8
0
 10
-31.8008
 20
-17.4932
 11
-33.9882
 21
-18.2039
  0
LINE
  8
0
 10
-33.9882
 20
-18.2039
 11
-34.2663
 21
-17.3479
  0
LINE
  8
0
 10
-33.5818
 20
18.943
 11
-33.0082
 21
19.6365
  0
LINE
  8
0
 10
-33.0082
 20
19.6365
 11
-31.236
 21
18.1704
  0
LINE
  8
0
 10
-31.236
 20
18.1704
 11
-31.8097
 21
17.477
  0
LINE
  8
0
 10
-31.8097
 20
17.477
 11
-33.5818
 21
18.943
  0
LINE
  8
0
 10
-33.1094
 20
-19.4653
 11
-30.9709
 21
-18.6186
  0
LINE
  8
0
 10
-30.9709
 20
-18.6186
 11
-30.6396
 21
-19.4554
  0
LINE
  8
0
 10
-30.6396
 20
-19.4554
 11
-32.7781
 21
-20.3021
  0
LINE
  8
0
 10
-32.7781
 20
-20.3021
 11
-33.1094
 21
-19.4653
  0
LINE
  8
0
 10
-32.3261
 20
21.0143
 11
-31.71
 21
21.6704
  0
LINE
  8
0
 10
-31.71
 20
21.6704
 11
-30.0334
 21
20.0959
  0
LINE
  8
0
 10
-30.0334
 20
20.0959
 11
-30.6495
 21
19.4398
  0
LINE
  8
0
 10
-30.6495
 20
19.4398
 11
-32.3261
 21
21.0143
  0
LINE
  8
0
 10
-31.8218
 20
-21.5059
 11
-29.7407
 21
-20.5266
  0
LINE
  8
0
 10
-29.7407
 20
-20.5266
 11
-29.3575
 21
-21.3409
  0
LINE
  8
0
 10
-29.3575
 20
-21.3409
 11
-31.4386
 21
-22.3202
  0
LINE
  8
0
 10
-31.4386
 20
-22.3202
 11
-31.8218
 21
-21.5059
  0
LINE
  8
0
 10
-30.9428
 20
23.0026
 11
-30.2868
 21
23.6187
  0
LINE
  8
0
 10
-30.2868
 20
23.6187
 11
-28.7123
 21
21.9421
  0
LINE
  8
0
 10
-28.7123
 20
21.9421
 11
-29.3684
 21
21.326
  0
LINE
  8
0
 10
-29.3684
 20
21.326
 11
-30.9428
 21
23.0026
  0
LINE
  8
0
 10
-30.4087
 20
-23.4615
 11
-28.3932
 21
-22.3535
  0
LINE
  8
0
 10
-28.3932
 20
-22.3535
 11
-27.9596
 21
-23.1422
  0
LINE
  8
0
 10
-27.9596
 20
-23.1422
 11
-29.9751
 21
-24.2502
  0
LINE
  8
0
 10
-29.9751
 20
-24.2502
 11
-30.4087
 21
-23.4615
  0
LINE
  8
0
 10
-29.4374
 20
24.9001
 11
-28.744
 21
25.4738
  0
LINE
  8
0
 10
-28.744
 20
25.4738
 11
-27.2779
 21
23.7016
  0
LINE
  8
0
 10
-27.2779
 20
23.7016
 11
-27.9714
 21
23.1279
  0
LINE
  8
0
 10
-27.9714
 20
23.1279
 11
-29.4374
 21
24.9001
  0
LINE
  8
0
 10
-28.8755
 20
-25.3246
 11
-26.9336
 21
-24.0922
  0
LINE
  8
0
 10
-26.9336
 20
-24.0922
 11
-26.4513
 21
-24.8521
  0
LINE
  8
0
 10
-26.4513
 20
-24.8521
 11
-28.3933
 21
-26.0845
  0
LINE
  8
0
 10
-28.3933
 20
-26.0845
 11
-28.8755
 21
-25.3246
  0
LINE
  8
0
 10
-27.8159
 20
26.6994
 11
-27.0877
 21
27.2284
  0
LINE
  8
0
 10
-27.0877
 20
27.2284
 11
-25.7358
 21
25.3676
  0
LINE
  8
0
 10
-25.7358
 20
25.3676
 11
-26.4639
 21
24.8386
  0
LINE
  8
0
 10
-26.4639
 20
24.8386
 11
-27.8159
 21
26.6994
  0
LINE
  8
0
 10
-27.2284
 20
-27.0877
 11
-25.3676
 21
-25.7358
  0
LINE
  8
0
 10
-25.3676
 20
-25.7358
 11
-24.8386
 21
-26.4639
  0
LINE
  8
0
 10
-24.8386
 20
-26.4639
 11
-26.6994
 21
-27.8159
  0
LINE
  8
0
 10
-26.6994
 20
-27.8159
 11
-27.2284
 21
-27.0877
  0
LINE
  8
0
 10
-26.0845
 20
28.3933
 11
-25.3246
 21
28.8755
  0
LINE
  8
0
 10
-25.3246
 20
28.8755
 11
-24.0922
 21
26.9336
  0
LINE
  8
0
 10
-24.0922
 20
26.9336
 11
-24.8521
 21
26.4513
  0
LINE
  8
0
 10
-24.8521
 20
26.4513
 11
-26.0845
 21
28.3933
  0
LINE
  8
0
 10
-25.4738
 20
-28.744
 11
-23.7016
 21
-27.2779
  0
LINE
  8
0
 10
-23.7016
 20
-27.2779
 11
-23.1279
 21
-27.9714
  0
LINE
  8
0
 10
-23.1279
 20
-27.9714
 11
-24.9001
 21
-29.4374
  0
LINE
  8
0
 10
-24.9001
 20
-29.4374
 11
-25.4738
 21
-28.744
  0
LINE
  8
0
 10
-24.2502
 20
29.9751
 11
-23.4615
 21
30.4087
  0
LINE
  8
0
 10
-23.4615
 20
30.4087
 11
-22.3535
 21
28.3932
  0
LINE
  8
0
 10
-22.3535
 20
28.3932
 11
-23.1422
 21
27.9596
  0
LINE
  8
0
 10
-23.1422
 20
27.9596
 11
-24.2502
 21
29.9751
  0
LINE
  8
0
 10
-23.6187
 20
-30.2868
 11
-21.9421
 21
-28.7123
  0
LINE
  8
0
 10
-21.9421
 20
-28.7123
 11
-21.326
 21
-29.3684
  0
LINE
  8
0
 10
-21.326
 20
-29.3684
 11
-23.0026
 21
-30.9428
  0
LINE
  8
0
 10
-23.0026
 20
-30.9428
 11
-23.6187
 21
-30.2868
  0
LINE
  8
0
 10
-22.3202
 20
31.4386
 11
-21.5059
 21
31.8218
  0
LINE
  8
0
 10
-21.5059
 20
31.8218
 11
-20.5266
 21
29.7407
  0
LINE
  8
0
 10
-20.5266
 20
29.7407
 11
-21.3409
 21
29.3575
  0
LINE
  8
0
 10
-21.3409
 20
29.3575
 11
-22.3202
 21
31.4386
  0
LINE
  8
0
 10
-21.6704
 20
-31.71
 11
-20.0959
 21
-30.0334
  0
LINE
  8
0
 10
-20.0959
 20
-30.0334
 11
-19.4398
 21
-30.6495
  0
LINE
  8
0
 10
-19.4398
 20
-30.6495
 11
-21.0143
 21
-32.3261
  0
LINE
  8
0
 10
-21.0143
 20
-32.3261
 11
-21.6704
 21
-31.71
  0
LINE
  8
0
 10
-20.3021
 20
32.7781
 11
-19.4653
 21
33.1094
  0
LINE
  8
0
 10
-19.4653
 20
33.1094
 11
-18.6186
 21
30.9709
  0
LINE
  8
0
 10
-18.6186
 20
30.9709
 11
-19.4554
 21
30.6396
  0
LINE
  8
0
 10
-19.4554
 20
30.6396
 11
-20.3021
 21
32.7781
  0
LINE
  8
0
 10
-19.6365
 20
-33.0082
 11
-18.1704
 21
-31.236
  0
LINE
  8
0
 10
-18.1704
 20
-31.236
 11
-17.477
 21
-31.8097
  0
LINE
  8
0
 10
-17.477
 20
-31.8097
 11
-18.943
 21
-33.5818
  0
LINE
  8
0
 10
-18.943
 20
-33.5818
 11
-19.6365
 21
-33.0082
  0
LINE
  8
0
 10
-18.2039
 20
33.9882
 11
-17.3479
 21
34.2663
  0
LINE
  8
0
 10
-17.3479
 20
34.2663
 11
-16.6372
 21
32.0789
  0
LINE
  8
0
 10
-16.6372
 20
32.0789
 11
-17.4932
 21
31.8008
  0
LINE
  8
0
 10
-17.4932
 20
31.8008
 11
-18.2039
 21
33.9882
  0
LINE
  8
0
 10
-17.5252
 20
-34.176
 11
-16.1733
 21
-32.3153
  0
LINE
  8
0
 10
-16.1733
 20
-32.3153
 11
-15.4451
 21
-32.8443
  0
LINE
  8
0
 10
-15.4451
 20
-32.8443
 11
-16.797
 21
-34.705
  0
LINE
  8
0
 10
-16.797
 20
-34.705
 11
-17.5252
 21
-34.176
  0
LINE
  8
0
 10
-16.0338
 20
35.0642
 11
-15.1621
 21
35.288
  0
LINE
  8
0
 10
-15.1621
 20
35.288
 11
-14.5901
 21
33.0602
  0
LINE
  8
0
 10
-14.5901
 20
33.0602
 11
-15.4618
 21
32.8364
  0
LINE
  8
0
 10
-15.4618
 20
32.8364
 11
-16.0338
 21
35.0642
  0
LINE
  8
0
 10
-15.3446
 20
-35.209
 11
-14.1122
 21
-33.267
  0
LINE
  8
0
 10
-14.1122
 20
-33.267
 11
-13.3524
 21
-33.7493
  0
LINE
  8
0
 10
-13.3524
 20
-33.7493
 11
-14.5848
 21
-35.6912
  0
LINE
  8
0
 10
-14.5848
 20
-35.6912
 11
-15.3446
 21
-35.209
  0
LINE
  8
0
 10
-13.8005
 20
36.0017
 11
-12.9164
 21
36.1704
  0
LINE
  8
0
 10
-12.9164
 20
36.1704
 11
-12.4855
 21
33.9111
  0
LINE
  8
0
 10
-12.4855
 20
33.9111
 11
-13.3695
 21
33.7425
  0
LINE
  8
0
 10
-13.3695
 20
33.7425
 11
-13.8005
 21
36.0017
  0
LINE
  8
0
 10
-13.1036
 20
-36.103
 11
-11.9955
 21
-34.0875
  0
LINE
  8
0
 10
-11.9955
 20
-34.0875
 11
-11.2069
 21
-34.5211
  0
LINE
  8
0
 10
-11.2069
 20
-34.5211
 11
-12.3149
 21
-36.5366
  0
LINE
  8
0
 10
-12.3149
 20
-36.5366
 11
-13.1036
 21
-36.103
  0
LINE
  8
0
 10
-11.5127
 20
36.7972
 11
-10.6198
 21
36.91
  0
LINE
  8
0
 10
-10.6198
 20
36.91
 11
-10.3315
 21
34.6282
  0
LINE
  8
0
 10
-10.3315
 20
34.6282
 11
-11.2244
 21
34.5154
  0
LINE
  8
0
 10
-11.2244
 20
34.5154
 11
-11.5127
 21
36.7972
  0
LINE
  8
0
 10
-10.8108
 20
-36.8545
 11
-9.8315
 21
-34.7734
  0
LINE
  8
0
 10
-9.8315
 20
-34.7734
 11
-9.01716
 21
-35.1566
  0
LINE
  8
0
 10
-9.01716
 20
-35.1566
 11
-9.99645
 21
-37.2377
  0
LINE
  8
0
 10
-9.99645
 20
-37.2377
 11
-10.8108
 21
-36.8545
  0
LINE
  8
0
 10
-9.17946
 20
37.4475
 11
-8.28124
 21
37.504
  0
LINE
  8
0
 10
-8.28124
 20
37.504
 11
-8.13682
 21
35.2086
  0
LINE
  8
0
 10
-8.13682
 20
35.2086
 11
-9.03504
 21
35.152
  0
LINE
  8
0
 10
-9.03504
 20
35.152
 11
-9.17946
 21
37.4475
  0
LINE
  8
0
 10
-8.47535
 20
-37.4606
 11
-7.62866
 21
-35.3221
  0
LINE
  8
0
 10
-7.62866
 20
-35.3221
 11
-6.79186
 21
-35.6535
  0
LINE
  8
0
 10
-6.79186
 20
-35.6535
 11
-7.63855
 21
-37.7919
  0
LINE
  8
0
 10
-7.63855
 20
-37.7919
 11
-8.47535
 21
-37.4606
  0
LINE
  8
0
 10
-6.81
 20
35.65
 11
-6.81
 21
37.95
  0
LINE
  8
0
 10
-6.81
 20
37.95
 11
-5.91
 21
37.95
  0
LINE
  8
0
 10
-5.91
 20
37.95
 11
-5.91
 21
35.65
  0
LINE
  8
0
 10
-5.91
 20
35.65
 11
-6.81
 21
35.65
  0
LINE
  8
0
 10
-6.10645
 20
-37.9189
 11
-5.39571
 21
-35.7315
  0
LINE
  8
0
 10
-5.39571
 20
-35.7315
 11
-4.53976
 21
-36.0096
  0
LINE
  8
0
 10
-4.53976
 20
-36.0096
 11
-5.2505
 21
-38.197
  0
LINE
  8
0
 10
-5.2505
 20
-38.197
 11
-6.10645
 21
-37.9189
  0
LINE
  8
0
 10
-4.55808
 20
36.0073
 11
-4.41366
 21
38.3027
  0
LINE
  8
0
 10
-4.41366
 20
38.3027
 11
-3.51544
 21
38.2462
  0
LINE
  8
0
 10
-3.51544
 20
38.2462
 11
-3.65986
 21
35.9507
  0
LINE
  8
0
 10
-3.65986
 20
35.9507
 11
-4.55808
 21
36.0073
  0
LINE
  8
0
 10
-3.95
 20
-22
 11
-1.975
 21
-18.5792
  0
LINE
  8
0
 10
-1.975
 20
-18.5792
 11
1.975
 21
-18.5792
  0
LINE
  8
0
 10
1.975
 20
-18.5792
 11
3.95
 21
-22
  0
LINE
  8
0
 10
3.95
 20
-22
 11
1.975
 21
-25.4208
  0
LINE
  8
0
 10
1.975
 20
-25.4208
 11
-1.975
 21
-25.4208
  0
LINE
  8
0
 10
-1.975
 20
-25.4208
 11
-3.95
 21
-22
  0
LINE
  8
0
 10
-3.95
 20
22
 11
-1.975
 21
25.4208
  0
LINE
  8
0
 10
-1.975
 20
25.4208
 11
1.975
 21
25.4208
  0
LINE
  8
0
 10
1.975
 20
25.4208
 11
3.95
 21
22
  0
LINE
  8
0
 10
3.95
 20
22
 11
1.975
 21
18.5792
  0
LINE
  8
0
 10
1.975
 20
18.5792
 11
-1.975
 21
18.5792
  0
LINE
  8
0
 10
-1.975
 20
18.5792
 11
-3.95
 21
22
  0
LINE
  8
0
 10
-3.71345
 20
-38.2275
 11
-3.14147
 21
-35.9997
  0
LINE
  8
0
 10
-3.14147
 20
-35.9997
 11
-2.26974
 21
-36.2236
  0
LINE
  8
0
 10
-2.26974
 20
-36.2236
 11
-2.84173
 21
-38.4513
  0
LINE
  8
0
 10
-2.84173
 20
-38.4513
 11
-3.71345
 21
-38.2275
  0
LINE
  8
0
 10
-2.9
 20
0
 11
-2.89293
 21
0.202293
  0
LINE
  8
0
 10
-2.89293
 20
0.202293
 11
-2.87178
 21
0.403602
  0
LINE
  8
0
 10
-2.87178
 20
0.403602
 11
-2.83663
 21
0.602943
  0
LINE
  8
0
 10
-2.83663
 20
0.602943
 11
-2.78766
 21
0.799348
  0
LINE
  8
0
 10
-2.78766
 20
0.799348
 11
-2.72511
 21
0.991858
  0
LINE
  8
0
 10
-2.72511
 20
0.991858
 11
-2.64928
 21
1.17954
  0
LINE
  8
0
 10
-2.64928
 20
1.17954
 11
-2.56055
 21
1.36147
  0
LINE
  8
0
 10
-2.56055
 20
1.36147
 11
-2.45934
 21
1.53677
  0
LINE
  8
0
 10
-2.45934
 20
1.53677
 11
-2.34615
 21
1.70458
  0
LINE
  8
0
 10
-2.34615
 20
1.70458
 11
-2.22153
 21
1.86408
  0
LINE
  8
0
 10
-2.22153
 20
1.86408
 11
-2.08609
 21
2.01451
  0
LINE
  8
0
 10
-2.08609
 20
2.01451
 11
-1.94048
 21
2.15512
  0
LINE
  8
0
 10
-1.94048
 20
2.15512
 11
-1.78542
 21
2.28523
  0
LINE
  8
0
 10
-1.78542
 20
2.28523
 11
-1.62166
 21
2.40421
  0
LINE
  8
0
 10
-1.62166
 20
2.40421
 11
-1.45
 21
2.51147
  0
LINE
  8
0
 10
-1.45
 20
2.51147
 11
-1.27128
 21
2.6065
  0
LINE
  8
0
 10
-1.27128
 20
2.6065
 11
-1.08636
 21
2.68883
  0
LINE
  8
0
 10
-1.08636
 20
2.68883
 11
-0.896149
 21
2.75806
  0
LINE
  8
0
 10
-0.896149
 20
2.75806
 11
-0.701573
 21
2.81386
  0
LINE
  8
0
 10
-0.701573
 20
2.81386
 11
-0.503579
 21
2.85594
  0
LINE
  8
0
 10
-0.503579
 20
2.85594
 11
-0.303132
 21
2.88411
  0
LINE
  8
0
 10
-0.303132
 20
2.88411
 11
-0.101208
 21
2.89823
  0
LINE
  8
0
 10
-0.101208
 20
2.89823
 11
0.101208
 21
2.89823
  0
LINE
  8
0
 10
0.101208
 20
2.89823
 11
0.303132
 21
2.88411
  0
LINE
  8
0
 10
0.303132
 20
2.88411
 11
0.503579
 21
2.85594
  0
LINE
  8
0
 10
0.503579
 20
2.85594
 11
0.701573
 21
2.81386
  0
LINE
  8
0
 10
0.701573
 20
2.81386
 11
0.896149
 21
2.75806
  0
LINE
  8
0
 10
0.896149
 20
2.75806
 11
1.08636
 21
2.68883
  0
LINE
  8
0
 10
1.08636
 20
2.68883
 11
1.27128
 21
2.6065
  0
LINE
  8
0
 10
1.27128
 20
2.6065
 11
1.45
 21
2.51147
  0
LINE
  8
0
 10
1.45
 20
2.51147
 11
1.62166
 21
2.40421
  0
LINE
  8
0
 10
1.62166
 20
2.40421
 11
1.78542
 21
2.28523
  0
LINE
  8
0
 10
1.78542
 20
2.28523
 11
1.94048
 21
2.15512
  0
LINE
  8
0
 10
1.94048
 20
2.15512
 11
2.08609
 21
2.01451
  0
LINE
  8
0
 10
2.08609
 20
2.01451
 11
2.22153
 21
1.86408
  0
LINE
  8
0
 10
2.22153
 20
1.86408
 11
2.34615
 21
1.70458
  0
LINE
  8
0
 10
2.34615
 20
1.70458
 11
2.45934
 21
1.53677
  0
LINE
  8
0
 10
2.45934
 20
1.53677
 11
2.56055
 21
1.36147
  0
LINE
  8
0
 10
2.56055
 20
1.36147
 11
2.64928
 21
1.17954
  0
LINE
  8
0
 10
2.64928
 20
1.17954
 11
2.72511
 21
0.991858
  0
LINE
  8
0
 10
2.72511
 20
0.991858
 11
2.78766
 21
0.799348
  0
LINE
  8
0
 10
2.78766
 20
0.799348
 11
2.83663
 21
0.602943
  0
LINE
  8
0
 10
2.83663
 20
0.602943
 11
2.87178
 21
0.403602
  0
LINE
  8
0
 10
2.87178
 20
0.403602
 11
2.89293
 21
0.202293
  0
LINE
  8
0
 10
2.89293
 20
0.202293
 11
2.9
 21
0
  0
LINE
  8
0
 10
2.9
 20
0
 11
2.89293
 21
-0.202293
  0
LINE
  8
0
 10
2.89293
 20
-0.202293
 11
2.87178
 21
-0.403602
  0
LINE
  8
0
 10
2.87178
 20
-0.403602
 11
2.83663
 21
-0.602943
  0
LINE
  8
0
 10
2.83663
 20
-0.602943
 11
2.78766
 21
-0.799348
  0
LINE
  8
0
 10
2.78766
 20
-0.799348
 11
2.72511
 21
-0.991858
  0
LINE
  8
0
 10
2.72511
 20
-0.991858
 11
2.64928
 21
-1.17954
  0
LINE
  8
0
 10
2.64928
 20
-1.17954
 11
2.56055
 21
-1.36147
  0
LINE
  8
0
 10
2.56055
 20
-1.36147
 11
2.45934
 21
-1.53677
  0
LINE
  8
0
 10
2.45934
 20
-1.53677
 11
2.34615
 21
-1.70458
  0
LINE
  8
0
 10
2.34615
 20
-1.70458
 11
2.22153
 21
-1.86408
  0
LINE
  8
0
 10
2.22153
 20
-1.86408
 11
2.08609
 21
-2.01451
  0
LINE
  8
0
 10
2.08609
 20
-2.01451
 11
1.94048
 21
-2.15512
  0
LINE
  8
0
 10
1.94048
 20
-2.15512
 11
1.78542
 21
-2.28523
  0
LINE
  8
0
 10
1.78542
 20
-2.28523
 11
1.62166
 21
-2.40421
  0
LINE
  8
0
 10
1.62166
 20
-2.40421
 11
1.45
 21
-2.51147
  0
LINE
  8
0
 10
1.45
 20
-2.51147
 11
1.27128
 21
-2.6065
  0
LINE
  8
0
 10
1.27128
 20
-2.6065
 11
1.08636
 21
-2.68883
  0
LINE
  8
0
 10
1.08636
 20
-2.68883
 11
0.896149
 21
-2.75806
  0
LINE
  8
0
 10
0.896149
 20
-2.75806
 11
0.701573
 21
-2.81386
  0
LINE
  8
0
 10
0.701573
 20
-2.81386
 11
0.503579
 21
-2.85594
  0
LINE
  8
0
 10
0.503579
 20
-2.85594
 11
0.303132
 21
-2.88411
  0
LINE
  8
0
 10
0.303132
 20
-2.88411
 11
0.101208
 21
-2.89823
  0
LINE
  8
0
 10
0.101208
 20
-2.89823
 11
-0.101208
 21
-2.89823
  0
LINE
  8
0
 10
-0.101208
 20
-2.89823
 11
-0.303132
 21
-2.88411
  0
LINE
  8
0
 10
-0.303132
 20
-2.88411
 11
-0.503579
 21
-2.85594
  0
LINE
  8
0
 10
-0.503579
 20
-2.85594
 11
-0.701573
 21
-2.81386
  0
LINE
  8
0
 10
-0.701573
 20
-2.81386
 11
-0.896149
 21
-2.75806
  0
LINE
  8
0
 10
-0.896149
 20
-2.75806
 11
-1.08636
 21
-2.68883
  0
LINE
  8
0
 10
-1.08636
 20
-2.68883
 11
-1.27128
 21
-2.6065
  0
LINE
  8
0
 10
-1.27128
 20
-2.6065
 11
-1.45
 21
-2.51147
  0
LINE
  8
0
 10
-1.45
 20
-2.51147
 11
-1.62166
 21
-2.40421
  0
LINE
  8
0
 10
-1.62166
 20
-2.40421
 11
-1.78542
 21
-2.28523
  0
LINE
  8
0
 10
-1.78542
 20
-2.28523
 11
-1.94048
 21
-2.15512
  0
LINE
  8
0
 10
-1.94048
 20
-2.15512
 11
-2.08609
 21
-2.01451
  0
LINE
  8
0
 10
-2.08609
 20
-2.01451
 11
-2.22153
 21
-1.86408
  0
LINE
  8
0
 10
-2.22153
 20
-1.86408
 11
-2.34615
 21
-1.70458
  0
LINE
  8
0
 10
-2.34615
 20
-1.70458
 11
-2.45934
 21
-1.53677
  0
LINE
  8
0
 10
-2.45934
 20
-1.53677
 11
-2.56055
 21
-1.36147
  0
LINE
  8
0
 10
-2.56055
 20
-1.36147
 11
-2.64928
 21
-1.17954
  0
LINE
  8
0
 10
-2.64928
 20
-1.17954
 11
-2.72511
 21
-0.991858
  0
LINE
  8
0
 10
-2.72511
 20
-0.991858
 11
-2.78766
 21
-0.799348
  0
LINE
  8
0
 10
-2.78766
 20
-0.799348
 11
-2.83663
 21
-0.602943
  0
LINE
  8
0
 10
-2.83663
 20
-0.602943
 11
-2.87178
 21
-0.403602
  0
LINE
  8
0
 10
-2.87178
 20
-0.403602
 11
-2.89293
 21
-0.202293
  0
LINE
  8
0
 10
-2.89293
 20
-0.202293
 11
-2.9
 21
0
  0
LINE
  8
0
 10
-2.28817
 20
36.2224
 11
-1.9999
 21
38.5043
  0
LINE
  8
0
 10
-1.9999
 20
38.5043
 11
-1.107
 21
38.3915
  0
LINE
  8
0
 10
-1.107
 20
38.3915
 11
-1.39527
 21
36.1096
  0
LINE
  8
0
 10
-1.39527
 20
36.1096
 11
-2.28817
 21
36.2224
  0
LINE
  8
0
 10
-1.3058
 20
-38.3852
 11
-0.874825
 21
-36.126
  0
LINE
  8
0
 10
-0.874825
 20
-36.126
 11
0.00923157
 21
-36.2946
  0
LINE
  8
0
 10
0.00923157
 20
-36.2946
 11
-0.421744
 21
-38.5539
  0
LINE
  8
0
 10
-0.421744
 20
-38.5539
 11
-1.3058
 21
-38.3852
  0
LINE
  8
0
 10
-0.00923157
 20
36.2946
 11
0.421744
 21
38.5539
  0
LINE
  8
0
 10
0.421744
 20
38.5539
 11
1.3058
 21
38.3852
  0
LINE
  8
0
 10
1.3058
 20
38.3852
 11
0.874825
 21
36.126
  0
LINE
  8
0
 10
0.874825
 20
36.126
 11
-0.00923157
 21
36.2946
  0
LINE
  8
0
 10
1.107
 20
-38.3915
 11
1.39527
 21
-36.1096
  0
LINE
  8
0
 10
1.39527
 20
-36.1096
 11
2.28817
 21
-36.2224
  0
LINE
  8
0
 10
2.28817
 20
-36.2224
 11
1.9999
 21
-38.5043
  0
LINE
  8
0
 10
1.9999
 20
-38.5043
 11
1.107
 21
-38.3915
  0
LINE
  8
0
 10
2.26974
 20
36.2236
 11
2.84173
 21
38.4513
  0
LINE
  8
0
 10
2.84173
 20
38.4513
 11
3.71345
 21
38.2275
  0
LINE
  8
0
 10
3.71345
 20
38.2275
 11
3.14147
 21
35.9997
  0
LINE
  8
0
 10
3.14147
 20
35.9997
 11
2.26974
 21
36.2236
  0
LINE
  8
0
 10
3.51544
 20
-38.2462
 11
3.65986
 21
-35.9507
  0
LINE
  8
0
 10
3.65986
 20
-35.9507
 11
4.55808
 21
-36.0073
  0
LINE
  8
0
 10
4.55808
 20
-36.0073
 11
4.41366
 21
-38.3027
  0
LINE
  8
0
 10
4.41366
 20
-38.3027
 11
3.51544
 21
-38.2462
  0
LINE
  8
0
 10
4.53976
 20
36.0096
 11
5.2505
 21
38.197
  0
LINE
  8
0
 10
5.2505
 20
38.197
 11
6.10645
 21
37.9189
  0
LINE
  8
0
 10
6.10645
 20
37.9189
 11
5.39571
 21
35.7315
  0
LINE
  8
0
 10
5.39571
 20
35.7315
 11
4.53976
 21
36.0096
  0
LINE
  8
0
 10
5.91
 20
-37.95
 11
5.91
 21
-35.65
  0
LINE
  8
0
 10
5.91
 20
-35.65
 11
6.81
 21
-35.65
  0
LINE
  8
0
 10
6.81
 20
-35.65
 11
6.81
 21
-37.95
  0
LINE
  8
0
 10
6.81
 20
-37.95
 11
5.91
 21
-37.95
  0
LINE
  8
0
 10
6.79186
 20
35.6535
 11
7.63855
 21
37.7919
  0
LINE
  8
0
 10
7.63855
 20
37.7919
 11
8.47535
 21
37.4606
  0
LINE
  8
0
 10
8.47535
 20
37.4606
 11
7.62866
 21
35.3221
  0
LINE
  8
0
 10
7.62866
 20
35.3221
 11
6.79186
 21
35.6535
  0
LINE
  8
0
 10
8.13682
 20
-35.2086
 11
9.03504
 21
-35.152
  0
LINE
  8
0
 10
9.03504
 20
-35.152
 11
9.17946
 21
-37.4475
  0
LINE
  8
0
 10
9.17946
 20
-37.4475
 11
8.28124
 21
-37.504
  0
LINE
  8
0
 10
8.28124
 20
-37.504
 11
8.13682
 21
-35.2086
  0
LINE
  8
0
 10
9.01716
 20
35.1566
 11
9.99645
 21
37.2377
  0
LINE
  8
0
 10
9.99645
 20
37.2377
 11
10.8108
 21
36.8545
  0
LINE
  8
0
 10
10.8108
 20
36.8545
 11
9.8315
 21
34.7734
  0
LINE
  8
0
 10
9.8315
 20
34.7734
 11
9.01716
 21
35.1566
  0
LINE
  8
0
 10
10.3315
 20
-34.6282
 11
11.2244
 21
-34.5154
  0
LINE
  8
0
 10
11.2244
 20
-34.5154
 11
11.5127
 21
-36.7972
  0
LINE
  8
0
 10
11.5127
 20
-36.7972
 11
10.6198
 21
-36.91
  0
LINE
  8
0
 10
10.6198
 20
-36.91
 11
10.3315
 21
-34.6282
  0
LINE
  8
0
 10
11.2069
 20
34.5211
 11
12.3149
 21
36.5366
  0
LINE
  8
0
 10
12.3149
 20
36.5366
 11
13.1036
 21
36.103
  0
LINE
  8
0
 10
13.1036
 20
36.103
 11
11.9955
 21
34.0875
  0
LINE
  8
0
 10
11.9955
 20
34.0875
 11
11.2069
 21
34.5211
  0
LINE
  8
0
 10
12.4855
 20
-33.9111
 11
13.3695
 21
-33.7425
  0
LINE
  8
0
 10
13.3695
 20
-33.7425
 11
13.8005
 21
-36.0017
  0
LINE
  8
0
 10
13.8005
 20
-36.0017
 11
12.9164
 21
-36.1704
  0
LINE
  8
0
 10
12.9164
 20
-36.1704
 11
12.4855
 21
-33.9111
  0
LINE
  8
0
 10
13.3524
 20
33.7493
 11
14.5848
 21
35.6912
  0
LINE
  8
0
 10
14.5848
 20
35.6912
 11
15.3446
 21
35.209
  0
LINE
  8
0
 10
15.3446
 20
35.209
 11
14.1122
 21
33.267
  0
LINE
  8
0
 10
14.1122
 20
33.267
 11
13.3524
 21
33.7493
  0
LINE
  8
0
 10
14.5901
 20
-33.0602
 11
15.4618
 21
-32.8364
  0
LINE
  8
0
 10
15.4618
 20
-32.8364
 11
16.0338
 21
-35.0642
  0
LINE
  8
0
 10
16.0338
 20
-35.0642
 11
15.1621
 21
-35.288
  0
LINE
  8
0
 10
15.1621
 20
-35.288
 11
14.5901
 21
-33.0602
  0
LINE
  8
0
 10
15.4451
 20
32.8443
 11
16.797
 21
34.705
  0
LINE
  8
0
 10
16.797
 20
34.705
 11
17.5252
 21
34.176
  0
LINE
  8
0
 10
17.5252
 20
34.176
 11
16.1733
 21
32.3153
  0
LINE
  8
0
 10
16.1733
 20
32.3153
 11
15.4451
 21
32.8443
  0
LINE
  8
0
 10
16.6372
 20
-32.0789
 11
17.4932
 21
-31.8008
  0
LINE
  8
0
 10
17.4932
 20
-31.8008
 11
18.2039
 21
-33.9882
  0
LINE
  8
0
 10
18.2039
 20
-33.9882
 11
17.3479
 21
-34.2663
  0
LINE
  8
0
 10
17.3479
 20
-34.2663
 11
16.6372
 21
-32.0789
  0
LINE
  8
0
 10
17.477
 20
31.8097
 11
18.943
 21
33.5818
  0
LINE
  8
0
 10
18.943
 20
33.5818
 11
19.6365
 21
33.0082
  0
LINE
  8
0
 10
19.6365
 20
33.0082
 11
18.1704
 21
31.236
  0
LINE
  8
0
 10
18.1704
 20
31.236
 11
17.477
 21
31.8097
  0
LINE
  8
0
 10
18.6186
 20
-30.9709
 11
19.4554
 21
-30.6396
  0
LINE
  8
0
 10
19.4554
 20
-30.6396
 11
20.3021
 21
-32.7781
  0
LINE
  8
0
 10
20.3021
 20
-32.7781
 11
19.4653
 21
-33.1094
  0
LINE
  8
0
 10
19.4653
 20
-33.1094
 11
18.6186
 21
-30.9709
  0
LINE
  8
0
 10
19.4398
 20
30.6495
 11
21.0143
 21
32.3261
  0
LINE
  8
0
 10
21.0143
 20
32.3261
 11
21.6704
 21
31.71
  0
LINE
  8
0
 10
21.6704
 20
31.71
 11
20.0959
 21
30.0334
  0
LINE
  8
0
 10
20.0959
 20
30.0334
 11
19.4398
 21
30.6495
  0
LINE
  8
0
 10
20.5266
 20
-29.7407
 11
21.3409
 21
-29.3575
  0
LINE
  8
0
 10
21.3409
 20
-29.3575
 11
22.3202
 21
-31.4386
  0
LINE
  8
0
 10
22.3202
 20
-31.4386
 11
21.5059
 21
-31.8218
  0
LINE
  8
0
 10
21.5059
 20
-31.8218
 11
20.5266
 21
-29.7407
  0
LINE
  8
0
 10
21.326
 20
29.3684
 11
23.0026
 21
30.9428
  0
LINE
  8
0
 10
23.0026
 20
30.9428
 11
23.6187
 21
30.2868
  0
LINE
  8
0
 10
23.6187
 20
30.2868
 11
21.9421
 21
28.7123
  0
LINE
  8
0
 10
21.9421
 20
28.7123
 11
21.326
 21
29.3684
  0
LINE
  8
0
 10
22.3535
 20
-28.3932
 11
23.1422
 21
-27.9596
  0
LINE
  8
0
 10
23.1422
 20
-27.9596
 11
24.2502
 21
-29.9751
  0
LINE
  8
0
 10
24.2502
 20
-29.9751
 11
23.4615
 21
-30.4087
  0
LINE
  8
0
 10
23.4615
 20
-30.4087
 11
22.3535
 21
-28.3932
  0
LINE
  8
0
 10
23.1279
 20
27.9714
 11
24.9001
 21
29.4374
  0
LINE
  8
0
 10
24.9001
 20
29.4374
 11
25.4738
 21
28.744
  0
LINE
  8
0
 10
25.4738
 20
28.744
 11
23.7016
 21
27.2779
  0
LINE
  8
0
 10
23.7016
 20
27.2779
 11
23.1279
 21
27.9714
  0
LINE
  8
0
 10
24.0922
 20
-26.9336
 11
24.8521
 21
-26.4513
  0
LINE
  8
0
 10
24.8521
 20
-26.4513
 11
26.0845
 21
-28.3933
  0
LINE
  8
0
 10
26.0845
 20
-28.3933
 11
25.3246
 21
-28.8755
  0
LINE
  8
0
 10
25.3246
 20
-28.8755
 11
24.0922
 21
-26.9336
  0
LINE
  8
0
 10
24.8386
 20
26.4639
 11
26.6994
 21
27.8159
  0
LINE
  8
0
 10
26.6994
 20
27.8159
 11
27.2284
 21
27.0877
  0
LINE
  8
0
 10
27.2284
 20
27.0877
 11
25.3676
 21
25.7358
  0
LINE
  8
0
 10
25.3676
 20
25.7358
 11
24.8386
 21
26.4639
  0
LINE
  8
0
 10
25.7358
 20
-25.3676
 11
26.4639
 21
-24.8386
  0
LINE
  8
0
 10
26.4639
 20
-24.8386
 11
27.8159
 21
-26.6994
  0
LINE
  8
0
 10
27.8159
 20
-26.6994
 11
27.0877
 21
-27.2284
  0
LINE
  8
0
 10
27.0877
 20
-27.2284
 11
25.7358
 21
-25.3676
  0
LINE
  8
0
 10
26.4513
 20
24.8521
 11
28.3933
 21
26.0845
  0
LINE
  8
0
 10
28.3933
 20
26.0845
 11
28.8755
 21
25.3246
  0
LINE
  8
0
 10
28.8755
 20
25.3246
 11
26.9336
 21
24.0922
  0
LINE
  8
0
 10
26.9336
 20
24.0922
 11
26.4513
 21
24.8521
  0
LINE
  8
0
 10
27.2779
 20
-23.7016
 11
27.9714
 21
-23.1279
  0
LINE
  8
0
 10
27.9714
 20
-23.1279
 11
29.4374
 21
-24.9001
  0
LINE
  8
0
 10
29.4374
 20
-24.9001
 11
28.744
 21
-25.4738
  0
LINE
  8
0
 10
28.744
 20
-25.4738
 11
27.2779
 21
-23.7016
  0
LINE
  8
0
 10
27.9596
 20
23.1422
 11
29.9751
 21
24.2502
  0
LINE
  8
0
 10
29.9751
 20
24.2502
 11
30.4087
 21
23.4615
  0
LINE
  8
0
 10
30.4087
 20
23.4615
 11
28.3932
 21
22.3535
  0
LINE
  8
0
 10
28.3932
 20
22.3535
 11
27.9596
 21
23.1422
  0
LINE
  8
0
 10
28.7123
 20
-21.9421
 11
29.3684
 21
-21.326
  0
LINE
  8
0
 10
29.3684
 20
-21.326
 11
30.9428
 21
-23.0026
  0
LINE
  8
0
 10
30.9428
 20
-23.0026
 11
30.2868
 21
-23.6187
  0
LINE
  8
0
 10
30.2868
 20
-23.6187
 11
28.7123
 21
-21.9421
  0
LINE
  8
0
 10
29.3575
 20
21.3409
 11
31.4386
 21
22.3202
  0
LINE
  8
0
 10
31.4386
 20
22.3202
 11
31.8218
 21
21.5059
  0
LINE
  8
0
 10
31.8218
 20
21.5059
 11
29.7407
 21
20.5266
  0
LINE
  8
0
 10
29.7407
 20
20.5266
 11
29.3575
 21
21.3409
  0
LINE
  8
0
 10
30.0334
 20
-20.0959
 11
30.6495
 21
-19.4398
  0
LINE
  8
0
 10
30.6495
 20
-19.4398
 11
32.3261
 21
-21.0143
  0
LINE
  8
0
 10
32.3261
 20
-21.0143
 11
31.71
 21
-21.6704
  0
LINE
  8
0
 10
31.71
 20
-21.6704
 11
30.0334
 21
-20.0959
  0
LINE
  8
0
 10
30.6396
 20
19.4554
 11
32.7781
 21
20.3021
  0
LINE
  8
0
 10
32.7781
 20
20.3021
 11
33.1094
 21
19.4653
  0
LINE
  8
0
 10
33.1094
 20
19.4653
 11
30.9709
 21
18.6186
  0
LINE
  8
0
 10
30.9709
 20
18.6186
 11
30.6396
 21
19.4554
  0
LINE
  8
0
 10
31.236
 20
-18.1704
 11
31.8097
 21
-17.477
  0
LINE
  8
0
 10
31.8097
 20
-17.477
 11
33.5818
 21
-18.943
  0
LINE
  8
0
 10
33.5818
 20
-18.943
 11
33.0082
 21
-19.6365
  0
LINE
  8
0
 10
33.0082
 20
-19.6365
 11
31.236
 21
-18.1704
  0
LINE
  8
0
 10
31.8008
 20
17.4932
 11
33.9882
 21
18.2039
  0
LINE
  8
0
 10
33.9882
 20
18.2039
 11
34.2663
 21
17.3479
  0
LINE
  8
0
 10
34.2663
 20
17.3479
 11
32.0789
 21
16.6372
  0
LINE
  8
0
 10
32.0789
 20
16.6372
 11
31.8008
 21
17.4932
  0
LINE
  8
0
 10
32.3153
 20
-16.1733
 11
32.8443
 21
-15.4451
  0
LINE
  8
0
 10
32.8443
 20
-15.4451
 11
34.705
 21
-16.797
  0
LINE
  8
0
 10
34.705
 20
-16.797
 11
34.176
 21
-17.5252
  0
LINE
  8
0
 10
34.176
 20
-17.5252
 11
32.3153
 21
-16.1733
  0
LINE
  8
0
 10
32.65
 20
-0.45
 11
32.65
 21
0.45
  0
LINE
  8
0
 10
32.65
 20
0.45
 11
34.95
 21
0.45
  0
LINE
  8
0
 10
34.95
 20
0.45
 11
34.95
 21
-0.45
  0
LINE
  8
0
 10
34.95
 20
-0.45
 11
32.65
 21
-0.45
  0
LINE
  8
0
 10
32.8364
 20
15.4618
 11
35.0642
 21
16.0338
  0
LINE
  8
0
 10
35.0642
 20
16.0338
 11
35.288
 21
15.1621
  0
LINE
  8
0
 10
35.288
 20
15.1621
 11
33.0602
 21
14.5901
  0
LINE
  8
0
 10
33.0602
 20
14.5901
 11
32.8364
 21
15.4618
  0
LINE
  8
0
 10
33.267
 20
-14.1122
 11
33.7493
 21
-13.3524
  0
LINE
  8
0
 10
33.7493
 20
-13.3524
 11
35.6912
 21
-14.5848
  0
LINE
  8
0
 10
35.6912
 20
-14.5848
 11
35.209
 21
-15.3446
  0
LINE
  8
0
 10
35.209
 20
-15.3446
 11
33.267
 21
-14.1122
  0
LINE
  8
0
 10
33.7425
 20
13.3695
 11
36.0017
 21
13.8005
  0
LINE
  8
0
 10
36.0017
 20
13.8005
 11
36.1704
 21
12.9164
  0
LINE
  8
0
 10
36.1704
 20
12.9164
 11
33.9111
 21
12.4855
  0
LINE
  8
0
 10
33.9111
 20
12.4855
 11
33.7425
 21
13.3695
  0
LINE
  8
0
 10
34.0875
 20
-11.9955
 11
34.5211
 21
-11.2069
  0
LINE
  8
0
 10
34.5211
 20
-11.2069
 11
36.5366
 21
-12.3149
  0
LINE
  8
0
 10
36.5366
 20
-12.3149
 11
36.103
 21
-13.1036
  0
LINE
  8
0
 10
36.103
 20
-13.1036
 11
34.0875
 21
-11.9955
  0
LINE
  8
0
 10
34.5154
 20
11.2244
 11
36.7972
 21
11.5127
  0
LINE
  8
0
 10
36.7972
 20
11.5127
 11
36.91
 21
10.6198
  0
LINE
  8
0
 10
36.91
 20
10.6198
 11
34.6282
 21
10.3315
  0
LINE
  8
0
 10
34.6282
 20
10.3315
 11
34.5154
 21
11.2244
  0
LINE
  8
0
 10
34.7734
 20
-9.8315
 11
35.1566
 21
-9.01716
  0
LINE
  8
0
 10
35.1566
 20
-9.01716
 11
37.2377
 21
-9.99645
  0
LINE
  8
0
 10
37.2377
 20
-9.99645
 11
36.8545
 21
-10.8108
  0
LINE
  8
0
 10
36.8545
 20
-10.8108
 11
34.7734
 21
-9.8315
  0
LINE
  8
0
 10
35.152
 20
9.03504
 11
37.4475
 21
9.17946
  0
LINE
  8
0
 10
37.4475
 20
9.17946
 11
37.504
 21
8.28124
  0
LINE
  8
0
 10
37.504
 20
8.28124
 11
35.2086
 21
8.13682
  0
LINE
  8
0
 10
35.2086
 20
8.13682
 11
35.152
 21
9.03504
  0
LINE
  8
0
 10
35.3221
 20
-7.62866
 11
35.6535
 21
-6.79186
  0
LINE
  8
0
 10
35.6535
 20
-6.79186
 11
37.7919
 21
-7.63855
  0
LINE
  8
0
 10
37.7919
 20
-7.63855
 11
37.4606
 21
-8.47535
  0
LINE
  8
0
 10
37.4606
 20
-8.47535
 11
35.3221
 21
-7.62866
  0
LINE
  8
0
 10
35.65
 20
5.91
 11
35.65
 21
6.81
  0
LINE
  8
0
 10
35.65
 20
6.81
 11
37.95
 21
6.81
  0
LINE
  8
0
 10
37.95
 20
6.81
 11
37.95
 21
5.91
  0
LINE
  8
0
 10
37.95
 20
5.91
 11
35.65
 21
5.91
  0
LINE
  8
0
 10
35.7315
 20
-5.39571
 11
36.0096
 21
-4.53976
  0
LINE
  8
0
 10
36.0096
 20
-4.53976
 11
38.197
 21
-5.2505
  0
LINE
  8
0
 10
38.197
 20
-5.2505
 11
37.9189
 21
-6.10645
  0
LINE
  8
0
 10
37.9189
 20
-6.10645
 11
35.7315
 21
-5.39571
  0
LINE
  8
0
 10
35.9507
 20
3.65986
 11
36.0073
 21
4.55808
  0
LINE
  8
0
 10
36.0073
 20
4.55808
 11
38.3027
 21
4.41366
  0
LINE
  8
0
 10
38.3027
 20
4.41366
 11
38.2462
 21
3.51544
  0
LINE
  8
0
 10
38.2462
 20
3.51544
 11
35.9507
 21
3.65986
  0
LINE
  8
0
 10
35.9997
 20
-3.14147
 11
36.2236
 21
-2.26974
  0
LINE
  8
0
 10
36.2236
 20
-2.26974
 11
38.4513
 21
-2.84173
  0
LINE
  8
0
 10
38.4513
 20
-2.84173
 11
38.2275
 21
-3.71345
  0
LINE
  8
0
 10
38.2275
 20
-3.71345
 11
35.9997
 21
-3.14147
  0
LINE
  8
0
 10
36.1096
 20
1.39527
 11
36.2224
 21
2.28817
  0
LINE
  8
0
 10
36.2224
 20
2.28817
 11
38.5043
 21
1.9999
  0
LINE
  8
0
 10
38.5043
 20
1.9999
 11
38.3915
 21
1.107
  0
LINE
  8
0
 10
38.3915
 20
1.107
 11
36.1096
 21
1.39527
  0
LINE
  8
0
 10
36.126
 20
-0.874825
 11
36.2946
 21
0.00923157
  0
LINE
  8
0
 10
36.2946
 20
0.00923157
 11
38.5539
 21
-0.421744
  0
LINE
  8
0
 10
38.5539
 20
-0.421744
 11
38.3852
 21
-1.3058
  0
LINE
  8
0
 10
38.3852
 20
-1.3058
 11
36.126
 21
-0.874825
  0
ENDSEC
  0
SECTION
  2
OBJECTS
  0
DICTIONARY
  0
ENDSEC
  0
EOF
