  0
SECTION
  2
BLOCKS
  0
ENDSEC
  0
SECTION
  2
ENTITIES
  0
LINE
  8
0
 10
-46.575
 20
-90.0701
 11
-7.5
 21
-90.0701
  0
LINE
  8
0
 10
-7.5
 20
-90.0701
 11
-7.5
 21
-93.075
  0
LINE
  8
0
 10
-7.5
 20
-93.075
 11
7.5
 21
-93.075
  0
LINE
  8
0
 10
7.5
 20
-93.075
 11
7.5
 21
-90.0701
  0
LINE
  8
0
 10
7.5
 20
-90.0701
 11
46.575
 21
-90.0701
  0
LINE
  8
0
 10
46.575
 20
-90.0701
 11
46.575
 21
-93.075
  0
LINE
  8
0
 10
46.575
 20
-93.075
 11
61.575
 21
-93.075
  0
LINE
  8
0
 10
61.575
 20
-93.075
 11
61.575
 21
-90.0701
  0
LINE
  8
0
 10
61.575
 20
-90.0701
 11
72.3827
 21
-90.0701
  0
LINE
  8
0
 10
72.3827
 20
-90.0701
 11
72.9467
 21
-90.0306
  0
LINE
  8
0
 10
72.9467
 20
-90.0306
 11
73.5065
 21
-89.9519
  0
LINE
  8
0
 10
73.5065
 20
-89.9519
 11
74.0596
 21
-89.8344
  0
LINE
  8
0
 10
74.0596
 20
-89.8344
 11
74.603
 21
-89.6786
  0
LINE
  8
0
 10
74.603
 20
-89.6786
 11
75.1343
 21
-89.4852
  0
LINE
  8
0
 10
75.1343
 20
-89.4852
 11
75.6508
 21
-89.2552
  0
LINE
  8
0
 10
75.6508
 20
-89.2552
 11
76.15
 21
-88.9898
  0
LINE
  8
0
 10
76.15
 20
-88.9898
 11
76.6295
 21
-88.6902
  0
LINE
  8
0
 10
76.6295
 20
-88.6902
 11
77.0869
 21
-88.3579
  0
LINE
  8
0
 10
77.0869
 20
-88.3579
 11
77.52
 21
-87.9945
  0
LINE
  8
0
 10
77.52
 20
-87.9945
 11
77.9267
 21
-87.6017
  0
LINE
  8
0
 10
77.9267
 20
-87.6017
 11
78.305
 21
-87.1816
  0
LINE
  8
0
 10
78.305
 20
-87.1816
 11
78.653
 21
-86.7361
  0
LINE
  8
0
 10
78.653
 20
-86.7361
 11
78.9692
 21
-86.2673
  0
LINE
  8
0
 10
78.9692
 20
-86.2673
 11
79.2519
 21
-85.7777
  0
LINE
  8
0
 10
79.2519
 20
-85.7777
 11
79.4997
 21
-85.2696
  0
LINE
  8
0
 10
79.4997
 20
-85.2696
 11
79.7115
 21
-84.7454
  0
LINE
  8
0
 10
79.7115
 20
-84.7454
 11
79.8862
 21
-84.2077
  0
LINE
  8
0
 10
79.8862
 20
-84.2077
 11
80.023
 21
-83.6591
  0
LINE
  8
0
 10
80.023
 20
-83.6591
 11
80.1212
 21
-83.1023
  0
LINE
  8
0
 10
80.1212
 20
-83.1023
 11
80.1803
 21
-82.54
  0
LINE
  8
0
 10
80.1803
 20
-82.54
 11
80.2
 21
-81.975
  0
LINE
  8
0
 10
80.2
 20
-81.975
 11
80.19
 21
-81.975
  0
LINE
  8
0
 10
80.19
 20
-81.975
 11
80.19
 21
-74.4982
  0
LINE
  8
0
 10
80.19
 20
-74.4982
 11
66.0953
 21
-74.4982
  0
LINE
  8
0
 10
66.0953
 20
-74.4982
 11
65.8864
 21
-74.4836
  0
LINE
  8
0
 10
65.8864
 20
-74.4836
 11
65.679
 21
-74.4544
  0
LINE
  8
0
 10
65.679
 20
-74.4544
 11
65.4742
 21
-74.4109
  0
LINE
  8
0
 10
65.4742
 20
-74.4109
 11
65.2729
 21
-74.3532
  0
LINE
  8
0
 10
65.2729
 20
-74.3532
 11
65.0762
 21
-74.2816
  0
LINE
  8
0
 10
65.0762
 20
-74.2816
 11
64.8849
 21
-74.1964
  0
LINE
  8
0
 10
64.8849
 20
-74.1964
 11
64.7
 21
-74.0981
  0
LINE
  8
0
 10
64.7
 20
-74.0981
 11
64.5224
 21
-73.9871
  0
LINE
  8
0
 10
64.5224
 20
-73.9871
 11
64.353
 21
-73.864
  0
LINE
  8
0
 10
64.353
 20
-73.864
 11
64.1926
 21
-73.7294
  0
LINE
  8
0
 10
64.1926
 20
-73.7294
 11
64.042
 21
-73.584
  0
LINE
  8
0
 10
64.042
 20
-73.584
 11
63.9019
 21
-73.4284
  0
LINE
  8
0
 10
63.9019
 20
-73.4284
 11
63.7729
 21
-73.2634
  0
LINE
  8
0
 10
63.7729
 20
-73.2634
 11
63.6559
 21
-73.0898
  0
LINE
  8
0
 10
63.6559
 20
-73.0898
 11
63.5511
 21
-72.9084
  0
LINE
  8
0
 10
63.5511
 20
-72.9084
 11
63.4594
 21
-72.7202
  0
LINE
  8
0
 10
63.4594
 20
-72.7202
 11
63.3809
 21
-72.5261
  0
LINE
  8
0
 10
63.3809
 20
-72.5261
 11
63.3162
 21
-72.3269
  0
LINE
  8
0
 10
63.3162
 20
-72.3269
 11
63.2655
 21
-72.1237
  0
LINE
  8
0
 10
63.2655
 20
-72.1237
 11
63.2292
 21
-71.9175
  0
LINE
  8
0
 10
63.2292
 20
-71.9175
 11
63.2073
 21
-71.7093
  0
LINE
  8
0
 10
63.2073
 20
-71.7093
 11
63.2
 21
-71.5
  0
LINE
  8
0
 10
63.2
 20
-71.5
 11
63.2
 21
-48.5
  0
LINE
  8
0
 10
63.2
 20
-48.5
 11
63.2073
 21
-48.2907
  0
LINE
  8
0
 10
63.2073
 20
-48.2907
 11
63.2292
 21
-48.0825
  0
LINE
  8
0
 10
63.2292
 20
-48.0825
 11
63.2655
 21
-47.8763
  0
LINE
  8
0
 10
63.2655
 20
-47.8763
 11
63.3162
 21
-47.6731
  0
LINE
  8
0
 10
63.3162
 20
-47.6731
 11
63.3809
 21
-47.4739
  0
LINE
  8
0
 10
63.3809
 20
-47.4739
 11
63.4594
 21
-47.2798
  0
LINE
  8
0
 10
63.4594
 20
-47.2798
 11
63.5511
 21
-47.0916
  0
LINE
  8
0
 10
63.5511
 20
-47.0916
 11
63.6559
 21
-46.9102
  0
LINE
  8
0
 10
63.6559
 20
-46.9102
 11
63.7729
 21
-46.7366
  0
LINE
  8
0
 10
63.7729
 20
-46.7366
 11
63.9019
 21
-46.5716
  0
LINE
  8
0
 10
63.9019
 20
-46.5716
 11
64.042
 21
-46.416
  0
LINE
  8
0
 10
64.042
 20
-46.416
 11
64.1926
 21
-46.2706
  0
LINE
  8
0
 10
64.1926
 20
-46.2706
 11
64.353
 21
-46.136
  0
LINE
  8
0
 10
64.353
 20
-46.136
 11
64.5224
 21
-46.0129
  0
LINE
  8
0
 10
64.5224
 20
-46.0129
 11
64.7
 21
-45.9019
  0
LINE
  8
0
 10
64.7
 20
-45.9019
 11
64.8849
 21
-45.8036
  0
LINE
  8
0
 10
64.8849
 20
-45.8036
 11
65.0762
 21
-45.7184
  0
LINE
  8
0
 10
65.0762
 20
-45.7184
 11
65.2729
 21
-45.6468
  0
LINE
  8
0
 10
65.2729
 20
-45.6468
 11
65.4742
 21
-45.5891
  0
LINE
  8
0
 10
65.4742
 20
-45.5891
 11
65.679
 21
-45.5456
  0
LINE
  8
0
 10
65.679
 20
-45.5456
 11
65.8864
 21
-45.5164
  0
LINE
  8
0
 10
65.8864
 20
-45.5164
 11
66.0953
 21
-45.5018
  0
LINE
  8
0
 10
66.0953
 20
-45.5018
 11
80.19
 21
-45.5018
  0
LINE
  8
0
 10
80.19
 20
-45.5018
 11
80.19
 21
-39.995
  0
LINE
  8
0
 10
80.19
 20
-39.995
 11
75.7
 21
-39.995
  0
LINE
  8
0
 10
75.7
 20
-39.995
 11
75.7
 21
10.405
  0
LINE
  8
0
 10
75.7
 20
10.405
 11
80.19
 21
10.405
  0
LINE
  8
0
 10
80.19
 20
10.405
 11
80.19
 21
14.8268
  0
LINE
  8
0
 10
80.19
 20
14.8268
 11
66.0953
 21
14.8268
  0
LINE
  8
0
 10
66.0953
 20
14.8268
 11
65.8864
 21
14.8414
  0
LINE
  8
0
 10
65.8864
 20
14.8414
 11
65.679
 21
14.8706
  0
LINE
  8
0
 10
65.679
 20
14.8706
 11
65.4742
 21
14.9141
  0
LINE
  8
0
 10
65.4742
 20
14.9141
 11
65.2729
 21
14.9718
  0
LINE
  8
0
 10
65.2729
 20
14.9718
 11
65.0762
 21
15.0434
  0
LINE
  8
0
 10
65.0762
 20
15.0434
 11
64.8849
 21
15.1286
  0
LINE
  8
0
 10
64.8849
 20
15.1286
 11
64.7
 21
15.2269
  0
LINE
  8
0
 10
64.7
 20
15.2269
 11
64.5224
 21
15.3379
  0
LINE
  8
0
 10
64.5224
 20
15.3379
 11
64.353
 21
15.461
  0
LINE
  8
0
 10
64.353
 20
15.461
 11
64.1926
 21
15.5956
  0
LINE
  8
0
 10
64.1926
 20
15.5956
 11
64.042
 21
15.741
  0
LINE
  8
0
 10
64.042
 20
15.741
 11
63.9019
 21
15.8966
  0
LINE
  8
0
 10
63.9019
 20
15.8966
 11
63.7729
 21
16.0616
  0
LINE
  8
0
 10
63.7729
 20
16.0616
 11
63.6559
 21
16.2352
  0
LINE
  8
0
 10
63.6559
 20
16.2352
 11
63.5511
 21
16.4166
  0
LINE
  8
0
 10
63.5511
 20
16.4166
 11
63.4594
 21
16.6048
  0
LINE
  8
0
 10
63.4594
 20
16.6048
 11
63.3809
 21
16.7989
  0
LINE
  8
0
 10
63.3809
 20
16.7989
 11
63.3162
 21
16.9981
  0
LINE
  8
0
 10
63.3162
 20
16.9981
 11
63.2655
 21
17.2013
  0
LINE
  8
0
 10
63.2655
 20
17.2013
 11
63.2292
 21
17.4075
  0
LINE
  8
0
 10
63.2292
 20
17.4075
 11
63.2073
 21
17.6157
  0
LINE
  8
0
 10
63.2073
 20
17.6157
 11
63.2
 21
17.825
  0
LINE
  8
0
 10
63.2
 20
17.825
 11
63.2
 21
22.825
  0
LINE
  8
0
 10
63.2
 20
22.825
 11
63.2073
 21
23.0343
  0
LINE
  8
0
 10
63.2073
 20
23.0343
 11
63.2292
 21
23.2425
  0
LINE
  8
0
 10
63.2292
 20
23.2425
 11
63.2655
 21
23.4487
  0
LINE
  8
0
 10
63.2655
 20
23.4487
 11
63.3162
 21
23.6519
  0
LINE
  8
0
 10
63.3162
 20
23.6519
 11
63.3809
 21
23.8511
  0
LINE
  8
0
 10
63.3809
 20
23.8511
 11
63.4594
 21
24.0452
  0
LINE
  8
0
 10
63.4594
 20
24.0452
 11
63.5511
 21
24.2334
  0
LINE
  8
0
 10
63.5511
 20
24.2334
 11
63.6559
 21
24.4147
  0
LINE
  8
0
 10
63.6559
 20
24.4147
 11
63.7729
 21
24.5883
  0
LINE
  8
0
 10
63.7729
 20
24.5883
 11
63.9019
 21
24.7534
  0
LINE
  8
0
 10
63.9019
 20
24.7534
 11
64.042
 21
24.909
  0
LINE
  8
0
 10
64.042
 20
24.909
 11
64.1926
 21
25.0544
  0
LINE
  8
0
 10
64.1926
 20
25.0544
 11
64.353
 21
25.189
  0
LINE
  8
0
 10
64.353
 20
25.189
 11
64.5224
 21
25.3121
  0
LINE
  8
0
 10
64.5224
 20
25.3121
 11
64.7
 21
25.4231
  0
LINE
  8
0
 10
64.7
 20
25.4231
 11
64.8849
 21
25.5214
  0
LINE
  8
0
 10
64.8849
 20
25.5214
 11
65.0762
 21
25.6066
  0
LINE
  8
0
 10
65.0762
 20
25.6066
 11
65.2729
 21
25.6782
  0
LINE
  8
0
 10
65.2729
 20
25.6782
 11
65.4742
 21
25.7359
  0
LINE
  8
0
 10
65.4742
 20
25.7359
 11
65.679
 21
25.7794
  0
LINE
  8
0
 10
65.679
 20
25.7794
 11
65.8864
 21
25.8086
  0
LINE
  8
0
 10
65.8864
 20
25.8086
 11
66.0953
 21
25.8232
  0
LINE
  8
0
 10
66.0953
 20
25.8232
 11
80.19
 21
25.8232
  0
LINE
  8
0
 10
80.19
 20
25.8232
 11
80.19
 21
32.225
  0
LINE
  8
0
 10
80.19
 20
32.225
 11
80.2
 21
32.225
  0
LINE
  8
0
 10
80.2
 20
32.225
 11
80.1803
 21
32.79
  0
LINE
  8
0
 10
80.1803
 20
32.79
 11
80.1212
 21
33.3523
  0
LINE
  8
0
 10
80.1212
 20
33.3523
 11
80.023
 21
33.9091
  0
LINE
  8
0
 10
80.023
 20
33.9091
 11
79.8862
 21
34.4577
  0
LINE
  8
0
 10
79.8862
 20
34.4577
 11
79.7115
 21
34.9954
  0
LINE
  8
0
 10
79.7115
 20
34.9954
 11
79.4997
 21
35.5196
  0
LINE
  8
0
 10
79.4997
 20
35.5196
 11
79.2519
 21
36.0277
  0
LINE
  8
0
 10
79.2519
 20
36.0277
 11
78.9692
 21
36.5173
  0
LINE
  8
0
 10
78.9692
 20
36.5173
 11
78.653
 21
36.9861
  0
LINE
  8
0
 10
78.653
 20
36.9861
 11
78.305
 21
37.4316
  0
LINE
  8
0
 10
78.305
 20
37.4316
 11
77.9267
 21
37.8517
  0
LINE
  8
0
 10
77.9267
 20
37.8517
 11
77.52
 21
38.2445
  0
LINE
  8
0
 10
77.52
 20
38.2445
 11
77.0869
 21
38.6079
  0
LINE
  8
0
 10
77.0869
 20
38.6079
 11
76.6295
 21
38.9402
  0
LINE
  8
0
 10
76.6295
 20
38.9402
 11
76.15
 21
39.2398
  0
LINE
  8
0
 10
76.15
 20
39.2398
 11
75.6508
 21
39.5052
  0
LINE
  8
0
 10
75.6508
 20
39.5052
 11
75.1343
 21
39.7352
  0
LINE
  8
0
 10
75.1343
 20
39.7352
 11
74.603
 21
39.9286
  0
LINE
  8
0
 10
74.603
 20
39.9286
 11
74.0596
 21
40.0844
  0
LINE
  8
0
 10
74.0596
 20
40.0844
 11
73.5065
 21
40.2019
  0
LINE
  8
0
 10
73.5065
 20
40.2019
 11
72.9467
 21
40.2806
  0
LINE
  8
0
 10
72.9467
 20
40.2806
 11
72.3827
 21
40.3201
  0
LINE
  8
0
 10
72.3827
 20
40.3201
 11
61.575
 21
40.3201
  0
LINE
  8
0
 10
61.575
 20
40.3201
 11
61.575
 21
43.325
  0
LINE
  8
0
 10
61.575
 20
43.325
 11
46.575
 21
43.325
  0
LINE
  8
0
 10
46.575
 20
43.325
 11
46.575
 21
40.3201
  0
LINE
  8
0
 10
46.575
 20
40.3201
 11
7.5
 21
40.3201
  0
LINE
  8
0
 10
7.5
 20
40.3201
 11
7.5
 21
43.325
  0
LINE
  8
0
 10
7.5
 20
43.325
 11
-7.5
 21
43.325
  0
LINE
  8
0
 10
-7.5
 20
43.325
 11
-7.5
 21
40.3201
  0
LINE
  8
0
 10
-7.5
 20
40.3201
 11
-46.575
 21
40.3201
  0
LINE
  8
0
 10
-46.575
 20
40.3201
 11
-46.575
 21
43.325
  0
LINE
  8
0
 10
-46.575
 20
43.325
 11
-61.575
 21
43.325
  0
LINE
  8
0
 10
-61.575
 20
43.325
 11
-61.575
 21
40.3201
  0
LINE
  8
0
 10
-61.575
 20
40.3201
 11
-72.3827
 21
40.3201
  0
LINE
  8
0
 10
-72.3827
 20
40.3201
 11
-72.9467
 21
40.2806
  0
LINE
  8
0
 10
-72.9467
 20
40.2806
 11
-73.5065
 21
40.2019
  0
LINE
  8
0
 10
-73.5065
 20
40.2019
 11
-74.0596
 21
40.0844
  0
LINE
  8
0
 10
-74.0596
 20
40.0844
 11
-74.603
 21
39.9286
  0
LINE
  8
0
 10
-74.603
 20
39.9286
 11
-75.1343
 21
39.7352
  0
LINE
  8
0
 10
-75.1343
 20
39.7352
 11
-75.6508
 21
39.5052
  0
LINE
  8
0
 10
-75.6508
 20
39.5052
 11
-76.15
 21
39.2398
  0
LINE
  8
0
 10
-76.15
 20
39.2398
 11
-76.6295
 21
38.9402
  0
LINE
  8
0
 10
-76.6295
 20
38.9402
 11
-77.0869
 21
38.6079
  0
LINE
  8
0
 10
-77.0869
 20
38.6079
 11
-77.52
 21
38.2445
  0
LINE
  8
0
 10
-77.52
 20
38.2445
 11
-77.9267
 21
37.8517
  0
LINE
  8
0
 10
-77.9267
 20
37.8517
 11
-78.305
 21
37.4316
  0
LINE
  8
0
 10
-78.305
 20
37.4316
 11
-78.653
 21
36.9861
  0
LINE
  8
0
 10
-78.653
 20
36.9861
 11
-78.9692
 21
36.5173
  0
LINE
  8
0
 10
-78.9692
 20
36.5173
 11
-79.2519
 21
36.0277
  0
LINE
  8
0
 10
-79.2519
 20
36.0277
 11
-79.4997
 21
35.5196
  0
LINE
  8
0
 10
-79.4997
 20
35.5196
 11
-79.7115
 21
34.9954
  0
LINE
  8
0
 10
-79.7115
 20
34.9954
 11
-79.8862
 21
34.4577
  0
LINE
  8
0
 10
-79.8862
 20
34.4577
 11
-80.023
 21
33.9091
  0
LINE
  8
0
 10
-80.023
 20
33.9091
 11
-80.1212
 21
33.3523
  0
LINE
  8
0
 10
-80.1212
 20
33.3523
 11
-80.1803
 21
32.79
  0
LINE
  8
0
 10
-80.1803
 20
32.79
 11
-80.2
 21
32.225
  0
LINE
  8
0
 10
-80.2
 20
32.225
 11
-80.2
 21
25.45
  0
LINE
  8
0
 10
-80.2
 20
25.45
 11
-83.2
 21
25.45
  0
LINE
  8
0
 10
-83.2
 20
25.45
 11
-89.4217
 21
25.4454
  0
LINE
  8
0
 10
-89.4217
 20
25.4454
 11
-89.944
 21
25.4089
  0
LINE
  8
0
 10
-89.944
 20
25.4089
 11
-90.4624
 21
25.336
  0
LINE
  8
0
 10
-90.4624
 20
25.336
 11
-90.9744
 21
25.2272
  0
LINE
  8
0
 10
-90.9744
 20
25.2272
 11
-91.4776
 21
25.0829
  0
LINE
  8
0
 10
-91.4776
 20
25.0829
 11
-91.9695
 21
24.9039
  0
LINE
  8
0
 10
-91.9695
 20
24.9039
 11
-92.4478
 21
24.6909
  0
LINE
  8
0
 10
-92.4478
 20
24.6909
 11
-92.91
 21
24.4452
  0
LINE
  8
0
 10
-92.91
 20
24.4452
 11
-93.3539
 21
24.1678
  0
LINE
  8
0
 10
-93.3539
 20
24.1678
 11
-93.7775
 21
23.8601
  0
LINE
  8
0
 10
-93.7775
 20
23.8601
 11
-94.1785
 21
23.5236
  0
LINE
  8
0
 10
-94.1785
 20
23.5236
 11
-94.555
 21
23.1599
  0
LINE
  8
0
 10
-94.555
 20
23.1599
 11
-94.9053
 21
22.7709
  0
LINE
  8
0
 10
-94.9053
 20
22.7709
 11
-95.2276
 21
22.3584
  0
LINE
  8
0
 10
-95.2276
 20
22.3584
 11
-95.5204
 21
21.9244
  0
LINE
  8
0
 10
-95.5204
 20
21.9244
 11
-95.7821
 21
21.471
  0
LINE
  8
0
 10
-95.7821
 20
21.471
 11
-96.0116
 21
21.0005
  0
LINE
  8
0
 10
-96.0116
 20
21.0005
 11
-96.2077
 21
20.5151
  0
LINE
  8
0
 10
-96.2077
 20
20.5151
 11
-96.3695
 21
20.0173
  0
LINE
  8
0
 10
-96.3695
 20
20.0173
 11
-96.4961
 21
19.5093
  0
LINE
  8
0
 10
-96.4961
 20
19.5093
 11
-96.587
 21
18.9938
  0
LINE
  8
0
 10
-96.587
 20
18.9938
 11
-96.6417
 21
18.4732
  0
LINE
  8
0
 10
-96.6417
 20
18.4732
 11
-96.66
 21
17.95
  0
LINE
  8
0
 10
-96.66
 20
17.95
 11
-96.6417
 21
17.4268
  0
LINE
  8
0
 10
-96.6417
 20
17.4268
 11
-96.587
 21
16.9062
  0
LINE
  8
0
 10
-96.587
 20
16.9062
 11
-96.4961
 21
16.3907
  0
LINE
  8
0
 10
-96.4961
 20
16.3907
 11
-96.3695
 21
15.8827
  0
LINE
  8
0
 10
-96.3695
 20
15.8827
 11
-96.2077
 21
15.3848
  0
LINE
  8
0
 10
-96.2077
 20
15.3848
 11
-96.0116
 21
14.8995
  0
LINE
  8
0
 10
-96.0116
 20
14.8995
 11
-95.7821
 21
14.429
  0
LINE
  8
0
 10
-95.7821
 20
14.429
 11
-95.5204
 21
13.9756
  0
LINE
  8
0
 10
-95.5204
 20
13.9756
 11
-95.2276
 21
13.5416
  0
LINE
  8
0
 10
-95.2276
 20
13.5416
 11
-94.9053
 21
13.1291
  0
LINE
  8
0
 10
-94.9053
 20
13.1291
 11
-94.555
 21
12.7401
  0
LINE
  8
0
 10
-94.555
 20
12.7401
 11
-94.1785
 21
12.3764
  0
LINE
  8
0
 10
-94.1785
 20
12.3764
 11
-93.7775
 21
12.0399
  0
LINE
  8
0
 10
-93.7775
 20
12.0399
 11
-93.3539
 21
11.7322
  0
LINE
  8
0
 10
-93.3539
 20
11.7322
 11
-92.91
 21
11.4548
  0
LINE
  8
0
 10
-92.91
 20
11.4548
 11
-92.4478
 21
11.209
  0
LINE
  8
0
 10
-92.4478
 20
11.209
 11
-91.9695
 21
10.9961
  0
LINE
  8
0
 10
-91.9695
 20
10.9961
 11
-91.4776
 21
10.8171
  0
LINE
  8
0
 10
-91.4776
 20
10.8171
 11
-90.9744
 21
10.6728
  0
LINE
  8
0
 10
-90.9744
 20
10.6728
 11
-90.4624
 21
10.5639
  0
LINE
  8
0
 10
-90.4624
 20
10.5639
 11
-89.944
 21
10.4911
  0
LINE
  8
0
 10
-89.944
 20
10.4911
 11
-89.4217
 21
10.4546
  0
LINE
  8
0
 10
-89.4217
 20
10.4546
 11
-83.2
 21
10.45
  0
LINE
  8
0
 10
-83.2
 20
10.45
 11
-80.2
 21
10.45
  0
LINE
  8
0
 10
-80.2
 20
10.45
 11
-80.2
 21
5.2868
  0
LINE
  8
0
 10
-80.2
 20
5.2868
 11
-65.5953
 21
5.2868
  0
LINE
  8
0
 10
-65.5953
 20
5.2868
 11
-65.3864
 21
5.2722
  0
LINE
  8
0
 10
-65.3864
 20
5.2722
 11
-65.179
 21
5.24306
  0
LINE
  8
0
 10
-65.179
 20
5.24306
 11
-64.9742
 21
5.19951
  0
LINE
  8
0
 10
-64.9742
 20
5.19951
 11
-64.7729
 21
5.1418
  0
LINE
  8
0
 10
-64.7729
 20
5.1418
 11
-64.5762
 21
5.07018
  0
LINE
  8
0
 10
-64.5762
 20
5.07018
 11
-64.3849
 21
4.98502
  0
LINE
  8
0
 10
-64.3849
 20
4.98502
 11
-64.2
 21
4.8867
  0
LINE
  8
0
 10
-64.2
 20
4.8867
 11
-64.0224
 21
4.77574
  0
LINE
  8
0
 10
-64.0224
 20
4.77574
 11
-63.853
 21
4.65266
  0
LINE
  8
0
 10
-63.853
 20
4.65266
 11
-63.6926
 21
4.51807
  0
LINE
  8
0
 10
-63.6926
 20
4.51807
 11
-63.542
 21
4.3726
  0
LINE
  8
0
 10
-63.542
 20
4.3726
 11
-63.4019
 21
4.217
  0
LINE
  8
0
 10
-63.4019
 20
4.217
 11
-63.2729
 21
4.05199
  0
LINE
  8
0
 10
-63.2729
 20
4.05199
 11
-63.1559
 21
3.87839
  0
LINE
  8
0
 10
-63.1559
 20
3.87839
 11
-63.0511
 21
3.69704
  0
LINE
  8
0
 10
-63.0511
 20
3.69704
 11
-62.9594
 21
3.50883
  0
LINE
  8
0
 10
-62.9594
 20
3.50883
 11
-62.8809
 21
3.31468
  0
LINE
  8
0
 10
-62.8809
 20
3.31468
 11
-62.8162
 21
3.11554
  0
LINE
  8
0
 10
-62.8162
 20
3.11554
 11
-62.7655
 21
2.91237
  0
LINE
  8
0
 10
-62.7655
 20
2.91237
 11
-62.7292
 21
2.70615
  0
LINE
  8
0
 10
-62.7292
 20
2.70615
 11
-62.7073
 21
2.49789
  0
LINE
  8
0
 10
-62.7073
 20
2.49789
 11
-62.7
 21
2.28864
  0
LINE
  8
0
 10
-62.7
 20
2.28864
 11
-62.7
 21
-10.5114
  0
LINE
  8
0
 10
-62.7
 20
-10.5114
 11
-62.7073
 21
-10.7206
  0
LINE
  8
0
 10
-62.7073
 20
-10.7206
 11
-62.7292
 21
-10.9289
  0
LINE
  8
0
 10
-62.7292
 20
-10.9289
 11
-62.7655
 21
-11.1351
  0
LINE
  8
0
 10
-62.7655
 20
-11.1351
 11
-62.8162
 21
-11.3383
  0
LINE
  8
0
 10
-62.8162
 20
-11.3383
 11
-62.8809
 21
-11.5374
  0
LINE
  8
0
 10
-62.8809
 20
-11.5374
 11
-62.9594
 21
-11.7316
  0
LINE
  8
0
 10
-62.9594
 20
-11.7316
 11
-63.0511
 21
-11.9198
  0
LINE
  8
0
 10
-63.0511
 20
-11.9198
 11
-63.1559
 21
-12.1011
  0
LINE
  8
0
 10
-63.1559
 20
-12.1011
 11
-63.2729
 21
-12.2747
  0
LINE
  8
0
 10
-63.2729
 20
-12.2747
 11
-63.4019
 21
-12.4397
  0
LINE
  8
0
 10
-63.4019
 20
-12.4397
 11
-63.542
 21
-12.5953
  0
LINE
  8
0
 10
-63.542
 20
-12.5953
 11
-63.6926
 21
-12.7408
  0
LINE
  8
0
 10
-63.6926
 20
-12.7408
 11
-63.853
 21
-12.8754
  0
LINE
  8
0
 10
-63.853
 20
-12.8754
 11
-64.0224
 21
-12.9985
  0
LINE
  8
0
 10
-64.0224
 20
-12.9985
 11
-64.2
 21
-13.1094
  0
LINE
  8
0
 10
-64.2
 20
-13.1094
 11
-64.3849
 21
-13.2077
  0
LINE
  8
0
 10
-64.3849
 20
-13.2077
 11
-64.5762
 21
-13.2929
  0
LINE
  8
0
 10
-64.5762
 20
-13.2929
 11
-64.7729
 21
-13.3645
  0
LINE
  8
0
 10
-64.7729
 20
-13.3645
 11
-64.9742
 21
-13.4222
  0
LINE
  8
0
 10
-64.9742
 20
-13.4222
 11
-65.179
 21
-13.4658
  0
LINE
  8
0
 10
-65.179
 20
-13.4658
 11
-65.3864
 21
-13.4949
  0
LINE
  8
0
 10
-65.3864
 20
-13.4949
 11
-65.5953
 21
-13.5095
  0
LINE
  8
0
 10
-65.5953
 20
-13.5095
 11
-80.2
 21
-13.5095
  0
LINE
  8
0
 10
-80.2
 20
-13.5095
 11
-80.2
 21
-17.375
  0
LINE
  8
0
 10
-80.2
 20
-17.375
 11
-83.2
 21
-17.375
  0
LINE
  8
0
 10
-83.2
 20
-17.375
 11
-89.4217
 21
-17.3796
  0
LINE
  8
0
 10
-89.4217
 20
-17.3796
 11
-89.944
 21
-17.4161
  0
LINE
  8
0
 10
-89.944
 20
-17.4161
 11
-90.4624
 21
-17.4889
  0
LINE
  8
0
 10
-90.4624
 20
-17.4889
 11
-90.9744
 21
-17.5978
  0
LINE
  8
0
 10
-90.9744
 20
-17.5978
 11
-91.4776
 21
-17.7421
  0
LINE
  8
0
 10
-91.4776
 20
-17.7421
 11
-91.9695
 21
-17.9211
  0
LINE
  8
0
 10
-91.9695
 20
-17.9211
 11
-92.4478
 21
-18.134
  0
LINE
  8
0
 10
-92.4478
 20
-18.134
 11
-92.91
 21
-18.3798
  0
LINE
  8
0
 10
-92.91
 20
-18.3798
 11
-93.3539
 21
-18.6572
  0
LINE
  8
0
 10
-93.3539
 20
-18.6572
 11
-93.7775
 21
-18.9649
  0
LINE
  8
0
 10
-93.7775
 20
-18.9649
 11
-94.1785
 21
-19.3014
  0
LINE
  8
0
 10
-94.1785
 20
-19.3014
 11
-94.555
 21
-19.6651
  0
LINE
  8
0
 10
-94.555
 20
-19.6651
 11
-94.9053
 21
-20.0541
  0
LINE
  8
0
 10
-94.9053
 20
-20.0541
 11
-95.2276
 21
-20.4666
  0
LINE
  8
0
 10
-95.2276
 20
-20.4666
 11
-95.5204
 21
-20.9006
  0
LINE
  8
0
 10
-95.5204
 20
-20.9006
 11
-95.7821
 21
-21.354
  0
LINE
  8
0
 10
-95.7821
 20
-21.354
 11
-96.0116
 21
-21.8245
  0
LINE
  8
0
 10
-96.0116
 20
-21.8245
 11
-96.2077
 21
-22.3098
  0
LINE
  8
0
 10
-96.2077
 20
-22.3098
 11
-96.3695
 21
-22.8077
  0
LINE
  8
0
 10
-96.3695
 20
-22.8077
 11
-96.4961
 21
-23.3157
  0
LINE
  8
0
 10
-96.4961
 20
-23.3157
 11
-96.587
 21
-23.8312
  0
LINE
  8
0
 10
-96.587
 20
-23.8312
 11
-96.6417
 21
-24.3518
  0
LINE
  8
0
 10
-96.6417
 20
-24.3518
 11
-96.66
 21
-24.875
  0
LINE
  8
0
 10
-96.66
 20
-24.875
 11
-96.6417
 21
-25.3982
  0
LINE
  8
0
 10
-96.6417
 20
-25.3982
 11
-96.587
 21
-25.9188
  0
LINE
  8
0
 10
-96.587
 20
-25.9188
 11
-96.4961
 21
-26.4343
  0
LINE
  8
0
 10
-96.4961
 20
-26.4343
 11
-96.3695
 21
-26.9423
  0
LINE
  8
0
 10
-96.3695
 20
-26.9423
 11
-96.2077
 21
-27.4401
  0
LINE
  8
0
 10
-96.2077
 20
-27.4401
 11
-96.0116
 21
-27.9255
  0
LINE
  8
0
 10
-96.0116
 20
-27.9255
 11
-95.7821
 21
-28.396
  0
LINE
  8
0
 10
-95.7821
 20
-28.396
 11
-95.5204
 21
-28.8494
  0
LINE
  8
0
 10
-95.5204
 20
-28.8494
 11
-95.2276
 21
-29.2834
  0
LINE
  8
0
 10
-95.2276
 20
-29.2834
 11
-94.9053
 21
-29.6959
  0
LINE
  8
0
 10
-94.9053
 20
-29.6959
 11
-94.555
 21
-30.0849
  0
LINE
  8
0
 10
-94.555
 20
-30.0849
 11
-94.1785
 21
-30.4486
  0
LINE
  8
0
 10
-94.1785
 20
-30.4486
 11
-93.7775
 21
-30.7851
  0
LINE
  8
0
 10
-93.7775
 20
-30.7851
 11
-93.3539
 21
-31.0928
  0
LINE
  8
0
 10
-93.3539
 20
-31.0928
 11
-92.91
 21
-31.3702
  0
LINE
  8
0
 10
-92.91
 20
-31.3702
 11
-92.4478
 21
-31.616
  0
LINE
  8
0
 10
-92.4478
 20
-31.616
 11
-91.9695
 21
-31.8289
  0
LINE
  8
0
 10
-91.9695
 20
-31.8289
 11
-91.4776
 21
-32.0079
  0
LINE
  8
0
 10
-91.4776
 20
-32.0079
 11
-90.9744
 21
-32.1522
  0
LINE
  8
0
 10
-90.9744
 20
-32.1522
 11
-90.4624
 21
-32.261
  0
LINE
  8
0
 10
-90.4624
 20
-32.261
 11
-89.944
 21
-32.3339
  0
LINE
  8
0
 10
-89.944
 20
-32.3339
 11
-89.4217
 21
-32.3704
  0
LINE
  8
0
 10
-89.4217
 20
-32.3704
 11
-83.2
 21
-32.375
  0
LINE
  8
0
 10
-83.2
 20
-32.375
 11
-80.2
 21
-32.375
  0
LINE
  8
0
 10
-80.2
 20
-32.375
 11
-80.2
 21
-36.2405
  0
LINE
  8
0
 10
-80.2
 20
-36.2405
 11
-65.5953
 21
-36.2405
  0
LINE
  8
0
 10
-65.5953
 20
-36.2405
 11
-65.3864
 21
-36.2551
  0
LINE
  8
0
 10
-65.3864
 20
-36.2551
 11
-65.179
 21
-36.2842
  0
LINE
  8
0
 10
-65.179
 20
-36.2842
 11
-64.9742
 21
-36.3277
  0
LINE
  8
0
 10
-64.9742
 20
-36.3277
 11
-64.7729
 21
-36.3855
  0
LINE
  8
0
 10
-64.7729
 20
-36.3855
 11
-64.5762
 21
-36.4571
  0
LINE
  8
0
 10
-64.5762
 20
-36.4571
 11
-64.3849
 21
-36.5423
  0
LINE
  8
0
 10
-64.3849
 20
-36.5423
 11
-64.2
 21
-36.6405
  0
LINE
  8
0
 10
-64.2
 20
-36.6405
 11
-64.0224
 21
-36.7515
  0
LINE
  8
0
 10
-64.0224
 20
-36.7515
 11
-63.853
 21
-36.8746
  0
LINE
  8
0
 10
-63.853
 20
-36.8746
 11
-63.6926
 21
-37.0092
  0
LINE
  8
0
 10
-63.6926
 20
-37.0092
 11
-63.542
 21
-37.1547
  0
LINE
  8
0
 10
-63.542
 20
-37.1547
 11
-63.4019
 21
-37.3103
  0
LINE
  8
0
 10
-63.4019
 20
-37.3103
 11
-63.2729
 21
-37.4753
  0
LINE
  8
0
 10
-63.2729
 20
-37.4753
 11
-63.1559
 21
-37.6489
  0
LINE
  8
0
 10
-63.1559
 20
-37.6489
 11
-63.0511
 21
-37.8302
  0
LINE
  8
0
 10
-63.0511
 20
-37.8302
 11
-62.9594
 21
-38.0184
  0
LINE
  8
0
 10
-62.9594
 20
-38.0184
 11
-62.8809
 21
-38.2126
  0
LINE
  8
0
 10
-62.8809
 20
-38.2126
 11
-62.8162
 21
-38.4117
  0
LINE
  8
0
 10
-62.8162
 20
-38.4117
 11
-62.7655
 21
-38.6149
  0
LINE
  8
0
 10
-62.7655
 20
-38.6149
 11
-62.7292
 21
-38.8211
  0
LINE
  8
0
 10
-62.7292
 20
-38.8211
 11
-62.7073
 21
-39.0294
  0
LINE
  8
0
 10
-62.7073
 20
-39.0294
 11
-62.7
 21
-39.2386
  0
LINE
  8
0
 10
-62.7
 20
-39.2386
 11
-62.7
 21
-52.0386
  0
LINE
  8
0
 10
-62.7
 20
-52.0386
 11
-62.7073
 21
-52.2479
  0
LINE
  8
0
 10
-62.7073
 20
-52.2479
 11
-62.7292
 21
-52.4561
  0
LINE
  8
0
 10
-62.7292
 20
-52.4561
 11
-62.7655
 21
-52.6624
  0
LINE
  8
0
 10
-62.7655
 20
-52.6624
 11
-62.8162
 21
-52.8655
  0
LINE
  8
0
 10
-62.8162
 20
-52.8655
 11
-62.8809
 21
-53.0647
  0
LINE
  8
0
 10
-62.8809
 20
-53.0647
 11
-62.9594
 21
-53.2588
  0
LINE
  8
0
 10
-62.9594
 20
-53.2588
 11
-63.0511
 21
-53.4471
  0
LINE
  8
0
 10
-63.0511
 20
-53.4471
 11
-63.1559
 21
-53.6284
  0
LINE
  8
0
 10
-63.1559
 20
-53.6284
 11
-63.2729
 21
-53.802
  0
LINE
  8
0
 10
-63.2729
 20
-53.802
 11
-63.4019
 21
-53.967
  0
LINE
  8
0
 10
-63.4019
 20
-53.967
 11
-63.542
 21
-54.1226
  0
LINE
  8
0
 10
-63.542
 20
-54.1226
 11
-63.6926
 21
-54.2681
  0
LINE
  8
0
 10
-63.6926
 20
-54.2681
 11
-63.853
 21
-54.4027
  0
LINE
  8
0
 10
-63.853
 20
-54.4027
 11
-64.0224
 21
-54.5257
  0
LINE
  8
0
 10
-64.0224
 20
-54.5257
 11
-64.2
 21
-54.6367
  0
LINE
  8
0
 10
-64.2
 20
-54.6367
 11
-64.3849
 21
-54.735
  0
LINE
  8
0
 10
-64.3849
 20
-54.735
 11
-64.5762
 21
-54.8202
  0
LINE
  8
0
 10
-64.5762
 20
-54.8202
 11
-64.7729
 21
-54.8918
  0
LINE
  8
0
 10
-64.7729
 20
-54.8918
 11
-64.9742
 21
-54.9495
  0
LINE
  8
0
 10
-64.9742
 20
-54.9495
 11
-65.179
 21
-54.9931
  0
LINE
  8
0
 10
-65.179
 20
-54.9931
 11
-65.3864
 21
-55.0222
  0
LINE
  8
0
 10
-65.3864
 20
-55.0222
 11
-65.5953
 21
-55.0368
  0
LINE
  8
0
 10
-65.5953
 20
-55.0368
 11
-80.2
 21
-55.0368
  0
LINE
  8
0
 10
-80.2
 20
-55.0368
 11
-80.2
 21
-60.2
  0
LINE
  8
0
 10
-80.2
 20
-60.2
 11
-83.2
 21
-60.2
  0
LINE
  8
0
 10
-83.2
 20
-60.2
 11
-89.4217
 21
-60.2046
  0
LINE
  8
0
 10
-89.4217
 20
-60.2046
 11
-89.944
 21
-60.2411
  0
LINE
  8
0
 10
-89.944
 20
-60.2411
 11
-90.4624
 21
-60.3139
  0
LINE
  8
0
 10
-90.4624
 20
-60.3139
 11
-90.9744
 21
-60.4228
  0
LINE
  8
0
 10
-90.9744
 20
-60.4228
 11
-91.4776
 21
-60.5671
  0
LINE
  8
0
 10
-91.4776
 20
-60.5671
 11
-91.9695
 21
-60.7461
  0
LINE
  8
0
 10
-91.9695
 20
-60.7461
 11
-92.4478
 21
-60.959
  0
LINE
  8
0
 10
-92.4478
 20
-60.959
 11
-92.91
 21
-61.2048
  0
LINE
  8
0
 10
-92.91
 20
-61.2048
 11
-93.3539
 21
-61.4822
  0
LINE
  8
0
 10
-93.3539
 20
-61.4822
 11
-93.7775
 21
-61.7899
  0
LINE
  8
0
 10
-93.7775
 20
-61.7899
 11
-94.1785
 21
-62.1264
  0
LINE
  8
0
 10
-94.1785
 20
-62.1264
 11
-94.555
 21
-62.4901
  0
LINE
  8
0
 10
-94.555
 20
-62.4901
 11
-94.9053
 21
-62.8791
  0
LINE
  8
0
 10
-94.9053
 20
-62.8791
 11
-95.2276
 21
-63.2916
  0
LINE
  8
0
 10
-95.2276
 20
-63.2916
 11
-95.5204
 21
-63.7256
  0
LINE
  8
0
 10
-95.5204
 20
-63.7256
 11
-95.7821
 21
-64.179
  0
LINE
  8
0
 10
-95.7821
 20
-64.179
 11
-96.0116
 21
-64.6495
  0
LINE
  8
0
 10
-96.0116
 20
-64.6495
 11
-96.2077
 21
-65.1348
  0
LINE
  8
0
 10
-96.2077
 20
-65.1348
 11
-96.3695
 21
-65.6327
  0
LINE
  8
0
 10
-96.3695
 20
-65.6327
 11
-96.4961
 21
-66.1407
  0
LINE
  8
0
 10
-96.4961
 20
-66.1407
 11
-96.587
 21
-66.6562
  0
LINE
  8
0
 10
-96.587
 20
-66.6562
 11
-96.6417
 21
-67.1768
  0
LINE
  8
0
 10
-96.6417
 20
-67.1768
 11
-96.66
 21
-67.7
  0
LINE
  8
0
 10
-96.66
 20
-67.7
 11
-96.6417
 21
-68.2232
  0
LINE
  8
0
 10
-96.6417
 20
-68.2232
 11
-96.587
 21
-68.7438
  0
LINE
  8
0
 10
-96.587
 20
-68.7438
 11
-96.4961
 21
-69.2593
  0
LINE
  8
0
 10
-96.4961
 20
-69.2593
 11
-96.3695
 21
-69.7673
  0
LINE
  8
0
 10
-96.3695
 20
-69.7673
 11
-96.2077
 21
-70.2652
  0
LINE
  8
0
 10
-96.2077
 20
-70.2652
 11
-96.0116
 21
-70.7505
  0
LINE
  8
0
 10
-96.0116
 20
-70.7505
 11
-95.7821
 21
-71.221
  0
LINE
  8
0
 10
-95.7821
 20
-71.221
 11
-95.5204
 21
-71.6744
  0
LINE
  8
0
 10
-95.5204
 20
-71.6744
 11
-95.2276
 21
-72.1084
  0
LINE
  8
0
 10
-95.2276
 20
-72.1084
 11
-94.9053
 21
-72.5209
  0
LINE
  8
0
 10
-94.9053
 20
-72.5209
 11
-94.555
 21
-72.9099
  0
LINE
  8
0
 10
-94.555
 20
-72.9099
 11
-94.1785
 21
-73.2736
  0
LINE
  8
0
 10
-94.1785
 20
-73.2736
 11
-93.7775
 21
-73.6101
  0
LINE
  8
0
 10
-93.7775
 20
-73.6101
 11
-93.3539
 21
-73.9178
  0
LINE
  8
0
 10
-93.3539
 20
-73.9178
 11
-92.91
 21
-74.1952
  0
LINE
  8
0
 10
-92.91
 20
-74.1952
 11
-92.4478
 21
-74.4409
  0
LINE
  8
0
 10
-92.4478
 20
-74.4409
 11
-91.9695
 21
-74.6539
  0
LINE
  8
0
 10
-91.9695
 20
-74.6539
 11
-91.4776
 21
-74.8329
  0
LINE
  8
0
 10
-91.4776
 20
-74.8329
 11
-90.9744
 21
-74.9772
  0
LINE
  8
0
 10
-90.9744
 20
-74.9772
 11
-90.4624
 21
-75.0861
  0
LINE
  8
0
 10
-90.4624
 20
-75.0861
 11
-89.944
 21
-75.1589
  0
LINE
  8
0
 10
-89.944
 20
-75.1589
 11
-89.4217
 21
-75.1954
  0
LINE
  8
0
 10
-89.4217
 20
-75.1954
 11
-83.2
 21
-75.2
  0
LINE
  8
0
 10
-83.2
 20
-75.2
 11
-80.2
 21
-75.2
  0
LINE
  8
0
 10
-80.2
 20
-75.2
 11
-80.2
 21
-81.975
  0
LINE
  8
0
 10
-80.2
 20
-81.975
 11
-80.1803
 21
-82.54
  0
LINE
  8
0
 10
-80.1803
 20
-82.54
 11
-80.1212
 21
-83.1023
  0
LINE
  8
0
 10
-80.1212
 20
-83.1023
 11
-80.023
 21
-83.6591
  0
LINE
  8
0
 10
-80.023
 20
-83.6591
 11
-79.8862
 21
-84.2077
  0
LINE
  8
0
 10
-79.8862
 20
-84.2077
 11
-79.7115
 21
-84.7454
  0
LINE
  8
0
 10
-79.7115
 20
-84.7454
 11
-79.4997
 21
-85.2696
  0
LINE
  8
0
 10
-79.4997
 20
-85.2696
 11
-79.2519
 21
-85.7777
  0
LINE
  8
0
 10
-79.2519
 20
-85.7777
 11
-78.9692
 21
-86.2673
  0
LINE
  8
0
 10
-78.9692
 20
-86.2673
 11
-78.653
 21
-86.7361
  0
LINE
  8
0
 10
-78.653
 20
-86.7361
 11
-78.305
 21
-87.1816
  0
LINE
  8
0
 10
-78.305
 20
-87.1816
 11
-77.9267
 21
-87.6017
  0
LINE
  8
0
 10
-77.9267
 20
-87.6017
 11
-77.52
 21
-87.9945
  0
LINE
  8
0
 10
-77.52
 20
-87.9945
 11
-77.0869
 21
-88.3579
  0
LINE
  8
0
 10
-77.0869
 20
-88.3579
 11
-76.6295
 21
-88.6902
  0
LINE
  8
0
 10
-76.6295
 20
-88.6902
 11
-76.15
 21
-88.9898
  0
LINE
  8
0
 10
-76.15
 20
-88.9898
 11
-75.6508
 21
-89.2552
  0
LINE
  8
0
 10
-75.6508
 20
-89.2552
 11
-75.1343
 21
-89.4852
  0
LINE
  8
0
 10
-75.1343
 20
-89.4852
 11
-74.603
 21
-89.6786
  0
LINE
  8
0
 10
-74.603
 20
-89.6786
 11
-74.0596
 21
-89.8344
  0
LINE
  8
0
 10
-74.0596
 20
-89.8344
 11
-73.5065
 21
-89.9519
  0
LINE
  8
0
 10
-73.5065
 20
-89.9519
 11
-72.9467
 21
-90.0306
  0
LINE
  8
0
 10
-72.9467
 20
-90.0306
 11
-72.3827
 21
-90.0701
  0
LINE
  8
0
 10
-72.3827
 20
-90.0701
 11
-61.575
 21
-90.0701
  0
LINE
  8
0
 10
-61.575
 20
-90.0701
 11
-61.575
 21
-93.075
  0
LINE
  8
0
 10
-61.575
 20
-93.075
 11
-46.575
 21
-93.075
  0
LINE
  8
0
 10
-46.575
 20
-93.075
 11
-46.575
 21
-90.0701
  0
LINE
  8
0
 10
-72.2379
 20
28.2774
 11
-72.5129
 21
28.2966
  0
LINE
  8
0
 10
-72.5129
 20
28.2966
 11
-72.7859
 21
28.335
  0
LINE
  8
0
 10
-72.7859
 20
28.335
 11
-73.0556
 21
28.3923
  0
LINE
  8
0
 10
-73.0556
 20
28.3923
 11
-73.3206
 21
28.4683
  0
LINE
  8
0
 10
-73.3206
 20
28.4683
 11
-73.5797
 21
28.5626
  0
LINE
  8
0
 10
-73.5797
 20
28.5626
 11
-73.8316
 21
28.6748
  0
LINE
  8
0
 10
-73.8316
 20
28.6748
 11
-74.075
 21
28.8042
  0
LINE
  8
0
 10
-74.075
 20
28.8042
 11
-74.3088
 21
28.9503
  0
LINE
  8
0
 10
-74.3088
 20
28.9503
 11
-74.5319
 21
29.1124
  0
LINE
  8
0
 10
-74.5319
 20
29.1124
 11
-74.7431
 21
29.2896
  0
LINE
  8
0
 10
-74.7431
 20
29.2896
 11
-74.9414
 21
29.4811
  0
LINE
  8
0
 10
-74.9414
 20
29.4811
 11
-75.1259
 21
29.686
  0
LINE
  8
0
 10
-75.1259
 20
29.686
 11
-75.2956
 21
29.9032
  0
LINE
  8
0
 10
-75.2956
 20
29.9032
 11
-75.4498
 21
30.1318
  0
LINE
  8
0
 10
-75.4498
 20
30.1318
 11
-75.5876
 21
30.3706
  0
LINE
  8
0
 10
-75.5876
 20
30.3706
 11
-75.7085
 21
30.6184
  0
LINE
  8
0
 10
-75.7085
 20
30.6184
 11
-75.8118
 21
30.874
  0
LINE
  8
0
 10
-75.8118
 20
30.874
 11
-75.897
 21
31.1362
  0
LINE
  8
0
 10
-75.897
 20
31.1362
 11
-75.9637
 21
31.4037
  0
LINE
  8
0
 10
-75.9637
 20
31.4037
 11
-76.0116
 21
31.6753
  0
LINE
  8
0
 10
-76.0116
 20
31.6753
 11
-76.0404
 21
31.9494
  0
LINE
  8
0
 10
-76.0404
 20
31.9494
 11
-76.05
 21
32.225
  0
LINE
  8
0
 10
-76.05
 20
32.225
 11
-76.0404
 21
32.5005
  0
LINE
  8
0
 10
-76.0404
 20
32.5005
 11
-76.0116
 21
32.7747
  0
LINE
  8
0
 10
-76.0116
 20
32.7747
 11
-75.9637
 21
33.0462
  0
LINE
  8
0
 10
-75.9637
 20
33.0462
 11
-75.897
 21
33.3138
  0
LINE
  8
0
 10
-75.897
 20
33.3138
 11
-75.8118
 21
33.576
  0
LINE
  8
0
 10
-75.8118
 20
33.576
 11
-75.7085
 21
33.8316
  0
LINE
  8
0
 10
-75.7085
 20
33.8316
 11
-75.5876
 21
34.0794
  0
LINE
  8
0
 10
-75.5876
 20
34.0794
 11
-75.4498
 21
34.3182
  0
LINE
  8
0
 10
-75.4498
 20
34.3182
 11
-75.2956
 21
34.5468
  0
LINE
  8
0
 10
-75.2956
 20
34.5468
 11
-75.1259
 21
34.764
  0
LINE
  8
0
 10
-75.1259
 20
34.764
 11
-74.9414
 21
34.9689
  0
LINE
  8
0
 10
-74.9414
 20
34.9689
 11
-74.7431
 21
35.1604
  0
LINE
  8
0
 10
-74.7431
 20
35.1604
 11
-74.5319
 21
35.3376
  0
LINE
  8
0
 10
-74.5319
 20
35.3376
 11
-74.3088
 21
35.4997
  0
LINE
  8
0
 10
-74.3088
 20
35.4997
 11
-74.075
 21
35.6458
  0
LINE
  8
0
 10
-74.075
 20
35.6458
 11
-73.8316
 21
35.7752
  0
LINE
  8
0
 10
-73.8316
 20
35.7752
 11
-73.5797
 21
35.8874
  0
LINE
  8
0
 10
-73.5797
 20
35.8874
 11
-73.3206
 21
35.9817
  0
LINE
  8
0
 10
-73.3206
 20
35.9817
 11
-73.0556
 21
36.0577
  0
LINE
  8
0
 10
-73.0556
 20
36.0577
 11
-72.7859
 21
36.115
  0
LINE
  8
0
 10
-72.7859
 20
36.115
 11
-72.5129
 21
36.1534
  0
LINE
  8
0
 10
-72.5129
 20
36.1534
 11
-72.2379
 21
36.1726
  0
LINE
  8
0
 10
-72.2379
 20
36.1726
 11
-71.9621
 21
36.1726
  0
LINE
  8
0
 10
-71.9621
 20
36.1726
 11
-71.6871
 21
36.1534
  0
LINE
  8
0
 10
-71.6871
 20
36.1534
 11
-71.4141
 21
36.115
  0
LINE
  8
0
 10
-71.4141
 20
36.115
 11
-71.1444
 21
36.0577
  0
LINE
  8
0
 10
-71.1444
 20
36.0577
 11
-70.8794
 21
35.9817
  0
LINE
  8
0
 10
-70.8794
 20
35.9817
 11
-70.6203
 21
35.8874
  0
LINE
  8
0
 10
-70.6203
 20
35.8874
 11
-70.3684
 21
35.7752
  0
LINE
  8
0
 10
-70.3684
 20
35.7752
 11
-70.125
 21
35.6458
  0
LINE
  8
0
 10
-70.125
 20
35.6458
 11
-69.8912
 21
35.4997
  0
LINE
  8
0
 10
-69.8912
 20
35.4997
 11
-69.6681
 21
35.3376
  0
LINE
  8
0
 10
-69.6681
 20
35.3376
 11
-69.4569
 21
35.1604
  0
LINE
  8
0
 10
-69.4569
 20
35.1604
 11
-69.2586
 21
34.9689
  0
LINE
  8
0
 10
-69.2586
 20
34.9689
 11
-69.0741
 21
34.764
  0
LINE
  8
0
 10
-69.0741
 20
34.764
 11
-68.9044
 21
34.5468
  0
LINE
  8
0
 10
-68.9044
 20
34.5468
 11
-68.7502
 21
34.3182
  0
LINE
  8
0
 10
-68.7502
 20
34.3182
 11
-68.6124
 21
34.0794
  0
LINE
  8
0
 10
-68.6124
 20
34.0794
 11
-68.4915
 21
33.8316
  0
LINE
  8
0
 10
-68.4915
 20
33.8316
 11
-68.3882
 21
33.576
  0
LINE
  8
0
 10
-68.3882
 20
33.576
 11
-68.303
 21
33.3138
  0
LINE
  8
0
 10
-68.303
 20
33.3138
 11
-68.2363
 21
33.0462
  0
LINE
  8
0
 10
-68.2363
 20
33.0462
 11
-68.1884
 21
32.7747
  0
LINE
  8
0
 10
-68.1884
 20
32.7747
 11
-68.1596
 21
32.5005
  0
LINE
  8
0
 10
-68.1596
 20
32.5005
 11
-68.15
 21
32.225
  0
LINE
  8
0
 10
-68.15
 20
32.225
 11
-68.1596
 21
31.9494
  0
LINE
  8
0
 10
-68.1596
 20
31.9494
 11
-68.1884
 21
31.6753
  0
LINE
  8
0
 10
-68.1884
 20
31.6753
 11
-68.2363
 21
31.4037
  0
LINE
  8
0
 10
-68.2363
 20
31.4037
 11
-68.303
 21
31.1362
  0
LINE
  8
0
 10
-68.303
 20
31.1362
 11
-68.3882
 21
30.874
  0
LINE
  8
0
 10
-68.3882
 20
30.874
 11
-68.4915
 21
30.6184
  0
LINE
  8
0
 10
-68.4915
 20
30.6184
 11
-68.6124
 21
30.3706
  0
LINE
  8
0
 10
-68.6124
 20
30.3706
 11
-68.7502
 21
30.1318
  0
LINE
  8
0
 10
-68.7502
 20
30.1318
 11
-68.9044
 21
29.9032
  0
LINE
  8
0
 10
-68.9044
 20
29.9032
 11
-69.0741
 21
29.686
  0
LINE
  8
0
 10
-69.0741
 20
29.686
 11
-69.2586
 21
29.4811
  0
LINE
  8
0
 10
-69.2586
 20
29.4811
 11
-69.4569
 21
29.2896
  0
LINE
  8
0
 10
-69.4569
 20
29.2896
 11
-69.6681
 21
29.1124
  0
LINE
  8
0
 10
-69.6681
 20
29.1124
 11
-69.8912
 21
28.9503
  0
LINE
  8
0
 10
-69.8912
 20
28.9503
 11
-70.125
 21
28.8042
  0
LINE
  8
0
 10
-70.125
 20
28.8042
 11
-70.3684
 21
28.6748
  0
LINE
  8
0
 10
-70.3684
 20
28.6748
 11
-70.6203
 21
28.5626
  0
LINE
  8
0
 10
-70.6203
 20
28.5626
 11
-70.8794
 21
28.4683
  0
LINE
  8
0
 10
-70.8794
 20
28.4683
 11
-71.1444
 21
28.3923
  0
LINE
  8
0
 10
-71.1444
 20
28.3923
 11
-71.4141
 21
28.335
  0
LINE
  8
0
 10
-71.4141
 20
28.335
 11
-71.6871
 21
28.2966
  0
LINE
  8
0
 10
-71.6871
 20
28.2966
 11
-71.9621
 21
28.2774
  0
LINE
  8
0
 10
-71.9621
 20
28.2774
 11
-72.2379
 21
28.2774
  0
LINE
  8
0
 10
71.9621
 20
28.2774
 11
71.6871
 21
28.2966
  0
LINE
  8
0
 10
71.6871
 20
28.2966
 11
71.4141
 21
28.335
  0
LINE
  8
0
 10
71.4141
 20
28.335
 11
71.1444
 21
28.3923
  0
LINE
  8
0
 10
71.1444
 20
28.3923
 11
70.8794
 21
28.4683
  0
LINE
  8
0
 10
70.8794
 20
28.4683
 11
70.6203
 21
28.5626
  0
LINE
  8
0
 10
70.6203
 20
28.5626
 11
70.3684
 21
28.6748
  0
LINE
  8
0
 10
70.3684
 20
28.6748
 11
70.125
 21
28.8042
  0
LINE
  8
0
 10
70.125
 20
28.8042
 11
69.8912
 21
28.9503
  0
LINE
  8
0
 10
69.8912
 20
28.9503
 11
69.6681
 21
29.1124
  0
LINE
  8
0
 10
69.6681
 20
29.1124
 11
69.4569
 21
29.2896
  0
LINE
  8
0
 10
69.4569
 20
29.2896
 11
69.2586
 21
29.4811
  0
LINE
  8
0
 10
69.2586
 20
29.4811
 11
69.0741
 21
29.686
  0
LINE
  8
0
 10
69.0741
 20
29.686
 11
68.9044
 21
29.9032
  0
LINE
  8
0
 10
68.9044
 20
29.9032
 11
68.7502
 21
30.1318
  0
LINE
  8
0
 10
68.7502
 20
30.1318
 11
68.6124
 21
30.3706
  0
LINE
  8
0
 10
68.6124
 20
30.3706
 11
68.4915
 21
30.6184
  0
LINE
  8
0
 10
68.4915
 20
30.6184
 11
68.3882
 21
30.874
  0
LINE
  8
0
 10
68.3882
 20
30.874
 11
68.303
 21
31.1362
  0
LINE
  8
0
 10
68.303
 20
31.1362
 11
68.2363
 21
31.4037
  0
LINE
  8
0
 10
68.2363
 20
31.4037
 11
68.1884
 21
31.6753
  0
LINE
  8
0
 10
68.1884
 20
31.6753
 11
68.1596
 21
31.9494
  0
LINE
  8
0
 10
68.1596
 20
31.9494
 11
68.15
 21
32.225
  0
LINE
  8
0
 10
68.15
 20
32.225
 11
68.1596
 21
32.5005
  0
LINE
  8
0
 10
68.1596
 20
32.5005
 11
68.1884
 21
32.7747
  0
LINE
  8
0
 10
68.1884
 20
32.7747
 11
68.2363
 21
33.0462
  0
LINE
  8
0
 10
68.2363
 20
33.0462
 11
68.303
 21
33.3138
  0
LINE
  8
0
 10
68.303
 20
33.3138
 11
68.3882
 21
33.576
  0
LINE
  8
0
 10
68.3882
 20
33.576
 11
68.4915
 21
33.8316
  0
LINE
  8
0
 10
68.4915
 20
33.8316
 11
68.6124
 21
34.0794
  0
LINE
  8
0
 10
68.6124
 20
34.0794
 11
68.7502
 21
34.3182
  0
LINE
  8
0
 10
68.7502
 20
34.3182
 11
68.9044
 21
34.5468
  0
LINE
  8
0
 10
68.9044
 20
34.5468
 11
69.0741
 21
34.764
  0
LINE
  8
0
 10
69.0741
 20
34.764
 11
69.2586
 21
34.9689
  0
LINE
  8
0
 10
69.2586
 20
34.9689
 11
69.4569
 21
35.1604
  0
LINE
  8
0
 10
69.4569
 20
35.1604
 11
69.6681
 21
35.3376
  0
LINE
  8
0
 10
69.6681
 20
35.3376
 11
69.8912
 21
35.4997
  0
LINE
  8
0
 10
69.8912
 20
35.4997
 11
70.125
 21
35.6458
  0
LINE
  8
0
 10
70.125
 20
35.6458
 11
70.3684
 21
35.7752
  0
LINE
  8
0
 10
70.3684
 20
35.7752
 11
70.6203
 21
35.8874
  0
LINE
  8
0
 10
70.6203
 20
35.8874
 11
70.8794
 21
35.9817
  0
LINE
  8
0
 10
70.8794
 20
35.9817
 11
71.1444
 21
36.0577
  0
LINE
  8
0
 10
71.1444
 20
36.0577
 11
71.4141
 21
36.115
  0
LINE
  8
0
 10
71.4141
 20
36.115
 11
71.6871
 21
36.1534
  0
LINE
  8
0
 10
71.6871
 20
36.1534
 11
71.9621
 21
36.1726
  0
LINE
  8
0
 10
71.9621
 20
36.1726
 11
72.2379
 21
36.1726
  0
LINE
  8
0
 10
72.2379
 20
36.1726
 11
72.5129
 21
36.1534
  0
LINE
  8
0
 10
72.5129
 20
36.1534
 11
72.7859
 21
36.115
  0
LINE
  8
0
 10
72.7859
 20
36.115
 11
73.0556
 21
36.0577
  0
LINE
  8
0
 10
73.0556
 20
36.0577
 11
73.3206
 21
35.9817
  0
LINE
  8
0
 10
73.3206
 20
35.9817
 11
73.5797
 21
35.8874
  0
LINE
  8
0
 10
73.5797
 20
35.8874
 11
73.8316
 21
35.7752
  0
LINE
  8
0
 10
73.8316
 20
35.7752
 11
74.075
 21
35.6458
  0
LINE
  8
0
 10
74.075
 20
35.6458
 11
74.3088
 21
35.4997
  0
LINE
  8
0
 10
74.3088
 20
35.4997
 11
74.5319
 21
35.3376
  0
LINE
  8
0
 10
74.5319
 20
35.3376
 11
74.7431
 21
35.1604
  0
LINE
  8
0
 10
74.7431
 20
35.1604
 11
74.9414
 21
34.9689
  0
LINE
  8
0
 10
74.9414
 20
34.9689
 11
75.1259
 21
34.764
  0
LINE
  8
0
 10
75.1259
 20
34.764
 11
75.2956
 21
34.5468
  0
LINE
  8
0
 10
75.2956
 20
34.5468
 11
75.4498
 21
34.3182
  0
LINE
  8
0
 10
75.4498
 20
34.3182
 11
75.5876
 21
34.0794
  0
LINE
  8
0
 10
75.5876
 20
34.0794
 11
75.7085
 21
33.8316
  0
LINE
  8
0
 10
75.7085
 20
33.8316
 11
75.8118
 21
33.576
  0
LINE
  8
0
 10
75.8118
 20
33.576
 11
75.897
 21
33.3138
  0
LINE
  8
0
 10
75.897
 20
33.3138
 11
75.9637
 21
33.0462
  0
LINE
  8
0
 10
75.9637
 20
33.0462
 11
76.0116
 21
32.7747
  0
LINE
  8
0
 10
76.0116
 20
32.7747
 11
76.0404
 21
32.5005
  0
LINE
  8
0
 10
76.0404
 20
32.5005
 11
76.05
 21
32.225
  0
LINE
  8
0
 10
76.05
 20
32.225
 11
76.0404
 21
31.9494
  0
LINE
  8
0
 10
76.0404
 20
31.9494
 11
76.0116
 21
31.6753
  0
LINE
  8
0
 10
76.0116
 20
31.6753
 11
75.9637
 21
31.4037
  0
LINE
  8
0
 10
75.9637
 20
31.4037
 11
75.897
 21
31.1362
  0
LINE
  8
0
 10
75.897
 20
31.1362
 11
75.8118
 21
30.874
  0
LINE
  8
0
 10
75.8118
 20
30.874
 11
75.7085
 21
30.6184
  0
LINE
  8
0
 10
75.7085
 20
30.6184
 11
75.5876
 21
30.3706
  0
LINE
  8
0
 10
75.5876
 20
30.3706
 11
75.4498
 21
30.1318
  0
LINE
  8
0
 10
75.4498
 20
30.1318
 11
75.2956
 21
29.9032
  0
LINE
  8
0
 10
75.2956
 20
29.9032
 11
75.1259
 21
29.686
  0
LINE
  8
0
 10
75.1259
 20
29.686
 11
74.9414
 21
29.4811
  0
LINE
  8
0
 10
74.9414
 20
29.4811
 11
74.7431
 21
29.2896
  0
LINE
  8
0
 10
74.7431
 20
29.2896
 11
74.5319
 21
29.1124
  0
LINE
  8
0
 10
74.5319
 20
29.1124
 11
74.3088
 21
28.9503
  0
LINE
  8
0
 10
74.3088
 20
28.9503
 11
74.075
 21
28.8042
  0
LINE
  8
0
 10
74.075
 20
28.8042
 11
73.8316
 21
28.6748
  0
LINE
  8
0
 10
73.8316
 20
28.6748
 11
73.5797
 21
28.5626
  0
LINE
  8
0
 10
73.5797
 20
28.5626
 11
73.3206
 21
28.4683
  0
LINE
  8
0
 10
73.3206
 20
28.4683
 11
73.0556
 21
28.3923
  0
LINE
  8
0
 10
73.0556
 20
28.3923
 11
72.7859
 21
28.335
  0
LINE
  8
0
 10
72.7859
 20
28.335
 11
72.5129
 21
28.2966
  0
LINE
  8
0
 10
72.5129
 20
28.2966
 11
72.2379
 21
28.2774
  0
LINE
  8
0
 10
72.2379
 20
28.2774
 11
71.9621
 21
28.2774
  0
LINE
  8
0
 10
-89.317
 20
13.4527
 11
-89.6304
 21
13.4746
  0
LINE
  8
0
 10
-89.6304
 20
13.4746
 11
-89.9414
 21
13.5184
  0
LINE
  8
0
 10
-89.9414
 20
13.5184
 11
-90.2486
 21
13.5837
  0
LINE
  8
0
 10
-90.2486
 20
13.5837
 11
-90.5506
 21
13.6702
  0
LINE
  8
0
 10
-90.5506
 20
13.6702
 11
-90.8457
 21
13.7777
  0
LINE
  8
0
 10
-90.8457
 20
13.7777
 11
-91.1327
 21
13.9054
  0
LINE
  8
0
 10
-91.1327
 20
13.9054
 11
-91.41
 21
14.0529
  0
LINE
  8
0
 10
-91.41
 20
14.0529
 11
-91.6764
 21
14.2193
  0
LINE
  8
0
 10
-91.6764
 20
14.2193
 11
-91.9305
 21
14.4039
  0
LINE
  8
0
 10
-91.9305
 20
14.4039
 11
-92.1711
 21
14.6058
  0
LINE
  8
0
 10
-92.1711
 20
14.6058
 11
-92.397
 21
14.824
  0
LINE
  8
0
 10
-92.397
 20
14.824
 11
-92.6072
 21
15.0574
  0
LINE
  8
0
 10
-92.6072
 20
15.0574
 11
-92.8006
 21
15.305
  0
LINE
  8
0
 10
-92.8006
 20
15.305
 11
-92.9762
 21
15.5654
  0
LINE
  8
0
 10
-92.9762
 20
15.5654
 11
-93.1333
 21
15.8374
  0
LINE
  8
0
 10
-93.1333
 20
15.8374
 11
-93.271
 21
16.1197
  0
LINE
  8
0
 10
-93.271
 20
16.1197
 11
-93.3886
 21
16.4109
  0
LINE
  8
0
 10
-93.3886
 20
16.4109
 11
-93.4857
 21
16.7096
  0
LINE
  8
0
 10
-93.4857
 20
16.7096
 11
-93.5617
 21
17.0144
  0
LINE
  8
0
 10
-93.5617
 20
17.0144
 11
-93.6162
 21
17.3237
  0
LINE
  8
0
 10
-93.6162
 20
17.3237
 11
-93.649
 21
17.6361
  0
LINE
  8
0
 10
-93.649
 20
17.6361
 11
-93.66
 21
17.95
  0
LINE
  8
0
 10
-93.66
 20
17.95
 11
-93.649
 21
18.2639
  0
LINE
  8
0
 10
-93.649
 20
18.2639
 11
-93.6162
 21
18.5763
  0
LINE
  8
0
 10
-93.6162
 20
18.5763
 11
-93.5617
 21
18.8856
  0
LINE
  8
0
 10
-93.5617
 20
18.8856
 11
-93.4857
 21
19.1904
  0
LINE
  8
0
 10
-93.4857
 20
19.1904
 11
-93.3886
 21
19.4891
  0
LINE
  8
0
 10
-93.3886
 20
19.4891
 11
-93.271
 21
19.7803
  0
LINE
  8
0
 10
-93.271
 20
19.7803
 11
-93.1333
 21
20.0626
  0
LINE
  8
0
 10
-93.1333
 20
20.0626
 11
-92.9762
 21
20.3346
  0
LINE
  8
0
 10
-92.9762
 20
20.3346
 11
-92.8006
 21
20.595
  0
LINE
  8
0
 10
-92.8006
 20
20.595
 11
-92.6072
 21
20.8425
  0
LINE
  8
0
 10
-92.6072
 20
20.8425
 11
-92.397
 21
21.076
  0
LINE
  8
0
 10
-92.397
 20
21.076
 11
-92.1711
 21
21.2941
  0
LINE
  8
0
 10
-92.1711
 20
21.2941
 11
-91.9305
 21
21.496
  0
LINE
  8
0
 10
-91.9305
 20
21.496
 11
-91.6764
 21
21.6807
  0
LINE
  8
0
 10
-91.6764
 20
21.6807
 11
-91.41
 21
21.8471
  0
LINE
  8
0
 10
-91.41
 20
21.8471
 11
-91.1327
 21
21.9946
  0
LINE
  8
0
 10
-91.1327
 20
21.9946
 11
-90.8457
 21
22.1223
  0
LINE
  8
0
 10
-90.8457
 20
22.1223
 11
-90.5506
 21
22.2298
  0
LINE
  8
0
 10
-90.5506
 20
22.2298
 11
-90.2486
 21
22.3163
  0
LINE
  8
0
 10
-90.2486
 20
22.3163
 11
-89.9414
 21
22.3816
  0
LINE
  8
0
 10
-89.9414
 20
22.3816
 11
-89.6304
 21
22.4253
  0
LINE
  8
0
 10
-89.6304
 20
22.4253
 11
-89.317
 21
22.4473
  0
LINE
  8
0
 10
-89.317
 20
22.4473
 11
-89.0029
 21
22.4473
  0
LINE
  8
0
 10
-89.0029
 20
22.4473
 11
-88.6896
 21
22.4253
  0
LINE
  8
0
 10
-88.6896
 20
22.4253
 11
-88.3786
 21
22.3816
  0
LINE
  8
0
 10
-88.3786
 20
22.3816
 11
-88.0714
 21
22.3163
  0
LINE
  8
0
 10
-88.0714
 20
22.3163
 11
-87.7694
 21
22.2298
  0
LINE
  8
0
 10
-87.7694
 20
22.2298
 11
-87.4743
 21
22.1223
  0
LINE
  8
0
 10
-87.4743
 20
22.1223
 11
-87.1873
 21
21.9946
  0
LINE
  8
0
 10
-87.1873
 20
21.9946
 11
-86.91
 21
21.8471
  0
LINE
  8
0
 10
-86.91
 20
21.8471
 11
-86.6436
 21
21.6807
  0
LINE
  8
0
 10
-86.6436
 20
21.6807
 11
-86.3895
 21
21.496
  0
LINE
  8
0
 10
-86.3895
 20
21.496
 11
-86.1489
 21
21.2941
  0
LINE
  8
0
 10
-86.1489
 20
21.2941
 11
-85.923
 21
21.076
  0
LINE
  8
0
 10
-85.923
 20
21.076
 11
-85.7128
 21
20.8425
  0
LINE
  8
0
 10
-85.7128
 20
20.8425
 11
-85.5194
 21
20.595
  0
LINE
  8
0
 10
-85.5194
 20
20.595
 11
-85.3438
 21
20.3346
  0
LINE
  8
0
 10
-85.3438
 20
20.3346
 11
-85.1867
 21
20.0626
  0
LINE
  8
0
 10
-85.1867
 20
20.0626
 11
-85.049
 21
19.7803
  0
LINE
  8
0
 10
-85.049
 20
19.7803
 11
-84.9314
 21
19.4891
  0
LINE
  8
0
 10
-84.9314
 20
19.4891
 11
-84.8343
 21
19.1904
  0
LINE
  8
0
 10
-84.8343
 20
19.1904
 11
-84.7583
 21
18.8856
  0
LINE
  8
0
 10
-84.7583
 20
18.8856
 11
-84.7038
 21
18.5763
  0
LINE
  8
0
 10
-84.7038
 20
18.5763
 11
-84.671
 21
18.2639
  0
LINE
  8
0
 10
-84.671
 20
18.2639
 11
-84.66
 21
17.95
  0
LINE
  8
0
 10
-84.66
 20
17.95
 11
-84.671
 21
17.6361
  0
LINE
  8
0
 10
-84.671
 20
17.6361
 11
-84.7038
 21
17.3237
  0
LINE
  8
0
 10
-84.7038
 20
17.3237
 11
-84.7583
 21
17.0144
  0
LINE
  8
0
 10
-84.7583
 20
17.0144
 11
-84.8343
 21
16.7096
  0
LINE
  8
0
 10
-84.8343
 20
16.7096
 11
-84.9314
 21
16.4109
  0
LINE
  8
0
 10
-84.9314
 20
16.4109
 11
-85.049
 21
16.1197
  0
LINE
  8
0
 10
-85.049
 20
16.1197
 11
-85.1867
 21
15.8374
  0
LINE
  8
0
 10
-85.1867
 20
15.8374
 11
-85.3438
 21
15.5654
  0
LINE
  8
0
 10
-85.3438
 20
15.5654
 11
-85.5194
 21
15.305
  0
LINE
  8
0
 10
-85.5194
 20
15.305
 11
-85.7128
 21
15.0574
  0
LINE
  8
0
 10
-85.7128
 20
15.0574
 11
-85.923
 21
14.824
  0
LINE
  8
0
 10
-85.923
 20
14.824
 11
-86.1489
 21
14.6058
  0
LINE
  8
0
 10
-86.1489
 20
14.6058
 11
-86.3895
 21
14.4039
  0
LINE
  8
0
 10
-86.3895
 20
14.4039
 11
-86.6436
 21
14.2193
  0
LINE
  8
0
 10
-86.6436
 20
14.2193
 11
-86.91
 21
14.0529
  0
LINE
  8
0
 10
-86.91
 20
14.0529
 11
-87.1873
 21
13.9054
  0
LINE
  8
0
 10
-87.1873
 20
13.9054
 11
-87.4743
 21
13.7777
  0
LINE
  8
0
 10
-87.4743
 20
13.7777
 11
-87.7694
 21
13.6702
  0
LINE
  8
0
 10
-87.7694
 20
13.6702
 11
-88.0714
 21
13.5837
  0
LINE
  8
0
 10
-88.0714
 20
13.5837
 11
-88.3786
 21
13.5184
  0
LINE
  8
0
 10
-88.3786
 20
13.5184
 11
-88.6896
 21
13.4746
  0
LINE
  8
0
 10
-88.6896
 20
13.4746
 11
-89.0029
 21
13.4527
  0
LINE
  8
0
 10
-89.0029
 20
13.4527
 11
-89.317
 21
13.4527
  0
LINE
  8
0
 10
21.8621
 20
-3.94759
 11
21.5871
 21
-3.92836
  0
LINE
  8
0
 10
21.5871
 20
-3.92836
 11
21.3141
 21
-3.88998
  0
LINE
  8
0
 10
21.3141
 20
-3.88998
 11
21.0444
 21
-3.83266
  0
LINE
  8
0
 10
21.0444
 20
-3.83266
 11
20.7794
 21
-3.75667
  0
LINE
  8
0
 10
20.7794
 20
-3.75667
 11
20.5203
 21
-3.66237
  0
LINE
  8
0
 10
20.5203
 20
-3.66237
 11
20.2684
 21
-3.55023
  0
LINE
  8
0
 10
20.2684
 20
-3.55023
 11
20.025
 21
-3.42079
  0
LINE
  8
0
 10
20.025
 20
-3.42079
 11
19.7912
 21
-3.27469
  0
LINE
  8
0
 10
19.7912
 20
-3.27469
 11
19.5681
 21
-3.11264
  0
LINE
  8
0
 10
19.5681
 20
-3.11264
 11
19.3569
 21
-2.93541
  0
LINE
  8
0
 10
19.3569
 20
-2.93541
 11
19.1586
 21
-2.7439
  0
LINE
  8
0
 10
19.1586
 20
-2.7439
 11
18.9741
 21
-2.539
  0
LINE
  8
0
 10
18.9741
 20
-2.539
 11
18.8044
 21
-2.32175
  0
LINE
  8
0
 10
18.8044
 20
-2.32175
 11
18.6502
 21
-2.09317
  0
LINE
  8
0
 10
18.6502
 20
-2.09317
 11
18.5123
 21
-1.8544
  0
LINE
  8
0
 10
18.5123
 20
-1.8544
 11
18.3915
 21
-1.6066
  0
LINE
  8
0
 10
18.3915
 20
-1.6066
 11
18.2882
 21
-1.35097
  0
LINE
  8
0
 10
18.2882
 20
-1.35097
 11
18.203
 21
-1.08876
  0
LINE
  8
0
 10
18.203
 20
-1.08876
 11
18.1363
 21
-0.821243
  0
LINE
  8
0
 10
18.1363
 20
-0.821243
 11
18.0884
 21
-0.549728
  0
LINE
  8
0
 10
18.0884
 20
-0.549728
 11
18.0596
 21
-0.275528
  0
LINE
  8
0
 10
18.0596
 20
-0.275528
 11
18.05
 21
0
  0
LINE
  8
0
 10
18.05
 20
0
 11
18.0596
 21
0.275528
  0
LINE
  8
0
 10
18.0596
 20
0.275528
 11
18.0884
 21
0.549728
  0
LINE
  8
0
 10
18.0884
 20
0.549728
 11
18.1363
 21
0.821243
  0
LINE
  8
0
 10
18.1363
 20
0.821243
 11
18.203
 21
1.08876
  0
LINE
  8
0
 10
18.203
 20
1.08876
 11
18.2882
 21
1.35097
  0
LINE
  8
0
 10
18.2882
 20
1.35097
 11
18.3915
 21
1.6066
  0
LINE
  8
0
 10
18.3915
 20
1.6066
 11
18.5123
 21
1.8544
  0
LINE
  8
0
 10
18.5123
 20
1.8544
 11
18.6502
 21
2.09317
  0
LINE
  8
0
 10
18.6502
 20
2.09317
 11
18.8044
 21
2.32175
  0
LINE
  8
0
 10
18.8044
 20
2.32175
 11
18.9741
 21
2.539
  0
LINE
  8
0
 10
18.9741
 20
2.539
 11
19.1586
 21
2.7439
  0
LINE
  8
0
 10
19.1586
 20
2.7439
 11
19.3569
 21
2.93541
  0
LINE
  8
0
 10
19.3569
 20
2.93541
 11
19.5681
 21
3.11264
  0
LINE
  8
0
 10
19.5681
 20
3.11264
 11
19.7912
 21
3.27469
  0
LINE
  8
0
 10
19.7912
 20
3.27469
 11
20.025
 21
3.42079
  0
LINE
  8
0
 10
20.025
 20
3.42079
 11
20.2684
 21
3.55023
  0
LINE
  8
0
 10
20.2684
 20
3.55023
 11
20.5203
 21
3.66237
  0
LINE
  8
0
 10
20.5203
 20
3.66237
 11
20.7794
 21
3.75667
  0
LINE
  8
0
 10
20.7794
 20
3.75667
 11
21.0444
 21
3.83266
  0
LINE
  8
0
 10
21.0444
 20
3.83266
 11
21.3141
 21
3.88998
  0
LINE
  8
0
 10
21.3141
 20
3.88998
 11
21.5871
 21
3.92836
  0
LINE
  8
0
 10
21.5871
 20
3.92836
 11
21.8621
 21
3.94759
  0
LINE
  8
0
 10
21.8621
 20
3.94759
 11
22.1378
 21
3.94759
  0
LINE
  8
0
 10
22.1378
 20
3.94759
 11
22.4129
 21
3.92836
  0
LINE
  8
0
 10
22.4129
 20
3.92836
 11
22.6859
 21
3.88998
  0
LINE
  8
0
 10
22.6859
 20
3.88998
 11
22.9556
 21
3.83266
  0
LINE
  8
0
 10
22.9556
 20
3.83266
 11
23.2206
 21
3.75667
  0
LINE
  8
0
 10
23.2206
 20
3.75667
 11
23.4797
 21
3.66237
  0
LINE
  8
0
 10
23.4797
 20
3.66237
 11
23.7316
 21
3.55023
  0
LINE
  8
0
 10
23.7316
 20
3.55023
 11
23.975
 21
3.42079
  0
LINE
  8
0
 10
23.975
 20
3.42079
 11
24.2088
 21
3.27469
  0
LINE
  8
0
 10
24.2088
 20
3.27469
 11
24.4319
 21
3.11264
  0
LINE
  8
0
 10
24.4319
 20
3.11264
 11
24.6431
 21
2.93541
  0
LINE
  8
0
 10
24.6431
 20
2.93541
 11
24.8414
 21
2.7439
  0
LINE
  8
0
 10
24.8414
 20
2.7439
 11
25.0259
 21
2.539
  0
LINE
  8
0
 10
25.0259
 20
2.539
 11
25.1956
 21
2.32175
  0
LINE
  8
0
 10
25.1956
 20
2.32175
 11
25.3498
 21
2.09317
  0
LINE
  8
0
 10
25.3498
 20
2.09317
 11
25.4876
 21
1.8544
  0
LINE
  8
0
 10
25.4876
 20
1.8544
 11
25.6085
 21
1.6066
  0
LINE
  8
0
 10
25.6085
 20
1.6066
 11
25.7118
 21
1.35097
  0
LINE
  8
0
 10
25.7118
 20
1.35097
 11
25.797
 21
1.08876
  0
LINE
  8
0
 10
25.797
 20
1.08876
 11
25.8637
 21
0.821243
  0
LINE
  8
0
 10
25.8637
 20
0.821243
 11
25.9115
 21
0.549728
  0
LINE
  8
0
 10
25.9115
 20
0.549728
 11
25.9404
 21
0.275528
  0
LINE
  8
0
 10
25.9404
 20
0.275528
 11
25.95
 21
0
  0
LINE
  8
0
 10
25.95
 20
0
 11
25.9404
 21
-0.275528
  0
LINE
  8
0
 10
25.9404
 20
-0.275528
 11
25.9115
 21
-0.549728
  0
LINE
  8
0
 10
25.9115
 20
-0.549728
 11
25.8637
 21
-0.821243
  0
LINE
  8
0
 10
25.8637
 20
-0.821243
 11
25.797
 21
-1.08876
  0
LINE
  8
0
 10
25.797
 20
-1.08876
 11
25.7118
 21
-1.35097
  0
LINE
  8
0
 10
25.7118
 20
-1.35097
 11
25.6085
 21
-1.6066
  0
LINE
  8
0
 10
25.6085
 20
-1.6066
 11
25.4876
 21
-1.8544
  0
LINE
  8
0
 10
25.4876
 20
-1.8544
 11
25.3498
 21
-2.09317
  0
LINE
  8
0
 10
25.3498
 20
-2.09317
 11
25.1956
 21
-2.32175
  0
LINE
  8
0
 10
25.1956
 20
-2.32175
 11
25.0259
 21
-2.539
  0
LINE
  8
0
 10
25.0259
 20
-2.539
 11
24.8414
 21
-2.7439
  0
LINE
  8
0
 10
24.8414
 20
-2.7439
 11
24.6431
 21
-2.93541
  0
LINE
  8
0
 10
24.6431
 20
-2.93541
 11
24.4319
 21
-3.11264
  0
LINE
  8
0
 10
24.4319
 20
-3.11264
 11
24.2088
 21
-3.27469
  0
LINE
  8
0
 10
24.2088
 20
-3.27469
 11
23.975
 21
-3.42079
  0
LINE
  8
0
 10
23.975
 20
-3.42079
 11
23.7316
 21
-3.55023
  0
LINE
  8
0
 10
23.7316
 20
-3.55023
 11
23.4797
 21
-3.66237
  0
LINE
  8
0
 10
23.4797
 20
-3.66237
 11
23.2206
 21
-3.75667
  0
LINE
  8
0
 10
23.2206
 20
-3.75667
 11
22.9556
 21
-3.83266
  0
LINE
  8
0
 10
22.9556
 20
-3.83266
 11
22.6859
 21
-3.88998
  0
LINE
  8
0
 10
22.6859
 20
-3.88998
 11
22.4129
 21
-3.92836
  0
LINE
  8
0
 10
22.4129
 20
-3.92836
 11
22.1378
 21
-3.94759
  0
LINE
  8
0
 10
22.1378
 20
-3.94759
 11
21.8621
 21
-3.94759
  0
LINE
  8
0
 10
-22.1378
 20
-3.94759
 11
-22.4129
 21
-3.92836
  0
LINE
  8
0
 10
-22.4129
 20
-3.92836
 11
-22.6859
 21
-3.88998
  0
LINE
  8
0
 10
-22.6859
 20
-3.88998
 11
-22.9556
 21
-3.83266
  0
LINE
  8
0
 10
-22.9556
 20
-3.83266
 11
-23.2206
 21
-3.75667
  0
LINE
  8
0
 10
-23.2206
 20
-3.75667
 11
-23.4797
 21
-3.66237
  0
LINE
  8
0
 10
-23.4797
 20
-3.66237
 11
-23.7316
 21
-3.55023
  0
LINE
  8
0
 10
-23.7316
 20
-3.55023
 11
-23.975
 21
-3.42079
  0
LINE
  8
0
 10
-23.975
 20
-3.42079
 11
-24.2088
 21
-3.27469
  0
LINE
  8
0
 10
-24.2088
 20
-3.27469
 11
-24.4319
 21
-3.11264
  0
LINE
  8
0
 10
-24.4319
 20
-3.11264
 11
-24.6431
 21
-2.93541
  0
LINE
  8
0
 10
-24.6431
 20
-2.93541
 11
-24.8414
 21
-2.7439
  0
LINE
  8
0
 10
-24.8414
 20
-2.7439
 11
-25.0259
 21
-2.539
  0
LINE
  8
0
 10
-25.0259
 20
-2.539
 11
-25.1956
 21
-2.32175
  0
LINE
  8
0
 10
-25.1956
 20
-2.32175
 11
-25.3498
 21
-2.09317
  0
LINE
  8
0
 10
-25.3498
 20
-2.09317
 11
-25.4876
 21
-1.8544
  0
LINE
  8
0
 10
-25.4876
 20
-1.8544
 11
-25.6085
 21
-1.6066
  0
LINE
  8
0
 10
-25.6085
 20
-1.6066
 11
-25.7118
 21
-1.35097
  0
LINE
  8
0
 10
-25.7118
 20
-1.35097
 11
-25.797
 21
-1.08876
  0
LINE
  8
0
 10
-25.797
 20
-1.08876
 11
-25.8637
 21
-0.821243
  0
LINE
  8
0
 10
-25.8637
 20
-0.821243
 11
-25.9115
 21
-0.549728
  0
LINE
  8
0
 10
-25.9115
 20
-0.549728
 11
-25.9404
 21
-0.275528
  0
LINE
  8
0
 10
-25.9404
 20
-0.275528
 11
-25.95
 21
0
  0
LINE
  8
0
 10
-25.95
 20
0
 11
-25.9404
 21
0.275528
  0
LINE
  8
0
 10
-25.9404
 20
0.275528
 11
-25.9115
 21
0.549728
  0
LINE
  8
0
 10
-25.9115
 20
0.549728
 11
-25.8637
 21
0.821243
  0
LINE
  8
0
 10
-25.8637
 20
0.821243
 11
-25.797
 21
1.08876
  0
LINE
  8
0
 10
-25.797
 20
1.08876
 11
-25.7118
 21
1.35097
  0
LINE
  8
0
 10
-25.7118
 20
1.35097
 11
-25.6085
 21
1.6066
  0
LINE
  8
0
 10
-25.6085
 20
1.6066
 11
-25.4876
 21
1.8544
  0
LINE
  8
0
 10
-25.4876
 20
1.8544
 11
-25.3498
 21
2.09317
  0
LINE
  8
0
 10
-25.3498
 20
2.09317
 11
-25.1956
 21
2.32175
  0
LINE
  8
0
 10
-25.1956
 20
2.32175
 11
-25.0259
 21
2.539
  0
LINE
  8
0
 10
-25.0259
 20
2.539
 11
-24.8414
 21
2.7439
  0
LINE
  8
0
 10
-24.8414
 20
2.7439
 11
-24.6431
 21
2.93541
  0
LINE
  8
0
 10
-24.6431
 20
2.93541
 11
-24.4319
 21
3.11264
  0
LINE
  8
0
 10
-24.4319
 20
3.11264
 11
-24.2088
 21
3.27469
  0
LINE
  8
0
 10
-24.2088
 20
3.27469
 11
-23.975
 21
3.42079
  0
LINE
  8
0
 10
-23.975
 20
3.42079
 11
-23.7316
 21
3.55023
  0
LINE
  8
0
 10
-23.7316
 20
3.55023
 11
-23.4797
 21
3.66237
  0
LINE
  8
0
 10
-23.4797
 20
3.66237
 11
-23.2206
 21
3.75667
  0
LINE
  8
0
 10
-23.2206
 20
3.75667
 11
-22.9556
 21
3.83266
  0
LINE
  8
0
 10
-22.9556
 20
3.83266
 11
-22.6859
 21
3.88998
  0
LINE
  8
0
 10
-22.6859
 20
3.88998
 11
-22.4129
 21
3.92836
  0
LINE
  8
0
 10
-22.4129
 20
3.92836
 11
-22.1378
 21
3.94759
  0
LINE
  8
0
 10
-22.1378
 20
3.94759
 11
-21.8621
 21
3.94759
  0
LINE
  8
0
 10
-21.8621
 20
3.94759
 11
-21.5871
 21
3.92836
  0
LINE
  8
0
 10
-21.5871
 20
3.92836
 11
-21.3141
 21
3.88998
  0
LINE
  8
0
 10
-21.3141
 20
3.88998
 11
-21.0444
 21
3.83266
  0
LINE
  8
0
 10
-21.0444
 20
3.83266
 11
-20.7794
 21
3.75667
  0
LINE
  8
0
 10
-20.7794
 20
3.75667
 11
-20.5203
 21
3.66237
  0
LINE
  8
0
 10
-20.5203
 20
3.66237
 11
-20.2684
 21
3.55023
  0
LINE
  8
0
 10
-20.2684
 20
3.55023
 11
-20.025
 21
3.42079
  0
LINE
  8
0
 10
-20.025
 20
3.42079
 11
-19.7912
 21
3.27469
  0
LINE
  8
0
 10
-19.7912
 20
3.27469
 11
-19.5681
 21
3.11264
  0
LINE
  8
0
 10
-19.5681
 20
3.11264
 11
-19.3569
 21
2.93541
  0
LINE
  8
0
 10
-19.3569
 20
2.93541
 11
-19.1586
 21
2.7439
  0
LINE
  8
0
 10
-19.1586
 20
2.7439
 11
-18.9741
 21
2.539
  0
LINE
  8
0
 10
-18.9741
 20
2.539
 11
-18.8044
 21
2.32175
  0
LINE
  8
0
 10
-18.8044
 20
2.32175
 11
-18.6502
 21
2.09317
  0
LINE
  8
0
 10
-18.6502
 20
2.09317
 11
-18.5123
 21
1.8544
  0
LINE
  8
0
 10
-18.5123
 20
1.8544
 11
-18.3915
 21
1.6066
  0
LINE
  8
0
 10
-18.3915
 20
1.6066
 11
-18.2882
 21
1.35097
  0
LINE
  8
0
 10
-18.2882
 20
1.35097
 11
-18.203
 21
1.08876
  0
LINE
  8
0
 10
-18.203
 20
1.08876
 11
-18.1363
 21
0.821243
  0
LINE
  8
0
 10
-18.1363
 20
0.821243
 11
-18.0884
 21
0.549728
  0
LINE
  8
0
 10
-18.0884
 20
0.549728
 11
-18.0596
 21
0.275528
  0
LINE
  8
0
 10
-18.0596
 20
0.275528
 11
-18.05
 21
0
  0
LINE
  8
0
 10
-18.05
 20
0
 11
-18.0596
 21
-0.275528
  0
LINE
  8
0
 10
-18.0596
 20
-0.275528
 11
-18.0884
 21
-0.549728
  0
LINE
  8
0
 10
-18.0884
 20
-0.549728
 11
-18.1363
 21
-0.821243
  0
LINE
  8
0
 10
-18.1363
 20
-0.821243
 11
-18.203
 21
-1.08876
  0
LINE
  8
0
 10
-18.203
 20
-1.08876
 11
-18.2882
 21
-1.35097
  0
LINE
  8
0
 10
-18.2882
 20
-1.35097
 11
-18.3915
 21
-1.6066
  0
LINE
  8
0
 10
-18.3915
 20
-1.6066
 11
-18.5123
 21
-1.8544
  0
LINE
  8
0
 10
-18.5123
 20
-1.8544
 11
-18.6502
 21
-2.09317
  0
LINE
  8
0
 10
-18.6502
 20
-2.09317
 11
-18.8044
 21
-2.32175
  0
LINE
  8
0
 10
-18.8044
 20
-2.32175
 11
-18.9741
 21
-2.539
  0
LINE
  8
0
 10
-18.9741
 20
-2.539
 11
-19.1586
 21
-2.7439
  0
LINE
  8
0
 10
-19.1586
 20
-2.7439
 11
-19.3569
 21
-2.93541
  0
LINE
  8
0
 10
-19.3569
 20
-2.93541
 11
-19.5681
 21
-3.11264
  0
LINE
  8
0
 10
-19.5681
 20
-3.11264
 11
-19.7912
 21
-3.27469
  0
LINE
  8
0
 10
-19.7912
 20
-3.27469
 11
-20.025
 21
-3.42079
  0
LINE
  8
0
 10
-20.025
 20
-3.42079
 11
-20.2684
 21
-3.55023
  0
LINE
  8
0
 10
-20.2684
 20
-3.55023
 11
-20.5203
 21
-3.66237
  0
LINE
  8
0
 10
-20.5203
 20
-3.66237
 11
-20.7794
 21
-3.75667
  0
LINE
  8
0
 10
-20.7794
 20
-3.75667
 11
-21.0444
 21
-3.83266
  0
LINE
  8
0
 10
-21.0444
 20
-3.83266
 11
-21.3141
 21
-3.88998
  0
LINE
  8
0
 10
-21.3141
 20
-3.88998
 11
-21.5871
 21
-3.92836
  0
LINE
  8
0
 10
-21.5871
 20
-3.92836
 11
-21.8621
 21
-3.94759
  0
LINE
  8
0
 10
-21.8621
 20
-3.94759
 11
-22.1378
 21
-3.94759
  0
LINE
  8
0
 10
-0.102951
 20
-5.4482
 11
-0.30835
 21
-5.43384
  0
LINE
  8
0
 10
-0.30835
 20
-5.43384
 11
-0.512253
 21
-5.40518
  0
LINE
  8
0
 10
-0.512253
 20
-5.40518
 11
-0.713669
 21
-5.36237
  0
LINE
  8
0
 10
-0.713669
 20
-5.36237
 11
-0.911591
 21
-5.3056
  0
LINE
  8
0
 10
-0.911591
 20
-5.3056
 11
-1.10509
 21
-5.23518
  0
LINE
  8
0
 10
-1.10509
 20
-5.23518
 11
-1.29318
 21
-5.15143
  0
LINE
  8
0
 10
-1.29318
 20
-5.15143
 11
-1.47499
 21
-5.05476
  0
LINE
  8
0
 10
-1.47499
 20
-5.05476
 11
-1.64961
 21
-4.94565
  0
LINE
  8
0
 10
-1.64961
 20
-4.94565
 11
-1.81619
 21
-4.82463
  0
LINE
  8
0
 10
-1.81619
 20
-4.82463
 11
-1.97392
 21
-4.69228
  0
LINE
  8
0
 10
-1.97392
 20
-4.69228
 11
-2.12204
 21
-4.54924
  0
LINE
  8
0
 10
-2.12204
 20
-4.54924
 11
-2.25983
 21
-4.39621
  0
LINE
  8
0
 10
-2.25983
 20
-4.39621
 11
-2.3866
 21
-4.23396
  0
LINE
  8
0
 10
-2.3866
 20
-4.23396
 11
-2.50174
 21
-4.06325
  0
LINE
  8
0
 10
-2.50174
 20
-4.06325
 11
-2.60469
 21
-3.88493
  0
LINE
  8
0
 10
-2.60469
 20
-3.88493
 11
-2.69495
 21
-3.69986
  0
LINE
  8
0
 10
-2.69495
 20
-3.69986
 11
-2.77208
 21
-3.50896
  0
LINE
  8
0
 10
-2.77208
 20
-3.50896
 11
-2.83571
 21
-3.31313
  0
LINE
  8
0
 10
-2.83571
 20
-3.31313
 11
-2.88553
 21
-3.11333
  0
LINE
  8
0
 10
-2.88553
 20
-3.11333
 11
-2.92128
 21
-2.91055
  0
LINE
  8
0
 10
-2.92128
 20
-2.91055
 11
-2.94281
 21
-2.70578
  0
LINE
  8
0
 10
-2.94281
 20
-2.70578
 11
-2.95
 21
-2.5
  0
LINE
  8
0
 10
-2.95
 20
-2.5
 11
-2.94281
 21
-2.2942
  0
LINE
  8
0
 10
-2.94281
 20
-2.2942
 11
-2.92128
 21
-2.08943
  0
LINE
  8
0
 10
-2.92128
 20
-2.08943
 11
-2.88553
 21
-1.88666
  0
LINE
  8
0
 10
-2.88553
 20
-1.88666
 11
-2.83571
 21
-1.68686
  0
LINE
  8
0
 10
-2.83571
 20
-1.68686
 11
-2.77208
 21
-1.49103
  0
LINE
  8
0
 10
-2.77208
 20
-1.49103
 11
-2.69495
 21
-1.30013
  0
LINE
  8
0
 10
-2.69495
 20
-1.30013
 11
-2.60469
 21
-1.11505
  0
LINE
  8
0
 10
-2.60469
 20
-1.11505
 11
-2.50174
 21
-0.936737
  0
LINE
  8
0
 10
-2.50174
 20
-0.936737
 11
-2.3866
 21
-0.766022
  0
LINE
  8
0
 10
-2.3866
 20
-0.766022
 11
-2.25983
 21
-0.603775
  0
LINE
  8
0
 10
-2.25983
 20
-0.603775
 11
-2.12204
 21
-0.450745
  0
LINE
  8
0
 10
-2.12204
 20
-0.450745
 11
-1.97392
 21
-0.307709
  0
LINE
  8
0
 10
-1.97392
 20
-0.307709
 11
-1.81619
 21
-0.175354
  0
LINE
  8
0
 10
-1.81619
 20
-0.175354
 11
-1.64961
 21
-0.0543365
  0
LINE
  8
0
 10
-1.64961
 20
-0.0543365
 11
-1.47499
 21
0.0547638
  0
LINE
  8
0
 10
-1.47499
 20
0.0547638
 11
-1.29318
 21
0.151428
  0
LINE
  8
0
 10
-1.29318
 20
0.151428
 11
-1.10509
 21
0.235184
  0
LINE
  8
0
 10
-1.10509
 20
0.235184
 11
-0.911591
 21
0.305603
  0
LINE
  8
0
 10
-0.911591
 20
0.305603
 11
-0.713669
 21
0.362366
  0
LINE
  8
0
 10
-0.713669
 20
0.362366
 11
-0.512253
 21
0.405182
  0
LINE
  8
0
 10
-0.512253
 20
0.405182
 11
-0.30835
 21
0.433838
  0
LINE
  8
0
 10
-0.30835
 20
0.433838
 11
-0.102951
 21
0.448196
  0
LINE
  8
0
 10
-0.102951
 20
0.448196
 11
0.102951
 21
0.448196
  0
LINE
  8
0
 10
0.102951
 20
0.448196
 11
0.30835
 21
0.433838
  0
LINE
  8
0
 10
0.30835
 20
0.433838
 11
0.512253
 21
0.405182
  0
LINE
  8
0
 10
0.512253
 20
0.405182
 11
0.713669
 21
0.362366
  0
LINE
  8
0
 10
0.713669
 20
0.362366
 11
0.911591
 21
0.305603
  0
LINE
  8
0
 10
0.911591
 20
0.305603
 11
1.10509
 21
0.235184
  0
LINE
  8
0
 10
1.10509
 20
0.235184
 11
1.29318
 21
0.151428
  0
LINE
  8
0
 10
1.29318
 20
0.151428
 11
1.47499
 21
0.0547638
  0
LINE
  8
0
 10
1.47499
 20
0.0547638
 11
1.64961
 21
-0.0543365
  0
LINE
  8
0
 10
1.64961
 20
-0.0543365
 11
1.81619
 21
-0.175354
  0
LINE
  8
0
 10
1.81619
 20
-0.175354
 11
1.97392
 21
-0.307709
  0
LINE
  8
0
 10
1.97392
 20
-0.307709
 11
2.12204
 21
-0.450745
  0
LINE
  8
0
 10
2.12204
 20
-0.450745
 11
2.25983
 21
-0.603775
  0
LINE
  8
0
 10
2.25983
 20
-0.603775
 11
2.3866
 21
-0.766022
  0
LINE
  8
0
 10
2.3866
 20
-0.766022
 11
2.50174
 21
-0.936737
  0
LINE
  8
0
 10
2.50174
 20
-0.936737
 11
2.60469
 21
-1.11505
  0
LINE
  8
0
 10
2.60469
 20
-1.11505
 11
2.69495
 21
-1.30013
  0
LINE
  8
0
 10
2.69495
 20
-1.30013
 11
2.77208
 21
-1.49103
  0
LINE
  8
0
 10
2.77208
 20
-1.49103
 11
2.83571
 21
-1.68686
  0
LINE
  8
0
 10
2.83571
 20
-1.68686
 11
2.88553
 21
-1.88666
  0
LINE
  8
0
 10
2.88553
 20
-1.88666
 11
2.92128
 21
-2.08943
  0
LINE
  8
0
 10
2.92128
 20
-2.08943
 11
2.94281
 21
-2.2942
  0
LINE
  8
0
 10
2.94281
 20
-2.2942
 11
2.95
 21
-2.5
  0
LINE
  8
0
 10
2.95
 20
-2.5
 11
2.94281
 21
-2.70578
  0
LINE
  8
0
 10
2.94281
 20
-2.70578
 11
2.92128
 21
-2.91055
  0
LINE
  8
0
 10
2.92128
 20
-2.91055
 11
2.88553
 21
-3.11333
  0
LINE
  8
0
 10
2.88553
 20
-3.11333
 11
2.83571
 21
-3.31313
  0
LINE
  8
0
 10
2.83571
 20
-3.31313
 11
2.77208
 21
-3.50896
  0
LINE
  8
0
 10
2.77208
 20
-3.50896
 11
2.69495
 21
-3.69986
  0
LINE
  8
0
 10
2.69495
 20
-3.69986
 11
2.60469
 21
-3.88493
  0
LINE
  8
0
 10
2.60469
 20
-3.88493
 11
2.50174
 21
-4.06325
  0
LINE
  8
0
 10
2.50174
 20
-4.06325
 11
2.3866
 21
-4.23396
  0
LINE
  8
0
 10
2.3866
 20
-4.23396
 11
2.25983
 21
-4.39621
  0
LINE
  8
0
 10
2.25983
 20
-4.39621
 11
2.12204
 21
-4.54924
  0
LINE
  8
0
 10
2.12204
 20
-4.54924
 11
1.97392
 21
-4.69228
  0
LINE
  8
0
 10
1.97392
 20
-4.69228
 11
1.81619
 21
-4.82463
  0
LINE
  8
0
 10
1.81619
 20
-4.82463
 11
1.64961
 21
-4.94565
  0
LINE
  8
0
 10
1.64961
 20
-4.94565
 11
1.47499
 21
-5.05476
  0
LINE
  8
0
 10
1.47499
 20
-5.05476
 11
1.29318
 21
-5.15143
  0
LINE
  8
0
 10
1.29318
 20
-5.15143
 11
1.10509
 21
-5.23518
  0
LINE
  8
0
 10
1.10509
 20
-5.23518
 11
0.911591
 21
-5.3056
  0
LINE
  8
0
 10
0.911591
 20
-5.3056
 11
0.713669
 21
-5.36237
  0
LINE
  8
0
 10
0.713669
 20
-5.36237
 11
0.512253
 21
-5.40518
  0
LINE
  8
0
 10
0.512253
 20
-5.40518
 11
0.30835
 21
-5.43384
  0
LINE
  8
0
 10
0.30835
 20
-5.43384
 11
0.102951
 21
-5.4482
  0
LINE
  8
0
 10
0.102951
 20
-5.4482
 11
-0.102951
 21
-5.4482
  0
LINE
  8
0
 10
-89.317
 20
-29.3723
 11
-89.6304
 21
-29.3503
  0
LINE
  8
0
 10
-89.6304
 20
-29.3503
 11
-89.9414
 21
-29.3066
  0
LINE
  8
0
 10
-89.9414
 20
-29.3066
 11
-90.2486
 21
-29.2413
  0
LINE
  8
0
 10
-90.2486
 20
-29.2413
 11
-90.5506
 21
-29.1547
  0
LINE
  8
0
 10
-90.5506
 20
-29.1547
 11
-90.8457
 21
-29.0473
  0
LINE
  8
0
 10
-90.8457
 20
-29.0473
 11
-91.1327
 21
-28.9196
  0
LINE
  8
0
 10
-91.1327
 20
-28.9196
 11
-91.41
 21
-28.7721
  0
LINE
  8
0
 10
-91.41
 20
-28.7721
 11
-91.6764
 21
-28.6057
  0
LINE
  8
0
 10
-91.6764
 20
-28.6057
 11
-91.9305
 21
-28.421
  0
LINE
  8
0
 10
-91.9305
 20
-28.421
 11
-92.1711
 21
-28.2191
  0
LINE
  8
0
 10
-92.1711
 20
-28.2191
 11
-92.397
 21
-28.001
  0
LINE
  8
0
 10
-92.397
 20
-28.001
 11
-92.6072
 21
-27.7675
  0
LINE
  8
0
 10
-92.6072
 20
-27.7675
 11
-92.8006
 21
-27.52
  0
LINE
  8
0
 10
-92.8006
 20
-27.52
 11
-92.9762
 21
-27.2596
  0
LINE
  8
0
 10
-92.9762
 20
-27.2596
 11
-93.1333
 21
-26.9876
  0
LINE
  8
0
 10
-93.1333
 20
-26.9876
 11
-93.271
 21
-26.7053
  0
LINE
  8
0
 10
-93.271
 20
-26.7053
 11
-93.3886
 21
-26.4141
  0
LINE
  8
0
 10
-93.3886
 20
-26.4141
 11
-93.4857
 21
-26.1154
  0
LINE
  8
0
 10
-93.4857
 20
-26.1154
 11
-93.5617
 21
-25.8106
  0
LINE
  8
0
 10
-93.5617
 20
-25.8106
 11
-93.6162
 21
-25.5013
  0
LINE
  8
0
 10
-93.6162
 20
-25.5013
 11
-93.649
 21
-25.1889
  0
LINE
  8
0
 10
-93.649
 20
-25.1889
 11
-93.66
 21
-24.875
  0
LINE
  8
0
 10
-93.66
 20
-24.875
 11
-93.649
 21
-24.5611
  0
LINE
  8
0
 10
-93.649
 20
-24.5611
 11
-93.6162
 21
-24.2487
  0
LINE
  8
0
 10
-93.6162
 20
-24.2487
 11
-93.5617
 21
-23.9394
  0
LINE
  8
0
 10
-93.5617
 20
-23.9394
 11
-93.4857
 21
-23.6346
  0
LINE
  8
0
 10
-93.4857
 20
-23.6346
 11
-93.3886
 21
-23.3359
  0
LINE
  8
0
 10
-93.3886
 20
-23.3359
 11
-93.271
 21
-23.0447
  0
LINE
  8
0
 10
-93.271
 20
-23.0447
 11
-93.1333
 21
-22.7624
  0
LINE
  8
0
 10
-93.1333
 20
-22.7624
 11
-92.9762
 21
-22.4904
  0
LINE
  8
0
 10
-92.9762
 20
-22.4904
 11
-92.8006
 21
-22.23
  0
LINE
  8
0
 10
-92.8006
 20
-22.23
 11
-92.6072
 21
-21.9825
  0
LINE
  8
0
 10
-92.6072
 20
-21.9825
 11
-92.397
 21
-21.749
  0
LINE
  8
0
 10
-92.397
 20
-21.749
 11
-92.1711
 21
-21.5308
  0
LINE
  8
0
 10
-92.1711
 20
-21.5308
 11
-91.9305
 21
-21.3289
  0
LINE
  8
0
 10
-91.9305
 20
-21.3289
 11
-91.6764
 21
-21.1443
  0
LINE
  8
0
 10
-91.6764
 20
-21.1443
 11
-91.41
 21
-20.9779
  0
LINE
  8
0
 10
-91.41
 20
-20.9779
 11
-91.1327
 21
-20.8304
  0
LINE
  8
0
 10
-91.1327
 20
-20.8304
 11
-90.8457
 21
-20.7027
  0
LINE
  8
0
 10
-90.8457
 20
-20.7027
 11
-90.5506
 21
-20.5952
  0
LINE
  8
0
 10
-90.5506
 20
-20.5952
 11
-90.2486
 21
-20.5087
  0
LINE
  8
0
 10
-90.2486
 20
-20.5087
 11
-89.9414
 21
-20.4434
  0
LINE
  8
0
 10
-89.9414
 20
-20.4434
 11
-89.6304
 21
-20.3996
  0
LINE
  8
0
 10
-89.6304
 20
-20.3996
 11
-89.317
 21
-20.3777
  0
LINE
  8
0
 10
-89.317
 20
-20.3777
 11
-89.0029
 21
-20.3777
  0
LINE
  8
0
 10
-89.0029
 20
-20.3777
 11
-88.6896
 21
-20.3996
  0
LINE
  8
0
 10
-88.6896
 20
-20.3996
 11
-88.3786
 21
-20.4434
  0
LINE
  8
0
 10
-88.3786
 20
-20.4434
 11
-88.0714
 21
-20.5087
  0
LINE
  8
0
 10
-88.0714
 20
-20.5087
 11
-87.7694
 21
-20.5952
  0
LINE
  8
0
 10
-87.7694
 20
-20.5952
 11
-87.4743
 21
-20.7027
  0
LINE
  8
0
 10
-87.4743
 20
-20.7027
 11
-87.1873
 21
-20.8304
  0
LINE
  8
0
 10
-87.1873
 20
-20.8304
 11
-86.91
 21
-20.9779
  0
LINE
  8
0
 10
-86.91
 20
-20.9779
 11
-86.6436
 21
-21.1443
  0
LINE
  8
0
 10
-86.6436
 20
-21.1443
 11
-86.3895
 21
-21.3289
  0
LINE
  8
0
 10
-86.3895
 20
-21.3289
 11
-86.1489
 21
-21.5308
  0
LINE
  8
0
 10
-86.1489
 20
-21.5308
 11
-85.923
 21
-21.749
  0
LINE
  8
0
 10
-85.923
 20
-21.749
 11
-85.7128
 21
-21.9825
  0
LINE
  8
0
 10
-85.7128
 20
-21.9825
 11
-85.5194
 21
-22.23
  0
LINE
  8
0
 10
-85.5194
 20
-22.23
 11
-85.3438
 21
-22.4904
  0
LINE
  8
0
 10
-85.3438
 20
-22.4904
 11
-85.1867
 21
-22.7624
  0
LINE
  8
0
 10
-85.1867
 20
-22.7624
 11
-85.049
 21
-23.0447
  0
LINE
  8
0
 10
-85.049
 20
-23.0447
 11
-84.9314
 21
-23.3359
  0
LINE
  8
0
 10
-84.9314
 20
-23.3359
 11
-84.8343
 21
-23.6346
  0
LINE
  8
0
 10
-84.8343
 20
-23.6346
 11
-84.7583
 21
-23.9394
  0
LINE
  8
0
 10
-84.7583
 20
-23.9394
 11
-84.7038
 21
-24.2487
  0
LINE
  8
0
 10
-84.7038
 20
-24.2487
 11
-84.671
 21
-24.5611
  0
LINE
  8
0
 10
-84.671
 20
-24.5611
 11
-84.66
 21
-24.875
  0
LINE
  8
0
 10
-84.66
 20
-24.875
 11
-84.671
 21
-25.1889
  0
LINE
  8
0
 10
-84.671
 20
-25.1889
 11
-84.7038
 21
-25.5013
  0
LINE
  8
0
 10
-84.7038
 20
-25.5013
 11
-84.7583
 21
-25.8106
  0
LINE
  8
0
 10
-84.7583
 20
-25.8106
 11
-84.8343
 21
-26.1154
  0
LINE
  8
0
 10
-84.8343
 20
-26.1154
 11
-84.9314
 21
-26.4141
  0
LINE
  8
0
 10
-84.9314
 20
-26.4141
 11
-85.049
 21
-26.7053
  0
LINE
  8
0
 10
-85.049
 20
-26.7053
 11
-85.1867
 21
-26.9876
  0
LINE
  8
0
 10
-85.1867
 20
-26.9876
 11
-85.3438
 21
-27.2596
  0
LINE
  8
0
 10
-85.3438
 20
-27.2596
 11
-85.5194
 21
-27.52
  0
LINE
  8
0
 10
-85.5194
 20
-27.52
 11
-85.7128
 21
-27.7675
  0
LINE
  8
0
 10
-85.7128
 20
-27.7675
 11
-85.923
 21
-28.001
  0
LINE
  8
0
 10
-85.923
 20
-28.001
 11
-86.1489
 21
-28.2191
  0
LINE
  8
0
 10
-86.1489
 20
-28.2191
 11
-86.3895
 21
-28.421
  0
LINE
  8
0
 10
-86.3895
 20
-28.421
 11
-86.6436
 21
-28.6057
  0
LINE
  8
0
 10
-86.6436
 20
-28.6057
 11
-86.91
 21
-28.7721
  0
LINE
  8
0
 10
-86.91
 20
-28.7721
 11
-87.1873
 21
-28.9196
  0
LINE
  8
0
 10
-87.1873
 20
-28.9196
 11
-87.4743
 21
-29.0473
  0
LINE
  8
0
 10
-87.4743
 20
-29.0473
 11
-87.7694
 21
-29.1547
  0
LINE
  8
0
 10
-87.7694
 20
-29.1547
 11
-88.0714
 21
-29.2413
  0
LINE
  8
0
 10
-88.0714
 20
-29.2413
 11
-88.3786
 21
-29.3066
  0
LINE
  8
0
 10
-88.3786
 20
-29.3066
 11
-88.6896
 21
-29.3503
  0
LINE
  8
0
 10
-88.6896
 20
-29.3503
 11
-89.0029
 21
-29.3723
  0
LINE
  8
0
 10
-89.0029
 20
-29.3723
 11
-89.317
 21
-29.3723
  0
LINE
  8
0
 10
-0.441467
 20
-61.1423
 11
-1.32228
 21
-61.0807
  0
LINE
  8
0
 10
-1.32228
 20
-61.0807
 11
-2.19664
 21
-60.9578
  0
LINE
  8
0
 10
-2.19664
 20
-60.9578
 11
-3.0603
 21
-60.7742
  0
LINE
  8
0
 10
-3.0603
 20
-60.7742
 11
-3.90906
 21
-60.5309
  0
LINE
  8
0
 10
-3.90906
 20
-60.5309
 11
-4.73877
 21
-60.2289
  0
LINE
  8
0
 10
-4.73877
 20
-60.2289
 11
-5.54539
 21
-59.8697
  0
LINE
  8
0
 10
-5.54539
 20
-59.8697
 11
-6.325
 21
-59.4552
  0
LINE
  8
0
 10
-6.325
 20
-59.4552
 11
-7.07378
 21
-58.9873
  0
LINE
  8
0
 10
-7.07378
 20
-58.9873
 11
-7.78812
 21
-58.4683
  0
LINE
  8
0
 10
-7.78812
 20
-58.4683
 11
-8.46449
 21
-57.9008
  0
LINE
  8
0
 10
-8.46449
 20
-57.9008
 11
-9.09964
 21
-57.2874
  0
LINE
  8
0
 10
-9.09964
 20
-57.2874
 11
-9.69046
 21
-56.6313
  0
LINE
  8
0
 10
-9.69046
 20
-56.6313
 11
-10.2341
 21
-55.9355
  0
LINE
  8
0
 10
-10.2341
 20
-55.9355
 11
-10.7278
 21
-55.2035
  0
LINE
  8
0
 10
-10.7278
 20
-55.2035
 11
-11.1693
 21
-54.4388
  0
LINE
  8
0
 10
-11.1693
 20
-54.4388
 11
-11.5563
 21
-53.6452
  0
LINE
  8
0
 10
-11.5563
 20
-53.6452
 11
-11.8871
 21
-52.8266
  0
LINE
  8
0
 10
-11.8871
 20
-52.8266
 11
-12.16
 21
-51.9868
  0
LINE
  8
0
 10
-12.16
 20
-51.9868
 11
-12.3736
 21
-51.1301
  0
LINE
  8
0
 10
-12.3736
 20
-51.1301
 11
-12.5269
 21
-50.2605
  0
LINE
  8
0
 10
-12.5269
 20
-50.2605
 11
-12.6192
 21
-49.3824
  0
LINE
  8
0
 10
-12.6192
 20
-49.3824
 11
-12.65
 21
-48.5
  0
LINE
  8
0
 10
-12.65
 20
-48.5
 11
-12.6192
 21
-47.6176
  0
LINE
  8
0
 10
-12.6192
 20
-47.6176
 11
-12.5269
 21
-46.7395
  0
LINE
  8
0
 10
-12.5269
 20
-46.7395
 11
-12.3736
 21
-45.8699
  0
LINE
  8
0
 10
-12.3736
 20
-45.8699
 11
-12.16
 21
-45.0132
  0
LINE
  8
0
 10
-12.16
 20
-45.0132
 11
-11.8871
 21
-44.1734
  0
LINE
  8
0
 10
-11.8871
 20
-44.1734
 11
-11.5563
 21
-43.3548
  0
LINE
  8
0
 10
-11.5563
 20
-43.3548
 11
-11.1693
 21
-42.5612
  0
LINE
  8
0
 10
-11.1693
 20
-42.5612
 11
-10.7278
 21
-41.7965
  0
LINE
  8
0
 10
-10.7278
 20
-41.7965
 11
-10.2341
 21
-41.0645
  0
LINE
  8
0
 10
-10.2341
 20
-41.0645
 11
-9.69046
 21
-40.3687
  0
LINE
  8
0
 10
-9.69046
 20
-40.3687
 11
-9.09964
 21
-39.7126
  0
LINE
  8
0
 10
-9.09964
 20
-39.7126
 11
-8.46449
 21
-39.0992
  0
LINE
  8
0
 10
-8.46449
 20
-39.0992
 11
-7.78812
 21
-38.5317
  0
LINE
  8
0
 10
-7.78812
 20
-38.5317
 11
-7.07378
 21
-38.0127
  0
LINE
  8
0
 10
-7.07378
 20
-38.0127
 11
-6.325
 21
-37.5448
  0
LINE
  8
0
 10
-6.325
 20
-37.5448
 11
-5.54539
 21
-37.1302
  0
LINE
  8
0
 10
-5.54539
 20
-37.1302
 11
-4.73877
 21
-36.7711
  0
LINE
  8
0
 10
-4.73877
 20
-36.7711
 11
-3.90906
 21
-36.4691
  0
LINE
  8
0
 10
-3.90906
 20
-36.4691
 11
-3.0603
 21
-36.2258
  0
LINE
  8
0
 10
-3.0603
 20
-36.2258
 11
-2.19664
 21
-36.0422
  0
LINE
  8
0
 10
-2.19664
 20
-36.0422
 11
-1.32228
 21
-35.9193
  0
LINE
  8
0
 10
-1.32228
 20
-35.9193
 11
-0.441467
 21
-35.8577
  0
LINE
  8
0
 10
-0.441467
 20
-35.8577
 11
0.441467
 21
-35.8577
  0
LINE
  8
0
 10
0.441467
 20
-35.8577
 11
1.32228
 21
-35.9193
  0
LINE
  8
0
 10
1.32228
 20
-35.9193
 11
2.19664
 21
-36.0422
  0
LINE
  8
0
 10
2.19664
 20
-36.0422
 11
3.0603
 21
-36.2258
  0
LINE
  8
0
 10
3.0603
 20
-36.2258
 11
3.90906
 21
-36.4691
  0
LINE
  8
0
 10
3.90906
 20
-36.4691
 11
4.73877
 21
-36.7711
  0
LINE
  8
0
 10
4.73877
 20
-36.7711
 11
5.54539
 21
-37.1302
  0
LINE
  8
0
 10
5.54539
 20
-37.1302
 11
6.325
 21
-37.5448
  0
LINE
  8
0
 10
6.325
 20
-37.5448
 11
7.07378
 21
-38.0127
  0
LINE
  8
0
 10
7.07378
 20
-38.0127
 11
7.78812
 21
-38.5317
  0
LINE
  8
0
 10
7.78812
 20
-38.5317
 11
8.46449
 21
-39.0992
  0
LINE
  8
0
 10
8.46449
 20
-39.0992
 11
9.09964
 21
-39.7126
  0
LINE
  8
0
 10
9.09964
 20
-39.7126
 11
9.69046
 21
-40.3687
  0
LINE
  8
0
 10
9.69046
 20
-40.3687
 11
10.2341
 21
-41.0645
  0
LINE
  8
0
 10
10.2341
 20
-41.0645
 11
10.7278
 21
-41.7965
  0
LINE
  8
0
 10
10.7278
 20
-41.7965
 11
11.1693
 21
-42.5612
  0
LINE
  8
0
 10
11.1693
 20
-42.5612
 11
11.5563
 21
-43.3548
  0
LINE
  8
0
 10
11.5563
 20
-43.3548
 11
11.8871
 21
-44.1734
  0
LINE
  8
0
 10
11.8871
 20
-44.1734
 11
12.16
 21
-45.0132
  0
LINE
  8
0
 10
12.16
 20
-45.0132
 11
12.3736
 21
-45.8699
  0
LINE
  8
0
 10
12.3736
 20
-45.8699
 11
12.5269
 21
-46.7395
  0
LINE
  8
0
 10
12.5269
 20
-46.7395
 11
12.6192
 21
-47.6176
  0
LINE
  8
0
 10
12.6192
 20
-47.6176
 11
12.65
 21
-48.5
  0
LINE
  8
0
 10
12.65
 20
-48.5
 11
12.6192
 21
-49.3824
  0
LINE
  8
0
 10
12.6192
 20
-49.3824
 11
12.5269
 21
-50.2605
  0
LINE
  8
0
 10
12.5269
 20
-50.2605
 11
12.3736
 21
-51.1301
  0
LINE
  8
0
 10
12.3736
 20
-51.1301
 11
12.16
 21
-51.9868
  0
LINE
  8
0
 10
12.16
 20
-51.9868
 11
11.8871
 21
-52.8266
  0
LINE
  8
0
 10
11.8871
 20
-52.8266
 11
11.5563
 21
-53.6452
  0
LINE
  8
0
 10
11.5563
 20
-53.6452
 11
11.1693
 21
-54.4388
  0
LINE
  8
0
 10
11.1693
 20
-54.4388
 11
10.7278
 21
-55.2035
  0
LINE
  8
0
 10
10.7278
 20
-55.2035
 11
10.2341
 21
-55.9355
  0
LINE
  8
0
 10
10.2341
 20
-55.9355
 11
9.69046
 21
-56.6313
  0
LINE
  8
0
 10
9.69046
 20
-56.6313
 11
9.09964
 21
-57.2874
  0
LINE
  8
0
 10
9.09964
 20
-57.2874
 11
8.46449
 21
-57.9008
  0
LINE
  8
0
 10
8.46449
 20
-57.9008
 11
7.78812
 21
-58.4683
  0
LINE
  8
0
 10
7.78812
 20
-58.4683
 11
7.07378
 21
-58.9873
  0
LINE
  8
0
 10
7.07378
 20
-58.9873
 11
6.325
 21
-59.4552
  0
LINE
  8
0
 10
6.325
 20
-59.4552
 11
5.54539
 21
-59.8697
  0
LINE
  8
0
 10
5.54539
 20
-59.8697
 11
4.73877
 21
-60.2289
  0
LINE
  8
0
 10
4.73877
 20
-60.2289
 11
3.90906
 21
-60.5309
  0
LINE
  8
0
 10
3.90906
 20
-60.5309
 11
3.0603
 21
-60.7742
  0
LINE
  8
0
 10
3.0603
 20
-60.7742
 11
2.19664
 21
-60.9578
  0
LINE
  8
0
 10
2.19664
 20
-60.9578
 11
1.32228
 21
-61.0807
  0
LINE
  8
0
 10
1.32228
 20
-61.0807
 11
0.441467
 21
-61.1423
  0
LINE
  8
0
 10
0.441467
 20
-61.1423
 11
-0.441467
 21
-61.1423
  0
LINE
  8
0
 10
-89.317
 20
-72.1973
 11
-89.6304
 21
-72.1753
  0
LINE
  8
0
 10
-89.6304
 20
-72.1753
 11
-89.9414
 21
-72.1316
  0
LINE
  8
0
 10
-89.9414
 20
-72.1316
 11
-90.2486
 21
-72.0663
  0
LINE
  8
0
 10
-90.2486
 20
-72.0663
 11
-90.5506
 21
-71.9798
  0
LINE
  8
0
 10
-90.5506
 20
-71.9798
 11
-90.8457
 21
-71.8723
  0
LINE
  8
0
 10
-90.8457
 20
-71.8723
 11
-91.1327
 21
-71.7446
  0
LINE
  8
0
 10
-91.1327
 20
-71.7446
 11
-91.41
 21
-71.5971
  0
LINE
  8
0
 10
-91.41
 20
-71.5971
 11
-91.6764
 21
-71.4307
  0
LINE
  8
0
 10
-91.6764
 20
-71.4307
 11
-91.9305
 21
-71.246
  0
LINE
  8
0
 10
-91.9305
 20
-71.246
 11
-92.1711
 21
-71.0441
  0
LINE
  8
0
 10
-92.1711
 20
-71.0441
 11
-92.397
 21
-70.826
  0
LINE
  8
0
 10
-92.397
 20
-70.826
 11
-92.6072
 21
-70.5925
  0
LINE
  8
0
 10
-92.6072
 20
-70.5925
 11
-92.8006
 21
-70.345
  0
LINE
  8
0
 10
-92.8006
 20
-70.345
 11
-92.9762
 21
-70.0846
  0
LINE
  8
0
 10
-92.9762
 20
-70.0846
 11
-93.1333
 21
-69.8126
  0
LINE
  8
0
 10
-93.1333
 20
-69.8126
 11
-93.271
 21
-69.5303
  0
LINE
  8
0
 10
-93.271
 20
-69.5303
 11
-93.3886
 21
-69.2391
  0
LINE
  8
0
 10
-93.3886
 20
-69.2391
 11
-93.4857
 21
-68.9404
  0
LINE
  8
0
 10
-93.4857
 20
-68.9404
 11
-93.5617
 21
-68.6356
  0
LINE
  8
0
 10
-93.5617
 20
-68.6356
 11
-93.6162
 21
-68.3263
  0
LINE
  8
0
 10
-93.6162
 20
-68.3263
 11
-93.649
 21
-68.0139
  0
LINE
  8
0
 10
-93.649
 20
-68.0139
 11
-93.66
 21
-67.7
  0
LINE
  8
0
 10
-93.66
 20
-67.7
 11
-93.649
 21
-67.3861
  0
LINE
  8
0
 10
-93.649
 20
-67.3861
 11
-93.6162
 21
-67.0737
  0
LINE
  8
0
 10
-93.6162
 20
-67.0737
 11
-93.5617
 21
-66.7644
  0
LINE
  8
0
 10
-93.5617
 20
-66.7644
 11
-93.4857
 21
-66.4596
  0
LINE
  8
0
 10
-93.4857
 20
-66.4596
 11
-93.3886
 21
-66.1609
  0
LINE
  8
0
 10
-93.3886
 20
-66.1609
 11
-93.271
 21
-65.8697
  0
LINE
  8
0
 10
-93.271
 20
-65.8697
 11
-93.1333
 21
-65.5874
  0
LINE
  8
0
 10
-93.1333
 20
-65.5874
 11
-92.9762
 21
-65.3154
  0
LINE
  8
0
 10
-92.9762
 20
-65.3154
 11
-92.8006
 21
-65.055
  0
LINE
  8
0
 10
-92.8006
 20
-65.055
 11
-92.6072
 21
-64.8074
  0
LINE
  8
0
 10
-92.6072
 20
-64.8074
 11
-92.397
 21
-64.574
  0
LINE
  8
0
 10
-92.397
 20
-64.574
 11
-92.1711
 21
-64.3559
  0
LINE
  8
0
 10
-92.1711
 20
-64.3559
 11
-91.9305
 21
-64.1539
  0
LINE
  8
0
 10
-91.9305
 20
-64.1539
 11
-91.6764
 21
-63.9693
  0
LINE
  8
0
 10
-91.6764
 20
-63.9693
 11
-91.41
 21
-63.8029
  0
LINE
  8
0
 10
-91.41
 20
-63.8029
 11
-91.1327
 21
-63.6554
  0
LINE
  8
0
 10
-91.1327
 20
-63.6554
 11
-90.8457
 21
-63.5277
  0
LINE
  8
0
 10
-90.8457
 20
-63.5277
 11
-90.5506
 21
-63.4202
  0
LINE
  8
0
 10
-90.5506
 20
-63.4202
 11
-90.2486
 21
-63.3337
  0
LINE
  8
0
 10
-90.2486
 20
-63.3337
 11
-89.9414
 21
-63.2684
  0
LINE
  8
0
 10
-89.9414
 20
-63.2684
 11
-89.6304
 21
-63.2246
  0
LINE
  8
0
 10
-89.6304
 20
-63.2246
 11
-89.317
 21
-63.2027
  0
LINE
  8
0
 10
-89.317
 20
-63.2027
 11
-89.0029
 21
-63.2027
  0
LINE
  8
0
 10
-89.0029
 20
-63.2027
 11
-88.6896
 21
-63.2246
  0
LINE
  8
0
 10
-88.6896
 20
-63.2246
 11
-88.3786
 21
-63.2684
  0
LINE
  8
0
 10
-88.3786
 20
-63.2684
 11
-88.0714
 21
-63.3337
  0
LINE
  8
0
 10
-88.0714
 20
-63.3337
 11
-87.7694
 21
-63.4202
  0
LINE
  8
0
 10
-87.7694
 20
-63.4202
 11
-87.4743
 21
-63.5277
  0
LINE
  8
0
 10
-87.4743
 20
-63.5277
 11
-87.1873
 21
-63.6554
  0
LINE
  8
0
 10
-87.1873
 20
-63.6554
 11
-86.91
 21
-63.8029
  0
LINE
  8
0
 10
-86.91
 20
-63.8029
 11
-86.6436
 21
-63.9693
  0
LINE
  8
0
 10
-86.6436
 20
-63.9693
 11
-86.3895
 21
-64.1539
  0
LINE
  8
0
 10
-86.3895
 20
-64.1539
 11
-86.1489
 21
-64.3559
  0
LINE
  8
0
 10
-86.1489
 20
-64.3559
 11
-85.923
 21
-64.574
  0
LINE
  8
0
 10
-85.923
 20
-64.574
 11
-85.7128
 21
-64.8074
  0
LINE
  8
0
 10
-85.7128
 20
-64.8074
 11
-85.5194
 21
-65.055
  0
LINE
  8
0
 10
-85.5194
 20
-65.055
 11
-85.3438
 21
-65.3154
  0
LINE
  8
0
 10
-85.3438
 20
-65.3154
 11
-85.1867
 21
-65.5874
  0
LINE
  8
0
 10
-85.1867
 20
-65.5874
 11
-85.049
 21
-65.8697
  0
LINE
  8
0
 10
-85.049
 20
-65.8697
 11
-84.9314
 21
-66.1609
  0
LINE
  8
0
 10
-84.9314
 20
-66.1609
 11
-84.8343
 21
-66.4596
  0
LINE
  8
0
 10
-84.8343
 20
-66.4596
 11
-84.7583
 21
-66.7644
  0
LINE
  8
0
 10
-84.7583
 20
-66.7644
 11
-84.7038
 21
-67.0737
  0
LINE
  8
0
 10
-84.7038
 20
-67.0737
 11
-84.671
 21
-67.3861
  0
LINE
  8
0
 10
-84.671
 20
-67.3861
 11
-84.66
 21
-67.7
  0
LINE
  8
0
 10
-84.66
 20
-67.7
 11
-84.671
 21
-68.0139
  0
LINE
  8
0
 10
-84.671
 20
-68.0139
 11
-84.7038
 21
-68.3263
  0
LINE
  8
0
 10
-84.7038
 20
-68.3263
 11
-84.7583
 21
-68.6356
  0
LINE
  8
0
 10
-84.7583
 20
-68.6356
 11
-84.8343
 21
-68.9404
  0
LINE
  8
0
 10
-84.8343
 20
-68.9404
 11
-84.9314
 21
-69.2391
  0
LINE
  8
0
 10
-84.9314
 20
-69.2391
 11
-85.049
 21
-69.5303
  0
LINE
  8
0
 10
-85.049
 20
-69.5303
 11
-85.1867
 21
-69.8126
  0
LINE
  8
0
 10
-85.1867
 20
-69.8126
 11
-85.3438
 21
-70.0846
  0
LINE
  8
0
 10
-85.3438
 20
-70.0846
 11
-85.5194
 21
-70.345
  0
LINE
  8
0
 10
-85.5194
 20
-70.345
 11
-85.7128
 21
-70.5925
  0
LINE
  8
0
 10
-85.7128
 20
-70.5925
 11
-85.923
 21
-70.826
  0
LINE
  8
0
 10
-85.923
 20
-70.826
 11
-86.1489
 21
-71.0441
  0
LINE
  8
0
 10
-86.1489
 20
-71.0441
 11
-86.3895
 21
-71.246
  0
LINE
  8
0
 10
-86.3895
 20
-71.246
 11
-86.6436
 21
-71.4307
  0
LINE
  8
0
 10
-86.6436
 20
-71.4307
 11
-86.91
 21
-71.5971
  0
LINE
  8
0
 10
-86.91
 20
-71.5971
 11
-87.1873
 21
-71.7446
  0
LINE
  8
0
 10
-87.1873
 20
-71.7446
 11
-87.4743
 21
-71.8723
  0
LINE
  8
0
 10
-87.4743
 20
-71.8723
 11
-87.7694
 21
-71.9798
  0
LINE
  8
0
 10
-87.7694
 20
-71.9798
 11
-88.0714
 21
-72.0663
  0
LINE
  8
0
 10
-88.0714
 20
-72.0663
 11
-88.3786
 21
-72.1316
  0
LINE
  8
0
 10
-88.3786
 20
-72.1316
 11
-88.6896
 21
-72.1753
  0
LINE
  8
0
 10
-88.6896
 20
-72.1753
 11
-89.0029
 21
-72.1973
  0
LINE
  8
0
 10
-89.0029
 20
-72.1973
 11
-89.317
 21
-72.1973
  0
LINE
  8
0
 10
-28.1066
 20
-72.5095
 11
-28.3118
 21
-72.4915
  0
LINE
  8
0
 10
-28.3118
 20
-72.4915
 11
-28.5151
 21
-72.4593
  0
LINE
  8
0
 10
-28.5151
 20
-72.4593
 11
-28.7158
 21
-72.413
  0
LINE
  8
0
 10
-28.7158
 20
-72.413
 11
-28.9127
 21
-72.3528
  0
LINE
  8
0
 10
-28.9127
 20
-72.3528
 11
-29.1049
 21
-72.279
  0
LINE
  8
0
 10
-29.1049
 20
-72.279
 11
-29.2915
 21
-72.192
  0
LINE
  8
0
 10
-29.2915
 20
-72.192
 11
-29.4716
 21
-72.0922
  0
LINE
  8
0
 10
-29.4716
 20
-72.0922
 11
-29.6443
 21
-71.98
  0
LINE
  8
0
 10
-29.6443
 20
-71.98
 11
-29.8087
 21
-71.8561
  0
LINE
  8
0
 10
-29.8087
 20
-71.8561
 11
-29.9641
 21
-71.721
  0
LINE
  8
0
 10
-29.9641
 20
-71.721
 11
-30.1097
 21
-71.5754
  0
LINE
  8
0
 10
-30.1097
 20
-71.5754
 11
-30.2448
 21
-71.42
  0
LINE
  8
0
 10
-30.2448
 20
-71.42
 11
-30.3687
 21
-71.2556
  0
LINE
  8
0
 10
-30.3687
 20
-71.2556
 11
-30.4809
 21
-71.0829
  0
LINE
  8
0
 10
-30.4809
 20
-71.0829
 11
-30.5807
 21
-70.9028
  0
LINE
  8
0
 10
-30.5807
 20
-70.9028
 11
-30.6677
 21
-70.7162
  0
LINE
  8
0
 10
-30.6677
 20
-70.7162
 11
-30.7415
 21
-70.5239
  0
LINE
  8
0
 10
-30.7415
 20
-70.5239
 11
-30.8017
 21
-70.327
  0
LINE
  8
0
 10
-30.8017
 20
-70.327
 11
-30.848
 21
-70.1264
  0
LINE
  8
0
 10
-30.848
 20
-70.1264
 11
-30.8802
 21
-69.923
  0
LINE
  8
0
 10
-30.8802
 20
-69.923
 11
-30.8982
 21
-69.7179
  0
LINE
  8
0
 10
-30.8982
 20
-69.7179
 11
-30.9018
 21
-69.512
  0
LINE
  8
0
 10
-30.9018
 20
-69.512
 11
-30.891
 21
-69.3064
  0
LINE
  8
0
 10
-30.891
 20
-69.3064
 11
-30.8659
 21
-69.102
  0
LINE
  8
0
 10
-30.8659
 20
-69.102
 11
-30.8266
 21
-68.8999
  0
LINE
  8
0
 10
-30.8266
 20
-68.8999
 11
-30.7733
 21
-68.701
  0
LINE
  8
0
 10
-30.7733
 20
-68.701
 11
-30.7063
 21
-68.5063
  0
LINE
  8
0
 10
-30.7063
 20
-68.5063
 11
-30.6258
 21
-68.3168
  0
LINE
  8
0
 10
-30.6258
 20
-68.3168
 11
-30.5324
 21
-68.1333
  0
LINE
  8
0
 10
-30.5324
 20
-68.1333
 11
-30.4263
 21
-67.9568
  0
LINE
  8
0
 10
-30.4263
 20
-67.9568
 11
-30.3082
 21
-67.7882
  0
LINE
  8
0
 10
-30.3082
 20
-67.7882
 11
-30.1786
 21
-67.6281
  0
LINE
  8
0
 10
-30.1786
 20
-67.6281
 11
-30.0382
 21
-67.4776
  0
LINE
  8
0
 10
-30.0382
 20
-67.4776
 11
-29.8876
 21
-67.3371
  0
LINE
  8
0
 10
-29.8876
 20
-67.3371
 11
-29.7276
 21
-67.2076
  0
LINE
  8
0
 10
-29.7276
 20
-67.2076
 11
-29.5589
 21
-67.0894
  0
LINE
  8
0
 10
-29.5589
 20
-67.0894
 11
-29.3824
 21
-66.9834
  0
LINE
  8
0
 10
-29.3824
 20
-66.9834
 11
-29.199
 21
-66.8899
  0
LINE
  8
0
 10
-29.199
 20
-66.8899
 11
-29.0094
 21
-66.8095
  0
LINE
  8
0
 10
-29.0094
 20
-66.8095
 11
-28.8147
 21
-66.7424
  0
LINE
  8
0
 10
-28.8147
 20
-66.7424
 11
-28.6158
 21
-66.6891
  0
LINE
  8
0
 10
-28.6158
 20
-66.6891
 11
-28.4137
 21
-66.6498
  0
LINE
  8
0
 10
-28.4137
 20
-66.6498
 11
-28.2094
 21
-66.6247
  0
LINE
  8
0
 10
-28.2094
 20
-66.6247
 11
-28.0037
 21
-66.614
  0
LINE
  8
0
 10
-28.0037
 20
-66.614
 11
-27.7979
 21
-66.6176
  0
LINE
  8
0
 10
-27.7979
 20
-66.6176
 11
-27.5927
 21
-66.6355
  0
LINE
  8
0
 10
-27.5927
 20
-66.6355
 11
-27.3893
 21
-66.6677
  0
LINE
  8
0
 10
-27.3893
 20
-66.6677
 11
-27.1887
 21
-66.714
  0
LINE
  8
0
 10
-27.1887
 20
-66.714
 11
-26.9918
 21
-66.7742
  0
LINE
  8
0
 10
-26.9918
 20
-66.7742
 11
-26.7996
 21
-66.848
  0
LINE
  8
0
 10
-26.7996
 20
-66.848
 11
-26.613
 21
-66.9351
  0
LINE
  8
0
 10
-26.613
 20
-66.9351
 11
-26.4329
 21
-67.0349
  0
LINE
  8
0
 10
-26.4329
 20
-67.0349
 11
-26.2602
 21
-67.147
  0
LINE
  8
0
 10
-26.2602
 20
-67.147
 11
-26.0957
 21
-67.2709
  0
LINE
  8
0
 10
-26.0957
 20
-67.2709
 11
-25.9403
 21
-67.406
  0
LINE
  8
0
 10
-25.9403
 20
-67.406
 11
-25.7947
 21
-67.5516
  0
LINE
  8
0
 10
-25.7947
 20
-67.5516
 11
-25.6597
 21
-67.707
  0
LINE
  8
0
 10
-25.6597
 20
-67.707
 11
-25.5357
 21
-67.8715
  0
LINE
  8
0
 10
-25.5357
 20
-67.8715
 11
-25.4236
 21
-68.0442
  0
LINE
  8
0
 10
-25.4236
 20
-68.0442
 11
-25.3238
 21
-68.2242
  0
LINE
  8
0
 10
-25.3238
 20
-68.2242
 11
-25.2367
 21
-68.4109
  0
LINE
  8
0
 10
-25.2367
 20
-68.4109
 11
-25.163
 21
-68.6031
  0
LINE
  8
0
 10
-25.163
 20
-68.6031
 11
-25.1028
 21
-68.8
  0
LINE
  8
0
 10
-25.1028
 20
-68.8
 11
-25.0564
 21
-69.0006
  0
LINE
  8
0
 10
-25.0564
 20
-69.0006
 11
-25.0242
 21
-69.204
  0
LINE
  8
0
 10
-25.0242
 20
-69.204
 11
-25.0063
 21
-69.4091
  0
LINE
  8
0
 10
-25.0063
 20
-69.4091
 11
-25.0027
 21
-69.615
  0
LINE
  8
0
 10
-25.0027
 20
-69.615
 11
-25.0135
 21
-69.8206
  0
LINE
  8
0
 10
-25.0135
 20
-69.8206
 11
-25.0386
 21
-70.025
  0
LINE
  8
0
 10
-25.0386
 20
-70.025
 11
-25.0779
 21
-70.2271
  0
LINE
  8
0
 10
-25.0779
 20
-70.2271
 11
-25.1311
 21
-70.426
  0
LINE
  8
0
 10
-25.1311
 20
-70.426
 11
-25.1982
 21
-70.6207
  0
LINE
  8
0
 10
-25.1982
 20
-70.6207
 11
-25.2786
 21
-70.8102
  0
LINE
  8
0
 10
-25.2786
 20
-70.8102
 11
-25.3721
 21
-70.9937
  0
LINE
  8
0
 10
-25.3721
 20
-70.9937
 11
-25.4782
 21
-71.1702
  0
LINE
  8
0
 10
-25.4782
 20
-71.1702
 11
-25.5963
 21
-71.3389
  0
LINE
  8
0
 10
-25.5963
 20
-71.3389
 11
-25.7258
 21
-71.4989
  0
LINE
  8
0
 10
-25.7258
 20
-71.4989
 11
-25.8663
 21
-71.6495
  0
LINE
  8
0
 10
-25.8663
 20
-71.6495
 11
-26.0169
 21
-71.7899
  0
LINE
  8
0
 10
-26.0169
 20
-71.7899
 11
-26.1769
 21
-71.9195
  0
LINE
  8
0
 10
-26.1769
 20
-71.9195
 11
-26.3456
 21
-72.0376
  0
LINE
  8
0
 10
-26.3456
 20
-72.0376
 11
-26.522
 21
-72.1436
  0
LINE
  8
0
 10
-26.522
 20
-72.1436
 11
-26.7055
 21
-72.2371
  0
LINE
  8
0
 10
-26.7055
 20
-72.2371
 11
-26.8951
 21
-72.3176
  0
LINE
  8
0
 10
-26.8951
 20
-72.3176
 11
-27.0897
 21
-72.3846
  0
LINE
  8
0
 10
-27.0897
 20
-72.3846
 11
-27.2886
 21
-72.4379
  0
LINE
  8
0
 10
-27.2886
 20
-72.4379
 11
-27.4908
 21
-72.4772
  0
LINE
  8
0
 10
-27.4908
 20
-72.4772
 11
-27.6951
 21
-72.5023
  0
LINE
  8
0
 10
-27.6951
 20
-72.5023
 11
-27.9008
 21
-72.5131
  0
LINE
  8
0
 10
-27.9008
 20
-72.5131
 11
-28.1066
 21
-72.5095
  0
LINE
  8
0
 10
27.6951
 20
-72.5023
 11
27.4908
 21
-72.4772
  0
LINE
  8
0
 10
27.4908
 20
-72.4772
 11
27.2886
 21
-72.4379
  0
LINE
  8
0
 10
27.2886
 20
-72.4379
 11
27.0897
 21
-72.3846
  0
LINE
  8
0
 10
27.0897
 20
-72.3846
 11
26.8951
 21
-72.3176
  0
LINE
  8
0
 10
26.8951
 20
-72.3176
 11
26.7055
 21
-72.2371
  0
LINE
  8
0
 10
26.7055
 20
-72.2371
 11
26.522
 21
-72.1436
  0
LINE
  8
0
 10
26.522
 20
-72.1436
 11
26.3456
 21
-72.0376
  0
LINE
  8
0
 10
26.3456
 20
-72.0376
 11
26.1769
 21
-71.9195
  0
LINE
  8
0
 10
26.1769
 20
-71.9195
 11
26.0169
 21
-71.7899
  0
LINE
  8
0
 10
26.0169
 20
-71.7899
 11
25.8663
 21
-71.6495
  0
LINE
  8
0
 10
25.8663
 20
-71.6495
 11
25.7258
 21
-71.4989
  0
LINE
  8
0
 10
25.7258
 20
-71.4989
 11
25.5963
 21
-71.3389
  0
LINE
  8
0
 10
25.5963
 20
-71.3389
 11
25.4782
 21
-71.1702
  0
LINE
  8
0
 10
25.4782
 20
-71.1702
 11
25.3721
 21
-70.9937
  0
LINE
  8
0
 10
25.3721
 20
-70.9937
 11
25.2786
 21
-70.8102
  0
LINE
  8
0
 10
25.2786
 20
-70.8102
 11
25.1982
 21
-70.6207
  0
LINE
  8
0
 10
25.1982
 20
-70.6207
 11
25.1311
 21
-70.426
  0
LINE
  8
0
 10
25.1311
 20
-70.426
 11
25.0779
 21
-70.2271
  0
LINE
  8
0
 10
25.0779
 20
-70.2271
 11
25.0386
 21
-70.025
  0
LINE
  8
0
 10
25.0386
 20
-70.025
 11
25.0135
 21
-69.8206
  0
LINE
  8
0
 10
25.0135
 20
-69.8206
 11
25.0027
 21
-69.615
  0
LINE
  8
0
 10
25.0027
 20
-69.615
 11
25.0063
 21
-69.4091
  0
LINE
  8
0
 10
25.0063
 20
-69.4091
 11
25.0242
 21
-69.204
  0
LINE
  8
0
 10
25.0242
 20
-69.204
 11
25.0564
 21
-69.0006
  0
LINE
  8
0
 10
25.0564
 20
-69.0006
 11
25.1028
 21
-68.8
  0
LINE
  8
0
 10
25.1028
 20
-68.8
 11
25.163
 21
-68.6031
  0
LINE
  8
0
 10
25.163
 20
-68.6031
 11
25.2367
 21
-68.4109
  0
LINE
  8
0
 10
25.2367
 20
-68.4109
 11
25.3238
 21
-68.2242
  0
LINE
  8
0
 10
25.3238
 20
-68.2242
 11
25.4236
 21
-68.0442
  0
LINE
  8
0
 10
25.4236
 20
-68.0442
 11
25.5357
 21
-67.8715
  0
LINE
  8
0
 10
25.5357
 20
-67.8715
 11
25.6597
 21
-67.707
  0
LINE
  8
0
 10
25.6597
 20
-67.707
 11
25.7947
 21
-67.5516
  0
LINE
  8
0
 10
25.7947
 20
-67.5516
 11
25.9403
 21
-67.406
  0
LINE
  8
0
 10
25.9403
 20
-67.406
 11
26.0957
 21
-67.2709
  0
LINE
  8
0
 10
26.0957
 20
-67.2709
 11
26.2602
 21
-67.147
  0
LINE
  8
0
 10
26.2602
 20
-67.147
 11
26.4329
 21
-67.0349
  0
LINE
  8
0
 10
26.4329
 20
-67.0349
 11
26.613
 21
-66.9351
  0
LINE
  8
0
 10
26.613
 20
-66.9351
 11
26.7996
 21
-66.848
  0
LINE
  8
0
 10
26.7996
 20
-66.848
 11
26.9918
 21
-66.7742
  0
LINE
  8
0
 10
26.9918
 20
-66.7742
 11
27.1887
 21
-66.714
  0
LINE
  8
0
 10
27.1887
 20
-66.714
 11
27.3893
 21
-66.6677
  0
LINE
  8
0
 10
27.3893
 20
-66.6677
 11
27.5927
 21
-66.6355
  0
LINE
  8
0
 10
27.5927
 20
-66.6355
 11
27.7979
 21
-66.6176
  0
LINE
  8
0
 10
27.7979
 20
-66.6176
 11
28.0037
 21
-66.614
  0
LINE
  8
0
 10
28.0037
 20
-66.614
 11
28.2094
 21
-66.6247
  0
LINE
  8
0
 10
28.2094
 20
-66.6247
 11
28.4137
 21
-66.6498
  0
LINE
  8
0
 10
28.4137
 20
-66.6498
 11
28.6158
 21
-66.6891
  0
LINE
  8
0
 10
28.6158
 20
-66.6891
 11
28.8147
 21
-66.7424
  0
LINE
  8
0
 10
28.8147
 20
-66.7424
 11
29.0094
 21
-66.8095
  0
LINE
  8
0
 10
29.0094
 20
-66.8095
 11
29.199
 21
-66.8899
  0
LINE
  8
0
 10
29.199
 20
-66.8899
 11
29.3824
 21
-66.9834
  0
LINE
  8
0
 10
29.3824
 20
-66.9834
 11
29.5589
 21
-67.0894
  0
LINE
  8
0
 10
29.5589
 20
-67.0894
 11
29.7276
 21
-67.2076
  0
LINE
  8
0
 10
29.7276
 20
-67.2076
 11
29.8876
 21
-67.3371
  0
LINE
  8
0
 10
29.8876
 20
-67.3371
 11
30.0382
 21
-67.4776
  0
LINE
  8
0
 10
30.0382
 20
-67.4776
 11
30.1786
 21
-67.6281
  0
LINE
  8
0
 10
30.1786
 20
-67.6281
 11
30.3082
 21
-67.7882
  0
LINE
  8
0
 10
30.3082
 20
-67.7882
 11
30.4263
 21
-67.9568
  0
LINE
  8
0
 10
30.4263
 20
-67.9568
 11
30.5324
 21
-68.1333
  0
LINE
  8
0
 10
30.5324
 20
-68.1333
 11
30.6258
 21
-68.3168
  0
LINE
  8
0
 10
30.6258
 20
-68.3168
 11
30.7063
 21
-68.5063
  0
LINE
  8
0
 10
30.7063
 20
-68.5063
 11
30.7733
 21
-68.701
  0
LINE
  8
0
 10
30.7733
 20
-68.701
 11
30.8266
 21
-68.8999
  0
LINE
  8
0
 10
30.8266
 20
-68.8999
 11
30.8659
 21
-69.102
  0
LINE
  8
0
 10
30.8659
 20
-69.102
 11
30.891
 21
-69.3064
  0
LINE
  8
0
 10
30.891
 20
-69.3064
 11
30.9018
 21
-69.512
  0
LINE
  8
0
 10
30.9018
 20
-69.512
 11
30.8982
 21
-69.7179
  0
LINE
  8
0
 10
30.8982
 20
-69.7179
 11
30.8802
 21
-69.923
  0
LINE
  8
0
 10
30.8802
 20
-69.923
 11
30.848
 21
-70.1264
  0
LINE
  8
0
 10
30.848
 20
-70.1264
 11
30.8017
 21
-70.327
  0
LINE
  8
0
 10
30.8017
 20
-70.327
 11
30.7415
 21
-70.5239
  0
LINE
  8
0
 10
30.7415
 20
-70.5239
 11
30.6677
 21
-70.7162
  0
LINE
  8
0
 10
30.6677
 20
-70.7162
 11
30.5807
 21
-70.9028
  0
LINE
  8
0
 10
30.5807
 20
-70.9028
 11
30.4809
 21
-71.0829
  0
LINE
  8
0
 10
30.4809
 20
-71.0829
 11
30.3687
 21
-71.2556
  0
LINE
  8
0
 10
30.3687
 20
-71.2556
 11
30.2448
 21
-71.42
  0
LINE
  8
0
 10
30.2448
 20
-71.42
 11
30.1097
 21
-71.5754
  0
LINE
  8
0
 10
30.1097
 20
-71.5754
 11
29.9641
 21
-71.721
  0
LINE
  8
0
 10
29.9641
 20
-71.721
 11
29.8087
 21
-71.8561
  0
LINE
  8
0
 10
29.8087
 20
-71.8561
 11
29.6443
 21
-71.98
  0
LINE
  8
0
 10
29.6443
 20
-71.98
 11
29.4716
 21
-72.0922
  0
LINE
  8
0
 10
29.4716
 20
-72.0922
 11
29.2915
 21
-72.192
  0
LINE
  8
0
 10
29.2915
 20
-72.192
 11
29.1049
 21
-72.279
  0
LINE
  8
0
 10
29.1049
 20
-72.279
 11
28.9127
 21
-72.3528
  0
LINE
  8
0
 10
28.9127
 20
-72.3528
 11
28.7158
 21
-72.413
  0
LINE
  8
0
 10
28.7158
 20
-72.413
 11
28.5151
 21
-72.4593
  0
LINE
  8
0
 10
28.5151
 20
-72.4593
 11
28.3118
 21
-72.4915
  0
LINE
  8
0
 10
28.3118
 20
-72.4915
 11
28.1066
 21
-72.5095
  0
LINE
  8
0
 10
28.1066
 20
-72.5095
 11
27.9008
 21
-72.5131
  0
LINE
  8
0
 10
27.9008
 20
-72.5131
 11
27.6951
 21
-72.5023
  0
LINE
  8
0
 10
-0.0872345
 20
-78.4235
 11
-0.261307
 21
-78.4113
  0
LINE
  8
0
 10
-0.261307
 20
-78.4113
 11
-0.434113
 21
-78.387
  0
LINE
  8
0
 10
-0.434113
 20
-78.387
 11
-0.604797
 21
-78.3507
  0
LINE
  8
0
 10
-0.604797
 20
-78.3507
 11
-0.772537
 21
-78.3026
  0
LINE
  8
0
 10
-0.772537
 20
-78.3026
 11
-0.936508
 21
-78.243
  0
LINE
  8
0
 10
-0.936508
 20
-78.243
 11
-1.09592
 21
-78.172
  0
LINE
  8
0
 10
-1.09592
 20
-78.172
 11
-1.25
 21
-78.0901
  0
LINE
  8
0
 10
-1.25
 20
-78.0901
 11
-1.39798
 21
-77.9976
  0
LINE
  8
0
 10
-1.39798
 20
-77.9976
 11
-1.53914
 21
-77.895
  0
LINE
  8
0
 10
-1.53914
 20
-77.895
 11
-1.67282
 21
-77.7829
  0
LINE
  8
0
 10
-1.67282
 20
-77.7829
 11
-1.79834
 21
-77.6616
  0
LINE
  8
0
 10
-1.79834
 20
-77.6616
 11
-1.9151
 21
-77.532
  0
LINE
  8
0
 10
-1.9151
 20
-77.532
 11
-2.02254
 21
-77.3945
  0
LINE
  8
0
 10
-2.02254
 20
-77.3945
 11
-2.12012
 21
-77.2498
  0
LINE
  8
0
 10
-2.12012
 20
-77.2498
 11
-2.20737
 21
-77.0987
  0
LINE
  8
0
 10
-2.20737
 20
-77.0987
 11
-2.28386
 21
-76.9418
  0
LINE
  8
0
 10
-2.28386
 20
-76.9418
 11
-2.34923
 21
-76.78
  0
LINE
  8
0
 10
-2.34923
 20
-76.78
 11
-2.40315
 21
-76.6141
  0
LINE
  8
0
 10
-2.40315
 20
-76.6141
 11
-2.44536
 21
-76.4448
  0
LINE
  8
0
 10
-2.44536
 20
-76.4448
 11
-2.47566
 21
-76.2729
  0
LINE
  8
0
 10
-2.47566
 20
-76.2729
 11
-2.4939
 21
-76.0994
  0
LINE
  8
0
 10
-2.4939
 20
-76.0994
 11
-2.5
 21
-75.925
  0
LINE
  8
0
 10
-2.5
 20
-75.925
 11
-2.4939
 21
-75.7506
  0
LINE
  8
0
 10
-2.4939
 20
-75.7506
 11
-2.47566
 21
-75.5771
  0
LINE
  8
0
 10
-2.47566
 20
-75.5771
 11
-2.44536
 21
-75.4052
  0
LINE
  8
0
 10
-2.44536
 20
-75.4052
 11
-2.40315
 21
-75.2359
  0
LINE
  8
0
 10
-2.40315
 20
-75.2359
 11
-2.34923
 21
-75.0699
  0
LINE
  8
0
 10
-2.34923
 20
-75.0699
 11
-2.28386
 21
-74.9082
  0
LINE
  8
0
 10
-2.28386
 20
-74.9082
 11
-2.20737
 21
-74.7513
  0
LINE
  8
0
 10
-2.20737
 20
-74.7513
 11
-2.12012
 21
-74.6002
  0
LINE
  8
0
 10
-2.12012
 20
-74.6002
 11
-2.02254
 21
-74.4555
  0
LINE
  8
0
 10
-2.02254
 20
-74.4555
 11
-1.9151
 21
-74.318
  0
LINE
  8
0
 10
-1.9151
 20
-74.318
 11
-1.79834
 21
-74.1884
  0
LINE
  8
0
 10
-1.79834
 20
-74.1884
 11
-1.67282
 21
-74.0671
  0
LINE
  8
0
 10
-1.67282
 20
-74.0671
 11
-1.53914
 21
-73.955
  0
LINE
  8
0
 10
-1.53914
 20
-73.955
 11
-1.39798
 21
-73.8524
  0
LINE
  8
0
 10
-1.39798
 20
-73.8524
 11
-1.24998
 21
-73.7599
  0
LINE
  8
0
 10
-1.24998
 20
-73.7599
 11
-1.09592
 21
-73.678
  0
LINE
  8
0
 10
-1.09592
 20
-73.678
 11
-0.936508
 21
-73.607
  0
LINE
  8
0
 10
-0.936508
 20
-73.607
 11
-0.772537
 21
-73.5473
  0
LINE
  8
0
 10
-0.772537
 20
-73.5473
 11
-0.604797
 21
-73.4993
  0
LINE
  8
0
 10
-0.604797
 20
-73.4993
 11
-0.434113
 21
-73.463
  0
LINE
  8
0
 10
-0.434113
 20
-73.463
 11
-0.261307
 21
-73.4387
  0
LINE
  8
0
 10
-0.261307
 20
-73.4387
 11
-0.0872345
 21
-73.4265
  0
LINE
  8
0
 10
-0.0872345
 20
-73.4265
 11
0.0872345
 21
-73.4265
  0
LINE
  8
0
 10
0.0872345
 20
-73.4265
 11
0.261307
 21
-73.4387
  0
LINE
  8
0
 10
0.261307
 20
-73.4387
 11
0.434113
 21
-73.463
  0
LINE
  8
0
 10
0.434113
 20
-73.463
 11
0.604797
 21
-73.4993
  0
LINE
  8
0
 10
0.604797
 20
-73.4993
 11
0.772537
 21
-73.5473
  0
LINE
  8
0
 10
0.772537
 20
-73.5473
 11
0.936508
 21
-73.607
  0
LINE
  8
0
 10
0.936508
 20
-73.607
 11
1.09592
 21
-73.678
  0
LINE
  8
0
 10
1.09592
 20
-73.678
 11
1.25
 21
-73.7599
  0
LINE
  8
0
 10
1.25
 20
-73.7599
 11
1.39798
 21
-73.8524
  0
LINE
  8
0
 10
1.39798
 20
-73.8524
 11
1.53914
 21
-73.955
  0
LINE
  8
0
 10
1.53914
 20
-73.955
 11
1.67282
 21
-74.0671
  0
LINE
  8
0
 10
1.67282
 20
-74.0671
 11
1.79834
 21
-74.1884
  0
LINE
  8
0
 10
1.79834
 20
-74.1884
 11
1.9151
 21
-74.318
  0
LINE
  8
0
 10
1.9151
 20
-74.318
 11
2.02254
 21
-74.4555
  0
LINE
  8
0
 10
2.02254
 20
-74.4555
 11
2.12012
 21
-74.6002
  0
LINE
  8
0
 10
2.12012
 20
-74.6002
 11
2.20737
 21
-74.7513
  0
LINE
  8
0
 10
2.20737
 20
-74.7513
 11
2.28386
 21
-74.9082
  0
LINE
  8
0
 10
2.28386
 20
-74.9082
 11
2.34923
 21
-75.0699
  0
LINE
  8
0
 10
2.34923
 20
-75.0699
 11
2.40315
 21
-75.2359
  0
LINE
  8
0
 10
2.40315
 20
-75.2359
 11
2.44536
 21
-75.4052
  0
LINE
  8
0
 10
2.44536
 20
-75.4052
 11
2.47566
 21
-75.5771
  0
LINE
  8
0
 10
2.47566
 20
-75.5771
 11
2.4939
 21
-75.7506
  0
LINE
  8
0
 10
2.4939
 20
-75.7506
 11
2.5
 21
-75.925
  0
LINE
  8
0
 10
2.5
 20
-75.925
 11
2.4939
 21
-76.0994
  0
LINE
  8
0
 10
2.4939
 20
-76.0994
 11
2.47566
 21
-76.2729
  0
LINE
  8
0
 10
2.47566
 20
-76.2729
 11
2.44536
 21
-76.4448
  0
LINE
  8
0
 10
2.44536
 20
-76.4448
 11
2.40315
 21
-76.6141
  0
LINE
  8
0
 10
2.40315
 20
-76.6141
 11
2.34923
 21
-76.78
  0
LINE
  8
0
 10
2.34923
 20
-76.78
 11
2.28386
 21
-76.9418
  0
LINE
  8
0
 10
2.28386
 20
-76.9418
 11
2.20737
 21
-77.0987
  0
LINE
  8
0
 10
2.20737
 20
-77.0987
 11
2.12012
 21
-77.2498
  0
LINE
  8
0
 10
2.12012
 20
-77.2498
 11
2.02254
 21
-77.3945
  0
LINE
  8
0
 10
2.02254
 20
-77.3945
 11
1.9151
 21
-77.532
  0
LINE
  8
0
 10
1.9151
 20
-77.532
 11
1.79834
 21
-77.6616
  0
LINE
  8
0
 10
1.79834
 20
-77.6616
 11
1.67282
 21
-77.7829
  0
LINE
  8
0
 10
1.67282
 20
-77.7829
 11
1.53914
 21
-77.895
  0
LINE
  8
0
 10
1.53914
 20
-77.895
 11
1.39798
 21
-77.9976
  0
LINE
  8
0
 10
1.39798
 20
-77.9976
 11
1.25
 21
-78.0901
  0
LINE
  8
0
 10
1.25
 20
-78.0901
 11
1.09592
 21
-78.172
  0
LINE
  8
0
 10
1.09592
 20
-78.172
 11
0.936508
 21
-78.243
  0
LINE
  8
0
 10
0.936508
 20
-78.243
 11
0.772537
 21
-78.3026
  0
LINE
  8
0
 10
0.772537
 20
-78.3026
 11
0.604797
 21
-78.3507
  0
LINE
  8
0
 10
0.604797
 20
-78.3507
 11
0.434113
 21
-78.387
  0
LINE
  8
0
 10
0.434113
 20
-78.387
 11
0.261307
 21
-78.4113
  0
LINE
  8
0
 10
0.261307
 20
-78.4113
 11
0.0872345
 21
-78.4235
  0
LINE
  8
0
 10
0.0872345
 20
-78.4235
 11
-0.0872345
 21
-78.4235
  0
LINE
  8
0
 10
-72.2379
 20
-85.9226
 11
-72.5129
 21
-85.9034
  0
LINE
  8
0
 10
-72.5129
 20
-85.9034
 11
-72.7859
 21
-85.865
  0
LINE
  8
0
 10
-72.7859
 20
-85.865
 11
-73.0556
 21
-85.8077
  0
LINE
  8
0
 10
-73.0556
 20
-85.8077
 11
-73.3206
 21
-85.7317
  0
LINE
  8
0
 10
-73.3206
 20
-85.7317
 11
-73.5797
 21
-85.6374
  0
LINE
  8
0
 10
-73.5797
 20
-85.6374
 11
-73.8316
 21
-85.5252
  0
LINE
  8
0
 10
-73.8316
 20
-85.5252
 11
-74.075
 21
-85.3958
  0
LINE
  8
0
 10
-74.075
 20
-85.3958
 11
-74.3088
 21
-85.2497
  0
LINE
  8
0
 10
-74.3088
 20
-85.2497
 11
-74.5319
 21
-85.0876
  0
LINE
  8
0
 10
-74.5319
 20
-85.0876
 11
-74.7431
 21
-84.9104
  0
LINE
  8
0
 10
-74.7431
 20
-84.9104
 11
-74.9414
 21
-84.7189
  0
LINE
  8
0
 10
-74.9414
 20
-84.7189
 11
-75.1259
 21
-84.514
  0
LINE
  8
0
 10
-75.1259
 20
-84.514
 11
-75.2956
 21
-84.2968
  0
LINE
  8
0
 10
-75.2956
 20
-84.2968
 11
-75.4498
 21
-84.0682
  0
LINE
  8
0
 10
-75.4498
 20
-84.0682
 11
-75.5876
 21
-83.8294
  0
LINE
  8
0
 10
-75.5876
 20
-83.8294
 11
-75.7085
 21
-83.5816
  0
LINE
  8
0
 10
-75.7085
 20
-83.5816
 11
-75.8118
 21
-83.326
  0
LINE
  8
0
 10
-75.8118
 20
-83.326
 11
-75.897
 21
-83.0638
  0
LINE
  8
0
 10
-75.897
 20
-83.0638
 11
-75.9637
 21
-82.7962
  0
LINE
  8
0
 10
-75.9637
 20
-82.7962
 11
-76.0116
 21
-82.5247
  0
LINE
  8
0
 10
-76.0116
 20
-82.5247
 11
-76.0404
 21
-82.2505
  0
LINE
  8
0
 10
-76.0404
 20
-82.2505
 11
-76.05
 21
-81.975
  0
LINE
  8
0
 10
-76.05
 20
-81.975
 11
-76.0404
 21
-81.6995
  0
LINE
  8
0
 10
-76.0404
 20
-81.6995
 11
-76.0116
 21
-81.4253
  0
LINE
  8
0
 10
-76.0116
 20
-81.4253
 11
-75.9637
 21
-81.1537
  0
LINE
  8
0
 10
-75.9637
 20
-81.1537
 11
-75.897
 21
-80.8862
  0
LINE
  8
0
 10
-75.897
 20
-80.8862
 11
-75.8118
 21
-80.624
  0
LINE
  8
0
 10
-75.8118
 20
-80.624
 11
-75.7085
 21
-80.3684
  0
LINE
  8
0
 10
-75.7085
 20
-80.3684
 11
-75.5876
 21
-80.1206
  0
LINE
  8
0
 10
-75.5876
 20
-80.1206
 11
-75.4498
 21
-79.8818
  0
LINE
  8
0
 10
-75.4498
 20
-79.8818
 11
-75.2956
 21
-79.6532
  0
LINE
  8
0
 10
-75.2956
 20
-79.6532
 11
-75.1259
 21
-79.436
  0
LINE
  8
0
 10
-75.1259
 20
-79.436
 11
-74.9414
 21
-79.2311
  0
LINE
  8
0
 10
-74.9414
 20
-79.2311
 11
-74.7431
 21
-79.0396
  0
LINE
  8
0
 10
-74.7431
 20
-79.0396
 11
-74.5319
 21
-78.8624
  0
LINE
  8
0
 10
-74.5319
 20
-78.8624
 11
-74.3088
 21
-78.7003
  0
LINE
  8
0
 10
-74.3088
 20
-78.7003
 11
-74.075
 21
-78.5542
  0
LINE
  8
0
 10
-74.075
 20
-78.5542
 11
-73.8316
 21
-78.4248
  0
LINE
  8
0
 10
-73.8316
 20
-78.4248
 11
-73.5797
 21
-78.3126
  0
LINE
  8
0
 10
-73.5797
 20
-78.3126
 11
-73.3206
 21
-78.2183
  0
LINE
  8
0
 10
-73.3206
 20
-78.2183
 11
-73.0556
 21
-78.1423
  0
LINE
  8
0
 10
-73.0556
 20
-78.1423
 11
-72.7859
 21
-78.085
  0
LINE
  8
0
 10
-72.7859
 20
-78.085
 11
-72.5129
 21
-78.0466
  0
LINE
  8
0
 10
-72.5129
 20
-78.0466
 11
-72.2379
 21
-78.0274
  0
LINE
  8
0
 10
-72.2379
 20
-78.0274
 11
-71.9621
 21
-78.0274
  0
LINE
  8
0
 10
-71.9621
 20
-78.0274
 11
-71.6871
 21
-78.0466
  0
LINE
  8
0
 10
-71.6871
 20
-78.0466
 11
-71.4141
 21
-78.085
  0
LINE
  8
0
 10
-71.4141
 20
-78.085
 11
-71.1444
 21
-78.1423
  0
LINE
  8
0
 10
-71.1444
 20
-78.1423
 11
-70.8794
 21
-78.2183
  0
LINE
  8
0
 10
-70.8794
 20
-78.2183
 11
-70.6203
 21
-78.3126
  0
LINE
  8
0
 10
-70.6203
 20
-78.3126
 11
-70.3684
 21
-78.4248
  0
LINE
  8
0
 10
-70.3684
 20
-78.4248
 11
-70.125
 21
-78.5542
  0
LINE
  8
0
 10
-70.125
 20
-78.5542
 11
-69.8912
 21
-78.7003
  0
LINE
  8
0
 10
-69.8912
 20
-78.7003
 11
-69.6681
 21
-78.8624
  0
LINE
  8
0
 10
-69.6681
 20
-78.8624
 11
-69.4569
 21
-79.0396
  0
LINE
  8
0
 10
-69.4569
 20
-79.0396
 11
-69.2586
 21
-79.2311
  0
LINE
  8
0
 10
-69.2586
 20
-79.2311
 11
-69.0741
 21
-79.436
  0
LINE
  8
0
 10
-69.0741
 20
-79.436
 11
-68.9044
 21
-79.6532
  0
LINE
  8
0
 10
-68.9044
 20
-79.6532
 11
-68.7502
 21
-79.8818
  0
LINE
  8
0
 10
-68.7502
 20
-79.8818
 11
-68.6124
 21
-80.1206
  0
LINE
  8
0
 10
-68.6124
 20
-80.1206
 11
-68.4915
 21
-80.3684
  0
LINE
  8
0
 10
-68.4915
 20
-80.3684
 11
-68.3882
 21
-80.624
  0
LINE
  8
0
 10
-68.3882
 20
-80.624
 11
-68.303
 21
-80.8862
  0
LINE
  8
0
 10
-68.303
 20
-80.8862
 11
-68.2363
 21
-81.1537
  0
LINE
  8
0
 10
-68.2363
 20
-81.1537
 11
-68.1884
 21
-81.4253
  0
LINE
  8
0
 10
-68.1884
 20
-81.4253
 11
-68.1596
 21
-81.6995
  0
LINE
  8
0
 10
-68.1596
 20
-81.6995
 11
-68.15
 21
-81.975
  0
LINE
  8
0
 10
-68.15
 20
-81.975
 11
-68.1596
 21
-82.2505
  0
LINE
  8
0
 10
-68.1596
 20
-82.2505
 11
-68.1884
 21
-82.5247
  0
LINE
  8
0
 10
-68.1884
 20
-82.5247
 11
-68.2363
 21
-82.7962
  0
LINE
  8
0
 10
-68.2363
 20
-82.7962
 11
-68.303
 21
-83.0638
  0
LINE
  8
0
 10
-68.303
 20
-83.0638
 11
-68.3882
 21
-83.326
  0
LINE
  8
0
 10
-68.3882
 20
-83.326
 11
-68.4915
 21
-83.5816
  0
LINE
  8
0
 10
-68.4915
 20
-83.5816
 11
-68.6124
 21
-83.8294
  0
LINE
  8
0
 10
-68.6124
 20
-83.8294
 11
-68.7502
 21
-84.0682
  0
LINE
  8
0
 10
-68.7502
 20
-84.0682
 11
-68.9044
 21
-84.2968
  0
LINE
  8
0
 10
-68.9044
 20
-84.2968
 11
-69.0741
 21
-84.514
  0
LINE
  8
0
 10
-69.0741
 20
-84.514
 11
-69.2586
 21
-84.7189
  0
LINE
  8
0
 10
-69.2586
 20
-84.7189
 11
-69.4569
 21
-84.9104
  0
LINE
  8
0
 10
-69.4569
 20
-84.9104
 11
-69.6681
 21
-85.0876
  0
LINE
  8
0
 10
-69.6681
 20
-85.0876
 11
-69.8912
 21
-85.2497
  0
LINE
  8
0
 10
-69.8912
 20
-85.2497
 11
-70.125
 21
-85.3958
  0
LINE
  8
0
 10
-70.125
 20
-85.3958
 11
-70.3684
 21
-85.5252
  0
LINE
  8
0
 10
-70.3684
 20
-85.5252
 11
-70.6203
 21
-85.6374
  0
LINE
  8
0
 10
-70.6203
 20
-85.6374
 11
-70.8794
 21
-85.7317
  0
LINE
  8
0
 10
-70.8794
 20
-85.7317
 11
-71.1444
 21
-85.8077
  0
LINE
  8
0
 10
-71.1444
 20
-85.8077
 11
-71.4141
 21
-85.865
  0
LINE
  8
0
 10
-71.4141
 20
-85.865
 11
-71.6871
 21
-85.9034
  0
LINE
  8
0
 10
-71.6871
 20
-85.9034
 11
-71.9621
 21
-85.9226
  0
LINE
  8
0
 10
-71.9621
 20
-85.9226
 11
-72.2379
 21
-85.9226
  0
LINE
  8
0
 10
71.9621
 20
-85.9226
 11
71.6871
 21
-85.9034
  0
LINE
  8
0
 10
71.6871
 20
-85.9034
 11
71.4141
 21
-85.865
  0
LINE
  8
0
 10
71.4141
 20
-85.865
 11
71.1444
 21
-85.8077
  0
LINE
  8
0
 10
71.1444
 20
-85.8077
 11
70.8794
 21
-85.7317
  0
LINE
  8
0
 10
70.8794
 20
-85.7317
 11
70.6203
 21
-85.6374
  0
LINE
  8
0
 10
70.6203
 20
-85.6374
 11
70.3684
 21
-85.5252
  0
LINE
  8
0
 10
70.3684
 20
-85.5252
 11
70.125
 21
-85.3958
  0
LINE
  8
0
 10
70.125
 20
-85.3958
 11
69.8912
 21
-85.2497
  0
LINE
  8
0
 10
69.8912
 20
-85.2497
 11
69.6681
 21
-85.0876
  0
LINE
  8
0
 10
69.6681
 20
-85.0876
 11
69.4569
 21
-84.9104
  0
LINE
  8
0
 10
69.4569
 20
-84.9104
 11
69.2586
 21
-84.7189
  0
LINE
  8
0
 10
69.2586
 20
-84.7189
 11
69.0741
 21
-84.514
  0
LINE
  8
0
 10
69.0741
 20
-84.514
 11
68.9044
 21
-84.2968
  0
LINE
  8
0
 10
68.9044
 20
-84.2968
 11
68.7502
 21
-84.0682
  0
LINE
  8
0
 10
68.7502
 20
-84.0682
 11
68.6124
 21
-83.8294
  0
LINE
  8
0
 10
68.6124
 20
-83.8294
 11
68.4915
 21
-83.5816
  0
LINE
  8
0
 10
68.4915
 20
-83.5816
 11
68.3882
 21
-83.326
  0
LINE
  8
0
 10
68.3882
 20
-83.326
 11
68.303
 21
-83.0638
  0
LINE
  8
0
 10
68.303
 20
-83.0638
 11
68.2363
 21
-82.7962
  0
LINE
  8
0
 10
68.2363
 20
-82.7962
 11
68.1884
 21
-82.5247
  0
LINE
  8
0
 10
68.1884
 20
-82.5247
 11
68.1596
 21
-82.2505
  0
LINE
  8
0
 10
68.1596
 20
-82.2505
 11
68.15
 21
-81.975
  0
LINE
  8
0
 10
68.15
 20
-81.975
 11
68.1596
 21
-81.6995
  0
LINE
  8
0
 10
68.1596
 20
-81.6995
 11
68.1884
 21
-81.4253
  0
LINE
  8
0
 10
68.1884
 20
-81.4253
 11
68.2363
 21
-81.1537
  0
LINE
  8
0
 10
68.2363
 20
-81.1537
 11
68.303
 21
-80.8862
  0
LINE
  8
0
 10
68.303
 20
-80.8862
 11
68.3882
 21
-80.624
  0
LINE
  8
0
 10
68.3882
 20
-80.624
 11
68.4915
 21
-80.3684
  0
LINE
  8
0
 10
68.4915
 20
-80.3684
 11
68.6124
 21
-80.1206
  0
LINE
  8
0
 10
68.6124
 20
-80.1206
 11
68.7502
 21
-79.8818
  0
LINE
  8
0
 10
68.7502
 20
-79.8818
 11
68.9044
 21
-79.6532
  0
LINE
  8
0
 10
68.9044
 20
-79.6532
 11
69.0741
 21
-79.436
  0
LINE
  8
0
 10
69.0741
 20
-79.436
 11
69.2586
 21
-79.2311
  0
LINE
  8
0
 10
69.2586
 20
-79.2311
 11
69.4569
 21
-79.0396
  0
LINE
  8
0
 10
69.4569
 20
-79.0396
 11
69.6681
 21
-78.8624
  0
LINE
  8
0
 10
69.6681
 20
-78.8624
 11
69.8912
 21
-78.7003
  0
LINE
  8
0
 10
69.8912
 20
-78.7003
 11
70.125
 21
-78.5542
  0
LINE
  8
0
 10
70.125
 20
-78.5542
 11
70.3684
 21
-78.4248
  0
LINE
  8
0
 10
70.3684
 20
-78.4248
 11
70.6203
 21
-78.3126
  0
LINE
  8
0
 10
70.6203
 20
-78.3126
 11
70.8794
 21
-78.2183
  0
LINE
  8
0
 10
70.8794
 20
-78.2183
 11
71.1444
 21
-78.1423
  0
LINE
  8
0
 10
71.1444
 20
-78.1423
 11
71.4141
 21
-78.085
  0
LINE
  8
0
 10
71.4141
 20
-78.085
 11
71.6871
 21
-78.0466
  0
LINE
  8
0
 10
71.6871
 20
-78.0466
 11
71.9621
 21
-78.0274
  0
LINE
  8
0
 10
71.9621
 20
-78.0274
 11
72.2379
 21
-78.0274
  0
LINE
  8
0
 10
72.2379
 20
-78.0274
 11
72.5129
 21
-78.0466
  0
LINE
  8
0
 10
72.5129
 20
-78.0466
 11
72.7859
 21
-78.085
  0
LINE
  8
0
 10
72.7859
 20
-78.085
 11
73.0556
 21
-78.1423
  0
LINE
  8
0
 10
73.0556
 20
-78.1423
 11
73.3206
 21
-78.2183
  0
LINE
  8
0
 10
73.3206
 20
-78.2183
 11
73.5797
 21
-78.3126
  0
LINE
  8
0
 10
73.5797
 20
-78.3126
 11
73.8316
 21
-78.4248
  0
LINE
  8
0
 10
73.8316
 20
-78.4248
 11
74.075
 21
-78.5542
  0
LINE
  8
0
 10
74.075
 20
-78.5542
 11
74.3088
 21
-78.7003
  0
LINE
  8
0
 10
74.3088
 20
-78.7003
 11
74.5319
 21
-78.8624
  0
LINE
  8
0
 10
74.5319
 20
-78.8624
 11
74.7431
 21
-79.0396
  0
LINE
  8
0
 10
74.7431
 20
-79.0396
 11
74.9414
 21
-79.2311
  0
LINE
  8
0
 10
74.9414
 20
-79.2311
 11
75.1259
 21
-79.436
  0
LINE
  8
0
 10
75.1259
 20
-79.436
 11
75.2956
 21
-79.6532
  0
LINE
  8
0
 10
75.2956
 20
-79.6532
 11
75.4498
 21
-79.8818
  0
LINE
  8
0
 10
75.4498
 20
-79.8818
 11
75.5876
 21
-80.1206
  0
LINE
  8
0
 10
75.5876
 20
-80.1206
 11
75.7085
 21
-80.3684
  0
LINE
  8
0
 10
75.7085
 20
-80.3684
 11
75.8118
 21
-80.624
  0
LINE
  8
0
 10
75.8118
 20
-80.624
 11
75.897
 21
-80.8862
  0
LINE
  8
0
 10
75.897
 20
-80.8862
 11
75.9637
 21
-81.1537
  0
LINE
  8
0
 10
75.9637
 20
-81.1537
 11
76.0116
 21
-81.4253
  0
LINE
  8
0
 10
76.0116
 20
-81.4253
 11
76.0404
 21
-81.6995
  0
LINE
  8
0
 10
76.0404
 20
-81.6995
 11
76.05
 21
-81.975
  0
LINE
  8
0
 10
76.05
 20
-81.975
 11
76.0404
 21
-82.2505
  0
LINE
  8
0
 10
76.0404
 20
-82.2505
 11
76.0116
 21
-82.5247
  0
LINE
  8
0
 10
76.0116
 20
-82.5247
 11
75.9637
 21
-82.7962
  0
LINE
  8
0
 10
75.9637
 20
-82.7962
 11
75.897
 21
-83.0638
  0
LINE
  8
0
 10
75.897
 20
-83.0638
 11
75.8118
 21
-83.326
  0
LINE
  8
0
 10
75.8118
 20
-83.326
 11
75.7085
 21
-83.5816
  0
LINE
  8
0
 10
75.7085
 20
-83.5816
 11
75.5876
 21
-83.8294
  0
LINE
  8
0
 10
75.5876
 20
-83.8294
 11
75.4498
 21
-84.0682
  0
LINE
  8
0
 10
75.4498
 20
-84.0682
 11
75.2956
 21
-84.2968
  0
LINE
  8
0
 10
75.2956
 20
-84.2968
 11
75.1259
 21
-84.514
  0
LINE
  8
0
 10
75.1259
 20
-84.514
 11
74.9414
 21
-84.7189
  0
LINE
  8
0
 10
74.9414
 20
-84.7189
 11
74.7431
 21
-84.9104
  0
LINE
  8
0
 10
74.7431
 20
-84.9104
 11
74.5319
 21
-85.0876
  0
LINE
  8
0
 10
74.5319
 20
-85.0876
 11
74.3088
 21
-85.2497
  0
LINE
  8
0
 10
74.3088
 20
-85.2497
 11
74.075
 21
-85.3958
  0
LINE
  8
0
 10
74.075
 20
-85.3958
 11
73.8316
 21
-85.5252
  0
LINE
  8
0
 10
73.8316
 20
-85.5252
 11
73.5797
 21
-85.6374
  0
LINE
  8
0
 10
73.5797
 20
-85.6374
 11
73.3206
 21
-85.7317
  0
LINE
  8
0
 10
73.3206
 20
-85.7317
 11
73.0556
 21
-85.8077
  0
LINE
  8
0
 10
73.0556
 20
-85.8077
 11
72.7859
 21
-85.865
  0
LINE
  8
0
 10
72.7859
 20
-85.865
 11
72.5129
 21
-85.9034
  0
LINE
  8
0
 10
72.5129
 20
-85.9034
 11
72.2379
 21
-85.9226
  0
LINE
  8
0
 10
72.2379
 20
-85.9226
 11
71.9621
 21
-85.9226
  0
ENDSEC
  0
SECTION
  2
OBJECTS
  0
DICTIONARY
  0
ENDSEC
  0
EOF
