  0
SECTION
  2
BLOCKS
  0
ENDSEC
  0
SECTION
  2
ENTITIES
  0
LINE
  8
0
 10
-31.25
 20
0
 11
-31.1739
 21
-2.17989
  0
LINE
  8
0
 10
-31.1739
 20
-2.17989
 11
-30.9459
 21
-4.34916
  0
LINE
  8
0
 10
-30.9459
 20
-4.34916
 11
-30.5671
 21
-6.49724
  0
LINE
  8
0
 10
-30.5671
 20
-6.49724
 11
-30.0394
 21
-8.61367
  0
LINE
  8
0
 10
-30.0394
 20
-8.61367
 11
-29.3654
 21
-10.6881
  0
LINE
  8
0
 10
-29.3654
 20
-10.6881
 11
-28.5483
 21
-12.7105
  0
LINE
  8
0
 10
-28.5483
 20
-12.7105
 11
-27.5921
 21
-14.671
  0
LINE
  8
0
 10
-27.5921
 20
-14.671
 11
-26.5015
 21
-16.56
  0
LINE
  8
0
 10
-26.5015
 20
-16.56
 11
-25.2818
 21
-18.3683
  0
LINE
  8
0
 10
-25.2818
 20
-18.3683
 11
-23.9389
 21
-20.0871
  0
LINE
  8
0
 10
-23.9389
 20
-20.0871
 11
-22.4794
 21
-21.7081
  0
LINE
  8
0
 10
-22.4794
 20
-21.7081
 11
-20.9103
 21
-23.2233
  0
LINE
  8
0
 10
-20.9103
 20
-23.2233
 11
-19.2394
 21
-24.6253
  0
LINE
  8
0
 10
-19.2394
 20
-24.6253
 11
-17.4748
 21
-25.9074
  0
LINE
  8
0
 10
-17.4748
 20
-25.9074
 11
-15.625
 21
-27.0633
  0
LINE
  8
0
 10
-15.625
 20
-27.0633
 11
-13.6991
 21
-28.0873
  0
LINE
  8
0
 10
-13.6991
 20
-28.0873
 11
-11.7065
 21
-28.9745
  0
LINE
  8
0
 10
-11.7065
 20
-28.9745
 11
-9.65678
 21
-29.7205
  0
LINE
  8
0
 10
-9.65678
 20
-29.7205
 11
-7.56006
 21
-30.3217
  0
LINE
  8
0
 10
-7.56006
 20
-30.3217
 11
-5.42651
 21
-30.7752
  0
LINE
  8
0
 10
-5.42651
 20
-30.7752
 11
-3.26651
 21
-31.0788
  0
LINE
  8
0
 10
-3.26651
 20
-31.0788
 11
-1.09061
 21
-31.231
  0
LINE
  8
0
 10
-1.09061
 20
-31.231
 11
1.09061
 21
-31.231
  0
LINE
  8
0
 10
1.09061
 20
-31.231
 11
3.26651
 21
-31.0788
  0
LINE
  8
0
 10
3.26651
 20
-31.0788
 11
5.42651
 21
-30.7752
  0
LINE
  8
0
 10
5.42651
 20
-30.7752
 11
7.56006
 21
-30.3217
  0
LINE
  8
0
 10
7.56006
 20
-30.3217
 11
9.65678
 21
-29.7205
  0
LINE
  8
0
 10
9.65678
 20
-29.7205
 11
11.7065
 21
-28.9745
  0
LINE
  8
0
 10
11.7065
 20
-28.9745
 11
13.6991
 21
-28.0873
  0
LINE
  8
0
 10
13.6991
 20
-28.0873
 11
15.625
 21
-27.0633
  0
LINE
  8
0
 10
15.625
 20
-27.0633
 11
17.4748
 21
-25.9074
  0
LINE
  8
0
 10
17.4748
 20
-25.9074
 11
19.2394
 21
-24.6253
  0
LINE
  8
0
 10
19.2394
 20
-24.6253
 11
20.9103
 21
-23.2233
  0
LINE
  8
0
 10
20.9103
 20
-23.2233
 11
22.4794
 21
-21.7081
  0
LINE
  8
0
 10
22.4794
 20
-21.7081
 11
23.9389
 21
-20.0871
  0
LINE
  8
0
 10
23.9389
 20
-20.0871
 11
25.2818
 21
-18.3683
  0
LINE
  8
0
 10
25.2818
 20
-18.3683
 11
26.5015
 21
-16.56
  0
LINE
  8
0
 10
26.5015
 20
-16.56
 11
27.5921
 21
-14.671
  0
LINE
  8
0
 10
27.5921
 20
-14.671
 11
28.5483
 21
-12.7105
  0
LINE
  8
0
 10
28.5483
 20
-12.7105
 11
29.3654
 21
-10.6881
  0
LINE
  8
0
 10
29.3654
 20
-10.6881
 11
30.0394
 21
-8.61367
  0
LINE
  8
0
 10
30.0394
 20
-8.61367
 11
30.5671
 21
-6.49724
  0
LINE
  8
0
 10
30.5671
 20
-6.49724
 11
30.9459
 21
-4.34916
  0
LINE
  8
0
 10
30.9459
 20
-4.34916
 11
31.1739
 21
-2.17989
  0
LINE
  8
0
 10
31.1739
 20
-2.17989
 11
31.25
 21
0
  0
LINE
  8
0
 10
31.25
 20
0
 11
31.1739
 21
2.17989
  0
LINE
  8
0
 10
31.1739
 20
2.17989
 11
30.9459
 21
4.34916
  0
LINE
  8
0
 10
30.9459
 20
4.34916
 11
30.5671
 21
6.49724
  0
LINE
  8
0
 10
30.5671
 20
6.49724
 11
30.0394
 21
8.61367
  0
LINE
  8
0
 10
30.0394
 20
8.61367
 11
29.3654
 21
10.6881
  0
LINE
  8
0
 10
29.3654
 20
10.6881
 11
28.5483
 21
12.7105
  0
LINE
  8
0
 10
28.5483
 20
12.7105
 11
27.5921
 21
14.671
  0
LINE
  8
0
 10
27.5921
 20
14.671
 11
26.5015
 21
16.56
  0
LINE
  8
0
 10
26.5015
 20
16.56
 11
25.2818
 21
18.3683
  0
LINE
  8
0
 10
25.2818
 20
18.3683
 11
23.9389
 21
20.0871
  0
LINE
  8
0
 10
23.9389
 20
20.0871
 11
22.4794
 21
21.7081
  0
LINE
  8
0
 10
22.4794
 20
21.7081
 11
20.9103
 21
23.2233
  0
LINE
  8
0
 10
20.9103
 20
23.2233
 11
19.2394
 21
24.6253
  0
LINE
  8
0
 10
19.2394
 20
24.6253
 11
17.4748
 21
25.9074
  0
LINE
  8
0
 10
17.4748
 20
25.9074
 11
15.625
 21
27.0633
  0
LINE
  8
0
 10
15.625
 20
27.0633
 11
13.6991
 21
28.0873
  0
LINE
  8
0
 10
13.6991
 20
28.0873
 11
11.7065
 21
28.9745
  0
LINE
  8
0
 10
11.7065
 20
28.9745
 11
9.65678
 21
29.7205
  0
LINE
  8
0
 10
9.65678
 20
29.7205
 11
7.56006
 21
30.3217
  0
LINE
  8
0
 10
7.56006
 20
30.3217
 11
5.42651
 21
30.7752
  0
LINE
  8
0
 10
5.42651
 20
30.7752
 11
3.26651
 21
31.0788
  0
LINE
  8
0
 10
3.26651
 20
31.0788
 11
1.09061
 21
31.231
  0
LINE
  8
0
 10
1.09061
 20
31.231
 11
-1.09061
 21
31.231
  0
LINE
  8
0
 10
-1.09061
 20
31.231
 11
-3.26651
 21
31.0788
  0
LINE
  8
0
 10
-3.26651
 20
31.0788
 11
-5.42651
 21
30.7752
  0
LINE
  8
0
 10
-5.42651
 20
30.7752
 11
-7.56006
 21
30.3217
  0
LINE
  8
0
 10
-7.56006
 20
30.3217
 11
-9.65678
 21
29.7205
  0
LINE
  8
0
 10
-9.65678
 20
29.7205
 11
-11.7065
 21
28.9745
  0
LINE
  8
0
 10
-11.7065
 20
28.9745
 11
-13.6991
 21
28.0873
  0
LINE
  8
0
 10
-13.6991
 20
28.0873
 11
-15.625
 21
27.0633
  0
LINE
  8
0
 10
-15.625
 20
27.0633
 11
-17.4748
 21
25.9074
  0
LINE
  8
0
 10
-17.4748
 20
25.9074
 11
-19.2394
 21
24.6253
  0
LINE
  8
0
 10
-19.2394
 20
24.6253
 11
-20.9103
 21
23.2233
  0
LINE
  8
0
 10
-20.9103
 20
23.2233
 11
-22.4794
 21
21.7081
  0
LINE
  8
0
 10
-22.4794
 20
21.7081
 11
-23.9389
 21
20.0871
  0
LINE
  8
0
 10
-23.9389
 20
20.0871
 11
-25.2818
 21
18.3683
  0
LINE
  8
0
 10
-25.2818
 20
18.3683
 11
-26.5015
 21
16.56
  0
LINE
  8
0
 10
-26.5015
 20
16.56
 11
-27.5921
 21
14.671
  0
LINE
  8
0
 10
-27.5921
 20
14.671
 11
-28.5483
 21
12.7105
  0
LINE
  8
0
 10
-28.5483
 20
12.7105
 11
-29.3654
 21
10.6881
  0
LINE
  8
0
 10
-29.3654
 20
10.6881
 11
-30.0394
 21
8.61367
  0
LINE
  8
0
 10
-30.0394
 20
8.61367
 11
-30.5671
 21
6.49724
  0
LINE
  8
0
 10
-30.5671
 20
6.49724
 11
-30.9459
 21
4.34916
  0
LINE
  8
0
 10
-30.9459
 20
4.34916
 11
-31.1739
 21
2.17989
  0
LINE
  8
0
 10
-31.1739
 20
2.17989
 11
-31.25
 21
0
  0
LINE
  8
0
 10
-3.1
 20
0
 11
-3.09245
 21
0.216245
  0
LINE
  8
0
 10
-3.09245
 20
0.216245
 11
-3.06983
 21
0.431437
  0
LINE
  8
0
 10
-3.06983
 20
0.431437
 11
-3.03226
 21
0.644526
  0
LINE
  8
0
 10
-3.03226
 20
0.644526
 11
-2.97991
 21
0.854475
  0
LINE
  8
0
 10
-2.97991
 20
0.854475
 11
-2.91305
 21
1.06026
  0
LINE
  8
0
 10
-2.91305
 20
1.06026
 11
-2.83199
 21
1.26088
  0
LINE
  8
0
 10
-2.83199
 20
1.26088
 11
-2.73714
 21
1.45536
  0
LINE
  8
0
 10
-2.73714
 20
1.45536
 11
-2.62895
 21
1.64275
  0
LINE
  8
0
 10
-2.62895
 20
1.64275
 11
-2.50795
 21
1.82213
  0
LINE
  8
0
 10
-2.50795
 20
1.82213
 11
-2.37474
 21
1.99264
  0
LINE
  8
0
 10
-2.37474
 20
1.99264
 11
-2.22995
 21
2.15344
  0
LINE
  8
0
 10
-2.22995
 20
2.15344
 11
-2.0743
 21
2.30375
  0
LINE
  8
0
 10
-2.0743
 20
2.30375
 11
-1.90855
 21
2.44283
  0
LINE
  8
0
 10
-1.90855
 20
2.44283
 11
-1.7335
 21
2.57002
  0
LINE
  8
0
 10
-1.7335
 20
2.57002
 11
-1.55
 21
2.68468
  0
LINE
  8
0
 10
-1.55
 20
2.68468
 11
-1.35895
 21
2.78626
  0
LINE
  8
0
 10
-1.35895
 20
2.78626
 11
-1.16128
 21
2.87427
  0
LINE
  8
0
 10
-1.16128
 20
2.87427
 11
-0.957952
 21
2.94827
  0
LINE
  8
0
 10
-0.957952
 20
2.94827
 11
-0.749957
 21
3.00792
  0
LINE
  8
0
 10
-0.749957
 20
3.00792
 11
-0.538309
 21
3.0529
  0
LINE
  8
0
 10
-0.538309
 20
3.0529
 11
-0.324038
 21
3.08302
  0
LINE
  8
0
 10
-0.324038
 20
3.08302
 11
-0.108188
 21
3.09811
  0
LINE
  8
0
 10
-0.108188
 20
3.09811
 11
0.108188
 21
3.09811
  0
LINE
  8
0
 10
0.108188
 20
3.09811
 11
0.324038
 21
3.08302
  0
LINE
  8
0
 10
0.324038
 20
3.08302
 11
0.538309
 21
3.0529
  0
LINE
  8
0
 10
0.538309
 20
3.0529
 11
0.749957
 21
3.00792
  0
LINE
  8
0
 10
0.749957
 20
3.00792
 11
0.957952
 21
2.94827
  0
LINE
  8
0
 10
0.957952
 20
2.94827
 11
1.16128
 21
2.87427
  0
LINE
  8
0
 10
1.16128
 20
2.87427
 11
1.35895
 21
2.78626
  0
LINE
  8
0
 10
1.35895
 20
2.78626
 11
1.55
 21
2.68468
  0
LINE
  8
0
 10
1.55
 20
2.68468
 11
1.7335
 21
2.57002
  0
LINE
  8
0
 10
1.7335
 20
2.57002
 11
1.90855
 21
2.44283
  0
LINE
  8
0
 10
1.90855
 20
2.44283
 11
2.0743
 21
2.30375
  0
LINE
  8
0
 10
2.0743
 20
2.30375
 11
2.22995
 21
2.15344
  0
LINE
  8
0
 10
2.22995
 20
2.15344
 11
2.37474
 21
1.99264
  0
LINE
  8
0
 10
2.37474
 20
1.99264
 11
2.50795
 21
1.82213
  0
LINE
  8
0
 10
2.50795
 20
1.82213
 11
2.62895
 21
1.64275
  0
LINE
  8
0
 10
2.62895
 20
1.64275
 11
2.73714
 21
1.45536
  0
LINE
  8
0
 10
2.73714
 20
1.45536
 11
2.83199
 21
1.26088
  0
LINE
  8
0
 10
2.83199
 20
1.26088
 11
2.91305
 21
1.06026
  0
LINE
  8
0
 10
2.91305
 20
1.06026
 11
2.97991
 21
0.854475
  0
LINE
  8
0
 10
2.97991
 20
0.854475
 11
3.03226
 21
0.644526
  0
LINE
  8
0
 10
3.03226
 20
0.644526
 11
3.06983
 21
0.431437
  0
LINE
  8
0
 10
3.06983
 20
0.431437
 11
3.09245
 21
0.216245
  0
LINE
  8
0
 10
3.09245
 20
0.216245
 11
3.1
 21
0
  0
LINE
  8
0
 10
3.1
 20
0
 11
3.09245
 21
-0.216245
  0
LINE
  8
0
 10
3.09245
 20
-0.216245
 11
3.06983
 21
-0.431437
  0
LINE
  8
0
 10
3.06983
 20
-0.431437
 11
3.03226
 21
-0.644526
  0
LINE
  8
0
 10
3.03226
 20
-0.644526
 11
2.97991
 21
-0.854475
  0
LINE
  8
0
 10
2.97991
 20
-0.854475
 11
2.91305
 21
-1.06026
  0
LINE
  8
0
 10
2.91305
 20
-1.06026
 11
2.83199
 21
-1.26088
  0
LINE
  8
0
 10
2.83199
 20
-1.26088
 11
2.73714
 21
-1.45536
  0
LINE
  8
0
 10
2.73714
 20
-1.45536
 11
2.62895
 21
-1.64275
  0
LINE
  8
0
 10
2.62895
 20
-1.64275
 11
2.50795
 21
-1.82213
  0
LINE
  8
0
 10
2.50795
 20
-1.82213
 11
2.37474
 21
-1.99264
  0
LINE
  8
0
 10
2.37474
 20
-1.99264
 11
2.22995
 21
-2.15344
  0
LINE
  8
0
 10
2.22995
 20
-2.15344
 11
2.0743
 21
-2.30375
  0
LINE
  8
0
 10
2.0743
 20
-2.30375
 11
1.90855
 21
-2.44283
  0
LINE
  8
0
 10
1.90855
 20
-2.44283
 11
1.7335
 21
-2.57002
  0
LINE
  8
0
 10
1.7335
 20
-2.57002
 11
1.55
 21
-2.68468
  0
LINE
  8
0
 10
1.55
 20
-2.68468
 11
1.35895
 21
-2.78626
  0
LINE
  8
0
 10
1.35895
 20
-2.78626
 11
1.16128
 21
-2.87427
  0
LINE
  8
0
 10
1.16128
 20
-2.87427
 11
0.957952
 21
-2.94827
  0
LINE
  8
0
 10
0.957952
 20
-2.94827
 11
0.749957
 21
-3.00792
  0
LINE
  8
0
 10
0.749957
 20
-3.00792
 11
0.538309
 21
-3.0529
  0
LINE
  8
0
 10
0.538309
 20
-3.0529
 11
0.324038
 21
-3.08302
  0
LINE
  8
0
 10
0.324038
 20
-3.08302
 11
0.108188
 21
-3.09811
  0
LINE
  8
0
 10
0.108188
 20
-3.09811
 11
-0.108188
 21
-3.09811
  0
LINE
  8
0
 10
-0.108188
 20
-3.09811
 11
-0.324038
 21
-3.08302
  0
LINE
  8
0
 10
-0.324038
 20
-3.08302
 11
-0.538309
 21
-3.0529
  0
LINE
  8
0
 10
-0.538309
 20
-3.0529
 11
-0.749957
 21
-3.00792
  0
LINE
  8
0
 10
-0.749957
 20
-3.00792
 11
-0.957952
 21
-2.94827
  0
LINE
  8
0
 10
-0.957952
 20
-2.94827
 11
-1.16128
 21
-2.87427
  0
LINE
  8
0
 10
-1.16128
 20
-2.87427
 11
-1.35895
 21
-2.78626
  0
LINE
  8
0
 10
-1.35895
 20
-2.78626
 11
-1.55
 21
-2.68468
  0
LINE
  8
0
 10
-1.55
 20
-2.68468
 11
-1.7335
 21
-2.57002
  0
LINE
  8
0
 10
-1.7335
 20
-2.57002
 11
-1.90855
 21
-2.44283
  0
LINE
  8
0
 10
-1.90855
 20
-2.44283
 11
-2.0743
 21
-2.30375
  0
LINE
  8
0
 10
-2.0743
 20
-2.30375
 11
-2.22995
 21
-2.15344
  0
LINE
  8
0
 10
-2.22995
 20
-2.15344
 11
-2.37474
 21
-1.99264
  0
LINE
  8
0
 10
-2.37474
 20
-1.99264
 11
-2.50795
 21
-1.82213
  0
LINE
  8
0
 10
-2.50795
 20
-1.82213
 11
-2.62895
 21
-1.64275
  0
LINE
  8
0
 10
-2.62895
 20
-1.64275
 11
-2.73714
 21
-1.45536
  0
LINE
  8
0
 10
-2.73714
 20
-1.45536
 11
-2.83199
 21
-1.26088
  0
LINE
  8
0
 10
-2.83199
 20
-1.26088
 11
-2.91305
 21
-1.06026
  0
LINE
  8
0
 10
-2.91305
 20
-1.06026
 11
-2.97991
 21
-0.854475
  0
LINE
  8
0
 10
-2.97991
 20
-0.854475
 11
-3.03226
 21
-0.644526
  0
LINE
  8
0
 10
-3.03226
 20
-0.644526
 11
-3.06983
 21
-0.431437
  0
LINE
  8
0
 10
-3.06983
 20
-0.431437
 11
-3.09245
 21
-0.216245
  0
LINE
  8
0
 10
-3.09245
 20
-0.216245
 11
-3.1
 21
0
  0
LINE
  8
0
 10
-1.95
 20
-22
 11
-1.94525
 21
-21.864
  0
LINE
  8
0
 10
-1.94525
 20
-21.864
 11
-1.93102
 21
-21.7286
  0
LINE
  8
0
 10
-1.93102
 20
-21.7286
 11
-1.90739
 21
-21.5946
  0
LINE
  8
0
 10
-1.90739
 20
-21.5946
 11
-1.87446
 21
-21.4625
  0
LINE
  8
0
 10
-1.87446
 20
-21.4625
 11
-1.8324
 21
-21.3331
  0
LINE
  8
0
 10
-1.8324
 20
-21.3331
 11
-1.78141
 21
-21.2069
  0
LINE
  8
0
 10
-1.78141
 20
-21.2069
 11
-1.72175
 21
-21.0845
  0
LINE
  8
0
 10
-1.72175
 20
-21.0845
 11
-1.65369
 21
-20.9667
  0
LINE
  8
0
 10
-1.65369
 20
-20.9667
 11
-1.57758
 21
-20.8538
  0
LINE
  8
0
 10
-1.57758
 20
-20.8538
 11
-1.49379
 21
-20.7466
  0
LINE
  8
0
 10
-1.49379
 20
-20.7466
 11
-1.40271
 21
-20.6454
  0
LINE
  8
0
 10
-1.40271
 20
-20.6454
 11
-1.3048
 21
-20.5509
  0
LINE
  8
0
 10
-1.3048
 20
-20.5509
 11
-1.20054
 21
-20.4634
  0
LINE
  8
0
 10
-1.20054
 20
-20.4634
 11
-1.09043
 21
-20.3834
  0
LINE
  8
0
 10
-1.09043
 20
-20.3834
 11
-0.974999
 21
-20.3112
  0
LINE
  8
0
 10
-0.974999
 20
-20.3112
 11
-0.854823
 21
-20.2474
  0
LINE
  8
0
 10
-0.854823
 20
-20.2474
 11
-0.730482
 21
-20.192
  0
LINE
  8
0
 10
-0.730482
 20
-20.192
 11
-0.602583
 21
-20.1454
  0
LINE
  8
0
 10
-0.602583
 20
-20.1454
 11
-0.471747
 21
-20.1079
  0
LINE
  8
0
 10
-0.471747
 20
-20.1079
 11
-0.338614
 21
-20.0796
  0
LINE
  8
0
 10
-0.338614
 20
-20.0796
 11
-0.20383
 21
-20.0607
  0
LINE
  8
0
 10
-0.20383
 20
-20.0607
 11
-0.0680532
 21
-20.0512
  0
LINE
  8
0
 10
-0.0680532
 20
-20.0512
 11
0.0680532
 21
-20.0512
  0
LINE
  8
0
 10
0.0680532
 20
-20.0512
 11
0.20383
 21
-20.0607
  0
LINE
  8
0
 10
0.20383
 20
-20.0607
 11
0.338614
 21
-20.0796
  0
LINE
  8
0
 10
0.338614
 20
-20.0796
 11
0.471747
 21
-20.1079
  0
LINE
  8
0
 10
0.471747
 20
-20.1079
 11
0.602583
 21
-20.1454
  0
LINE
  8
0
 10
0.602583
 20
-20.1454
 11
0.730482
 21
-20.192
  0
LINE
  8
0
 10
0.730482
 20
-20.192
 11
0.854823
 21
-20.2474
  0
LINE
  8
0
 10
0.854823
 20
-20.2474
 11
0.974999
 21
-20.3112
  0
LINE
  8
0
 10
0.974999
 20
-20.3112
 11
1.09043
 21
-20.3834
  0
LINE
  8
0
 10
1.09043
 20
-20.3834
 11
1.20054
 21
-20.4634
  0
LINE
  8
0
 10
1.20054
 20
-20.4634
 11
1.3048
 21
-20.5509
  0
LINE
  8
0
 10
1.3048
 20
-20.5509
 11
1.40271
 21
-20.6454
  0
LINE
  8
0
 10
1.40271
 20
-20.6454
 11
1.49379
 21
-20.7466
  0
LINE
  8
0
 10
1.49379
 20
-20.7466
 11
1.57758
 21
-20.8538
  0
LINE
  8
0
 10
1.57758
 20
-20.8538
 11
1.65369
 21
-20.9667
  0
LINE
  8
0
 10
1.65369
 20
-20.9667
 11
1.72175
 21
-21.0845
  0
LINE
  8
0
 10
1.72175
 20
-21.0845
 11
1.78141
 21
-21.2069
  0
LINE
  8
0
 10
1.78141
 20
-21.2069
 11
1.8324
 21
-21.3331
  0
LINE
  8
0
 10
1.8324
 20
-21.3331
 11
1.87446
 21
-21.4625
  0
LINE
  8
0
 10
1.87446
 20
-21.4625
 11
1.90739
 21
-21.5946
  0
LINE
  8
0
 10
1.90739
 20
-21.5946
 11
1.93102
 21
-21.7286
  0
LINE
  8
0
 10
1.93102
 20
-21.7286
 11
1.94525
 21
-21.864
  0
LINE
  8
0
 10
1.94525
 20
-21.864
 11
1.95
 21
-22
  0
LINE
  8
0
 10
1.95
 20
-22
 11
1.94525
 21
-22.136
  0
LINE
  8
0
 10
1.94525
 20
-22.136
 11
1.93102
 21
-22.2714
  0
LINE
  8
0
 10
1.93102
 20
-22.2714
 11
1.90739
 21
-22.4054
  0
LINE
  8
0
 10
1.90739
 20
-22.4054
 11
1.87446
 21
-22.5375
  0
LINE
  8
0
 10
1.87446
 20
-22.5375
 11
1.8324
 21
-22.6669
  0
LINE
  8
0
 10
1.8324
 20
-22.6669
 11
1.78141
 21
-22.7931
  0
LINE
  8
0
 10
1.78141
 20
-22.7931
 11
1.72175
 21
-22.9155
  0
LINE
  8
0
 10
1.72175
 20
-22.9155
 11
1.65369
 21
-23.0333
  0
LINE
  8
0
 10
1.65369
 20
-23.0333
 11
1.57758
 21
-23.1462
  0
LINE
  8
0
 10
1.57758
 20
-23.1462
 11
1.49379
 21
-23.2534
  0
LINE
  8
0
 10
1.49379
 20
-23.2534
 11
1.40271
 21
-23.3546
  0
LINE
  8
0
 10
1.40271
 20
-23.3546
 11
1.3048
 21
-23.4491
  0
LINE
  8
0
 10
1.3048
 20
-23.4491
 11
1.20054
 21
-23.5366
  0
LINE
  8
0
 10
1.20054
 20
-23.5366
 11
1.09043
 21
-23.6166
  0
LINE
  8
0
 10
1.09043
 20
-23.6166
 11
0.974999
 21
-23.6887
  0
LINE
  8
0
 10
0.974999
 20
-23.6887
 11
0.854823
 21
-23.7526
  0
LINE
  8
0
 10
0.854823
 20
-23.7526
 11
0.730482
 21
-23.808
  0
LINE
  8
0
 10
0.730482
 20
-23.808
 11
0.602583
 21
-23.8546
  0
LINE
  8
0
 10
0.602583
 20
-23.8546
 11
0.471747
 21
-23.8921
  0
LINE
  8
0
 10
0.471747
 20
-23.8921
 11
0.338614
 21
-23.9204
  0
LINE
  8
0
 10
0.338614
 20
-23.9204
 11
0.20383
 21
-23.9393
  0
LINE
  8
0
 10
0.20383
 20
-23.9393
 11
0.0680532
 21
-23.9488
  0
LINE
  8
0
 10
0.0680532
 20
-23.9488
 11
-0.0680532
 21
-23.9488
  0
LINE
  8
0
 10
-0.0680532
 20
-23.9488
 11
-0.20383
 21
-23.9393
  0
LINE
  8
0
 10
-0.20383
 20
-23.9393
 11
-0.338614
 21
-23.9204
  0
LINE
  8
0
 10
-0.338614
 20
-23.9204
 11
-0.471747
 21
-23.8921
  0
LINE
  8
0
 10
-0.471747
 20
-23.8921
 11
-0.602583
 21
-23.8546
  0
LINE
  8
0
 10
-0.602583
 20
-23.8546
 11
-0.730482
 21
-23.808
  0
LINE
  8
0
 10
-0.730482
 20
-23.808
 11
-0.854823
 21
-23.7526
  0
LINE
  8
0
 10
-0.854823
 20
-23.7526
 11
-0.974999
 21
-23.6887
  0
LINE
  8
0
 10
-0.974999
 20
-23.6887
 11
-1.09043
 21
-23.6166
  0
LINE
  8
0
 10
-1.09043
 20
-23.6166
 11
-1.20054
 21
-23.5366
  0
LINE
  8
0
 10
-1.20054
 20
-23.5366
 11
-1.3048
 21
-23.4491
  0
LINE
  8
0
 10
-1.3048
 20
-23.4491
 11
-1.40271
 21
-23.3546
  0
LINE
  8
0
 10
-1.40271
 20
-23.3546
 11
-1.49379
 21
-23.2534
  0
LINE
  8
0
 10
-1.49379
 20
-23.2534
 11
-1.57758
 21
-23.1462
  0
LINE
  8
0
 10
-1.57758
 20
-23.1462
 11
-1.65369
 21
-23.0333
  0
LINE
  8
0
 10
-1.65369
 20
-23.0333
 11
-1.72175
 21
-22.9155
  0
LINE
  8
0
 10
-1.72175
 20
-22.9155
 11
-1.78141
 21
-22.7931
  0
LINE
  8
0
 10
-1.78141
 20
-22.7931
 11
-1.8324
 21
-22.6669
  0
LINE
  8
0
 10
-1.8324
 20
-22.6669
 11
-1.87446
 21
-22.5375
  0
LINE
  8
0
 10
-1.87446
 20
-22.5375
 11
-1.90739
 21
-22.4054
  0
LINE
  8
0
 10
-1.90739
 20
-22.4054
 11
-1.93102
 21
-22.2714
  0
LINE
  8
0
 10
-1.93102
 20
-22.2714
 11
-1.94525
 21
-22.136
  0
LINE
  8
0
 10
-1.94525
 20
-22.136
 11
-1.95
 21
-22
  0
LINE
  8
0
 10
-1.95
 20
22
 11
-1.94525
 21
22.136
  0
LINE
  8
0
 10
-1.94525
 20
22.136
 11
-1.93102
 21
22.2714
  0
LINE
  8
0
 10
-1.93102
 20
22.2714
 11
-1.90739
 21
22.4054
  0
LINE
  8
0
 10
-1.90739
 20
22.4054
 11
-1.87446
 21
22.5375
  0
LINE
  8
0
 10
-1.87446
 20
22.5375
 11
-1.8324
 21
22.6669
  0
LINE
  8
0
 10
-1.8324
 20
22.6669
 11
-1.78141
 21
22.7931
  0
LINE
  8
0
 10
-1.78141
 20
22.7931
 11
-1.72175
 21
22.9155
  0
LINE
  8
0
 10
-1.72175
 20
22.9155
 11
-1.65369
 21
23.0333
  0
LINE
  8
0
 10
-1.65369
 20
23.0333
 11
-1.57758
 21
23.1462
  0
LINE
  8
0
 10
-1.57758
 20
23.1462
 11
-1.49379
 21
23.2534
  0
LINE
  8
0
 10
-1.49379
 20
23.2534
 11
-1.40271
 21
23.3546
  0
LINE
  8
0
 10
-1.40271
 20
23.3546
 11
-1.3048
 21
23.4491
  0
LINE
  8
0
 10
-1.3048
 20
23.4491
 11
-1.20054
 21
23.5366
  0
LINE
  8
0
 10
-1.20054
 20
23.5366
 11
-1.09043
 21
23.6166
  0
LINE
  8
0
 10
-1.09043
 20
23.6166
 11
-0.974999
 21
23.6887
  0
LINE
  8
0
 10
-0.974999
 20
23.6887
 11
-0.854823
 21
23.7526
  0
LINE
  8
0
 10
-0.854823
 20
23.7526
 11
-0.730482
 21
23.808
  0
LINE
  8
0
 10
-0.730482
 20
23.808
 11
-0.602583
 21
23.8546
  0
LINE
  8
0
 10
-0.602583
 20
23.8546
 11
-0.471747
 21
23.8921
  0
LINE
  8
0
 10
-0.471747
 20
23.8921
 11
-0.338614
 21
23.9204
  0
LINE
  8
0
 10
-0.338614
 20
23.9204
 11
-0.20383
 21
23.9393
  0
LINE
  8
0
 10
-0.20383
 20
23.9393
 11
-0.0680532
 21
23.9488
  0
LINE
  8
0
 10
-0.0680532
 20
23.9488
 11
0.0680532
 21
23.9488
  0
LINE
  8
0
 10
0.0680532
 20
23.9488
 11
0.20383
 21
23.9393
  0
LINE
  8
0
 10
0.20383
 20
23.9393
 11
0.338614
 21
23.9204
  0
LINE
  8
0
 10
0.338614
 20
23.9204
 11
0.471747
 21
23.8921
  0
LINE
  8
0
 10
0.471747
 20
23.8921
 11
0.602583
 21
23.8546
  0
LINE
  8
0
 10
0.602583
 20
23.8546
 11
0.730482
 21
23.808
  0
LINE
  8
0
 10
0.730482
 20
23.808
 11
0.854823
 21
23.7526
  0
LINE
  8
0
 10
0.854823
 20
23.7526
 11
0.974999
 21
23.6887
  0
LINE
  8
0
 10
0.974999
 20
23.6887
 11
1.09043
 21
23.6166
  0
LINE
  8
0
 10
1.09043
 20
23.6166
 11
1.20054
 21
23.5366
  0
LINE
  8
0
 10
1.20054
 20
23.5366
 11
1.3048
 21
23.4491
  0
LINE
  8
0
 10
1.3048
 20
23.4491
 11
1.40271
 21
23.3546
  0
LINE
  8
0
 10
1.40271
 20
23.3546
 11
1.49379
 21
23.2534
  0
LINE
  8
0
 10
1.49379
 20
23.2534
 11
1.57758
 21
23.1462
  0
LINE
  8
0
 10
1.57758
 20
23.1462
 11
1.65369
 21
23.0333
  0
LINE
  8
0
 10
1.65369
 20
23.0333
 11
1.72175
 21
22.9155
  0
LINE
  8
0
 10
1.72175
 20
22.9155
 11
1.78141
 21
22.7931
  0
LINE
  8
0
 10
1.78141
 20
22.7931
 11
1.8324
 21
22.6669
  0
LINE
  8
0
 10
1.8324
 20
22.6669
 11
1.87446
 21
22.5375
  0
LINE
  8
0
 10
1.87446
 20
22.5375
 11
1.90739
 21
22.4054
  0
LINE
  8
0
 10
1.90739
 20
22.4054
 11
1.93102
 21
22.2714
  0
LINE
  8
0
 10
1.93102
 20
22.2714
 11
1.94525
 21
22.136
  0
LINE
  8
0
 10
1.94525
 20
22.136
 11
1.95
 21
22
  0
LINE
  8
0
 10
1.95
 20
22
 11
1.94525
 21
21.864
  0
LINE
  8
0
 10
1.94525
 20
21.864
 11
1.93102
 21
21.7286
  0
LINE
  8
0
 10
1.93102
 20
21.7286
 11
1.90739
 21
21.5946
  0
LINE
  8
0
 10
1.90739
 20
21.5946
 11
1.87446
 21
21.4625
  0
LINE
  8
0
 10
1.87446
 20
21.4625
 11
1.8324
 21
21.3331
  0
LINE
  8
0
 10
1.8324
 20
21.3331
 11
1.78141
 21
21.2069
  0
LINE
  8
0
 10
1.78141
 20
21.2069
 11
1.72175
 21
21.0845
  0
LINE
  8
0
 10
1.72175
 20
21.0845
 11
1.65369
 21
20.9667
  0
LINE
  8
0
 10
1.65369
 20
20.9667
 11
1.57758
 21
20.8538
  0
LINE
  8
0
 10
1.57758
 20
20.8538
 11
1.49379
 21
20.7466
  0
LINE
  8
0
 10
1.49379
 20
20.7466
 11
1.40271
 21
20.6454
  0
LINE
  8
0
 10
1.40271
 20
20.6454
 11
1.3048
 21
20.5509
  0
LINE
  8
0
 10
1.3048
 20
20.5509
 11
1.20054
 21
20.4634
  0
LINE
  8
0
 10
1.20054
 20
20.4634
 11
1.09043
 21
20.3834
  0
LINE
  8
0
 10
1.09043
 20
20.3834
 11
0.974999
 21
20.3112
  0
LINE
  8
0
 10
0.974999
 20
20.3112
 11
0.854823
 21
20.2474
  0
LINE
  8
0
 10
0.854823
 20
20.2474
 11
0.730482
 21
20.192
  0
LINE
  8
0
 10
0.730482
 20
20.192
 11
0.602583
 21
20.1454
  0
LINE
  8
0
 10
0.602583
 20
20.1454
 11
0.471747
 21
20.1079
  0
LINE
  8
0
 10
0.471747
 20
20.1079
 11
0.338614
 21
20.0796
  0
LINE
  8
0
 10
0.338614
 20
20.0796
 11
0.20383
 21
20.0607
  0
LINE
  8
0
 10
0.20383
 20
20.0607
 11
0.0680532
 21
20.0512
  0
LINE
  8
0
 10
0.0680532
 20
20.0512
 11
-0.0680532
 21
20.0512
  0
LINE
  8
0
 10
-0.0680532
 20
20.0512
 11
-0.20383
 21
20.0607
  0
LINE
  8
0
 10
-0.20383
 20
20.0607
 11
-0.338614
 21
20.0796
  0
LINE
  8
0
 10
-0.338614
 20
20.0796
 11
-0.471747
 21
20.1079
  0
LINE
  8
0
 10
-0.471747
 20
20.1079
 11
-0.602583
 21
20.1454
  0
LINE
  8
0
 10
-0.602583
 20
20.1454
 11
-0.730482
 21
20.192
  0
LINE
  8
0
 10
-0.730482
 20
20.192
 11
-0.854823
 21
20.2474
  0
LINE
  8
0
 10
-0.854823
 20
20.2474
 11
-0.974999
 21
20.3112
  0
LINE
  8
0
 10
-0.974999
 20
20.3112
 11
-1.09043
 21
20.3834
  0
LINE
  8
0
 10
-1.09043
 20
20.3834
 11
-1.20054
 21
20.4634
  0
LINE
  8
0
 10
-1.20054
 20
20.4634
 11
-1.3048
 21
20.5509
  0
LINE
  8
0
 10
-1.3048
 20
20.5509
 11
-1.40271
 21
20.6454
  0
LINE
  8
0
 10
-1.40271
 20
20.6454
 11
-1.49379
 21
20.7466
  0
LINE
  8
0
 10
-1.49379
 20
20.7466
 11
-1.57758
 21
20.8538
  0
LINE
  8
0
 10
-1.57758
 20
20.8538
 11
-1.65369
 21
20.9667
  0
LINE
  8
0
 10
-1.65369
 20
20.9667
 11
-1.72175
 21
21.0845
  0
LINE
  8
0
 10
-1.72175
 20
21.0845
 11
-1.78141
 21
21.2069
  0
LINE
  8
0
 10
-1.78141
 20
21.2069
 11
-1.8324
 21
21.3331
  0
LINE
  8
0
 10
-1.8324
 20
21.3331
 11
-1.87446
 21
21.4625
  0
LINE
  8
0
 10
-1.87446
 20
21.4625
 11
-1.90739
 21
21.5946
  0
LINE
  8
0
 10
-1.90739
 20
21.5946
 11
-1.93102
 21
21.7286
  0
LINE
  8
0
 10
-1.93102
 20
21.7286
 11
-1.94525
 21
21.864
  0
LINE
  8
0
 10
-1.94525
 20
21.864
 11
-1.95
 21
22
  0
ENDSEC
  0
SECTION
  2
OBJECTS
  0
DICTIONARY
  0
ENDSEC
  0
EOF
