<?xml version="1.0" standalone="no"?>
<!DOCTYPE svg PUBLIC "-//W3C//DTD SVG 1.1//EN" "http://www.w3.org/Graphics/SVG/1.1/DTD/svg11.dtd">
<svg width="146" height="144" viewBox="-73 -61 146 144" xmlns="http://www.w3.org/2000/svg" version="1.1">
<title>OpenSCAD Model</title>
<path d="
M 63.0495,82.4856 L 63.5975,82.4425 L 64.1426,82.3707 L 64.6831,82.2706 L 65.2176,82.1422 L 65.7447,81.9861
 L 66.2629,81.8026 L 66.7707,81.5922 L 67.2669,81.3556 L 67.75,81.0933 L 68.2187,80.806 L 68.6717,80.4947
 L 69.1079,80.16 L 69.5259,79.803 L 69.9246,79.4246 L 70.303,79.0259 L 70.66,78.6079 L 70.9947,78.1717
 L 71.306,77.7187 L 71.5933,77.25 L 71.8556,76.7669 L 72.0922,76.2707 L 72.3026,75.7629 L 72.4861,75.2447
 L 72.6422,74.7176 L 72.7706,74.1831 L 72.8707,73.6426 L 72.9425,73.0975 L 72.9856,72.5495 L 73,72
 L 72.9856,71.4505 L 72.9425,70.9025 L 72.8707,70.3574 L 72.7706,69.8169 L 72.6422,69.2824 L 72.4861,68.7553
 L 72.3026,68.2371 L 72.0922,67.7293 L 71.8556,67.2331 L 71.5933,66.75 L 71.306,66.2813 L 70.9947,65.8282
 L 70.66,65.3921 L 70.303,64.9741 L 69.9246,64.5754 L 69.5259,64.197 L 69.1079,63.84 L 68.6717,63.5053
 L 68.2187,63.194 L 67.75,62.9067 L 67.2669,62.6444 L 66.7707,62.4078 L 66.2629,62.1974 L 65.7447,62.0139
 L 65.2176,61.8578 L 64.6831,61.7294 L 64.1426,61.6293 L 54.4261,60.1855 L 46.8732,51.166 L 46.7,50.9632
 L 46.7,1.0495 L 67.0837,-50.3698 L 67.2096,-50.7251 L 67.3166,-51.0865 L 67.4046,-51.453 L 67.4733,-51.8237
 L 67.5225,-52.1974 L 67.5521,-52.5732 L 67.562,-52.95 L 67.5521,-53.3268 L 67.5225,-53.7026 L 67.4733,-54.0763
 L 67.4046,-54.447 L 67.3166,-54.8135 L 67.2096,-55.1749 L 67.0837,-55.5302 L 66.9395,-55.8785 L 66.7772,-56.2187
 L 66.5974,-56.55 L 66.4004,-56.8714 L 66.1869,-57.1821 L 65.9574,-57.4811 L 65.7126,-57.7677 L 65.4531,-58.0412
 L 65.1797,-58.3006 L 64.8931,-58.5454 L 64.594,-58.7749 L 64.2834,-58.9884 L 63.962,-59.1854 L 63.6307,-59.3652
 L 63.2905,-59.5275 L 62.9422,-59.6718 L 62.5869,-59.7976 L 62.2255,-59.9047 L 61.8589,-59.9927 L 61.4883,-60.0614
 L 61.1146,-60.1105 L 60.7388,-60.1401 L 60.362,-60.15 L 59.9852,-60.1401 L 59.6094,-60.1105 L 59.2356,-60.0614
 L 58.865,-59.9927 L 58.4985,-59.9047 L 58.137,-59.7976 L 57.7817,-59.6718 L 57.4335,-59.5275 L 57.0932,-59.3652
 L 56.762,-59.1854 L 56.4406,-58.9884 L 56.1299,-58.7749 L 55.8309,-58.5454 L 55.5442,-58.3006 L 55.2708,-58.0412
 L 55.0113,-57.7677 L 54.7665,-57.4811 L 42.6102,-42.0833 L 41.8207,-41.3534 L 40.5905,-40.2746 L 39.3325,-39.2284
 L 38.0476,-38.2154 L 36.7366,-37.2364 L 35.4004,-36.2921 L 34.0399,-35.3831 L 32.6562,-34.51 L 31.25,-33.6734
 L 29.8224,-32.8739 L 28.3744,-32.1121 L 26.9069,-31.3884 L 25.421,-30.7034 L 23.9177,-30.0575 L 22.398,-29.4512
 L 20.8629,-28.8849 L 19.3136,-28.359 L 17.7509,-27.8738 L 16.1762,-27.4296 L 14.5903,-27.0269 L 12.9945,-26.6658
 L 11.3897,-26.3466 L 9.77715,-26.0695 L 8.15788,-25.8347 L 8.04958,-25.8219 L 7.98885,-25.8434 L 7.82822,-25.891
 L 7.66531,-25.9301 L 7.50058,-25.9606 L 7.33449,-25.9825 L 7.16747,-25.9956 L 7,-26 L -6.99998,-26
 L -7.16747,-25.9956 L -7.33449,-25.9825 L -7.50058,-25.9606 L -7.66531,-25.9301 L -7.82822,-25.891 L -7.98885,-25.8434
 L -8.04958,-25.8219 L -8.15788,-25.8347 L -9.77715,-26.0695 L -11.3897,-26.3466 L -12.9945,-26.6658 L -14.5903,-27.0269
 L -16.1762,-27.4296 L -17.7509,-27.8738 L -19.3136,-28.359 L -20.8629,-28.8849 L -22.398,-29.4512 L -23.9177,-30.0575
 L -25.421,-30.7034 L -26.9069,-31.3884 L -28.3744,-32.1121 L -29.8224,-32.8739 L -31.25,-33.6734 L -32.6562,-34.51
 L -34.0399,-35.3831 L -35.4004,-36.2921 L -36.7366,-37.2364 L -38.0476,-38.2154 L -39.3325,-39.2284 L -40.5905,-40.2746
 L -41.8207,-41.3534 L -42.6102,-42.0833 L -54.7665,-57.4811 L -55.0113,-57.7677 L -55.2708,-58.0412 L -55.5442,-58.3006
 L -55.8309,-58.5454 L -56.1299,-58.7749 L -56.4406,-58.9884 L -56.762,-59.1854 L -57.0932,-59.3652 L -57.4335,-59.5275
 L -57.7817,-59.6718 L -58.137,-59.7976 L -58.4985,-59.9047 L -58.865,-59.9927 L -59.2356,-60.0614 L -59.6094,-60.1105
 L -59.9852,-60.1401 L -60.362,-60.15 L -60.7388,-60.1401 L -61.1146,-60.1105 L -61.4883,-60.0614 L -61.8589,-59.9927
 L -62.2255,-59.9047 L -62.5869,-59.7976 L -62.9422,-59.6718 L -63.2905,-59.5275 L -63.6307,-59.3652 L -63.962,-59.1854
 L -64.2834,-58.9884 L -64.594,-58.7749 L -64.8931,-58.5454 L -65.1797,-58.3006 L -65.4531,-58.0412 L -65.7126,-57.7677
 L -65.9574,-57.4811 L -66.1869,-57.1821 L -66.4004,-56.8714 L -66.5974,-56.55 L -66.7772,-56.2187 L -66.9395,-55.8785
 L -67.0837,-55.5302 L -67.2096,-55.1749 L -67.3166,-54.8135 L -67.4046,-54.447 L -67.4733,-54.0763 L -67.5225,-53.7026
 L -67.5521,-53.3268 L -67.562,-52.95 L -67.5521,-52.5732 L -67.5225,-52.1974 L -67.4733,-51.8237 L -67.4046,-51.453
 L -67.3166,-51.0865 L -67.2096,-50.7251 L -67.0837,-50.3698 L -46.7,1.0495 L -46.7,50.9632 L -46.8732,51.166
 L -54.4261,60.1855 L -64.1426,61.6293 L -64.6831,61.7294 L -65.2176,61.8578 L -65.7447,62.0139 L -66.2629,62.1974
 L -66.7707,62.4078 L -67.2669,62.6444 L -67.75,62.9067 L -68.2187,63.194 L -68.6717,63.5053 L -69.1079,63.84
 L -69.5259,64.197 L -69.9246,64.5754 L -70.303,64.9741 L -70.66,65.3921 L -70.9947,65.8282 L -71.306,66.2813
 L -71.5933,66.75 L -71.8556,67.2331 L -72.0922,67.7293 L -72.3026,68.2371 L -72.4861,68.7553 L -72.6422,69.2824
 L -72.7706,69.8169 L -72.8707,70.3574 L -72.9425,70.9025 L -72.9856,71.4505 L -73,72 L -72.9856,72.5495
 L -72.9425,73.0975 L -72.8707,73.6426 L -72.7706,74.1831 L -72.6422,74.7176 L -72.4861,75.2447 L -72.3026,75.7629
 L -72.0922,76.2707 L -71.8556,76.7669 L -71.5933,77.25 L -71.306,77.7187 L -70.9947,78.1717 L -70.66,78.6079
 L -70.303,79.0259 L -69.9246,79.4246 L -69.5259,79.803 L -69.1079,80.16 L -68.6717,80.4947 L -68.2187,80.806
 L -67.75,81.0933 L -67.2669,81.3556 L -66.7707,81.5922 L -66.2629,81.8026 L -65.7447,81.9861 L -65.2176,82.1422
 L -64.6831,82.2706 L -64.1426,82.3707 L -63.5975,82.4425 L -63.0495,82.4856 L -62.5,82.5 L 62.5,82.5
 z
M -3.5,-9.75 L -3.5,-20.25 L 3.5,-20.25 L 3.5,-9.75 z
M -18.2146,4.09438 L -18.4286,4.07753 L -18.6414,4.04951 L -18.8524,4.01039 L -19.0612,3.96028 L -19.267,3.89932
 L -19.4693,3.82767 L -19.6676,3.74553 L -19.8614,3.65312 L -20.05,3.55069 L -20.233,3.43854 L -20.4099,3.31696
 L -20.5802,3.18629 L -20.7434,3.04689 L -20.8991,2.89912 L -21.0469,2.74342 L -21.1863,2.5802 L -21.317,2.40991
 L -21.4385,2.23302 L -21.5507,2.04999 L -21.6531,1.86136 L -21.7455,1.66762 L -21.8277,1.4693 L -21.8993,1.26697
 L -21.9603,1.06116 L -22.0104,0.852432 L -22.0495,0.641373 L -22.0775,0.428558 L -22.0944,0.214569 L -22.1,-0
 L -22.0944,-0.214569 L -22.0775,-0.428558 L -22.0495,-0.641373 L -22.0104,-0.852432 L -21.9603,-1.06116 L -21.8993,-1.26697
 L -21.8277,-1.4693 L -21.7455,-1.66762 L -21.6531,-1.86136 L -21.5507,-2.04999 L -21.4385,-2.23302 L -21.317,-2.40991
 L -21.1863,-2.5802 L -21.0469,-2.74342 L -20.8991,-2.89912 L -20.7434,-3.04689 L -20.5802,-3.18629 L -20.4099,-3.31696
 L -20.233,-3.43854 L -20.05,-3.55069 L -19.8614,-3.65312 L -19.6676,-3.74553 L -19.4693,-3.82767 L -19.267,-3.89932
 L -19.0612,-3.96028 L -18.8524,-4.01039 L -18.6414,-4.04951 L -18.4286,-4.07753 L -18.2146,-4.09438 L -18,-4.09999
 L -17.7854,-4.09438 L -17.5714,-4.07753 L -17.3586,-4.04951 L -17.1476,-4.01039 L -16.9388,-3.96028 L -16.733,-3.89932
 L -16.5307,-3.82767 L -16.3324,-3.74553 L -16.1386,-3.65312 L -15.95,-3.55069 L -15.767,-3.43854 L -15.5901,-3.31696
 L -15.4198,-3.18629 L -15.2566,-3.04689 L -15.1009,-2.89912 L -14.9531,-2.74342 L -14.8137,-2.5802 L -14.683,-2.40991
 L -14.5614,-2.23302 L -14.4493,-2.04999 L -14.3469,-1.86136 L -14.2545,-1.66762 L -14.1723,-1.4693 L -14.1007,-1.26697
 L -14.0397,-1.06116 L -13.9896,-0.852432 L -13.9505,-0.641373 L -13.9225,-0.428558 L -13.9056,-0.214569 L -13.9,-0
 L -13.9056,0.214569 L -13.9225,0.428558 L -13.9505,0.641373 L -13.9896,0.852432 L -14.0397,1.06116 L -14.1007,1.26697
 L -14.1723,1.4693 L -14.2545,1.66762 L -14.3469,1.86136 L -14.4493,2.04999 L -14.5614,2.23302 L -14.683,2.40991
 L -14.8137,2.5802 L -14.9531,2.74342 L -15.1009,2.89912 L -15.2566,3.04689 L -15.4198,3.18629 L -15.5901,3.31696
 L -15.767,3.43854 L -15.95,3.55069 L -16.1386,3.65312 L -16.3324,3.74553 L -16.5307,3.82767 L -16.733,3.89932
 L -16.9388,3.96028 L -17.1476,4.01039 L -17.3586,4.04951 L -17.5714,4.07753 L -17.7854,4.09438 L -18,4.09999
 z
M 17.7854,4.09438 L 17.5714,4.07753 L 17.3586,4.04951 L 17.1476,4.01039 L 16.9388,3.96028 L 16.733,3.89932
 L 16.5307,3.82767 L 16.3324,3.74553 L 16.1386,3.65312 L 15.95,3.55069 L 15.767,3.43854 L 15.5901,3.31696
 L 15.4198,3.18629 L 15.2566,3.04689 L 15.1009,2.89912 L 14.9531,2.74342 L 14.8137,2.5802 L 14.683,2.40991
 L 14.5614,2.23302 L 14.4493,2.04999 L 14.3469,1.86136 L 14.2545,1.66762 L 14.1723,1.4693 L 14.1007,1.26697
 L 14.0397,1.06116 L 13.9896,0.852432 L 13.9505,0.641373 L 13.9225,0.428558 L 13.9056,0.214569 L 13.9,-0
 L 13.9056,-0.214569 L 13.9225,-0.428558 L 13.9505,-0.641373 L 13.9896,-0.852432 L 14.0397,-1.06116 L 14.1007,-1.26697
 L 14.1723,-1.4693 L 14.2545,-1.66762 L 14.3469,-1.86136 L 14.4493,-2.04999 L 14.5614,-2.23302 L 14.683,-2.40991
 L 14.8137,-2.5802 L 14.9531,-2.74342 L 15.1009,-2.89912 L 15.2566,-3.04689 L 15.4198,-3.18629 L 15.5901,-3.31696
 L 15.767,-3.43854 L 15.95,-3.55069 L 16.1386,-3.65312 L 16.3324,-3.74553 L 16.5307,-3.82767 L 16.733,-3.89932
 L 16.9388,-3.96028 L 17.1476,-4.01039 L 17.3586,-4.04951 L 17.5714,-4.07753 L 17.7854,-4.09438 L 18,-4.09999
 L 18.2146,-4.09438 L 18.4286,-4.07753 L 18.6414,-4.04951 L 18.8524,-4.01039 L 19.0612,-3.96028 L 19.267,-3.89932
 L 19.4693,-3.82767 L 19.6676,-3.74553 L 19.8614,-3.65312 L 20.05,-3.55069 L 20.233,-3.43854 L 20.4099,-3.31696
 L 20.5802,-3.18629 L 20.7434,-3.04689 L 20.8991,-2.89912 L 21.0469,-2.74342 L 21.1863,-2.5802 L 21.317,-2.40991
 L 21.4385,-2.23302 L 21.5507,-2.04999 L 21.6531,-1.86136 L 21.7455,-1.66762 L 21.8277,-1.4693 L 21.8993,-1.26697
 L 21.9603,-1.06116 L 22.0104,-0.852432 L 22.0495,-0.641373 L 22.0775,-0.428558 L 22.0944,-0.214569 L 22.1,-0
 L 22.0944,0.214569 L 22.0775,0.428558 L 22.0495,0.641373 L 22.0104,0.852432 L 21.9603,1.06116 L 21.8993,1.26697
 L 21.8277,1.4693 L 21.7455,1.66762 L 21.6531,1.86136 L 21.5507,2.04999 L 21.4385,2.23302 L 21.317,2.40991
 L 21.1863,2.5802 L 21.0469,2.74342 L 20.8991,2.89912 L 20.7434,3.04689 L 20.5802,3.18629 L 20.4099,3.31696
 L 20.233,3.43854 L 20.05,3.55069 L 19.8614,3.65312 L 19.6676,3.74553 L 19.4693,3.82767 L 19.267,3.89932
 L 19.0612,3.96028 L 18.8524,4.01039 L 18.6414,4.04951 L 18.4286,4.07753 L 18.2146,4.09438 L 18,4.09999
 z
M -7.83372,23.4978 L -7.91724,23.4912 L -8.00029,23.4803 L -8.08266,23.465 L -8.16411,23.4455 L -8.24442,23.4217
 L -8.32338,23.3937 L -8.40077,23.3617 L -8.47638,23.3256 L -8.54999,23.2856 L -8.62141,23.2419 L -8.69044,23.1944
 L -8.75691,23.1434 L -8.8206,23.089 L -8.88136,23.0314 L -8.93903,22.9706 L -8.99342,22.9069 L -9.04442,22.8405
 L -9.09186,22.7714 L -9.13564,22.7 L -9.1756,22.6264 L -9.21167,22.5508 L -9.24373,22.4734 L -9.27168,22.3944
 L -9.29547,22.3141 L -9.31503,22.2327 L -9.33029,22.1503 L -9.34123,22.0672 L -9.34779,21.9837 L -9.34999,21.9
 L -9.34779,21.8163 L -9.34123,21.7327 L -9.33029,21.6497 L -9.31503,21.5673 L -9.29547,21.4859 L -9.27168,21.4056
 L -9.24373,21.3266 L -9.21167,21.2492 L -9.1756,21.1736 L -9.13564,21.1 L -9.09186,21.0286 L -9.04442,20.9595
 L -8.99342,20.8931 L -8.93903,20.8294 L -8.88136,20.7686 L -8.8206,20.711 L -8.75691,20.6566 L -8.69044,20.6056
 L -8.62141,20.5581 L -8.54999,20.5144 L -8.47638,20.4744 L -8.40077,20.4383 L -8.32338,20.4063 L -8.24442,20.3783
 L -8.16411,20.3545 L -8.08266,20.335 L -8.00029,20.3197 L -7.91724,20.3088 L -7.83372,20.3022 L -7.74998,20.3
 L -7.66626,20.3022 L -7.58275,20.3088 L -7.49969,20.3197 L -7.41733,20.335 L -7.33588,20.3545 L -7.25557,20.3783
 L -7.17661,20.4063 L -7.09921,20.4383 L -7.02361,20.4744 L -6.95,20.5144 L -6.87857,20.5581 L -6.80954,20.6056
 L -6.74307,20.6566 L -6.67938,20.711 L -6.61862,20.7686 L -6.56096,20.8294 L -6.50656,20.8931 L -6.45557,20.9595
 L -6.40813,21.0286 L -6.36435,21.1 L -6.32439,21.1736 L -6.28831,21.2492 L -6.25626,21.3266 L -6.2283,21.4056
 L -6.20451,21.4859 L -6.18495,21.5673 L -6.16969,21.6497 L -6.15875,21.7327 L -6.15219,21.8163 L -6.14999,21.9
 L -6.15219,21.9837 L -6.15875,22.0672 L -6.16969,22.1503 L -6.18495,22.2327 L -6.20451,22.3141 L -6.2283,22.3944
 L -6.25626,22.4734 L -6.28831,22.5508 L -6.32439,22.6264 L -6.36435,22.7 L -6.40813,22.7714 L -6.45557,22.8405
 L -6.50656,22.9069 L -6.56096,22.9706 L -6.61862,23.0314 L -6.67938,23.089 L -6.74307,23.1434 L -6.80954,23.1944
 L -6.87857,23.2419 L -6.95,23.2856 L -7.02361,23.3256 L -7.09921,23.3617 L -7.17661,23.3937 L -7.25557,23.4217
 L -7.33588,23.4455 L -7.41733,23.465 L -7.49969,23.4803 L -7.58275,23.4912 L -7.66626,23.4978 L -7.75,23.5
 z
M 7.66626,23.4978 L 7.58275,23.4912 L 7.49969,23.4803 L 7.41733,23.465 L 7.33588,23.4455 L 7.25557,23.4217
 L 7.17661,23.3937 L 7.09921,23.3617 L 7.02361,23.3256 L 6.95,23.2856 L 6.87857,23.2419 L 6.80954,23.1944
 L 6.74307,23.1434 L 6.67938,23.089 L 6.61862,23.0314 L 6.56096,22.9706 L 6.50656,22.9069 L 6.45557,22.8405
 L 6.40813,22.7714 L 6.36435,22.7 L 6.32439,22.6264 L 6.28831,22.5508 L 6.25626,22.4734 L 6.2283,22.3944
 L 6.20451,22.3141 L 6.18495,22.2327 L 6.16969,22.1503 L 6.15875,22.0672 L 6.15219,21.9837 L 6.14999,21.9
 L 6.15219,21.8163 L 6.15875,21.7327 L 6.16969,21.6497 L 6.18495,21.5673 L 6.20451,21.4859 L 6.2283,21.4056
 L 6.25626,21.3266 L 6.28831,21.2492 L 6.32439,21.1736 L 6.36435,21.1 L 6.40813,21.0286 L 6.45557,20.9595
 L 6.50656,20.8931 L 6.56096,20.8294 L 6.61862,20.7686 L 6.67938,20.711 L 6.74307,20.6566 L 6.80954,20.6056
 L 6.87857,20.5581 L 6.95,20.5144 L 7.02361,20.4744 L 7.09921,20.4383 L 7.17661,20.4063 L 7.25557,20.3783
 L 7.33588,20.3545 L 7.41733,20.335 L 7.49969,20.3197 L 7.58275,20.3088 L 7.66626,20.3022 L 7.75,20.3
 L 7.83372,20.3022 L 7.91724,20.3088 L 8.00029,20.3197 L 8.08266,20.335 L 8.16411,20.3545 L 8.24442,20.3783
 L 8.32338,20.4063 L 8.40077,20.4383 L 8.47638,20.4744 L 8.54999,20.5144 L 8.62141,20.5581 L 8.69044,20.6056
 L 8.75691,20.6566 L 8.8206,20.711 L 8.88136,20.7686 L 8.93903,20.8294 L 8.99342,20.8931 L 9.04442,20.9595
 L 9.09186,21.0286 L 9.13564,21.1 L 9.1756,21.1736 L 9.21167,21.2492 L 9.24373,21.3266 L 9.27168,21.4056
 L 9.29547,21.4859 L 9.31503,21.5673 L 9.33029,21.6497 L 9.34123,21.7327 L 9.34779,21.8163 L 9.34999,21.9
 L 9.34779,21.9837 L 9.34123,22.0672 L 9.33029,22.1503 L 9.31503,22.2327 L 9.29547,22.3141 L 9.27168,22.3944
 L 9.24373,22.4734 L 9.21167,22.5508 L 9.1756,22.6264 L 9.13564,22.7 L 9.09186,22.7714 L 9.04442,22.8405
 L 8.99342,22.9069 L 8.93903,22.9706 L 8.88136,23.0314 L 8.8206,23.089 L 8.75691,23.1434 L 8.69044,23.1944
 L 8.62141,23.2419 L 8.54999,23.2856 L 8.47638,23.3256 L 8.40077,23.3617 L 8.32338,23.3937 L 8.24442,23.4217
 L 8.16411,23.4455 L 8.08266,23.465 L 8.00029,23.4803 L 7.91724,23.4912 L 7.83372,23.4978 L 7.75,23.5
 z
M -0.355881,49.1907 L -0.710785,49.1628 L -1.06375,49.1163 L -1.41379,49.0514 L -1.75996,48.9683 L -2.1013,48.8672
 L -2.43689,48.7483 L -2.76581,48.6121 L -3.08713,48.4588 L -3.39999,48.289 L -3.70354,48.103 L -3.99693,47.9013
 L -4.27937,47.6846 L -4.55008,47.4534 L -4.80832,47.2083 L -5.05338,46.9501 L -5.28459,46.6794 L -5.50131,46.3969
 L -5.70296,46.1035 L -5.88896,45.8 L -6.05884,45.4871 L -6.2121,45.1658 L -6.34834,44.8369 L -6.46718,44.5013
 L -6.56828,44.16 L -6.6514,43.8138 L -6.71628,43.4637 L -6.76274,43.1108 L -6.79068,42.7559 L -6.79999,42.4
 L -6.79068,42.0441 L -6.76274,41.6892 L -6.71628,41.3362 L -6.6514,40.9862 L -6.56828,40.64 L -6.46718,40.2987
 L -6.34834,39.9631 L -6.2121,39.6342 L -6.05884,39.3129 L -5.88896,39 L -5.70296,38.6965 L -5.50131,38.4031
 L -5.28459,38.1206 L -5.05338,37.8499 L -4.80832,37.5917 L -4.55008,37.3466 L -4.27937,37.1154 L -3.99693,36.8987
 L -3.70354,36.697 L -3.39999,36.511 L -3.08713,36.3412 L -2.76581,36.1879 L -2.43689,36.0517 L -2.1013,35.9328
 L -1.75996,35.8317 L -1.41379,35.7486 L -1.06375,35.6837 L -0.710785,35.6373 L -0.355881,35.6093 L 0,35.6
 L 0.355881,35.6093 L 0.710785,35.6373 L 1.06375,35.6837 L 1.41379,35.7486 L 1.75996,35.8317 L 2.1013,35.9328
 L 2.43689,36.0517 L 2.76581,36.1879 L 3.08713,36.3412 L 3.39999,36.511 L 3.70354,36.697 L 3.99693,36.8987
 L 4.27937,37.1154 L 4.55008,37.3466 L 4.80832,37.5917 L 5.05338,37.8499 L 5.28459,38.1206 L 5.50131,38.4031
 L 5.70296,38.6965 L 5.88896,39 L 6.05884,39.3129 L 6.2121,39.6342 L 6.34834,39.9631 L 6.46718,40.2987
 L 6.56828,40.64 L 6.6514,40.9862 L 6.71628,41.3362 L 6.76274,41.6892 L 6.79068,42.0441 L 6.79999,42.4
 L 6.79068,42.7559 L 6.76274,43.1108 L 6.71628,43.4637 L 6.6514,43.8138 L 6.56828,44.16 L 6.46718,44.5013
 L 6.34834,44.8369 L 6.2121,45.1658 L 6.05884,45.4871 L 5.88896,45.8 L 5.70296,46.1035 L 5.50131,46.3969
 L 5.28459,46.6794 L 5.05338,46.9501 L 4.80832,47.2083 L 4.55008,47.4534 L 4.27937,47.6846 L 3.99693,47.9013
 L 3.70354,48.103 L 3.39999,48.289 L 3.08713,48.4588 L 2.76581,48.6121 L 2.43689,48.7483 L 2.1013,48.8672
 L 1.75996,48.9683 L 1.41379,49.0514 L 1.06375,49.1163 L 0.710785,49.1628 L 0.355881,49.1907 L 0,49.2
 z
M 7.66626,50.2478 L 7.58275,50.2412 L 7.49969,50.2303 L 7.41733,50.215 L 7.33588,50.1955 L 7.25557,50.1717
 L 7.17661,50.1437 L 7.09921,50.1117 L 7.02361,50.0756 L 6.95,50.0356 L 6.87857,49.9919 L 6.80954,49.9444
 L 6.74307,49.8934 L 6.67938,49.839 L 6.61862,49.7814 L 6.56096,49.7206 L 6.50656,49.6569 L 6.45557,49.5905
 L 6.40813,49.5214 L 6.36435,49.45 L 6.32439,49.3764 L 6.28831,49.3008 L 6.25626,49.2234 L 6.2283,49.1444
 L 6.20451,49.0641 L 6.18495,48.9827 L 6.16969,48.9003 L 6.15875,48.8172 L 6.15219,48.7337 L 6.14999,48.65
 L 6.15219,48.5663 L 6.15875,48.4827 L 6.16969,48.3997 L 6.18495,48.3173 L 6.20451,48.2359 L 6.2283,48.1556
 L 6.25626,48.0766 L 6.28831,47.9992 L 6.32439,47.9236 L 6.36435,47.85 L 6.40813,47.7786 L 6.45557,47.7095
 L 6.50656,47.6431 L 6.56096,47.5794 L 6.61862,47.5186 L 6.67938,47.461 L 6.74307,47.4066 L 6.80954,47.3556
 L 6.87857,47.3081 L 6.95,47.2644 L 7.02361,47.2244 L 7.09921,47.1883 L 7.17661,47.1563 L 7.25557,47.1283
 L 7.33588,47.1045 L 7.41733,47.085 L 7.49969,47.0697 L 7.58275,47.0588 L 7.66626,47.0522 L 7.75,47.05
 L 7.83372,47.0522 L 7.91724,47.0588 L 8.00029,47.0697 L 8.08266,47.085 L 8.16411,47.1045 L 8.24442,47.1283
 L 8.32338,47.1563 L 8.40077,47.1883 L 8.47638,47.2244 L 8.54999,47.2644 L 8.62141,47.3081 L 8.69044,47.3556
 L 8.75691,47.4066 L 8.8206,47.461 L 8.88136,47.5186 L 8.93903,47.5794 L 8.99342,47.6431 L 9.04442,47.7095
 L 9.09186,47.7786 L 9.13564,47.85 L 9.1756,47.9236 L 9.21167,47.9992 L 9.24373,48.0766 L 9.27168,48.1556
 L 9.29547,48.2359 L 9.31503,48.3173 L 9.33029,48.3997 L 9.34123,48.4827 L 9.34779,48.5663 L 9.34999,48.65
 L 9.34779,48.7337 L 9.34123,48.8172 L 9.33029,48.9003 L 9.31503,48.9827 L 9.29547,49.0641 L 9.27168,49.1444
 L 9.24373,49.2234 L 9.21167,49.3008 L 9.1756,49.3764 L 9.13564,49.45 L 9.09186,49.5214 L 9.04442,49.5905
 L 8.99342,49.6569 L 8.93903,49.7206 L 8.88136,49.7814 L 8.8206,49.839 L 8.75691,49.8934 L 8.69044,49.9444
 L 8.62141,49.9919 L 8.54999,50.0356 L 8.47638,50.0756 L 8.40077,50.1117 L 8.32338,50.1437 L 8.24442,50.1717
 L 8.16411,50.1955 L 8.08266,50.215 L 8.00029,50.2303 L 7.91724,50.2412 L 7.83372,50.2478 L 7.75,50.25
 z
M -7.83372,50.2478 L -7.91724,50.2412 L -8.00029,50.2303 L -8.08266,50.215 L -8.16411,50.1955 L -8.24442,50.1717
 L -8.32338,50.1437 L -8.40077,50.1117 L -8.47638,50.0756 L -8.54999,50.0356 L -8.62141,49.9919 L -8.69044,49.9444
 L -8.75691,49.8934 L -8.8206,49.839 L -8.88136,49.7814 L -8.93903,49.7206 L -8.99342,49.6569 L -9.04442,49.5905
 L -9.09186,49.5214 L -9.13564,49.45 L -9.1756,49.3764 L -9.21167,49.3008 L -9.24373,49.2234 L -9.27168,49.1444
 L -9.29547,49.0641 L -9.31503,48.9827 L -9.33029,48.9003 L -9.34123,48.8172 L -9.34779,48.7337 L -9.34999,48.65
 L -9.34779,48.5663 L -9.34123,48.4827 L -9.33029,48.3997 L -9.31503,48.3173 L -9.29547,48.2359 L -9.27168,48.1556
 L -9.24373,48.0766 L -9.21167,47.9992 L -9.1756,47.9236 L -9.13564,47.85 L -9.09186,47.7786 L -9.04442,47.7095
 L -8.99342,47.6431 L -8.93903,47.5794 L -8.88136,47.5186 L -8.8206,47.461 L -8.75691,47.4066 L -8.69044,47.3556
 L -8.62141,47.3081 L -8.54999,47.2644 L -8.47638,47.2244 L -8.40077,47.1883 L -8.32338,47.1563 L -8.24442,47.1283
 L -8.16411,47.1045 L -8.08266,47.085 L -8.00029,47.0697 L -7.91724,47.0588 L -7.83372,47.0522 L -7.74998,47.05
 L -7.66626,47.0522 L -7.58275,47.0588 L -7.49969,47.0697 L -7.41733,47.085 L -7.33588,47.1045 L -7.25557,47.1283
 L -7.17661,47.1563 L -7.09921,47.1883 L -7.02361,47.2244 L -6.95,47.2644 L -6.87857,47.3081 L -6.80954,47.3556
 L -6.74307,47.4066 L -6.67938,47.461 L -6.61862,47.5186 L -6.56096,47.5794 L -6.50656,47.6431 L -6.45557,47.7095
 L -6.40813,47.7786 L -6.36435,47.85 L -6.32439,47.9236 L -6.28831,47.9992 L -6.25626,48.0766 L -6.2283,48.1556
 L -6.20451,48.2359 L -6.18495,48.3173 L -6.16969,48.3997 L -6.15875,48.4827 L -6.15219,48.5663 L -6.14999,48.65
 L -6.15219,48.7337 L -6.15875,48.8172 L -6.16969,48.9003 L -6.18495,48.9827 L -6.20451,49.0641 L -6.2283,49.1444
 L -6.25626,49.2234 L -6.28831,49.3008 L -6.32439,49.3764 L -6.36435,49.45 L -6.40813,49.5214 L -6.45557,49.5905
 L -6.50656,49.6569 L -6.56096,49.7206 L -6.61862,49.7814 L -6.67938,49.839 L -6.74307,49.8934 L -6.80954,49.9444
 L -6.87857,49.9919 L -6.95,50.0356 L -7.02361,50.0756 L -7.09921,50.1117 L -7.17661,50.1437 L -7.25557,50.1717
 L -7.33588,50.1955 L -7.41733,50.215 L -7.49969,50.2303 L -7.58275,50.2412 L -7.66626,50.2478 L -7.75,50.25
 z
M -0.130829,68.3966 L -0.261307,68.3863 L -0.391083,68.3692 L -0.519775,68.3454 L -0.647034,68.3148 L -0.772537,68.2776
 L -0.89592,68.2339 L -1.01683,68.1839 L -1.13496,68.1275 L -1.25,68.0651 L -1.36159,67.9967 L -1.46945,67.9225
 L -1.57329,67.8429 L -1.67282,67.7579 L -1.76776,67.6678 L -1.85785,67.5728 L -1.94286,67.4733 L -2.02254,67.3695
 L -2.09666,67.2616 L -2.16505,67.15 L -2.22751,67.035 L -2.28386,66.9168 L -2.33394,66.7959 L -2.37764,66.6725
 L -2.41481,66.547 L -2.44536,66.4198 L -2.46921,66.2911 L -2.4863,66.1613 L -2.49657,66.0308 L -2.5,65.9
 L -2.49657,65.7691 L -2.4863,65.6387 L -2.46921,65.5089 L -2.44536,65.3802 L -2.41481,65.2529 L -2.37764,65.1275
 L -2.33394,65.0041 L -2.28386,64.8831 L -2.22751,64.765 L -2.16505,64.65 L -2.09666,64.5384 L -2.02254,64.4305
 L -1.94286,64.3267 L -1.85785,64.2272 L -1.76776,64.1322 L -1.67282,64.0421 L -1.57329,63.9571 L -1.46945,63.8775
 L -1.36159,63.8033 L -1.24998,63.7349 L -1.13496,63.6725 L -1.01683,63.6161 L -0.89592,63.566 L -0.772537,63.5224
 L -0.647034,63.4852 L -0.519775,63.4546 L -0.391083,63.4308 L -0.261307,63.4137 L -0.130829,63.4034 L 0,63.4
 L 0.130829,63.4034 L 0.261307,63.4137 L 0.391083,63.4308 L 0.519775,63.4546 L 0.647034,63.4852 L 0.772537,63.5224
 L 0.89592,63.566 L 1.01683,63.6161 L 1.13496,63.6725 L 1.25,63.7349 L 1.36159,63.8033 L 1.46945,63.8775
 L 1.57329,63.9571 L 1.67282,64.0421 L 1.76776,64.1322 L 1.85785,64.2272 L 1.94286,64.3267 L 2.02254,64.4305
 L 2.09666,64.5384 L 2.16505,64.65 L 2.22751,64.765 L 2.28386,64.8831 L 2.33394,65.0041 L 2.37764,65.1275
 L 2.41481,65.2529 L 2.44536,65.3802 L 2.46921,65.5089 L 2.4863,65.6387 L 2.49657,65.7691 L 2.5,65.9
 L 2.49657,66.0308 L 2.4863,66.1613 L 2.46921,66.2911 L 2.44536,66.4198 L 2.41481,66.547 L 2.37764,66.6725
 L 2.33394,66.7959 L 2.28386,66.9168 L 2.22751,67.035 L 2.16505,67.15 L 2.09666,67.2616 L 2.02254,67.3695
 L 1.94286,67.4733 L 1.85785,67.5728 L 1.76776,67.6678 L 1.67282,67.7579 L 1.57329,67.8429 L 1.46945,67.9225
 L 1.36159,67.9967 L 1.25,68.0651 L 1.13496,68.1275 L 1.01683,68.1839 L 0.89592,68.2339 L 0.772537,68.2776
 L 0.647034,68.3148 L 0.519775,68.3454 L 0.391083,68.3692 L 0.261307,68.3863 L 0.130829,68.3966 L 0,68.4
 z
M -62.7146,76.0944 L -62.9286,76.0775 L -63.1414,76.0495 L -63.3524,76.0104 L -63.5612,75.9603 L -63.767,75.8993
 L -63.9693,75.8277 L -64.1676,75.7455 L -64.3614,75.6531 L -64.55,75.5507 L -64.733,75.4386 L -64.9099,75.317
 L -65.0802,75.1863 L -65.2434,75.0469 L -65.3991,74.8991 L -65.5469,74.7434 L -65.6863,74.5802 L -65.817,74.4099
 L -65.9386,74.233 L -66.0507,74.05 L -66.1531,73.8614 L -66.2455,73.6676 L -66.3277,73.4693 L -66.3993,73.267
 L -66.4603,73.0612 L -66.5104,72.8524 L -66.5495,72.6414 L -66.5775,72.4286 L -66.5944,72.2146 L -66.6,72
 L -66.5944,71.7854 L -66.5775,71.5714 L -66.5495,71.3586 L -66.5104,71.1476 L -66.4603,70.9388 L -66.3993,70.733
 L -66.3277,70.5307 L -66.2455,70.3324 L -66.1531,70.1386 L -66.0507,69.95 L -65.9386,69.767 L -65.817,69.5901
 L -65.6863,69.4198 L -65.5469,69.2566 L -65.3991,69.1009 L -65.2434,68.9531 L -65.0802,68.8137 L -64.9099,68.683
 L -64.733,68.5614 L -64.55,68.4493 L -64.3614,68.3469 L -64.1676,68.2545 L -63.9693,68.1723 L -63.767,68.1007
 L -63.5612,68.0397 L -63.3524,67.9896 L -63.1414,67.9505 L -62.9286,67.9225 L -62.7146,67.9056 L -62.5,67.9
 L -62.2854,67.9056 L -62.0714,67.9225 L -61.8586,67.9505 L -61.6476,67.9896 L -61.4388,68.0397 L -61.233,68.1007
 L -61.0307,68.1723 L -60.8324,68.2545 L -60.6386,68.3469 L -60.45,68.4493 L -60.267,68.5614 L -60.0901,68.683
 L -59.9198,68.8137 L -59.7566,68.9531 L -59.6009,69.1009 L -59.4531,69.2566 L -59.3137,69.4198 L -59.183,69.5901
 L -59.0614,69.767 L -58.9493,69.95 L -58.8469,70.1386 L -58.7545,70.3324 L -58.6723,70.5307 L -58.6007,70.733
 L -58.5397,70.9388 L -58.4896,71.1476 L -58.4505,71.3586 L -58.4225,71.5714 L -58.4056,71.7854 L -58.4,72
 L -58.4056,72.2146 L -58.4225,72.4286 L -58.4505,72.6414 L -58.4896,72.8524 L -58.5397,73.0612 L -58.6007,73.267
 L -58.6723,73.4693 L -58.7545,73.6676 L -58.8469,73.8614 L -58.9493,74.05 L -59.0614,74.233 L -59.183,74.4099
 L -59.3137,74.5802 L -59.4531,74.7434 L -59.6009,74.8991 L -59.7566,75.0469 L -59.9198,75.1863 L -60.0901,75.317
 L -60.267,75.4386 L -60.45,75.5507 L -60.6386,75.6531 L -60.8324,75.7455 L -61.0307,75.8277 L -61.233,75.8993
 L -61.4388,75.9603 L -61.6476,76.0104 L -61.8586,76.0495 L -62.0714,76.0775 L -62.2854,76.0944 L -62.5,76.1
 z
M 62.2854,76.0944 L 62.0714,76.0775 L 61.8586,76.0495 L 61.6476,76.0104 L 61.4388,75.9603 L 61.233,75.8993
 L 61.0307,75.8277 L 60.8324,75.7455 L 60.6386,75.6531 L 60.45,75.5507 L 60.267,75.4386 L 60.0901,75.317
 L 59.9198,75.1863 L 59.7566,75.0469 L 59.6009,74.8991 L 59.4531,74.7434 L 59.3137,74.5802 L 59.183,74.4099
 L 59.0614,74.233 L 58.9493,74.05 L 58.8469,73.8614 L 58.7545,73.6676 L 58.6723,73.4693 L 58.6007,73.267
 L 58.5397,73.0612 L 58.4896,72.8524 L 58.4505,72.6414 L 58.4225,72.4286 L 58.4056,72.2146 L 58.4,72
 L 58.4056,71.7854 L 58.4225,71.5714 L 58.4505,71.3586 L 58.4896,71.1476 L 58.5397,70.9388 L 58.6007,70.733
 L 58.6723,70.5307 L 58.7545,70.3324 L 58.8469,70.1386 L 58.9493,69.95 L 59.0614,69.767 L 59.183,69.5901
 L 59.3137,69.4198 L 59.4531,69.2566 L 59.6009,69.1009 L 59.7566,68.9531 L 59.9198,68.8137 L 60.0901,68.683
 L 60.267,68.5614 L 60.45,68.4493 L 60.6386,68.3469 L 60.8324,68.2545 L 61.0307,68.1723 L 61.233,68.1007
 L 61.4388,68.0397 L 61.6476,67.9896 L 61.8586,67.9505 L 62.0714,67.9225 L 62.2854,67.9056 L 62.5,67.9
 L 62.7146,67.9056 L 62.9286,67.9225 L 63.1414,67.9505 L 63.3524,67.9896 L 63.5612,68.0397 L 63.767,68.1007
 L 63.9693,68.1723 L 64.1676,68.2545 L 64.3614,68.3469 L 64.55,68.4493 L 64.733,68.5614 L 64.9099,68.683
 L 65.0802,68.8137 L 65.2434,68.9531 L 65.3991,69.1009 L 65.5469,69.2566 L 65.6863,69.4198 L 65.817,69.5901
 L 65.9386,69.767 L 66.0507,69.95 L 66.1531,70.1386 L 66.2455,70.3324 L 66.3277,70.5307 L 66.3993,70.733
 L 66.4603,70.9388 L 66.5104,71.1476 L 66.5495,71.3586 L 66.5775,71.5714 L 66.5944,71.7854 L 66.6,72
 L 66.5944,72.2146 L 66.5775,72.4286 L 66.5495,72.6414 L 66.5104,72.8524 L 66.4603,73.0612 L 66.3993,73.267
 L 66.3277,73.4693 L 66.2455,73.6676 L 66.1531,73.8614 L 66.0507,74.05 L 65.9386,74.233 L 65.817,74.4099
 L 65.6863,74.5802 L 65.5469,74.7434 L 65.3991,74.8991 L 65.2434,75.0469 L 65.0802,75.1863 L 64.9099,75.317
 L 64.733,75.4386 L 64.55,75.5507 L 64.3614,75.6531 L 64.1676,75.7455 L 63.9693,75.8277 L 63.767,75.8993
 L 63.5612,75.9603 L 63.3524,76.0104 L 63.1414,76.0495 L 62.9286,76.0775 L 62.7146,76.0944 L 62.5,76.1
 z
" stroke="black" fill="lightgray" stroke-width="0.5"/></svg>
