  0
SECTION
  2
BLOCKS
  0
ENDSEC
  0
SECTION
  2
ENTITIES
  0
LINE
  8
0
 10
-32.85
 20
0
 11
-32.77
 21
-2.2915
  0
LINE
  8
0
 10
-32.77
 20
-2.2915
 11
-32.5303
 21
-4.57184
  0
LINE
  8
0
 10
-32.5303
 20
-4.57184
 11
-32.1321
 21
-6.8299
  0
LINE
  8
0
 10
-32.1321
 20
-6.8299
 11
-31.5774
 21
-9.05469
  0
LINE
  8
0
 10
-31.5774
 20
-9.05469
 11
-30.8689
 21
-11.2354
  0
LINE
  8
0
 10
-30.8689
 20
-11.2354
 11
-30.01
 21
-13.3613
  0
LINE
  8
0
 10
-30.01
 20
-13.3613
 11
-29.0048
 21
-15.4221
  0
LINE
  8
0
 10
-29.0048
 20
-15.4221
 11
-27.8584
 21
-17.4078
  0
LINE
  8
0
 10
-27.8584
 20
-17.4078
 11
-26.5762
 21
-19.3087
  0
LINE
  8
0
 10
-26.5762
 20
-19.3087
 11
-25.1646
 21
-21.1156
  0
LINE
  8
0
 10
-25.1646
 20
-21.1156
 11
-23.6303
 21
-22.8195
  0
LINE
  8
0
 10
-23.6303
 20
-22.8195
 11
-21.9809
 21
-24.4123
  0
LINE
  8
0
 10
-21.9809
 20
-24.4123
 11
-20.2245
 21
-25.8862
  0
LINE
  8
0
 10
-20.2245
 20
-25.8862
 11
-18.3695
 21
-27.2339
  0
LINE
  8
0
 10
-18.3695
 20
-27.2339
 11
-16.425
 21
-28.4489
  0
LINE
  8
0
 10
-16.425
 20
-28.4489
 11
-14.4005
 21
-29.5254
  0
LINE
  8
0
 10
-14.4005
 20
-29.5254
 11
-12.3058
 21
-30.458
  0
LINE
  8
0
 10
-12.3058
 20
-30.458
 11
-10.1512
 21
-31.2422
  0
LINE
  8
0
 10
-10.1512
 20
-31.2422
 11
-7.94713
 21
-31.8742
  0
LINE
  8
0
 10
-7.94713
 20
-31.8742
 11
-5.70434
 21
-32.3509
  0
LINE
  8
0
 10
-5.70434
 20
-32.3509
 11
-3.43376
 21
-32.67
  0
LINE
  8
0
 10
-3.43376
 20
-32.67
 11
-1.14645
 21
-32.83
  0
LINE
  8
0
 10
-1.14645
 20
-32.83
 11
1.14645
 21
-32.83
  0
LINE
  8
0
 10
1.14645
 20
-32.83
 11
3.43376
 21
-32.67
  0
LINE
  8
0
 10
3.43376
 20
-32.67
 11
5.70434
 21
-32.3509
  0
LINE
  8
0
 10
5.70434
 20
-32.3509
 11
7.94713
 21
-31.8742
  0
LINE
  8
0
 10
7.94713
 20
-31.8742
 11
10.1512
 21
-31.2422
  0
LINE
  8
0
 10
10.1512
 20
-31.2422
 11
12.3058
 21
-30.458
  0
LINE
  8
0
 10
12.3058
 20
-30.458
 11
14.4005
 21
-29.5254
  0
LINE
  8
0
 10
14.4005
 20
-29.5254
 11
16.425
 21
-28.4489
  0
LINE
  8
0
 10
16.425
 20
-28.4489
 11
18.3695
 21
-27.2339
  0
LINE
  8
0
 10
18.3695
 20
-27.2339
 11
20.2245
 21
-25.8862
  0
LINE
  8
0
 10
20.2245
 20
-25.8862
 11
21.9809
 21
-24.4123
  0
LINE
  8
0
 10
21.9809
 20
-24.4123
 11
23.6303
 21
-22.8195
  0
LINE
  8
0
 10
23.6303
 20
-22.8195
 11
25.1646
 21
-21.1156
  0
LINE
  8
0
 10
25.1646
 20
-21.1156
 11
26.5762
 21
-19.3087
  0
LINE
  8
0
 10
26.5762
 20
-19.3087
 11
27.8584
 21
-17.4078
  0
LINE
  8
0
 10
27.8584
 20
-17.4078
 11
29.0048
 21
-15.4221
  0
LINE
  8
0
 10
29.0048
 20
-15.4221
 11
30.01
 21
-13.3613
  0
LINE
  8
0
 10
30.01
 20
-13.3613
 11
30.8689
 21
-11.2354
  0
LINE
  8
0
 10
30.8689
 20
-11.2354
 11
31.5774
 21
-9.05469
  0
LINE
  8
0
 10
31.5774
 20
-9.05469
 11
32.1321
 21
-6.8299
  0
LINE
  8
0
 10
32.1321
 20
-6.8299
 11
32.5303
 21
-4.57184
  0
LINE
  8
0
 10
32.5303
 20
-4.57184
 11
32.77
 21
-2.2915
  0
LINE
  8
0
 10
32.77
 20
-2.2915
 11
32.85
 21
0
  0
LINE
  8
0
 10
32.85
 20
0
 11
32.77
 21
2.2915
  0
LINE
  8
0
 10
32.77
 20
2.2915
 11
32.5303
 21
4.57184
  0
LINE
  8
0
 10
32.5303
 20
4.57184
 11
32.1321
 21
6.8299
  0
LINE
  8
0
 10
32.1321
 20
6.8299
 11
31.5774
 21
9.05469
  0
LINE
  8
0
 10
31.5774
 20
9.05469
 11
30.8689
 21
11.2354
  0
LINE
  8
0
 10
30.8689
 20
11.2354
 11
30.01
 21
13.3613
  0
LINE
  8
0
 10
30.01
 20
13.3613
 11
29.0048
 21
15.4221
  0
LINE
  8
0
 10
29.0048
 20
15.4221
 11
27.8584
 21
17.4078
  0
LINE
  8
0
 10
27.8584
 20
17.4078
 11
26.5762
 21
19.3087
  0
LINE
  8
0
 10
26.5762
 20
19.3087
 11
25.1646
 21
21.1156
  0
LINE
  8
0
 10
25.1646
 20
21.1156
 11
23.6303
 21
22.8195
  0
LINE
  8
0
 10
23.6303
 20
22.8195
 11
21.9809
 21
24.4123
  0
LINE
  8
0
 10
21.9809
 20
24.4123
 11
20.2245
 21
25.8862
  0
LINE
  8
0
 10
20.2245
 20
25.8862
 11
18.3695
 21
27.2339
  0
LINE
  8
0
 10
18.3695
 20
27.2339
 11
16.425
 21
28.4489
  0
LINE
  8
0
 10
16.425
 20
28.4489
 11
14.4005
 21
29.5254
  0
LINE
  8
0
 10
14.4005
 20
29.5254
 11
12.3058
 21
30.458
  0
LINE
  8
0
 10
12.3058
 20
30.458
 11
10.1512
 21
31.2422
  0
LINE
  8
0
 10
10.1512
 20
31.2422
 11
7.94713
 21
31.8742
  0
LINE
  8
0
 10
7.94713
 20
31.8742
 11
5.70434
 21
32.3509
  0
LINE
  8
0
 10
5.70434
 20
32.3509
 11
3.43376
 21
32.67
  0
LINE
  8
0
 10
3.43376
 20
32.67
 11
1.14645
 21
32.83
  0
LINE
  8
0
 10
1.14645
 20
32.83
 11
-1.14645
 21
32.83
  0
LINE
  8
0
 10
-1.14645
 20
32.83
 11
-3.43376
 21
32.67
  0
LINE
  8
0
 10
-3.43376
 20
32.67
 11
-5.70434
 21
32.3509
  0
LINE
  8
0
 10
-5.70434
 20
32.3509
 11
-7.94713
 21
31.8742
  0
LINE
  8
0
 10
-7.94713
 20
31.8742
 11
-10.1512
 21
31.2422
  0
LINE
  8
0
 10
-10.1512
 20
31.2422
 11
-12.3058
 21
30.458
  0
LINE
  8
0
 10
-12.3058
 20
30.458
 11
-14.4005
 21
29.5254
  0
LINE
  8
0
 10
-14.4005
 20
29.5254
 11
-16.425
 21
28.4489
  0
LINE
  8
0
 10
-16.425
 20
28.4489
 11
-18.3695
 21
27.2339
  0
LINE
  8
0
 10
-18.3695
 20
27.2339
 11
-20.2245
 21
25.8862
  0
LINE
  8
0
 10
-20.2245
 20
25.8862
 11
-21.9809
 21
24.4123
  0
LINE
  8
0
 10
-21.9809
 20
24.4123
 11
-23.6303
 21
22.8195
  0
LINE
  8
0
 10
-23.6303
 20
22.8195
 11
-25.1646
 21
21.1156
  0
LINE
  8
0
 10
-25.1646
 20
21.1156
 11
-26.5762
 21
19.3087
  0
LINE
  8
0
 10
-26.5762
 20
19.3087
 11
-27.8584
 21
17.4078
  0
LINE
  8
0
 10
-27.8584
 20
17.4078
 11
-29.0048
 21
15.4221
  0
LINE
  8
0
 10
-29.0048
 20
15.4221
 11
-30.01
 21
13.3613
  0
LINE
  8
0
 10
-30.01
 20
13.3613
 11
-30.8689
 21
11.2354
  0
LINE
  8
0
 10
-30.8689
 20
11.2354
 11
-31.5774
 21
9.05469
  0
LINE
  8
0
 10
-31.5774
 20
9.05469
 11
-32.1321
 21
6.8299
  0
LINE
  8
0
 10
-32.1321
 20
6.8299
 11
-32.5303
 21
4.57184
  0
LINE
  8
0
 10
-32.5303
 20
4.57184
 11
-32.77
 21
2.2915
  0
LINE
  8
0
 10
-32.77
 20
2.2915
 11
-32.85
 21
0
  0
LINE
  8
0
 10
-3.1
 20
0
 11
-3.09245
 21
0.216245
  0
LINE
  8
0
 10
-3.09245
 20
0.216245
 11
-3.06983
 21
0.431437
  0
LINE
  8
0
 10
-3.06983
 20
0.431437
 11
-3.03226
 21
0.644526
  0
LINE
  8
0
 10
-3.03226
 20
0.644526
 11
-2.97991
 21
0.854475
  0
LINE
  8
0
 10
-2.97991
 20
0.854475
 11
-2.91305
 21
1.06026
  0
LINE
  8
0
 10
-2.91305
 20
1.06026
 11
-2.83199
 21
1.26088
  0
LINE
  8
0
 10
-2.83199
 20
1.26088
 11
-2.73714
 21
1.45536
  0
LINE
  8
0
 10
-2.73714
 20
1.45536
 11
-2.62895
 21
1.64275
  0
LINE
  8
0
 10
-2.62895
 20
1.64275
 11
-2.50795
 21
1.82213
  0
LINE
  8
0
 10
-2.50795
 20
1.82213
 11
-2.37474
 21
1.99264
  0
LINE
  8
0
 10
-2.37474
 20
1.99264
 11
-2.22995
 21
2.15344
  0
LINE
  8
0
 10
-2.22995
 20
2.15344
 11
-2.0743
 21
2.30375
  0
LINE
  8
0
 10
-2.0743
 20
2.30375
 11
-1.90855
 21
2.44283
  0
LINE
  8
0
 10
-1.90855
 20
2.44283
 11
-1.7335
 21
2.57002
  0
LINE
  8
0
 10
-1.7335
 20
2.57002
 11
-1.55
 21
2.68468
  0
LINE
  8
0
 10
-1.55
 20
2.68468
 11
-1.35895
 21
2.78626
  0
LINE
  8
0
 10
-1.35895
 20
2.78626
 11
-1.16128
 21
2.87427
  0
LINE
  8
0
 10
-1.16128
 20
2.87427
 11
-0.957952
 21
2.94827
  0
LINE
  8
0
 10
-0.957952
 20
2.94827
 11
-0.749957
 21
3.00792
  0
LINE
  8
0
 10
-0.749957
 20
3.00792
 11
-0.538309
 21
3.0529
  0
LINE
  8
0
 10
-0.538309
 20
3.0529
 11
-0.324038
 21
3.08302
  0
LINE
  8
0
 10
-0.324038
 20
3.08302
 11
-0.108188
 21
3.09811
  0
LINE
  8
0
 10
-0.108188
 20
3.09811
 11
0.108188
 21
3.09811
  0
LINE
  8
0
 10
0.108188
 20
3.09811
 11
0.324038
 21
3.08302
  0
LINE
  8
0
 10
0.324038
 20
3.08302
 11
0.538309
 21
3.0529
  0
LINE
  8
0
 10
0.538309
 20
3.0529
 11
0.749957
 21
3.00792
  0
LINE
  8
0
 10
0.749957
 20
3.00792
 11
0.957952
 21
2.94827
  0
LINE
  8
0
 10
0.957952
 20
2.94827
 11
1.16128
 21
2.87427
  0
LINE
  8
0
 10
1.16128
 20
2.87427
 11
1.35895
 21
2.78626
  0
LINE
  8
0
 10
1.35895
 20
2.78626
 11
1.55
 21
2.68468
  0
LINE
  8
0
 10
1.55
 20
2.68468
 11
1.7335
 21
2.57002
  0
LINE
  8
0
 10
1.7335
 20
2.57002
 11
1.90855
 21
2.44283
  0
LINE
  8
0
 10
1.90855
 20
2.44283
 11
2.0743
 21
2.30375
  0
LINE
  8
0
 10
2.0743
 20
2.30375
 11
2.22995
 21
2.15344
  0
LINE
  8
0
 10
2.22995
 20
2.15344
 11
2.37474
 21
1.99264
  0
LINE
  8
0
 10
2.37474
 20
1.99264
 11
2.50795
 21
1.82213
  0
LINE
  8
0
 10
2.50795
 20
1.82213
 11
2.62895
 21
1.64275
  0
LINE
  8
0
 10
2.62895
 20
1.64275
 11
2.73714
 21
1.45536
  0
LINE
  8
0
 10
2.73714
 20
1.45536
 11
2.83199
 21
1.26088
  0
LINE
  8
0
 10
2.83199
 20
1.26088
 11
2.91305
 21
1.06026
  0
LINE
  8
0
 10
2.91305
 20
1.06026
 11
2.97991
 21
0.854475
  0
LINE
  8
0
 10
2.97991
 20
0.854475
 11
3.03226
 21
0.644526
  0
LINE
  8
0
 10
3.03226
 20
0.644526
 11
3.06983
 21
0.431437
  0
LINE
  8
0
 10
3.06983
 20
0.431437
 11
3.09245
 21
0.216245
  0
LINE
  8
0
 10
3.09245
 20
0.216245
 11
3.1
 21
0
  0
LINE
  8
0
 10
3.1
 20
0
 11
3.09245
 21
-0.216245
  0
LINE
  8
0
 10
3.09245
 20
-0.216245
 11
3.06983
 21
-0.431437
  0
LINE
  8
0
 10
3.06983
 20
-0.431437
 11
3.03226
 21
-0.644526
  0
LINE
  8
0
 10
3.03226
 20
-0.644526
 11
2.97991
 21
-0.854475
  0
LINE
  8
0
 10
2.97991
 20
-0.854475
 11
2.91305
 21
-1.06026
  0
LINE
  8
0
 10
2.91305
 20
-1.06026
 11
2.83199
 21
-1.26088
  0
LINE
  8
0
 10
2.83199
 20
-1.26088
 11
2.73714
 21
-1.45536
  0
LINE
  8
0
 10
2.73714
 20
-1.45536
 11
2.62895
 21
-1.64275
  0
LINE
  8
0
 10
2.62895
 20
-1.64275
 11
2.50795
 21
-1.82213
  0
LINE
  8
0
 10
2.50795
 20
-1.82213
 11
2.37474
 21
-1.99264
  0
LINE
  8
0
 10
2.37474
 20
-1.99264
 11
2.22995
 21
-2.15344
  0
LINE
  8
0
 10
2.22995
 20
-2.15344
 11
2.0743
 21
-2.30375
  0
LINE
  8
0
 10
2.0743
 20
-2.30375
 11
1.90855
 21
-2.44283
  0
LINE
  8
0
 10
1.90855
 20
-2.44283
 11
1.7335
 21
-2.57002
  0
LINE
  8
0
 10
1.7335
 20
-2.57002
 11
1.55
 21
-2.68468
  0
LINE
  8
0
 10
1.55
 20
-2.68468
 11
1.35895
 21
-2.78626
  0
LINE
  8
0
 10
1.35895
 20
-2.78626
 11
1.16128
 21
-2.87427
  0
LINE
  8
0
 10
1.16128
 20
-2.87427
 11
0.957952
 21
-2.94827
  0
LINE
  8
0
 10
0.957952
 20
-2.94827
 11
0.749957
 21
-3.00792
  0
LINE
  8
0
 10
0.749957
 20
-3.00792
 11
0.538309
 21
-3.0529
  0
LINE
  8
0
 10
0.538309
 20
-3.0529
 11
0.324038
 21
-3.08302
  0
LINE
  8
0
 10
0.324038
 20
-3.08302
 11
0.108188
 21
-3.09811
  0
LINE
  8
0
 10
0.108188
 20
-3.09811
 11
-0.108188
 21
-3.09811
  0
LINE
  8
0
 10
-0.108188
 20
-3.09811
 11
-0.324038
 21
-3.08302
  0
LINE
  8
0
 10
-0.324038
 20
-3.08302
 11
-0.538309
 21
-3.0529
  0
LINE
  8
0
 10
-0.538309
 20
-3.0529
 11
-0.749957
 21
-3.00792
  0
LINE
  8
0
 10
-0.749957
 20
-3.00792
 11
-0.957952
 21
-2.94827
  0
LINE
  8
0
 10
-0.957952
 20
-2.94827
 11
-1.16128
 21
-2.87427
  0
LINE
  8
0
 10
-1.16128
 20
-2.87427
 11
-1.35895
 21
-2.78626
  0
LINE
  8
0
 10
-1.35895
 20
-2.78626
 11
-1.55
 21
-2.68468
  0
LINE
  8
0
 10
-1.55
 20
-2.68468
 11
-1.7335
 21
-2.57002
  0
LINE
  8
0
 10
-1.7335
 20
-2.57002
 11
-1.90855
 21
-2.44283
  0
LINE
  8
0
 10
-1.90855
 20
-2.44283
 11
-2.0743
 21
-2.30375
  0
LINE
  8
0
 10
-2.0743
 20
-2.30375
 11
-2.22995
 21
-2.15344
  0
LINE
  8
0
 10
-2.22995
 20
-2.15344
 11
-2.37474
 21
-1.99264
  0
LINE
  8
0
 10
-2.37474
 20
-1.99264
 11
-2.50795
 21
-1.82213
  0
LINE
  8
0
 10
-2.50795
 20
-1.82213
 11
-2.62895
 21
-1.64275
  0
LINE
  8
0
 10
-2.62895
 20
-1.64275
 11
-2.73714
 21
-1.45536
  0
LINE
  8
0
 10
-2.73714
 20
-1.45536
 11
-2.83199
 21
-1.26088
  0
LINE
  8
0
 10
-2.83199
 20
-1.26088
 11
-2.91305
 21
-1.06026
  0
LINE
  8
0
 10
-2.91305
 20
-1.06026
 11
-2.97991
 21
-0.854475
  0
LINE
  8
0
 10
-2.97991
 20
-0.854475
 11
-3.03226
 21
-0.644526
  0
LINE
  8
0
 10
-3.03226
 20
-0.644526
 11
-3.06983
 21
-0.431437
  0
LINE
  8
0
 10
-3.06983
 20
-0.431437
 11
-3.09245
 21
-0.216245
  0
LINE
  8
0
 10
-3.09245
 20
-0.216245
 11
-3.1
 21
0
  0
LINE
  8
0
 10
-1.95
 20
-22
 11
-1.94525
 21
-21.864
  0
LINE
  8
0
 10
-1.94525
 20
-21.864
 11
-1.93102
 21
-21.7286
  0
LINE
  8
0
 10
-1.93102
 20
-21.7286
 11
-1.90739
 21
-21.5946
  0
LINE
  8
0
 10
-1.90739
 20
-21.5946
 11
-1.87446
 21
-21.4625
  0
LINE
  8
0
 10
-1.87446
 20
-21.4625
 11
-1.8324
 21
-21.3331
  0
LINE
  8
0
 10
-1.8324
 20
-21.3331
 11
-1.78141
 21
-21.2069
  0
LINE
  8
0
 10
-1.78141
 20
-21.2069
 11
-1.72175
 21
-21.0845
  0
LINE
  8
0
 10
-1.72175
 20
-21.0845
 11
-1.65369
 21
-20.9667
  0
LINE
  8
0
 10
-1.65369
 20
-20.9667
 11
-1.57758
 21
-20.8538
  0
LINE
  8
0
 10
-1.57758
 20
-20.8538
 11
-1.49379
 21
-20.7466
  0
LINE
  8
0
 10
-1.49379
 20
-20.7466
 11
-1.40271
 21
-20.6454
  0
LINE
  8
0
 10
-1.40271
 20
-20.6454
 11
-1.3048
 21
-20.5509
  0
LINE
  8
0
 10
-1.3048
 20
-20.5509
 11
-1.20054
 21
-20.4634
  0
LINE
  8
0
 10
-1.20054
 20
-20.4634
 11
-1.09043
 21
-20.3834
  0
LINE
  8
0
 10
-1.09043
 20
-20.3834
 11
-0.974999
 21
-20.3112
  0
LINE
  8
0
 10
-0.974999
 20
-20.3112
 11
-0.854823
 21
-20.2474
  0
LINE
  8
0
 10
-0.854823
 20
-20.2474
 11
-0.730482
 21
-20.192
  0
LINE
  8
0
 10
-0.730482
 20
-20.192
 11
-0.602583
 21
-20.1454
  0
LINE
  8
0
 10
-0.602583
 20
-20.1454
 11
-0.471747
 21
-20.1079
  0
LINE
  8
0
 10
-0.471747
 20
-20.1079
 11
-0.338614
 21
-20.0796
  0
LINE
  8
0
 10
-0.338614
 20
-20.0796
 11
-0.20383
 21
-20.0607
  0
LINE
  8
0
 10
-0.20383
 20
-20.0607
 11
-0.0680532
 21
-20.0512
  0
LINE
  8
0
 10
-0.0680532
 20
-20.0512
 11
0.0680532
 21
-20.0512
  0
LINE
  8
0
 10
0.0680532
 20
-20.0512
 11
0.20383
 21
-20.0607
  0
LINE
  8
0
 10
0.20383
 20
-20.0607
 11
0.338614
 21
-20.0796
  0
LINE
  8
0
 10
0.338614
 20
-20.0796
 11
0.471747
 21
-20.1079
  0
LINE
  8
0
 10
0.471747
 20
-20.1079
 11
0.602583
 21
-20.1454
  0
LINE
  8
0
 10
0.602583
 20
-20.1454
 11
0.730482
 21
-20.192
  0
LINE
  8
0
 10
0.730482
 20
-20.192
 11
0.854823
 21
-20.2474
  0
LINE
  8
0
 10
0.854823
 20
-20.2474
 11
0.974999
 21
-20.3112
  0
LINE
  8
0
 10
0.974999
 20
-20.3112
 11
1.09043
 21
-20.3834
  0
LINE
  8
0
 10
1.09043
 20
-20.3834
 11
1.20054
 21
-20.4634
  0
LINE
  8
0
 10
1.20054
 20
-20.4634
 11
1.3048
 21
-20.5509
  0
LINE
  8
0
 10
1.3048
 20
-20.5509
 11
1.40271
 21
-20.6454
  0
LINE
  8
0
 10
1.40271
 20
-20.6454
 11
1.49379
 21
-20.7466
  0
LINE
  8
0
 10
1.49379
 20
-20.7466
 11
1.57758
 21
-20.8538
  0
LINE
  8
0
 10
1.57758
 20
-20.8538
 11
1.65369
 21
-20.9667
  0
LINE
  8
0
 10
1.65369
 20
-20.9667
 11
1.72175
 21
-21.0845
  0
LINE
  8
0
 10
1.72175
 20
-21.0845
 11
1.78141
 21
-21.2069
  0
LINE
  8
0
 10
1.78141
 20
-21.2069
 11
1.8324
 21
-21.3331
  0
LINE
  8
0
 10
1.8324
 20
-21.3331
 11
1.87446
 21
-21.4625
  0
LINE
  8
0
 10
1.87446
 20
-21.4625
 11
1.90739
 21
-21.5946
  0
LINE
  8
0
 10
1.90739
 20
-21.5946
 11
1.93102
 21
-21.7286
  0
LINE
  8
0
 10
1.93102
 20
-21.7286
 11
1.94525
 21
-21.864
  0
LINE
  8
0
 10
1.94525
 20
-21.864
 11
1.95
 21
-22
  0
LINE
  8
0
 10
1.95
 20
-22
 11
1.94525
 21
-22.136
  0
LINE
  8
0
 10
1.94525
 20
-22.136
 11
1.93102
 21
-22.2714
  0
LINE
  8
0
 10
1.93102
 20
-22.2714
 11
1.90739
 21
-22.4054
  0
LINE
  8
0
 10
1.90739
 20
-22.4054
 11
1.87446
 21
-22.5375
  0
LINE
  8
0
 10
1.87446
 20
-22.5375
 11
1.8324
 21
-22.6669
  0
LINE
  8
0
 10
1.8324
 20
-22.6669
 11
1.78141
 21
-22.7931
  0
LINE
  8
0
 10
1.78141
 20
-22.7931
 11
1.72175
 21
-22.9155
  0
LINE
  8
0
 10
1.72175
 20
-22.9155
 11
1.65369
 21
-23.0333
  0
LINE
  8
0
 10
1.65369
 20
-23.0333
 11
1.57758
 21
-23.1462
  0
LINE
  8
0
 10
1.57758
 20
-23.1462
 11
1.49379
 21
-23.2534
  0
LINE
  8
0
 10
1.49379
 20
-23.2534
 11
1.40271
 21
-23.3546
  0
LINE
  8
0
 10
1.40271
 20
-23.3546
 11
1.3048
 21
-23.4491
  0
LINE
  8
0
 10
1.3048
 20
-23.4491
 11
1.20054
 21
-23.5366
  0
LINE
  8
0
 10
1.20054
 20
-23.5366
 11
1.09043
 21
-23.6166
  0
LINE
  8
0
 10
1.09043
 20
-23.6166
 11
0.974999
 21
-23.6887
  0
LINE
  8
0
 10
0.974999
 20
-23.6887
 11
0.854823
 21
-23.7526
  0
LINE
  8
0
 10
0.854823
 20
-23.7526
 11
0.730482
 21
-23.808
  0
LINE
  8
0
 10
0.730482
 20
-23.808
 11
0.602583
 21
-23.8546
  0
LINE
  8
0
 10
0.602583
 20
-23.8546
 11
0.471747
 21
-23.8921
  0
LINE
  8
0
 10
0.471747
 20
-23.8921
 11
0.338614
 21
-23.9204
  0
LINE
  8
0
 10
0.338614
 20
-23.9204
 11
0.20383
 21
-23.9393
  0
LINE
  8
0
 10
0.20383
 20
-23.9393
 11
0.0680532
 21
-23.9488
  0
LINE
  8
0
 10
0.0680532
 20
-23.9488
 11
-0.0680532
 21
-23.9488
  0
LINE
  8
0
 10
-0.0680532
 20
-23.9488
 11
-0.20383
 21
-23.9393
  0
LINE
  8
0
 10
-0.20383
 20
-23.9393
 11
-0.338614
 21
-23.9204
  0
LINE
  8
0
 10
-0.338614
 20
-23.9204
 11
-0.471747
 21
-23.8921
  0
LINE
  8
0
 10
-0.471747
 20
-23.8921
 11
-0.602583
 21
-23.8546
  0
LINE
  8
0
 10
-0.602583
 20
-23.8546
 11
-0.730482
 21
-23.808
  0
LINE
  8
0
 10
-0.730482
 20
-23.808
 11
-0.854823
 21
-23.7526
  0
LINE
  8
0
 10
-0.854823
 20
-23.7526
 11
-0.974999
 21
-23.6887
  0
LINE
  8
0
 10
-0.974999
 20
-23.6887
 11
-1.09043
 21
-23.6166
  0
LINE
  8
0
 10
-1.09043
 20
-23.6166
 11
-1.20054
 21
-23.5366
  0
LINE
  8
0
 10
-1.20054
 20
-23.5366
 11
-1.3048
 21
-23.4491
  0
LINE
  8
0
 10
-1.3048
 20
-23.4491
 11
-1.40271
 21
-23.3546
  0
LINE
  8
0
 10
-1.40271
 20
-23.3546
 11
-1.49379
 21
-23.2534
  0
LINE
  8
0
 10
-1.49379
 20
-23.2534
 11
-1.57758
 21
-23.1462
  0
LINE
  8
0
 10
-1.57758
 20
-23.1462
 11
-1.65369
 21
-23.0333
  0
LINE
  8
0
 10
-1.65369
 20
-23.0333
 11
-1.72175
 21
-22.9155
  0
LINE
  8
0
 10
-1.72175
 20
-22.9155
 11
-1.78141
 21
-22.7931
  0
LINE
  8
0
 10
-1.78141
 20
-22.7931
 11
-1.8324
 21
-22.6669
  0
LINE
  8
0
 10
-1.8324
 20
-22.6669
 11
-1.87446
 21
-22.5375
  0
LINE
  8
0
 10
-1.87446
 20
-22.5375
 11
-1.90739
 21
-22.4054
  0
LINE
  8
0
 10
-1.90739
 20
-22.4054
 11
-1.93102
 21
-22.2714
  0
LINE
  8
0
 10
-1.93102
 20
-22.2714
 11
-1.94525
 21
-22.136
  0
LINE
  8
0
 10
-1.94525
 20
-22.136
 11
-1.95
 21
-22
  0
LINE
  8
0
 10
-1.95
 20
22
 11
-1.94525
 21
22.136
  0
LINE
  8
0
 10
-1.94525
 20
22.136
 11
-1.93102
 21
22.2714
  0
LINE
  8
0
 10
-1.93102
 20
22.2714
 11
-1.90739
 21
22.4054
  0
LINE
  8
0
 10
-1.90739
 20
22.4054
 11
-1.87446
 21
22.5375
  0
LINE
  8
0
 10
-1.87446
 20
22.5375
 11
-1.8324
 21
22.6669
  0
LINE
  8
0
 10
-1.8324
 20
22.6669
 11
-1.78141
 21
22.7931
  0
LINE
  8
0
 10
-1.78141
 20
22.7931
 11
-1.72175
 21
22.9155
  0
LINE
  8
0
 10
-1.72175
 20
22.9155
 11
-1.65369
 21
23.0333
  0
LINE
  8
0
 10
-1.65369
 20
23.0333
 11
-1.57758
 21
23.1462
  0
LINE
  8
0
 10
-1.57758
 20
23.1462
 11
-1.49379
 21
23.2534
  0
LINE
  8
0
 10
-1.49379
 20
23.2534
 11
-1.40271
 21
23.3546
  0
LINE
  8
0
 10
-1.40271
 20
23.3546
 11
-1.3048
 21
23.4491
  0
LINE
  8
0
 10
-1.3048
 20
23.4491
 11
-1.20054
 21
23.5366
  0
LINE
  8
0
 10
-1.20054
 20
23.5366
 11
-1.09043
 21
23.6166
  0
LINE
  8
0
 10
-1.09043
 20
23.6166
 11
-0.974999
 21
23.6887
  0
LINE
  8
0
 10
-0.974999
 20
23.6887
 11
-0.854823
 21
23.7526
  0
LINE
  8
0
 10
-0.854823
 20
23.7526
 11
-0.730482
 21
23.808
  0
LINE
  8
0
 10
-0.730482
 20
23.808
 11
-0.602583
 21
23.8546
  0
LINE
  8
0
 10
-0.602583
 20
23.8546
 11
-0.471747
 21
23.8921
  0
LINE
  8
0
 10
-0.471747
 20
23.8921
 11
-0.338614
 21
23.9204
  0
LINE
  8
0
 10
-0.338614
 20
23.9204
 11
-0.20383
 21
23.9393
  0
LINE
  8
0
 10
-0.20383
 20
23.9393
 11
-0.0680532
 21
23.9488
  0
LINE
  8
0
 10
-0.0680532
 20
23.9488
 11
0.0680532
 21
23.9488
  0
LINE
  8
0
 10
0.0680532
 20
23.9488
 11
0.20383
 21
23.9393
  0
LINE
  8
0
 10
0.20383
 20
23.9393
 11
0.338614
 21
23.9204
  0
LINE
  8
0
 10
0.338614
 20
23.9204
 11
0.471747
 21
23.8921
  0
LINE
  8
0
 10
0.471747
 20
23.8921
 11
0.602583
 21
23.8546
  0
LINE
  8
0
 10
0.602583
 20
23.8546
 11
0.730482
 21
23.808
  0
LINE
  8
0
 10
0.730482
 20
23.808
 11
0.854823
 21
23.7526
  0
LINE
  8
0
 10
0.854823
 20
23.7526
 11
0.974999
 21
23.6887
  0
LINE
  8
0
 10
0.974999
 20
23.6887
 11
1.09043
 21
23.6166
  0
LINE
  8
0
 10
1.09043
 20
23.6166
 11
1.20054
 21
23.5366
  0
LINE
  8
0
 10
1.20054
 20
23.5366
 11
1.3048
 21
23.4491
  0
LINE
  8
0
 10
1.3048
 20
23.4491
 11
1.40271
 21
23.3546
  0
LINE
  8
0
 10
1.40271
 20
23.3546
 11
1.49379
 21
23.2534
  0
LINE
  8
0
 10
1.49379
 20
23.2534
 11
1.57758
 21
23.1462
  0
LINE
  8
0
 10
1.57758
 20
23.1462
 11
1.65369
 21
23.0333
  0
LINE
  8
0
 10
1.65369
 20
23.0333
 11
1.72175
 21
22.9155
  0
LINE
  8
0
 10
1.72175
 20
22.9155
 11
1.78141
 21
22.7931
  0
LINE
  8
0
 10
1.78141
 20
22.7931
 11
1.8324
 21
22.6669
  0
LINE
  8
0
 10
1.8324
 20
22.6669
 11
1.87446
 21
22.5375
  0
LINE
  8
0
 10
1.87446
 20
22.5375
 11
1.90739
 21
22.4054
  0
LINE
  8
0
 10
1.90739
 20
22.4054
 11
1.93102
 21
22.2714
  0
LINE
  8
0
 10
1.93102
 20
22.2714
 11
1.94525
 21
22.136
  0
LINE
  8
0
 10
1.94525
 20
22.136
 11
1.95
 21
22
  0
LINE
  8
0
 10
1.95
 20
22
 11
1.94525
 21
21.864
  0
LINE
  8
0
 10
1.94525
 20
21.864
 11
1.93102
 21
21.7286
  0
LINE
  8
0
 10
1.93102
 20
21.7286
 11
1.90739
 21
21.5946
  0
LINE
  8
0
 10
1.90739
 20
21.5946
 11
1.87446
 21
21.4625
  0
LINE
  8
0
 10
1.87446
 20
21.4625
 11
1.8324
 21
21.3331
  0
LINE
  8
0
 10
1.8324
 20
21.3331
 11
1.78141
 21
21.2069
  0
LINE
  8
0
 10
1.78141
 20
21.2069
 11
1.72175
 21
21.0845
  0
LINE
  8
0
 10
1.72175
 20
21.0845
 11
1.65369
 21
20.9667
  0
LINE
  8
0
 10
1.65369
 20
20.9667
 11
1.57758
 21
20.8538
  0
LINE
  8
0
 10
1.57758
 20
20.8538
 11
1.49379
 21
20.7466
  0
LINE
  8
0
 10
1.49379
 20
20.7466
 11
1.40271
 21
20.6454
  0
LINE
  8
0
 10
1.40271
 20
20.6454
 11
1.3048
 21
20.5509
  0
LINE
  8
0
 10
1.3048
 20
20.5509
 11
1.20054
 21
20.4634
  0
LINE
  8
0
 10
1.20054
 20
20.4634
 11
1.09043
 21
20.3834
  0
LINE
  8
0
 10
1.09043
 20
20.3834
 11
0.974999
 21
20.3112
  0
LINE
  8
0
 10
0.974999
 20
20.3112
 11
0.854823
 21
20.2474
  0
LINE
  8
0
 10
0.854823
 20
20.2474
 11
0.730482
 21
20.192
  0
LINE
  8
0
 10
0.730482
 20
20.192
 11
0.602583
 21
20.1454
  0
LINE
  8
0
 10
0.602583
 20
20.1454
 11
0.471747
 21
20.1079
  0
LINE
  8
0
 10
0.471747
 20
20.1079
 11
0.338614
 21
20.0796
  0
LINE
  8
0
 10
0.338614
 20
20.0796
 11
0.20383
 21
20.0607
  0
LINE
  8
0
 10
0.20383
 20
20.0607
 11
0.0680532
 21
20.0512
  0
LINE
  8
0
 10
0.0680532
 20
20.0512
 11
-0.0680532
 21
20.0512
  0
LINE
  8
0
 10
-0.0680532
 20
20.0512
 11
-0.20383
 21
20.0607
  0
LINE
  8
0
 10
-0.20383
 20
20.0607
 11
-0.338614
 21
20.0796
  0
LINE
  8
0
 10
-0.338614
 20
20.0796
 11
-0.471747
 21
20.1079
  0
LINE
  8
0
 10
-0.471747
 20
20.1079
 11
-0.602583
 21
20.1454
  0
LINE
  8
0
 10
-0.602583
 20
20.1454
 11
-0.730482
 21
20.192
  0
LINE
  8
0
 10
-0.730482
 20
20.192
 11
-0.854823
 21
20.2474
  0
LINE
  8
0
 10
-0.854823
 20
20.2474
 11
-0.974999
 21
20.3112
  0
LINE
  8
0
 10
-0.974999
 20
20.3112
 11
-1.09043
 21
20.3834
  0
LINE
  8
0
 10
-1.09043
 20
20.3834
 11
-1.20054
 21
20.4634
  0
LINE
  8
0
 10
-1.20054
 20
20.4634
 11
-1.3048
 21
20.5509
  0
LINE
  8
0
 10
-1.3048
 20
20.5509
 11
-1.40271
 21
20.6454
  0
LINE
  8
0
 10
-1.40271
 20
20.6454
 11
-1.49379
 21
20.7466
  0
LINE
  8
0
 10
-1.49379
 20
20.7466
 11
-1.57758
 21
20.8538
  0
LINE
  8
0
 10
-1.57758
 20
20.8538
 11
-1.65369
 21
20.9667
  0
LINE
  8
0
 10
-1.65369
 20
20.9667
 11
-1.72175
 21
21.0845
  0
LINE
  8
0
 10
-1.72175
 20
21.0845
 11
-1.78141
 21
21.2069
  0
LINE
  8
0
 10
-1.78141
 20
21.2069
 11
-1.8324
 21
21.3331
  0
LINE
  8
0
 10
-1.8324
 20
21.3331
 11
-1.87446
 21
21.4625
  0
LINE
  8
0
 10
-1.87446
 20
21.4625
 11
-1.90739
 21
21.5946
  0
LINE
  8
0
 10
-1.90739
 20
21.5946
 11
-1.93102
 21
21.7286
  0
LINE
  8
0
 10
-1.93102
 20
21.7286
 11
-1.94525
 21
21.864
  0
LINE
  8
0
 10
-1.94525
 20
21.864
 11
-1.95
 21
22
  0
ENDSEC
  0
SECTION
  2
OBJECTS
  0
DICTIONARY
  0
ENDSEC
  0
EOF
