<?xml version="1.0" standalone="no"?>
<!DOCTYPE svg PUBLIC "-//W3C//DTD SVG 1.1//EN" "http://www.w3.org/Graphics/SVG/1.1/DTD/svg11.dtd">
<svg width="82" height="167" viewBox="-64 -90 82 167" xmlns="http://www.w3.org/2000/svg" version="1.1">
<title>OpenSCAD Model</title>
<path d="
M -63.7,-78.2 L -63.672,-76.0613 L -63.588,-73.9242 L -63.4481,-71.7899 L -63.2524,-69.66 L -63.001,-67.536
 L -62.6941,-65.4193 L -62.3319,-63.3114 L -61.9147,-61.2136 L -61.4426,-59.1275 L -60.9161,-57.0545 L -60.3356,-54.9959
 L -59.7013,-52.9533 L -59.0138,-50.928 L -58.2735,-48.9213 L -57.481,-46.9348 L -56.6367,-44.9696 L -55.7412,-43.0272
 L -54.7952,-41.109 L -53.7994,-39.2161 L -52.7543,-37.35 L -51.6607,-35.5119 L -50.5194,-33.703 L -49.9676,-32.8772
 L -49.9791,-32.8647 L -49.6525,-32.3958 L -46.6777,-27.8756 L -43.8222,-23.2792 L -41.088,-18.6095 L -38.477,-13.8699
 L -35.9909,-9.06352 L -33.6315,-4.19373 L -31.4004,0.73614 L -29.2991,5.72273 L -27.3291,10.7626 L -25.4917,15.8523
 L -23.7881,20.9884 L -22.2195,26.1673 L -21.9363,27.1993 L 3.85,76.2 L 17.6,76.2 L 17.6,71.3397
 L 16.8502,71.3397 L 14.6008,70.8616 L 12.5,69.9263 L 10.6396,68.5746 L 9.10081,66.8656 L 7.951,64.8741
 L 7.24038,62.687 L 7.24038,62.687 L 7,60.4 L 7,60.4 L 7,60.4 L 7.24038,58.113
 L 7.29846,57.9342 L 7.30465,57.8813 L 7.36096,57.7146 L 7.36978,57.646 L 7.42393,57.4917 L 7.4358,57.4073
 L 7.48739,57.2656 L 7.50271,57.165 L 7.55133,57.0361 L 7.57053,56.9193 L 7.61436,56.8071 L 7.61636,56.7727
 L 7.62989,56.7234 L 7.63928,56.6701 L 7.6555,56.63 L 7.65927,56.6162 L 7.66836,56.4863 L 7.70958,56.3425
 L 7.72151,56.1963 L 7.76065,56.0655 L 7.77584,55.9028 L 7.8125,55.7853 L 7.83137,55.6058 L 7.86469,55.5033
 L 7.86544,55.4993 L 7.86959,55.4638 L 7.86842,55.3637 L 7.90916,55.1604 L 7.90916,55.0314 L 7.94962,54.841
 L 7.95132,54.6956 L 7.99112,54.5185 L 7.99489,54.3564 L 8.03366,54.1928 L 8.03991,54.0137 L 8.07725,53.864
 L 8.08639,53.6677 L 8.12189,53.5321 L 8.13434,53.3183 L 8.16761,53.197 L 8.18379,52.9656 L 8.21439,52.8589
 L 8.22752,52.698 L 8.22645,52.6796 L 8.23199,52.6432 L 8.23474,52.6096 L 8.23959,52.5934 L 8.26728,52.4118
 L 8.26195,52.2973 L 8.30371,52.0432 L 8.29912,51.9117 L 8.34145,51.6716 L 8.33798,51.5228 L 8.38049,51.2971
 L 8.37856,51.1306 L 8.42085,50.9195 L 8.42085,50.7352 L 8.46253,50.5391 L 8.46489,50.3366 L 8.50554,50.1557
 L 8.51068,49.9348 L 8.54988,49.7694 L 8.55824,49.53 L 8.59556,49.3803 L 8.60758,49.1221 L 8.64258,48.9883
 L 8.65873,48.7111 L 8.69096,48.5936 L 8.71169,48.2972 L 8.7407,48.196 L 8.751,48.0698 L 8.74822,48.0301
 L 8.7626,47.9277 L 8.76647,47.8803 L 8.77174,47.8627 L 8.7942,47.7029 L 8.78776,47.5924 L 8.83527,47.2807
 L 8.82926,47.1517 L 8.8779,46.8558 L 8.87274,46.7081 L 8.92209,46.4282 L 8.91821,46.2616 L 8.96784,45.9981
 L 8.96567,45.8122 L 9.01516,45.5653 L 9.01516,45.36 L 9.06405,45.1299 L 9.06667,44.905 L 9.11453,44.6921
 L 9.12022,44.4473 L 9.16658,44.2517 L 9.17583,43.9869 L 9.2,43.8899 L 9.2,42.4 L 9.2,42.1524
 L 9.03422,41.9847 L 8.85064,41.8577 L 8.60701,41.5995 L 8.42762,41.4692 L 8.19193,41.2074 L 8.01714,41.0741
 L 7.78914,40.8087 L 7.61933,40.6728 L 7.39877,40.4037 L 7.23431,40.2657 L 7.02098,39.9926 L 6.8622,39.853
 L 6.65589,39.5758 L 6.5031,39.435 L 6.30363,39.1536 L 6.15711,39.0121 L 5.96432,38.7263 L 5.82432,38.5847
 L 5.63808,38.2942 L 5.50481,38.153 L 5.325,37.8576 L 5.19867,37.7173 L 5.02519,37.4168 L 4.90595,37.2781
 L 4.73874,36.9722 L 4.62673,36.8355 L 4.46573,36.524 L 4.36105,36.39 L 4.20625,36.0727 L 4.10896,35.942
 L 3.96036,35.6184 L 3.87049,35.4916 L 3.72813,35.1616 L 3.64568,35.0394 L 3.5096,34.7026 L 3.43454,34.5855
 L 3.30484,34.2416 L 3.23708,34.1303 L 3.11387,33.7792 L 3.05332,33.6743 L 2.93674,33.3155 L 2.88325,33.2176
 L 2.80769,32.9653 L 2.78422,32.9072 L 2.77551,32.8578 L 2.77345,32.8509 L 2.72685,32.7607 L 2.67525,32.5725
 L 2.62293,32.4338 L 2.61177,32.3606 L 2.58412,32.3039 L 2.55422,32.184 L 2.47576,31.9604 L 2.46366,31.8664
 L 2.45502,31.8475 L 2.44434,31.8 L 2.3427,31.4872 L 2.33053,31.3714 L 2.22371,31.0146 L 2.21338,30.8881
 L 2.11875,30.543 L 2.11074,30.4053 L 2.02779,30.0726 L 2.02258,29.9235 L 1.95076,29.6039 L 1.94888,29.4429
 L 1.8876,29.1371 L 1.88961,28.964 L 1.83824,28.6727 L 1.84472,28.4872 L 1.8026,28.2109 L 1.81414,28.0127
 L 1.7806,27.752 L 1.79783,27.541 L 1.77214,27.2965 L 1.7957,27.0723 L 1.77711,26.8446 L 1.80767,26.6072
 L 1.79542,26.3967 L 1.83366,26.1458 L 1.82693,25.9532 L 1.87356,25.6887 L 1.87153,25.5142 L 1.92727,25.2361
 L 1.92908,25.0801 L 1.99466,24.7884 L 1.99944,24.6514 L 2.07561,24.3459 L 2.08247,24.2282 L 2.16999,23.909
 L 2.178,23.8108 L 2.27765,23.478 L 2.28588,23.3997 L 2.31054,23.3238 L 2.32345,23.2594 L 2.35444,23.1875
 L 2.43334,22.8365 L 2.47404,22.7479 L 2.55577,22.42 L 2.60709,22.3148 L 2.69057,22.0104 L 2.75343,21.8888
 L 2.83754,21.6078 L 2.91285,21.4701 L 2.99651,21.2126 L 3.08518,21.059 L 3.16726,20.8251 L 3.2702,20.656
 L 3.3496,20.4455 L 3.46771,20.2613 L 3.54332,20.0741 L 3.67749,19.8752 L 3.74819,19.7113 L 3.8993,19.4981
 L 3.964,19.3573 L 4.13292,19.1304 L 4.19052,19.0123 L 4.3781,18.7722 L 4.4275,18.6766 L 4.63458,18.4239
 L 4.67471,18.3505 L 4.81995,18.1814 L 4.82925,18.1677 L 4.84419,18.1532 L 4.89304,18.0964 L 4.90906,18.0738
 L 4.93189,18.0342 L 4.95636,18.007 L 5.07814,17.8353 L 5.13851,17.7796 L 5.33724,17.5127 L 5.4168,17.4427
 L 5.60631,17.2001 L 5.70584,17.1166 L 5.88507,16.8979 L 6.00536,16.8017 L 6.17327,16.6062 L 6.31505,16.4981
 L 6.47064,16.3253 L 6.63461,16.2061 L 6.7769,16.0553 L 6.96373,15.9261 L 7.09176,15.7966 L 7.30209,15.6582
 L 7.41494,15.5493 L 7.64937,15.4028 L 7.74616,15.3136 L 8.00524,15.1599 L 8.0851,15.0897 L 8.36936,14.93
 L 8.43148,14.8778 L 8.63926,14.7674 L 8.66828,14.7473 L 8.70894,14.7303 L 8.72986,14.7192 L 8.7516,14.7049
 L 8.78499,14.6782 L 8.81558,14.6628 L 9.01307,14.5329 L 9.08873,14.5034 L 9.36514,14.3307 L 9.4652,14.2942
 L 9.72418,14.1407 L 9.849,14.0985 L 10.0899,13.9631 L 10.2398,13.9164 L 10.4619,13.7982 L 10.6371,13.748
 L 10.84,13.6461 L 11.0407,13.5936 L 11.2238,13.5069 L 11.4502,13.4532 L 11.613,13.3808 L 11.8651,13.3272
 L 12.0072,13.2679 L 12.2852,13.2155 L 12.4061,13.1683 L 12.71,13.1183 L 12.8094,13.0821 L 13.1391,13.0358
 L 13.2168,13.0096 L 13.4249,12.9852 L 13.4614,12.9766 L 13.5083,12.9755 L 13.5337,12.9725 L 13.6092,12.9565
 L 13.6278,12.9507 L 13.6434,12.9492 L 13.8623,12.9027 L 13.9461,12.9027 L 14.2671,12.8422 L 14.3747,12.8447
 L 14.6753,12.7953 L 14.8066,12.8014 L 15.0867,12.7621 L 15.2414,12.7729 L 15.5008,12.7426 L 15.6787,12.7592
 L 15.9175,12.7369 L 16.1181,12.7603 L 16.3362,12.7451 L 16.5592,12.7764 L 16.7568,12.7672 L 17.0016,12.8074
 L 17.1787,12.8033 L 17.4449,12.8534 L 17.6,12.8534 L 17.6,-0 L 17.5759,-0.921112 L 17.5036,-1.8397
 L 17.3833,-2.75325 L 17.2154,-3.65925 L 17.0003,-4.55521 L 16.7386,-5.4387 L 16.431,-6.30728 L 16.0784,-7.15856
 L 15.6817,-7.99023 L 15.242,-8.8 L 14.7606,-9.58565 L 14.2387,-10.345 L 13.6778,-11.076 L 13.0793,-11.7767
 L 12.4451,-12.4451 L 11.7767,-13.0793 L 11.076,-13.6778 L 10.345,-14.2387 L 9.58565,-14.7606 L 8.8,-15.242
 L 7.99023,-15.6817 L 7.15856,-16.0784 L 6.30728,-16.431 L 5.4387,-16.7386 L -15.7043,-24.0696 L -16.4031,-24.4373
 L -18.05,-25.3596 L -19.6721,-26.3246 L -21.2685,-27.3319 L -22.8379,-28.3805 L -24.3793,-29.4699 L -25.8917,-30.5992
 L -27.374,-31.7678 L -28.8252,-32.9747 L -30.2443,-34.2193 L -31.6304,-35.5005 L -32.9824,-36.8176 L -34.2995,-38.1696
 L -35.5807,-39.5557 L -36.8253,-40.9748 L -38.0322,-42.426 L -39.2008,-43.9083 L -40.3301,-45.4207 L -41.4195,-46.9621
 L -42.4681,-48.5315 L -43.4754,-50.1279 L -44.4404,-51.75 L -45.3627,-53.3969 L -46.2416,-55.0673 L -47.0764,-56.7601
 L -47.8666,-58.4743 L -48.6117,-60.2085 L -49.3111,-61.9617 L -49.9645,-63.7325 L -50.5712,-65.5199 L -51.1309,-67.3225
 L -51.6433,-69.1391 L -52.1079,-70.9686 L -52.5244,-72.8096 L -52.8927,-74.6608 L -53.2123,-76.5211 L -53.4832,-78.3891
 L -53.5819,-79.2232 L -48.5118,-80.3008 L -48.2675,-80.3595 L -48.0265,-80.4309 L -47.7896,-80.5148 L -47.5574,-80.6109
 L -47.3306,-80.7191 L -47.1098,-80.839 L -46.8955,-80.9703 L -46.6884,-81.1127 L -46.489,-81.2657 L -46.298,-81.4289
 L -46.1157,-81.6018 L -45.9427,-81.7841 L -45.7795,-81.9752 L -45.6265,-82.1746 L -45.4842,-82.3817 L -45.3529,-82.596
 L -45.233,-82.8168 L -45.1248,-83.0436 L -45.0286,-83.2758 L -44.9447,-83.5127 L -44.8733,-83.7536 L -44.8147,-83.998
 L -44.7689,-84.2451 L -44.7361,-84.4942 L -44.7164,-84.7447 L -44.7098,-84.996 L -44.7164,-85.2472 L -44.7361,-85.4977
 L -44.7689,-85.7468 L -44.8147,-85.9939 L -44.8733,-86.2383 L -44.9447,-86.4792 L -45.0286,-86.7161 L -45.1248,-86.9483
 L -45.233,-87.1751 L -45.3529,-87.396 L -45.4842,-87.6102 L -45.6265,-87.8173 L -45.7795,-88.0167 L -45.9427,-88.2078
 L -46.1157,-88.3901 L -46.298,-88.563 L -46.489,-88.7263 L -46.6884,-88.8792 L -46.8955,-89.0216 L -47.1098,-89.1529
 L -47.3306,-89.2728 L -47.5574,-89.381 L -47.7896,-89.4771 L -48.0265,-89.561 L -48.2675,-89.6324 L -48.5118,-89.6911
 L -48.7589,-89.7369 L -49.008,-89.7697 L -49.2586,-89.7894 L -49.5098,-89.796 L -49.761,-89.7894 L -50.0115,-89.7697
 L -50.2607,-89.7369 L -50.5078,-89.6911 L -59.898,-87.6951 L -60.1423,-87.6364 L -60.3833,-87.5651 L -60.6202,-87.4812
 L -60.8523,-87.385 L -61.0792,-87.2768 L -61.3,-87.1569 L -61.5143,-87.0256 L -61.7214,-86.8833 L -61.9207,-86.7303
 L -62.1118,-86.5671 L -62.2941,-86.3941 L -62.4671,-86.2118 L -62.6303,-86.0207 L -62.7833,-85.8214 L -62.9256,-85.6143
 L -63.0569,-85.4 L -63.1768,-85.1792 L -63.285,-84.9523 L -63.3812,-84.7202 L -63.4651,-84.4833 L -63.5364,-84.2423
 L -63.5951,-83.998 L -63.6409,-83.7509 L -63.6737,-83.5017 L -63.6934,-83.2512 L -63.7,-83 L -63.6934,-82.7488
 L -63.6737,-82.4983 L -63.6409,-82.2491 L -63.6046,-82.0534 L -63.672,-80.3387 z
M -10.975,1.64786 L -10.975,-1.64786 L -10.9633,-1.73642 L -10.8574,-2.30782 L -10.7218,-2.87289 L -10.5567,-3.43009
 L -10.3627,-3.97788 L -10.1404,-4.51478 L -9.89017,-5.03929 L -9.61288,-5.55 L -9.30924,-6.04549 L -8.98009,-6.52442
 L -8.62632,-6.98546 L -8.24891,-7.42735 L -7.84888,-7.84888 L -7.42735,-8.24891 L -6.98546,-8.62632 L -6.52442,-8.98009
 L -6.04549,-9.30924 L -5.55,-9.61288 L -5.03929,-9.89017 L -4.51478,-10.1404 L -3.97788,-10.3627 L -3.43009,-10.5567
 L -2.87289,-10.7218 L -2.30782,-10.8574 L -1.73642,-10.9633 L -1.45796,-11 L 1.45796,-11 L 1.73642,-10.9633
 L 2.30782,-10.8574 L 2.87289,-10.7218 L 3.43009,-10.5567 L 3.97788,-10.3627 L 4.51478,-10.1404 L 5.03929,-9.89017
 L 5.55,-9.61288 L 6.04549,-9.30924 L 6.52442,-8.98009 L 6.98546,-8.62632 L 7.42735,-8.24891 L 7.84888,-7.84888
 L 8.24891,-7.42735 L 8.62632,-6.98546 L 8.98009,-6.52442 L 9.30924,-6.04549 L 9.61288,-5.55 L 9.89017,-5.03929
 L 10.1404,-4.51478 L 10.3627,-3.97788 L 10.5567,-3.43009 L 10.7218,-2.87289 L 10.8574,-2.30782 L 10.9633,-1.73642
 L 10.975,-1.64786 L 10.975,1.64786 L 10.9633,1.73642 L 10.8574,2.30782 L 10.7218,2.87289 L 10.5567,3.43009
 L 10.3627,3.97788 L 10.1404,4.51478 L 9.89017,5.03929 L 9.61288,5.55 L 9.30924,6.04549 L 8.98009,6.52442
 L 8.62632,6.98546 L 8.24891,7.42735 L 7.84888,7.84888 L 7.42735,8.24891 L 6.98546,8.62632 L 6.52442,8.98009
 L 6.04549,9.30924 L 5.55,9.61288 L 5.03929,9.89017 L 4.51478,10.1404 L 3.97788,10.3627 L 3.43009,10.5567
 L 2.87289,10.7218 L 2.30782,10.8574 L 1.73642,10.9633 L 1.45796,11 L -1.45796,11 L -1.73642,10.9633
 L -2.30782,10.8574 L -2.87289,10.7218 L -3.43009,10.5567 L -3.97788,10.3627 L -4.51478,10.1404 L -5.03929,9.89017
 L -5.55,9.61288 L -6.04549,9.30924 L -6.52442,8.98009 L -6.98546,8.62632 L -7.42735,8.24891 L -7.84888,7.84888
 L -8.24891,7.42735 L -8.62632,6.98546 L -8.98009,6.52442 L -9.30924,6.04549 L -9.61288,5.55 L -9.89017,5.03929
 L -10.1404,4.51478 L -10.3627,3.97788 L -10.5567,3.43009 L -10.7218,2.87289 L -10.8574,2.30782 L -10.9633,1.73642
 z
" stroke="black" fill="lightgray" stroke-width="0.5"/></svg>
