<?xml version="1.0" standalone="no"?>
<!DOCTYPE svg PUBLIC "-//W3C//DTD SVG 1.1//EN" "http://www.w3.org/Graphics/SVG/1.1/DTD/svg11.dtd">
<svg width="64" height="64" viewBox="-32 -32 64 64" xmlns="http://www.w3.org/2000/svg" version="1.1">
<title>OpenSCAD Model</title>
<path d="
M -31.25,-0 L -31.0788,3.26651 L -30.5671,6.49724 L -29.7205,9.65678 L -28.5483,12.7105 L -27.0633,15.625
 L -25.2818,18.3683 L -23.2233,20.9103 L -20.9103,23.2233 L -18.3683,25.2818 L -15.625,27.0633 L -12.7105,28.5483
 L -9.65678,29.7205 L -6.49724,30.5671 L -3.26651,31.0788 L 0,31.25 L 3.26651,31.0788 L 6.49724,30.5671
 L 9.65678,29.7205 L 12.7105,28.5483 L 15.625,27.0633 L 18.3683,25.2818 L 20.9103,23.2233 L 23.2233,20.9103
 L 25.2818,18.3683 L 27.0633,15.625 L 28.5483,12.7105 L 29.7205,9.65678 L 30.5671,6.49724 L 31.0788,3.26651
 L 31.25,-0 L 31.0788,-3.26651 L 30.5671,-6.49724 L 29.7205,-9.65678 L 28.5483,-12.7105 L 27.0633,-15.625
 L 25.2818,-18.3683 L 23.2233,-20.9103 L 20.9103,-23.2233 L 18.3683,-25.2818 L 15.625,-27.0633 L 12.7105,-28.5483
 L 9.65678,-29.7205 L 6.49724,-30.5671 L 3.26651,-31.0788 L 0,-31.25 L -3.26651,-31.0788 L -6.49724,-30.5671
 L -9.65678,-29.7205 L -12.7105,-28.5483 L -15.625,-27.0633 L -18.3683,-25.2818 L -20.9103,-23.2233 L -23.2233,-20.9103
 L -25.2818,-18.3683 L -27.0633,-15.625 L -28.5483,-12.7105 L -29.7205,-9.65678 L -30.5671,-6.49724 L -31.0788,-3.26651
 z
M -3.55,5 L -3.55,-5 L 3.55,-5 L 3.55,5 z
" stroke="black" fill="lightgray" stroke-width="0.5"/></svg>
