<?xml version="1.0" standalone="no"?>
<!DOCTYPE svg PUBLIC "-//W3C//DTD SVG 1.1//EN" "http://www.w3.org/Graphics/SVG/1.1/DTD/svg11.dtd">
<svg width="18" height="20" viewBox="-9 -10 18 20" xmlns="http://www.w3.org/2000/svg" version="1.1">
<title>OpenSCAD Model</title>
<path d="
M -8.4,9.75 L -7.85782,9.75 L -7.62809,9.52815 L -7.01854,9.01668 L -6.3748,8.54897 L -5.7,8.12731
 L -4.99743,7.75375 L -4.27051,7.4301 L -3.52279,7.15796 L -2.75791,6.93863 L -1.97959,6.77319 L -1.19162,6.66245
 L -0.397854,6.60695 L 0.397854,6.60695 L 1.19162,6.66245 L 1.97959,6.77319 L 2.75791,6.93863 L 3.52279,7.15796
 L 4.27051,7.4301 L 4.99743,7.75375 L 5.7,8.12731 L 6.3748,8.54897 L 7.01854,9.01668 L 7.62809,9.52815
 L 7.85782,9.75 L 8.4,9.75 L 8.4,-9.75 L 7.85782,-9.75 L 7.62809,-9.52815 L 7.01854,-9.01668
 L 6.3748,-8.54897 L 5.7,-8.12731 L 4.99743,-7.75375 L 4.27051,-7.4301 L 3.52279,-7.15796 L 2.75791,-6.93863
 L 1.97959,-6.77319 L 1.19162,-6.66245 L 0.397854,-6.60695 L -0.397854,-6.60695 L -1.19162,-6.66245 L -1.97959,-6.77319
 L -2.75791,-6.93863 L -3.52279,-7.15796 L -4.27051,-7.4301 L -4.99743,-7.75375 L -5.7,-8.12731 L -6.3748,-8.54897
 L -7.01854,-9.01668 L -7.62809,-9.52815 L -7.85782,-9.75 L -8.4,-9.75 z
M -4,0.894168 L -4,-0.894168 L -3.94117,-1.13011 L -3.85274,-1.40228 L -3.74554,-1.66762 L -3.62008,-1.92483
 L -3.477,-2.17267 L -3.31697,-2.40992 L -3.14078,-2.63543 L -2.94929,-2.8481 L -2.74343,-3.04689 L -2.52421,-3.23084
 L -2.29269,-3.39905 L -2.05,-3.5507 L -1.79732,-3.68505 L -1.53589,-3.80145 L -1.26697,-3.89933 L -0.991879,-3.97821
 L -0.711957,-4.03771 L -0.428566,-4.07754 L -0.143087,-4.0975 L 0.143087,-4.0975 L 0.428566,-4.07754 L 0.711957,-4.03771
 L 0.991879,-3.97821 L 1.26697,-3.89933 L 1.53589,-3.80145 L 1.79732,-3.68505 L 2.05,-3.5507 L 2.29269,-3.39905
 L 2.52421,-3.23084 L 2.74343,-3.04689 L 2.94929,-2.8481 L 3.14078,-2.63543 L 3.31697,-2.40992 L 3.477,-2.17267
 L 3.62008,-1.92483 L 3.74554,-1.66762 L 3.85274,-1.40228 L 3.94117,-1.13011 L 4,-0.894168 L 4,0.894168
 L 3.94117,1.13011 L 3.85274,1.40228 L 3.74554,1.66762 L 3.62008,1.92483 L 3.477,2.17267 L 3.31697,2.40992
 L 3.14078,2.63543 L 2.94929,2.8481 L 2.74343,3.04689 L 2.52421,3.23084 L 2.38315,3.33333 L -2.38315,3.33333
 L -2.52421,3.23084 L -2.74343,3.04689 L -2.94929,2.8481 L -3.14078,2.63543 L -3.31697,2.40992 L -3.477,2.17267
 L -3.62008,1.92483 L -3.74554,1.66762 L -3.85274,1.40228 L -3.94117,1.13011 z
" stroke="black" fill="lightgray" stroke-width="0.5"/></svg>
