<?xml version="1.0" standalone="no"?>
<!DOCTYPE svg PUBLIC "-//W3C//DTD SVG 1.1//EN" "http://www.w3.org/Graphics/SVG/1.1/DTD/svg11.dtd">
<svg width="146" height="144" viewBox="-73 -61 146 144" xmlns="http://www.w3.org/2000/svg" version="1.1">
<title>OpenSCAD Model</title>
<path d="
M -73,72 L -72.9744,72.7324 L -72.8978,73.4613 L -72.7705,74.1831 L -72.5932,74.8942 L -72.3668,75.5912
 L -72.0922,76.2707 L -71.7709,76.9295 L -71.4045,77.5642 L -70.9947,78.1717 L -70.5435,78.7493 L -70.0531,79.2939
 L -69.5259,79.803 L -68.9644,80.2741 L -68.3715,80.7049 L -67.75,81.0933 L -67.1029,81.4373 L -66.4334,81.7354
 L -65.7447,81.9861 L -65.0402,82.1881 L -64.3233,82.3405 L -63.5975,82.4425 L -62.8664,82.4936 L 62.8664,82.4936
 L 63.5975,82.4425 L 64.3233,82.3405 L 65.0402,82.1881 L 65.7447,81.9861 L 66.4334,81.7354 L 67.1029,81.4373
 L 67.75,81.0933 L 68.3715,80.7049 L 68.9644,80.2741 L 69.5259,79.803 L 70.0531,79.2939 L 70.5435,78.7493
 L 70.9947,78.1717 L 71.4045,77.5642 L 71.7709,76.9295 L 72.0922,76.2707 L 72.3668,75.5912 L 72.5932,74.8942
 L 72.7705,74.1831 L 72.8978,73.4613 L 72.9744,72.7324 L 73,72 L 72.9744,71.2676 L 72.8978,70.5387
 L 72.7705,69.8169 L 72.5932,69.1058 L 72.3668,68.4088 L 72.0922,67.7293 L 71.7709,67.0705 L 71.4045,66.4358
 L 70.9947,65.8283 L 70.5435,65.2507 L 70.0531,64.7061 L 69.5259,64.197 L 68.9644,63.7259 L 68.3715,63.2951
 L 67.75,62.9067 L 67.1029,62.5627 L 66.4334,62.2646 L 65.7447,62.0139 L 65.0402,61.8119 L 64.3233,61.6595
 L 54.4304,60.189 L 46.7921,51.0676 L 46.7,50.9653 L 46.7,1.04437 L 67.1278,-50.4875 L 67.2831,-50.9654
 L 67.4046,-51.453 L 67.4919,-51.948 L 67.5444,-52.4478 L 67.562,-52.95 L 67.562,-52.95 L 67.562,-52.95
 L 67.5444,-53.4522 L 67.4919,-53.952 L 67.4046,-54.447 L 67.2831,-54.9346 L 67.1278,-55.4125 L 66.9395,-55.8785
 L 66.7192,-56.3302 L 66.4679,-56.7654 L 66.1869,-57.1821 L 65.8775,-57.5781 L 65.5412,-57.9515 L 65.1797,-58.3006
 L 64.7947,-58.6237 L 64.3882,-58.9191 L 63.962,-59.1854 L 63.5182,-59.4213 L 63.0591,-59.6257 L 62.5869,-59.7976
 L 62.1038,-59.9361 L 61.6122,-60.0406 L 61.1146,-60.1106 L 60.6132,-60.1456 L 60.1107,-60.1456 L 59.6094,-60.1106
 L 59.1117,-60.0406 L 58.6201,-59.9361 L 58.137,-59.7976 L 57.6648,-59.6257 L 57.2057,-59.4213 L 56.762,-59.1854
 L 56.3358,-58.9191 L 55.9292,-58.6237 L 55.5442,-58.3006 L 55.1827,-57.9515 L 54.8464,-57.5781 L 54.8464,-57.578
 L 42.6443,-42.1215 L 41.8207,-41.3534 L 40.1742,-39.9222 L 38.4788,-38.5493 L 36.7366,-37.2364 L 34.9496,-35.9852
 L 33.12,-34.797 L 31.25,-33.6734 L 29.342,-32.6158 L 27.3982,-31.6254 L 25.421,-30.7034 L 23.4129,-29.851
 L 21.3763,-29.0692 L 19.3136,-28.359 L 17.2273,-27.7211 L 15.1201,-27.1565 L 12.9945,-26.6658 L 10.853,-26.2495
 L 8.69832,-25.9082 L 8.03455,-25.8267 L 7.98885,-25.8434 L 7.77415,-25.9049 L 7.55567,-25.9514 L 7.33449,-25.9825
 L 7.11168,-25.998 L -7.11168,-25.998 L -7.33449,-25.9825 L -7.55567,-25.9514 L -7.77415,-25.9049 L -7.98885,-25.8434
 L -8.03455,-25.8267 L -8.69832,-25.9082 L -10.853,-26.2495 L -12.9945,-26.6658 L -15.1201,-27.1565 L -17.2273,-27.7211
 L -19.3136,-28.359 L -21.3763,-29.0692 L -23.4129,-29.851 L -25.421,-30.7034 L -27.3982,-31.6254 L -29.342,-32.6158
 L -31.25,-33.6734 L -33.12,-34.797 L -34.9496,-35.9852 L -36.7366,-37.2364 L -38.4788,-38.5493 L -40.1742,-39.9222
 L -41.8207,-41.3534 L -42.6443,-42.1215 L -54.8464,-57.578 L -54.8464,-57.5781 L -55.1827,-57.9515 L -55.5442,-58.3006
 L -55.9292,-58.6237 L -56.3358,-58.9191 L -56.762,-59.1854 L -57.2057,-59.4213 L -57.6648,-59.6257 L -58.137,-59.7976
 L -58.6201,-59.9361 L -59.1117,-60.0406 L -59.6094,-60.1106 L -60.1107,-60.1456 L -60.6132,-60.1456 L -61.1146,-60.1106
 L -61.6122,-60.0406 L -62.1038,-59.9361 L -62.5869,-59.7976 L -63.0591,-59.6257 L -63.5182,-59.4213 L -63.962,-59.1854
 L -64.3882,-58.9191 L -64.7947,-58.6237 L -65.1797,-58.3006 L -65.5412,-57.9515 L -65.8775,-57.5781 L -66.1869,-57.1821
 L -66.4679,-56.7654 L -66.7192,-56.3302 L -66.9395,-55.8785 L -67.1278,-55.4125 L -67.2831,-54.9346 L -67.4046,-54.447
 L -67.4919,-53.952 L -67.5444,-53.4522 L -67.562,-52.95 L -67.562,-52.95 L -67.562,-52.95 L -67.5444,-52.4478
 L -67.4919,-51.948 L -67.4046,-51.453 L -67.2831,-50.9654 L -67.1278,-50.4875 L -46.7,1.04437 L -46.7,50.9653
 L -46.7921,51.0676 L -54.4304,60.189 L -64.3233,61.6595 L -65.0402,61.8119 L -65.7447,62.0139 L -66.4334,62.2646
 L -67.1029,62.5627 L -67.75,62.9067 L -68.3715,63.2951 L -68.9644,63.7259 L -69.5259,64.197 L -70.0531,64.7061
 L -70.5435,65.2507 L -70.9947,65.8283 L -71.4045,66.4358 L -71.7709,67.0705 L -72.0922,67.7293 L -72.3668,68.4088
 L -72.5932,69.1058 L -72.7705,69.8169 L -72.8978,70.5387 L -72.9744,71.2676 z
M -66.6,72 L -66.59,71.714 L -66.5601,71.4294 L -66.5104,71.1476 L -66.4412,70.8699 L -66.3527,70.5977
 L -66.2455,70.3324 L -66.1201,70.0752 L -65.977,69.8273 L -65.817,69.5901 L -65.6408,69.3646 L -65.4493,69.1519
 L -65.2434,68.9531 L -65.0242,68.7692 L -64.7927,68.6009 L -64.55,68.4493 L -64.2973,68.3149 L -64.0359,68.1985
 L -63.767,68.1007 L -63.4919,68.0218 L -63.212,67.9623 L -62.9286,67.9225 L -62.6431,67.9025 L -62.3569,67.9025
 L -62.0714,67.9225 L -61.788,67.9623 L -61.5081,68.0218 L -61.233,68.1007 L -60.9641,68.1985 L -60.7027,68.3149
 L -60.45,68.4493 L -60.2073,68.6009 L -59.9758,68.7692 L -59.7566,68.9531 L -59.5507,69.1519 L -59.3592,69.3646
 L -59.183,69.5901 L -59.023,69.8273 L -58.8799,70.0752 L -58.7545,70.3324 L -58.6473,70.5977 L -58.5588,70.8699
 L -58.4896,71.1476 L -58.4399,71.4294 L -58.41,71.714 L -58.4,72 L -58.41,72.286 L -58.4399,72.5706
 L -58.4896,72.8524 L -58.5588,73.1301 L -58.6473,73.4023 L -58.7545,73.6676 L -58.8799,73.9248 L -59.023,74.1727
 L -59.183,74.4099 L -59.3592,74.6354 L -59.5507,74.8481 L -59.7566,75.0469 L -59.9758,75.2308 L -60.2073,75.3991
 L -60.45,75.5507 L -60.7027,75.6851 L -60.9641,75.8015 L -61.233,75.8993 L -61.5081,75.9782 L -61.788,76.0377
 L -62.0714,76.0775 L -62.3569,76.0975 L -62.6431,76.0975 L -62.9286,76.0775 L -63.212,76.0377 L -63.4919,75.9782
 L -63.767,75.8993 L -64.0359,75.8015 L -64.2973,75.6851 L -64.55,75.5507 L -64.7927,75.3991 L -65.0242,75.2308
 L -65.2434,75.0469 L -65.4493,74.8481 L -65.6408,74.6354 L -65.817,74.4099 L -65.977,74.1727 L -66.1201,73.9248
 L -66.2455,73.6676 L -66.3527,73.4023 L -66.4412,73.1301 L -66.5104,72.8524 L -66.5601,72.5706 L -66.59,72.286
 z
M -22.1,-0 L -22.09,-0.286001 L -22.0601,-0.570609 L -22.0104,-0.852437 L -21.9412,-1.13011 L -21.8527,-1.40228
 L -21.7455,-1.66762 L -21.6201,-1.92483 L -21.477,-2.17267 L -21.317,-2.40992 L -21.1408,-2.63543 L -20.9493,-2.8481
 L -20.7434,-3.04689 L -20.5242,-3.23084 L -20.2927,-3.39905 L -20.05,-3.5507 L -19.7973,-3.68505 L -19.5359,-3.80145
 L -19.267,-3.89933 L -18.9919,-3.97821 L -18.712,-4.03771 L -18.4286,-4.07754 L -18.1431,-4.0975 L -17.8569,-4.0975
 L -17.5714,-4.07754 L -17.288,-4.03771 L -17.0081,-3.97821 L -16.733,-3.89933 L -16.4641,-3.80145 L -16.2027,-3.68505
 L -15.95,-3.5507 L -15.7073,-3.39905 L -15.4758,-3.23084 L -15.2566,-3.04689 L -15.0507,-2.8481 L -14.8592,-2.63543
 L -14.683,-2.40992 L -14.523,-2.17267 L -14.3799,-1.92483 L -14.2545,-1.66762 L -14.1473,-1.40228 L -14.0588,-1.13011
 L -13.9896,-0.852437 L -13.9399,-0.570609 L -13.91,-0.286001 L -13.9,-0 L -13.91,0.286001 L -13.9399,0.570609
 L -13.9896,0.852437 L -14.0588,1.13011 L -14.1473,1.40228 L -14.2545,1.66762 L -14.3799,1.92483 L -14.523,2.17267
 L -14.683,2.40992 L -14.8592,2.63543 L -15.0507,2.8481 L -15.2566,3.04689 L -15.4758,3.23084 L -15.7073,3.39905
 L -15.95,3.5507 L -16.2027,3.68505 L -16.4641,3.80145 L -16.733,3.89933 L -17.0081,3.97821 L -17.288,4.03771
 L -17.5714,4.07754 L -17.8569,4.0975 L -18.1431,4.0975 L -18.4286,4.07754 L -18.712,4.03771 L -18.9919,3.97821
 L -19.267,3.89933 L -19.5359,3.80145 L -19.7973,3.68505 L -20.05,3.5507 L -20.2927,3.39905 L -20.5242,3.23084
 L -20.7434,3.04689 L -20.9493,2.8481 L -21.1408,2.63543 L -21.317,2.40992 L -21.477,2.17267 L -21.6201,1.92483
 L -21.7455,1.66762 L -21.8527,1.40228 L -21.9412,1.13011 L -22.0104,0.852437 L -22.0601,0.570609 L -22.09,0.286001
 z
M -9.35,48.65 L -9.3461,48.5384 L -9.33443,48.4273 L -9.31504,48.3173 L -9.28802,48.209 L -9.25351,48.1028
 L -9.21167,47.9992 L -9.16272,47.8988 L -9.10688,47.8021 L -9.04443,47.7095 L -8.97567,47.6215 L -8.90094,47.5385
 L -8.82061,47.461 L -8.73506,47.3892 L -8.64471,47.3235 L -8.55,47.2644 L -8.45139,47.2119 L -8.34937,47.1665
 L -8.24443,47.1283 L -8.13707,47.0975 L -8.02784,47.0743 L -7.91724,47.0588 L -7.80584,47.051 L -7.69416,47.051
 L -7.58275,47.0588 L -7.47216,47.0743 L -7.36292,47.0975 L -7.25557,47.1283 L -7.15063,47.1665 L -7.04861,47.2119
 L -6.95,47.2644 L -6.85529,47.3235 L -6.76494,47.3892 L -6.67939,47.461 L -6.59906,47.5385 L -6.52433,47.6215
 L -6.45557,47.7095 L -6.39312,47.8021 L -6.33728,47.8988 L -6.28833,47.9992 L -6.24649,48.1028 L -6.21198,48.209
 L -6.18496,48.3173 L -6.16557,48.4273 L -6.1539,48.5384 L -6.15,48.65 L -6.1539,48.7616 L -6.16557,48.8727
 L -6.18496,48.9827 L -6.21198,49.091 L -6.24649,49.1972 L -6.28833,49.3008 L -6.33728,49.4012 L -6.39312,49.4979
 L -6.45557,49.5905 L -6.52433,49.6785 L -6.59906,49.7615 L -6.67939,49.839 L -6.76494,49.9108 L -6.85529,49.9765
 L -6.95,50.0356 L -7.04861,50.0881 L -7.15063,50.1335 L -7.25557,50.1717 L -7.36292,50.2025 L -7.47216,50.2257
 L -7.58275,50.2412 L -7.69416,50.249 L -7.80584,50.249 L -7.91724,50.2412 L -8.02784,50.2257 L -8.13707,50.2025
 L -8.24443,50.1717 L -8.34937,50.1335 L -8.45139,50.0881 L -8.55,50.0356 L -8.64471,49.9765 L -8.73506,49.9108
 L -8.82061,49.839 L -8.90094,49.7615 L -8.97567,49.6785 L -9.04443,49.5905 L -9.10688,49.4979 L -9.16272,49.4012
 L -9.21167,49.3008 L -9.25351,49.1972 L -9.28802,49.091 L -9.31504,48.9827 L -9.33443,48.8727 L -9.3461,48.7616
 z
M -9.35,21.9 L -9.3461,21.7884 L -9.33443,21.6773 L -9.31504,21.5673 L -9.28802,21.459 L -9.25351,21.3528
 L -9.21167,21.2492 L -9.16272,21.1488 L -9.10688,21.0521 L -9.04443,20.9595 L -8.97567,20.8715 L -8.90094,20.7885
 L -8.82061,20.711 L -8.73506,20.6392 L -8.64471,20.5735 L -8.55,20.5144 L -8.45139,20.4619 L -8.34937,20.4165
 L -8.24443,20.3783 L -8.13707,20.3475 L -8.02784,20.3243 L -7.91724,20.3088 L -7.80584,20.301 L -7.69416,20.301
 L -7.58275,20.3088 L -7.47216,20.3243 L -7.36292,20.3475 L -7.25557,20.3783 L -7.15063,20.4165 L -7.04861,20.4619
 L -6.95,20.5144 L -6.85529,20.5735 L -6.76494,20.6392 L -6.67939,20.711 L -6.59906,20.7885 L -6.52433,20.8715
 L -6.45557,20.9595 L -6.39312,21.0521 L -6.33728,21.1488 L -6.28833,21.2492 L -6.24649,21.3528 L -6.21198,21.459
 L -6.18496,21.5673 L -6.16557,21.6773 L -6.1539,21.7884 L -6.15,21.9 L -6.1539,22.0116 L -6.16557,22.1227
 L -6.18496,22.2327 L -6.21198,22.341 L -6.24649,22.4472 L -6.28833,22.5508 L -6.33728,22.6512 L -6.39312,22.7479
 L -6.45557,22.8405 L -6.52433,22.9285 L -6.59906,23.0115 L -6.67939,23.089 L -6.76494,23.1608 L -6.85529,23.2265
 L -6.95,23.2856 L -7.04861,23.3381 L -7.15063,23.3835 L -7.25557,23.4217 L -7.36292,23.4525 L -7.47216,23.4757
 L -7.58275,23.4912 L -7.69416,23.499 L -7.80584,23.499 L -7.91724,23.4912 L -8.02784,23.4757 L -8.13707,23.4525
 L -8.24443,23.4217 L -8.34937,23.3835 L -8.45139,23.3381 L -8.55,23.2856 L -8.64471,23.2265 L -8.73506,23.1608
 L -8.82061,23.089 L -8.90094,23.0115 L -8.97567,22.9285 L -9.04443,22.8405 L -9.10688,22.7479 L -9.16272,22.6512
 L -9.21167,22.5508 L -9.25351,22.4472 L -9.28802,22.341 L -9.31504,22.2327 L -9.33443,22.1227 L -9.3461,22.0116
 z
M -6.8,42.4 L -6.78343,41.9257 L -6.73382,41.4536 L -6.6514,40.9862 L -6.53658,40.5257 L -6.38991,40.0743
 L -6.21211,39.6342 L -6.00404,39.2076 L -5.76673,38.7965 L -5.50132,38.4031 L -5.2091,38.029 L -4.89151,37.6763
 L -4.55009,37.3466 L -4.1865,37.0415 L -3.80251,36.7625 L -3.4,36.511 L -2.98092,36.2882 L -2.54732,36.0952
 L -2.10132,35.9328 L -1.64507,35.802 L -1.18081,35.7033 L -0.710793,35.6373 L -0.237316,35.6041 L 0.237316,35.6041
 L 0.710793,35.6373 L 1.18081,35.7033 L 1.64507,35.802 L 2.10132,35.9328 L 2.54732,36.0952 L 2.98092,36.2882
 L 3.4,36.511 L 3.80251,36.7625 L 4.1865,37.0415 L 4.55009,37.3466 L 4.89151,37.6763 L 5.2091,38.029
 L 5.50132,38.4031 L 5.76673,38.7965 L 6.00404,39.2076 L 6.21211,39.6342 L 6.38991,40.0743 L 6.53658,40.5257
 L 6.6514,40.9862 L 6.73382,41.4536 L 6.78343,41.9257 L 6.8,42.4 L 6.78343,42.8743 L 6.73382,43.3464
 L 6.6514,43.8138 L 6.53658,44.2743 L 6.38991,44.7257 L 6.21211,45.1658 L 6.00404,45.5924 L 5.76673,46.0035
 L 5.50132,46.3969 L 5.2091,46.771 L 4.89151,47.1237 L 4.55009,47.4534 L 4.1865,47.7585 L 3.80251,48.0375
 L 3.4,48.289 L 2.98092,48.5118 L 2.54732,48.7048 L 2.10132,48.8672 L 1.64507,48.998 L 1.18081,49.0967
 L 0.710793,49.1627 L 0.237316,49.1959 L -0.237316,49.1959 L -0.710793,49.1627 L -1.18081,49.0967 L -1.64507,48.998
 L -2.10132,48.8672 L -2.54732,48.7048 L -2.98092,48.5118 L -3.4,48.289 L -3.80251,48.0375 L -4.1865,47.7585
 L -4.55009,47.4534 L -4.89151,47.1237 L -5.2091,46.771 L -5.50132,46.3969 L -5.76673,46.0035 L -6.00404,45.5924
 L -6.21211,45.1658 L -6.38991,44.7257 L -6.53658,44.2743 L -6.6514,43.8138 L -6.73382,43.3464 L -6.78343,42.8743
 z
M -3.5,-9.75 L -3.5,-20.25 L 3.5,-20.25 L 3.5,-9.75 z
M -2.5,65.9 L -2.49391,65.7256 L -2.47567,65.5521 L -2.44537,65.3802 L -2.40315,65.2109 L -2.34923,65.0449
 L -2.28386,64.8832 L -2.20737,64.7263 L -2.12012,64.5752 L -2.02254,64.4305 L -1.91511,64.293 L -1.79835,64.1634
 L -1.67283,64.0421 L -1.53915,63.93 L -1.39798,63.8274 L -1.25,63.7349 L -1.09593,63.653 L -0.936516,63.582
 L -0.772542,63.5224 L -0.604804,63.4743 L -0.43412,63.438 L -0.261321,63.4137 L -0.0872478,63.4015 L 0.0872478,63.4015
 L 0.261321,63.4137 L 0.43412,63.438 L 0.604804,63.4743 L 0.772542,63.5224 L 0.936516,63.582 L 1.09593,63.653
 L 1.25,63.7349 L 1.39798,63.8274 L 1.53915,63.93 L 1.67283,64.0421 L 1.79835,64.1634 L 1.91511,64.293
 L 2.02254,64.4305 L 2.12012,64.5752 L 2.20737,64.7263 L 2.28386,64.8832 L 2.34923,65.0449 L 2.40315,65.2109
 L 2.44537,65.3802 L 2.47567,65.5521 L 2.49391,65.7256 L 2.5,65.9 L 2.49391,66.0744 L 2.47567,66.2479
 L 2.44537,66.4198 L 2.40315,66.5891 L 2.34923,66.755 L 2.28386,66.9168 L 2.20737,67.0737 L 2.12012,67.2248
 L 2.02254,67.3695 L 1.91511,67.507 L 1.79835,67.6366 L 1.67283,67.7579 L 1.53915,67.87 L 1.39798,67.9726
 L 1.25,68.0651 L 1.09593,68.147 L 0.936516,68.218 L 0.772542,68.2776 L 0.604804,68.3257 L 0.43412,68.362
 L 0.261321,68.3863 L 0.0872478,68.3985 L -0.0872478,68.3985 L -0.261321,68.3863 L -0.43412,68.362 L -0.604804,68.3257
 L -0.772542,68.2776 L -0.936516,68.218 L -1.09593,68.147 L -1.25,68.0651 L -1.39798,67.9726 L -1.53915,67.87
 L -1.67283,67.7579 L -1.79835,67.6366 L -1.91511,67.507 L -2.02254,67.3695 L -2.12012,67.2248 L -2.20737,67.0737
 L -2.28386,66.9168 L -2.34923,66.755 L -2.40315,66.5891 L -2.44537,66.4198 L -2.47567,66.2479 L -2.49391,66.0744
 z
M 6.15,48.65 L 6.1539,48.5384 L 6.16557,48.4273 L 6.18496,48.3173 L 6.21198,48.209 L 6.24649,48.1028
 L 6.28833,47.9992 L 6.33728,47.8988 L 6.39312,47.8021 L 6.45557,47.7095 L 6.52433,47.6215 L 6.59906,47.5385
 L 6.67939,47.461 L 6.76494,47.3892 L 6.85529,47.3235 L 6.95,47.2644 L 7.04861,47.2119 L 7.15063,47.1665
 L 7.25557,47.1283 L 7.36292,47.0975 L 7.47216,47.0743 L 7.58275,47.0588 L 7.69416,47.051 L 7.80584,47.051
 L 7.91724,47.0588 L 8.02784,47.0743 L 8.13707,47.0975 L 8.24443,47.1283 L 8.34937,47.1665 L 8.45139,47.2119
 L 8.55,47.2644 L 8.64471,47.3235 L 8.73506,47.3892 L 8.82061,47.461 L 8.90094,47.5385 L 8.97567,47.6215
 L 9.04443,47.7095 L 9.10688,47.8021 L 9.16272,47.8988 L 9.21167,47.9992 L 9.25351,48.1028 L 9.28802,48.209
 L 9.31504,48.3173 L 9.33443,48.4273 L 9.3461,48.5384 L 9.35,48.65 L 9.3461,48.7616 L 9.33443,48.8727
 L 9.31504,48.9827 L 9.28802,49.091 L 9.25351,49.1972 L 9.21167,49.3008 L 9.16272,49.4012 L 9.10688,49.4979
 L 9.04443,49.5905 L 8.97567,49.6785 L 8.90094,49.7615 L 8.82061,49.839 L 8.73506,49.9108 L 8.64471,49.9765
 L 8.55,50.0356 L 8.45139,50.0881 L 8.34937,50.1335 L 8.24443,50.1717 L 8.13707,50.2025 L 8.02784,50.2257
 L 7.91724,50.2412 L 7.80584,50.249 L 7.69416,50.249 L 7.58275,50.2412 L 7.47216,50.2257 L 7.36292,50.2025
 L 7.25557,50.1717 L 7.15063,50.1335 L 7.04861,50.0881 L 6.95,50.0356 L 6.85529,49.9765 L 6.76494,49.9108
 L 6.67939,49.839 L 6.59906,49.7615 L 6.52433,49.6785 L 6.45557,49.5905 L 6.39312,49.4979 L 6.33728,49.4012
 L 6.28833,49.3008 L 6.24649,49.1972 L 6.21198,49.091 L 6.18496,48.9827 L 6.16557,48.8727 L 6.1539,48.7616
 z
M 6.15,21.9 L 6.1539,21.7884 L 6.16557,21.6773 L 6.18496,21.5673 L 6.21198,21.459 L 6.24649,21.3528
 L 6.28833,21.2492 L 6.33728,21.1488 L 6.39312,21.0521 L 6.45557,20.9595 L 6.52433,20.8715 L 6.59906,20.7885
 L 6.67939,20.711 L 6.76494,20.6392 L 6.85529,20.5735 L 6.95,20.5144 L 7.04861,20.4619 L 7.15063,20.4165
 L 7.25557,20.3783 L 7.36292,20.3475 L 7.47216,20.3243 L 7.58275,20.3088 L 7.69416,20.301 L 7.80584,20.301
 L 7.91724,20.3088 L 8.02784,20.3243 L 8.13707,20.3475 L 8.24443,20.3783 L 8.34937,20.4165 L 8.45139,20.4619
 L 8.55,20.5144 L 8.64471,20.5735 L 8.73506,20.6392 L 8.82061,20.711 L 8.90094,20.7885 L 8.97567,20.8715
 L 9.04443,20.9595 L 9.10688,21.0521 L 9.16272,21.1488 L 9.21167,21.2492 L 9.25351,21.3528 L 9.28802,21.459
 L 9.31504,21.5673 L 9.33443,21.6773 L 9.3461,21.7884 L 9.35,21.9 L 9.3461,22.0116 L 9.33443,22.1227
 L 9.31504,22.2327 L 9.28802,22.341 L 9.25351,22.4472 L 9.21167,22.5508 L 9.16272,22.6512 L 9.10688,22.7479
 L 9.04443,22.8405 L 8.97567,22.9285 L 8.90094,23.0115 L 8.82061,23.089 L 8.73506,23.1608 L 8.64471,23.2265
 L 8.55,23.2856 L 8.45139,23.3381 L 8.34937,23.3835 L 8.24443,23.4217 L 8.13707,23.4525 L 8.02784,23.4757
 L 7.91724,23.4912 L 7.80584,23.499 L 7.69416,23.499 L 7.58275,23.4912 L 7.47216,23.4757 L 7.36292,23.4525
 L 7.25557,23.4217 L 7.15063,23.3835 L 7.04861,23.3381 L 6.95,23.2856 L 6.85529,23.2265 L 6.76494,23.1608
 L 6.67939,23.089 L 6.59906,23.0115 L 6.52433,22.9285 L 6.45557,22.8405 L 6.39312,22.7479 L 6.33728,22.6512
 L 6.28833,22.5508 L 6.24649,22.4472 L 6.21198,22.341 L 6.18496,22.2327 L 6.16557,22.1227 L 6.1539,22.0116
 z
M 13.9,-0 L 13.91,-0.286001 L 13.9399,-0.570609 L 13.9896,-0.852437 L 14.0588,-1.13011 L 14.1473,-1.40228
 L 14.2545,-1.66762 L 14.3799,-1.92483 L 14.523,-2.17267 L 14.683,-2.40992 L 14.8592,-2.63543 L 15.0507,-2.8481
 L 15.2566,-3.04689 L 15.4758,-3.23084 L 15.7073,-3.39905 L 15.95,-3.5507 L 16.2027,-3.68505 L 16.4641,-3.80145
 L 16.733,-3.89933 L 17.0081,-3.97821 L 17.288,-4.03771 L 17.5714,-4.07754 L 17.8569,-4.0975 L 18.1431,-4.0975
 L 18.4286,-4.07754 L 18.712,-4.03771 L 18.9919,-3.97821 L 19.267,-3.89933 L 19.5359,-3.80145 L 19.7973,-3.68505
 L 20.05,-3.5507 L 20.2927,-3.39905 L 20.5242,-3.23084 L 20.7434,-3.04689 L 20.9493,-2.8481 L 21.1408,-2.63543
 L 21.317,-2.40992 L 21.477,-2.17267 L 21.6201,-1.92483 L 21.7455,-1.66762 L 21.8527,-1.40228 L 21.9412,-1.13011
 L 22.0104,-0.852437 L 22.0601,-0.570609 L 22.09,-0.286001 L 22.1,-0 L 22.09,0.286001 L 22.0601,0.570609
 L 22.0104,0.852437 L 21.9412,1.13011 L 21.8527,1.40228 L 21.7455,1.66762 L 21.6201,1.92483 L 21.477,2.17267
 L 21.317,2.40992 L 21.1408,2.63543 L 20.9493,2.8481 L 20.7434,3.04689 L 20.5242,3.23084 L 20.2927,3.39905
 L 20.05,3.5507 L 19.7973,3.68505 L 19.5359,3.80145 L 19.267,3.89933 L 18.9919,3.97821 L 18.712,4.03771
 L 18.4286,4.07754 L 18.1431,4.0975 L 17.8569,4.0975 L 17.5714,4.07754 L 17.288,4.03771 L 17.0081,3.97821
 L 16.733,3.89933 L 16.4641,3.80145 L 16.2027,3.68505 L 15.95,3.5507 L 15.7073,3.39905 L 15.4758,3.23084
 L 15.2566,3.04689 L 15.0507,2.8481 L 14.8592,2.63543 L 14.683,2.40992 L 14.523,2.17267 L 14.3799,1.92483
 L 14.2545,1.66762 L 14.1473,1.40228 L 14.0588,1.13011 L 13.9896,0.852437 L 13.9399,0.570609 L 13.91,0.286001
 z
M 58.4,72 L 58.41,71.714 L 58.4399,71.4294 L 58.4896,71.1476 L 58.5588,70.8699 L 58.6473,70.5977
 L 58.7545,70.3324 L 58.8799,70.0752 L 59.023,69.8273 L 59.183,69.5901 L 59.3592,69.3646 L 59.5507,69.1519
 L 59.7566,68.9531 L 59.9758,68.7692 L 60.2073,68.6009 L 60.45,68.4493 L 60.7027,68.3149 L 60.9641,68.1985
 L 61.233,68.1007 L 61.5081,68.0218 L 61.788,67.9623 L 62.0714,67.9225 L 62.3569,67.9025 L 62.6431,67.9025
 L 62.9286,67.9225 L 63.212,67.9623 L 63.4919,68.0218 L 63.767,68.1007 L 64.0359,68.1985 L 64.2973,68.3149
 L 64.55,68.4493 L 64.7927,68.6009 L 65.0242,68.7692 L 65.2434,68.9531 L 65.4493,69.1519 L 65.6408,69.3646
 L 65.817,69.5901 L 65.977,69.8273 L 66.1201,70.0752 L 66.2455,70.3324 L 66.3527,70.5977 L 66.4412,70.8699
 L 66.5104,71.1476 L 66.5601,71.4294 L 66.59,71.714 L 66.6,72 L 66.59,72.286 L 66.5601,72.5706
 L 66.5104,72.8524 L 66.4412,73.1301 L 66.3527,73.4023 L 66.2455,73.6676 L 66.1201,73.9248 L 65.977,74.1727
 L 65.817,74.4099 L 65.6408,74.6354 L 65.4493,74.8481 L 65.2434,75.0469 L 65.0242,75.2308 L 64.7927,75.3991
 L 64.55,75.5507 L 64.2973,75.6851 L 64.0359,75.8015 L 63.767,75.8993 L 63.4919,75.9782 L 63.212,76.0377
 L 62.9286,76.0775 L 62.6431,76.0975 L 62.3569,76.0975 L 62.0714,76.0775 L 61.788,76.0377 L 61.5081,75.9782
 L 61.233,75.8993 L 60.9641,75.8015 L 60.7027,75.6851 L 60.45,75.5507 L 60.2073,75.3991 L 59.9758,75.2308
 L 59.7566,75.0469 L 59.5507,74.8481 L 59.3592,74.6354 L 59.183,74.4099 L 59.023,74.1727 L 58.8799,73.9248
 L 58.7545,73.6676 L 58.6473,73.4023 L 58.5588,73.1301 L 58.4896,72.8524 L 58.4399,72.5706 L 58.41,72.286
 z
" stroke="black" fill="lightgray" stroke-width="0.5"/></svg>
