<?xml version="1.0" standalone="no"?>
<!DOCTYPE svg PUBLIC "-//W3C//DTD SVG 1.1//EN" "http://www.w3.org/Graphics/SVG/1.1/DTD/svg11.dtd">
<svg width="82" height="178" viewBox="-64 -102 82 178" xmlns="http://www.w3.org/2000/svg" version="1.1">
<title>OpenSCAD Model</title>
<path d="
M -63.7,-73.3 L -63.6704,-71.0357 L -63.5815,-68.7729 L -63.4333,-66.5133 L -63.2261,-64.2583 L -62.96,-62.0095
 L -62.635,-59.7684 L -62.2515,-57.5366 L -61.8098,-55.3156 L -61.31,-53.107 L -60.7526,-50.9122 L -60.1379,-48.7327
 L -59.4664,-46.57 L -58.7385,-44.4257 L -57.9547,-42.3012 L -57.1156,-40.1979 L -56.2217,-38.1173 L -55.2736,-36.0608
 L -54.2721,-34.0298 L -53.2177,-32.0258 L -52.1112,-30.05 L -50.9534,-28.1039 L -50.1943,-26.9009 L 4.1,75.6
 L 17.6,75.6 L 17.6,70.8403 L 16.8606,70.8403 L 14.6317,70.3665 L 12.55,69.4397 L 10.7065,68.1003
 L 9.18172,66.4069 L 8.04235,64.4334 L 7.33819,62.2662 L 7.33819,62.2662 L 7.1,60 L 7.1,60
 L 7.1,60 L 7.33819,57.7338 L 7.39246,57.5667 L 7.39989,57.5032 L 7.45226,57.3482 L 7.46243,57.2691
 L 7.51252,57.1264 L 7.52585,57.0315 L 7.57325,56.9013 L 7.59014,56.7905 L 7.63403,56.6741 L 7.63413,56.6719
 L 7.63548,56.6667 L 7.65534,56.5459 L 7.67659,56.4915 L 7.68249,56.3903 L 7.72215,56.2456 L 7.73197,56.1051
 L 7.76982,55.9732 L 7.78261,55.8165 L 7.81824,55.6975 L 7.8344,55.5244 L 7.86743,55.4186 L 7.87233,55.3719
 L 7.87076,55.3048 L 7.90915,55.101 L 7.90772,54.9775 L 7.94604,54.7863 L 7.94604,54.6467 L 7.98396,54.4684
 L 7.98577,54.3125 L 8.02289,54.1473 L 8.02691,53.9748 L 8.06287,53.8231 L 8.06948,53.6337 L 8.10388,53.4958
 L 8.1135,53.2893 L 8.14594,53.1653 L 8.15898,52.9415 L 8.18906,52.8317 L 8.20594,52.5903 L 8.22192,52.5346
 L 8.24039,52.4032 L 8.23409,52.2951 L 8.27308,52.0393 L 8.26727,51.9145 L 8.30706,51.6723 L 8.30211,51.5305
 L 8.34233,51.3024 L 8.33863,51.1433 L 8.3789,50.9295 L 8.37684,50.7529 L 8.41678,50.5537 L 8.41678,50.3592
 L 8.45597,50.1749 L 8.45844,49.9624 L 8.49647,49.7932 L 8.50184,49.5625 L 8.53831,49.4086 L 8.54701,49.1594
 L 8.58148,49.0212 L 8.59395,48.7533 L 8.62598,48.6309 L 8.64269,48.3441 L 8.67184,48.2378 L 8.69322,47.932
 L 8.71034,47.8723 L 8.72509,47.7577 L 8.71793,47.6553 L 8.76224,47.34 L 8.75523,47.2196 L 8.80094,46.9197
 L 8.79448,46.7808 L 8.84119,46.4966 L 8.83569,46.3392 L 8.88299,46.0709 L 8.87888,45.8946 L 8.92634,45.6426
 L 8.92407,45.4472 L 8.97126,45.2117 L 8.97126,44.997 L 9.01775,44.7783 L 9.02048,44.544 L 9.06581,44.3423
 L 9.07172,44.0883 L 9.11545,43.9038 L 9.12501,43.6299 L 9.16667,43.4629 L 9.18036,43.1689 L 9.21948,43.0194
 L 9.23778,42.7053 L 9.27389,42.5736 L 9.29727,42.2391 L 9.32989,42.1254 L 9.34769,41.9073 L 9.18251,41.7986
 L 8.9239,41.537 L 8.75099,41.4174 L 8.50067,41.1521 L 8.33184,41.0294 L 8.08956,40.7604 L 7.9252,40.635
 L 7.69071,40.3621 L 7.5312,40.2344 L 7.30427,39.9575 L 7.14996,39.828 L 6.93037,39.547 L 6.78158,39.4161
 L 6.56916,39.1308 L 6.42619,38.999 L 6.22075,38.7092 L 6.08387,38.577 L 5.88526,38.2825 L 5.75471,38.1505
 L 5.5628,37.8512 L 5.43881,37.7197 L 5.25349,37.4153 L 5.13622,37.2851 L 4.95741,36.9754 L 4.84703,36.8469
 L 4.67467,36.5316 L 4.57129,36.4055 L 4.40533,36.0844 L 4.30905,35.9612 L 4.14948,35.634 L 4.06036,35.5143
 L 3.9072,35.1808 L 3.82525,35.0652 L 3.67853,34.7251 L 3.60375,34.6142 L 3.46354,34.2672 L 3.39588,34.1616
 L 3.26226,33.8074 L 3.20165,33.7079 L 3.07475,33.3462 L 3.02107,33.2532 L 2.95222,33.0413 L 2.92269,32.9728
 L 2.91096,32.9143 L 2.90103,32.8837 L 2.85413,32.798 L 2.80891,32.6469 L 2.75012,32.5014 L 2.73313,32.405
 L 2.70083,32.3425 L 2.67722,32.2564 L 2.59165,32.0296 L 2.57538,31.9228 L 2.56733,31.8999 L 2.56114,31.8872
 L 2.55687,31.8701 L 2.44725,31.5576 L 2.43223,31.4409 L 2.31691,31.086 L 2.30354,30.9589 L 2.20059,30.615
 L 2.18933,30.4771 L 2.09826,30.1449 L 2.08958,29.9959 L 2.00987,29.6762 L 2.00426,29.5156 L 1.93536,29.2091
 L 1.93335,29.0367 L 1.87467,28.744 L 1.87682,28.5595 L 1.82774,28.2812 L 1.83461,28.0844 L 1.79448,27.8211
 L 1.80667,27.6116 L 1.7748,27.3639 L 1.79294,27.1417 L 1.76861,26.9101 L 1.79334,26.6748 L 1.77581,26.46
 L 1.80779,26.2115 L 1.79628,26.0139 L 1.8362,25.752 L 1.82992,25.572 L 1.87847,25.2967 L 1.87659,25.1348
 L 1.93449,24.8459 L 1.93616,24.7025 L 2.00414,24.4 L 2.00849,24.2755 L 2.0873,23.9594 L 2.09343,23.8541
 L 2.18383,23.5244 L 2.19084,23.4386 L 2.26865,23.1786 L 2.3244,22.9005 L 2.3594,22.8194 L 2.43583,22.4793
 L 2.48071,22.3815 L 2.55976,22.0645 L 2.61543,21.9504 L 2.69601,21.6565 L 2.76337,21.5262 L 2.84438,21.2556
 L 2.92434,21.1093 L 3.0047,20.862 L 3.09816,20.7001 L 3.17676,20.4761 L 3.28462,20.2989 L 3.36036,20.0982
 L 3.48352,19.9061 L 3.55529,19.7284 L 3.69462,19.5219 L 3.76133,19.3672 L 3.91771,19.1466 L 3.97827,19.0147
 L 4.15255,18.7806 L 4.20586,18.6713 L 4.39889,18.4243 L 4.44388,18.3372 L 4.65648,18.0778 L 4.69208,18.0127
 L 4.78744,17.9017 L 4.82953,17.8393 L 4.87697,17.7935 L 5.07919,17.5082 L 5.14499,17.4476 L 5.33903,17.1869
 L 5.424,17.1122 L 5.60878,16.8757 L 5.71372,16.7876 L 5.88821,16.5747 L 6.01387,16.4741 L 6.17703,16.2842
 L 6.32414,16.172 L 6.47498,16.0045 L 6.64424,15.8815 L 6.78179,15.7357 L 6.97386,15.6029 L 7.09717,15.4782
 L 7.31267,15.3364 L 7.42084,15.232 L 7.66037,15.0823 L 7.75251,14.9974 L 8.01661,14.8408 L 8.09188,14.7746
 L 8.38106,14.612 L 8.43865,14.5637 L 8.60237,14.4767 L 8.65598,14.4396 L 8.71141,14.4165 L 9.00101,14.226
 L 9.08031,14.195 L 9.3533,14.0244 L 9.45686,13.9867 L 9.71255,13.8351 L 9.8407,13.7918 L 10.0784,13.6582
 L 10.2315,13.6105 L 10.4506,13.4939 L 10.6288,13.4428 L 10.8289,13.3424 L 11.0324,13.2891 L 11.2128,13.2037
 L 11.4418,13.1494 L 11.602,13.0781 L 11.8566,13.024 L 11.9963,12.9656 L 12.2766,12.9128 L 12.3954,12.8664
 L 12.7012,12.8162 L 12.7987,12.7807 L 13.1302,12.7341 L 13.2061,12.7085 L 13.3961,12.6862 L 13.4301,12.6782
 L 13.4737,12.6772 L 13.5057,12.6734 L 13.831,12.6043 L 13.9146,12.6043 L 14.2357,12.5438 L 14.3431,12.5463
 L 14.6439,12.4969 L 14.7747,12.503 L 15.0553,12.4635 L 15.2093,12.4743 L 15.4695,12.4439 L 15.6463,12.4604
 L 15.8861,12.438 L 16.0855,12.4613 L 16.3049,12.446 L 16.5264,12.4771 L 16.7254,12.4679 L 16.9685,12.5078
 L 17.1474,12.5037 L 17.4117,12.5534 L 17.5704,12.5534 L 17.6,12.5597 L 17.6,-0 L 17.5759,-0.921112
 L 17.5036,-1.8397 L 17.3833,-2.75325 L 17.2154,-3.65925 L 17.0003,-4.55521 L 16.7386,-5.4387 L 16.431,-6.30728
 L 16.0784,-7.15856 L 15.6817,-7.99023 L 15.242,-8.8 L 14.7606,-9.58565 L 14.2387,-10.345 L 13.6778,-11.076
 L 13.0793,-11.7767 L 12.4451,-12.4451 L 11.7767,-13.0793 L 11.076,-13.6778 L 10.345,-14.2387 L 9.58565,-14.7606
 L 8.8,-15.242 L 7.99023,-15.6817 L 7.15856,-16.0784 L -19.1509,-27.993 L -19.6181,-28.271 L -21.1613,-29.2447
 L -22.6785,-30.2584 L -24.1686,-31.3115 L -25.6307,-32.4033 L -27.0636,-33.5329 L -28.4665,-34.6997 L -29.8384,-35.9028
 L -31.1783,-37.1414 L -32.4853,-38.4147 L -33.7586,-39.7217 L -34.9972,-41.0616 L -36.2003,-42.4335 L -37.3671,-43.8364
 L -38.4967,-45.2693 L -39.5885,-46.7314 L -40.6416,-48.2215 L -41.6553,-49.7387 L -42.629,-51.2819 L -43.562,-52.85
 L -44.4536,-54.442 L -45.3032,-56.0569 L -46.1102,-57.6934 L -46.8741,-59.3505 L -47.5944,-61.027 L -48.2706,-62.7218
 L -48.9021,-64.4337 L -49.4886,-66.1615 L -50.0297,-67.9041 L -50.525,-69.6603 L -50.9742,-71.4289 L -51.3769,-73.2086
 L -51.3951,-73.3 L -51.5112,-73.3 L -52.9395,-84.0615 L -52.8862,-84.1902 L -52.8163,-84.3876 L -52.7568,-84.5884
 L -52.7079,-84.792 L -52.6698,-84.9979 L -52.6424,-85.2056 L -52.626,-85.4143 L -52.6205,-85.6237 L -52.626,-85.833
 L -52.6424,-86.0418 L -52.6698,-86.2494 L -52.7079,-86.4553 L -53.2069,-88.8029 L -49.6856,-89.5514 L -49.4412,-89.61
 L -49.2003,-89.6814 L -48.9634,-89.7653 L -48.7312,-89.8614 L -48.5044,-89.9696 L -48.2836,-90.0895 L -48.0693,-90.2208
 L -47.8622,-90.3632 L -47.6628,-90.5162 L -47.4717,-90.6794 L -47.2894,-90.8523 L -47.1165,-91.0346 L -46.9533,-91.2257
 L -46.8003,-91.4251 L -46.6579,-91.6322 L -46.5266,-91.8465 L -46.4067,-92.0673 L -46.2985,-92.2941 L -46.2024,-92.5263
 L -46.1185,-92.7632 L -46.0471,-93.0041 L -45.9885,-93.2485 L -45.9427,-93.4956 L -45.9099,-93.7447 L -45.8901,-93.9952
 L -45.8836,-94.2465 L -45.8901,-94.4977 L -45.9099,-94.7482 L -45.9427,-94.9973 L -45.9885,-95.2444 L -46.0471,-95.4888
 L -46.1185,-95.7297 L -46.2024,-95.9666 L -46.2985,-96.1988 L -46.4067,-96.4256 L -46.5266,-96.6465 L -46.6579,-96.8607
 L -46.8003,-97.0678 L -46.9533,-97.2672 L -47.1165,-97.4583 L -47.2894,-97.6406 L -47.4717,-97.8136 L -47.6628,-97.9768
 L -47.8622,-98.1297 L -48.0693,-98.2721 L -48.2836,-98.4034 L -48.5044,-98.5233 L -48.7312,-98.6315 L -48.9634,-98.7276
 L -49.2003,-98.8115 L -49.4412,-98.8829 L -49.6856,-98.9416 L -49.9327,-98.9874 L -50.1818,-99.0202 L -50.4323,-99.0399
 L -50.6836,-99.0465 L -50.9348,-99.0399 L -51.1853,-99.0202 L -51.4344,-98.9874 L -51.6815,-98.9416 L -55.2029,-98.1931
 L -55.2518,-98.3967 L -55.3112,-98.5975 L -55.3811,-98.7949 L -55.4613,-98.9884 L -55.5514,-99.1774 L -55.6514,-99.3614
 L -55.7608,-99.54 L -55.8794,-99.7126 L -56.0069,-99.8787 L -56.1429,-100.038 L -56.287,-100.19 L -56.4389,-100.334
 L -56.5982,-100.47 L -56.7643,-100.598 L -56.9369,-100.716 L -57.1155,-100.826 L -57.2995,-100.925 L -57.4885,-101.016
 L -57.682,-101.096 L -57.8794,-101.166 L -58.0802,-101.225 L -58.2838,-101.274 L -58.4897,-101.312 L -58.6973,-101.34
 L -58.9061,-101.356 L -59.1155,-101.361 L -59.3248,-101.356 L -59.5336,-101.34 L -59.7412,-101.312 L -59.9471,-101.274
 L -60.1507,-101.225 L -60.3515,-101.166 L -60.5489,-101.096 L -60.7424,-101.016 L -60.9314,-100.925 L -61.1155,-100.826
 L -61.294,-100.716 L -61.4666,-100.598 L -61.6327,-100.47 L -61.792,-100.334 L -61.9439,-100.19 L -62.088,-100.038
 L -62.224,-99.8787 L -62.3515,-99.7126 L -62.4701,-99.54 L -62.5796,-99.3614 L -62.6795,-99.1774 L -62.7696,-98.9884
 L -62.8498,-98.7949 L -62.9197,-98.5975 L -62.9792,-98.3967 L -63.028,-98.1931 L -63.0662,-97.9872 L -63.0935,-97.7796
 L -63.6737,-93.0017 L -63.6934,-92.7512 L -63.7,-92.5 L -63.7,-92.5 L -63.7,-92.5 L -63.7,-73.3
 z
M -10.775,1.63528 L -10.775,-1.63528 L -10.7658,-1.70514 L -10.6618,-2.26624 L -10.5286,-2.82113 L -10.3665,-3.36829
 L -10.176,-3.90621 L -9.95765,-4.43343 L -9.71197,-4.9485 L -9.43968,-5.45 L -9.14151,-5.93657 L -8.81828,-6.40686
 L -8.47089,-6.85959 L -8.10028,-7.29352 L -7.70746,-7.70746 L -7.29352,-8.10028 L -6.85959,-8.47089 L -6.40686,-8.81828
 L -5.93657,-9.14151 L -5.45,-9.43968 L -4.9485,-9.71197 L -4.43343,-9.95765 L -3.90621,-10.176 L -3.36829,-10.3665
 L -2.82113,-10.5286 L -2.26624,-10.6618 L -1.70514,-10.7658 L -1.44538,-10.8 L 1.44538,-10.8 L 1.70514,-10.7658
 L 2.26624,-10.6618 L 2.82113,-10.5286 L 3.36829,-10.3665 L 3.90621,-10.176 L 4.43343,-9.95765 L 4.9485,-9.71197
 L 5.45,-9.43968 L 5.93657,-9.14151 L 6.40686,-8.81828 L 6.85959,-8.47089 L 7.29352,-8.10028 L 7.70746,-7.70746
 L 8.10028,-7.29352 L 8.47089,-6.85959 L 8.81828,-6.40686 L 9.14151,-5.93657 L 9.43968,-5.45 L 9.71197,-4.9485
 L 9.95765,-4.43343 L 10.176,-3.90621 L 10.3665,-3.36829 L 10.5286,-2.82113 L 10.6618,-2.26624 L 10.7658,-1.70514
 L 10.775,-1.63528 L 10.775,1.63528 L 10.7658,1.70514 L 10.6618,2.26624 L 10.5286,2.82113 L 10.3665,3.36829
 L 10.176,3.90621 L 9.95765,4.43343 L 9.71197,4.9485 L 9.43968,5.45 L 9.14151,5.93657 L 8.81828,6.40686
 L 8.47089,6.85959 L 8.10028,7.29352 L 7.70746,7.70746 L 7.29352,8.10028 L 6.85959,8.47089 L 6.40686,8.81828
 L 5.93657,9.14151 L 5.45,9.43968 L 4.9485,9.71197 L 4.43343,9.95765 L 3.90621,10.176 L 3.36829,10.3665
 L 2.82113,10.5286 L 2.26624,10.6618 L 1.70514,10.7658 L 1.44538,10.8 L -1.44538,10.8 L -1.70514,10.7658
 L -2.26624,10.6618 L -2.82113,10.5286 L -3.36829,10.3665 L -3.90621,10.176 L -4.43343,9.95765 L -4.9485,9.71197
 L -5.45,9.43968 L -5.93657,9.14151 L -6.40686,8.81828 L -6.85959,8.47089 L -7.29352,8.10028 L -7.70746,7.70746
 L -8.10028,7.29352 L -8.47089,6.85959 L -8.81828,6.40686 L -9.14151,5.93657 L -9.43968,5.45 L -9.71197,4.9485
 L -9.95765,4.43343 L -10.176,3.90621 L -10.3665,3.36829 L -10.5286,2.82113 L -10.6618,2.26624 L -10.7658,1.70514
 z
" stroke="black" fill="lightgray" stroke-width="0.5"/></svg>
