  0
SECTION
  2
BLOCKS
  0
ENDSEC
  0
SECTION
  2
ENTITIES
  0
LINE
  8
0
 10
-29.8
 20
0
 11
-29.7838
 21
-0.617564
  0
LINE
  8
0
 10
-29.7838
 20
-0.617564
 11
-29.7354
 21
-1.23344
  0
LINE
  8
0
 10
-29.7354
 20
-1.23344
 11
-29.6547
 21
-1.84593
  0
LINE
  8
0
 10
-29.6547
 20
-1.84593
 11
-29.5421
 21
-2.45336
  0
LINE
  8
0
 10
-29.5421
 20
-2.45336
 11
-29.3979
 21
-3.05406
  0
LINE
  8
0
 10
-29.3979
 20
-3.05406
 11
-29.2225
 21
-3.6464
  0
LINE
  8
0
 10
-29.2225
 20
-3.6464
 11
-29.0162
 21
-4.22874
  0
LINE
  8
0
 10
-29.0162
 20
-4.22874
 11
-28.7798
 21
-4.79949
  0
LINE
  8
0
 10
-28.7798
 20
-4.79949
 11
-28.5139
 21
-5.35709
  0
LINE
  8
0
 10
-28.5139
 20
-5.35709
 11
-28.2191
 21
-5.9
  0
LINE
  8
0
 10
-28.2191
 20
-5.9
 11
-27.8963
 21
-6.42674
  0
LINE
  8
0
 10
-27.8963
 20
-6.42674
 11
-27.5464
 21
-6.93587
  0
LINE
  8
0
 10
-27.5464
 20
-6.93587
 11
-27.1703
 21
-7.42598
  0
LINE
  8
0
 10
-27.1703
 20
-7.42598
 11
-26.7691
 21
-7.89574
  0
LINE
  8
0
 10
-26.7691
 20
-7.89574
 11
-26.3439
 21
-8.34386
  0
LINE
  8
0
 10
-26.3439
 20
-8.34386
 11
-25.8957
 21
-8.76911
  0
LINE
  8
0
 10
-25.8957
 20
-8.76911
 11
-25.426
 21
-9.17032
  0
LINE
  8
0
 10
-25.426
 20
-9.17032
 11
-24.9359
 21
-9.5464
  0
LINE
  8
0
 10
-24.9359
 20
-9.5464
 11
-24.4267
 21
-9.89631
  0
LINE
  8
0
 10
-24.4267
 20
-9.89631
 11
-23.9
 21
-10.2191
  0
LINE
  8
0
 10
-23.9
 20
-10.2191
 11
-23.3571
 21
-10.5139
  0
LINE
  8
0
 10
-23.3571
 20
-10.5139
 11
-22.7995
 21
-10.7798
  0
LINE
  8
0
 10
-22.7995
 20
-10.7798
 11
-22.2287
 21
-11.0162
  0
LINE
  8
0
 10
-22.2287
 20
-11.0162
 11
-21.6464
 21
-11.2225
  0
LINE
  8
0
 10
-21.6464
 20
-11.2225
 11
-21.0541
 21
-11.3979
  0
LINE
  8
0
 10
-21.0541
 20
-11.3979
 11
-20.4534
 21
-11.5421
  0
LINE
  8
0
 10
-20.4534
 20
-11.5421
 11
-19.8459
 21
-11.6547
  0
LINE
  8
0
 10
-19.8459
 20
-11.6547
 11
-19.2334
 21
-11.7354
  0
LINE
  8
0
 10
-19.2334
 20
-11.7354
 11
-18.6176
 21
-11.7838
  0
LINE
  8
0
 10
-18.6176
 20
-11.7838
 11
-18
 21
-11.8
  0
LINE
  8
0
 10
-18
 20
-11.8
 11
18
 21
-11.8
  0
LINE
  8
0
 10
18
 20
-11.8
 11
18.6176
 21
-11.7838
  0
LINE
  8
0
 10
18.6176
 20
-11.7838
 11
19.2334
 21
-11.7354
  0
LINE
  8
0
 10
19.2334
 20
-11.7354
 11
19.8459
 21
-11.6547
  0
LINE
  8
0
 10
19.8459
 20
-11.6547
 11
20.4534
 21
-11.5421
  0
LINE
  8
0
 10
20.4534
 20
-11.5421
 11
21.0541
 21
-11.3979
  0
LINE
  8
0
 10
21.0541
 20
-11.3979
 11
21.6464
 21
-11.2225
  0
LINE
  8
0
 10
21.6464
 20
-11.2225
 11
22.2287
 21
-11.0162
  0
LINE
  8
0
 10
22.2287
 20
-11.0162
 11
22.7995
 21
-10.7798
  0
LINE
  8
0
 10
22.7995
 20
-10.7798
 11
23.3571
 21
-10.5139
  0
LINE
  8
0
 10
23.3571
 20
-10.5139
 11
23.9
 21
-10.2191
  0
LINE
  8
0
 10
23.9
 20
-10.2191
 11
24.4267
 21
-9.89631
  0
LINE
  8
0
 10
24.4267
 20
-9.89631
 11
24.9359
 21
-9.5464
  0
LINE
  8
0
 10
24.9359
 20
-9.5464
 11
25.426
 21
-9.17032
  0
LINE
  8
0
 10
25.426
 20
-9.17032
 11
25.8957
 21
-8.76911
  0
LINE
  8
0
 10
25.8957
 20
-8.76911
 11
26.3439
 21
-8.34386
  0
LINE
  8
0
 10
26.3439
 20
-8.34386
 11
26.7691
 21
-7.89574
  0
LINE
  8
0
 10
26.7691
 20
-7.89574
 11
27.1703
 21
-7.42598
  0
LINE
  8
0
 10
27.1703
 20
-7.42598
 11
27.5464
 21
-6.93587
  0
LINE
  8
0
 10
27.5464
 20
-6.93587
 11
27.8963
 21
-6.42674
  0
LINE
  8
0
 10
27.8963
 20
-6.42674
 11
28.2191
 21
-5.9
  0
LINE
  8
0
 10
28.2191
 20
-5.9
 11
28.5139
 21
-5.35709
  0
LINE
  8
0
 10
28.5139
 20
-5.35709
 11
28.7798
 21
-4.79949
  0
LINE
  8
0
 10
28.7798
 20
-4.79949
 11
29.0162
 21
-4.22874
  0
LINE
  8
0
 10
29.0162
 20
-4.22874
 11
29.2225
 21
-3.6464
  0
LINE
  8
0
 10
29.2225
 20
-3.6464
 11
29.3979
 21
-3.05406
  0
LINE
  8
0
 10
29.3979
 20
-3.05406
 11
29.5421
 21
-2.45336
  0
LINE
  8
0
 10
29.5421
 20
-2.45336
 11
29.6547
 21
-1.84593
  0
LINE
  8
0
 10
29.6547
 20
-1.84593
 11
29.7354
 21
-1.23344
  0
LINE
  8
0
 10
29.7354
 20
-1.23344
 11
29.7838
 21
-0.617564
  0
LINE
  8
0
 10
29.7838
 20
-0.617564
 11
29.8
 21
0
  0
LINE
  8
0
 10
29.8
 20
0
 11
29.7838
 21
0.617564
  0
LINE
  8
0
 10
29.7838
 20
0.617564
 11
29.7354
 21
1.23344
  0
LINE
  8
0
 10
29.7354
 20
1.23344
 11
29.6547
 21
1.84593
  0
LINE
  8
0
 10
29.6547
 20
1.84593
 11
29.5421
 21
2.45336
  0
LINE
  8
0
 10
29.5421
 20
2.45336
 11
29.3979
 21
3.05406
  0
LINE
  8
0
 10
29.3979
 20
3.05406
 11
29.2225
 21
3.6464
  0
LINE
  8
0
 10
29.2225
 20
3.6464
 11
29.0162
 21
4.22874
  0
LINE
  8
0
 10
29.0162
 20
4.22874
 11
28.7798
 21
4.79949
  0
LINE
  8
0
 10
28.7798
 20
4.79949
 11
28.5139
 21
5.35709
  0
LINE
  8
0
 10
28.5139
 20
5.35709
 11
28.2191
 21
5.9
  0
LINE
  8
0
 10
28.2191
 20
5.9
 11
27.8963
 21
6.42674
  0
LINE
  8
0
 10
27.8963
 20
6.42674
 11
27.5464
 21
6.93587
  0
LINE
  8
0
 10
27.5464
 20
6.93587
 11
27.1703
 21
7.42598
  0
LINE
  8
0
 10
27.1703
 20
7.42598
 11
26.7691
 21
7.89574
  0
LINE
  8
0
 10
26.7691
 20
7.89574
 11
26.3439
 21
8.34386
  0
LINE
  8
0
 10
26.3439
 20
8.34386
 11
9.26274
 21
25.0627
  0
LINE
  8
0
 10
9.26274
 20
25.0627
 11
9.14122
 21
25.1781
  0
LINE
  8
0
 10
9.14122
 20
25.1781
 11
9.01382
 21
25.2869
  0
LINE
  8
0
 10
9.01382
 20
25.2869
 11
8.88091
 21
25.3889
  0
LINE
  8
0
 10
8.88091
 20
25.3889
 11
8.74284
 21
25.4837
  0
LINE
  8
0
 10
8.74284
 20
25.4837
 11
8.6
 21
25.5713
  0
LINE
  8
0
 10
8.6
 20
25.5713
 11
8.45277
 21
25.6512
  0
LINE
  8
0
 10
8.45277
 20
25.6512
 11
8.30156
 21
25.7233
  0
LINE
  8
0
 10
8.30156
 20
25.7233
 11
8.14678
 21
25.7875
  0
LINE
  8
0
 10
8.14678
 20
25.7875
 11
7.98885
 21
25.8434
  0
LINE
  8
0
 10
7.98885
 20
25.8434
 11
7.82822
 21
25.891
  0
LINE
  8
0
 10
7.82822
 20
25.891
 11
7.66532
 21
25.9301
  0
LINE
  8
0
 10
7.66532
 20
25.9301
 11
7.50059
 21
25.9606
  0
LINE
  8
0
 10
7.50059
 20
25.9606
 11
7.33449
 21
25.9825
  0
LINE
  8
0
 10
7.33449
 20
25.9825
 11
7.16747
 21
25.9956
  0
LINE
  8
0
 10
7.16747
 20
25.9956
 11
7
 21
26
  0
LINE
  8
0
 10
7
 20
26
 11
-7
 21
26
  0
LINE
  8
0
 10
-7
 20
26
 11
-7.16747
 21
25.9956
  0
LINE
  8
0
 10
-7.16747
 20
25.9956
 11
-7.33449
 21
25.9825
  0
LINE
  8
0
 10
-7.33449
 20
25.9825
 11
-7.50059
 21
25.9606
  0
LINE
  8
0
 10
-7.50059
 20
25.9606
 11
-7.66532
 21
25.9301
  0
LINE
  8
0
 10
-7.66532
 20
25.9301
 11
-7.82822
 21
25.891
  0
LINE
  8
0
 10
-7.82822
 20
25.891
 11
-7.98885
 21
25.8434
  0
LINE
  8
0
 10
-7.98885
 20
25.8434
 11
-8.14678
 21
25.7875
  0
LINE
  8
0
 10
-8.14678
 20
25.7875
 11
-8.30156
 21
25.7233
  0
LINE
  8
0
 10
-8.30156
 20
25.7233
 11
-8.45277
 21
25.6512
  0
LINE
  8
0
 10
-8.45277
 20
25.6512
 11
-8.6
 21
25.5713
  0
LINE
  8
0
 10
-8.6
 20
25.5713
 11
-8.74284
 21
25.4837
  0
LINE
  8
0
 10
-8.74284
 20
25.4837
 11
-8.88091
 21
25.3889
  0
LINE
  8
0
 10
-8.88091
 20
25.3889
 11
-9.01382
 21
25.2869
  0
LINE
  8
0
 10
-9.01382
 20
25.2869
 11
-9.14122
 21
25.1781
  0
LINE
  8
0
 10
-9.14122
 20
25.1781
 11
-9.26274
 21
25.0627
  0
LINE
  8
0
 10
-9.26274
 20
25.0627
 11
-26.3439
 21
8.34386
  0
LINE
  8
0
 10
-26.3439
 20
8.34386
 11
-26.7691
 21
7.89574
  0
LINE
  8
0
 10
-26.7691
 20
7.89574
 11
-27.1703
 21
7.42598
  0
LINE
  8
0
 10
-27.1703
 20
7.42598
 11
-27.5464
 21
6.93587
  0
LINE
  8
0
 10
-27.5464
 20
6.93587
 11
-27.8963
 21
6.42674
  0
LINE
  8
0
 10
-27.8963
 20
6.42674
 11
-28.2191
 21
5.9
  0
LINE
  8
0
 10
-28.2191
 20
5.9
 11
-28.5139
 21
5.35709
  0
LINE
  8
0
 10
-28.5139
 20
5.35709
 11
-28.7798
 21
4.79949
  0
LINE
  8
0
 10
-28.7798
 20
4.79949
 11
-29.0162
 21
4.22874
  0
LINE
  8
0
 10
-29.0162
 20
4.22874
 11
-29.2225
 21
3.6464
  0
LINE
  8
0
 10
-29.2225
 20
3.6464
 11
-29.3979
 21
3.05406
  0
LINE
  8
0
 10
-29.3979
 20
3.05406
 11
-29.5421
 21
2.45336
  0
LINE
  8
0
 10
-29.5421
 20
2.45336
 11
-29.6547
 21
1.84593
  0
LINE
  8
0
 10
-29.6547
 20
1.84593
 11
-29.7354
 21
1.23344
  0
LINE
  8
0
 10
-29.7354
 20
1.23344
 11
-29.7838
 21
0.617564
  0
LINE
  8
0
 10
-29.7838
 20
0.617564
 11
-29.8
 21
0
  0
LINE
  8
0
 10
-22.1
 20
0
 11
-22.0944
 21
0.214577
  0
LINE
  8
0
 10
-22.0944
 20
0.214577
 11
-22.0775
 21
0.428566
  0
LINE
  8
0
 10
-22.0775
 20
0.428566
 11
-22.0495
 21
0.641381
  0
LINE
  8
0
 10
-22.0495
 20
0.641381
 11
-22.0104
 21
0.852437
  0
LINE
  8
0
 10
-22.0104
 20
0.852437
 11
-21.9603
 21
1.06116
  0
LINE
  8
0
 10
-21.9603
 20
1.06116
 11
-21.8993
 21
1.26697
  0
LINE
  8
0
 10
-21.8993
 20
1.26697
 11
-21.8277
 21
1.46931
  0
LINE
  8
0
 10
-21.8277
 20
1.46931
 11
-21.7455
 21
1.66762
  0
LINE
  8
0
 10
-21.7455
 20
1.66762
 11
-21.6531
 21
1.86136
  0
LINE
  8
0
 10
-21.6531
 20
1.86136
 11
-21.5507
 21
2.05
  0
LINE
  8
0
 10
-21.5507
 20
2.05
 11
-21.4385
 21
2.23302
  0
LINE
  8
0
 10
-21.4385
 20
2.23302
 11
-21.317
 21
2.40992
  0
LINE
  8
0
 10
-21.317
 20
2.40992
 11
-21.1863
 21
2.58021
  0
LINE
  8
0
 10
-21.1863
 20
2.58021
 11
-21.0469
 21
2.74343
  0
LINE
  8
0
 10
-21.0469
 20
2.74343
 11
-20.8991
 21
2.89914
  0
LINE
  8
0
 10
-20.8991
 20
2.89914
 11
-20.7434
 21
3.04689
  0
LINE
  8
0
 10
-20.7434
 20
3.04689
 11
-20.5802
 21
3.1863
  0
LINE
  8
0
 10
-20.5802
 20
3.1863
 11
-20.4099
 21
3.31697
  0
LINE
  8
0
 10
-20.4099
 20
3.31697
 11
-20.233
 21
3.43855
  0
LINE
  8
0
 10
-20.233
 20
3.43855
 11
-20.05
 21
3.5507
  0
LINE
  8
0
 10
-20.05
 20
3.5507
 11
-19.8614
 21
3.65313
  0
LINE
  8
0
 10
-19.8614
 20
3.65313
 11
-19.6676
 21
3.74554
  0
LINE
  8
0
 10
-19.6676
 20
3.74554
 11
-19.4693
 21
3.82768
  0
LINE
  8
0
 10
-19.4693
 20
3.82768
 11
-19.267
 21
3.89933
  0
LINE
  8
0
 10
-19.267
 20
3.89933
 11
-19.0612
 21
3.9603
  0
LINE
  8
0
 10
-19.0612
 20
3.9603
 11
-18.8524
 21
4.0104
  0
LINE
  8
0
 10
-18.8524
 20
4.0104
 11
-18.6414
 21
4.04952
  0
LINE
  8
0
 10
-18.6414
 20
4.04952
 11
-18.4286
 21
4.07754
  0
LINE
  8
0
 10
-18.4286
 20
4.07754
 11
-18.2146
 21
4.09438
  0
LINE
  8
0
 10
-18.2146
 20
4.09438
 11
-18
 21
4.1
  0
LINE
  8
0
 10
-18
 20
4.1
 11
-17.7854
 21
4.09438
  0
LINE
  8
0
 10
-17.7854
 20
4.09438
 11
-17.5714
 21
4.07754
  0
LINE
  8
0
 10
-17.5714
 20
4.07754
 11
-17.3586
 21
4.04952
  0
LINE
  8
0
 10
-17.3586
 20
4.04952
 11
-17.1476
 21
4.0104
  0
LINE
  8
0
 10
-17.1476
 20
4.0104
 11
-16.9388
 21
3.9603
  0
LINE
  8
0
 10
-16.9388
 20
3.9603
 11
-16.733
 21
3.89933
  0
LINE
  8
0
 10
-16.733
 20
3.89933
 11
-16.5307
 21
3.82768
  0
LINE
  8
0
 10
-16.5307
 20
3.82768
 11
-16.3324
 21
3.74554
  0
LINE
  8
0
 10
-16.3324
 20
3.74554
 11
-16.1386
 21
3.65313
  0
LINE
  8
0
 10
-16.1386
 20
3.65313
 11
-15.95
 21
3.5507
  0
LINE
  8
0
 10
-15.95
 20
3.5507
 11
-15.767
 21
3.43855
  0
LINE
  8
0
 10
-15.767
 20
3.43855
 11
-15.5901
 21
3.31697
  0
LINE
  8
0
 10
-15.5901
 20
3.31697
 11
-15.4198
 21
3.1863
  0
LINE
  8
0
 10
-15.4198
 20
3.1863
 11
-15.2566
 21
3.04689
  0
LINE
  8
0
 10
-15.2566
 20
3.04689
 11
-15.1009
 21
2.89914
  0
LINE
  8
0
 10
-15.1009
 20
2.89914
 11
-14.9531
 21
2.74343
  0
LINE
  8
0
 10
-14.9531
 20
2.74343
 11
-14.8137
 21
2.58021
  0
LINE
  8
0
 10
-14.8137
 20
2.58021
 11
-14.683
 21
2.40992
  0
LINE
  8
0
 10
-14.683
 20
2.40992
 11
-14.5615
 21
2.23302
  0
LINE
  8
0
 10
-14.5615
 20
2.23302
 11
-14.4493
 21
2.05
  0
LINE
  8
0
 10
-14.4493
 20
2.05
 11
-14.3469
 21
1.86136
  0
LINE
  8
0
 10
-14.3469
 20
1.86136
 11
-14.2545
 21
1.66762
  0
LINE
  8
0
 10
-14.2545
 20
1.66762
 11
-14.1723
 21
1.46931
  0
LINE
  8
0
 10
-14.1723
 20
1.46931
 11
-14.1007
 21
1.26697
  0
LINE
  8
0
 10
-14.1007
 20
1.26697
 11
-14.0397
 21
1.06116
  0
LINE
  8
0
 10
-14.0397
 20
1.06116
 11
-13.9896
 21
0.852437
  0
LINE
  8
0
 10
-13.9896
 20
0.852437
 11
-13.9505
 21
0.641381
  0
LINE
  8
0
 10
-13.9505
 20
0.641381
 11
-13.9225
 21
0.428566
  0
LINE
  8
0
 10
-13.9225
 20
0.428566
 11
-13.9056
 21
0.214577
  0
LINE
  8
0
 10
-13.9056
 20
0.214577
 11
-13.9
 21
0
  0
LINE
  8
0
 10
-13.9
 20
0
 11
-13.9056
 21
-0.214577
  0
LINE
  8
0
 10
-13.9056
 20
-0.214577
 11
-13.9225
 21
-0.428566
  0
LINE
  8
0
 10
-13.9225
 20
-0.428566
 11
-13.9505
 21
-0.641381
  0
LINE
  8
0
 10
-13.9505
 20
-0.641381
 11
-13.9896
 21
-0.852437
  0
LINE
  8
0
 10
-13.9896
 20
-0.852437
 11
-14.0397
 21
-1.06116
  0
LINE
  8
0
 10
-14.0397
 20
-1.06116
 11
-14.1007
 21
-1.26697
  0
LINE
  8
0
 10
-14.1007
 20
-1.26697
 11
-14.1723
 21
-1.46931
  0
LINE
  8
0
 10
-14.1723
 20
-1.46931
 11
-14.2545
 21
-1.66762
  0
LINE
  8
0
 10
-14.2545
 20
-1.66762
 11
-14.3469
 21
-1.86136
  0
LINE
  8
0
 10
-14.3469
 20
-1.86136
 11
-14.4493
 21
-2.05
  0
LINE
  8
0
 10
-14.4493
 20
-2.05
 11
-14.5615
 21
-2.23302
  0
LINE
  8
0
 10
-14.5615
 20
-2.23302
 11
-14.683
 21
-2.40992
  0
LINE
  8
0
 10
-14.683
 20
-2.40992
 11
-14.8137
 21
-2.58021
  0
LINE
  8
0
 10
-14.8137
 20
-2.58021
 11
-14.9531
 21
-2.74343
  0
LINE
  8
0
 10
-14.9531
 20
-2.74343
 11
-15.1009
 21
-2.89914
  0
LINE
  8
0
 10
-15.1009
 20
-2.89914
 11
-15.2566
 21
-3.04689
  0
LINE
  8
0
 10
-15.2566
 20
-3.04689
 11
-15.4198
 21
-3.1863
  0
LINE
  8
0
 10
-15.4198
 20
-3.1863
 11
-15.5901
 21
-3.31697
  0
LINE
  8
0
 10
-15.5901
 20
-3.31697
 11
-15.767
 21
-3.43855
  0
LINE
  8
0
 10
-15.767
 20
-3.43855
 11
-15.95
 21
-3.5507
  0
LINE
  8
0
 10
-15.95
 20
-3.5507
 11
-16.1386
 21
-3.65313
  0
LINE
  8
0
 10
-16.1386
 20
-3.65313
 11
-16.3324
 21
-3.74554
  0
LINE
  8
0
 10
-16.3324
 20
-3.74554
 11
-16.5307
 21
-3.82768
  0
LINE
  8
0
 10
-16.5307
 20
-3.82768
 11
-16.733
 21
-3.89933
  0
LINE
  8
0
 10
-16.733
 20
-3.89933
 11
-16.9388
 21
-3.9603
  0
LINE
  8
0
 10
-16.9388
 20
-3.9603
 11
-17.1476
 21
-4.0104
  0
LINE
  8
0
 10
-17.1476
 20
-4.0104
 11
-17.3586
 21
-4.04952
  0
LINE
  8
0
 10
-17.3586
 20
-4.04952
 11
-17.5714
 21
-4.07754
  0
LINE
  8
0
 10
-17.5714
 20
-4.07754
 11
-17.7854
 21
-4.09438
  0
LINE
  8
0
 10
-17.7854
 20
-4.09438
 11
-18
 21
-4.1
  0
LINE
  8
0
 10
-18
 20
-4.1
 11
-18.2146
 21
-4.09438
  0
LINE
  8
0
 10
-18.2146
 20
-4.09438
 11
-18.4286
 21
-4.07754
  0
LINE
  8
0
 10
-18.4286
 20
-4.07754
 11
-18.6414
 21
-4.04952
  0
LINE
  8
0
 10
-18.6414
 20
-4.04952
 11
-18.8524
 21
-4.0104
  0
LINE
  8
0
 10
-18.8524
 20
-4.0104
 11
-19.0612
 21
-3.9603
  0
LINE
  8
0
 10
-19.0612
 20
-3.9603
 11
-19.267
 21
-3.89933
  0
LINE
  8
0
 10
-19.267
 20
-3.89933
 11
-19.4693
 21
-3.82768
  0
LINE
  8
0
 10
-19.4693
 20
-3.82768
 11
-19.6676
 21
-3.74554
  0
LINE
  8
0
 10
-19.6676
 20
-3.74554
 11
-19.8614
 21
-3.65313
  0
LINE
  8
0
 10
-19.8614
 20
-3.65313
 11
-20.05
 21
-3.5507
  0
LINE
  8
0
 10
-20.05
 20
-3.5507
 11
-20.233
 21
-3.43855
  0
LINE
  8
0
 10
-20.233
 20
-3.43855
 11
-20.4099
 21
-3.31697
  0
LINE
  8
0
 10
-20.4099
 20
-3.31697
 11
-20.5802
 21
-3.1863
  0
LINE
  8
0
 10
-20.5802
 20
-3.1863
 11
-20.7434
 21
-3.04689
  0
LINE
  8
0
 10
-20.7434
 20
-3.04689
 11
-20.8991
 21
-2.89914
  0
LINE
  8
0
 10
-20.8991
 20
-2.89914
 11
-21.0469
 21
-2.74343
  0
LINE
  8
0
 10
-21.0469
 20
-2.74343
 11
-21.1863
 21
-2.58021
  0
LINE
  8
0
 10
-21.1863
 20
-2.58021
 11
-21.317
 21
-2.40992
  0
LINE
  8
0
 10
-21.317
 20
-2.40992
 11
-21.4385
 21
-2.23302
  0
LINE
  8
0
 10
-21.4385
 20
-2.23302
 11
-21.5507
 21
-2.05
  0
LINE
  8
0
 10
-21.5507
 20
-2.05
 11
-21.6531
 21
-1.86136
  0
LINE
  8
0
 10
-21.6531
 20
-1.86136
 11
-21.7455
 21
-1.66762
  0
LINE
  8
0
 10
-21.7455
 20
-1.66762
 11
-21.8277
 21
-1.46931
  0
LINE
  8
0
 10
-21.8277
 20
-1.46931
 11
-21.8993
 21
-1.26697
  0
LINE
  8
0
 10
-21.8993
 20
-1.26697
 11
-21.9603
 21
-1.06116
  0
LINE
  8
0
 10
-21.9603
 20
-1.06116
 11
-22.0104
 21
-0.852437
  0
LINE
  8
0
 10
-22.0104
 20
-0.852437
 11
-22.0495
 21
-0.641381
  0
LINE
  8
0
 10
-22.0495
 20
-0.641381
 11
-22.0775
 21
-0.428566
  0
LINE
  8
0
 10
-22.0775
 20
-0.428566
 11
-22.0944
 21
-0.214577
  0
LINE
  8
0
 10
-22.0944
 20
-0.214577
 11
-22.1
 21
0
  0
LINE
  8
0
 10
-6.2
 20
3.6
 11
-6.1915
 21
3.92448
  0
LINE
  8
0
 10
-6.1915
 20
3.92448
 11
-6.16604
 21
4.24808
  0
LINE
  8
0
 10
-6.16604
 20
4.24808
 11
-6.12367
 21
4.56989
  0
LINE
  8
0
 10
-6.12367
 20
4.56989
 11
-6.06452
 21
4.88905
  0
LINE
  8
0
 10
-6.06452
 20
4.88905
 11
-5.98874
 21
5.20468
  0
LINE
  8
0
 10
-5.98874
 20
5.20468
 11
-5.89655
 21
5.5159
  0
LINE
  8
0
 10
-5.89655
 20
5.5159
 11
-5.7882
 21
5.82188
  0
LINE
  8
0
 10
-5.7882
 20
5.82188
 11
-5.66398
 21
6.12177
  0
LINE
  8
0
 10
-5.66398
 20
6.12177
 11
-5.52424
 21
6.41474
  0
LINE
  8
0
 10
-5.52424
 20
6.41474
 11
-5.36936
 21
6.7
  0
LINE
  8
0
 10
-5.36936
 20
6.7
 11
-5.19976
 21
6.97676
  0
LINE
  8
0
 10
-5.19976
 20
6.97676
 11
-5.0159
 21
7.24427
  0
LINE
  8
0
 10
-5.0159
 20
7.24427
 11
-4.8183
 21
7.50179
  0
LINE
  8
0
 10
-4.8183
 20
7.50179
 11
-4.6075
 21
7.74861
  0
LINE
  8
0
 10
-4.6075
 20
7.74861
 11
-4.38406
 21
7.98406
  0
LINE
  8
0
 10
-4.38406
 20
7.98406
 11
-4.14861
 21
8.2075
  0
LINE
  8
0
 10
-4.14861
 20
8.2075
 11
-3.90179
 21
8.4183
  0
LINE
  8
0
 10
-3.90179
 20
8.4183
 11
-3.64427
 21
8.6159
  0
LINE
  8
0
 10
-3.64427
 20
8.6159
 11
-3.37676
 21
8.79976
  0
LINE
  8
0
 10
-3.37676
 20
8.79976
 11
-3.1
 21
8.96936
  0
LINE
  8
0
 10
-3.1
 20
8.96936
 11
-2.81474
 21
9.12424
  0
LINE
  8
0
 10
-2.81474
 20
9.12424
 11
-2.52177
 21
9.26398
  0
LINE
  8
0
 10
-2.52177
 20
9.26398
 11
-2.22188
 21
9.3882
  0
LINE
  8
0
 10
-2.22188
 20
9.3882
 11
-1.9159
 21
9.49655
  0
LINE
  8
0
 10
-1.9159
 20
9.49655
 11
-1.60468
 21
9.58874
  0
LINE
  8
0
 10
-1.60468
 20
9.58874
 11
-1.28905
 21
9.66452
  0
LINE
  8
0
 10
-1.28905
 20
9.66452
 11
-0.969893
 21
9.72367
  0
LINE
  8
0
 10
-0.969893
 20
9.72367
 11
-0.769877
 21
9.75
  0
LINE
  8
0
 10
-0.769877
 20
9.75
 11
-3.5
 21
9.75
  0
LINE
  8
0
 10
-3.5
 20
9.75
 11
-3.5
 21
20.25
  0
LINE
  8
0
 10
-3.5
 20
20.25
 11
3.5
 21
20.25
  0
LINE
  8
0
 10
3.5
 20
20.25
 11
3.5
 21
9.75
  0
LINE
  8
0
 10
3.5
 20
9.75
 11
0.769877
 21
9.75
  0
LINE
  8
0
 10
0.769877
 20
9.75
 11
0.969893
 21
9.72367
  0
LINE
  8
0
 10
0.969893
 20
9.72367
 11
1.28905
 21
9.66452
  0
LINE
  8
0
 10
1.28905
 20
9.66452
 11
1.60468
 21
9.58874
  0
LINE
  8
0
 10
1.60468
 20
9.58874
 11
1.9159
 21
9.49655
  0
LINE
  8
0
 10
1.9159
 20
9.49655
 11
2.22188
 21
9.3882
  0
LINE
  8
0
 10
2.22188
 20
9.3882
 11
2.52177
 21
9.26398
  0
LINE
  8
0
 10
2.52177
 20
9.26398
 11
2.81474
 21
9.12424
  0
LINE
  8
0
 10
2.81474
 20
9.12424
 11
3.1
 21
8.96936
  0
LINE
  8
0
 10
3.1
 20
8.96936
 11
3.37676
 21
8.79976
  0
LINE
  8
0
 10
3.37676
 20
8.79976
 11
3.64427
 21
8.6159
  0
LINE
  8
0
 10
3.64427
 20
8.6159
 11
3.90179
 21
8.4183
  0
LINE
  8
0
 10
3.90179
 20
8.4183
 11
4.14861
 21
8.2075
  0
LINE
  8
0
 10
4.14861
 20
8.2075
 11
4.38406
 21
7.98406
  0
LINE
  8
0
 10
4.38406
 20
7.98406
 11
4.6075
 21
7.74861
  0
LINE
  8
0
 10
4.6075
 20
7.74861
 11
4.8183
 21
7.50179
  0
LINE
  8
0
 10
4.8183
 20
7.50179
 11
5.0159
 21
7.24427
  0
LINE
  8
0
 10
5.0159
 20
7.24427
 11
5.19976
 21
6.97676
  0
LINE
  8
0
 10
5.19976
 20
6.97676
 11
5.36936
 21
6.7
  0
LINE
  8
0
 10
5.36936
 20
6.7
 11
5.52424
 21
6.41474
  0
LINE
  8
0
 10
5.52424
 20
6.41474
 11
5.66398
 21
6.12177
  0
LINE
  8
0
 10
5.66398
 20
6.12177
 11
5.7882
 21
5.82188
  0
LINE
  8
0
 10
5.7882
 20
5.82188
 11
5.89655
 21
5.5159
  0
LINE
  8
0
 10
5.89655
 20
5.5159
 11
5.98874
 21
5.20468
  0
LINE
  8
0
 10
5.98874
 20
5.20468
 11
6.06452
 21
4.88905
  0
LINE
  8
0
 10
6.06452
 20
4.88905
 11
6.12367
 21
4.56989
  0
LINE
  8
0
 10
6.12367
 20
4.56989
 11
6.16604
 21
4.24808
  0
LINE
  8
0
 10
6.16604
 20
4.24808
 11
6.1915
 21
3.92448
  0
LINE
  8
0
 10
6.1915
 20
3.92448
 11
6.2
 21
3.6
  0
LINE
  8
0
 10
6.2
 20
3.6
 11
6.1915
 21
3.27552
  0
LINE
  8
0
 10
6.1915
 20
3.27552
 11
6.16604
 21
2.95192
  0
LINE
  8
0
 10
6.16604
 20
2.95192
 11
6.12367
 21
2.63011
  0
LINE
  8
0
 10
6.12367
 20
2.63011
 11
6.06452
 21
2.31095
  0
LINE
  8
0
 10
6.06452
 20
2.31095
 11
5.98874
 21
1.99532
  0
LINE
  8
0
 10
5.98874
 20
1.99532
 11
5.89655
 21
1.6841
  0
LINE
  8
0
 10
5.89655
 20
1.6841
 11
5.7882
 21
1.37812
  0
LINE
  8
0
 10
5.7882
 20
1.37812
 11
5.66398
 21
1.07823
  0
LINE
  8
0
 10
5.66398
 20
1.07823
 11
5.52424
 21
0.78526
  0
LINE
  8
0
 10
5.52424
 20
0.78526
 11
5.36936
 21
0.500001
  0
LINE
  8
0
 10
5.36936
 20
0.500001
 11
5.19976
 21
0.223239
  0
LINE
  8
0
 10
5.19976
 20
0.223239
 11
5.0159
 21
-0.044268
  0
LINE
  8
0
 10
5.0159
 20
-0.044268
 11
4.8183
 21
-0.301786
  0
LINE
  8
0
 10
4.8183
 20
-0.301786
 11
4.6075
 21
-0.548609
  0
LINE
  8
0
 10
4.6075
 20
-0.548609
 11
4.38406
 21
-0.784062
  0
LINE
  8
0
 10
4.38406
 20
-0.784062
 11
4.14861
 21
-1.0075
  0
LINE
  8
0
 10
4.14861
 20
-1.0075
 11
3.90179
 21
-1.2183
  0
LINE
  8
0
 10
3.90179
 20
-1.2183
 11
3.64427
 21
-1.4159
  0
LINE
  8
0
 10
3.64427
 20
-1.4159
 11
3.37676
 21
-1.59976
  0
LINE
  8
0
 10
3.37676
 20
-1.59976
 11
3.1
 21
-1.76936
  0
LINE
  8
0
 10
3.1
 20
-1.76936
 11
2.81474
 21
-1.92424
  0
LINE
  8
0
 10
2.81474
 20
-1.92424
 11
2.52177
 21
-2.06398
  0
LINE
  8
0
 10
2.52177
 20
-2.06398
 11
2.22188
 21
-2.1882
  0
LINE
  8
0
 10
2.22188
 20
-2.1882
 11
1.9159
 21
-2.29655
  0
LINE
  8
0
 10
1.9159
 20
-2.29655
 11
1.60468
 21
-2.38874
  0
LINE
  8
0
 10
1.60468
 20
-2.38874
 11
1.28905
 21
-2.46452
  0
LINE
  8
0
 10
1.28905
 20
-2.46452
 11
0.969893
 21
-2.52367
  0
LINE
  8
0
 10
0.969893
 20
-2.52367
 11
0.648076
 21
-2.56604
  0
LINE
  8
0
 10
0.648076
 20
-2.56604
 11
0.324483
 21
-2.5915
  0
LINE
  8
0
 10
0.324483
 20
-2.5915
 11
0
 21
-2.6
  0
LINE
  8
0
 10
0
 20
-2.6
 11
-0.324483
 21
-2.5915
  0
LINE
  8
0
 10
-0.324483
 20
-2.5915
 11
-0.648076
 21
-2.56604
  0
LINE
  8
0
 10
-0.648076
 20
-2.56604
 11
-0.969893
 21
-2.52367
  0
LINE
  8
0
 10
-0.969893
 20
-2.52367
 11
-1.28905
 21
-2.46452
  0
LINE
  8
0
 10
-1.28905
 20
-2.46452
 11
-1.60468
 21
-2.38874
  0
LINE
  8
0
 10
-1.60468
 20
-2.38874
 11
-1.9159
 21
-2.29655
  0
LINE
  8
0
 10
-1.9159
 20
-2.29655
 11
-2.22188
 21
-2.1882
  0
LINE
  8
0
 10
-2.22188
 20
-2.1882
 11
-2.52177
 21
-2.06398
  0
LINE
  8
0
 10
-2.52177
 20
-2.06398
 11
-2.81474
 21
-1.92424
  0
LINE
  8
0
 10
-2.81474
 20
-1.92424
 11
-3.1
 21
-1.76936
  0
LINE
  8
0
 10
-3.1
 20
-1.76936
 11
-3.37676
 21
-1.59976
  0
LINE
  8
0
 10
-3.37676
 20
-1.59976
 11
-3.64427
 21
-1.4159
  0
LINE
  8
0
 10
-3.64427
 20
-1.4159
 11
-3.90179
 21
-1.2183
  0
LINE
  8
0
 10
-3.90179
 20
-1.2183
 11
-4.14861
 21
-1.0075
  0
LINE
  8
0
 10
-4.14861
 20
-1.0075
 11
-4.38406
 21
-0.784062
  0
LINE
  8
0
 10
-4.38406
 20
-0.784062
 11
-4.6075
 21
-0.548609
  0
LINE
  8
0
 10
-4.6075
 20
-0.548609
 11
-4.8183
 21
-0.301786
  0
LINE
  8
0
 10
-4.8183
 20
-0.301786
 11
-5.0159
 21
-0.044268
  0
LINE
  8
0
 10
-5.0159
 20
-0.044268
 11
-5.19976
 21
0.223239
  0
LINE
  8
0
 10
-5.19976
 20
0.223239
 11
-5.36936
 21
0.500001
  0
LINE
  8
0
 10
-5.36936
 20
0.500001
 11
-5.52424
 21
0.78526
  0
LINE
  8
0
 10
-5.52424
 20
0.78526
 11
-5.66398
 21
1.07823
  0
LINE
  8
0
 10
-5.66398
 20
1.07823
 11
-5.7882
 21
1.37812
  0
LINE
  8
0
 10
-5.7882
 20
1.37812
 11
-5.89655
 21
1.6841
  0
LINE
  8
0
 10
-5.89655
 20
1.6841
 11
-5.98874
 21
1.99532
  0
LINE
  8
0
 10
-5.98874
 20
1.99532
 11
-6.06452
 21
2.31095
  0
LINE
  8
0
 10
-6.06452
 20
2.31095
 11
-6.12367
 21
2.63011
  0
LINE
  8
0
 10
-6.12367
 20
2.63011
 11
-6.16604
 21
2.95192
  0
LINE
  8
0
 10
-6.16604
 20
2.95192
 11
-6.1915
 21
3.27552
  0
LINE
  8
0
 10
-6.1915
 20
3.27552
 11
-6.2
 21
3.6
  0
LINE
  8
0
 10
13.9
 20
0
 11
13.9056
 21
0.214577
  0
LINE
  8
0
 10
13.9056
 20
0.214577
 11
13.9225
 21
0.428566
  0
LINE
  8
0
 10
13.9225
 20
0.428566
 11
13.9505
 21
0.641381
  0
LINE
  8
0
 10
13.9505
 20
0.641381
 11
13.9896
 21
0.852437
  0
LINE
  8
0
 10
13.9896
 20
0.852437
 11
14.0397
 21
1.06116
  0
LINE
  8
0
 10
14.0397
 20
1.06116
 11
14.1007
 21
1.26697
  0
LINE
  8
0
 10
14.1007
 20
1.26697
 11
14.1723
 21
1.46931
  0
LINE
  8
0
 10
14.1723
 20
1.46931
 11
14.2545
 21
1.66762
  0
LINE
  8
0
 10
14.2545
 20
1.66762
 11
14.3469
 21
1.86136
  0
LINE
  8
0
 10
14.3469
 20
1.86136
 11
14.4493
 21
2.05
  0
LINE
  8
0
 10
14.4493
 20
2.05
 11
14.5615
 21
2.23302
  0
LINE
  8
0
 10
14.5615
 20
2.23302
 11
14.683
 21
2.40992
  0
LINE
  8
0
 10
14.683
 20
2.40992
 11
14.8137
 21
2.58021
  0
LINE
  8
0
 10
14.8137
 20
2.58021
 11
14.9531
 21
2.74343
  0
LINE
  8
0
 10
14.9531
 20
2.74343
 11
15.1009
 21
2.89914
  0
LINE
  8
0
 10
15.1009
 20
2.89914
 11
15.2566
 21
3.04689
  0
LINE
  8
0
 10
15.2566
 20
3.04689
 11
15.4198
 21
3.1863
  0
LINE
  8
0
 10
15.4198
 20
3.1863
 11
15.5901
 21
3.31697
  0
LINE
  8
0
 10
15.5901
 20
3.31697
 11
15.767
 21
3.43855
  0
LINE
  8
0
 10
15.767
 20
3.43855
 11
15.95
 21
3.5507
  0
LINE
  8
0
 10
15.95
 20
3.5507
 11
16.1386
 21
3.65313
  0
LINE
  8
0
 10
16.1386
 20
3.65313
 11
16.3324
 21
3.74554
  0
LINE
  8
0
 10
16.3324
 20
3.74554
 11
16.5307
 21
3.82768
  0
LINE
  8
0
 10
16.5307
 20
3.82768
 11
16.733
 21
3.89933
  0
LINE
  8
0
 10
16.733
 20
3.89933
 11
16.9388
 21
3.9603
  0
LINE
  8
0
 10
16.9388
 20
3.9603
 11
17.1476
 21
4.0104
  0
LINE
  8
0
 10
17.1476
 20
4.0104
 11
17.3586
 21
4.04952
  0
LINE
  8
0
 10
17.3586
 20
4.04952
 11
17.5714
 21
4.07754
  0
LINE
  8
0
 10
17.5714
 20
4.07754
 11
17.7854
 21
4.09438
  0
LINE
  8
0
 10
17.7854
 20
4.09438
 11
18
 21
4.1
  0
LINE
  8
0
 10
18
 20
4.1
 11
18.2146
 21
4.09438
  0
LINE
  8
0
 10
18.2146
 20
4.09438
 11
18.4286
 21
4.07754
  0
LINE
  8
0
 10
18.4286
 20
4.07754
 11
18.6414
 21
4.04952
  0
LINE
  8
0
 10
18.6414
 20
4.04952
 11
18.8524
 21
4.0104
  0
LINE
  8
0
 10
18.8524
 20
4.0104
 11
19.0612
 21
3.9603
  0
LINE
  8
0
 10
19.0612
 20
3.9603
 11
19.267
 21
3.89933
  0
LINE
  8
0
 10
19.267
 20
3.89933
 11
19.4693
 21
3.82768
  0
LINE
  8
0
 10
19.4693
 20
3.82768
 11
19.6676
 21
3.74554
  0
LINE
  8
0
 10
19.6676
 20
3.74554
 11
19.8614
 21
3.65313
  0
LINE
  8
0
 10
19.8614
 20
3.65313
 11
20.05
 21
3.5507
  0
LINE
  8
0
 10
20.05
 20
3.5507
 11
20.233
 21
3.43855
  0
LINE
  8
0
 10
20.233
 20
3.43855
 11
20.4099
 21
3.31697
  0
LINE
  8
0
 10
20.4099
 20
3.31697
 11
20.5802
 21
3.1863
  0
LINE
  8
0
 10
20.5802
 20
3.1863
 11
20.7434
 21
3.04689
  0
LINE
  8
0
 10
20.7434
 20
3.04689
 11
20.8991
 21
2.89914
  0
LINE
  8
0
 10
20.8991
 20
2.89914
 11
21.0469
 21
2.74343
  0
LINE
  8
0
 10
21.0469
 20
2.74343
 11
21.1863
 21
2.58021
  0
LINE
  8
0
 10
21.1863
 20
2.58021
 11
21.317
 21
2.40992
  0
LINE
  8
0
 10
21.317
 20
2.40992
 11
21.4385
 21
2.23302
  0
LINE
  8
0
 10
21.4385
 20
2.23302
 11
21.5507
 21
2.05
  0
LINE
  8
0
 10
21.5507
 20
2.05
 11
21.6531
 21
1.86136
  0
LINE
  8
0
 10
21.6531
 20
1.86136
 11
21.7455
 21
1.66762
  0
LINE
  8
0
 10
21.7455
 20
1.66762
 11
21.8277
 21
1.46931
  0
LINE
  8
0
 10
21.8277
 20
1.46931
 11
21.8993
 21
1.26697
  0
LINE
  8
0
 10
21.8993
 20
1.26697
 11
21.9603
 21
1.06116
  0
LINE
  8
0
 10
21.9603
 20
1.06116
 11
22.0104
 21
0.852437
  0
LINE
  8
0
 10
22.0104
 20
0.852437
 11
22.0495
 21
0.641381
  0
LINE
  8
0
 10
22.0495
 20
0.641381
 11
22.0775
 21
0.428566
  0
LINE
  8
0
 10
22.0775
 20
0.428566
 11
22.0944
 21
0.214577
  0
LINE
  8
0
 10
22.0944
 20
0.214577
 11
22.1
 21
0
  0
LINE
  8
0
 10
22.1
 20
0
 11
22.0944
 21
-0.214577
  0
LINE
  8
0
 10
22.0944
 20
-0.214577
 11
22.0775
 21
-0.428566
  0
LINE
  8
0
 10
22.0775
 20
-0.428566
 11
22.0495
 21
-0.641381
  0
LINE
  8
0
 10
22.0495
 20
-0.641381
 11
22.0104
 21
-0.852437
  0
LINE
  8
0
 10
22.0104
 20
-0.852437
 11
21.9603
 21
-1.06116
  0
LINE
  8
0
 10
21.9603
 20
-1.06116
 11
21.8993
 21
-1.26697
  0
LINE
  8
0
 10
21.8993
 20
-1.26697
 11
21.8277
 21
-1.46931
  0
LINE
  8
0
 10
21.8277
 20
-1.46931
 11
21.7455
 21
-1.66762
  0
LINE
  8
0
 10
21.7455
 20
-1.66762
 11
21.6531
 21
-1.86136
  0
LINE
  8
0
 10
21.6531
 20
-1.86136
 11
21.5507
 21
-2.05
  0
LINE
  8
0
 10
21.5507
 20
-2.05
 11
21.4385
 21
-2.23302
  0
LINE
  8
0
 10
21.4385
 20
-2.23302
 11
21.317
 21
-2.40992
  0
LINE
  8
0
 10
21.317
 20
-2.40992
 11
21.1863
 21
-2.58021
  0
LINE
  8
0
 10
21.1863
 20
-2.58021
 11
21.0469
 21
-2.74343
  0
LINE
  8
0
 10
21.0469
 20
-2.74343
 11
20.8991
 21
-2.89914
  0
LINE
  8
0
 10
20.8991
 20
-2.89914
 11
20.7434
 21
-3.04689
  0
LINE
  8
0
 10
20.7434
 20
-3.04689
 11
20.5802
 21
-3.1863
  0
LINE
  8
0
 10
20.5802
 20
-3.1863
 11
20.4099
 21
-3.31697
  0
LINE
  8
0
 10
20.4099
 20
-3.31697
 11
20.233
 21
-3.43855
  0
LINE
  8
0
 10
20.233
 20
-3.43855
 11
20.05
 21
-3.5507
  0
LINE
  8
0
 10
20.05
 20
-3.5507
 11
19.8614
 21
-3.65313
  0
LINE
  8
0
 10
19.8614
 20
-3.65313
 11
19.6676
 21
-3.74554
  0
LINE
  8
0
 10
19.6676
 20
-3.74554
 11
19.4693
 21
-3.82768
  0
LINE
  8
0
 10
19.4693
 20
-3.82768
 11
19.267
 21
-3.89933
  0
LINE
  8
0
 10
19.267
 20
-3.89933
 11
19.0612
 21
-3.9603
  0
LINE
  8
0
 10
19.0612
 20
-3.9603
 11
18.8524
 21
-4.0104
  0
LINE
  8
0
 10
18.8524
 20
-4.0104
 11
18.6414
 21
-4.04952
  0
LINE
  8
0
 10
18.6414
 20
-4.04952
 11
18.4286
 21
-4.07754
  0
LINE
  8
0
 10
18.4286
 20
-4.07754
 11
18.2146
 21
-4.09438
  0
LINE
  8
0
 10
18.2146
 20
-4.09438
 11
18
 21
-4.1
  0
LINE
  8
0
 10
18
 20
-4.1
 11
17.7854
 21
-4.09438
  0
LINE
  8
0
 10
17.7854
 20
-4.09438
 11
17.5714
 21
-4.07754
  0
LINE
  8
0
 10
17.5714
 20
-4.07754
 11
17.3586
 21
-4.04952
  0
LINE
  8
0
 10
17.3586
 20
-4.04952
 11
17.1476
 21
-4.0104
  0
LINE
  8
0
 10
17.1476
 20
-4.0104
 11
16.9388
 21
-3.9603
  0
LINE
  8
0
 10
16.9388
 20
-3.9603
 11
16.733
 21
-3.89933
  0
LINE
  8
0
 10
16.733
 20
-3.89933
 11
16.5307
 21
-3.82768
  0
LINE
  8
0
 10
16.5307
 20
-3.82768
 11
16.3324
 21
-3.74554
  0
LINE
  8
0
 10
16.3324
 20
-3.74554
 11
16.1386
 21
-3.65313
  0
LINE
  8
0
 10
16.1386
 20
-3.65313
 11
15.95
 21
-3.5507
  0
LINE
  8
0
 10
15.95
 20
-3.5507
 11
15.767
 21
-3.43855
  0
LINE
  8
0
 10
15.767
 20
-3.43855
 11
15.5901
 21
-3.31697
  0
LINE
  8
0
 10
15.5901
 20
-3.31697
 11
15.4198
 21
-3.1863
  0
LINE
  8
0
 10
15.4198
 20
-3.1863
 11
15.2566
 21
-3.04689
  0
LINE
  8
0
 10
15.2566
 20
-3.04689
 11
15.1009
 21
-2.89914
  0
LINE
  8
0
 10
15.1009
 20
-2.89914
 11
14.9531
 21
-2.74343
  0
LINE
  8
0
 10
14.9531
 20
-2.74343
 11
14.8137
 21
-2.58021
  0
LINE
  8
0
 10
14.8137
 20
-2.58021
 11
14.683
 21
-2.40992
  0
LINE
  8
0
 10
14.683
 20
-2.40992
 11
14.5615
 21
-2.23302
  0
LINE
  8
0
 10
14.5615
 20
-2.23302
 11
14.4493
 21
-2.05
  0
LINE
  8
0
 10
14.4493
 20
-2.05
 11
14.3469
 21
-1.86136
  0
LINE
  8
0
 10
14.3469
 20
-1.86136
 11
14.2545
 21
-1.66762
  0
LINE
  8
0
 10
14.2545
 20
-1.66762
 11
14.1723
 21
-1.46931
  0
LINE
  8
0
 10
14.1723
 20
-1.46931
 11
14.1007
 21
-1.26697
  0
LINE
  8
0
 10
14.1007
 20
-1.26697
 11
14.0397
 21
-1.06116
  0
LINE
  8
0
 10
14.0397
 20
-1.06116
 11
13.9896
 21
-0.852437
  0
LINE
  8
0
 10
13.9896
 20
-0.852437
 11
13.9505
 21
-0.641381
  0
LINE
  8
0
 10
13.9505
 20
-0.641381
 11
13.9225
 21
-0.428566
  0
LINE
  8
0
 10
13.9225
 20
-0.428566
 11
13.9056
 21
-0.214577
  0
LINE
  8
0
 10
13.9056
 20
-0.214577
 11
13.9
 21
0
  0
ENDSEC
  0
SECTION
  2
OBJECTS
  0
DICTIONARY
  0
ENDSEC
  0
EOF
