  0
SECTION
  2
BLOCKS
  0
ENDSEC
  0
SECTION
  2
ENTITIES
  0
LINE
  8
0
 10
-8.4
 20
-9.75
 11
-7.86187
 21
-9.75
  0
LINE
  8
0
 10
-7.86187
 20
-9.75
 11
-7.62809
 21
-9.52815
  0
LINE
  8
0
 10
-7.62809
 20
-9.52815
 11
-7.17425
 21
-9.14054
  0
LINE
  8
0
 10
-7.17425
 20
-9.14054
 11
-6.70075
 21
-8.77721
  0
LINE
  8
0
 10
-6.70075
 20
-8.77721
 11
-6.20888
 21
-8.43916
  0
LINE
  8
0
 10
-6.20888
 20
-8.43916
 11
-5.7
 21
-8.12731
  0
LINE
  8
0
 10
-5.7
 20
-8.12731
 11
-5.17549
 21
-7.84253
  0
LINE
  8
0
 10
-5.17549
 20
-7.84253
 11
-4.6368
 21
-7.58558
  0
LINE
  8
0
 10
-4.6368
 20
-7.58558
 11
-4.08539
 21
-7.35718
  0
LINE
  8
0
 10
-4.08539
 20
-7.35718
 11
-3.52279
 21
-7.15796
  0
LINE
  8
0
 10
-3.52279
 20
-7.15796
 11
-2.95054
 21
-6.98845
  0
LINE
  8
0
 10
-2.95054
 20
-6.98845
 11
-2.37019
 21
-6.84912
  0
LINE
  8
0
 10
-2.37019
 20
-6.84912
 11
-1.78335
 21
-6.74035
  0
LINE
  8
0
 10
-1.78335
 20
-6.74035
 11
-1.19162
 21
-6.66245
  0
LINE
  8
0
 10
-1.19162
 20
-6.66245
 11
-0.596629
 21
-6.61562
  0
LINE
  8
0
 10
-0.596629
 20
-6.61562
 11
0
 21
-6.6
  0
LINE
  8
0
 10
0
 20
-6.6
 11
0.596629
 21
-6.61562
  0
LINE
  8
0
 10
0.596629
 20
-6.61562
 11
1.19162
 21
-6.66245
  0
LINE
  8
0
 10
1.19162
 20
-6.66245
 11
1.78335
 21
-6.74035
  0
LINE
  8
0
 10
1.78335
 20
-6.74035
 11
2.37019
 21
-6.84912
  0
LINE
  8
0
 10
2.37019
 20
-6.84912
 11
2.95054
 21
-6.98845
  0
LINE
  8
0
 10
2.95054
 20
-6.98845
 11
3.52279
 21
-7.15796
  0
LINE
  8
0
 10
3.52279
 20
-7.15796
 11
4.08539
 21
-7.35718
  0
LINE
  8
0
 10
4.08539
 20
-7.35718
 11
4.6368
 21
-7.58558
  0
LINE
  8
0
 10
4.6368
 20
-7.58558
 11
5.17549
 21
-7.84253
  0
LINE
  8
0
 10
5.17549
 20
-7.84253
 11
5.7
 21
-8.12731
  0
LINE
  8
0
 10
5.7
 20
-8.12731
 11
6.20888
 21
-8.43916
  0
LINE
  8
0
 10
6.20888
 20
-8.43916
 11
6.70075
 21
-8.77721
  0
LINE
  8
0
 10
6.70075
 20
-8.77721
 11
7.17425
 21
-9.14054
  0
LINE
  8
0
 10
7.17425
 20
-9.14054
 11
7.62809
 21
-9.52815
  0
LINE
  8
0
 10
7.62809
 20
-9.52815
 11
7.86187
 21
-9.75
  0
LINE
  8
0
 10
7.86187
 20
-9.75
 11
8.4
 21
-9.75
  0
LINE
  8
0
 10
8.4
 20
-9.75
 11
8.4
 21
9.75
  0
LINE
  8
0
 10
8.4
 20
9.75
 11
7.86187
 21
9.75
  0
LINE
  8
0
 10
7.86187
 20
9.75
 11
7.62809
 21
9.52815
  0
LINE
  8
0
 10
7.62809
 20
9.52815
 11
7.17425
 21
9.14054
  0
LINE
  8
0
 10
7.17425
 20
9.14054
 11
6.70075
 21
8.77721
  0
LINE
  8
0
 10
6.70075
 20
8.77721
 11
6.20888
 21
8.43916
  0
LINE
  8
0
 10
6.20888
 20
8.43916
 11
5.7
 21
8.12731
  0
LINE
  8
0
 10
5.7
 20
8.12731
 11
5.17549
 21
7.84253
  0
LINE
  8
0
 10
5.17549
 20
7.84253
 11
4.6368
 21
7.58558
  0
LINE
  8
0
 10
4.6368
 20
7.58558
 11
4.08539
 21
7.35718
  0
LINE
  8
0
 10
4.08539
 20
7.35718
 11
3.52279
 21
7.15796
  0
LINE
  8
0
 10
3.52279
 20
7.15796
 11
2.95054
 21
6.98845
  0
LINE
  8
0
 10
2.95054
 20
6.98845
 11
2.37019
 21
6.84912
  0
LINE
  8
0
 10
2.37019
 20
6.84912
 11
1.78335
 21
6.74035
  0
LINE
  8
0
 10
1.78335
 20
6.74035
 11
1.19162
 21
6.66245
  0
LINE
  8
0
 10
1.19162
 20
6.66245
 11
0.596629
 21
6.61562
  0
LINE
  8
0
 10
0.596629
 20
6.61562
 11
0
 21
6.6
  0
LINE
  8
0
 10
0
 20
6.6
 11
-0.596629
 21
6.61562
  0
LINE
  8
0
 10
-0.596629
 20
6.61562
 11
-1.19162
 21
6.66245
  0
LINE
  8
0
 10
-1.19162
 20
6.66245
 11
-1.78335
 21
6.74035
  0
LINE
  8
0
 10
-1.78335
 20
6.74035
 11
-2.37019
 21
6.84912
  0
LINE
  8
0
 10
-2.37019
 20
6.84912
 11
-2.95054
 21
6.98845
  0
LINE
  8
0
 10
-2.95054
 20
6.98845
 11
-3.52279
 21
7.15796
  0
LINE
  8
0
 10
-3.52279
 20
7.15796
 11
-4.08539
 21
7.35718
  0
LINE
  8
0
 10
-4.08539
 20
7.35718
 11
-4.6368
 21
7.58558
  0
LINE
  8
0
 10
-4.6368
 20
7.58558
 11
-5.17549
 21
7.84253
  0
LINE
  8
0
 10
-5.17549
 20
7.84253
 11
-5.7
 21
8.12731
  0
LINE
  8
0
 10
-5.7
 20
8.12731
 11
-6.20888
 21
8.43916
  0
LINE
  8
0
 10
-6.20888
 20
8.43916
 11
-6.70075
 21
8.77721
  0
LINE
  8
0
 10
-6.70075
 20
8.77721
 11
-7.17425
 21
9.14054
  0
LINE
  8
0
 10
-7.17425
 20
9.14054
 11
-7.62809
 21
9.52815
  0
LINE
  8
0
 10
-7.62809
 20
9.52815
 11
-7.86187
 21
9.75
  0
LINE
  8
0
 10
-7.86187
 20
9.75
 11
-8.4
 21
9.75
  0
LINE
  8
0
 10
-8.4
 20
9.75
 11
-8.4
 21
-9.75
  0
LINE
  8
0
 10
-3.1
 20
0
 11
-3.09575
 21
0.162241
  0
LINE
  8
0
 10
-3.09575
 20
0.162241
 11
-3.08302
 21
0.324038
  0
LINE
  8
0
 10
-3.08302
 20
0.324038
 11
-3.06183
 21
0.484946
  0
LINE
  8
0
 10
-3.06183
 20
0.484946
 11
-3.03226
 21
0.644526
  0
LINE
  8
0
 10
-3.03226
 20
0.644526
 11
-2.99437
 21
0.802339
  0
LINE
  8
0
 10
-2.99437
 20
0.802339
 11
-2.94827
 21
0.957952
  0
LINE
  8
0
 10
-2.94827
 20
0.957952
 11
-2.8941
 21
1.11094
  0
LINE
  8
0
 10
-2.8941
 20
1.11094
 11
-2.83199
 21
1.26088
  0
LINE
  8
0
 10
-2.83199
 20
1.26088
 11
-2.76212
 21
1.40737
  0
LINE
  8
0
 10
-2.76212
 20
1.40737
 11
-2.68468
 21
1.55
  0
LINE
  8
0
 10
-2.68468
 20
1.55
 11
-2.59988
 21
1.68838
  0
LINE
  8
0
 10
-2.59988
 20
1.68838
 11
-2.50795
 21
1.82213
  0
LINE
  8
0
 10
-2.50795
 20
1.82213
 11
-2.40915
 21
1.95089
  0
LINE
  8
0
 10
-2.40915
 20
1.95089
 11
-2.30375
 21
2.0743
  0
LINE
  8
0
 10
-2.30375
 20
2.0743
 11
-2.19203
 21
2.19203
  0
LINE
  8
0
 10
-2.19203
 20
2.19203
 11
-2.0743
 21
2.30375
  0
LINE
  8
0
 10
-2.0743
 20
2.30375
 11
-1.95089
 21
2.40915
  0
LINE
  8
0
 10
-1.95089
 20
2.40915
 11
-1.82213
 21
2.50795
  0
LINE
  8
0
 10
-1.82213
 20
2.50795
 11
-1.68838
 21
2.59988
  0
LINE
  8
0
 10
-1.68838
 20
2.59988
 11
-1.55
 21
2.68468
  0
LINE
  8
0
 10
-1.55
 20
2.68468
 11
-1.40737
 21
2.76212
  0
LINE
  8
0
 10
-1.40737
 20
2.76212
 11
-1.26088
 21
2.83199
  0
LINE
  8
0
 10
-1.26088
 20
2.83199
 11
-1.11094
 21
2.8941
  0
LINE
  8
0
 10
-1.11094
 20
2.8941
 11
-0.957952
 21
2.94827
  0
LINE
  8
0
 10
-0.957952
 20
2.94827
 11
-0.802339
 21
2.99437
  0
LINE
  8
0
 10
-0.802339
 20
2.99437
 11
-0.644526
 21
3.03226
  0
LINE
  8
0
 10
-0.644526
 20
3.03226
 11
-0.484946
 21
3.06183
  0
LINE
  8
0
 10
-0.484946
 20
3.06183
 11
-0.324038
 21
3.08302
  0
LINE
  8
0
 10
-0.324038
 20
3.08302
 11
-0.162241
 21
3.09575
  0
LINE
  8
0
 10
-0.162241
 20
3.09575
 11
0
 21
3.1
  0
LINE
  8
0
 10
0
 20
3.1
 11
0.162241
 21
3.09575
  0
LINE
  8
0
 10
0.162241
 20
3.09575
 11
0.324038
 21
3.08302
  0
LINE
  8
0
 10
0.324038
 20
3.08302
 11
0.484946
 21
3.06183
  0
LINE
  8
0
 10
0.484946
 20
3.06183
 11
0.644526
 21
3.03226
  0
LINE
  8
0
 10
0.644526
 20
3.03226
 11
0.802339
 21
2.99437
  0
LINE
  8
0
 10
0.802339
 20
2.99437
 11
0.957952
 21
2.94827
  0
LINE
  8
0
 10
0.957952
 20
2.94827
 11
1.11094
 21
2.8941
  0
LINE
  8
0
 10
1.11094
 20
2.8941
 11
1.26088
 21
2.83199
  0
LINE
  8
0
 10
1.26088
 20
2.83199
 11
1.40737
 21
2.76212
  0
LINE
  8
0
 10
1.40737
 20
2.76212
 11
1.55
 21
2.68468
  0
LINE
  8
0
 10
1.55
 20
2.68468
 11
1.68838
 21
2.59988
  0
LINE
  8
0
 10
1.68838
 20
2.59988
 11
1.82213
 21
2.50795
  0
LINE
  8
0
 10
1.82213
 20
2.50795
 11
1.95089
 21
2.40915
  0
LINE
  8
0
 10
1.95089
 20
2.40915
 11
2.0743
 21
2.30375
  0
LINE
  8
0
 10
2.0743
 20
2.30375
 11
2.19203
 21
2.19203
  0
LINE
  8
0
 10
2.19203
 20
2.19203
 11
2.30375
 21
2.0743
  0
LINE
  8
0
 10
2.30375
 20
2.0743
 11
2.40915
 21
1.95089
  0
LINE
  8
0
 10
2.40915
 20
1.95089
 11
2.50795
 21
1.82213
  0
LINE
  8
0
 10
2.50795
 20
1.82213
 11
2.59988
 21
1.68838
  0
LINE
  8
0
 10
2.59988
 20
1.68838
 11
2.68468
 21
1.55
  0
LINE
  8
0
 10
2.68468
 20
1.55
 11
2.76212
 21
1.40737
  0
LINE
  8
0
 10
2.76212
 20
1.40737
 11
2.83199
 21
1.26088
  0
LINE
  8
0
 10
2.83199
 20
1.26088
 11
2.8941
 21
1.11094
  0
LINE
  8
0
 10
2.8941
 20
1.11094
 11
2.94827
 21
0.957952
  0
LINE
  8
0
 10
2.94827
 20
0.957952
 11
2.99437
 21
0.802339
  0
LINE
  8
0
 10
2.99437
 20
0.802339
 11
3.03226
 21
0.644526
  0
LINE
  8
0
 10
3.03226
 20
0.644526
 11
3.06183
 21
0.484946
  0
LINE
  8
0
 10
3.06183
 20
0.484946
 11
3.08302
 21
0.324038
  0
LINE
  8
0
 10
3.08302
 20
0.324038
 11
3.09575
 21
0.162241
  0
LINE
  8
0
 10
3.09575
 20
0.162241
 11
3.1
 21
0
  0
LINE
  8
0
 10
3.1
 20
0
 11
3.09575
 21
-0.162241
  0
LINE
  8
0
 10
3.09575
 20
-0.162241
 11
3.08302
 21
-0.324038
  0
LINE
  8
0
 10
3.08302
 20
-0.324038
 11
3.06183
 21
-0.484946
  0
LINE
  8
0
 10
3.06183
 20
-0.484946
 11
3.03226
 21
-0.644526
  0
LINE
  8
0
 10
3.03226
 20
-0.644526
 11
2.99437
 21
-0.802339
  0
LINE
  8
0
 10
2.99437
 20
-0.802339
 11
2.94827
 21
-0.957952
  0
LINE
  8
0
 10
2.94827
 20
-0.957952
 11
2.8941
 21
-1.11094
  0
LINE
  8
0
 10
2.8941
 20
-1.11094
 11
2.83199
 21
-1.26088
  0
LINE
  8
0
 10
2.83199
 20
-1.26088
 11
2.76212
 21
-1.40737
  0
LINE
  8
0
 10
2.76212
 20
-1.40737
 11
2.68468
 21
-1.55
  0
LINE
  8
0
 10
2.68468
 20
-1.55
 11
2.59988
 21
-1.68838
  0
LINE
  8
0
 10
2.59988
 20
-1.68838
 11
2.50795
 21
-1.82213
  0
LINE
  8
0
 10
2.50795
 20
-1.82213
 11
2.40915
 21
-1.95089
  0
LINE
  8
0
 10
2.40915
 20
-1.95089
 11
2.30375
 21
-2.0743
  0
LINE
  8
0
 10
2.30375
 20
-2.0743
 11
2.19203
 21
-2.19203
  0
LINE
  8
0
 10
2.19203
 20
-2.19203
 11
2.0743
 21
-2.30375
  0
LINE
  8
0
 10
2.0743
 20
-2.30375
 11
1.95089
 21
-2.40915
  0
LINE
  8
0
 10
1.95089
 20
-2.40915
 11
1.82213
 21
-2.50795
  0
LINE
  8
0
 10
1.82213
 20
-2.50795
 11
1.68838
 21
-2.59988
  0
LINE
  8
0
 10
1.68838
 20
-2.59988
 11
1.55
 21
-2.68468
  0
LINE
  8
0
 10
1.55
 20
-2.68468
 11
1.40737
 21
-2.76212
  0
LINE
  8
0
 10
1.40737
 20
-2.76212
 11
1.26088
 21
-2.83199
  0
LINE
  8
0
 10
1.26088
 20
-2.83199
 11
1.11094
 21
-2.8941
  0
LINE
  8
0
 10
1.11094
 20
-2.8941
 11
0.957952
 21
-2.94827
  0
LINE
  8
0
 10
0.957952
 20
-2.94827
 11
0.802339
 21
-2.99437
  0
LINE
  8
0
 10
0.802339
 20
-2.99437
 11
0.644526
 21
-3.03226
  0
LINE
  8
0
 10
0.644526
 20
-3.03226
 11
0.484946
 21
-3.06183
  0
LINE
  8
0
 10
0.484946
 20
-3.06183
 11
0.324038
 21
-3.08302
  0
LINE
  8
0
 10
0.324038
 20
-3.08302
 11
0.162241
 21
-3.09575
  0
LINE
  8
0
 10
0.162241
 20
-3.09575
 11
0
 21
-3.1
  0
LINE
  8
0
 10
0
 20
-3.1
 11
-0.162241
 21
-3.09575
  0
LINE
  8
0
 10
-0.162241
 20
-3.09575
 11
-0.324038
 21
-3.08302
  0
LINE
  8
0
 10
-0.324038
 20
-3.08302
 11
-0.484946
 21
-3.06183
  0
LINE
  8
0
 10
-0.484946
 20
-3.06183
 11
-0.644526
 21
-3.03226
  0
LINE
  8
0
 10
-0.644526
 20
-3.03226
 11
-0.802339
 21
-2.99437
  0
LINE
  8
0
 10
-0.802339
 20
-2.99437
 11
-0.957952
 21
-2.94827
  0
LINE
  8
0
 10
-0.957952
 20
-2.94827
 11
-1.11094
 21
-2.8941
  0
LINE
  8
0
 10
-1.11094
 20
-2.8941
 11
-1.26088
 21
-2.83199
  0
LINE
  8
0
 10
-1.26088
 20
-2.83199
 11
-1.40737
 21
-2.76212
  0
LINE
  8
0
 10
-1.40737
 20
-2.76212
 11
-1.55
 21
-2.68468
  0
LINE
  8
0
 10
-1.55
 20
-2.68468
 11
-1.68838
 21
-2.59988
  0
LINE
  8
0
 10
-1.68838
 20
-2.59988
 11
-1.82213
 21
-2.50795
  0
LINE
  8
0
 10
-1.82213
 20
-2.50795
 11
-1.95089
 21
-2.40915
  0
LINE
  8
0
 10
-1.95089
 20
-2.40915
 11
-2.0743
 21
-2.30375
  0
LINE
  8
0
 10
-2.0743
 20
-2.30375
 11
-2.19203
 21
-2.19203
  0
LINE
  8
0
 10
-2.19203
 20
-2.19203
 11
-2.30375
 21
-2.0743
  0
LINE
  8
0
 10
-2.30375
 20
-2.0743
 11
-2.40915
 21
-1.95089
  0
LINE
  8
0
 10
-2.40915
 20
-1.95089
 11
-2.50795
 21
-1.82213
  0
LINE
  8
0
 10
-2.50795
 20
-1.82213
 11
-2.59988
 21
-1.68838
  0
LINE
  8
0
 10
-2.59988
 20
-1.68838
 11
-2.68468
 21
-1.55
  0
LINE
  8
0
 10
-2.68468
 20
-1.55
 11
-2.76212
 21
-1.40737
  0
LINE
  8
0
 10
-2.76212
 20
-1.40737
 11
-2.83199
 21
-1.26088
  0
LINE
  8
0
 10
-2.83199
 20
-1.26088
 11
-2.8941
 21
-1.11094
  0
LINE
  8
0
 10
-2.8941
 20
-1.11094
 11
-2.94827
 21
-0.957952
  0
LINE
  8
0
 10
-2.94827
 20
-0.957952
 11
-2.99437
 21
-0.802339
  0
LINE
  8
0
 10
-2.99437
 20
-0.802339
 11
-3.03226
 21
-0.644526
  0
LINE
  8
0
 10
-3.03226
 20
-0.644526
 11
-3.06183
 21
-0.484946
  0
LINE
  8
0
 10
-3.06183
 20
-0.484946
 11
-3.08302
 21
-0.324038
  0
LINE
  8
0
 10
-3.08302
 20
-0.324038
 11
-3.09575
 21
-0.162241
  0
LINE
  8
0
 10
-3.09575
 20
-0.162241
 11
-3.1
 21
0
  0
ENDSEC
  0
SECTION
  2
OBJECTS
  0
DICTIONARY
  0
ENDSEC
  0
EOF
