  0
SECTION
  2
BLOCKS
  0
ENDSEC
  0
SECTION
  2
ENTITIES
  0
LINE
  8
0
 10
-68.2
 20
-82.5
 11
-65.22
 21
-82.5
  0
LINE
  8
0
 10
-65.22
 20
-82.5
 11
-65.22
 21
-97
  0
LINE
  8
0
 10
-65.22
 20
-97
 11
-65.22
 21
-97.0014
  0
LINE
  8
0
 10
-65.22
 20
-97.0014
 11
-65.2198
 21
-97.0028
  0
LINE
  8
0
 10
-65.2198
 20
-97.0028
 11
-65.2196
 21
-97.0042
  0
LINE
  8
0
 10
-65.2196
 20
-97.0042
 11
-65.2192
 21
-97.0055
  0
LINE
  8
0
 10
-65.2192
 20
-97.0055
 11
-65.2188
 21
-97.0068
  0
LINE
  8
0
 10
-65.2188
 20
-97.0068
 11
-65.2183
 21
-97.0081
  0
LINE
  8
0
 10
-65.2183
 20
-97.0081
 11
-65.2177
 21
-97.0094
  0
LINE
  8
0
 10
-65.2177
 20
-97.0094
 11
-65.217
 21
-97.0106
  0
LINE
  8
0
 10
-65.217
 20
-97.0106
 11
-65.2162
 21
-97.0118
  0
LINE
  8
0
 10
-65.2162
 20
-97.0118
 11
-65.2153
 21
-97.0129
  0
LINE
  8
0
 10
-65.2153
 20
-97.0129
 11
-65.2144
 21
-97.0139
  0
LINE
  8
0
 10
-65.2144
 20
-97.0139
 11
-65.2134
 21
-97.0149
  0
LINE
  8
0
 10
-65.2134
 20
-97.0149
 11
-65.2123
 21
-97.0158
  0
LINE
  8
0
 10
-65.2123
 20
-97.0158
 11
-65.2112
 21
-97.0166
  0
LINE
  8
0
 10
-65.2112
 20
-97.0166
 11
-65.21
 21
-97.0173
  0
LINE
  8
0
 10
-65.21
 20
-97.0173
 11
-65.2088
 21
-97.018
  0
LINE
  8
0
 10
-65.2088
 20
-97.018
 11
-65.2075
 21
-97.0185
  0
LINE
  8
0
 10
-65.2075
 20
-97.0185
 11
-65.2062
 21
-97.019
  0
LINE
  8
0
 10
-65.2062
 20
-97.019
 11
-65.2048
 21
-97.0194
  0
LINE
  8
0
 10
-65.2048
 20
-97.0194
 11
-65.2035
 21
-97.0197
  0
LINE
  8
0
 10
-65.2035
 20
-97.0197
 11
-65.2021
 21
-97.0199
  0
LINE
  8
0
 10
-65.2021
 20
-97.0199
 11
-65.2007
 21
-97.02
  0
LINE
  8
0
 10
-65.2007
 20
-97.02
 11
-50.325
 21
-97.02
  0
LINE
  8
0
 10
-50.325
 20
-97.02
 11
-50.325
 21
-100
  0
LINE
  8
0
 10
-50.325
 20
-100
 11
-35.325
 21
-100
  0
LINE
  8
0
 10
-35.325
 20
-100
 11
-35.325
 21
-97.02
  0
LINE
  8
0
 10
-35.325
 20
-97.02
 11
-7.5
 21
-97.02
  0
LINE
  8
0
 10
-7.5
 20
-97.02
 11
-7.5
 21
-100
  0
LINE
  8
0
 10
-7.5
 20
-100
 11
7.5
 21
-100
  0
LINE
  8
0
 10
7.5
 20
-100
 11
7.5
 21
-97.02
  0
LINE
  8
0
 10
7.5
 20
-97.02
 11
35.325
 21
-97.02
  0
LINE
  8
0
 10
35.325
 20
-97.02
 11
35.325
 21
-100
  0
LINE
  8
0
 10
35.325
 20
-100
 11
50.325
 21
-100
  0
LINE
  8
0
 10
50.325
 20
-100
 11
50.325
 21
-97.02
  0
LINE
  8
0
 10
50.325
 20
-97.02
 11
65.2007
 21
-97.02
  0
LINE
  8
0
 10
65.2007
 20
-97.02
 11
65.2021
 21
-97.0199
  0
LINE
  8
0
 10
65.2021
 20
-97.0199
 11
65.2035
 21
-97.0197
  0
LINE
  8
0
 10
65.2035
 20
-97.0197
 11
65.2048
 21
-97.0194
  0
LINE
  8
0
 10
65.2048
 20
-97.0194
 11
65.2062
 21
-97.019
  0
LINE
  8
0
 10
65.2062
 20
-97.019
 11
65.2075
 21
-97.0185
  0
LINE
  8
0
 10
65.2075
 20
-97.0185
 11
65.2088
 21
-97.018
  0
LINE
  8
0
 10
65.2088
 20
-97.018
 11
65.21
 21
-97.0173
  0
LINE
  8
0
 10
65.21
 20
-97.0173
 11
65.2112
 21
-97.0166
  0
LINE
  8
0
 10
65.2112
 20
-97.0166
 11
65.2123
 21
-97.0158
  0
LINE
  8
0
 10
65.2123
 20
-97.0158
 11
65.2134
 21
-97.0149
  0
LINE
  8
0
 10
65.2134
 20
-97.0149
 11
65.2144
 21
-97.0139
  0
LINE
  8
0
 10
65.2144
 20
-97.0139
 11
65.2153
 21
-97.0129
  0
LINE
  8
0
 10
65.2153
 20
-97.0129
 11
65.2162
 21
-97.0118
  0
LINE
  8
0
 10
65.2162
 20
-97.0118
 11
65.217
 21
-97.0106
  0
LINE
  8
0
 10
65.217
 20
-97.0106
 11
65.2177
 21
-97.0094
  0
LINE
  8
0
 10
65.2177
 20
-97.0094
 11
65.2183
 21
-97.0081
  0
LINE
  8
0
 10
65.2183
 20
-97.0081
 11
65.2188
 21
-97.0068
  0
LINE
  8
0
 10
65.2188
 20
-97.0068
 11
65.2192
 21
-97.0055
  0
LINE
  8
0
 10
65.2192
 20
-97.0055
 11
65.2196
 21
-97.0042
  0
LINE
  8
0
 10
65.2196
 20
-97.0042
 11
65.2198
 21
-97.0028
  0
LINE
  8
0
 10
65.2198
 20
-97.0028
 11
65.22
 21
-97.0014
  0
LINE
  8
0
 10
65.22
 20
-97.0014
 11
65.22
 21
-97
  0
LINE
  8
0
 10
65.22
 20
-97
 11
65.22
 21
-82.5
  0
LINE
  8
0
 10
65.22
 20
-82.5
 11
68.2
 21
-82.5
  0
LINE
  8
0
 10
68.2
 20
-82.5
 11
68.2
 21
-67.5
  0
LINE
  8
0
 10
68.2
 20
-67.5
 11
65.22
 21
-67.5
  0
LINE
  8
0
 10
65.22
 20
-67.5
 11
65.22
 21
-45
  0
LINE
  8
0
 10
65.22
 20
-45
 11
68.2
 21
-45
  0
LINE
  8
0
 10
68.2
 20
-45
 11
68.2
 21
-30
  0
LINE
  8
0
 10
68.2
 20
-30
 11
65.22
 21
-30
  0
LINE
  8
0
 10
65.22
 20
-30
 11
65.22
 21
-7.5
  0
LINE
  8
0
 10
65.22
 20
-7.5
 11
68.2
 21
-7.5
  0
LINE
  8
0
 10
68.2
 20
-7.5
 11
68.2
 21
7.5
  0
LINE
  8
0
 10
68.2
 20
7.5
 11
65.22
 21
7.5
  0
LINE
  8
0
 10
65.22
 20
7.5
 11
65.22
 21
30
  0
LINE
  8
0
 10
65.22
 20
30
 11
68.2
 21
30
  0
LINE
  8
0
 10
68.2
 20
30
 11
68.2
 21
45
  0
LINE
  8
0
 10
68.2
 20
45
 11
65.22
 21
45
  0
LINE
  8
0
 10
65.22
 20
45
 11
65.22
 21
67.5
  0
LINE
  8
0
 10
65.22
 20
67.5
 11
68.2
 21
67.5
  0
LINE
  8
0
 10
68.2
 20
67.5
 11
68.2
 21
82.5
  0
LINE
  8
0
 10
68.2
 20
82.5
 11
65.22
 21
82.5
  0
LINE
  8
0
 10
65.22
 20
82.5
 11
65.22
 21
97
  0
LINE
  8
0
 10
65.22
 20
97
 11
65.22
 21
97.0014
  0
LINE
  8
0
 10
65.22
 20
97.0014
 11
65.2198
 21
97.0028
  0
LINE
  8
0
 10
65.2198
 20
97.0028
 11
65.2196
 21
97.0042
  0
LINE
  8
0
 10
65.2196
 20
97.0042
 11
65.2192
 21
97.0055
  0
LINE
  8
0
 10
65.2192
 20
97.0055
 11
65.2188
 21
97.0068
  0
LINE
  8
0
 10
65.2188
 20
97.0068
 11
65.2183
 21
97.0081
  0
LINE
  8
0
 10
65.2183
 20
97.0081
 11
65.2177
 21
97.0094
  0
LINE
  8
0
 10
65.2177
 20
97.0094
 11
65.217
 21
97.0106
  0
LINE
  8
0
 10
65.217
 20
97.0106
 11
65.2162
 21
97.0118
  0
LINE
  8
0
 10
65.2162
 20
97.0118
 11
65.2153
 21
97.0129
  0
LINE
  8
0
 10
65.2153
 20
97.0129
 11
65.2144
 21
97.0139
  0
LINE
  8
0
 10
65.2144
 20
97.0139
 11
65.2134
 21
97.0149
  0
LINE
  8
0
 10
65.2134
 20
97.0149
 11
65.2123
 21
97.0158
  0
LINE
  8
0
 10
65.2123
 20
97.0158
 11
65.2112
 21
97.0166
  0
LINE
  8
0
 10
65.2112
 20
97.0166
 11
65.21
 21
97.0173
  0
LINE
  8
0
 10
65.21
 20
97.0173
 11
65.2088
 21
97.018
  0
LINE
  8
0
 10
65.2088
 20
97.018
 11
65.2075
 21
97.0185
  0
LINE
  8
0
 10
65.2075
 20
97.0185
 11
65.2062
 21
97.019
  0
LINE
  8
0
 10
65.2062
 20
97.019
 11
65.2048
 21
97.0194
  0
LINE
  8
0
 10
65.2048
 20
97.0194
 11
65.2035
 21
97.0197
  0
LINE
  8
0
 10
65.2035
 20
97.0197
 11
65.2021
 21
97.0199
  0
LINE
  8
0
 10
65.2021
 20
97.0199
 11
65.2007
 21
97.02
  0
LINE
  8
0
 10
65.2007
 20
97.02
 11
50.325
 21
97.02
  0
LINE
  8
0
 10
50.325
 20
97.02
 11
50.325
 21
100
  0
LINE
  8
0
 10
50.325
 20
100
 11
35.325
 21
100
  0
LINE
  8
0
 10
35.325
 20
100
 11
35.325
 21
97.02
  0
LINE
  8
0
 10
35.325
 20
97.02
 11
7.5
 21
97.02
  0
LINE
  8
0
 10
7.5
 20
97.02
 11
7.5
 21
100
  0
LINE
  8
0
 10
7.5
 20
100
 11
-7.5
 21
100
  0
LINE
  8
0
 10
-7.5
 20
100
 11
-7.5
 21
97.02
  0
LINE
  8
0
 10
-7.5
 20
97.02
 11
-35.325
 21
97.02
  0
LINE
  8
0
 10
-35.325
 20
97.02
 11
-35.325
 21
100
  0
LINE
  8
0
 10
-35.325
 20
100
 11
-50.325
 21
100
  0
LINE
  8
0
 10
-50.325
 20
100
 11
-50.325
 21
97.02
  0
LINE
  8
0
 10
-50.325
 20
97.02
 11
-65.2007
 21
97.02
  0
LINE
  8
0
 10
-65.2007
 20
97.02
 11
-65.2021
 21
97.0199
  0
LINE
  8
0
 10
-65.2021
 20
97.0199
 11
-65.2035
 21
97.0197
  0
LINE
  8
0
 10
-65.2035
 20
97.0197
 11
-65.2048
 21
97.0194
  0
LINE
  8
0
 10
-65.2048
 20
97.0194
 11
-65.2062
 21
97.019
  0
LINE
  8
0
 10
-65.2062
 20
97.019
 11
-65.2075
 21
97.0185
  0
LINE
  8
0
 10
-65.2075
 20
97.0185
 11
-65.2088
 21
97.018
  0
LINE
  8
0
 10
-65.2088
 20
97.018
 11
-65.21
 21
97.0173
  0
LINE
  8
0
 10
-65.21
 20
97.0173
 11
-65.2112
 21
97.0166
  0
LINE
  8
0
 10
-65.2112
 20
97.0166
 11
-65.2123
 21
97.0158
  0
LINE
  8
0
 10
-65.2123
 20
97.0158
 11
-65.2134
 21
97.0149
  0
LINE
  8
0
 10
-65.2134
 20
97.0149
 11
-65.2144
 21
97.0139
  0
LINE
  8
0
 10
-65.2144
 20
97.0139
 11
-65.2153
 21
97.0129
  0
LINE
  8
0
 10
-65.2153
 20
97.0129
 11
-65.2162
 21
97.0118
  0
LINE
  8
0
 10
-65.2162
 20
97.0118
 11
-65.217
 21
97.0106
  0
LINE
  8
0
 10
-65.217
 20
97.0106
 11
-65.2177
 21
97.0094
  0
LINE
  8
0
 10
-65.2177
 20
97.0094
 11
-65.2183
 21
97.0081
  0
LINE
  8
0
 10
-65.2183
 20
97.0081
 11
-65.2188
 21
97.0068
  0
LINE
  8
0
 10
-65.2188
 20
97.0068
 11
-65.2192
 21
97.0055
  0
LINE
  8
0
 10
-65.2192
 20
97.0055
 11
-65.2196
 21
97.0042
  0
LINE
  8
0
 10
-65.2196
 20
97.0042
 11
-65.2198
 21
97.0028
  0
LINE
  8
0
 10
-65.2198
 20
97.0028
 11
-65.22
 21
97.0014
  0
LINE
  8
0
 10
-65.22
 20
97.0014
 11
-65.22
 21
97
  0
LINE
  8
0
 10
-65.22
 20
97
 11
-65.22
 21
82.5
  0
LINE
  8
0
 10
-65.22
 20
82.5
 11
-68.2
 21
82.5
  0
LINE
  8
0
 10
-68.2
 20
82.5
 11
-68.2
 21
67.5
  0
LINE
  8
0
 10
-68.2
 20
67.5
 11
-65.22
 21
67.5
  0
LINE
  8
0
 10
-65.22
 20
67.5
 11
-65.22
 21
45
  0
LINE
  8
0
 10
-65.22
 20
45
 11
-68.2
 21
45
  0
LINE
  8
0
 10
-68.2
 20
45
 11
-68.2
 21
30
  0
LINE
  8
0
 10
-68.2
 20
30
 11
-65.22
 21
30
  0
LINE
  8
0
 10
-65.22
 20
30
 11
-65.22
 21
7.5
  0
LINE
  8
0
 10
-65.22
 20
7.5
 11
-68.2
 21
7.5
  0
LINE
  8
0
 10
-68.2
 20
7.5
 11
-68.2
 21
-7.5
  0
LINE
  8
0
 10
-68.2
 20
-7.5
 11
-65.22
 21
-7.5
  0
LINE
  8
0
 10
-65.22
 20
-7.5
 11
-65.22
 21
-30
  0
LINE
  8
0
 10
-65.22
 20
-30
 11
-68.2
 21
-30
  0
LINE
  8
0
 10
-68.2
 20
-30
 11
-68.2
 21
-45
  0
LINE
  8
0
 10
-68.2
 20
-45
 11
-65.22
 21
-45
  0
LINE
  8
0
 10
-65.22
 20
-45
 11
-65.22
 21
-67.5
  0
LINE
  8
0
 10
-65.22
 20
-67.5
 11
-68.2
 21
-67.5
  0
LINE
  8
0
 10
-68.2
 20
-67.5
 11
-68.2
 21
-82.5
  0
LINE
  8
0
 10
-50.325
 20
-20.3
 11
-50.325
 21
-14.3
  0
LINE
  8
0
 10
-50.325
 20
-14.3
 11
-35.325
 21
-14.3
  0
LINE
  8
0
 10
-35.325
 20
-14.3
 11
-35.325
 21
-20.3
  0
LINE
  8
0
 10
-35.325
 20
-20.3
 11
-50.325
 21
-20.3
  0
LINE
  8
0
 10
-50.325
 20
14.3
 11
-50.325
 21
20.3
  0
LINE
  8
0
 10
-50.325
 20
20.3
 11
-35.325
 21
20.3
  0
LINE
  8
0
 10
-35.325
 20
20.3
 11
-35.325
 21
14.3
  0
LINE
  8
0
 10
-35.325
 20
14.3
 11
-50.325
 21
14.3
  0
LINE
  8
0
 10
-48.875
 20
-57
 11
-48.8007
 21
-54.8724
  0
LINE
  8
0
 10
-48.8007
 20
-54.8724
 11
-48.5782
 21
-52.7552
  0
LINE
  8
0
 10
-48.5782
 20
-52.7552
 11
-48.2085
 21
-50.6587
  0
LINE
  8
0
 10
-48.2085
 20
-50.6587
 11
-47.6935
 21
-48.5931
  0
LINE
  8
0
 10
-47.6935
 20
-48.5931
 11
-47.0356
 21
-46.5684
  0
LINE
  8
0
 10
-47.0356
 20
-46.5684
 11
-46.2381
 21
-44.5945
  0
LINE
  8
0
 10
-46.2381
 20
-44.5945
 11
-45.3049
 21
-42.6811
  0
LINE
  8
0
 10
-45.3049
 20
-42.6811
 11
-44.2405
 21
-40.8375
  0
LINE
  8
0
 10
-44.2405
 20
-40.8375
 11
-43.05
 21
-39.0725
  0
LINE
  8
0
 10
-43.05
 20
-39.0725
 11
-41.7394
 21
-37.395
  0
LINE
  8
0
 10
-41.7394
 20
-37.395
 11
-40.3149
 21
-35.8129
  0
LINE
  8
0
 10
-40.3149
 20
-35.8129
 11
-38.7835
 21
-34.3341
  0
LINE
  8
0
 10
-38.7835
 20
-34.3341
 11
-37.1527
 21
-32.9657
  0
LINE
  8
0
 10
-37.1527
 20
-32.9657
 11
-35.4304
 21
-31.7144
  0
LINE
  8
0
 10
-35.4304
 20
-31.7144
 11
-33.625
 21
-30.5862
  0
LINE
  8
0
 10
-33.625
 20
-30.5862
 11
-31.7453
 21
-29.5868
  0
LINE
  8
0
 10
-31.7453
 20
-29.5868
 11
-29.8005
 21
-28.7209
  0
LINE
  8
0
 10
-29.8005
 20
-28.7209
 11
-27.8
 21
-27.9928
  0
LINE
  8
0
 10
-27.8
 20
-27.9928
 11
-25.7536
 21
-27.406
  0
LINE
  8
0
 10
-25.7536
 20
-27.406
 11
-23.6713
 21
-26.9634
  0
LINE
  8
0
 10
-23.6713
 20
-26.9634
 11
-21.5631
 21
-26.6671
  0
LINE
  8
0
 10
-21.5631
 20
-26.6671
 11
-19.4394
 21
-26.5186
  0
LINE
  8
0
 10
-19.4394
 20
-26.5186
 11
-17.3106
 21
-26.5186
  0
LINE
  8
0
 10
-17.3106
 20
-26.5186
 11
-15.1869
 21
-26.6671
  0
LINE
  8
0
 10
-15.1869
 20
-26.6671
 11
-13.0787
 21
-26.9634
  0
LINE
  8
0
 10
-13.0787
 20
-26.9634
 11
-10.9964
 21
-27.406
  0
LINE
  8
0
 10
-10.9964
 20
-27.406
 11
-8.94998
 21
-27.9928
  0
LINE
  8
0
 10
-8.94998
 20
-27.9928
 11
-6.9495
 21
-28.7209
  0
LINE
  8
0
 10
-6.9495
 20
-28.7209
 11
-5.00468
 21
-29.5868
  0
LINE
  8
0
 10
-5.00468
 20
-29.5868
 11
-3.125
 21
-30.5862
  0
LINE
  8
0
 10
-3.125
 20
-30.5862
 11
-1.31962
 21
-31.7144
  0
LINE
  8
0
 10
-1.31962
 20
-31.7144
 11
0.402675
 21
-32.9657
  0
LINE
  8
0
 10
0.402675
 20
-32.9657
 11
2.03348
 21
-34.3341
  0
LINE
  8
0
 10
2.03348
 20
-34.3341
 11
3.56486
 21
-35.8129
  0
LINE
  8
0
 10
3.56486
 20
-35.8129
 11
4.98936
 21
-37.395
  0
LINE
  8
0
 10
4.98936
 20
-37.395
 11
6.30002
 21
-39.0725
  0
LINE
  8
0
 10
6.30002
 20
-39.0725
 11
7.49047
 21
-40.8375
  0
LINE
  8
0
 10
7.49047
 20
-40.8375
 11
8.5549
 21
-42.6811
  0
LINE
  8
0
 10
8.5549
 20
-42.6811
 11
9.48814
 21
-44.5945
  0
LINE
  8
0
 10
9.48814
 20
-44.5945
 11
10.2856
 21
-46.5684
  0
LINE
  8
0
 10
10.2856
 20
-46.5684
 11
10.9435
 21
-48.5931
  0
LINE
  8
0
 10
10.9435
 20
-48.5931
 11
11.4585
 21
-50.6587
  0
LINE
  8
0
 10
11.4585
 20
-50.6587
 11
11.8282
 21
-52.7552
  0
LINE
  8
0
 10
11.8282
 20
-52.7552
 11
12.0507
 21
-54.8724
  0
LINE
  8
0
 10
12.0507
 20
-54.8724
 11
12.125
 21
-57
  0
LINE
  8
0
 10
12.125
 20
-57
 11
12.0507
 21
-59.1276
  0
LINE
  8
0
 10
12.0507
 20
-59.1276
 11
11.8282
 21
-61.2448
  0
LINE
  8
0
 10
11.8282
 20
-61.2448
 11
11.4585
 21
-63.3413
  0
LINE
  8
0
 10
11.4585
 20
-63.3413
 11
10.9435
 21
-65.4069
  0
LINE
  8
0
 10
10.9435
 20
-65.4069
 11
10.2856
 21
-67.4316
  0
LINE
  8
0
 10
10.2856
 20
-67.4316
 11
9.48814
 21
-69.4055
  0
LINE
  8
0
 10
9.48814
 20
-69.4055
 11
8.5549
 21
-71.3189
  0
LINE
  8
0
 10
8.5549
 20
-71.3189
 11
7.49047
 21
-73.1625
  0
LINE
  8
0
 10
7.49047
 20
-73.1625
 11
6.30002
 21
-74.9275
  0
LINE
  8
0
 10
6.30002
 20
-74.9275
 11
4.98936
 21
-76.605
  0
LINE
  8
0
 10
4.98936
 20
-76.605
 11
3.56486
 21
-78.1871
  0
LINE
  8
0
 10
3.56486
 20
-78.1871
 11
2.03348
 21
-79.6659
  0
LINE
  8
0
 10
2.03348
 20
-79.6659
 11
0.402675
 21
-81.0343
  0
LINE
  8
0
 10
0.402675
 20
-81.0343
 11
-1.31962
 21
-82.2856
  0
LINE
  8
0
 10
-1.31962
 20
-82.2856
 11
-3.125
 21
-83.4138
  0
LINE
  8
0
 10
-3.125
 20
-83.4138
 11
-5.00468
 21
-84.4132
  0
LINE
  8
0
 10
-5.00468
 20
-84.4132
 11
-6.9495
 21
-85.2791
  0
LINE
  8
0
 10
-6.9495
 20
-85.2791
 11
-8.94998
 21
-86.0072
  0
LINE
  8
0
 10
-8.94998
 20
-86.0072
 11
-10.9964
 21
-86.594
  0
LINE
  8
0
 10
-10.9964
 20
-86.594
 11
-13.0787
 21
-87.0366
  0
LINE
  8
0
 10
-13.0787
 20
-87.0366
 11
-15.1869
 21
-87.3329
  0
LINE
  8
0
 10
-15.1869
 20
-87.3329
 11
-17.3106
 21
-87.4814
  0
LINE
  8
0
 10
-17.3106
 20
-87.4814
 11
-19.4394
 21
-87.4814
  0
LINE
  8
0
 10
-19.4394
 20
-87.4814
 11
-21.5631
 21
-87.3329
  0
LINE
  8
0
 10
-21.5631
 20
-87.3329
 11
-23.6713
 21
-87.0366
  0
LINE
  8
0
 10
-23.6713
 20
-87.0366
 11
-25.7536
 21
-86.594
  0
LINE
  8
0
 10
-25.7536
 20
-86.594
 11
-27.8
 21
-86.0072
  0
LINE
  8
0
 10
-27.8
 20
-86.0072
 11
-29.8005
 21
-85.2791
  0
LINE
  8
0
 10
-29.8005
 20
-85.2791
 11
-31.7453
 21
-84.4132
  0
LINE
  8
0
 10
-31.7453
 20
-84.4132
 11
-33.625
 21
-83.4138
  0
LINE
  8
0
 10
-33.625
 20
-83.4138
 11
-35.4304
 21
-82.2856
  0
LINE
  8
0
 10
-35.4304
 20
-82.2856
 11
-37.1527
 21
-81.0343
  0
LINE
  8
0
 10
-37.1527
 20
-81.0343
 11
-38.7835
 21
-79.6659
  0
LINE
  8
0
 10
-38.7835
 20
-79.6659
 11
-40.3149
 21
-78.1871
  0
LINE
  8
0
 10
-40.3149
 20
-78.1871
 11
-41.7394
 21
-76.605
  0
LINE
  8
0
 10
-41.7394
 20
-76.605
 11
-43.05
 21
-74.9275
  0
LINE
  8
0
 10
-43.05
 20
-74.9275
 11
-44.2405
 21
-73.1625
  0
LINE
  8
0
 10
-44.2405
 20
-73.1625
 11
-45.3049
 21
-71.3189
  0
LINE
  8
0
 10
-45.3049
 20
-71.3189
 11
-46.2381
 21
-69.4055
  0
LINE
  8
0
 10
-46.2381
 20
-69.4055
 11
-47.0356
 21
-67.4316
  0
LINE
  8
0
 10
-47.0356
 20
-67.4316
 11
-47.6935
 21
-65.4069
  0
LINE
  8
0
 10
-47.6935
 20
-65.4069
 11
-48.2085
 21
-63.3413
  0
LINE
  8
0
 10
-48.2085
 20
-63.3413
 11
-48.5782
 21
-61.2448
  0
LINE
  8
0
 10
-48.5782
 20
-61.2448
 11
-48.8007
 21
-59.1276
  0
LINE
  8
0
 10
-48.8007
 20
-59.1276
 11
-48.875
 21
-57
  0
LINE
  8
0
 10
-10
 20
0
 11
-9.99756
 21
0.0697556
  0
LINE
  8
0
 10
-9.99756
 20
0.0697556
 11
-9.99027
 21
0.139173
  0
LINE
  8
0
 10
-9.99027
 20
0.139173
 11
-9.97815
 21
0.207911
  0
LINE
  8
0
 10
-9.97815
 20
0.207911
 11
-9.96126
 21
0.275637
  0
LINE
  8
0
 10
-9.96126
 20
0.275637
 11
-9.93969
 21
0.34202
  0
LINE
  8
0
 10
-9.93969
 20
0.34202
 11
-9.91354
 21
0.406736
  0
LINE
  8
0
 10
-9.91354
 20
0.406736
 11
-9.88295
 21
0.469471
  0
LINE
  8
0
 10
-9.88295
 20
0.469471
 11
-9.84805
 21
0.529919
  0
LINE
  8
0
 10
-9.84805
 20
0.529919
 11
-9.80902
 21
0.587785
  0
LINE
  8
0
 10
-9.80902
 20
0.587785
 11
-9.76604
 21
0.642787
  0
LINE
  8
0
 10
-9.76604
 20
0.642787
 11
-9.71934
 21
0.694658
  0
LINE
  8
0
 10
-9.71934
 20
0.694658
 11
-9.66913
 21
0.743144
  0
LINE
  8
0
 10
-9.66913
 20
0.743144
 11
-9.61566
 21
0.788011
  0
LINE
  8
0
 10
-9.61566
 20
0.788011
 11
-9.55919
 21
0.829037
  0
LINE
  8
0
 10
-9.55919
 20
0.829037
 11
-9.5
 21
0.866025
  0
LINE
  8
0
 10
-9.5
 20
0.866025
 11
-9.43837
 21
0.898793
  0
LINE
  8
0
 10
-9.43837
 20
0.898793
 11
-9.37461
 21
0.927183
  0
LINE
  8
0
 10
-9.37461
 20
0.927183
 11
-9.30902
 21
0.951056
  0
LINE
  8
0
 10
-9.30902
 20
0.951056
 11
-9.24192
 21
0.970295
  0
LINE
  8
0
 10
-9.24192
 20
0.970295
 11
-9.17365
 21
0.984807
  0
LINE
  8
0
 10
-9.17365
 20
0.984807
 11
-9.10453
 21
0.994521
  0
LINE
  8
0
 10
-9.10453
 20
0.994521
 11
-9.0349
 21
0.999391
  0
LINE
  8
0
 10
-9.0349
 20
0.999391
 11
-8.9651
 21
0.999391
  0
LINE
  8
0
 10
-8.9651
 20
0.999391
 11
-8.89547
 21
0.994521
  0
LINE
  8
0
 10
-8.89547
 20
0.994521
 11
-8.82635
 21
0.984807
  0
LINE
  8
0
 10
-8.82635
 20
0.984807
 11
-8.75808
 21
0.970295
  0
LINE
  8
0
 10
-8.75808
 20
0.970295
 11
-8.69098
 21
0.951056
  0
LINE
  8
0
 10
-8.69098
 20
0.951056
 11
-8.62539
 21
0.927183
  0
LINE
  8
0
 10
-8.62539
 20
0.927183
 11
-8.56163
 21
0.898793
  0
LINE
  8
0
 10
-8.56163
 20
0.898793
 11
-8.5
 21
0.866025
  0
LINE
  8
0
 10
-8.5
 20
0.866025
 11
-8.44081
 21
0.829037
  0
LINE
  8
0
 10
-8.44081
 20
0.829037
 11
-8.38434
 21
0.788011
  0
LINE
  8
0
 10
-8.38434
 20
0.788011
 11
-8.33087
 21
0.743144
  0
LINE
  8
0
 10
-8.33087
 20
0.743144
 11
-8.28066
 21
0.694658
  0
LINE
  8
0
 10
-8.28066
 20
0.694658
 11
-8.23396
 21
0.642787
  0
LINE
  8
0
 10
-8.23396
 20
0.642787
 11
-8.19098
 21
0.587785
  0
LINE
  8
0
 10
-8.19098
 20
0.587785
 11
-8.15195
 21
0.529919
  0
LINE
  8
0
 10
-8.15195
 20
0.529919
 11
-8.11705
 21
0.469471
  0
LINE
  8
0
 10
-8.11705
 20
0.469471
 11
-8.08645
 21
0.406736
  0
LINE
  8
0
 10
-8.08645
 20
0.406736
 11
-8.06031
 21
0.34202
  0
LINE
  8
0
 10
-8.06031
 20
0.34202
 11
-8.03874
 21
0.275637
  0
LINE
  8
0
 10
-8.03874
 20
0.275637
 11
-8.02185
 21
0.207911
  0
LINE
  8
0
 10
-8.02185
 20
0.207911
 11
-8.00973
 21
0.139173
  0
LINE
  8
0
 10
-8.00973
 20
0.139173
 11
-8.00244
 21
0.0697556
  0
LINE
  8
0
 10
-8.00244
 20
0.0697556
 11
-8
 21
0
  0
LINE
  8
0
 10
-8
 20
0
 11
-8.00244
 21
-0.0697556
  0
LINE
  8
0
 10
-8.00244
 20
-0.0697556
 11
-8.00973
 21
-0.139173
  0
LINE
  8
0
 10
-8.00973
 20
-0.139173
 11
-8.02185
 21
-0.207911
  0
LINE
  8
0
 10
-8.02185
 20
-0.207911
 11
-8.03874
 21
-0.275637
  0
LINE
  8
0
 10
-8.03874
 20
-0.275637
 11
-8.06031
 21
-0.34202
  0
LINE
  8
0
 10
-8.06031
 20
-0.34202
 11
-8.08645
 21
-0.406736
  0
LINE
  8
0
 10
-8.08645
 20
-0.406736
 11
-8.11705
 21
-0.469471
  0
LINE
  8
0
 10
-8.11705
 20
-0.469471
 11
-8.15195
 21
-0.529919
  0
LINE
  8
0
 10
-8.15195
 20
-0.529919
 11
-8.19098
 21
-0.587785
  0
LINE
  8
0
 10
-8.19098
 20
-0.587785
 11
-8.23396
 21
-0.642787
  0
LINE
  8
0
 10
-8.23396
 20
-0.642787
 11
-8.28066
 21
-0.694658
  0
LINE
  8
0
 10
-8.28066
 20
-0.694658
 11
-8.33087
 21
-0.743144
  0
LINE
  8
0
 10
-8.33087
 20
-0.743144
 11
-8.38434
 21
-0.788011
  0
LINE
  8
0
 10
-8.38434
 20
-0.788011
 11
-8.44081
 21
-0.829037
  0
LINE
  8
0
 10
-8.44081
 20
-0.829037
 11
-8.5
 21
-0.866025
  0
LINE
  8
0
 10
-8.5
 20
-0.866025
 11
-8.56163
 21
-0.898793
  0
LINE
  8
0
 10
-8.56163
 20
-0.898793
 11
-8.62539
 21
-0.927183
  0
LINE
  8
0
 10
-8.62539
 20
-0.927183
 11
-8.69098
 21
-0.951056
  0
LINE
  8
0
 10
-8.69098
 20
-0.951056
 11
-8.75808
 21
-0.970295
  0
LINE
  8
0
 10
-8.75808
 20
-0.970295
 11
-8.82635
 21
-0.984807
  0
LINE
  8
0
 10
-8.82635
 20
-0.984807
 11
-8.89547
 21
-0.994521
  0
LINE
  8
0
 10
-8.89547
 20
-0.994521
 11
-8.9651
 21
-0.999391
  0
LINE
  8
0
 10
-8.9651
 20
-0.999391
 11
-9.0349
 21
-0.999391
  0
LINE
  8
0
 10
-9.0349
 20
-0.999391
 11
-9.10453
 21
-0.994521
  0
LINE
  8
0
 10
-9.10453
 20
-0.994521
 11
-9.17365
 21
-0.984807
  0
LINE
  8
0
 10
-9.17365
 20
-0.984807
 11
-9.24192
 21
-0.970295
  0
LINE
  8
0
 10
-9.24192
 20
-0.970295
 11
-9.30902
 21
-0.951056
  0
LINE
  8
0
 10
-9.30902
 20
-0.951056
 11
-9.37461
 21
-0.927183
  0
LINE
  8
0
 10
-9.37461
 20
-0.927183
 11
-9.43837
 21
-0.898793
  0
LINE
  8
0
 10
-9.43837
 20
-0.898793
 11
-9.5
 21
-0.866025
  0
LINE
  8
0
 10
-9.5
 20
-0.866025
 11
-9.55919
 21
-0.829037
  0
LINE
  8
0
 10
-9.55919
 20
-0.829037
 11
-9.61566
 21
-0.788011
  0
LINE
  8
0
 10
-9.61566
 20
-0.788011
 11
-9.66913
 21
-0.743144
  0
LINE
  8
0
 10
-9.66913
 20
-0.743144
 11
-9.71934
 21
-0.694658
  0
LINE
  8
0
 10
-9.71934
 20
-0.694658
 11
-9.76604
 21
-0.642787
  0
LINE
  8
0
 10
-9.76604
 20
-0.642787
 11
-9.80902
 21
-0.587785
  0
LINE
  8
0
 10
-9.80902
 20
-0.587785
 11
-9.84805
 21
-0.529919
  0
LINE
  8
0
 10
-9.84805
 20
-0.529919
 11
-9.88295
 21
-0.469471
  0
LINE
  8
0
 10
-9.88295
 20
-0.469471
 11
-9.91354
 21
-0.406736
  0
LINE
  8
0
 10
-9.91354
 20
-0.406736
 11
-9.93969
 21
-0.34202
  0
LINE
  8
0
 10
-9.93969
 20
-0.34202
 11
-9.96126
 21
-0.275637
  0
LINE
  8
0
 10
-9.96126
 20
-0.275637
 11
-9.97815
 21
-0.207911
  0
LINE
  8
0
 10
-9.97815
 20
-0.207911
 11
-9.99027
 21
-0.139173
  0
LINE
  8
0
 10
-9.99027
 20
-0.139173
 11
-9.99756
 21
-0.0697556
  0
LINE
  8
0
 10
-9.99756
 20
-0.0697556
 11
-10
 21
0
  0
LINE
  8
0
 10
-7.5
 20
-20.3
 11
-7.5
 21
-14.3
  0
LINE
  8
0
 10
-7.5
 20
-14.3
 11
7.5
 21
-14.3
  0
LINE
  8
0
 10
7.5
 20
-14.3
 11
7.5
 21
-20.3
  0
LINE
  8
0
 10
7.5
 20
-20.3
 11
-7.5
 21
-20.3
  0
LINE
  8
0
 10
-7.5
 20
14.3
 11
-7.5
 21
20.3
  0
LINE
  8
0
 10
-7.5
 20
20.3
 11
7.5
 21
20.3
  0
LINE
  8
0
 10
7.5
 20
20.3
 11
7.5
 21
14.3
  0
LINE
  8
0
 10
7.5
 20
14.3
 11
-7.5
 21
14.3
  0
LINE
  8
0
 10
-4.5
 20
-2
 11
-4.5
 21
2
  0
LINE
  8
0
 10
-4.5
 20
2
 11
4.5
 21
2
  0
LINE
  8
0
 10
4.5
 20
2
 11
4.5
 21
-2
  0
LINE
  8
0
 10
4.5
 20
-2
 11
-4.5
 21
-2
  0
LINE
  8
0
 10
8
 20
0
 11
8.00244
 21
0.0697556
  0
LINE
  8
0
 10
8.00244
 20
0.0697556
 11
8.00973
 21
0.139173
  0
LINE
  8
0
 10
8.00973
 20
0.139173
 11
8.02185
 21
0.207911
  0
LINE
  8
0
 10
8.02185
 20
0.207911
 11
8.03874
 21
0.275637
  0
LINE
  8
0
 10
8.03874
 20
0.275637
 11
8.06031
 21
0.34202
  0
LINE
  8
0
 10
8.06031
 20
0.34202
 11
8.08645
 21
0.406736
  0
LINE
  8
0
 10
8.08645
 20
0.406736
 11
8.11705
 21
0.469471
  0
LINE
  8
0
 10
8.11705
 20
0.469471
 11
8.15195
 21
0.529919
  0
LINE
  8
0
 10
8.15195
 20
0.529919
 11
8.19098
 21
0.587785
  0
LINE
  8
0
 10
8.19098
 20
0.587785
 11
8.23396
 21
0.642787
  0
LINE
  8
0
 10
8.23396
 20
0.642787
 11
8.28066
 21
0.694658
  0
LINE
  8
0
 10
8.28066
 20
0.694658
 11
8.33087
 21
0.743144
  0
LINE
  8
0
 10
8.33087
 20
0.743144
 11
8.38434
 21
0.788011
  0
LINE
  8
0
 10
8.38434
 20
0.788011
 11
8.44081
 21
0.829037
  0
LINE
  8
0
 10
8.44081
 20
0.829037
 11
8.5
 21
0.866025
  0
LINE
  8
0
 10
8.5
 20
0.866025
 11
8.56163
 21
0.898793
  0
LINE
  8
0
 10
8.56163
 20
0.898793
 11
8.62539
 21
0.927183
  0
LINE
  8
0
 10
8.62539
 20
0.927183
 11
8.69098
 21
0.951056
  0
LINE
  8
0
 10
8.69098
 20
0.951056
 11
8.75808
 21
0.970295
  0
LINE
  8
0
 10
8.75808
 20
0.970295
 11
8.82635
 21
0.984807
  0
LINE
  8
0
 10
8.82635
 20
0.984807
 11
8.89547
 21
0.994521
  0
LINE
  8
0
 10
8.89547
 20
0.994521
 11
8.9651
 21
0.999391
  0
LINE
  8
0
 10
8.9651
 20
0.999391
 11
9.0349
 21
0.999391
  0
LINE
  8
0
 10
9.0349
 20
0.999391
 11
9.10453
 21
0.994521
  0
LINE
  8
0
 10
9.10453
 20
0.994521
 11
9.17365
 21
0.984807
  0
LINE
  8
0
 10
9.17365
 20
0.984807
 11
9.24192
 21
0.970295
  0
LINE
  8
0
 10
9.24192
 20
0.970295
 11
9.30902
 21
0.951056
  0
LINE
  8
0
 10
9.30902
 20
0.951056
 11
9.37461
 21
0.927183
  0
LINE
  8
0
 10
9.37461
 20
0.927183
 11
9.43837
 21
0.898793
  0
LINE
  8
0
 10
9.43837
 20
0.898793
 11
9.5
 21
0.866025
  0
LINE
  8
0
 10
9.5
 20
0.866025
 11
9.55919
 21
0.829037
  0
LINE
  8
0
 10
9.55919
 20
0.829037
 11
9.61566
 21
0.788011
  0
LINE
  8
0
 10
9.61566
 20
0.788011
 11
9.66913
 21
0.743144
  0
LINE
  8
0
 10
9.66913
 20
0.743144
 11
9.71934
 21
0.694658
  0
LINE
  8
0
 10
9.71934
 20
0.694658
 11
9.76604
 21
0.642787
  0
LINE
  8
0
 10
9.76604
 20
0.642787
 11
9.80902
 21
0.587785
  0
LINE
  8
0
 10
9.80902
 20
0.587785
 11
9.84805
 21
0.529919
  0
LINE
  8
0
 10
9.84805
 20
0.529919
 11
9.88295
 21
0.469471
  0
LINE
  8
0
 10
9.88295
 20
0.469471
 11
9.91354
 21
0.406736
  0
LINE
  8
0
 10
9.91354
 20
0.406736
 11
9.93969
 21
0.34202
  0
LINE
  8
0
 10
9.93969
 20
0.34202
 11
9.96126
 21
0.275637
  0
LINE
  8
0
 10
9.96126
 20
0.275637
 11
9.97815
 21
0.207911
  0
LINE
  8
0
 10
9.97815
 20
0.207911
 11
9.99027
 21
0.139173
  0
LINE
  8
0
 10
9.99027
 20
0.139173
 11
9.99756
 21
0.0697556
  0
LINE
  8
0
 10
9.99756
 20
0.0697556
 11
10
 21
0
  0
LINE
  8
0
 10
10
 20
0
 11
9.99756
 21
-0.0697556
  0
LINE
  8
0
 10
9.99756
 20
-0.0697556
 11
9.99027
 21
-0.139173
  0
LINE
  8
0
 10
9.99027
 20
-0.139173
 11
9.97815
 21
-0.207911
  0
LINE
  8
0
 10
9.97815
 20
-0.207911
 11
9.96126
 21
-0.275637
  0
LINE
  8
0
 10
9.96126
 20
-0.275637
 11
9.93969
 21
-0.34202
  0
LINE
  8
0
 10
9.93969
 20
-0.34202
 11
9.91354
 21
-0.406736
  0
LINE
  8
0
 10
9.91354
 20
-0.406736
 11
9.88295
 21
-0.469471
  0
LINE
  8
0
 10
9.88295
 20
-0.469471
 11
9.84805
 21
-0.529919
  0
LINE
  8
0
 10
9.84805
 20
-0.529919
 11
9.80902
 21
-0.587785
  0
LINE
  8
0
 10
9.80902
 20
-0.587785
 11
9.76604
 21
-0.642787
  0
LINE
  8
0
 10
9.76604
 20
-0.642787
 11
9.71934
 21
-0.694658
  0
LINE
  8
0
 10
9.71934
 20
-0.694658
 11
9.66913
 21
-0.743144
  0
LINE
  8
0
 10
9.66913
 20
-0.743144
 11
9.61566
 21
-0.788011
  0
LINE
  8
0
 10
9.61566
 20
-0.788011
 11
9.55919
 21
-0.829037
  0
LINE
  8
0
 10
9.55919
 20
-0.829037
 11
9.5
 21
-0.866025
  0
LINE
  8
0
 10
9.5
 20
-0.866025
 11
9.43837
 21
-0.898793
  0
LINE
  8
0
 10
9.43837
 20
-0.898793
 11
9.37461
 21
-0.927183
  0
LINE
  8
0
 10
9.37461
 20
-0.927183
 11
9.30902
 21
-0.951056
  0
LINE
  8
0
 10
9.30902
 20
-0.951056
 11
9.24192
 21
-0.970295
  0
LINE
  8
0
 10
9.24192
 20
-0.970295
 11
9.17365
 21
-0.984807
  0
LINE
  8
0
 10
9.17365
 20
-0.984807
 11
9.10453
 21
-0.994521
  0
LINE
  8
0
 10
9.10453
 20
-0.994521
 11
9.0349
 21
-0.999391
  0
LINE
  8
0
 10
9.0349
 20
-0.999391
 11
8.9651
 21
-0.999391
  0
LINE
  8
0
 10
8.9651
 20
-0.999391
 11
8.89547
 21
-0.994521
  0
LINE
  8
0
 10
8.89547
 20
-0.994521
 11
8.82635
 21
-0.984807
  0
LINE
  8
0
 10
8.82635
 20
-0.984807
 11
8.75808
 21
-0.970295
  0
LINE
  8
0
 10
8.75808
 20
-0.970295
 11
8.69098
 21
-0.951056
  0
LINE
  8
0
 10
8.69098
 20
-0.951056
 11
8.62539
 21
-0.927183
  0
LINE
  8
0
 10
8.62539
 20
-0.927183
 11
8.56163
 21
-0.898793
  0
LINE
  8
0
 10
8.56163
 20
-0.898793
 11
8.5
 21
-0.866025
  0
LINE
  8
0
 10
8.5
 20
-0.866025
 11
8.44081
 21
-0.829037
  0
LINE
  8
0
 10
8.44081
 20
-0.829037
 11
8.38434
 21
-0.788011
  0
LINE
  8
0
 10
8.38434
 20
-0.788011
 11
8.33087
 21
-0.743144
  0
LINE
  8
0
 10
8.33087
 20
-0.743144
 11
8.28066
 21
-0.694658
  0
LINE
  8
0
 10
8.28066
 20
-0.694658
 11
8.23396
 21
-0.642787
  0
LINE
  8
0
 10
8.23396
 20
-0.642787
 11
8.19098
 21
-0.587785
  0
LINE
  8
0
 10
8.19098
 20
-0.587785
 11
8.15195
 21
-0.529919
  0
LINE
  8
0
 10
8.15195
 20
-0.529919
 11
8.11705
 21
-0.469471
  0
LINE
  8
0
 10
8.11705
 20
-0.469471
 11
8.08645
 21
-0.406736
  0
LINE
  8
0
 10
8.08645
 20
-0.406736
 11
8.06031
 21
-0.34202
  0
LINE
  8
0
 10
8.06031
 20
-0.34202
 11
8.03874
 21
-0.275637
  0
LINE
  8
0
 10
8.03874
 20
-0.275637
 11
8.02185
 21
-0.207911
  0
LINE
  8
0
 10
8.02185
 20
-0.207911
 11
8.00973
 21
-0.139173
  0
LINE
  8
0
 10
8.00973
 20
-0.139173
 11
8.00244
 21
-0.0697556
  0
LINE
  8
0
 10
8.00244
 20
-0.0697556
 11
8
 21
0
  0
LINE
  8
0
 10
13.125
 20
-41
 11
63.125
 21
-41
  0
LINE
  8
0
 10
63.125
 20
-41
 11
63.125
 21
-73
  0
LINE
  8
0
 10
63.125
 20
-73
 11
13.125
 21
-73
  0
LINE
  8
0
 10
13.125
 20
-73
 11
13.125
 21
-41
  0
LINE
  8
0
 10
16.6759
 20
-35.8506
 11
16.6759
 21
-35.7494
  0
LINE
  8
0
 10
16.6759
 20
-35.7494
 11
16.6829
 21
-35.6484
  0
LINE
  8
0
 10
16.6829
 20
-35.6484
 11
16.697
 21
-35.5482
  0
LINE
  8
0
 10
16.697
 20
-35.5482
 11
16.7181
 21
-35.4492
  0
LINE
  8
0
 10
16.7181
 20
-35.4492
 11
16.746
 21
-35.3519
  0
LINE
  8
0
 10
16.746
 20
-35.3519
 11
16.7806
 21
-35.2568
  0
LINE
  8
0
 10
16.7806
 20
-35.2568
 11
16.8217
 21
-35.1644
  0
LINE
  8
0
 10
16.8217
 20
-35.1644
 11
16.8693
 21
-35.075
  0
LINE
  8
0
 10
16.8693
 20
-35.075
 11
16.9229
 21
-34.9892
  0
LINE
  8
0
 10
16.9229
 20
-34.9892
 11
16.9824
 21
-34.9073
  0
LINE
  8
0
 10
16.9824
 20
-34.9073
 11
17.0474
 21
-34.8298
  0
LINE
  8
0
 10
17.0474
 20
-34.8298
 11
17.1177
 21
-34.757
  0
LINE
  8
0
 10
17.1177
 20
-34.757
 11
17.193
 21
-34.6892
  0
LINE
  8
0
 10
17.193
 20
-34.6892
 11
17.2727
 21
-34.6269
  0
LINE
  8
0
 10
17.2727
 20
-34.6269
 11
17.3566
 21
-34.5703
  0
LINE
  8
0
 10
17.3566
 20
-34.5703
 11
17.4443
 21
-34.5197
  0
LINE
  8
0
 10
17.4443
 20
-34.5197
 11
17.5352
 21
-34.4754
  0
LINE
  8
0
 10
17.5352
 20
-34.4754
 11
17.6291
 21
-34.4374
  0
LINE
  8
0
 10
17.6291
 20
-34.4374
 11
17.7253
 21
-34.4062
  0
LINE
  8
0
 10
17.7253
 20
-34.4062
 11
17.8235
 21
-34.3817
  0
LINE
  8
0
 10
17.8235
 20
-34.3817
 11
17.9232
 21
-34.3641
  0
LINE
  8
0
 10
17.9232
 20
-34.3641
 11
18.0239
 21
-34.3535
  0
LINE
  8
0
 10
18.0239
 20
-34.3535
 11
18.125
 21
-34.35
  0
LINE
  8
0
 10
18.125
 20
-34.35
 11
18.2261
 21
-34.3535
  0
LINE
  8
0
 10
18.2261
 20
-34.3535
 11
18.3268
 21
-34.3641
  0
LINE
  8
0
 10
18.3268
 20
-34.3641
 11
18.4265
 21
-34.3817
  0
LINE
  8
0
 10
18.4265
 20
-34.3817
 11
18.5247
 21
-34.4062
  0
LINE
  8
0
 10
18.5247
 20
-34.4062
 11
18.6209
 21
-34.4374
  0
LINE
  8
0
 10
18.6209
 20
-34.4374
 11
18.7148
 21
-34.4754
  0
LINE
  8
0
 10
18.7148
 20
-34.4754
 11
18.8057
 21
-34.5197
  0
LINE
  8
0
 10
18.8057
 20
-34.5197
 11
18.8934
 21
-34.5703
  0
LINE
  8
0
 10
18.8934
 20
-34.5703
 11
18.9773
 21
-34.6269
  0
LINE
  8
0
 10
18.9773
 20
-34.6269
 11
19.057
 21
-34.6892
  0
LINE
  8
0
 10
19.057
 20
-34.6892
 11
19.1323
 21
-34.757
  0
LINE
  8
0
 10
19.1323
 20
-34.757
 11
19.2026
 21
-34.8298
  0
LINE
  8
0
 10
19.2026
 20
-34.8298
 11
19.2676
 21
-34.9073
  0
LINE
  8
0
 10
19.2676
 20
-34.9073
 11
19.3271
 21
-34.9892
  0
LINE
  8
0
 10
19.3271
 20
-34.9892
 11
19.3807
 21
-35.075
  0
LINE
  8
0
 10
19.3807
 20
-35.075
 11
19.4283
 21
-35.1644
  0
LINE
  8
0
 10
19.4283
 20
-35.1644
 11
19.4694
 21
-35.2568
  0
LINE
  8
0
 10
19.4694
 20
-35.2568
 11
19.504
 21
-35.3519
  0
LINE
  8
0
 10
19.504
 20
-35.3519
 11
19.5319
 21
-35.4492
  0
LINE
  8
0
 10
19.5319
 20
-35.4492
 11
19.553
 21
-35.5482
  0
LINE
  8
0
 10
19.553
 20
-35.5482
 11
19.5671
 21
-35.6484
  0
LINE
  8
0
 10
19.5671
 20
-35.6484
 11
19.5741
 21
-35.7494
  0
LINE
  8
0
 10
19.5741
 20
-35.7494
 11
19.5741
 21
-35.8506
  0
LINE
  8
0
 10
19.5741
 20
-35.8506
 11
19.5671
 21
-35.9516
  0
LINE
  8
0
 10
19.5671
 20
-35.9516
 11
19.553
 21
-36.0518
  0
LINE
  8
0
 10
19.553
 20
-36.0518
 11
19.5319
 21
-36.1508
  0
LINE
  8
0
 10
19.5319
 20
-36.1508
 11
19.504
 21
-36.2481
  0
LINE
  8
0
 10
19.504
 20
-36.2481
 11
19.4694
 21
-36.3432
  0
LINE
  8
0
 10
19.4694
 20
-36.3432
 11
19.4283
 21
-36.4356
  0
LINE
  8
0
 10
19.4283
 20
-36.4356
 11
19.3807
 21
-36.525
  0
LINE
  8
0
 10
19.3807
 20
-36.525
 11
19.3271
 21
-36.6108
  0
LINE
  8
0
 10
19.3271
 20
-36.6108
 11
19.2676
 21
-36.6927
  0
LINE
  8
0
 10
19.2676
 20
-36.6927
 11
19.2026
 21
-36.7702
  0
LINE
  8
0
 10
19.2026
 20
-36.7702
 11
19.1323
 21
-36.843
  0
LINE
  8
0
 10
19.1323
 20
-36.843
 11
19.057
 21
-36.9108
  0
LINE
  8
0
 10
19.057
 20
-36.9108
 11
18.9773
 21
-36.9731
  0
LINE
  8
0
 10
18.9773
 20
-36.9731
 11
18.8934
 21
-37.0297
  0
LINE
  8
0
 10
18.8934
 20
-37.0297
 11
18.8057
 21
-37.0803
  0
LINE
  8
0
 10
18.8057
 20
-37.0803
 11
18.7148
 21
-37.1246
  0
LINE
  8
0
 10
18.7148
 20
-37.1246
 11
18.6209
 21
-37.1626
  0
LINE
  8
0
 10
18.6209
 20
-37.1626
 11
18.5247
 21
-37.1938
  0
LINE
  8
0
 10
18.5247
 20
-37.1938
 11
18.4265
 21
-37.2183
  0
LINE
  8
0
 10
18.4265
 20
-37.2183
 11
18.3268
 21
-37.2359
  0
LINE
  8
0
 10
18.3268
 20
-37.2359
 11
18.2261
 21
-37.2465
  0
LINE
  8
0
 10
18.2261
 20
-37.2465
 11
18.125
 21
-37.25
  0
LINE
  8
0
 10
18.125
 20
-37.25
 11
18.0239
 21
-37.2465
  0
LINE
  8
0
 10
18.0239
 20
-37.2465
 11
17.9232
 21
-37.2359
  0
LINE
  8
0
 10
17.9232
 20
-37.2359
 11
17.8235
 21
-37.2183
  0
LINE
  8
0
 10
17.8235
 20
-37.2183
 11
17.7253
 21
-37.1938
  0
LINE
  8
0
 10
17.7253
 20
-37.1938
 11
17.6291
 21
-37.1626
  0
LINE
  8
0
 10
17.6291
 20
-37.1626
 11
17.5352
 21
-37.1246
  0
LINE
  8
0
 10
17.5352
 20
-37.1246
 11
17.4443
 21
-37.0803
  0
LINE
  8
0
 10
17.4443
 20
-37.0803
 11
17.3566
 21
-37.0297
  0
LINE
  8
0
 10
17.3566
 20
-37.0297
 11
17.2727
 21
-36.9731
  0
LINE
  8
0
 10
17.2727
 20
-36.9731
 11
17.193
 21
-36.9108
  0
LINE
  8
0
 10
17.193
 20
-36.9108
 11
17.1177
 21
-36.843
  0
LINE
  8
0
 10
17.1177
 20
-36.843
 11
17.0474
 21
-36.7702
  0
LINE
  8
0
 10
17.0474
 20
-36.7702
 11
16.9824
 21
-36.6927
  0
LINE
  8
0
 10
16.9824
 20
-36.6927
 11
16.9229
 21
-36.6108
  0
LINE
  8
0
 10
16.9229
 20
-36.6108
 11
16.8693
 21
-36.525
  0
LINE
  8
0
 10
16.8693
 20
-36.525
 11
16.8217
 21
-36.4356
  0
LINE
  8
0
 10
16.8217
 20
-36.4356
 11
16.7806
 21
-36.3432
  0
LINE
  8
0
 10
16.7806
 20
-36.3432
 11
16.746
 21
-36.2481
  0
LINE
  8
0
 10
16.746
 20
-36.2481
 11
16.7181
 21
-36.1508
  0
LINE
  8
0
 10
16.7181
 20
-36.1508
 11
16.697
 21
-36.0518
  0
LINE
  8
0
 10
16.697
 20
-36.0518
 11
16.6829
 21
-35.9516
  0
LINE
  8
0
 10
16.6829
 20
-35.9516
 11
16.6759
 21
-35.8506
  0
LINE
  8
0
 10
16.6759
 20
-75.8506
 11
16.6759
 21
-75.7494
  0
LINE
  8
0
 10
16.6759
 20
-75.7494
 11
16.6829
 21
-75.6484
  0
LINE
  8
0
 10
16.6829
 20
-75.6484
 11
16.697
 21
-75.5482
  0
LINE
  8
0
 10
16.697
 20
-75.5482
 11
16.7181
 21
-75.4492
  0
LINE
  8
0
 10
16.7181
 20
-75.4492
 11
16.746
 21
-75.3519
  0
LINE
  8
0
 10
16.746
 20
-75.3519
 11
16.7806
 21
-75.2568
  0
LINE
  8
0
 10
16.7806
 20
-75.2568
 11
16.8217
 21
-75.1644
  0
LINE
  8
0
 10
16.8217
 20
-75.1644
 11
16.8693
 21
-75.075
  0
LINE
  8
0
 10
16.8693
 20
-75.075
 11
16.9229
 21
-74.9892
  0
LINE
  8
0
 10
16.9229
 20
-74.9892
 11
16.9824
 21
-74.9073
  0
LINE
  8
0
 10
16.9824
 20
-74.9073
 11
17.0474
 21
-74.8298
  0
LINE
  8
0
 10
17.0474
 20
-74.8298
 11
17.1177
 21
-74.757
  0
LINE
  8
0
 10
17.1177
 20
-74.757
 11
17.193
 21
-74.6892
  0
LINE
  8
0
 10
17.193
 20
-74.6892
 11
17.2727
 21
-74.6269
  0
LINE
  8
0
 10
17.2727
 20
-74.6269
 11
17.3566
 21
-74.5703
  0
LINE
  8
0
 10
17.3566
 20
-74.5703
 11
17.4443
 21
-74.5197
  0
LINE
  8
0
 10
17.4443
 20
-74.5197
 11
17.5352
 21
-74.4754
  0
LINE
  8
0
 10
17.5352
 20
-74.4754
 11
17.6291
 21
-74.4374
  0
LINE
  8
0
 10
17.6291
 20
-74.4374
 11
17.7253
 21
-74.4062
  0
LINE
  8
0
 10
17.7253
 20
-74.4062
 11
17.8235
 21
-74.3817
  0
LINE
  8
0
 10
17.8235
 20
-74.3817
 11
17.9232
 21
-74.3641
  0
LINE
  8
0
 10
17.9232
 20
-74.3641
 11
18.0239
 21
-74.3535
  0
LINE
  8
0
 10
18.0239
 20
-74.3535
 11
18.125
 21
-74.35
  0
LINE
  8
0
 10
18.125
 20
-74.35
 11
18.2261
 21
-74.3535
  0
LINE
  8
0
 10
18.2261
 20
-74.3535
 11
18.3268
 21
-74.3641
  0
LINE
  8
0
 10
18.3268
 20
-74.3641
 11
18.4265
 21
-74.3817
  0
LINE
  8
0
 10
18.4265
 20
-74.3817
 11
18.5247
 21
-74.4062
  0
LINE
  8
0
 10
18.5247
 20
-74.4062
 11
18.6209
 21
-74.4374
  0
LINE
  8
0
 10
18.6209
 20
-74.4374
 11
18.7148
 21
-74.4754
  0
LINE
  8
0
 10
18.7148
 20
-74.4754
 11
18.8057
 21
-74.5197
  0
LINE
  8
0
 10
18.8057
 20
-74.5197
 11
18.8934
 21
-74.5703
  0
LINE
  8
0
 10
18.8934
 20
-74.5703
 11
18.9773
 21
-74.6269
  0
LINE
  8
0
 10
18.9773
 20
-74.6269
 11
19.057
 21
-74.6892
  0
LINE
  8
0
 10
19.057
 20
-74.6892
 11
19.1323
 21
-74.757
  0
LINE
  8
0
 10
19.1323
 20
-74.757
 11
19.2026
 21
-74.8298
  0
LINE
  8
0
 10
19.2026
 20
-74.8298
 11
19.2676
 21
-74.9073
  0
LINE
  8
0
 10
19.2676
 20
-74.9073
 11
19.3271
 21
-74.9892
  0
LINE
  8
0
 10
19.3271
 20
-74.9892
 11
19.3807
 21
-75.075
  0
LINE
  8
0
 10
19.3807
 20
-75.075
 11
19.4283
 21
-75.1644
  0
LINE
  8
0
 10
19.4283
 20
-75.1644
 11
19.4694
 21
-75.2568
  0
LINE
  8
0
 10
19.4694
 20
-75.2568
 11
19.504
 21
-75.3519
  0
LINE
  8
0
 10
19.504
 20
-75.3519
 11
19.5319
 21
-75.4492
  0
LINE
  8
0
 10
19.5319
 20
-75.4492
 11
19.553
 21
-75.5482
  0
LINE
  8
0
 10
19.553
 20
-75.5482
 11
19.5671
 21
-75.6484
  0
LINE
  8
0
 10
19.5671
 20
-75.6484
 11
19.5741
 21
-75.7494
  0
LINE
  8
0
 10
19.5741
 20
-75.7494
 11
19.5741
 21
-75.8506
  0
LINE
  8
0
 10
19.5741
 20
-75.8506
 11
19.5671
 21
-75.9516
  0
LINE
  8
0
 10
19.5671
 20
-75.9516
 11
19.553
 21
-76.0518
  0
LINE
  8
0
 10
19.553
 20
-76.0518
 11
19.5319
 21
-76.1508
  0
LINE
  8
0
 10
19.5319
 20
-76.1508
 11
19.504
 21
-76.2481
  0
LINE
  8
0
 10
19.504
 20
-76.2481
 11
19.4694
 21
-76.3432
  0
LINE
  8
0
 10
19.4694
 20
-76.3432
 11
19.4283
 21
-76.4356
  0
LINE
  8
0
 10
19.4283
 20
-76.4356
 11
19.3807
 21
-76.525
  0
LINE
  8
0
 10
19.3807
 20
-76.525
 11
19.3271
 21
-76.6108
  0
LINE
  8
0
 10
19.3271
 20
-76.6108
 11
19.2676
 21
-76.6927
  0
LINE
  8
0
 10
19.2676
 20
-76.6927
 11
19.2026
 21
-76.7702
  0
LINE
  8
0
 10
19.2026
 20
-76.7702
 11
19.1323
 21
-76.843
  0
LINE
  8
0
 10
19.1323
 20
-76.843
 11
19.057
 21
-76.9108
  0
LINE
  8
0
 10
19.057
 20
-76.9108
 11
18.9773
 21
-76.9731
  0
LINE
  8
0
 10
18.9773
 20
-76.9731
 11
18.8934
 21
-77.0297
  0
LINE
  8
0
 10
18.8934
 20
-77.0297
 11
18.8057
 21
-77.0803
  0
LINE
  8
0
 10
18.8057
 20
-77.0803
 11
18.7148
 21
-77.1246
  0
LINE
  8
0
 10
18.7148
 20
-77.1246
 11
18.6209
 21
-77.1626
  0
LINE
  8
0
 10
18.6209
 20
-77.1626
 11
18.5247
 21
-77.1938
  0
LINE
  8
0
 10
18.5247
 20
-77.1938
 11
18.4265
 21
-77.2183
  0
LINE
  8
0
 10
18.4265
 20
-77.2183
 11
18.3268
 21
-77.2359
  0
LINE
  8
0
 10
18.3268
 20
-77.2359
 11
18.2261
 21
-77.2465
  0
LINE
  8
0
 10
18.2261
 20
-77.2465
 11
18.125
 21
-77.25
  0
LINE
  8
0
 10
18.125
 20
-77.25
 11
18.0239
 21
-77.2465
  0
LINE
  8
0
 10
18.0239
 20
-77.2465
 11
17.9232
 21
-77.2359
  0
LINE
  8
0
 10
17.9232
 20
-77.2359
 11
17.8235
 21
-77.2183
  0
LINE
  8
0
 10
17.8235
 20
-77.2183
 11
17.7253
 21
-77.1938
  0
LINE
  8
0
 10
17.7253
 20
-77.1938
 11
17.6291
 21
-77.1626
  0
LINE
  8
0
 10
17.6291
 20
-77.1626
 11
17.5352
 21
-77.1246
  0
LINE
  8
0
 10
17.5352
 20
-77.1246
 11
17.4443
 21
-77.0803
  0
LINE
  8
0
 10
17.4443
 20
-77.0803
 11
17.3566
 21
-77.0297
  0
LINE
  8
0
 10
17.3566
 20
-77.0297
 11
17.2727
 21
-76.9731
  0
LINE
  8
0
 10
17.2727
 20
-76.9731
 11
17.193
 21
-76.9108
  0
LINE
  8
0
 10
17.193
 20
-76.9108
 11
17.1177
 21
-76.843
  0
LINE
  8
0
 10
17.1177
 20
-76.843
 11
17.0474
 21
-76.7702
  0
LINE
  8
0
 10
17.0474
 20
-76.7702
 11
16.9824
 21
-76.6927
  0
LINE
  8
0
 10
16.9824
 20
-76.6927
 11
16.9229
 21
-76.6108
  0
LINE
  8
0
 10
16.9229
 20
-76.6108
 11
16.8693
 21
-76.525
  0
LINE
  8
0
 10
16.8693
 20
-76.525
 11
16.8217
 21
-76.4356
  0
LINE
  8
0
 10
16.8217
 20
-76.4356
 11
16.7806
 21
-76.3432
  0
LINE
  8
0
 10
16.7806
 20
-76.3432
 11
16.746
 21
-76.2481
  0
LINE
  8
0
 10
16.746
 20
-76.2481
 11
16.7181
 21
-76.1508
  0
LINE
  8
0
 10
16.7181
 20
-76.1508
 11
16.697
 21
-76.0518
  0
LINE
  8
0
 10
16.697
 20
-76.0518
 11
16.6829
 21
-75.9516
  0
LINE
  8
0
 10
16.6829
 20
-75.9516
 11
16.6759
 21
-75.8506
  0
LINE
  8
0
 10
35.325
 20
-20.3
 11
35.325
 21
-14.3
  0
LINE
  8
0
 10
35.325
 20
-14.3
 11
50.325
 21
-14.3
  0
LINE
  8
0
 10
50.325
 20
-14.3
 11
50.325
 21
-20.3
  0
LINE
  8
0
 10
50.325
 20
-20.3
 11
35.325
 21
-20.3
  0
LINE
  8
0
 10
35.325
 20
14.3
 11
35.325
 21
20.3
  0
LINE
  8
0
 10
35.325
 20
20.3
 11
50.325
 21
20.3
  0
LINE
  8
0
 10
50.325
 20
20.3
 11
50.325
 21
14.3
  0
LINE
  8
0
 10
50.325
 20
14.3
 11
35.325
 21
14.3
  0
LINE
  8
0
 10
39.325
 20
0
 11
39.3335
 21
0.244147
  0
LINE
  8
0
 10
39.3335
 20
0.244147
 11
39.3591
 21
0.487105
  0
LINE
  8
0
 10
39.3591
 20
0.487105
 11
39.4015
 21
0.727691
  0
LINE
  8
0
 10
39.4015
 20
0.727691
 11
39.4606
 21
0.96473
  0
LINE
  8
0
 10
39.4606
 20
0.96473
 11
39.5361
 21
1.19707
  0
LINE
  8
0
 10
39.5361
 20
1.19707
 11
39.6276
 21
1.42358
  0
LINE
  8
0
 10
39.6276
 20
1.42358
 11
39.7347
 21
1.64315
  0
LINE
  8
0
 10
39.7347
 20
1.64315
 11
39.8568
 21
1.85472
  0
LINE
  8
0
 10
39.8568
 20
1.85472
 11
39.9934
 21
2.05725
  0
LINE
  8
0
 10
39.9934
 20
2.05725
 11
40.1438
 21
2.24976
  0
LINE
  8
0
 10
40.1438
 20
2.24976
 11
40.3073
 21
2.4313
  0
LINE
  8
0
 10
40.3073
 20
2.4313
 11
40.483
 21
2.60101
  0
LINE
  8
0
 10
40.483
 20
2.60101
 11
40.6702
 21
2.75804
  0
LINE
  8
0
 10
40.6702
 20
2.75804
 11
40.8678
 21
2.90163
  0
LINE
  8
0
 10
40.8678
 20
2.90163
 11
41.075
 21
3.03109
  0
LINE
  8
0
 10
41.075
 20
3.03109
 11
41.2907
 21
3.14578
  0
LINE
  8
0
 10
41.2907
 20
3.14578
 11
41.5139
 21
3.24514
  0
LINE
  8
0
 10
41.5139
 20
3.24514
 11
41.7434
 21
3.3287
  0
LINE
  8
0
 10
41.7434
 20
3.3287
 11
41.9783
 21
3.39603
  0
LINE
  8
0
 10
41.9783
 20
3.39603
 11
42.2172
 21
3.44683
  0
LINE
  8
0
 10
42.2172
 20
3.44683
 11
42.4592
 21
3.48083
  0
LINE
  8
0
 10
42.4592
 20
3.48083
 11
42.7029
 21
3.49787
  0
LINE
  8
0
 10
42.7029
 20
3.49787
 11
42.9471
 21
3.49787
  0
LINE
  8
0
 10
42.9471
 20
3.49787
 11
43.1908
 21
3.48083
  0
LINE
  8
0
 10
43.1908
 20
3.48083
 11
43.4328
 21
3.44683
  0
LINE
  8
0
 10
43.4328
 20
3.44683
 11
43.6717
 21
3.39603
  0
LINE
  8
0
 10
43.6717
 20
3.39603
 11
43.9066
 21
3.3287
  0
LINE
  8
0
 10
43.9066
 20
3.3287
 11
44.1361
 21
3.24514
  0
LINE
  8
0
 10
44.1361
 20
3.24514
 11
44.3593
 21
3.14578
  0
LINE
  8
0
 10
44.3593
 20
3.14578
 11
44.575
 21
3.03109
  0
LINE
  8
0
 10
44.575
 20
3.03109
 11
44.7822
 21
2.90163
  0
LINE
  8
0
 10
44.7822
 20
2.90163
 11
44.9798
 21
2.75804
  0
LINE
  8
0
 10
44.9798
 20
2.75804
 11
45.167
 21
2.60101
  0
LINE
  8
0
 10
45.167
 20
2.60101
 11
45.3427
 21
2.4313
  0
LINE
  8
0
 10
45.3427
 20
2.4313
 11
45.5062
 21
2.24976
  0
LINE
  8
0
 10
45.5062
 20
2.24976
 11
45.6566
 21
2.05725
  0
LINE
  8
0
 10
45.6566
 20
2.05725
 11
45.7932
 21
1.85472
  0
LINE
  8
0
 10
45.7932
 20
1.85472
 11
45.9153
 21
1.64315
  0
LINE
  8
0
 10
45.9153
 20
1.64315
 11
46.0224
 21
1.42358
  0
LINE
  8
0
 10
46.0224
 20
1.42358
 11
46.1139
 21
1.19707
  0
LINE
  8
0
 10
46.1139
 20
1.19707
 11
46.1894
 21
0.96473
  0
LINE
  8
0
 10
46.1894
 20
0.96473
 11
46.2485
 21
0.727691
  0
LINE
  8
0
 10
46.2485
 20
0.727691
 11
46.2909
 21
0.487105
  0
LINE
  8
0
 10
46.2909
 20
0.487105
 11
46.3165
 21
0.244147
  0
LINE
  8
0
 10
46.3165
 20
0.244147
 11
46.325
 21
0
  0
LINE
  8
0
 10
46.325
 20
0
 11
46.3165
 21
-0.244147
  0
LINE
  8
0
 10
46.3165
 20
-0.244147
 11
46.2909
 21
-0.487105
  0
LINE
  8
0
 10
46.2909
 20
-0.487105
 11
46.2485
 21
-0.727691
  0
LINE
  8
0
 10
46.2485
 20
-0.727691
 11
46.1894
 21
-0.96473
  0
LINE
  8
0
 10
46.1894
 20
-0.96473
 11
46.1139
 21
-1.19707
  0
LINE
  8
0
 10
46.1139
 20
-1.19707
 11
46.0224
 21
-1.42358
  0
LINE
  8
0
 10
46.0224
 20
-1.42358
 11
45.9153
 21
-1.64315
  0
LINE
  8
0
 10
45.9153
 20
-1.64315
 11
45.7932
 21
-1.85472
  0
LINE
  8
0
 10
45.7932
 20
-1.85472
 11
45.6566
 21
-2.05725
  0
LINE
  8
0
 10
45.6566
 20
-2.05725
 11
45.5062
 21
-2.24976
  0
LINE
  8
0
 10
45.5062
 20
-2.24976
 11
45.3427
 21
-2.4313
  0
LINE
  8
0
 10
45.3427
 20
-2.4313
 11
45.167
 21
-2.60101
  0
LINE
  8
0
 10
45.167
 20
-2.60101
 11
44.9798
 21
-2.75804
  0
LINE
  8
0
 10
44.9798
 20
-2.75804
 11
44.7822
 21
-2.90163
  0
LINE
  8
0
 10
44.7822
 20
-2.90163
 11
44.575
 21
-3.03109
  0
LINE
  8
0
 10
44.575
 20
-3.03109
 11
44.3593
 21
-3.14578
  0
LINE
  8
0
 10
44.3593
 20
-3.14578
 11
44.1361
 21
-3.24514
  0
LINE
  8
0
 10
44.1361
 20
-3.24514
 11
43.9066
 21
-3.3287
  0
LINE
  8
0
 10
43.9066
 20
-3.3287
 11
43.6717
 21
-3.39603
  0
LINE
  8
0
 10
43.6717
 20
-3.39603
 11
43.4328
 21
-3.44683
  0
LINE
  8
0
 10
43.4328
 20
-3.44683
 11
43.1908
 21
-3.48083
  0
LINE
  8
0
 10
43.1908
 20
-3.48083
 11
42.9471
 21
-3.49787
  0
LINE
  8
0
 10
42.9471
 20
-3.49787
 11
42.7029
 21
-3.49787
  0
LINE
  8
0
 10
42.7029
 20
-3.49787
 11
42.4592
 21
-3.48083
  0
LINE
  8
0
 10
42.4592
 20
-3.48083
 11
42.2172
 21
-3.44683
  0
LINE
  8
0
 10
42.2172
 20
-3.44683
 11
41.9783
 21
-3.39603
  0
LINE
  8
0
 10
41.9783
 20
-3.39603
 11
41.7434
 21
-3.3287
  0
LINE
  8
0
 10
41.7434
 20
-3.3287
 11
41.5139
 21
-3.24514
  0
LINE
  8
0
 10
41.5139
 20
-3.24514
 11
41.2907
 21
-3.14578
  0
LINE
  8
0
 10
41.2907
 20
-3.14578
 11
41.075
 21
-3.03109
  0
LINE
  8
0
 10
41.075
 20
-3.03109
 11
40.8678
 21
-2.90163
  0
LINE
  8
0
 10
40.8678
 20
-2.90163
 11
40.6702
 21
-2.75804
  0
LINE
  8
0
 10
40.6702
 20
-2.75804
 11
40.483
 21
-2.60101
  0
LINE
  8
0
 10
40.483
 20
-2.60101
 11
40.3073
 21
-2.4313
  0
LINE
  8
0
 10
40.3073
 20
-2.4313
 11
40.1438
 21
-2.24976
  0
LINE
  8
0
 10
40.1438
 20
-2.24976
 11
39.9934
 21
-2.05725
  0
LINE
  8
0
 10
39.9934
 20
-2.05725
 11
39.8568
 21
-1.85472
  0
LINE
  8
0
 10
39.8568
 20
-1.85472
 11
39.7347
 21
-1.64315
  0
LINE
  8
0
 10
39.7347
 20
-1.64315
 11
39.6276
 21
-1.42358
  0
LINE
  8
0
 10
39.6276
 20
-1.42358
 11
39.5361
 21
-1.19707
  0
LINE
  8
0
 10
39.5361
 20
-1.19707
 11
39.4606
 21
-0.96473
  0
LINE
  8
0
 10
39.4606
 20
-0.96473
 11
39.4015
 21
-0.727691
  0
LINE
  8
0
 10
39.4015
 20
-0.727691
 11
39.3591
 21
-0.487105
  0
LINE
  8
0
 10
39.3591
 20
-0.487105
 11
39.3335
 21
-0.244147
  0
LINE
  8
0
 10
39.3335
 20
-0.244147
 11
39.325
 21
0
  0
LINE
  8
0
 10
56.6759
 20
-35.8506
 11
56.6759
 21
-35.7494
  0
LINE
  8
0
 10
56.6759
 20
-35.7494
 11
56.6829
 21
-35.6484
  0
LINE
  8
0
 10
56.6829
 20
-35.6484
 11
56.697
 21
-35.5482
  0
LINE
  8
0
 10
56.697
 20
-35.5482
 11
56.7181
 21
-35.4492
  0
LINE
  8
0
 10
56.7181
 20
-35.4492
 11
56.746
 21
-35.3519
  0
LINE
  8
0
 10
56.746
 20
-35.3519
 11
56.7806
 21
-35.2568
  0
LINE
  8
0
 10
56.7806
 20
-35.2568
 11
56.8217
 21
-35.1644
  0
LINE
  8
0
 10
56.8217
 20
-35.1644
 11
56.8693
 21
-35.075
  0
LINE
  8
0
 10
56.8693
 20
-35.075
 11
56.9229
 21
-34.9892
  0
LINE
  8
0
 10
56.9229
 20
-34.9892
 11
56.9824
 21
-34.9073
  0
LINE
  8
0
 10
56.9824
 20
-34.9073
 11
57.0474
 21
-34.8298
  0
LINE
  8
0
 10
57.0474
 20
-34.8298
 11
57.1177
 21
-34.757
  0
LINE
  8
0
 10
57.1177
 20
-34.757
 11
57.193
 21
-34.6892
  0
LINE
  8
0
 10
57.193
 20
-34.6892
 11
57.2727
 21
-34.6269
  0
LINE
  8
0
 10
57.2727
 20
-34.6269
 11
57.3566
 21
-34.5703
  0
LINE
  8
0
 10
57.3566
 20
-34.5703
 11
57.4443
 21
-34.5197
  0
LINE
  8
0
 10
57.4443
 20
-34.5197
 11
57.5352
 21
-34.4754
  0
LINE
  8
0
 10
57.5352
 20
-34.4754
 11
57.6291
 21
-34.4374
  0
LINE
  8
0
 10
57.6291
 20
-34.4374
 11
57.7253
 21
-34.4062
  0
LINE
  8
0
 10
57.7253
 20
-34.4062
 11
57.8235
 21
-34.3817
  0
LINE
  8
0
 10
57.8235
 20
-34.3817
 11
57.9232
 21
-34.3641
  0
LINE
  8
0
 10
57.9232
 20
-34.3641
 11
58.0239
 21
-34.3535
  0
LINE
  8
0
 10
58.0239
 20
-34.3535
 11
58.125
 21
-34.35
  0
LINE
  8
0
 10
58.125
 20
-34.35
 11
58.2261
 21
-34.3535
  0
LINE
  8
0
 10
58.2261
 20
-34.3535
 11
58.3268
 21
-34.3641
  0
LINE
  8
0
 10
58.3268
 20
-34.3641
 11
58.4265
 21
-34.3817
  0
LINE
  8
0
 10
58.4265
 20
-34.3817
 11
58.5247
 21
-34.4062
  0
LINE
  8
0
 10
58.5247
 20
-34.4062
 11
58.6209
 21
-34.4374
  0
LINE
  8
0
 10
58.6209
 20
-34.4374
 11
58.7148
 21
-34.4754
  0
LINE
  8
0
 10
58.7148
 20
-34.4754
 11
58.8057
 21
-34.5197
  0
LINE
  8
0
 10
58.8057
 20
-34.5197
 11
58.8934
 21
-34.5703
  0
LINE
  8
0
 10
58.8934
 20
-34.5703
 11
58.9773
 21
-34.6269
  0
LINE
  8
0
 10
58.9773
 20
-34.6269
 11
59.057
 21
-34.6892
  0
LINE
  8
0
 10
59.057
 20
-34.6892
 11
59.1323
 21
-34.757
  0
LINE
  8
0
 10
59.1323
 20
-34.757
 11
59.2026
 21
-34.8298
  0
LINE
  8
0
 10
59.2026
 20
-34.8298
 11
59.2676
 21
-34.9073
  0
LINE
  8
0
 10
59.2676
 20
-34.9073
 11
59.3271
 21
-34.9892
  0
LINE
  8
0
 10
59.3271
 20
-34.9892
 11
59.3807
 21
-35.075
  0
LINE
  8
0
 10
59.3807
 20
-35.075
 11
59.4283
 21
-35.1644
  0
LINE
  8
0
 10
59.4283
 20
-35.1644
 11
59.4694
 21
-35.2568
  0
LINE
  8
0
 10
59.4694
 20
-35.2568
 11
59.504
 21
-35.3519
  0
LINE
  8
0
 10
59.504
 20
-35.3519
 11
59.5319
 21
-35.4492
  0
LINE
  8
0
 10
59.5319
 20
-35.4492
 11
59.553
 21
-35.5482
  0
LINE
  8
0
 10
59.553
 20
-35.5482
 11
59.5671
 21
-35.6484
  0
LINE
  8
0
 10
59.5671
 20
-35.6484
 11
59.5741
 21
-35.7494
  0
LINE
  8
0
 10
59.5741
 20
-35.7494
 11
59.5741
 21
-35.8506
  0
LINE
  8
0
 10
59.5741
 20
-35.8506
 11
59.5671
 21
-35.9516
  0
LINE
  8
0
 10
59.5671
 20
-35.9516
 11
59.553
 21
-36.0518
  0
LINE
  8
0
 10
59.553
 20
-36.0518
 11
59.5319
 21
-36.1508
  0
LINE
  8
0
 10
59.5319
 20
-36.1508
 11
59.504
 21
-36.2481
  0
LINE
  8
0
 10
59.504
 20
-36.2481
 11
59.4694
 21
-36.3432
  0
LINE
  8
0
 10
59.4694
 20
-36.3432
 11
59.4283
 21
-36.4356
  0
LINE
  8
0
 10
59.4283
 20
-36.4356
 11
59.3807
 21
-36.525
  0
LINE
  8
0
 10
59.3807
 20
-36.525
 11
59.3271
 21
-36.6108
  0
LINE
  8
0
 10
59.3271
 20
-36.6108
 11
59.2676
 21
-36.6927
  0
LINE
  8
0
 10
59.2676
 20
-36.6927
 11
59.2026
 21
-36.7702
  0
LINE
  8
0
 10
59.2026
 20
-36.7702
 11
59.1323
 21
-36.843
  0
LINE
  8
0
 10
59.1323
 20
-36.843
 11
59.057
 21
-36.9108
  0
LINE
  8
0
 10
59.057
 20
-36.9108
 11
58.9773
 21
-36.9731
  0
LINE
  8
0
 10
58.9773
 20
-36.9731
 11
58.8934
 21
-37.0297
  0
LINE
  8
0
 10
58.8934
 20
-37.0297
 11
58.8057
 21
-37.0803
  0
LINE
  8
0
 10
58.8057
 20
-37.0803
 11
58.7148
 21
-37.1246
  0
LINE
  8
0
 10
58.7148
 20
-37.1246
 11
58.6209
 21
-37.1626
  0
LINE
  8
0
 10
58.6209
 20
-37.1626
 11
58.5247
 21
-37.1938
  0
LINE
  8
0
 10
58.5247
 20
-37.1938
 11
58.4265
 21
-37.2183
  0
LINE
  8
0
 10
58.4265
 20
-37.2183
 11
58.3268
 21
-37.2359
  0
LINE
  8
0
 10
58.3268
 20
-37.2359
 11
58.2261
 21
-37.2465
  0
LINE
  8
0
 10
58.2261
 20
-37.2465
 11
58.125
 21
-37.25
  0
LINE
  8
0
 10
58.125
 20
-37.25
 11
58.0239
 21
-37.2465
  0
LINE
  8
0
 10
58.0239
 20
-37.2465
 11
57.9232
 21
-37.2359
  0
LINE
  8
0
 10
57.9232
 20
-37.2359
 11
57.8235
 21
-37.2183
  0
LINE
  8
0
 10
57.8235
 20
-37.2183
 11
57.7253
 21
-37.1938
  0
LINE
  8
0
 10
57.7253
 20
-37.1938
 11
57.6291
 21
-37.1626
  0
LINE
  8
0
 10
57.6291
 20
-37.1626
 11
57.5352
 21
-37.1246
  0
LINE
  8
0
 10
57.5352
 20
-37.1246
 11
57.4443
 21
-37.0803
  0
LINE
  8
0
 10
57.4443
 20
-37.0803
 11
57.3566
 21
-37.0297
  0
LINE
  8
0
 10
57.3566
 20
-37.0297
 11
57.2727
 21
-36.9731
  0
LINE
  8
0
 10
57.2727
 20
-36.9731
 11
57.193
 21
-36.9108
  0
LINE
  8
0
 10
57.193
 20
-36.9108
 11
57.1177
 21
-36.843
  0
LINE
  8
0
 10
57.1177
 20
-36.843
 11
57.0474
 21
-36.7702
  0
LINE
  8
0
 10
57.0474
 20
-36.7702
 11
56.9824
 21
-36.6927
  0
LINE
  8
0
 10
56.9824
 20
-36.6927
 11
56.9229
 21
-36.6108
  0
LINE
  8
0
 10
56.9229
 20
-36.6108
 11
56.8693
 21
-36.525
  0
LINE
  8
0
 10
56.8693
 20
-36.525
 11
56.8217
 21
-36.4356
  0
LINE
  8
0
 10
56.8217
 20
-36.4356
 11
56.7806
 21
-36.3432
  0
LINE
  8
0
 10
56.7806
 20
-36.3432
 11
56.746
 21
-36.2481
  0
LINE
  8
0
 10
56.746
 20
-36.2481
 11
56.7181
 21
-36.1508
  0
LINE
  8
0
 10
56.7181
 20
-36.1508
 11
56.697
 21
-36.0518
  0
LINE
  8
0
 10
56.697
 20
-36.0518
 11
56.6829
 21
-35.9516
  0
LINE
  8
0
 10
56.6829
 20
-35.9516
 11
56.6759
 21
-35.8506
  0
LINE
  8
0
 10
56.6759
 20
-75.8506
 11
56.6759
 21
-75.7494
  0
LINE
  8
0
 10
56.6759
 20
-75.7494
 11
56.6829
 21
-75.6484
  0
LINE
  8
0
 10
56.6829
 20
-75.6484
 11
56.697
 21
-75.5482
  0
LINE
  8
0
 10
56.697
 20
-75.5482
 11
56.7181
 21
-75.4492
  0
LINE
  8
0
 10
56.7181
 20
-75.4492
 11
56.746
 21
-75.3519
  0
LINE
  8
0
 10
56.746
 20
-75.3519
 11
56.7806
 21
-75.2568
  0
LINE
  8
0
 10
56.7806
 20
-75.2568
 11
56.8217
 21
-75.1644
  0
LINE
  8
0
 10
56.8217
 20
-75.1644
 11
56.8693
 21
-75.075
  0
LINE
  8
0
 10
56.8693
 20
-75.075
 11
56.9229
 21
-74.9892
  0
LINE
  8
0
 10
56.9229
 20
-74.9892
 11
56.9824
 21
-74.9073
  0
LINE
  8
0
 10
56.9824
 20
-74.9073
 11
57.0474
 21
-74.8298
  0
LINE
  8
0
 10
57.0474
 20
-74.8298
 11
57.1177
 21
-74.757
  0
LINE
  8
0
 10
57.1177
 20
-74.757
 11
57.193
 21
-74.6892
  0
LINE
  8
0
 10
57.193
 20
-74.6892
 11
57.2727
 21
-74.6269
  0
LINE
  8
0
 10
57.2727
 20
-74.6269
 11
57.3566
 21
-74.5703
  0
LINE
  8
0
 10
57.3566
 20
-74.5703
 11
57.4443
 21
-74.5197
  0
LINE
  8
0
 10
57.4443
 20
-74.5197
 11
57.5352
 21
-74.4754
  0
LINE
  8
0
 10
57.5352
 20
-74.4754
 11
57.6291
 21
-74.4374
  0
LINE
  8
0
 10
57.6291
 20
-74.4374
 11
57.7253
 21
-74.4062
  0
LINE
  8
0
 10
57.7253
 20
-74.4062
 11
57.8235
 21
-74.3817
  0
LINE
  8
0
 10
57.8235
 20
-74.3817
 11
57.9232
 21
-74.3641
  0
LINE
  8
0
 10
57.9232
 20
-74.3641
 11
58.0239
 21
-74.3535
  0
LINE
  8
0
 10
58.0239
 20
-74.3535
 11
58.125
 21
-74.35
  0
LINE
  8
0
 10
58.125
 20
-74.35
 11
58.2261
 21
-74.3535
  0
LINE
  8
0
 10
58.2261
 20
-74.3535
 11
58.3268
 21
-74.3641
  0
LINE
  8
0
 10
58.3268
 20
-74.3641
 11
58.4265
 21
-74.3817
  0
LINE
  8
0
 10
58.4265
 20
-74.3817
 11
58.5247
 21
-74.4062
  0
LINE
  8
0
 10
58.5247
 20
-74.4062
 11
58.6209
 21
-74.4374
  0
LINE
  8
0
 10
58.6209
 20
-74.4374
 11
58.7148
 21
-74.4754
  0
LINE
  8
0
 10
58.7148
 20
-74.4754
 11
58.8057
 21
-74.5197
  0
LINE
  8
0
 10
58.8057
 20
-74.5197
 11
58.8934
 21
-74.5703
  0
LINE
  8
0
 10
58.8934
 20
-74.5703
 11
58.9773
 21
-74.6269
  0
LINE
  8
0
 10
58.9773
 20
-74.6269
 11
59.057
 21
-74.6892
  0
LINE
  8
0
 10
59.057
 20
-74.6892
 11
59.1323
 21
-74.757
  0
LINE
  8
0
 10
59.1323
 20
-74.757
 11
59.2026
 21
-74.8298
  0
LINE
  8
0
 10
59.2026
 20
-74.8298
 11
59.2676
 21
-74.9073
  0
LINE
  8
0
 10
59.2676
 20
-74.9073
 11
59.3271
 21
-74.9892
  0
LINE
  8
0
 10
59.3271
 20
-74.9892
 11
59.3807
 21
-75.075
  0
LINE
  8
0
 10
59.3807
 20
-75.075
 11
59.4283
 21
-75.1644
  0
LINE
  8
0
 10
59.4283
 20
-75.1644
 11
59.4694
 21
-75.2568
  0
LINE
  8
0
 10
59.4694
 20
-75.2568
 11
59.504
 21
-75.3519
  0
LINE
  8
0
 10
59.504
 20
-75.3519
 11
59.5319
 21
-75.4492
  0
LINE
  8
0
 10
59.5319
 20
-75.4492
 11
59.553
 21
-75.5482
  0
LINE
  8
0
 10
59.553
 20
-75.5482
 11
59.5671
 21
-75.6484
  0
LINE
  8
0
 10
59.5671
 20
-75.6484
 11
59.5741
 21
-75.7494
  0
LINE
  8
0
 10
59.5741
 20
-75.7494
 11
59.5741
 21
-75.8506
  0
LINE
  8
0
 10
59.5741
 20
-75.8506
 11
59.5671
 21
-75.9516
  0
LINE
  8
0
 10
59.5671
 20
-75.9516
 11
59.553
 21
-76.0518
  0
LINE
  8
0
 10
59.553
 20
-76.0518
 11
59.5319
 21
-76.1508
  0
LINE
  8
0
 10
59.5319
 20
-76.1508
 11
59.504
 21
-76.2481
  0
LINE
  8
0
 10
59.504
 20
-76.2481
 11
59.4694
 21
-76.3432
  0
LINE
  8
0
 10
59.4694
 20
-76.3432
 11
59.4283
 21
-76.4356
  0
LINE
  8
0
 10
59.4283
 20
-76.4356
 11
59.3807
 21
-76.525
  0
LINE
  8
0
 10
59.3807
 20
-76.525
 11
59.3271
 21
-76.6108
  0
LINE
  8
0
 10
59.3271
 20
-76.6108
 11
59.2676
 21
-76.6927
  0
LINE
  8
0
 10
59.2676
 20
-76.6927
 11
59.2026
 21
-76.7702
  0
LINE
  8
0
 10
59.2026
 20
-76.7702
 11
59.1323
 21
-76.843
  0
LINE
  8
0
 10
59.1323
 20
-76.843
 11
59.057
 21
-76.9108
  0
LINE
  8
0
 10
59.057
 20
-76.9108
 11
58.9773
 21
-76.9731
  0
LINE
  8
0
 10
58.9773
 20
-76.9731
 11
58.8934
 21
-77.0297
  0
LINE
  8
0
 10
58.8934
 20
-77.0297
 11
58.8057
 21
-77.0803
  0
LINE
  8
0
 10
58.8057
 20
-77.0803
 11
58.7148
 21
-77.1246
  0
LINE
  8
0
 10
58.7148
 20
-77.1246
 11
58.6209
 21
-77.1626
  0
LINE
  8
0
 10
58.6209
 20
-77.1626
 11
58.5247
 21
-77.1938
  0
LINE
  8
0
 10
58.5247
 20
-77.1938
 11
58.4265
 21
-77.2183
  0
LINE
  8
0
 10
58.4265
 20
-77.2183
 11
58.3268
 21
-77.2359
  0
LINE
  8
0
 10
58.3268
 20
-77.2359
 11
58.2261
 21
-77.2465
  0
LINE
  8
0
 10
58.2261
 20
-77.2465
 11
58.125
 21
-77.25
  0
LINE
  8
0
 10
58.125
 20
-77.25
 11
58.0239
 21
-77.2465
  0
LINE
  8
0
 10
58.0239
 20
-77.2465
 11
57.9232
 21
-77.2359
  0
LINE
  8
0
 10
57.9232
 20
-77.2359
 11
57.8235
 21
-77.2183
  0
LINE
  8
0
 10
57.8235
 20
-77.2183
 11
57.7253
 21
-77.1938
  0
LINE
  8
0
 10
57.7253
 20
-77.1938
 11
57.6291
 21
-77.1626
  0
LINE
  8
0
 10
57.6291
 20
-77.1626
 11
57.5352
 21
-77.1246
  0
LINE
  8
0
 10
57.5352
 20
-77.1246
 11
57.4443
 21
-77.0803
  0
LINE
  8
0
 10
57.4443
 20
-77.0803
 11
57.3566
 21
-77.0297
  0
LINE
  8
0
 10
57.3566
 20
-77.0297
 11
57.2727
 21
-76.9731
  0
LINE
  8
0
 10
57.2727
 20
-76.9731
 11
57.193
 21
-76.9108
  0
LINE
  8
0
 10
57.193
 20
-76.9108
 11
57.1177
 21
-76.843
  0
LINE
  8
0
 10
57.1177
 20
-76.843
 11
57.0474
 21
-76.7702
  0
LINE
  8
0
 10
57.0474
 20
-76.7702
 11
56.9824
 21
-76.6927
  0
LINE
  8
0
 10
56.9824
 20
-76.6927
 11
56.9229
 21
-76.6108
  0
LINE
  8
0
 10
56.9229
 20
-76.6108
 11
56.8693
 21
-76.525
  0
LINE
  8
0
 10
56.8693
 20
-76.525
 11
56.8217
 21
-76.4356
  0
LINE
  8
0
 10
56.8217
 20
-76.4356
 11
56.7806
 21
-76.3432
  0
LINE
  8
0
 10
56.7806
 20
-76.3432
 11
56.746
 21
-76.2481
  0
LINE
  8
0
 10
56.746
 20
-76.2481
 11
56.7181
 21
-76.1508
  0
LINE
  8
0
 10
56.7181
 20
-76.1508
 11
56.697
 21
-76.0518
  0
LINE
  8
0
 10
56.697
 20
-76.0518
 11
56.6829
 21
-75.9516
  0
LINE
  8
0
 10
56.6829
 20
-75.9516
 11
56.6759
 21
-75.8506
  0
ENDSEC
  0
SECTION
  2
OBJECTS
  0
DICTIONARY
  0
ENDSEC
  0
EOF
