<?xml version="1.0" standalone="no"?>
<!DOCTYPE svg PUBLIC "-//W3C//DTD SVG 1.1//EN" "http://www.w3.org/Graphics/SVG/1.1/DTD/svg11.dtd">
<svg width="20" height="52" viewBox="-10 -26 20 52" xmlns="http://www.w3.org/2000/svg" version="1.1">
<title>OpenSCAD Model</title>
<path d="
M -9.775,15.4 L -9.72145,16.4218 L -9.56139,17.4323 L -9.29658,18.4206 L -8.92991,19.3759 L -8.4654,20.2875
 L -7.90814,21.1456 L -7.26424,21.9408 L -6.54075,22.6642 L -5.7456,23.3081 L -4.8875,23.8654 L -3.97585,24.3299
 L -3.02064,24.6966 L -2.03234,24.9614 L -1.02177,25.1215 L 0,25.175 L 1.02177,25.1215 L 2.03234,24.9614
 L 3.02064,24.6966 L 3.97585,24.3299 L 4.8875,23.8654 L 5.7456,23.3081 L 6.54075,22.6642 L 7.26424,21.9408
 L 7.90814,21.1456 L 8.4654,20.2875 L 8.92991,19.3759 L 9.29658,18.4206 L 9.56139,17.4323 L 9.72145,16.4218
 L 9.775,15.4 L 9.72145,14.3782 L 9.56139,13.3677 L 9.29658,12.3794 L 8.92991,11.4241 L 8.4654,10.5125
 L 8.38,10.381 L 8.38,-10.381 L 8.4654,-10.5125 L 8.92991,-11.4241 L 9.29658,-12.3794 L 9.56139,-13.3677
 L 9.72145,-14.3782 L 9.775,-15.4 L 9.72145,-16.4218 L 9.56139,-17.4323 L 9.29658,-18.4206 L 8.92991,-19.3759
 L 8.4654,-20.2875 L 7.90814,-21.1456 L 7.26424,-21.9408 L 6.54075,-22.6642 L 5.7456,-23.3081 L 4.8875,-23.8654
 L 3.97585,-24.3299 L 3.02064,-24.6966 L 2.03234,-24.9614 L 1.02177,-25.1215 L 0,-25.175 L -1.02177,-25.1215
 L -2.03234,-24.9614 L -3.02064,-24.6966 L -3.97585,-24.3299 L -4.8875,-23.8654 L -5.7456,-23.3081 L -6.54075,-22.6642
 L -7.26424,-21.9408 L -7.90814,-21.1456 L -8.4654,-20.2875 L -8.92991,-19.3759 L -9.29658,-18.4206 L -9.56139,-17.4323
 L -9.72145,-16.4218 L -9.775,-15.4 L -9.72145,-14.3782 L -9.56139,-13.3677 L -9.29658,-12.3794 L -8.92991,-11.4241
 L -8.4654,-10.5125 L -8.38,-10.381 L -8.38,10.381 L -8.4654,10.5125 L -8.92991,11.4241 L -9.29658,12.3794
 L -9.56139,13.3677 L -9.72145,14.3782 z
M -3.15,0.783865 L -3.15,-0.783865 L -3.09093,-1.0043 L -2.96902,-1.32189 L -2.81458,-1.625 L -2.6293,-1.9103
 L -2.41522,-2.17467 L -2.17467,-2.41522 L -1.9103,-2.6293 L -1.625,-2.81458 L -1.32189,-2.96902 L -1.0043,-3.09093
 L -0.675713,-3.17898 L -0.339717,-3.2322 L 0,-3.25 L 0.339717,-3.2322 L 0.675713,-3.17898 L 1.0043,-3.09093
 L 1.32189,-2.96902 L 1.625,-2.81458 L 1.9103,-2.6293 L 2.17467,-2.41522 L 2.41522,-2.17467 L 2.6293,-1.9103
 L 2.81458,-1.625 L 2.96902,-1.32189 L 3.09093,-1.0043 L 3.15,-0.783865 L 3.15,0.783865 L 3.09093,1.0043
 L 2.96902,1.32189 L 2.81458,1.625 L 2.6293,1.9103 L 2.41522,2.17467 L 2.17467,2.41522 L 1.91562,2.625
 L -1.91562,2.625 L -2.17467,2.41522 L -2.41522,2.17467 L -2.6293,1.9103 L -2.81458,1.625 L -2.96902,1.32189
 L -3.09093,1.0043 z
M -1.575,15.4 L -1.56637,15.2354 L -1.54058,15.0725 L -1.49791,14.9133 L -1.43883,14.7594 L -1.36399,14.6125
 L -1.2742,14.4742 L -1.17045,14.3461 L -1.05388,14.2295 L -0.925761,14.1258 L -0.787499,14.036 L -0.64061,13.9612
 L -0.486701,13.9021 L -0.32746,13.8594 L -0.164632,13.8336 L 0,13.825 L 0.164632,13.8336 L 0.32746,13.8594
 L 0.486701,13.9021 L 0.64061,13.9612 L 0.787499,14.036 L 0.925761,14.1258 L 1.05388,14.2295 L 1.17045,14.3461
 L 1.2742,14.4742 L 1.36399,14.6125 L 1.43883,14.7594 L 1.49791,14.9133 L 1.54058,15.0725 L 1.56637,15.2354
 L 1.575,15.4 L 1.56637,15.5646 L 1.54058,15.7275 L 1.49791,15.8867 L 1.43883,16.0406 L 1.36399,16.1875
 L 1.2742,16.3258 L 1.17045,16.4539 L 1.05388,16.5705 L 0.925761,16.6742 L 0.787499,16.764 L 0.64061,16.8388
 L 0.486701,16.8979 L 0.32746,16.9406 L 0.164632,16.9664 L 0,16.975 L -0.164632,16.9664 L -0.32746,16.9406
 L -0.486701,16.8979 L -0.64061,16.8388 L -0.787499,16.764 L -0.925761,16.6742 L -1.05388,16.5705 L -1.17045,16.4539
 L -1.2742,16.3258 L -1.36399,16.1875 L -1.43883,16.0406 L -1.49791,15.8867 L -1.54058,15.7275 L -1.56637,15.5646
 z
M -1.575,-15.4 L -1.56637,-15.5646 L -1.54058,-15.7275 L -1.49791,-15.8867 L -1.43883,-16.0406 L -1.36399,-16.1875
 L -1.2742,-16.3258 L -1.17045,-16.4539 L -1.05388,-16.5705 L -0.925761,-16.6742 L -0.787499,-16.764 L -0.64061,-16.8388
 L -0.486701,-16.8979 L -0.32746,-16.9406 L -0.164632,-16.9664 L 0,-16.975 L 0.164632,-16.9664 L 0.32746,-16.9406
 L 0.486701,-16.8979 L 0.64061,-16.8388 L 0.787499,-16.764 L 0.925761,-16.6742 L 1.05388,-16.5705 L 1.17045,-16.4539
 L 1.2742,-16.3258 L 1.36399,-16.1875 L 1.43883,-16.0406 L 1.49791,-15.8867 L 1.54058,-15.7275 L 1.56637,-15.5646
 L 1.575,-15.4 L 1.56637,-15.2354 L 1.54058,-15.0725 L 1.49791,-14.9133 L 1.43883,-14.7594 L 1.36399,-14.6125
 L 1.2742,-14.4742 L 1.17045,-14.3461 L 1.05388,-14.2295 L 0.925761,-14.1258 L 0.787499,-14.036 L 0.64061,-13.9612
 L 0.486701,-13.9021 L 0.32746,-13.8594 L 0.164632,-13.8336 L 0,-13.825 L -0.164632,-13.8336 L -0.32746,-13.8594
 L -0.486701,-13.9021 L -0.64061,-13.9612 L -0.787499,-14.036 L -0.925761,-14.1258 L -1.05388,-14.2295 L -1.17045,-14.3461
 L -1.2742,-14.4742 L -1.36399,-14.6125 L -1.43883,-14.7594 L -1.49791,-14.9133 L -1.54058,-15.0725 L -1.56637,-15.2354
 z
" stroke="black" fill="lightgray" stroke-width="0.5"/></svg>
