<?xml version="1.0" standalone="no"?>
<!DOCTYPE svg PUBLIC "-//W3C//DTD SVG 1.1//EN" "http://www.w3.org/Graphics/SVG/1.1/DTD/svg11.dtd">
<svg width="18" height="20" viewBox="-9 -10 18 20" xmlns="http://www.w3.org/2000/svg" version="1.1">
<title>OpenSCAD Model</title>
<path d="
M -8.4,9.75 L -7.85782,9.75 L -7.62809,9.52815 L -7.01854,9.01668 L -6.3748,8.54897 L -5.7,8.12731
 L -4.99743,7.75375 L -4.27051,7.4301 L -3.52279,7.15796 L -2.75791,6.93863 L -1.97959,6.77319 L -1.19162,6.66245
 L -0.397854,6.60695 L 0.397854,6.60695 L 1.19162,6.66245 L 1.97959,6.77319 L 2.75791,6.93863 L 3.52279,7.15796
 L 4.27051,7.4301 L 4.99743,7.75375 L 5.7,8.12731 L 6.3748,8.54897 L 7.01854,9.01668 L 7.62809,9.52815
 L 7.85782,9.75 L 8.4,9.75 L 8.4,-9.75 L 7.85782,-9.75 L 7.62809,-9.52815 L 7.01854,-9.01668
 L 6.3748,-8.54897 L 5.7,-8.12731 L 4.99743,-7.75375 L 4.27051,-7.4301 L 3.52279,-7.15796 L 2.75791,-6.93863
 L 1.97959,-6.77319 L 1.19162,-6.66245 L 0.397854,-6.60695 L -0.397854,-6.60695 L -1.19162,-6.66245 L -1.97959,-6.77319
 L -2.75791,-6.93863 L -3.52279,-7.15796 L -4.27051,-7.4301 L -4.99743,-7.75375 L -5.7,-8.12731 L -6.3748,-8.54897
 L -7.01854,-9.01668 L -7.62809,-9.52815 L -7.85782,-9.75 L -8.4,-9.75 z
M -4.0975,0.143087 L -4.0975,-0.143087 L -4.07754,-0.428566 L -4.03771,-0.711957 L -3.97821,-0.991879 L -3.89933,-1.26697
 L -3.80145,-1.53589 L -3.68505,-1.79732 L -3.5507,-2.05 L -3.39905,-2.29269 L -3.23084,-2.52421 L -3.04689,-2.74343
 L -2.8481,-2.94929 L -2.63543,-3.14078 L -2.40992,-3.31697 L -2.17267,-3.477 L -1.92483,-3.62008 L -1.66762,-3.74554
 L -1.40228,-3.85274 L -1.13011,-3.94117 L -0.852437,-4.0104 L -0.570609,-4.0601 L -0.286001,-4.09001 L 0,-4.1
 L 0.286001,-4.09001 L 0.570609,-4.0601 L 0.852437,-4.0104 L 1.13011,-3.94117 L 1.40228,-3.85274 L 1.66762,-3.74554
 L 1.92483,-3.62008 L 2.17267,-3.477 L 2.40992,-3.31697 L 2.63543,-3.14078 L 2.8481,-2.94929 L 3.04689,-2.74343
 L 3.23084,-2.52421 L 3.39905,-2.29269 L 3.5507,-2.05 L 3.68505,-1.79732 L 3.80145,-1.53589 L 3.89933,-1.26697
 L 3.97821,-0.991879 L 4.03771,-0.711957 L 4.07754,-0.428566 L 4.0975,-0.143087 L 4.0975,0.143087 L 4.07754,0.428566
 L 4.03771,0.711957 L 3.97821,0.991879 L 3.89933,1.26697 L 3.80145,1.53589 L 3.68505,1.79732 L 3.5507,2.05
 L 3.39905,2.29269 L 3.23084,2.52421 L 3.04689,2.74343 L 2.8481,2.94929 L 2.63543,3.14078 L 2.40992,3.31697
 L 2.17267,3.477 L 1.92483,3.62008 L 1.66762,3.74554 L 1.40228,3.85274 L 1.13011,3.94117 L 0.852437,4.0104
 L 0.570609,4.0601 L 0.286001,4.09001 L 0,4.1 L -0.286001,4.09001 L -0.570609,4.0601 L -0.852437,4.0104
 L -1.13011,3.94117 L -1.40228,3.85274 L -1.66762,3.74554 L -1.92483,3.62008 L -2.17267,3.477 L -2.40992,3.31697
 L -2.63543,3.14078 L -2.8481,2.94929 L -3.04689,2.74343 L -3.23084,2.52421 L -3.39905,2.29269 L -3.5507,2.05
 L -3.68505,1.79732 L -3.80145,1.53589 L -3.89933,1.26697 L -3.97821,0.991879 L -4.03771,0.711957 L -4.07754,0.428566
 z
" stroke="black" fill="lightgray" stroke-width="0.5"/></svg>
