<?xml version="1.0" standalone="no"?>
<!DOCTYPE svg PUBLIC "-//W3C//DTD SVG 1.1//EN" "http://www.w3.org/Graphics/SVG/1.1/DTD/svg11.dtd">
<svg width="146" height="159" viewBox="-73 -61 146 159" xmlns="http://www.w3.org/2000/svg" version="1.1">
<title>OpenSCAD Model</title>
<path d="
M -73,72 L -72.9744,72.7324 L -72.8978,73.4613 L -72.7705,74.1831 L -72.5932,74.8942 L -72.3668,75.5912
 L -72.0922,76.2707 L -71.7709,76.9295 L -71.4045,77.5642 L -70.9947,78.1717 L -70.5435,78.7493 L -70.0531,79.2939
 L -69.5259,79.803 L -68.9644,80.2741 L -68.3715,80.7049 L -67.75,81.0933 L -67.1029,81.4373 L -66.4334,81.7354
 L -65.7447,81.9861 L -65.0402,82.1881 L -64.3233,82.3405 L -63.5975,82.4425 L -62.8664,82.4936 L -34.5482,82.4936
 L -24.7774,94.5065 L -24.3337,94.9993 L -23.8567,95.4599 L -23.3488,95.8861 L -22.8123,96.2759 L -22.25,96.6272
 L -21.6645,96.9385 L -21.0588,97.2082 L -20.4357,97.435 L -19.7983,97.6178 L -19.1497,97.7557 L -18.493,97.848
 L -17.8315,97.8942 L 17.8315,97.8942 L 18.493,97.848 L 19.1497,97.7557 L 19.7983,97.6178 L 20.4357,97.435
 L 21.0588,97.2082 L 21.6645,96.9385 L 22.25,96.6272 L 22.8123,96.2759 L 23.3488,95.8861 L 23.8567,95.4599
 L 24.3337,94.9993 L 24.7774,94.5065 L 34.5482,82.4936 L 62.8664,82.4936 L 63.5975,82.4425 L 64.3233,82.3405
 L 65.0402,82.1881 L 65.7447,81.9861 L 66.4334,81.7354 L 67.1029,81.4373 L 67.75,81.0933 L 68.3715,80.7049
 L 68.9644,80.2741 L 69.5259,79.803 L 70.0531,79.2939 L 70.5435,78.7493 L 70.9947,78.1717 L 71.4045,77.5642
 L 71.7709,76.9295 L 72.0922,76.2707 L 72.3668,75.5912 L 72.5932,74.8942 L 72.7705,74.1831 L 72.8978,73.4613
 L 72.9744,72.7324 L 73,72 L 72.9744,71.2676 L 72.8978,70.5387 L 72.7705,69.8169 L 72.5932,69.1058
 L 72.3668,68.4088 L 72.0922,67.7293 L 71.7709,67.0705 L 71.4045,66.4358 L 70.9947,65.8283 L 70.5435,65.2507
 L 70.0531,64.7061 L 69.5259,64.197 L 68.9644,63.7259 L 68.3715,63.2951 L 67.75,62.9067 L 67.1029,62.5627
 L 66.4334,62.2646 L 65.7447,62.0139 L 65.0402,61.8119 L 64.3233,61.6595 L 54.4304,60.189 L 46.7921,51.0676
 L 46.7,50.9653 L 46.7,1.04437 L 67.1278,-50.4875 L 67.2831,-50.9654 L 67.4046,-51.453 L 67.4919,-51.948
 L 67.5444,-52.4478 L 67.562,-52.95 L 67.562,-52.95 L 67.562,-52.95 L 67.5444,-53.4522 L 67.4919,-53.952
 L 67.4046,-54.447 L 67.2831,-54.9346 L 67.1278,-55.4125 L 66.9395,-55.8785 L 66.7192,-56.3302 L 66.4679,-56.7654
 L 66.1869,-57.1821 L 65.8775,-57.5781 L 65.5412,-57.9515 L 65.1797,-58.3006 L 64.7947,-58.6237 L 64.3882,-58.9191
 L 63.962,-59.1854 L 63.5182,-59.4213 L 63.0591,-59.6257 L 62.5869,-59.7976 L 62.1038,-59.9361 L 61.6122,-60.0406
 L 61.1146,-60.1106 L 60.6132,-60.1456 L 60.1107,-60.1456 L 59.6094,-60.1106 L 59.1117,-60.0406 L 58.6201,-59.9361
 L 58.137,-59.7976 L 57.6648,-59.6257 L 57.2057,-59.4213 L 56.762,-59.1854 L 56.3358,-58.9191 L 55.9292,-58.6237
 L 55.5442,-58.3006 L 55.1827,-57.9515 L 54.8464,-57.5781 L 54.8464,-57.578 L 42.6443,-42.1215 L 41.8207,-41.3534
 L 40.1742,-39.9222 L 38.4788,-38.5493 L 36.7366,-37.2364 L 34.9496,-35.9852 L 33.12,-34.797 L 31.25,-33.6734
 L 29.342,-32.6158 L 27.3982,-31.6254 L 25.421,-30.7034 L 23.4129,-29.851 L 21.3763,-29.0692 L 19.3136,-28.359
 L 17.2273,-27.7211 L 15.1201,-27.1565 L 12.9945,-26.6658 L 10.853,-26.2495 L 8.69832,-25.9082 L 8.03455,-25.8267
 L 7.98885,-25.8434 L 7.77415,-25.9049 L 7.55567,-25.9514 L 7.33449,-25.9825 L 7.11168,-25.998 L -7.11168,-25.998
 L -7.33449,-25.9825 L -7.55567,-25.9514 L -7.77415,-25.9049 L -7.98885,-25.8434 L -8.03455,-25.8267 L -8.69832,-25.9082
 L -10.853,-26.2495 L -12.9945,-26.6658 L -15.1201,-27.1565 L -17.2273,-27.7211 L -19.3136,-28.359 L -21.3763,-29.0692
 L -23.4129,-29.851 L -25.421,-30.7034 L -27.3982,-31.6254 L -29.342,-32.6158 L -31.25,-33.6734 L -33.12,-34.797
 L -34.9496,-35.9852 L -36.7366,-37.2364 L -38.4788,-38.5493 L -40.1742,-39.9222 L -41.8207,-41.3534 L -42.6443,-42.1215
 L -54.8464,-57.578 L -54.8464,-57.5781 L -55.1827,-57.9515 L -55.5442,-58.3006 L -55.9292,-58.6237 L -56.3358,-58.9191
 L -56.762,-59.1854 L -57.2057,-59.4213 L -57.6648,-59.6257 L -58.137,-59.7976 L -58.6201,-59.9361 L -59.1117,-60.0406
 L -59.6094,-60.1106 L -60.1107,-60.1456 L -60.6132,-60.1456 L -61.1146,-60.1106 L -61.6122,-60.0406 L -62.1038,-59.9361
 L -62.5869,-59.7976 L -63.0591,-59.6257 L -63.5182,-59.4213 L -63.962,-59.1854 L -64.3882,-58.9191 L -64.7947,-58.6237
 L -65.1797,-58.3006 L -65.5412,-57.9515 L -65.8775,-57.5781 L -66.1869,-57.1821 L -66.4679,-56.7654 L -66.7192,-56.3302
 L -66.9395,-55.8785 L -67.1278,-55.4125 L -67.2831,-54.9346 L -67.4046,-54.447 L -67.4919,-53.952 L -67.5444,-53.4522
 L -67.562,-52.95 L -67.562,-52.95 L -67.562,-52.95 L -67.5444,-52.4478 L -67.4919,-51.948 L -67.4046,-51.453
 L -67.2831,-50.9654 L -67.1278,-50.4875 L -46.7,1.04437 L -46.7,50.9653 L -46.7921,51.0676 L -54.4304,60.189
 L -64.3233,61.6595 L -65.0402,61.8119 L -65.7447,62.0139 L -66.4334,62.2646 L -67.1029,62.5627 L -67.75,62.9067
 L -68.3715,63.2951 L -68.9644,63.7259 L -69.5259,64.197 L -70.0531,64.7061 L -70.5435,65.2507 L -70.9947,65.8283
 L -71.4045,66.4358 L -71.7709,67.0705 L -72.0922,67.7293 L -72.3668,68.4088 L -72.5932,69.1058 L -72.7705,69.8169
 L -72.8978,70.5387 L -72.9744,71.2676 z
M -66.6,72 L -66.59,71.714 L -66.5601,71.4294 L -66.5104,71.1476 L -66.4412,70.8699 L -66.3527,70.5977
 L -66.2455,70.3324 L -66.1201,70.0752 L -65.977,69.8273 L -65.817,69.5901 L -65.6408,69.3646 L -65.4493,69.1519
 L -65.2434,68.9531 L -65.0242,68.7692 L -64.7927,68.6009 L -64.55,68.4493 L -64.2973,68.3149 L -64.0359,68.1985
 L -63.767,68.1007 L -63.4919,68.0218 L -63.212,67.9623 L -62.9286,67.9225 L -62.6431,67.9025 L -62.3569,67.9025
 L -62.0714,67.9225 L -61.788,67.9623 L -61.5081,68.0218 L -61.233,68.1007 L -60.9641,68.1985 L -60.7027,68.3149
 L -60.45,68.4493 L -60.2073,68.6009 L -59.9758,68.7692 L -59.7566,68.9531 L -59.5507,69.1519 L -59.3592,69.3646
 L -59.183,69.5901 L -59.023,69.8273 L -58.8799,70.0752 L -58.7545,70.3324 L -58.6473,70.5977 L -58.5588,70.8699
 L -58.4896,71.1476 L -58.4399,71.4294 L -58.41,71.714 L -58.4,72 L -58.41,72.286 L -58.4399,72.5706
 L -58.4896,72.8524 L -58.5588,73.1301 L -58.6473,73.4023 L -58.7545,73.6676 L -58.8799,73.9248 L -59.023,74.1727
 L -59.183,74.4099 L -59.3592,74.6354 L -59.5507,74.8481 L -59.7566,75.0469 L -59.9758,75.2308 L -60.2073,75.3991
 L -60.45,75.5507 L -60.7027,75.6851 L -60.9641,75.8015 L -61.233,75.8993 L -61.5081,75.9782 L -61.788,76.0377
 L -62.0714,76.0775 L -62.3569,76.0975 L -62.6431,76.0975 L -62.9286,76.0775 L -63.212,76.0377 L -63.4919,75.9782
 L -63.767,75.8993 L -64.0359,75.8015 L -64.2973,75.6851 L -64.55,75.5507 L -64.7927,75.3991 L -65.0242,75.2308
 L -65.2434,75.0469 L -65.4493,74.8481 L -65.6408,74.6354 L -65.817,74.4099 L -65.977,74.1727 L -66.1201,73.9248
 L -66.2455,73.6676 L -66.3527,73.4023 L -66.4412,73.1301 L -66.5104,72.8524 L -66.5601,72.5706 L -66.59,72.286
 z
M -33.4109,24.9 L -33.4033,24.6838 L -33.3807,24.4686 L -33.3431,24.2555 L -33.2908,24.0455 L -33.2239,23.8397
 L -33.1429,23.6391 L -33.048,23.4446 L -32.9398,23.2573 L -32.8188,23.0779 L -32.6856,22.9074 L -32.5408,22.7466
 L -32.3852,22.5963 L -32.2194,22.4572 L -32.0444,22.33 L -31.8609,22.2153 L -31.6698,22.1137 L -31.4722,22.0257
 L -31.2688,21.9517 L -31.0608,21.8921 L -30.8492,21.8471 L -30.6349,21.817 L -30.4191,21.8019 L -30.2027,21.8019
 L -29.9869,21.817 L -29.7726,21.8471 L -29.5609,21.8921 L -29.3529,21.9517 L -29.1496,22.0257 L -28.9519,22.1137
 L -28.7609,22.2153 L -28.5774,22.33 L -28.4023,22.4572 L -28.2366,22.5963 L -28.0809,22.7466 L -27.9362,22.9074
 L -27.8029,23.0779 L -27.6819,23.2573 L -27.5738,23.4446 L -27.4789,23.6391 L -27.3978,23.8397 L -27.331,24.0455
 L -27.2786,24.2555 L -27.2411,24.4686 L -27.2184,24.6838 L -27.2109,24.9 L -27.2184,25.1162 L -27.2411,25.3314
 L -27.2786,25.5445 L -27.331,25.7545 L -27.3978,25.9603 L -27.4789,26.1609 L -27.5738,26.3554 L -27.6819,26.5427
 L -27.8029,26.7221 L -27.9362,26.8926 L -28.0809,27.0534 L -28.2366,27.2037 L -28.4023,27.3428 L -28.5774,27.47
 L -28.7609,27.5847 L -28.9519,27.6863 L -29.1496,27.7743 L -29.3529,27.8483 L -29.5609,27.9079 L -29.7726,27.9529
 L -29.9869,27.983 L -30.2027,27.9981 L -30.4191,27.9981 L -30.6349,27.983 L -30.8492,27.9529 L -31.0608,27.9079
 L -31.2688,27.8483 L -31.4722,27.7743 L -31.6698,27.6863 L -31.8609,27.5847 L -32.0444,27.47 L -32.2194,27.3428
 L -32.3852,27.2037 L -32.5408,27.0534 L -32.6856,26.8926 L -32.8188,26.7221 L -32.9398,26.5427 L -33.048,26.3554
 L -33.1429,26.1609 L -33.2239,25.9603 L -33.2908,25.7545 L -33.3431,25.5445 L -33.3807,25.3314 L -33.4033,25.1162
 z
M -22.1,-0 L -22.09,-0.286001 L -22.0601,-0.570609 L -22.0104,-0.852437 L -21.9412,-1.13011 L -21.8527,-1.40228
 L -21.7455,-1.66762 L -21.6201,-1.92483 L -21.477,-2.17267 L -21.317,-2.40992 L -21.1408,-2.63543 L -20.9493,-2.8481
 L -20.7434,-3.04689 L -20.5242,-3.23084 L -20.2927,-3.39905 L -20.05,-3.5507 L -19.7973,-3.68505 L -19.5359,-3.80145
 L -19.267,-3.89933 L -18.9919,-3.97821 L -18.712,-4.03771 L -18.4286,-4.07754 L -18.1431,-4.0975 L -17.8569,-4.0975
 L -17.5714,-4.07754 L -17.288,-4.03771 L -17.0081,-3.97821 L -16.733,-3.89933 L -16.4641,-3.80145 L -16.2027,-3.68505
 L -15.95,-3.5507 L -15.7073,-3.39905 L -15.4758,-3.23084 L -15.2566,-3.04689 L -15.0507,-2.8481 L -14.8592,-2.63543
 L -14.683,-2.40992 L -14.523,-2.17267 L -14.3799,-1.92483 L -14.2545,-1.66762 L -14.1473,-1.40228 L -14.0588,-1.13011
 L -13.9896,-0.852437 L -13.9399,-0.570609 L -13.91,-0.286001 L -13.9,-0 L -13.91,0.286001 L -13.9399,0.570609
 L -13.9896,0.852437 L -14.0588,1.13011 L -14.1473,1.40228 L -14.2545,1.66762 L -14.3799,1.92483 L -14.523,2.17267
 L -14.683,2.40992 L -14.8592,2.63543 L -15.0507,2.8481 L -15.2566,3.04689 L -15.4758,3.23084 L -15.7073,3.39905
 L -15.95,3.5507 L -16.2027,3.68505 L -16.4641,3.80145 L -16.733,3.89933 L -17.0081,3.97821 L -17.288,4.03771
 L -17.5714,4.07754 L -17.8569,4.0975 L -18.1431,4.0975 L -18.4286,4.07754 L -18.712,4.03771 L -18.9919,3.97821
 L -19.267,3.89933 L -19.5359,3.80145 L -19.7973,3.68505 L -20.05,3.5507 L -20.2927,3.39905 L -20.5242,3.23084
 L -20.7434,3.04689 L -20.9493,2.8481 L -21.1408,2.63543 L -21.317,2.40992 L -21.477,2.17267 L -21.6201,1.92483
 L -21.7455,1.66762 L -21.8527,1.40228 L -21.9412,1.13011 L -22.0104,0.852437 L -22.0601,0.570609 L -22.09,0.286001
 z
M -12.8,42.4 L -12.7688,41.5071 L -12.6754,40.6186 L -12.5203,39.7387 L -12.3041,38.8718 L -12.0281,38.0221
 L -11.6934,37.1938 L -11.3017,36.3908 L -10.855,35.617 L -10.3554,34.8763 L -9.80537,34.1723 L -9.20755,33.5084
 L -8.56487,32.8877 L -7.88047,32.3135 L -7.15767,31.7883 L -6.4,31.3149 L -5.61115,30.8954 L -4.79496,30.532
 L -3.95542,30.2265 L -3.0966,29.9802 L -2.2227,29.7945 L -1.33796,29.6701 L -0.446713,29.6078 L 0.446713,29.6078
 L 1.33796,29.6701 L 2.2227,29.7945 L 3.0966,29.9802 L 3.95542,30.2265 L 4.79496,30.532 L 5.61115,30.8954
 L 6.4,31.3149 L 7.15767,31.7883 L 7.88047,32.3135 L 8.56487,32.8877 L 9.20755,33.5084 L 9.80537,34.1723
 L 10.3554,34.8763 L 10.855,35.617 L 11.3017,36.3908 L 11.6934,37.1938 L 12.0281,38.0221 L 12.3041,38.8718
 L 12.5203,39.7387 L 12.6754,40.6186 L 12.7688,41.5071 L 12.8,42.4 L 12.7688,43.2929 L 12.6754,44.1814
 L 12.5203,45.0613 L 12.3041,45.9282 L 12.0281,46.7779 L 11.6934,47.6062 L 11.3017,48.4092 L 10.855,49.183
 L 10.3554,49.9237 L 9.80537,50.6277 L 9.20755,51.2916 L 8.56487,51.9123 L 7.88047,52.4865 L 7.15767,53.0117
 L 6.4,53.4851 L 5.61115,53.9046 L 4.79496,54.268 L 3.95542,54.5735 L 3.0966,54.8198 L 2.2227,55.0055
 L 1.33796,55.1299 L 0.446713,55.1922 L -0.446713,55.1922 L -1.33796,55.1299 L -2.2227,55.0055 L -3.0966,54.8198
 L -3.95542,54.5735 L -4.79496,54.268 L -5.61115,53.9046 L -6.4,53.4851 L -7.15767,53.0117 L -7.88047,52.4865
 L -8.56487,51.9123 L -9.20755,51.2916 L -9.80537,50.6277 L -10.3554,49.9237 L -10.855,49.183 L -11.3017,48.4092
 L -11.6934,47.6062 L -12.0281,46.7779 L -12.3041,45.9282 L -12.5203,45.0613 L -12.6754,44.1814 L -12.7688,43.2929
 z
M -3.5,-9.75 L -3.5,-20.25 L 3.5,-20.25 L 3.5,-9.75 z
M -3.1,88.4 L -3.09245,88.1838 L -3.06983,87.9686 L -3.03226,87.7555 L -2.97991,87.5455 L -2.91305,87.3397
 L -2.83199,87.1391 L -2.73714,86.9446 L -2.62895,86.7573 L -2.50795,86.5779 L -2.37474,86.4074 L -2.22995,86.2466
 L -2.0743,86.0963 L -1.90855,85.9572 L -1.7335,85.83 L -1.55,85.7153 L -1.35895,85.6137 L -1.16128,85.5257
 L -0.957952,85.4517 L -0.749957,85.3921 L -0.538309,85.3471 L -0.324038,85.317 L -0.108188,85.3019 L 0.108188,85.3019
 L 0.324038,85.317 L 0.538309,85.3471 L 0.749957,85.3921 L 0.957952,85.4517 L 1.16128,85.5257 L 1.35895,85.6137
 L 1.55,85.7153 L 1.7335,85.83 L 1.90855,85.9572 L 2.0743,86.0963 L 2.22995,86.2466 L 2.37474,86.4074
 L 2.50795,86.5779 L 2.62895,86.7573 L 2.73714,86.9446 L 2.83199,87.1391 L 2.91305,87.3397 L 2.97991,87.5455
 L 3.03226,87.7555 L 3.06983,87.9686 L 3.09245,88.1838 L 3.1,88.4 L 3.09245,88.6162 L 3.06983,88.8314
 L 3.03226,89.0445 L 2.97991,89.2545 L 2.91305,89.4603 L 2.83199,89.6609 L 2.73714,89.8554 L 2.62895,90.0427
 L 2.50795,90.2221 L 2.37474,90.3926 L 2.22995,90.5534 L 2.0743,90.7037 L 1.90855,90.8428 L 1.7335,90.97
 L 1.55,91.0847 L 1.35895,91.1863 L 1.16128,91.2743 L 0.957952,91.3483 L 0.749957,91.4079 L 0.538309,91.4529
 L 0.324038,91.483 L 0.108188,91.4981 L -0.108188,91.4981 L -0.324038,91.483 L -0.538309,91.4529 L -0.749957,91.4079
 L -0.957952,91.3483 L -1.16128,91.2743 L -1.35895,91.1863 L -1.55,91.0847 L -1.7335,90.97 L -1.90855,90.8428
 L -2.0743,90.7037 L -2.22995,90.5534 L -2.37474,90.3926 L -2.50795,90.2221 L -2.62895,90.0427 L -2.73714,89.8554
 L -2.83199,89.6609 L -2.91305,89.4603 L -2.97991,89.2545 L -3.03226,89.0445 L -3.06983,88.8314 L -3.09245,88.6162
 z
M -2.5,65.9 L -2.49391,65.7256 L -2.47567,65.5521 L -2.44537,65.3802 L -2.40315,65.2109 L -2.34923,65.0449
 L -2.28386,64.8832 L -2.20737,64.7263 L -2.12012,64.5752 L -2.02254,64.4305 L -1.91511,64.293 L -1.79835,64.1634
 L -1.67283,64.0421 L -1.53915,63.93 L -1.39798,63.8274 L -1.25,63.7349 L -1.09593,63.653 L -0.936516,63.582
 L -0.772542,63.5224 L -0.604804,63.4743 L -0.43412,63.438 L -0.261321,63.4137 L -0.0872478,63.4015 L 0.0872478,63.4015
 L 0.261321,63.4137 L 0.43412,63.438 L 0.604804,63.4743 L 0.772542,63.5224 L 0.936516,63.582 L 1.09593,63.653
 L 1.25,63.7349 L 1.39798,63.8274 L 1.53915,63.93 L 1.67283,64.0421 L 1.79835,64.1634 L 1.91511,64.293
 L 2.02254,64.4305 L 2.12012,64.5752 L 2.20737,64.7263 L 2.28386,64.8832 L 2.34923,65.0449 L 2.40315,65.2109
 L 2.44537,65.3802 L 2.47567,65.5521 L 2.49391,65.7256 L 2.5,65.9 L 2.49391,66.0744 L 2.47567,66.2479
 L 2.44537,66.4198 L 2.40315,66.5891 L 2.34923,66.755 L 2.28386,66.9168 L 2.20737,67.0737 L 2.12012,67.2248
 L 2.02254,67.3695 L 1.91511,67.507 L 1.79835,67.6366 L 1.67283,67.7579 L 1.53915,67.87 L 1.39798,67.9726
 L 1.25,68.0651 L 1.09593,68.147 L 0.936516,68.218 L 0.772542,68.2776 L 0.604804,68.3257 L 0.43412,68.362
 L 0.261321,68.3863 L 0.0872478,68.3985 L -0.0872478,68.3985 L -0.261321,68.3863 L -0.43412,68.362 L -0.604804,68.3257
 L -0.772542,68.2776 L -0.936516,68.218 L -1.09593,68.147 L -1.25,68.0651 L -1.39798,67.9726 L -1.53915,67.87
 L -1.67283,67.7579 L -1.79835,67.6366 L -1.91511,67.507 L -2.02254,67.3695 L -2.12012,67.2248 L -2.20737,67.0737
 L -2.28386,66.9168 L -2.34923,66.755 L -2.40315,66.5891 L -2.44537,66.4198 L -2.47567,66.2479 L -2.49391,66.0744
 z
M 13.9,-0 L 13.91,-0.286001 L 13.9399,-0.570609 L 13.9896,-0.852437 L 14.0588,-1.13011 L 14.1473,-1.40228
 L 14.2545,-1.66762 L 14.3799,-1.92483 L 14.523,-2.17267 L 14.683,-2.40992 L 14.8592,-2.63543 L 15.0507,-2.8481
 L 15.2566,-3.04689 L 15.4758,-3.23084 L 15.7073,-3.39905 L 15.95,-3.5507 L 16.2027,-3.68505 L 16.4641,-3.80145
 L 16.733,-3.89933 L 17.0081,-3.97821 L 17.288,-4.03771 L 17.5714,-4.07754 L 17.8569,-4.0975 L 18.1431,-4.0975
 L 18.4286,-4.07754 L 18.712,-4.03771 L 18.9919,-3.97821 L 19.267,-3.89933 L 19.5359,-3.80145 L 19.7973,-3.68505
 L 20.05,-3.5507 L 20.2927,-3.39905 L 20.5242,-3.23084 L 20.7434,-3.04689 L 20.9493,-2.8481 L 21.1408,-2.63543
 L 21.317,-2.40992 L 21.477,-2.17267 L 21.6201,-1.92483 L 21.7455,-1.66762 L 21.8527,-1.40228 L 21.9412,-1.13011
 L 22.0104,-0.852437 L 22.0601,-0.570609 L 22.09,-0.286001 L 22.1,-0 L 22.09,0.286001 L 22.0601,0.570609
 L 22.0104,0.852437 L 21.9412,1.13011 L 21.8527,1.40228 L 21.7455,1.66762 L 21.6201,1.92483 L 21.477,2.17267
 L 21.317,2.40992 L 21.1408,2.63543 L 20.9493,2.8481 L 20.7434,3.04689 L 20.5242,3.23084 L 20.2927,3.39905
 L 20.05,3.5507 L 19.7973,3.68505 L 19.5359,3.80145 L 19.267,3.89933 L 18.9919,3.97821 L 18.712,4.03771
 L 18.4286,4.07754 L 18.1431,4.0975 L 17.8569,4.0975 L 17.5714,4.07754 L 17.288,4.03771 L 17.0081,3.97821
 L 16.733,3.89933 L 16.4641,3.80145 L 16.2027,3.68505 L 15.95,3.5507 L 15.7073,3.39905 L 15.4758,3.23084
 L 15.2566,3.04689 L 15.0507,2.8481 L 14.8592,2.63543 L 14.683,2.40992 L 14.523,2.17267 L 14.3799,1.92483
 L 14.2545,1.66762 L 14.1473,1.40228 L 14.0588,1.13011 L 13.9896,0.852437 L 13.9399,0.570609 L 13.91,0.286001
 z
M 27.2109,24.9 L 27.2184,24.6838 L 27.2411,24.4686 L 27.2786,24.2555 L 27.331,24.0455 L 27.3978,23.8397
 L 27.4789,23.6391 L 27.5738,23.4446 L 27.6819,23.2573 L 27.8029,23.0779 L 27.9362,22.9074 L 28.0809,22.7466
 L 28.2366,22.5963 L 28.4023,22.4572 L 28.5774,22.33 L 28.7609,22.2153 L 28.9519,22.1137 L 29.1496,22.0257
 L 29.3529,21.9517 L 29.5609,21.8921 L 29.7726,21.8471 L 29.9869,21.817 L 30.2027,21.8019 L 30.4191,21.8019
 L 30.6349,21.817 L 30.8492,21.8471 L 31.0608,21.8921 L 31.2688,21.9517 L 31.4722,22.0257 L 31.6698,22.1137
 L 31.8609,22.2153 L 32.0444,22.33 L 32.2194,22.4572 L 32.3852,22.5963 L 32.5408,22.7466 L 32.6856,22.9074
 L 32.8188,23.0779 L 32.9398,23.2573 L 33.048,23.4446 L 33.1429,23.6391 L 33.2239,23.8397 L 33.2908,24.0455
 L 33.3431,24.2555 L 33.3807,24.4686 L 33.4033,24.6838 L 33.4109,24.9 L 33.4033,25.1162 L 33.3807,25.3314
 L 33.3431,25.5445 L 33.2908,25.7545 L 33.2239,25.9603 L 33.1429,26.1609 L 33.048,26.3554 L 32.9398,26.5427
 L 32.8188,26.7221 L 32.6856,26.8926 L 32.5408,27.0534 L 32.3852,27.2037 L 32.2194,27.3428 L 32.0444,27.47
 L 31.8609,27.5847 L 31.6698,27.6863 L 31.4722,27.7743 L 31.2688,27.8483 L 31.0608,27.9079 L 30.8492,27.9529
 L 30.6349,27.983 L 30.4191,27.9981 L 30.2027,27.9981 L 29.9869,27.983 L 29.7726,27.9529 L 29.5609,27.9079
 L 29.3529,27.8483 L 29.1496,27.7743 L 28.9519,27.6863 L 28.7609,27.5847 L 28.5774,27.47 L 28.4023,27.3428
 L 28.2366,27.2037 L 28.0809,27.0534 L 27.9362,26.8926 L 27.8029,26.7221 L 27.6819,26.5427 L 27.5738,26.3554
 L 27.4789,26.1609 L 27.3978,25.9603 L 27.331,25.7545 L 27.2786,25.5445 L 27.2411,25.3314 L 27.2184,25.1162
 z
M 58.4,72 L 58.41,71.714 L 58.4399,71.4294 L 58.4896,71.1476 L 58.5588,70.8699 L 58.6473,70.5977
 L 58.7545,70.3324 L 58.8799,70.0752 L 59.023,69.8273 L 59.183,69.5901 L 59.3592,69.3646 L 59.5507,69.1519
 L 59.7566,68.9531 L 59.9758,68.7692 L 60.2073,68.6009 L 60.45,68.4493 L 60.7027,68.3149 L 60.9641,68.1985
 L 61.233,68.1007 L 61.5081,68.0218 L 61.788,67.9623 L 62.0714,67.9225 L 62.3569,67.9025 L 62.6431,67.9025
 L 62.9286,67.9225 L 63.212,67.9623 L 63.4919,68.0218 L 63.767,68.1007 L 64.0359,68.1985 L 64.2973,68.3149
 L 64.55,68.4493 L 64.7927,68.6009 L 65.0242,68.7692 L 65.2434,68.9531 L 65.4493,69.1519 L 65.6408,69.3646
 L 65.817,69.5901 L 65.977,69.8273 L 66.1201,70.0752 L 66.2455,70.3324 L 66.3527,70.5977 L 66.4412,70.8699
 L 66.5104,71.1476 L 66.5601,71.4294 L 66.59,71.714 L 66.6,72 L 66.59,72.286 L 66.5601,72.5706
 L 66.5104,72.8524 L 66.4412,73.1301 L 66.3527,73.4023 L 66.2455,73.6676 L 66.1201,73.9248 L 65.977,74.1727
 L 65.817,74.4099 L 65.6408,74.6354 L 65.4493,74.8481 L 65.2434,75.0469 L 65.0242,75.2308 L 64.7927,75.3991
 L 64.55,75.5507 L 64.2973,75.6851 L 64.0359,75.8015 L 63.767,75.8993 L 63.4919,75.9782 L 63.212,76.0377
 L 62.9286,76.0775 L 62.6431,76.0975 L 62.3569,76.0975 L 62.0714,76.0775 L 61.788,76.0377 L 61.5081,75.9782
 L 61.233,75.8993 L 60.9641,75.8015 L 60.7027,75.6851 L 60.45,75.5507 L 60.2073,75.3991 L 59.9758,75.2308
 L 59.7566,75.0469 L 59.5507,74.8481 L 59.3592,74.6354 L 59.183,74.4099 L 59.023,74.1727 L 58.8799,73.9248
 L 58.7545,73.6676 L 58.6473,73.4023 L 58.5588,73.1301 L 58.4896,72.8524 L 58.4399,72.5706 L 58.41,72.286
 z
" stroke="black" fill="lightgray" stroke-width="0.5"/></svg>
