<?xml version="1.0" standalone="no"?>
<!DOCTYPE svg PUBLIC "-//W3C//DTD SVG 1.1//EN" "http://www.w3.org/Graphics/SVG/1.1/DTD/svg11.dtd">
<svg width="60" height="38" viewBox="-30 -26 60 38" xmlns="http://www.w3.org/2000/svg" version="1.1">
<title>OpenSCAD Model</title>
<path d="
M -29.8,-0 L -29.7838,0.617564 L -29.7354,1.23344 L -29.6547,1.84593 L -29.5421,2.45336 L -29.3979,3.05406
 L -29.2225,3.6464 L -29.0162,4.22874 L -28.7798,4.79949 L -28.5139,5.35709 L -28.2191,5.9 L -27.8963,6.42674
 L -27.5464,6.93587 L -27.1703,7.42598 L -26.7691,7.89574 L -26.3439,8.34386 L -25.8957,8.76911 L -25.426,9.17032
 L -24.9359,9.5464 L -24.4267,9.89631 L -23.9,10.2191 L -23.3571,10.5139 L -22.7995,10.7798 L -22.2287,11.0162
 L -21.6464,11.2225 L -21.0541,11.3979 L -20.4534,11.5421 L -19.8459,11.6547 L -19.2334,11.7354 L -18.6176,11.7838
 L -18,11.8 L 18,11.8 L 18.6176,11.7838 L 19.2334,11.7354 L 19.8459,11.6547 L 20.4534,11.5421
 L 21.0541,11.3979 L 21.6464,11.2225 L 22.2287,11.0162 L 22.7995,10.7798 L 23.3571,10.5139 L 23.9,10.2191
 L 24.4267,9.89631 L 24.9359,9.5464 L 25.426,9.17032 L 25.8957,8.76911 L 26.3439,8.34386 L 26.7691,7.89574
 L 27.1703,7.42598 L 27.5464,6.93587 L 27.8963,6.42674 L 28.2191,5.9 L 28.5139,5.35709 L 28.7798,4.79949
 L 29.0162,4.22874 L 29.2225,3.6464 L 29.3979,3.05406 L 29.5421,2.45336 L 29.6547,1.84593 L 29.7354,1.23344
 L 29.7838,0.617564 L 29.8,-0 L 29.7838,-0.617564 L 29.7354,-1.23344 L 29.6547,-1.84593 L 29.5421,-2.45336
 L 29.3979,-3.05406 L 29.2225,-3.6464 L 29.0162,-4.22874 L 28.7798,-4.79949 L 28.5139,-5.35709 L 28.2191,-5.9
 L 27.8963,-6.42674 L 27.5464,-6.93587 L 27.1703,-7.42598 L 26.7691,-7.89574 L 26.3439,-8.34386 L 9.26274,-25.0627
 L 9.14122,-25.1781 L 9.01382,-25.2869 L 8.88091,-25.3889 L 8.74284,-25.4837 L 8.6,-25.5713 L 8.45277,-25.6512
 L 8.30156,-25.7233 L 8.14678,-25.7875 L 7.98885,-25.8434 L 7.82822,-25.891 L 7.66532,-25.9301 L 7.50059,-25.9606
 L 7.33449,-25.9825 L 7.16747,-25.9956 L 7,-26 L -7,-26 L -7.16747,-25.9956 L -7.33449,-25.9825
 L -7.50059,-25.9606 L -7.66532,-25.9301 L -7.82822,-25.891 L -7.98885,-25.8434 L -8.14678,-25.7875 L -8.30156,-25.7233
 L -8.45277,-25.6512 L -8.6,-25.5713 L -8.74284,-25.4837 L -8.88091,-25.3889 L -9.01382,-25.2869 L -9.14122,-25.1781
 L -9.26274,-25.0627 L -26.3439,-8.34386 L -26.7691,-7.89574 L -27.1703,-7.42598 L -27.5464,-6.93587 L -27.8963,-6.42674
 L -28.2191,-5.9 L -28.5139,-5.35709 L -28.7798,-4.79949 L -29.0162,-4.22874 L -29.2225,-3.6464 L -29.3979,-3.05406
 L -29.5421,-2.45336 L -29.6547,-1.84593 L -29.7354,-1.23344 L -29.7838,-0.617564 z
M -22.1,-0 L -22.0944,-0.214577 L -22.0775,-0.428566 L -22.0495,-0.641381 L -22.0104,-0.852437 L -21.9603,-1.06116
 L -21.8993,-1.26697 L -21.8277,-1.46931 L -21.7455,-1.66762 L -21.6531,-1.86136 L -21.5507,-2.05 L -21.4385,-2.23302
 L -21.317,-2.40992 L -21.1863,-2.58021 L -21.0469,-2.74343 L -20.8991,-2.89914 L -20.7434,-3.04689 L -20.5802,-3.1863
 L -20.4099,-3.31697 L -20.233,-3.43855 L -20.05,-3.5507 L -19.8614,-3.65313 L -19.6676,-3.74554 L -19.4693,-3.82768
 L -19.267,-3.89933 L -19.0612,-3.9603 L -18.8524,-4.0104 L -18.6414,-4.04952 L -18.4286,-4.07754 L -18.2146,-4.09438
 L -18,-4.1 L -17.7854,-4.09438 L -17.5714,-4.07754 L -17.3586,-4.04952 L -17.1476,-4.0104 L -16.9388,-3.9603
 L -16.733,-3.89933 L -16.5307,-3.82768 L -16.3324,-3.74554 L -16.1386,-3.65313 L -15.95,-3.5507 L -15.767,-3.43855
 L -15.5901,-3.31697 L -15.4198,-3.1863 L -15.2566,-3.04689 L -15.1009,-2.89914 L -14.9531,-2.74343 L -14.8137,-2.58021
 L -14.683,-2.40992 L -14.5615,-2.23302 L -14.4493,-2.05 L -14.3469,-1.86136 L -14.2545,-1.66762 L -14.1723,-1.46931
 L -14.1007,-1.26697 L -14.0397,-1.06116 L -13.9896,-0.852437 L -13.9505,-0.641381 L -13.9225,-0.428566 L -13.9056,-0.214577
 L -13.9,-0 L -13.9056,0.214577 L -13.9225,0.428566 L -13.9505,0.641381 L -13.9896,0.852437 L -14.0397,1.06116
 L -14.1007,1.26697 L -14.1723,1.46931 L -14.2545,1.66762 L -14.3469,1.86136 L -14.4493,2.05 L -14.5615,2.23302
 L -14.683,2.40992 L -14.8137,2.58021 L -14.9531,2.74343 L -15.1009,2.89914 L -15.2566,3.04689 L -15.4198,3.1863
 L -15.5901,3.31697 L -15.767,3.43855 L -15.95,3.5507 L -16.1386,3.65313 L -16.3324,3.74554 L -16.5307,3.82768
 L -16.733,3.89933 L -16.9388,3.9603 L -17.1476,4.0104 L -17.3586,4.04952 L -17.5714,4.07754 L -17.7854,4.09438
 L -18,4.1 L -18.2146,4.09438 L -18.4286,4.07754 L -18.6414,4.04952 L -18.8524,4.0104 L -19.0612,3.9603
 L -19.267,3.89933 L -19.4693,3.82768 L -19.6676,3.74554 L -19.8614,3.65313 L -20.05,3.5507 L -20.233,3.43855
 L -20.4099,3.31697 L -20.5802,3.1863 L -20.7434,3.04689 L -20.8991,2.89914 L -21.0469,2.74343 L -21.1863,2.58021
 L -21.317,2.40992 L -21.4385,2.23302 L -21.5507,2.05 L -21.6531,1.86136 L -21.7455,1.66762 L -21.8277,1.46931
 L -21.8993,1.26697 L -21.9603,1.06116 L -22.0104,0.852437 L -22.0495,0.641381 L -22.0775,0.428566 L -22.0944,0.214577
 z
M -6.2,-3.6 L -6.1915,-3.92448 L -6.16604,-4.24808 L -6.12367,-4.56989 L -6.06452,-4.88905 L -5.98874,-5.20468
 L -5.89655,-5.5159 L -5.7882,-5.82188 L -5.66398,-6.12177 L -5.52424,-6.41474 L -5.36936,-6.7 L -5.19976,-6.97676
 L -5.0159,-7.24427 L -4.8183,-7.50179 L -4.6075,-7.74861 L -4.38406,-7.98406 L -4.14861,-8.2075 L -3.90179,-8.4183
 L -3.64427,-8.6159 L -3.37676,-8.79976 L -3.1,-8.96936 L -2.81474,-9.12424 L -2.52177,-9.26398 L -2.22188,-9.3882
 L -1.9159,-9.49655 L -1.60468,-9.58874 L -1.28905,-9.66452 L -0.969893,-9.72367 L -0.769877,-9.75 L -3.5,-9.75
 L -3.5,-20.25 L 3.5,-20.25 L 3.5,-9.75 L 0.769877,-9.75 L 0.969893,-9.72367 L 1.28905,-9.66452
 L 1.60468,-9.58874 L 1.9159,-9.49655 L 2.22188,-9.3882 L 2.52177,-9.26398 L 2.81474,-9.12424 L 3.1,-8.96936
 L 3.37676,-8.79976 L 3.64427,-8.6159 L 3.90179,-8.4183 L 4.14861,-8.2075 L 4.38406,-7.98406 L 4.6075,-7.74861
 L 4.8183,-7.50179 L 5.0159,-7.24427 L 5.19976,-6.97676 L 5.36936,-6.7 L 5.52424,-6.41474 L 5.66398,-6.12177
 L 5.7882,-5.82188 L 5.89655,-5.5159 L 5.98874,-5.20468 L 6.06452,-4.88905 L 6.12367,-4.56989 L 6.16604,-4.24808
 L 6.1915,-3.92448 L 6.2,-3.6 L 6.1915,-3.27552 L 6.16604,-2.95192 L 6.12367,-2.63011 L 6.06452,-2.31095
 L 5.98874,-1.99532 L 5.89655,-1.6841 L 5.7882,-1.37812 L 5.66398,-1.07823 L 5.52424,-0.78526 L 5.36936,-0.500001
 L 5.19976,-0.223239 L 5.0159,0.044268 L 4.8183,0.301786 L 4.6075,0.548609 L 4.38406,0.784062 L 4.14861,1.0075
 L 3.90179,1.2183 L 3.64427,1.4159 L 3.37676,1.59976 L 3.1,1.76936 L 2.81474,1.92424 L 2.52177,2.06398
 L 2.22188,2.1882 L 1.9159,2.29655 L 1.60468,2.38874 L 1.28905,2.46452 L 0.969893,2.52367 L 0.648076,2.56604
 L 0.324483,2.5915 L 0,2.6 L -0.324483,2.5915 L -0.648076,2.56604 L -0.969893,2.52367 L -1.28905,2.46452
 L -1.60468,2.38874 L -1.9159,2.29655 L -2.22188,2.1882 L -2.52177,2.06398 L -2.81474,1.92424 L -3.1,1.76936
 L -3.37676,1.59976 L -3.64427,1.4159 L -3.90179,1.2183 L -4.14861,1.0075 L -4.38406,0.784062 L -4.6075,0.548609
 L -4.8183,0.301786 L -5.0159,0.044268 L -5.19976,-0.223239 L -5.36936,-0.500001 L -5.52424,-0.78526 L -5.66398,-1.07823
 L -5.7882,-1.37812 L -5.89655,-1.6841 L -5.98874,-1.99532 L -6.06452,-2.31095 L -6.12367,-2.63011 L -6.16604,-2.95192
 L -6.1915,-3.27552 z
M 13.9,-0 L 13.9056,-0.214577 L 13.9225,-0.428566 L 13.9505,-0.641381 L 13.9896,-0.852437 L 14.0397,-1.06116
 L 14.1007,-1.26697 L 14.1723,-1.46931 L 14.2545,-1.66762 L 14.3469,-1.86136 L 14.4493,-2.05 L 14.5615,-2.23302
 L 14.683,-2.40992 L 14.8137,-2.58021 L 14.9531,-2.74343 L 15.1009,-2.89914 L 15.2566,-3.04689 L 15.4198,-3.1863
 L 15.5901,-3.31697 L 15.767,-3.43855 L 15.95,-3.5507 L 16.1386,-3.65313 L 16.3324,-3.74554 L 16.5307,-3.82768
 L 16.733,-3.89933 L 16.9388,-3.9603 L 17.1476,-4.0104 L 17.3586,-4.04952 L 17.5714,-4.07754 L 17.7854,-4.09438
 L 18,-4.1 L 18.2146,-4.09438 L 18.4286,-4.07754 L 18.6414,-4.04952 L 18.8524,-4.0104 L 19.0612,-3.9603
 L 19.267,-3.89933 L 19.4693,-3.82768 L 19.6676,-3.74554 L 19.8614,-3.65313 L 20.05,-3.5507 L 20.233,-3.43855
 L 20.4099,-3.31697 L 20.5802,-3.1863 L 20.7434,-3.04689 L 20.8991,-2.89914 L 21.0469,-2.74343 L 21.1863,-2.58021
 L 21.317,-2.40992 L 21.4385,-2.23302 L 21.5507,-2.05 L 21.6531,-1.86136 L 21.7455,-1.66762 L 21.8277,-1.46931
 L 21.8993,-1.26697 L 21.9603,-1.06116 L 22.0104,-0.852437 L 22.0495,-0.641381 L 22.0775,-0.428566 L 22.0944,-0.214577
 L 22.1,-0 L 22.0944,0.214577 L 22.0775,0.428566 L 22.0495,0.641381 L 22.0104,0.852437 L 21.9603,1.06116
 L 21.8993,1.26697 L 21.8277,1.46931 L 21.7455,1.66762 L 21.6531,1.86136 L 21.5507,2.05 L 21.4385,2.23302
 L 21.317,2.40992 L 21.1863,2.58021 L 21.0469,2.74343 L 20.8991,2.89914 L 20.7434,3.04689 L 20.5802,3.1863
 L 20.4099,3.31697 L 20.233,3.43855 L 20.05,3.5507 L 19.8614,3.65313 L 19.6676,3.74554 L 19.4693,3.82768
 L 19.267,3.89933 L 19.0612,3.9603 L 18.8524,4.0104 L 18.6414,4.04952 L 18.4286,4.07754 L 18.2146,4.09438
 L 18,4.1 L 17.7854,4.09438 L 17.5714,4.07754 L 17.3586,4.04952 L 17.1476,4.0104 L 16.9388,3.9603
 L 16.733,3.89933 L 16.5307,3.82768 L 16.3324,3.74554 L 16.1386,3.65313 L 15.95,3.5507 L 15.767,3.43855
 L 15.5901,3.31697 L 15.4198,3.1863 L 15.2566,3.04689 L 15.1009,2.89914 L 14.9531,2.74343 L 14.8137,2.58021
 L 14.683,2.40992 L 14.5615,2.23302 L 14.4493,2.05 L 14.3469,1.86136 L 14.2545,1.66762 L 14.1723,1.46931
 L 14.1007,1.26697 L 14.0397,1.06116 L 13.9896,0.852437 L 13.9505,0.641381 L 13.9225,0.428566 L 13.9056,0.214577
 z
" stroke="black" fill="lightgray" stroke-width="0.5"/></svg>
