<?xml version="1.0" standalone="no"?>
<!DOCTYPE svg PUBLIC "-//W3C//DTD SVG 1.1//EN" "http://www.w3.org/Graphics/SVG/1.1/DTD/svg11.dtd">
<svg width="18" height="16" viewBox="-9 -8 18 16" xmlns="http://www.w3.org/2000/svg" version="1.1">
<title>OpenSCAD Model</title>
<path d="
M -8.38,7.16875 L -7.83338,7.16875 L -7.61136,6.94673 L -6.68606,6.19743 L -5.6875,5.54896 L -4.62663,5.00842
 L -3.51507,4.58173 L -2.365,4.27357 L -1.18901,4.08731 L 0,4.025 L 1.18901,4.08731 L 2.365,4.27357
 L 3.51507,4.58173 L 4.62663,5.00842 L 5.6875,5.54896 L 6.68606,6.19743 L 7.61136,6.94673 L 7.83338,7.16875
 L 8.38,7.16875 L 8.38,-7.16875 L 7.83338,-7.16875 L 7.61136,-6.94673 L 6.68606,-6.19743 L 5.6875,-5.54896
 L 4.62663,-5.00842 L 3.51507,-4.58173 L 2.365,-4.27357 L 1.18901,-4.08731 L 0.451346,-4.04865 L 0.847239,-3.98595
 L 1.25924,-3.87556 L 1.65745,-3.7227 L 2.0375,-3.52905 L 2.39522,-3.29674 L 2.72671,-3.02831 L 3.02831,-2.72671
 L 3.29674,-2.39522 L 3.52905,-2.0375 L 3.7227,-1.65745 L 3.87556,-1.25924 L 3.975,-0.888113 L 3.975,0.888113
 L 3.87556,1.25924 L 3.7227,1.65745 L 3.52905,2.0375 L 3.29674,2.39522 L 3.02831,2.72671 L 2.72671,3.02831
 L 2.39522,3.29674 L 2.37096,3.3125 L -2.37096,3.3125 L -2.39522,3.29674 L -2.72671,3.02831 L -3.02831,2.72671
 L -3.29674,2.39522 L -3.52905,2.0375 L -3.7227,1.65745 L -3.87556,1.25924 L -3.975,0.888113 L -3.975,-0.888113
 L -3.87556,-1.25924 L -3.7227,-1.65745 L -3.52905,-2.0375 L -3.29674,-2.39522 L -3.02831,-2.72671 L -2.72671,-3.02831
 L -2.39522,-3.29674 L -2.0375,-3.52905 L -1.65745,-3.7227 L -1.25924,-3.87556 L -0.847239,-3.98595 L -0.451346,-4.04865
 L -1.18901,-4.08731 L -2.365,-4.27357 L -3.51507,-4.58173 L -4.62663,-5.00842 L -5.6875,-5.54896 L -6.68606,-6.19743
 L -7.61136,-6.94673 L -7.83338,-7.16875 L -8.38,-7.16875 z
" stroke="black" fill="lightgray" stroke-width="0.5"/></svg>
