  0
SECTION
  2
BLOCKS
  0
ENDSEC
  0
SECTION
  2
ENTITIES
  0
LINE
  8
0
 10
-43.7288
 20
-21.625
 11
-43.7148
 21
-22.0257
  0
LINE
  8
0
 10
-43.7148
 20
-22.0257
 11
-43.713
 21
-22.0769
  0
LINE
  8
0
 10
-43.713
 20
-22.0769
 11
-43.6711
 21
-22.4757
  0
LINE
  8
0
 10
-43.6711
 20
-22.4757
 11
-43.6658
 21
-22.5267
  0
LINE
  8
0
 10
-43.6658
 20
-22.5267
 11
-43.5961
 21
-22.9215
  0
LINE
  8
0
 10
-43.5961
 20
-22.9215
 11
-43.5872
 21
-22.972
  0
LINE
  8
0
 10
-43.5872
 20
-22.972
 11
-43.4902
 21
-23.3611
  0
LINE
  8
0
 10
-43.4902
 20
-23.3611
 11
-43.4778
 21
-23.4108
  0
LINE
  8
0
 10
-43.4778
 20
-23.4108
 11
-43.462
 21
-23.4596
  0
LINE
  8
0
 10
-43.462
 20
-23.4596
 11
-43.3381
 21
-23.8409
  0
LINE
  8
0
 10
-43.3381
 20
-23.8409
 11
-43.3189
 21
-23.8884
  0
LINE
  8
0
 10
-43.3189
 20
-23.8884
 11
-43.1687
 21
-24.2602
  0
LINE
  8
0
 10
-43.1687
 20
-24.2602
 11
-43.1462
 21
-24.3062
  0
LINE
  8
0
 10
-43.1462
 20
-24.3062
 11
-42.9705
 21
-24.6666
  0
LINE
  8
0
 10
-42.9705
 20
-24.6666
 11
-42.9448
 21
-24.711
  0
LINE
  8
0
 10
-42.9448
 20
-24.711
 11
-42.7443
 21
-25.0582
  0
LINE
  8
0
 10
-42.7443
 20
-25.0582
 11
-42.5201
 21
-25.3907
  0
LINE
  8
0
 10
-42.5201
 20
-25.3907
 11
-42.4915
 21
-25.4332
  0
LINE
  8
0
 10
-42.4915
 20
-25.4332
 11
-42.4599
 21
-25.4735
  0
LINE
  8
0
 10
-42.4599
 20
-25.4735
 11
-42.2131
 21
-25.7895
  0
LINE
  8
0
 10
-42.2131
 20
-25.7895
 11
-41.9448
 21
-26.0875
  0
LINE
  8
0
 10
-41.9448
 20
-26.0875
 11
-41.9105
 21
-26.1256
  0
LINE
  8
0
 10
-41.9105
 20
-26.1256
 11
-41.8736
 21
-26.1612
  0
LINE
  8
0
 10
-41.8736
 20
-26.1612
 11
-41.5852
 21
-26.4397
  0
LINE
  8
0
 10
-41.5852
 20
-26.4397
 11
-41.5459
 21
-26.4726
  0
LINE
  8
0
 10
-41.5459
 20
-26.4726
 11
-41.2388
 21
-26.7304
  0
LINE
  8
0
 10
-41.2388
 20
-26.7304
 11
-40.9144
 21
-26.9661
  0
LINE
  8
0
 10
-40.9144
 20
-26.9661
 11
-40.8729
 21
-26.9962
  0
LINE
  8
0
 10
-40.8729
 20
-26.9962
 11
-40.8294
 21
-27.0233
  0
LINE
  8
0
 10
-40.8294
 20
-27.0233
 11
-40.4894
 21
-27.2358
  0
LINE
  8
0
 10
-40.4894
 20
-27.2358
 11
-40.1354
 21
-27.4241
  0
LINE
  8
0
 10
-40.1354
 20
-27.4241
 11
-40.0901
 21
-27.4481
  0
LINE
  8
0
 10
-40.0901
 20
-27.4481
 11
-40.0433
 21
-27.469
  0
LINE
  8
0
 10
-40.0433
 20
-27.469
 11
-39.677
 21
-27.6321
  0
LINE
  8
0
 10
-39.677
 20
-27.6321
 11
-39.6288
 21
-27.6496
  0
LINE
  8
0
 10
-39.6288
 20
-27.6496
 11
-39.2521
 21
-27.7867
  0
LINE
  8
0
 10
-39.2521
 20
-27.7867
 11
-38.8666
 21
-27.8972
  0
LINE
  8
0
 10
-38.8666
 20
-27.8972
 11
-38.8174
 21
-27.9114
  0
LINE
  8
0
 10
-38.8174
 20
-27.9114
 11
-38.7672
 21
-27.922
  0
LINE
  8
0
 10
-38.7672
 20
-27.922
 11
-38.375
 21
-28.0054
  0
LINE
  8
0
 10
-38.375
 20
-28.0054
 11
-38.3243
 21
-28.0125
  0
LINE
  8
0
 10
-38.3243
 20
-28.0125
 11
-37.9272
 21
-28.0683
  0
LINE
  8
0
 10
-37.9272
 20
-28.0683
 11
-37.5272
 21
-28.0963
  0
LINE
  8
0
 10
-37.5272
 20
-28.0963
 11
-37.4761
 21
-28.0999
  0
LINE
  8
0
 10
-37.4761
 20
-28.0999
 11
37.4761
 21
-28.0999
  0
LINE
  8
0
 10
37.4761
 20
-28.0999
 11
37.5272
 21
-28.0963
  0
LINE
  8
0
 10
37.5272
 20
-28.0963
 11
37.9272
 21
-28.0683
  0
LINE
  8
0
 10
37.9272
 20
-28.0683
 11
38.3243
 21
-28.0125
  0
LINE
  8
0
 10
38.3243
 20
-28.0125
 11
38.375
 21
-28.0054
  0
LINE
  8
0
 10
38.375
 20
-28.0054
 11
38.7672
 21
-27.922
  0
LINE
  8
0
 10
38.7672
 20
-27.922
 11
38.8174
 21
-27.9114
  0
LINE
  8
0
 10
38.8174
 20
-27.9114
 11
38.8666
 21
-27.8972
  0
LINE
  8
0
 10
38.8666
 20
-27.8972
 11
39.2521
 21
-27.7867
  0
LINE
  8
0
 10
39.2521
 20
-27.7867
 11
39.6288
 21
-27.6496
  0
LINE
  8
0
 10
39.6288
 20
-27.6496
 11
39.677
 21
-27.6321
  0
LINE
  8
0
 10
39.677
 20
-27.6321
 11
40.0433
 21
-27.469
  0
LINE
  8
0
 10
40.0433
 20
-27.469
 11
40.0901
 21
-27.4481
  0
LINE
  8
0
 10
40.0901
 20
-27.4481
 11
40.1354
 21
-27.4241
  0
LINE
  8
0
 10
40.1354
 20
-27.4241
 11
40.4894
 21
-27.2358
  0
LINE
  8
0
 10
40.4894
 20
-27.2358
 11
40.8294
 21
-27.0233
  0
LINE
  8
0
 10
40.8294
 20
-27.0233
 11
40.8729
 21
-26.9962
  0
LINE
  8
0
 10
40.8729
 20
-26.9962
 11
40.9144
 21
-26.9661
  0
LINE
  8
0
 10
40.9144
 20
-26.9661
 11
41.2388
 21
-26.7304
  0
LINE
  8
0
 10
41.2388
 20
-26.7304
 11
41.5459
 21
-26.4726
  0
LINE
  8
0
 10
41.5459
 20
-26.4726
 11
41.5852
 21
-26.4397
  0
LINE
  8
0
 10
41.5852
 20
-26.4397
 11
41.8736
 21
-26.1612
  0
LINE
  8
0
 10
41.8736
 20
-26.1612
 11
41.9105
 21
-26.1256
  0
LINE
  8
0
 10
41.9105
 20
-26.1256
 11
41.9448
 21
-26.0875
  0
LINE
  8
0
 10
41.9448
 20
-26.0875
 11
42.2131
 21
-25.7895
  0
LINE
  8
0
 10
42.2131
 20
-25.7895
 11
42.4599
 21
-25.4735
  0
LINE
  8
0
 10
42.4599
 20
-25.4735
 11
42.4915
 21
-25.4332
  0
LINE
  8
0
 10
42.4915
 20
-25.4332
 11
42.5201
 21
-25.3907
  0
LINE
  8
0
 10
42.5201
 20
-25.3907
 11
42.7443
 21
-25.0582
  0
LINE
  8
0
 10
42.7443
 20
-25.0582
 11
42.9448
 21
-24.711
  0
LINE
  8
0
 10
42.9448
 20
-24.711
 11
42.9705
 21
-24.6666
  0
LINE
  8
0
 10
42.9705
 20
-24.6666
 11
43.1462
 21
-24.3062
  0
LINE
  8
0
 10
43.1462
 20
-24.3062
 11
43.1687
 21
-24.2602
  0
LINE
  8
0
 10
43.1687
 20
-24.2602
 11
43.3189
 21
-23.8884
  0
LINE
  8
0
 10
43.3189
 20
-23.8884
 11
43.3381
 21
-23.8409
  0
LINE
  8
0
 10
43.3381
 20
-23.8409
 11
43.462
 21
-23.4596
  0
LINE
  8
0
 10
43.462
 20
-23.4596
 11
43.4778
 21
-23.4108
  0
LINE
  8
0
 10
43.4778
 20
-23.4108
 11
43.4902
 21
-23.3611
  0
LINE
  8
0
 10
43.4902
 20
-23.3611
 11
43.5872
 21
-22.972
  0
LINE
  8
0
 10
43.5872
 20
-22.972
 11
43.5961
 21
-22.9215
  0
LINE
  8
0
 10
43.5961
 20
-22.9215
 11
43.6658
 21
-22.5267
  0
LINE
  8
0
 10
43.6658
 20
-22.5267
 11
43.6711
 21
-22.4757
  0
LINE
  8
0
 10
43.6711
 20
-22.4757
 11
43.713
 21
-22.0769
  0
LINE
  8
0
 10
43.713
 20
-22.0769
 11
43.7148
 21
-22.0257
  0
LINE
  8
0
 10
43.7148
 20
-22.0257
 11
43.7288
 21
-21.625
  0
LINE
  8
0
 10
43.7288
 20
-21.625
 11
43.7288
 21
21.625
  0
LINE
  8
0
 10
43.7288
 20
21.625
 11
43.7148
 21
22.0257
  0
LINE
  8
0
 10
43.7148
 20
22.0257
 11
43.713
 21
22.0769
  0
LINE
  8
0
 10
43.713
 20
22.0769
 11
43.6711
 21
22.4757
  0
LINE
  8
0
 10
43.6711
 20
22.4757
 11
43.6658
 21
22.5267
  0
LINE
  8
0
 10
43.6658
 20
22.5267
 11
43.5961
 21
22.9215
  0
LINE
  8
0
 10
43.5961
 20
22.9215
 11
43.5872
 21
22.972
  0
LINE
  8
0
 10
43.5872
 20
22.972
 11
43.4902
 21
23.3611
  0
LINE
  8
0
 10
43.4902
 20
23.3611
 11
43.4778
 21
23.4108
  0
LINE
  8
0
 10
43.4778
 20
23.4108
 11
43.462
 21
23.4596
  0
LINE
  8
0
 10
43.462
 20
23.4596
 11
43.3381
 21
23.8409
  0
LINE
  8
0
 10
43.3381
 20
23.8409
 11
43.3189
 21
23.8884
  0
LINE
  8
0
 10
43.3189
 20
23.8884
 11
43.1687
 21
24.2602
  0
LINE
  8
0
 10
43.1687
 20
24.2602
 11
43.1462
 21
24.3062
  0
LINE
  8
0
 10
43.1462
 20
24.3062
 11
42.9705
 21
24.6666
  0
LINE
  8
0
 10
42.9705
 20
24.6666
 11
42.9448
 21
24.711
  0
LINE
  8
0
 10
42.9448
 20
24.711
 11
42.7443
 21
25.0582
  0
LINE
  8
0
 10
42.7443
 20
25.0582
 11
42.5201
 21
25.3907
  0
LINE
  8
0
 10
42.5201
 20
25.3907
 11
42.4915
 21
25.4332
  0
LINE
  8
0
 10
42.4915
 20
25.4332
 11
42.4599
 21
25.4735
  0
LINE
  8
0
 10
42.4599
 20
25.4735
 11
42.2131
 21
25.7895
  0
LINE
  8
0
 10
42.2131
 20
25.7895
 11
41.9448
 21
26.0875
  0
LINE
  8
0
 10
41.9448
 20
26.0875
 11
41.9105
 21
26.1256
  0
LINE
  8
0
 10
41.9105
 20
26.1256
 11
41.8736
 21
26.1612
  0
LINE
  8
0
 10
41.8736
 20
26.1612
 11
41.5852
 21
26.4397
  0
LINE
  8
0
 10
41.5852
 20
26.4397
 11
41.5459
 21
26.4726
  0
LINE
  8
0
 10
41.5459
 20
26.4726
 11
41.2388
 21
26.7304
  0
LINE
  8
0
 10
41.2388
 20
26.7304
 11
40.9144
 21
26.9661
  0
LINE
  8
0
 10
40.9144
 20
26.9661
 11
40.8729
 21
26.9962
  0
LINE
  8
0
 10
40.8729
 20
26.9962
 11
40.8294
 21
27.0233
  0
LINE
  8
0
 10
40.8294
 20
27.0233
 11
40.4894
 21
27.2358
  0
LINE
  8
0
 10
40.4894
 20
27.2358
 11
40.1354
 21
27.4241
  0
LINE
  8
0
 10
40.1354
 20
27.4241
 11
40.0901
 21
27.4481
  0
LINE
  8
0
 10
40.0901
 20
27.4481
 11
40.0433
 21
27.469
  0
LINE
  8
0
 10
40.0433
 20
27.469
 11
39.677
 21
27.6321
  0
LINE
  8
0
 10
39.677
 20
27.6321
 11
39.6288
 21
27.6496
  0
LINE
  8
0
 10
39.6288
 20
27.6496
 11
39.2521
 21
27.7867
  0
LINE
  8
0
 10
39.2521
 20
27.7867
 11
38.8666
 21
27.8972
  0
LINE
  8
0
 10
38.8666
 20
27.8972
 11
38.8174
 21
27.9114
  0
LINE
  8
0
 10
38.8174
 20
27.9114
 11
38.7672
 21
27.922
  0
LINE
  8
0
 10
38.7672
 20
27.922
 11
38.375
 21
28.0054
  0
LINE
  8
0
 10
38.375
 20
28.0054
 11
38.3243
 21
28.0125
  0
LINE
  8
0
 10
38.3243
 20
28.0125
 11
37.9272
 21
28.0683
  0
LINE
  8
0
 10
37.9272
 20
28.0683
 11
37.5272
 21
28.0963
  0
LINE
  8
0
 10
37.5272
 20
28.0963
 11
37.4761
 21
28.0999
  0
LINE
  8
0
 10
37.4761
 20
28.0999
 11
-37.4761
 21
28.0999
  0
LINE
  8
0
 10
-37.4761
 20
28.0999
 11
-37.5272
 21
28.0963
  0
LINE
  8
0
 10
-37.5272
 20
28.0963
 11
-37.9272
 21
28.0683
  0
LINE
  8
0
 10
-37.9272
 20
28.0683
 11
-38.3243
 21
28.0125
  0
LINE
  8
0
 10
-38.3243
 20
28.0125
 11
-38.375
 21
28.0054
  0
LINE
  8
0
 10
-38.375
 20
28.0054
 11
-38.7672
 21
27.922
  0
LINE
  8
0
 10
-38.7672
 20
27.922
 11
-38.8174
 21
27.9114
  0
LINE
  8
0
 10
-38.8174
 20
27.9114
 11
-38.8666
 21
27.8972
  0
LINE
  8
0
 10
-38.8666
 20
27.8972
 11
-39.2521
 21
27.7867
  0
LINE
  8
0
 10
-39.2521
 20
27.7867
 11
-39.6288
 21
27.6496
  0
LINE
  8
0
 10
-39.6288
 20
27.6496
 11
-39.677
 21
27.6321
  0
LINE
  8
0
 10
-39.677
 20
27.6321
 11
-40.0433
 21
27.469
  0
LINE
  8
0
 10
-40.0433
 20
27.469
 11
-40.0901
 21
27.4481
  0
LINE
  8
0
 10
-40.0901
 20
27.4481
 11
-40.1354
 21
27.4241
  0
LINE
  8
0
 10
-40.1354
 20
27.4241
 11
-40.4894
 21
27.2358
  0
LINE
  8
0
 10
-40.4894
 20
27.2358
 11
-40.8294
 21
27.0233
  0
LINE
  8
0
 10
-40.8294
 20
27.0233
 11
-40.8729
 21
26.9962
  0
LINE
  8
0
 10
-40.8729
 20
26.9962
 11
-40.9144
 21
26.9661
  0
LINE
  8
0
 10
-40.9144
 20
26.9661
 11
-41.2388
 21
26.7304
  0
LINE
  8
0
 10
-41.2388
 20
26.7304
 11
-41.5459
 21
26.4726
  0
LINE
  8
0
 10
-41.5459
 20
26.4726
 11
-41.5852
 21
26.4397
  0
LINE
  8
0
 10
-41.5852
 20
26.4397
 11
-41.8736
 21
26.1612
  0
LINE
  8
0
 10
-41.8736
 20
26.1612
 11
-41.9105
 21
26.1256
  0
LINE
  8
0
 10
-41.9105
 20
26.1256
 11
-41.9448
 21
26.0875
  0
LINE
  8
0
 10
-41.9448
 20
26.0875
 11
-42.2131
 21
25.7895
  0
LINE
  8
0
 10
-42.2131
 20
25.7895
 11
-42.4599
 21
25.4735
  0
LINE
  8
0
 10
-42.4599
 20
25.4735
 11
-42.4915
 21
25.4332
  0
LINE
  8
0
 10
-42.4915
 20
25.4332
 11
-42.5201
 21
25.3907
  0
LINE
  8
0
 10
-42.5201
 20
25.3907
 11
-42.7443
 21
25.0582
  0
LINE
  8
0
 10
-42.7443
 20
25.0582
 11
-42.9448
 21
24.711
  0
LINE
  8
0
 10
-42.9448
 20
24.711
 11
-42.9705
 21
24.6666
  0
LINE
  8
0
 10
-42.9705
 20
24.6666
 11
-43.1462
 21
24.3062
  0
LINE
  8
0
 10
-43.1462
 20
24.3062
 11
-43.1687
 21
24.2602
  0
LINE
  8
0
 10
-43.1687
 20
24.2602
 11
-43.3189
 21
23.8884
  0
LINE
  8
0
 10
-43.3189
 20
23.8884
 11
-43.3381
 21
23.8409
  0
LINE
  8
0
 10
-43.3381
 20
23.8409
 11
-43.462
 21
23.4596
  0
LINE
  8
0
 10
-43.462
 20
23.4596
 11
-43.4778
 21
23.4108
  0
LINE
  8
0
 10
-43.4778
 20
23.4108
 11
-43.4902
 21
23.3611
  0
LINE
  8
0
 10
-43.4902
 20
23.3611
 11
-43.5872
 21
22.972
  0
LINE
  8
0
 10
-43.5872
 20
22.972
 11
-43.5961
 21
22.9215
  0
LINE
  8
0
 10
-43.5961
 20
22.9215
 11
-43.6658
 21
22.5267
  0
LINE
  8
0
 10
-43.6658
 20
22.5267
 11
-43.6711
 21
22.4757
  0
LINE
  8
0
 10
-43.6711
 20
22.4757
 11
-43.713
 21
22.0769
  0
LINE
  8
0
 10
-43.713
 20
22.0769
 11
-43.7148
 21
22.0257
  0
LINE
  8
0
 10
-43.7148
 20
22.0257
 11
-43.7288
 21
21.625
  0
LINE
  8
0
 10
-43.7288
 20
21.625
 11
-43.7288
 21
-21.625
  0
LINE
  8
0
 10
-4.5
 20
-4.60429
 11
-4.5
 21
4.60429
  0
LINE
  8
0
 10
-4.5
 20
4.60429
 11
4.5
 21
4.60429
  0
LINE
  8
0
 10
4.5
 20
4.60429
 11
4.5
 21
-4.60429
  0
LINE
  8
0
 10
4.5
 20
-4.60429
 11
-4.5
 21
-4.60429
  0
ENDSEC
  0
SECTION
  2
OBJECTS
  0
DICTIONARY
  0
ENDSEC
  0
EOF
