  0
SECTION
  2
BLOCKS
  0
ENDSEC
  0
SECTION
  2
ENTITIES
  0
LINE
  8
0
 10
-68.2
 20
-82.5
 11
-65.22
 21
-82.5
  0
LINE
  8
0
 10
-65.22
 20
-82.5
 11
-65.22
 21
-97
  0
LINE
  8
0
 10
-65.22
 20
-97
 11
-65.2196
 21
-97.0042
  0
LINE
  8
0
 10
-65.2196
 20
-97.0042
 11
-65.2183
 21
-97.0081
  0
LINE
  8
0
 10
-65.2183
 20
-97.0081
 11
-65.2162
 21
-97.0118
  0
LINE
  8
0
 10
-65.2162
 20
-97.0118
 11
-65.2134
 21
-97.0149
  0
LINE
  8
0
 10
-65.2134
 20
-97.0149
 11
-65.21
 21
-97.0173
  0
LINE
  8
0
 10
-65.21
 20
-97.0173
 11
-65.2062
 21
-97.019
  0
LINE
  8
0
 10
-65.2062
 20
-97.019
 11
-65.2021
 21
-97.0199
  0
LINE
  8
0
 10
-65.2021
 20
-97.0199
 11
-50.325
 21
-97.0199
  0
LINE
  8
0
 10
-50.325
 20
-97.0199
 11
-50.325
 21
-100
  0
LINE
  8
0
 10
-50.325
 20
-100
 11
-35.325
 21
-100
  0
LINE
  8
0
 10
-35.325
 20
-100
 11
-35.325
 21
-97.0199
  0
LINE
  8
0
 10
-35.325
 20
-97.0199
 11
-7.5
 21
-97.0199
  0
LINE
  8
0
 10
-7.5
 20
-97.0199
 11
-7.5
 21
-100
  0
LINE
  8
0
 10
-7.5
 20
-100
 11
7.5
 21
-100
  0
LINE
  8
0
 10
7.5
 20
-100
 11
7.5
 21
-97.0199
  0
LINE
  8
0
 10
7.5
 20
-97.0199
 11
35.325
 21
-97.0199
  0
LINE
  8
0
 10
35.325
 20
-97.0199
 11
35.325
 21
-100
  0
LINE
  8
0
 10
35.325
 20
-100
 11
50.325
 21
-100
  0
LINE
  8
0
 10
50.325
 20
-100
 11
50.325
 21
-97.0199
  0
LINE
  8
0
 10
50.325
 20
-97.0199
 11
65.2021
 21
-97.0199
  0
LINE
  8
0
 10
65.2021
 20
-97.0199
 11
65.2062
 21
-97.019
  0
LINE
  8
0
 10
65.2062
 20
-97.019
 11
65.21
 21
-97.0173
  0
LINE
  8
0
 10
65.21
 20
-97.0173
 11
65.2134
 21
-97.0149
  0
LINE
  8
0
 10
65.2134
 20
-97.0149
 11
65.2162
 21
-97.0118
  0
LINE
  8
0
 10
65.2162
 20
-97.0118
 11
65.2183
 21
-97.0081
  0
LINE
  8
0
 10
65.2183
 20
-97.0081
 11
65.2196
 21
-97.0042
  0
LINE
  8
0
 10
65.2196
 20
-97.0042
 11
65.22
 21
-97
  0
LINE
  8
0
 10
65.22
 20
-97
 11
65.22
 21
-82.5
  0
LINE
  8
0
 10
65.22
 20
-82.5
 11
68.2
 21
-82.5
  0
LINE
  8
0
 10
68.2
 20
-82.5
 11
68.2
 21
-67.5
  0
LINE
  8
0
 10
68.2
 20
-67.5
 11
65.22
 21
-67.5
  0
LINE
  8
0
 10
65.22
 20
-67.5
 11
65.22
 21
-45
  0
LINE
  8
0
 10
65.22
 20
-45
 11
68.2
 21
-45
  0
LINE
  8
0
 10
68.2
 20
-45
 11
68.2
 21
-30
  0
LINE
  8
0
 10
68.2
 20
-30
 11
65.22
 21
-30
  0
LINE
  8
0
 10
65.22
 20
-30
 11
65.22
 21
-7.5
  0
LINE
  8
0
 10
65.22
 20
-7.5
 11
68.2
 21
-7.5
  0
LINE
  8
0
 10
68.2
 20
-7.5
 11
68.2
 21
7.5
  0
LINE
  8
0
 10
68.2
 20
7.5
 11
65.22
 21
7.5
  0
LINE
  8
0
 10
65.22
 20
7.5
 11
65.22
 21
30
  0
LINE
  8
0
 10
65.22
 20
30
 11
68.2
 21
30
  0
LINE
  8
0
 10
68.2
 20
30
 11
68.2
 21
45
  0
LINE
  8
0
 10
68.2
 20
45
 11
65.22
 21
45
  0
LINE
  8
0
 10
65.22
 20
45
 11
65.22
 21
67.5
  0
LINE
  8
0
 10
65.22
 20
67.5
 11
68.2
 21
67.5
  0
LINE
  8
0
 10
68.2
 20
67.5
 11
68.2
 21
82.5
  0
LINE
  8
0
 10
68.2
 20
82.5
 11
65.22
 21
82.5
  0
LINE
  8
0
 10
65.22
 20
82.5
 11
65.22
 21
97
  0
LINE
  8
0
 10
65.22
 20
97
 11
65.2196
 21
97.0042
  0
LINE
  8
0
 10
65.2196
 20
97.0042
 11
65.2183
 21
97.0081
  0
LINE
  8
0
 10
65.2183
 20
97.0081
 11
65.2162
 21
97.0118
  0
LINE
  8
0
 10
65.2162
 20
97.0118
 11
65.2134
 21
97.0149
  0
LINE
  8
0
 10
65.2134
 20
97.0149
 11
65.21
 21
97.0173
  0
LINE
  8
0
 10
65.21
 20
97.0173
 11
65.2062
 21
97.019
  0
LINE
  8
0
 10
65.2062
 20
97.019
 11
65.2021
 21
97.0199
  0
LINE
  8
0
 10
65.2021
 20
97.0199
 11
50.325
 21
97.0199
  0
LINE
  8
0
 10
50.325
 20
97.0199
 11
50.325
 21
100
  0
LINE
  8
0
 10
50.325
 20
100
 11
35.325
 21
100
  0
LINE
  8
0
 10
35.325
 20
100
 11
35.325
 21
97.0199
  0
LINE
  8
0
 10
35.325
 20
97.0199
 11
7.5
 21
97.0199
  0
LINE
  8
0
 10
7.5
 20
97.0199
 11
7.5
 21
100
  0
LINE
  8
0
 10
7.5
 20
100
 11
-7.5
 21
100
  0
LINE
  8
0
 10
-7.5
 20
100
 11
-7.5
 21
97.0199
  0
LINE
  8
0
 10
-7.5
 20
97.0199
 11
-35.325
 21
97.0199
  0
LINE
  8
0
 10
-35.325
 20
97.0199
 11
-35.325
 21
100
  0
LINE
  8
0
 10
-35.325
 20
100
 11
-50.325
 21
100
  0
LINE
  8
0
 10
-50.325
 20
100
 11
-50.325
 21
97.0199
  0
LINE
  8
0
 10
-50.325
 20
97.0199
 11
-65.2021
 21
97.0199
  0
LINE
  8
0
 10
-65.2021
 20
97.0199
 11
-65.2062
 21
97.019
  0
LINE
  8
0
 10
-65.2062
 20
97.019
 11
-65.21
 21
97.0173
  0
LINE
  8
0
 10
-65.21
 20
97.0173
 11
-65.2134
 21
97.0149
  0
LINE
  8
0
 10
-65.2134
 20
97.0149
 11
-65.2162
 21
97.0118
  0
LINE
  8
0
 10
-65.2162
 20
97.0118
 11
-65.2183
 21
97.0081
  0
LINE
  8
0
 10
-65.2183
 20
97.0081
 11
-65.2196
 21
97.0042
  0
LINE
  8
0
 10
-65.2196
 20
97.0042
 11
-65.22
 21
97
  0
LINE
  8
0
 10
-65.22
 20
97
 11
-65.22
 21
82.5
  0
LINE
  8
0
 10
-65.22
 20
82.5
 11
-68.2
 21
82.5
  0
LINE
  8
0
 10
-68.2
 20
82.5
 11
-68.2
 21
67.5
  0
LINE
  8
0
 10
-68.2
 20
67.5
 11
-65.22
 21
67.5
  0
LINE
  8
0
 10
-65.22
 20
67.5
 11
-65.22
 21
45
  0
LINE
  8
0
 10
-65.22
 20
45
 11
-68.2
 21
45
  0
LINE
  8
0
 10
-68.2
 20
45
 11
-68.2
 21
30
  0
LINE
  8
0
 10
-68.2
 20
30
 11
-65.22
 21
30
  0
LINE
  8
0
 10
-65.22
 20
30
 11
-65.22
 21
7.5
  0
LINE
  8
0
 10
-65.22
 20
7.5
 11
-68.2
 21
7.5
  0
LINE
  8
0
 10
-68.2
 20
7.5
 11
-68.2
 21
-7.5
  0
LINE
  8
0
 10
-68.2
 20
-7.5
 11
-65.22
 21
-7.5
  0
LINE
  8
0
 10
-65.22
 20
-7.5
 11
-65.22
 21
-30
  0
LINE
  8
0
 10
-65.22
 20
-30
 11
-68.2
 21
-30
  0
LINE
  8
0
 10
-68.2
 20
-30
 11
-68.2
 21
-45
  0
LINE
  8
0
 10
-68.2
 20
-45
 11
-65.22
 21
-45
  0
LINE
  8
0
 10
-65.22
 20
-45
 11
-65.22
 21
-67.5
  0
LINE
  8
0
 10
-65.22
 20
-67.5
 11
-68.2
 21
-67.5
  0
LINE
  8
0
 10
-68.2
 20
-67.5
 11
-68.2
 21
-82.5
  0
LINE
  8
0
 10
-52.825
 20
0
 11
-52.8031
 21
0.207911
  0
LINE
  8
0
 10
-52.8031
 20
0.207911
 11
-52.7385
 21
0.406736
  0
LINE
  8
0
 10
-52.7385
 20
0.406736
 11
-52.634
 21
0.587785
  0
LINE
  8
0
 10
-52.634
 20
0.587785
 11
-52.4941
 21
0.743144
  0
LINE
  8
0
 10
-52.4941
 20
0.743144
 11
-52.325
 21
0.866025
  0
LINE
  8
0
 10
-52.325
 20
0.866025
 11
-52.134
 21
0.951056
  0
LINE
  8
0
 10
-52.134
 20
0.951056
 11
-51.9295
 21
0.994521
  0
LINE
  8
0
 10
-51.9295
 20
0.994521
 11
-51.7205
 21
0.994521
  0
LINE
  8
0
 10
-51.7205
 20
0.994521
 11
-51.516
 21
0.951056
  0
LINE
  8
0
 10
-51.516
 20
0.951056
 11
-51.325
 21
0.866025
  0
LINE
  8
0
 10
-51.325
 20
0.866025
 11
-51.1559
 21
0.743144
  0
LINE
  8
0
 10
-51.1559
 20
0.743144
 11
-51.016
 21
0.587785
  0
LINE
  8
0
 10
-51.016
 20
0.587785
 11
-50.9115
 21
0.406736
  0
LINE
  8
0
 10
-50.9115
 20
0.406736
 11
-50.8469
 21
0.207911
  0
LINE
  8
0
 10
-50.8469
 20
0.207911
 11
-50.825
 21
0
  0
LINE
  8
0
 10
-50.825
 20
0
 11
-50.8469
 21
-0.207911
  0
LINE
  8
0
 10
-50.8469
 20
-0.207911
 11
-50.9115
 21
-0.406736
  0
LINE
  8
0
 10
-50.9115
 20
-0.406736
 11
-51.016
 21
-0.587785
  0
LINE
  8
0
 10
-51.016
 20
-0.587785
 11
-51.1559
 21
-0.743144
  0
LINE
  8
0
 10
-51.1559
 20
-0.743144
 11
-51.325
 21
-0.866025
  0
LINE
  8
0
 10
-51.325
 20
-0.866025
 11
-51.516
 21
-0.951056
  0
LINE
  8
0
 10
-51.516
 20
-0.951056
 11
-51.7205
 21
-0.994521
  0
LINE
  8
0
 10
-51.7205
 20
-0.994521
 11
-51.9295
 21
-0.994521
  0
LINE
  8
0
 10
-51.9295
 20
-0.994521
 11
-52.134
 21
-0.951056
  0
LINE
  8
0
 10
-52.134
 20
-0.951056
 11
-52.325
 21
-0.866025
  0
LINE
  8
0
 10
-52.325
 20
-0.866025
 11
-52.4941
 21
-0.743144
  0
LINE
  8
0
 10
-52.4941
 20
-0.743144
 11
-52.634
 21
-0.587785
  0
LINE
  8
0
 10
-52.634
 20
-0.587785
 11
-52.7385
 21
-0.406736
  0
LINE
  8
0
 10
-52.7385
 20
-0.406736
 11
-52.8031
 21
-0.207911
  0
LINE
  8
0
 10
-52.8031
 20
-0.207911
 11
-52.825
 21
0
  0
LINE
  8
0
 10
-50.325
 20
-20.3
 11
-50.325
 21
-14.3
  0
LINE
  8
0
 10
-50.325
 20
-14.3
 11
-35.325
 21
-14.3
  0
LINE
  8
0
 10
-35.325
 20
-14.3
 11
-35.325
 21
-20.3
  0
LINE
  8
0
 10
-35.325
 20
-20.3
 11
-50.325
 21
-20.3
  0
LINE
  8
0
 10
-50.325
 20
14.3
 11
-50.325
 21
20.3
  0
LINE
  8
0
 10
-50.325
 20
20.3
 11
-35.325
 21
20.3
  0
LINE
  8
0
 10
-35.325
 20
20.3
 11
-35.325
 21
14.3
  0
LINE
  8
0
 10
-35.325
 20
14.3
 11
-50.325
 21
14.3
  0
LINE
  8
0
 10
-47.325
 20
-2
 11
-47.325
 21
2
  0
LINE
  8
0
 10
-47.325
 20
2
 11
-38.325
 21
2
  0
LINE
  8
0
 10
-38.325
 20
2
 11
-38.325
 21
-2
  0
LINE
  8
0
 10
-38.325
 20
-2
 11
-47.325
 21
-2
  0
LINE
  8
0
 10
-41.875
 20
-54.5
 11
-41.2085
 21
-48.1587
  0
LINE
  8
0
 10
-41.2085
 20
-48.1587
 11
-39.2381
 21
-42.0945
  0
LINE
  8
0
 10
-39.2381
 20
-42.0945
 11
-36.05
 21
-36.5725
  0
LINE
  8
0
 10
-36.05
 20
-36.5725
 11
-31.7835
 21
-31.8341
  0
LINE
  8
0
 10
-31.7835
 20
-31.8341
 11
-26.625
 21
-28.0862
  0
LINE
  8
0
 10
-26.625
 20
-28.0862
 11
-20.8
 21
-25.4928
  0
LINE
  8
0
 10
-20.8
 20
-25.4928
 11
-14.5631
 21
-24.1671
  0
LINE
  8
0
 10
-14.5631
 20
-24.1671
 11
-8.18688
 21
-24.1671
  0
LINE
  8
0
 10
-8.18688
 20
-24.1671
 11
-1.94998
 21
-25.4928
  0
LINE
  8
0
 10
-1.94998
 20
-25.4928
 11
3.875
 21
-28.0862
  0
LINE
  8
0
 10
3.875
 20
-28.0862
 11
9.03348
 21
-31.8341
  0
LINE
  8
0
 10
9.03348
 20
-31.8341
 11
13.3
 21
-36.5725
  0
LINE
  8
0
 10
13.3
 20
-36.5725
 11
16.4881
 21
-42.0945
  0
LINE
  8
0
 10
16.4881
 20
-42.0945
 11
18.4585
 21
-48.1587
  0
LINE
  8
0
 10
18.4585
 20
-48.1587
 11
19.125
 21
-54.5
  0
LINE
  8
0
 10
19.125
 20
-54.5
 11
18.4585
 21
-60.8413
  0
LINE
  8
0
 10
18.4585
 20
-60.8413
 11
16.4881
 21
-66.9055
  0
LINE
  8
0
 10
16.4881
 20
-66.9055
 11
13.3
 21
-72.4275
  0
LINE
  8
0
 10
13.3
 20
-72.4275
 11
9.03348
 21
-77.1659
  0
LINE
  8
0
 10
9.03348
 20
-77.1659
 11
3.875
 21
-80.9138
  0
LINE
  8
0
 10
3.875
 20
-80.9138
 11
-1.94998
 21
-83.5072
  0
LINE
  8
0
 10
-1.94998
 20
-83.5072
 11
-8.18688
 21
-84.8329
  0
LINE
  8
0
 10
-8.18688
 20
-84.8329
 11
-14.5631
 21
-84.8329
  0
LINE
  8
0
 10
-14.5631
 20
-84.8329
 11
-20.8
 21
-83.5072
  0
LINE
  8
0
 10
-20.8
 20
-83.5072
 11
-26.625
 21
-80.9138
  0
LINE
  8
0
 10
-26.625
 20
-80.9138
 11
-31.7835
 21
-77.1659
  0
LINE
  8
0
 10
-31.7835
 20
-77.1659
 11
-36.05
 21
-72.4275
  0
LINE
  8
0
 10
-36.05
 20
-72.4275
 11
-39.2381
 21
-66.9055
  0
LINE
  8
0
 10
-39.2381
 20
-66.9055
 11
-41.2085
 21
-60.8413
  0
LINE
  8
0
 10
-41.2085
 20
-60.8413
 11
-41.875
 21
-54.5
  0
LINE
  8
0
 10
-34.825
 20
0
 11
-34.8031
 21
0.207911
  0
LINE
  8
0
 10
-34.8031
 20
0.207911
 11
-34.7385
 21
0.406736
  0
LINE
  8
0
 10
-34.7385
 20
0.406736
 11
-34.634
 21
0.587785
  0
LINE
  8
0
 10
-34.634
 20
0.587785
 11
-34.4941
 21
0.743144
  0
LINE
  8
0
 10
-34.4941
 20
0.743144
 11
-34.325
 21
0.866025
  0
LINE
  8
0
 10
-34.325
 20
0.866025
 11
-34.134
 21
0.951056
  0
LINE
  8
0
 10
-34.134
 20
0.951056
 11
-33.9295
 21
0.994521
  0
LINE
  8
0
 10
-33.9295
 20
0.994521
 11
-33.7205
 21
0.994521
  0
LINE
  8
0
 10
-33.7205
 20
0.994521
 11
-33.516
 21
0.951056
  0
LINE
  8
0
 10
-33.516
 20
0.951056
 11
-33.325
 21
0.866025
  0
LINE
  8
0
 10
-33.325
 20
0.866025
 11
-33.1559
 21
0.743144
  0
LINE
  8
0
 10
-33.1559
 20
0.743144
 11
-33.016
 21
0.587785
  0
LINE
  8
0
 10
-33.016
 20
0.587785
 11
-32.9115
 21
0.406736
  0
LINE
  8
0
 10
-32.9115
 20
0.406736
 11
-32.8469
 21
0.207911
  0
LINE
  8
0
 10
-32.8469
 20
0.207911
 11
-32.825
 21
0
  0
LINE
  8
0
 10
-32.825
 20
0
 11
-32.8469
 21
-0.207911
  0
LINE
  8
0
 10
-32.8469
 20
-0.207911
 11
-32.9115
 21
-0.406736
  0
LINE
  8
0
 10
-32.9115
 20
-0.406736
 11
-33.016
 21
-0.587785
  0
LINE
  8
0
 10
-33.016
 20
-0.587785
 11
-33.1559
 21
-0.743144
  0
LINE
  8
0
 10
-33.1559
 20
-0.743144
 11
-33.325
 21
-0.866025
  0
LINE
  8
0
 10
-33.325
 20
-0.866025
 11
-33.516
 21
-0.951056
  0
LINE
  8
0
 10
-33.516
 20
-0.951056
 11
-33.7205
 21
-0.994521
  0
LINE
  8
0
 10
-33.7205
 20
-0.994521
 11
-33.9295
 21
-0.994521
  0
LINE
  8
0
 10
-33.9295
 20
-0.994521
 11
-34.134
 21
-0.951056
  0
LINE
  8
0
 10
-34.134
 20
-0.951056
 11
-34.325
 21
-0.866025
  0
LINE
  8
0
 10
-34.325
 20
-0.866025
 11
-34.4941
 21
-0.743144
  0
LINE
  8
0
 10
-34.4941
 20
-0.743144
 11
-34.634
 21
-0.587785
  0
LINE
  8
0
 10
-34.634
 20
-0.587785
 11
-34.7385
 21
-0.406736
  0
LINE
  8
0
 10
-34.7385
 20
-0.406736
 11
-34.8031
 21
-0.207911
  0
LINE
  8
0
 10
-34.8031
 20
-0.207911
 11
-34.825
 21
0
  0
LINE
  8
0
 10
-25
 20
16
 11
25
 21
16
  0
LINE
  8
0
 10
25
 20
16
 11
25
 21
-16
  0
LINE
  8
0
 10
25
 20
-16
 11
-25
 21
-16
  0
LINE
  8
0
 10
-25
 20
-16
 11
-25
 21
16
  0
LINE
  8
0
 10
-21.4421
 20
21.0484
 11
-21.4421
 21
21.3516
  0
LINE
  8
0
 10
-21.4421
 20
21.3516
 11
-21.379
 21
21.6481
  0
LINE
  8
0
 10
-21.379
 20
21.6481
 11
-21.2557
 21
21.925
  0
LINE
  8
0
 10
-21.2557
 20
21.925
 11
-21.0776
 21
22.1702
  0
LINE
  8
0
 10
-21.0776
 20
22.1702
 11
-20.8523
 21
22.3731
  0
LINE
  8
0
 10
-20.8523
 20
22.3731
 11
-20.5898
 21
22.5246
  0
LINE
  8
0
 10
-20.5898
 20
22.5246
 11
-20.3015
 21
22.6183
  0
LINE
  8
0
 10
-20.3015
 20
22.6183
 11
-20
 21
22.65
  0
LINE
  8
0
 10
-20
 20
22.65
 11
-19.6985
 21
22.6183
  0
LINE
  8
0
 10
-19.6985
 20
22.6183
 11
-19.4102
 21
22.5246
  0
LINE
  8
0
 10
-19.4102
 20
22.5246
 11
-19.1477
 21
22.3731
  0
LINE
  8
0
 10
-19.1477
 20
22.3731
 11
-18.9224
 21
22.1702
  0
LINE
  8
0
 10
-18.9224
 20
22.1702
 11
-18.7443
 21
21.925
  0
LINE
  8
0
 10
-18.7443
 20
21.925
 11
-18.621
 21
21.6481
  0
LINE
  8
0
 10
-18.621
 20
21.6481
 11
-18.5579
 21
21.3516
  0
LINE
  8
0
 10
-18.5579
 20
21.3516
 11
-18.5579
 21
21.0484
  0
LINE
  8
0
 10
-18.5579
 20
21.0484
 11
-18.621
 21
20.7519
  0
LINE
  8
0
 10
-18.621
 20
20.7519
 11
-18.7443
 21
20.475
  0
LINE
  8
0
 10
-18.7443
 20
20.475
 11
-18.9224
 21
20.2298
  0
LINE
  8
0
 10
-18.9224
 20
20.2298
 11
-19.1477
 21
20.0269
  0
LINE
  8
0
 10
-19.1477
 20
20.0269
 11
-19.4102
 21
19.8754
  0
LINE
  8
0
 10
-19.4102
 20
19.8754
 11
-19.6985
 21
19.7817
  0
LINE
  8
0
 10
-19.6985
 20
19.7817
 11
-20
 21
19.75
  0
LINE
  8
0
 10
-20
 20
19.75
 11
-20.3015
 21
19.7817
  0
LINE
  8
0
 10
-20.3015
 20
19.7817
 11
-20.5898
 21
19.8754
  0
LINE
  8
0
 10
-20.5898
 20
19.8754
 11
-20.8523
 21
20.0269
  0
LINE
  8
0
 10
-20.8523
 20
20.0269
 11
-21.0776
 21
20.2298
  0
LINE
  8
0
 10
-21.0776
 20
20.2298
 11
-21.2557
 21
20.475
  0
LINE
  8
0
 10
-21.2557
 20
20.475
 11
-21.379
 21
20.7519
  0
LINE
  8
0
 10
-21.379
 20
20.7519
 11
-21.4421
 21
21.0484
  0
LINE
  8
0
 10
-21.4421
 20
-18.9516
 11
-21.4421
 21
-18.6484
  0
LINE
  8
0
 10
-21.4421
 20
-18.6484
 11
-21.379
 21
-18.3519
  0
LINE
  8
0
 10
-21.379
 20
-18.3519
 11
-21.2557
 21
-18.075
  0
LINE
  8
0
 10
-21.2557
 20
-18.075
 11
-21.0776
 21
-17.8298
  0
LINE
  8
0
 10
-21.0776
 20
-17.8298
 11
-20.8523
 21
-17.6269
  0
LINE
  8
0
 10
-20.8523
 20
-17.6269
 11
-20.5898
 21
-17.4754
  0
LINE
  8
0
 10
-20.5898
 20
-17.4754
 11
-20.3015
 21
-17.3817
  0
LINE
  8
0
 10
-20.3015
 20
-17.3817
 11
-20
 21
-17.35
  0
LINE
  8
0
 10
-20
 20
-17.35
 11
-19.6985
 21
-17.3817
  0
LINE
  8
0
 10
-19.6985
 20
-17.3817
 11
-19.4102
 21
-17.4754
  0
LINE
  8
0
 10
-19.4102
 20
-17.4754
 11
-19.1477
 21
-17.6269
  0
LINE
  8
0
 10
-19.1477
 20
-17.6269
 11
-18.9224
 21
-17.8298
  0
LINE
  8
0
 10
-18.9224
 20
-17.8298
 11
-18.7443
 21
-18.075
  0
LINE
  8
0
 10
-18.7443
 20
-18.075
 11
-18.621
 21
-18.3519
  0
LINE
  8
0
 10
-18.621
 20
-18.3519
 11
-18.5579
 21
-18.6484
  0
LINE
  8
0
 10
-18.5579
 20
-18.6484
 11
-18.5579
 21
-18.9516
  0
LINE
  8
0
 10
-18.5579
 20
-18.9516
 11
-18.621
 21
-19.2481
  0
LINE
  8
0
 10
-18.621
 20
-19.2481
 11
-18.7443
 21
-19.525
  0
LINE
  8
0
 10
-18.7443
 20
-19.525
 11
-18.9224
 21
-19.7702
  0
LINE
  8
0
 10
-18.9224
 20
-19.7702
 11
-19.1477
 21
-19.9731
  0
LINE
  8
0
 10
-19.1477
 20
-19.9731
 11
-19.4102
 21
-20.1246
  0
LINE
  8
0
 10
-19.4102
 20
-20.1246
 11
-19.6985
 21
-20.2183
  0
LINE
  8
0
 10
-19.6985
 20
-20.2183
 11
-20
 21
-20.25
  0
LINE
  8
0
 10
-20
 20
-20.25
 11
-20.3015
 21
-20.2183
  0
LINE
  8
0
 10
-20.3015
 20
-20.2183
 11
-20.5898
 21
-20.1246
  0
LINE
  8
0
 10
-20.5898
 20
-20.1246
 11
-20.8523
 21
-19.9731
  0
LINE
  8
0
 10
-20.8523
 20
-19.9731
 11
-21.0776
 21
-19.7702
  0
LINE
  8
0
 10
-21.0776
 20
-19.7702
 11
-21.2557
 21
-19.525
  0
LINE
  8
0
 10
-21.2557
 20
-19.525
 11
-21.379
 21
-19.2481
  0
LINE
  8
0
 10
-21.379
 20
-19.2481
 11
-21.4421
 21
-18.9516
  0
LINE
  8
0
 10
18.5579
 20
21.0484
 11
18.5579
 21
21.3516
  0
LINE
  8
0
 10
18.5579
 20
21.3516
 11
18.621
 21
21.6481
  0
LINE
  8
0
 10
18.621
 20
21.6481
 11
18.7443
 21
21.925
  0
LINE
  8
0
 10
18.7443
 20
21.925
 11
18.9224
 21
22.1702
  0
LINE
  8
0
 10
18.9224
 20
22.1702
 11
19.1477
 21
22.3731
  0
LINE
  8
0
 10
19.1477
 20
22.3731
 11
19.4102
 21
22.5246
  0
LINE
  8
0
 10
19.4102
 20
22.5246
 11
19.6985
 21
22.6183
  0
LINE
  8
0
 10
19.6985
 20
22.6183
 11
20
 21
22.65
  0
LINE
  8
0
 10
20
 20
22.65
 11
20.3015
 21
22.6183
  0
LINE
  8
0
 10
20.3015
 20
22.6183
 11
20.5898
 21
22.5246
  0
LINE
  8
0
 10
20.5898
 20
22.5246
 11
20.8523
 21
22.3731
  0
LINE
  8
0
 10
20.8523
 20
22.3731
 11
21.0776
 21
22.1702
  0
LINE
  8
0
 10
21.0776
 20
22.1702
 11
21.2557
 21
21.925
  0
LINE
  8
0
 10
21.2557
 20
21.925
 11
21.379
 21
21.6481
  0
LINE
  8
0
 10
21.379
 20
21.6481
 11
21.4421
 21
21.3516
  0
LINE
  8
0
 10
21.4421
 20
21.3516
 11
21.4421
 21
21.0484
  0
LINE
  8
0
 10
21.4421
 20
21.0484
 11
21.379
 21
20.7519
  0
LINE
  8
0
 10
21.379
 20
20.7519
 11
21.2557
 21
20.475
  0
LINE
  8
0
 10
21.2557
 20
20.475
 11
21.0776
 21
20.2298
  0
LINE
  8
0
 10
21.0776
 20
20.2298
 11
20.8523
 21
20.0269
  0
LINE
  8
0
 10
20.8523
 20
20.0269
 11
20.5898
 21
19.8754
  0
LINE
  8
0
 10
20.5898
 20
19.8754
 11
20.3015
 21
19.7817
  0
LINE
  8
0
 10
20.3015
 20
19.7817
 11
20
 21
19.75
  0
LINE
  8
0
 10
20
 20
19.75
 11
19.6985
 21
19.7817
  0
LINE
  8
0
 10
19.6985
 20
19.7817
 11
19.4102
 21
19.8754
  0
LINE
  8
0
 10
19.4102
 20
19.8754
 11
19.1477
 21
20.0269
  0
LINE
  8
0
 10
19.1477
 20
20.0269
 11
18.9224
 21
20.2298
  0
LINE
  8
0
 10
18.9224
 20
20.2298
 11
18.7443
 21
20.475
  0
LINE
  8
0
 10
18.7443
 20
20.475
 11
18.621
 21
20.7519
  0
LINE
  8
0
 10
18.621
 20
20.7519
 11
18.5579
 21
21.0484
  0
LINE
  8
0
 10
18.5579
 20
-18.9516
 11
18.5579
 21
-18.6484
  0
LINE
  8
0
 10
18.5579
 20
-18.6484
 11
18.621
 21
-18.3519
  0
LINE
  8
0
 10
18.621
 20
-18.3519
 11
18.7443
 21
-18.075
  0
LINE
  8
0
 10
18.7443
 20
-18.075
 11
18.9224
 21
-17.8298
  0
LINE
  8
0
 10
18.9224
 20
-17.8298
 11
19.1477
 21
-17.6269
  0
LINE
  8
0
 10
19.1477
 20
-17.6269
 11
19.4102
 21
-17.4754
  0
LINE
  8
0
 10
19.4102
 20
-17.4754
 11
19.6985
 21
-17.3817
  0
LINE
  8
0
 10
19.6985
 20
-17.3817
 11
20
 21
-17.35
  0
LINE
  8
0
 10
20
 20
-17.35
 11
20.3015
 21
-17.3817
  0
LINE
  8
0
 10
20.3015
 20
-17.3817
 11
20.5898
 21
-17.4754
  0
LINE
  8
0
 10
20.5898
 20
-17.4754
 11
20.8523
 21
-17.6269
  0
LINE
  8
0
 10
20.8523
 20
-17.6269
 11
21.0776
 21
-17.8298
  0
LINE
  8
0
 10
21.0776
 20
-17.8298
 11
21.2557
 21
-18.075
  0
LINE
  8
0
 10
21.2557
 20
-18.075
 11
21.379
 21
-18.3519
  0
LINE
  8
0
 10
21.379
 20
-18.3519
 11
21.4421
 21
-18.6484
  0
LINE
  8
0
 10
21.4421
 20
-18.6484
 11
21.4421
 21
-18.9516
  0
LINE
  8
0
 10
21.4421
 20
-18.9516
 11
21.379
 21
-19.2481
  0
LINE
  8
0
 10
21.379
 20
-19.2481
 11
21.2557
 21
-19.525
  0
LINE
  8
0
 10
21.2557
 20
-19.525
 11
21.0776
 21
-19.7702
  0
LINE
  8
0
 10
21.0776
 20
-19.7702
 11
20.8523
 21
-19.9731
  0
LINE
  8
0
 10
20.8523
 20
-19.9731
 11
20.5898
 21
-20.1246
  0
LINE
  8
0
 10
20.5898
 20
-20.1246
 11
20.3015
 21
-20.2183
  0
LINE
  8
0
 10
20.3015
 20
-20.2183
 11
20
 21
-20.25
  0
LINE
  8
0
 10
20
 20
-20.25
 11
19.6985
 21
-20.2183
  0
LINE
  8
0
 10
19.6985
 20
-20.2183
 11
19.4102
 21
-20.1246
  0
LINE
  8
0
 10
19.4102
 20
-20.1246
 11
19.1477
 21
-19.9731
  0
LINE
  8
0
 10
19.1477
 20
-19.9731
 11
18.9224
 21
-19.7702
  0
LINE
  8
0
 10
18.9224
 20
-19.7702
 11
18.7443
 21
-19.525
  0
LINE
  8
0
 10
18.7443
 20
-19.525
 11
18.621
 21
-19.2481
  0
LINE
  8
0
 10
18.621
 20
-19.2481
 11
18.5579
 21
-18.9516
  0
LINE
  8
0
 10
35.325
 20
-20.3
 11
35.325
 21
-14.3
  0
LINE
  8
0
 10
35.325
 20
-14.3
 11
50.325
 21
-14.3
  0
LINE
  8
0
 10
50.325
 20
-14.3
 11
50.325
 21
-20.3
  0
LINE
  8
0
 10
50.325
 20
-20.3
 11
35.325
 21
-20.3
  0
LINE
  8
0
 10
35.325
 20
14.3
 11
35.325
 21
20.3
  0
LINE
  8
0
 10
35.325
 20
20.3
 11
50.325
 21
20.3
  0
LINE
  8
0
 10
50.325
 20
20.3
 11
50.325
 21
14.3
  0
LINE
  8
0
 10
50.325
 20
14.3
 11
35.325
 21
14.3
  0
LINE
  8
0
 10
39.325
 20
0
 11
39.4015
 21
0.727691
  0
LINE
  8
0
 10
39.4015
 20
0.727691
 11
39.6276
 21
1.42358
  0
LINE
  8
0
 10
39.6276
 20
1.42358
 11
39.9934
 21
2.05725
  0
LINE
  8
0
 10
39.9934
 20
2.05725
 11
40.483
 21
2.60101
  0
LINE
  8
0
 10
40.483
 20
2.60101
 11
41.075
 21
3.03109
  0
LINE
  8
0
 10
41.075
 20
3.03109
 11
41.7434
 21
3.3287
  0
LINE
  8
0
 10
41.7434
 20
3.3287
 11
42.4592
 21
3.48083
  0
LINE
  8
0
 10
42.4592
 20
3.48083
 11
43.1908
 21
3.48083
  0
LINE
  8
0
 10
43.1908
 20
3.48083
 11
43.9066
 21
3.3287
  0
LINE
  8
0
 10
43.9066
 20
3.3287
 11
44.575
 21
3.03109
  0
LINE
  8
0
 10
44.575
 20
3.03109
 11
45.167
 21
2.60101
  0
LINE
  8
0
 10
45.167
 20
2.60101
 11
45.6566
 21
2.05725
  0
LINE
  8
0
 10
45.6566
 20
2.05725
 11
46.0224
 21
1.42358
  0
LINE
  8
0
 10
46.0224
 20
1.42358
 11
46.2485
 21
0.727691
  0
LINE
  8
0
 10
46.2485
 20
0.727691
 11
46.325
 21
0
  0
LINE
  8
0
 10
46.325
 20
0
 11
46.2485
 21
-0.727691
  0
LINE
  8
0
 10
46.2485
 20
-0.727691
 11
46.0224
 21
-1.42358
  0
LINE
  8
0
 10
46.0224
 20
-1.42358
 11
45.6566
 21
-2.05725
  0
LINE
  8
0
 10
45.6566
 20
-2.05725
 11
45.167
 21
-2.60101
  0
LINE
  8
0
 10
45.167
 20
-2.60101
 11
44.575
 21
-3.03109
  0
LINE
  8
0
 10
44.575
 20
-3.03109
 11
43.9066
 21
-3.3287
  0
LINE
  8
0
 10
43.9066
 20
-3.3287
 11
43.1908
 21
-3.48083
  0
LINE
  8
0
 10
43.1908
 20
-3.48083
 11
42.4592
 21
-3.48083
  0
LINE
  8
0
 10
42.4592
 20
-3.48083
 11
41.7434
 21
-3.3287
  0
LINE
  8
0
 10
41.7434
 20
-3.3287
 11
41.075
 21
-3.03109
  0
LINE
  8
0
 10
41.075
 20
-3.03109
 11
40.483
 21
-2.60101
  0
LINE
  8
0
 10
40.483
 20
-2.60101
 11
39.9934
 21
-2.05725
  0
LINE
  8
0
 10
39.9934
 20
-2.05725
 11
39.6276
 21
-1.42358
  0
LINE
  8
0
 10
39.6276
 20
-1.42358
 11
39.4015
 21
-0.727691
  0
LINE
  8
0
 10
39.4015
 20
-0.727691
 11
39.325
 21
0
  0
ENDSEC
  0
SECTION
  2
OBJECTS
  0
DICTIONARY
  0
ENDSEC
  0
EOF
