<?xml version="1.0" standalone="no"?>
<!DOCTYPE svg PUBLIC "-//W3C//DTD SVG 1.1//EN" "http://www.w3.org/Graphics/SVG/1.1/DTD/svg11.dtd">
<svg width="77" height="167" viewBox="-59 -90 77 167" xmlns="http://www.w3.org/2000/svg" version="1.1">
<title>OpenSCAD Model</title>
<path d="
M -58.9,-78.2 L -58.872,-76.0613 L -58.788,-73.9242 L -58.6481,-71.7899 L -58.4524,-69.66 L -58.201,-67.536
 L -57.8941,-65.4193 L -57.5319,-63.3114 L -57.1147,-61.2136 L -56.6426,-59.1275 L -56.1161,-57.0545 L -55.5356,-54.9959
 L -54.9013,-52.9533 L -54.2138,-50.928 L -53.4735,-48.9213 L -52.681,-46.9348 L -51.8367,-44.9696 L -50.9412,-43.0272
 L -49.9952,-41.109 L -48.9994,-39.2161 L -48.6835,-38.6521 L 3.85,76.2 L 17.6,76.2 L 17.6,71.4392
 L 16.8397,71.4392 L 14.5699,70.9567 L 12.45,70.0129 L 10.5727,68.6489 L 9.01991,66.9244 L 7.85965,64.9148
 L 7.14256,62.7078 L 7.14256,62.7078 L 6.9,60.4 L 6.9,60.4 L 6.9,60.4 L 7.14256,58.0922
 L 7.20083,57.9129 L 7.20708,57.8594 L 7.26358,57.6921 L 7.27248,57.623 L 7.32682,57.4681 L 7.33877,57.3831
 L 7.39056,57.2408 L 7.40597,57.1397 L 7.45479,57.0103 L 7.47409,56.8929 L 7.51599,56.7856 L 7.51768,56.7565
 L 7.53275,56.7016 L 7.54315,56.6426 L 7.56078,56.5989 L 7.56988,56.4689 L 7.61126,56.3246 L 7.62324,56.1778
 L 7.66255,56.0465 L 7.67779,55.8831 L 7.71463,55.7651 L 7.73355,55.5851 L 7.7675,55.4806 L 7.77007,55.4586
 L 7.76885,55.3544 L 7.80971,55.1505 L 7.80971,55.0209 L 7.85029,54.83 L 7.85199,54.684 L 7.89192,54.5063
 L 7.89571,54.3436 L 7.93461,54.1795 L 7.94088,53.9998 L 7.97836,53.8495 L 7.98753,53.6526 L 8.02318,53.5164
 L 8.03567,53.3021 L 8.06908,53.1802 L 8.08531,52.9482 L 8.11607,52.841 L 8.12783,52.6969 L 8.12656,52.675
 L 8.13315,52.6317 L 8.13647,52.5911 L 8.14232,52.5715 L 8.16747,52.4065 L 8.16212,52.2915 L 8.20398,52.0368
 L 8.19936,51.9047 L 8.24179,51.6641 L 8.23832,51.5146 L 8.28093,51.2883 L 8.27899,51.1213 L 8.3214,50.9097
 L 8.3214,50.7247 L 8.3632,50.528 L 8.36556,50.325 L 8.40634,50.1435 L 8.4115,49.9221 L 8.45083,49.7561
 L 8.45921,49.5161 L 8.49667,49.3658 L 8.50873,49.107 L 8.54387,48.9727 L 8.56005,48.6949 L 8.59244,48.5768
 L 8.61321,48.2798 L 8.64238,48.1781 L 8.65127,48.0693 L 8.64828,48.0266 L 8.66371,47.9167 L 8.6682,47.8618
 L 8.67431,47.8414 L 8.69434,47.6988 L 8.68787,47.5877 L 8.73547,47.2755 L 8.72943,47.1459 L 8.77816,46.8494
 L 8.77298,46.7011 L 8.82243,46.4207 L 8.81854,46.2534 L 8.86828,45.9893 L 8.86611,45.8029 L 8.91571,45.5554
 L 8.91571,45.3495 L 8.96472,45.1189 L 8.96735,44.8934 L 9.01533,44.6799 L 9.02104,44.4345 L 9.06754,44.2384
 L 9.0768,43.973 L 9.12134,43.7943 L 9.13464,43.5088 L 9.17676,43.3479 L 9.19457,43.042 L 9.2,43.0222
 L 9.2,42.4 L 9.2,42.2939 L 8.97001,42.0612 L 8.78547,41.9336 L 8.54104,41.6745 L 8.36071,41.5435
 L 8.12423,41.2809 L 7.94852,41.1468 L 7.71975,40.8806 L 7.54904,40.7439 L 7.32773,40.4739 L 7.16238,40.3351
 L 6.94833,40.0612 L 6.78867,39.9207 L 6.58166,39.6427 L 6.42801,39.5011 L 6.22787,39.2187 L 6.0805,39.0764
 L 5.88706,38.7896 L 5.74624,38.6472 L 5.55937,38.3557 L 5.4253,38.2136 L 5.24488,37.9173 L 5.11777,37.7761
 L 4.9437,37.4746 L 4.82371,37.3349 L 4.65593,37.0281 L 4.54318,36.8905 L 4.38165,36.5779 L 4.27625,36.443
 L 4.12093,36.1246 L 4.02295,35.993 L 3.87386,35.6683 L 3.78331,35.5406 L 3.64049,35.2095 L 3.55738,35.0863
 L 3.42087,34.7484 L 3.34517,34.6304 L 3.21506,34.2854 L 3.1467,34.1731 L 3.0231,33.8208 L 2.96197,33.715
 L 2.84502,33.355 L 2.79097,33.2562 L 2.71374,32.9982 L 2.6881,32.9347 L 2.67943,32.8856 L 2.63371,32.7971
 L 2.58056,32.6033 L 2.52619,32.4592 L 2.51574,32.3906 L 2.49015,32.3381 L 2.45885,32.2126 L 2.37846,31.9835
 L 2.36696,31.8941 L 2.36028,31.8795 L 2.34832,31.8264 L 2.24488,31.508 L 2.23259,31.3911 L 2.12544,31.0331
 L 2.11501,30.9054 L 2.02008,30.5592 L 2.01199,30.4203 L 1.92876,30.0865 L 1.92351,29.9362 L 1.85143,29.6155
 L 1.84955,29.4533 L 1.78803,29.1464 L 1.79006,28.9721 L 1.73848,28.6796 L 1.745,28.493 L 1.70271,28.2155
 L 1.71432,28.0162 L 1.68062,27.7544 L 1.69795,27.5421 L 1.67214,27.2965 L 1.69582,27.0712 L 1.67714,26.8423
 L 1.70785,26.6037 L 1.69552,26.3921 L 1.73394,26.14 L 1.72717,25.9462 L 1.77401,25.6806 L 1.77196,25.5049
 L 1.82793,25.2256 L 1.82976,25.0685 L 1.89559,24.7756 L 1.90042,24.6374 L 1.97687,24.3308 L 1.98379,24.2119
 L 2.07163,23.8916 L 2.07973,23.7923 L 2.17972,23.4583 L 2.18807,23.3789 L 2.21417,23.2986 L 2.22799,23.2296
 L 2.25945,23.1567 L 2.3386,22.8045 L 2.37979,22.7148 L 2.46181,22.3858 L 2.51364,22.2796 L 2.59742,21.974
 L 2.66081,21.8514 L 2.74527,21.5693 L 2.82114,21.4305 L 2.90515,21.1719 L 2.99441,21.0173 L 3.07688,20.7823
 L 3.18042,20.6122 L 3.26024,20.4006 L 3.37898,20.2154 L 3.45502,20.0272 L 3.58985,19.8273 L 3.66101,19.6623
 L 3.8128,19.4482 L 3.87799,19.3063 L 4.0476,19.0784 L 4.10571,18.9593 L 4.29401,18.7183 L 4.34395,18.6216
 L 4.55177,18.368 L 4.59246,18.2936 L 4.74074,18.121 L 4.75265,18.1034 L 4.77177,18.0849 L 4.81458,18.0351
 L 4.82525,18.02 L 4.85099,17.9754 L 4.87857,17.9448 L 5.00305,17.7692 L 5.06428,17.7128 L 5.26371,17.4449
 L 5.34415,17.3742 L 5.53437,17.1307 L 5.63481,17.0464 L 5.81478,16.8268 L 5.93597,16.7298 L 6.10465,16.5335
 L 6.24735,16.4246 L 6.40373,16.251 L 6.56864,16.1311 L 6.71173,15.9795 L 6.89952,15.8496 L 7.02838,15.7192
 L 7.23968,15.5803 L 7.35338,15.4705 L 7.58879,15.3234 L 7.68644,15.2334 L 7.94653,15.0791 L 8.02727,15.0081
 L 8.31255,14.8478 L 8.37556,14.7949 L 8.58746,14.6823 L 8.62031,14.6595 L 8.66634,14.6403 L 8.67908,14.6336
 L 8.69308,14.6243 L 8.73101,14.594 L 8.76577,14.5765 L 8.96715,14.4441 L 9.0439,14.4141 L 9.3213,14.2408
 L 9.42247,14.2039 L 9.68244,14.0498 L 9.80838,14.0072 L 10.0503,13.8713 L 10.2013,13.8242 L 10.4245,13.7055
 L 10.6008,13.655 L 10.8047,13.5525 L 11.0066,13.4997 L 11.1907,13.4125 L 11.4182,13.3586 L 11.5821,13.2857
 L 11.8354,13.2318 L 11.9785,13.1721 L 12.2576,13.1195 L 12.3797,13.0718 L 12.6847,13.0217 L 12.7852,12.9851
 L 13.1161,12.9386 L 13.1948,12.912 L 13.4076,12.8871 L 13.4487,12.8774 L 13.5014,12.8762 L 13.5175,12.8743
 L 13.584,12.8601 L 13.6082,12.8526 L 13.6284,12.8507 L 13.8519,12.8032 L 13.9368,12.8032 L 14.2589,12.7425
 L 14.3678,12.7451 L 14.6695,12.6955 L 14.802,12.7017 L 15.0832,12.6621 L 15.2391,12.6731 L 15.4997,12.6426
 L 15.6787,12.6593 L 15.9186,12.6369 L 16.1204,12.6605 L 16.3397,12.6452 L 16.5638,12.6766 L 16.7626,12.6674
 L 17.0085,12.7078 L 17.1869,12.7037 L 17.4542,12.754 L 17.6,12.754 L 17.6,-0 L 17.5759,-0.921112
 L 17.5036,-1.8397 L 17.3833,-2.75325 L 17.2154,-3.65925 L 17.0003,-4.55521 L 16.7386,-5.4387 L 16.431,-6.30728
 L 16.0784,-7.15856 L 15.6817,-7.99023 L 15.242,-8.8 L 14.7606,-9.58565 L 14.2387,-10.345 L 13.6778,-11.076
 L 13.0793,-11.7767 L 12.4451,-12.4451 L 11.7767,-13.0793 L 11.076,-13.6778 L 10.345,-14.2387 L 9.58565,-14.7606
 L 8.8,-15.242 L 7.99023,-15.6817 L 7.15856,-16.0784 L -18.6124,-27.6111 L -20.1436,-28.6932 L -21.6761,-29.8376
 L -23.1781,-31.0217 L -24.6487,-32.2447 L -26.0867,-33.5058 L -27.4912,-34.8041 L -28.8612,-36.1388 L -30.1959,-37.5088
 L -31.4942,-38.9133 L -32.7553,-40.3513 L -33.9783,-41.8219 L -35.1624,-43.3239 L -36.3068,-44.8564 L -37.4107,-46.4184
 L -38.4733,-48.0087 L -39.4939,-49.6263 L -40.4718,-51.27 L -41.4064,-52.9388 L -42.2969,-54.6315 L -43.1429,-56.3469
 L -43.9436,-58.0838 L -44.6986,-59.8411 L -45.4074,-61.6176 L -46.0694,-63.4121 L -46.6842,-65.2232 L -47.2514,-67.0498
 L -47.7705,-68.8907 L -48.2413,-70.7445 L -48.6635,-72.61 L -49.0366,-74.4859 L -49.3605,-76.3709 L -49.635,-78.2638
 L -49.7248,-79.0227 L -43.7118,-80.3008 L -43.4675,-80.3595 L -43.2265,-80.4309 L -42.9896,-80.5148 L -42.7574,-80.6109
 L -42.5306,-80.7191 L -42.3098,-80.839 L -42.0955,-80.9703 L -41.8884,-81.1127 L -41.689,-81.2657 L -41.498,-81.4289
 L -41.3157,-81.6018 L -41.1427,-81.7841 L -40.9795,-81.9752 L -40.8265,-82.1746 L -40.6842,-82.3817 L -40.5529,-82.596
 L -40.433,-82.8168 L -40.3248,-83.0436 L -40.2286,-83.2758 L -40.1447,-83.5127 L -40.0733,-83.7536 L -40.0147,-83.998
 L -39.9689,-84.2451 L -39.9361,-84.4942 L -39.9164,-84.7447 L -39.9098,-84.996 L -39.9164,-85.2472 L -39.9361,-85.4977
 L -39.9689,-85.7468 L -40.0147,-85.9939 L -40.0733,-86.2383 L -40.1447,-86.4792 L -40.2286,-86.7161 L -40.3248,-86.9483
 L -40.433,-87.1751 L -40.5529,-87.396 L -40.6842,-87.6102 L -40.8265,-87.8173 L -40.9795,-88.0167 L -41.1427,-88.2078
 L -41.3157,-88.3901 L -41.498,-88.563 L -41.689,-88.7263 L -41.8884,-88.8792 L -42.0955,-89.0216 L -42.3098,-89.1529
 L -42.5306,-89.2728 L -42.7574,-89.381 L -42.9896,-89.4771 L -43.2265,-89.561 L -43.4675,-89.6324 L -43.7118,-89.6911
 L -43.9589,-89.7369 L -44.208,-89.7697 L -44.4586,-89.7894 L -44.7098,-89.796 L -44.961,-89.7894 L -45.2115,-89.7697
 L -45.4607,-89.7369 L -45.7078,-89.6911 L -55.098,-87.6951 L -55.3423,-87.6364 L -55.5833,-87.5651 L -55.8202,-87.4812
 L -56.0523,-87.385 L -56.2792,-87.2768 L -56.5,-87.1569 L -56.7143,-87.0256 L -56.9214,-86.8833 L -57.1207,-86.7303
 L -57.3118,-86.5671 L -57.4941,-86.3941 L -57.6671,-86.2118 L -57.8303,-86.0207 L -57.9833,-85.8214 L -58.1256,-85.6143
 L -58.2569,-85.4 L -58.3768,-85.1792 L -58.485,-84.9523 L -58.5812,-84.7202 L -58.6651,-84.4833 L -58.7364,-84.2423
 L -58.7951,-83.998 L -58.8409,-83.7509 L -58.8737,-83.5017 L -58.8934,-83.2512 L -58.9,-83 L -58.8934,-82.7488
 L -58.8737,-82.4983 L -58.8409,-82.2491 L -58.8046,-82.0534 L -58.872,-80.3387 z
M -10.975,1.64786 L -10.975,-1.64786 L -10.9633,-1.73642 L -10.8574,-2.30782 L -10.7218,-2.87289 L -10.5567,-3.43009
 L -10.3627,-3.97788 L -10.1404,-4.51478 L -9.89017,-5.03929 L -9.61288,-5.55 L -9.30924,-6.04549 L -8.98009,-6.52442
 L -8.62632,-6.98546 L -8.24891,-7.42735 L -7.84888,-7.84888 L -7.42735,-8.24891 L -6.98546,-8.62632 L -6.52442,-8.98009
 L -6.04549,-9.30924 L -5.55,-9.61288 L -5.03929,-9.89017 L -4.51478,-10.1404 L -3.97788,-10.3627 L -3.43009,-10.5567
 L -2.87289,-10.7218 L -2.30782,-10.8574 L -1.73642,-10.9633 L -1.45796,-11 L 1.45796,-11 L 1.73642,-10.9633
 L 2.30782,-10.8574 L 2.87289,-10.7218 L 3.43009,-10.5567 L 3.97788,-10.3627 L 4.51478,-10.1404 L 5.03929,-9.89017
 L 5.55,-9.61288 L 6.04549,-9.30924 L 6.52442,-8.98009 L 6.98546,-8.62632 L 7.42735,-8.24891 L 7.84888,-7.84888
 L 8.24891,-7.42735 L 8.62632,-6.98546 L 8.98009,-6.52442 L 9.30924,-6.04549 L 9.61288,-5.55 L 9.89017,-5.03929
 L 10.1404,-4.51478 L 10.3627,-3.97788 L 10.5567,-3.43009 L 10.7218,-2.87289 L 10.8574,-2.30782 L 10.9633,-1.73642
 L 10.975,-1.64786 L 10.975,1.64786 L 10.9633,1.73642 L 10.8574,2.30782 L 10.7218,2.87289 L 10.5567,3.43009
 L 10.3627,3.97788 L 10.1404,4.51478 L 9.89017,5.03929 L 9.61288,5.55 L 9.30924,6.04549 L 8.98009,6.52442
 L 8.62632,6.98546 L 8.24891,7.42735 L 7.84888,7.84888 L 7.42735,8.24891 L 6.98546,8.62632 L 6.52442,8.98009
 L 6.04549,9.30924 L 5.55,9.61288 L 5.03929,9.89017 L 4.51478,10.1404 L 3.97788,10.3627 L 3.43009,10.5567
 L 2.87289,10.7218 L 2.30782,10.8574 L 1.73642,10.9633 L 1.45796,11 L -1.45796,11 L -1.73642,10.9633
 L -2.30782,10.8574 L -2.87289,10.7218 L -3.43009,10.5567 L -3.97788,10.3627 L -4.51478,10.1404 L -5.03929,9.89017
 L -5.55,9.61288 L -6.04549,9.30924 L -6.52442,8.98009 L -6.98546,8.62632 L -7.42735,8.24891 L -7.84888,7.84888
 L -8.24891,7.42735 L -8.62632,6.98546 L -8.98009,6.52442 L -9.30924,6.04549 L -9.61288,5.55 L -9.89017,5.03929
 L -10.1404,4.51478 L -10.3627,3.97788 L -10.5567,3.43009 L -10.7218,2.87289 L -10.8574,2.30782 L -10.9633,1.73642
 z
" stroke="black" fill="lightgray" stroke-width="0.5"/></svg>
