  0
SECTION
  2
BLOCKS
  0
ENDSEC
  0
SECTION
  2
ENTITIES
  0
LINE
  8
0
 10
-8.68
 20
-13.8625
 11
-7.75852
 21
-13.8625
  0
LINE
  8
0
 10
-7.75852
 20
-13.8625
 11
-7.52772
 21
-13.6396
  0
LINE
  8
0
 10
-7.52772
 20
-13.6396
 11
-6.92619
 21
-13.1349
  0
LINE
  8
0
 10
-6.92619
 20
-13.1349
 11
-6.29092
 21
-12.6733
  0
LINE
  8
0
 10
-6.29092
 20
-12.6733
 11
-5.625
 21
-12.2572
  0
LINE
  8
0
 10
-5.625
 20
-12.2572
 11
-4.93167
 21
-11.8886
  0
LINE
  8
0
 10
-4.93167
 20
-11.8886
 11
-4.21432
 21
-11.5692
  0
LINE
  8
0
 10
-4.21432
 20
-11.5692
 11
-3.47644
 21
-11.3006
  0
LINE
  8
0
 10
-3.47644
 20
-11.3006
 11
-2.72162
 21
-11.0842
  0
LINE
  8
0
 10
-2.72162
 20
-11.0842
 11
-1.95354
 21
-10.9209
  0
LINE
  8
0
 10
-1.95354
 20
-10.9209
 11
-1.17594
 21
-10.8116
  0
LINE
  8
0
 10
-1.17594
 20
-10.8116
 11
-0.392619
 21
-10.7569
  0
LINE
  8
0
 10
-0.392619
 20
-10.7569
 11
0.392619
 21
-10.7569
  0
LINE
  8
0
 10
0.392619
 20
-10.7569
 11
1.17594
 21
-10.8116
  0
LINE
  8
0
 10
1.17594
 20
-10.8116
 11
1.95354
 21
-10.9209
  0
LINE
  8
0
 10
1.95354
 20
-10.9209
 11
2.72162
 21
-11.0842
  0
LINE
  8
0
 10
2.72162
 20
-11.0842
 11
3.47644
 21
-11.3006
  0
LINE
  8
0
 10
3.47644
 20
-11.3006
 11
4.21432
 21
-11.5692
  0
LINE
  8
0
 10
4.21432
 20
-11.5692
 11
4.93167
 21
-11.8886
  0
LINE
  8
0
 10
4.93167
 20
-11.8886
 11
5.625
 21
-12.2572
  0
LINE
  8
0
 10
5.625
 20
-12.2572
 11
6.29092
 21
-12.6733
  0
LINE
  8
0
 10
6.29092
 20
-12.6733
 11
6.92619
 21
-13.1349
  0
LINE
  8
0
 10
6.92619
 20
-13.1349
 11
7.52772
 21
-13.6396
  0
LINE
  8
0
 10
7.52772
 20
-13.6396
 11
7.75852
 21
-13.8625
  0
LINE
  8
0
 10
7.75852
 20
-13.8625
 11
8.68
 21
-13.8625
  0
LINE
  8
0
 10
8.68
 20
-13.8625
 11
8.68
 21
13.8625
  0
LINE
  8
0
 10
8.68
 20
13.8625
 11
7.75852
 21
13.8625
  0
LINE
  8
0
 10
7.75852
 20
13.8625
 11
7.52772
 21
13.6396
  0
LINE
  8
0
 10
7.52772
 20
13.6396
 11
6.92619
 21
13.1349
  0
LINE
  8
0
 10
6.92619
 20
13.1349
 11
6.29092
 21
12.6733
  0
LINE
  8
0
 10
6.29092
 20
12.6733
 11
5.625
 21
12.2572
  0
LINE
  8
0
 10
5.625
 20
12.2572
 11
4.93167
 21
11.8886
  0
LINE
  8
0
 10
4.93167
 20
11.8886
 11
4.21432
 21
11.5692
  0
LINE
  8
0
 10
4.21432
 20
11.5692
 11
3.47644
 21
11.3006
  0
LINE
  8
0
 10
3.47644
 20
11.3006
 11
2.72162
 21
11.0842
  0
LINE
  8
0
 10
2.72162
 20
11.0842
 11
1.95354
 21
10.9209
  0
LINE
  8
0
 10
1.95354
 20
10.9209
 11
1.17594
 21
10.8116
  0
LINE
  8
0
 10
1.17594
 20
10.8116
 11
0.392619
 21
10.7569
  0
LINE
  8
0
 10
0.392619
 20
10.7569
 11
-0.392619
 21
10.7569
  0
LINE
  8
0
 10
-0.392619
 20
10.7569
 11
-1.17594
 21
10.8116
  0
LINE
  8
0
 10
-1.17594
 20
10.8116
 11
-1.95354
 21
10.9209
  0
LINE
  8
0
 10
-1.95354
 20
10.9209
 11
-2.72162
 21
11.0842
  0
LINE
  8
0
 10
-2.72162
 20
11.0842
 11
-3.47644
 21
11.3006
  0
LINE
  8
0
 10
-3.47644
 20
11.3006
 11
-4.21432
 21
11.5692
  0
LINE
  8
0
 10
-4.21432
 20
11.5692
 11
-4.93167
 21
11.8886
  0
LINE
  8
0
 10
-4.93167
 20
11.8886
 11
-5.625
 21
12.2572
  0
LINE
  8
0
 10
-5.625
 20
12.2572
 11
-6.29092
 21
12.6733
  0
LINE
  8
0
 10
-6.29092
 20
12.6733
 11
-6.92619
 21
13.1349
  0
LINE
  8
0
 10
-6.92619
 20
13.1349
 11
-7.52772
 21
13.6396
  0
LINE
  8
0
 10
-7.52772
 20
13.6396
 11
-7.75852
 21
13.8625
  0
LINE
  8
0
 10
-7.75852
 20
13.8625
 11
-8.68
 21
13.8625
  0
LINE
  8
0
 10
-8.68
 20
13.8625
 11
-8.68
 21
-13.8625
  0
LINE
  8
0
 10
-5.95
 20
-1.07521
 11
-5.95
 21
1.07521
  0
LINE
  8
0
 10
-5.95
 20
1.07521
 11
-5.91779
 21
1.25786
  0
LINE
  8
0
 10
-5.91779
 20
1.25786
 11
-5.81563
 21
1.66761
  0
LINE
  8
0
 10
-5.81563
 20
1.66761
 11
-5.68514
 21
2.06922
  0
LINE
  8
0
 10
-5.68514
 20
2.06922
 11
-5.52695
 21
2.46076
  0
LINE
  8
0
 10
-5.52695
 20
2.46076
 11
-5.34183
 21
2.8403
  0
LINE
  8
0
 10
-5.34183
 20
2.8403
 11
-5.13069
 21
3.20601
  0
LINE
  8
0
 10
-5.13069
 20
3.20601
 11
-4.89455
 21
3.5561
  0
LINE
  8
0
 10
-4.89455
 20
3.5561
 11
-4.63457
 21
3.88886
  0
LINE
  8
0
 10
-4.63457
 20
3.88886
 11
-4.35201
 21
4.20268
  0
LINE
  8
0
 10
-4.35201
 20
4.20268
 11
-4.25411
 21
4.29722
  0
LINE
  8
0
 10
-4.25411
 20
4.29722
 11
4.25411
 21
4.29722
  0
LINE
  8
0
 10
4.25411
 20
4.29722
 11
4.35201
 21
4.20268
  0
LINE
  8
0
 10
4.35201
 20
4.20268
 11
4.63457
 21
3.88886
  0
LINE
  8
0
 10
4.63457
 20
3.88886
 11
4.89455
 21
3.5561
  0
LINE
  8
0
 10
4.89455
 20
3.5561
 11
5.13069
 21
3.20601
  0
LINE
  8
0
 10
5.13069
 20
3.20601
 11
5.34183
 21
2.8403
  0
LINE
  8
0
 10
5.34183
 20
2.8403
 11
5.52695
 21
2.46076
  0
LINE
  8
0
 10
5.52695
 20
2.46076
 11
5.68514
 21
2.06922
  0
LINE
  8
0
 10
5.68514
 20
2.06922
 11
5.81563
 21
1.66761
  0
LINE
  8
0
 10
5.81563
 20
1.66761
 11
5.91779
 21
1.25786
  0
LINE
  8
0
 10
5.91779
 20
1.25786
 11
5.95
 21
1.07521
  0
LINE
  8
0
 10
5.95
 20
1.07521
 11
5.95
 21
-1.07521
  0
LINE
  8
0
 10
5.95
 20
-1.07521
 11
5.91779
 21
-1.25786
  0
LINE
  8
0
 10
5.91779
 20
-1.25786
 11
5.81563
 21
-1.66761
  0
LINE
  8
0
 10
5.81563
 20
-1.66761
 11
5.68514
 21
-2.06922
  0
LINE
  8
0
 10
5.68514
 20
-2.06922
 11
5.52695
 21
-2.46076
  0
LINE
  8
0
 10
5.52695
 20
-2.46076
 11
5.34183
 21
-2.8403
  0
LINE
  8
0
 10
5.34183
 20
-2.8403
 11
5.13069
 21
-3.20601
  0
LINE
  8
0
 10
5.13069
 20
-3.20601
 11
4.89455
 21
-3.5561
  0
LINE
  8
0
 10
4.89455
 20
-3.5561
 11
4.63457
 21
-3.88886
  0
LINE
  8
0
 10
4.63457
 20
-3.88886
 11
4.35201
 21
-4.20268
  0
LINE
  8
0
 10
4.35201
 20
-4.20268
 11
4.25411
 21
-4.29722
  0
LINE
  8
0
 10
4.25411
 20
-4.29722
 11
-4.25411
 21
-4.29722
  0
LINE
  8
0
 10
-4.25411
 20
-4.29722
 11
-4.35201
 21
-4.20268
  0
LINE
  8
0
 10
-4.35201
 20
-4.20268
 11
-4.63457
 21
-3.88886
  0
LINE
  8
0
 10
-4.63457
 20
-3.88886
 11
-4.89455
 21
-3.5561
  0
LINE
  8
0
 10
-4.89455
 20
-3.5561
 11
-5.13069
 21
-3.20601
  0
LINE
  8
0
 10
-5.13069
 20
-3.20601
 11
-5.34183
 21
-2.8403
  0
LINE
  8
0
 10
-5.34183
 20
-2.8403
 11
-5.52695
 21
-2.46076
  0
LINE
  8
0
 10
-5.52695
 20
-2.46076
 11
-5.68514
 21
-2.06922
  0
LINE
  8
0
 10
-5.68514
 20
-2.06922
 11
-5.81563
 21
-1.66761
  0
LINE
  8
0
 10
-5.81563
 20
-1.66761
 11
-5.91779
 21
-1.25786
  0
LINE
  8
0
 10
-5.91779
 20
-1.25786
 11
-5.95
 21
-1.07521
  0
ENDSEC
  0
SECTION
  2
OBJECTS
  0
DICTIONARY
  0
ENDSEC
  0
EOF
