  0
SECTION
  2
BLOCKS
  0
ENDSEC
  0
SECTION
  2
ENTITIES
  0
LINE
  8
0
 10
-33.6567
 20
-15.625
 11
-33.6297
 21
-15.8824
  0
LINE
  8
0
 10
-33.6297
 20
-15.8824
 11
-33.6041
 21
-16.1254
  0
LINE
  8
0
 10
-33.6041
 20
-16.1254
 11
-33.5286
 21
-16.3578
  0
LINE
  8
0
 10
-33.5286
 20
-16.3578
 11
-33.4486
 21
-16.6039
  0
LINE
  8
0
 10
-33.4486
 20
-16.6039
 11
-33.3265
 21
-16.8155
  0
LINE
  8
0
 10
-33.3265
 20
-16.8155
 11
-33.1971
 21
-17.0396
  0
LINE
  8
0
 10
-33.1971
 20
-17.0396
 11
-33.0239
 21
-17.2319
  0
LINE
  8
0
 10
-33.0239
 20
-17.2319
 11
-32.8604
 21
-17.4135
  0
LINE
  8
0
 10
-32.8604
 20
-17.4135
 11
-32.651
 21
-17.5657
  0
LINE
  8
0
 10
-32.651
 20
-17.5657
 11
-32.4534
 21
-17.7093
  0
LINE
  8
0
 10
-32.4534
 20
-17.7093
 11
-32.2169
 21
-17.8145
  0
LINE
  8
0
 10
-32.2169
 20
-17.8145
 11
-31.9937
 21
-17.9139
  0
LINE
  8
0
 10
-31.9937
 20
-17.9139
 11
-31.7547
 21
-17.9647
  0
LINE
  8
0
 10
-31.7547
 20
-17.9647
 11
-31.5016
 21
-18.0185
  0
LINE
  8
0
 10
-31.5016
 20
-18.0185
 11
31.5016
 21
-18.0185
  0
LINE
  8
0
 10
31.5016
 20
-18.0185
 11
31.7547
 21
-17.9647
  0
LINE
  8
0
 10
31.7547
 20
-17.9647
 11
31.9937
 21
-17.9139
  0
LINE
  8
0
 10
31.9937
 20
-17.9139
 11
32.2169
 21
-17.8145
  0
LINE
  8
0
 10
32.2169
 20
-17.8145
 11
32.4534
 21
-17.7093
  0
LINE
  8
0
 10
32.4534
 20
-17.7093
 11
32.651
 21
-17.5657
  0
LINE
  8
0
 10
32.651
 20
-17.5657
 11
32.8604
 21
-17.4135
  0
LINE
  8
0
 10
32.8604
 20
-17.4135
 11
33.0239
 21
-17.2319
  0
LINE
  8
0
 10
33.0239
 20
-17.2319
 11
33.1971
 21
-17.0396
  0
LINE
  8
0
 10
33.1971
 20
-17.0396
 11
33.3265
 21
-16.8155
  0
LINE
  8
0
 10
33.3265
 20
-16.8155
 11
33.4486
 21
-16.6039
  0
LINE
  8
0
 10
33.4486
 20
-16.6039
 11
33.5286
 21
-16.3578
  0
LINE
  8
0
 10
33.5286
 20
-16.3578
 11
33.6041
 21
-16.1254
  0
LINE
  8
0
 10
33.6041
 20
-16.1254
 11
33.6297
 21
-15.8824
  0
LINE
  8
0
 10
33.6297
 20
-15.8824
 11
33.6567
 21
-15.625
  0
LINE
  8
0
 10
33.6567
 20
-15.625
 11
33.6567
 21
15.625
  0
LINE
  8
0
 10
33.6567
 20
15.625
 11
33.6297
 21
15.8824
  0
LINE
  8
0
 10
33.6297
 20
15.8824
 11
33.6041
 21
16.1254
  0
LINE
  8
0
 10
33.6041
 20
16.1254
 11
33.5286
 21
16.3578
  0
LINE
  8
0
 10
33.5286
 20
16.3578
 11
33.4486
 21
16.6039
  0
LINE
  8
0
 10
33.4486
 20
16.6039
 11
33.3265
 21
16.8155
  0
LINE
  8
0
 10
33.3265
 20
16.8155
 11
33.1971
 21
17.0396
  0
LINE
  8
0
 10
33.1971
 20
17.0396
 11
33.0239
 21
17.2319
  0
LINE
  8
0
 10
33.0239
 20
17.2319
 11
32.8604
 21
17.4135
  0
LINE
  8
0
 10
32.8604
 20
17.4135
 11
32.651
 21
17.5657
  0
LINE
  8
0
 10
32.651
 20
17.5657
 11
32.4534
 21
17.7093
  0
LINE
  8
0
 10
32.4534
 20
17.7093
 11
32.2169
 21
17.8145
  0
LINE
  8
0
 10
32.2169
 20
17.8145
 11
31.9937
 21
17.9139
  0
LINE
  8
0
 10
31.9937
 20
17.9139
 11
31.7547
 21
17.9647
  0
LINE
  8
0
 10
31.7547
 20
17.9647
 11
31.5016
 21
18.0185
  0
LINE
  8
0
 10
31.5016
 20
18.0185
 11
-31.5016
 21
18.0185
  0
LINE
  8
0
 10
-31.5016
 20
18.0185
 11
-31.7547
 21
17.9647
  0
LINE
  8
0
 10
-31.7547
 20
17.9647
 11
-31.9937
 21
17.9139
  0
LINE
  8
0
 10
-31.9937
 20
17.9139
 11
-32.2169
 21
17.8145
  0
LINE
  8
0
 10
-32.2169
 20
17.8145
 11
-32.4534
 21
17.7093
  0
LINE
  8
0
 10
-32.4534
 20
17.7093
 11
-32.651
 21
17.5657
  0
LINE
  8
0
 10
-32.651
 20
17.5657
 11
-32.8604
 21
17.4135
  0
LINE
  8
0
 10
-32.8604
 20
17.4135
 11
-33.0239
 21
17.2319
  0
LINE
  8
0
 10
-33.0239
 20
17.2319
 11
-33.1971
 21
17.0396
  0
LINE
  8
0
 10
-33.1971
 20
17.0396
 11
-33.3265
 21
16.8155
  0
LINE
  8
0
 10
-33.3265
 20
16.8155
 11
-33.4486
 21
16.6039
  0
LINE
  8
0
 10
-33.4486
 20
16.6039
 11
-33.5286
 21
16.3578
  0
LINE
  8
0
 10
-33.5286
 20
16.3578
 11
-33.6041
 21
16.1254
  0
LINE
  8
0
 10
-33.6041
 20
16.1254
 11
-33.6297
 21
15.8824
  0
LINE
  8
0
 10
-33.6297
 20
15.8824
 11
-33.6567
 21
15.625
  0
LINE
  8
0
 10
-33.6567
 20
15.625
 11
-33.6567
 21
-15.625
  0
LINE
  8
0
 10
-4.55
 20
-2.82076
 11
-4.55
 21
2.82076
  0
LINE
  8
0
 10
-4.55
 20
2.82076
 11
-4.5437
 21
3.49278
  0
LINE
  8
0
 10
-4.5437
 20
3.49278
 11
-4.53542
 21
4.07032
  0
LINE
  8
0
 10
-4.53542
 20
4.07032
 11
-4.5267
 21
4.44273
  0
LINE
  8
0
 10
-4.5267
 20
4.44273
 11
-4.52607
 21
4.46996
  0
LINE
  8
0
 10
-4.52607
 20
4.46996
 11
-4.52576
 21
4.47619
  0
LINE
  8
0
 10
-4.52576
 20
4.47619
 11
-4.525
 21
4.49173
  0
LINE
  8
0
 10
-4.525
 20
4.49173
 11
4.525
 21
4.49173
  0
LINE
  8
0
 10
4.525
 20
4.49173
 11
4.52576
 21
4.47619
  0
LINE
  8
0
 10
4.52576
 20
4.47619
 11
4.52607
 21
4.46996
  0
LINE
  8
0
 10
4.52607
 20
4.46996
 11
4.53542
 21
4.07032
  0
LINE
  8
0
 10
4.53542
 20
4.07032
 11
4.54057
 21
3.7105
  0
LINE
  8
0
 10
4.54057
 20
3.7105
 11
4.5437
 21
3.49278
  0
LINE
  8
0
 10
4.5437
 20
3.49278
 11
4.55
 21
2.82076
  0
LINE
  8
0
 10
4.55
 20
2.82076
 11
4.55
 21
-2.82076
  0
LINE
  8
0
 10
4.55
 20
-2.82076
 11
4.5437
 21
-3.49278
  0
LINE
  8
0
 10
4.5437
 20
-3.49278
 11
4.54057
 21
-3.7105
  0
LINE
  8
0
 10
4.54057
 20
-3.7105
 11
4.53542
 21
-4.07032
  0
LINE
  8
0
 10
4.53542
 20
-4.07032
 11
4.52607
 21
-4.46996
  0
LINE
  8
0
 10
4.52607
 20
-4.46996
 11
4.52576
 21
-4.47619
  0
LINE
  8
0
 10
4.52576
 20
-4.47619
 11
4.525
 21
-4.49173
  0
LINE
  8
0
 10
4.525
 20
-4.49173
 11
-4.525
 21
-4.49173
  0
LINE
  8
0
 10
-4.525
 20
-4.49173
 11
-4.52576
 21
-4.47619
  0
LINE
  8
0
 10
-4.52576
 20
-4.47619
 11
-4.52607
 21
-4.46996
  0
LINE
  8
0
 10
-4.52607
 20
-4.46996
 11
-4.53542
 21
-4.07032
  0
LINE
  8
0
 10
-4.53542
 20
-4.07032
 11
-4.54057
 21
-3.7105
  0
LINE
  8
0
 10
-4.54057
 20
-3.7105
 11
-4.5437
 21
-3.49278
  0
LINE
  8
0
 10
-4.5437
 20
-3.49278
 11
-4.55
 21
-2.82076
  0
ENDSEC
  0
SECTION
  2
OBJECTS
  0
DICTIONARY
  0
ENDSEC
  0
EOF
