<?xml version="1.0" standalone="no"?>
<!DOCTYPE svg PUBLIC "-//W3C//DTD SVG 1.1//EN" "http://www.w3.org/Graphics/SVG/1.1/DTD/svg11.dtd">
<svg width="18" height="16" viewBox="-9 -8 18 16" xmlns="http://www.w3.org/2000/svg" version="1.1">
<title>OpenSCAD Model</title>
<path d="
M -8.38,7.16875 L -7.83338,7.16875 L -7.61136,6.94673 L -6.68606,6.19743 L -5.6875,5.54896 L -4.62663,5.00842
 L -3.51507,4.58173 L -2.365,4.27357 L -1.18901,4.08731 L 0,4.025 L 1.18901,4.08731 L 2.365,4.27357
 L 3.51507,4.58173 L 4.62663,5.00842 L 5.6875,5.54896 L 6.68606,6.19743 L 7.61136,6.94673 L 7.83338,7.16875
 L 8.38,7.16875 L 8.38,-7.16875 L 7.83338,-7.16875 L 7.61136,-6.94673 L 6.68606,-6.19743 L 5.6875,-5.54896
 L 4.62663,-5.00842 L 3.51507,-4.58173 L 2.365,-4.27357 L 1.18901,-4.08731 L 0,-4.025 L -1.18901,-4.08731
 L -2.365,-4.27357 L -3.51507,-4.58173 L -4.62663,-5.00842 L -5.6875,-5.54896 L -6.68606,-6.19743 L -7.61136,-6.94673
 L -7.83338,-7.16875 L -8.38,-7.16875 z
M -2.975,0.761753 L -2.975,-0.761753 L -2.9245,-0.950227 L -2.80915,-1.25071 L -2.66303,-1.5375 L -2.48773,-1.80744
 L -2.28517,-2.05758 L -2.05758,-2.28517 L -1.80744,-2.48773 L -1.5375,-2.66303 L -1.25071,-2.80915 L -0.950227,-2.9245
 L -0.639328,-3.0078 L -0.321424,-3.05815 L 0,-3.075 L 0.321424,-3.05815 L 0.639328,-3.0078 L 0.950227,-2.9245
 L 1.25071,-2.80915 L 1.5375,-2.66303 L 1.80744,-2.48773 L 2.05758,-2.28517 L 2.28517,-2.05758 L 2.48773,-1.80744
 L 2.66303,-1.5375 L 2.80915,-1.25071 L 2.9245,-0.950227 L 2.975,-0.761753 L 2.975,0.761753 L 2.9245,0.950227
 L 2.80915,1.25071 L 2.66303,1.5375 L 2.48773,1.80744 L 2.28517,2.05758 L 2.05758,2.28517 L 1.81801,2.47917
 L -1.81801,2.47917 L -2.05758,2.28517 L -2.28517,2.05758 L -2.48773,1.80744 L -2.66303,1.5375 L -2.80915,1.25071
 L -2.9245,0.950227 z
" stroke="black" fill="lightgray" stroke-width="0.5"/></svg>
