  0
SECTION
  2
BLOCKS
  0
ENDSEC
  0
SECTION
  2
ENTITIES
  0
LINE
  8
0
 10
-8.68
 20
-13.8625
 11
-7.7284
 21
-13.8625
  0
LINE
  8
0
 10
-7.7284
 20
-13.8625
 11
-7.52772
 21
-13.6396
  0
LINE
  8
0
 10
-7.52772
 20
-13.6396
 11
-5.625
 21
-12.2572
  0
LINE
  8
0
 10
-5.625
 20
-12.2572
 11
-3.47644
 21
-11.3006
  0
LINE
  8
0
 10
-3.47644
 20
-11.3006
 11
-1.17594
 21
-10.8116
  0
LINE
  8
0
 10
-1.17594
 20
-10.8116
 11
1.17594
 21
-10.8116
  0
LINE
  8
0
 10
1.17594
 20
-10.8116
 11
3.47644
 21
-11.3006
  0
LINE
  8
0
 10
3.47644
 20
-11.3006
 11
5.625
 21
-12.2572
  0
LINE
  8
0
 10
5.625
 20
-12.2572
 11
7.52772
 21
-13.6396
  0
LINE
  8
0
 10
7.52772
 20
-13.6396
 11
7.7284
 21
-13.8625
  0
LINE
  8
0
 10
7.7284
 20
-13.8625
 11
8.68
 21
-13.8625
  0
LINE
  8
0
 10
8.68
 20
-13.8625
 11
8.68
 21
13.8625
  0
LINE
  8
0
 10
8.68
 20
13.8625
 11
7.7284
 21
13.8625
  0
LINE
  8
0
 10
7.7284
 20
13.8625
 11
7.52772
 21
13.6396
  0
LINE
  8
0
 10
7.52772
 20
13.6396
 11
5.625
 21
12.2572
  0
LINE
  8
0
 10
5.625
 20
12.2572
 11
3.47644
 21
11.3006
  0
LINE
  8
0
 10
3.47644
 20
11.3006
 11
1.17594
 21
10.8116
  0
LINE
  8
0
 10
1.17594
 20
10.8116
 11
-1.17594
 21
10.8116
  0
LINE
  8
0
 10
-1.17594
 20
10.8116
 11
-3.47644
 21
11.3006
  0
LINE
  8
0
 10
-3.47644
 20
11.3006
 11
-5.625
 21
12.2572
  0
LINE
  8
0
 10
-5.625
 20
12.2572
 11
-7.52772
 21
13.6396
  0
LINE
  8
0
 10
-7.52772
 20
13.6396
 11
-7.7284
 21
13.8625
  0
LINE
  8
0
 10
-7.7284
 20
13.8625
 11
-8.68
 21
13.8625
  0
LINE
  8
0
 10
-8.68
 20
13.8625
 11
-8.68
 21
-13.8625
  0
LINE
  8
0
 10
-3.1
 20
0
 11
-3.03226
 21
0.644526
  0
LINE
  8
0
 10
-3.03226
 20
0.644526
 11
-2.83199
 21
1.26088
  0
LINE
  8
0
 10
-2.83199
 20
1.26088
 11
-2.50795
 21
1.82213
  0
LINE
  8
0
 10
-2.50795
 20
1.82213
 11
-2.0743
 21
2.30375
  0
LINE
  8
0
 10
-2.0743
 20
2.30375
 11
-1.55
 21
2.68468
  0
LINE
  8
0
 10
-1.55
 20
2.68468
 11
-0.957952
 21
2.94827
  0
LINE
  8
0
 10
-0.957952
 20
2.94827
 11
-0.324038
 21
3.08302
  0
LINE
  8
0
 10
-0.324038
 20
3.08302
 11
0.324038
 21
3.08302
  0
LINE
  8
0
 10
0.324038
 20
3.08302
 11
0.957952
 21
2.94827
  0
LINE
  8
0
 10
0.957952
 20
2.94827
 11
1.55
 21
2.68468
  0
LINE
  8
0
 10
1.55
 20
2.68468
 11
2.0743
 21
2.30375
  0
LINE
  8
0
 10
2.0743
 20
2.30375
 11
2.50795
 21
1.82213
  0
LINE
  8
0
 10
2.50795
 20
1.82213
 11
2.83199
 21
1.26088
  0
LINE
  8
0
 10
2.83199
 20
1.26088
 11
3.03226
 21
0.644526
  0
LINE
  8
0
 10
3.03226
 20
0.644526
 11
3.1
 21
0
  0
LINE
  8
0
 10
3.1
 20
0
 11
3.03226
 21
-0.644526
  0
LINE
  8
0
 10
3.03226
 20
-0.644526
 11
2.83199
 21
-1.26088
  0
LINE
  8
0
 10
2.83199
 20
-1.26088
 11
2.50795
 21
-1.82213
  0
LINE
  8
0
 10
2.50795
 20
-1.82213
 11
2.0743
 21
-2.30375
  0
LINE
  8
0
 10
2.0743
 20
-2.30375
 11
1.55
 21
-2.68468
  0
LINE
  8
0
 10
1.55
 20
-2.68468
 11
0.957952
 21
-2.94827
  0
LINE
  8
0
 10
0.957952
 20
-2.94827
 11
0.324038
 21
-3.08302
  0
LINE
  8
0
 10
0.324038
 20
-3.08302
 11
-0.324038
 21
-3.08302
  0
LINE
  8
0
 10
-0.324038
 20
-3.08302
 11
-0.957952
 21
-2.94827
  0
LINE
  8
0
 10
-0.957952
 20
-2.94827
 11
-1.55
 21
-2.68468
  0
LINE
  8
0
 10
-1.55
 20
-2.68468
 11
-2.0743
 21
-2.30375
  0
LINE
  8
0
 10
-2.0743
 20
-2.30375
 11
-2.50795
 21
-1.82213
  0
LINE
  8
0
 10
-2.50795
 20
-1.82213
 11
-2.83199
 21
-1.26088
  0
LINE
  8
0
 10
-2.83199
 20
-1.26088
 11
-3.03226
 21
-0.644526
  0
LINE
  8
0
 10
-3.03226
 20
-0.644526
 11
-3.1
 21
0
  0
ENDSEC
  0
SECTION
  2
OBJECTS
  0
DICTIONARY
  0
ENDSEC
  0
EOF
