  0
SECTION
  2
BLOCKS
  0
ENDSEC
  0
SECTION
  2
ENTITIES
  0
LINE
  8
0
 10
-60.54
 20
97.925
 11
-60.4775
 21
93.629
  0
LINE
  8
0
 10
-60.4775
 20
93.629
 11
-60.2901
 21
89.3383
  0
LINE
  8
0
 10
-60.2901
 20
89.3383
 11
-59.9781
 21
85.058
  0
LINE
  8
0
 10
-59.9781
 20
85.058
 11
-59.5417
 21
80.7933
  0
LINE
  8
0
 10
-59.5417
 20
80.7933
 11
-58.9816
 21
76.5496
  0
LINE
  8
0
 10
-58.9816
 20
76.5496
 11
-58.2984
 21
72.3319
  0
LINE
  8
0
 10
-58.2984
 20
72.3319
 11
-57.4929
 21
68.1454
  0
LINE
  8
0
 10
-57.4929
 20
68.1454
 11
-56.5662
 21
63.9951
  0
LINE
  8
0
 10
-56.5662
 20
63.9951
 11
-55.5194
 21
59.8862
  0
LINE
  8
0
 10
-55.5194
 20
59.8862
 11
-54.3537
 21
55.8237
  0
LINE
  8
0
 10
-54.3537
 20
55.8237
 11
-53.0705
 21
51.8124
  0
LINE
  8
0
 10
-53.0705
 20
51.8124
 11
-51.6715
 21
47.8573
  0
LINE
  8
0
 10
-51.6715
 20
47.8573
 11
-50.1625
 21
43.9741
  0
LINE
  8
0
 10
-50.1625
 20
43.9741
 11
-50.1782
 21
43.9649
  0
LINE
  8
0
 10
-50.1782
 20
43.9649
 11
-49.8009
 21
43.1216
  0
LINE
  8
0
 10
-49.8009
 20
43.1216
 11
-48.5328
 21
40.1349
  0
LINE
  8
0
 10
-48.5328
 20
40.1349
 11
-46.7969
 21
36.377
  0
LINE
  8
0
 10
-46.7969
 20
36.377
 11
-46.6689
 21
36.1214
  0
LINE
  8
0
 10
-46.6689
 20
36.1214
 11
8.0375
 21
-86.15
  0
LINE
  8
0
 10
8.0375
 20
-86.15
 11
14.8258
 21
-87.6549
  0
LINE
  8
0
 10
14.8258
 20
-87.6549
 11
15.0443
 21
-87.7014
  0
LINE
  8
0
 10
15.0443
 20
-87.7014
 11
15.2655
 21
-87.7325
  0
LINE
  8
0
 10
15.2655
 20
-87.7325
 11
15.4883
 21
-87.748
  0
LINE
  8
0
 10
15.4883
 20
-87.748
 11
15.7117
 21
-87.748
  0
LINE
  8
0
 10
15.7117
 20
-87.748
 11
15.9345
 21
-87.7325
  0
LINE
  8
0
 10
15.9345
 20
-87.7325
 11
16.1557
 21
-87.7014
  0
LINE
  8
0
 10
16.1557
 20
-87.7014
 11
16.3741
 21
-87.6549
  0
LINE
  8
0
 10
16.3741
 20
-87.6549
 11
16.5889
 21
-87.5934
  0
LINE
  8
0
 10
16.5889
 20
-87.5934
 11
21.6
 21
-86.15
  0
LINE
  8
0
 10
21.6
 20
-86.15
 11
21.6
 21
-81.2408
  0
LINE
  8
0
 10
21.6
 20
-81.2408
 11
20.8711
 21
-81.2408
  0
LINE
  8
0
 10
20.8711
 20
-81.2408
 11
18.6626
 21
-80.7714
  0
LINE
  8
0
 10
18.6626
 20
-80.7714
 11
16.6
 21
-79.8531
  0
LINE
  8
0
 10
16.6
 20
-79.8531
 11
14.7734
 21
-78.526
  0
LINE
  8
0
 10
14.7734
 20
-78.526
 11
13.2626
 21
-76.8481
  0
LINE
  8
0
 10
13.2626
 20
-76.8481
 11
12.1337
 21
-74.8928
  0
LINE
  8
0
 10
12.1337
 20
-74.8928
 11
11.436
 21
-72.7454
  0
LINE
  8
0
 10
11.436
 20
-72.7454
 11
11.436
 21
-72.7454
  0
LINE
  8
0
 10
11.436
 20
-72.7454
 11
11.2
 21
-70.5
  0
LINE
  8
0
 10
11.2
 20
-70.5
 11
11.2
 21
-70.5
  0
LINE
  8
0
 10
11.2
 20
-70.5
 11
11.2
 21
-70.5
  0
LINE
  8
0
 10
11.2
 20
-70.5
 11
11.2267
 21
-70.2459
  0
LINE
  8
0
 10
11.2267
 20
-70.2459
 11
11.2265
 21
-70.244
  0
LINE
  8
0
 10
11.2265
 20
-70.244
 11
11.2301
 21
-70.2135
  0
LINE
  8
0
 10
11.2301
 20
-70.2135
 11
11.254
 21
-69.9859
  0
LINE
  8
0
 10
11.254
 20
-69.9859
 11
11.2538
 21
-69.9835
  0
LINE
  8
0
 10
11.2538
 20
-69.9835
 11
11.2563
 21
-69.964
  0
LINE
  8
0
 10
11.2563
 20
-69.964
 11
11.282
 21
-69.7199
  0
LINE
  8
0
 10
11.282
 20
-69.7199
 11
11.2819
 21
-69.7183
  0
LINE
  8
0
 10
11.2819
 20
-69.7183
 11
11.283
 21
-69.7106
  0
LINE
  8
0
 10
11.283
 20
-69.7106
 11
11.436
 21
-68.2546
  0
LINE
  8
0
 10
11.436
 20
-68.2546
 11
11.4677
 21
-68.1571
  0
LINE
  8
0
 10
11.4677
 20
-68.1571
 11
11.4677
 21
-68.0327
  0
LINE
  8
0
 10
11.4677
 20
-68.0327
 11
11.5001
 21
-67.8801
  0
LINE
  8
0
 10
11.5001
 20
-67.8801
 11
11.5018
 21
-67.7362
  0
LINE
  8
0
 10
11.5018
 20
-67.7362
 11
11.5331
 21
-67.5969
  0
LINE
  8
0
 10
11.5331
 20
-67.5969
 11
11.5368
 21
-67.4353
  0
LINE
  8
0
 10
11.5368
 20
-67.4353
 11
11.5666
 21
-67.3097
  0
LINE
  8
0
 10
11.5666
 20
-67.3097
 11
11.5729
 21
-67.13
  0
LINE
  8
0
 10
11.5729
 20
-67.13
 11
11.6007
 21
-67.0184
  0
LINE
  8
0
 10
11.6007
 20
-67.0184
 11
11.6099
 21
-66.8205
  0
LINE
  8
0
 10
11.6099
 20
-66.8205
 11
11.6138
 21
-66.8059
  0
LINE
  8
0
 10
11.6138
 20
-66.8059
 11
11.6111
 21
-66.7737
  0
LINE
  8
0
 10
11.6111
 20
-66.7737
 11
11.6397
 21
-66.5517
  0
LINE
  8
0
 10
11.6397
 20
-66.5517
 11
11.631
 21
-66.427
  0
LINE
  8
0
 10
11.631
 20
-66.427
 11
11.6603
 21
-66.218
  0
LINE
  8
0
 10
11.6603
 20
-66.218
 11
11.6521
 21
-66.0758
  0
LINE
  8
0
 10
11.6521
 20
-66.0758
 11
11.6819
 21
-65.8803
  0
LINE
  8
0
 10
11.6819
 20
-65.8803
 11
11.6744
 21
-65.7204
  0
LINE
  8
0
 10
11.6744
 20
-65.7204
 11
11.7043
 21
-65.5386
  0
LINE
  8
0
 10
11.7043
 20
-65.5386
 11
11.6981
 21
-65.3606
  0
LINE
  8
0
 10
11.6981
 20
-65.3606
 11
11.7276
 21
-65.1931
  0
LINE
  8
0
 10
11.7276
 20
-65.1931
 11
11.723
 21
-64.9965
  0
LINE
  8
0
 10
11.723
 20
-64.9965
 11
11.7519
 21
-64.8436
  0
LINE
  8
0
 10
11.7519
 20
-64.8436
 11
11.7493
 21
-64.6282
  0
LINE
  8
0
 10
11.7493
 20
-64.6282
 11
11.777
 21
-64.4902
  0
LINE
  8
0
 10
11.777
 20
-64.4902
 11
11.777
 21
-64.2557
  0
LINE
  8
0
 10
11.777
 20
-64.2557
 11
11.8031
 21
-64.1329
  0
LINE
  8
0
 10
11.8031
 20
-64.1329
 11
11.806
 21
-63.8789
  0
LINE
  8
0
 10
11.806
 20
-63.8789
 11
11.8271
 21
-63.7851
  0
LINE
  8
0
 10
11.8271
 20
-63.7851
 11
11.8269
 21
-63.783
  0
LINE
  8
0
 10
11.8269
 20
-63.783
 11
11.8311
 21
-63.7316
  0
LINE
  8
0
 10
11.8311
 20
-63.7316
 11
11.8365
 21
-63.4981
  0
LINE
  8
0
 10
11.8365
 20
-63.4981
 11
11.8484
 21
-63.4477
  0
LINE
  8
0
 10
11.8484
 20
-63.4477
 11
11.84
 21
-63.3756
  0
LINE
  8
0
 10
11.84
 20
-63.3756
 11
11.8673
 21
-63.0834
  0
LINE
  8
0
 10
11.8673
 20
-63.0834
 11
11.8548
 21
-62.9641
  0
LINE
  8
0
 10
11.8548
 20
-62.9641
 11
11.884
 21
-62.6862
  0
LINE
  8
0
 10
11.884
 20
-62.6862
 11
11.8711
 21
-62.5484
  0
LINE
  8
0
 10
11.8711
 20
-62.5484
 11
11.9019
 21
-62.2852
  0
LINE
  8
0
 10
11.9019
 20
-62.2852
 11
11.8891
 21
-62.1285
  0
LINE
  8
0
 10
11.8891
 20
-62.1285
 11
11.921
 21
-61.8805
  0
LINE
  8
0
 10
11.921
 20
-61.8805
 11
11.9087
 21
-61.7046
  0
LINE
  8
0
 10
11.9087
 20
-61.7046
 11
11.9414
 21
-61.4721
  0
LINE
  8
0
 10
11.9414
 20
-61.4721
 11
11.93
 21
-61.2766
  0
LINE
  8
0
 10
11.93
 20
-61.2766
 11
11.963
 21
-61.06
  0
LINE
  8
0
 10
11.963
 20
-61.06
 11
11.953
 21
-60.8445
  0
LINE
  8
0
 10
11.953
 20
-60.8445
 11
11.9859
 21
-60.6442
  0
LINE
  8
0
 10
11.9859
 20
-60.6442
 11
11.9777
 21
-60.4085
  0
LINE
  8
0
 10
11.9777
 20
-60.4085
 11
12.0101
 21
-60.2248
  0
LINE
  8
0
 10
12.0101
 20
-60.2248
 11
12.0041
 21
-59.9686
  0
LINE
  8
0
 10
12.0041
 20
-59.9686
 11
12.0355
 21
-59.8018
  0
LINE
  8
0
 10
12.0355
 20
-59.8018
 11
12.0323
 21
-59.5247
  0
LINE
  8
0
 10
12.0323
 20
-59.5247
 11
12.0623
 21
-59.3752
  0
LINE
  8
0
 10
12.0623
 20
-59.3752
 11
12.0623
 21
-59.077
  0
LINE
  8
0
 10
12.0623
 20
-59.077
 11
12.0903
 21
-58.9451
  0
LINE
  8
0
 10
12.0903
 20
-58.9451
 11
12.094
 21
-58.6255
  0
LINE
  8
0
 10
12.094
 20
-58.6255
 11
12.1197
 21
-58.5114
  0
LINE
  8
0
 10
12.1197
 20
-58.5114
 11
12.1276
 21
-58.1702
  0
LINE
  8
0
 10
12.1276
 20
-58.1702
 11
12.1423
 21
-58.1081
  0
LINE
  8
0
 10
12.1423
 20
-58.1081
 11
12.1398
 21
-58.0888
  0
LINE
  8
0
 10
12.1398
 20
-58.0888
 11
12.1574
 21
-57.8743
  0
LINE
  8
0
 10
12.1574
 20
-57.8743
 11
12.1631
 21
-57.7112
  0
LINE
  8
0
 10
12.1631
 20
-57.7112
 11
12.1681
 21
-57.6909
  0
LINE
  8
0
 10
12.1681
 20
-57.6909
 11
12.1586
 21
-57.6094
  0
LINE
  8
0
 10
12.1586
 20
-57.6094
 11
12.1922
 21
-57.2492
  0
LINE
  8
0
 10
12.1922
 20
-57.2492
 11
12.1793
 21
-57.1262
  0
LINE
  8
0
 10
12.1793
 20
-57.1262
 11
12.2154
 21
-56.7828
  0
LINE
  8
0
 10
12.2154
 20
-56.7828
 11
12.202
 21
-56.6393
  0
LINE
  8
0
 10
12.202
 20
-56.6393
 11
12.2401
 21
-56.313
  0
LINE
  8
0
 10
12.2401
 20
-56.313
 11
12.2267
 21
-56.1487
  0
LINE
  8
0
 10
12.2267
 20
-56.1487
 11
12.2665
 21
-55.84
  0
LINE
  8
0
 10
12.2665
 20
-55.84
 11
12.2535
 21
-55.6545
  0
LINE
  8
0
 10
12.2535
 20
-55.6545
 11
12.2944
 21
-55.3636
  0
LINE
  8
0
 10
12.2944
 20
-55.3636
 11
12.2823
 21
-55.1566
  0
LINE
  8
0
 10
12.2823
 20
-55.1566
 11
12.3239
 21
-54.884
  0
LINE
  8
0
 10
12.3239
 20
-54.884
 11
12.3132
 21
-54.6552
  0
LINE
  8
0
 10
12.3132
 20
-54.6552
 11
12.355
 21
-54.4012
  0
LINE
  8
0
 10
12.355
 20
-54.4012
 11
12.3462
 21
-54.1503
  0
LINE
  8
0
 10
12.3462
 20
-54.1503
 11
12.3877
 21
-53.9151
  0
LINE
  8
0
 10
12.3877
 20
-53.9151
 11
12.3813
 21
-53.6419
  0
LINE
  8
0
 10
12.3813
 20
-53.6419
 11
12.422
 21
-53.4259
  0
LINE
  8
0
 10
12.422
 20
-53.4259
 11
12.4185
 21
-53.13
  0
LINE
  8
0
 10
12.4185
 20
-53.13
 11
12.4579
 21
-52.9336
  0
LINE
  8
0
 10
12.4579
 20
-52.9336
 11
12.4579
 21
-52.6148
  0
LINE
  8
0
 10
12.4579
 20
-52.6148
 11
12.4955
 21
-52.4381
  0
LINE
  8
0
 10
12.4955
 20
-52.4381
 11
12.4994
 21
-52.0963
  0
LINE
  8
0
 10
12.4994
 20
-52.0963
 11
12.5347
 21
-51.9396
  0
LINE
  8
0
 10
12.5347
 20
-51.9396
 11
12.5432
 21
-51.5745
  0
LINE
  8
0
 10
12.5432
 20
-51.5745
 11
12.5755
 21
-51.438
  0
LINE
  8
0
 10
12.5755
 20
-51.438
 11
12.5891
 21
-51.0495
  0
LINE
  8
0
 10
12.5891
 20
-51.0495
 11
12.618
 21
-50.9334
  0
LINE
  8
0
 10
12.618
 20
-50.9334
 11
12.6372
 21
-50.5213
  0
LINE
  8
0
 10
12.6372
 20
-50.5213
 11
12.6602
 21
-50.4333
  0
LINE
  8
0
 10
12.6602
 20
-50.4333
 11
12.6643
 21
-50.3901
  0
LINE
  8
0
 10
12.6643
 20
-50.3901
 11
12.6799
 21
-50.1213
  0
LINE
  8
0
 10
12.6799
 20
-50.1213
 11
12.6755
 21
-50.0796
  0
LINE
  8
0
 10
12.6755
 20
-50.0796
 11
12.7215
 21
-49.642
  0
LINE
  8
0
 10
12.7215
 20
-49.642
 11
12.7111
 21
-49.5304
  0
LINE
  8
0
 10
12.7111
 20
-49.5304
 11
12.76
 21
-49.1122
  0
LINE
  8
0
 10
12.76
 20
-49.1122
 11
12.7491
 21
-48.9781
  0
LINE
  8
0
 10
12.7491
 20
-48.9781
 11
12.8003
 21
-48.5797
  0
LINE
  8
0
 10
12.8003
 20
-48.5797
 11
12.7894
 21
-48.4227
  0
LINE
  8
0
 10
12.7894
 20
-48.4227
 11
12.8425
 21
-48.0445
  0
LINE
  8
0
 10
12.8425
 20
-48.0445
 11
12.832
 21
-47.8643
  0
LINE
  8
0
 10
12.832
 20
-47.8643
 11
12.8727
 21
-47.5977
  0
LINE
  8
0
 10
12.8727
 20
-47.5977
 11
12.7437
 21
-47.4843
  0
LINE
  8
0
 10
12.7437
 20
-47.4843
 11
12.6164
 21
-47.4088
  0
LINE
  8
0
 10
12.6164
 20
-47.4088
 11
12.2457
 21
-47.0671
  0
LINE
  8
0
 10
12.2457
 20
-47.0671
 11
12.1208
 21
-46.9891
  0
LINE
  8
0
 10
12.1208
 20
-46.9891
 11
11.7611
 21
-46.6417
  0
LINE
  8
0
 10
11.7611
 20
-46.6417
 11
11.6393
 21
-46.5616
  0
LINE
  8
0
 10
11.6393
 20
-46.5616
 11
11.2902
 21
-46.2084
  0
LINE
  8
0
 10
11.2902
 20
-46.2084
 11
11.1718
 21
-46.1265
  0
LINE
  8
0
 10
11.1718
 20
-46.1265
 11
10.8331
 21
-45.7675
  0
LINE
  8
0
 10
10.8331
 20
-45.7675
 11
10.7186
 21
-45.6843
  0
LINE
  8
0
 10
10.7186
 20
-45.6843
 11
10.39
 21
-45.3194
  0
LINE
  8
0
 10
10.39
 20
-45.3194
 11
10.2799
 21
-45.2354
  0
LINE
  8
0
 10
10.2799
 20
-45.2354
 11
9.96116
 21
-44.8644
  0
LINE
  8
0
 10
9.96116
 20
-44.8644
 11
9.85565
 21
-44.78
  0
LINE
  8
0
 10
9.85565
 20
-44.78
 11
9.5466
 21
-44.4028
  0
LINE
  8
0
 10
9.5466
 20
-44.4028
 11
9.4461
 21
-44.3185
  0
LINE
  8
0
 10
9.4461
 20
-44.3185
 11
9.14652
 21
-43.9351
  0
LINE
  8
0
 10
9.14652
 20
-43.9351
 11
9.05134
 21
-43.8513
  0
LINE
  8
0
 10
9.05134
 20
-43.8513
 11
8.76104
 21
-43.4614
  0
LINE
  8
0
 10
8.76104
 20
-43.4614
 11
8.67147
 21
-43.3788
  0
LINE
  8
0
 10
8.67147
 20
-43.3788
 11
8.44051
 21
-43.0531
  0
LINE
  8
0
 10
8.44051
 20
-43.0531
 11
8.42458
 21
-43.0336
  0
LINE
  8
0
 10
8.42458
 20
-43.0336
 11
8.41879
 21
-43.0224
  0
LINE
  8
0
 10
8.41879
 20
-43.0224
 11
8.39031
 21
-42.9822
  0
LINE
  8
0
 10
8.39031
 20
-42.9822
 11
8.30659
 21
-42.9014
  0
LINE
  8
0
 10
8.30659
 20
-42.9014
 11
8.10227
 21
-42.5985
  0
LINE
  8
0
 10
8.10227
 20
-42.5985
 11
8.05605
 21
-42.5393
  0
LINE
  8
0
 10
8.05605
 20
-42.5393
 11
8.03955
 21
-42.5055
  0
LINE
  8
0
 10
8.03955
 20
-42.5055
 11
8.03443
 21
-42.4979
  0
LINE
  8
0
 10
8.03443
 20
-42.4979
 11
7.95679
 21
-42.4193
  0
LINE
  8
0
 10
7.95679
 20
-42.4193
 11
7.78008
 21
-42.1437
  0
LINE
  8
0
 10
7.78008
 20
-42.1437
 11
7.70306
 21
-42.0403
  0
LINE
  8
0
 10
7.70306
 20
-42.0403
 11
7.68388
 21
-41.9985
  0
LINE
  8
0
 10
7.68388
 20
-41.9985
 11
7.62215
 21
-41.9331
  0
LINE
  8
0
 10
7.62215
 20
-41.9331
 11
7.47373
 21
-41.6893
  0
LINE
  8
0
 10
7.47373
 20
-41.6893
 11
7.3657
 21
-41.5369
  0
LINE
  8
0
 10
7.3657
 20
-41.5369
 11
7.34583
 21
-41.4909
  0
LINE
  8
0
 10
7.34583
 20
-41.4909
 11
7.30275
 21
-41.443
  0
LINE
  8
0
 10
7.30275
 20
-41.443
 11
7.18302
 21
-41.2356
  0
LINE
  8
0
 10
7.18302
 20
-41.2356
 11
7.04403
 21
-41.0296
  0
LINE
  8
0
 10
7.04403
 20
-41.0296
 11
7.02323
 21
-40.9781
  0
LINE
  8
0
 10
7.02323
 20
-40.9781
 11
6.99864
 21
-40.9495
  0
LINE
  8
0
 10
6.99864
 20
-40.9495
 11
6.90773
 21
-40.7832
  0
LINE
  8
0
 10
6.90773
 20
-40.7832
 11
6.73813
 21
-40.5187
  0
LINE
  8
0
 10
6.73813
 20
-40.5187
 11
6.71622
 21
-40.4606
  0
LINE
  8
0
 10
6.71622
 20
-40.4606
 11
6.70989
 21
-40.4528
  0
LINE
  8
0
 10
6.70989
 20
-40.4528
 11
6.64761
 21
-40.3324
  0
LINE
  8
0
 10
6.64761
 20
-40.3324
 11
6.44805
 21
-40.0046
  0
LINE
  8
0
 10
6.44805
 20
-40.0046
 11
6.41378
 21
-39.9069
  0
LINE
  8
0
 10
6.41378
 20
-39.9069
 11
6.40242
 21
-39.8836
  0
LINE
  8
0
 10
6.40242
 20
-39.8836
 11
6.17384
 21
-39.4877
  0
LINE
  8
0
 10
6.17384
 20
-39.4877
 11
6.13634
 21
-39.3722
  0
LINE
  8
0
 10
6.13634
 20
-39.3722
 11
5.91554
 21
-38.9684
  0
LINE
  8
0
 10
5.91554
 20
-38.9684
 11
5.87827
 21
-38.8439
  0
LINE
  8
0
 10
5.87827
 20
-38.8439
 11
5.67317
 21
-38.4471
  0
LINE
  8
0
 10
5.67317
 20
-38.4471
 11
5.63641
 21
-38.313
  0
LINE
  8
0
 10
5.63641
 20
-38.313
 11
5.44676
 21
-37.9242
  0
LINE
  8
0
 10
5.44676
 20
-37.9242
 11
5.41083
 21
-37.7801
  0
LINE
  8
0
 10
5.41083
 20
-37.7801
 11
5.23632
 21
-37.4001
  0
LINE
  8
0
 10
5.23632
 20
-37.4001
 11
5.20155
 21
-37.2454
  0
LINE
  8
0
 10
5.20155
 20
-37.2454
 11
5.04185
 21
-36.8751
  0
LINE
  8
0
 10
5.04185
 20
-36.8751
 11
5.00862
 21
-36.7094
  0
LINE
  8
0
 10
5.00862
 20
-36.7094
 11
4.86333
 21
-36.3498
  0
LINE
  8
0
 10
4.86333
 20
-36.3498
 11
4.83207
 21
-36.1724
  0
LINE
  8
0
 10
4.83207
 20
-36.1724
 11
4.70076
 21
-35.8243
  0
LINE
  8
0
 10
4.70076
 20
-35.8243
 11
4.6719
 21
-35.635
  0
LINE
  8
0
 10
4.6719
 20
-35.635
 11
4.55411
 21
-35.2993
  0
LINE
  8
0
 10
4.55411
 20
-35.2993
 11
4.52814
 21
-35.0975
  0
LINE
  8
0
 10
4.52814
 20
-35.0975
 11
4.42333
 21
-34.7749
  0
LINE
  8
0
 10
4.42333
 20
-34.7749
 11
4.40077
 21
-34.5603
  0
LINE
  8
0
 10
4.40077
 20
-34.5603
 11
4.30839
 21
-34.2517
  0
LINE
  8
0
 10
4.30839
 20
-34.2517
 11
4.28979
 21
-34.0239
  0
LINE
  8
0
 10
4.28979
 20
-34.0239
 11
4.20923
 21
-33.7301
  0
LINE
  8
0
 10
4.20923
 20
-33.7301
 11
4.19517
 21
-33.4886
  0
LINE
  8
0
 10
4.19517
 20
-33.4886
 11
4.12579
 21
-33.2103
  0
LINE
  8
0
 10
4.12579
 20
-33.2103
 11
4.11687
 21
-32.9548
  0
LINE
  8
0
 10
4.11687
 20
-32.9548
 11
4.058
 21
-32.6929
  0
LINE
  8
0
 10
4.058
 20
-32.6929
 11
4.05486
 21
-32.423
  0
LINE
  8
0
 10
4.05486
 20
-32.423
 11
4.00577
 21
-32.1781
  0
LINE
  8
0
 10
4.00577
 20
-32.1781
 11
4.00908
 21
-31.8936
  0
LINE
  8
0
 10
4.00908
 20
-31.8936
 11
3.96901
 21
-31.6664
  0
LINE
  8
0
 10
3.96901
 20
-31.6664
 11
3.97946
 21
-31.367
  0
LINE
  8
0
 10
3.97946
 20
-31.367
 11
3.94762
 21
-31.1581
  0
LINE
  8
0
 10
3.94762
 20
-31.1581
 11
3.96594
 21
-30.8436
  0
LINE
  8
0
 10
3.96594
 20
-30.8436
 11
3.94151
 21
-30.6536
  0
LINE
  8
0
 10
3.94151
 20
-30.6536
 11
3.96844
 21
-30.3237
  0
LINE
  8
0
 10
3.96844
 20
-30.3237
 11
3.95053
 21
-30.1534
  0
LINE
  8
0
 10
3.95053
 20
-30.1534
 11
3.98685
 21
-29.8079
  0
LINE
  8
0
 10
3.98685
 20
-29.8079
 11
3.97458
 21
-29.6577
  0
LINE
  8
0
 10
3.97458
 20
-29.6577
 11
4.02107
 21
-29.2965
  0
LINE
  8
0
 10
4.02107
 20
-29.2965
 11
4.01352
 21
-29.1669
  0
LINE
  8
0
 10
4.01352
 20
-29.1669
 11
4.07099
 21
-28.7899
  0
LINE
  8
0
 10
4.07099
 20
-28.7899
 11
4.0672
 21
-28.6814
  0
LINE
  8
0
 10
4.0672
 20
-28.6814
 11
4.13648
 21
-28.2885
  0
LINE
  8
0
 10
4.13648
 20
-28.2885
 11
4.13547
 21
-28.2016
  0
LINE
  8
0
 10
4.13547
 20
-28.2016
 11
4.17794
 21
-27.9897
  0
LINE
  8
0
 10
4.17794
 20
-27.9897
 11
4.18654
 21
-27.9079
  0
LINE
  8
0
 10
4.18654
 20
-27.9079
 11
4.20689
 21
-27.8453
  0
LINE
  8
0
 10
4.20689
 20
-27.8453
 11
4.20951
 21
-27.8322
  0
LINE
  8
0
 10
4.20951
 20
-27.8322
 11
4.2177
 21
-27.7686
  0
LINE
  8
0
 10
4.2177
 20
-27.7686
 11
4.21817
 21
-27.7278
  0
LINE
  8
0
 10
4.21817
 20
-27.7278
 11
4.22934
 21
-27.6782
  0
LINE
  8
0
 10
4.22934
 20
-27.6782
 11
4.26277
 21
-27.4183
  0
LINE
  8
0
 10
4.26277
 20
-27.4183
 11
4.29332
 21
-27.3313
  0
LINE
  8
0
 10
4.29332
 20
-27.3313
 11
4.35374
 21
-26.9349
  0
LINE
  8
0
 10
4.35374
 20
-26.9349
 11
4.39397
 21
-26.8282
  0
LINE
  8
0
 10
4.39397
 20
-26.8282
 11
4.45927
 21
-26.4579
  0
LINE
  8
0
 10
4.45927
 20
-26.4579
 11
4.51024
 21
-26.3318
  0
LINE
  8
0
 10
4.51024
 20
-26.3318
 11
4.57917
 21
-25.9878
  0
LINE
  8
0
 10
4.57917
 20
-25.9878
 11
4.64194
 21
-25.8423
  0
LINE
  8
0
 10
4.64194
 20
-25.8423
 11
4.71326
 21
-25.525
  0
LINE
  8
0
 10
4.71326
 20
-25.525
 11
4.78888
 21
-25.3603
  0
LINE
  8
0
 10
4.78888
 20
-25.3603
 11
4.86135
 21
-25.0697
  0
LINE
  8
0
 10
4.86135
 20
-25.0697
 11
4.95088
 21
-24.8861
  0
LINE
  8
0
 10
4.95088
 20
-24.8861
 11
5.02323
 21
-24.6222
  0
LINE
  8
0
 10
5.02323
 20
-24.6222
 11
5.12773
 21
-24.4201
  0
LINE
  8
0
 10
5.12773
 20
-24.4201
 11
5.19868
 21
-24.1831
  0
LINE
  8
0
 10
5.19868
 20
-24.1831
 11
5.31921
 21
-23.9626
  0
LINE
  8
0
 10
5.31921
 20
-23.9626
 11
5.38749
 21
-23.7525
  0
LINE
  8
0
 10
5.38749
 20
-23.7525
 11
5.52509
 21
-23.5141
  0
LINE
  8
0
 10
5.52509
 20
-23.5141
 11
5.58942
 21
-23.3308
  0
LINE
  8
0
 10
5.58942
 20
-23.3308
 11
5.74513
 21
-23.075
  0
LINE
  8
0
 10
5.74513
 20
-23.075
 11
5.80425
 21
-22.9183
  0
LINE
  8
0
 10
5.80425
 20
-22.9183
 11
5.9791
 21
-22.6456
  0
LINE
  8
0
 10
5.9791
 20
-22.6456
 11
6.03172
 21
-22.5154
  0
LINE
  8
0
 10
6.03172
 20
-22.5154
 11
6.22673
 21
-22.2262
  0
LINE
  8
0
 10
6.22673
 20
-22.2262
 11
6.27158
 21
-22.1223
  0
LINE
  8
0
 10
6.27158
 20
-22.1223
 11
6.48777
 21
-21.8173
  0
LINE
  8
0
 10
6.48777
 20
-21.8173
 11
6.52359
 21
-21.7393
  0
LINE
  8
0
 10
6.52359
 20
-21.7393
 11
6.71416
 21
-21.4833
  0
LINE
  8
0
 10
6.71416
 20
-21.4833
 11
6.76352
 21
-21.4022
  0
LINE
  8
0
 10
6.76352
 20
-21.4022
 11
6.7773
 21
-21.3876
  0
LINE
  8
0
 10
6.7773
 20
-21.3876
 11
6.78746
 21
-21.3668
  0
LINE
  8
0
 10
6.78746
 20
-21.3668
 11
6.85184
 21
-21.2844
  0
LINE
  8
0
 10
6.85184
 20
-21.2844
 11
7.0229
 21
-21.0176
  0
LINE
  8
0
 10
7.0229
 20
-21.0176
 11
7.0829
 21
-20.9569
  0
LINE
  8
0
 10
7.0829
 20
-20.9569
 11
7.29427
 21
-20.6435
  0
LINE
  8
0
 10
7.29427
 20
-20.6435
 11
7.37542
 21
-20.5652
  0
LINE
  8
0
 10
7.37542
 20
-20.5652
 11
7.57735
 21
-20.2803
  0
LINE
  8
0
 10
7.57735
 20
-20.2803
 11
7.68062
 21
-20.1851
  0
LINE
  8
0
 10
7.68062
 20
-20.1851
 11
7.87186
 21
-19.9283
  0
LINE
  8
0
 10
7.87186
 20
-19.9283
 11
7.99818
 21
-19.8172
  0
LINE
  8
0
 10
7.99818
 20
-19.8172
 11
8.17751
 21
-19.5876
  0
LINE
  8
0
 10
8.17751
 20
-19.5876
 11
8.3278
 21
-19.4615
  0
LINE
  8
0
 10
8.3278
 20
-19.4615
 11
8.49401
 21
-19.2587
  0
LINE
  8
0
 10
8.49401
 20
-19.2587
 11
8.66912
 21
-19.1186
  0
LINE
  8
0
 10
8.66912
 20
-19.1186
 11
8.82105
 21
-18.9417
  0
LINE
  8
0
 10
8.82105
 20
-18.9417
 11
9.02182
 21
-18.7886
  0
LINE
  8
0
 10
9.02182
 20
-18.7886
 11
9.15833
 21
-18.637
  0
LINE
  8
0
 10
9.15833
 20
-18.637
 11
9.38555
 21
-18.4719
  0
LINE
  8
0
 10
9.38555
 20
-18.4719
 11
9.50553
 21
-18.3447
  0
LINE
  8
0
 10
9.50553
 20
-18.3447
 11
9.75995
 21
-18.1688
  0
LINE
  8
0
 10
9.75995
 20
-18.1688
 11
9.86234
 21
-18.0652
  0
LINE
  8
0
 10
9.86234
 20
-18.0652
 11
10.1447
 21
-17.8795
  0
LINE
  8
0
 10
10.1447
 20
-17.8795
 11
10.2284
 21
-17.7986
  0
LINE
  8
0
 10
10.2284
 20
-17.7986
 11
10.5393
 21
-17.6043
  0
LINE
  8
0
 10
10.5393
 20
-17.6043
 11
10.6035
 21
-17.5452
  0
LINE
  8
0
 10
10.6035
 20
-17.5452
 11
10.9164
 21
-17.3596
  0
LINE
  8
0
 10
10.9164
 20
-17.3596
 11
10.9672
 21
-17.3228
  0
LINE
  8
0
 10
10.9672
 20
-17.3228
 11
10.9871
 21
-17.3053
  0
LINE
  8
0
 10
10.9871
 20
-17.3053
 11
11.1017
 21
-17.2409
  0
LINE
  8
0
 10
11.1017
 20
-17.2409
 11
11.3625
 21
-17.0605
  0
LINE
  8
0
 10
11.3625
 20
-17.0605
 11
11.4376
 21
-17.0291
  0
LINE
  8
0
 10
11.4376
 20
-17.0291
 11
11.7487
 21
-16.8245
  0
LINE
  8
0
 10
11.7487
 20
-16.8245
 11
11.8517
 21
-16.7843
  0
LINE
  8
0
 10
11.8517
 20
-16.7843
 11
12.1432
 21
-16.6022
  0
LINE
  8
0
 10
12.1432
 20
-16.6022
 11
12.2745
 21
-16.5544
  0
LINE
  8
0
 10
12.2745
 20
-16.5544
 11
12.5455
 21
-16.3937
  0
LINE
  8
0
 10
12.5455
 20
-16.3937
 11
12.7056
 21
-16.3396
  0
LINE
  8
0
 10
12.7056
 20
-16.3396
 11
12.9554
 21
-16.1992
  0
LINE
  8
0
 10
12.9554
 20
-16.1992
 11
13.1446
 21
-16.1401
  0
LINE
  8
0
 10
13.1446
 20
-16.1401
 11
13.3726
 21
-16.0189
  0
LINE
  8
0
 10
13.3726
 20
-16.0189
 11
13.591
 21
-15.9563
  0
LINE
  8
0
 10
13.591
 20
-15.9563
 11
13.7965
 21
-15.8531
  0
LINE
  8
0
 10
13.7965
 20
-15.8531
 11
14.0445
 21
-15.7882
  0
LINE
  8
0
 10
14.0445
 20
-15.7882
 11
14.227
 21
-15.7018
  0
LINE
  8
0
 10
14.227
 20
-15.7018
 11
14.5047
 21
-15.636
  0
LINE
  8
0
 10
14.5047
 20
-15.636
 11
14.6635
 21
-15.5653
  0
LINE
  8
0
 10
14.6635
 20
-15.5653
 11
14.9711
 21
-15.4999
  0
LINE
  8
0
 10
14.9711
 20
-15.4999
 11
15.1058
 21
-15.4436
  0
LINE
  8
0
 10
15.1058
 20
-15.4436
 11
15.4432
 21
-15.3801
  0
LINE
  8
0
 10
15.4432
 20
-15.3801
 11
15.5535
 21
-15.337
  0
LINE
  8
0
 10
15.5535
 20
-15.337
 11
15.9208
 21
-15.2767
  0
LINE
  8
0
 10
15.9208
 20
-15.2767
 11
16.0061
 21
-15.2456
  0
LINE
  8
0
 10
16.0061
 20
-15.2456
 11
16.3643
 21
-15.1952
  0
LINE
  8
0
 10
16.3643
 20
-15.1952
 11
16.4239
 21
-15.1811
  0
LINE
  8
0
 10
16.4239
 20
-15.1811
 11
16.4292
 21
-15.181
  0
LINE
  8
0
 10
16.4292
 20
-15.181
 11
16.4634
 21
-15.1694
  0
LINE
  8
0
 10
16.4634
 20
-15.1694
 11
16.6019
 21
-15.1533
  0
LINE
  8
0
 10
16.6019
 20
-15.1533
 11
16.872
 21
-15.0958
  0
LINE
  8
0
 10
16.872
 20
-15.0958
 11
16.9523
 21
-15.0958
  0
LINE
  8
0
 10
16.9523
 20
-15.0958
 11
17.3246
 21
-15.0257
  0
LINE
  8
0
 10
17.3246
 20
-15.0257
 11
17.4323
 21
-15.0282
  0
LINE
  8
0
 10
17.4323
 20
-15.0282
 11
17.7814
 21
-14.9709
  0
LINE
  8
0
 10
17.7814
 20
-14.9709
 11
17.9163
 21
-14.9771
  0
LINE
  8
0
 10
17.9163
 20
-14.9771
 11
18.242
 21
-14.9314
  0
LINE
  8
0
 10
18.242
 20
-14.9314
 11
18.4037
 21
-14.9427
  0
LINE
  8
0
 10
18.4037
 20
-14.9427
 11
18.7059
 21
-14.9073
  0
LINE
  8
0
 10
18.7059
 20
-14.9073
 11
18.8941
 21
-14.9249
  0
LINE
  8
0
 10
18.8941
 20
-14.9249
 11
19.1729
 21
-14.8989
  0
LINE
  8
0
 10
19.1729
 20
-14.8989
 11
19.3871
 21
-14.9239
  0
LINE
  8
0
 10
19.3871
 20
-14.9239
 11
19.6425
 21
-14.906
  0
LINE
  8
0
 10
19.6425
 20
-14.906
 11
19.8822
 21
-14.9397
  0
LINE
  8
0
 10
19.8822
 20
-14.9397
 11
20.1143
 21
-14.9289
  0
LINE
  8
0
 10
20.1143
 20
-14.9289
 11
20.3791
 21
-14.9724
  0
LINE
  8
0
 10
20.3791
 20
-14.9724
 11
20.5879
 21
-14.9676
  0
LINE
  8
0
 10
20.5879
 20
-14.9676
 11
20.8772
 21
-15.0221
  0
LINE
  8
0
 10
20.8772
 20
-15.0221
 11
21.063
 21
-15.0221
  0
LINE
  8
0
 10
21.063
 20
-15.0221
 11
21.3761
 21
-15.0886
  0
LINE
  8
0
 10
21.3761
 20
-15.0886
 11
21.5391
 21
-15.0924
  0
LINE
  8
0
 10
21.5391
 20
-15.0924
 11
21.6
 21
-15.1068
  0
LINE
  8
0
 10
21.6
 20
-15.1068
 11
21.6
 21
0
  0
LINE
  8
0
 10
21.6
 20
0
 11
21.5474
 21
1.50674
  0
LINE
  8
0
 10
21.5474
 20
1.50674
 11
21.3898
 21
3.00614
  0
LINE
  8
0
 10
21.3898
 20
3.00614
 11
21.128
 21
4.49089
  0
LINE
  8
0
 10
21.128
 20
4.49089
 11
20.7633
 21
5.95377
  0
LINE
  8
0
 10
20.7633
 20
5.95377
 11
20.2974
 21
7.38763
  0
LINE
  8
0
 10
20.2974
 20
7.38763
 11
19.7326
 21
8.78551
  0
LINE
  8
0
 10
19.7326
 20
8.78551
 11
19.0717
 21
10.1406
  0
LINE
  8
0
 10
19.0717
 20
10.1406
 11
18.3178
 21
11.4463
  0
LINE
  8
0
 10
18.3178
 20
11.4463
 11
17.4748
 21
12.6962
  0
LINE
  8
0
 10
17.4748
 20
12.6962
 11
16.5466
 21
13.8842
  0
LINE
  8
0
 10
16.5466
 20
13.8842
 11
15.5377
 21
15.0046
  0
LINE
  8
0
 10
15.5377
 20
15.0046
 11
14.4532
 21
16.0519
  0
LINE
  8
0
 10
14.4532
 20
16.0519
 11
13.2983
 21
17.021
  0
LINE
  8
0
 10
13.2983
 20
17.021
 11
-15.2595
 21
39.7488
  0
LINE
  8
0
 10
-15.2595
 20
39.7488
 11
-15.2693
 21
39.75
  0
LINE
  8
0
 10
-15.2693
 20
39.75
 11
-16.4221
 21
40.7993
  0
LINE
  8
0
 10
-16.4221
 20
40.7993
 11
-18.6995
 21
43.0304
  0
LINE
  8
0
 10
-18.6995
 20
43.0304
 11
-20.9157
 21
45.3634
  0
LINE
  8
0
 10
-20.9157
 20
45.3634
 11
-23.068
 21
47.7956
  0
LINE
  8
0
 10
-23.068
 20
47.7956
 11
-25.1536
 21
50.3239
  0
LINE
  8
0
 10
-25.1536
 20
50.3239
 11
-27.1701
 21
52.9453
  0
LINE
  8
0
 10
-27.1701
 20
52.9453
 11
-29.1149
 21
55.6566
  0
LINE
  8
0
 10
-29.1149
 20
55.6566
 11
-30.9858
 21
58.4545
  0
LINE
  8
0
 10
-30.9858
 20
58.4545
 11
-32.7805
 21
61.3356
  0
LINE
  8
0
 10
-32.7805
 20
61.3356
 11
-34.4967
 21
64.2963
  0
LINE
  8
0
 10
-34.4967
 20
64.2963
 11
-36.1324
 21
67.3331
  0
LINE
  8
0
 10
-36.1324
 20
67.3331
 11
-37.6855
 21
70.4423
  0
LINE
  8
0
 10
-37.6855
 20
70.4423
 11
-39.1543
 21
73.62
  0
LINE
  8
0
 10
-39.1543
 20
73.62
 11
-40.5368
 21
76.8624
  0
LINE
  8
0
 10
-40.5368
 20
76.8624
 11
-41.8315
 21
80.1656
  0
LINE
  8
0
 10
-41.8315
 20
80.1656
 11
-43.0367
 21
83.5255
  0
LINE
  8
0
 10
-43.0367
 20
83.5255
 11
-44.1509
 21
86.938
  0
LINE
  8
0
 10
-44.1509
 20
86.938
 11
-45.1729
 21
90.399
  0
LINE
  8
0
 10
-45.1729
 20
90.399
 11
-46.1013
 21
93.9043
  0
LINE
  8
0
 10
-46.1013
 20
93.9043
 11
-46.2771
 21
94.6516
  0
LINE
  8
0
 10
-46.2771
 20
94.6516
 11
-46.348
 21
94.7257
  0
LINE
  8
0
 10
-46.348
 20
94.7257
 11
-46.2827
 21
94.7888
  0
LINE
  8
0
 10
-46.2827
 20
94.7888
 11
-46.1706
 21
94.9133
  0
LINE
  8
0
 10
-46.1706
 20
94.9133
 11
-46.0675
 21
95.0453
  0
LINE
  8
0
 10
-46.0675
 20
95.0453
 11
-45.9738
 21
95.1842
  0
LINE
  8
0
 10
-45.9738
 20
95.1842
 11
-45.89
 21
95.3292
  0
LINE
  8
0
 10
-45.89
 20
95.3292
 11
-45.8166
 21
95.4798
  0
LINE
  8
0
 10
-45.8166
 20
95.4798
 11
-45.7539
 21
95.6351
  0
LINE
  8
0
 10
-45.7539
 20
95.6351
 11
-45.7021
 21
95.7944
  0
LINE
  8
0
 10
-45.7021
 20
95.7944
 11
-45.6616
 21
95.957
  0
LINE
  8
0
 10
-45.6616
 20
95.957
 11
-45.6325
 21
96.122
  0
LINE
  8
0
 10
-45.6325
 20
96.122
 11
-45.615
 21
96.2886
  0
LINE
  8
0
 10
-45.615
 20
96.2886
 11
-45.6091
 21
96.456
  0
LINE
  8
0
 10
-45.6091
 20
96.456
 11
-45.615
 21
96.6234
  0
LINE
  8
0
 10
-45.615
 20
96.6234
 11
-45.6325
 21
96.79
  0
LINE
  8
0
 10
-45.6325
 20
96.79
 11
-45.6616
 21
96.955
  0
LINE
  8
0
 10
-45.6616
 20
96.955
 11
-45.7021
 21
97.1175
  0
LINE
  8
0
 10
-45.7021
 20
97.1175
 11
-45.7539
 21
97.2768
  0
LINE
  8
0
 10
-45.7539
 20
97.2768
 11
-49.038
 21
106.3
  0
LINE
  8
0
 10
-49.038
 20
106.3
 11
-45.7072
 21
107.511
  0
LINE
  8
0
 10
-45.7072
 20
107.511
 11
-45.6022
 21
107.549
  0
LINE
  8
0
 10
-45.6022
 20
107.549
 11
-45.5002
 21
107.595
  0
LINE
  8
0
 10
-45.5002
 20
107.595
 11
-45.4016
 21
107.647
  0
LINE
  8
0
 10
-45.4016
 20
107.647
 11
-45.3069
 21
107.706
  0
LINE
  8
0
 10
-45.3069
 20
107.706
 11
-45.2165
 21
107.772
  0
LINE
  8
0
 10
-45.2165
 20
107.772
 11
-45.131
 21
107.844
  0
LINE
  8
0
 10
-45.131
 20
107.844
 11
-45.0506
 21
107.921
  0
LINE
  8
0
 10
-45.0506
 20
107.921
 11
-44.9759
 21
108.004
  0
LINE
  8
0
 10
-44.9759
 20
108.004
 11
-44.9072
 21
108.092
  0
LINE
  8
0
 10
-44.9072
 20
108.092
 11
-44.8447
 21
108.185
  0
LINE
  8
0
 10
-44.8447
 20
108.185
 11
-44.7889
 21
108.281
  0
LINE
  8
0
 10
-44.7889
 20
108.281
 11
-44.7399
 21
108.382
  0
LINE
  8
0
 10
-44.7399
 20
108.382
 11
-44.6981
 21
108.485
  0
LINE
  8
0
 10
-44.6981
 20
108.485
 11
-44.6636
 21
108.592
  0
LINE
  8
0
 10
-44.6636
 20
108.592
 11
-44.6366
 21
108.7
  0
LINE
  8
0
 10
-44.6366
 20
108.7
 11
-44.6172
 21
108.81
  0
LINE
  8
0
 10
-44.6172
 20
108.81
 11
-44.6055
 21
108.921
  0
LINE
  8
0
 10
-44.6055
 20
108.921
 11
-44.6016
 21
109.033
  0
LINE
  8
0
 10
-44.6016
 20
109.033
 11
-44.6055
 21
109.144
  0
LINE
  8
0
 10
-44.6055
 20
109.144
 11
-44.6172
 21
109.255
  0
LINE
  8
0
 10
-44.6172
 20
109.255
 11
-44.6366
 21
109.365
  0
LINE
  8
0
 10
-44.6366
 20
109.365
 11
-44.6636
 21
109.474
  0
LINE
  8
0
 10
-44.6636
 20
109.474
 11
-44.6981
 21
109.58
  0
LINE
  8
0
 10
-44.6981
 20
109.58
 11
-46.887
 21
115.594
  0
LINE
  8
0
 10
-46.887
 20
115.594
 11
-46.9288
 21
115.697
  0
LINE
  8
0
 10
-46.9288
 20
115.697
 11
-46.9778
 21
115.798
  0
LINE
  8
0
 10
-46.9778
 20
115.798
 11
-47.0336
 21
115.895
  0
LINE
  8
0
 10
-47.0336
 20
115.895
 11
-47.0961
 21
115.987
  0
LINE
  8
0
 10
-47.0961
 20
115.987
 11
-47.1649
 21
116.075
  0
LINE
  8
0
 10
-47.1649
 20
116.075
 11
-47.2396
 21
116.158
  0
LINE
  8
0
 10
-47.2396
 20
116.158
 11
-47.3199
 21
116.236
  0
LINE
  8
0
 10
-47.3199
 20
116.236
 11
-47.4055
 21
116.307
  0
LINE
  8
0
 10
-47.4055
 20
116.307
 11
-47.4958
 21
116.373
  0
LINE
  8
0
 10
-47.4958
 20
116.373
 11
-47.5905
 21
116.432
  0
LINE
  8
0
 10
-47.5905
 20
116.432
 11
-47.6891
 21
116.485
  0
LINE
  8
0
 10
-47.6891
 20
116.485
 11
-47.7912
 21
116.53
  0
LINE
  8
0
 10
-47.7912
 20
116.53
 11
-47.8961
 21
116.568
  0
LINE
  8
0
 10
-47.8961
 20
116.568
 11
-48.0034
 21
116.599
  0
LINE
  8
0
 10
-48.0034
 20
116.599
 11
-48.1127
 21
116.622
  0
LINE
  8
0
 10
-48.1127
 20
116.622
 11
-48.2233
 21
116.638
  0
LINE
  8
0
 10
-48.2233
 20
116.638
 11
-48.3347
 21
116.646
  0
LINE
  8
0
 10
-48.3347
 20
116.646
 11
-48.4464
 21
116.646
  0
LINE
  8
0
 10
-48.4464
 20
116.646
 11
-48.5578
 21
116.638
  0
LINE
  8
0
 10
-48.5578
 20
116.638
 11
-48.6684
 21
116.622
  0
LINE
  8
0
 10
-48.6684
 20
116.622
 11
-48.7776
 21
116.599
  0
LINE
  8
0
 10
-48.7776
 20
116.599
 11
-48.8849
 21
116.568
  0
LINE
  8
0
 10
-48.8849
 20
116.568
 11
-48.9899
 21
116.53
  0
LINE
  8
0
 10
-48.9899
 20
116.53
 11
-52.3199
 21
115.317
  0
LINE
  8
0
 10
-52.3199
 20
115.317
 11
-55.604
 21
124.34
  0
LINE
  8
0
 10
-55.604
 20
124.34
 11
-55.6668
 21
124.495
  0
LINE
  8
0
 10
-55.6668
 20
124.495
 11
-55.7402
 21
124.646
  0
LINE
  8
0
 10
-55.7402
 20
124.646
 11
-55.824
 21
124.791
  0
LINE
  8
0
 10
-55.824
 20
124.791
 11
-55.9177
 21
124.93
  0
LINE
  8
0
 10
-55.9177
 20
124.93
 11
-56.0208
 21
125.062
  0
LINE
  8
0
 10
-56.0208
 20
125.062
 11
-56.1329
 21
125.186
  0
LINE
  8
0
 10
-56.1329
 20
125.186
 11
-56.2534
 21
125.303
  0
LINE
  8
0
 10
-56.2534
 20
125.303
 11
-56.3817
 21
125.41
  0
LINE
  8
0
 10
-56.3817
 20
125.41
 11
-56.5172
 21
125.509
  0
LINE
  8
0
 10
-56.5172
 20
125.509
 11
-56.6593
 21
125.598
  0
LINE
  8
0
 10
-56.6593
 20
125.598
 11
-56.8072
 21
125.676
  0
LINE
  8
0
 10
-56.8072
 20
125.676
 11
-56.9602
 21
125.744
  0
LINE
  8
0
 10
-56.9602
 20
125.744
 11
-57.1177
 21
125.802
  0
LINE
  8
0
 10
-57.1177
 20
125.802
 11
-57.2787
 21
125.848
  0
LINE
  8
0
 10
-57.2787
 20
125.848
 11
-57.4425
 21
125.883
  0
LINE
  8
0
 10
-57.4425
 20
125.883
 11
-57.6084
 21
125.906
  0
LINE
  8
0
 10
-57.6084
 20
125.906
 11
-57.7755
 21
125.918
  0
LINE
  8
0
 10
-57.7755
 20
125.918
 11
-57.9431
 21
125.918
  0
LINE
  8
0
 10
-57.9431
 20
125.918
 11
-58.1102
 21
125.906
  0
LINE
  8
0
 10
-58.1102
 20
125.906
 11
-58.2761
 21
125.883
  0
LINE
  8
0
 10
-58.2761
 20
125.883
 11
-58.4399
 21
125.848
  0
LINE
  8
0
 10
-58.4399
 20
125.848
 11
-58.6009
 21
125.802
  0
LINE
  8
0
 10
-58.6009
 20
125.802
 11
-58.7584
 21
125.744
  0
LINE
  8
0
 10
-58.7584
 20
125.744
 11
-58.9114
 21
125.676
  0
LINE
  8
0
 10
-58.9114
 20
125.676
 11
-59.0593
 21
125.598
  0
LINE
  8
0
 10
-59.0593
 20
125.598
 11
-59.2014
 21
125.509
  0
LINE
  8
0
 10
-59.2014
 20
125.509
 11
-59.3369
 21
125.41
  0
LINE
  8
0
 10
-59.3369
 20
125.41
 11
-59.4652
 21
125.303
  0
LINE
  8
0
 10
-59.4652
 20
125.303
 11
-59.5857
 21
125.186
  0
LINE
  8
0
 10
-59.5857
 20
125.186
 11
-59.6978
 21
125.062
  0
LINE
  8
0
 10
-59.6978
 20
125.062
 11
-59.8009
 21
124.93
  0
LINE
  8
0
 10
-59.8009
 20
124.93
 11
-59.8946
 21
124.791
  0
LINE
  8
0
 10
-59.8946
 20
124.791
 11
-59.9784
 21
124.646
  0
LINE
  8
0
 10
-59.9784
 20
124.646
 11
-60.0518
 21
124.495
  0
LINE
  8
0
 10
-60.0518
 20
124.495
 11
-60.1146
 21
124.34
  0
LINE
  8
0
 10
-60.1146
 20
124.34
 11
-60.1663
 21
124.181
  0
LINE
  8
0
 10
-60.1663
 20
124.181
 11
-60.2069
 21
124.018
  0
LINE
  8
0
 10
-60.2069
 20
124.018
 11
-60.2359
 21
123.853
  0
LINE
  8
0
 10
-60.2359
 20
123.853
 11
-60.2535
 21
123.687
  0
LINE
  8
0
 10
-60.2535
 20
123.687
 11
-60.2593
 21
123.519
  0
LINE
  8
0
 10
-60.2593
 20
123.519
 11
-60.3652
 21
108.156
  0
LINE
  8
0
 10
-60.3652
 20
108.156
 11
-60.3593
 21
107.989
  0
LINE
  8
0
 10
-60.3593
 20
107.989
 11
-60.3418
 21
107.822
  0
LINE
  8
0
 10
-60.3418
 20
107.822
 11
-60.3127
 21
107.657
  0
LINE
  8
0
 10
-60.3127
 20
107.657
 11
-60.2722
 21
107.495
  0
LINE
  8
0
 10
-60.2722
 20
107.495
 11
-60.2283
 21
107.36
  0
LINE
  8
0
 10
-60.2283
 20
107.36
 11
-60.2901
 21
106.512
  0
LINE
  8
0
 10
-60.2901
 20
106.512
 11
-60.4775
 21
102.221
  0
LINE
  8
0
 10
-60.4775
 20
102.221
 11
-60.54
 21
97.925
  0
LINE
  8
0
 10
-56.6395
 20
109.167
 11
-56.6359
 21
109.268
  0
LINE
  8
0
 10
-56.6359
 20
109.268
 11
-56.6254
 21
109.368
  0
LINE
  8
0
 10
-56.6254
 20
109.368
 11
-56.6078
 21
109.468
  0
LINE
  8
0
 10
-56.6078
 20
109.468
 11
-56.5833
 21
109.566
  0
LINE
  8
0
 10
-56.5833
 20
109.566
 11
-56.552
 21
109.663
  0
LINE
  8
0
 10
-56.552
 20
109.663
 11
-56.5141
 21
109.756
  0
LINE
  8
0
 10
-56.5141
 20
109.756
 11
-56.4697
 21
109.847
  0
LINE
  8
0
 10
-56.4697
 20
109.847
 11
-56.4191
 21
109.935
  0
LINE
  8
0
 10
-56.4191
 20
109.935
 11
-56.3625
 21
110.019
  0
LINE
  8
0
 10
-56.3625
 20
110.019
 11
-56.3002
 21
110.099
  0
LINE
  8
0
 10
-56.3002
 20
110.099
 11
-56.2325
 21
110.174
  0
LINE
  8
0
 10
-56.2325
 20
110.174
 11
-56.1597
 21
110.244
  0
LINE
  8
0
 10
-56.1597
 20
110.244
 11
-56.0822
 21
110.309
  0
LINE
  8
0
 10
-56.0822
 20
110.309
 11
-56.0003
 21
110.369
  0
LINE
  8
0
 10
-56.0003
 20
110.369
 11
-55.9145
 21
110.422
  0
LINE
  8
0
 10
-55.9145
 20
110.422
 11
-55.8251
 21
110.47
  0
LINE
  8
0
 10
-55.8251
 20
110.47
 11
-55.7327
 21
110.511
  0
LINE
  8
0
 10
-55.7327
 20
110.511
 11
-55.6375
 21
110.546
  0
LINE
  8
0
 10
-55.6375
 20
110.546
 11
-55.5403
 21
110.574
  0
LINE
  8
0
 10
-55.5403
 20
110.574
 11
-55.4413
 21
110.595
  0
LINE
  8
0
 10
-55.4413
 20
110.595
 11
-55.341
 21
110.609
  0
LINE
  8
0
 10
-55.341
 20
110.609
 11
-55.2401
 21
110.616
  0
LINE
  8
0
 10
-55.2401
 20
110.616
 11
-55.1389
 21
110.616
  0
LINE
  8
0
 10
-55.1389
 20
110.616
 11
-55.0379
 21
110.609
  0
LINE
  8
0
 10
-55.0379
 20
110.609
 11
-54.9377
 21
110.595
  0
LINE
  8
0
 10
-54.9377
 20
110.595
 11
-54.8387
 21
110.574
  0
LINE
  8
0
 10
-54.8387
 20
110.574
 11
-54.7414
 21
110.546
  0
LINE
  8
0
 10
-54.7414
 20
110.546
 11
-54.6463
 21
110.511
  0
LINE
  8
0
 10
-54.6463
 20
110.511
 11
-54.5538
 21
110.47
  0
LINE
  8
0
 10
-54.5538
 20
110.47
 11
-54.4645
 21
110.422
  0
LINE
  8
0
 10
-54.4645
 20
110.422
 11
-54.3786
 21
110.369
  0
LINE
  8
0
 10
-54.3786
 20
110.369
 11
-54.2968
 21
110.309
  0
LINE
  8
0
 10
-54.2968
 20
110.309
 11
-54.2192
 21
110.244
  0
LINE
  8
0
 10
-54.2192
 20
110.244
 11
-54.1464
 21
110.174
  0
LINE
  8
0
 10
-54.1464
 20
110.174
 11
-54.0787
 21
110.099
  0
LINE
  8
0
 10
-54.0787
 20
110.099
 11
-54.0164
 21
110.019
  0
LINE
  8
0
 10
-54.0164
 20
110.019
 11
-53.9598
 21
109.935
  0
LINE
  8
0
 10
-53.9598
 20
109.935
 11
-53.9092
 21
109.847
  0
LINE
  8
0
 10
-53.9092
 20
109.847
 11
-53.8648
 21
109.756
  0
LINE
  8
0
 10
-53.8648
 20
109.756
 11
-53.8269
 21
109.663
  0
LINE
  8
0
 10
-53.8269
 20
109.663
 11
-53.7956
 21
109.566
  0
LINE
  8
0
 10
-53.7956
 20
109.566
 11
-53.7712
 21
109.468
  0
LINE
  8
0
 10
-53.7712
 20
109.468
 11
-53.7536
 21
109.368
  0
LINE
  8
0
 10
-53.7536
 20
109.368
 11
-53.743
 21
109.268
  0
LINE
  8
0
 10
-53.743
 20
109.268
 11
-53.7395
 21
109.167
  0
LINE
  8
0
 10
-53.7395
 20
109.167
 11
-53.743
 21
109.066
  0
LINE
  8
0
 10
-53.743
 20
109.066
 11
-53.7536
 21
108.965
  0
LINE
  8
0
 10
-53.7536
 20
108.965
 11
-53.7712
 21
108.865
  0
LINE
  8
0
 10
-53.7712
 20
108.865
 11
-53.7956
 21
108.767
  0
LINE
  8
0
 10
-53.7956
 20
108.767
 11
-53.8269
 21
108.671
  0
LINE
  8
0
 10
-53.8269
 20
108.671
 11
-53.8648
 21
108.577
  0
LINE
  8
0
 10
-53.8648
 20
108.577
 11
-53.9092
 21
108.486
  0
LINE
  8
0
 10
-53.9092
 20
108.486
 11
-53.9598
 21
108.398
  0
LINE
  8
0
 10
-53.9598
 20
108.398
 11
-54.0164
 21
108.314
  0
LINE
  8
0
 10
-54.0164
 20
108.314
 11
-54.0787
 21
108.235
  0
LINE
  8
0
 10
-54.0787
 20
108.235
 11
-54.1464
 21
108.159
  0
LINE
  8
0
 10
-54.1464
 20
108.159
 11
-54.2192
 21
108.089
  0
LINE
  8
0
 10
-54.2192
 20
108.089
 11
-54.2968
 21
108.024
  0
LINE
  8
0
 10
-54.2968
 20
108.024
 11
-54.3786
 21
107.965
  0
LINE
  8
0
 10
-54.3786
 20
107.965
 11
-54.4645
 21
107.911
  0
LINE
  8
0
 10
-54.4645
 20
107.911
 11
-54.5538
 21
107.863
  0
LINE
  8
0
 10
-54.5538
 20
107.863
 11
-54.6463
 21
107.822
  0
LINE
  8
0
 10
-54.6463
 20
107.822
 11
-54.7414
 21
107.788
  0
LINE
  8
0
 10
-54.7414
 20
107.788
 11
-54.8387
 21
107.76
  0
LINE
  8
0
 10
-54.8387
 20
107.76
 11
-54.9377
 21
107.739
  0
LINE
  8
0
 10
-54.9377
 20
107.739
 11
-55.0379
 21
107.725
  0
LINE
  8
0
 10
-55.0379
 20
107.725
 11
-55.1389
 21
107.718
  0
LINE
  8
0
 10
-55.1389
 20
107.718
 11
-55.2401
 21
107.718
  0
LINE
  8
0
 10
-55.2401
 20
107.718
 11
-55.341
 21
107.725
  0
LINE
  8
0
 10
-55.341
 20
107.725
 11
-55.4413
 21
107.739
  0
LINE
  8
0
 10
-55.4413
 20
107.739
 11
-55.5403
 21
107.76
  0
LINE
  8
0
 10
-55.5403
 20
107.76
 11
-55.6375
 21
107.788
  0
LINE
  8
0
 10
-55.6375
 20
107.788
 11
-55.7327
 21
107.822
  0
LINE
  8
0
 10
-55.7327
 20
107.822
 11
-55.8251
 21
107.863
  0
LINE
  8
0
 10
-55.8251
 20
107.863
 11
-55.9145
 21
107.911
  0
LINE
  8
0
 10
-55.9145
 20
107.911
 11
-56.0003
 21
107.965
  0
LINE
  8
0
 10
-56.0003
 20
107.965
 11
-56.0822
 21
108.024
  0
LINE
  8
0
 10
-56.0822
 20
108.024
 11
-56.1597
 21
108.089
  0
LINE
  8
0
 10
-56.1597
 20
108.089
 11
-56.2325
 21
108.159
  0
LINE
  8
0
 10
-56.2325
 20
108.159
 11
-56.3002
 21
108.235
  0
LINE
  8
0
 10
-56.3002
 20
108.235
 11
-56.3625
 21
108.314
  0
LINE
  8
0
 10
-56.3625
 20
108.314
 11
-56.4191
 21
108.398
  0
LINE
  8
0
 10
-56.4191
 20
108.398
 11
-56.4697
 21
108.486
  0
LINE
  8
0
 10
-56.4697
 20
108.486
 11
-56.5141
 21
108.577
  0
LINE
  8
0
 10
-56.5141
 20
108.577
 11
-56.552
 21
108.671
  0
LINE
  8
0
 10
-56.552
 20
108.671
 11
-56.5833
 21
108.767
  0
LINE
  8
0
 10
-56.5833
 20
108.767
 11
-56.6078
 21
108.865
  0
LINE
  8
0
 10
-56.6078
 20
108.865
 11
-56.6254
 21
108.965
  0
LINE
  8
0
 10
-56.6254
 20
108.965
 11
-56.6359
 21
109.066
  0
LINE
  8
0
 10
-56.6359
 20
109.066
 11
-56.6395
 21
109.167
  0
LINE
  8
0
 10
-10.825
 20
-1.6285
 11
-10.825
 21
1.6285
  0
LINE
  8
0
 10
-10.825
 20
1.6285
 11
-10.7107
 21
2.27663
  0
LINE
  8
0
 10
-10.7107
 20
2.27663
 11
-10.5258
 21
3.01823
  0
LINE
  8
0
 10
-10.5258
 20
3.01823
 11
-10.2896
 21
3.74512
  0
LINE
  8
0
 10
-10.2896
 20
3.74512
 11
-10.0033
 21
4.45377
  0
LINE
  8
0
 10
-10.0033
 20
4.45377
 11
-9.66828
 21
5.14071
  0
LINE
  8
0
 10
-9.66828
 20
5.14071
 11
-9.28613
 21
5.80262
  0
LINE
  8
0
 10
-9.28613
 20
5.80262
 11
-8.85874
 21
6.43625
  0
LINE
  8
0
 10
-8.85874
 20
6.43625
 11
-8.38819
 21
7.03852
  0
LINE
  8
0
 10
-8.38819
 20
7.03852
 11
-7.87677
 21
7.60651
  0
LINE
  8
0
 10
-7.87677
 20
7.60651
 11
-7.32698
 21
8.13743
  0
LINE
  8
0
 10
-7.32698
 20
8.13743
 11
-6.74149
 21
8.62872
  0
LINE
  8
0
 10
-6.74149
 20
8.62872
 11
-6.12316
 21
9.07796
  0
LINE
  8
0
 10
-6.12316
 20
9.07796
 11
-5.475
 21
9.48298
  0
LINE
  8
0
 10
-5.475
 20
9.48298
 11
-4.80016
 21
9.84179
  0
LINE
  8
0
 10
-4.80016
 20
9.84179
 11
-4.10194
 21
10.1527
  0
LINE
  8
0
 10
-4.10194
 20
10.1527
 11
-3.38374
 21
10.4141
  0
LINE
  8
0
 10
-3.38374
 20
10.4141
 11
-2.64904
 21
10.6247
  0
LINE
  8
0
 10
-2.64904
 20
10.6247
 11
-1.90145
 21
10.7836
  0
LINE
  8
0
 10
-1.90145
 20
10.7836
 11
-1.42931
 21
10.85
  0
LINE
  8
0
 10
-1.42931
 20
10.85
 11
1.42931
 21
10.85
  0
LINE
  8
0
 10
1.42931
 20
10.85
 11
1.90145
 21
10.7836
  0
LINE
  8
0
 10
1.90145
 20
10.7836
 11
2.64904
 21
10.6247
  0
LINE
  8
0
 10
2.64904
 20
10.6247
 11
3.38374
 21
10.4141
  0
LINE
  8
0
 10
3.38374
 20
10.4141
 11
4.10194
 21
10.1527
  0
LINE
  8
0
 10
4.10194
 20
10.1527
 11
4.80016
 21
9.84179
  0
LINE
  8
0
 10
4.80016
 20
9.84179
 11
5.475
 21
9.48298
  0
LINE
  8
0
 10
5.475
 20
9.48298
 11
6.12316
 21
9.07796
  0
LINE
  8
0
 10
6.12316
 20
9.07796
 11
6.74149
 21
8.62872
  0
LINE
  8
0
 10
6.74149
 20
8.62872
 11
7.32698
 21
8.13743
  0
LINE
  8
0
 10
7.32698
 20
8.13743
 11
7.87677
 21
7.60651
  0
LINE
  8
0
 10
7.87677
 20
7.60651
 11
8.38819
 21
7.03852
  0
LINE
  8
0
 10
8.38819
 20
7.03852
 11
8.85874
 21
6.43625
  0
LINE
  8
0
 10
8.85874
 20
6.43625
 11
9.28613
 21
5.80262
  0
LINE
  8
0
 10
9.28613
 20
5.80262
 11
9.66828
 21
5.14071
  0
LINE
  8
0
 10
9.66828
 20
5.14071
 11
10.0033
 21
4.45377
  0
LINE
  8
0
 10
10.0033
 20
4.45377
 11
10.2896
 21
3.74512
  0
LINE
  8
0
 10
10.2896
 20
3.74512
 11
10.5258
 21
3.01823
  0
LINE
  8
0
 10
10.5258
 20
3.01823
 11
10.7107
 21
2.27663
  0
LINE
  8
0
 10
10.7107
 20
2.27663
 11
10.825
 21
1.6285
  0
LINE
  8
0
 10
10.825
 20
1.6285
 11
10.825
 21
-1.6285
  0
LINE
  8
0
 10
10.825
 20
-1.6285
 11
10.7107
 21
-2.27663
  0
LINE
  8
0
 10
10.7107
 20
-2.27663
 11
10.5258
 21
-3.01823
  0
LINE
  8
0
 10
10.5258
 20
-3.01823
 11
10.2896
 21
-3.74512
  0
LINE
  8
0
 10
10.2896
 20
-3.74512
 11
10.0033
 21
-4.45377
  0
LINE
  8
0
 10
10.0033
 20
-4.45377
 11
9.66828
 21
-5.14071
  0
LINE
  8
0
 10
9.66828
 20
-5.14071
 11
9.28613
 21
-5.80262
  0
LINE
  8
0
 10
9.28613
 20
-5.80262
 11
8.85874
 21
-6.43625
  0
LINE
  8
0
 10
8.85874
 20
-6.43625
 11
8.38819
 21
-7.03852
  0
LINE
  8
0
 10
8.38819
 20
-7.03852
 11
7.87677
 21
-7.60651
  0
LINE
  8
0
 10
7.87677
 20
-7.60651
 11
7.32698
 21
-8.13743
  0
LINE
  8
0
 10
7.32698
 20
-8.13743
 11
6.74149
 21
-8.62872
  0
LINE
  8
0
 10
6.74149
 20
-8.62872
 11
6.12316
 21
-9.07796
  0
LINE
  8
0
 10
6.12316
 20
-9.07796
 11
5.475
 21
-9.48298
  0
LINE
  8
0
 10
5.475
 20
-9.48298
 11
4.80016
 21
-9.84179
  0
LINE
  8
0
 10
4.80016
 20
-9.84179
 11
4.10194
 21
-10.1527
  0
LINE
  8
0
 10
4.10194
 20
-10.1527
 11
3.38374
 21
-10.4141
  0
LINE
  8
0
 10
3.38374
 20
-10.4141
 11
2.64904
 21
-10.6247
  0
LINE
  8
0
 10
2.64904
 20
-10.6247
 11
1.90145
 21
-10.7836
  0
LINE
  8
0
 10
1.90145
 20
-10.7836
 11
1.42931
 21
-10.85
  0
LINE
  8
0
 10
1.42931
 20
-10.85
 11
-1.42931
 21
-10.85
  0
LINE
  8
0
 10
-1.42931
 20
-10.85
 11
-1.90145
 21
-10.7836
  0
LINE
  8
0
 10
-1.90145
 20
-10.7836
 11
-2.64904
 21
-10.6247
  0
LINE
  8
0
 10
-2.64904
 20
-10.6247
 11
-3.38374
 21
-10.4141
  0
LINE
  8
0
 10
-3.38374
 20
-10.4141
 11
-4.10194
 21
-10.1527
  0
LINE
  8
0
 10
-4.10194
 20
-10.1527
 11
-4.80016
 21
-9.84179
  0
LINE
  8
0
 10
-4.80016
 20
-9.84179
 11
-5.475
 21
-9.48298
  0
LINE
  8
0
 10
-5.475
 20
-9.48298
 11
-6.12316
 21
-9.07796
  0
LINE
  8
0
 10
-6.12316
 20
-9.07796
 11
-6.74149
 21
-8.62872
  0
LINE
  8
0
 10
-6.74149
 20
-8.62872
 11
-7.32698
 21
-8.13743
  0
LINE
  8
0
 10
-7.32698
 20
-8.13743
 11
-7.87677
 21
-7.60651
  0
LINE
  8
0
 10
-7.87677
 20
-7.60651
 11
-8.38819
 21
-7.03852
  0
LINE
  8
0
 10
-8.38819
 20
-7.03852
 11
-8.85874
 21
-6.43625
  0
LINE
  8
0
 10
-8.85874
 20
-6.43625
 11
-9.28613
 21
-5.80262
  0
LINE
  8
0
 10
-9.28613
 20
-5.80262
 11
-9.66828
 21
-5.14071
  0
LINE
  8
0
 10
-9.66828
 20
-5.14071
 11
-10.0033
 21
-4.45377
  0
LINE
  8
0
 10
-10.0033
 20
-4.45377
 11
-10.2896
 21
-3.74512
  0
LINE
  8
0
 10
-10.2896
 20
-3.74512
 11
-10.5258
 21
-3.01823
  0
LINE
  8
0
 10
-10.5258
 20
-3.01823
 11
-10.7107
 21
-2.27663
  0
LINE
  8
0
 10
-10.7107
 20
-2.27663
 11
-10.825
 21
-1.6285
  0
LINE
  8
0
 10
14.15
 20
-84.55
 11
14.1535
 21
-84.4489
  0
LINE
  8
0
 10
14.1535
 20
-84.4489
 11
14.1641
 21
-84.3482
  0
LINE
  8
0
 10
14.1641
 20
-84.3482
 11
14.1817
 21
-84.2485
  0
LINE
  8
0
 10
14.1817
 20
-84.2485
 11
14.2062
 21
-84.1503
  0
LINE
  8
0
 10
14.2062
 20
-84.1503
 11
14.2374
 21
-84.0541
  0
LINE
  8
0
 10
14.2374
 20
-84.0541
 11
14.2754
 21
-83.9602
  0
LINE
  8
0
 10
14.2754
 20
-83.9602
 11
14.3197
 21
-83.8693
  0
LINE
  8
0
 10
14.3197
 20
-83.8693
 11
14.3703
 21
-83.7816
  0
LINE
  8
0
 10
14.3703
 20
-83.7816
 11
14.4269
 21
-83.6977
  0
LINE
  8
0
 10
14.4269
 20
-83.6977
 11
14.4892
 21
-83.618
  0
LINE
  8
0
 10
14.4892
 20
-83.618
 11
14.557
 21
-83.5427
  0
LINE
  8
0
 10
14.557
 20
-83.5427
 11
14.6298
 21
-83.4724
  0
LINE
  8
0
 10
14.6298
 20
-83.4724
 11
14.7073
 21
-83.4074
  0
LINE
  8
0
 10
14.7073
 20
-83.4074
 11
14.7892
 21
-83.3479
  0
LINE
  8
0
 10
14.7892
 20
-83.3479
 11
14.875
 21
-83.2943
  0
LINE
  8
0
 10
14.875
 20
-83.2943
 11
14.9644
 21
-83.2467
  0
LINE
  8
0
 10
14.9644
 20
-83.2467
 11
15.0568
 21
-83.2056
  0
LINE
  8
0
 10
15.0568
 20
-83.2056
 11
15.1519
 21
-83.171
  0
LINE
  8
0
 10
15.1519
 20
-83.171
 11
15.2492
 21
-83.1431
  0
LINE
  8
0
 10
15.2492
 20
-83.1431
 11
15.3482
 21
-83.122
  0
LINE
  8
0
 10
15.3482
 20
-83.122
 11
15.4484
 21
-83.1079
  0
LINE
  8
0
 10
15.4484
 20
-83.1079
 11
15.5494
 21
-83.1009
  0
LINE
  8
0
 10
15.5494
 20
-83.1009
 11
15.6506
 21
-83.1009
  0
LINE
  8
0
 10
15.6506
 20
-83.1009
 11
15.7516
 21
-83.1079
  0
LINE
  8
0
 10
15.7516
 20
-83.1079
 11
15.8518
 21
-83.122
  0
LINE
  8
0
 10
15.8518
 20
-83.122
 11
15.9508
 21
-83.1431
  0
LINE
  8
0
 10
15.9508
 20
-83.1431
 11
16.0481
 21
-83.171
  0
LINE
  8
0
 10
16.0481
 20
-83.171
 11
16.1432
 21
-83.2056
  0
LINE
  8
0
 10
16.1432
 20
-83.2056
 11
16.2356
 21
-83.2467
  0
LINE
  8
0
 10
16.2356
 20
-83.2467
 11
16.325
 21
-83.2943
  0
LINE
  8
0
 10
16.325
 20
-83.2943
 11
16.4108
 21
-83.3479
  0
LINE
  8
0
 10
16.4108
 20
-83.3479
 11
16.4927
 21
-83.4074
  0
LINE
  8
0
 10
16.4927
 20
-83.4074
 11
16.5702
 21
-83.4724
  0
LINE
  8
0
 10
16.5702
 20
-83.4724
 11
16.643
 21
-83.5427
  0
LINE
  8
0
 10
16.643
 20
-83.5427
 11
16.7108
 21
-83.618
  0
LINE
  8
0
 10
16.7108
 20
-83.618
 11
16.7731
 21
-83.6977
  0
LINE
  8
0
 10
16.7731
 20
-83.6977
 11
16.8297
 21
-83.7816
  0
LINE
  8
0
 10
16.8297
 20
-83.7816
 11
16.8803
 21
-83.8693
  0
LINE
  8
0
 10
16.8803
 20
-83.8693
 11
16.9246
 21
-83.9602
  0
LINE
  8
0
 10
16.9246
 20
-83.9602
 11
16.9626
 21
-84.0541
  0
LINE
  8
0
 10
16.9626
 20
-84.0541
 11
16.9938
 21
-84.1503
  0
LINE
  8
0
 10
16.9938
 20
-84.1503
 11
17.0183
 21
-84.2485
  0
LINE
  8
0
 10
17.0183
 20
-84.2485
 11
17.0359
 21
-84.3482
  0
LINE
  8
0
 10
17.0359
 20
-84.3482
 11
17.0465
 21
-84.4489
  0
LINE
  8
0
 10
17.0465
 20
-84.4489
 11
17.05
 21
-84.55
  0
LINE
  8
0
 10
17.05
 20
-84.55
 11
17.0465
 21
-84.6511
  0
LINE
  8
0
 10
17.0465
 20
-84.6511
 11
17.0359
 21
-84.7518
  0
LINE
  8
0
 10
17.0359
 20
-84.7518
 11
17.0183
 21
-84.8515
  0
LINE
  8
0
 10
17.0183
 20
-84.8515
 11
16.9938
 21
-84.9497
  0
LINE
  8
0
 10
16.9938
 20
-84.9497
 11
16.9626
 21
-85.0459
  0
LINE
  8
0
 10
16.9626
 20
-85.0459
 11
16.9246
 21
-85.1398
  0
LINE
  8
0
 10
16.9246
 20
-85.1398
 11
16.8803
 21
-85.2307
  0
LINE
  8
0
 10
16.8803
 20
-85.2307
 11
16.8297
 21
-85.3184
  0
LINE
  8
0
 10
16.8297
 20
-85.3184
 11
16.7731
 21
-85.4023
  0
LINE
  8
0
 10
16.7731
 20
-85.4023
 11
16.7108
 21
-85.482
  0
LINE
  8
0
 10
16.7108
 20
-85.482
 11
16.643
 21
-85.5573
  0
LINE
  8
0
 10
16.643
 20
-85.5573
 11
16.5702
 21
-85.6276
  0
LINE
  8
0
 10
16.5702
 20
-85.6276
 11
16.4927
 21
-85.6926
  0
LINE
  8
0
 10
16.4927
 20
-85.6926
 11
16.4108
 21
-85.7521
  0
LINE
  8
0
 10
16.4108
 20
-85.7521
 11
16.325
 21
-85.8057
  0
LINE
  8
0
 10
16.325
 20
-85.8057
 11
16.2356
 21
-85.8533
  0
LINE
  8
0
 10
16.2356
 20
-85.8533
 11
16.1432
 21
-85.8944
  0
LINE
  8
0
 10
16.1432
 20
-85.8944
 11
16.0481
 21
-85.929
  0
LINE
  8
0
 10
16.0481
 20
-85.929
 11
15.9508
 21
-85.9569
  0
LINE
  8
0
 10
15.9508
 20
-85.9569
 11
15.8518
 21
-85.978
  0
LINE
  8
0
 10
15.8518
 20
-85.978
 11
15.7516
 21
-85.9921
  0
LINE
  8
0
 10
15.7516
 20
-85.9921
 11
15.6506
 21
-85.9991
  0
LINE
  8
0
 10
15.6506
 20
-85.9991
 11
15.5494
 21
-85.9991
  0
LINE
  8
0
 10
15.5494
 20
-85.9991
 11
15.4484
 21
-85.9921
  0
LINE
  8
0
 10
15.4484
 20
-85.9921
 11
15.3482
 21
-85.978
  0
LINE
  8
0
 10
15.3482
 20
-85.978
 11
15.2492
 21
-85.9569
  0
LINE
  8
0
 10
15.2492
 20
-85.9569
 11
15.1519
 21
-85.929
  0
LINE
  8
0
 10
15.1519
 20
-85.929
 11
15.0568
 21
-85.8944
  0
LINE
  8
0
 10
15.0568
 20
-85.8944
 11
14.9644
 21
-85.8533
  0
LINE
  8
0
 10
14.9644
 20
-85.8533
 11
14.875
 21
-85.8057
  0
LINE
  8
0
 10
14.875
 20
-85.8057
 11
14.7892
 21
-85.7521
  0
LINE
  8
0
 10
14.7892
 20
-85.7521
 11
14.7073
 21
-85.6926
  0
LINE
  8
0
 10
14.7073
 20
-85.6926
 11
14.6298
 21
-85.6276
  0
LINE
  8
0
 10
14.6298
 20
-85.6276
 11
14.557
 21
-85.5573
  0
LINE
  8
0
 10
14.557
 20
-85.5573
 11
14.4892
 21
-85.482
  0
LINE
  8
0
 10
14.4892
 20
-85.482
 11
14.4269
 21
-85.4023
  0
LINE
  8
0
 10
14.4269
 20
-85.4023
 11
14.3703
 21
-85.3184
  0
LINE
  8
0
 10
14.3703
 20
-85.3184
 11
14.3197
 21
-85.2307
  0
LINE
  8
0
 10
14.3197
 20
-85.2307
 11
14.2754
 21
-85.1398
  0
LINE
  8
0
 10
14.2754
 20
-85.1398
 11
14.2374
 21
-85.0459
  0
LINE
  8
0
 10
14.2374
 20
-85.0459
 11
14.2062
 21
-84.9497
  0
LINE
  8
0
 10
14.2062
 20
-84.9497
 11
14.1817
 21
-84.8515
  0
LINE
  8
0
 10
14.1817
 20
-84.8515
 11
14.1641
 21
-84.7518
  0
LINE
  8
0
 10
14.1641
 20
-84.7518
 11
14.1535
 21
-84.6511
  0
LINE
  8
0
 10
14.1535
 20
-84.6511
 11
14.15
 21
-84.55
  0
ENDSEC
  0
SECTION
  2
OBJECTS
  0
DICTIONARY
  0
ENDSEC
  0
EOF
