  0
SECTION
  2
BLOCKS
  0
ENDSEC
  0
SECTION
  2
ENTITIES
  0
LINE
  8
0
 10
-65.21
 20
-97.0173
 11
65.19
 21
-97.0173
  0
LINE
  8
0
 10
65.19
 20
-97.0173
 11
65.22
 21
-97
  0
LINE
  8
0
 10
65.22
 20
-97
 11
65.22
 21
97
  0
LINE
  8
0
 10
65.22
 20
97
 11
65.19
 21
97.0173
  0
LINE
  8
0
 10
65.19
 20
97.0173
 11
-65.21
 21
97.0173
  0
LINE
  8
0
 10
-65.21
 20
97.0173
 11
-65.21
 21
-97.0173
  0
LINE
  8
0
 10
-60.15
 20
-90.6
 11
-60.1205
 21
-90.3193
  0
LINE
  8
0
 10
-60.1205
 20
-90.3193
 11
-60.0333
 21
-90.0509
  0
LINE
  8
0
 10
-60.0333
 20
-90.0509
 11
-59.8922
 21
-89.8065
  0
LINE
  8
0
 10
-59.8922
 20
-89.8065
 11
-59.7033
 21
-89.5968
  0
LINE
  8
0
 10
-59.7033
 20
-89.5968
 11
-59.475
 21
-89.4309
  0
LINE
  8
0
 10
-59.475
 20
-89.4309
 11
-59.2172
 21
-89.3161
  0
LINE
  8
0
 10
-59.2172
 20
-89.3161
 11
-58.9411
 21
-89.2574
  0
LINE
  8
0
 10
-58.9411
 20
-89.2574
 11
-58.6589
 21
-89.2574
  0
LINE
  8
0
 10
-58.6589
 20
-89.2574
 11
-58.3828
 21
-89.3161
  0
LINE
  8
0
 10
-58.3828
 20
-89.3161
 11
-58.125
 21
-89.4309
  0
LINE
  8
0
 10
-58.125
 20
-89.4309
 11
-57.8967
 21
-89.5968
  0
LINE
  8
0
 10
-57.8967
 20
-89.5968
 11
-57.7078
 21
-89.8065
  0
LINE
  8
0
 10
-57.7078
 20
-89.8065
 11
-57.5667
 21
-90.0509
  0
LINE
  8
0
 10
-57.5667
 20
-90.0509
 11
-57.4795
 21
-90.3193
  0
LINE
  8
0
 10
-57.4795
 20
-90.3193
 11
-57.45
 21
-90.6
  0
LINE
  8
0
 10
-57.45
 20
-90.6
 11
-57.4795
 21
-90.8807
  0
LINE
  8
0
 10
-57.4795
 20
-90.8807
 11
-57.5667
 21
-91.1491
  0
LINE
  8
0
 10
-57.5667
 20
-91.1491
 11
-57.7078
 21
-91.3935
  0
LINE
  8
0
 10
-57.7078
 20
-91.3935
 11
-57.8967
 21
-91.6032
  0
LINE
  8
0
 10
-57.8967
 20
-91.6032
 11
-58.125
 21
-91.7691
  0
LINE
  8
0
 10
-58.125
 20
-91.7691
 11
-58.3828
 21
-91.8839
  0
LINE
  8
0
 10
-58.3828
 20
-91.8839
 11
-58.6589
 21
-91.9426
  0
LINE
  8
0
 10
-58.6589
 20
-91.9426
 11
-58.9411
 21
-91.9426
  0
LINE
  8
0
 10
-58.9411
 20
-91.9426
 11
-59.2172
 21
-91.8839
  0
LINE
  8
0
 10
-59.2172
 20
-91.8839
 11
-59.475
 21
-91.7691
  0
LINE
  8
0
 10
-59.475
 20
-91.7691
 11
-59.7033
 21
-91.6032
  0
LINE
  8
0
 10
-59.7033
 20
-91.6032
 11
-59.8922
 21
-91.3935
  0
LINE
  8
0
 10
-59.8922
 20
-91.3935
 11
-60.0333
 21
-91.1491
  0
LINE
  8
0
 10
-60.0333
 20
-91.1491
 11
-60.1205
 21
-90.8807
  0
LINE
  8
0
 10
-60.1205
 20
-90.8807
 11
-60.15
 21
-90.6
  0
LINE
  8
0
 10
-60.15
 20
90.6
 11
-60.1205
 21
90.8807
  0
LINE
  8
0
 10
-60.1205
 20
90.8807
 11
-60.0333
 21
91.1491
  0
LINE
  8
0
 10
-60.0333
 20
91.1491
 11
-59.8922
 21
91.3935
  0
LINE
  8
0
 10
-59.8922
 20
91.3935
 11
-59.7033
 21
91.6032
  0
LINE
  8
0
 10
-59.7033
 20
91.6032
 11
-59.475
 21
91.7691
  0
LINE
  8
0
 10
-59.475
 20
91.7691
 11
-59.2172
 21
91.8839
  0
LINE
  8
0
 10
-59.2172
 20
91.8839
 11
-58.9411
 21
91.9426
  0
LINE
  8
0
 10
-58.9411
 20
91.9426
 11
-58.6589
 21
91.9426
  0
LINE
  8
0
 10
-58.6589
 20
91.9426
 11
-58.3828
 21
91.8839
  0
LINE
  8
0
 10
-58.3828
 20
91.8839
 11
-58.125
 21
91.7691
  0
LINE
  8
0
 10
-58.125
 20
91.7691
 11
-57.8967
 21
91.6032
  0
LINE
  8
0
 10
-57.8967
 20
91.6032
 11
-57.7078
 21
91.3935
  0
LINE
  8
0
 10
-57.7078
 20
91.3935
 11
-57.5667
 21
91.1491
  0
LINE
  8
0
 10
-57.5667
 20
91.1491
 11
-57.4795
 21
90.8807
  0
LINE
  8
0
 10
-57.4795
 20
90.8807
 11
-57.45
 21
90.6
  0
LINE
  8
0
 10
-57.45
 20
90.6
 11
-57.4795
 21
90.3193
  0
LINE
  8
0
 10
-57.4795
 20
90.3193
 11
-57.5667
 21
90.0509
  0
LINE
  8
0
 10
-57.5667
 20
90.0509
 11
-57.7078
 21
89.8065
  0
LINE
  8
0
 10
-57.7078
 20
89.8065
 11
-57.8967
 21
89.5968
  0
LINE
  8
0
 10
-57.8967
 20
89.5968
 11
-58.125
 21
89.4309
  0
LINE
  8
0
 10
-58.125
 20
89.4309
 11
-58.3828
 21
89.3161
  0
LINE
  8
0
 10
-58.3828
 20
89.3161
 11
-58.6589
 21
89.2574
  0
LINE
  8
0
 10
-58.6589
 20
89.2574
 11
-58.9411
 21
89.2574
  0
LINE
  8
0
 10
-58.9411
 20
89.2574
 11
-59.2172
 21
89.3161
  0
LINE
  8
0
 10
-59.2172
 20
89.3161
 11
-59.475
 21
89.4309
  0
LINE
  8
0
 10
-59.475
 20
89.4309
 11
-59.7033
 21
89.5968
  0
LINE
  8
0
 10
-59.7033
 20
89.5968
 11
-59.8922
 21
89.8065
  0
LINE
  8
0
 10
-59.8922
 20
89.8065
 11
-60.0333
 21
90.0509
  0
LINE
  8
0
 10
-60.0333
 20
90.0509
 11
-60.1205
 21
90.3193
  0
LINE
  8
0
 10
-60.1205
 20
90.3193
 11
-60.15
 21
90.6
  0
LINE
  8
0
 10
-52.825
 20
0
 11
-52.8031
 21
0.207911
  0
LINE
  8
0
 10
-52.8031
 20
0.207911
 11
-52.7385
 21
0.406736
  0
LINE
  8
0
 10
-52.7385
 20
0.406736
 11
-52.634
 21
0.587785
  0
LINE
  8
0
 10
-52.634
 20
0.587785
 11
-52.4941
 21
0.743144
  0
LINE
  8
0
 10
-52.4941
 20
0.743144
 11
-52.325
 21
0.866025
  0
LINE
  8
0
 10
-52.325
 20
0.866025
 11
-52.134
 21
0.951056
  0
LINE
  8
0
 10
-52.134
 20
0.951056
 11
-51.9295
 21
0.994521
  0
LINE
  8
0
 10
-51.9295
 20
0.994521
 11
-51.7205
 21
0.994521
  0
LINE
  8
0
 10
-51.7205
 20
0.994521
 11
-51.516
 21
0.951056
  0
LINE
  8
0
 10
-51.516
 20
0.951056
 11
-51.325
 21
0.866025
  0
LINE
  8
0
 10
-51.325
 20
0.866025
 11
-51.1559
 21
0.743144
  0
LINE
  8
0
 10
-51.1559
 20
0.743144
 11
-51.016
 21
0.587785
  0
LINE
  8
0
 10
-51.016
 20
0.587785
 11
-50.9115
 21
0.406736
  0
LINE
  8
0
 10
-50.9115
 20
0.406736
 11
-50.8469
 21
0.207911
  0
LINE
  8
0
 10
-50.8469
 20
0.207911
 11
-50.825
 21
0
  0
LINE
  8
0
 10
-50.825
 20
0
 11
-50.8469
 21
-0.207911
  0
LINE
  8
0
 10
-50.8469
 20
-0.207911
 11
-50.9115
 21
-0.406736
  0
LINE
  8
0
 10
-50.9115
 20
-0.406736
 11
-51.016
 21
-0.587785
  0
LINE
  8
0
 10
-51.016
 20
-0.587785
 11
-51.1559
 21
-0.743144
  0
LINE
  8
0
 10
-51.1559
 20
-0.743144
 11
-51.325
 21
-0.866025
  0
LINE
  8
0
 10
-51.325
 20
-0.866025
 11
-51.516
 21
-0.951056
  0
LINE
  8
0
 10
-51.516
 20
-0.951056
 11
-51.7205
 21
-0.994521
  0
LINE
  8
0
 10
-51.7205
 20
-0.994521
 11
-51.9295
 21
-0.994521
  0
LINE
  8
0
 10
-51.9295
 20
-0.994521
 11
-52.134
 21
-0.951056
  0
LINE
  8
0
 10
-52.134
 20
-0.951056
 11
-52.325
 21
-0.866025
  0
LINE
  8
0
 10
-52.325
 20
-0.866025
 11
-52.4941
 21
-0.743144
  0
LINE
  8
0
 10
-52.4941
 20
-0.743144
 11
-52.634
 21
-0.587785
  0
LINE
  8
0
 10
-52.634
 20
-0.587785
 11
-52.7385
 21
-0.406736
  0
LINE
  8
0
 10
-52.7385
 20
-0.406736
 11
-52.8031
 21
-0.207911
  0
LINE
  8
0
 10
-52.8031
 20
-0.207911
 11
-52.825
 21
0
  0
LINE
  8
0
 10
-50.325
 20
-20.3
 11
-50.325
 21
-14.3
  0
LINE
  8
0
 10
-50.325
 20
-14.3
 11
-35.325
 21
-14.3
  0
LINE
  8
0
 10
-35.325
 20
-14.3
 11
-35.325
 21
-20.3
  0
LINE
  8
0
 10
-35.325
 20
-20.3
 11
-50.325
 21
-20.3
  0
LINE
  8
0
 10
-50.325
 20
14.3
 11
-50.325
 21
20.3
  0
LINE
  8
0
 10
-50.325
 20
20.3
 11
-35.325
 21
20.3
  0
LINE
  8
0
 10
-35.325
 20
20.3
 11
-35.325
 21
14.3
  0
LINE
  8
0
 10
-35.325
 20
14.3
 11
-50.325
 21
14.3
  0
LINE
  8
0
 10
-47.325
 20
-2
 11
-47.325
 21
2
  0
LINE
  8
0
 10
-47.325
 20
2
 11
-38.325
 21
2
  0
LINE
  8
0
 10
-38.325
 20
2
 11
-38.325
 21
-2
  0
LINE
  8
0
 10
-38.325
 20
-2
 11
-47.325
 21
-2
  0
LINE
  8
0
 10
-41.875
 20
-54.5
 11
-41.2085
 21
-48.1587
  0
LINE
  8
0
 10
-41.2085
 20
-48.1587
 11
-39.2381
 21
-42.0945
  0
LINE
  8
0
 10
-39.2381
 20
-42.0945
 11
-36.05
 21
-36.5725
  0
LINE
  8
0
 10
-36.05
 20
-36.5725
 11
-31.7835
 21
-31.8341
  0
LINE
  8
0
 10
-31.7835
 20
-31.8341
 11
-26.625
 21
-28.0862
  0
LINE
  8
0
 10
-26.625
 20
-28.0862
 11
-20.8
 21
-25.4928
  0
LINE
  8
0
 10
-20.8
 20
-25.4928
 11
-14.5631
 21
-24.1671
  0
LINE
  8
0
 10
-14.5631
 20
-24.1671
 11
-8.18688
 21
-24.1671
  0
LINE
  8
0
 10
-8.18688
 20
-24.1671
 11
-1.94998
 21
-25.4928
  0
LINE
  8
0
 10
-1.94998
 20
-25.4928
 11
3.875
 21
-28.0862
  0
LINE
  8
0
 10
3.875
 20
-28.0862
 11
9.03348
 21
-31.8341
  0
LINE
  8
0
 10
9.03348
 20
-31.8341
 11
13.3
 21
-36.5725
  0
LINE
  8
0
 10
13.3
 20
-36.5725
 11
16.4881
 21
-42.0945
  0
LINE
  8
0
 10
16.4881
 20
-42.0945
 11
18.4585
 21
-48.1587
  0
LINE
  8
0
 10
18.4585
 20
-48.1587
 11
19.125
 21
-54.5
  0
LINE
  8
0
 10
19.125
 20
-54.5
 11
18.4585
 21
-60.8413
  0
LINE
  8
0
 10
18.4585
 20
-60.8413
 11
16.4881
 21
-66.9055
  0
LINE
  8
0
 10
16.4881
 20
-66.9055
 11
13.3
 21
-72.4275
  0
LINE
  8
0
 10
13.3
 20
-72.4275
 11
9.03348
 21
-77.1659
  0
LINE
  8
0
 10
9.03348
 20
-77.1659
 11
3.875
 21
-80.9138
  0
LINE
  8
0
 10
3.875
 20
-80.9138
 11
-1.94998
 21
-83.5072
  0
LINE
  8
0
 10
-1.94998
 20
-83.5072
 11
-8.18688
 21
-84.8329
  0
LINE
  8
0
 10
-8.18688
 20
-84.8329
 11
-14.5631
 21
-84.8329
  0
LINE
  8
0
 10
-14.5631
 20
-84.8329
 11
-20.8
 21
-83.5072
  0
LINE
  8
0
 10
-20.8
 20
-83.5072
 11
-26.625
 21
-80.9138
  0
LINE
  8
0
 10
-26.625
 20
-80.9138
 11
-31.7835
 21
-77.1659
  0
LINE
  8
0
 10
-31.7835
 20
-77.1659
 11
-36.05
 21
-72.4275
  0
LINE
  8
0
 10
-36.05
 20
-72.4275
 11
-39.2381
 21
-66.9055
  0
LINE
  8
0
 10
-39.2381
 20
-66.9055
 11
-41.2085
 21
-60.8413
  0
LINE
  8
0
 10
-41.2085
 20
-60.8413
 11
-41.875
 21
-54.5
  0
LINE
  8
0
 10
-34.825
 20
0
 11
-34.8031
 21
0.207911
  0
LINE
  8
0
 10
-34.8031
 20
0.207911
 11
-34.7385
 21
0.406736
  0
LINE
  8
0
 10
-34.7385
 20
0.406736
 11
-34.634
 21
0.587785
  0
LINE
  8
0
 10
-34.634
 20
0.587785
 11
-34.4941
 21
0.743144
  0
LINE
  8
0
 10
-34.4941
 20
0.743144
 11
-34.325
 21
0.866025
  0
LINE
  8
0
 10
-34.325
 20
0.866025
 11
-34.134
 21
0.951056
  0
LINE
  8
0
 10
-34.134
 20
0.951056
 11
-33.9295
 21
0.994521
  0
LINE
  8
0
 10
-33.9295
 20
0.994521
 11
-33.7205
 21
0.994521
  0
LINE
  8
0
 10
-33.7205
 20
0.994521
 11
-33.516
 21
0.951056
  0
LINE
  8
0
 10
-33.516
 20
0.951056
 11
-33.325
 21
0.866025
  0
LINE
  8
0
 10
-33.325
 20
0.866025
 11
-33.1559
 21
0.743144
  0
LINE
  8
0
 10
-33.1559
 20
0.743144
 11
-33.016
 21
0.587785
  0
LINE
  8
0
 10
-33.016
 20
0.587785
 11
-32.9115
 21
0.406736
  0
LINE
  8
0
 10
-32.9115
 20
0.406736
 11
-32.8469
 21
0.207911
  0
LINE
  8
0
 10
-32.8469
 20
0.207911
 11
-32.825
 21
0
  0
LINE
  8
0
 10
-32.825
 20
0
 11
-32.8469
 21
-0.207911
  0
LINE
  8
0
 10
-32.8469
 20
-0.207911
 11
-32.9115
 21
-0.406736
  0
LINE
  8
0
 10
-32.9115
 20
-0.406736
 11
-33.016
 21
-0.587785
  0
LINE
  8
0
 10
-33.016
 20
-0.587785
 11
-33.1559
 21
-0.743144
  0
LINE
  8
0
 10
-33.1559
 20
-0.743144
 11
-33.325
 21
-0.866025
  0
LINE
  8
0
 10
-33.325
 20
-0.866025
 11
-33.516
 21
-0.951056
  0
LINE
  8
0
 10
-33.516
 20
-0.951056
 11
-33.7205
 21
-0.994521
  0
LINE
  8
0
 10
-33.7205
 20
-0.994521
 11
-33.9295
 21
-0.994521
  0
LINE
  8
0
 10
-33.9295
 20
-0.994521
 11
-34.134
 21
-0.951056
  0
LINE
  8
0
 10
-34.134
 20
-0.951056
 11
-34.325
 21
-0.866025
  0
LINE
  8
0
 10
-34.325
 20
-0.866025
 11
-34.4941
 21
-0.743144
  0
LINE
  8
0
 10
-34.4941
 20
-0.743144
 11
-34.634
 21
-0.587785
  0
LINE
  8
0
 10
-34.634
 20
-0.587785
 11
-34.7385
 21
-0.406736
  0
LINE
  8
0
 10
-34.7385
 20
-0.406736
 11
-34.8031
 21
-0.207911
  0
LINE
  8
0
 10
-34.8031
 20
-0.207911
 11
-34.825
 21
0
  0
LINE
  8
0
 10
-22.55
 20
-19
 11
-22.5205
 21
-18.7193
  0
LINE
  8
0
 10
-22.5205
 20
-18.7193
 11
-22.4333
 21
-18.4509
  0
LINE
  8
0
 10
-22.4333
 20
-18.4509
 11
-22.2922
 21
-18.2065
  0
LINE
  8
0
 10
-22.2922
 20
-18.2065
 11
-22.1033
 21
-17.9968
  0
LINE
  8
0
 10
-22.1033
 20
-17.9968
 11
-21.875
 21
-17.8309
  0
LINE
  8
0
 10
-21.875
 20
-17.8309
 11
-21.6172
 21
-17.7161
  0
LINE
  8
0
 10
-21.6172
 20
-17.7161
 11
-21.3411
 21
-17.6574
  0
LINE
  8
0
 10
-21.3411
 20
-17.6574
 11
-21.0589
 21
-17.6574
  0
LINE
  8
0
 10
-21.0589
 20
-17.6574
 11
-20.7828
 21
-17.7161
  0
LINE
  8
0
 10
-20.7828
 20
-17.7161
 11
-20.525
 21
-17.8309
  0
LINE
  8
0
 10
-20.525
 20
-17.8309
 11
-20.2967
 21
-17.9968
  0
LINE
  8
0
 10
-20.2967
 20
-17.9968
 11
-20.1078
 21
-18.2065
  0
LINE
  8
0
 10
-20.1078
 20
-18.2065
 11
-19.9667
 21
-18.4509
  0
LINE
  8
0
 10
-19.9667
 20
-18.4509
 11
-19.8795
 21
-18.7193
  0
LINE
  8
0
 10
-19.8795
 20
-18.7193
 11
-19.85
 21
-19
  0
LINE
  8
0
 10
-19.85
 20
-19
 11
-19.8795
 21
-19.2807
  0
LINE
  8
0
 10
-19.8795
 20
-19.2807
 11
-19.9667
 21
-19.5491
  0
LINE
  8
0
 10
-19.9667
 20
-19.5491
 11
-20.1078
 21
-19.7935
  0
LINE
  8
0
 10
-20.1078
 20
-19.7935
 11
-20.2967
 21
-20.0032
  0
LINE
  8
0
 10
-20.2967
 20
-20.0032
 11
-20.525
 21
-20.1691
  0
LINE
  8
0
 10
-20.525
 20
-20.1691
 11
-20.7828
 21
-20.2839
  0
LINE
  8
0
 10
-20.7828
 20
-20.2839
 11
-21.0589
 21
-20.3426
  0
LINE
  8
0
 10
-21.0589
 20
-20.3426
 11
-21.3411
 21
-20.3426
  0
LINE
  8
0
 10
-21.3411
 20
-20.3426
 11
-21.6172
 21
-20.2839
  0
LINE
  8
0
 10
-21.6172
 20
-20.2839
 11
-21.875
 21
-20.1691
  0
LINE
  8
0
 10
-21.875
 20
-20.1691
 11
-22.1033
 21
-20.0032
  0
LINE
  8
0
 10
-22.1033
 20
-20.0032
 11
-22.2922
 21
-19.7935
  0
LINE
  8
0
 10
-22.2922
 20
-19.7935
 11
-22.4333
 21
-19.5491
  0
LINE
  8
0
 10
-22.4333
 20
-19.5491
 11
-22.5205
 21
-19.2807
  0
LINE
  8
0
 10
-22.5205
 20
-19.2807
 11
-22.55
 21
-19
  0
LINE
  8
0
 10
-22.55
 20
21
 11
-22.5205
 21
21.2807
  0
LINE
  8
0
 10
-22.5205
 20
21.2807
 11
-22.4333
 21
21.5491
  0
LINE
  8
0
 10
-22.4333
 20
21.5491
 11
-22.2922
 21
21.7935
  0
LINE
  8
0
 10
-22.2922
 20
21.7935
 11
-22.1033
 21
22.0032
  0
LINE
  8
0
 10
-22.1033
 20
22.0032
 11
-21.875
 21
22.1691
  0
LINE
  8
0
 10
-21.875
 20
22.1691
 11
-21.6172
 21
22.2839
  0
LINE
  8
0
 10
-21.6172
 20
22.2839
 11
-21.3411
 21
22.3426
  0
LINE
  8
0
 10
-21.3411
 20
22.3426
 11
-21.0589
 21
22.3426
  0
LINE
  8
0
 10
-21.0589
 20
22.3426
 11
-20.7828
 21
22.2839
  0
LINE
  8
0
 10
-20.7828
 20
22.2839
 11
-20.525
 21
22.1691
  0
LINE
  8
0
 10
-20.525
 20
22.1691
 11
-20.2967
 21
22.0032
  0
LINE
  8
0
 10
-20.2967
 20
22.0032
 11
-20.1078
 21
21.7935
  0
LINE
  8
0
 10
-20.1078
 20
21.7935
 11
-19.9667
 21
21.5491
  0
LINE
  8
0
 10
-19.9667
 20
21.5491
 11
-19.8795
 21
21.2807
  0
LINE
  8
0
 10
-19.8795
 20
21.2807
 11
-19.85
 21
21
  0
LINE
  8
0
 10
-19.85
 20
21
 11
-19.8795
 21
20.7193
  0
LINE
  8
0
 10
-19.8795
 20
20.7193
 11
-19.9667
 21
20.4509
  0
LINE
  8
0
 10
-19.9667
 20
20.4509
 11
-20.1078
 21
20.2065
  0
LINE
  8
0
 10
-20.1078
 20
20.2065
 11
-20.2967
 21
19.9968
  0
LINE
  8
0
 10
-20.2967
 20
19.9968
 11
-20.525
 21
19.8309
  0
LINE
  8
0
 10
-20.525
 20
19.8309
 11
-20.7828
 21
19.7161
  0
LINE
  8
0
 10
-20.7828
 20
19.7161
 11
-21.0589
 21
19.6574
  0
LINE
  8
0
 10
-21.0589
 20
19.6574
 11
-21.3411
 21
19.6574
  0
LINE
  8
0
 10
-21.3411
 20
19.6574
 11
-21.6172
 21
19.7161
  0
LINE
  8
0
 10
-21.6172
 20
19.7161
 11
-21.875
 21
19.8309
  0
LINE
  8
0
 10
-21.875
 20
19.8309
 11
-22.1033
 21
19.9968
  0
LINE
  8
0
 10
-22.1033
 20
19.9968
 11
-22.2922
 21
20.2065
  0
LINE
  8
0
 10
-22.2922
 20
20.2065
 11
-22.4333
 21
20.4509
  0
LINE
  8
0
 10
-22.4333
 20
20.4509
 11
-22.5205
 21
20.7193
  0
LINE
  8
0
 10
-22.5205
 20
20.7193
 11
-22.55
 21
21
  0
LINE
  8
0
 10
-16
 20
-24
 11
-16
 21
26
  0
LINE
  8
0
 10
-16
 20
26
 11
16
 21
26
  0
LINE
  8
0
 10
16
 20
26
 11
16
 21
-24
  0
LINE
  8
0
 10
16
 20
-24
 11
-16
 21
-24
  0
LINE
  8
0
 10
17.45
 20
-19
 11
17.4795
 21
-18.7193
  0
LINE
  8
0
 10
17.4795
 20
-18.7193
 11
17.5667
 21
-18.4509
  0
LINE
  8
0
 10
17.5667
 20
-18.4509
 11
17.7078
 21
-18.2065
  0
LINE
  8
0
 10
17.7078
 20
-18.2065
 11
17.8967
 21
-17.9968
  0
LINE
  8
0
 10
17.8967
 20
-17.9968
 11
18.125
 21
-17.8309
  0
LINE
  8
0
 10
18.125
 20
-17.8309
 11
18.3828
 21
-17.7161
  0
LINE
  8
0
 10
18.3828
 20
-17.7161
 11
18.6589
 21
-17.6574
  0
LINE
  8
0
 10
18.6589
 20
-17.6574
 11
18.9411
 21
-17.6574
  0
LINE
  8
0
 10
18.9411
 20
-17.6574
 11
19.2172
 21
-17.7161
  0
LINE
  8
0
 10
19.2172
 20
-17.7161
 11
19.475
 21
-17.8309
  0
LINE
  8
0
 10
19.475
 20
-17.8309
 11
19.7033
 21
-17.9968
  0
LINE
  8
0
 10
19.7033
 20
-17.9968
 11
19.8922
 21
-18.2065
  0
LINE
  8
0
 10
19.8922
 20
-18.2065
 11
20.0333
 21
-18.4509
  0
LINE
  8
0
 10
20.0333
 20
-18.4509
 11
20.1205
 21
-18.7193
  0
LINE
  8
0
 10
20.1205
 20
-18.7193
 11
20.15
 21
-19
  0
LINE
  8
0
 10
20.15
 20
-19
 11
20.1205
 21
-19.2807
  0
LINE
  8
0
 10
20.1205
 20
-19.2807
 11
20.0333
 21
-19.5491
  0
LINE
  8
0
 10
20.0333
 20
-19.5491
 11
19.8922
 21
-19.7935
  0
LINE
  8
0
 10
19.8922
 20
-19.7935
 11
19.7033
 21
-20.0032
  0
LINE
  8
0
 10
19.7033
 20
-20.0032
 11
19.475
 21
-20.1691
  0
LINE
  8
0
 10
19.475
 20
-20.1691
 11
19.2172
 21
-20.2839
  0
LINE
  8
0
 10
19.2172
 20
-20.2839
 11
18.9411
 21
-20.3426
  0
LINE
  8
0
 10
18.9411
 20
-20.3426
 11
18.6589
 21
-20.3426
  0
LINE
  8
0
 10
18.6589
 20
-20.3426
 11
18.3828
 21
-20.2839
  0
LINE
  8
0
 10
18.3828
 20
-20.2839
 11
18.125
 21
-20.1691
  0
LINE
  8
0
 10
18.125
 20
-20.1691
 11
17.8967
 21
-20.0032
  0
LINE
  8
0
 10
17.8967
 20
-20.0032
 11
17.7078
 21
-19.7935
  0
LINE
  8
0
 10
17.7078
 20
-19.7935
 11
17.5667
 21
-19.5491
  0
LINE
  8
0
 10
17.5667
 20
-19.5491
 11
17.4795
 21
-19.2807
  0
LINE
  8
0
 10
17.4795
 20
-19.2807
 11
17.45
 21
-19
  0
LINE
  8
0
 10
17.45
 20
21
 11
17.4795
 21
21.2807
  0
LINE
  8
0
 10
17.4795
 20
21.2807
 11
17.5667
 21
21.5491
  0
LINE
  8
0
 10
17.5667
 20
21.5491
 11
17.7078
 21
21.7935
  0
LINE
  8
0
 10
17.7078
 20
21.7935
 11
17.8967
 21
22.0032
  0
LINE
  8
0
 10
17.8967
 20
22.0032
 11
18.125
 21
22.1691
  0
LINE
  8
0
 10
18.125
 20
22.1691
 11
18.3828
 21
22.2839
  0
LINE
  8
0
 10
18.3828
 20
22.2839
 11
18.6589
 21
22.3426
  0
LINE
  8
0
 10
18.6589
 20
22.3426
 11
18.9411
 21
22.3426
  0
LINE
  8
0
 10
18.9411
 20
22.3426
 11
19.2172
 21
22.2839
  0
LINE
  8
0
 10
19.2172
 20
22.2839
 11
19.475
 21
22.1691
  0
LINE
  8
0
 10
19.475
 20
22.1691
 11
19.7033
 21
22.0032
  0
LINE
  8
0
 10
19.7033
 20
22.0032
 11
19.8922
 21
21.7935
  0
LINE
  8
0
 10
19.8922
 20
21.7935
 11
20.0333
 21
21.5491
  0
LINE
  8
0
 10
20.0333
 20
21.5491
 11
20.1205
 21
21.2807
  0
LINE
  8
0
 10
20.1205
 20
21.2807
 11
20.15
 21
21
  0
LINE
  8
0
 10
20.15
 20
21
 11
20.1205
 21
20.7193
  0
LINE
  8
0
 10
20.1205
 20
20.7193
 11
20.0333
 21
20.4509
  0
LINE
  8
0
 10
20.0333
 20
20.4509
 11
19.8922
 21
20.2065
  0
LINE
  8
0
 10
19.8922
 20
20.2065
 11
19.7033
 21
19.9968
  0
LINE
  8
0
 10
19.7033
 20
19.9968
 11
19.475
 21
19.8309
  0
LINE
  8
0
 10
19.475
 20
19.8309
 11
19.2172
 21
19.7161
  0
LINE
  8
0
 10
19.2172
 20
19.7161
 11
18.9411
 21
19.6574
  0
LINE
  8
0
 10
18.9411
 20
19.6574
 11
18.6589
 21
19.6574
  0
LINE
  8
0
 10
18.6589
 20
19.6574
 11
18.3828
 21
19.7161
  0
LINE
  8
0
 10
18.3828
 20
19.7161
 11
18.125
 21
19.8309
  0
LINE
  8
0
 10
18.125
 20
19.8309
 11
17.8967
 21
19.9968
  0
LINE
  8
0
 10
17.8967
 20
19.9968
 11
17.7078
 21
20.2065
  0
LINE
  8
0
 10
17.7078
 20
20.2065
 11
17.5667
 21
20.4509
  0
LINE
  8
0
 10
17.5667
 20
20.4509
 11
17.4795
 21
20.7193
  0
LINE
  8
0
 10
17.4795
 20
20.7193
 11
17.45
 21
21
  0
LINE
  8
0
 10
35.325
 20
-20.3
 11
35.325
 21
-14.3
  0
LINE
  8
0
 10
35.325
 20
-14.3
 11
50.325
 21
-14.3
  0
LINE
  8
0
 10
50.325
 20
-14.3
 11
50.325
 21
-20.3
  0
LINE
  8
0
 10
50.325
 20
-20.3
 11
35.325
 21
-20.3
  0
LINE
  8
0
 10
35.325
 20
14.3
 11
35.325
 21
20.3
  0
LINE
  8
0
 10
35.325
 20
20.3
 11
50.325
 21
20.3
  0
LINE
  8
0
 10
50.325
 20
20.3
 11
50.325
 21
14.3
  0
LINE
  8
0
 10
50.325
 20
14.3
 11
35.325
 21
14.3
  0
LINE
  8
0
 10
39.325
 20
0
 11
39.4015
 21
0.727691
  0
LINE
  8
0
 10
39.4015
 20
0.727691
 11
39.6276
 21
1.42358
  0
LINE
  8
0
 10
39.6276
 20
1.42358
 11
39.9934
 21
2.05725
  0
LINE
  8
0
 10
39.9934
 20
2.05725
 11
40.483
 21
2.60101
  0
LINE
  8
0
 10
40.483
 20
2.60101
 11
41.075
 21
3.03109
  0
LINE
  8
0
 10
41.075
 20
3.03109
 11
41.7434
 21
3.3287
  0
LINE
  8
0
 10
41.7434
 20
3.3287
 11
42.4592
 21
3.48083
  0
LINE
  8
0
 10
42.4592
 20
3.48083
 11
43.1908
 21
3.48083
  0
LINE
  8
0
 10
43.1908
 20
3.48083
 11
43.9066
 21
3.3287
  0
LINE
  8
0
 10
43.9066
 20
3.3287
 11
44.575
 21
3.03109
  0
LINE
  8
0
 10
44.575
 20
3.03109
 11
45.167
 21
2.60101
  0
LINE
  8
0
 10
45.167
 20
2.60101
 11
45.6566
 21
2.05725
  0
LINE
  8
0
 10
45.6566
 20
2.05725
 11
46.0224
 21
1.42358
  0
LINE
  8
0
 10
46.0224
 20
1.42358
 11
46.2485
 21
0.727691
  0
LINE
  8
0
 10
46.2485
 20
0.727691
 11
46.325
 21
0
  0
LINE
  8
0
 10
46.325
 20
0
 11
46.2485
 21
-0.727691
  0
LINE
  8
0
 10
46.2485
 20
-0.727691
 11
46.0224
 21
-1.42358
  0
LINE
  8
0
 10
46.0224
 20
-1.42358
 11
45.6566
 21
-2.05725
  0
LINE
  8
0
 10
45.6566
 20
-2.05725
 11
45.167
 21
-2.60101
  0
LINE
  8
0
 10
45.167
 20
-2.60101
 11
44.575
 21
-3.03109
  0
LINE
  8
0
 10
44.575
 20
-3.03109
 11
43.9066
 21
-3.3287
  0
LINE
  8
0
 10
43.9066
 20
-3.3287
 11
43.1908
 21
-3.48083
  0
LINE
  8
0
 10
43.1908
 20
-3.48083
 11
42.4592
 21
-3.48083
  0
LINE
  8
0
 10
42.4592
 20
-3.48083
 11
41.7434
 21
-3.3287
  0
LINE
  8
0
 10
41.7434
 20
-3.3287
 11
41.075
 21
-3.03109
  0
LINE
  8
0
 10
41.075
 20
-3.03109
 11
40.483
 21
-2.60101
  0
LINE
  8
0
 10
40.483
 20
-2.60101
 11
39.9934
 21
-2.05725
  0
LINE
  8
0
 10
39.9934
 20
-2.05725
 11
39.6276
 21
-1.42358
  0
LINE
  8
0
 10
39.6276
 20
-1.42358
 11
39.4015
 21
-0.727691
  0
LINE
  8
0
 10
39.4015
 20
-0.727691
 11
39.325
 21
0
  0
LINE
  8
0
 10
57.45
 20
-90.6
 11
57.4795
 21
-90.3193
  0
LINE
  8
0
 10
57.4795
 20
-90.3193
 11
57.5667
 21
-90.0509
  0
LINE
  8
0
 10
57.5667
 20
-90.0509
 11
57.7078
 21
-89.8065
  0
LINE
  8
0
 10
57.7078
 20
-89.8065
 11
57.8967
 21
-89.5968
  0
LINE
  8
0
 10
57.8967
 20
-89.5968
 11
58.125
 21
-89.4309
  0
LINE
  8
0
 10
58.125
 20
-89.4309
 11
58.3828
 21
-89.3161
  0
LINE
  8
0
 10
58.3828
 20
-89.3161
 11
58.6589
 21
-89.2574
  0
LINE
  8
0
 10
58.6589
 20
-89.2574
 11
58.9411
 21
-89.2574
  0
LINE
  8
0
 10
58.9411
 20
-89.2574
 11
59.2172
 21
-89.3161
  0
LINE
  8
0
 10
59.2172
 20
-89.3161
 11
59.475
 21
-89.4309
  0
LINE
  8
0
 10
59.475
 20
-89.4309
 11
59.7033
 21
-89.5968
  0
LINE
  8
0
 10
59.7033
 20
-89.5968
 11
59.8922
 21
-89.8065
  0
LINE
  8
0
 10
59.8922
 20
-89.8065
 11
60.0333
 21
-90.0509
  0
LINE
  8
0
 10
60.0333
 20
-90.0509
 11
60.1205
 21
-90.3193
  0
LINE
  8
0
 10
60.1205
 20
-90.3193
 11
60.15
 21
-90.6
  0
LINE
  8
0
 10
60.15
 20
-90.6
 11
60.1205
 21
-90.8807
  0
LINE
  8
0
 10
60.1205
 20
-90.8807
 11
60.0333
 21
-91.1491
  0
LINE
  8
0
 10
60.0333
 20
-91.1491
 11
59.8922
 21
-91.3935
  0
LINE
  8
0
 10
59.8922
 20
-91.3935
 11
59.7033
 21
-91.6032
  0
LINE
  8
0
 10
59.7033
 20
-91.6032
 11
59.475
 21
-91.7691
  0
LINE
  8
0
 10
59.475
 20
-91.7691
 11
59.2172
 21
-91.8839
  0
LINE
  8
0
 10
59.2172
 20
-91.8839
 11
58.9411
 21
-91.9426
  0
LINE
  8
0
 10
58.9411
 20
-91.9426
 11
58.6589
 21
-91.9426
  0
LINE
  8
0
 10
58.6589
 20
-91.9426
 11
58.3828
 21
-91.8839
  0
LINE
  8
0
 10
58.3828
 20
-91.8839
 11
58.125
 21
-91.7691
  0
LINE
  8
0
 10
58.125
 20
-91.7691
 11
57.8967
 21
-91.6032
  0
LINE
  8
0
 10
57.8967
 20
-91.6032
 11
57.7078
 21
-91.3935
  0
LINE
  8
0
 10
57.7078
 20
-91.3935
 11
57.5667
 21
-91.1491
  0
LINE
  8
0
 10
57.5667
 20
-91.1491
 11
57.4795
 21
-90.8807
  0
LINE
  8
0
 10
57.4795
 20
-90.8807
 11
57.45
 21
-90.6
  0
LINE
  8
0
 10
57.45
 20
90.6
 11
57.4795
 21
90.8807
  0
LINE
  8
0
 10
57.4795
 20
90.8807
 11
57.5667
 21
91.1491
  0
LINE
  8
0
 10
57.5667
 20
91.1491
 11
57.7078
 21
91.3935
  0
LINE
  8
0
 10
57.7078
 20
91.3935
 11
57.8967
 21
91.6032
  0
LINE
  8
0
 10
57.8967
 20
91.6032
 11
58.125
 21
91.7691
  0
LINE
  8
0
 10
58.125
 20
91.7691
 11
58.3828
 21
91.8839
  0
LINE
  8
0
 10
58.3828
 20
91.8839
 11
58.6589
 21
91.9426
  0
LINE
  8
0
 10
58.6589
 20
91.9426
 11
58.9411
 21
91.9426
  0
LINE
  8
0
 10
58.9411
 20
91.9426
 11
59.2172
 21
91.8839
  0
LINE
  8
0
 10
59.2172
 20
91.8839
 11
59.475
 21
91.7691
  0
LINE
  8
0
 10
59.475
 20
91.7691
 11
59.7033
 21
91.6032
  0
LINE
  8
0
 10
59.7033
 20
91.6032
 11
59.8922
 21
91.3935
  0
LINE
  8
0
 10
59.8922
 20
91.3935
 11
60.0333
 21
91.1491
  0
LINE
  8
0
 10
60.0333
 20
91.1491
 11
60.1205
 21
90.8807
  0
LINE
  8
0
 10
60.1205
 20
90.8807
 11
60.15
 21
90.6
  0
LINE
  8
0
 10
60.15
 20
90.6
 11
60.1205
 21
90.3193
  0
LINE
  8
0
 10
60.1205
 20
90.3193
 11
60.0333
 21
90.0509
  0
LINE
  8
0
 10
60.0333
 20
90.0509
 11
59.8922
 21
89.8065
  0
LINE
  8
0
 10
59.8922
 20
89.8065
 11
59.7033
 21
89.5968
  0
LINE
  8
0
 10
59.7033
 20
89.5968
 11
59.475
 21
89.4309
  0
LINE
  8
0
 10
59.475
 20
89.4309
 11
59.2172
 21
89.3161
  0
LINE
  8
0
 10
59.2172
 20
89.3161
 11
58.9411
 21
89.2574
  0
LINE
  8
0
 10
58.9411
 20
89.2574
 11
58.6589
 21
89.2574
  0
LINE
  8
0
 10
58.6589
 20
89.2574
 11
58.3828
 21
89.3161
  0
LINE
  8
0
 10
58.3828
 20
89.3161
 11
58.125
 21
89.4309
  0
LINE
  8
0
 10
58.125
 20
89.4309
 11
57.8967
 21
89.5968
  0
LINE
  8
0
 10
57.8967
 20
89.5968
 11
57.7078
 21
89.8065
  0
LINE
  8
0
 10
57.7078
 20
89.8065
 11
57.5667
 21
90.0509
  0
LINE
  8
0
 10
57.5667
 20
90.0509
 11
57.4795
 21
90.3193
  0
LINE
  8
0
 10
57.4795
 20
90.3193
 11
57.45
 21
90.6
  0
ENDSEC
  0
SECTION
  2
OBJECTS
  0
DICTIONARY
  0
ENDSEC
  0
EOF
