<?xml version="1.0" standalone="no"?>
<!DOCTYPE svg PUBLIC "-//W3C//DTD SVG 1.1//EN" "http://www.w3.org/Graphics/SVG/1.1/DTD/svg11.dtd">
<svg width="64" height="134" viewBox="-12 -9 64 134" xmlns="http://www.w3.org/2000/svg" version="1.1">
<title>OpenSCAD Model</title>
<path d="
M -11.6921,2.15 L -2.65881,20.3133 L -2.6411,20.5238 L -2.17689,25.0192 L -1.62961,29.4813 L -0.99994,33.9048
 L -0.288639,38.2842 L 0.503425,42.6142 L 1.37529,46.8896 L 2.32588,51.105 L 3.35406,55.2555 L 4.45855,59.3358
 L 5.63803,63.3412 L 6.89105,67.2666 L 8.21608,71.1073 L 9.61152,74.8586 L 11.0757,78.516 L 12.6067,82.0749
 L 14.2028,85.5311 L 15.862,88.8804 L 17.5823,92.1186 L 19.3616,95.2418 L 21.1977,98.2462 L 23.0884,101.128
 L 25.0314,103.884 L 27.0243,106.511 L 29.0646,109.005 L 31.15,111.364 L 33.2778,113.584 L 35.4455,115.663
 L 37.6505,117.598 L 39.8899,119.388 L 42.1612,121.029 L 43.8527,122.125 L 43.8706,122.229 L 43.9229,122.472
 L 43.9841,122.709 L 44.0539,122.936 L 44.132,123.154 L 44.2179,123.361 L 44.3113,123.556 L 44.4117,123.739
 L 44.5187,123.908 L 44.6316,124.062 L 44.75,124.202 L 44.8733,124.325 L 45.0008,124.432 L 45.132,124.522
 L 45.2662,124.594 L 45.4027,124.649 L 45.5409,124.685 L 45.6802,124.704 L 49.3198,124.704 L 49.4591,124.685
 L 49.5973,124.649 L 49.7338,124.594 L 49.868,124.522 L 49.9992,124.432 L 50.1267,124.325 L 50.25,124.202
 L 50.3684,124.062 L 50.4813,123.908 L 50.5883,123.739 L 50.6887,123.556 L 50.7821,123.361 L 50.868,123.154
 L 50.9461,122.936 L 51.0159,122.709 L 51.0771,122.472 L 51.1294,122.229 L 51.1725,121.979 L 51.2063,121.724
 L 51.2305,121.465 L 51.2451,121.204 L 51.25,120.941 L 51.25,114.353 L 51.2451,114.09 L 51.2305,113.829
 L 51.2063,113.57 L 51.1725,113.315 L 51.1294,113.065 L 51.0771,112.822 L 51.0159,112.586 L 50.9461,112.358
 L 50.868,112.14 L 50.7821,111.933 L 50.6887,111.738 L 50.5883,111.555 L 50.4813,111.386 L 50.3684,111.232
 L 50.25,111.093 L 50.1267,110.969 L 49.9992,110.862 L 49.868,110.772 L 49.7338,110.7 L 49.5973,110.645
 L 49.4591,110.609 L 49.3198,110.591 L 45.6802,110.591 L 45.5409,110.609 L 45.4027,110.645 L 45.2662,110.7
 L 45.132,110.772 L 45.0502,110.828 L 44.6237,110.552 L 42.5871,109.08 L 40.579,107.476 L 38.6018,105.74
 L 36.658,103.876 L 34.75,101.885 L 32.88,99.7704 L 31.0504,97.5338 L 29.2634,95.1785 L 27.5212,92.7071
 L 25.8258,90.1229 L 24.1793,87.4288 L 22.5839,84.6282 L 21.0413,81.7245 L 19.5534,78.7212 L 18.1222,75.6221
 L 16.7493,72.4308 L 15.4364,69.1512 L 14.1852,65.7874 L 12.997,62.3434 L 11.8734,58.8235 L 10.8158,55.2319
 L 9.82537,51.5731 L 8.90341,47.8514 L 8.05101,44.0714 L 7.26921,40.2377 L 6.55897,36.3549 L 5.92114,32.4279
 L 5.35652,28.4614 L 4.86578,24.4602 L 4.44952,20.4292 L 4.10825,16.3733 L 3.84238,12.2975 L 3.65225,8.20664
 L 3.53807,4.10582 L 3.5,-0 L -0.420415,-0 L -1.5921,-8.15 L -11.6921,-8.15 z
M 46.5,119.294 L 46.5,116 L 46.5024,115.869 L 46.5097,115.738 L 46.5219,115.609 L 46.5387,115.481
 L 46.5603,115.356 L 46.5865,115.234 L 46.6171,115.116 L 46.652,115.003 L 46.691,114.894 L 46.734,114.79
 L 46.7807,114.692 L 46.8309,114.601 L 46.8843,114.517 L 46.9408,114.439 L 47,114.37 L 47.0616,114.308
 L 47.1254,114.255 L 47.191,114.21 L 47.2581,114.174 L 47.3264,114.146 L 47.3955,114.128 L 47.4651,114.119
 L 47.5349,114.119 L 47.6045,114.128 L 47.6736,114.146 L 47.7419,114.174 L 47.809,114.21 L 47.8746,114.255
 L 47.9384,114.308 L 48,114.37 L 48.0592,114.439 L 48.1157,114.517 L 48.1691,114.601 L 48.2193,114.692
 L 48.266,114.79 L 48.309,114.894 L 48.348,115.003 L 48.3829,115.116 L 48.4135,115.234 L 48.4397,115.356
 L 48.4613,115.481 L 48.4781,115.609 L 48.4903,115.738 L 48.4976,115.869 L 48.5,116 L 48.5,119.294
 L 48.4976,119.425 L 48.4903,119.556 L 48.4781,119.685 L 48.4613,119.813 L 48.4397,119.938 L 48.4135,120.06
 L 48.3829,120.178 L 48.348,120.292 L 48.309,120.401 L 48.266,120.504 L 48.2193,120.602 L 48.1691,120.693
 L 48.1157,120.777 L 48.0592,120.855 L 48,120.924 L 47.9384,120.986 L 47.8746,121.039 L 47.809,121.084
 L 47.7419,121.121 L 47.6736,121.148 L 47.6045,121.166 L 47.5349,121.175 L 47.4651,121.175 L 47.3955,121.166
 L 47.3264,121.148 L 47.2581,121.121 L 47.191,121.084 L 47.1254,121.039 L 47.0616,120.986 L 47,120.924
 L 46.9408,120.855 L 46.8843,120.777 L 46.8309,120.693 L 46.7807,120.602 L 46.734,120.504 L 46.691,120.401
 L 46.652,120.292 L 46.6171,120.178 L 46.5865,120.06 L 46.5603,119.938 L 46.5387,119.813 L 46.5219,119.685
 L 46.5097,119.556 L 46.5024,119.425 z
" stroke="black" fill="lightgray" stroke-width="0.5"/></svg>
