<?xml version="1.0" standalone="no"?>
<!DOCTYPE svg PUBLIC "-//W3C//DTD SVG 1.1//EN" "http://www.w3.org/Graphics/SVG/1.1/DTD/svg11.dtd">
<svg width="60" height="38" viewBox="-30 -26 60 38" xmlns="http://www.w3.org/2000/svg" version="1.1">
<title>OpenSCAD Model</title>
<path d="
M -29.8,-0 L -29.7713,0.823126 L -29.6852,1.64224 L -29.5421,2.45336 L -29.3429,3.25252 L -29.0884,4.03584
 L -28.7798,4.79949 L -28.4188,5.53976 L -28.007,6.25305 L -27.5464,6.93587 L -27.0393,7.58489 L -26.4882,8.19697
 L -25.8957,8.76911 L -25.2648,9.29853 L -24.5985,9.78264 L -23.9,10.2191 L -23.1728,10.6058 L -22.4204,10.9408
 L -21.6464,11.2225 L -20.8547,11.4495 L -20.049,11.6207 L -19.2334,11.7354 L -18.4118,11.7928 L 18.4118,11.7928
 L 19.2334,11.7354 L 20.049,11.6207 L 20.8547,11.4495 L 21.6464,11.2225 L 22.4204,10.9408 L 23.1728,10.6058
 L 23.9,10.2191 L 24.5985,9.78264 L 25.2648,9.29853 L 25.8957,8.76911 L 26.4882,8.19697 L 27.0393,7.58489
 L 27.5464,6.93587 L 28.007,6.25305 L 28.4188,5.53976 L 28.7798,4.79949 L 29.0884,4.03584 L 29.3429,3.25252
 L 29.5421,2.45336 L 29.6852,1.64224 L 29.7713,0.823126 L 29.8,-0 L 29.7713,-0.823126 L 29.6852,-1.64224
 L 29.5421,-2.45336 L 29.3429,-3.25252 L 29.0884,-4.03584 L 28.7798,-4.79949 L 28.4188,-5.53976 L 28.007,-6.25305
 L 27.5464,-6.93587 L 27.0393,-7.58489 L 26.4882,-8.19697 L 9.30189,-25.0229 L 9.14122,-25.1781 L 8.97012,-25.3216
 L 8.78942,-25.4529 L 8.6,-25.5713 L 8.40279,-25.6761 L 8.19874,-25.767 L 7.98885,-25.8434 L 7.77415,-25.9049
 L 7.55567,-25.9514 L 7.33449,-25.9825 L 7.11168,-25.998 L -7.11168,-25.998 L -7.33449,-25.9825 L -7.55567,-25.9514
 L -7.77415,-25.9049 L -7.98885,-25.8434 L -8.19874,-25.767 L -8.40279,-25.6761 L -8.6,-25.5713 L -8.78942,-25.4529
 L -8.97012,-25.3216 L -9.14122,-25.1781 L -9.30189,-25.0229 L -26.4882,-8.19697 L -27.0393,-7.58489 L -27.5464,-6.93587
 L -28.007,-6.25305 L -28.4188,-5.53976 L -28.7798,-4.79949 L -29.0884,-4.03584 L -29.3429,-3.25252 L -29.5421,-2.45336
 L -29.6852,-1.64224 L -29.7713,-0.823126 z
M -22.1,-0 L -22.09,-0.286001 L -22.0601,-0.570609 L -22.0104,-0.852437 L -21.9412,-1.13011 L -21.8527,-1.40228
 L -21.7455,-1.66762 L -21.6201,-1.92483 L -21.477,-2.17267 L -21.317,-2.40992 L -21.1408,-2.63543 L -20.9493,-2.8481
 L -20.7434,-3.04689 L -20.5242,-3.23084 L -20.2927,-3.39905 L -20.05,-3.5507 L -19.7973,-3.68505 L -19.5359,-3.80145
 L -19.267,-3.89933 L -18.9919,-3.97821 L -18.712,-4.03771 L -18.4286,-4.07754 L -18.1431,-4.0975 L -17.8569,-4.0975
 L -17.5714,-4.07754 L -17.288,-4.03771 L -17.0081,-3.97821 L -16.733,-3.89933 L -16.4641,-3.80145 L -16.2027,-3.68505
 L -15.95,-3.5507 L -15.7073,-3.39905 L -15.4758,-3.23084 L -15.2566,-3.04689 L -15.0507,-2.8481 L -14.8592,-2.63543
 L -14.683,-2.40992 L -14.523,-2.17267 L -14.3799,-1.92483 L -14.2545,-1.66762 L -14.1473,-1.40228 L -14.0588,-1.13011
 L -13.9896,-0.852437 L -13.9399,-0.570609 L -13.91,-0.286001 L -13.9,-0 L -13.91,0.286001 L -13.9399,0.570609
 L -13.9896,0.852437 L -14.0588,1.13011 L -14.1473,1.40228 L -14.2545,1.66762 L -14.3799,1.92483 L -14.523,2.17267
 L -14.683,2.40992 L -14.8592,2.63543 L -15.0507,2.8481 L -15.2566,3.04689 L -15.4758,3.23084 L -15.7073,3.39905
 L -15.95,3.5507 L -16.2027,3.68505 L -16.4641,3.80145 L -16.733,3.89933 L -17.0081,3.97821 L -17.288,4.03771
 L -17.5714,4.07754 L -17.8569,4.0975 L -18.1431,4.0975 L -18.4286,4.07754 L -18.712,4.03771 L -18.9919,3.97821
 L -19.267,3.89933 L -19.5359,3.80145 L -19.7973,3.68505 L -20.05,3.5507 L -20.2927,3.39905 L -20.5242,3.23084
 L -20.7434,3.04689 L -20.9493,2.8481 L -21.1408,2.63543 L -21.317,2.40992 L -21.477,2.17267 L -21.6201,1.92483
 L -21.7455,1.66762 L -21.8527,1.40228 L -21.9412,1.13011 L -22.0104,0.852437 L -22.0601,0.570609 L -22.09,0.286001
 z
M -3.5,-9.75 L -3.5,-20.25 L 3.5,-20.25 L 3.5,-9.75 z
M 13.9,-0 L 13.91,-0.286001 L 13.9399,-0.570609 L 13.9896,-0.852437 L 14.0588,-1.13011 L 14.1473,-1.40228
 L 14.2545,-1.66762 L 14.3799,-1.92483 L 14.523,-2.17267 L 14.683,-2.40992 L 14.8592,-2.63543 L 15.0507,-2.8481
 L 15.2566,-3.04689 L 15.4758,-3.23084 L 15.7073,-3.39905 L 15.95,-3.5507 L 16.2027,-3.68505 L 16.4641,-3.80145
 L 16.733,-3.89933 L 17.0081,-3.97821 L 17.288,-4.03771 L 17.5714,-4.07754 L 17.8569,-4.0975 L 18.1431,-4.0975
 L 18.4286,-4.07754 L 18.712,-4.03771 L 18.9919,-3.97821 L 19.267,-3.89933 L 19.5359,-3.80145 L 19.7973,-3.68505
 L 20.05,-3.5507 L 20.2927,-3.39905 L 20.5242,-3.23084 L 20.7434,-3.04689 L 20.9493,-2.8481 L 21.1408,-2.63543
 L 21.317,-2.40992 L 21.477,-2.17267 L 21.6201,-1.92483 L 21.7455,-1.66762 L 21.8527,-1.40228 L 21.9412,-1.13011
 L 22.0104,-0.852437 L 22.0601,-0.570609 L 22.09,-0.286001 L 22.1,-0 L 22.09,0.286001 L 22.0601,0.570609
 L 22.0104,0.852437 L 21.9412,1.13011 L 21.8527,1.40228 L 21.7455,1.66762 L 21.6201,1.92483 L 21.477,2.17267
 L 21.317,2.40992 L 21.1408,2.63543 L 20.9493,2.8481 L 20.7434,3.04689 L 20.5242,3.23084 L 20.2927,3.39905
 L 20.05,3.5507 L 19.7973,3.68505 L 19.5359,3.80145 L 19.267,3.89933 L 18.9919,3.97821 L 18.712,4.03771
 L 18.4286,4.07754 L 18.1431,4.0975 L 17.8569,4.0975 L 17.5714,4.07754 L 17.288,4.03771 L 17.0081,3.97821
 L 16.733,3.89933 L 16.4641,3.80145 L 16.2027,3.68505 L 15.95,3.5507 L 15.7073,3.39905 L 15.4758,3.23084
 L 15.2566,3.04689 L 15.0507,2.8481 L 14.8592,2.63543 L 14.683,2.40992 L 14.523,2.17267 L 14.3799,1.92483
 L 14.2545,1.66762 L 14.1473,1.40228 L 14.0588,1.13011 L 13.9896,0.852437 L 13.9399,0.570609 L 13.91,0.286001
 z
" stroke="black" fill="lightgray" stroke-width="0.5"/></svg>
