<?xml version="1.0" standalone="no"?>
<!DOCTYPE svg PUBLIC "-//W3C//DTD SVG 1.1//EN" "http://www.w3.org/Graphics/SVG/1.1/DTD/svg11.dtd">
<svg width="146" height="144" viewBox="-73 -61 146 144" xmlns="http://www.w3.org/2000/svg" version="1.1">
<title>OpenSCAD Model</title>
<path d="
M -42.6102,-42.0833 L -54.7665,-57.4811 L -55.0113,-57.7677 L -55.2708,-58.0412 L -55.5442,-58.3006 L -55.8309,-58.5454
 L -56.1299,-58.7749 L -56.4406,-58.9884 L -56.762,-59.1854 L -57.0932,-59.3652 L -57.4335,-59.5275 L -57.7817,-59.6718
 L -58.137,-59.7976 L -58.4985,-59.9047 L -58.865,-59.9927 L -59.2356,-60.0614 L -59.6094,-60.1105 L -59.9852,-60.1401
 L -60.362,-60.15 L -60.7388,-60.1401 L -61.1146,-60.1105 L -61.4883,-60.0614 L -61.8589,-59.9927 L -62.2255,-59.9047
 L -62.5869,-59.7976 L -62.9422,-59.6718 L -63.2905,-59.5275 L -63.6307,-59.3652 L -63.962,-59.1854 L -64.2834,-58.9884
 L -64.594,-58.7749 L -64.8931,-58.5454 L -65.1797,-58.3006 L -65.4531,-58.0412 L -65.7126,-57.7677 L -65.9574,-57.4811
 L -66.1869,-57.1821 L -66.4004,-56.8714 L -66.5974,-56.55 L -66.7772,-56.2187 L -66.9395,-55.8785 L -67.0837,-55.5302
 L -67.2096,-55.1749 L -67.3166,-54.8135 L -67.4046,-54.447 L -67.4733,-54.0763 L -67.5225,-53.7026 L -67.5521,-53.3268
 L -67.562,-52.95 L -67.5521,-52.5732 L -67.5225,-52.1974 L -67.4733,-51.8237 L -67.4046,-51.453 L -67.3166,-51.0865
 L -67.2096,-50.7251 L -67.0837,-50.3698 L -46.7,1.0495 L -46.7,50.9632 L -46.8732,51.166 L -54.4261,60.1855
 L -64.1426,61.6293 L -64.6831,61.7294 L -65.2176,61.8578 L -65.7447,62.0139 L -66.2629,62.1974 L -66.7707,62.4078
 L -67.2669,62.6444 L -67.75,62.9067 L -68.2187,63.194 L -68.6717,63.5053 L -69.1079,63.84 L -69.5259,64.197
 L -69.9246,64.5754 L -70.303,64.9741 L -70.66,65.3921 L -70.9947,65.8282 L -71.306,66.2813 L -71.5933,66.75
 L -71.8556,67.2331 L -72.0922,67.7293 L -72.3026,68.2371 L -72.4861,68.7553 L -72.6422,69.2824 L -72.7706,69.8169
 L -72.8707,70.3574 L -72.9425,70.9025 L -72.9856,71.4505 L -73,72 L -72.9856,72.5495 L -72.9425,73.0975
 L -72.8707,73.6426 L -72.7706,74.1831 L -72.6422,74.7176 L -72.4861,75.2447 L -72.3026,75.7629 L -72.0922,76.2707
 L -71.8556,76.7669 L -71.5933,77.25 L -71.306,77.7187 L -70.9947,78.1717 L -70.66,78.6079 L -70.303,79.0259
 L -69.9246,79.4246 L -69.5259,79.803 L -69.1079,80.16 L -68.6717,80.4947 L -68.2187,80.806 L -67.75,81.0933
 L -67.2669,81.3556 L -66.7707,81.5922 L -66.2629,81.8026 L -65.7447,81.9861 L -65.2176,82.1422 L -64.6831,82.2706
 L -64.1426,82.3707 L -63.5975,82.4425 L -63.0495,82.4856 L -62.5,82.5 L 62.5,82.5 L 63.0495,82.4856
 L 63.5975,82.4425 L 64.1426,82.3707 L 64.6831,82.2706 L 65.2176,82.1422 L 65.7447,81.9861 L 66.2629,81.8026
 L 66.7707,81.5922 L 67.2669,81.3556 L 67.75,81.0933 L 68.2187,80.806 L 68.6717,80.4947 L 69.1079,80.16
 L 69.5259,79.803 L 69.9246,79.4246 L 70.303,79.0259 L 70.66,78.6079 L 70.9947,78.1717 L 71.306,77.7187
 L 71.5933,77.25 L 71.8556,76.7669 L 72.0922,76.2707 L 72.3026,75.7629 L 72.4861,75.2447 L 72.6422,74.7176
 L 72.7706,74.1831 L 72.8707,73.6426 L 72.9425,73.0975 L 72.9856,72.5495 L 73,72 L 72.9856,71.4505
 L 72.9425,70.9025 L 72.8707,70.3574 L 72.7706,69.8169 L 72.6422,69.2824 L 72.4861,68.7553 L 72.3026,68.2371
 L 72.0922,67.7293 L 71.8556,67.2331 L 71.5933,66.75 L 71.306,66.2813 L 70.9947,65.8282 L 70.66,65.3921
 L 70.303,64.9741 L 69.9246,64.5754 L 69.5259,64.197 L 69.1079,63.84 L 68.6717,63.5053 L 68.2187,63.194
 L 67.75,62.9067 L 67.2669,62.6444 L 66.7707,62.4078 L 66.2629,62.1974 L 65.7447,62.0139 L 65.2176,61.8578
 L 64.6831,61.7294 L 64.1426,61.6293 L 54.4261,60.1855 L 46.8732,51.166 L 46.7,50.9632 L 46.7,1.0495
 L 67.0837,-50.3698 L 67.2096,-50.7251 L 67.3166,-51.0865 L 67.4046,-51.453 L 67.4733,-51.8237 L 67.5225,-52.1974
 L 67.5521,-52.5732 L 67.562,-52.95 L 67.5521,-53.3268 L 67.5225,-53.7026 L 67.4733,-54.0763 L 67.4046,-54.447
 L 67.3166,-54.8135 L 67.2096,-55.1749 L 67.0837,-55.5302 L 66.9395,-55.8785 L 66.7772,-56.2187 L 66.5974,-56.55
 L 66.4004,-56.8714 L 66.1869,-57.1821 L 65.9574,-57.4811 L 65.7126,-57.7677 L 65.4531,-58.0412 L 65.1797,-58.3006
 L 64.8931,-58.5454 L 64.594,-58.7749 L 64.2834,-58.9884 L 63.962,-59.1854 L 63.6307,-59.3652 L 63.2905,-59.5275
 L 62.9422,-59.6718 L 62.5869,-59.7976 L 62.2255,-59.9047 L 61.8589,-59.9927 L 61.4883,-60.0614 L 61.1146,-60.1105
 L 60.7388,-60.1401 L 60.362,-60.15 L 59.9852,-60.1401 L 59.6094,-60.1105 L 59.2356,-60.0614 L 58.865,-59.9927
 L 58.4985,-59.9047 L 58.137,-59.7976 L 57.7817,-59.6718 L 57.4335,-59.5275 L 57.0932,-59.3652 L 56.762,-59.1854
 L 56.4406,-58.9884 L 56.1299,-58.7749 L 55.8309,-58.5454 L 55.5442,-58.3006 L 55.2708,-58.0412 L 55.0113,-57.7677
 L 54.7665,-57.4811 L 42.6102,-42.0833 L 41.8207,-41.3534 L 40.5905,-40.2746 L 39.3325,-39.2284 L 38.0476,-38.2154
 L 36.7366,-37.2364 L 35.4004,-36.2921 L 34.0399,-35.3831 L 32.6562,-34.51 L 31.25,-33.6734 L 29.8224,-32.8739
 L 28.3744,-32.1121 L 26.9069,-31.3884 L 25.421,-30.7034 L 23.9177,-30.0575 L 22.398,-29.4512 L 20.8629,-28.8849
 L 19.3136,-28.359 L 17.7509,-27.8738 L 16.1762,-27.4296 L 14.5903,-27.0269 L 12.9945,-26.6658 L 11.3897,-26.3466
 L 9.77715,-26.0695 L 8.15788,-25.8347 L 8.04958,-25.8219 L 7.98885,-25.8434 L 7.82822,-25.891 L 7.66531,-25.9301
 L 7.50058,-25.9606 L 7.33449,-25.9825 L 7.16747,-25.9956 L 7,-26 L -6.99998,-26 L -7.16747,-25.9956
 L -7.33449,-25.9825 L -7.50058,-25.9606 L -7.66531,-25.9301 L -7.82822,-25.891 L -7.98885,-25.8434 L -8.04958,-25.8219
 L -8.15788,-25.8347 L -9.77715,-26.0695 L -11.3897,-26.3466 L -12.9945,-26.6658 L -14.5903,-27.0269 L -16.1762,-27.4296
 L -17.7509,-27.8738 L -19.3136,-28.359 L -20.8629,-28.8849 L -22.398,-29.4512 L -23.9177,-30.0575 L -25.421,-30.7034
 L -26.9069,-31.3884 L -28.3744,-32.1121 L -29.8224,-32.8739 L -31.25,-33.6734 L -32.6562,-34.51 L -34.0399,-35.3831
 L -35.4004,-36.2921 L -36.7366,-37.2364 L -38.0476,-38.2154 L -39.3325,-39.2284 L -40.5905,-40.2746 L -41.8207,-41.3534
 z
M -3.5,-9.75 L -3.5,-20.25 L 3.5,-20.25 L 3.5,-9.75 z
M 17.7854,4.09438 L 17.5714,4.07753 L 17.3586,4.04951 L 17.1476,4.01039 L 16.9388,3.96028 L 16.733,3.89932
 L 16.5307,3.82767 L 16.3324,3.74553 L 16.1386,3.65312 L 15.95,3.55069 L 15.767,3.43854 L 15.5901,3.31696
 L 15.4198,3.18629 L 15.2566,3.04689 L 15.1009,2.89912 L 14.9531,2.74342 L 14.8137,2.5802 L 14.683,2.40991
 L 14.5614,2.23302 L 14.4493,2.04999 L 14.3469,1.86136 L 14.2545,1.66762 L 14.1723,1.4693 L 14.1007,1.26697
 L 14.0397,1.06116 L 13.9896,0.852432 L 13.9505,0.641373 L 13.9225,0.428558 L 13.9056,0.214569 L 13.9,-0
 L 13.9056,-0.214569 L 13.9225,-0.428558 L 13.9505,-0.641373 L 13.9896,-0.852432 L 14.0397,-1.06116 L 14.1007,-1.26697
 L 14.1723,-1.4693 L 14.2545,-1.66762 L 14.3469,-1.86136 L 14.4493,-2.04999 L 14.5614,-2.23302 L 14.683,-2.40991
 L 14.8137,-2.5802 L 14.9531,-2.74342 L 15.1009,-2.89912 L 15.2566,-3.04689 L 15.4198,-3.18629 L 15.5901,-3.31696
 L 15.767,-3.43854 L 15.95,-3.55069 L 16.1386,-3.65312 L 16.3324,-3.74553 L 16.5307,-3.82767 L 16.733,-3.89932
 L 16.9388,-3.96028 L 17.1476,-4.01039 L 17.3586,-4.04951 L 17.5714,-4.07753 L 17.7854,-4.09438 L 18,-4.09999
 L 18.2146,-4.09438 L 18.4286,-4.07753 L 18.6414,-4.04951 L 18.8524,-4.01039 L 19.0612,-3.96028 L 19.267,-3.89932
 L 19.4693,-3.82767 L 19.6676,-3.74553 L 19.8614,-3.65312 L 20.05,-3.55069 L 20.233,-3.43854 L 20.4099,-3.31696
 L 20.5802,-3.18629 L 20.7434,-3.04689 L 20.8991,-2.89912 L 21.0469,-2.74342 L 21.1863,-2.5802 L 21.317,-2.40991
 L 21.4385,-2.23302 L 21.5507,-2.04999 L 21.6531,-1.86136 L 21.7455,-1.66762 L 21.8277,-1.4693 L 21.8993,-1.26697
 L 21.9603,-1.06116 L 22.0104,-0.852432 L 22.0495,-0.641373 L 22.0775,-0.428558 L 22.0944,-0.214569 L 22.1,-0
 L 22.0944,0.214569 L 22.0775,0.428558 L 22.0495,0.641373 L 22.0104,0.852432 L 21.9603,1.06116 L 21.8993,1.26697
 L 21.8277,1.4693 L 21.7455,1.66762 L 21.6531,1.86136 L 21.5507,2.04999 L 21.4385,2.23302 L 21.317,2.40991
 L 21.1863,2.5802 L 21.0469,2.74342 L 20.8991,2.89912 L 20.7434,3.04689 L 20.5802,3.18629 L 20.4099,3.31696
 L 20.233,3.43854 L 20.05,3.55069 L 19.8614,3.65312 L 19.6676,3.74553 L 19.4693,3.82767 L 19.267,3.89932
 L 19.0612,3.96028 L 18.8524,4.01039 L 18.6414,4.04951 L 18.4286,4.07753 L 18.2146,4.09438 L 18,4.09999
 z
M -18.2146,4.09438 L -18.4286,4.07753 L -18.6414,4.04951 L -18.8524,4.01039 L -19.0612,3.96028 L -19.267,3.89932
 L -19.4693,3.82767 L -19.6676,3.74553 L -19.8614,3.65312 L -20.05,3.55069 L -20.233,3.43854 L -20.4099,3.31696
 L -20.5802,3.18629 L -20.7434,3.04689 L -20.8991,2.89912 L -21.0469,2.74342 L -21.1863,2.5802 L -21.317,2.40991
 L -21.4385,2.23302 L -21.5507,2.04999 L -21.6531,1.86136 L -21.7455,1.66762 L -21.8277,1.4693 L -21.8993,1.26697
 L -21.9603,1.06116 L -22.0104,0.852432 L -22.0495,0.641373 L -22.0775,0.428558 L -22.0944,0.214569 L -22.1,-0
 L -22.0944,-0.214569 L -22.0775,-0.428558 L -22.0495,-0.641373 L -22.0104,-0.852432 L -21.9603,-1.06116 L -21.8993,-1.26697
 L -21.8277,-1.4693 L -21.7455,-1.66762 L -21.6531,-1.86136 L -21.5507,-2.04999 L -21.4385,-2.23302 L -21.317,-2.40991
 L -21.1863,-2.5802 L -21.0469,-2.74342 L -20.8991,-2.89912 L -20.7434,-3.04689 L -20.5802,-3.18629 L -20.4099,-3.31696
 L -20.233,-3.43854 L -20.05,-3.55069 L -19.8614,-3.65312 L -19.6676,-3.74553 L -19.4693,-3.82767 L -19.267,-3.89932
 L -19.0612,-3.96028 L -18.8524,-4.01039 L -18.6414,-4.04951 L -18.4286,-4.07753 L -18.2146,-4.09438 L -18,-4.09999
 L -17.7854,-4.09438 L -17.5714,-4.07753 L -17.3586,-4.04951 L -17.1476,-4.01039 L -16.9388,-3.96028 L -16.733,-3.89932
 L -16.5307,-3.82767 L -16.3324,-3.74553 L -16.1386,-3.65312 L -15.95,-3.55069 L -15.767,-3.43854 L -15.5901,-3.31696
 L -15.4198,-3.18629 L -15.2566,-3.04689 L -15.1009,-2.89912 L -14.9531,-2.74342 L -14.8137,-2.5802 L -14.683,-2.40991
 L -14.5614,-2.23302 L -14.4493,-2.04999 L -14.3469,-1.86136 L -14.2545,-1.66762 L -14.1723,-1.4693 L -14.1007,-1.26697
 L -14.0397,-1.06116 L -13.9896,-0.852432 L -13.9505,-0.641373 L -13.9225,-0.428558 L -13.9056,-0.214569 L -13.9,-0
 L -13.9056,0.214569 L -13.9225,0.428558 L -13.9505,0.641373 L -13.9896,0.852432 L -14.0397,1.06116 L -14.1007,1.26697
 L -14.1723,1.4693 L -14.2545,1.66762 L -14.3469,1.86136 L -14.4493,2.04999 L -14.5614,2.23302 L -14.683,2.40991
 L -14.8137,2.5802 L -14.9531,2.74342 L -15.1009,2.89912 L -15.2566,3.04689 L -15.4198,3.18629 L -15.5901,3.31696
 L -15.767,3.43854 L -15.95,3.55069 L -16.1386,3.65312 L -16.3324,3.74553 L -16.5307,3.82767 L -16.733,3.89932
 L -16.9388,3.96028 L -17.1476,4.01039 L -17.3586,4.04951 L -17.5714,4.07753 L -17.7854,4.09438 L -18,4.09999
 z
M -0.419983,50.414 L -0.838837,50.381 L -1.25539,50.3262 L -1.66849,50.2496 L -2.07701,50.1516 L -2.47986,50.0322
 L -2.8759,49.892 L -3.26405,49.7312 L -3.64326,49.5503 L -4.0125,49.3499 L -4.37073,49.1303 L -4.71696,48.8923
 L -5.05029,48.6366 L -5.36977,48.3637 L -5.67453,48.0745 L -5.96373,47.7698 L -6.23659,47.4503 L -6.49236,47.117
 L -6.73032,46.7707 L -6.94984,46.4125 L -7.15031,46.0433 L -7.33119,45.6641 L -7.49197,45.2759 L -7.63222,44.8799
 L -7.75154,44.477 L -7.84962,44.0685 L -7.92619,43.6554 L -7.98103,43.2388 L -8.01399,42.82 L -8.02499,42.4
 L -8.01399,41.98 L -7.98103,41.5612 L -7.92619,41.1446 L -7.84962,40.7315 L -7.75154,40.323 L -7.63222,39.9201
 L -7.49197,39.5241 L -7.33119,39.1359 L -7.15031,38.7567 L -6.94984,38.3875 L -6.73032,38.0293 L -6.49236,37.683
 L -6.23659,37.3497 L -5.96373,37.0302 L -5.67453,36.7255 L -5.36977,36.4363 L -5.05029,36.1634 L -4.71696,35.9076
 L -4.37073,35.6697 L -4.0125,35.4501 L -3.64326,35.2497 L -3.26405,35.0688 L -2.8759,34.908 L -2.47986,34.7678
 L -2.07701,34.6484 L -1.66849,34.5504 L -1.25539,34.4738 L -0.838837,34.419 L -0.419983,34.386 L 0,34.375
 L 0.419983,34.386 L 0.838837,34.419 L 1.25539,34.4738 L 1.66849,34.5504 L 2.07701,34.6484 L 2.47986,34.7678
 L 2.8759,34.908 L 3.26405,35.0688 L 3.64326,35.2497 L 4.0125,35.4501 L 4.37073,35.6697 L 4.71696,35.9076
 L 5.05029,36.1634 L 5.36977,36.4363 L 5.67453,36.7255 L 5.96373,37.0302 L 6.23659,37.3497 L 6.49236,37.683
 L 6.73032,38.0293 L 6.94984,38.3875 L 7.15031,38.7567 L 7.33119,39.1359 L 7.49197,39.5241 L 7.63222,39.9201
 L 7.75154,40.323 L 7.84962,40.7315 L 7.92619,41.1446 L 7.98103,41.5612 L 8.01399,41.98 L 8.02499,42.4
 L 8.01399,42.82 L 7.98103,43.2388 L 7.92619,43.6554 L 7.84962,44.0685 L 7.75154,44.477 L 7.63222,44.8799
 L 7.49197,45.2759 L 7.33119,45.6641 L 7.15031,46.0433 L 6.94984,46.4125 L 6.73032,46.7707 L 6.49236,47.117
 L 6.23659,47.4503 L 5.96373,47.7698 L 5.67453,48.0745 L 5.36977,48.3637 L 5.05029,48.6366 L 4.71696,48.8923
 L 4.37073,49.1303 L 4.0125,49.3499 L 3.64326,49.5503 L 3.26405,49.7312 L 2.8759,49.892 L 2.47986,50.0322
 L 2.07701,50.1516 L 1.66849,50.2496 L 1.25539,50.3262 L 0.838837,50.381 L 0.419983,50.414 L 0,50.425
 z
M -0.130829,68.3966 L -0.261307,68.3863 L -0.391083,68.3692 L -0.519775,68.3454 L -0.647034,68.3148 L -0.772537,68.2776
 L -0.89592,68.2339 L -1.01683,68.1839 L -1.13496,68.1275 L -1.25,68.0651 L -1.36159,67.9967 L -1.46945,67.9225
 L -1.57329,67.8429 L -1.67282,67.7579 L -1.76776,67.6678 L -1.85785,67.5728 L -1.94286,67.4733 L -2.02254,67.3695
 L -2.09666,67.2616 L -2.16505,67.15 L -2.22751,67.035 L -2.28386,66.9168 L -2.33394,66.7959 L -2.37764,66.6725
 L -2.41481,66.547 L -2.44536,66.4198 L -2.46921,66.2911 L -2.4863,66.1613 L -2.49657,66.0308 L -2.5,65.9
 L -2.49657,65.7691 L -2.4863,65.6387 L -2.46921,65.5089 L -2.44536,65.3802 L -2.41481,65.2529 L -2.37764,65.1275
 L -2.33394,65.0041 L -2.28386,64.8831 L -2.22751,64.765 L -2.16505,64.65 L -2.09666,64.5384 L -2.02254,64.4305
 L -1.94286,64.3267 L -1.85785,64.2272 L -1.76776,64.1322 L -1.67282,64.0421 L -1.57329,63.9571 L -1.46945,63.8775
 L -1.36159,63.8033 L -1.24998,63.7349 L -1.13496,63.6725 L -1.01683,63.6161 L -0.89592,63.566 L -0.772537,63.5224
 L -0.647034,63.4852 L -0.519775,63.4546 L -0.391083,63.4308 L -0.261307,63.4137 L -0.130829,63.4034 L 0,63.4
 L 0.130829,63.4034 L 0.261307,63.4137 L 0.391083,63.4308 L 0.519775,63.4546 L 0.647034,63.4852 L 0.772537,63.5224
 L 0.89592,63.566 L 1.01683,63.6161 L 1.13496,63.6725 L 1.25,63.7349 L 1.36159,63.8033 L 1.46945,63.8775
 L 1.57329,63.9571 L 1.67282,64.0421 L 1.76776,64.1322 L 1.85785,64.2272 L 1.94286,64.3267 L 2.02254,64.4305
 L 2.09666,64.5384 L 2.16505,64.65 L 2.22751,64.765 L 2.28386,64.8831 L 2.33394,65.0041 L 2.37764,65.1275
 L 2.41481,65.2529 L 2.44536,65.3802 L 2.46921,65.5089 L 2.4863,65.6387 L 2.49657,65.7691 L 2.5,65.9
 L 2.49657,66.0308 L 2.4863,66.1613 L 2.46921,66.2911 L 2.44536,66.4198 L 2.41481,66.547 L 2.37764,66.6725
 L 2.33394,66.7959 L 2.28386,66.9168 L 2.22751,67.035 L 2.16505,67.15 L 2.09666,67.2616 L 2.02254,67.3695
 L 1.94286,67.4733 L 1.85785,67.5728 L 1.76776,67.6678 L 1.67282,67.7579 L 1.57329,67.8429 L 1.46945,67.9225
 L 1.36159,67.9967 L 1.25,68.0651 L 1.13496,68.1275 L 1.01683,68.1839 L 0.89592,68.2339 L 0.772537,68.2776
 L 0.647034,68.3148 L 0.519775,68.3454 L 0.391083,68.3692 L 0.261307,68.3863 L 0.130829,68.3966 L 0,68.4
 z
M -62.7146,76.0944 L -62.9286,76.0775 L -63.1414,76.0495 L -63.3524,76.0104 L -63.5612,75.9603 L -63.767,75.8993
 L -63.9693,75.8277 L -64.1676,75.7455 L -64.3614,75.6531 L -64.55,75.5507 L -64.733,75.4386 L -64.9099,75.317
 L -65.0802,75.1863 L -65.2434,75.0469 L -65.3991,74.8991 L -65.5469,74.7434 L -65.6863,74.5802 L -65.817,74.4099
 L -65.9386,74.233 L -66.0507,74.05 L -66.1531,73.8614 L -66.2455,73.6676 L -66.3277,73.4693 L -66.3993,73.267
 L -66.4603,73.0612 L -66.5104,72.8524 L -66.5495,72.6414 L -66.5775,72.4286 L -66.5944,72.2146 L -66.6,72
 L -66.5944,71.7854 L -66.5775,71.5714 L -66.5495,71.3586 L -66.5104,71.1476 L -66.4603,70.9388 L -66.3993,70.733
 L -66.3277,70.5307 L -66.2455,70.3324 L -66.1531,70.1386 L -66.0507,69.95 L -65.9386,69.767 L -65.817,69.5901
 L -65.6863,69.4198 L -65.5469,69.2566 L -65.3991,69.1009 L -65.2434,68.9531 L -65.0802,68.8137 L -64.9099,68.683
 L -64.733,68.5614 L -64.55,68.4493 L -64.3614,68.3469 L -64.1676,68.2545 L -63.9693,68.1723 L -63.767,68.1007
 L -63.5612,68.0397 L -63.3524,67.9896 L -63.1414,67.9505 L -62.9286,67.9225 L -62.7146,67.9056 L -62.5,67.9
 L -62.2854,67.9056 L -62.0714,67.9225 L -61.8586,67.9505 L -61.6476,67.9896 L -61.4388,68.0397 L -61.233,68.1007
 L -61.0307,68.1723 L -60.8324,68.2545 L -60.6386,68.3469 L -60.45,68.4493 L -60.267,68.5614 L -60.0901,68.683
 L -59.9198,68.8137 L -59.7566,68.9531 L -59.6009,69.1009 L -59.4531,69.2566 L -59.3137,69.4198 L -59.183,69.5901
 L -59.0614,69.767 L -58.9493,69.95 L -58.8469,70.1386 L -58.7545,70.3324 L -58.6723,70.5307 L -58.6007,70.733
 L -58.5397,70.9388 L -58.4896,71.1476 L -58.4505,71.3586 L -58.4225,71.5714 L -58.4056,71.7854 L -58.4,72
 L -58.4056,72.2146 L -58.4225,72.4286 L -58.4505,72.6414 L -58.4896,72.8524 L -58.5397,73.0612 L -58.6007,73.267
 L -58.6723,73.4693 L -58.7545,73.6676 L -58.8469,73.8614 L -58.9493,74.05 L -59.0614,74.233 L -59.183,74.4099
 L -59.3137,74.5802 L -59.4531,74.7434 L -59.6009,74.8991 L -59.7566,75.0469 L -59.9198,75.1863 L -60.0901,75.317
 L -60.267,75.4386 L -60.45,75.5507 L -60.6386,75.6531 L -60.8324,75.7455 L -61.0307,75.8277 L -61.233,75.8993
 L -61.4388,75.9603 L -61.6476,76.0104 L -61.8586,76.0495 L -62.0714,76.0775 L -62.2854,76.0944 L -62.5,76.1
 z
M 62.2854,76.0944 L 62.0714,76.0775 L 61.8586,76.0495 L 61.6476,76.0104 L 61.4388,75.9603 L 61.233,75.8993
 L 61.0307,75.8277 L 60.8324,75.7455 L 60.6386,75.6531 L 60.45,75.5507 L 60.267,75.4386 L 60.0901,75.317
 L 59.9198,75.1863 L 59.7566,75.0469 L 59.6009,74.8991 L 59.4531,74.7434 L 59.3137,74.5802 L 59.183,74.4099
 L 59.0614,74.233 L 58.9493,74.05 L 58.8469,73.8614 L 58.7545,73.6676 L 58.6723,73.4693 L 58.6007,73.267
 L 58.5397,73.0612 L 58.4896,72.8524 L 58.4505,72.6414 L 58.4225,72.4286 L 58.4056,72.2146 L 58.4,72
 L 58.4056,71.7854 L 58.4225,71.5714 L 58.4505,71.3586 L 58.4896,71.1476 L 58.5397,70.9388 L 58.6007,70.733
 L 58.6723,70.5307 L 58.7545,70.3324 L 58.8469,70.1386 L 58.9493,69.95 L 59.0614,69.767 L 59.183,69.5901
 L 59.3137,69.4198 L 59.4531,69.2566 L 59.6009,69.1009 L 59.7566,68.9531 L 59.9198,68.8137 L 60.0901,68.683
 L 60.267,68.5614 L 60.45,68.4493 L 60.6386,68.3469 L 60.8324,68.2545 L 61.0307,68.1723 L 61.233,68.1007
 L 61.4388,68.0397 L 61.6476,67.9896 L 61.8586,67.9505 L 62.0714,67.9225 L 62.2854,67.9056 L 62.5,67.9
 L 62.7146,67.9056 L 62.9286,67.9225 L 63.1414,67.9505 L 63.3524,67.9896 L 63.5612,68.0397 L 63.767,68.1007
 L 63.9693,68.1723 L 64.1676,68.2545 L 64.3614,68.3469 L 64.55,68.4493 L 64.733,68.5614 L 64.9099,68.683
 L 65.0802,68.8137 L 65.2434,68.9531 L 65.3991,69.1009 L 65.5469,69.2566 L 65.6863,69.4198 L 65.817,69.5901
 L 65.9386,69.767 L 66.0507,69.95 L 66.1531,70.1386 L 66.2455,70.3324 L 66.3277,70.5307 L 66.3993,70.733
 L 66.4603,70.9388 L 66.5104,71.1476 L 66.5495,71.3586 L 66.5775,71.5714 L 66.5944,71.7854 L 66.6,72
 L 66.5944,72.2146 L 66.5775,72.4286 L 66.5495,72.6414 L 66.5104,72.8524 L 66.4603,73.0612 L 66.3993,73.267
 L 66.3277,73.4693 L 66.2455,73.6676 L 66.1531,73.8614 L 66.0507,74.05 L 65.9386,74.233 L 65.817,74.4099
 L 65.6863,74.5802 L 65.5469,74.7434 L 65.3991,74.8991 L 65.2434,75.0469 L 65.0802,75.1863 L 64.9099,75.317
 L 64.733,75.4386 L 64.55,75.5507 L 64.3614,75.6531 L 64.1676,75.7455 L 63.9693,75.8277 L 63.767,75.8993
 L 63.5612,75.9603 L 63.3524,76.0104 L 63.1414,76.0495 L 62.9286,76.0775 L 62.7146,76.0944 L 62.5,76.1
 z
" stroke="black" fill="lightgray" stroke-width="0.5"/></svg>
