  0
SECTION
  2
BLOCKS
  0
ENDSEC
  0
SECTION
  2
ENTITIES
  0
LINE
  8
0
 10
-65.22
 20
-97
 11
-65.22
 21
-97.0014
  0
LINE
  8
0
 10
-65.22
 20
-97.0014
 11
-65.2198
 21
-97.0028
  0
LINE
  8
0
 10
-65.2198
 20
-97.0028
 11
-65.2196
 21
-97.0042
  0
LINE
  8
0
 10
-65.2196
 20
-97.0042
 11
-65.2192
 21
-97.0055
  0
LINE
  8
0
 10
-65.2192
 20
-97.0055
 11
-65.2188
 21
-97.0068
  0
LINE
  8
0
 10
-65.2188
 20
-97.0068
 11
-65.2183
 21
-97.0081
  0
LINE
  8
0
 10
-65.2183
 20
-97.0081
 11
-65.2177
 21
-97.0094
  0
LINE
  8
0
 10
-65.2177
 20
-97.0094
 11
-65.217
 21
-97.0106
  0
LINE
  8
0
 10
-65.217
 20
-97.0106
 11
-65.2162
 21
-97.0118
  0
LINE
  8
0
 10
-65.2162
 20
-97.0118
 11
-65.2153
 21
-97.0129
  0
LINE
  8
0
 10
-65.2153
 20
-97.0129
 11
-65.2144
 21
-97.0139
  0
LINE
  8
0
 10
-65.2144
 20
-97.0139
 11
-65.2134
 21
-97.0149
  0
LINE
  8
0
 10
-65.2134
 20
-97.0149
 11
-65.2123
 21
-97.0158
  0
LINE
  8
0
 10
-65.2123
 20
-97.0158
 11
-65.2112
 21
-97.0166
  0
LINE
  8
0
 10
-65.2112
 20
-97.0166
 11
-65.21
 21
-97.0173
  0
LINE
  8
0
 10
-65.21
 20
-97.0173
 11
-65.2088
 21
-97.018
  0
LINE
  8
0
 10
-65.2088
 20
-97.018
 11
-65.2075
 21
-97.0185
  0
LINE
  8
0
 10
-65.2075
 20
-97.0185
 11
-65.2062
 21
-97.019
  0
LINE
  8
0
 10
-65.2062
 20
-97.019
 11
-65.2048
 21
-97.0194
  0
LINE
  8
0
 10
-65.2048
 20
-97.0194
 11
-65.2035
 21
-97.0197
  0
LINE
  8
0
 10
-65.2035
 20
-97.0197
 11
-65.2021
 21
-97.0199
  0
LINE
  8
0
 10
-65.2021
 20
-97.0199
 11
-65.2007
 21
-97.02
  0
LINE
  8
0
 10
-65.2007
 20
-97.02
 11
65.2007
 21
-97.02
  0
LINE
  8
0
 10
65.2007
 20
-97.02
 11
65.2021
 21
-97.0199
  0
LINE
  8
0
 10
65.2021
 20
-97.0199
 11
65.2035
 21
-97.0197
  0
LINE
  8
0
 10
65.2035
 20
-97.0197
 11
65.2048
 21
-97.0194
  0
LINE
  8
0
 10
65.2048
 20
-97.0194
 11
65.2062
 21
-97.019
  0
LINE
  8
0
 10
65.2062
 20
-97.019
 11
65.2075
 21
-97.0185
  0
LINE
  8
0
 10
65.2075
 20
-97.0185
 11
65.2088
 21
-97.018
  0
LINE
  8
0
 10
65.2088
 20
-97.018
 11
65.21
 21
-97.0173
  0
LINE
  8
0
 10
65.21
 20
-97.0173
 11
65.2112
 21
-97.0166
  0
LINE
  8
0
 10
65.2112
 20
-97.0166
 11
65.2123
 21
-97.0158
  0
LINE
  8
0
 10
65.2123
 20
-97.0158
 11
65.2134
 21
-97.0149
  0
LINE
  8
0
 10
65.2134
 20
-97.0149
 11
65.2144
 21
-97.0139
  0
LINE
  8
0
 10
65.2144
 20
-97.0139
 11
65.2153
 21
-97.0129
  0
LINE
  8
0
 10
65.2153
 20
-97.0129
 11
65.2162
 21
-97.0118
  0
LINE
  8
0
 10
65.2162
 20
-97.0118
 11
65.217
 21
-97.0106
  0
LINE
  8
0
 10
65.217
 20
-97.0106
 11
65.2177
 21
-97.0094
  0
LINE
  8
0
 10
65.2177
 20
-97.0094
 11
65.2183
 21
-97.0081
  0
LINE
  8
0
 10
65.2183
 20
-97.0081
 11
65.2188
 21
-97.0068
  0
LINE
  8
0
 10
65.2188
 20
-97.0068
 11
65.2192
 21
-97.0055
  0
LINE
  8
0
 10
65.2192
 20
-97.0055
 11
65.2196
 21
-97.0042
  0
LINE
  8
0
 10
65.2196
 20
-97.0042
 11
65.2198
 21
-97.0028
  0
LINE
  8
0
 10
65.2198
 20
-97.0028
 11
65.22
 21
-97.0014
  0
LINE
  8
0
 10
65.22
 20
-97.0014
 11
65.22
 21
-97
  0
LINE
  8
0
 10
65.22
 20
-97
 11
65.22
 21
97
  0
LINE
  8
0
 10
65.22
 20
97
 11
65.22
 21
97.0014
  0
LINE
  8
0
 10
65.22
 20
97.0014
 11
65.2198
 21
97.0028
  0
LINE
  8
0
 10
65.2198
 20
97.0028
 11
65.2196
 21
97.0042
  0
LINE
  8
0
 10
65.2196
 20
97.0042
 11
65.2192
 21
97.0055
  0
LINE
  8
0
 10
65.2192
 20
97.0055
 11
65.2188
 21
97.0068
  0
LINE
  8
0
 10
65.2188
 20
97.0068
 11
65.2183
 21
97.0081
  0
LINE
  8
0
 10
65.2183
 20
97.0081
 11
65.2177
 21
97.0094
  0
LINE
  8
0
 10
65.2177
 20
97.0094
 11
65.217
 21
97.0106
  0
LINE
  8
0
 10
65.217
 20
97.0106
 11
65.2162
 21
97.0118
  0
LINE
  8
0
 10
65.2162
 20
97.0118
 11
65.2153
 21
97.0129
  0
LINE
  8
0
 10
65.2153
 20
97.0129
 11
65.2144
 21
97.0139
  0
LINE
  8
0
 10
65.2144
 20
97.0139
 11
65.2134
 21
97.0149
  0
LINE
  8
0
 10
65.2134
 20
97.0149
 11
65.2123
 21
97.0158
  0
LINE
  8
0
 10
65.2123
 20
97.0158
 11
65.2112
 21
97.0166
  0
LINE
  8
0
 10
65.2112
 20
97.0166
 11
65.21
 21
97.0173
  0
LINE
  8
0
 10
65.21
 20
97.0173
 11
65.2088
 21
97.018
  0
LINE
  8
0
 10
65.2088
 20
97.018
 11
65.2075
 21
97.0185
  0
LINE
  8
0
 10
65.2075
 20
97.0185
 11
65.2062
 21
97.019
  0
LINE
  8
0
 10
65.2062
 20
97.019
 11
65.2048
 21
97.0194
  0
LINE
  8
0
 10
65.2048
 20
97.0194
 11
65.2035
 21
97.0197
  0
LINE
  8
0
 10
65.2035
 20
97.0197
 11
65.2021
 21
97.0199
  0
LINE
  8
0
 10
65.2021
 20
97.0199
 11
65.2007
 21
97.02
  0
LINE
  8
0
 10
65.2007
 20
97.02
 11
-65.2007
 21
97.02
  0
LINE
  8
0
 10
-65.2007
 20
97.02
 11
-65.2021
 21
97.0199
  0
LINE
  8
0
 10
-65.2021
 20
97.0199
 11
-65.2035
 21
97.0197
  0
LINE
  8
0
 10
-65.2035
 20
97.0197
 11
-65.2048
 21
97.0194
  0
LINE
  8
0
 10
-65.2048
 20
97.0194
 11
-65.2062
 21
97.019
  0
LINE
  8
0
 10
-65.2062
 20
97.019
 11
-65.2075
 21
97.0185
  0
LINE
  8
0
 10
-65.2075
 20
97.0185
 11
-65.2088
 21
97.018
  0
LINE
  8
0
 10
-65.2088
 20
97.018
 11
-65.21
 21
97.0173
  0
LINE
  8
0
 10
-65.21
 20
97.0173
 11
-65.2112
 21
97.0166
  0
LINE
  8
0
 10
-65.2112
 20
97.0166
 11
-65.2123
 21
97.0158
  0
LINE
  8
0
 10
-65.2123
 20
97.0158
 11
-65.2134
 21
97.0149
  0
LINE
  8
0
 10
-65.2134
 20
97.0149
 11
-65.2144
 21
97.0139
  0
LINE
  8
0
 10
-65.2144
 20
97.0139
 11
-65.2153
 21
97.0129
  0
LINE
  8
0
 10
-65.2153
 20
97.0129
 11
-65.2162
 21
97.0118
  0
LINE
  8
0
 10
-65.2162
 20
97.0118
 11
-65.217
 21
97.0106
  0
LINE
  8
0
 10
-65.217
 20
97.0106
 11
-65.2177
 21
97.0094
  0
LINE
  8
0
 10
-65.2177
 20
97.0094
 11
-65.2183
 21
97.0081
  0
LINE
  8
0
 10
-65.2183
 20
97.0081
 11
-65.2188
 21
97.0068
  0
LINE
  8
0
 10
-65.2188
 20
97.0068
 11
-65.2192
 21
97.0055
  0
LINE
  8
0
 10
-65.2192
 20
97.0055
 11
-65.2196
 21
97.0042
  0
LINE
  8
0
 10
-65.2196
 20
97.0042
 11
-65.2198
 21
97.0028
  0
LINE
  8
0
 10
-65.2198
 20
97.0028
 11
-65.22
 21
97.0014
  0
LINE
  8
0
 10
-65.22
 20
97.0014
 11
-65.22
 21
97
  0
LINE
  8
0
 10
-65.22
 20
97
 11
-65.22
 21
-97
  0
LINE
  8
0
 10
-51
 20
-92
 11
-51
 21
92
  0
LINE
  8
0
 10
-51
 20
92
 11
51
 21
92
  0
LINE
  8
0
 10
51
 20
92
 11
51
 21
-92
  0
LINE
  8
0
 10
51
 20
-92
 11
-51
 21
-92
  0
ENDSEC
  0
SECTION
  2
OBJECTS
  0
DICTIONARY
  0
ENDSEC
  0
EOF
