<?xml version="1.0" standalone="no"?>
<!DOCTYPE svg PUBLIC "-//W3C//DTD SVG 1.1//EN" "http://www.w3.org/Graphics/SVG/1.1/DTD/svg11.dtd">
<svg width="20" height="56" viewBox="-10 -28 20 56" xmlns="http://www.w3.org/2000/svg" version="1.1">
<title>OpenSCAD Model</title>
<path d="
M -9.8,18 L -9.77613,18.6836 L -9.70463,19.3639 L -9.58585,20.0375 L -9.42036,20.7012 L -9.20899,21.3518
 L -8.95275,21.986 L -8.65289,22.6008 L -8.31087,23.1932 L -7.92837,23.7603 L -7.50724,24.2993 L -7.04953,24.8077
 L -6.55748,25.2828 L -6.03348,25.7225 L -5.48009,26.1246 L -4.9,26.487 L -4.29604,26.8082 L -3.67114,27.0864
 L -3.02837,27.3204 L -2.37083,27.5089 L -1.70175,27.6511 L -1.02438,27.7463 L -0.342014,27.794 L 0.342014,27.794
 L 1.02438,27.7463 L 1.70175,27.6511 L 2.37083,27.5089 L 3.02837,27.3204 L 3.67114,27.0864 L 4.29604,26.8082
 L 4.9,26.487 L 5.48009,26.1246 L 6.03348,25.7225 L 6.55748,25.2828 L 7.04953,24.8077 L 7.50724,24.2993
 L 7.92837,23.7603 L 8.31087,23.1932 L 8.65289,22.6008 L 8.95275,21.986 L 9.20899,21.3518 L 9.42036,20.7012
 L 9.58585,20.0375 L 9.70463,19.3639 L 9.77613,18.6836 L 9.8,18 L 9.77613,17.3164 L 9.70463,16.6361
 L 9.58585,15.9625 L 9.42036,15.2988 L 9.20899,14.6482 L 8.95275,14.014 L 8.65289,13.3992 L 8.4,12.9612
 L 8.4,-12.9612 L 8.65289,-13.3992 L 8.95275,-14.014 L 9.20899,-14.6482 L 9.42036,-15.2988 L 9.58585,-15.9625
 L 9.70463,-16.6361 L 9.77613,-17.3164 L 9.8,-18 L 9.77613,-18.6836 L 9.70463,-19.3639 L 9.58585,-20.0375
 L 9.42036,-20.7012 L 9.20899,-21.3518 L 8.95275,-21.986 L 8.65289,-22.6008 L 8.31087,-23.1932 L 7.92837,-23.7603
 L 7.50724,-24.2993 L 7.04953,-24.8077 L 6.55748,-25.2828 L 6.03348,-25.7225 L 5.48009,-26.1246 L 4.9,-26.487
 L 4.29604,-26.8082 L 3.67114,-27.0864 L 3.02837,-27.3204 L 2.37083,-27.5089 L 1.70175,-27.6511 L 1.02438,-27.7463
 L 0.342014,-27.794 L -0.342014,-27.794 L -1.02438,-27.7463 L -1.70175,-27.6511 L -2.37083,-27.5089 L -3.02837,-27.3204
 L -3.67114,-27.0864 L -4.29604,-26.8082 L -4.9,-26.487 L -5.48009,-26.1246 L -6.03348,-25.7225 L -6.55748,-25.2828
 L -7.04953,-24.8077 L -7.50724,-24.2993 L -7.92837,-23.7603 L -8.31087,-23.1932 L -8.65289,-22.6008 L -8.95275,-21.986
 L -9.20899,-21.3518 L -9.42036,-20.7012 L -9.58585,-20.0375 L -9.70463,-19.3639 L -9.77613,-18.6836 L -9.8,-18
 L -9.77613,-17.3164 L -9.70463,-16.6361 L -9.58585,-15.9625 L -9.42036,-15.2988 L -9.20899,-14.6482 L -8.95275,-14.014
 L -8.65289,-13.3992 L -8.4,-12.9612 L -8.4,12.9612 L -8.65289,13.3992 L -8.95275,14.014 L -9.20899,14.6482
 L -9.42036,15.2988 L -9.58585,15.9625 L -9.70463,16.6361 L -9.77613,17.3164 z
M -4.1,18 L -4.09001,17.714 L -4.0601,17.4294 L -4.0104,17.1476 L -3.94117,16.8699 L -3.85274,16.5977
 L -3.74554,16.3324 L -3.62008,16.0752 L -3.477,15.8273 L -3.31697,15.5901 L -3.14078,15.3646 L -2.94929,15.1519
 L -2.74343,14.9531 L -2.52421,14.7692 L -2.29269,14.6009 L -2.05,14.4493 L -1.79732,14.3149 L -1.53589,14.1985
 L -1.26697,14.1007 L -0.991879,14.0218 L -0.711957,13.9623 L -0.428566,13.9225 L -0.143087,13.9025 L 0.143087,13.9025
 L 0.428566,13.9225 L 0.711957,13.9623 L 0.991879,14.0218 L 1.26697,14.1007 L 1.53589,14.1985 L 1.79732,14.3149
 L 2.05,14.4493 L 2.29269,14.6009 L 2.52421,14.7692 L 2.74343,14.9531 L 2.94929,15.1519 L 3.14078,15.3646
 L 3.31697,15.5901 L 3.477,15.8273 L 3.62008,16.0752 L 3.74554,16.3324 L 3.85274,16.5977 L 3.94117,16.8699
 L 4.0104,17.1476 L 4.0601,17.4294 L 4.09001,17.714 L 4.1,18 L 4.09001,18.286 L 4.0601,18.5706
 L 4.0104,18.8524 L 3.94117,19.1301 L 3.85274,19.4023 L 3.74554,19.6676 L 3.62008,19.9248 L 3.477,20.1727
 L 3.31697,20.4099 L 3.14078,20.6354 L 2.94929,20.8481 L 2.74343,21.0469 L 2.52421,21.2308 L 2.29269,21.3991
 L 2.05,21.5507 L 1.79732,21.6851 L 1.53589,21.8015 L 1.26697,21.8993 L 0.991879,21.9782 L 0.711957,22.0377
 L 0.428566,22.0775 L 0.143087,22.0975 L -0.143087,22.0975 L -0.428566,22.0775 L -0.711957,22.0377 L -0.991879,21.9782
 L -1.26697,21.8993 L -1.53589,21.8015 L -1.79732,21.6851 L -2.05,21.5507 L -2.29269,21.3991 L -2.52421,21.2308
 L -2.74343,21.0469 L -2.94929,20.8481 L -3.14078,20.6354 L -3.31697,20.4099 L -3.477,20.1727 L -3.62008,19.9248
 L -3.74554,19.6676 L -3.85274,19.4023 L -3.94117,19.1301 L -4.0104,18.8524 L -4.0601,18.5706 L -4.09001,18.286
 z
M -4.1,-18 L -4.09001,-18.286 L -4.0601,-18.5706 L -4.0104,-18.8524 L -3.94117,-19.1301 L -3.85274,-19.4023
 L -3.74554,-19.6676 L -3.62008,-19.9248 L -3.477,-20.1727 L -3.31697,-20.4099 L -3.14078,-20.6354 L -2.94929,-20.8481
 L -2.74343,-21.0469 L -2.52421,-21.2308 L -2.29269,-21.3991 L -2.05,-21.5507 L -1.79732,-21.6851 L -1.53589,-21.8015
 L -1.26697,-21.8993 L -0.991879,-21.9782 L -0.711957,-22.0377 L -0.428566,-22.0775 L -0.143087,-22.0975 L 0.143087,-22.0975
 L 0.428566,-22.0775 L 0.711957,-22.0377 L 0.991879,-21.9782 L 1.26697,-21.8993 L 1.53589,-21.8015 L 1.79732,-21.6851
 L 2.05,-21.5507 L 2.29269,-21.3991 L 2.52421,-21.2308 L 2.74343,-21.0469 L 2.94929,-20.8481 L 3.14078,-20.6354
 L 3.31697,-20.4099 L 3.477,-20.1727 L 3.62008,-19.9248 L 3.74554,-19.6676 L 3.85274,-19.4023 L 3.94117,-19.1301
 L 4.0104,-18.8524 L 4.0601,-18.5706 L 4.09001,-18.286 L 4.1,-18 L 4.09001,-17.714 L 4.0601,-17.4294
 L 4.0104,-17.1476 L 3.94117,-16.8699 L 3.85274,-16.5977 L 3.74554,-16.3324 L 3.62008,-16.0752 L 3.477,-15.8273
 L 3.31697,-15.5901 L 3.14078,-15.3646 L 2.94929,-15.1519 L 2.74343,-14.9531 L 2.52421,-14.7692 L 2.29269,-14.6009
 L 2.05,-14.4493 L 1.79732,-14.3149 L 1.53589,-14.1985 L 1.26697,-14.1007 L 0.991879,-14.0218 L 0.711957,-13.9623
 L 0.428566,-13.9225 L 0.143087,-13.9025 L -0.143087,-13.9025 L -0.428566,-13.9225 L -0.711957,-13.9623 L -0.991879,-14.0218
 L -1.26697,-14.1007 L -1.53589,-14.1985 L -1.79732,-14.3149 L -2.05,-14.4493 L -2.29269,-14.6009 L -2.52421,-14.7692
 L -2.74343,-14.9531 L -2.94929,-15.1519 L -3.14078,-15.3646 L -3.31697,-15.5901 L -3.477,-15.8273 L -3.62008,-16.0752
 L -3.74554,-16.3324 L -3.85274,-16.5977 L -3.94117,-16.8699 L -4.0104,-17.1476 L -4.0601,-17.4294 L -4.09001,-17.714
 z
M -3.273,0.114295 L -3.273,-0.114295 L -3.25706,-0.34233 L -3.22524,-0.568697 L -3.17772,-0.792294 L -3.11471,-1.01203
 L -3.03653,-1.22684 L -2.94355,-1.43567 L -2.83623,-1.6375 L -2.7151,-1.83136 L -2.58074,-2.01629 L -2.4338,-2.1914
 L -2.27501,-2.35584 L -2.10513,-2.50879 L -1.925,-2.64953 L -1.73549,-2.77736 L -1.53752,-2.89165 L -1.33206,-2.99186
 L -1.12012,-3.07749 L -0.902712,-3.14813 L -0.68091,-3.20343 L -0.455791,-3.24313 L -0.228452,-3.26702 L 0,-3.275
 L 0.228452,-3.26702 L 0.455791,-3.24313 L 0.68091,-3.20343 L 0.902712,-3.14813 L 1.12012,-3.07749 L 1.33206,-2.99186
 L 1.53752,-2.89165 L 1.73549,-2.77736 L 1.925,-2.64953 L 2.10513,-2.50879 L 2.27501,-2.35584 L 2.4338,-2.1914
 L 2.58074,-2.01629 L 2.7151,-1.83136 L 2.83623,-1.6375 L 2.94355,-1.43567 L 3.03653,-1.22684 L 3.11471,-1.01203
 L 3.17772,-0.792294 L 3.22524,-0.568697 L 3.25706,-0.34233 L 3.273,-0.114295 L 3.273,0.114295 L 3.25706,0.34233
 L 3.22524,0.568697 L 3.17772,0.792294 L 3.11471,1.01203 L 3.03653,1.22684 L 2.94355,1.43567 L 2.83623,1.6375
 L 2.7151,1.83136 L 2.58074,2.01629 L 2.4338,2.1914 L 2.27501,2.35584 L 2.10513,2.50879 L 1.925,2.64953
 L 1.73549,2.77736 L 1.53752,2.89165 L 1.33206,2.99186 L 1.12012,3.07749 L 0.902712,3.14813 L 0.68091,3.20343
 L 0.455791,3.24313 L 0.228452,3.26702 L 0,3.275 L -0.228452,3.26702 L -0.455791,3.24313 L -0.68091,3.20343
 L -0.902712,3.14813 L -1.12012,3.07749 L -1.33206,2.99186 L -1.53752,2.89165 L -1.73549,2.77736 L -1.925,2.64953
 L -2.10513,2.50879 L -2.27501,2.35584 L -2.4338,2.1914 L -2.58074,2.01629 L -2.7151,1.83136 L -2.83623,1.6375
 L -2.94355,1.43567 L -3.03653,1.22684 L -3.11471,1.01203 L -3.17772,0.792294 L -3.22524,0.568697 L -3.25706,0.34233
 z
" stroke="black" fill="lightgray" stroke-width="0.5"/></svg>
