  0
SECTION
  2
BLOCKS
  0
ENDSEC
  0
SECTION
  2
ENTITIES
  0
LINE
  8
0
 10
-3.95
 20
0
 11
-3.94459
 21
-0.206726
  0
LINE
  8
0
 10
-3.94459
 20
-0.206726
 11
-3.92836
 21
-0.412887
  0
LINE
  8
0
 10
-3.92836
 20
-0.412887
 11
-3.90137
 21
-0.617916
  0
LINE
  8
0
 10
-3.90137
 20
-0.617916
 11
-3.86368
 21
-0.821251
  0
LINE
  8
0
 10
-3.86368
 20
-0.821251
 11
-3.81541
 21
-1.02234
  0
LINE
  8
0
 10
-3.81541
 20
-1.02234
 11
-3.75667
 21
-1.22062
  0
LINE
  8
0
 10
-3.75667
 20
-1.22062
 11
-3.68764
 21
-1.41555
  0
LINE
  8
0
 10
-3.68764
 20
-1.41555
 11
-3.6085
 21
-1.60661
  0
LINE
  8
0
 10
-3.6085
 20
-1.60661
 11
-3.51947
 21
-1.79326
  0
LINE
  8
0
 10
-3.51947
 20
-1.79326
 11
-3.4208
 21
-1.975
  0
LINE
  8
0
 10
-3.4208
 20
-1.975
 11
-3.31275
 21
-2.15132
  0
LINE
  8
0
 10
-3.31275
 20
-2.15132
 11
-3.19562
 21
-2.32175
  0
LINE
  8
0
 10
-3.19562
 20
-2.32175
 11
-3.06973
 21
-2.48582
  0
LINE
  8
0
 10
-3.06973
 20
-2.48582
 11
-2.93542
 21
-2.64307
  0
LINE
  8
0
 10
-2.93542
 20
-2.64307
 11
-2.79307
 21
-2.79307
  0
LINE
  8
0
 10
-2.79307
 20
-2.79307
 11
-2.64307
 21
-2.93542
  0
LINE
  8
0
 10
-2.64307
 20
-2.93542
 11
-2.48582
 21
-3.06973
  0
LINE
  8
0
 10
-2.48582
 20
-3.06973
 11
-2.32175
 21
-3.19562
  0
LINE
  8
0
 10
-2.32175
 20
-3.19562
 11
-2.15132
 21
-3.31275
  0
LINE
  8
0
 10
-2.15132
 20
-3.31275
 11
-1.975
 21
-3.4208
  0
LINE
  8
0
 10
-1.975
 20
-3.4208
 11
-1.79326
 21
-3.51947
  0
LINE
  8
0
 10
-1.79326
 20
-3.51947
 11
-1.60661
 21
-3.6085
  0
LINE
  8
0
 10
-1.60661
 20
-3.6085
 11
-1.41555
 21
-3.68764
  0
LINE
  8
0
 10
-1.41555
 20
-3.68764
 11
-1.22062
 21
-3.75667
  0
LINE
  8
0
 10
-1.22062
 20
-3.75667
 11
-1.02234
 21
-3.81541
  0
LINE
  8
0
 10
-1.02234
 20
-3.81541
 11
-0.821251
 21
-3.86368
  0
LINE
  8
0
 10
-0.821251
 20
-3.86368
 11
-0.617916
 21
-3.90137
  0
LINE
  8
0
 10
-0.617916
 20
-3.90137
 11
-0.412887
 21
-3.92836
  0
LINE
  8
0
 10
-0.412887
 20
-3.92836
 11
-0.206726
 21
-3.94459
  0
LINE
  8
0
 10
-0.206726
 20
-3.94459
 11
0
 21
-3.95
  0
LINE
  8
0
 10
0
 20
-3.95
 11
0.206726
 21
-3.94459
  0
LINE
  8
0
 10
0.206726
 20
-3.94459
 11
0.412887
 21
-3.92836
  0
LINE
  8
0
 10
0.412887
 20
-3.92836
 11
0.617916
 21
-3.90137
  0
LINE
  8
0
 10
0.617916
 20
-3.90137
 11
0.821251
 21
-3.86368
  0
LINE
  8
0
 10
0.821251
 20
-3.86368
 11
1.02234
 21
-3.81541
  0
LINE
  8
0
 10
1.02234
 20
-3.81541
 11
1.22062
 21
-3.75667
  0
LINE
  8
0
 10
1.22062
 20
-3.75667
 11
1.41555
 21
-3.68764
  0
LINE
  8
0
 10
1.41555
 20
-3.68764
 11
1.60661
 21
-3.6085
  0
LINE
  8
0
 10
1.60661
 20
-3.6085
 11
1.79326
 21
-3.51947
  0
LINE
  8
0
 10
1.79326
 20
-3.51947
 11
1.975
 21
-3.4208
  0
LINE
  8
0
 10
1.975
 20
-3.4208
 11
2.15132
 21
-3.31275
  0
LINE
  8
0
 10
2.15132
 20
-3.31275
 11
2.32175
 21
-3.19562
  0
LINE
  8
0
 10
2.32175
 20
-3.19562
 11
2.48582
 21
-3.06973
  0
LINE
  8
0
 10
2.48582
 20
-3.06973
 11
2.64307
 21
-2.93542
  0
LINE
  8
0
 10
2.64307
 20
-2.93542
 11
2.79307
 21
-2.79307
  0
LINE
  8
0
 10
2.79307
 20
-2.79307
 11
2.93542
 21
-2.64307
  0
LINE
  8
0
 10
2.93542
 20
-2.64307
 11
3.06973
 21
-2.48582
  0
LINE
  8
0
 10
3.06973
 20
-2.48582
 11
3.19562
 21
-2.32175
  0
LINE
  8
0
 10
3.19562
 20
-2.32175
 11
3.31275
 21
-2.15132
  0
LINE
  8
0
 10
3.31275
 20
-2.15132
 11
3.4208
 21
-1.975
  0
LINE
  8
0
 10
3.4208
 20
-1.975
 11
3.51947
 21
-1.79326
  0
LINE
  8
0
 10
3.51947
 20
-1.79326
 11
3.6085
 21
-1.60661
  0
LINE
  8
0
 10
3.6085
 20
-1.60661
 11
3.68764
 21
-1.41555
  0
LINE
  8
0
 10
3.68764
 20
-1.41555
 11
3.75667
 21
-1.22062
  0
LINE
  8
0
 10
3.75667
 20
-1.22062
 11
3.81541
 21
-1.02234
  0
LINE
  8
0
 10
3.81541
 20
-1.02234
 11
3.86368
 21
-0.821251
  0
LINE
  8
0
 10
3.86368
 20
-0.821251
 11
3.90137
 21
-0.617916
  0
LINE
  8
0
 10
3.90137
 20
-0.617916
 11
3.92836
 21
-0.412887
  0
LINE
  8
0
 10
3.92836
 20
-0.412887
 11
3.94459
 21
-0.206726
  0
LINE
  8
0
 10
3.94459
 20
-0.206726
 11
3.95
 21
0
  0
LINE
  8
0
 10
3.95
 20
0
 11
3.94459
 21
0.206726
  0
LINE
  8
0
 10
3.94459
 20
0.206726
 11
3.92836
 21
0.412887
  0
LINE
  8
0
 10
3.92836
 20
0.412887
 11
3.90137
 21
0.617916
  0
LINE
  8
0
 10
3.90137
 20
0.617916
 11
3.86368
 21
0.821251
  0
LINE
  8
0
 10
3.86368
 20
0.821251
 11
3.81541
 21
1.02234
  0
LINE
  8
0
 10
3.81541
 20
1.02234
 11
3.75667
 21
1.22062
  0
LINE
  8
0
 10
3.75667
 20
1.22062
 11
3.68764
 21
1.41555
  0
LINE
  8
0
 10
3.68764
 20
1.41555
 11
3.6085
 21
1.60661
  0
LINE
  8
0
 10
3.6085
 20
1.60661
 11
3.51947
 21
1.79326
  0
LINE
  8
0
 10
3.51947
 20
1.79326
 11
3.4208
 21
1.975
  0
LINE
  8
0
 10
3.4208
 20
1.975
 11
3.31275
 21
2.15132
  0
LINE
  8
0
 10
3.31275
 20
2.15132
 11
3.19562
 21
2.32175
  0
LINE
  8
0
 10
3.19562
 20
2.32175
 11
3.06973
 21
2.48582
  0
LINE
  8
0
 10
3.06973
 20
2.48582
 11
2.93542
 21
2.64307
  0
LINE
  8
0
 10
2.93542
 20
2.64307
 11
2.79307
 21
2.79307
  0
LINE
  8
0
 10
2.79307
 20
2.79307
 11
2.64307
 21
2.93542
  0
LINE
  8
0
 10
2.64307
 20
2.93542
 11
2.48582
 21
3.06973
  0
LINE
  8
0
 10
2.48582
 20
3.06973
 11
2.32175
 21
3.19562
  0
LINE
  8
0
 10
2.32175
 20
3.19562
 11
2.15132
 21
3.31275
  0
LINE
  8
0
 10
2.15132
 20
3.31275
 11
1.975
 21
3.4208
  0
LINE
  8
0
 10
1.975
 20
3.4208
 11
1.79326
 21
3.51947
  0
LINE
  8
0
 10
1.79326
 20
3.51947
 11
1.60661
 21
3.6085
  0
LINE
  8
0
 10
1.60661
 20
3.6085
 11
1.41555
 21
3.68764
  0
LINE
  8
0
 10
1.41555
 20
3.68764
 11
1.22062
 21
3.75667
  0
LINE
  8
0
 10
1.22062
 20
3.75667
 11
1.02234
 21
3.81541
  0
LINE
  8
0
 10
1.02234
 20
3.81541
 11
0.821251
 21
3.86368
  0
LINE
  8
0
 10
0.821251
 20
3.86368
 11
0.617916
 21
3.90137
  0
LINE
  8
0
 10
0.617916
 20
3.90137
 11
0.412887
 21
3.92836
  0
LINE
  8
0
 10
0.412887
 20
3.92836
 11
0.206726
 21
3.94459
  0
LINE
  8
0
 10
0.206726
 20
3.94459
 11
0
 21
3.95
  0
LINE
  8
0
 10
0
 20
3.95
 11
-0.206726
 21
3.94459
  0
LINE
  8
0
 10
-0.206726
 20
3.94459
 11
-0.412887
 21
3.92836
  0
LINE
  8
0
 10
-0.412887
 20
3.92836
 11
-0.617916
 21
3.90137
  0
LINE
  8
0
 10
-0.617916
 20
3.90137
 11
-0.821251
 21
3.86368
  0
LINE
  8
0
 10
-0.821251
 20
3.86368
 11
-1.02234
 21
3.81541
  0
LINE
  8
0
 10
-1.02234
 20
3.81541
 11
-1.22062
 21
3.75667
  0
LINE
  8
0
 10
-1.22062
 20
3.75667
 11
-1.41555
 21
3.68764
  0
LINE
  8
0
 10
-1.41555
 20
3.68764
 11
-1.60661
 21
3.6085
  0
LINE
  8
0
 10
-1.60661
 20
3.6085
 11
-1.79326
 21
3.51947
  0
LINE
  8
0
 10
-1.79326
 20
3.51947
 11
-1.975
 21
3.4208
  0
LINE
  8
0
 10
-1.975
 20
3.4208
 11
-2.15132
 21
3.31275
  0
LINE
  8
0
 10
-2.15132
 20
3.31275
 11
-2.32175
 21
3.19562
  0
LINE
  8
0
 10
-2.32175
 20
3.19562
 11
-2.48582
 21
3.06973
  0
LINE
  8
0
 10
-2.48582
 20
3.06973
 11
-2.64307
 21
2.93542
  0
LINE
  8
0
 10
-2.64307
 20
2.93542
 11
-2.79307
 21
2.79307
  0
LINE
  8
0
 10
-2.79307
 20
2.79307
 11
-2.93542
 21
2.64307
  0
LINE
  8
0
 10
-2.93542
 20
2.64307
 11
-3.06973
 21
2.48582
  0
LINE
  8
0
 10
-3.06973
 20
2.48582
 11
-3.19562
 21
2.32175
  0
LINE
  8
0
 10
-3.19562
 20
2.32175
 11
-3.31275
 21
2.15132
  0
LINE
  8
0
 10
-3.31275
 20
2.15132
 11
-3.4208
 21
1.975
  0
LINE
  8
0
 10
-3.4208
 20
1.975
 11
-3.51947
 21
1.79326
  0
LINE
  8
0
 10
-3.51947
 20
1.79326
 11
-3.6085
 21
1.60661
  0
LINE
  8
0
 10
-3.6085
 20
1.60661
 11
-3.68764
 21
1.41555
  0
LINE
  8
0
 10
-3.68764
 20
1.41555
 11
-3.75667
 21
1.22062
  0
LINE
  8
0
 10
-3.75667
 20
1.22062
 11
-3.81541
 21
1.02234
  0
LINE
  8
0
 10
-3.81541
 20
1.02234
 11
-3.86368
 21
0.821251
  0
LINE
  8
0
 10
-3.86368
 20
0.821251
 11
-3.90137
 21
0.617916
  0
LINE
  8
0
 10
-3.90137
 20
0.617916
 11
-3.92836
 21
0.412887
  0
LINE
  8
0
 10
-3.92836
 20
0.412887
 11
-3.94459
 21
0.206726
  0
LINE
  8
0
 10
-3.94459
 20
0.206726
 11
-3.95
 21
0
  0
LINE
  8
0
 10
-2.1
 20
0
 11
-2.09712
 21
0.109905
  0
LINE
  8
0
 10
-2.09712
 20
0.109905
 11
-2.0885
 21
0.219509
  0
LINE
  8
0
 10
-2.0885
 20
0.219509
 11
-2.07415
 21
0.328512
  0
LINE
  8
0
 10
-2.07415
 20
0.328512
 11
-2.05411
 21
0.436614
  0
LINE
  8
0
 10
-2.05411
 20
0.436614
 11
-2.02844
 21
0.54352
  0
LINE
  8
0
 10
-2.02844
 20
0.54352
 11
-1.99722
 21
0.648935
  0
LINE
  8
0
 10
-1.99722
 20
0.648935
 11
-1.96052
 21
0.752572
  0
LINE
  8
0
 10
-1.96052
 20
0.752572
 11
-1.91844
 21
0.854146
  0
LINE
  8
0
 10
-1.91844
 20
0.854146
 11
-1.87111
 21
0.95338
  0
LINE
  8
0
 10
-1.87111
 20
0.95338
 11
-1.81865
 21
1.05
  0
LINE
  8
0
 10
-1.81865
 20
1.05
 11
-1.76121
 21
1.14374
  0
LINE
  8
0
 10
-1.76121
 20
1.14374
 11
-1.69894
 21
1.23435
  0
LINE
  8
0
 10
-1.69894
 20
1.23435
 11
-1.63201
 21
1.32157
  0
LINE
  8
0
 10
-1.63201
 20
1.32157
 11
-1.5606
 21
1.40517
  0
LINE
  8
0
 10
-1.5606
 20
1.40517
 11
-1.48492
 21
1.48492
  0
LINE
  8
0
 10
-1.48492
 20
1.48492
 11
-1.40517
 21
1.5606
  0
LINE
  8
0
 10
-1.40517
 20
1.5606
 11
-1.32157
 21
1.63201
  0
LINE
  8
0
 10
-1.32157
 20
1.63201
 11
-1.23435
 21
1.69894
  0
LINE
  8
0
 10
-1.23435
 20
1.69894
 11
-1.14374
 21
1.76121
  0
LINE
  8
0
 10
-1.14374
 20
1.76121
 11
-1.05
 21
1.81865
  0
LINE
  8
0
 10
-1.05
 20
1.81865
 11
-0.95338
 21
1.87111
  0
LINE
  8
0
 10
-0.95338
 20
1.87111
 11
-0.854146
 21
1.91844
  0
LINE
  8
0
 10
-0.854146
 20
1.91844
 11
-0.752572
 21
1.96052
  0
LINE
  8
0
 10
-0.752572
 20
1.96052
 11
-0.648935
 21
1.99722
  0
LINE
  8
0
 10
-0.648935
 20
1.99722
 11
-0.54352
 21
2.02844
  0
LINE
  8
0
 10
-0.54352
 20
2.02844
 11
-0.436614
 21
2.05411
  0
LINE
  8
0
 10
-0.436614
 20
2.05411
 11
-0.328512
 21
2.07415
  0
LINE
  8
0
 10
-0.328512
 20
2.07415
 11
-0.219509
 21
2.0885
  0
LINE
  8
0
 10
-0.219509
 20
2.0885
 11
-0.109905
 21
2.09712
  0
LINE
  8
0
 10
-0.109905
 20
2.09712
 11
0
 21
2.1
  0
LINE
  8
0
 10
0
 20
2.1
 11
0.109905
 21
2.09712
  0
LINE
  8
0
 10
0.109905
 20
2.09712
 11
0.219509
 21
2.0885
  0
LINE
  8
0
 10
0.219509
 20
2.0885
 11
0.328512
 21
2.07415
  0
LINE
  8
0
 10
0.328512
 20
2.07415
 11
0.436614
 21
2.05411
  0
LINE
  8
0
 10
0.436614
 20
2.05411
 11
0.54352
 21
2.02844
  0
LINE
  8
0
 10
0.54352
 20
2.02844
 11
0.648935
 21
1.99722
  0
LINE
  8
0
 10
0.648935
 20
1.99722
 11
0.752572
 21
1.96052
  0
LINE
  8
0
 10
0.752572
 20
1.96052
 11
0.854146
 21
1.91844
  0
LINE
  8
0
 10
0.854146
 20
1.91844
 11
0.95338
 21
1.87111
  0
LINE
  8
0
 10
0.95338
 20
1.87111
 11
1.05
 21
1.81865
  0
LINE
  8
0
 10
1.05
 20
1.81865
 11
1.14374
 21
1.76121
  0
LINE
  8
0
 10
1.14374
 20
1.76121
 11
1.23435
 21
1.69894
  0
LINE
  8
0
 10
1.23435
 20
1.69894
 11
1.32157
 21
1.63201
  0
LINE
  8
0
 10
1.32157
 20
1.63201
 11
1.40517
 21
1.5606
  0
LINE
  8
0
 10
1.40517
 20
1.5606
 11
1.48492
 21
1.48492
  0
LINE
  8
0
 10
1.48492
 20
1.48492
 11
1.5606
 21
1.40517
  0
LINE
  8
0
 10
1.5606
 20
1.40517
 11
1.63201
 21
1.32157
  0
LINE
  8
0
 10
1.63201
 20
1.32157
 11
1.69894
 21
1.23435
  0
LINE
  8
0
 10
1.69894
 20
1.23435
 11
1.76121
 21
1.14374
  0
LINE
  8
0
 10
1.76121
 20
1.14374
 11
1.81865
 21
1.05
  0
LINE
  8
0
 10
1.81865
 20
1.05
 11
1.87111
 21
0.95338
  0
LINE
  8
0
 10
1.87111
 20
0.95338
 11
1.91844
 21
0.854146
  0
LINE
  8
0
 10
1.91844
 20
0.854146
 11
1.96052
 21
0.752572
  0
LINE
  8
0
 10
1.96052
 20
0.752572
 11
1.99722
 21
0.648935
  0
LINE
  8
0
 10
1.99722
 20
0.648935
 11
2.02844
 21
0.54352
  0
LINE
  8
0
 10
2.02844
 20
0.54352
 11
2.05411
 21
0.436614
  0
LINE
  8
0
 10
2.05411
 20
0.436614
 11
2.07415
 21
0.328512
  0
LINE
  8
0
 10
2.07415
 20
0.328512
 11
2.0885
 21
0.219509
  0
LINE
  8
0
 10
2.0885
 20
0.219509
 11
2.09712
 21
0.109905
  0
LINE
  8
0
 10
2.09712
 20
0.109905
 11
2.1
 21
0
  0
LINE
  8
0
 10
2.1
 20
0
 11
2.09712
 21
-0.109905
  0
LINE
  8
0
 10
2.09712
 20
-0.109905
 11
2.0885
 21
-0.219509
  0
LINE
  8
0
 10
2.0885
 20
-0.219509
 11
2.07415
 21
-0.328512
  0
LINE
  8
0
 10
2.07415
 20
-0.328512
 11
2.05411
 21
-0.436614
  0
LINE
  8
0
 10
2.05411
 20
-0.436614
 11
2.02844
 21
-0.54352
  0
LINE
  8
0
 10
2.02844
 20
-0.54352
 11
1.99722
 21
-0.648935
  0
LINE
  8
0
 10
1.99722
 20
-0.648935
 11
1.96052
 21
-0.752572
  0
LINE
  8
0
 10
1.96052
 20
-0.752572
 11
1.91844
 21
-0.854146
  0
LINE
  8
0
 10
1.91844
 20
-0.854146
 11
1.87111
 21
-0.95338
  0
LINE
  8
0
 10
1.87111
 20
-0.95338
 11
1.81865
 21
-1.05
  0
LINE
  8
0
 10
1.81865
 20
-1.05
 11
1.76121
 21
-1.14374
  0
LINE
  8
0
 10
1.76121
 20
-1.14374
 11
1.69894
 21
-1.23435
  0
LINE
  8
0
 10
1.69894
 20
-1.23435
 11
1.63201
 21
-1.32157
  0
LINE
  8
0
 10
1.63201
 20
-1.32157
 11
1.5606
 21
-1.40517
  0
LINE
  8
0
 10
1.5606
 20
-1.40517
 11
1.48492
 21
-1.48492
  0
LINE
  8
0
 10
1.48492
 20
-1.48492
 11
1.40517
 21
-1.5606
  0
LINE
  8
0
 10
1.40517
 20
-1.5606
 11
1.32157
 21
-1.63201
  0
LINE
  8
0
 10
1.32157
 20
-1.63201
 11
1.23435
 21
-1.69894
  0
LINE
  8
0
 10
1.23435
 20
-1.69894
 11
1.14374
 21
-1.76121
  0
LINE
  8
0
 10
1.14374
 20
-1.76121
 11
1.05
 21
-1.81865
  0
LINE
  8
0
 10
1.05
 20
-1.81865
 11
0.95338
 21
-1.87111
  0
LINE
  8
0
 10
0.95338
 20
-1.87111
 11
0.854146
 21
-1.91844
  0
LINE
  8
0
 10
0.854146
 20
-1.91844
 11
0.752572
 21
-1.96052
  0
LINE
  8
0
 10
0.752572
 20
-1.96052
 11
0.648935
 21
-1.99722
  0
LINE
  8
0
 10
0.648935
 20
-1.99722
 11
0.54352
 21
-2.02844
  0
LINE
  8
0
 10
0.54352
 20
-2.02844
 11
0.436614
 21
-2.05411
  0
LINE
  8
0
 10
0.436614
 20
-2.05411
 11
0.328512
 21
-2.07415
  0
LINE
  8
0
 10
0.328512
 20
-2.07415
 11
0.219509
 21
-2.0885
  0
LINE
  8
0
 10
0.219509
 20
-2.0885
 11
0.109905
 21
-2.09712
  0
LINE
  8
0
 10
0.109905
 20
-2.09712
 11
0
 21
-2.1
  0
LINE
  8
0
 10
0
 20
-2.1
 11
-0.109905
 21
-2.09712
  0
LINE
  8
0
 10
-0.109905
 20
-2.09712
 11
-0.219509
 21
-2.0885
  0
LINE
  8
0
 10
-0.219509
 20
-2.0885
 11
-0.328512
 21
-2.07415
  0
LINE
  8
0
 10
-0.328512
 20
-2.07415
 11
-0.436614
 21
-2.05411
  0
LINE
  8
0
 10
-0.436614
 20
-2.05411
 11
-0.54352
 21
-2.02844
  0
LINE
  8
0
 10
-0.54352
 20
-2.02844
 11
-0.648935
 21
-1.99722
  0
LINE
  8
0
 10
-0.648935
 20
-1.99722
 11
-0.752572
 21
-1.96052
  0
LINE
  8
0
 10
-0.752572
 20
-1.96052
 11
-0.854146
 21
-1.91844
  0
LINE
  8
0
 10
-0.854146
 20
-1.91844
 11
-0.95338
 21
-1.87111
  0
LINE
  8
0
 10
-0.95338
 20
-1.87111
 11
-1.05
 21
-1.81865
  0
LINE
  8
0
 10
-1.05
 20
-1.81865
 11
-1.14374
 21
-1.76121
  0
LINE
  8
0
 10
-1.14374
 20
-1.76121
 11
-1.23435
 21
-1.69894
  0
LINE
  8
0
 10
-1.23435
 20
-1.69894
 11
-1.32157
 21
-1.63201
  0
LINE
  8
0
 10
-1.32157
 20
-1.63201
 11
-1.40517
 21
-1.5606
  0
LINE
  8
0
 10
-1.40517
 20
-1.5606
 11
-1.48492
 21
-1.48492
  0
LINE
  8
0
 10
-1.48492
 20
-1.48492
 11
-1.5606
 21
-1.40517
  0
LINE
  8
0
 10
-1.5606
 20
-1.40517
 11
-1.63201
 21
-1.32157
  0
LINE
  8
0
 10
-1.63201
 20
-1.32157
 11
-1.69894
 21
-1.23435
  0
LINE
  8
0
 10
-1.69894
 20
-1.23435
 11
-1.76121
 21
-1.14374
  0
LINE
  8
0
 10
-1.76121
 20
-1.14374
 11
-1.81865
 21
-1.05
  0
LINE
  8
0
 10
-1.81865
 20
-1.05
 11
-1.87111
 21
-0.95338
  0
LINE
  8
0
 10
-1.87111
 20
-0.95338
 11
-1.91844
 21
-0.854146
  0
LINE
  8
0
 10
-1.91844
 20
-0.854146
 11
-1.96052
 21
-0.752572
  0
LINE
  8
0
 10
-1.96052
 20
-0.752572
 11
-1.99722
 21
-0.648935
  0
LINE
  8
0
 10
-1.99722
 20
-0.648935
 11
-2.02844
 21
-0.54352
  0
LINE
  8
0
 10
-2.02844
 20
-0.54352
 11
-2.05411
 21
-0.436614
  0
LINE
  8
0
 10
-2.05411
 20
-0.436614
 11
-2.07415
 21
-0.328512
  0
LINE
  8
0
 10
-2.07415
 20
-0.328512
 11
-2.0885
 21
-0.219509
  0
LINE
  8
0
 10
-2.0885
 20
-0.219509
 11
-2.09712
 21
-0.109905
  0
LINE
  8
0
 10
-2.09712
 20
-0.109905
 11
-2.1
 21
0
  0
ENDSEC
  0
SECTION
  2
OBJECTS
  0
DICTIONARY
  0
ENDSEC
  0
EOF
