<?xml version="1.0" standalone="no"?>
<!DOCTYPE svg PUBLIC "-//W3C//DTD SVG 1.1//EN" "http://www.w3.org/Graphics/SVG/1.1/DTD/svg11.dtd">
<svg width="8" height="8" viewBox="-4 -4 8 8" xmlns="http://www.w3.org/2000/svg" version="1.1">
<title>OpenSCAD Model</title>
<path d="
M -3.975,-0 L -3.95322,0.415501 L -3.88814,0.826448 L -3.78045,1.22834 L -3.63134,1.61678 L -3.44245,1.9875
 L -3.21584,2.33645 L -2.954,2.65979 L -2.65979,2.954 L -2.33645,3.21584 L -1.9875,3.44245 L -1.61678,3.63134
 L -1.22834,3.78045 L -0.826448,3.88814 L -0.415501,3.95322 L 0,3.975 L 0.415501,3.95322 L 0.826448,3.88814
 L 1.22834,3.78045 L 1.61678,3.63134 L 1.9875,3.44245 L 2.33645,3.21584 L 2.65979,2.954 L 2.954,2.65979
 L 3.21584,2.33645 L 3.44245,1.9875 L 3.63134,1.61678 L 3.78045,1.22834 L 3.88814,0.826448 L 3.95322,0.415501
 L 3.975,-0 L 3.95322,-0.415501 L 3.88814,-0.826448 L 3.78045,-1.22834 L 3.63134,-1.61678 L 3.44245,-1.9875
 L 3.21584,-2.33645 L 2.954,-2.65979 L 2.65979,-2.954 L 2.33645,-3.21584 L 1.9875,-3.44245 L 1.61678,-3.63134
 L 1.22834,-3.78045 L 0.826448,-3.88814 L 0.415501,-3.95322 L 0,-3.975 L -0.415501,-3.95322 L -0.826448,-3.88814
 L -1.22834,-3.78045 L -1.61678,-3.63134 L -1.9875,-3.44245 L -2.33645,-3.21584 L -2.65979,-2.954 L -2.954,-2.65979
 L -3.21584,-2.33645 L -3.44245,-1.9875 L -3.63134,-1.61678 L -3.78045,-1.22834 L -3.88814,-0.826448 L -3.95322,-0.415501
 z
M -1.575,-0 L -1.56637,-0.164632 L -1.54058,-0.32746 L -1.49791,-0.486701 L -1.43883,-0.64061 L -1.36399,-0.787499
 L -1.2742,-0.925761 L -1.17045,-1.05388 L -1.05388,-1.17045 L -0.925761,-1.2742 L -0.787499,-1.36399 L -0.64061,-1.43883
 L -0.486701,-1.49791 L -0.32746,-1.54058 L -0.164632,-1.56637 L 0,-1.575 L 0.164632,-1.56637 L 0.32746,-1.54058
 L 0.486701,-1.49791 L 0.64061,-1.43883 L 0.787499,-1.36399 L 0.925761,-1.2742 L 1.05388,-1.17045 L 1.17045,-1.05388
 L 1.2742,-0.925761 L 1.36399,-0.787499 L 1.43883,-0.64061 L 1.49791,-0.486701 L 1.54058,-0.32746 L 1.56637,-0.164632
 L 1.575,-0 L 1.56637,0.164632 L 1.54058,0.32746 L 1.49791,0.486701 L 1.43883,0.64061 L 1.36399,0.787499
 L 1.2742,0.925761 L 1.17045,1.05388 L 1.05388,1.17045 L 0.925761,1.2742 L 0.787499,1.36399 L 0.64061,1.43883
 L 0.486701,1.49791 L 0.32746,1.54058 L 0.164632,1.56637 L 0,1.575 L -0.164632,1.56637 L -0.32746,1.54058
 L -0.486701,1.49791 L -0.64061,1.43883 L -0.787499,1.36399 L -0.925761,1.2742 L -1.05388,1.17045 L -1.17045,1.05388
 L -1.2742,0.925761 L -1.36399,0.787499 L -1.43883,0.64061 L -1.49791,0.486701 L -1.54058,0.32746 L -1.56637,0.164632
 z
" stroke="black" fill="lightgray" stroke-width="0.5"/></svg>
