<?xml version="1.0" standalone="no"?>
<!DOCTYPE svg PUBLIC "-//W3C//DTD SVG 1.1//EN" "http://www.w3.org/Graphics/SVG/1.1/DTD/svg11.dtd">
<svg width="18" height="20" viewBox="-9 -10 18 20" xmlns="http://www.w3.org/2000/svg" version="1.1">
<title>OpenSCAD Model</title>
<path d="
M -8.4,9.75 L -7.85782,9.75 L -7.62809,9.52815 L -7.01854,9.01668 L -6.3748,8.54897 L -5.7,8.12731
 L -4.99743,7.75375 L -4.27051,7.4301 L -3.52279,7.15796 L -2.75791,6.93863 L -1.97959,6.77319 L -1.19162,6.66245
 L -0.397854,6.60695 L 0.397854,6.60695 L 1.19162,6.66245 L 1.97959,6.77319 L 2.75791,6.93863 L 3.52279,7.15796
 L 4.27051,7.4301 L 4.99743,7.75375 L 5.7,8.12731 L 6.3748,8.54897 L 7.01854,9.01668 L 7.62809,9.52815
 L 7.85782,9.75 L 8.4,9.75 L 8.4,-9.75 L 7.85782,-9.75 L 7.62809,-9.52815 L 7.01854,-9.01668
 L 6.3748,-8.54897 L 5.7,-8.12731 L 4.99743,-7.75375 L 4.27051,-7.4301 L 3.52279,-7.15796 L 2.75791,-6.93863
 L 1.97959,-6.77319 L 1.19162,-6.66245 L 0.397854,-6.60695 L -0.397854,-6.60695 L -1.19162,-6.66245 L -1.97959,-6.77319
 L -2.75791,-6.93863 L -3.52279,-7.15796 L -4.27051,-7.4301 L -4.99743,-7.75375 L -5.7,-8.12731 L -6.3748,-8.54897
 L -7.01854,-9.01668 L -7.62809,-9.52815 L -7.85782,-9.75 L -8.4,-9.75 z
M -3.175,0.794951 L -3.175,-0.794951 L -3.14813,-0.902712 L -3.07749,-1.12012 L -2.99186,-1.33206 L -2.89165,-1.53752
 L -2.77736,-1.73549 L -2.64953,-1.925 L -2.50879,-2.10513 L -2.35584,-2.27501 L -2.1914,-2.4338 L -2.01629,-2.58074
 L -1.83136,-2.7151 L -1.6375,-2.83623 L -1.43567,-2.94355 L -1.22684,-3.03653 L -1.01203,-3.11471 L -0.792294,-3.17772
 L -0.568697,-3.22524 L -0.34233,-3.25706 L -0.114295,-3.273 L 0.114295,-3.273 L 0.34233,-3.25706 L 0.568697,-3.22524
 L 0.792294,-3.17772 L 1.01203,-3.11471 L 1.22684,-3.03653 L 1.43567,-2.94355 L 1.6375,-2.83623 L 1.83136,-2.7151
 L 2.01629,-2.58074 L 2.1914,-2.4338 L 2.35584,-2.27501 L 2.50879,-2.10513 L 2.64953,-1.925 L 2.77736,-1.73549
 L 2.89165,-1.53752 L 2.99186,-1.33206 L 3.07749,-1.12012 L 3.14813,-0.902712 L 3.175,-0.794951 L 3.175,0.794951
 L 3.14813,0.902712 L 3.07749,1.12012 L 2.99186,1.33206 L 2.89165,1.53752 L 2.77736,1.73549 L 2.64953,1.925
 L 2.50879,2.10513 L 2.35584,2.27501 L 2.1914,2.4338 L 2.01629,2.58074 L 1.92669,2.64583 L -1.92669,2.64583
 L -2.01629,2.58074 L -2.1914,2.4338 L -2.35584,2.27501 L -2.50879,2.10513 L -2.64953,1.925 L -2.77736,1.73549
 L -2.89165,1.53752 L -2.99186,1.33206 L -3.07749,1.12012 L -3.14813,0.902712 z
" stroke="black" fill="lightgray" stroke-width="0.5"/></svg>
