  0
SECTION
  2
BLOCKS
  0
ENDSEC
  0
SECTION
  2
ENTITIES
  0
LINE
  8
0
 10
-4.075
 20
0
 11
-3.98595
 21
-0.847239
  0
LINE
  8
0
 10
-3.98595
 20
-0.847239
 11
-3.7227
 21
-1.65745
  0
LINE
  8
0
 10
-3.7227
 20
-1.65745
 11
-3.29674
 21
-2.39522
  0
LINE
  8
0
 10
-3.29674
 20
-2.39522
 11
-2.72671
 21
-3.02831
  0
LINE
  8
0
 10
-2.72671
 20
-3.02831
 11
-2.0375
 21
-3.52905
  0
LINE
  8
0
 10
-2.0375
 20
-3.52905
 11
-1.25924
 21
-3.87556
  0
LINE
  8
0
 10
-1.25924
 20
-3.87556
 11
-0.425953
 21
-4.05268
  0
LINE
  8
0
 10
-0.425953
 20
-4.05268
 11
0.425953
 21
-4.05268
  0
LINE
  8
0
 10
0.425953
 20
-4.05268
 11
1.25924
 21
-3.87556
  0
LINE
  8
0
 10
1.25924
 20
-3.87556
 11
2.0375
 21
-3.52905
  0
LINE
  8
0
 10
2.0375
 20
-3.52905
 11
2.72671
 21
-3.02831
  0
LINE
  8
0
 10
2.72671
 20
-3.02831
 11
3.29674
 21
-2.39522
  0
LINE
  8
0
 10
3.29674
 20
-2.39522
 11
3.7227
 21
-1.65745
  0
LINE
  8
0
 10
3.7227
 20
-1.65745
 11
3.98595
 21
-0.847239
  0
LINE
  8
0
 10
3.98595
 20
-0.847239
 11
4.075
 21
0
  0
LINE
  8
0
 10
4.075
 20
0
 11
3.98595
 21
0.847239
  0
LINE
  8
0
 10
3.98595
 20
0.847239
 11
3.7227
 21
1.65745
  0
LINE
  8
0
 10
3.7227
 20
1.65745
 11
3.29674
 21
2.39522
  0
LINE
  8
0
 10
3.29674
 20
2.39522
 11
2.72671
 21
3.02831
  0
LINE
  8
0
 10
2.72671
 20
3.02831
 11
2.0375
 21
3.52905
  0
LINE
  8
0
 10
2.0375
 20
3.52905
 11
1.25924
 21
3.87556
  0
LINE
  8
0
 10
1.25924
 20
3.87556
 11
0.425953
 21
4.05268
  0
LINE
  8
0
 10
0.425953
 20
4.05268
 11
-0.425953
 21
4.05268
  0
LINE
  8
0
 10
-0.425953
 20
4.05268
 11
-1.25924
 21
3.87556
  0
LINE
  8
0
 10
-1.25924
 20
3.87556
 11
-2.0375
 21
3.52905
  0
LINE
  8
0
 10
-2.0375
 20
3.52905
 11
-2.72671
 21
3.02831
  0
LINE
  8
0
 10
-2.72671
 20
3.02831
 11
-3.29674
 21
2.39522
  0
LINE
  8
0
 10
-3.29674
 20
2.39522
 11
-3.7227
 21
1.65745
  0
LINE
  8
0
 10
-3.7227
 20
1.65745
 11
-3.98595
 21
0.847239
  0
LINE
  8
0
 10
-3.98595
 20
0.847239
 11
-4.075
 21
0
  0
LINE
  8
0
 10
-2.925
 20
0
 11
-2.86108
 21
0.608141
  0
LINE
  8
0
 10
-2.86108
 20
0.608141
 11
-2.67212
 21
1.1897
  0
LINE
  8
0
 10
-2.67212
 20
1.1897
 11
-2.36637
 21
1.71927
  0
LINE
  8
0
 10
-2.36637
 20
1.71927
 11
-1.95721
 21
2.1737
  0
LINE
  8
0
 10
-1.95721
 20
2.1737
 11
-1.4625
 21
2.53312
  0
LINE
  8
0
 10
-1.4625
 20
2.53312
 11
-0.903874
 21
2.78184
  0
LINE
  8
0
 10
-0.903874
 20
2.78184
 11
-0.305745
 21
2.90898
  0
LINE
  8
0
 10
-0.305745
 20
2.90898
 11
0.305745
 21
2.90898
  0
LINE
  8
0
 10
0.305745
 20
2.90898
 11
0.903874
 21
2.78184
  0
LINE
  8
0
 10
0.903874
 20
2.78184
 11
1.4625
 21
2.53312
  0
LINE
  8
0
 10
1.4625
 20
2.53312
 11
1.95721
 21
2.1737
  0
LINE
  8
0
 10
1.95721
 20
2.1737
 11
2.36637
 21
1.71927
  0
LINE
  8
0
 10
2.36637
 20
1.71927
 11
2.67212
 21
1.1897
  0
LINE
  8
0
 10
2.67212
 20
1.1897
 11
2.86108
 21
0.608141
  0
LINE
  8
0
 10
2.86108
 20
0.608141
 11
2.925
 21
0
  0
LINE
  8
0
 10
2.925
 20
0
 11
2.86108
 21
-0.608141
  0
LINE
  8
0
 10
2.86108
 20
-0.608141
 11
2.67212
 21
-1.1897
  0
LINE
  8
0
 10
2.67212
 20
-1.1897
 11
2.36637
 21
-1.71927
  0
LINE
  8
0
 10
2.36637
 20
-1.71927
 11
1.95721
 21
-2.1737
  0
LINE
  8
0
 10
1.95721
 20
-2.1737
 11
1.4625
 21
-2.53312
  0
LINE
  8
0
 10
1.4625
 20
-2.53312
 11
0.903874
 21
-2.78184
  0
LINE
  8
0
 10
0.903874
 20
-2.78184
 11
0.305745
 21
-2.90898
  0
LINE
  8
0
 10
0.305745
 20
-2.90898
 11
-0.305745
 21
-2.90898
  0
LINE
  8
0
 10
-0.305745
 20
-2.90898
 11
-0.903874
 21
-2.78184
  0
LINE
  8
0
 10
-0.903874
 20
-2.78184
 11
-1.4625
 21
-2.53312
  0
LINE
  8
0
 10
-1.4625
 20
-2.53312
 11
-1.95721
 21
-2.1737
  0
LINE
  8
0
 10
-1.95721
 20
-2.1737
 11
-2.36637
 21
-1.71927
  0
LINE
  8
0
 10
-2.36637
 20
-1.71927
 11
-2.67212
 21
-1.1897
  0
LINE
  8
0
 10
-2.67212
 20
-1.1897
 11
-2.86108
 21
-0.608141
  0
LINE
  8
0
 10
-2.86108
 20
-0.608141
 11
-2.925
 21
0
  0
ENDSEC
  0
SECTION
  2
OBJECTS
  0
DICTIONARY
  0
ENDSEC
  0
EOF
