  0
SECTION
  2
BLOCKS
  0
ENDSEC
  0
SECTION
  2
ENTITIES
  0
LINE
  8
0
 10
-63.7
 20
73.3
 11
-63.6704
 21
71.0357
  0
LINE
  8
0
 10
-63.6704
 20
71.0357
 11
-63.5815
 21
68.7729
  0
LINE
  8
0
 10
-63.5815
 20
68.7729
 11
-63.4333
 21
66.5133
  0
LINE
  8
0
 10
-63.4333
 20
66.5133
 11
-63.2261
 21
64.2583
  0
LINE
  8
0
 10
-63.2261
 20
64.2583
 11
-62.96
 21
62.0095
  0
LINE
  8
0
 10
-62.96
 20
62.0095
 11
-62.635
 21
59.7684
  0
LINE
  8
0
 10
-62.635
 20
59.7684
 11
-62.2515
 21
57.5366
  0
LINE
  8
0
 10
-62.2515
 20
57.5366
 11
-61.8098
 21
55.3156
  0
LINE
  8
0
 10
-61.8098
 20
55.3156
 11
-61.31
 21
53.107
  0
LINE
  8
0
 10
-61.31
 20
53.107
 11
-60.7526
 21
50.9122
  0
LINE
  8
0
 10
-60.7526
 20
50.9122
 11
-60.1379
 21
48.7327
  0
LINE
  8
0
 10
-60.1379
 20
48.7327
 11
-59.4664
 21
46.57
  0
LINE
  8
0
 10
-59.4664
 20
46.57
 11
-58.7385
 21
44.4257
  0
LINE
  8
0
 10
-58.7385
 20
44.4257
 11
-57.9547
 21
42.3012
  0
LINE
  8
0
 10
-57.9547
 20
42.3012
 11
-57.1156
 21
40.1979
  0
LINE
  8
0
 10
-57.1156
 20
40.1979
 11
-56.2217
 21
38.1173
  0
LINE
  8
0
 10
-56.2217
 20
38.1173
 11
-55.2736
 21
36.0608
  0
LINE
  8
0
 10
-55.2736
 20
36.0608
 11
-54.2721
 21
34.0298
  0
LINE
  8
0
 10
-54.2721
 20
34.0298
 11
-53.2177
 21
32.0258
  0
LINE
  8
0
 10
-53.2177
 20
32.0258
 11
-52.1112
 21
30.05
  0
LINE
  8
0
 10
-52.1112
 20
30.05
 11
-50.9534
 21
28.1039
  0
LINE
  8
0
 10
-50.9534
 20
28.1039
 11
-50.1943
 21
26.9009
  0
LINE
  8
0
 10
-50.1943
 20
26.9009
 11
4.1
 21
-75.6
  0
LINE
  8
0
 10
4.1
 20
-75.6
 11
17.6
 21
-75.6
  0
LINE
  8
0
 10
17.6
 20
-75.6
 11
17.6
 21
-70.8403
  0
LINE
  8
0
 10
17.6
 20
-70.8403
 11
16.8606
 21
-70.8403
  0
LINE
  8
0
 10
16.8606
 20
-70.8403
 11
14.6317
 21
-70.3665
  0
LINE
  8
0
 10
14.6317
 20
-70.3665
 11
12.55
 21
-69.4397
  0
LINE
  8
0
 10
12.55
 20
-69.4397
 11
10.7065
 21
-68.1003
  0
LINE
  8
0
 10
10.7065
 20
-68.1003
 11
9.18172
 21
-66.4069
  0
LINE
  8
0
 10
9.18172
 20
-66.4069
 11
8.04235
 21
-64.4334
  0
LINE
  8
0
 10
8.04235
 20
-64.4334
 11
7.33819
 21
-62.2662
  0
LINE
  8
0
 10
7.33819
 20
-62.2662
 11
7.33819
 21
-62.2662
  0
LINE
  8
0
 10
7.33819
 20
-62.2662
 11
7.1
 21
-60
  0
LINE
  8
0
 10
7.1
 20
-60
 11
7.1
 21
-60
  0
LINE
  8
0
 10
7.1
 20
-60
 11
7.1
 21
-60
  0
LINE
  8
0
 10
7.1
 20
-60
 11
7.33819
 21
-57.7338
  0
LINE
  8
0
 10
7.33819
 20
-57.7338
 11
7.39246
 21
-57.5667
  0
LINE
  8
0
 10
7.39246
 20
-57.5667
 11
7.39989
 21
-57.5032
  0
LINE
  8
0
 10
7.39989
 20
-57.5032
 11
7.45226
 21
-57.3482
  0
LINE
  8
0
 10
7.45226
 20
-57.3482
 11
7.46243
 21
-57.2691
  0
LINE
  8
0
 10
7.46243
 20
-57.2691
 11
7.51252
 21
-57.1264
  0
LINE
  8
0
 10
7.51252
 20
-57.1264
 11
7.52585
 21
-57.0315
  0
LINE
  8
0
 10
7.52585
 20
-57.0315
 11
7.57325
 21
-56.9013
  0
LINE
  8
0
 10
7.57325
 20
-56.9013
 11
7.59014
 21
-56.7905
  0
LINE
  8
0
 10
7.59014
 20
-56.7905
 11
7.63403
 21
-56.6741
  0
LINE
  8
0
 10
7.63403
 20
-56.6741
 11
7.63413
 21
-56.6719
  0
LINE
  8
0
 10
7.63413
 20
-56.6719
 11
7.63548
 21
-56.6667
  0
LINE
  8
0
 10
7.63548
 20
-56.6667
 11
7.65534
 21
-56.5459
  0
LINE
  8
0
 10
7.65534
 20
-56.5459
 11
7.67659
 21
-56.4915
  0
LINE
  8
0
 10
7.67659
 20
-56.4915
 11
7.68249
 21
-56.3903
  0
LINE
  8
0
 10
7.68249
 20
-56.3903
 11
7.72215
 21
-56.2456
  0
LINE
  8
0
 10
7.72215
 20
-56.2456
 11
7.73197
 21
-56.1051
  0
LINE
  8
0
 10
7.73197
 20
-56.1051
 11
7.76982
 21
-55.9732
  0
LINE
  8
0
 10
7.76982
 20
-55.9732
 11
7.78261
 21
-55.8165
  0
LINE
  8
0
 10
7.78261
 20
-55.8165
 11
7.81824
 21
-55.6975
  0
LINE
  8
0
 10
7.81824
 20
-55.6975
 11
7.8344
 21
-55.5244
  0
LINE
  8
0
 10
7.8344
 20
-55.5244
 11
7.86743
 21
-55.4186
  0
LINE
  8
0
 10
7.86743
 20
-55.4186
 11
7.87233
 21
-55.3719
  0
LINE
  8
0
 10
7.87233
 20
-55.3719
 11
7.87076
 21
-55.3048
  0
LINE
  8
0
 10
7.87076
 20
-55.3048
 11
7.90915
 21
-55.101
  0
LINE
  8
0
 10
7.90915
 20
-55.101
 11
7.90772
 21
-54.9775
  0
LINE
  8
0
 10
7.90772
 20
-54.9775
 11
7.94604
 21
-54.7863
  0
LINE
  8
0
 10
7.94604
 20
-54.7863
 11
7.94604
 21
-54.6467
  0
LINE
  8
0
 10
7.94604
 20
-54.6467
 11
7.98396
 21
-54.4684
  0
LINE
  8
0
 10
7.98396
 20
-54.4684
 11
7.98577
 21
-54.3125
  0
LINE
  8
0
 10
7.98577
 20
-54.3125
 11
8.02289
 21
-54.1473
  0
LINE
  8
0
 10
8.02289
 20
-54.1473
 11
8.02691
 21
-53.9748
  0
LINE
  8
0
 10
8.02691
 20
-53.9748
 11
8.06287
 21
-53.8231
  0
LINE
  8
0
 10
8.06287
 20
-53.8231
 11
8.06948
 21
-53.6337
  0
LINE
  8
0
 10
8.06948
 20
-53.6337
 11
8.10388
 21
-53.4958
  0
LINE
  8
0
 10
8.10388
 20
-53.4958
 11
8.1135
 21
-53.2893
  0
LINE
  8
0
 10
8.1135
 20
-53.2893
 11
8.14594
 21
-53.1653
  0
LINE
  8
0
 10
8.14594
 20
-53.1653
 11
8.15898
 21
-52.9415
  0
LINE
  8
0
 10
8.15898
 20
-52.9415
 11
8.18906
 21
-52.8317
  0
LINE
  8
0
 10
8.18906
 20
-52.8317
 11
8.20594
 21
-52.5903
  0
LINE
  8
0
 10
8.20594
 20
-52.5903
 11
8.22192
 21
-52.5346
  0
LINE
  8
0
 10
8.22192
 20
-52.5346
 11
8.24039
 21
-52.4032
  0
LINE
  8
0
 10
8.24039
 20
-52.4032
 11
8.23409
 21
-52.2951
  0
LINE
  8
0
 10
8.23409
 20
-52.2951
 11
8.27308
 21
-52.0393
  0
LINE
  8
0
 10
8.27308
 20
-52.0393
 11
8.26727
 21
-51.9145
  0
LINE
  8
0
 10
8.26727
 20
-51.9145
 11
8.30706
 21
-51.6723
  0
LINE
  8
0
 10
8.30706
 20
-51.6723
 11
8.30211
 21
-51.5305
  0
LINE
  8
0
 10
8.30211
 20
-51.5305
 11
8.34233
 21
-51.3024
  0
LINE
  8
0
 10
8.34233
 20
-51.3024
 11
8.33863
 21
-51.1433
  0
LINE
  8
0
 10
8.33863
 20
-51.1433
 11
8.3789
 21
-50.9295
  0
LINE
  8
0
 10
8.3789
 20
-50.9295
 11
8.37684
 21
-50.7529
  0
LINE
  8
0
 10
8.37684
 20
-50.7529
 11
8.41678
 21
-50.5537
  0
LINE
  8
0
 10
8.41678
 20
-50.5537
 11
8.41678
 21
-50.3592
  0
LINE
  8
0
 10
8.41678
 20
-50.3592
 11
8.45597
 21
-50.1749
  0
LINE
  8
0
 10
8.45597
 20
-50.1749
 11
8.45844
 21
-49.9624
  0
LINE
  8
0
 10
8.45844
 20
-49.9624
 11
8.49647
 21
-49.7932
  0
LINE
  8
0
 10
8.49647
 20
-49.7932
 11
8.50184
 21
-49.5625
  0
LINE
  8
0
 10
8.50184
 20
-49.5625
 11
8.53831
 21
-49.4086
  0
LINE
  8
0
 10
8.53831
 20
-49.4086
 11
8.54701
 21
-49.1594
  0
LINE
  8
0
 10
8.54701
 20
-49.1594
 11
8.58148
 21
-49.0212
  0
LINE
  8
0
 10
8.58148
 20
-49.0212
 11
8.59395
 21
-48.7533
  0
LINE
  8
0
 10
8.59395
 20
-48.7533
 11
8.62598
 21
-48.6309
  0
LINE
  8
0
 10
8.62598
 20
-48.6309
 11
8.64269
 21
-48.3441
  0
LINE
  8
0
 10
8.64269
 20
-48.3441
 11
8.67184
 21
-48.2378
  0
LINE
  8
0
 10
8.67184
 20
-48.2378
 11
8.69322
 21
-47.932
  0
LINE
  8
0
 10
8.69322
 20
-47.932
 11
8.71034
 21
-47.8723
  0
LINE
  8
0
 10
8.71034
 20
-47.8723
 11
8.72509
 21
-47.7577
  0
LINE
  8
0
 10
8.72509
 20
-47.7577
 11
8.71793
 21
-47.6553
  0
LINE
  8
0
 10
8.71793
 20
-47.6553
 11
8.76224
 21
-47.34
  0
LINE
  8
0
 10
8.76224
 20
-47.34
 11
8.75523
 21
-47.2196
  0
LINE
  8
0
 10
8.75523
 20
-47.2196
 11
8.80094
 21
-46.9197
  0
LINE
  8
0
 10
8.80094
 20
-46.9197
 11
8.79448
 21
-46.7808
  0
LINE
  8
0
 10
8.79448
 20
-46.7808
 11
8.84119
 21
-46.4966
  0
LINE
  8
0
 10
8.84119
 20
-46.4966
 11
8.83569
 21
-46.3392
  0
LINE
  8
0
 10
8.83569
 20
-46.3392
 11
8.88299
 21
-46.0709
  0
LINE
  8
0
 10
8.88299
 20
-46.0709
 11
8.87888
 21
-45.8946
  0
LINE
  8
0
 10
8.87888
 20
-45.8946
 11
8.92634
 21
-45.6426
  0
LINE
  8
0
 10
8.92634
 20
-45.6426
 11
8.92407
 21
-45.4472
  0
LINE
  8
0
 10
8.92407
 20
-45.4472
 11
8.97126
 21
-45.2117
  0
LINE
  8
0
 10
8.97126
 20
-45.2117
 11
8.97126
 21
-44.997
  0
LINE
  8
0
 10
8.97126
 20
-44.997
 11
9.01775
 21
-44.7783
  0
LINE
  8
0
 10
9.01775
 20
-44.7783
 11
9.02048
 21
-44.544
  0
LINE
  8
0
 10
9.02048
 20
-44.544
 11
9.06581
 21
-44.3423
  0
LINE
  8
0
 10
9.06581
 20
-44.3423
 11
9.07172
 21
-44.0883
  0
LINE
  8
0
 10
9.07172
 20
-44.0883
 11
9.11545
 21
-43.9038
  0
LINE
  8
0
 10
9.11545
 20
-43.9038
 11
9.12501
 21
-43.6299
  0
LINE
  8
0
 10
9.12501
 20
-43.6299
 11
9.16667
 21
-43.4629
  0
LINE
  8
0
 10
9.16667
 20
-43.4629
 11
9.18036
 21
-43.1689
  0
LINE
  8
0
 10
9.18036
 20
-43.1689
 11
9.21948
 21
-43.0194
  0
LINE
  8
0
 10
9.21948
 20
-43.0194
 11
9.23778
 21
-42.7053
  0
LINE
  8
0
 10
9.23778
 20
-42.7053
 11
9.27389
 21
-42.5736
  0
LINE
  8
0
 10
9.27389
 20
-42.5736
 11
9.29727
 21
-42.2391
  0
LINE
  8
0
 10
9.29727
 20
-42.2391
 11
9.32989
 21
-42.1254
  0
LINE
  8
0
 10
9.32989
 20
-42.1254
 11
9.34769
 21
-41.9073
  0
LINE
  8
0
 10
9.34769
 20
-41.9073
 11
9.18251
 21
-41.7986
  0
LINE
  8
0
 10
9.18251
 20
-41.7986
 11
8.9239
 21
-41.537
  0
LINE
  8
0
 10
8.9239
 20
-41.537
 11
8.75099
 21
-41.4174
  0
LINE
  8
0
 10
8.75099
 20
-41.4174
 11
8.50067
 21
-41.1521
  0
LINE
  8
0
 10
8.50067
 20
-41.1521
 11
8.33184
 21
-41.0294
  0
LINE
  8
0
 10
8.33184
 20
-41.0294
 11
8.08956
 21
-40.7604
  0
LINE
  8
0
 10
8.08956
 20
-40.7604
 11
7.9252
 21
-40.635
  0
LINE
  8
0
 10
7.9252
 20
-40.635
 11
7.69071
 21
-40.3621
  0
LINE
  8
0
 10
7.69071
 20
-40.3621
 11
7.5312
 21
-40.2344
  0
LINE
  8
0
 10
7.5312
 20
-40.2344
 11
7.30427
 21
-39.9575
  0
LINE
  8
0
 10
7.30427
 20
-39.9575
 11
7.14996
 21
-39.828
  0
LINE
  8
0
 10
7.14996
 20
-39.828
 11
6.93037
 21
-39.547
  0
LINE
  8
0
 10
6.93037
 20
-39.547
 11
6.78158
 21
-39.4161
  0
LINE
  8
0
 10
6.78158
 20
-39.4161
 11
6.56916
 21
-39.1308
  0
LINE
  8
0
 10
6.56916
 20
-39.1308
 11
6.42619
 21
-38.999
  0
LINE
  8
0
 10
6.42619
 20
-38.999
 11
6.22075
 21
-38.7092
  0
LINE
  8
0
 10
6.22075
 20
-38.7092
 11
6.08387
 21
-38.577
  0
LINE
  8
0
 10
6.08387
 20
-38.577
 11
5.88526
 21
-38.2825
  0
LINE
  8
0
 10
5.88526
 20
-38.2825
 11
5.75471
 21
-38.1505
  0
LINE
  8
0
 10
5.75471
 20
-38.1505
 11
5.5628
 21
-37.8512
  0
LINE
  8
0
 10
5.5628
 20
-37.8512
 11
5.43881
 21
-37.7197
  0
LINE
  8
0
 10
5.43881
 20
-37.7197
 11
5.25349
 21
-37.4153
  0
LINE
  8
0
 10
5.25349
 20
-37.4153
 11
5.13622
 21
-37.2851
  0
LINE
  8
0
 10
5.13622
 20
-37.2851
 11
4.95741
 21
-36.9754
  0
LINE
  8
0
 10
4.95741
 20
-36.9754
 11
4.84703
 21
-36.8469
  0
LINE
  8
0
 10
4.84703
 20
-36.8469
 11
4.67467
 21
-36.5316
  0
LINE
  8
0
 10
4.67467
 20
-36.5316
 11
4.57129
 21
-36.4055
  0
LINE
  8
0
 10
4.57129
 20
-36.4055
 11
4.40533
 21
-36.0844
  0
LINE
  8
0
 10
4.40533
 20
-36.0844
 11
4.30905
 21
-35.9612
  0
LINE
  8
0
 10
4.30905
 20
-35.9612
 11
4.14948
 21
-35.634
  0
LINE
  8
0
 10
4.14948
 20
-35.634
 11
4.06036
 21
-35.5143
  0
LINE
  8
0
 10
4.06036
 20
-35.5143
 11
3.9072
 21
-35.1808
  0
LINE
  8
0
 10
3.9072
 20
-35.1808
 11
3.82525
 21
-35.0652
  0
LINE
  8
0
 10
3.82525
 20
-35.0652
 11
3.67853
 21
-34.7251
  0
LINE
  8
0
 10
3.67853
 20
-34.7251
 11
3.60375
 21
-34.6142
  0
LINE
  8
0
 10
3.60375
 20
-34.6142
 11
3.46354
 21
-34.2672
  0
LINE
  8
0
 10
3.46354
 20
-34.2672
 11
3.39588
 21
-34.1616
  0
LINE
  8
0
 10
3.39588
 20
-34.1616
 11
3.26226
 21
-33.8074
  0
LINE
  8
0
 10
3.26226
 20
-33.8074
 11
3.20165
 21
-33.7079
  0
LINE
  8
0
 10
3.20165
 20
-33.7079
 11
3.07475
 21
-33.3462
  0
LINE
  8
0
 10
3.07475
 20
-33.3462
 11
3.02107
 21
-33.2532
  0
LINE
  8
0
 10
3.02107
 20
-33.2532
 11
2.95222
 21
-33.0413
  0
LINE
  8
0
 10
2.95222
 20
-33.0413
 11
2.92269
 21
-32.9728
  0
LINE
  8
0
 10
2.92269
 20
-32.9728
 11
2.91096
 21
-32.9143
  0
LINE
  8
0
 10
2.91096
 20
-32.9143
 11
2.90103
 21
-32.8837
  0
LINE
  8
0
 10
2.90103
 20
-32.8837
 11
2.85413
 21
-32.798
  0
LINE
  8
0
 10
2.85413
 20
-32.798
 11
2.80891
 21
-32.6469
  0
LINE
  8
0
 10
2.80891
 20
-32.6469
 11
2.75012
 21
-32.5014
  0
LINE
  8
0
 10
2.75012
 20
-32.5014
 11
2.73313
 21
-32.405
  0
LINE
  8
0
 10
2.73313
 20
-32.405
 11
2.70083
 21
-32.3425
  0
LINE
  8
0
 10
2.70083
 20
-32.3425
 11
2.67722
 21
-32.2564
  0
LINE
  8
0
 10
2.67722
 20
-32.2564
 11
2.59165
 21
-32.0296
  0
LINE
  8
0
 10
2.59165
 20
-32.0296
 11
2.57538
 21
-31.9228
  0
LINE
  8
0
 10
2.57538
 20
-31.9228
 11
2.56733
 21
-31.8999
  0
LINE
  8
0
 10
2.56733
 20
-31.8999
 11
2.56114
 21
-31.8872
  0
LINE
  8
0
 10
2.56114
 20
-31.8872
 11
2.55687
 21
-31.8701
  0
LINE
  8
0
 10
2.55687
 20
-31.8701
 11
2.44725
 21
-31.5576
  0
LINE
  8
0
 10
2.44725
 20
-31.5576
 11
2.43223
 21
-31.4409
  0
LINE
  8
0
 10
2.43223
 20
-31.4409
 11
2.31691
 21
-31.086
  0
LINE
  8
0
 10
2.31691
 20
-31.086
 11
2.30354
 21
-30.9589
  0
LINE
  8
0
 10
2.30354
 20
-30.9589
 11
2.20059
 21
-30.615
  0
LINE
  8
0
 10
2.20059
 20
-30.615
 11
2.18933
 21
-30.4771
  0
LINE
  8
0
 10
2.18933
 20
-30.4771
 11
2.09826
 21
-30.1449
  0
LINE
  8
0
 10
2.09826
 20
-30.1449
 11
2.08958
 21
-29.9959
  0
LINE
  8
0
 10
2.08958
 20
-29.9959
 11
2.00987
 21
-29.6762
  0
LINE
  8
0
 10
2.00987
 20
-29.6762
 11
2.00426
 21
-29.5156
  0
LINE
  8
0
 10
2.00426
 20
-29.5156
 11
1.93536
 21
-29.2091
  0
LINE
  8
0
 10
1.93536
 20
-29.2091
 11
1.93335
 21
-29.0367
  0
LINE
  8
0
 10
1.93335
 20
-29.0367
 11
1.87467
 21
-28.744
  0
LINE
  8
0
 10
1.87467
 20
-28.744
 11
1.87682
 21
-28.5595
  0
LINE
  8
0
 10
1.87682
 20
-28.5595
 11
1.82774
 21
-28.2812
  0
LINE
  8
0
 10
1.82774
 20
-28.2812
 11
1.83461
 21
-28.0844
  0
LINE
  8
0
 10
1.83461
 20
-28.0844
 11
1.79448
 21
-27.8211
  0
LINE
  8
0
 10
1.79448
 20
-27.8211
 11
1.80667
 21
-27.6116
  0
LINE
  8
0
 10
1.80667
 20
-27.6116
 11
1.7748
 21
-27.3639
  0
LINE
  8
0
 10
1.7748
 20
-27.3639
 11
1.79294
 21
-27.1417
  0
LINE
  8
0
 10
1.79294
 20
-27.1417
 11
1.76861
 21
-26.9101
  0
LINE
  8
0
 10
1.76861
 20
-26.9101
 11
1.79334
 21
-26.6748
  0
LINE
  8
0
 10
1.79334
 20
-26.6748
 11
1.77581
 21
-26.46
  0
LINE
  8
0
 10
1.77581
 20
-26.46
 11
1.80779
 21
-26.2115
  0
LINE
  8
0
 10
1.80779
 20
-26.2115
 11
1.79628
 21
-26.0139
  0
LINE
  8
0
 10
1.79628
 20
-26.0139
 11
1.8362
 21
-25.752
  0
LINE
  8
0
 10
1.8362
 20
-25.752
 11
1.82992
 21
-25.572
  0
LINE
  8
0
 10
1.82992
 20
-25.572
 11
1.87847
 21
-25.2967
  0
LINE
  8
0
 10
1.87847
 20
-25.2967
 11
1.87659
 21
-25.1348
  0
LINE
  8
0
 10
1.87659
 20
-25.1348
 11
1.93449
 21
-24.8459
  0
LINE
  8
0
 10
1.93449
 20
-24.8459
 11
1.93616
 21
-24.7025
  0
LINE
  8
0
 10
1.93616
 20
-24.7025
 11
2.00414
 21
-24.4
  0
LINE
  8
0
 10
2.00414
 20
-24.4
 11
2.00849
 21
-24.2755
  0
LINE
  8
0
 10
2.00849
 20
-24.2755
 11
2.0873
 21
-23.9594
  0
LINE
  8
0
 10
2.0873
 20
-23.9594
 11
2.09343
 21
-23.8541
  0
LINE
  8
0
 10
2.09343
 20
-23.8541
 11
2.18383
 21
-23.5244
  0
LINE
  8
0
 10
2.18383
 20
-23.5244
 11
2.19084
 21
-23.4386
  0
LINE
  8
0
 10
2.19084
 20
-23.4386
 11
2.26865
 21
-23.1786
  0
LINE
  8
0
 10
2.26865
 20
-23.1786
 11
2.3244
 21
-22.9005
  0
LINE
  8
0
 10
2.3244
 20
-22.9005
 11
2.3594
 21
-22.8194
  0
LINE
  8
0
 10
2.3594
 20
-22.8194
 11
2.43583
 21
-22.4793
  0
LINE
  8
0
 10
2.43583
 20
-22.4793
 11
2.48071
 21
-22.3815
  0
LINE
  8
0
 10
2.48071
 20
-22.3815
 11
2.55976
 21
-22.0645
  0
LINE
  8
0
 10
2.55976
 20
-22.0645
 11
2.61543
 21
-21.9504
  0
LINE
  8
0
 10
2.61543
 20
-21.9504
 11
2.69601
 21
-21.6565
  0
LINE
  8
0
 10
2.69601
 20
-21.6565
 11
2.76337
 21
-21.5262
  0
LINE
  8
0
 10
2.76337
 20
-21.5262
 11
2.84438
 21
-21.2556
  0
LINE
  8
0
 10
2.84438
 20
-21.2556
 11
2.92434
 21
-21.1093
  0
LINE
  8
0
 10
2.92434
 20
-21.1093
 11
3.0047
 21
-20.862
  0
LINE
  8
0
 10
3.0047
 20
-20.862
 11
3.09816
 21
-20.7001
  0
LINE
  8
0
 10
3.09816
 20
-20.7001
 11
3.17676
 21
-20.4761
  0
LINE
  8
0
 10
3.17676
 20
-20.4761
 11
3.28462
 21
-20.2989
  0
LINE
  8
0
 10
3.28462
 20
-20.2989
 11
3.36036
 21
-20.0982
  0
LINE
  8
0
 10
3.36036
 20
-20.0982
 11
3.48352
 21
-19.9061
  0
LINE
  8
0
 10
3.48352
 20
-19.9061
 11
3.55529
 21
-19.7284
  0
LINE
  8
0
 10
3.55529
 20
-19.7284
 11
3.69462
 21
-19.5219
  0
LINE
  8
0
 10
3.69462
 20
-19.5219
 11
3.76133
 21
-19.3672
  0
LINE
  8
0
 10
3.76133
 20
-19.3672
 11
3.91771
 21
-19.1466
  0
LINE
  8
0
 10
3.91771
 20
-19.1466
 11
3.97827
 21
-19.0147
  0
LINE
  8
0
 10
3.97827
 20
-19.0147
 11
4.15255
 21
-18.7806
  0
LINE
  8
0
 10
4.15255
 20
-18.7806
 11
4.20586
 21
-18.6713
  0
LINE
  8
0
 10
4.20586
 20
-18.6713
 11
4.39889
 21
-18.4243
  0
LINE
  8
0
 10
4.39889
 20
-18.4243
 11
4.44388
 21
-18.3372
  0
LINE
  8
0
 10
4.44388
 20
-18.3372
 11
4.65648
 21
-18.0778
  0
LINE
  8
0
 10
4.65648
 20
-18.0778
 11
4.69208
 21
-18.0127
  0
LINE
  8
0
 10
4.69208
 20
-18.0127
 11
4.78744
 21
-17.9017
  0
LINE
  8
0
 10
4.78744
 20
-17.9017
 11
4.82953
 21
-17.8393
  0
LINE
  8
0
 10
4.82953
 20
-17.8393
 11
4.87697
 21
-17.7935
  0
LINE
  8
0
 10
4.87697
 20
-17.7935
 11
5.07919
 21
-17.5082
  0
LINE
  8
0
 10
5.07919
 20
-17.5082
 11
5.14499
 21
-17.4476
  0
LINE
  8
0
 10
5.14499
 20
-17.4476
 11
5.33903
 21
-17.1869
  0
LINE
  8
0
 10
5.33903
 20
-17.1869
 11
5.424
 21
-17.1122
  0
LINE
  8
0
 10
5.424
 20
-17.1122
 11
5.60878
 21
-16.8757
  0
LINE
  8
0
 10
5.60878
 20
-16.8757
 11
5.71372
 21
-16.7876
  0
LINE
  8
0
 10
5.71372
 20
-16.7876
 11
5.88821
 21
-16.5747
  0
LINE
  8
0
 10
5.88821
 20
-16.5747
 11
6.01387
 21
-16.4741
  0
LINE
  8
0
 10
6.01387
 20
-16.4741
 11
6.17703
 21
-16.2842
  0
LINE
  8
0
 10
6.17703
 20
-16.2842
 11
6.32414
 21
-16.172
  0
LINE
  8
0
 10
6.32414
 20
-16.172
 11
6.47498
 21
-16.0045
  0
LINE
  8
0
 10
6.47498
 20
-16.0045
 11
6.64424
 21
-15.8815
  0
LINE
  8
0
 10
6.64424
 20
-15.8815
 11
6.78179
 21
-15.7357
  0
LINE
  8
0
 10
6.78179
 20
-15.7357
 11
6.97386
 21
-15.6029
  0
LINE
  8
0
 10
6.97386
 20
-15.6029
 11
7.09717
 21
-15.4782
  0
LINE
  8
0
 10
7.09717
 20
-15.4782
 11
7.31267
 21
-15.3364
  0
LINE
  8
0
 10
7.31267
 20
-15.3364
 11
7.42084
 21
-15.232
  0
LINE
  8
0
 10
7.42084
 20
-15.232
 11
7.66037
 21
-15.0823
  0
LINE
  8
0
 10
7.66037
 20
-15.0823
 11
7.75251
 21
-14.9974
  0
LINE
  8
0
 10
7.75251
 20
-14.9974
 11
8.01661
 21
-14.8408
  0
LINE
  8
0
 10
8.01661
 20
-14.8408
 11
8.09188
 21
-14.7746
  0
LINE
  8
0
 10
8.09188
 20
-14.7746
 11
8.38106
 21
-14.612
  0
LINE
  8
0
 10
8.38106
 20
-14.612
 11
8.43865
 21
-14.5637
  0
LINE
  8
0
 10
8.43865
 20
-14.5637
 11
8.60237
 21
-14.4767
  0
LINE
  8
0
 10
8.60237
 20
-14.4767
 11
8.65598
 21
-14.4396
  0
LINE
  8
0
 10
8.65598
 20
-14.4396
 11
8.71141
 21
-14.4165
  0
LINE
  8
0
 10
8.71141
 20
-14.4165
 11
9.00101
 21
-14.226
  0
LINE
  8
0
 10
9.00101
 20
-14.226
 11
9.08031
 21
-14.195
  0
LINE
  8
0
 10
9.08031
 20
-14.195
 11
9.3533
 21
-14.0244
  0
LINE
  8
0
 10
9.3533
 20
-14.0244
 11
9.45686
 21
-13.9867
  0
LINE
  8
0
 10
9.45686
 20
-13.9867
 11
9.71255
 21
-13.8351
  0
LINE
  8
0
 10
9.71255
 20
-13.8351
 11
9.8407
 21
-13.7918
  0
LINE
  8
0
 10
9.8407
 20
-13.7918
 11
10.0784
 21
-13.6582
  0
LINE
  8
0
 10
10.0784
 20
-13.6582
 11
10.2315
 21
-13.6105
  0
LINE
  8
0
 10
10.2315
 20
-13.6105
 11
10.4506
 21
-13.4939
  0
LINE
  8
0
 10
10.4506
 20
-13.4939
 11
10.6288
 21
-13.4428
  0
LINE
  8
0
 10
10.6288
 20
-13.4428
 11
10.8289
 21
-13.3424
  0
LINE
  8
0
 10
10.8289
 20
-13.3424
 11
11.0324
 21
-13.2891
  0
LINE
  8
0
 10
11.0324
 20
-13.2891
 11
11.2128
 21
-13.2037
  0
LINE
  8
0
 10
11.2128
 20
-13.2037
 11
11.4418
 21
-13.1494
  0
LINE
  8
0
 10
11.4418
 20
-13.1494
 11
11.602
 21
-13.0781
  0
LINE
  8
0
 10
11.602
 20
-13.0781
 11
11.8566
 21
-13.024
  0
LINE
  8
0
 10
11.8566
 20
-13.024
 11
11.9963
 21
-12.9656
  0
LINE
  8
0
 10
11.9963
 20
-12.9656
 11
12.2766
 21
-12.9128
  0
LINE
  8
0
 10
12.2766
 20
-12.9128
 11
12.3954
 21
-12.8664
  0
LINE
  8
0
 10
12.3954
 20
-12.8664
 11
12.7012
 21
-12.8162
  0
LINE
  8
0
 10
12.7012
 20
-12.8162
 11
12.7987
 21
-12.7807
  0
LINE
  8
0
 10
12.7987
 20
-12.7807
 11
13.1302
 21
-12.7341
  0
LINE
  8
0
 10
13.1302
 20
-12.7341
 11
13.2061
 21
-12.7085
  0
LINE
  8
0
 10
13.2061
 20
-12.7085
 11
13.3961
 21
-12.6862
  0
LINE
  8
0
 10
13.3961
 20
-12.6862
 11
13.4301
 21
-12.6782
  0
LINE
  8
0
 10
13.4301
 20
-12.6782
 11
13.4737
 21
-12.6772
  0
LINE
  8
0
 10
13.4737
 20
-12.6772
 11
13.5057
 21
-12.6734
  0
LINE
  8
0
 10
13.5057
 20
-12.6734
 11
13.831
 21
-12.6043
  0
LINE
  8
0
 10
13.831
 20
-12.6043
 11
13.9146
 21
-12.6043
  0
LINE
  8
0
 10
13.9146
 20
-12.6043
 11
14.2357
 21
-12.5438
  0
LINE
  8
0
 10
14.2357
 20
-12.5438
 11
14.3431
 21
-12.5463
  0
LINE
  8
0
 10
14.3431
 20
-12.5463
 11
14.6439
 21
-12.4969
  0
LINE
  8
0
 10
14.6439
 20
-12.4969
 11
14.7747
 21
-12.503
  0
LINE
  8
0
 10
14.7747
 20
-12.503
 11
15.0553
 21
-12.4635
  0
LINE
  8
0
 10
15.0553
 20
-12.4635
 11
15.2093
 21
-12.4743
  0
LINE
  8
0
 10
15.2093
 20
-12.4743
 11
15.4695
 21
-12.4439
  0
LINE
  8
0
 10
15.4695
 20
-12.4439
 11
15.6463
 21
-12.4604
  0
LINE
  8
0
 10
15.6463
 20
-12.4604
 11
15.8861
 21
-12.438
  0
LINE
  8
0
 10
15.8861
 20
-12.438
 11
16.0855
 21
-12.4613
  0
LINE
  8
0
 10
16.0855
 20
-12.4613
 11
16.3049
 21
-12.446
  0
LINE
  8
0
 10
16.3049
 20
-12.446
 11
16.5264
 21
-12.4771
  0
LINE
  8
0
 10
16.5264
 20
-12.4771
 11
16.7254
 21
-12.4679
  0
LINE
  8
0
 10
16.7254
 20
-12.4679
 11
16.9685
 21
-12.5078
  0
LINE
  8
0
 10
16.9685
 20
-12.5078
 11
17.1474
 21
-12.5037
  0
LINE
  8
0
 10
17.1474
 20
-12.5037
 11
17.4117
 21
-12.5534
  0
LINE
  8
0
 10
17.4117
 20
-12.5534
 11
17.5704
 21
-12.5534
  0
LINE
  8
0
 10
17.5704
 20
-12.5534
 11
17.6
 21
-12.5597
  0
LINE
  8
0
 10
17.6
 20
-12.5597
 11
17.6
 21
0
  0
LINE
  8
0
 10
17.6
 20
0
 11
17.5759
 21
0.921112
  0
LINE
  8
0
 10
17.5759
 20
0.921112
 11
17.5036
 21
1.8397
  0
LINE
  8
0
 10
17.5036
 20
1.8397
 11
17.3833
 21
2.75325
  0
LINE
  8
0
 10
17.3833
 20
2.75325
 11
17.2154
 21
3.65925
  0
LINE
  8
0
 10
17.2154
 20
3.65925
 11
17.0003
 21
4.55521
  0
LINE
  8
0
 10
17.0003
 20
4.55521
 11
16.7386
 21
5.4387
  0
LINE
  8
0
 10
16.7386
 20
5.4387
 11
16.431
 21
6.30728
  0
LINE
  8
0
 10
16.431
 20
6.30728
 11
16.0784
 21
7.15856
  0
LINE
  8
0
 10
16.0784
 20
7.15856
 11
15.6817
 21
7.99023
  0
LINE
  8
0
 10
15.6817
 20
7.99023
 11
15.242
 21
8.8
  0
LINE
  8
0
 10
15.242
 20
8.8
 11
14.7606
 21
9.58565
  0
LINE
  8
0
 10
14.7606
 20
9.58565
 11
14.2387
 21
10.345
  0
LINE
  8
0
 10
14.2387
 20
10.345
 11
13.6778
 21
11.076
  0
LINE
  8
0
 10
13.6778
 20
11.076
 11
13.0793
 21
11.7767
  0
LINE
  8
0
 10
13.0793
 20
11.7767
 11
12.4451
 21
12.4451
  0
LINE
  8
0
 10
12.4451
 20
12.4451
 11
11.7767
 21
13.0793
  0
LINE
  8
0
 10
11.7767
 20
13.0793
 11
11.076
 21
13.6778
  0
LINE
  8
0
 10
11.076
 20
13.6778
 11
10.345
 21
14.2387
  0
LINE
  8
0
 10
10.345
 20
14.2387
 11
9.58565
 21
14.7606
  0
LINE
  8
0
 10
9.58565
 20
14.7606
 11
8.8
 21
15.242
  0
LINE
  8
0
 10
8.8
 20
15.242
 11
7.99023
 21
15.6817
  0
LINE
  8
0
 10
7.99023
 20
15.6817
 11
7.15856
 21
16.0784
  0
LINE
  8
0
 10
7.15856
 20
16.0784
 11
-19.1509
 21
27.993
  0
LINE
  8
0
 10
-19.1509
 20
27.993
 11
-19.6181
 21
28.271
  0
LINE
  8
0
 10
-19.6181
 20
28.271
 11
-21.1613
 21
29.2447
  0
LINE
  8
0
 10
-21.1613
 20
29.2447
 11
-22.6785
 21
30.2584
  0
LINE
  8
0
 10
-22.6785
 20
30.2584
 11
-24.1686
 21
31.3115
  0
LINE
  8
0
 10
-24.1686
 20
31.3115
 11
-25.6307
 21
32.4033
  0
LINE
  8
0
 10
-25.6307
 20
32.4033
 11
-27.0636
 21
33.5329
  0
LINE
  8
0
 10
-27.0636
 20
33.5329
 11
-28.4665
 21
34.6997
  0
LINE
  8
0
 10
-28.4665
 20
34.6997
 11
-29.8384
 21
35.9028
  0
LINE
  8
0
 10
-29.8384
 20
35.9028
 11
-31.1783
 21
37.1414
  0
LINE
  8
0
 10
-31.1783
 20
37.1414
 11
-32.4853
 21
38.4147
  0
LINE
  8
0
 10
-32.4853
 20
38.4147
 11
-33.7586
 21
39.7217
  0
LINE
  8
0
 10
-33.7586
 20
39.7217
 11
-34.9972
 21
41.0616
  0
LINE
  8
0
 10
-34.9972
 20
41.0616
 11
-36.2003
 21
42.4335
  0
LINE
  8
0
 10
-36.2003
 20
42.4335
 11
-37.3671
 21
43.8364
  0
LINE
  8
0
 10
-37.3671
 20
43.8364
 11
-38.4967
 21
45.2693
  0
LINE
  8
0
 10
-38.4967
 20
45.2693
 11
-39.5885
 21
46.7314
  0
LINE
  8
0
 10
-39.5885
 20
46.7314
 11
-40.6416
 21
48.2215
  0
LINE
  8
0
 10
-40.6416
 20
48.2215
 11
-41.6553
 21
49.7387
  0
LINE
  8
0
 10
-41.6553
 20
49.7387
 11
-42.629
 21
51.2819
  0
LINE
  8
0
 10
-42.629
 20
51.2819
 11
-43.562
 21
52.85
  0
LINE
  8
0
 10
-43.562
 20
52.85
 11
-44.4536
 21
54.442
  0
LINE
  8
0
 10
-44.4536
 20
54.442
 11
-45.3032
 21
56.0569
  0
LINE
  8
0
 10
-45.3032
 20
56.0569
 11
-46.1102
 21
57.6934
  0
LINE
  8
0
 10
-46.1102
 20
57.6934
 11
-46.8741
 21
59.3505
  0
LINE
  8
0
 10
-46.8741
 20
59.3505
 11
-47.5944
 21
61.027
  0
LINE
  8
0
 10
-47.5944
 20
61.027
 11
-48.2706
 21
62.7218
  0
LINE
  8
0
 10
-48.2706
 20
62.7218
 11
-48.9021
 21
64.4337
  0
LINE
  8
0
 10
-48.9021
 20
64.4337
 11
-49.4886
 21
66.1615
  0
LINE
  8
0
 10
-49.4886
 20
66.1615
 11
-50.0297
 21
67.9041
  0
LINE
  8
0
 10
-50.0297
 20
67.9041
 11
-50.525
 21
69.6603
  0
LINE
  8
0
 10
-50.525
 20
69.6603
 11
-50.9742
 21
71.4289
  0
LINE
  8
0
 10
-50.9742
 20
71.4289
 11
-51.3769
 21
73.2086
  0
LINE
  8
0
 10
-51.3769
 20
73.2086
 11
-51.3951
 21
73.3
  0
LINE
  8
0
 10
-51.3951
 20
73.3
 11
-51.5112
 21
73.3
  0
LINE
  8
0
 10
-51.5112
 20
73.3
 11
-52.9395
 21
84.0615
  0
LINE
  8
0
 10
-52.9395
 20
84.0615
 11
-52.8862
 21
84.1902
  0
LINE
  8
0
 10
-52.8862
 20
84.1902
 11
-52.8163
 21
84.3876
  0
LINE
  8
0
 10
-52.8163
 20
84.3876
 11
-52.7568
 21
84.5884
  0
LINE
  8
0
 10
-52.7568
 20
84.5884
 11
-52.7079
 21
84.792
  0
LINE
  8
0
 10
-52.7079
 20
84.792
 11
-52.6698
 21
84.9979
  0
LINE
  8
0
 10
-52.6698
 20
84.9979
 11
-52.6424
 21
85.2056
  0
LINE
  8
0
 10
-52.6424
 20
85.2056
 11
-52.626
 21
85.4143
  0
LINE
  8
0
 10
-52.626
 20
85.4143
 11
-52.6205
 21
85.6237
  0
LINE
  8
0
 10
-52.6205
 20
85.6237
 11
-52.626
 21
85.833
  0
LINE
  8
0
 10
-52.626
 20
85.833
 11
-52.6424
 21
86.0418
  0
LINE
  8
0
 10
-52.6424
 20
86.0418
 11
-52.6698
 21
86.2494
  0
LINE
  8
0
 10
-52.6698
 20
86.2494
 11
-52.7079
 21
86.4553
  0
LINE
  8
0
 10
-52.7079
 20
86.4553
 11
-53.2069
 21
88.8029
  0
LINE
  8
0
 10
-53.2069
 20
88.8029
 11
-49.6856
 21
89.5514
  0
LINE
  8
0
 10
-49.6856
 20
89.5514
 11
-49.4412
 21
89.61
  0
LINE
  8
0
 10
-49.4412
 20
89.61
 11
-49.2003
 21
89.6814
  0
LINE
  8
0
 10
-49.2003
 20
89.6814
 11
-48.9634
 21
89.7653
  0
LINE
  8
0
 10
-48.9634
 20
89.7653
 11
-48.7312
 21
89.8614
  0
LINE
  8
0
 10
-48.7312
 20
89.8614
 11
-48.5044
 21
89.9696
  0
LINE
  8
0
 10
-48.5044
 20
89.9696
 11
-48.2836
 21
90.0895
  0
LINE
  8
0
 10
-48.2836
 20
90.0895
 11
-48.0693
 21
90.2208
  0
LINE
  8
0
 10
-48.0693
 20
90.2208
 11
-47.8622
 21
90.3632
  0
LINE
  8
0
 10
-47.8622
 20
90.3632
 11
-47.6628
 21
90.5162
  0
LINE
  8
0
 10
-47.6628
 20
90.5162
 11
-47.4717
 21
90.6794
  0
LINE
  8
0
 10
-47.4717
 20
90.6794
 11
-47.2894
 21
90.8523
  0
LINE
  8
0
 10
-47.2894
 20
90.8523
 11
-47.1165
 21
91.0346
  0
LINE
  8
0
 10
-47.1165
 20
91.0346
 11
-46.9533
 21
91.2257
  0
LINE
  8
0
 10
-46.9533
 20
91.2257
 11
-46.8003
 21
91.4251
  0
LINE
  8
0
 10
-46.8003
 20
91.4251
 11
-46.6579
 21
91.6322
  0
LINE
  8
0
 10
-46.6579
 20
91.6322
 11
-46.5266
 21
91.8465
  0
LINE
  8
0
 10
-46.5266
 20
91.8465
 11
-46.4067
 21
92.0673
  0
LINE
  8
0
 10
-46.4067
 20
92.0673
 11
-46.2985
 21
92.2941
  0
LINE
  8
0
 10
-46.2985
 20
92.2941
 11
-46.2024
 21
92.5263
  0
LINE
  8
0
 10
-46.2024
 20
92.5263
 11
-46.1185
 21
92.7632
  0
LINE
  8
0
 10
-46.1185
 20
92.7632
 11
-46.0471
 21
93.0041
  0
LINE
  8
0
 10
-46.0471
 20
93.0041
 11
-45.9885
 21
93.2485
  0
LINE
  8
0
 10
-45.9885
 20
93.2485
 11
-45.9427
 21
93.4956
  0
LINE
  8
0
 10
-45.9427
 20
93.4956
 11
-45.9099
 21
93.7447
  0
LINE
  8
0
 10
-45.9099
 20
93.7447
 11
-45.8901
 21
93.9952
  0
LINE
  8
0
 10
-45.8901
 20
93.9952
 11
-45.8836
 21
94.2465
  0
LINE
  8
0
 10
-45.8836
 20
94.2465
 11
-45.8901
 21
94.4977
  0
LINE
  8
0
 10
-45.8901
 20
94.4977
 11
-45.9099
 21
94.7482
  0
LINE
  8
0
 10
-45.9099
 20
94.7482
 11
-45.9427
 21
94.9973
  0
LINE
  8
0
 10
-45.9427
 20
94.9973
 11
-45.9885
 21
95.2444
  0
LINE
  8
0
 10
-45.9885
 20
95.2444
 11
-46.0471
 21
95.4888
  0
LINE
  8
0
 10
-46.0471
 20
95.4888
 11
-46.1185
 21
95.7297
  0
LINE
  8
0
 10
-46.1185
 20
95.7297
 11
-46.2024
 21
95.9666
  0
LINE
  8
0
 10
-46.2024
 20
95.9666
 11
-46.2985
 21
96.1988
  0
LINE
  8
0
 10
-46.2985
 20
96.1988
 11
-46.4067
 21
96.4256
  0
LINE
  8
0
 10
-46.4067
 20
96.4256
 11
-46.5266
 21
96.6465
  0
LINE
  8
0
 10
-46.5266
 20
96.6465
 11
-46.6579
 21
96.8607
  0
LINE
  8
0
 10
-46.6579
 20
96.8607
 11
-46.8003
 21
97.0678
  0
LINE
  8
0
 10
-46.8003
 20
97.0678
 11
-46.9533
 21
97.2672
  0
LINE
  8
0
 10
-46.9533
 20
97.2672
 11
-47.1165
 21
97.4583
  0
LINE
  8
0
 10
-47.1165
 20
97.4583
 11
-47.2894
 21
97.6406
  0
LINE
  8
0
 10
-47.2894
 20
97.6406
 11
-47.4717
 21
97.8136
  0
LINE
  8
0
 10
-47.4717
 20
97.8136
 11
-47.6628
 21
97.9768
  0
LINE
  8
0
 10
-47.6628
 20
97.9768
 11
-47.8622
 21
98.1297
  0
LINE
  8
0
 10
-47.8622
 20
98.1297
 11
-48.0693
 21
98.2721
  0
LINE
  8
0
 10
-48.0693
 20
98.2721
 11
-48.2836
 21
98.4034
  0
LINE
  8
0
 10
-48.2836
 20
98.4034
 11
-48.5044
 21
98.5233
  0
LINE
  8
0
 10
-48.5044
 20
98.5233
 11
-48.7312
 21
98.6315
  0
LINE
  8
0
 10
-48.7312
 20
98.6315
 11
-48.9634
 21
98.7276
  0
LINE
  8
0
 10
-48.9634
 20
98.7276
 11
-49.2003
 21
98.8115
  0
LINE
  8
0
 10
-49.2003
 20
98.8115
 11
-49.4412
 21
98.8829
  0
LINE
  8
0
 10
-49.4412
 20
98.8829
 11
-49.6856
 21
98.9416
  0
LINE
  8
0
 10
-49.6856
 20
98.9416
 11
-49.9327
 21
98.9874
  0
LINE
  8
0
 10
-49.9327
 20
98.9874
 11
-50.1818
 21
99.0202
  0
LINE
  8
0
 10
-50.1818
 20
99.0202
 11
-50.4323
 21
99.0399
  0
LINE
  8
0
 10
-50.4323
 20
99.0399
 11
-50.6836
 21
99.0465
  0
LINE
  8
0
 10
-50.6836
 20
99.0465
 11
-50.9348
 21
99.0399
  0
LINE
  8
0
 10
-50.9348
 20
99.0399
 11
-51.1853
 21
99.0202
  0
LINE
  8
0
 10
-51.1853
 20
99.0202
 11
-51.4344
 21
98.9874
  0
LINE
  8
0
 10
-51.4344
 20
98.9874
 11
-51.6815
 21
98.9416
  0
LINE
  8
0
 10
-51.6815
 20
98.9416
 11
-55.2029
 21
98.1931
  0
LINE
  8
0
 10
-55.2029
 20
98.1931
 11
-55.2518
 21
98.3967
  0
LINE
  8
0
 10
-55.2518
 20
98.3967
 11
-55.3112
 21
98.5975
  0
LINE
  8
0
 10
-55.3112
 20
98.5975
 11
-55.3811
 21
98.7949
  0
LINE
  8
0
 10
-55.3811
 20
98.7949
 11
-55.4613
 21
98.9884
  0
LINE
  8
0
 10
-55.4613
 20
98.9884
 11
-55.5514
 21
99.1774
  0
LINE
  8
0
 10
-55.5514
 20
99.1774
 11
-55.6514
 21
99.3614
  0
LINE
  8
0
 10
-55.6514
 20
99.3614
 11
-55.7608
 21
99.54
  0
LINE
  8
0
 10
-55.7608
 20
99.54
 11
-55.8794
 21
99.7126
  0
LINE
  8
0
 10
-55.8794
 20
99.7126
 11
-56.0069
 21
99.8787
  0
LINE
  8
0
 10
-56.0069
 20
99.8787
 11
-56.1429
 21
100.038
  0
LINE
  8
0
 10
-56.1429
 20
100.038
 11
-56.287
 21
100.19
  0
LINE
  8
0
 10
-56.287
 20
100.19
 11
-56.4389
 21
100.334
  0
LINE
  8
0
 10
-56.4389
 20
100.334
 11
-56.5982
 21
100.47
  0
LINE
  8
0
 10
-56.5982
 20
100.47
 11
-56.7643
 21
100.598
  0
LINE
  8
0
 10
-56.7643
 20
100.598
 11
-56.9369
 21
100.716
  0
LINE
  8
0
 10
-56.9369
 20
100.716
 11
-57.1155
 21
100.826
  0
LINE
  8
0
 10
-57.1155
 20
100.826
 11
-57.2995
 21
100.925
  0
LINE
  8
0
 10
-57.2995
 20
100.925
 11
-57.4885
 21
101.016
  0
LINE
  8
0
 10
-57.4885
 20
101.016
 11
-57.682
 21
101.096
  0
LINE
  8
0
 10
-57.682
 20
101.096
 11
-57.8794
 21
101.166
  0
LINE
  8
0
 10
-57.8794
 20
101.166
 11
-58.0802
 21
101.225
  0
LINE
  8
0
 10
-58.0802
 20
101.225
 11
-58.2838
 21
101.274
  0
LINE
  8
0
 10
-58.2838
 20
101.274
 11
-58.4897
 21
101.312
  0
LINE
  8
0
 10
-58.4897
 20
101.312
 11
-58.6973
 21
101.34
  0
LINE
  8
0
 10
-58.6973
 20
101.34
 11
-58.9061
 21
101.356
  0
LINE
  8
0
 10
-58.9061
 20
101.356
 11
-59.1155
 21
101.361
  0
LINE
  8
0
 10
-59.1155
 20
101.361
 11
-59.3248
 21
101.356
  0
LINE
  8
0
 10
-59.3248
 20
101.356
 11
-59.5336
 21
101.34
  0
LINE
  8
0
 10
-59.5336
 20
101.34
 11
-59.7412
 21
101.312
  0
LINE
  8
0
 10
-59.7412
 20
101.312
 11
-59.9471
 21
101.274
  0
LINE
  8
0
 10
-59.9471
 20
101.274
 11
-60.1507
 21
101.225
  0
LINE
  8
0
 10
-60.1507
 20
101.225
 11
-60.3515
 21
101.166
  0
LINE
  8
0
 10
-60.3515
 20
101.166
 11
-60.5489
 21
101.096
  0
LINE
  8
0
 10
-60.5489
 20
101.096
 11
-60.7424
 21
101.016
  0
LINE
  8
0
 10
-60.7424
 20
101.016
 11
-60.9314
 21
100.925
  0
LINE
  8
0
 10
-60.9314
 20
100.925
 11
-61.1155
 21
100.826
  0
LINE
  8
0
 10
-61.1155
 20
100.826
 11
-61.294
 21
100.716
  0
LINE
  8
0
 10
-61.294
 20
100.716
 11
-61.4666
 21
100.598
  0
LINE
  8
0
 10
-61.4666
 20
100.598
 11
-61.6327
 21
100.47
  0
LINE
  8
0
 10
-61.6327
 20
100.47
 11
-61.792
 21
100.334
  0
LINE
  8
0
 10
-61.792
 20
100.334
 11
-61.9439
 21
100.19
  0
LINE
  8
0
 10
-61.9439
 20
100.19
 11
-62.088
 21
100.038
  0
LINE
  8
0
 10
-62.088
 20
100.038
 11
-62.224
 21
99.8787
  0
LINE
  8
0
 10
-62.224
 20
99.8787
 11
-62.3515
 21
99.7126
  0
LINE
  8
0
 10
-62.3515
 20
99.7126
 11
-62.4701
 21
99.54
  0
LINE
  8
0
 10
-62.4701
 20
99.54
 11
-62.5796
 21
99.3614
  0
LINE
  8
0
 10
-62.5796
 20
99.3614
 11
-62.6795
 21
99.1774
  0
LINE
  8
0
 10
-62.6795
 20
99.1774
 11
-62.7696
 21
98.9884
  0
LINE
  8
0
 10
-62.7696
 20
98.9884
 11
-62.8498
 21
98.7949
  0
LINE
  8
0
 10
-62.8498
 20
98.7949
 11
-62.9197
 21
98.5975
  0
LINE
  8
0
 10
-62.9197
 20
98.5975
 11
-62.9792
 21
98.3967
  0
LINE
  8
0
 10
-62.9792
 20
98.3967
 11
-63.028
 21
98.1931
  0
LINE
  8
0
 10
-63.028
 20
98.1931
 11
-63.0662
 21
97.9872
  0
LINE
  8
0
 10
-63.0662
 20
97.9872
 11
-63.0935
 21
97.7796
  0
LINE
  8
0
 10
-63.0935
 20
97.7796
 11
-63.6737
 21
93.0017
  0
LINE
  8
0
 10
-63.6737
 20
93.0017
 11
-63.6934
 21
92.7512
  0
LINE
  8
0
 10
-63.6934
 20
92.7512
 11
-63.7
 21
92.5
  0
LINE
  8
0
 10
-63.7
 20
92.5
 11
-63.7
 21
92.5
  0
LINE
  8
0
 10
-63.7
 20
92.5
 11
-63.7
 21
92.5
  0
LINE
  8
0
 10
-63.7
 20
92.5
 11
-63.7
 21
73.3
  0
LINE
  8
0
 10
-63.7
 20
73.3
 11
-63.7
 21
73.3
  0
LINE
  8
0
 10
-10.775
 20
-1.63528
 11
-10.775
 21
1.63528
  0
LINE
  8
0
 10
-10.775
 20
1.63528
 11
-10.7658
 21
1.70514
  0
LINE
  8
0
 10
-10.7658
 20
1.70514
 11
-10.6618
 21
2.26624
  0
LINE
  8
0
 10
-10.6618
 20
2.26624
 11
-10.5286
 21
2.82113
  0
LINE
  8
0
 10
-10.5286
 20
2.82113
 11
-10.3665
 21
3.36829
  0
LINE
  8
0
 10
-10.3665
 20
3.36829
 11
-10.176
 21
3.90621
  0
LINE
  8
0
 10
-10.176
 20
3.90621
 11
-9.95765
 21
4.43343
  0
LINE
  8
0
 10
-9.95765
 20
4.43343
 11
-9.71197
 21
4.9485
  0
LINE
  8
0
 10
-9.71197
 20
4.9485
 11
-9.43968
 21
5.45
  0
LINE
  8
0
 10
-9.43968
 20
5.45
 11
-9.14151
 21
5.93657
  0
LINE
  8
0
 10
-9.14151
 20
5.93657
 11
-8.81828
 21
6.40686
  0
LINE
  8
0
 10
-8.81828
 20
6.40686
 11
-8.47089
 21
6.85959
  0
LINE
  8
0
 10
-8.47089
 20
6.85959
 11
-8.10028
 21
7.29352
  0
LINE
  8
0
 10
-8.10028
 20
7.29352
 11
-7.70746
 21
7.70746
  0
LINE
  8
0
 10
-7.70746
 20
7.70746
 11
-7.29352
 21
8.10028
  0
LINE
  8
0
 10
-7.29352
 20
8.10028
 11
-6.85959
 21
8.47089
  0
LINE
  8
0
 10
-6.85959
 20
8.47089
 11
-6.40686
 21
8.81828
  0
LINE
  8
0
 10
-6.40686
 20
8.81828
 11
-5.93657
 21
9.14151
  0
LINE
  8
0
 10
-5.93657
 20
9.14151
 11
-5.45
 21
9.43968
  0
LINE
  8
0
 10
-5.45
 20
9.43968
 11
-4.9485
 21
9.71197
  0
LINE
  8
0
 10
-4.9485
 20
9.71197
 11
-4.43343
 21
9.95765
  0
LINE
  8
0
 10
-4.43343
 20
9.95765
 11
-3.90621
 21
10.176
  0
LINE
  8
0
 10
-3.90621
 20
10.176
 11
-3.36829
 21
10.3665
  0
LINE
  8
0
 10
-3.36829
 20
10.3665
 11
-2.82113
 21
10.5286
  0
LINE
  8
0
 10
-2.82113
 20
10.5286
 11
-2.26624
 21
10.6618
  0
LINE
  8
0
 10
-2.26624
 20
10.6618
 11
-1.70514
 21
10.7658
  0
LINE
  8
0
 10
-1.70514
 20
10.7658
 11
-1.44538
 21
10.8
  0
LINE
  8
0
 10
-1.44538
 20
10.8
 11
1.44538
 21
10.8
  0
LINE
  8
0
 10
1.44538
 20
10.8
 11
1.70514
 21
10.7658
  0
LINE
  8
0
 10
1.70514
 20
10.7658
 11
2.26624
 21
10.6618
  0
LINE
  8
0
 10
2.26624
 20
10.6618
 11
2.82113
 21
10.5286
  0
LINE
  8
0
 10
2.82113
 20
10.5286
 11
3.36829
 21
10.3665
  0
LINE
  8
0
 10
3.36829
 20
10.3665
 11
3.90621
 21
10.176
  0
LINE
  8
0
 10
3.90621
 20
10.176
 11
4.43343
 21
9.95765
  0
LINE
  8
0
 10
4.43343
 20
9.95765
 11
4.9485
 21
9.71197
  0
LINE
  8
0
 10
4.9485
 20
9.71197
 11
5.45
 21
9.43968
  0
LINE
  8
0
 10
5.45
 20
9.43968
 11
5.93657
 21
9.14151
  0
LINE
  8
0
 10
5.93657
 20
9.14151
 11
6.40686
 21
8.81828
  0
LINE
  8
0
 10
6.40686
 20
8.81828
 11
6.85959
 21
8.47089
  0
LINE
  8
0
 10
6.85959
 20
8.47089
 11
7.29352
 21
8.10028
  0
LINE
  8
0
 10
7.29352
 20
8.10028
 11
7.70746
 21
7.70746
  0
LINE
  8
0
 10
7.70746
 20
7.70746
 11
8.10028
 21
7.29352
  0
LINE
  8
0
 10
8.10028
 20
7.29352
 11
8.47089
 21
6.85959
  0
LINE
  8
0
 10
8.47089
 20
6.85959
 11
8.81828
 21
6.40686
  0
LINE
  8
0
 10
8.81828
 20
6.40686
 11
9.14151
 21
5.93657
  0
LINE
  8
0
 10
9.14151
 20
5.93657
 11
9.43968
 21
5.45
  0
LINE
  8
0
 10
9.43968
 20
5.45
 11
9.71197
 21
4.9485
  0
LINE
  8
0
 10
9.71197
 20
4.9485
 11
9.95765
 21
4.43343
  0
LINE
  8
0
 10
9.95765
 20
4.43343
 11
10.176
 21
3.90621
  0
LINE
  8
0
 10
10.176
 20
3.90621
 11
10.3665
 21
3.36829
  0
LINE
  8
0
 10
10.3665
 20
3.36829
 11
10.5286
 21
2.82113
  0
LINE
  8
0
 10
10.5286
 20
2.82113
 11
10.6618
 21
2.26624
  0
LINE
  8
0
 10
10.6618
 20
2.26624
 11
10.7658
 21
1.70514
  0
LINE
  8
0
 10
10.7658
 20
1.70514
 11
10.775
 21
1.63528
  0
LINE
  8
0
 10
10.775
 20
1.63528
 11
10.775
 21
-1.63528
  0
LINE
  8
0
 10
10.775
 20
-1.63528
 11
10.7658
 21
-1.70514
  0
LINE
  8
0
 10
10.7658
 20
-1.70514
 11
10.6618
 21
-2.26624
  0
LINE
  8
0
 10
10.6618
 20
-2.26624
 11
10.5286
 21
-2.82113
  0
LINE
  8
0
 10
10.5286
 20
-2.82113
 11
10.3665
 21
-3.36829
  0
LINE
  8
0
 10
10.3665
 20
-3.36829
 11
10.176
 21
-3.90621
  0
LINE
  8
0
 10
10.176
 20
-3.90621
 11
9.95765
 21
-4.43343
  0
LINE
  8
0
 10
9.95765
 20
-4.43343
 11
9.71197
 21
-4.9485
  0
LINE
  8
0
 10
9.71197
 20
-4.9485
 11
9.43968
 21
-5.45
  0
LINE
  8
0
 10
9.43968
 20
-5.45
 11
9.14151
 21
-5.93657
  0
LINE
  8
0
 10
9.14151
 20
-5.93657
 11
8.81828
 21
-6.40686
  0
LINE
  8
0
 10
8.81828
 20
-6.40686
 11
8.47089
 21
-6.85959
  0
LINE
  8
0
 10
8.47089
 20
-6.85959
 11
8.10028
 21
-7.29352
  0
LINE
  8
0
 10
8.10028
 20
-7.29352
 11
7.70746
 21
-7.70746
  0
LINE
  8
0
 10
7.70746
 20
-7.70746
 11
7.29352
 21
-8.10028
  0
LINE
  8
0
 10
7.29352
 20
-8.10028
 11
6.85959
 21
-8.47089
  0
LINE
  8
0
 10
6.85959
 20
-8.47089
 11
6.40686
 21
-8.81828
  0
LINE
  8
0
 10
6.40686
 20
-8.81828
 11
5.93657
 21
-9.14151
  0
LINE
  8
0
 10
5.93657
 20
-9.14151
 11
5.45
 21
-9.43968
  0
LINE
  8
0
 10
5.45
 20
-9.43968
 11
4.9485
 21
-9.71197
  0
LINE
  8
0
 10
4.9485
 20
-9.71197
 11
4.43343
 21
-9.95765
  0
LINE
  8
0
 10
4.43343
 20
-9.95765
 11
3.90621
 21
-10.176
  0
LINE
  8
0
 10
3.90621
 20
-10.176
 11
3.36829
 21
-10.3665
  0
LINE
  8
0
 10
3.36829
 20
-10.3665
 11
2.82113
 21
-10.5286
  0
LINE
  8
0
 10
2.82113
 20
-10.5286
 11
2.26624
 21
-10.6618
  0
LINE
  8
0
 10
2.26624
 20
-10.6618
 11
1.70514
 21
-10.7658
  0
LINE
  8
0
 10
1.70514
 20
-10.7658
 11
1.44538
 21
-10.8
  0
LINE
  8
0
 10
1.44538
 20
-10.8
 11
-1.44538
 21
-10.8
  0
LINE
  8
0
 10
-1.44538
 20
-10.8
 11
-1.70514
 21
-10.7658
  0
LINE
  8
0
 10
-1.70514
 20
-10.7658
 11
-2.26624
 21
-10.6618
  0
LINE
  8
0
 10
-2.26624
 20
-10.6618
 11
-2.82113
 21
-10.5286
  0
LINE
  8
0
 10
-2.82113
 20
-10.5286
 11
-3.36829
 21
-10.3665
  0
LINE
  8
0
 10
-3.36829
 20
-10.3665
 11
-3.90621
 21
-10.176
  0
LINE
  8
0
 10
-3.90621
 20
-10.176
 11
-4.43343
 21
-9.95765
  0
LINE
  8
0
 10
-4.43343
 20
-9.95765
 11
-4.9485
 21
-9.71197
  0
LINE
  8
0
 10
-4.9485
 20
-9.71197
 11
-5.45
 21
-9.43968
  0
LINE
  8
0
 10
-5.45
 20
-9.43968
 11
-5.93657
 21
-9.14151
  0
LINE
  8
0
 10
-5.93657
 20
-9.14151
 11
-6.40686
 21
-8.81828
  0
LINE
  8
0
 10
-6.40686
 20
-8.81828
 11
-6.85959
 21
-8.47089
  0
LINE
  8
0
 10
-6.85959
 20
-8.47089
 11
-7.29352
 21
-8.10028
  0
LINE
  8
0
 10
-7.29352
 20
-8.10028
 11
-7.70746
 21
-7.70746
  0
LINE
  8
0
 10
-7.70746
 20
-7.70746
 11
-8.10028
 21
-7.29352
  0
LINE
  8
0
 10
-8.10028
 20
-7.29352
 11
-8.47089
 21
-6.85959
  0
LINE
  8
0
 10
-8.47089
 20
-6.85959
 11
-8.81828
 21
-6.40686
  0
LINE
  8
0
 10
-8.81828
 20
-6.40686
 11
-9.14151
 21
-5.93657
  0
LINE
  8
0
 10
-9.14151
 20
-5.93657
 11
-9.43968
 21
-5.45
  0
LINE
  8
0
 10
-9.43968
 20
-5.45
 11
-9.71197
 21
-4.9485
  0
LINE
  8
0
 10
-9.71197
 20
-4.9485
 11
-9.95765
 21
-4.43343
  0
LINE
  8
0
 10
-9.95765
 20
-4.43343
 11
-10.176
 21
-3.90621
  0
LINE
  8
0
 10
-10.176
 20
-3.90621
 11
-10.3665
 21
-3.36829
  0
LINE
  8
0
 10
-10.3665
 20
-3.36829
 11
-10.5286
 21
-2.82113
  0
LINE
  8
0
 10
-10.5286
 20
-2.82113
 11
-10.6618
 21
-2.26624
  0
LINE
  8
0
 10
-10.6618
 20
-2.26624
 11
-10.7658
 21
-1.70514
  0
LINE
  8
0
 10
-10.7658
 20
-1.70514
 11
-10.775
 21
-1.63528
  0
ENDSEC
  0
SECTION
  2
OBJECTS
  0
DICTIONARY
  0
ENDSEC
  0
EOF
