<?xml version="1.0" standalone="no"?>
<!DOCTYPE svg PUBLIC "-//W3C//DTD SVG 1.1//EN" "http://www.w3.org/Graphics/SVG/1.1/DTD/svg11.dtd">
<svg width="18" height="20" viewBox="-9 -10 18 20" xmlns="http://www.w3.org/2000/svg" version="1.1">
<title>OpenSCAD Model</title>
<path d="
M -8.4,9.75 L -7.85782,9.75 L -7.62809,9.52815 L -7.01854,9.01668 L -6.3748,8.54897 L -5.7,8.12731
 L -4.99743,7.75375 L -4.27051,7.4301 L -3.52279,7.15796 L -2.75791,6.93863 L -1.97959,6.77319 L -1.19162,6.66245
 L -0.397854,6.60695 L 0.397854,6.60695 L 1.19162,6.66245 L 1.97959,6.77319 L 2.75791,6.93863 L 3.52279,7.15796
 L 4.27051,7.4301 L 4.99743,7.75375 L 5.7,8.12731 L 6.3748,8.54897 L 7.01854,9.01668 L 7.62809,9.52815
 L 7.85782,9.75 L 8.4,9.75 L 8.4,-9.75 L 7.85782,-9.75 L 7.62809,-9.52815 L 7.01854,-9.01668
 L 6.3748,-8.54897 L 5.7,-8.12731 L 4.99743,-7.75375 L 4.27051,-7.4301 L 3.52279,-7.15796 L 2.75791,-6.93863
 L 1.97959,-6.77319 L 1.19162,-6.66245 L 0.397854,-6.60695 L -0.397854,-6.60695 L -1.19162,-6.66245 L -1.97959,-6.77319
 L -2.75791,-6.93863 L -3.52279,-7.15796 L -4.27051,-7.4301 L -4.99743,-7.75375 L -5.7,-8.12731 L -6.3748,-8.54897
 L -7.01854,-9.01668 L -7.62809,-9.52815 L -7.85782,-9.75 L -8.4,-9.75 z
M -3.273,0.114295 L -3.273,-0.114295 L -3.25706,-0.34233 L -3.22524,-0.568697 L -3.17772,-0.792294 L -3.11471,-1.01203
 L -3.03653,-1.22684 L -2.94355,-1.43567 L -2.83623,-1.6375 L -2.7151,-1.83136 L -2.58074,-2.01629 L -2.4338,-2.1914
 L -2.27501,-2.35584 L -2.10513,-2.50879 L -1.925,-2.64953 L -1.73549,-2.77736 L -1.53752,-2.89165 L -1.33206,-2.99186
 L -1.12012,-3.07749 L -0.902712,-3.14813 L -0.68091,-3.20343 L -0.455791,-3.24313 L -0.228452,-3.26702 L 0,-3.275
 L 0.228452,-3.26702 L 0.455791,-3.24313 L 0.68091,-3.20343 L 0.902712,-3.14813 L 1.12012,-3.07749 L 1.33206,-2.99186
 L 1.53752,-2.89165 L 1.73549,-2.77736 L 1.925,-2.64953 L 2.10513,-2.50879 L 2.27501,-2.35584 L 2.4338,-2.1914
 L 2.58074,-2.01629 L 2.7151,-1.83136 L 2.83623,-1.6375 L 2.94355,-1.43567 L 3.03653,-1.22684 L 3.11471,-1.01203
 L 3.17772,-0.792294 L 3.22524,-0.568697 L 3.25706,-0.34233 L 3.273,-0.114295 L 3.273,0.114295 L 3.25706,0.34233
 L 3.22524,0.568697 L 3.17772,0.792294 L 3.11471,1.01203 L 3.03653,1.22684 L 2.94355,1.43567 L 2.83623,1.6375
 L 2.7151,1.83136 L 2.58074,2.01629 L 2.4338,2.1914 L 2.27501,2.35584 L 2.10513,2.50879 L 1.925,2.64953
 L 1.73549,2.77736 L 1.53752,2.89165 L 1.33206,2.99186 L 1.12012,3.07749 L 0.902712,3.14813 L 0.68091,3.20343
 L 0.455791,3.24313 L 0.228452,3.26702 L 0,3.275 L -0.228452,3.26702 L -0.455791,3.24313 L -0.68091,3.20343
 L -0.902712,3.14813 L -1.12012,3.07749 L -1.33206,2.99186 L -1.53752,2.89165 L -1.73549,2.77736 L -1.925,2.64953
 L -2.10513,2.50879 L -2.27501,2.35584 L -2.4338,2.1914 L -2.58074,2.01629 L -2.7151,1.83136 L -2.83623,1.6375
 L -2.94355,1.43567 L -3.03653,1.22684 L -3.11471,1.01203 L -3.17772,0.792294 L -3.22524,0.568697 L -3.25706,0.34233
 z
" stroke="black" fill="lightgray" stroke-width="0.5"/></svg>
