<?xml version="1.0" standalone="no"?>
<!DOCTYPE svg PUBLIC "-//W3C//DTD SVG 1.1//EN" "http://www.w3.org/Graphics/SVG/1.1/DTD/svg11.dtd">
<svg width="16" height="16" viewBox="-8 -8 16 16" xmlns="http://www.w3.org/2000/svg" version="1.1">
<title>OpenSCAD Model</title>
<path d="
M -7.5,-0 L -7.48173,0.523173 L -7.42701,1.0438 L -7.33611,1.55934 L -7.20946,2.06728 L -7.04769,2.56515
 L -6.85159,3.05052 L -6.62211,3.52104 L -6.36036,3.97439 L -6.06763,4.40839 L -5.74533,4.82091 L -5.39505,5.20994
 L -5.01848,5.57359 L -4.61746,5.91008 L -4.19395,6.21778 L -3.75,6.49519 L -3.28778,6.74095 L -2.80955,6.95388
 L -2.31763,7.13292 L -1.81441,7.27722 L -1.30236,7.38606 L -0.783963,7.45891 L -0.261745,7.49543 L 0.261745,7.49543
 L 0.783963,7.45891 L 1.30236,7.38606 L 1.81441,7.27722 L 2.31763,7.13292 L 2.80955,6.95388 L 3.28778,6.74095
 L 3.75,6.49519 L 4.19395,6.21778 L 4.61746,5.91008 L 5.01848,5.57359 L 5.39505,5.20994 L 5.74533,4.82091
 L 6.06763,4.40839 L 6.36036,3.97439 L 6.62211,3.52104 L 6.85159,3.05052 L 7.04769,2.56515 L 7.20946,2.06728
 L 7.33611,1.55934 L 7.42701,1.0438 L 7.48173,0.523173 L 7.5,-0 L 7.48173,-0.523173 L 7.42701,-1.0438
 L 7.33611,-1.55934 L 7.20946,-2.06728 L 7.04769,-2.56515 L 6.85159,-3.05052 L 6.62211,-3.52104 L 6.36036,-3.97439
 L 6.06763,-4.40839 L 5.74533,-4.82091 L 5.39505,-5.20994 L 5.01848,-5.57359 L 4.61746,-5.91008 L 4.19395,-6.21778
 L 3.75,-6.49519 L 3.28778,-6.74095 L 2.80955,-6.95388 L 2.31763,-7.13292 L 1.81441,-7.27722 L 1.30236,-7.38606
 L 0.783963,-7.45891 L 0.261745,-7.49543 L -0.261745,-7.49543 L -0.783963,-7.45891 L -1.30236,-7.38606 L -1.81441,-7.27722
 L -2.31763,-7.13292 L -2.80955,-6.95388 L -3.28778,-6.74095 L -3.75,-6.49519 L -4.19395,-6.21778 L -4.61746,-5.91008
 L -5.01848,-5.57359 L -5.39505,-5.20994 L -5.74533,-4.82091 L -6.06763,-4.40839 L -6.36036,-3.97439 L -6.62211,-3.52104
 L -6.85159,-3.05052 L -7.04769,-2.56515 L -7.20946,-2.06728 L -7.33611,-1.55934 L -7.42701,-1.0438 L -7.48173,-0.523173
 z
M -4.1,-0 L -4.09001,-0.286001 L -4.0601,-0.570609 L -4.0104,-0.852437 L -3.94117,-1.13011 L -3.85274,-1.40228
 L -3.74554,-1.66762 L -3.62008,-1.92483 L -3.477,-2.17267 L -3.31697,-2.40992 L -3.14078,-2.63543 L -2.94929,-2.8481
 L -2.74343,-3.04689 L -2.52421,-3.23084 L -2.29269,-3.39905 L -2.05,-3.5507 L -1.79732,-3.68505 L -1.53589,-3.80145
 L -1.26697,-3.89933 L -0.991879,-3.97821 L -0.711957,-4.03771 L -0.428566,-4.07754 L -0.143087,-4.0975 L 0.143087,-4.0975
 L 0.428566,-4.07754 L 0.711957,-4.03771 L 0.991879,-3.97821 L 1.26697,-3.89933 L 1.53589,-3.80145 L 1.79732,-3.68505
 L 2.05,-3.5507 L 2.29269,-3.39905 L 2.52421,-3.23084 L 2.74343,-3.04689 L 2.94929,-2.8481 L 3.14078,-2.63543
 L 3.31697,-2.40992 L 3.477,-2.17267 L 3.62008,-1.92483 L 3.74554,-1.66762 L 3.85274,-1.40228 L 3.94117,-1.13011
 L 4.0104,-0.852437 L 4.0601,-0.570609 L 4.09001,-0.286001 L 4.1,-0 L 4.09001,0.286001 L 4.0601,0.570609
 L 4.0104,0.852437 L 3.94117,1.13011 L 3.85274,1.40228 L 3.74554,1.66762 L 3.62008,1.92483 L 3.477,2.17267
 L 3.31697,2.40992 L 3.14078,2.63543 L 2.94929,2.8481 L 2.74343,3.04689 L 2.52421,3.23084 L 2.29269,3.39905
 L 2.05,3.5507 L 1.79732,3.68505 L 1.53589,3.80145 L 1.26697,3.89933 L 0.991879,3.97821 L 0.711957,4.03771
 L 0.428566,4.07754 L 0.143087,4.0975 L -0.143087,4.0975 L -0.428566,4.07754 L -0.711957,4.03771 L -0.991879,3.97821
 L -1.26697,3.89933 L -1.53589,3.80145 L -1.79732,3.68505 L -2.05,3.5507 L -2.29269,3.39905 L -2.52421,3.23084
 L -2.74343,3.04689 L -2.94929,2.8481 L -3.14078,2.63543 L -3.31697,2.40992 L -3.477,2.17267 L -3.62008,1.92483
 L -3.74554,1.66762 L -3.85274,1.40228 L -3.94117,1.13011 L -4.0104,0.852437 L -4.0601,0.570609 L -4.09001,0.286001
 z
" stroke="black" fill="lightgray" stroke-width="0.5"/></svg>
