  0
SECTION
  2
BLOCKS
  0
ENDSEC
  0
SECTION
  2
ENTITIES
  0
LINE
  8
0
 10
87.1387
 20
-98.7136
 11
90.5
 21
-97.217
  0
LINE
  8
0
 10
90.5
 20
-97.217
 11
93.4767
 21
-95.0544
  0
LINE
  8
0
 10
93.4767
 20
-95.0544
 11
95.9387
 21
-92.32
  0
LINE
  8
0
 10
95.9387
 20
-92.32
 11
97.7784
 21
-89.1336
  0
LINE
  8
0
 10
97.7784
 20
-89.1336
 11
98.9154
 21
-85.6342
  0
LINE
  8
0
 10
98.9154
 20
-85.6342
 11
99.3
 21
-81.975
  0
LINE
  8
0
 10
99.3
 20
-81.975
 11
99.3
 21
32.225
  0
LINE
  8
0
 10
99.3
 20
32.225
 11
98.9154
 21
35.8842
  0
LINE
  8
0
 10
98.9154
 20
35.8842
 11
97.7784
 21
39.3836
  0
LINE
  8
0
 10
97.7784
 20
39.3836
 11
19.0322
 21
187.874
  0
LINE
  8
0
 10
19.0322
 20
187.874
 11
16.8545
 21
191.646
  0
LINE
  8
0
 10
16.8545
 20
191.646
 11
13.9402
 21
194.882
  0
LINE
  8
0
 10
13.9402
 20
194.882
 11
10.4167
 21
197.442
  0
LINE
  8
0
 10
10.4167
 20
197.442
 11
6.43785
 21
199.214
  0
LINE
  8
0
 10
6.43785
 20
199.214
 11
2.17767
 21
200.119
  0
LINE
  8
0
 10
2.17767
 20
200.119
 11
-2.17767
 21
200.119
  0
LINE
  8
0
 10
-2.17767
 20
200.119
 11
-6.43785
 21
199.214
  0
LINE
  8
0
 10
-6.43785
 20
199.214
 11
-10.4167
 21
197.442
  0
LINE
  8
0
 10
-10.4167
 20
197.442
 11
-13.9402
 21
194.882
  0
LINE
  8
0
 10
-13.9402
 20
194.882
 11
-16.8545
 21
191.646
  0
LINE
  8
0
 10
-16.8545
 20
191.646
 11
-19.0322
 21
187.874
  0
LINE
  8
0
 10
-19.0322
 20
187.874
 11
-97.7784
 21
39.3836
  0
LINE
  8
0
 10
-97.7784
 20
39.3836
 11
-98.9154
 21
35.8842
  0
LINE
  8
0
 10
-98.9154
 20
35.8842
 11
-99.3
 21
32.225
  0
LINE
  8
0
 10
-99.3
 20
32.225
 11
-99.3
 21
-81.975
  0
LINE
  8
0
 10
-99.3
 20
-81.975
 11
-98.9154
 21
-85.6342
  0
LINE
  8
0
 10
-98.9154
 20
-85.6342
 11
-97.7784
 21
-89.1336
  0
LINE
  8
0
 10
-97.7784
 20
-89.1336
 11
-95.9387
 21
-92.32
  0
LINE
  8
0
 10
-95.9387
 20
-92.32
 11
-93.4767
 21
-95.0544
  0
LINE
  8
0
 10
-93.4767
 20
-95.0544
 11
-90.5
 21
-97.217
  0
LINE
  8
0
 10
-90.5
 20
-97.217
 11
-87.1387
 21
-98.7136
  0
LINE
  8
0
 10
-87.1387
 20
-98.7136
 11
-83.5397
 21
-99.4786
  0
LINE
  8
0
 10
-83.5397
 20
-99.4786
 11
83.5397
 21
-99.4786
  0
LINE
  8
0
 10
83.5397
 20
-99.4786
 11
87.1387
 21
-98.7136
  0
LINE
  8
0
 10
-0.412872
 20
175.472
 11
-1.22061
 21
175.643
  0
LINE
  8
0
 10
-1.22061
 20
175.643
 11
-1.97499
 21
175.979
  0
LINE
  8
0
 10
-1.97499
 20
175.979
 11
-2.64305
 21
176.465
  0
LINE
  8
0
 10
-2.64305
 20
176.465
 11
-3.1956
 21
177.078
  0
LINE
  8
0
 10
-3.1956
 20
177.078
 11
-3.60849
 21
177.793
  0
LINE
  8
0
 10
-3.60849
 20
177.793
 11
-3.86368
 21
178.579
  0
LINE
  8
0
 10
-3.86368
 20
178.579
 11
-3.95
 21
179.4
  0
LINE
  8
0
 10
-3.95
 20
179.4
 11
-3.86368
 21
180.221
  0
LINE
  8
0
 10
-3.86368
 20
180.221
 11
-3.60849
 21
181.007
  0
LINE
  8
0
 10
-3.60849
 20
181.007
 11
-3.1956
 21
181.722
  0
LINE
  8
0
 10
-3.1956
 20
181.722
 11
-2.64305
 21
182.335
  0
LINE
  8
0
 10
-2.64305
 20
182.335
 11
-1.97499
 21
182.821
  0
LINE
  8
0
 10
-1.97499
 20
182.821
 11
-1.22061
 21
183.157
  0
LINE
  8
0
 10
-1.22061
 20
183.157
 11
-0.412872
 21
183.328
  0
LINE
  8
0
 10
-0.412872
 20
183.328
 11
0.412872
 21
183.328
  0
LINE
  8
0
 10
0.412872
 20
183.328
 11
1.22061
 21
183.157
  0
LINE
  8
0
 10
1.22061
 20
183.157
 11
1.97499
 21
182.821
  0
LINE
  8
0
 10
1.97499
 20
182.821
 11
2.64305
 21
182.335
  0
LINE
  8
0
 10
2.64305
 20
182.335
 11
3.1956
 21
181.722
  0
LINE
  8
0
 10
3.1956
 20
181.722
 11
3.60849
 21
181.007
  0
LINE
  8
0
 10
3.60849
 20
181.007
 11
3.86368
 21
180.221
  0
LINE
  8
0
 10
3.86368
 20
180.221
 11
3.95
 21
179.4
  0
LINE
  8
0
 10
3.95
 20
179.4
 11
3.86368
 21
178.579
  0
LINE
  8
0
 10
3.86368
 20
178.579
 11
3.60849
 21
177.793
  0
LINE
  8
0
 10
3.60849
 20
177.793
 11
3.1956
 21
177.078
  0
LINE
  8
0
 10
3.1956
 20
177.078
 11
2.64305
 21
176.465
  0
LINE
  8
0
 10
2.64305
 20
176.465
 11
1.97499
 21
175.979
  0
LINE
  8
0
 10
1.97499
 20
175.979
 11
1.22061
 21
175.643
  0
LINE
  8
0
 10
1.22061
 20
175.643
 11
0.412872
 21
175.472
  0
LINE
  8
0
 10
0.412872
 20
175.472
 11
-0.412872
 21
175.472
  0
LINE
  8
0
 10
-2.14282
 20
87.1373
 11
-4.26218
 21
87.473
  0
LINE
  8
0
 10
-4.26218
 20
87.473
 11
-6.33484
 21
88.0283
  0
LINE
  8
0
 10
-6.33484
 20
88.0283
 11
-8.33809
 21
88.7973
  0
LINE
  8
0
 10
-8.33809
 20
88.7973
 11
-10.25
 21
89.7715
  0
LINE
  8
0
 10
-10.25
 20
89.7715
 11
-12.0496
 21
90.9402
  0
LINE
  8
0
 10
-12.0496
 20
90.9402
 11
-13.7172
 21
92.2905
  0
LINE
  8
0
 10
-13.7172
 20
92.2905
 11
-15.2345
 21
93.8078
  0
LINE
  8
0
 10
-15.2345
 20
93.8078
 11
-16.5848
 21
95.4754
  0
LINE
  8
0
 10
-16.5848
 20
95.4754
 11
-17.7535
 21
97.275
  0
LINE
  8
0
 10
-17.7535
 20
97.275
 11
-18.7277
 21
99.1869
  0
LINE
  8
0
 10
-18.7277
 20
99.1869
 11
-19.4967
 21
101.19
  0
LINE
  8
0
 10
-19.4967
 20
101.19
 11
-20.052
 21
103.263
  0
LINE
  8
0
 10
-20.052
 20
103.263
 11
-20.3877
 21
105.382
  0
LINE
  8
0
 10
-20.3877
 20
105.382
 11
-20.5
 21
107.525
  0
LINE
  8
0
 10
-20.5
 20
107.525
 11
-20.3877
 21
109.668
  0
LINE
  8
0
 10
-20.3877
 20
109.668
 11
-20.052
 21
111.787
  0
LINE
  8
0
 10
-20.052
 20
111.787
 11
-19.4967
 21
113.86
  0
LINE
  8
0
 10
-19.4967
 20
113.86
 11
-18.7277
 21
115.863
  0
LINE
  8
0
 10
-18.7277
 20
115.863
 11
-17.7535
 21
117.775
  0
LINE
  8
0
 10
-17.7535
 20
117.775
 11
-16.5848
 21
119.575
  0
LINE
  8
0
 10
-16.5848
 20
119.575
 11
-15.2345
 21
121.242
  0
LINE
  8
0
 10
-15.2345
 20
121.242
 11
-13.7172
 21
122.759
  0
LINE
  8
0
 10
-13.7172
 20
122.759
 11
-12.0496
 21
124.11
  0
LINE
  8
0
 10
-12.0496
 20
124.11
 11
-10.25
 21
125.279
  0
LINE
  8
0
 10
-10.25
 20
125.279
 11
-8.33809
 21
126.253
  0
LINE
  8
0
 10
-8.33809
 20
126.253
 11
-6.33484
 21
127.022
  0
LINE
  8
0
 10
-6.33484
 20
127.022
 11
-4.26218
 21
127.577
  0
LINE
  8
0
 10
-4.26218
 20
127.577
 11
-2.14282
 21
127.913
  0
LINE
  8
0
 10
-2.14282
 20
127.913
 11
0
 21
128.025
  0
LINE
  8
0
 10
0
 20
128.025
 11
2.14282
 21
127.913
  0
LINE
  8
0
 10
2.14282
 20
127.913
 11
4.26218
 21
127.577
  0
LINE
  8
0
 10
4.26218
 20
127.577
 11
6.33484
 21
127.022
  0
LINE
  8
0
 10
6.33484
 20
127.022
 11
8.33809
 21
126.253
  0
LINE
  8
0
 10
8.33809
 20
126.253
 11
10.25
 21
125.279
  0
LINE
  8
0
 10
10.25
 20
125.279
 11
12.0496
 21
124.11
  0
LINE
  8
0
 10
12.0496
 20
124.11
 11
13.7172
 21
122.759
  0
LINE
  8
0
 10
13.7172
 20
122.759
 11
15.2345
 21
121.242
  0
LINE
  8
0
 10
15.2345
 20
121.242
 11
16.5848
 21
119.575
  0
LINE
  8
0
 10
16.5848
 20
119.575
 11
17.7535
 21
117.775
  0
LINE
  8
0
 10
17.7535
 20
117.775
 11
18.7277
 21
115.863
  0
LINE
  8
0
 10
18.7277
 20
115.863
 11
19.4967
 21
113.86
  0
LINE
  8
0
 10
19.4967
 20
113.86
 11
20.052
 21
111.787
  0
LINE
  8
0
 10
20.052
 20
111.787
 11
20.3877
 21
109.668
  0
LINE
  8
0
 10
20.3877
 20
109.668
 11
20.5
 21
107.525
  0
LINE
  8
0
 10
20.5
 20
107.525
 11
20.3877
 21
105.382
  0
LINE
  8
0
 10
20.3877
 20
105.382
 11
20.052
 21
103.263
  0
LINE
  8
0
 10
20.052
 20
103.263
 11
19.4967
 21
101.19
  0
LINE
  8
0
 10
19.4967
 20
101.19
 11
18.7277
 21
99.1869
  0
LINE
  8
0
 10
18.7277
 20
99.1869
 11
17.7535
 21
97.275
  0
LINE
  8
0
 10
17.7535
 20
97.275
 11
16.5848
 21
95.4754
  0
LINE
  8
0
 10
16.5848
 20
95.4754
 11
15.2345
 21
93.8078
  0
LINE
  8
0
 10
15.2345
 20
93.8078
 11
13.7172
 21
92.2905
  0
LINE
  8
0
 10
13.7172
 20
92.2905
 11
12.0496
 21
90.9402
  0
LINE
  8
0
 10
12.0496
 20
90.9402
 11
10.25
 21
89.7715
  0
LINE
  8
0
 10
10.25
 20
89.7715
 11
8.33809
 21
88.7973
  0
LINE
  8
0
 10
8.33809
 20
88.7973
 11
6.33484
 21
88.0283
  0
LINE
  8
0
 10
6.33484
 20
88.0283
 11
4.26218
 21
87.473
  0
LINE
  8
0
 10
4.26218
 20
87.473
 11
2.14282
 21
87.1373
  0
LINE
  8
0
 10
2.14282
 20
87.1373
 11
0
 21
87.025
  0
LINE
  8
0
 10
0
 20
87.025
 11
-2.14282
 21
87.1373
  0
LINE
  8
0
 10
2.99574
 20
67.9283
 11
3.20218
 21
68.2859
  0
LINE
  8
0
 10
3.20218
 20
68.2859
 11
3.47845
 21
68.5927
  0
LINE
  8
0
 10
3.47845
 20
68.5927
 11
3.8125
 21
68.8354
  0
LINE
  8
0
 10
3.8125
 20
68.8354
 11
4.18968
 21
69.0033
  0
LINE
  8
0
 10
4.18968
 20
69.0033
 11
4.59355
 21
69.0892
  0
LINE
  8
0
 10
4.59355
 20
69.0892
 11
5.00644
 21
69.0892
  0
LINE
  8
0
 10
5.00644
 20
69.0892
 11
5.41029
 21
69.0033
  0
LINE
  8
0
 10
5.41029
 20
69.0033
 11
5.78749
 21
68.8354
  0
LINE
  8
0
 10
5.78749
 20
68.8354
 11
6.12152
 21
68.5927
  0
LINE
  8
0
 10
6.12152
 20
68.5927
 11
6.3978
 21
68.2859
  0
LINE
  8
0
 10
6.3978
 20
68.2859
 11
6.60425
 21
67.9283
  0
LINE
  8
0
 10
6.60425
 20
67.9283
 11
6.73183
 21
67.5356
  0
LINE
  8
0
 10
6.73183
 20
67.5356
 11
6.77499
 21
67.125
  0
LINE
  8
0
 10
6.77499
 20
67.125
 11
6.73183
 21
66.7144
  0
LINE
  8
0
 10
6.73183
 20
66.7144
 11
6.60425
 21
66.3217
  0
LINE
  8
0
 10
6.60425
 20
66.3217
 11
6.3978
 21
65.9641
  0
LINE
  8
0
 10
6.3978
 20
65.9641
 11
6.12152
 21
65.6573
  0
LINE
  8
0
 10
6.12152
 20
65.6573
 11
5.78749
 21
65.4146
  0
LINE
  8
0
 10
5.78749
 20
65.4146
 11
5.41029
 21
65.2467
  0
LINE
  8
0
 10
5.41029
 20
65.2467
 11
5.00644
 21
65.1608
  0
LINE
  8
0
 10
5.00644
 20
65.1608
 11
4.59355
 21
65.1608
  0
LINE
  8
0
 10
4.59355
 20
65.1608
 11
4.18968
 21
65.2467
  0
LINE
  8
0
 10
4.18968
 20
65.2467
 11
3.8125
 21
65.4146
  0
LINE
  8
0
 10
3.8125
 20
65.4146
 11
3.47845
 21
65.6573
  0
LINE
  8
0
 10
3.47845
 20
65.6573
 11
3.20218
 21
65.9641
  0
LINE
  8
0
 10
3.20218
 20
65.9641
 11
2.99574
 21
66.3217
  0
LINE
  8
0
 10
2.99574
 20
66.3217
 11
2.86815
 21
66.7144
  0
LINE
  8
0
 10
2.86815
 20
66.7144
 11
2.825
 21
67.125
  0
LINE
  8
0
 10
2.825
 20
67.125
 11
2.86815
 21
67.5356
  0
LINE
  8
0
 10
2.86815
 20
67.5356
 11
2.99574
 21
67.9283
  0
LINE
  8
0
 10
-0.516098
 20
52.6145
 11
-1.52576
 21
52.8291
  0
LINE
  8
0
 10
-1.52576
 20
52.8291
 11
-2.46875
 21
53.249
  0
LINE
  8
0
 10
-2.46875
 20
53.249
 11
-3.30382
 21
53.8557
  0
LINE
  8
0
 10
-3.30382
 20
53.8557
 11
-3.99451
 21
54.6228
  0
LINE
  8
0
 10
-3.99451
 20
54.6228
 11
-4.51062
 21
55.5167
  0
LINE
  8
0
 10
-4.51062
 20
55.5167
 11
-4.82959
 21
56.4984
  0
LINE
  8
0
 10
-4.82959
 20
56.4984
 11
-4.9375
 21
57.525
  0
LINE
  8
0
 10
-4.9375
 20
57.525
 11
-4.82959
 21
58.5516
  0
LINE
  8
0
 10
-4.82959
 20
58.5516
 11
-4.51062
 21
59.5332
  0
LINE
  8
0
 10
-4.51062
 20
59.5332
 11
-3.99451
 21
60.4272
  0
LINE
  8
0
 10
-3.99451
 20
60.4272
 11
-3.30382
 21
61.1943
  0
LINE
  8
0
 10
-3.30382
 20
61.1943
 11
-2.46873
 21
61.801
  0
LINE
  8
0
 10
-2.46873
 20
61.801
 11
-1.52576
 21
62.2208
  0
LINE
  8
0
 10
-1.52576
 20
62.2208
 11
-0.516098
 21
62.4354
  0
LINE
  8
0
 10
-0.516098
 20
62.4354
 11
0.516098
 21
62.4354
  0
LINE
  8
0
 10
0.516098
 20
62.4354
 11
1.52576
 21
62.2208
  0
LINE
  8
0
 10
1.52576
 20
62.2208
 11
2.46875
 21
61.801
  0
LINE
  8
0
 10
2.46875
 20
61.801
 11
3.30382
 21
61.1943
  0
LINE
  8
0
 10
3.30382
 20
61.1943
 11
3.99451
 21
60.4272
  0
LINE
  8
0
 10
3.99451
 20
60.4272
 11
4.51062
 21
59.5332
  0
LINE
  8
0
 10
4.51062
 20
59.5332
 11
4.82959
 21
58.5516
  0
LINE
  8
0
 10
4.82959
 20
58.5516
 11
4.9375
 21
57.525
  0
LINE
  8
0
 10
4.9375
 20
57.525
 11
4.82959
 21
56.4984
  0
LINE
  8
0
 10
4.82959
 20
56.4984
 11
4.51062
 21
55.5167
  0
LINE
  8
0
 10
4.51062
 20
55.5167
 11
3.99451
 21
54.6228
  0
LINE
  8
0
 10
3.99451
 20
54.6228
 11
3.30382
 21
53.8557
  0
LINE
  8
0
 10
3.30382
 20
53.8557
 11
2.46875
 21
53.249
  0
LINE
  8
0
 10
2.46875
 20
53.249
 11
1.52576
 21
52.8291
  0
LINE
  8
0
 10
1.52576
 20
52.8291
 11
0.516098
 21
52.6145
  0
LINE
  8
0
 10
0.516098
 20
52.6145
 11
-0.516098
 21
52.6145
  0
LINE
  8
0
 10
71.6871
 20
28.2966
 11
70.8794
 21
28.4683
  0
LINE
  8
0
 10
70.8794
 20
28.4683
 11
70.125
 21
28.8042
  0
LINE
  8
0
 10
70.125
 20
28.8042
 11
69.4569
 21
29.2896
  0
LINE
  8
0
 10
69.4569
 20
29.2896
 11
68.9044
 21
29.9032
  0
LINE
  8
0
 10
68.9044
 20
29.9032
 11
68.4915
 21
30.6184
  0
LINE
  8
0
 10
68.4915
 20
30.6184
 11
68.2363
 21
31.4037
  0
LINE
  8
0
 10
68.2363
 20
31.4037
 11
68.15
 21
32.225
  0
LINE
  8
0
 10
68.15
 20
32.225
 11
68.2363
 21
33.0462
  0
LINE
  8
0
 10
68.2363
 20
33.0462
 11
68.4915
 21
33.8316
  0
LINE
  8
0
 10
68.4915
 20
33.8316
 11
68.9044
 21
34.5468
  0
LINE
  8
0
 10
68.9044
 20
34.5468
 11
69.4569
 21
35.1604
  0
LINE
  8
0
 10
69.4569
 20
35.1604
 11
70.125
 21
35.6458
  0
LINE
  8
0
 10
70.125
 20
35.6458
 11
70.8794
 21
35.9817
  0
LINE
  8
0
 10
70.8794
 20
35.9817
 11
71.6871
 21
36.1534
  0
LINE
  8
0
 10
71.6871
 20
36.1534
 11
72.5129
 21
36.1534
  0
LINE
  8
0
 10
72.5129
 20
36.1534
 11
73.3206
 21
35.9817
  0
LINE
  8
0
 10
73.3206
 20
35.9817
 11
74.075
 21
35.6458
  0
LINE
  8
0
 10
74.075
 20
35.6458
 11
74.7431
 21
35.1604
  0
LINE
  8
0
 10
74.7431
 20
35.1604
 11
75.2956
 21
34.5468
  0
LINE
  8
0
 10
75.2956
 20
34.5468
 11
75.7085
 21
33.8316
  0
LINE
  8
0
 10
75.7085
 20
33.8316
 11
75.9637
 21
33.0462
  0
LINE
  8
0
 10
75.9637
 20
33.0462
 11
76.05
 21
32.225
  0
LINE
  8
0
 10
76.05
 20
32.225
 11
75.9637
 21
31.4037
  0
LINE
  8
0
 10
75.9637
 20
31.4037
 11
75.7085
 21
30.6184
  0
LINE
  8
0
 10
75.7085
 20
30.6184
 11
75.2956
 21
29.9032
  0
LINE
  8
0
 10
75.2956
 20
29.9032
 11
74.7431
 21
29.2896
  0
LINE
  8
0
 10
74.7431
 20
29.2896
 11
74.075
 21
28.8042
  0
LINE
  8
0
 10
74.075
 20
28.8042
 11
73.3206
 21
28.4683
  0
LINE
  8
0
 10
73.3206
 20
28.4683
 11
72.5129
 21
28.2966
  0
LINE
  8
0
 10
72.5129
 20
28.2966
 11
71.6871
 21
28.2966
  0
LINE
  8
0
 10
-72.5129
 20
28.2966
 11
-73.3206
 21
28.4683
  0
LINE
  8
0
 10
-73.3206
 20
28.4683
 11
-74.075
 21
28.8042
  0
LINE
  8
0
 10
-74.075
 20
28.8042
 11
-74.7431
 21
29.2896
  0
LINE
  8
0
 10
-74.7431
 20
29.2896
 11
-75.2956
 21
29.9032
  0
LINE
  8
0
 10
-75.2956
 20
29.9032
 11
-75.7085
 21
30.6184
  0
LINE
  8
0
 10
-75.7085
 20
30.6184
 11
-75.9637
 21
31.4037
  0
LINE
  8
0
 10
-75.9637
 20
31.4037
 11
-76.05
 21
32.225
  0
LINE
  8
0
 10
-76.05
 20
32.225
 11
-75.9637
 21
33.0462
  0
LINE
  8
0
 10
-75.9637
 20
33.0462
 11
-75.7085
 21
33.8316
  0
LINE
  8
0
 10
-75.7085
 20
33.8316
 11
-75.2956
 21
34.5468
  0
LINE
  8
0
 10
-75.2956
 20
34.5468
 11
-74.7431
 21
35.1604
  0
LINE
  8
0
 10
-74.7431
 20
35.1604
 11
-74.075
 21
35.6458
  0
LINE
  8
0
 10
-74.075
 20
35.6458
 11
-73.3206
 21
35.9817
  0
LINE
  8
0
 10
-73.3206
 20
35.9817
 11
-72.5129
 21
36.1534
  0
LINE
  8
0
 10
-72.5129
 20
36.1534
 11
-71.6871
 21
36.1534
  0
LINE
  8
0
 10
-71.6871
 20
36.1534
 11
-70.8794
 21
35.9817
  0
LINE
  8
0
 10
-70.8794
 20
35.9817
 11
-70.125
 21
35.6458
  0
LINE
  8
0
 10
-70.125
 20
35.6458
 11
-69.4569
 21
35.1604
  0
LINE
  8
0
 10
-69.4569
 20
35.1604
 11
-68.9044
 21
34.5468
  0
LINE
  8
0
 10
-68.9044
 20
34.5468
 11
-68.4915
 21
33.8316
  0
LINE
  8
0
 10
-68.4915
 20
33.8316
 11
-68.2363
 21
33.0462
  0
LINE
  8
0
 10
-68.2363
 20
33.0462
 11
-68.15
 21
32.225
  0
LINE
  8
0
 10
-68.15
 20
32.225
 11
-68.2363
 21
31.4037
  0
LINE
  8
0
 10
-68.2363
 20
31.4037
 11
-68.4915
 21
30.6184
  0
LINE
  8
0
 10
-68.4915
 20
30.6184
 11
-68.9044
 21
29.9032
  0
LINE
  8
0
 10
-68.9044
 20
29.9032
 11
-69.4569
 21
29.2896
  0
LINE
  8
0
 10
-69.4569
 20
29.2896
 11
-70.125
 21
28.8042
  0
LINE
  8
0
 10
-70.125
 20
28.8042
 11
-70.8794
 21
28.4683
  0
LINE
  8
0
 10
-70.8794
 20
28.4683
 11
-71.6871
 21
28.2966
  0
LINE
  8
0
 10
-71.6871
 20
28.2966
 11
-72.5129
 21
28.2966
  0
LINE
  8
0
 10
-72.5129
 20
-85.9034
 11
-73.3206
 21
-85.7317
  0
LINE
  8
0
 10
-73.3206
 20
-85.7317
 11
-74.075
 21
-85.3958
  0
LINE
  8
0
 10
-74.075
 20
-85.3958
 11
-74.7431
 21
-84.9104
  0
LINE
  8
0
 10
-74.7431
 20
-84.9104
 11
-75.2956
 21
-84.2968
  0
LINE
  8
0
 10
-75.2956
 20
-84.2968
 11
-75.7085
 21
-83.5816
  0
LINE
  8
0
 10
-75.7085
 20
-83.5816
 11
-75.9637
 21
-82.7962
  0
LINE
  8
0
 10
-75.9637
 20
-82.7962
 11
-76.05
 21
-81.975
  0
LINE
  8
0
 10
-76.05
 20
-81.975
 11
-75.9637
 21
-81.1537
  0
LINE
  8
0
 10
-75.9637
 20
-81.1537
 11
-75.7085
 21
-80.3684
  0
LINE
  8
0
 10
-75.7085
 20
-80.3684
 11
-75.2956
 21
-79.6532
  0
LINE
  8
0
 10
-75.2956
 20
-79.6532
 11
-74.7431
 21
-79.0396
  0
LINE
  8
0
 10
-74.7431
 20
-79.0396
 11
-74.075
 21
-78.5542
  0
LINE
  8
0
 10
-74.075
 20
-78.5542
 11
-73.3206
 21
-78.2183
  0
LINE
  8
0
 10
-73.3206
 20
-78.2183
 11
-72.5129
 21
-78.0466
  0
LINE
  8
0
 10
-72.5129
 20
-78.0466
 11
-71.6871
 21
-78.0466
  0
LINE
  8
0
 10
-71.6871
 20
-78.0466
 11
-70.8794
 21
-78.2183
  0
LINE
  8
0
 10
-70.8794
 20
-78.2183
 11
-70.125
 21
-78.5542
  0
LINE
  8
0
 10
-70.125
 20
-78.5542
 11
-69.4569
 21
-79.0396
  0
LINE
  8
0
 10
-69.4569
 20
-79.0396
 11
-68.9044
 21
-79.6532
  0
LINE
  8
0
 10
-68.9044
 20
-79.6532
 11
-68.4915
 21
-80.3684
  0
LINE
  8
0
 10
-68.4915
 20
-80.3684
 11
-68.2363
 21
-81.1537
  0
LINE
  8
0
 10
-68.2363
 20
-81.1537
 11
-68.15
 21
-81.975
  0
LINE
  8
0
 10
-68.15
 20
-81.975
 11
-68.2363
 21
-82.7962
  0
LINE
  8
0
 10
-68.2363
 20
-82.7962
 11
-68.4915
 21
-83.5816
  0
LINE
  8
0
 10
-68.4915
 20
-83.5816
 11
-68.9044
 21
-84.2968
  0
LINE
  8
0
 10
-68.9044
 20
-84.2968
 11
-69.4569
 21
-84.9104
  0
LINE
  8
0
 10
-69.4569
 20
-84.9104
 11
-70.125
 21
-85.3958
  0
LINE
  8
0
 10
-70.125
 20
-85.3958
 11
-70.8794
 21
-85.7317
  0
LINE
  8
0
 10
-70.8794
 20
-85.7317
 11
-71.6871
 21
-85.9034
  0
LINE
  8
0
 10
-71.6871
 20
-85.9034
 11
-72.5129
 21
-85.9034
  0
LINE
  8
0
 10
71.6871
 20
-85.9034
 11
70.8794
 21
-85.7317
  0
LINE
  8
0
 10
70.8794
 20
-85.7317
 11
70.125
 21
-85.3958
  0
LINE
  8
0
 10
70.125
 20
-85.3958
 11
69.4569
 21
-84.9104
  0
LINE
  8
0
 10
69.4569
 20
-84.9104
 11
68.9044
 21
-84.2968
  0
LINE
  8
0
 10
68.9044
 20
-84.2968
 11
68.4915
 21
-83.5816
  0
LINE
  8
0
 10
68.4915
 20
-83.5816
 11
68.2363
 21
-82.7962
  0
LINE
  8
0
 10
68.2363
 20
-82.7962
 11
68.15
 21
-81.975
  0
LINE
  8
0
 10
68.15
 20
-81.975
 11
68.2363
 21
-81.1537
  0
LINE
  8
0
 10
68.2363
 20
-81.1537
 11
68.4915
 21
-80.3684
  0
LINE
  8
0
 10
68.4915
 20
-80.3684
 11
68.9044
 21
-79.6532
  0
LINE
  8
0
 10
68.9044
 20
-79.6532
 11
69.4569
 21
-79.0396
  0
LINE
  8
0
 10
69.4569
 20
-79.0396
 11
70.125
 21
-78.5542
  0
LINE
  8
0
 10
70.125
 20
-78.5542
 11
70.8794
 21
-78.2183
  0
LINE
  8
0
 10
70.8794
 20
-78.2183
 11
71.6871
 21
-78.0466
  0
LINE
  8
0
 10
71.6871
 20
-78.0466
 11
72.5129
 21
-78.0466
  0
LINE
  8
0
 10
72.5129
 20
-78.0466
 11
73.3206
 21
-78.2183
  0
LINE
  8
0
 10
73.3206
 20
-78.2183
 11
74.075
 21
-78.5542
  0
LINE
  8
0
 10
74.075
 20
-78.5542
 11
74.7431
 21
-79.0396
  0
LINE
  8
0
 10
74.7431
 20
-79.0396
 11
75.2956
 21
-79.6532
  0
LINE
  8
0
 10
75.2956
 20
-79.6532
 11
75.7085
 21
-80.3684
  0
LINE
  8
0
 10
75.7085
 20
-80.3684
 11
75.9637
 21
-81.1537
  0
LINE
  8
0
 10
75.9637
 20
-81.1537
 11
76.05
 21
-81.975
  0
LINE
  8
0
 10
76.05
 20
-81.975
 11
75.9637
 21
-82.7962
  0
LINE
  8
0
 10
75.9637
 20
-82.7962
 11
75.7085
 21
-83.5816
  0
LINE
  8
0
 10
75.7085
 20
-83.5816
 11
75.2956
 21
-84.2968
  0
LINE
  8
0
 10
75.2956
 20
-84.2968
 11
74.7431
 21
-84.9104
  0
LINE
  8
0
 10
74.7431
 20
-84.9104
 11
74.075
 21
-85.3958
  0
LINE
  8
0
 10
74.075
 20
-85.3958
 11
73.3206
 21
-85.7317
  0
LINE
  8
0
 10
73.3206
 20
-85.7317
 11
72.5129
 21
-85.9034
  0
LINE
  8
0
 10
72.5129
 20
-85.9034
 11
71.6871
 21
-85.9034
  0
LINE
  8
0
 10
-2.99574
 20
66.3217
 11
-3.20218
 21
65.9641
  0
LINE
  8
0
 10
-3.20218
 20
65.9641
 11
-3.47845
 21
65.6573
  0
LINE
  8
0
 10
-3.47845
 20
65.6573
 11
-3.8125
 21
65.4146
  0
LINE
  8
0
 10
-3.8125
 20
65.4146
 11
-4.18968
 21
65.2467
  0
LINE
  8
0
 10
-4.18968
 20
65.2467
 11
-4.59355
 21
65.1608
  0
LINE
  8
0
 10
-4.59355
 20
65.1608
 11
-5.00644
 21
65.1608
  0
LINE
  8
0
 10
-5.00644
 20
65.1608
 11
-5.41029
 21
65.2467
  0
LINE
  8
0
 10
-5.41029
 20
65.2467
 11
-5.78749
 21
65.4146
  0
LINE
  8
0
 10
-5.78749
 20
65.4146
 11
-6.12152
 21
65.6573
  0
LINE
  8
0
 10
-6.12152
 20
65.6573
 11
-6.3978
 21
65.9641
  0
LINE
  8
0
 10
-6.3978
 20
65.9641
 11
-6.60425
 21
66.3217
  0
LINE
  8
0
 10
-6.60425
 20
66.3217
 11
-6.73183
 21
66.7144
  0
LINE
  8
0
 10
-6.73183
 20
66.7144
 11
-6.77499
 21
67.125
  0
LINE
  8
0
 10
-6.77499
 20
67.125
 11
-6.73183
 21
67.5356
  0
LINE
  8
0
 10
-6.73183
 20
67.5356
 11
-6.60425
 21
67.9283
  0
LINE
  8
0
 10
-6.60425
 20
67.9283
 11
-6.3978
 21
68.2859
  0
LINE
  8
0
 10
-6.3978
 20
68.2859
 11
-6.12152
 21
68.5927
  0
LINE
  8
0
 10
-6.12152
 20
68.5927
 11
-5.78749
 21
68.8354
  0
LINE
  8
0
 10
-5.78749
 20
68.8354
 11
-5.41029
 21
69.0033
  0
LINE
  8
0
 10
-5.41029
 20
69.0033
 11
-5.00644
 21
69.0892
  0
LINE
  8
0
 10
-5.00644
 20
69.0892
 11
-4.59355
 21
69.0892
  0
LINE
  8
0
 10
-4.59355
 20
69.0892
 11
-4.18968
 21
69.0033
  0
LINE
  8
0
 10
-4.18968
 20
69.0033
 11
-3.8125
 21
68.8354
  0
LINE
  8
0
 10
-3.8125
 20
68.8354
 11
-3.47845
 21
68.5927
  0
LINE
  8
0
 10
-3.47845
 20
68.5927
 11
-3.20218
 21
68.2859
  0
LINE
  8
0
 10
-3.20218
 20
68.2859
 11
-2.99574
 21
67.9283
  0
LINE
  8
0
 10
-2.99574
 20
67.9283
 11
-2.86815
 21
67.5356
  0
LINE
  8
0
 10
-2.86815
 20
67.5356
 11
-2.825
 21
67.125
  0
LINE
  8
0
 10
-2.825
 20
67.125
 11
-2.86815
 21
66.7144
  0
LINE
  8
0
 10
-2.86815
 20
66.7144
 11
-2.99574
 21
66.3217
  0
ENDSEC
  0
SECTION
  2
OBJECTS
  0
DICTIONARY
  0
ENDSEC
  0
EOF
