<?xml version="1.0" standalone="no"?>
<!DOCTYPE svg PUBLIC "-//W3C//DTD SVG 1.1//EN" "http://www.w3.org/Graphics/SVG/1.1/DTD/svg11.dtd">
<svg width="146" height="144" viewBox="-73 -61 146 144" xmlns="http://www.w3.org/2000/svg" version="1.1">
<title>OpenSCAD Model</title>
<path d="
M -42.6102,-42.0833 L -54.7665,-57.4811 L -55.0113,-57.7677 L -55.2708,-58.0412 L -55.5442,-58.3006 L -55.8309,-58.5454
 L -56.1299,-58.7749 L -56.4406,-58.9884 L -56.762,-59.1854 L -57.0932,-59.3652 L -57.4335,-59.5275 L -57.7817,-59.6718
 L -58.137,-59.7976 L -58.4985,-59.9047 L -58.865,-59.9927 L -59.2356,-60.0614 L -59.6094,-60.1105 L -59.9852,-60.1401
 L -60.362,-60.15 L -60.7388,-60.1401 L -61.1146,-60.1105 L -61.4883,-60.0614 L -61.8589,-59.9927 L -62.2255,-59.9047
 L -62.5869,-59.7976 L -62.9422,-59.6718 L -63.2905,-59.5275 L -63.6307,-59.3652 L -63.962,-59.1854 L -64.2834,-58.9884
 L -64.594,-58.7749 L -64.8931,-58.5454 L -65.1797,-58.3006 L -65.4531,-58.0412 L -65.7126,-57.7677 L -65.9574,-57.4811
 L -66.1869,-57.1821 L -66.4004,-56.8714 L -66.5974,-56.55 L -66.7772,-56.2187 L -66.9395,-55.8785 L -67.0837,-55.5302
 L -67.2096,-55.1749 L -67.3166,-54.8135 L -67.4046,-54.447 L -67.4733,-54.0763 L -67.5225,-53.7026 L -67.5521,-53.3268
 L -67.562,-52.95 L -67.5521,-52.5732 L -67.5225,-52.1974 L -67.4733,-51.8237 L -67.4046,-51.453 L -67.3166,-51.0865
 L -67.2096,-50.7251 L -67.0837,-50.3698 L -46.7,1.0495 L -46.7,50.9632 L -46.8732,51.166 L -54.4261,60.1855
 L -64.1426,61.6293 L -64.6831,61.7294 L -65.2176,61.8578 L -65.7447,62.0139 L -66.2629,62.1974 L -66.7707,62.4078
 L -67.2669,62.6444 L -67.75,62.9067 L -68.2187,63.194 L -68.6717,63.5053 L -69.1079,63.84 L -69.5259,64.197
 L -69.9246,64.5754 L -70.303,64.9741 L -70.66,65.3921 L -70.9947,65.8282 L -71.306,66.2813 L -71.5933,66.75
 L -71.8556,67.2331 L -72.0922,67.7293 L -72.3026,68.2371 L -72.4861,68.7553 L -72.6422,69.2824 L -72.7706,69.8169
 L -72.8707,70.3574 L -72.9425,70.9025 L -72.9856,71.4505 L -73,72 L -72.9856,72.5495 L -72.9425,73.0975
 L -72.8707,73.6426 L -72.7706,74.1831 L -72.6422,74.7176 L -72.4861,75.2447 L -72.3026,75.7629 L -72.0922,76.2707
 L -71.8556,76.7669 L -71.5933,77.25 L -71.306,77.7187 L -70.9947,78.1717 L -70.66,78.6079 L -70.303,79.0259
 L -69.9246,79.4246 L -69.5259,79.803 L -69.1079,80.16 L -68.6717,80.4947 L -68.2187,80.806 L -67.75,81.0933
 L -67.2669,81.3556 L -66.7707,81.5922 L -66.2629,81.8026 L -65.7447,81.9861 L -65.2176,82.1422 L -64.6831,82.2706
 L -64.1426,82.3707 L -63.5975,82.4425 L -63.0495,82.4856 L -62.5,82.5 L 62.5,82.5 L 63.0495,82.4856
 L 63.5975,82.4425 L 64.1426,82.3707 L 64.6831,82.2706 L 65.2176,82.1422 L 65.7447,81.9861 L 66.2629,81.8026
 L 66.7707,81.5922 L 67.2669,81.3556 L 67.75,81.0933 L 68.2187,80.806 L 68.6717,80.4947 L 69.1079,80.16
 L 69.5259,79.803 L 69.9246,79.4246 L 70.303,79.0259 L 70.66,78.6079 L 70.9947,78.1717 L 71.306,77.7187
 L 71.5933,77.25 L 71.8556,76.7669 L 72.0922,76.2707 L 72.3026,75.7629 L 72.4861,75.2447 L 72.6422,74.7176
 L 72.7706,74.1831 L 72.8707,73.6426 L 72.9425,73.0975 L 72.9856,72.5495 L 73,72 L 72.9856,71.4505
 L 72.9425,70.9025 L 72.8707,70.3574 L 72.7706,69.8169 L 72.6422,69.2824 L 72.4861,68.7553 L 72.3026,68.2371
 L 72.0922,67.7293 L 71.8556,67.2331 L 71.5933,66.75 L 71.306,66.2813 L 70.9947,65.8282 L 70.66,65.3921
 L 70.303,64.9741 L 69.9246,64.5754 L 69.5259,64.197 L 69.1079,63.84 L 68.6717,63.5053 L 68.2187,63.194
 L 67.75,62.9067 L 67.2669,62.6444 L 66.7707,62.4078 L 66.2629,62.1974 L 65.7447,62.0139 L 65.2176,61.8578
 L 64.6831,61.7294 L 64.1426,61.6293 L 54.4261,60.1855 L 46.8732,51.166 L 46.7,50.9632 L 46.7,1.0495
 L 67.0837,-50.3698 L 67.2096,-50.7251 L 67.3166,-51.0865 L 67.4046,-51.453 L 67.4733,-51.8237 L 67.5225,-52.1974
 L 67.5521,-52.5732 L 67.562,-52.95 L 67.5521,-53.3268 L 67.5225,-53.7026 L 67.4733,-54.0763 L 67.4046,-54.447
 L 67.3166,-54.8135 L 67.2096,-55.1749 L 67.0837,-55.5302 L 66.9395,-55.8785 L 66.7772,-56.2187 L 66.5974,-56.55
 L 66.4004,-56.8714 L 66.1869,-57.1821 L 65.9574,-57.4811 L 65.7126,-57.7677 L 65.4531,-58.0412 L 65.1797,-58.3006
 L 64.8931,-58.5454 L 64.594,-58.7749 L 64.2834,-58.9884 L 63.962,-59.1854 L 63.6307,-59.3652 L 63.2905,-59.5275
 L 62.9422,-59.6718 L 62.5869,-59.7976 L 62.2255,-59.9047 L 61.8589,-59.9927 L 61.4883,-60.0614 L 61.1146,-60.1105
 L 60.7388,-60.1401 L 60.362,-60.15 L 59.9852,-60.1401 L 59.6094,-60.1105 L 59.2356,-60.0614 L 58.865,-59.9927
 L 58.4985,-59.9047 L 58.137,-59.7976 L 57.7817,-59.6718 L 57.4335,-59.5275 L 57.0932,-59.3652 L 56.762,-59.1854
 L 56.4406,-58.9884 L 56.1299,-58.7749 L 55.8309,-58.5454 L 55.5442,-58.3006 L 55.2708,-58.0412 L 55.0113,-57.7677
 L 54.7665,-57.4811 L 42.6102,-42.0833 L 41.8207,-41.3534 L 40.5905,-40.2746 L 39.3325,-39.2284 L 38.0476,-38.2154
 L 36.7366,-37.2364 L 35.4004,-36.2921 L 34.0399,-35.3831 L 32.6562,-34.51 L 31.25,-33.6734 L 29.8224,-32.8739
 L 28.3744,-32.1121 L 26.9069,-31.3884 L 25.421,-30.7034 L 23.9177,-30.0575 L 22.398,-29.4512 L 20.8629,-28.8849
 L 19.3136,-28.359 L 17.7509,-27.8738 L 16.1762,-27.4296 L 14.5903,-27.0269 L 12.9945,-26.6658 L 11.3897,-26.3466
 L 9.77715,-26.0695 L 8.15788,-25.8347 L 8.04958,-25.8219 L 7.98885,-25.8434 L 7.82822,-25.891 L 7.66531,-25.9301
 L 7.50058,-25.9606 L 7.33449,-25.9825 L 7.16747,-25.9956 L 7,-26 L -6.99998,-26 L -7.16747,-25.9956
 L -7.33449,-25.9825 L -7.50058,-25.9606 L -7.66531,-25.9301 L -7.82822,-25.891 L -7.98885,-25.8434 L -8.04958,-25.8219
 L -8.15788,-25.8347 L -9.77715,-26.0695 L -11.3897,-26.3466 L -12.9945,-26.6658 L -14.5903,-27.0269 L -16.1762,-27.4296
 L -17.7509,-27.8738 L -19.3136,-28.359 L -20.8629,-28.8849 L -22.398,-29.4512 L -23.9177,-30.0575 L -25.421,-30.7034
 L -26.9069,-31.3884 L -28.3744,-32.1121 L -29.8224,-32.8739 L -31.25,-33.6734 L -32.6562,-34.51 L -34.0399,-35.3831
 L -35.4004,-36.2921 L -36.7366,-37.2364 L -38.0476,-38.2154 L -39.3325,-39.2284 L -40.5905,-40.2746 L -41.8207,-41.3534
 z
M -3.5,-9.75 L -3.5,-20.25 L 3.5,-20.25 L 3.5,-9.75 z
M 17.7854,4.09438 L 17.5714,4.07753 L 17.3586,4.04951 L 17.1476,4.01039 L 16.9388,3.96028 L 16.733,3.89932
 L 16.5307,3.82767 L 16.3324,3.74553 L 16.1386,3.65312 L 15.95,3.55069 L 15.767,3.43854 L 15.5901,3.31696
 L 15.4198,3.18629 L 15.2566,3.04689 L 15.1009,2.89912 L 14.9531,2.74342 L 14.8137,2.5802 L 14.683,2.40991
 L 14.5614,2.23302 L 14.4493,2.04999 L 14.3469,1.86136 L 14.2545,1.66762 L 14.1723,1.4693 L 14.1007,1.26697
 L 14.0397,1.06116 L 13.9896,0.852432 L 13.9505,0.641373 L 13.9225,0.428558 L 13.9056,0.214569 L 13.9,-0
 L 13.9056,-0.214569 L 13.9225,-0.428558 L 13.9505,-0.641373 L 13.9896,-0.852432 L 14.0397,-1.06116 L 14.1007,-1.26697
 L 14.1723,-1.4693 L 14.2545,-1.66762 L 14.3469,-1.86136 L 14.4493,-2.04999 L 14.5614,-2.23302 L 14.683,-2.40991
 L 14.8137,-2.5802 L 14.9531,-2.74342 L 15.1009,-2.89912 L 15.2566,-3.04689 L 15.4198,-3.18629 L 15.5901,-3.31696
 L 15.767,-3.43854 L 15.95,-3.55069 L 16.1386,-3.65312 L 16.3324,-3.74553 L 16.5307,-3.82767 L 16.733,-3.89932
 L 16.9388,-3.96028 L 17.1476,-4.01039 L 17.3586,-4.04951 L 17.5714,-4.07753 L 17.7854,-4.09438 L 18,-4.09999
 L 18.2146,-4.09438 L 18.4286,-4.07753 L 18.6414,-4.04951 L 18.8524,-4.01039 L 19.0612,-3.96028 L 19.267,-3.89932
 L 19.4693,-3.82767 L 19.6676,-3.74553 L 19.8614,-3.65312 L 20.05,-3.55069 L 20.233,-3.43854 L 20.4099,-3.31696
 L 20.5802,-3.18629 L 20.7434,-3.04689 L 20.8991,-2.89912 L 21.0469,-2.74342 L 21.1863,-2.5802 L 21.317,-2.40991
 L 21.4385,-2.23302 L 21.5507,-2.04999 L 21.6531,-1.86136 L 21.7455,-1.66762 L 21.8277,-1.4693 L 21.8993,-1.26697
 L 21.9603,-1.06116 L 22.0104,-0.852432 L 22.0495,-0.641373 L 22.0775,-0.428558 L 22.0944,-0.214569 L 22.1,-0
 L 22.0944,0.214569 L 22.0775,0.428558 L 22.0495,0.641373 L 22.0104,0.852432 L 21.9603,1.06116 L 21.8993,1.26697
 L 21.8277,1.4693 L 21.7455,1.66762 L 21.6531,1.86136 L 21.5507,2.04999 L 21.4385,2.23302 L 21.317,2.40991
 L 21.1863,2.5802 L 21.0469,2.74342 L 20.8991,2.89912 L 20.7434,3.04689 L 20.5802,3.18629 L 20.4099,3.31696
 L 20.233,3.43854 L 20.05,3.55069 L 19.8614,3.65312 L 19.6676,3.74553 L 19.4693,3.82767 L 19.267,3.89932
 L 19.0612,3.96028 L 18.8524,4.01039 L 18.6414,4.04951 L 18.4286,4.07753 L 18.2146,4.09438 L 18,4.09999
 z
M -18.2146,4.09438 L -18.4286,4.07753 L -18.6414,4.04951 L -18.8524,4.01039 L -19.0612,3.96028 L -19.267,3.89932
 L -19.4693,3.82767 L -19.6676,3.74553 L -19.8614,3.65312 L -20.05,3.55069 L -20.233,3.43854 L -20.4099,3.31696
 L -20.5802,3.18629 L -20.7434,3.04689 L -20.8991,2.89912 L -21.0469,2.74342 L -21.1863,2.5802 L -21.317,2.40991
 L -21.4385,2.23302 L -21.5507,2.04999 L -21.6531,1.86136 L -21.7455,1.66762 L -21.8277,1.4693 L -21.8993,1.26697
 L -21.9603,1.06116 L -22.0104,0.852432 L -22.0495,0.641373 L -22.0775,0.428558 L -22.0944,0.214569 L -22.1,-0
 L -22.0944,-0.214569 L -22.0775,-0.428558 L -22.0495,-0.641373 L -22.0104,-0.852432 L -21.9603,-1.06116 L -21.8993,-1.26697
 L -21.8277,-1.4693 L -21.7455,-1.66762 L -21.6531,-1.86136 L -21.5507,-2.04999 L -21.4385,-2.23302 L -21.317,-2.40991
 L -21.1863,-2.5802 L -21.0469,-2.74342 L -20.8991,-2.89912 L -20.7434,-3.04689 L -20.5802,-3.18629 L -20.4099,-3.31696
 L -20.233,-3.43854 L -20.05,-3.55069 L -19.8614,-3.65312 L -19.6676,-3.74553 L -19.4693,-3.82767 L -19.267,-3.89932
 L -19.0612,-3.96028 L -18.8524,-4.01039 L -18.6414,-4.04951 L -18.4286,-4.07753 L -18.2146,-4.09438 L -18,-4.09999
 L -17.7854,-4.09438 L -17.5714,-4.07753 L -17.3586,-4.04951 L -17.1476,-4.01039 L -16.9388,-3.96028 L -16.733,-3.89932
 L -16.5307,-3.82767 L -16.3324,-3.74553 L -16.1386,-3.65312 L -15.95,-3.55069 L -15.767,-3.43854 L -15.5901,-3.31696
 L -15.4198,-3.18629 L -15.2566,-3.04689 L -15.1009,-2.89912 L -14.9531,-2.74342 L -14.8137,-2.5802 L -14.683,-2.40991
 L -14.5614,-2.23302 L -14.4493,-2.04999 L -14.3469,-1.86136 L -14.2545,-1.66762 L -14.1723,-1.4693 L -14.1007,-1.26697
 L -14.0397,-1.06116 L -13.9896,-0.852432 L -13.9505,-0.641373 L -13.9225,-0.428558 L -13.9056,-0.214569 L -13.9,-0
 L -13.9056,0.214569 L -13.9225,0.428558 L -13.9505,0.641373 L -13.9896,0.852432 L -14.0397,1.06116 L -14.1007,1.26697
 L -14.1723,1.4693 L -14.2545,1.66762 L -14.3469,1.86136 L -14.4493,2.04999 L -14.5614,2.23302 L -14.683,2.40991
 L -14.8137,2.5802 L -14.9531,2.74342 L -15.1009,2.89912 L -15.2566,3.04689 L -15.4198,3.18629 L -15.5901,3.31696
 L -15.767,3.43854 L -15.95,3.55069 L -16.1386,3.65312 L -16.3324,3.74553 L -16.5307,3.82767 L -16.733,3.89932
 L -16.9388,3.96028 L -17.1476,4.01039 L -17.3586,4.04951 L -17.5714,4.07753 L -17.7854,4.09438 L -18,4.09999
 z
M -23.6599,20.9471 L -23.7695,20.9385 L -23.8785,20.9241 L -23.9866,20.9041 L -24.0935,20.8784 L -24.1989,20.8472
 L -24.3026,20.8105 L -24.4041,20.7684 L -24.5034,20.7211 L -24.6,20.6686 L -24.6937,20.6112 L -24.7843,20.5489
 L -24.8716,20.482 L -24.9552,20.4106 L -25.0349,20.3349 L -25.1106,20.2552 L -25.182,20.1716 L -25.2489,20.0843
 L -25.3112,19.9937 L -25.3687,19.9 L -25.4211,19.8034 L -25.4684,19.7041 L -25.5105,19.6026 L -25.5472,19.4989
 L -25.5784,19.3935 L -25.6041,19.2866 L -25.6241,19.1785 L -25.6385,19.0695 L -25.6471,18.9599 L -25.65,18.85
 L -25.6471,18.7401 L -25.6385,18.6305 L -25.6241,18.5215 L -25.6041,18.4134 L -25.5784,18.3065 L -25.5472,18.2011
 L -25.5105,18.0974 L -25.4684,17.9958 L -25.4211,17.8966 L -25.3687,17.8 L -25.3112,17.7063 L -25.2489,17.6156
 L -25.182,17.5284 L -25.1106,17.4448 L -25.0349,17.3651 L -24.9552,17.2894 L -24.8716,17.218 L -24.7843,17.1511
 L -24.6937,17.0888 L -24.6,17.0313 L -24.5034,16.9789 L -24.4041,16.9315 L -24.3026,16.8895 L -24.1989,16.8528
 L -24.0935,16.8215 L -23.9866,16.7959 L -23.8785,16.7758 L -23.7695,16.7615 L -23.6599,16.7529 L -23.55,16.75
 L -23.4401,16.7529 L -23.3305,16.7615 L -23.2215,16.7758 L -23.1134,16.7959 L -23.0065,16.8215 L -22.9011,16.8528
 L -22.7974,16.8895 L -22.6958,16.9315 L -22.5966,16.9789 L -22.5,17.0313 L -22.4062,17.0888 L -22.3156,17.1511
 L -22.2284,17.218 L -22.1448,17.2894 L -22.0651,17.3651 L -21.9894,17.4448 L -21.918,17.5284 L -21.8511,17.6156
 L -21.7888,17.7063 L -21.7313,17.8 L -21.6789,17.8966 L -21.6315,17.9958 L -21.5895,18.0974 L -21.5528,18.2011
 L -21.5215,18.3065 L -21.4959,18.4134 L -21.4758,18.5215 L -21.4615,18.6305 L -21.4529,18.7401 L -21.45,18.85
 L -21.4529,18.9599 L -21.4615,19.0695 L -21.4758,19.1785 L -21.4959,19.2866 L -21.5215,19.3935 L -21.5528,19.4989
 L -21.5895,19.6026 L -21.6315,19.7041 L -21.6789,19.8034 L -21.7313,19.9 L -21.7888,19.9937 L -21.8511,20.0843
 L -21.918,20.1716 L -21.9894,20.2552 L -22.0651,20.3349 L -22.1448,20.4106 L -22.2284,20.482 L -22.3156,20.5489
 L -22.4062,20.6112 L -22.5,20.6686 L -22.5966,20.7211 L -22.6958,20.7684 L -22.7974,20.8105 L -22.9011,20.8472
 L -23.0065,20.8784 L -23.1134,20.9041 L -23.2215,20.9241 L -23.3305,20.9385 L -23.4401,20.9471 L -23.55,20.95
 z
M 23.4401,20.9471 L 23.3305,20.9385 L 23.2215,20.9241 L 23.1134,20.9041 L 23.0065,20.8784 L 22.9011,20.8472
 L 22.7974,20.8105 L 22.6958,20.7684 L 22.5966,20.7211 L 22.5,20.6686 L 22.4062,20.6112 L 22.3156,20.5489
 L 22.2284,20.482 L 22.1448,20.4106 L 22.0651,20.3349 L 21.9894,20.2552 L 21.918,20.1716 L 21.8511,20.0843
 L 21.7888,19.9937 L 21.7313,19.9 L 21.6789,19.8034 L 21.6315,19.7041 L 21.5895,19.6026 L 21.5528,19.4989
 L 21.5215,19.3935 L 21.4959,19.2866 L 21.4758,19.1785 L 21.4615,19.0695 L 21.4529,18.9599 L 21.45,18.85
 L 21.4529,18.7401 L 21.4615,18.6305 L 21.4758,18.5215 L 21.4959,18.4134 L 21.5215,18.3065 L 21.5528,18.2011
 L 21.5895,18.0974 L 21.6315,17.9958 L 21.6789,17.8966 L 21.7313,17.8 L 21.7888,17.7063 L 21.8511,17.6156
 L 21.918,17.5284 L 21.9894,17.4448 L 22.0651,17.3651 L 22.1448,17.2894 L 22.2284,17.218 L 22.3156,17.1511
 L 22.4062,17.0888 L 22.5,17.0313 L 22.5966,16.9789 L 22.6958,16.9315 L 22.7974,16.8895 L 22.9011,16.8528
 L 23.0065,16.8215 L 23.1134,16.7959 L 23.2215,16.7758 L 23.3305,16.7615 L 23.4401,16.7529 L 23.55,16.75
 L 23.6599,16.7529 L 23.7695,16.7615 L 23.8785,16.7758 L 23.9866,16.7959 L 24.0935,16.8215 L 24.1989,16.8528
 L 24.3026,16.8895 L 24.4041,16.9315 L 24.5034,16.9789 L 24.6,17.0313 L 24.6937,17.0888 L 24.7843,17.1511
 L 24.8716,17.218 L 24.9552,17.2894 L 25.0349,17.3651 L 25.1106,17.4448 L 25.182,17.5284 L 25.2489,17.6156
 L 25.3112,17.7063 L 25.3687,17.8 L 25.4211,17.8966 L 25.4684,17.9958 L 25.5105,18.0974 L 25.5472,18.2011
 L 25.5784,18.3065 L 25.6041,18.4134 L 25.6241,18.5215 L 25.6385,18.6305 L 25.6471,18.7401 L 25.65,18.85
 L 25.6471,18.9599 L 25.6385,19.0695 L 25.6241,19.1785 L 25.6041,19.2866 L 25.5784,19.3935 L 25.5472,19.4989
 L 25.5105,19.6026 L 25.4684,19.7041 L 25.4211,19.8034 L 25.3687,19.9 L 25.3112,19.9937 L 25.2489,20.0843
 L 25.182,20.1716 L 25.1106,20.2552 L 25.0349,20.3349 L 24.9552,20.4106 L 24.8716,20.482 L 24.7843,20.5489
 L 24.6937,20.6112 L 24.6,20.6686 L 24.5034,20.7211 L 24.4041,20.7684 L 24.3026,20.8105 L 24.1989,20.8472
 L 24.0935,20.8784 L 23.9866,20.9041 L 23.8785,20.9241 L 23.7695,20.9385 L 23.6599,20.9471 L 23.55,20.95
 z
M -1.03886,62.2228 L -2.07487,62.1413 L -3.10521,62.0056 L -4.12704,61.8162 L -5.13756,61.5736 L -6.13397,61.2785
 L -7.1136,60.9316 L -8.07372,60.5339 L -9.0117,60.0865 L -9.92499,59.5906 L -10.8111,59.0476 L -11.6675,58.459
 L -12.492,57.8263 L -13.2822,57.1514 L -14.0361,56.4361 L -14.7514,55.6822 L -15.4263,54.892 L -16.059,54.0675
 L -16.6476,53.2111 L -17.1906,52.325 L -17.6865,51.4117 L -18.1339,50.4737 L -18.5316,49.5136 L -18.8785,48.534
 L -19.1736,47.5376 L -19.4162,46.527 L -19.6056,45.5052 L -19.7413,44.4749 L -19.8228,43.4389 L -19.85,42.4
 L -19.8228,41.3611 L -19.7413,40.3251 L -19.6056,39.2948 L -19.4162,38.2729 L -19.1736,37.2624 L -18.8785,36.266
 L -18.5316,35.2864 L -18.1339,34.3263 L -17.6865,33.3883 L -17.1906,32.475 L -16.6476,31.5889 L -16.059,30.7325
 L -15.4263,29.908 L -14.7514,29.1178 L -14.0361,28.3639 L -13.2822,27.6486 L -12.492,26.9736 L -11.6675,26.341
 L -10.8111,25.7524 L -9.92499,25.2094 L -9.0117,24.7135 L -8.07372,24.2661 L -7.1136,23.8684 L -6.13397,23.5215
 L -5.13756,23.2264 L -4.12704,22.9838 L -3.10521,22.7944 L -2.07487,22.6587 L -1.03886,22.5772 L 0,22.55
 L 1.03886,22.5772 L 2.07487,22.6587 L 3.10521,22.7944 L 4.12704,22.9838 L 5.13756,23.2264 L 6.13397,23.5215
 L 7.1136,23.8684 L 8.07372,24.2661 L 9.0117,24.7135 L 9.92499,25.2094 L 10.8111,25.7524 L 11.6675,26.341
 L 12.492,26.9736 L 13.2822,27.6486 L 14.0361,28.3639 L 14.7514,29.1178 L 15.4263,29.908 L 16.059,30.7325
 L 16.6476,31.5889 L 17.1906,32.475 L 17.6865,33.3883 L 18.1339,34.3263 L 18.5316,35.2864 L 18.8785,36.266
 L 19.1736,37.2624 L 19.4162,38.2729 L 19.6056,39.2948 L 19.7413,40.3251 L 19.8228,41.3611 L 19.85,42.4
 L 19.8228,43.4389 L 19.7413,44.4749 L 19.6056,45.5052 L 19.4162,46.527 L 19.1736,47.5376 L 18.8785,48.534
 L 18.5316,49.5136 L 18.1339,50.4737 L 17.6865,51.4117 L 17.1906,52.325 L 16.6476,53.2111 L 16.059,54.0675
 L 15.4263,54.892 L 14.7514,55.6822 L 14.0361,56.4361 L 13.2822,57.1514 L 12.492,57.8263 L 11.6675,58.459
 L 10.8111,59.0476 L 9.92499,59.5906 L 9.0117,60.0865 L 8.07372,60.5339 L 7.1136,60.9316 L 6.13397,61.2785
 L 5.13756,61.5736 L 4.12704,61.8162 L 3.10521,62.0056 L 2.07487,62.1413 L 1.03886,62.2228 L 0,62.25
 z
M -0.130829,68.3966 L -0.261307,68.3863 L -0.391083,68.3692 L -0.519775,68.3454 L -0.647034,68.3148 L -0.772537,68.2776
 L -0.89592,68.2339 L -1.01683,68.1839 L -1.13496,68.1275 L -1.25,68.0651 L -1.36159,67.9967 L -1.46945,67.9225
 L -1.57329,67.8429 L -1.67282,67.7579 L -1.76776,67.6678 L -1.85785,67.5728 L -1.94286,67.4733 L -2.02254,67.3695
 L -2.09666,67.2616 L -2.16505,67.15 L -2.22751,67.035 L -2.28386,66.9168 L -2.33394,66.7959 L -2.37764,66.6725
 L -2.41481,66.547 L -2.44536,66.4198 L -2.46921,66.2911 L -2.4863,66.1613 L -2.49657,66.0308 L -2.5,65.9
 L -2.49657,65.7691 L -2.4863,65.6387 L -2.46921,65.5089 L -2.44536,65.3802 L -2.41481,65.2529 L -2.37764,65.1275
 L -2.33394,65.0041 L -2.28386,64.8831 L -2.22751,64.765 L -2.16505,64.65 L -2.09666,64.5384 L -2.02254,64.4305
 L -1.94286,64.3267 L -1.85785,64.2272 L -1.76776,64.1322 L -1.67282,64.0421 L -1.57329,63.9571 L -1.46945,63.8775
 L -1.36159,63.8033 L -1.24998,63.7349 L -1.13496,63.6725 L -1.01683,63.6161 L -0.89592,63.566 L -0.772537,63.5224
 L -0.647034,63.4852 L -0.519775,63.4546 L -0.391083,63.4308 L -0.261307,63.4137 L -0.130829,63.4034 L 0,63.4
 L 0.130829,63.4034 L 0.261307,63.4137 L 0.391083,63.4308 L 0.519775,63.4546 L 0.647034,63.4852 L 0.772537,63.5224
 L 0.89592,63.566 L 1.01683,63.6161 L 1.13496,63.6725 L 1.25,63.7349 L 1.36159,63.8033 L 1.46945,63.8775
 L 1.57329,63.9571 L 1.67282,64.0421 L 1.76776,64.1322 L 1.85785,64.2272 L 1.94286,64.3267 L 2.02254,64.4305
 L 2.09666,64.5384 L 2.16505,64.65 L 2.22751,64.765 L 2.28386,64.8831 L 2.33394,65.0041 L 2.37764,65.1275
 L 2.41481,65.2529 L 2.44536,65.3802 L 2.46921,65.5089 L 2.4863,65.6387 L 2.49657,65.7691 L 2.5,65.9
 L 2.49657,66.0308 L 2.4863,66.1613 L 2.46921,66.2911 L 2.44536,66.4198 L 2.41481,66.547 L 2.37764,66.6725
 L 2.33394,66.7959 L 2.28386,66.9168 L 2.22751,67.035 L 2.16505,67.15 L 2.09666,67.2616 L 2.02254,67.3695
 L 1.94286,67.4733 L 1.85785,67.5728 L 1.76776,67.6678 L 1.67282,67.7579 L 1.57329,67.8429 L 1.46945,67.9225
 L 1.36159,67.9967 L 1.25,68.0651 L 1.13496,68.1275 L 1.01683,68.1839 L 0.89592,68.2339 L 0.772537,68.2776
 L 0.647034,68.3148 L 0.519775,68.3454 L 0.391083,68.3692 L 0.261307,68.3863 L 0.130829,68.3966 L 0,68.4
 z
M -23.6599,68.0471 L -23.7695,68.0385 L -23.8785,68.0241 L -23.9866,68.0041 L -24.0935,67.9784 L -24.1989,67.9472
 L -24.3026,67.9105 L -24.4041,67.8684 L -24.5034,67.8211 L -24.6,67.7686 L -24.6937,67.7112 L -24.7843,67.6489
 L -24.8716,67.582 L -24.9552,67.5106 L -25.0349,67.4349 L -25.1106,67.3552 L -25.182,67.2716 L -25.2489,67.1843
 L -25.3112,67.0937 L -25.3687,67 L -25.4211,66.9034 L -25.4684,66.8041 L -25.5105,66.7026 L -25.5472,66.5989
 L -25.5784,66.4935 L -25.6041,66.3866 L -25.6241,66.2785 L -25.6385,66.1695 L -25.6471,66.0599 L -25.65,65.95
 L -25.6471,65.8401 L -25.6385,65.7305 L -25.6241,65.6215 L -25.6041,65.5134 L -25.5784,65.4065 L -25.5472,65.3011
 L -25.5105,65.1974 L -25.4684,65.0959 L -25.4211,64.9966 L -25.3687,64.9 L -25.3112,64.8063 L -25.2489,64.7157
 L -25.182,64.6284 L -25.1106,64.5448 L -25.0349,64.4651 L -24.9552,64.3894 L -24.8716,64.318 L -24.7843,64.2511
 L -24.6937,64.1888 L -24.6,64.1313 L -24.5034,64.0789 L -24.4041,64.0316 L -24.3026,63.9895 L -24.1989,63.9528
 L -24.0935,63.9216 L -23.9866,63.8959 L -23.8785,63.8759 L -23.7695,63.8615 L -23.6599,63.8529 L -23.55,63.85
 L -23.4401,63.8529 L -23.3305,63.8615 L -23.2215,63.8759 L -23.1134,63.8959 L -23.0065,63.9216 L -22.9011,63.9528
 L -22.7974,63.9895 L -22.6958,64.0316 L -22.5966,64.0789 L -22.5,64.1313 L -22.4062,64.1888 L -22.3156,64.2511
 L -22.2284,64.318 L -22.1448,64.3894 L -22.0651,64.4651 L -21.9894,64.5448 L -21.918,64.6284 L -21.8511,64.7157
 L -21.7888,64.8063 L -21.7313,64.9 L -21.6789,64.9966 L -21.6315,65.0959 L -21.5895,65.1974 L -21.5528,65.3011
 L -21.5215,65.4065 L -21.4959,65.5134 L -21.4758,65.6215 L -21.4615,65.7305 L -21.4529,65.8401 L -21.45,65.95
 L -21.4529,66.0599 L -21.4615,66.1695 L -21.4758,66.2785 L -21.4959,66.3866 L -21.5215,66.4935 L -21.5528,66.5989
 L -21.5895,66.7026 L -21.6315,66.8041 L -21.6789,66.9034 L -21.7313,67 L -21.7888,67.0937 L -21.8511,67.1843
 L -21.918,67.2716 L -21.9894,67.3552 L -22.0651,67.4349 L -22.1448,67.5106 L -22.2284,67.582 L -22.3156,67.6489
 L -22.4062,67.7112 L -22.5,67.7686 L -22.5966,67.8211 L -22.6958,67.8684 L -22.7974,67.9105 L -22.9011,67.9472
 L -23.0065,67.9784 L -23.1134,68.0041 L -23.2215,68.0241 L -23.3305,68.0385 L -23.4401,68.0471 L -23.55,68.05
 z
M 23.4401,68.0471 L 23.3305,68.0385 L 23.2215,68.0241 L 23.1134,68.0041 L 23.0065,67.9784 L 22.9011,67.9472
 L 22.7974,67.9105 L 22.6958,67.8684 L 22.5966,67.8211 L 22.5,67.7686 L 22.4062,67.7112 L 22.3156,67.6489
 L 22.2284,67.582 L 22.1448,67.5106 L 22.0651,67.4349 L 21.9894,67.3552 L 21.918,67.2716 L 21.8511,67.1843
 L 21.7888,67.0937 L 21.7313,67 L 21.6789,66.9034 L 21.6315,66.8041 L 21.5895,66.7026 L 21.5528,66.5989
 L 21.5215,66.4935 L 21.4959,66.3866 L 21.4758,66.2785 L 21.4615,66.1695 L 21.4529,66.0599 L 21.45,65.95
 L 21.4529,65.8401 L 21.4615,65.7305 L 21.4758,65.6215 L 21.4959,65.5134 L 21.5215,65.4065 L 21.5528,65.3011
 L 21.5895,65.1974 L 21.6315,65.0959 L 21.6789,64.9966 L 21.7313,64.9 L 21.7888,64.8063 L 21.8511,64.7157
 L 21.918,64.6284 L 21.9894,64.5448 L 22.0651,64.4651 L 22.1448,64.3894 L 22.2284,64.318 L 22.3156,64.2511
 L 22.4062,64.1888 L 22.5,64.1313 L 22.5966,64.0789 L 22.6958,64.0316 L 22.7974,63.9895 L 22.9011,63.9528
 L 23.0065,63.9216 L 23.1134,63.8959 L 23.2215,63.8759 L 23.3305,63.8615 L 23.4401,63.8529 L 23.55,63.85
 L 23.6599,63.8529 L 23.7695,63.8615 L 23.8785,63.8759 L 23.9866,63.8959 L 24.0935,63.9216 L 24.1989,63.9528
 L 24.3026,63.9895 L 24.4041,64.0316 L 24.5034,64.0789 L 24.6,64.1313 L 24.6937,64.1888 L 24.7843,64.2511
 L 24.8716,64.318 L 24.9552,64.3894 L 25.0349,64.4651 L 25.1106,64.5448 L 25.182,64.6284 L 25.2489,64.7157
 L 25.3112,64.8063 L 25.3687,64.9 L 25.4211,64.9966 L 25.4684,65.0959 L 25.5105,65.1974 L 25.5472,65.3011
 L 25.5784,65.4065 L 25.6041,65.5134 L 25.6241,65.6215 L 25.6385,65.7305 L 25.6471,65.8401 L 25.65,65.95
 L 25.6471,66.0599 L 25.6385,66.1695 L 25.6241,66.2785 L 25.6041,66.3866 L 25.5784,66.4935 L 25.5472,66.5989
 L 25.5105,66.7026 L 25.4684,66.8041 L 25.4211,66.9034 L 25.3687,67 L 25.3112,67.0937 L 25.2489,67.1843
 L 25.182,67.2716 L 25.1106,67.3552 L 25.0349,67.4349 L 24.9552,67.5106 L 24.8716,67.582 L 24.7843,67.6489
 L 24.6937,67.7112 L 24.6,67.7686 L 24.5034,67.8211 L 24.4041,67.8684 L 24.3026,67.9105 L 24.1989,67.9472
 L 24.0935,67.9784 L 23.9866,68.0041 L 23.8785,68.0241 L 23.7695,68.0385 L 23.6599,68.0471 L 23.55,68.05
 z
M -62.7146,76.0944 L -62.9286,76.0775 L -63.1414,76.0495 L -63.3524,76.0104 L -63.5612,75.9603 L -63.767,75.8993
 L -63.9693,75.8277 L -64.1676,75.7455 L -64.3614,75.6531 L -64.55,75.5507 L -64.733,75.4386 L -64.9099,75.317
 L -65.0802,75.1863 L -65.2434,75.0469 L -65.3991,74.8991 L -65.5469,74.7434 L -65.6863,74.5802 L -65.817,74.4099
 L -65.9386,74.233 L -66.0507,74.05 L -66.1531,73.8614 L -66.2455,73.6676 L -66.3277,73.4693 L -66.3993,73.267
 L -66.4603,73.0612 L -66.5104,72.8524 L -66.5495,72.6414 L -66.5775,72.4286 L -66.5944,72.2146 L -66.6,72
 L -66.5944,71.7854 L -66.5775,71.5714 L -66.5495,71.3586 L -66.5104,71.1476 L -66.4603,70.9388 L -66.3993,70.733
 L -66.3277,70.5307 L -66.2455,70.3324 L -66.1531,70.1386 L -66.0507,69.95 L -65.9386,69.767 L -65.817,69.5901
 L -65.6863,69.4198 L -65.5469,69.2566 L -65.3991,69.1009 L -65.2434,68.9531 L -65.0802,68.8137 L -64.9099,68.683
 L -64.733,68.5614 L -64.55,68.4493 L -64.3614,68.3469 L -64.1676,68.2545 L -63.9693,68.1723 L -63.767,68.1007
 L -63.5612,68.0397 L -63.3524,67.9896 L -63.1414,67.9505 L -62.9286,67.9225 L -62.7146,67.9056 L -62.5,67.9
 L -62.2854,67.9056 L -62.0714,67.9225 L -61.8586,67.9505 L -61.6476,67.9896 L -61.4388,68.0397 L -61.233,68.1007
 L -61.0307,68.1723 L -60.8324,68.2545 L -60.6386,68.3469 L -60.45,68.4493 L -60.267,68.5614 L -60.0901,68.683
 L -59.9198,68.8137 L -59.7566,68.9531 L -59.6009,69.1009 L -59.4531,69.2566 L -59.3137,69.4198 L -59.183,69.5901
 L -59.0614,69.767 L -58.9493,69.95 L -58.8469,70.1386 L -58.7545,70.3324 L -58.6723,70.5307 L -58.6007,70.733
 L -58.5397,70.9388 L -58.4896,71.1476 L -58.4505,71.3586 L -58.4225,71.5714 L -58.4056,71.7854 L -58.4,72
 L -58.4056,72.2146 L -58.4225,72.4286 L -58.4505,72.6414 L -58.4896,72.8524 L -58.5397,73.0612 L -58.6007,73.267
 L -58.6723,73.4693 L -58.7545,73.6676 L -58.8469,73.8614 L -58.9493,74.05 L -59.0614,74.233 L -59.183,74.4099
 L -59.3137,74.5802 L -59.4531,74.7434 L -59.6009,74.8991 L -59.7566,75.0469 L -59.9198,75.1863 L -60.0901,75.317
 L -60.267,75.4386 L -60.45,75.5507 L -60.6386,75.6531 L -60.8324,75.7455 L -61.0307,75.8277 L -61.233,75.8993
 L -61.4388,75.9603 L -61.6476,76.0104 L -61.8586,76.0495 L -62.0714,76.0775 L -62.2854,76.0944 L -62.5,76.1
 z
M 62.2854,76.0944 L 62.0714,76.0775 L 61.8586,76.0495 L 61.6476,76.0104 L 61.4388,75.9603 L 61.233,75.8993
 L 61.0307,75.8277 L 60.8324,75.7455 L 60.6386,75.6531 L 60.45,75.5507 L 60.267,75.4386 L 60.0901,75.317
 L 59.9198,75.1863 L 59.7566,75.0469 L 59.6009,74.8991 L 59.4531,74.7434 L 59.3137,74.5802 L 59.183,74.4099
 L 59.0614,74.233 L 58.9493,74.05 L 58.8469,73.8614 L 58.7545,73.6676 L 58.6723,73.4693 L 58.6007,73.267
 L 58.5397,73.0612 L 58.4896,72.8524 L 58.4505,72.6414 L 58.4225,72.4286 L 58.4056,72.2146 L 58.4,72
 L 58.4056,71.7854 L 58.4225,71.5714 L 58.4505,71.3586 L 58.4896,71.1476 L 58.5397,70.9388 L 58.6007,70.733
 L 58.6723,70.5307 L 58.7545,70.3324 L 58.8469,70.1386 L 58.9493,69.95 L 59.0614,69.767 L 59.183,69.5901
 L 59.3137,69.4198 L 59.4531,69.2566 L 59.6009,69.1009 L 59.7566,68.9531 L 59.9198,68.8137 L 60.0901,68.683
 L 60.267,68.5614 L 60.45,68.4493 L 60.6386,68.3469 L 60.8324,68.2545 L 61.0307,68.1723 L 61.233,68.1007
 L 61.4388,68.0397 L 61.6476,67.9896 L 61.8586,67.9505 L 62.0714,67.9225 L 62.2854,67.9056 L 62.5,67.9
 L 62.7146,67.9056 L 62.9286,67.9225 L 63.1414,67.9505 L 63.3524,67.9896 L 63.5612,68.0397 L 63.767,68.1007
 L 63.9693,68.1723 L 64.1676,68.2545 L 64.3614,68.3469 L 64.55,68.4493 L 64.733,68.5614 L 64.9099,68.683
 L 65.0802,68.8137 L 65.2434,68.9531 L 65.3991,69.1009 L 65.5469,69.2566 L 65.6863,69.4198 L 65.817,69.5901
 L 65.9386,69.767 L 66.0507,69.95 L 66.1531,70.1386 L 66.2455,70.3324 L 66.3277,70.5307 L 66.3993,70.733
 L 66.4603,70.9388 L 66.5104,71.1476 L 66.5495,71.3586 L 66.5775,71.5714 L 66.5944,71.7854 L 66.6,72
 L 66.5944,72.2146 L 66.5775,72.4286 L 66.5495,72.6414 L 66.5104,72.8524 L 66.4603,73.0612 L 66.3993,73.267
 L 66.3277,73.4693 L 66.2455,73.6676 L 66.1531,73.8614 L 66.0507,74.05 L 65.9386,74.233 L 65.817,74.4099
 L 65.6863,74.5802 L 65.5469,74.7434 L 65.3991,74.8991 L 65.2434,75.0469 L 65.0802,75.1863 L 64.9099,75.317
 L 64.733,75.4386 L 64.55,75.5507 L 64.3614,75.6531 L 64.1676,75.7455 L 63.9693,75.8277 L 63.767,75.8993
 L 63.5612,75.9603 L 63.3524,76.0104 L 63.1414,76.0495 L 62.9286,76.0775 L 62.7146,76.0944 L 62.5,76.1
 z
" stroke="black" fill="lightgray" stroke-width="0.5"/></svg>
