<?xml version="1.0" standalone="no"?>
<!DOCTYPE svg PUBLIC "-//W3C//DTD SVG 1.1//EN" "http://www.w3.org/Graphics/SVG/1.1/DTD/svg11.dtd">
<svg width="81" height="165" viewBox="-65 -97 81 165" xmlns="http://www.w3.org/2000/svg" version="1.1">
<title>OpenSCAD Model</title>
<path d="
M -64.9,-90.475 L -64.8803,-90.0987 L -64.8213,-89.7265 L -64.7238,-89.3625 L -64.5888,-89.0107 L -64.4177,-88.675
 L -64.3998,-88.6474 L -64.3897,-88.262 L -64.059,-84.0605 L -63.5089,-79.882 L -62.7409,-75.7381 L -61.757,-71.6401
 L -60.56,-67.5991 L -59.1532,-63.6264 L -57.5404,-59.7327 L -55.726,-55.9288 L -53.715,-52.225 L -51.513,-48.6316
 L -51.4037,-48.4726 L 3.41086,64.3793 L 4.625,67.725 L 15.6,67.725 L 15.6,63.6649 L 14.8528,63.6649
 L 12.6085,63.1878 L 10.5125,62.2546 L 8.65629,60.906 L 7.12104,59.2009 L 5.97384,57.2139 L 5.26483,55.0318
 L 5.025,52.75 L 5.26483,50.4682 L 5.56764,49.5362 L 5.59978,49.3406 L 5.73369,48.9978 L 5.88442,48.4721
 L 5.91403,48.3404 L 5.99723,47.6938 L 6.08986,47.4298 L 6.09072,47.4253 L 6.10738,46.948 L 6.27189,46.2882
 L 6.30763,45.9053 L 6.3076,45.9047 L 6.30784,45.9031 L 6.36166,45.3266 L 6.42821,45.1134 L 6.50683,44.5976
 L 6.50683,44.1258 L 6.69054,43.2615 L 6.74779,42.2787 L 6.85383,41.8919 L 6.97059,40.8929 L 6.96234,40.6567
 L 7.1881,39.3764 L 7.20606,38.6045 L 7.22,38.5457 L 7.22,37.35 L 7.22,37.3185 L 6.39587,36.659
 L 5.46445,35.5224 L 4.71625,34.7655 L 3.88629,33.471 L 3.33617,32.7669 L 2.59003,31.2371 L 2.26352,30.7008
 L 1.61415,28.8499 L 1.50173,28.6051 L 0.998614,26.3665 L 0.994231,25.9899 L 0.809914,24.2362 L 0.91666,23.2206
 L 0.928733,22.183 L 1.31071,20.4834 L 1.34156,20.2438 L 1.40561,20.0612 L 1.43185,19.9445 L 1.49422,19.8086
 L 2.10115,18.0787 L 2.6655,17.1518 L 3.03643,16.3913 L 4.449,14.5832 L 4.97496,14.1419 L 5.82554,13.2814
 L 7.31053,12.3047 L 7.39261,12.239 L 7.46783,12.2012 L 7.74248,12.0206 L 8.12492,11.8712 L 9.44296,11.2093
 L 10.9064,10.8263 L 11.2722,10.6931 L 11.5808,10.6497 L 11.6626,10.6283 L 11.7681,10.6234 L 13.5442,10.3738
 L 14.6642,10.4521 L 15.4861,10.433 L 15.6,10.4544 L 15.6,6.975 L 14.893,-1.56531 L 14.6478,-3.11348
 L 14.2421,-4.62753 L 13.6803,-6.09088 L 12.9687,-7.4875 L 12.115,-8.80208 L 11.638,-9.3912 L 11.5975,-9.45855
 L 11.4715,-9.62574 L 11.3287,-9.77885 L 11.31,-9.79621 L 11.1286,-10.0202 L 10.0202,-11.1286 L 8.84099,-12.0835
 L -49.2899,-65.9364 L -49.8174,-67.2101 L -51.0495,-70.6893 L -52.0978,-74.2283 L -52.9594,-77.8172 L -53.632,-81.4464
 L -54.1138,-85.1057 L -54.3248,-87.7865 L -46.1237,-88.8947 L -45.7515,-88.9537 L -45.3875,-89.0512 L -45.0357,-89.1862
 L -44.7,-89.3573 L -44.384,-89.5625 L -44.0911,-89.7997 L -43.8247,-90.0661 L -43.5875,-90.359 L -43.3823,-90.675
 L -43.2112,-91.0107 L -43.0762,-91.3625 L -42.9787,-91.7265 L -42.9197,-92.0987 L -42.9,-92.475 L -42.9197,-92.8513
 L -42.9787,-93.2235 L -43.0762,-93.5875 L -43.2112,-93.9393 L -43.3823,-94.275 L -43.5875,-94.591 L -43.8247,-94.8839
 L -44.0911,-95.1503 L -44.384,-95.3875 L -44.7,-95.5927 L -45.0357,-95.7638 L -45.3875,-95.8988 L -45.7515,-95.9963
 L -46.1237,-96.0553 L -46.5,-96.075 L -46.8763,-96.0553 L -61.6763,-94.0553 L -62.0485,-93.9963 L -62.4125,-93.8988
 L -62.7643,-93.7638 L -63.1,-93.5927 L -63.416,-93.3875 L -63.7089,-93.1503 L -63.9753,-92.8839 L -64.2125,-92.591
 L -64.2878,-92.475 L -64.5,-92.475 L -64.491,-92.1311 L -64.5888,-91.9393 L -64.7238,-91.5875 L -64.8213,-91.2235
 L -64.8803,-90.8513 z
M -10.95,1.56382 L -10.95,-1.56382 L -10.833,-2.30262 L -10.533,-3.42236 L -10.1175,-4.50461 L -9.59123,-5.5375
 L -8.95986,-6.50972 L -8.23033,-7.41062 L -7.41062,-8.23033 L -6.50972,-8.95986 L -5.5375,-9.59123 L -4.50461,-10.1175
 L -3.42236,-10.533 L -2.30262,-10.833 L -1.40597,-10.975 L 1.40597,-10.975 L 2.30262,-10.833 L 3.42236,-10.533
 L 4.50461,-10.1175 L 5.5375,-9.59123 L 6.50972,-8.95986 L 7.41062,-8.23033 L 8.23033,-7.41062 L 8.95986,-6.50972
 L 9.59123,-5.5375 L 10.1175,-4.50461 L 10.533,-3.42236 L 10.833,-2.30262 L 10.95,-1.56382 L 10.95,1.56382
 L 10.833,2.30262 L 10.533,3.42236 L 10.1175,4.50461 L 9.59123,5.5375 L 8.95986,6.50972 L 8.23033,7.41062
 L 7.41062,8.23033 L 6.50972,8.95986 L 5.5375,9.59123 L 4.50461,10.1175 L 3.42236,10.533 L 2.30262,10.833
 L 1.40597,10.975 L -1.40597,10.975 L -2.30262,10.833 L -3.42236,10.533 L -4.50461,10.1175 L -5.5375,9.59123
 L -6.50972,8.95986 L -7.41062,8.23033 L -8.23033,7.41062 L -8.95986,6.50972 L -9.59123,5.5375 L -10.1175,4.50461
 L -10.533,3.42236 L -10.833,2.30262 z
" stroke="black" fill="lightgray" stroke-width="0.5"/></svg>
