  0
SECTION
  2
BLOCKS
  0
ENDSEC
  0
SECTION
  2
ENTITIES
  0
LINE
  8
0
 10
-31.25
 20
0
 11
-30.5671
 21
-6.49724
  0
LINE
  8
0
 10
-30.5671
 20
-6.49724
 11
-28.5483
 21
-12.7105
  0
LINE
  8
0
 10
-28.5483
 20
-12.7105
 11
-25.2818
 21
-18.3683
  0
LINE
  8
0
 10
-25.2818
 20
-18.3683
 11
-20.9103
 21
-23.2233
  0
LINE
  8
0
 10
-20.9103
 20
-23.2233
 11
-15.625
 21
-27.0633
  0
LINE
  8
0
 10
-15.625
 20
-27.0633
 11
-9.65678
 21
-29.7205
  0
LINE
  8
0
 10
-9.65678
 20
-29.7205
 11
-3.26651
 21
-31.0788
  0
LINE
  8
0
 10
-3.26651
 20
-31.0788
 11
3.26651
 21
-31.0788
  0
LINE
  8
0
 10
3.26651
 20
-31.0788
 11
9.65678
 21
-29.7205
  0
LINE
  8
0
 10
9.65678
 20
-29.7205
 11
15.625
 21
-27.0633
  0
LINE
  8
0
 10
15.625
 20
-27.0633
 11
20.9103
 21
-23.2233
  0
LINE
  8
0
 10
20.9103
 20
-23.2233
 11
25.2818
 21
-18.3683
  0
LINE
  8
0
 10
25.2818
 20
-18.3683
 11
28.5483
 21
-12.7105
  0
LINE
  8
0
 10
28.5483
 20
-12.7105
 11
30.5671
 21
-6.49724
  0
LINE
  8
0
 10
30.5671
 20
-6.49724
 11
31.25
 21
0
  0
LINE
  8
0
 10
31.25
 20
0
 11
30.5671
 21
6.49724
  0
LINE
  8
0
 10
30.5671
 20
6.49724
 11
28.5483
 21
12.7105
  0
LINE
  8
0
 10
28.5483
 20
12.7105
 11
25.2818
 21
18.3683
  0
LINE
  8
0
 10
25.2818
 20
18.3683
 11
20.9103
 21
23.2233
  0
LINE
  8
0
 10
20.9103
 20
23.2233
 11
15.625
 21
27.0633
  0
LINE
  8
0
 10
15.625
 20
27.0633
 11
9.65678
 21
29.7205
  0
LINE
  8
0
 10
9.65678
 20
29.7205
 11
3.26651
 21
31.0788
  0
LINE
  8
0
 10
3.26651
 20
31.0788
 11
-3.26651
 21
31.0788
  0
LINE
  8
0
 10
-3.26651
 20
31.0788
 11
-9.65678
 21
29.7205
  0
LINE
  8
0
 10
-9.65678
 20
29.7205
 11
-15.625
 21
27.0633
  0
LINE
  8
0
 10
-15.625
 20
27.0633
 11
-20.9103
 21
23.2233
  0
LINE
  8
0
 10
-20.9103
 20
23.2233
 11
-25.2818
 21
18.3683
  0
LINE
  8
0
 10
-25.2818
 20
18.3683
 11
-28.5483
 21
12.7105
  0
LINE
  8
0
 10
-28.5483
 20
12.7105
 11
-30.5671
 21
6.49724
  0
LINE
  8
0
 10
-30.5671
 20
6.49724
 11
-31.25
 21
0
  0
LINE
  8
0
 10
-3.1
 20
0
 11
-3.03226
 21
0.644526
  0
LINE
  8
0
 10
-3.03226
 20
0.644526
 11
-2.83199
 21
1.26088
  0
LINE
  8
0
 10
-2.83199
 20
1.26088
 11
-2.50795
 21
1.82213
  0
LINE
  8
0
 10
-2.50795
 20
1.82213
 11
-2.0743
 21
2.30375
  0
LINE
  8
0
 10
-2.0743
 20
2.30375
 11
-1.55
 21
2.68468
  0
LINE
  8
0
 10
-1.55
 20
2.68468
 11
-0.957952
 21
2.94827
  0
LINE
  8
0
 10
-0.957952
 20
2.94827
 11
-0.324038
 21
3.08302
  0
LINE
  8
0
 10
-0.324038
 20
3.08302
 11
0.324038
 21
3.08302
  0
LINE
  8
0
 10
0.324038
 20
3.08302
 11
0.957952
 21
2.94827
  0
LINE
  8
0
 10
0.957952
 20
2.94827
 11
1.55
 21
2.68468
  0
LINE
  8
0
 10
1.55
 20
2.68468
 11
2.0743
 21
2.30375
  0
LINE
  8
0
 10
2.0743
 20
2.30375
 11
2.50795
 21
1.82213
  0
LINE
  8
0
 10
2.50795
 20
1.82213
 11
2.83199
 21
1.26088
  0
LINE
  8
0
 10
2.83199
 20
1.26088
 11
3.03226
 21
0.644526
  0
LINE
  8
0
 10
3.03226
 20
0.644526
 11
3.1
 21
0
  0
LINE
  8
0
 10
3.1
 20
0
 11
3.03226
 21
-0.644526
  0
LINE
  8
0
 10
3.03226
 20
-0.644526
 11
2.83199
 21
-1.26088
  0
LINE
  8
0
 10
2.83199
 20
-1.26088
 11
2.50795
 21
-1.82213
  0
LINE
  8
0
 10
2.50795
 20
-1.82213
 11
2.0743
 21
-2.30375
  0
LINE
  8
0
 10
2.0743
 20
-2.30375
 11
1.55
 21
-2.68468
  0
LINE
  8
0
 10
1.55
 20
-2.68468
 11
0.957952
 21
-2.94827
  0
LINE
  8
0
 10
0.957952
 20
-2.94827
 11
0.324038
 21
-3.08302
  0
LINE
  8
0
 10
0.324038
 20
-3.08302
 11
-0.324038
 21
-3.08302
  0
LINE
  8
0
 10
-0.324038
 20
-3.08302
 11
-0.957952
 21
-2.94827
  0
LINE
  8
0
 10
-0.957952
 20
-2.94827
 11
-1.55
 21
-2.68468
  0
LINE
  8
0
 10
-1.55
 20
-2.68468
 11
-2.0743
 21
-2.30375
  0
LINE
  8
0
 10
-2.0743
 20
-2.30375
 11
-2.50795
 21
-1.82213
  0
LINE
  8
0
 10
-2.50795
 20
-1.82213
 11
-2.83199
 21
-1.26088
  0
LINE
  8
0
 10
-2.83199
 20
-1.26088
 11
-3.03226
 21
-0.644526
  0
LINE
  8
0
 10
-3.03226
 20
-0.644526
 11
-3.1
 21
0
  0
LINE
  8
0
 10
-1.95
 20
-22
 11
-1.90739
 21
-21.5946
  0
LINE
  8
0
 10
-1.90739
 20
-21.5946
 11
-1.78141
 21
-21.2069
  0
LINE
  8
0
 10
-1.78141
 20
-21.2069
 11
-1.57758
 21
-20.8538
  0
LINE
  8
0
 10
-1.57758
 20
-20.8538
 11
-1.3048
 21
-20.5509
  0
LINE
  8
0
 10
-1.3048
 20
-20.5509
 11
-0.974999
 21
-20.3112
  0
LINE
  8
0
 10
-0.974999
 20
-20.3112
 11
-0.602583
 21
-20.1454
  0
LINE
  8
0
 10
-0.602583
 20
-20.1454
 11
-0.20383
 21
-20.0607
  0
LINE
  8
0
 10
-0.20383
 20
-20.0607
 11
0.20383
 21
-20.0607
  0
LINE
  8
0
 10
0.20383
 20
-20.0607
 11
0.602583
 21
-20.1454
  0
LINE
  8
0
 10
0.602583
 20
-20.1454
 11
0.974999
 21
-20.3112
  0
LINE
  8
0
 10
0.974999
 20
-20.3112
 11
1.3048
 21
-20.5509
  0
LINE
  8
0
 10
1.3048
 20
-20.5509
 11
1.57758
 21
-20.8538
  0
LINE
  8
0
 10
1.57758
 20
-20.8538
 11
1.78141
 21
-21.2069
  0
LINE
  8
0
 10
1.78141
 20
-21.2069
 11
1.90739
 21
-21.5946
  0
LINE
  8
0
 10
1.90739
 20
-21.5946
 11
1.95
 21
-22
  0
LINE
  8
0
 10
1.95
 20
-22
 11
1.90739
 21
-22.4054
  0
LINE
  8
0
 10
1.90739
 20
-22.4054
 11
1.78141
 21
-22.7931
  0
LINE
  8
0
 10
1.78141
 20
-22.7931
 11
1.57758
 21
-23.1462
  0
LINE
  8
0
 10
1.57758
 20
-23.1462
 11
1.3048
 21
-23.4491
  0
LINE
  8
0
 10
1.3048
 20
-23.4491
 11
0.974999
 21
-23.6887
  0
LINE
  8
0
 10
0.974999
 20
-23.6887
 11
0.602583
 21
-23.8546
  0
LINE
  8
0
 10
0.602583
 20
-23.8546
 11
0.20383
 21
-23.9393
  0
LINE
  8
0
 10
0.20383
 20
-23.9393
 11
-0.20383
 21
-23.9393
  0
LINE
  8
0
 10
-0.20383
 20
-23.9393
 11
-0.602583
 21
-23.8546
  0
LINE
  8
0
 10
-0.602583
 20
-23.8546
 11
-0.974999
 21
-23.6887
  0
LINE
  8
0
 10
-0.974999
 20
-23.6887
 11
-1.3048
 21
-23.4491
  0
LINE
  8
0
 10
-1.3048
 20
-23.4491
 11
-1.57758
 21
-23.1462
  0
LINE
  8
0
 10
-1.57758
 20
-23.1462
 11
-1.78141
 21
-22.7931
  0
LINE
  8
0
 10
-1.78141
 20
-22.7931
 11
-1.90739
 21
-22.4054
  0
LINE
  8
0
 10
-1.90739
 20
-22.4054
 11
-1.95
 21
-22
  0
LINE
  8
0
 10
-1.95
 20
22
 11
-1.90739
 21
22.4054
  0
LINE
  8
0
 10
-1.90739
 20
22.4054
 11
-1.78141
 21
22.7931
  0
LINE
  8
0
 10
-1.78141
 20
22.7931
 11
-1.57758
 21
23.1462
  0
LINE
  8
0
 10
-1.57758
 20
23.1462
 11
-1.3048
 21
23.4491
  0
LINE
  8
0
 10
-1.3048
 20
23.4491
 11
-0.974999
 21
23.6887
  0
LINE
  8
0
 10
-0.974999
 20
23.6887
 11
-0.602583
 21
23.8546
  0
LINE
  8
0
 10
-0.602583
 20
23.8546
 11
-0.20383
 21
23.9393
  0
LINE
  8
0
 10
-0.20383
 20
23.9393
 11
0.20383
 21
23.9393
  0
LINE
  8
0
 10
0.20383
 20
23.9393
 11
0.602583
 21
23.8546
  0
LINE
  8
0
 10
0.602583
 20
23.8546
 11
0.974999
 21
23.6887
  0
LINE
  8
0
 10
0.974999
 20
23.6887
 11
1.3048
 21
23.4491
  0
LINE
  8
0
 10
1.3048
 20
23.4491
 11
1.57758
 21
23.1462
  0
LINE
  8
0
 10
1.57758
 20
23.1462
 11
1.78141
 21
22.7931
  0
LINE
  8
0
 10
1.78141
 20
22.7931
 11
1.90739
 21
22.4054
  0
LINE
  8
0
 10
1.90739
 20
22.4054
 11
1.95
 21
22
  0
LINE
  8
0
 10
1.95
 20
22
 11
1.90739
 21
21.5946
  0
LINE
  8
0
 10
1.90739
 20
21.5946
 11
1.78141
 21
21.2069
  0
LINE
  8
0
 10
1.78141
 20
21.2069
 11
1.57758
 21
20.8538
  0
LINE
  8
0
 10
1.57758
 20
20.8538
 11
1.3048
 21
20.5509
  0
LINE
  8
0
 10
1.3048
 20
20.5509
 11
0.974999
 21
20.3112
  0
LINE
  8
0
 10
0.974999
 20
20.3112
 11
0.602583
 21
20.1454
  0
LINE
  8
0
 10
0.602583
 20
20.1454
 11
0.20383
 21
20.0607
  0
LINE
  8
0
 10
0.20383
 20
20.0607
 11
-0.20383
 21
20.0607
  0
LINE
  8
0
 10
-0.20383
 20
20.0607
 11
-0.602583
 21
20.1454
  0
LINE
  8
0
 10
-0.602583
 20
20.1454
 11
-0.974999
 21
20.3112
  0
LINE
  8
0
 10
-0.974999
 20
20.3112
 11
-1.3048
 21
20.5509
  0
LINE
  8
0
 10
-1.3048
 20
20.5509
 11
-1.57758
 21
20.8538
  0
LINE
  8
0
 10
-1.57758
 20
20.8538
 11
-1.78141
 21
21.2069
  0
LINE
  8
0
 10
-1.78141
 20
21.2069
 11
-1.90739
 21
21.5946
  0
LINE
  8
0
 10
-1.90739
 20
21.5946
 11
-1.95
 21
22
  0
ENDSEC
  0
SECTION
  2
OBJECTS
  0
DICTIONARY
  0
ENDSEC
  0
EOF
