  0
SECTION
  2
BLOCKS
  0
ENDSEC
  0
SECTION
  2
ENTITIES
  0
LINE
  8
0
 10
-94.52
 20
-97
 11
-94.5196
 21
-97.0042
  0
LINE
  8
0
 10
-94.5196
 20
-97.0042
 11
-94.5183
 21
-97.0081
  0
LINE
  8
0
 10
-94.5183
 20
-97.0081
 11
-94.5162
 21
-97.0118
  0
LINE
  8
0
 10
-94.5162
 20
-97.0118
 11
-94.5134
 21
-97.0149
  0
LINE
  8
0
 10
-94.5134
 20
-97.0149
 11
-94.51
 21
-97.0173
  0
LINE
  8
0
 10
-94.51
 20
-97.0173
 11
-94.5062
 21
-97.019
  0
LINE
  8
0
 10
-94.5062
 20
-97.019
 11
-94.5021
 21
-97.0199
  0
LINE
  8
0
 10
-94.5021
 20
-97.0199
 11
-61.575
 21
-97.0199
  0
LINE
  8
0
 10
-61.575
 20
-97.0199
 11
-61.575
 21
-100
  0
LINE
  8
0
 10
-61.575
 20
-100
 11
-46.575
 21
-100
  0
LINE
  8
0
 10
-46.575
 20
-100
 11
-46.575
 21
-97.0199
  0
LINE
  8
0
 10
-46.575
 20
-97.0199
 11
-7.5
 21
-97.0199
  0
LINE
  8
0
 10
-7.5
 20
-97.0199
 11
-7.5
 21
-100
  0
LINE
  8
0
 10
-7.5
 20
-100
 11
7.5
 21
-100
  0
LINE
  8
0
 10
7.5
 20
-100
 11
7.5
 21
-97.0199
  0
LINE
  8
0
 10
7.5
 20
-97.0199
 11
46.575
 21
-97.0199
  0
LINE
  8
0
 10
46.575
 20
-97.0199
 11
46.575
 21
-100
  0
LINE
  8
0
 10
46.575
 20
-100
 11
61.575
 21
-100
  0
LINE
  8
0
 10
61.575
 20
-100
 11
61.575
 21
-97.0199
  0
LINE
  8
0
 10
61.575
 20
-97.0199
 11
94.5021
 21
-97.0199
  0
LINE
  8
0
 10
94.5021
 20
-97.0199
 11
94.5062
 21
-97.019
  0
LINE
  8
0
 10
94.5062
 20
-97.019
 11
94.51
 21
-97.0173
  0
LINE
  8
0
 10
94.51
 20
-97.0173
 11
94.5134
 21
-97.0149
  0
LINE
  8
0
 10
94.5134
 20
-97.0149
 11
94.5162
 21
-97.0118
  0
LINE
  8
0
 10
94.5162
 20
-97.0118
 11
94.5183
 21
-97.0081
  0
LINE
  8
0
 10
94.5183
 20
-97.0081
 11
94.5196
 21
-97.0042
  0
LINE
  8
0
 10
94.5196
 20
-97.0042
 11
94.52
 21
-97
  0
LINE
  8
0
 10
94.52
 20
-97
 11
94.52
 21
97
  0
LINE
  8
0
 10
94.52
 20
97
 11
94.5196
 21
97.0042
  0
LINE
  8
0
 10
94.5196
 20
97.0042
 11
94.5183
 21
97.0081
  0
LINE
  8
0
 10
94.5183
 20
97.0081
 11
94.5162
 21
97.0118
  0
LINE
  8
0
 10
94.5162
 20
97.0118
 11
94.5134
 21
97.0149
  0
LINE
  8
0
 10
94.5134
 20
97.0149
 11
94.51
 21
97.0173
  0
LINE
  8
0
 10
94.51
 20
97.0173
 11
94.5062
 21
97.019
  0
LINE
  8
0
 10
94.5062
 20
97.019
 11
94.5021
 21
97.0199
  0
LINE
  8
0
 10
94.5021
 20
97.0199
 11
61.575
 21
97.0199
  0
LINE
  8
0
 10
61.575
 20
97.0199
 11
61.575
 21
100
  0
LINE
  8
0
 10
61.575
 20
100
 11
46.575
 21
100
  0
LINE
  8
0
 10
46.575
 20
100
 11
46.575
 21
97.0199
  0
LINE
  8
0
 10
46.575
 20
97.0199
 11
7.5
 21
97.0199
  0
LINE
  8
0
 10
7.5
 20
97.0199
 11
7.5
 21
100
  0
LINE
  8
0
 10
7.5
 20
100
 11
-7.5
 21
100
  0
LINE
  8
0
 10
-7.5
 20
100
 11
-7.5
 21
97.0199
  0
LINE
  8
0
 10
-7.5
 20
97.0199
 11
-46.575
 21
97.0199
  0
LINE
  8
0
 10
-46.575
 20
97.0199
 11
-46.575
 21
100
  0
LINE
  8
0
 10
-46.575
 20
100
 11
-61.575
 21
100
  0
LINE
  8
0
 10
-61.575
 20
100
 11
-61.575
 21
97.0199
  0
LINE
  8
0
 10
-61.575
 20
97.0199
 11
-94.5021
 21
97.0199
  0
LINE
  8
0
 10
-94.5021
 20
97.0199
 11
-94.5062
 21
97.019
  0
LINE
  8
0
 10
-94.5062
 20
97.019
 11
-94.51
 21
97.0173
  0
LINE
  8
0
 10
-94.51
 20
97.0173
 11
-94.5134
 21
97.0149
  0
LINE
  8
0
 10
-94.5134
 20
97.0149
 11
-94.5162
 21
97.0118
  0
LINE
  8
0
 10
-94.5162
 20
97.0118
 11
-94.5183
 21
97.0081
  0
LINE
  8
0
 10
-94.5183
 20
97.0081
 11
-94.5196
 21
97.0042
  0
LINE
  8
0
 10
-94.5196
 20
97.0042
 11
-94.52
 21
97
  0
LINE
  8
0
 10
-94.52
 20
97
 11
-94.52
 21
-97
  0
LINE
  8
0
 10
-83.2
 20
-82.5
 11
-83.2
 21
-67.5
  0
LINE
  8
0
 10
-83.2
 20
-67.5
 11
-80.2
 21
-67.5
  0
LINE
  8
0
 10
-80.2
 20
-67.5
 11
-80.2
 21
-82.5
  0
LINE
  8
0
 10
-80.2
 20
-82.5
 11
-83.2
 21
-82.5
  0
LINE
  8
0
 10
-83.2
 20
-45
 11
-83.2
 21
-30
  0
LINE
  8
0
 10
-83.2
 20
-30
 11
-80.2
 21
-30
  0
LINE
  8
0
 10
-80.2
 20
-30
 11
-80.2
 21
-45
  0
LINE
  8
0
 10
-80.2
 20
-45
 11
-83.2
 21
-45
  0
LINE
  8
0
 10
-83.2
 20
-7.5
 11
-83.2
 21
7.5
  0
LINE
  8
0
 10
-83.2
 20
7.5
 11
-80.2
 21
7.5
  0
LINE
  8
0
 10
-80.2
 20
7.5
 11
-80.2
 21
-7.5
  0
LINE
  8
0
 10
-80.2
 20
-7.5
 11
-83.2
 21
-7.5
  0
LINE
  8
0
 10
-83.2
 20
30
 11
-83.2
 21
45
  0
LINE
  8
0
 10
-83.2
 20
45
 11
-80.2
 21
45
  0
LINE
  8
0
 10
-80.2
 20
45
 11
-80.2
 21
30
  0
LINE
  8
0
 10
-80.2
 20
30
 11
-83.2
 21
30
  0
LINE
  8
0
 10
-83.2
 20
67.5
 11
-83.2
 21
82.5
  0
LINE
  8
0
 10
-83.2
 20
82.5
 11
-80.2
 21
82.5
  0
LINE
  8
0
 10
-80.2
 20
82.5
 11
-80.2
 21
67.5
  0
LINE
  8
0
 10
-80.2
 20
67.5
 11
-83.2
 21
67.5
  0
LINE
  8
0
 10
-61.575
 20
-20.3
 11
-61.575
 21
-14.3
  0
LINE
  8
0
 10
-61.575
 20
-14.3
 11
-46.575
 21
-14.3
  0
LINE
  8
0
 10
-46.575
 20
-14.3
 11
-46.575
 21
-20.3
  0
LINE
  8
0
 10
-46.575
 20
-20.3
 11
-61.575
 21
-20.3
  0
LINE
  8
0
 10
-61.575
 20
14.3
 11
-61.575
 21
20.3
  0
LINE
  8
0
 10
-61.575
 20
20.3
 11
-46.575
 21
20.3
  0
LINE
  8
0
 10
-46.575
 20
20.3
 11
-46.575
 21
14.3
  0
LINE
  8
0
 10
-46.575
 20
14.3
 11
-61.575
 21
14.3
  0
LINE
  8
0
 10
-7.5
 20
-20.3
 11
-7.5
 21
-14.3
  0
LINE
  8
0
 10
-7.5
 20
-14.3
 11
7.5
 21
-14.3
  0
LINE
  8
0
 10
7.5
 20
-14.3
 11
7.5
 21
-20.3
  0
LINE
  8
0
 10
7.5
 20
-20.3
 11
-7.5
 21
-20.3
  0
LINE
  8
0
 10
-7.5
 20
14.3
 11
-7.5
 21
20.3
  0
LINE
  8
0
 10
-7.5
 20
20.3
 11
7.5
 21
20.3
  0
LINE
  8
0
 10
7.5
 20
20.3
 11
7.5
 21
14.3
  0
LINE
  8
0
 10
7.5
 20
14.3
 11
-7.5
 21
14.3
  0
LINE
  8
0
 10
46.575
 20
-20.3
 11
46.575
 21
-14.3
  0
LINE
  8
0
 10
46.575
 20
-14.3
 11
61.575
 21
-14.3
  0
LINE
  8
0
 10
61.575
 20
-14.3
 11
61.575
 21
-20.3
  0
LINE
  8
0
 10
61.575
 20
-20.3
 11
46.575
 21
-20.3
  0
LINE
  8
0
 10
46.575
 20
14.3
 11
46.575
 21
20.3
  0
LINE
  8
0
 10
46.575
 20
20.3
 11
61.575
 21
20.3
  0
LINE
  8
0
 10
61.575
 20
20.3
 11
61.575
 21
14.3
  0
LINE
  8
0
 10
61.575
 20
14.3
 11
46.575
 21
14.3
  0
LINE
  8
0
 10
80.2
 20
-82.5
 11
80.2
 21
-67.5
  0
LINE
  8
0
 10
80.2
 20
-67.5
 11
83.2
 21
-67.5
  0
LINE
  8
0
 10
83.2
 20
-67.5
 11
83.2
 21
-82.5
  0
LINE
  8
0
 10
83.2
 20
-82.5
 11
80.2
 21
-82.5
  0
LINE
  8
0
 10
80.2
 20
-45
 11
80.2
 21
-30
  0
LINE
  8
0
 10
80.2
 20
-30
 11
83.2
 21
-30
  0
LINE
  8
0
 10
83.2
 20
-30
 11
83.2
 21
-45
  0
LINE
  8
0
 10
83.2
 20
-45
 11
80.2
 21
-45
  0
LINE
  8
0
 10
80.2
 20
-7.5
 11
80.2
 21
7.5
  0
LINE
  8
0
 10
80.2
 20
7.5
 11
83.2
 21
7.5
  0
LINE
  8
0
 10
83.2
 20
7.5
 11
83.2
 21
-7.5
  0
LINE
  8
0
 10
83.2
 20
-7.5
 11
80.2
 21
-7.5
  0
LINE
  8
0
 10
80.2
 20
30
 11
80.2
 21
45
  0
LINE
  8
0
 10
80.2
 20
45
 11
83.2
 21
45
  0
LINE
  8
0
 10
83.2
 20
45
 11
83.2
 21
30
  0
LINE
  8
0
 10
83.2
 20
30
 11
80.2
 21
30
  0
LINE
  8
0
 10
80.2
 20
67.5
 11
80.2
 21
82.5
  0
LINE
  8
0
 10
80.2
 20
82.5
 11
83.2
 21
82.5
  0
LINE
  8
0
 10
83.2
 20
82.5
 11
83.2
 21
67.5
  0
LINE
  8
0
 10
83.2
 20
67.5
 11
80.2
 21
67.5
  0
ENDSEC
  0
SECTION
  2
OBJECTS
  0
DICTIONARY
  0
ENDSEC
  0
EOF
