<?xml version="1.0" standalone="no"?>
<!DOCTYPE svg PUBLIC "-//W3C//DTD SVG 1.1//EN" "http://www.w3.org/Graphics/SVG/1.1/DTD/svg11.dtd">
<svg width="18" height="20" viewBox="-9 -10 18 20" xmlns="http://www.w3.org/2000/svg" version="1.1">
<title>OpenSCAD Model</title>
<path d="
M -8.4,9.75 L -7.85782,9.75 L -7.62809,9.52815 L -7.01854,9.01668 L -6.3748,8.54897 L -5.7,8.12731
 L -4.99743,7.75375 L -4.27051,7.4301 L -3.52279,7.15796 L -2.75791,6.93863 L -1.97959,6.77319 L -1.19162,6.66245
 L -0.397854,6.60695 L 0.397854,6.60695 L 1.19162,6.66245 L 1.97959,6.77319 L 2.75791,6.93863 L 3.52279,7.15796
 L 4.27051,7.4301 L 4.99743,7.75375 L 5.7,8.12731 L 6.3748,8.54897 L 7.01854,9.01668 L 7.62809,9.52815
 L 7.85782,9.75 L 8.4,9.75 L 8.4,-9.75 L 7.85782,-9.75 L 7.62809,-9.52815 L 7.01854,-9.01668
 L 6.3748,-8.54897 L 5.7,-8.12731 L 4.99743,-7.75375 L 4.27051,-7.4301 L 3.52279,-7.15796 L 2.75791,-6.93863
 L 1.97959,-6.77319 L 1.19162,-6.66245 L 0.397854,-6.60695 L -0.397854,-6.60695 L -1.19162,-6.66245 L -1.97959,-6.77319
 L -2.75791,-6.93863 L -3.52279,-7.15796 L -4.27051,-7.4301 L -4.99743,-7.75375 L -5.7,-8.12731 L -6.3748,-8.54897
 L -7.01854,-9.01668 L -7.62809,-9.52815 L -7.85782,-9.75 L -8.4,-9.75 z
M -3.09811,0.108188 L -3.09811,-0.108188 L -3.08302,-0.324038 L -3.0529,-0.538309 L -3.00792,-0.749957 L -2.94827,-0.957952
 L -2.87427,-1.16128 L -2.78626,-1.35895 L -2.68468,-1.55 L -2.57002,-1.7335 L -2.44283,-1.90855 L -2.30375,-2.0743
 L -2.15344,-2.22995 L -1.99264,-2.37474 L -1.82213,-2.50795 L -1.64275,-2.62895 L -1.45536,-2.73714 L -1.26088,-2.83199
 L -1.06026,-2.91305 L -0.854475,-2.97991 L -0.644526,-3.03226 L -0.431437,-3.06983 L -0.216245,-3.09245 L 0,-3.1
 L 0.216245,-3.09245 L 0.431437,-3.06983 L 0.644526,-3.03226 L 0.854475,-2.97991 L 1.06026,-2.91305 L 1.26088,-2.83199
 L 1.45536,-2.73714 L 1.64275,-2.62895 L 1.82213,-2.50795 L 1.99264,-2.37474 L 2.15344,-2.22995 L 2.30375,-2.0743
 L 2.44283,-1.90855 L 2.57002,-1.7335 L 2.68468,-1.55 L 2.78626,-1.35895 L 2.87427,-1.16128 L 2.94827,-0.957952
 L 3.00792,-0.749957 L 3.0529,-0.538309 L 3.08302,-0.324038 L 3.09811,-0.108188 L 3.09811,0.108188 L 3.08302,0.324038
 L 3.0529,0.538309 L 3.00792,0.749957 L 2.94827,0.957952 L 2.87427,1.16128 L 2.78626,1.35895 L 2.68468,1.55
 L 2.57002,1.7335 L 2.44283,1.90855 L 2.30375,2.0743 L 2.15344,2.22995 L 1.99264,2.37474 L 1.82213,2.50795
 L 1.64275,2.62895 L 1.45536,2.73714 L 1.26088,2.83199 L 1.06026,2.91305 L 0.854475,2.97991 L 0.644526,3.03226
 L 0.431437,3.06983 L 0.216245,3.09245 L 0,3.1 L -0.216245,3.09245 L -0.431437,3.06983 L -0.644526,3.03226
 L -0.854475,2.97991 L -1.06026,2.91305 L -1.26088,2.83199 L -1.45536,2.73714 L -1.64275,2.62895 L -1.82213,2.50795
 L -1.99264,2.37474 L -2.15344,2.22995 L -2.30375,2.0743 L -2.44283,1.90855 L -2.57002,1.7335 L -2.68468,1.55
 L -2.78626,1.35895 L -2.87427,1.16128 L -2.94827,0.957952 L -3.00792,0.749957 L -3.0529,0.538309 L -3.08302,0.324038
 z
" stroke="black" fill="lightgray" stroke-width="0.5"/></svg>
