  0
SECTION
  2
BLOCKS
  0
ENDSEC
  0
SECTION
  2
ENTITIES
  0
LINE
  8
0
 10
-33.8
 20
0
 11
-33.7713
 21
-0.823126
  0
LINE
  8
0
 10
-33.7713
 20
-0.823126
 11
-33.6852
 21
-1.64224
  0
LINE
  8
0
 10
-33.6852
 20
-1.64224
 11
-33.5421
 21
-2.45336
  0
LINE
  8
0
 10
-33.5421
 20
-2.45336
 11
-33.3429
 21
-3.25252
  0
LINE
  8
0
 10
-33.3429
 20
-3.25252
 11
-33.0884
 21
-4.03584
  0
LINE
  8
0
 10
-33.0884
 20
-4.03584
 11
-32.7798
 21
-4.79949
  0
LINE
  8
0
 10
-32.7798
 20
-4.79949
 11
-32.4188
 21
-5.53976
  0
LINE
  8
0
 10
-32.4188
 20
-5.53976
 11
-32.007
 21
-6.25305
  0
LINE
  8
0
 10
-32.007
 20
-6.25305
 11
-31.5464
 21
-6.93587
  0
LINE
  8
0
 10
-31.5464
 20
-6.93587
 11
-31.0393
 21
-7.58489
  0
LINE
  8
0
 10
-31.0393
 20
-7.58489
 11
-30.4882
 21
-8.19697
  0
LINE
  8
0
 10
-30.4882
 20
-8.19697
 11
-29.8957
 21
-8.76911
  0
LINE
  8
0
 10
-29.8957
 20
-8.76911
 11
-29.2648
 21
-9.29853
  0
LINE
  8
0
 10
-29.2648
 20
-9.29853
 11
-28.5985
 21
-9.78264
  0
LINE
  8
0
 10
-28.5985
 20
-9.78264
 11
-27.9
 21
-10.2191
  0
LINE
  8
0
 10
-27.9
 20
-10.2191
 11
-27.1728
 21
-10.6058
  0
LINE
  8
0
 10
-27.1728
 20
-10.6058
 11
-26.4204
 21
-10.9408
  0
LINE
  8
0
 10
-26.4204
 20
-10.9408
 11
-25.6464
 21
-11.2225
  0
LINE
  8
0
 10
-25.6464
 20
-11.2225
 11
-24.8547
 21
-11.4495
  0
LINE
  8
0
 10
-24.8547
 20
-11.4495
 11
-24.049
 21
-11.6207
  0
LINE
  8
0
 10
-24.049
 20
-11.6207
 11
-23.2334
 21
-11.7354
  0
LINE
  8
0
 10
-23.2334
 20
-11.7354
 11
-22.4118
 21
-11.7928
  0
LINE
  8
0
 10
-22.4118
 20
-11.7928
 11
-18.4557
 21
-11.7928
  0
LINE
  8
0
 10
-18.4557
 20
-11.7928
 11
-18.0171
 21
-11.5596
  0
LINE
  8
0
 10
-18.0171
 20
-11.5596
 11
-15.3963
 21
-10.3927
  0
LINE
  8
0
 10
-15.3963
 20
-10.3927
 11
-12.7006
 21
-9.41158
  0
LINE
  8
0
 10
-12.7006
 20
-9.41158
 11
-9.94299
 21
-8.62084
  0
LINE
  8
0
 10
-9.94299
 20
-8.62084
 11
-7.13694
 21
-8.0244
  0
LINE
  8
0
 10
-7.13694
 20
-8.0244
 11
-4.29612
 21
-7.62515
  0
LINE
  8
0
 10
-4.29612
 20
-7.62515
 11
-1.43437
 21
-7.42504
  0
LINE
  8
0
 10
-1.43437
 20
-7.42504
 11
1.43437
 21
-7.42504
  0
LINE
  8
0
 10
1.43437
 20
-7.42504
 11
4.29612
 21
-7.62515
  0
LINE
  8
0
 10
4.29612
 20
-7.62515
 11
7.13694
 21
-8.0244
  0
LINE
  8
0
 10
7.13694
 20
-8.0244
 11
9.94299
 21
-8.62084
  0
LINE
  8
0
 10
9.94299
 20
-8.62084
 11
12.7006
 21
-9.41158
  0
LINE
  8
0
 10
12.7006
 20
-9.41158
 11
15.3963
 21
-10.3927
  0
LINE
  8
0
 10
15.3963
 20
-10.3927
 11
18.0171
 21
-11.5596
  0
LINE
  8
0
 10
18.0171
 20
-11.5596
 11
18.4557
 21
-11.7928
  0
LINE
  8
0
 10
18.4557
 20
-11.7928
 11
22.4118
 21
-11.7928
  0
LINE
  8
0
 10
22.4118
 20
-11.7928
 11
23.2334
 21
-11.7354
  0
LINE
  8
0
 10
23.2334
 20
-11.7354
 11
24.049
 21
-11.6207
  0
LINE
  8
0
 10
24.049
 20
-11.6207
 11
24.8547
 21
-11.4495
  0
LINE
  8
0
 10
24.8547
 20
-11.4495
 11
25.6464
 21
-11.2225
  0
LINE
  8
0
 10
25.6464
 20
-11.2225
 11
26.4204
 21
-10.9408
  0
LINE
  8
0
 10
26.4204
 20
-10.9408
 11
27.1728
 21
-10.6058
  0
LINE
  8
0
 10
27.1728
 20
-10.6058
 11
27.9
 21
-10.2191
  0
LINE
  8
0
 10
27.9
 20
-10.2191
 11
28.5985
 21
-9.78264
  0
LINE
  8
0
 10
28.5985
 20
-9.78264
 11
29.2648
 21
-9.29853
  0
LINE
  8
0
 10
29.2648
 20
-9.29853
 11
29.8957
 21
-8.76911
  0
LINE
  8
0
 10
29.8957
 20
-8.76911
 11
30.4882
 21
-8.19697
  0
LINE
  8
0
 10
30.4882
 20
-8.19697
 11
31.0393
 21
-7.58489
  0
LINE
  8
0
 10
31.0393
 20
-7.58489
 11
31.5464
 21
-6.93587
  0
LINE
  8
0
 10
31.5464
 20
-6.93587
 11
32.007
 21
-6.25305
  0
LINE
  8
0
 10
32.007
 20
-6.25305
 11
32.4188
 21
-5.53976
  0
LINE
  8
0
 10
32.4188
 20
-5.53976
 11
32.7798
 21
-4.79949
  0
LINE
  8
0
 10
32.7798
 20
-4.79949
 11
33.0884
 21
-4.03584
  0
LINE
  8
0
 10
33.0884
 20
-4.03584
 11
33.3429
 21
-3.25252
  0
LINE
  8
0
 10
33.3429
 20
-3.25252
 11
33.5421
 21
-2.45336
  0
LINE
  8
0
 10
33.5421
 20
-2.45336
 11
33.6852
 21
-1.64224
  0
LINE
  8
0
 10
33.6852
 20
-1.64224
 11
33.7713
 21
-0.823126
  0
LINE
  8
0
 10
33.7713
 20
-0.823126
 11
33.8
 21
0
  0
LINE
  8
0
 10
33.8
 20
0
 11
33.7713
 21
0.823126
  0
LINE
  8
0
 10
33.7713
 20
0.823126
 11
33.6852
 21
1.64224
  0
LINE
  8
0
 10
33.6852
 20
1.64224
 11
33.5421
 21
2.45336
  0
LINE
  8
0
 10
33.5421
 20
2.45336
 11
33.3429
 21
3.25252
  0
LINE
  8
0
 10
33.3429
 20
3.25252
 11
33.0884
 21
4.03584
  0
LINE
  8
0
 10
33.0884
 20
4.03584
 11
32.7798
 21
4.79949
  0
LINE
  8
0
 10
32.7798
 20
4.79949
 11
32.4188
 21
5.53976
  0
LINE
  8
0
 10
32.4188
 20
5.53976
 11
32.007
 21
6.25305
  0
LINE
  8
0
 10
32.007
 20
6.25305
 11
31.5464
 21
6.93587
  0
LINE
  8
0
 10
31.5464
 20
6.93587
 11
31.0393
 21
7.58489
  0
LINE
  8
0
 10
31.0393
 20
7.58489
 11
30.4882
 21
8.19697
  0
LINE
  8
0
 10
30.4882
 20
8.19697
 11
29.8957
 21
8.76911
  0
LINE
  8
0
 10
29.8957
 20
8.76911
 11
29.2648
 21
9.29853
  0
LINE
  8
0
 10
29.2648
 20
9.29853
 11
28.5985
 21
9.78264
  0
LINE
  8
0
 10
28.5985
 20
9.78264
 11
27.9
 21
10.2191
  0
LINE
  8
0
 10
27.9
 20
10.2191
 11
27.1728
 21
10.6058
  0
LINE
  8
0
 10
27.1728
 20
10.6058
 11
26.4204
 21
10.9408
  0
LINE
  8
0
 10
26.4204
 20
10.9408
 11
25.6464
 21
11.2225
  0
LINE
  8
0
 10
25.6464
 20
11.2225
 11
24.8547
 21
11.4495
  0
LINE
  8
0
 10
24.8547
 20
11.4495
 11
24.049
 21
11.6207
  0
LINE
  8
0
 10
24.049
 20
11.6207
 11
23.2334
 21
11.7354
  0
LINE
  8
0
 10
23.2334
 20
11.7354
 11
22.4118
 21
11.7928
  0
LINE
  8
0
 10
22.4118
 20
11.7928
 11
18.4557
 21
11.7928
  0
LINE
  8
0
 10
18.4557
 20
11.7928
 11
18.0171
 21
11.5596
  0
LINE
  8
0
 10
18.0171
 20
11.5596
 11
15.3963
 21
10.3927
  0
LINE
  8
0
 10
15.3963
 20
10.3927
 11
12.7006
 21
9.41158
  0
LINE
  8
0
 10
12.7006
 20
9.41158
 11
9.94299
 21
8.62084
  0
LINE
  8
0
 10
9.94299
 20
8.62084
 11
7.13694
 21
8.0244
  0
LINE
  8
0
 10
7.13694
 20
8.0244
 11
4.29612
 21
7.62515
  0
LINE
  8
0
 10
4.29612
 20
7.62515
 11
1.43437
 21
7.42504
  0
LINE
  8
0
 10
1.43437
 20
7.42504
 11
-1.43437
 21
7.42504
  0
LINE
  8
0
 10
-1.43437
 20
7.42504
 11
-4.29612
 21
7.62515
  0
LINE
  8
0
 10
-4.29612
 20
7.62515
 11
-7.13694
 21
8.0244
  0
LINE
  8
0
 10
-7.13694
 20
8.0244
 11
-9.94299
 21
8.62084
  0
LINE
  8
0
 10
-9.94299
 20
8.62084
 11
-12.7006
 21
9.41158
  0
LINE
  8
0
 10
-12.7006
 20
9.41158
 11
-15.3963
 21
10.3927
  0
LINE
  8
0
 10
-15.3963
 20
10.3927
 11
-18.0171
 21
11.5596
  0
LINE
  8
0
 10
-18.0171
 20
11.5596
 11
-18.4557
 21
11.7928
  0
LINE
  8
0
 10
-18.4557
 20
11.7928
 11
-22.4118
 21
11.7928
  0
LINE
  8
0
 10
-22.4118
 20
11.7928
 11
-23.2334
 21
11.7354
  0
LINE
  8
0
 10
-23.2334
 20
11.7354
 11
-24.049
 21
11.6207
  0
LINE
  8
0
 10
-24.049
 20
11.6207
 11
-24.8547
 21
11.4495
  0
LINE
  8
0
 10
-24.8547
 20
11.4495
 11
-25.6464
 21
11.2225
  0
LINE
  8
0
 10
-25.6464
 20
11.2225
 11
-26.4204
 21
10.9408
  0
LINE
  8
0
 10
-26.4204
 20
10.9408
 11
-27.1728
 21
10.6058
  0
LINE
  8
0
 10
-27.1728
 20
10.6058
 11
-27.9
 21
10.2191
  0
LINE
  8
0
 10
-27.9
 20
10.2191
 11
-28.5985
 21
9.78264
  0
LINE
  8
0
 10
-28.5985
 20
9.78264
 11
-29.2648
 21
9.29853
  0
LINE
  8
0
 10
-29.2648
 20
9.29853
 11
-29.8957
 21
8.76911
  0
LINE
  8
0
 10
-29.8957
 20
8.76911
 11
-30.4882
 21
8.19697
  0
LINE
  8
0
 10
-30.4882
 20
8.19697
 11
-31.0393
 21
7.58489
  0
LINE
  8
0
 10
-31.0393
 20
7.58489
 11
-31.5464
 21
6.93587
  0
LINE
  8
0
 10
-31.5464
 20
6.93587
 11
-32.007
 21
6.25305
  0
LINE
  8
0
 10
-32.007
 20
6.25305
 11
-32.4188
 21
5.53976
  0
LINE
  8
0
 10
-32.4188
 20
5.53976
 11
-32.7798
 21
4.79949
  0
LINE
  8
0
 10
-32.7798
 20
4.79949
 11
-33.0884
 21
4.03584
  0
LINE
  8
0
 10
-33.0884
 20
4.03584
 11
-33.3429
 21
3.25252
  0
LINE
  8
0
 10
-33.3429
 20
3.25252
 11
-33.5421
 21
2.45336
  0
LINE
  8
0
 10
-33.5421
 20
2.45336
 11
-33.6852
 21
1.64224
  0
LINE
  8
0
 10
-33.6852
 20
1.64224
 11
-33.7713
 21
0.823126
  0
LINE
  8
0
 10
-33.7713
 20
0.823126
 11
-33.8
 21
0
  0
LINE
  8
0
 10
-25.8
 20
0
 11
-25.7907
 21
0.265074
  0
LINE
  8
0
 10
-25.7907
 20
0.265074
 11
-25.763
 21
0.528857
  0
LINE
  8
0
 10
-25.763
 20
0.528857
 11
-25.717
 21
0.790064
  0
LINE
  8
0
 10
-25.717
 20
0.790064
 11
-25.6528
 21
1.04742
  0
LINE
  8
0
 10
-25.6528
 20
1.04742
 11
-25.5708
 21
1.29968
  0
LINE
  8
0
 10
-25.5708
 20
1.29968
 11
-25.4715
 21
1.5456
  0
LINE
  8
0
 10
-25.4715
 20
1.5456
 11
-25.3552
 21
1.78399
  0
LINE
  8
0
 10
-25.3552
 20
1.78399
 11
-25.2226
 21
2.01369
  0
LINE
  8
0
 10
-25.2226
 20
2.01369
 11
-25.0743
 21
2.23358
  0
LINE
  8
0
 10
-25.0743
 20
2.23358
 11
-24.911
 21
2.44259
  0
LINE
  8
0
 10
-24.911
 20
2.44259
 11
-24.7335
 21
2.6397
  0
LINE
  8
0
 10
-24.7335
 20
2.6397
 11
-24.5427
 21
2.82395
  0
LINE
  8
0
 10
-24.5427
 20
2.82395
 11
-24.3395
 21
2.99444
  0
LINE
  8
0
 10
-24.3395
 20
2.99444
 11
-24.1249
 21
3.15034
  0
LINE
  8
0
 10
-24.1249
 20
3.15034
 11
-23.9
 21
3.2909
  0
LINE
  8
0
 10
-23.9
 20
3.2909
 11
-23.6658
 21
3.41542
  0
LINE
  8
0
 10
-23.6658
 20
3.41542
 11
-23.4235
 21
3.5233
  0
LINE
  8
0
 10
-23.4235
 20
3.5233
 11
-23.1743
 21
3.61401
  0
LINE
  8
0
 10
-23.1743
 20
3.61401
 11
-22.9193
 21
3.68712
  0
LINE
  8
0
 10
-22.9193
 20
3.68712
 11
-22.6599
 21
3.74227
  0
LINE
  8
0
 10
-22.6599
 20
3.74227
 11
-22.3972
 21
3.77918
  0
LINE
  8
0
 10
-22.3972
 20
3.77918
 11
-22.1326
 21
3.79768
  0
LINE
  8
0
 10
-22.1326
 20
3.79768
 11
-21.8674
 21
3.79768
  0
LINE
  8
0
 10
-21.8674
 20
3.79768
 11
-21.6028
 21
3.77918
  0
LINE
  8
0
 10
-21.6028
 20
3.77918
 11
-21.3401
 21
3.74227
  0
LINE
  8
0
 10
-21.3401
 20
3.74227
 11
-21.0807
 21
3.68712
  0
LINE
  8
0
 10
-21.0807
 20
3.68712
 11
-20.8257
 21
3.61401
  0
LINE
  8
0
 10
-20.8257
 20
3.61401
 11
-20.5765
 21
3.5233
  0
LINE
  8
0
 10
-20.5765
 20
3.5233
 11
-20.3342
 21
3.41542
  0
LINE
  8
0
 10
-20.3342
 20
3.41542
 11
-20.1
 21
3.2909
  0
LINE
  8
0
 10
-20.1
 20
3.2909
 11
-19.8751
 21
3.15034
  0
LINE
  8
0
 10
-19.8751
 20
3.15034
 11
-19.6605
 21
2.99444
  0
LINE
  8
0
 10
-19.6605
 20
2.99444
 11
-19.4573
 21
2.82395
  0
LINE
  8
0
 10
-19.4573
 20
2.82395
 11
-19.2665
 21
2.6397
  0
LINE
  8
0
 10
-19.2665
 20
2.6397
 11
-19.089
 21
2.44259
  0
LINE
  8
0
 10
-19.089
 20
2.44259
 11
-18.9257
 21
2.23358
  0
LINE
  8
0
 10
-18.9257
 20
2.23358
 11
-18.7774
 21
2.01369
  0
LINE
  8
0
 10
-18.7774
 20
2.01369
 11
-18.6448
 21
1.78399
  0
LINE
  8
0
 10
-18.6448
 20
1.78399
 11
-18.5285
 21
1.5456
  0
LINE
  8
0
 10
-18.5285
 20
1.5456
 11
-18.4292
 21
1.29968
  0
LINE
  8
0
 10
-18.4292
 20
1.29968
 11
-18.3472
 21
1.04742
  0
LINE
  8
0
 10
-18.3472
 20
1.04742
 11
-18.283
 21
0.790064
  0
LINE
  8
0
 10
-18.283
 20
0.790064
 11
-18.237
 21
0.528857
  0
LINE
  8
0
 10
-18.237
 20
0.528857
 11
-18.2093
 21
0.265074
  0
LINE
  8
0
 10
-18.2093
 20
0.265074
 11
-18.2
 21
0
  0
LINE
  8
0
 10
-18.2
 20
0
 11
-18.2093
 21
-0.265074
  0
LINE
  8
0
 10
-18.2093
 20
-0.265074
 11
-18.237
 21
-0.528857
  0
LINE
  8
0
 10
-18.237
 20
-0.528857
 11
-18.283
 21
-0.790064
  0
LINE
  8
0
 10
-18.283
 20
-0.790064
 11
-18.3472
 21
-1.04742
  0
LINE
  8
0
 10
-18.3472
 20
-1.04742
 11
-18.4292
 21
-1.29968
  0
LINE
  8
0
 10
-18.4292
 20
-1.29968
 11
-18.5285
 21
-1.5456
  0
LINE
  8
0
 10
-18.5285
 20
-1.5456
 11
-18.6448
 21
-1.78399
  0
LINE
  8
0
 10
-18.6448
 20
-1.78399
 11
-18.7774
 21
-2.01369
  0
LINE
  8
0
 10
-18.7774
 20
-2.01369
 11
-18.9257
 21
-2.23358
  0
LINE
  8
0
 10
-18.9257
 20
-2.23358
 11
-19.089
 21
-2.44259
  0
LINE
  8
0
 10
-19.089
 20
-2.44259
 11
-19.2665
 21
-2.6397
  0
LINE
  8
0
 10
-19.2665
 20
-2.6397
 11
-19.4573
 21
-2.82395
  0
LINE
  8
0
 10
-19.4573
 20
-2.82395
 11
-19.6605
 21
-2.99444
  0
LINE
  8
0
 10
-19.6605
 20
-2.99444
 11
-19.8751
 21
-3.15034
  0
LINE
  8
0
 10
-19.8751
 20
-3.15034
 11
-20.1
 21
-3.2909
  0
LINE
  8
0
 10
-20.1
 20
-3.2909
 11
-20.3342
 21
-3.41542
  0
LINE
  8
0
 10
-20.3342
 20
-3.41542
 11
-20.5765
 21
-3.5233
  0
LINE
  8
0
 10
-20.5765
 20
-3.5233
 11
-20.8257
 21
-3.61401
  0
LINE
  8
0
 10
-20.8257
 20
-3.61401
 11
-21.0807
 21
-3.68712
  0
LINE
  8
0
 10
-21.0807
 20
-3.68712
 11
-21.3401
 21
-3.74227
  0
LINE
  8
0
 10
-21.3401
 20
-3.74227
 11
-21.6028
 21
-3.77918
  0
LINE
  8
0
 10
-21.6028
 20
-3.77918
 11
-21.8674
 21
-3.79768
  0
LINE
  8
0
 10
-21.8674
 20
-3.79768
 11
-22.1326
 21
-3.79768
  0
LINE
  8
0
 10
-22.1326
 20
-3.79768
 11
-22.3972
 21
-3.77918
  0
LINE
  8
0
 10
-22.3972
 20
-3.77918
 11
-22.6599
 21
-3.74227
  0
LINE
  8
0
 10
-22.6599
 20
-3.74227
 11
-22.9193
 21
-3.68712
  0
LINE
  8
0
 10
-22.9193
 20
-3.68712
 11
-23.1743
 21
-3.61401
  0
LINE
  8
0
 10
-23.1743
 20
-3.61401
 11
-23.4235
 21
-3.5233
  0
LINE
  8
0
 10
-23.4235
 20
-3.5233
 11
-23.6658
 21
-3.41542
  0
LINE
  8
0
 10
-23.6658
 20
-3.41542
 11
-23.9
 21
-3.2909
  0
LINE
  8
0
 10
-23.9
 20
-3.2909
 11
-24.1249
 21
-3.15034
  0
LINE
  8
0
 10
-24.1249
 20
-3.15034
 11
-24.3395
 21
-2.99444
  0
LINE
  8
0
 10
-24.3395
 20
-2.99444
 11
-24.5427
 21
-2.82395
  0
LINE
  8
0
 10
-24.5427
 20
-2.82395
 11
-24.7335
 21
-2.6397
  0
LINE
  8
0
 10
-24.7335
 20
-2.6397
 11
-24.911
 21
-2.44259
  0
LINE
  8
0
 10
-24.911
 20
-2.44259
 11
-25.0743
 21
-2.23358
  0
LINE
  8
0
 10
-25.0743
 20
-2.23358
 11
-25.2226
 21
-2.01369
  0
LINE
  8
0
 10
-25.2226
 20
-2.01369
 11
-25.3552
 21
-1.78399
  0
LINE
  8
0
 10
-25.3552
 20
-1.78399
 11
-25.4715
 21
-1.5456
  0
LINE
  8
0
 10
-25.4715
 20
-1.5456
 11
-25.5708
 21
-1.29968
  0
LINE
  8
0
 10
-25.5708
 20
-1.29968
 11
-25.6528
 21
-1.04742
  0
LINE
  8
0
 10
-25.6528
 20
-1.04742
 11
-25.717
 21
-0.790064
  0
LINE
  8
0
 10
-25.717
 20
-0.790064
 11
-25.763
 21
-0.528857
  0
LINE
  8
0
 10
-25.763
 20
-0.528857
 11
-25.7907
 21
-0.265074
  0
LINE
  8
0
 10
-25.7907
 20
-0.265074
 11
-25.8
 21
0
  0
LINE
  8
0
 10
18.2
 20
0
 11
18.2093
 21
0.265074
  0
LINE
  8
0
 10
18.2093
 20
0.265074
 11
18.237
 21
0.528857
  0
LINE
  8
0
 10
18.237
 20
0.528857
 11
18.283
 21
0.790064
  0
LINE
  8
0
 10
18.283
 20
0.790064
 11
18.3472
 21
1.04742
  0
LINE
  8
0
 10
18.3472
 20
1.04742
 11
18.4292
 21
1.29968
  0
LINE
  8
0
 10
18.4292
 20
1.29968
 11
18.5285
 21
1.5456
  0
LINE
  8
0
 10
18.5285
 20
1.5456
 11
18.6448
 21
1.78399
  0
LINE
  8
0
 10
18.6448
 20
1.78399
 11
18.7774
 21
2.01369
  0
LINE
  8
0
 10
18.7774
 20
2.01369
 11
18.9257
 21
2.23358
  0
LINE
  8
0
 10
18.9257
 20
2.23358
 11
19.089
 21
2.44259
  0
LINE
  8
0
 10
19.089
 20
2.44259
 11
19.2665
 21
2.6397
  0
LINE
  8
0
 10
19.2665
 20
2.6397
 11
19.4573
 21
2.82395
  0
LINE
  8
0
 10
19.4573
 20
2.82395
 11
19.6605
 21
2.99444
  0
LINE
  8
0
 10
19.6605
 20
2.99444
 11
19.8751
 21
3.15034
  0
LINE
  8
0
 10
19.8751
 20
3.15034
 11
20.1
 21
3.2909
  0
LINE
  8
0
 10
20.1
 20
3.2909
 11
20.3342
 21
3.41542
  0
LINE
  8
0
 10
20.3342
 20
3.41542
 11
20.5765
 21
3.5233
  0
LINE
  8
0
 10
20.5765
 20
3.5233
 11
20.8257
 21
3.61401
  0
LINE
  8
0
 10
20.8257
 20
3.61401
 11
21.0807
 21
3.68712
  0
LINE
  8
0
 10
21.0807
 20
3.68712
 11
21.3401
 21
3.74227
  0
LINE
  8
0
 10
21.3401
 20
3.74227
 11
21.6028
 21
3.77918
  0
LINE
  8
0
 10
21.6028
 20
3.77918
 11
21.8674
 21
3.79768
  0
LINE
  8
0
 10
21.8674
 20
3.79768
 11
22.1326
 21
3.79768
  0
LINE
  8
0
 10
22.1326
 20
3.79768
 11
22.3972
 21
3.77918
  0
LINE
  8
0
 10
22.3972
 20
3.77918
 11
22.6599
 21
3.74227
  0
LINE
  8
0
 10
22.6599
 20
3.74227
 11
22.9193
 21
3.68712
  0
LINE
  8
0
 10
22.9193
 20
3.68712
 11
23.1743
 21
3.61401
  0
LINE
  8
0
 10
23.1743
 20
3.61401
 11
23.4235
 21
3.5233
  0
LINE
  8
0
 10
23.4235
 20
3.5233
 11
23.6658
 21
3.41542
  0
LINE
  8
0
 10
23.6658
 20
3.41542
 11
23.9
 21
3.2909
  0
LINE
  8
0
 10
23.9
 20
3.2909
 11
24.1249
 21
3.15034
  0
LINE
  8
0
 10
24.1249
 20
3.15034
 11
24.3395
 21
2.99444
  0
LINE
  8
0
 10
24.3395
 20
2.99444
 11
24.5427
 21
2.82395
  0
LINE
  8
0
 10
24.5427
 20
2.82395
 11
24.7335
 21
2.6397
  0
LINE
  8
0
 10
24.7335
 20
2.6397
 11
24.911
 21
2.44259
  0
LINE
  8
0
 10
24.911
 20
2.44259
 11
25.0743
 21
2.23358
  0
LINE
  8
0
 10
25.0743
 20
2.23358
 11
25.2226
 21
2.01369
  0
LINE
  8
0
 10
25.2226
 20
2.01369
 11
25.3552
 21
1.78399
  0
LINE
  8
0
 10
25.3552
 20
1.78399
 11
25.4715
 21
1.5456
  0
LINE
  8
0
 10
25.4715
 20
1.5456
 11
25.5708
 21
1.29968
  0
LINE
  8
0
 10
25.5708
 20
1.29968
 11
25.6528
 21
1.04742
  0
LINE
  8
0
 10
25.6528
 20
1.04742
 11
25.717
 21
0.790064
  0
LINE
  8
0
 10
25.717
 20
0.790064
 11
25.763
 21
0.528857
  0
LINE
  8
0
 10
25.763
 20
0.528857
 11
25.7907
 21
0.265074
  0
LINE
  8
0
 10
25.7907
 20
0.265074
 11
25.8
 21
0
  0
LINE
  8
0
 10
25.8
 20
0
 11
25.7907
 21
-0.265074
  0
LINE
  8
0
 10
25.7907
 20
-0.265074
 11
25.763
 21
-0.528857
  0
LINE
  8
0
 10
25.763
 20
-0.528857
 11
25.717
 21
-0.790064
  0
LINE
  8
0
 10
25.717
 20
-0.790064
 11
25.6528
 21
-1.04742
  0
LINE
  8
0
 10
25.6528
 20
-1.04742
 11
25.5708
 21
-1.29968
  0
LINE
  8
0
 10
25.5708
 20
-1.29968
 11
25.4715
 21
-1.5456
  0
LINE
  8
0
 10
25.4715
 20
-1.5456
 11
25.3552
 21
-1.78399
  0
LINE
  8
0
 10
25.3552
 20
-1.78399
 11
25.2226
 21
-2.01369
  0
LINE
  8
0
 10
25.2226
 20
-2.01369
 11
25.0743
 21
-2.23358
  0
LINE
  8
0
 10
25.0743
 20
-2.23358
 11
24.911
 21
-2.44259
  0
LINE
  8
0
 10
24.911
 20
-2.44259
 11
24.7335
 21
-2.6397
  0
LINE
  8
0
 10
24.7335
 20
-2.6397
 11
24.5427
 21
-2.82395
  0
LINE
  8
0
 10
24.5427
 20
-2.82395
 11
24.3395
 21
-2.99444
  0
LINE
  8
0
 10
24.3395
 20
-2.99444
 11
24.1249
 21
-3.15034
  0
LINE
  8
0
 10
24.1249
 20
-3.15034
 11
23.9
 21
-3.2909
  0
LINE
  8
0
 10
23.9
 20
-3.2909
 11
23.6658
 21
-3.41542
  0
LINE
  8
0
 10
23.6658
 20
-3.41542
 11
23.4235
 21
-3.5233
  0
LINE
  8
0
 10
23.4235
 20
-3.5233
 11
23.1743
 21
-3.61401
  0
LINE
  8
0
 10
23.1743
 20
-3.61401
 11
22.9193
 21
-3.68712
  0
LINE
  8
0
 10
22.9193
 20
-3.68712
 11
22.6599
 21
-3.74227
  0
LINE
  8
0
 10
22.6599
 20
-3.74227
 11
22.3972
 21
-3.77918
  0
LINE
  8
0
 10
22.3972
 20
-3.77918
 11
22.1326
 21
-3.79768
  0
LINE
  8
0
 10
22.1326
 20
-3.79768
 11
21.8674
 21
-3.79768
  0
LINE
  8
0
 10
21.8674
 20
-3.79768
 11
21.6028
 21
-3.77918
  0
LINE
  8
0
 10
21.6028
 20
-3.77918
 11
21.3401
 21
-3.74227
  0
LINE
  8
0
 10
21.3401
 20
-3.74227
 11
21.0807
 21
-3.68712
  0
LINE
  8
0
 10
21.0807
 20
-3.68712
 11
20.8257
 21
-3.61401
  0
LINE
  8
0
 10
20.8257
 20
-3.61401
 11
20.5765
 21
-3.5233
  0
LINE
  8
0
 10
20.5765
 20
-3.5233
 11
20.3342
 21
-3.41542
  0
LINE
  8
0
 10
20.3342
 20
-3.41542
 11
20.1
 21
-3.2909
  0
LINE
  8
0
 10
20.1
 20
-3.2909
 11
19.8751
 21
-3.15034
  0
LINE
  8
0
 10
19.8751
 20
-3.15034
 11
19.6605
 21
-2.99444
  0
LINE
  8
0
 10
19.6605
 20
-2.99444
 11
19.4573
 21
-2.82395
  0
LINE
  8
0
 10
19.4573
 20
-2.82395
 11
19.2665
 21
-2.6397
  0
LINE
  8
0
 10
19.2665
 20
-2.6397
 11
19.089
 21
-2.44259
  0
LINE
  8
0
 10
19.089
 20
-2.44259
 11
18.9257
 21
-2.23358
  0
LINE
  8
0
 10
18.9257
 20
-2.23358
 11
18.7774
 21
-2.01369
  0
LINE
  8
0
 10
18.7774
 20
-2.01369
 11
18.6448
 21
-1.78399
  0
LINE
  8
0
 10
18.6448
 20
-1.78399
 11
18.5285
 21
-1.5456
  0
LINE
  8
0
 10
18.5285
 20
-1.5456
 11
18.4292
 21
-1.29968
  0
LINE
  8
0
 10
18.4292
 20
-1.29968
 11
18.3472
 21
-1.04742
  0
LINE
  8
0
 10
18.3472
 20
-1.04742
 11
18.283
 21
-0.790064
  0
LINE
  8
0
 10
18.283
 20
-0.790064
 11
18.237
 21
-0.528857
  0
LINE
  8
0
 10
18.237
 20
-0.528857
 11
18.2093
 21
-0.265074
  0
LINE
  8
0
 10
18.2093
 20
-0.265074
 11
18.2
 21
0
  0
ENDSEC
  0
SECTION
  2
OBJECTS
  0
DICTIONARY
  0
ENDSEC
  0
EOF
