G75*
%MOIN*%
%OFA0B0*%
%FSLAX25Y25*%
%IPPOS*%
%LPD*%
%AMOC8*
5,1,8,0,0,1.08239X$1,22.5*
%
%ADD10R,0.05000X0.10000*%
%ADD11R,0.06300X0.04600*%
%ADD12OC8,0.07200*%
%ADD13C,0.00800*%
%ADD14C,0.01781*%
%ADD15C,0.01600*%
%ADD16R,0.02569X0.02569*%
D10*
X0066976Y0137135D03*
X0057134Y0137627D03*
X0046799Y0137627D03*
X0036957Y0137627D03*
X0027114Y0137627D03*
X0016780Y0137627D03*
D11*
X0016780Y0123402D03*
X0016780Y0117402D03*
X0026622Y0117402D03*
X0026622Y0123402D03*
X0036465Y0123402D03*
X0036465Y0117402D03*
X0046799Y0117402D03*
X0046799Y0123402D03*
X0066976Y0123402D03*
X0066976Y0117402D03*
D12*
X0066878Y0150914D03*
X0056878Y0150914D03*
X0046878Y0150914D03*
X0036878Y0150914D03*
X0026878Y0150914D03*
X0016878Y0150914D03*
D13*
X0016808Y0150808D01*
X0016808Y0137808D01*
X0016780Y0137627D01*
X0016808Y0137158D01*
X0016808Y0123508D01*
X0016780Y0123402D01*
X0016780Y0117402D02*
X0016808Y0117008D01*
X0016808Y0103358D01*
X0016808Y0046158D01*
X0025258Y0037708D01*
X0036958Y0026008D01*
X0036958Y0016258D01*
X0037608Y0014308D02*
X0066858Y0043558D01*
X0066858Y0117008D01*
X0066976Y0117402D01*
X0066858Y0117658D01*
X0065558Y0117658D01*
X0060358Y0122858D01*
X0057758Y0122858D01*
X0054508Y0126108D01*
X0054508Y0127408D01*
X0053858Y0129358D02*
X0051258Y0126758D01*
X0051258Y0120908D01*
X0047358Y0117008D01*
X0046799Y0117402D01*
X0046708Y0117658D01*
X0044758Y0117658D01*
X0042158Y0120258D01*
X0046708Y0123508D02*
X0046799Y0123402D01*
X0046708Y0123508D02*
X0046708Y0137158D01*
X0046799Y0137627D01*
X0046708Y0137808D01*
X0046708Y0150808D01*
X0046878Y0150914D01*
X0036958Y0150808D02*
X0036958Y0137808D01*
X0036957Y0137627D01*
X0036958Y0137158D01*
X0036958Y0123508D01*
X0036465Y0123402D01*
X0031758Y0120258D02*
X0034358Y0117658D01*
X0036308Y0117658D01*
X0036465Y0117402D01*
X0031758Y0120258D02*
X0031758Y0128058D01*
X0031758Y0152758D01*
X0028508Y0156008D01*
X0025258Y0156008D01*
X0022008Y0152758D01*
X0022008Y0093608D01*
X0039558Y0104658D02*
X0027208Y0117008D01*
X0026622Y0117402D01*
X0026622Y0123402D02*
X0026558Y0123508D01*
X0026558Y0137158D01*
X0027114Y0137627D01*
X0027208Y0137808D01*
X0027208Y0150808D01*
X0026878Y0150914D01*
X0036878Y0150914D02*
X0036958Y0150808D01*
X0053858Y0129358D02*
X0061658Y0129358D01*
X0057134Y0137627D02*
X0057108Y0137808D01*
X0057108Y0150808D01*
X0056878Y0150914D01*
X0066878Y0150914D02*
X0067508Y0150808D01*
X0067508Y0137158D01*
X0066976Y0137135D01*
X0067508Y0136508D01*
X0067508Y0123508D01*
X0066976Y0123402D01*
X0048658Y0112458D02*
X0048658Y0101408D01*
X0044758Y0097508D01*
X0048658Y0093608D01*
X0048658Y0091008D01*
X0042808Y0103358D02*
X0042808Y0071508D01*
X0057108Y0057208D01*
X0064258Y0057208D01*
X0062958Y0059808D02*
X0057108Y0059808D01*
X0061008Y0029258D02*
X0066208Y0024058D01*
X0037608Y0014308D02*
X0031758Y0014308D01*
X0031758Y0007808D01*
X0031758Y0014308D02*
X0031758Y0028608D01*
X0040858Y0103358D02*
X0039558Y0104658D01*
X0046708Y0111808D01*
X0048658Y0112458D02*
X0047358Y0113758D01*
X0047358Y0117008D01*
X0042808Y0103358D02*
X0040858Y0103358D01*
D14*
X0042808Y0103358D03*
X0044758Y0097508D03*
X0048658Y0091008D03*
X0042808Y0071508D03*
X0057108Y0059808D03*
X0062958Y0059808D03*
X0064258Y0057208D03*
X0061008Y0029258D03*
X0066208Y0024058D03*
X0036958Y0016258D03*
X0031758Y0007808D03*
X0031758Y0028608D03*
X0025258Y0037708D03*
X0022008Y0093608D03*
X0016808Y0103358D03*
X0031758Y0120258D03*
X0031758Y0128058D03*
X0042158Y0120258D03*
X0046708Y0111808D03*
X0054508Y0127408D03*
X0057758Y0122858D03*
X0061658Y0129358D03*
D15*
X0004095Y0062331D02*
X0004095Y0006236D01*
X0007576Y0002895D01*
X0077513Y0002895D01*
X0079661Y0005266D01*
X0079661Y0062331D01*
X0068558Y0062331D01*
X0068558Y0042854D01*
X0067562Y0041858D01*
X0038312Y0012608D01*
X0033458Y0012608D01*
X0033458Y0009206D01*
X0033948Y0008715D01*
X0033948Y0006901D01*
X0032665Y0005617D01*
X0030851Y0005617D01*
X0029567Y0006901D01*
X0029567Y0008715D01*
X0030058Y0009206D01*
X0030058Y0027210D01*
X0029567Y0027701D01*
X0029567Y0029515D01*
X0030307Y0030255D01*
X0025044Y0035517D01*
X0024351Y0035517D01*
X0023067Y0036801D01*
X0023067Y0037494D01*
X0016104Y0044458D01*
X0016104Y0044458D01*
X0015108Y0045454D01*
X0015108Y0062331D01*
X0004095Y0062331D01*
X0004095Y0062051D02*
X0015108Y0062051D01*
X0015108Y0060453D02*
X0004095Y0060453D01*
X0004095Y0058854D02*
X0015108Y0058854D01*
X0015108Y0057256D02*
X0004095Y0057256D01*
X0004095Y0055657D02*
X0015108Y0055657D01*
X0015108Y0054059D02*
X0004095Y0054059D01*
X0004095Y0052460D02*
X0015108Y0052460D01*
X0015108Y0050862D02*
X0004095Y0050862D01*
X0004095Y0049263D02*
X0015108Y0049263D01*
X0015108Y0047665D02*
X0004095Y0047665D01*
X0004095Y0046066D02*
X0015108Y0046066D01*
X0016094Y0044468D02*
X0004095Y0044468D01*
X0004095Y0042869D02*
X0017692Y0042869D01*
X0019291Y0041271D02*
X0004095Y0041271D01*
X0004095Y0039672D02*
X0020889Y0039672D01*
X0022488Y0038074D02*
X0004095Y0038074D01*
X0004095Y0036475D02*
X0023393Y0036475D01*
X0025685Y0034877D02*
X0004095Y0034877D01*
X0004095Y0033278D02*
X0027283Y0033278D01*
X0028882Y0031680D02*
X0004095Y0031680D01*
X0004095Y0030081D02*
X0030133Y0030081D01*
X0029567Y0028483D02*
X0004095Y0028483D01*
X0004095Y0026884D02*
X0030058Y0026884D01*
X0030058Y0025286D02*
X0004095Y0025286D01*
X0004095Y0023687D02*
X0030058Y0023687D01*
X0030058Y0022089D02*
X0004095Y0022089D01*
X0004095Y0020490D02*
X0030058Y0020490D01*
X0030058Y0018891D02*
X0004095Y0018891D01*
X0004095Y0017293D02*
X0030058Y0017293D01*
X0030058Y0015694D02*
X0004095Y0015694D01*
X0004095Y0014096D02*
X0030058Y0014096D01*
X0030058Y0012497D02*
X0004095Y0012497D01*
X0004095Y0010899D02*
X0030058Y0010899D01*
X0030058Y0009300D02*
X0004095Y0009300D01*
X0004095Y0007702D02*
X0029567Y0007702D01*
X0030364Y0006103D02*
X0004234Y0006103D01*
X0005899Y0004505D02*
X0078971Y0004505D01*
X0079661Y0006103D02*
X0033151Y0006103D01*
X0033948Y0007702D02*
X0079661Y0007702D01*
X0079661Y0009300D02*
X0033458Y0009300D01*
X0033458Y0010899D02*
X0079661Y0010899D01*
X0079661Y0012497D02*
X0033458Y0012497D01*
X0039800Y0014096D02*
X0079661Y0014096D01*
X0079661Y0015694D02*
X0041399Y0015694D01*
X0042997Y0017293D02*
X0079661Y0017293D01*
X0079661Y0018891D02*
X0044596Y0018891D01*
X0046194Y0020490D02*
X0079661Y0020490D01*
X0079661Y0022089D02*
X0067336Y0022089D01*
X0067115Y0021867D02*
X0068398Y0023151D01*
X0068398Y0024965D01*
X0067115Y0026248D01*
X0066421Y0026248D01*
X0063198Y0029471D01*
X0063198Y0030165D01*
X0061915Y0031448D01*
X0060101Y0031448D01*
X0058817Y0030165D01*
X0058817Y0028351D01*
X0060101Y0027067D01*
X0060794Y0027067D01*
X0064017Y0023844D01*
X0064017Y0023151D01*
X0065301Y0021867D01*
X0067115Y0021867D01*
X0068398Y0023687D02*
X0079661Y0023687D01*
X0079661Y0025286D02*
X0068078Y0025286D01*
X0065786Y0026884D02*
X0079661Y0026884D01*
X0079661Y0028483D02*
X0064187Y0028483D01*
X0063198Y0030081D02*
X0079661Y0030081D01*
X0079661Y0031680D02*
X0057384Y0031680D01*
X0058817Y0030081D02*
X0055785Y0030081D01*
X0054187Y0028483D02*
X0058817Y0028483D01*
X0060978Y0026884D02*
X0052588Y0026884D01*
X0050990Y0025286D02*
X0062576Y0025286D01*
X0064017Y0023687D02*
X0049391Y0023687D01*
X0047793Y0022089D02*
X0065079Y0022089D01*
X0058982Y0033278D02*
X0079661Y0033278D01*
X0079661Y0034877D02*
X0060581Y0034877D01*
X0062179Y0036475D02*
X0079661Y0036475D01*
X0079661Y0038074D02*
X0063778Y0038074D01*
X0065376Y0039672D02*
X0079661Y0039672D01*
X0079661Y0041271D02*
X0066975Y0041271D01*
X0068558Y0042869D02*
X0079661Y0042869D01*
X0079661Y0044468D02*
X0068558Y0044468D01*
X0068558Y0046066D02*
X0079661Y0046066D01*
X0079661Y0047665D02*
X0068558Y0047665D01*
X0068558Y0049263D02*
X0079661Y0049263D01*
X0079661Y0050862D02*
X0068558Y0050862D01*
X0068558Y0052460D02*
X0079661Y0052460D01*
X0079661Y0054059D02*
X0068558Y0054059D01*
X0068558Y0055657D02*
X0079661Y0055657D01*
X0079661Y0057256D02*
X0068558Y0057256D01*
X0068558Y0058854D02*
X0079661Y0058854D01*
X0079661Y0060453D02*
X0068558Y0060453D01*
X0068558Y0062051D02*
X0079661Y0062051D01*
X0079661Y0064792D02*
X0068558Y0064792D01*
X0068558Y0113802D01*
X0070665Y0113802D01*
X0071426Y0114564D01*
X0071426Y0120241D01*
X0071265Y0120402D01*
X0071426Y0120564D01*
X0071426Y0126241D01*
X0070665Y0127002D01*
X0069208Y0127002D01*
X0069208Y0130835D01*
X0070015Y0130835D01*
X0070776Y0131596D01*
X0070776Y0142673D01*
X0070015Y0143435D01*
X0069208Y0143435D01*
X0069208Y0146314D01*
X0071778Y0148885D01*
X0071778Y0149446D01*
X0072074Y0148730D01*
X0073159Y0147646D01*
X0074576Y0147059D01*
X0076109Y0147059D01*
X0077526Y0147646D01*
X0078611Y0148730D01*
X0079198Y0150147D01*
X0079198Y0151681D01*
X0078611Y0153098D01*
X0077526Y0154182D01*
X0076109Y0154769D01*
X0074576Y0154769D01*
X0073159Y0154182D01*
X0072074Y0153098D01*
X0071778Y0152382D01*
X0071778Y0152944D01*
X0068908Y0155814D01*
X0064848Y0155814D01*
X0062231Y0153197D01*
X0059115Y0156314D01*
X0057078Y0156314D01*
X0057078Y0151114D01*
X0061978Y0151114D01*
X0061978Y0150714D01*
X0057078Y0150714D01*
X0057078Y0145514D01*
X0059115Y0145514D01*
X0062231Y0148631D01*
X0064848Y0146014D01*
X0065808Y0146014D01*
X0065808Y0143435D01*
X0063938Y0143435D01*
X0063176Y0142673D01*
X0063176Y0131596D01*
X0063938Y0130835D01*
X0065808Y0130835D01*
X0065808Y0127002D01*
X0063288Y0127002D01*
X0062526Y0126241D01*
X0062526Y0123094D01*
X0061062Y0124558D01*
X0059156Y0124558D01*
X0058665Y0125048D01*
X0057971Y0125048D01*
X0056609Y0126411D01*
X0056698Y0126501D01*
X0056698Y0127658D01*
X0060260Y0127658D01*
X0060751Y0127167D01*
X0062565Y0127167D01*
X0063848Y0128451D01*
X0063848Y0130265D01*
X0062565Y0131548D01*
X0061090Y0131548D01*
X0061311Y0131932D01*
X0061434Y0132390D01*
X0061434Y0137177D01*
X0057584Y0137177D01*
X0057584Y0138077D01*
X0056684Y0138077D01*
X0056684Y0144427D01*
X0054397Y0144427D01*
X0053939Y0144304D01*
X0053529Y0144067D01*
X0053193Y0143732D01*
X0052957Y0143322D01*
X0052834Y0142864D01*
X0052834Y0138077D01*
X0056684Y0138077D01*
X0056684Y0137177D01*
X0052834Y0137177D01*
X0052834Y0132390D01*
X0052957Y0131932D01*
X0053193Y0131522D01*
X0053529Y0131186D01*
X0053751Y0131058D01*
X0053154Y0131058D01*
X0050554Y0128458D01*
X0049558Y0127462D01*
X0049558Y0127002D01*
X0048408Y0127002D01*
X0048408Y0131327D01*
X0049838Y0131327D01*
X0050599Y0132088D01*
X0050599Y0143165D01*
X0049838Y0143927D01*
X0048408Y0143927D01*
X0048408Y0146014D01*
X0048908Y0146014D01*
X0051524Y0148631D01*
X0054641Y0145514D01*
X0056678Y0145514D01*
X0056678Y0150714D01*
X0057078Y0150714D01*
X0057078Y0151114D01*
X0056678Y0151114D01*
X0056678Y0156314D01*
X0054641Y0156314D01*
X0051524Y0153197D01*
X0048908Y0155814D01*
X0044848Y0155814D01*
X0041978Y0152944D01*
X0041978Y0148885D01*
X0044848Y0146014D01*
X0045008Y0146014D01*
X0045008Y0143927D01*
X0043761Y0143927D01*
X0042999Y0143165D01*
X0042999Y0132088D01*
X0043761Y0131327D01*
X0045008Y0131327D01*
X0045008Y0127002D01*
X0043111Y0127002D01*
X0042349Y0126241D01*
X0042349Y0122448D01*
X0041251Y0122448D01*
X0040915Y0122112D01*
X0040915Y0126241D01*
X0040153Y0127002D01*
X0038658Y0127002D01*
X0038658Y0131327D01*
X0039995Y0131327D01*
X0040757Y0132088D01*
X0040757Y0143165D01*
X0039995Y0143927D01*
X0038658Y0143927D01*
X0038658Y0146014D01*
X0038908Y0146014D01*
X0041778Y0148885D01*
X0041778Y0152944D01*
X0038908Y0155814D01*
X0034848Y0155814D01*
X0032977Y0153943D01*
X0030211Y0156709D01*
X0077083Y0156709D01*
X0079661Y0153763D01*
X0079661Y0064792D01*
X0079661Y0065248D02*
X0068558Y0065248D01*
X0068558Y0066847D02*
X0079661Y0066847D01*
X0079661Y0068445D02*
X0068558Y0068445D01*
X0068558Y0070044D02*
X0079661Y0070044D01*
X0079661Y0071642D02*
X0068558Y0071642D01*
X0068558Y0073241D02*
X0079661Y0073241D01*
X0079661Y0074839D02*
X0068558Y0074839D01*
X0068558Y0076438D02*
X0079661Y0076438D01*
X0079661Y0078036D02*
X0068558Y0078036D01*
X0068558Y0079635D02*
X0079661Y0079635D01*
X0079661Y0081233D02*
X0068558Y0081233D01*
X0068558Y0082832D02*
X0079661Y0082832D01*
X0079661Y0084430D02*
X0068558Y0084430D01*
X0068558Y0086029D02*
X0079661Y0086029D01*
X0079661Y0087627D02*
X0068558Y0087627D01*
X0068558Y0089226D02*
X0079661Y0089226D01*
X0079661Y0090825D02*
X0068558Y0090825D01*
X0068558Y0092423D02*
X0079661Y0092423D01*
X0079661Y0094022D02*
X0068558Y0094022D01*
X0068558Y0095620D02*
X0079661Y0095620D01*
X0079661Y0097219D02*
X0068558Y0097219D01*
X0068558Y0098817D02*
X0079661Y0098817D01*
X0079661Y0100416D02*
X0068558Y0100416D01*
X0068558Y0102014D02*
X0079661Y0102014D01*
X0079661Y0103613D02*
X0068558Y0103613D01*
X0068558Y0105211D02*
X0079661Y0105211D01*
X0079661Y0106810D02*
X0068558Y0106810D01*
X0068558Y0108408D02*
X0079661Y0108408D01*
X0079661Y0110007D02*
X0068558Y0110007D01*
X0068558Y0111605D02*
X0079661Y0111605D01*
X0079661Y0113204D02*
X0068558Y0113204D01*
X0071426Y0114802D02*
X0079661Y0114802D01*
X0079661Y0116401D02*
X0071426Y0116401D01*
X0071426Y0117999D02*
X0079661Y0117999D01*
X0079661Y0119598D02*
X0071426Y0119598D01*
X0071426Y0121196D02*
X0079661Y0121196D01*
X0079661Y0122795D02*
X0071426Y0122795D01*
X0071426Y0124393D02*
X0079661Y0124393D01*
X0079661Y0125992D02*
X0071426Y0125992D01*
X0069208Y0127590D02*
X0079661Y0127590D01*
X0079661Y0129189D02*
X0069208Y0129189D01*
X0069208Y0130787D02*
X0079661Y0130787D01*
X0079661Y0132386D02*
X0070776Y0132386D01*
X0070776Y0133984D02*
X0079661Y0133984D01*
X0079661Y0135583D02*
X0070776Y0135583D01*
X0070776Y0137181D02*
X0079661Y0137181D01*
X0079661Y0138780D02*
X0070776Y0138780D01*
X0070776Y0140378D02*
X0079661Y0140378D01*
X0079661Y0141977D02*
X0070776Y0141977D01*
X0069208Y0143575D02*
X0079661Y0143575D01*
X0079661Y0145174D02*
X0069208Y0145174D01*
X0069666Y0146772D02*
X0079661Y0146772D01*
X0079661Y0148371D02*
X0078251Y0148371D01*
X0079124Y0149969D02*
X0079661Y0149969D01*
X0079661Y0151568D02*
X0079198Y0151568D01*
X0079661Y0153166D02*
X0078542Y0153166D01*
X0078784Y0154765D02*
X0076120Y0154765D01*
X0077385Y0156363D02*
X0030556Y0156363D01*
X0032155Y0154765D02*
X0033799Y0154765D01*
X0038658Y0145174D02*
X0045008Y0145174D01*
X0044090Y0146772D02*
X0039666Y0146772D01*
X0041264Y0148371D02*
X0042492Y0148371D01*
X0041978Y0149969D02*
X0041778Y0149969D01*
X0041778Y0151568D02*
X0041978Y0151568D01*
X0042201Y0153166D02*
X0041555Y0153166D01*
X0039957Y0154765D02*
X0043799Y0154765D01*
X0048408Y0145174D02*
X0065808Y0145174D01*
X0065808Y0143575D02*
X0061165Y0143575D01*
X0061074Y0143732D02*
X0061311Y0143322D01*
X0061434Y0142864D01*
X0061434Y0138077D01*
X0057584Y0138077D01*
X0057584Y0144427D01*
X0059871Y0144427D01*
X0060329Y0144304D01*
X0060739Y0144067D01*
X0061074Y0143732D01*
X0060373Y0146772D02*
X0064090Y0146772D01*
X0062492Y0148371D02*
X0061971Y0148371D01*
X0061434Y0141977D02*
X0063176Y0141977D01*
X0063176Y0140378D02*
X0061434Y0140378D01*
X0061434Y0138780D02*
X0063176Y0138780D01*
X0063176Y0137181D02*
X0057584Y0137181D01*
X0056684Y0137181D02*
X0050599Y0137181D01*
X0050599Y0135583D02*
X0052834Y0135583D01*
X0052834Y0133984D02*
X0050599Y0133984D01*
X0050599Y0132386D02*
X0052835Y0132386D01*
X0052883Y0130787D02*
X0048408Y0130787D01*
X0048408Y0129189D02*
X0051285Y0129189D01*
X0049686Y0127590D02*
X0048408Y0127590D01*
X0045008Y0127590D02*
X0038658Y0127590D01*
X0038658Y0129189D02*
X0045008Y0129189D01*
X0045008Y0130787D02*
X0038658Y0130787D01*
X0040757Y0132386D02*
X0042999Y0132386D01*
X0042999Y0133984D02*
X0040757Y0133984D01*
X0040757Y0135583D02*
X0042999Y0135583D01*
X0042999Y0137181D02*
X0040757Y0137181D01*
X0040757Y0138780D02*
X0042999Y0138780D01*
X0042999Y0140378D02*
X0040757Y0140378D01*
X0040757Y0141977D02*
X0042999Y0141977D01*
X0043409Y0143575D02*
X0040347Y0143575D01*
X0040915Y0125992D02*
X0042349Y0125992D01*
X0042349Y0124393D02*
X0040915Y0124393D01*
X0040915Y0122795D02*
X0042349Y0122795D01*
X0049718Y0113802D02*
X0050358Y0113162D01*
X0050358Y0100704D01*
X0047162Y0097508D01*
X0050358Y0094312D01*
X0050358Y0092406D01*
X0050848Y0091915D01*
X0050848Y0090101D01*
X0049565Y0088817D01*
X0047751Y0088817D01*
X0046467Y0090101D01*
X0046467Y0091915D01*
X0046958Y0092406D01*
X0046958Y0092904D01*
X0044544Y0095317D01*
X0044508Y0095317D01*
X0044508Y0072906D01*
X0044998Y0072415D01*
X0044998Y0071721D01*
X0051928Y0064792D01*
X0065158Y0064792D01*
X0065158Y0113802D01*
X0063288Y0113802D01*
X0062526Y0114564D01*
X0062526Y0118285D01*
X0059654Y0121158D01*
X0059156Y0121158D01*
X0058665Y0120667D01*
X0056851Y0120667D01*
X0055567Y0121951D01*
X0055567Y0122644D01*
X0052958Y0125254D01*
X0052958Y0120204D01*
X0051249Y0118495D01*
X0051249Y0114564D01*
X0050488Y0113802D01*
X0049718Y0113802D01*
X0050316Y0113204D02*
X0065158Y0113204D01*
X0065158Y0111605D02*
X0050358Y0111605D01*
X0050358Y0110007D02*
X0065158Y0110007D01*
X0065158Y0108408D02*
X0050358Y0108408D01*
X0050358Y0106810D02*
X0065158Y0106810D01*
X0065158Y0105211D02*
X0050358Y0105211D01*
X0050358Y0103613D02*
X0065158Y0103613D01*
X0065158Y0102014D02*
X0050358Y0102014D01*
X0050070Y0100416D02*
X0065158Y0100416D01*
X0065158Y0098817D02*
X0048471Y0098817D01*
X0047451Y0097219D02*
X0065158Y0097219D01*
X0065158Y0095620D02*
X0049050Y0095620D01*
X0050358Y0094022D02*
X0065158Y0094022D01*
X0065158Y0092423D02*
X0050358Y0092423D01*
X0050848Y0090825D02*
X0065158Y0090825D01*
X0065158Y0089226D02*
X0049974Y0089226D01*
X0047342Y0089226D02*
X0044508Y0089226D01*
X0044508Y0087627D02*
X0065158Y0087627D01*
X0065158Y0086029D02*
X0044508Y0086029D01*
X0044508Y0084430D02*
X0065158Y0084430D01*
X0065158Y0082832D02*
X0044508Y0082832D01*
X0044508Y0081233D02*
X0065158Y0081233D01*
X0065158Y0079635D02*
X0044508Y0079635D01*
X0044508Y0078036D02*
X0065158Y0078036D01*
X0065158Y0076438D02*
X0044508Y0076438D01*
X0044508Y0074839D02*
X0065158Y0074839D01*
X0065158Y0073241D02*
X0044508Y0073241D01*
X0045078Y0071642D02*
X0065158Y0071642D01*
X0065158Y0070044D02*
X0046676Y0070044D01*
X0048275Y0068445D02*
X0065158Y0068445D01*
X0065158Y0066847D02*
X0049873Y0066847D01*
X0051472Y0065248D02*
X0065158Y0065248D01*
X0065158Y0062331D02*
X0065158Y0059398D01*
X0063351Y0059398D01*
X0062860Y0058908D01*
X0057812Y0058908D01*
X0054388Y0062331D01*
X0065158Y0062331D01*
X0065158Y0062051D02*
X0054669Y0062051D01*
X0056267Y0060453D02*
X0065158Y0060453D01*
X0047119Y0064792D02*
X0018508Y0064792D01*
X0018508Y0101960D01*
X0018998Y0102451D01*
X0018998Y0104265D01*
X0018508Y0104756D01*
X0018508Y0113802D01*
X0020308Y0113802D01*
X0020308Y0095006D01*
X0019817Y0094515D01*
X0019817Y0092701D01*
X0021101Y0091417D01*
X0022915Y0091417D01*
X0024198Y0092701D01*
X0024198Y0094515D01*
X0023708Y0095006D01*
X0023708Y0113802D01*
X0028009Y0113802D01*
X0037858Y0103954D01*
X0037858Y0103954D01*
X0038854Y0102958D01*
X0040154Y0101658D01*
X0041108Y0101658D01*
X0041108Y0072906D01*
X0040617Y0072415D01*
X0040617Y0070601D01*
X0041901Y0069317D01*
X0042594Y0069317D01*
X0047119Y0064792D01*
X0046663Y0065248D02*
X0018508Y0065248D01*
X0018508Y0066847D02*
X0045065Y0066847D01*
X0043466Y0068445D02*
X0018508Y0068445D01*
X0018508Y0070044D02*
X0041174Y0070044D01*
X0040617Y0071642D02*
X0018508Y0071642D01*
X0018508Y0073241D02*
X0041108Y0073241D01*
X0041108Y0074839D02*
X0018508Y0074839D01*
X0018508Y0076438D02*
X0041108Y0076438D01*
X0041108Y0078036D02*
X0018508Y0078036D01*
X0018508Y0079635D02*
X0041108Y0079635D01*
X0041108Y0081233D02*
X0018508Y0081233D01*
X0018508Y0082832D02*
X0041108Y0082832D01*
X0041108Y0084430D02*
X0018508Y0084430D01*
X0018508Y0086029D02*
X0041108Y0086029D01*
X0041108Y0087627D02*
X0018508Y0087627D01*
X0018508Y0089226D02*
X0041108Y0089226D01*
X0041108Y0090825D02*
X0018508Y0090825D01*
X0018508Y0092423D02*
X0020095Y0092423D01*
X0019817Y0094022D02*
X0018508Y0094022D01*
X0018508Y0095620D02*
X0020308Y0095620D01*
X0020308Y0097219D02*
X0018508Y0097219D01*
X0018508Y0098817D02*
X0020308Y0098817D01*
X0020308Y0100416D02*
X0018508Y0100416D01*
X0018562Y0102014D02*
X0020308Y0102014D01*
X0020308Y0103613D02*
X0018998Y0103613D01*
X0018508Y0105211D02*
X0020308Y0105211D01*
X0020308Y0106810D02*
X0018508Y0106810D01*
X0018508Y0108408D02*
X0020308Y0108408D01*
X0020308Y0110007D02*
X0018508Y0110007D01*
X0018508Y0111605D02*
X0020308Y0111605D01*
X0020308Y0113204D02*
X0018508Y0113204D01*
X0015108Y0113204D02*
X0004095Y0113204D01*
X0004095Y0114802D02*
X0012330Y0114802D01*
X0012330Y0114564D02*
X0013091Y0113802D01*
X0015108Y0113802D01*
X0015108Y0104756D01*
X0014617Y0104265D01*
X0014617Y0102451D01*
X0015108Y0101960D01*
X0015108Y0064792D01*
X0009186Y0064792D01*
X0009613Y0064969D01*
X0010697Y0066053D01*
X0011284Y0067470D01*
X0011284Y0069004D01*
X0010697Y0070421D01*
X0009613Y0071505D01*
X0008196Y0072092D01*
X0006662Y0072092D01*
X0005245Y0071505D01*
X0004161Y0070421D01*
X0004095Y0070262D01*
X0004095Y0148889D01*
X0004161Y0148730D01*
X0005245Y0147646D01*
X0006662Y0147059D01*
X0008196Y0147059D01*
X0009613Y0147646D01*
X0010697Y0148730D01*
X0011284Y0150147D01*
X0011284Y0151681D01*
X0010697Y0153098D01*
X0009613Y0154182D01*
X0008196Y0154769D01*
X0006662Y0154769D01*
X0005245Y0154182D01*
X0004161Y0153098D01*
X0004095Y0152939D01*
X0004095Y0153702D01*
X0007102Y0156709D01*
X0023555Y0156709D01*
X0021304Y0154458D01*
X0020784Y0153938D01*
X0018908Y0155814D01*
X0014848Y0155814D01*
X0011978Y0152944D01*
X0011978Y0148885D01*
X0014848Y0146014D01*
X0015108Y0146014D01*
X0015108Y0143927D01*
X0013741Y0143927D01*
X0012980Y0143165D01*
X0012980Y0132088D01*
X0013741Y0131327D01*
X0015108Y0131327D01*
X0015108Y0127002D01*
X0013091Y0127002D01*
X0012330Y0126241D01*
X0012330Y0120564D01*
X0012491Y0120402D01*
X0012330Y0120241D01*
X0012330Y0114564D01*
X0012330Y0116401D02*
X0004095Y0116401D01*
X0004095Y0117999D02*
X0012330Y0117999D01*
X0012330Y0119598D02*
X0004095Y0119598D01*
X0004095Y0121196D02*
X0012330Y0121196D01*
X0012330Y0122795D02*
X0004095Y0122795D01*
X0004095Y0124393D02*
X0012330Y0124393D01*
X0012330Y0125992D02*
X0004095Y0125992D01*
X0004095Y0127590D02*
X0015108Y0127590D01*
X0015108Y0129189D02*
X0004095Y0129189D01*
X0004095Y0130787D02*
X0015108Y0130787D01*
X0012980Y0132386D02*
X0004095Y0132386D01*
X0004095Y0133984D02*
X0012980Y0133984D01*
X0012980Y0135583D02*
X0004095Y0135583D01*
X0004095Y0137181D02*
X0012980Y0137181D01*
X0012980Y0138780D02*
X0004095Y0138780D01*
X0004095Y0140378D02*
X0012980Y0140378D01*
X0012980Y0141977D02*
X0004095Y0141977D01*
X0004095Y0143575D02*
X0013390Y0143575D01*
X0015108Y0145174D02*
X0004095Y0145174D01*
X0004095Y0146772D02*
X0014090Y0146772D01*
X0012492Y0148371D02*
X0010338Y0148371D01*
X0011211Y0149969D02*
X0011978Y0149969D01*
X0011978Y0151568D02*
X0011284Y0151568D01*
X0010629Y0153166D02*
X0012201Y0153166D01*
X0013799Y0154765D02*
X0008206Y0154765D01*
X0006652Y0154765D02*
X0005159Y0154765D01*
X0004229Y0153166D02*
X0004095Y0153166D01*
X0004095Y0148371D02*
X0004520Y0148371D01*
X0006757Y0156363D02*
X0023209Y0156363D01*
X0021611Y0154765D02*
X0019957Y0154765D01*
X0023708Y0113204D02*
X0028608Y0113204D01*
X0030206Y0111605D02*
X0023708Y0111605D01*
X0023708Y0110007D02*
X0031805Y0110007D01*
X0033403Y0108408D02*
X0023708Y0108408D01*
X0023708Y0106810D02*
X0035002Y0106810D01*
X0036600Y0105211D02*
X0023708Y0105211D01*
X0023708Y0103613D02*
X0038199Y0103613D01*
X0039797Y0102014D02*
X0023708Y0102014D01*
X0023708Y0100416D02*
X0041108Y0100416D01*
X0041108Y0098817D02*
X0023708Y0098817D01*
X0023708Y0097219D02*
X0041108Y0097219D01*
X0041108Y0095620D02*
X0023708Y0095620D01*
X0024198Y0094022D02*
X0041108Y0094022D01*
X0041108Y0092423D02*
X0023921Y0092423D01*
X0015108Y0092423D02*
X0004095Y0092423D01*
X0004095Y0090825D02*
X0015108Y0090825D01*
X0015108Y0089226D02*
X0004095Y0089226D01*
X0004095Y0087627D02*
X0015108Y0087627D01*
X0015108Y0086029D02*
X0004095Y0086029D01*
X0004095Y0084430D02*
X0015108Y0084430D01*
X0015108Y0082832D02*
X0004095Y0082832D01*
X0004095Y0081233D02*
X0015108Y0081233D01*
X0015108Y0079635D02*
X0004095Y0079635D01*
X0004095Y0078036D02*
X0015108Y0078036D01*
X0015108Y0076438D02*
X0004095Y0076438D01*
X0004095Y0074839D02*
X0015108Y0074839D01*
X0015108Y0073241D02*
X0004095Y0073241D01*
X0004095Y0071642D02*
X0005577Y0071642D01*
X0009282Y0071642D02*
X0015108Y0071642D01*
X0015108Y0070044D02*
X0010853Y0070044D01*
X0011284Y0068445D02*
X0015108Y0068445D01*
X0015108Y0066847D02*
X0011026Y0066847D01*
X0009892Y0065248D02*
X0015108Y0065248D01*
X0015108Y0094022D02*
X0004095Y0094022D01*
X0004095Y0095620D02*
X0015108Y0095620D01*
X0015108Y0097219D02*
X0004095Y0097219D01*
X0004095Y0098817D02*
X0015108Y0098817D01*
X0015108Y0100416D02*
X0004095Y0100416D01*
X0004095Y0102014D02*
X0015054Y0102014D01*
X0014617Y0103613D02*
X0004095Y0103613D01*
X0004095Y0105211D02*
X0015108Y0105211D01*
X0015108Y0106810D02*
X0004095Y0106810D01*
X0004095Y0108408D02*
X0015108Y0108408D01*
X0015108Y0110007D02*
X0004095Y0110007D01*
X0004095Y0111605D02*
X0015108Y0111605D01*
X0044508Y0094022D02*
X0045840Y0094022D01*
X0046958Y0092423D02*
X0044508Y0092423D01*
X0044508Y0090825D02*
X0046467Y0090825D01*
X0051249Y0114802D02*
X0062526Y0114802D01*
X0062526Y0116401D02*
X0051249Y0116401D01*
X0051249Y0117999D02*
X0062526Y0117999D01*
X0061214Y0119598D02*
X0052352Y0119598D01*
X0052958Y0121196D02*
X0056322Y0121196D01*
X0055417Y0122795D02*
X0052958Y0122795D01*
X0052958Y0124393D02*
X0053818Y0124393D01*
X0056698Y0127590D02*
X0060328Y0127590D01*
X0062526Y0125992D02*
X0057028Y0125992D01*
X0061227Y0124393D02*
X0062526Y0124393D01*
X0062988Y0127590D02*
X0065808Y0127590D01*
X0065808Y0129189D02*
X0063848Y0129189D01*
X0063326Y0130787D02*
X0065808Y0130787D01*
X0063176Y0132386D02*
X0061433Y0132386D01*
X0061434Y0133984D02*
X0063176Y0133984D01*
X0063176Y0135583D02*
X0061434Y0135583D01*
X0057584Y0138780D02*
X0056684Y0138780D01*
X0056684Y0140378D02*
X0057584Y0140378D01*
X0057584Y0141977D02*
X0056684Y0141977D01*
X0056684Y0143575D02*
X0057584Y0143575D01*
X0057078Y0146772D02*
X0056678Y0146772D01*
X0056678Y0148371D02*
X0057078Y0148371D01*
X0057078Y0149969D02*
X0056678Y0149969D01*
X0056678Y0151568D02*
X0057078Y0151568D01*
X0057078Y0153166D02*
X0056678Y0153166D01*
X0056678Y0154765D02*
X0057078Y0154765D01*
X0060664Y0154765D02*
X0063799Y0154765D01*
X0069957Y0154765D02*
X0074565Y0154765D01*
X0072143Y0153166D02*
X0071555Y0153166D01*
X0071264Y0148371D02*
X0072434Y0148371D01*
X0053383Y0146772D02*
X0049666Y0146772D01*
X0051264Y0148371D02*
X0051784Y0148371D01*
X0053103Y0143575D02*
X0050189Y0143575D01*
X0050599Y0141977D02*
X0052834Y0141977D01*
X0052834Y0140378D02*
X0050599Y0140378D01*
X0050599Y0138780D02*
X0052834Y0138780D01*
X0053092Y0154765D02*
X0049957Y0154765D01*
X0077523Y0002906D02*
X0007564Y0002906D01*
D16*
X0006445Y0060855D03*
X0006937Y0097272D03*
X0034496Y0096780D03*
X0034004Y0068729D03*
X0054673Y0117450D03*
X0063039Y0107115D03*
X0077311Y0061347D03*
M02*
