G75*
%MOIN*%
%OFA0B0*%
%FSLAX25Y25*%
%IPPOS*%
%LPD*%
%AMOC8*
5,1,8,0,0,1.08239X$1,22.5*
%
%ADD10C,0.13398*%
%ADD11C,0.05335*%
%ADD12R,0.05524X0.02965*%
%ADD13R,0.05524X0.05918*%
%ADD14R,0.03162X0.03162*%
%ADD15R,0.02769X0.02178*%
%ADD16R,0.03950X0.03950*%
%ADD17OC8,0.08000*%
%ADD18R,0.09461X0.03162*%
%ADD19R,0.04737X0.05524*%
%ADD20C,0.02581*%
%ADD21R,0.03369X0.03369*%
D10*
X0041878Y0032312D03*
D11*
X0007429Y0068237D03*
X0007429Y0150914D03*
X0075343Y0150914D03*
D12*
X0069437Y0088729D03*
X0069437Y0084989D03*
X0069437Y0081249D03*
X0059200Y0081249D03*
X0059200Y0088729D03*
D13*
X0060713Y0096997D03*
X0068713Y0096997D03*
X0068713Y0071997D03*
X0060713Y0071997D03*
D14*
X0051228Y0084280D03*
X0051228Y0088611D03*
X0045354Y0100717D03*
X0041354Y0100717D03*
X0030559Y0107576D03*
X0030559Y0111576D03*
X0027638Y0124339D03*
X0023638Y0124339D03*
X0020748Y0100225D03*
X0016748Y0100225D03*
X0036465Y0133658D03*
X0036465Y0137658D03*
X0043323Y0122863D03*
X0047323Y0122863D03*
X0056642Y0111576D03*
X0056642Y0107576D03*
X0057134Y0133658D03*
X0057134Y0137658D03*
X0064811Y0138119D03*
X0069142Y0138119D03*
X0059791Y0053965D03*
X0055461Y0053965D03*
X0055461Y0022469D03*
X0059791Y0022469D03*
X0028295Y0022469D03*
X0023965Y0022469D03*
X0023965Y0053965D03*
X0028295Y0053965D03*
D15*
X0022980Y0010265D03*
X0022980Y0012824D03*
X0022980Y0015383D03*
X0022980Y0017942D03*
X0029280Y0017942D03*
X0029280Y0015383D03*
X0029280Y0012824D03*
X0029280Y0010265D03*
X0029280Y0041761D03*
X0029280Y0044320D03*
X0029280Y0046879D03*
X0029280Y0049438D03*
X0022980Y0049438D03*
X0022980Y0046879D03*
X0022980Y0044320D03*
X0022980Y0041761D03*
X0054476Y0041761D03*
X0054476Y0044320D03*
X0054476Y0046879D03*
X0054476Y0049438D03*
X0060776Y0049438D03*
X0060776Y0046879D03*
X0060776Y0044320D03*
X0060776Y0041761D03*
X0060776Y0017942D03*
X0060776Y0015383D03*
X0060776Y0012824D03*
X0060776Y0010265D03*
X0054476Y0010265D03*
X0054476Y0012824D03*
X0054476Y0015383D03*
X0054476Y0017942D03*
D16*
X0064024Y0132213D03*
X0069929Y0132213D03*
D17*
X0066878Y0150914D03*
X0056878Y0150914D03*
X0046878Y0150914D03*
X0036878Y0150914D03*
X0026878Y0150914D03*
X0016878Y0150914D03*
D18*
X0016465Y0089517D03*
X0016465Y0084517D03*
X0016465Y0079517D03*
X0016465Y0074517D03*
X0042685Y0074517D03*
X0042685Y0079517D03*
X0042685Y0084517D03*
X0042685Y0089517D03*
D19*
X0039614Y0107607D03*
X0043354Y0115481D03*
X0047094Y0107607D03*
X0050539Y0131721D03*
X0046799Y0139595D03*
X0043059Y0131721D03*
X0027902Y0131721D03*
X0024161Y0139595D03*
X0020421Y0131721D03*
X0018748Y0115481D03*
X0015008Y0107607D03*
X0022488Y0107607D03*
D20*
X0016808Y0103358D03*
X0022008Y0093608D03*
X0031758Y0120258D03*
X0031758Y0128058D03*
X0042158Y0120258D03*
X0046708Y0111808D03*
X0042808Y0103358D03*
X0044758Y0097508D03*
X0048658Y0091008D03*
X0042808Y0071508D03*
X0057108Y0059808D03*
X0062958Y0059808D03*
X0064258Y0057208D03*
X0061008Y0029258D03*
X0066208Y0024058D03*
X0036958Y0016258D03*
X0031758Y0007808D03*
X0031758Y0028608D03*
X0025258Y0037708D03*
X0057758Y0122858D03*
X0054508Y0127408D03*
X0061658Y0129358D03*
D21*
X0054673Y0117450D03*
X0063039Y0107115D03*
X0077311Y0061347D03*
X0034004Y0068729D03*
X0034496Y0096780D03*
X0006937Y0097272D03*
X0006445Y0060855D03*
M02*
