%
M48
M72
T01C0.01181
T02C0.01969
T03C0.04000
T04C0.04535
T05C0.12598
%
T01
X25258Y37708
X31758Y28608
X36958Y16258
X31758Y7808
X57108Y59808
X62958Y59808
X64258Y57208
X61008Y29258
X66208Y24058
X42808Y71508
X48658Y91008
X44758Y97508
X42808Y103358
X46708Y111808
X42158Y120258
X31758Y120258
X31758Y128058
X16808Y103358
X22008Y93608
X54508Y127408
X57758Y122858
X61658Y129358
T02
X54673Y117450
X63039Y107115
X77311Y61347
X34004Y68729
X34496Y96780
X6937Y97272
X6445Y60855
T03
X16878Y150914
X26878Y150914
X36878Y150914
X46878Y150914
X56878Y150914
X66878Y150914
T04
X75343Y150914
X7429Y150914
X7429Y68237
T05
X41878Y32312
M30
