G75*
%MOIN*%
%OFA0B0*%
%FSLAX25Y25*%
%IPPOS*%
%LPD*%
%AMOC8*
5,1,8,0,0,1.08239X$1,22.5*
%
%ADD10C,0.00000*%
%ADD11R,0.78740X0.00984*%
%ADD12C,0.00200*%
%ADD13C,0.00300*%
%ADD14C,0.00600*%
%ADD15C,0.00800*%
%ADD16C,0.00750*%
%ADD17C,0.00197*%
%ADD18C,0.00100*%
%ADD19R,0.01181X0.00591*%
%ADD20R,0.01181X0.01181*%
%ADD21R,0.05984X0.01930*%
D10*
X0002508Y0005560D02*
X0006937Y0001308D01*
X0078217Y0001308D01*
X0081248Y0004654D01*
X0081248Y0154359D01*
X0077803Y0158296D01*
X0006445Y0158296D01*
X0002508Y0154359D01*
X0002508Y0005560D01*
X0005161Y0068237D02*
X0005163Y0068332D01*
X0005169Y0068427D01*
X0005179Y0068521D01*
X0005193Y0068615D01*
X0005211Y0068709D01*
X0005232Y0068801D01*
X0005258Y0068893D01*
X0005287Y0068983D01*
X0005320Y0069072D01*
X0005357Y0069159D01*
X0005398Y0069245D01*
X0005442Y0069330D01*
X0005489Y0069412D01*
X0005540Y0069492D01*
X0005594Y0069570D01*
X0005652Y0069646D01*
X0005712Y0069719D01*
X0005776Y0069790D01*
X0005842Y0069857D01*
X0005911Y0069922D01*
X0005983Y0069985D01*
X0006058Y0070044D01*
X0006135Y0070099D01*
X0006214Y0070152D01*
X0006295Y0070201D01*
X0006378Y0070247D01*
X0006463Y0070289D01*
X0006550Y0070328D01*
X0006638Y0070363D01*
X0006728Y0070394D01*
X0006819Y0070421D01*
X0006911Y0070445D01*
X0007004Y0070465D01*
X0007098Y0070481D01*
X0007192Y0070493D01*
X0007287Y0070501D01*
X0007382Y0070505D01*
X0007476Y0070505D01*
X0007571Y0070501D01*
X0007666Y0070493D01*
X0007760Y0070481D01*
X0007854Y0070465D01*
X0007947Y0070445D01*
X0008039Y0070421D01*
X0008130Y0070394D01*
X0008220Y0070363D01*
X0008308Y0070328D01*
X0008395Y0070289D01*
X0008480Y0070247D01*
X0008563Y0070201D01*
X0008644Y0070152D01*
X0008723Y0070099D01*
X0008800Y0070044D01*
X0008875Y0069985D01*
X0008947Y0069922D01*
X0009016Y0069857D01*
X0009082Y0069790D01*
X0009146Y0069719D01*
X0009206Y0069646D01*
X0009264Y0069570D01*
X0009318Y0069492D01*
X0009369Y0069412D01*
X0009416Y0069330D01*
X0009460Y0069245D01*
X0009501Y0069159D01*
X0009538Y0069072D01*
X0009571Y0068983D01*
X0009600Y0068893D01*
X0009626Y0068801D01*
X0009647Y0068709D01*
X0009665Y0068615D01*
X0009679Y0068521D01*
X0009689Y0068427D01*
X0009695Y0068332D01*
X0009697Y0068237D01*
X0009695Y0068142D01*
X0009689Y0068047D01*
X0009679Y0067953D01*
X0009665Y0067859D01*
X0009647Y0067765D01*
X0009626Y0067673D01*
X0009600Y0067581D01*
X0009571Y0067491D01*
X0009538Y0067402D01*
X0009501Y0067315D01*
X0009460Y0067229D01*
X0009416Y0067144D01*
X0009369Y0067062D01*
X0009318Y0066982D01*
X0009264Y0066904D01*
X0009206Y0066828D01*
X0009146Y0066755D01*
X0009082Y0066684D01*
X0009016Y0066617D01*
X0008947Y0066552D01*
X0008875Y0066489D01*
X0008800Y0066430D01*
X0008723Y0066375D01*
X0008644Y0066322D01*
X0008563Y0066273D01*
X0008480Y0066227D01*
X0008395Y0066185D01*
X0008308Y0066146D01*
X0008220Y0066111D01*
X0008130Y0066080D01*
X0008039Y0066053D01*
X0007947Y0066029D01*
X0007854Y0066009D01*
X0007760Y0065993D01*
X0007666Y0065981D01*
X0007571Y0065973D01*
X0007476Y0065969D01*
X0007382Y0065969D01*
X0007287Y0065973D01*
X0007192Y0065981D01*
X0007098Y0065993D01*
X0007004Y0066009D01*
X0006911Y0066029D01*
X0006819Y0066053D01*
X0006728Y0066080D01*
X0006638Y0066111D01*
X0006550Y0066146D01*
X0006463Y0066185D01*
X0006378Y0066227D01*
X0006295Y0066273D01*
X0006214Y0066322D01*
X0006135Y0066375D01*
X0006058Y0066430D01*
X0005983Y0066489D01*
X0005911Y0066552D01*
X0005842Y0066617D01*
X0005776Y0066684D01*
X0005712Y0066755D01*
X0005652Y0066828D01*
X0005594Y0066904D01*
X0005540Y0066982D01*
X0005489Y0067062D01*
X0005442Y0067144D01*
X0005398Y0067229D01*
X0005357Y0067315D01*
X0005320Y0067402D01*
X0005287Y0067491D01*
X0005258Y0067581D01*
X0005232Y0067673D01*
X0005211Y0067765D01*
X0005193Y0067859D01*
X0005179Y0067953D01*
X0005169Y0068047D01*
X0005163Y0068142D01*
X0005161Y0068237D01*
X0035579Y0032312D02*
X0035581Y0032470D01*
X0035587Y0032628D01*
X0035597Y0032786D01*
X0035611Y0032944D01*
X0035629Y0033101D01*
X0035650Y0033258D01*
X0035676Y0033414D01*
X0035706Y0033570D01*
X0035739Y0033725D01*
X0035777Y0033878D01*
X0035818Y0034031D01*
X0035863Y0034183D01*
X0035912Y0034334D01*
X0035965Y0034483D01*
X0036021Y0034631D01*
X0036081Y0034777D01*
X0036145Y0034922D01*
X0036213Y0035065D01*
X0036284Y0035207D01*
X0036358Y0035347D01*
X0036436Y0035484D01*
X0036518Y0035620D01*
X0036602Y0035754D01*
X0036691Y0035885D01*
X0036782Y0036014D01*
X0036877Y0036141D01*
X0036974Y0036266D01*
X0037075Y0036388D01*
X0037179Y0036507D01*
X0037286Y0036624D01*
X0037396Y0036738D01*
X0037509Y0036849D01*
X0037624Y0036958D01*
X0037742Y0037063D01*
X0037863Y0037165D01*
X0037986Y0037265D01*
X0038112Y0037361D01*
X0038240Y0037454D01*
X0038370Y0037544D01*
X0038503Y0037630D01*
X0038638Y0037714D01*
X0038774Y0037793D01*
X0038913Y0037870D01*
X0039054Y0037942D01*
X0039196Y0038012D01*
X0039340Y0038077D01*
X0039486Y0038139D01*
X0039633Y0038197D01*
X0039782Y0038252D01*
X0039932Y0038303D01*
X0040083Y0038350D01*
X0040235Y0038393D01*
X0040388Y0038432D01*
X0040543Y0038468D01*
X0040698Y0038499D01*
X0040854Y0038527D01*
X0041010Y0038551D01*
X0041167Y0038571D01*
X0041325Y0038587D01*
X0041482Y0038599D01*
X0041641Y0038607D01*
X0041799Y0038611D01*
X0041957Y0038611D01*
X0042115Y0038607D01*
X0042274Y0038599D01*
X0042431Y0038587D01*
X0042589Y0038571D01*
X0042746Y0038551D01*
X0042902Y0038527D01*
X0043058Y0038499D01*
X0043213Y0038468D01*
X0043368Y0038432D01*
X0043521Y0038393D01*
X0043673Y0038350D01*
X0043824Y0038303D01*
X0043974Y0038252D01*
X0044123Y0038197D01*
X0044270Y0038139D01*
X0044416Y0038077D01*
X0044560Y0038012D01*
X0044702Y0037942D01*
X0044843Y0037870D01*
X0044982Y0037793D01*
X0045118Y0037714D01*
X0045253Y0037630D01*
X0045386Y0037544D01*
X0045516Y0037454D01*
X0045644Y0037361D01*
X0045770Y0037265D01*
X0045893Y0037165D01*
X0046014Y0037063D01*
X0046132Y0036958D01*
X0046247Y0036849D01*
X0046360Y0036738D01*
X0046470Y0036624D01*
X0046577Y0036507D01*
X0046681Y0036388D01*
X0046782Y0036266D01*
X0046879Y0036141D01*
X0046974Y0036014D01*
X0047065Y0035885D01*
X0047154Y0035754D01*
X0047238Y0035620D01*
X0047320Y0035484D01*
X0047398Y0035347D01*
X0047472Y0035207D01*
X0047543Y0035065D01*
X0047611Y0034922D01*
X0047675Y0034777D01*
X0047735Y0034631D01*
X0047791Y0034483D01*
X0047844Y0034334D01*
X0047893Y0034183D01*
X0047938Y0034031D01*
X0047979Y0033878D01*
X0048017Y0033725D01*
X0048050Y0033570D01*
X0048080Y0033414D01*
X0048106Y0033258D01*
X0048127Y0033101D01*
X0048145Y0032944D01*
X0048159Y0032786D01*
X0048169Y0032628D01*
X0048175Y0032470D01*
X0048177Y0032312D01*
X0048175Y0032154D01*
X0048169Y0031996D01*
X0048159Y0031838D01*
X0048145Y0031680D01*
X0048127Y0031523D01*
X0048106Y0031366D01*
X0048080Y0031210D01*
X0048050Y0031054D01*
X0048017Y0030899D01*
X0047979Y0030746D01*
X0047938Y0030593D01*
X0047893Y0030441D01*
X0047844Y0030290D01*
X0047791Y0030141D01*
X0047735Y0029993D01*
X0047675Y0029847D01*
X0047611Y0029702D01*
X0047543Y0029559D01*
X0047472Y0029417D01*
X0047398Y0029277D01*
X0047320Y0029140D01*
X0047238Y0029004D01*
X0047154Y0028870D01*
X0047065Y0028739D01*
X0046974Y0028610D01*
X0046879Y0028483D01*
X0046782Y0028358D01*
X0046681Y0028236D01*
X0046577Y0028117D01*
X0046470Y0028000D01*
X0046360Y0027886D01*
X0046247Y0027775D01*
X0046132Y0027666D01*
X0046014Y0027561D01*
X0045893Y0027459D01*
X0045770Y0027359D01*
X0045644Y0027263D01*
X0045516Y0027170D01*
X0045386Y0027080D01*
X0045253Y0026994D01*
X0045118Y0026910D01*
X0044982Y0026831D01*
X0044843Y0026754D01*
X0044702Y0026682D01*
X0044560Y0026612D01*
X0044416Y0026547D01*
X0044270Y0026485D01*
X0044123Y0026427D01*
X0043974Y0026372D01*
X0043824Y0026321D01*
X0043673Y0026274D01*
X0043521Y0026231D01*
X0043368Y0026192D01*
X0043213Y0026156D01*
X0043058Y0026125D01*
X0042902Y0026097D01*
X0042746Y0026073D01*
X0042589Y0026053D01*
X0042431Y0026037D01*
X0042274Y0026025D01*
X0042115Y0026017D01*
X0041957Y0026013D01*
X0041799Y0026013D01*
X0041641Y0026017D01*
X0041482Y0026025D01*
X0041325Y0026037D01*
X0041167Y0026053D01*
X0041010Y0026073D01*
X0040854Y0026097D01*
X0040698Y0026125D01*
X0040543Y0026156D01*
X0040388Y0026192D01*
X0040235Y0026231D01*
X0040083Y0026274D01*
X0039932Y0026321D01*
X0039782Y0026372D01*
X0039633Y0026427D01*
X0039486Y0026485D01*
X0039340Y0026547D01*
X0039196Y0026612D01*
X0039054Y0026682D01*
X0038913Y0026754D01*
X0038774Y0026831D01*
X0038638Y0026910D01*
X0038503Y0026994D01*
X0038370Y0027080D01*
X0038240Y0027170D01*
X0038112Y0027263D01*
X0037986Y0027359D01*
X0037863Y0027459D01*
X0037742Y0027561D01*
X0037624Y0027666D01*
X0037509Y0027775D01*
X0037396Y0027886D01*
X0037286Y0028000D01*
X0037179Y0028117D01*
X0037075Y0028236D01*
X0036974Y0028358D01*
X0036877Y0028483D01*
X0036782Y0028610D01*
X0036691Y0028739D01*
X0036602Y0028870D01*
X0036518Y0029004D01*
X0036436Y0029140D01*
X0036358Y0029277D01*
X0036284Y0029417D01*
X0036213Y0029559D01*
X0036145Y0029702D01*
X0036081Y0029847D01*
X0036021Y0029993D01*
X0035965Y0030141D01*
X0035912Y0030290D01*
X0035863Y0030441D01*
X0035818Y0030593D01*
X0035777Y0030746D01*
X0035739Y0030899D01*
X0035706Y0031054D01*
X0035676Y0031210D01*
X0035650Y0031366D01*
X0035629Y0031523D01*
X0035611Y0031680D01*
X0035597Y0031838D01*
X0035587Y0031996D01*
X0035581Y0032154D01*
X0035579Y0032312D01*
X0005161Y0150914D02*
X0005163Y0151009D01*
X0005169Y0151104D01*
X0005179Y0151198D01*
X0005193Y0151292D01*
X0005211Y0151386D01*
X0005232Y0151478D01*
X0005258Y0151570D01*
X0005287Y0151660D01*
X0005320Y0151749D01*
X0005357Y0151836D01*
X0005398Y0151922D01*
X0005442Y0152007D01*
X0005489Y0152089D01*
X0005540Y0152169D01*
X0005594Y0152247D01*
X0005652Y0152323D01*
X0005712Y0152396D01*
X0005776Y0152467D01*
X0005842Y0152534D01*
X0005911Y0152599D01*
X0005983Y0152662D01*
X0006058Y0152721D01*
X0006135Y0152776D01*
X0006214Y0152829D01*
X0006295Y0152878D01*
X0006378Y0152924D01*
X0006463Y0152966D01*
X0006550Y0153005D01*
X0006638Y0153040D01*
X0006728Y0153071D01*
X0006819Y0153098D01*
X0006911Y0153122D01*
X0007004Y0153142D01*
X0007098Y0153158D01*
X0007192Y0153170D01*
X0007287Y0153178D01*
X0007382Y0153182D01*
X0007476Y0153182D01*
X0007571Y0153178D01*
X0007666Y0153170D01*
X0007760Y0153158D01*
X0007854Y0153142D01*
X0007947Y0153122D01*
X0008039Y0153098D01*
X0008130Y0153071D01*
X0008220Y0153040D01*
X0008308Y0153005D01*
X0008395Y0152966D01*
X0008480Y0152924D01*
X0008563Y0152878D01*
X0008644Y0152829D01*
X0008723Y0152776D01*
X0008800Y0152721D01*
X0008875Y0152662D01*
X0008947Y0152599D01*
X0009016Y0152534D01*
X0009082Y0152467D01*
X0009146Y0152396D01*
X0009206Y0152323D01*
X0009264Y0152247D01*
X0009318Y0152169D01*
X0009369Y0152089D01*
X0009416Y0152007D01*
X0009460Y0151922D01*
X0009501Y0151836D01*
X0009538Y0151749D01*
X0009571Y0151660D01*
X0009600Y0151570D01*
X0009626Y0151478D01*
X0009647Y0151386D01*
X0009665Y0151292D01*
X0009679Y0151198D01*
X0009689Y0151104D01*
X0009695Y0151009D01*
X0009697Y0150914D01*
X0009695Y0150819D01*
X0009689Y0150724D01*
X0009679Y0150630D01*
X0009665Y0150536D01*
X0009647Y0150442D01*
X0009626Y0150350D01*
X0009600Y0150258D01*
X0009571Y0150168D01*
X0009538Y0150079D01*
X0009501Y0149992D01*
X0009460Y0149906D01*
X0009416Y0149821D01*
X0009369Y0149739D01*
X0009318Y0149659D01*
X0009264Y0149581D01*
X0009206Y0149505D01*
X0009146Y0149432D01*
X0009082Y0149361D01*
X0009016Y0149294D01*
X0008947Y0149229D01*
X0008875Y0149166D01*
X0008800Y0149107D01*
X0008723Y0149052D01*
X0008644Y0148999D01*
X0008563Y0148950D01*
X0008480Y0148904D01*
X0008395Y0148862D01*
X0008308Y0148823D01*
X0008220Y0148788D01*
X0008130Y0148757D01*
X0008039Y0148730D01*
X0007947Y0148706D01*
X0007854Y0148686D01*
X0007760Y0148670D01*
X0007666Y0148658D01*
X0007571Y0148650D01*
X0007476Y0148646D01*
X0007382Y0148646D01*
X0007287Y0148650D01*
X0007192Y0148658D01*
X0007098Y0148670D01*
X0007004Y0148686D01*
X0006911Y0148706D01*
X0006819Y0148730D01*
X0006728Y0148757D01*
X0006638Y0148788D01*
X0006550Y0148823D01*
X0006463Y0148862D01*
X0006378Y0148904D01*
X0006295Y0148950D01*
X0006214Y0148999D01*
X0006135Y0149052D01*
X0006058Y0149107D01*
X0005983Y0149166D01*
X0005911Y0149229D01*
X0005842Y0149294D01*
X0005776Y0149361D01*
X0005712Y0149432D01*
X0005652Y0149505D01*
X0005594Y0149581D01*
X0005540Y0149659D01*
X0005489Y0149739D01*
X0005442Y0149821D01*
X0005398Y0149906D01*
X0005357Y0149992D01*
X0005320Y0150079D01*
X0005287Y0150168D01*
X0005258Y0150258D01*
X0005232Y0150350D01*
X0005211Y0150442D01*
X0005193Y0150536D01*
X0005179Y0150630D01*
X0005169Y0150724D01*
X0005163Y0150819D01*
X0005161Y0150914D01*
X0073075Y0150914D02*
X0073077Y0151009D01*
X0073083Y0151104D01*
X0073093Y0151198D01*
X0073107Y0151292D01*
X0073125Y0151386D01*
X0073146Y0151478D01*
X0073172Y0151570D01*
X0073201Y0151660D01*
X0073234Y0151749D01*
X0073271Y0151836D01*
X0073312Y0151922D01*
X0073356Y0152007D01*
X0073403Y0152089D01*
X0073454Y0152169D01*
X0073508Y0152247D01*
X0073566Y0152323D01*
X0073626Y0152396D01*
X0073690Y0152467D01*
X0073756Y0152534D01*
X0073825Y0152599D01*
X0073897Y0152662D01*
X0073972Y0152721D01*
X0074049Y0152776D01*
X0074128Y0152829D01*
X0074209Y0152878D01*
X0074292Y0152924D01*
X0074377Y0152966D01*
X0074464Y0153005D01*
X0074552Y0153040D01*
X0074642Y0153071D01*
X0074733Y0153098D01*
X0074825Y0153122D01*
X0074918Y0153142D01*
X0075012Y0153158D01*
X0075106Y0153170D01*
X0075201Y0153178D01*
X0075296Y0153182D01*
X0075390Y0153182D01*
X0075485Y0153178D01*
X0075580Y0153170D01*
X0075674Y0153158D01*
X0075768Y0153142D01*
X0075861Y0153122D01*
X0075953Y0153098D01*
X0076044Y0153071D01*
X0076134Y0153040D01*
X0076222Y0153005D01*
X0076309Y0152966D01*
X0076394Y0152924D01*
X0076477Y0152878D01*
X0076558Y0152829D01*
X0076637Y0152776D01*
X0076714Y0152721D01*
X0076789Y0152662D01*
X0076861Y0152599D01*
X0076930Y0152534D01*
X0076996Y0152467D01*
X0077060Y0152396D01*
X0077120Y0152323D01*
X0077178Y0152247D01*
X0077232Y0152169D01*
X0077283Y0152089D01*
X0077330Y0152007D01*
X0077374Y0151922D01*
X0077415Y0151836D01*
X0077452Y0151749D01*
X0077485Y0151660D01*
X0077514Y0151570D01*
X0077540Y0151478D01*
X0077561Y0151386D01*
X0077579Y0151292D01*
X0077593Y0151198D01*
X0077603Y0151104D01*
X0077609Y0151009D01*
X0077611Y0150914D01*
X0077609Y0150819D01*
X0077603Y0150724D01*
X0077593Y0150630D01*
X0077579Y0150536D01*
X0077561Y0150442D01*
X0077540Y0150350D01*
X0077514Y0150258D01*
X0077485Y0150168D01*
X0077452Y0150079D01*
X0077415Y0149992D01*
X0077374Y0149906D01*
X0077330Y0149821D01*
X0077283Y0149739D01*
X0077232Y0149659D01*
X0077178Y0149581D01*
X0077120Y0149505D01*
X0077060Y0149432D01*
X0076996Y0149361D01*
X0076930Y0149294D01*
X0076861Y0149229D01*
X0076789Y0149166D01*
X0076714Y0149107D01*
X0076637Y0149052D01*
X0076558Y0148999D01*
X0076477Y0148950D01*
X0076394Y0148904D01*
X0076309Y0148862D01*
X0076222Y0148823D01*
X0076134Y0148788D01*
X0076044Y0148757D01*
X0075953Y0148730D01*
X0075861Y0148706D01*
X0075768Y0148686D01*
X0075674Y0148670D01*
X0075580Y0148658D01*
X0075485Y0148650D01*
X0075390Y0148646D01*
X0075296Y0148646D01*
X0075201Y0148650D01*
X0075106Y0148658D01*
X0075012Y0148670D01*
X0074918Y0148686D01*
X0074825Y0148706D01*
X0074733Y0148730D01*
X0074642Y0148757D01*
X0074552Y0148788D01*
X0074464Y0148823D01*
X0074377Y0148862D01*
X0074292Y0148904D01*
X0074209Y0148950D01*
X0074128Y0148999D01*
X0074049Y0149052D01*
X0073972Y0149107D01*
X0073897Y0149166D01*
X0073825Y0149229D01*
X0073756Y0149294D01*
X0073690Y0149361D01*
X0073626Y0149432D01*
X0073566Y0149505D01*
X0073508Y0149581D01*
X0073454Y0149659D01*
X0073403Y0149739D01*
X0073356Y0149821D01*
X0073312Y0149906D01*
X0073271Y0149992D01*
X0073234Y0150079D01*
X0073201Y0150168D01*
X0073172Y0150258D01*
X0073146Y0150350D01*
X0073125Y0150442D01*
X0073107Y0150536D01*
X0073093Y0150630D01*
X0073083Y0150724D01*
X0073077Y0150819D01*
X0073075Y0150914D01*
D11*
X0041878Y0064792D03*
D12*
X0050218Y0072866D02*
X0052420Y0072866D01*
X0052420Y0071398D01*
X0051319Y0072132D02*
X0051319Y0072866D01*
X0051319Y0073608D02*
X0050218Y0073608D01*
X0050218Y0075076D02*
X0051686Y0075076D01*
X0051686Y0073975D01*
X0051319Y0073608D01*
X0050585Y0075818D02*
X0050218Y0076185D01*
X0050218Y0076919D01*
X0050585Y0077286D01*
X0052053Y0075818D01*
X0050585Y0075818D01*
X0050585Y0077286D02*
X0052053Y0077286D01*
X0052420Y0076919D01*
X0052420Y0076185D01*
X0052053Y0075818D01*
X0052053Y0078028D02*
X0050585Y0079496D01*
X0050218Y0079129D01*
X0050218Y0078395D01*
X0050585Y0078028D01*
X0052053Y0078028D01*
X0052420Y0078395D01*
X0052420Y0079129D01*
X0052053Y0079496D01*
X0050585Y0079496D01*
X0050218Y0080238D02*
X0050218Y0081706D01*
X0050218Y0080972D02*
X0052420Y0080972D01*
X0051686Y0081706D01*
X0054340Y0076435D02*
X0054340Y0074967D01*
X0056542Y0074967D01*
X0056542Y0074225D02*
X0055074Y0074225D01*
X0055441Y0074967D02*
X0055441Y0075701D01*
X0056542Y0074225D02*
X0056542Y0073124D01*
X0056175Y0072757D01*
X0055074Y0072757D01*
X0054707Y0072015D02*
X0056175Y0070547D01*
X0056542Y0070914D01*
X0056542Y0071648D01*
X0056175Y0072015D01*
X0054707Y0072015D01*
X0054340Y0071648D01*
X0054340Y0070914D01*
X0054707Y0070547D01*
X0056175Y0070547D01*
X0056542Y0069805D02*
X0056542Y0068337D01*
X0056542Y0069071D02*
X0054340Y0069071D01*
X0055074Y0068337D01*
X0055074Y0093435D02*
X0054340Y0094169D01*
X0056542Y0094169D01*
X0056542Y0093435D02*
X0056542Y0094903D01*
X0056175Y0095645D02*
X0054707Y0097113D01*
X0056175Y0097113D01*
X0056542Y0096746D01*
X0056542Y0096012D01*
X0056175Y0095645D01*
X0054707Y0095645D01*
X0054340Y0096012D01*
X0054340Y0096746D01*
X0054707Y0097113D01*
X0055074Y0097855D02*
X0056175Y0097855D01*
X0056542Y0098222D01*
X0056542Y0099323D01*
X0055074Y0099323D01*
X0055441Y0100065D02*
X0055441Y0100799D01*
X0056542Y0100065D02*
X0054340Y0100065D01*
X0054340Y0101533D01*
X0050036Y0100942D02*
X0047834Y0100942D01*
X0048201Y0100200D02*
X0047834Y0099833D01*
X0047834Y0099099D01*
X0048201Y0098732D01*
X0049669Y0098732D01*
X0048201Y0100200D01*
X0049669Y0100200D01*
X0050036Y0099833D01*
X0050036Y0099099D01*
X0049669Y0098732D01*
X0050036Y0097990D02*
X0050036Y0096522D01*
X0050036Y0097256D02*
X0047834Y0097256D01*
X0048568Y0096522D01*
X0049302Y0100942D02*
X0047834Y0102410D01*
X0048935Y0101309D02*
X0050036Y0102410D01*
X0047702Y0111113D02*
X0047235Y0111113D01*
X0047002Y0111346D01*
X0047002Y0111580D01*
X0047235Y0111813D01*
X0047702Y0111813D01*
X0047936Y0111580D01*
X0047936Y0111346D01*
X0047702Y0111113D01*
X0047702Y0111813D02*
X0047936Y0112047D01*
X0047936Y0112280D01*
X0047702Y0112514D01*
X0047235Y0112514D01*
X0047002Y0112280D01*
X0047002Y0112047D01*
X0047235Y0111813D01*
X0046463Y0111580D02*
X0046463Y0111346D01*
X0046229Y0111113D01*
X0045762Y0111113D01*
X0045528Y0111346D01*
X0044989Y0111113D02*
X0044055Y0111113D01*
X0044522Y0111113D02*
X0044522Y0112514D01*
X0044055Y0112047D01*
X0043516Y0112280D02*
X0043283Y0112514D01*
X0042815Y0112514D01*
X0042582Y0112280D01*
X0042582Y0112047D01*
X0042815Y0111813D01*
X0043283Y0111813D01*
X0043516Y0111580D01*
X0043516Y0111346D01*
X0043283Y0111113D01*
X0042815Y0111113D01*
X0042582Y0111346D01*
X0042043Y0111346D02*
X0041809Y0111113D01*
X0041342Y0111113D01*
X0041109Y0111346D01*
X0041342Y0111813D02*
X0041109Y0112047D01*
X0041109Y0112280D01*
X0041342Y0112514D01*
X0041809Y0112514D01*
X0042043Y0112280D01*
X0041809Y0111813D02*
X0042043Y0111580D01*
X0042043Y0111346D01*
X0041809Y0111813D02*
X0041342Y0111813D01*
X0040570Y0111580D02*
X0040570Y0111346D01*
X0040336Y0111113D01*
X0039635Y0111113D01*
X0039635Y0112514D01*
X0040336Y0112514D01*
X0040570Y0112280D01*
X0040570Y0112047D01*
X0040336Y0111813D01*
X0039635Y0111813D01*
X0040336Y0111813D02*
X0040570Y0111580D01*
X0040349Y0119644D02*
X0040349Y0121112D01*
X0040349Y0120378D02*
X0038147Y0120378D01*
X0038881Y0119644D01*
X0038514Y0121854D02*
X0038147Y0122221D01*
X0038147Y0122955D01*
X0038514Y0123322D01*
X0039982Y0121854D01*
X0040349Y0122221D01*
X0040349Y0122955D01*
X0039982Y0123322D01*
X0038514Y0123322D01*
X0038147Y0124064D02*
X0040349Y0124064D01*
X0039615Y0124064D02*
X0038147Y0125532D01*
X0039248Y0124431D02*
X0040349Y0125532D01*
X0039982Y0121854D02*
X0038514Y0121854D01*
X0033720Y0116751D02*
X0032252Y0115284D01*
X0032619Y0115651D02*
X0033720Y0114550D01*
X0032252Y0114550D02*
X0032252Y0116751D01*
X0031510Y0116384D02*
X0030042Y0114917D01*
X0030409Y0114550D01*
X0031143Y0114550D01*
X0031510Y0114917D01*
X0031510Y0116384D01*
X0031143Y0116751D01*
X0030409Y0116751D01*
X0030042Y0116384D01*
X0030042Y0114917D01*
X0029300Y0114550D02*
X0027832Y0114550D01*
X0028566Y0114550D02*
X0028566Y0116751D01*
X0027832Y0116018D01*
X0022837Y0112280D02*
X0022837Y0112047D01*
X0022604Y0111813D01*
X0022137Y0111813D01*
X0021903Y0112047D01*
X0021903Y0112280D01*
X0022137Y0112514D01*
X0022604Y0112514D01*
X0022837Y0112280D01*
X0022604Y0111813D02*
X0022837Y0111580D01*
X0022837Y0111346D01*
X0022604Y0111113D01*
X0022137Y0111113D01*
X0021903Y0111346D01*
X0021903Y0111580D01*
X0022137Y0111813D01*
X0021364Y0111580D02*
X0021364Y0111346D01*
X0021131Y0111113D01*
X0020664Y0111113D01*
X0020430Y0111346D01*
X0019891Y0111113D02*
X0018957Y0111113D01*
X0019424Y0111113D02*
X0019424Y0112514D01*
X0018957Y0112047D01*
X0018418Y0112280D02*
X0018184Y0112514D01*
X0017717Y0112514D01*
X0017484Y0112280D01*
X0017484Y0112047D01*
X0017717Y0111813D01*
X0018184Y0111813D01*
X0018418Y0111580D01*
X0018418Y0111346D01*
X0018184Y0111113D01*
X0017717Y0111113D01*
X0017484Y0111346D01*
X0016944Y0111346D02*
X0016711Y0111113D01*
X0016244Y0111113D01*
X0016010Y0111346D01*
X0016244Y0111813D02*
X0016711Y0111813D01*
X0016944Y0111580D01*
X0016944Y0111346D01*
X0016244Y0111813D02*
X0016010Y0112047D01*
X0016010Y0112280D01*
X0016244Y0112514D01*
X0016711Y0112514D01*
X0016944Y0112280D01*
X0015471Y0112280D02*
X0015471Y0112047D01*
X0015238Y0111813D01*
X0014537Y0111813D01*
X0014537Y0111113D02*
X0014537Y0112514D01*
X0015238Y0112514D01*
X0015471Y0112280D01*
X0015238Y0111813D02*
X0015471Y0111580D01*
X0015471Y0111346D01*
X0015238Y0111113D01*
X0014537Y0111113D01*
X0013774Y0103386D02*
X0012673Y0102285D01*
X0013040Y0101918D02*
X0011572Y0103386D01*
X0011572Y0101918D02*
X0013774Y0101918D01*
X0013407Y0101176D02*
X0013774Y0100809D01*
X0013774Y0100075D01*
X0013407Y0099708D01*
X0011939Y0101176D01*
X0013407Y0101176D01*
X0013407Y0099708D02*
X0011939Y0099708D01*
X0011572Y0100075D01*
X0011572Y0100809D01*
X0011939Y0101176D01*
X0013774Y0098966D02*
X0013774Y0097498D01*
X0013774Y0098232D02*
X0011572Y0098232D01*
X0012306Y0097498D01*
X0020430Y0112280D02*
X0020664Y0112514D01*
X0021131Y0112514D01*
X0021364Y0112280D01*
X0021364Y0112047D01*
X0021131Y0111813D01*
X0021364Y0111580D01*
X0021131Y0111813D02*
X0020897Y0111813D01*
X0020664Y0122105D02*
X0020664Y0123573D01*
X0020664Y0122839D02*
X0018462Y0122839D01*
X0019196Y0122105D01*
X0018829Y0124315D02*
X0018462Y0124682D01*
X0018462Y0125416D01*
X0018829Y0125783D01*
X0020297Y0124315D01*
X0020664Y0124682D01*
X0020664Y0125416D01*
X0020297Y0125783D01*
X0018829Y0125783D01*
X0018462Y0126524D02*
X0020664Y0126524D01*
X0019930Y0126524D02*
X0018462Y0127992D01*
X0019563Y0126891D02*
X0020664Y0127992D01*
X0020297Y0124315D02*
X0018829Y0124315D01*
X0020935Y0134735D02*
X0021635Y0134735D01*
X0021869Y0134968D01*
X0021869Y0135202D01*
X0021635Y0135435D01*
X0020935Y0135435D01*
X0021635Y0135435D02*
X0021869Y0135669D01*
X0021869Y0135902D01*
X0021635Y0136136D01*
X0020935Y0136136D01*
X0020935Y0134735D01*
X0022408Y0134968D02*
X0022641Y0134735D01*
X0023108Y0134735D01*
X0023342Y0134968D01*
X0023342Y0135202D01*
X0023108Y0135435D01*
X0022641Y0135435D01*
X0022408Y0135669D01*
X0022408Y0135902D01*
X0022641Y0136136D01*
X0023108Y0136136D01*
X0023342Y0135902D01*
X0023881Y0135902D02*
X0023881Y0135669D01*
X0024115Y0135435D01*
X0024582Y0135435D01*
X0024815Y0135202D01*
X0024815Y0134968D01*
X0024582Y0134735D01*
X0024115Y0134735D01*
X0023881Y0134968D01*
X0023881Y0135902D02*
X0024115Y0136136D01*
X0024582Y0136136D01*
X0024815Y0135902D01*
X0025354Y0135669D02*
X0025821Y0136136D01*
X0025821Y0134735D01*
X0025354Y0134735D02*
X0026289Y0134735D01*
X0026828Y0134968D02*
X0027061Y0134735D01*
X0027528Y0134735D01*
X0027762Y0134968D01*
X0027762Y0135202D01*
X0027528Y0135435D01*
X0027295Y0135435D01*
X0027528Y0135435D02*
X0027762Y0135669D01*
X0027762Y0135902D01*
X0027528Y0136136D01*
X0027061Y0136136D01*
X0026828Y0135902D01*
X0028301Y0135902D02*
X0028301Y0135669D01*
X0028534Y0135435D01*
X0029002Y0135435D01*
X0029235Y0135202D01*
X0029235Y0134968D01*
X0029002Y0134735D01*
X0028534Y0134735D01*
X0028301Y0134968D01*
X0028301Y0135202D01*
X0028534Y0135435D01*
X0029002Y0135435D02*
X0029235Y0135669D01*
X0029235Y0135902D01*
X0029002Y0136136D01*
X0028534Y0136136D01*
X0028301Y0135902D01*
X0033738Y0140632D02*
X0035206Y0140632D01*
X0034472Y0140632D02*
X0034472Y0142834D01*
X0033738Y0142100D01*
X0035948Y0142467D02*
X0035948Y0140999D01*
X0037416Y0142467D01*
X0037416Y0140999D01*
X0037049Y0140632D01*
X0036315Y0140632D01*
X0035948Y0140999D01*
X0035948Y0142467D02*
X0036315Y0142834D01*
X0037049Y0142834D01*
X0037416Y0142467D01*
X0038158Y0142834D02*
X0038158Y0140632D01*
X0038158Y0141366D02*
X0039625Y0142834D01*
X0038525Y0141733D02*
X0039625Y0140632D01*
X0043572Y0136136D02*
X0043572Y0134735D01*
X0044273Y0134735D01*
X0044507Y0134968D01*
X0044507Y0135202D01*
X0044273Y0135435D01*
X0043572Y0135435D01*
X0043572Y0136136D02*
X0044273Y0136136D01*
X0044507Y0135902D01*
X0044507Y0135669D01*
X0044273Y0135435D01*
X0045046Y0135669D02*
X0045279Y0135435D01*
X0045746Y0135435D01*
X0045980Y0135202D01*
X0045980Y0134968D01*
X0045746Y0134735D01*
X0045279Y0134735D01*
X0045046Y0134968D01*
X0045046Y0135669D02*
X0045046Y0135902D01*
X0045279Y0136136D01*
X0045746Y0136136D01*
X0045980Y0135902D01*
X0046519Y0135902D02*
X0046519Y0135669D01*
X0046752Y0135435D01*
X0047220Y0135435D01*
X0047453Y0135202D01*
X0047453Y0134968D01*
X0047220Y0134735D01*
X0046752Y0134735D01*
X0046519Y0134968D01*
X0046519Y0135902D02*
X0046752Y0136136D01*
X0047220Y0136136D01*
X0047453Y0135902D01*
X0047992Y0135669D02*
X0048459Y0136136D01*
X0048459Y0134735D01*
X0047992Y0134735D02*
X0048926Y0134735D01*
X0049465Y0134968D02*
X0049699Y0134735D01*
X0050166Y0134735D01*
X0050400Y0134968D01*
X0050400Y0135202D01*
X0050166Y0135435D01*
X0049933Y0135435D01*
X0050166Y0135435D02*
X0050400Y0135669D01*
X0050400Y0135902D01*
X0050166Y0136136D01*
X0049699Y0136136D01*
X0049465Y0135902D01*
X0050939Y0135902D02*
X0050939Y0135669D01*
X0051172Y0135435D01*
X0051639Y0135435D01*
X0051873Y0135202D01*
X0051873Y0134968D01*
X0051639Y0134735D01*
X0051172Y0134735D01*
X0050939Y0134968D01*
X0050939Y0135202D01*
X0051172Y0135435D01*
X0051639Y0135435D02*
X0051873Y0135669D01*
X0051873Y0135902D01*
X0051639Y0136136D01*
X0051172Y0136136D01*
X0050939Y0135902D01*
X0054899Y0140632D02*
X0056367Y0140632D01*
X0055633Y0140632D02*
X0055633Y0142834D01*
X0054899Y0142100D01*
X0057109Y0142467D02*
X0057109Y0140999D01*
X0058577Y0142467D01*
X0058577Y0140999D01*
X0058210Y0140632D01*
X0057476Y0140632D01*
X0057109Y0140999D01*
X0057109Y0142467D02*
X0057476Y0142834D01*
X0058210Y0142834D01*
X0058577Y0142467D01*
X0059319Y0142834D02*
X0059319Y0140632D01*
X0059319Y0141366D02*
X0060787Y0142834D01*
X0060858Y0142147D02*
X0062326Y0142147D01*
X0063068Y0141413D02*
X0063068Y0141046D01*
X0063068Y0141413D02*
X0064536Y0142881D01*
X0064536Y0143248D01*
X0063068Y0143248D01*
X0061959Y0143248D02*
X0061959Y0141046D01*
X0060858Y0142147D02*
X0061959Y0143248D01*
X0059686Y0141733D02*
X0060787Y0140632D01*
X0065278Y0141046D02*
X0065278Y0143248D01*
X0066379Y0143248D01*
X0066746Y0142881D01*
X0066746Y0142147D01*
X0066379Y0141780D01*
X0065278Y0141780D01*
X0066012Y0141780D02*
X0066746Y0141046D01*
X0066105Y0129655D02*
X0067573Y0128554D01*
X0066105Y0127453D01*
X0065365Y0127453D02*
X0064631Y0127453D01*
X0064998Y0127453D02*
X0064998Y0129655D01*
X0064631Y0129655D02*
X0065365Y0129655D01*
X0063889Y0128554D02*
X0062421Y0128554D01*
X0068314Y0129655D02*
X0069048Y0129655D01*
X0068681Y0129655D02*
X0068681Y0127453D01*
X0068314Y0127453D02*
X0069048Y0127453D01*
X0069788Y0128554D02*
X0071256Y0128554D01*
X0059803Y0116259D02*
X0058335Y0114791D01*
X0058702Y0115158D02*
X0059803Y0114057D01*
X0058335Y0114057D02*
X0058335Y0116259D01*
X0057593Y0115892D02*
X0057593Y0114424D01*
X0057226Y0114057D01*
X0056492Y0114057D01*
X0056125Y0114424D01*
X0057593Y0115892D01*
X0057226Y0116259D01*
X0056492Y0116259D01*
X0056125Y0115892D01*
X0056125Y0114424D01*
X0055383Y0114057D02*
X0053915Y0114057D01*
X0054649Y0114057D02*
X0054649Y0116259D01*
X0053915Y0115525D01*
X0046463Y0112280D02*
X0046463Y0112047D01*
X0046229Y0111813D01*
X0046463Y0111580D01*
X0046229Y0111813D02*
X0045996Y0111813D01*
X0046463Y0112280D02*
X0046229Y0112514D01*
X0045762Y0112514D01*
X0045528Y0112280D01*
D13*
X0037534Y0095896D02*
X0037534Y0092993D01*
X0036567Y0094928D02*
X0037534Y0095896D01*
X0036567Y0094928D02*
X0035599Y0095896D01*
X0035599Y0092993D01*
X0034588Y0093477D02*
X0034588Y0095412D01*
X0034104Y0095896D01*
X0033136Y0095896D01*
X0032653Y0095412D01*
X0032653Y0093477D01*
X0033136Y0092993D01*
X0034104Y0092993D01*
X0034588Y0093477D01*
X0031641Y0092993D02*
X0030674Y0093961D01*
X0031157Y0093961D02*
X0029706Y0093961D01*
X0029706Y0092993D02*
X0029706Y0095896D01*
X0031157Y0095896D01*
X0031641Y0095412D01*
X0031641Y0094445D01*
X0031157Y0093961D01*
X0028695Y0094445D02*
X0028211Y0093961D01*
X0026760Y0093961D01*
X0026760Y0092993D02*
X0026760Y0095896D01*
X0028211Y0095896D01*
X0028695Y0095412D01*
X0028695Y0094445D01*
X0025748Y0095896D02*
X0023813Y0095896D01*
X0023813Y0092993D01*
X0025748Y0092993D01*
X0024781Y0094445D02*
X0023813Y0094445D01*
X0022802Y0095896D02*
X0020867Y0095896D01*
X0020867Y0092993D01*
X0022802Y0092993D01*
X0021834Y0094445D02*
X0020867Y0094445D01*
X0021342Y0062923D02*
X0022793Y0062923D01*
X0023277Y0062440D01*
X0023277Y0061472D01*
X0022793Y0060988D01*
X0021342Y0060988D01*
X0021342Y0060021D02*
X0021342Y0062923D01*
X0020330Y0062440D02*
X0019847Y0062923D01*
X0018879Y0062923D01*
X0018396Y0062440D01*
X0018396Y0061956D01*
X0018879Y0061472D01*
X0019847Y0061472D01*
X0020330Y0060988D01*
X0020330Y0060505D01*
X0019847Y0060021D01*
X0018879Y0060021D01*
X0018396Y0060505D01*
X0017399Y0060021D02*
X0016431Y0060021D01*
X0016915Y0060021D02*
X0016915Y0062923D01*
X0016431Y0062923D02*
X0017399Y0062923D01*
X0015420Y0062923D02*
X0015420Y0060988D01*
X0014452Y0060021D01*
X0013485Y0060988D01*
X0013485Y0062923D01*
X0024289Y0061472D02*
X0026224Y0061472D01*
X0027235Y0060021D02*
X0028686Y0060021D01*
X0029170Y0060505D01*
X0029170Y0062440D01*
X0028686Y0062923D01*
X0027235Y0062923D01*
X0027235Y0060021D01*
X0030182Y0060505D02*
X0030665Y0060021D01*
X0031633Y0060021D01*
X0032117Y0060505D01*
X0032117Y0062923D01*
X0033128Y0061956D02*
X0033128Y0060021D01*
X0033128Y0061472D02*
X0035063Y0061472D01*
X0035063Y0061956D02*
X0035063Y0060021D01*
X0036075Y0060021D02*
X0038010Y0060021D01*
X0039021Y0061472D02*
X0040956Y0061472D01*
X0041968Y0060021D02*
X0042935Y0060021D01*
X0042451Y0060021D02*
X0042451Y0062923D01*
X0041968Y0062923D02*
X0042935Y0062923D01*
X0043932Y0062440D02*
X0044416Y0062923D01*
X0045383Y0062923D01*
X0045867Y0062440D01*
X0045867Y0061956D01*
X0043932Y0060021D01*
X0045867Y0060021D01*
X0046879Y0060505D02*
X0047362Y0060021D01*
X0048330Y0060021D01*
X0048813Y0060505D01*
X0048813Y0062440D02*
X0048330Y0062923D01*
X0047362Y0062923D01*
X0046879Y0062440D01*
X0046879Y0060505D01*
X0036075Y0060021D02*
X0036075Y0062923D01*
X0035063Y0061956D02*
X0034096Y0062923D01*
X0033128Y0061956D01*
X0030182Y0062923D02*
X0030182Y0060505D01*
D14*
X0061563Y0126308D02*
X0072390Y0126308D01*
X0072390Y0135166D01*
X0061563Y0135166D01*
X0061563Y0126308D01*
X0059378Y0145914D02*
X0054378Y0145914D01*
X0051878Y0148414D01*
X0049378Y0145914D01*
X0044378Y0145914D01*
X0041878Y0148414D01*
X0039378Y0145914D01*
X0034378Y0145914D01*
X0031878Y0148414D01*
X0029378Y0145914D01*
X0024378Y0145914D01*
X0021878Y0148414D01*
X0019378Y0145914D01*
X0014378Y0145914D01*
X0011878Y0148414D01*
X0011878Y0153414D01*
X0014378Y0155914D01*
X0019378Y0155914D01*
X0021878Y0153414D01*
X0024378Y0155914D01*
X0029378Y0155914D01*
X0031878Y0153414D01*
X0031878Y0148414D01*
X0031878Y0153414D02*
X0034378Y0155914D01*
X0039378Y0155914D01*
X0041878Y0153414D01*
X0044378Y0155914D01*
X0049378Y0155914D01*
X0051878Y0153414D01*
X0054378Y0155914D01*
X0059378Y0155914D01*
X0061878Y0153414D01*
X0064378Y0155914D01*
X0069378Y0155914D01*
X0071878Y0153414D01*
X0071878Y0148414D01*
X0069378Y0145914D01*
X0064378Y0145914D01*
X0061878Y0148414D01*
X0059378Y0145914D01*
X0061878Y0148414D02*
X0061878Y0153414D01*
X0051878Y0153414D02*
X0051878Y0148414D01*
X0041878Y0148414D02*
X0041878Y0153414D01*
X0021878Y0153414D02*
X0021878Y0148414D01*
D15*
X0021352Y0138258D02*
X0017577Y0138258D01*
X0017577Y0133090D01*
X0021475Y0126527D02*
X0029800Y0126527D01*
X0029800Y0122152D01*
X0021475Y0122152D01*
X0021475Y0126527D01*
X0023231Y0133058D02*
X0025037Y0133058D01*
X0026971Y0138258D02*
X0030746Y0138258D01*
X0030746Y0133090D01*
X0034277Y0131496D02*
X0034277Y0139821D01*
X0038652Y0139821D01*
X0038652Y0131496D01*
X0034277Y0131496D01*
X0040215Y0133090D02*
X0040215Y0138258D01*
X0043990Y0138258D01*
X0045869Y0133058D02*
X0047675Y0133058D01*
X0049609Y0138258D02*
X0053383Y0138258D01*
X0053383Y0133090D01*
X0054946Y0131496D02*
X0059322Y0131496D01*
X0059321Y0139821D01*
X0054946Y0139821D01*
X0054946Y0131496D01*
X0049485Y0125051D02*
X0049485Y0120675D01*
X0041160Y0120675D01*
X0041160Y0125050D01*
X0049485Y0125051D01*
X0049939Y0114144D02*
X0046164Y0114144D01*
X0044230Y0108944D02*
X0042424Y0108944D01*
X0040545Y0114144D02*
X0036770Y0114144D01*
X0036770Y0108976D01*
X0039192Y0102905D02*
X0047517Y0102905D01*
X0047517Y0098530D01*
X0039192Y0098530D01*
X0039192Y0102905D01*
X0039142Y0091465D02*
X0021976Y0091465D01*
X0021976Y0072568D01*
X0020008Y0072568D01*
X0021976Y0072568D02*
X0039142Y0072568D01*
X0022911Y0098037D02*
X0022911Y0102413D01*
X0014585Y0102413D01*
X0014585Y0098037D01*
X0022911Y0098037D01*
X0021976Y0091465D02*
X0020008Y0091465D01*
X0028371Y0105413D02*
X0032747Y0105413D01*
X0032746Y0113738D01*
X0028371Y0113738D01*
X0028371Y0105413D01*
X0025332Y0108976D02*
X0025332Y0114144D01*
X0021557Y0114144D01*
X0019624Y0108944D02*
X0017817Y0108944D01*
X0015939Y0114144D02*
X0012164Y0114144D01*
X0012164Y0108976D01*
X0049939Y0108976D02*
X0049939Y0114144D01*
X0054454Y0113738D02*
X0054454Y0105413D01*
X0058830Y0105413D01*
X0058829Y0113738D01*
X0054454Y0113738D01*
X0057213Y0100497D02*
X0057213Y0093497D01*
X0072213Y0093497D01*
X0072213Y0100497D01*
X0057213Y0100497D01*
X0061169Y0091485D02*
X0067469Y0091485D01*
X0067469Y0078493D02*
X0061169Y0078493D01*
X0060185Y0083414D02*
X0060185Y0086564D01*
X0057213Y0075497D02*
X0057213Y0068497D01*
X0072213Y0068497D01*
X0072213Y0075497D01*
X0057213Y0075497D01*
D16*
X0053394Y0082115D02*
X0049063Y0082115D01*
X0049063Y0085658D01*
X0049063Y0087233D02*
X0049063Y0090776D01*
X0053394Y0090776D01*
X0053394Y0087233D01*
X0053394Y0085658D02*
X0053394Y0082115D01*
X0053295Y0056131D02*
X0056839Y0056131D01*
X0058413Y0056131D02*
X0061957Y0056131D01*
X0061957Y0051800D01*
X0058413Y0051800D01*
X0056839Y0051800D02*
X0053295Y0051800D01*
X0053295Y0056131D01*
X0053295Y0024635D02*
X0056839Y0024635D01*
X0058413Y0024635D02*
X0061957Y0024635D01*
X0061957Y0020304D01*
X0058413Y0020304D01*
X0056839Y0020304D02*
X0053295Y0020304D01*
X0053295Y0024635D01*
X0030461Y0024635D02*
X0030461Y0020304D01*
X0026917Y0020304D01*
X0025343Y0020304D02*
X0021799Y0020304D01*
X0021799Y0024635D01*
X0025343Y0024635D01*
X0026917Y0024635D02*
X0030461Y0024635D01*
X0030461Y0051800D02*
X0026917Y0051800D01*
X0025343Y0051800D02*
X0021799Y0051800D01*
X0021799Y0056131D01*
X0025343Y0056131D01*
X0026917Y0056131D02*
X0030461Y0056131D01*
X0030461Y0051800D01*
X0062646Y0135954D02*
X0062646Y0140284D01*
X0066189Y0140284D01*
X0067764Y0140284D02*
X0071307Y0140284D01*
X0071307Y0135954D01*
X0067764Y0135954D01*
X0066189Y0135954D02*
X0062646Y0135954D01*
D17*
X0061563Y0050520D02*
X0053689Y0050520D01*
X0053689Y0050324D01*
X0058747Y0049438D02*
X0058749Y0049475D01*
X0058755Y0049512D01*
X0058764Y0049548D01*
X0058778Y0049582D01*
X0058795Y0049615D01*
X0058815Y0049647D01*
X0058838Y0049676D01*
X0058864Y0049702D01*
X0058893Y0049725D01*
X0058924Y0049745D01*
X0058958Y0049762D01*
X0058992Y0049776D01*
X0059028Y0049785D01*
X0059065Y0049791D01*
X0059102Y0049793D01*
X0059139Y0049791D01*
X0059176Y0049785D01*
X0059212Y0049776D01*
X0059246Y0049762D01*
X0059279Y0049745D01*
X0059311Y0049725D01*
X0059340Y0049702D01*
X0059366Y0049676D01*
X0059389Y0049647D01*
X0059409Y0049616D01*
X0059426Y0049582D01*
X0059440Y0049548D01*
X0059449Y0049512D01*
X0059455Y0049475D01*
X0059457Y0049438D01*
X0059455Y0049401D01*
X0059449Y0049364D01*
X0059440Y0049328D01*
X0059426Y0049294D01*
X0059409Y0049261D01*
X0059389Y0049229D01*
X0059366Y0049200D01*
X0059340Y0049174D01*
X0059311Y0049151D01*
X0059280Y0049131D01*
X0059246Y0049114D01*
X0059212Y0049100D01*
X0059176Y0049091D01*
X0059139Y0049085D01*
X0059102Y0049083D01*
X0059065Y0049085D01*
X0059028Y0049091D01*
X0058992Y0049100D01*
X0058958Y0049114D01*
X0058925Y0049131D01*
X0058893Y0049151D01*
X0058864Y0049174D01*
X0058838Y0049200D01*
X0058815Y0049229D01*
X0058795Y0049260D01*
X0058778Y0049294D01*
X0058764Y0049328D01*
X0058755Y0049364D01*
X0058749Y0049401D01*
X0058747Y0049438D01*
X0061563Y0050324D02*
X0061563Y0050520D01*
X0061563Y0040875D02*
X0061563Y0040678D01*
X0053689Y0040678D01*
X0053689Y0040875D01*
X0053689Y0019024D02*
X0053689Y0018828D01*
X0053689Y0019024D02*
X0061563Y0019024D01*
X0061563Y0018828D01*
X0058747Y0017942D02*
X0058749Y0017979D01*
X0058755Y0018016D01*
X0058764Y0018052D01*
X0058778Y0018086D01*
X0058795Y0018119D01*
X0058815Y0018151D01*
X0058838Y0018180D01*
X0058864Y0018206D01*
X0058893Y0018229D01*
X0058924Y0018249D01*
X0058958Y0018266D01*
X0058992Y0018280D01*
X0059028Y0018289D01*
X0059065Y0018295D01*
X0059102Y0018297D01*
X0059139Y0018295D01*
X0059176Y0018289D01*
X0059212Y0018280D01*
X0059246Y0018266D01*
X0059279Y0018249D01*
X0059311Y0018229D01*
X0059340Y0018206D01*
X0059366Y0018180D01*
X0059389Y0018151D01*
X0059409Y0018120D01*
X0059426Y0018086D01*
X0059440Y0018052D01*
X0059449Y0018016D01*
X0059455Y0017979D01*
X0059457Y0017942D01*
X0059455Y0017905D01*
X0059449Y0017868D01*
X0059440Y0017832D01*
X0059426Y0017798D01*
X0059409Y0017765D01*
X0059389Y0017733D01*
X0059366Y0017704D01*
X0059340Y0017678D01*
X0059311Y0017655D01*
X0059280Y0017635D01*
X0059246Y0017618D01*
X0059212Y0017604D01*
X0059176Y0017595D01*
X0059139Y0017589D01*
X0059102Y0017587D01*
X0059065Y0017589D01*
X0059028Y0017595D01*
X0058992Y0017604D01*
X0058958Y0017618D01*
X0058925Y0017635D01*
X0058893Y0017655D01*
X0058864Y0017678D01*
X0058838Y0017704D01*
X0058815Y0017733D01*
X0058795Y0017764D01*
X0058778Y0017798D01*
X0058764Y0017832D01*
X0058755Y0017868D01*
X0058749Y0017905D01*
X0058747Y0017942D01*
X0061563Y0009379D02*
X0061563Y0009182D01*
X0053689Y0009182D01*
X0053689Y0009379D01*
X0030067Y0009182D02*
X0030067Y0009379D01*
X0030067Y0009182D02*
X0022193Y0009182D01*
X0022193Y0009379D01*
X0022193Y0018828D02*
X0022193Y0019024D01*
X0030067Y0019024D01*
X0030067Y0018828D01*
X0027251Y0017942D02*
X0027253Y0017979D01*
X0027259Y0018016D01*
X0027268Y0018052D01*
X0027282Y0018086D01*
X0027299Y0018119D01*
X0027319Y0018151D01*
X0027342Y0018180D01*
X0027368Y0018206D01*
X0027397Y0018229D01*
X0027428Y0018249D01*
X0027462Y0018266D01*
X0027496Y0018280D01*
X0027532Y0018289D01*
X0027569Y0018295D01*
X0027606Y0018297D01*
X0027643Y0018295D01*
X0027680Y0018289D01*
X0027716Y0018280D01*
X0027750Y0018266D01*
X0027783Y0018249D01*
X0027815Y0018229D01*
X0027844Y0018206D01*
X0027870Y0018180D01*
X0027893Y0018151D01*
X0027913Y0018120D01*
X0027930Y0018086D01*
X0027944Y0018052D01*
X0027953Y0018016D01*
X0027959Y0017979D01*
X0027961Y0017942D01*
X0027959Y0017905D01*
X0027953Y0017868D01*
X0027944Y0017832D01*
X0027930Y0017798D01*
X0027913Y0017765D01*
X0027893Y0017733D01*
X0027870Y0017704D01*
X0027844Y0017678D01*
X0027815Y0017655D01*
X0027784Y0017635D01*
X0027750Y0017618D01*
X0027716Y0017604D01*
X0027680Y0017595D01*
X0027643Y0017589D01*
X0027606Y0017587D01*
X0027569Y0017589D01*
X0027532Y0017595D01*
X0027496Y0017604D01*
X0027462Y0017618D01*
X0027429Y0017635D01*
X0027397Y0017655D01*
X0027368Y0017678D01*
X0027342Y0017704D01*
X0027319Y0017733D01*
X0027299Y0017764D01*
X0027282Y0017798D01*
X0027268Y0017832D01*
X0027259Y0017868D01*
X0027253Y0017905D01*
X0027251Y0017942D01*
X0030067Y0040678D02*
X0022193Y0040678D01*
X0022193Y0040875D01*
X0022193Y0050324D02*
X0022193Y0050520D01*
X0030067Y0050520D01*
X0030067Y0050324D01*
X0027251Y0049438D02*
X0027253Y0049475D01*
X0027259Y0049512D01*
X0027268Y0049548D01*
X0027282Y0049582D01*
X0027299Y0049615D01*
X0027319Y0049647D01*
X0027342Y0049676D01*
X0027368Y0049702D01*
X0027397Y0049725D01*
X0027428Y0049745D01*
X0027462Y0049762D01*
X0027496Y0049776D01*
X0027532Y0049785D01*
X0027569Y0049791D01*
X0027606Y0049793D01*
X0027643Y0049791D01*
X0027680Y0049785D01*
X0027716Y0049776D01*
X0027750Y0049762D01*
X0027783Y0049745D01*
X0027815Y0049725D01*
X0027844Y0049702D01*
X0027870Y0049676D01*
X0027893Y0049647D01*
X0027913Y0049616D01*
X0027930Y0049582D01*
X0027944Y0049548D01*
X0027953Y0049512D01*
X0027959Y0049475D01*
X0027961Y0049438D01*
X0027959Y0049401D01*
X0027953Y0049364D01*
X0027944Y0049328D01*
X0027930Y0049294D01*
X0027913Y0049261D01*
X0027893Y0049229D01*
X0027870Y0049200D01*
X0027844Y0049174D01*
X0027815Y0049151D01*
X0027784Y0049131D01*
X0027750Y0049114D01*
X0027716Y0049100D01*
X0027680Y0049091D01*
X0027643Y0049085D01*
X0027606Y0049083D01*
X0027569Y0049085D01*
X0027532Y0049091D01*
X0027496Y0049100D01*
X0027462Y0049114D01*
X0027429Y0049131D01*
X0027397Y0049151D01*
X0027368Y0049174D01*
X0027342Y0049200D01*
X0027319Y0049229D01*
X0027299Y0049260D01*
X0027282Y0049294D01*
X0027268Y0049328D01*
X0027259Y0049364D01*
X0027253Y0049401D01*
X0027251Y0049438D01*
X0030067Y0040875D02*
X0030067Y0040678D01*
D18*
X0030681Y0040925D02*
X0030681Y0041675D01*
X0030931Y0041926D01*
X0031181Y0041926D01*
X0031432Y0041675D01*
X0031432Y0040925D01*
X0032182Y0040925D02*
X0032182Y0041675D01*
X0031932Y0041926D01*
X0031682Y0041926D01*
X0031432Y0041675D01*
X0032182Y0042398D02*
X0030681Y0042398D01*
X0031181Y0042898D01*
X0030681Y0043399D01*
X0032182Y0043399D01*
X0032182Y0043871D02*
X0030681Y0043871D01*
X0030681Y0044622D01*
X0030931Y0044872D01*
X0031432Y0044872D01*
X0031682Y0044622D01*
X0031682Y0043871D01*
X0032182Y0045345D02*
X0031181Y0046345D01*
X0030931Y0046345D01*
X0030681Y0046095D01*
X0030681Y0045595D01*
X0030931Y0045345D01*
X0032182Y0045345D02*
X0032182Y0046345D01*
X0031932Y0046818D02*
X0031682Y0046818D01*
X0031432Y0047068D01*
X0031432Y0047568D01*
X0031682Y0047819D01*
X0031932Y0047819D01*
X0032182Y0047568D01*
X0032182Y0047068D01*
X0031932Y0046818D01*
X0031432Y0047068D02*
X0031181Y0046818D01*
X0030931Y0046818D01*
X0030681Y0047068D01*
X0030681Y0047568D01*
X0030931Y0047819D01*
X0031181Y0047819D01*
X0031432Y0047568D01*
X0031932Y0048291D02*
X0030931Y0049292D01*
X0031932Y0049292D01*
X0032182Y0049042D01*
X0032182Y0048541D01*
X0031932Y0048291D01*
X0030931Y0048291D01*
X0030681Y0048541D01*
X0030681Y0049042D01*
X0030931Y0049292D01*
X0030681Y0040925D02*
X0032182Y0040925D01*
X0021085Y0039255D02*
X0020835Y0039255D01*
X0019834Y0040256D01*
X0019584Y0040256D01*
X0019584Y0039255D01*
X0019584Y0038782D02*
X0020835Y0038782D01*
X0021085Y0038532D01*
X0021085Y0038032D01*
X0020835Y0037781D01*
X0019584Y0037781D01*
X0030931Y0017796D02*
X0030681Y0017546D01*
X0030681Y0017045D01*
X0030931Y0016795D01*
X0031932Y0016795D01*
X0030931Y0017796D01*
X0031932Y0017796D01*
X0032182Y0017546D01*
X0032182Y0017045D01*
X0031932Y0016795D01*
X0031932Y0016323D02*
X0032182Y0016072D01*
X0032182Y0015572D01*
X0031932Y0015322D01*
X0031682Y0015322D01*
X0031432Y0015572D01*
X0031432Y0016072D01*
X0031682Y0016323D01*
X0031932Y0016323D01*
X0031432Y0016072D02*
X0031181Y0016323D01*
X0030931Y0016323D01*
X0030681Y0016072D01*
X0030681Y0015572D01*
X0030931Y0015322D01*
X0031181Y0015322D01*
X0031432Y0015572D01*
X0031181Y0014849D02*
X0032182Y0013848D01*
X0032182Y0014849D01*
X0031181Y0014849D02*
X0030931Y0014849D01*
X0030681Y0014599D01*
X0030681Y0014099D01*
X0030931Y0013848D01*
X0030931Y0013376D02*
X0031432Y0013376D01*
X0031682Y0013126D01*
X0031682Y0012375D01*
X0032182Y0012375D02*
X0030681Y0012375D01*
X0030681Y0013126D01*
X0030931Y0013376D01*
X0030681Y0011903D02*
X0032182Y0011903D01*
X0032182Y0010902D02*
X0030681Y0010902D01*
X0031181Y0011402D01*
X0030681Y0011903D01*
X0030931Y0010430D02*
X0031181Y0010430D01*
X0031432Y0010179D01*
X0031432Y0009429D01*
X0032182Y0009429D02*
X0032182Y0010179D01*
X0031932Y0010430D01*
X0031682Y0010430D01*
X0031432Y0010179D01*
X0030931Y0010430D02*
X0030681Y0010179D01*
X0030681Y0009429D01*
X0032182Y0009429D01*
X0021085Y0009494D02*
X0021085Y0008993D01*
X0020835Y0008743D01*
X0020585Y0008743D01*
X0020335Y0008993D01*
X0020335Y0009494D01*
X0020585Y0009744D01*
X0020835Y0009744D01*
X0021085Y0009494D01*
X0020335Y0009494D02*
X0020085Y0009744D01*
X0019834Y0009744D01*
X0019584Y0009494D01*
X0019584Y0008993D01*
X0019834Y0008743D01*
X0020085Y0008743D01*
X0020335Y0008993D01*
X0020835Y0008270D02*
X0019584Y0008270D01*
X0019584Y0007270D02*
X0020835Y0007270D01*
X0021085Y0007520D01*
X0021085Y0008020D01*
X0020835Y0008270D01*
X0051080Y0008270D02*
X0052331Y0008270D01*
X0052581Y0008020D01*
X0052581Y0007520D01*
X0052331Y0007270D01*
X0051080Y0007270D01*
X0051080Y0008743D02*
X0051831Y0008743D01*
X0051581Y0009243D01*
X0051581Y0009494D01*
X0051831Y0009744D01*
X0052331Y0009744D01*
X0052581Y0009494D01*
X0052581Y0008993D01*
X0052331Y0008743D01*
X0051080Y0008743D02*
X0051080Y0009744D01*
X0062177Y0009429D02*
X0062177Y0010179D01*
X0062427Y0010430D01*
X0062677Y0010430D01*
X0062928Y0010179D01*
X0062928Y0009429D01*
X0063678Y0009429D02*
X0063678Y0010179D01*
X0063428Y0010430D01*
X0063178Y0010430D01*
X0062928Y0010179D01*
X0063678Y0010902D02*
X0062177Y0010902D01*
X0062677Y0011402D01*
X0062177Y0011903D01*
X0063678Y0011903D01*
X0063678Y0012375D02*
X0062177Y0012375D01*
X0062177Y0013126D01*
X0062427Y0013376D01*
X0062928Y0013376D01*
X0063178Y0013126D01*
X0063178Y0012375D01*
X0063678Y0013848D02*
X0062677Y0014849D01*
X0062427Y0014849D01*
X0062177Y0014599D01*
X0062177Y0014099D01*
X0062427Y0013848D01*
X0062427Y0015322D02*
X0062677Y0015322D01*
X0062928Y0015572D01*
X0062928Y0016072D01*
X0063178Y0016323D01*
X0063428Y0016323D01*
X0063678Y0016072D01*
X0063678Y0015572D01*
X0063428Y0015322D01*
X0063178Y0015322D01*
X0062928Y0015572D01*
X0062928Y0016072D02*
X0062677Y0016323D01*
X0062427Y0016323D01*
X0062177Y0016072D01*
X0062177Y0015572D01*
X0062427Y0015322D01*
X0062427Y0016795D02*
X0062177Y0017045D01*
X0062177Y0017546D01*
X0062427Y0017796D01*
X0063428Y0016795D01*
X0063678Y0017045D01*
X0063678Y0017546D01*
X0063428Y0017796D01*
X0062427Y0017796D01*
X0062427Y0016795D02*
X0063428Y0016795D01*
X0063678Y0014849D02*
X0063678Y0013848D01*
X0063678Y0009429D02*
X0062177Y0009429D01*
X0051839Y0038274D02*
X0050588Y0038274D01*
X0050588Y0039274D02*
X0051839Y0039274D01*
X0052089Y0039024D01*
X0052089Y0038524D01*
X0051839Y0038274D01*
X0051839Y0039747D02*
X0052089Y0039997D01*
X0052089Y0040497D01*
X0051839Y0040748D01*
X0051589Y0040748D01*
X0051339Y0040497D01*
X0051339Y0039747D01*
X0051839Y0039747D01*
X0051339Y0039747D02*
X0050838Y0040247D01*
X0050588Y0040748D01*
X0062177Y0040925D02*
X0062177Y0041675D01*
X0062427Y0041926D01*
X0062677Y0041926D01*
X0062928Y0041675D01*
X0062928Y0040925D01*
X0063678Y0040925D02*
X0063678Y0041675D01*
X0063428Y0041926D01*
X0063178Y0041926D01*
X0062928Y0041675D01*
X0063678Y0042398D02*
X0062177Y0042398D01*
X0062677Y0042898D01*
X0062177Y0043399D01*
X0063678Y0043399D01*
X0063678Y0043871D02*
X0062177Y0043871D01*
X0062177Y0044622D01*
X0062427Y0044872D01*
X0062928Y0044872D01*
X0063178Y0044622D01*
X0063178Y0043871D01*
X0063678Y0045345D02*
X0062677Y0046345D01*
X0062427Y0046345D01*
X0062177Y0046095D01*
X0062177Y0045595D01*
X0062427Y0045345D01*
X0062427Y0046818D02*
X0062677Y0046818D01*
X0062928Y0047068D01*
X0062928Y0047568D01*
X0063178Y0047819D01*
X0063428Y0047819D01*
X0063678Y0047568D01*
X0063678Y0047068D01*
X0063428Y0046818D01*
X0063178Y0046818D01*
X0062928Y0047068D01*
X0062928Y0047568D02*
X0062677Y0047819D01*
X0062427Y0047819D01*
X0062177Y0047568D01*
X0062177Y0047068D01*
X0062427Y0046818D01*
X0062427Y0048291D02*
X0062177Y0048541D01*
X0062177Y0049042D01*
X0062427Y0049292D01*
X0063428Y0048291D01*
X0063678Y0048541D01*
X0063678Y0049042D01*
X0063428Y0049292D01*
X0062427Y0049292D01*
X0062427Y0048291D02*
X0063428Y0048291D01*
X0063678Y0046345D02*
X0063678Y0045345D01*
X0063678Y0040925D02*
X0062177Y0040925D01*
D19*
X0067567Y0130737D03*
X0067567Y0133690D03*
D20*
X0067567Y0132213D03*
D21*
X0042528Y0089517D03*
X0042528Y0084517D03*
X0042528Y0079517D03*
X0042528Y0074517D03*
X0016622Y0074517D03*
X0016622Y0079517D03*
X0016622Y0084517D03*
X0016622Y0089517D03*
M02*
