  0
SECTION
  2
BLOCKS
  0
ENDSEC
  0
SECTION
  2
ENTITIES
  0
LINE
  8
0
 10
-8.68
 20
-13.8625
 11
-7.75852
 21
-13.8625
  0
LINE
  8
0
 10
-7.75852
 20
-13.8625
 11
-7.52772
 21
-13.6396
  0
LINE
  8
0
 10
-7.52772
 20
-13.6396
 11
-6.92619
 21
-13.1349
  0
LINE
  8
0
 10
-6.92619
 20
-13.1349
 11
-6.29092
 21
-12.6733
  0
LINE
  8
0
 10
-6.29092
 20
-12.6733
 11
-5.625
 21
-12.2572
  0
LINE
  8
0
 10
-5.625
 20
-12.2572
 11
-4.93167
 21
-11.8886
  0
LINE
  8
0
 10
-4.93167
 20
-11.8886
 11
-4.21432
 21
-11.5692
  0
LINE
  8
0
 10
-4.21432
 20
-11.5692
 11
-3.47644
 21
-11.3006
  0
LINE
  8
0
 10
-3.47644
 20
-11.3006
 11
-2.72162
 21
-11.0842
  0
LINE
  8
0
 10
-2.72162
 20
-11.0842
 11
-1.95354
 21
-10.9209
  0
LINE
  8
0
 10
-1.95354
 20
-10.9209
 11
-1.17594
 21
-10.8116
  0
LINE
  8
0
 10
-1.17594
 20
-10.8116
 11
-0.392619
 21
-10.7569
  0
LINE
  8
0
 10
-0.392619
 20
-10.7569
 11
0.392619
 21
-10.7569
  0
LINE
  8
0
 10
0.392619
 20
-10.7569
 11
1.17594
 21
-10.8116
  0
LINE
  8
0
 10
1.17594
 20
-10.8116
 11
1.95354
 21
-10.9209
  0
LINE
  8
0
 10
1.95354
 20
-10.9209
 11
2.72162
 21
-11.0842
  0
LINE
  8
0
 10
2.72162
 20
-11.0842
 11
3.47644
 21
-11.3006
  0
LINE
  8
0
 10
3.47644
 20
-11.3006
 11
4.21432
 21
-11.5692
  0
LINE
  8
0
 10
4.21432
 20
-11.5692
 11
4.93167
 21
-11.8886
  0
LINE
  8
0
 10
4.93167
 20
-11.8886
 11
5.625
 21
-12.2572
  0
LINE
  8
0
 10
5.625
 20
-12.2572
 11
6.29092
 21
-12.6733
  0
LINE
  8
0
 10
6.29092
 20
-12.6733
 11
6.92619
 21
-13.1349
  0
LINE
  8
0
 10
6.92619
 20
-13.1349
 11
7.52772
 21
-13.6396
  0
LINE
  8
0
 10
7.52772
 20
-13.6396
 11
7.75852
 21
-13.8625
  0
LINE
  8
0
 10
7.75852
 20
-13.8625
 11
8.68
 21
-13.8625
  0
LINE
  8
0
 10
8.68
 20
-13.8625
 11
8.68
 21
13.8625
  0
LINE
  8
0
 10
8.68
 20
13.8625
 11
7.75852
 21
13.8625
  0
LINE
  8
0
 10
7.75852
 20
13.8625
 11
7.52772
 21
13.6396
  0
LINE
  8
0
 10
7.52772
 20
13.6396
 11
6.92619
 21
13.1349
  0
LINE
  8
0
 10
6.92619
 20
13.1349
 11
6.29092
 21
12.6733
  0
LINE
  8
0
 10
6.29092
 20
12.6733
 11
5.625
 21
12.2572
  0
LINE
  8
0
 10
5.625
 20
12.2572
 11
4.93167
 21
11.8886
  0
LINE
  8
0
 10
4.93167
 20
11.8886
 11
4.21432
 21
11.5692
  0
LINE
  8
0
 10
4.21432
 20
11.5692
 11
3.47644
 21
11.3006
  0
LINE
  8
0
 10
3.47644
 20
11.3006
 11
2.72162
 21
11.0842
  0
LINE
  8
0
 10
2.72162
 20
11.0842
 11
1.95354
 21
10.9209
  0
LINE
  8
0
 10
1.95354
 20
10.9209
 11
1.17594
 21
10.8116
  0
LINE
  8
0
 10
1.17594
 20
10.8116
 11
0.392619
 21
10.7569
  0
LINE
  8
0
 10
0.392619
 20
10.7569
 11
-0.392619
 21
10.7569
  0
LINE
  8
0
 10
-0.392619
 20
10.7569
 11
-1.17594
 21
10.8116
  0
LINE
  8
0
 10
-1.17594
 20
10.8116
 11
-1.95354
 21
10.9209
  0
LINE
  8
0
 10
-1.95354
 20
10.9209
 11
-2.72162
 21
11.0842
  0
LINE
  8
0
 10
-2.72162
 20
11.0842
 11
-3.47644
 21
11.3006
  0
LINE
  8
0
 10
-3.47644
 20
11.3006
 11
-4.21432
 21
11.5692
  0
LINE
  8
0
 10
-4.21432
 20
11.5692
 11
-4.93167
 21
11.8886
  0
LINE
  8
0
 10
-4.93167
 20
11.8886
 11
-5.625
 21
12.2572
  0
LINE
  8
0
 10
-5.625
 20
12.2572
 11
-6.29092
 21
12.6733
  0
LINE
  8
0
 10
-6.29092
 20
12.6733
 11
-6.92619
 21
13.1349
  0
LINE
  8
0
 10
-6.92619
 20
13.1349
 11
-7.52772
 21
13.6396
  0
LINE
  8
0
 10
-7.52772
 20
13.6396
 11
-7.75852
 21
13.8625
  0
LINE
  8
0
 10
-7.75852
 20
13.8625
 11
-8.68
 21
13.8625
  0
LINE
  8
0
 10
-8.68
 20
13.8625
 11
-8.68
 21
-13.8625
  0
LINE
  8
0
 10
-3.1
 20
0
 11
-3.09245
 21
0.216245
  0
LINE
  8
0
 10
-3.09245
 20
0.216245
 11
-3.06983
 21
0.431437
  0
LINE
  8
0
 10
-3.06983
 20
0.431437
 11
-3.03226
 21
0.644526
  0
LINE
  8
0
 10
-3.03226
 20
0.644526
 11
-2.97991
 21
0.854475
  0
LINE
  8
0
 10
-2.97991
 20
0.854475
 11
-2.91305
 21
1.06026
  0
LINE
  8
0
 10
-2.91305
 20
1.06026
 11
-2.83199
 21
1.26088
  0
LINE
  8
0
 10
-2.83199
 20
1.26088
 11
-2.73714
 21
1.45536
  0
LINE
  8
0
 10
-2.73714
 20
1.45536
 11
-2.62895
 21
1.64275
  0
LINE
  8
0
 10
-2.62895
 20
1.64275
 11
-2.50795
 21
1.82213
  0
LINE
  8
0
 10
-2.50795
 20
1.82213
 11
-2.37474
 21
1.99264
  0
LINE
  8
0
 10
-2.37474
 20
1.99264
 11
-2.22995
 21
2.15344
  0
LINE
  8
0
 10
-2.22995
 20
2.15344
 11
-2.0743
 21
2.30375
  0
LINE
  8
0
 10
-2.0743
 20
2.30375
 11
-1.90855
 21
2.44283
  0
LINE
  8
0
 10
-1.90855
 20
2.44283
 11
-1.7335
 21
2.57002
  0
LINE
  8
0
 10
-1.7335
 20
2.57002
 11
-1.55
 21
2.68468
  0
LINE
  8
0
 10
-1.55
 20
2.68468
 11
-1.35895
 21
2.78626
  0
LINE
  8
0
 10
-1.35895
 20
2.78626
 11
-1.16128
 21
2.87427
  0
LINE
  8
0
 10
-1.16128
 20
2.87427
 11
-0.957952
 21
2.94827
  0
LINE
  8
0
 10
-0.957952
 20
2.94827
 11
-0.749957
 21
3.00792
  0
LINE
  8
0
 10
-0.749957
 20
3.00792
 11
-0.538309
 21
3.0529
  0
LINE
  8
0
 10
-0.538309
 20
3.0529
 11
-0.324038
 21
3.08302
  0
LINE
  8
0
 10
-0.324038
 20
3.08302
 11
-0.108188
 21
3.09811
  0
LINE
  8
0
 10
-0.108188
 20
3.09811
 11
0.108188
 21
3.09811
  0
LINE
  8
0
 10
0.108188
 20
3.09811
 11
0.324038
 21
3.08302
  0
LINE
  8
0
 10
0.324038
 20
3.08302
 11
0.538309
 21
3.0529
  0
LINE
  8
0
 10
0.538309
 20
3.0529
 11
0.749957
 21
3.00792
  0
LINE
  8
0
 10
0.749957
 20
3.00792
 11
0.957952
 21
2.94827
  0
LINE
  8
0
 10
0.957952
 20
2.94827
 11
1.16128
 21
2.87427
  0
LINE
  8
0
 10
1.16128
 20
2.87427
 11
1.35895
 21
2.78626
  0
LINE
  8
0
 10
1.35895
 20
2.78626
 11
1.55
 21
2.68468
  0
LINE
  8
0
 10
1.55
 20
2.68468
 11
1.7335
 21
2.57002
  0
LINE
  8
0
 10
1.7335
 20
2.57002
 11
1.90855
 21
2.44283
  0
LINE
  8
0
 10
1.90855
 20
2.44283
 11
2.0743
 21
2.30375
  0
LINE
  8
0
 10
2.0743
 20
2.30375
 11
2.22995
 21
2.15344
  0
LINE
  8
0
 10
2.22995
 20
2.15344
 11
2.37474
 21
1.99264
  0
LINE
  8
0
 10
2.37474
 20
1.99264
 11
2.50795
 21
1.82213
  0
LINE
  8
0
 10
2.50795
 20
1.82213
 11
2.62895
 21
1.64275
  0
LINE
  8
0
 10
2.62895
 20
1.64275
 11
2.73714
 21
1.45536
  0
LINE
  8
0
 10
2.73714
 20
1.45536
 11
2.83199
 21
1.26088
  0
LINE
  8
0
 10
2.83199
 20
1.26088
 11
2.91305
 21
1.06026
  0
LINE
  8
0
 10
2.91305
 20
1.06026
 11
2.97991
 21
0.854475
  0
LINE
  8
0
 10
2.97991
 20
0.854475
 11
3.03226
 21
0.644526
  0
LINE
  8
0
 10
3.03226
 20
0.644526
 11
3.06983
 21
0.431437
  0
LINE
  8
0
 10
3.06983
 20
0.431437
 11
3.09245
 21
0.216245
  0
LINE
  8
0
 10
3.09245
 20
0.216245
 11
3.1
 21
0
  0
LINE
  8
0
 10
3.1
 20
0
 11
3.09245
 21
-0.216245
  0
LINE
  8
0
 10
3.09245
 20
-0.216245
 11
3.06983
 21
-0.431437
  0
LINE
  8
0
 10
3.06983
 20
-0.431437
 11
3.03226
 21
-0.644526
  0
LINE
  8
0
 10
3.03226
 20
-0.644526
 11
2.97991
 21
-0.854475
  0
LINE
  8
0
 10
2.97991
 20
-0.854475
 11
2.91305
 21
-1.06026
  0
LINE
  8
0
 10
2.91305
 20
-1.06026
 11
2.83199
 21
-1.26088
  0
LINE
  8
0
 10
2.83199
 20
-1.26088
 11
2.73714
 21
-1.45536
  0
LINE
  8
0
 10
2.73714
 20
-1.45536
 11
2.62895
 21
-1.64275
  0
LINE
  8
0
 10
2.62895
 20
-1.64275
 11
2.50795
 21
-1.82213
  0
LINE
  8
0
 10
2.50795
 20
-1.82213
 11
2.37474
 21
-1.99264
  0
LINE
  8
0
 10
2.37474
 20
-1.99264
 11
2.22995
 21
-2.15344
  0
LINE
  8
0
 10
2.22995
 20
-2.15344
 11
2.0743
 21
-2.30375
  0
LINE
  8
0
 10
2.0743
 20
-2.30375
 11
1.90855
 21
-2.44283
  0
LINE
  8
0
 10
1.90855
 20
-2.44283
 11
1.7335
 21
-2.57002
  0
LINE
  8
0
 10
1.7335
 20
-2.57002
 11
1.55
 21
-2.68468
  0
LINE
  8
0
 10
1.55
 20
-2.68468
 11
1.35895
 21
-2.78626
  0
LINE
  8
0
 10
1.35895
 20
-2.78626
 11
1.16128
 21
-2.87427
  0
LINE
  8
0
 10
1.16128
 20
-2.87427
 11
0.957952
 21
-2.94827
  0
LINE
  8
0
 10
0.957952
 20
-2.94827
 11
0.749957
 21
-3.00792
  0
LINE
  8
0
 10
0.749957
 20
-3.00792
 11
0.538309
 21
-3.0529
  0
LINE
  8
0
 10
0.538309
 20
-3.0529
 11
0.324038
 21
-3.08302
  0
LINE
  8
0
 10
0.324038
 20
-3.08302
 11
0.108188
 21
-3.09811
  0
LINE
  8
0
 10
0.108188
 20
-3.09811
 11
-0.108188
 21
-3.09811
  0
LINE
  8
0
 10
-0.108188
 20
-3.09811
 11
-0.324038
 21
-3.08302
  0
LINE
  8
0
 10
-0.324038
 20
-3.08302
 11
-0.538309
 21
-3.0529
  0
LINE
  8
0
 10
-0.538309
 20
-3.0529
 11
-0.749957
 21
-3.00792
  0
LINE
  8
0
 10
-0.749957
 20
-3.00792
 11
-0.957952
 21
-2.94827
  0
LINE
  8
0
 10
-0.957952
 20
-2.94827
 11
-1.16128
 21
-2.87427
  0
LINE
  8
0
 10
-1.16128
 20
-2.87427
 11
-1.35895
 21
-2.78626
  0
LINE
  8
0
 10
-1.35895
 20
-2.78626
 11
-1.55
 21
-2.68468
  0
LINE
  8
0
 10
-1.55
 20
-2.68468
 11
-1.7335
 21
-2.57002
  0
LINE
  8
0
 10
-1.7335
 20
-2.57002
 11
-1.90855
 21
-2.44283
  0
LINE
  8
0
 10
-1.90855
 20
-2.44283
 11
-2.0743
 21
-2.30375
  0
LINE
  8
0
 10
-2.0743
 20
-2.30375
 11
-2.22995
 21
-2.15344
  0
LINE
  8
0
 10
-2.22995
 20
-2.15344
 11
-2.37474
 21
-1.99264
  0
LINE
  8
0
 10
-2.37474
 20
-1.99264
 11
-2.50795
 21
-1.82213
  0
LINE
  8
0
 10
-2.50795
 20
-1.82213
 11
-2.62895
 21
-1.64275
  0
LINE
  8
0
 10
-2.62895
 20
-1.64275
 11
-2.73714
 21
-1.45536
  0
LINE
  8
0
 10
-2.73714
 20
-1.45536
 11
-2.83199
 21
-1.26088
  0
LINE
  8
0
 10
-2.83199
 20
-1.26088
 11
-2.91305
 21
-1.06026
  0
LINE
  8
0
 10
-2.91305
 20
-1.06026
 11
-2.97991
 21
-0.854475
  0
LINE
  8
0
 10
-2.97991
 20
-0.854475
 11
-3.03226
 21
-0.644526
  0
LINE
  8
0
 10
-3.03226
 20
-0.644526
 11
-3.06983
 21
-0.431437
  0
LINE
  8
0
 10
-3.06983
 20
-0.431437
 11
-3.09245
 21
-0.216245
  0
LINE
  8
0
 10
-3.09245
 20
-0.216245
 11
-3.1
 21
0
  0
ENDSEC
  0
SECTION
  2
OBJECTS
  0
DICTIONARY
  0
ENDSEC
  0
EOF
