  0
SECTION
  2
BLOCKS
  0
ENDSEC
  0
SECTION
  2
ENTITIES
  0
LINE
  8
0
 10
-65.21
 20
-97.0173
 11
65.19
 21
-97.0173
  0
LINE
  8
0
 10
65.19
 20
-97.0173
 11
65.22
 21
-97
  0
LINE
  8
0
 10
65.22
 20
-97
 11
65.22
 21
97
  0
LINE
  8
0
 10
65.22
 20
97
 11
65.19
 21
97.0173
  0
LINE
  8
0
 10
65.19
 20
97.0173
 11
-65.21
 21
97.0173
  0
LINE
  8
0
 10
-65.21
 20
97.0173
 11
-65.21
 21
-97.0173
  0
LINE
  8
0
 10
-60.35
 20
-90.6
 11
-60.3161
 21
-90.2777
  0
LINE
  8
0
 10
-60.3161
 20
-90.2777
 11
-60.216
 21
-89.9696
  0
LINE
  8
0
 10
-60.216
 20
-89.9696
 11
-60.054
 21
-89.6889
  0
LINE
  8
0
 10
-60.054
 20
-89.6889
 11
-59.8372
 21
-89.4481
  0
LINE
  8
0
 10
-59.8372
 20
-89.4481
 11
-59.575
 21
-89.2577
  0
LINE
  8
0
 10
-59.575
 20
-89.2577
 11
-59.279
 21
-89.1259
  0
LINE
  8
0
 10
-59.279
 20
-89.1259
 11
-58.962
 21
-89.0585
  0
LINE
  8
0
 10
-58.962
 20
-89.0585
 11
-58.638
 21
-89.0585
  0
LINE
  8
0
 10
-58.638
 20
-89.0585
 11
-58.321
 21
-89.1259
  0
LINE
  8
0
 10
-58.321
 20
-89.1259
 11
-58.025
 21
-89.2577
  0
LINE
  8
0
 10
-58.025
 20
-89.2577
 11
-57.7628
 21
-89.4481
  0
LINE
  8
0
 10
-57.7628
 20
-89.4481
 11
-57.546
 21
-89.6889
  0
LINE
  8
0
 10
-57.546
 20
-89.6889
 11
-57.384
 21
-89.9696
  0
LINE
  8
0
 10
-57.384
 20
-89.9696
 11
-57.2839
 21
-90.2777
  0
LINE
  8
0
 10
-57.2839
 20
-90.2777
 11
-57.25
 21
-90.6
  0
LINE
  8
0
 10
-57.25
 20
-90.6
 11
-57.2839
 21
-90.9223
  0
LINE
  8
0
 10
-57.2839
 20
-90.9223
 11
-57.384
 21
-91.2304
  0
LINE
  8
0
 10
-57.384
 20
-91.2304
 11
-57.546
 21
-91.5111
  0
LINE
  8
0
 10
-57.546
 20
-91.5111
 11
-57.7628
 21
-91.7519
  0
LINE
  8
0
 10
-57.7628
 20
-91.7519
 11
-58.025
 21
-91.9423
  0
LINE
  8
0
 10
-58.025
 20
-91.9423
 11
-58.321
 21
-92.0741
  0
LINE
  8
0
 10
-58.321
 20
-92.0741
 11
-58.638
 21
-92.1415
  0
LINE
  8
0
 10
-58.638
 20
-92.1415
 11
-58.962
 21
-92.1415
  0
LINE
  8
0
 10
-58.962
 20
-92.1415
 11
-59.279
 21
-92.0741
  0
LINE
  8
0
 10
-59.279
 20
-92.0741
 11
-59.575
 21
-91.9423
  0
LINE
  8
0
 10
-59.575
 20
-91.9423
 11
-59.8372
 21
-91.7519
  0
LINE
  8
0
 10
-59.8372
 20
-91.7519
 11
-60.054
 21
-91.5111
  0
LINE
  8
0
 10
-60.054
 20
-91.5111
 11
-60.216
 21
-91.2304
  0
LINE
  8
0
 10
-60.216
 20
-91.2304
 11
-60.3161
 21
-90.9223
  0
LINE
  8
0
 10
-60.3161
 20
-90.9223
 11
-60.35
 21
-90.6
  0
LINE
  8
0
 10
-60.35
 20
90.6
 11
-60.3161
 21
90.9223
  0
LINE
  8
0
 10
-60.3161
 20
90.9223
 11
-60.216
 21
91.2304
  0
LINE
  8
0
 10
-60.216
 20
91.2304
 11
-60.054
 21
91.5111
  0
LINE
  8
0
 10
-60.054
 20
91.5111
 11
-59.8372
 21
91.7519
  0
LINE
  8
0
 10
-59.8372
 20
91.7519
 11
-59.575
 21
91.9423
  0
LINE
  8
0
 10
-59.575
 20
91.9423
 11
-59.279
 21
92.0741
  0
LINE
  8
0
 10
-59.279
 20
92.0741
 11
-58.962
 21
92.1415
  0
LINE
  8
0
 10
-58.962
 20
92.1415
 11
-58.638
 21
92.1415
  0
LINE
  8
0
 10
-58.638
 20
92.1415
 11
-58.321
 21
92.0741
  0
LINE
  8
0
 10
-58.321
 20
92.0741
 11
-58.025
 21
91.9423
  0
LINE
  8
0
 10
-58.025
 20
91.9423
 11
-57.7628
 21
91.7519
  0
LINE
  8
0
 10
-57.7628
 20
91.7519
 11
-57.546
 21
91.5111
  0
LINE
  8
0
 10
-57.546
 20
91.5111
 11
-57.384
 21
91.2304
  0
LINE
  8
0
 10
-57.384
 20
91.2304
 11
-57.2839
 21
90.9223
  0
LINE
  8
0
 10
-57.2839
 20
90.9223
 11
-57.25
 21
90.6
  0
LINE
  8
0
 10
-57.25
 20
90.6
 11
-57.2839
 21
90.2777
  0
LINE
  8
0
 10
-57.2839
 20
90.2777
 11
-57.384
 21
89.9696
  0
LINE
  8
0
 10
-57.384
 20
89.9696
 11
-57.546
 21
89.6889
  0
LINE
  8
0
 10
-57.546
 20
89.6889
 11
-57.7628
 21
89.4481
  0
LINE
  8
0
 10
-57.7628
 20
89.4481
 11
-58.025
 21
89.2577
  0
LINE
  8
0
 10
-58.025
 20
89.2577
 11
-58.321
 21
89.1259
  0
LINE
  8
0
 10
-58.321
 20
89.1259
 11
-58.638
 21
89.0585
  0
LINE
  8
0
 10
-58.638
 20
89.0585
 11
-58.962
 21
89.0585
  0
LINE
  8
0
 10
-58.962
 20
89.0585
 11
-59.279
 21
89.1259
  0
LINE
  8
0
 10
-59.279
 20
89.1259
 11
-59.575
 21
89.2577
  0
LINE
  8
0
 10
-59.575
 20
89.2577
 11
-59.8372
 21
89.4481
  0
LINE
  8
0
 10
-59.8372
 20
89.4481
 11
-60.054
 21
89.6889
  0
LINE
  8
0
 10
-60.054
 20
89.6889
 11
-60.216
 21
89.9696
  0
LINE
  8
0
 10
-60.216
 20
89.9696
 11
-60.3161
 21
90.2777
  0
LINE
  8
0
 10
-60.3161
 20
90.2777
 11
-60.35
 21
90.6
  0
LINE
  8
0
 10
-53
 20
-85
 11
-53
 21
82
  0
LINE
  8
0
 10
-53
 20
82
 11
50.5
 21
82
  0
LINE
  8
0
 10
50.5
 20
82
 11
50.5
 21
-85
  0
LINE
  8
0
 10
50.5
 20
-85
 11
-53
 21
-85
  0
LINE
  8
0
 10
57.25
 20
-90.6
 11
57.2839
 21
-90.2777
  0
LINE
  8
0
 10
57.2839
 20
-90.2777
 11
57.384
 21
-89.9696
  0
LINE
  8
0
 10
57.384
 20
-89.9696
 11
57.546
 21
-89.6889
  0
LINE
  8
0
 10
57.546
 20
-89.6889
 11
57.7628
 21
-89.4481
  0
LINE
  8
0
 10
57.7628
 20
-89.4481
 11
58.025
 21
-89.2577
  0
LINE
  8
0
 10
58.025
 20
-89.2577
 11
58.321
 21
-89.1259
  0
LINE
  8
0
 10
58.321
 20
-89.1259
 11
58.638
 21
-89.0585
  0
LINE
  8
0
 10
58.638
 20
-89.0585
 11
58.962
 21
-89.0585
  0
LINE
  8
0
 10
58.962
 20
-89.0585
 11
59.279
 21
-89.1259
  0
LINE
  8
0
 10
59.279
 20
-89.1259
 11
59.575
 21
-89.2577
  0
LINE
  8
0
 10
59.575
 20
-89.2577
 11
59.8372
 21
-89.4481
  0
LINE
  8
0
 10
59.8372
 20
-89.4481
 11
60.054
 21
-89.6889
  0
LINE
  8
0
 10
60.054
 20
-89.6889
 11
60.216
 21
-89.9696
  0
LINE
  8
0
 10
60.216
 20
-89.9696
 11
60.3161
 21
-90.2777
  0
LINE
  8
0
 10
60.3161
 20
-90.2777
 11
60.35
 21
-90.6
  0
LINE
  8
0
 10
60.35
 20
-90.6
 11
60.3161
 21
-90.9223
  0
LINE
  8
0
 10
60.3161
 20
-90.9223
 11
60.216
 21
-91.2304
  0
LINE
  8
0
 10
60.216
 20
-91.2304
 11
60.054
 21
-91.5111
  0
LINE
  8
0
 10
60.054
 20
-91.5111
 11
59.8372
 21
-91.7519
  0
LINE
  8
0
 10
59.8372
 20
-91.7519
 11
59.575
 21
-91.9423
  0
LINE
  8
0
 10
59.575
 20
-91.9423
 11
59.279
 21
-92.0741
  0
LINE
  8
0
 10
59.279
 20
-92.0741
 11
58.962
 21
-92.1415
  0
LINE
  8
0
 10
58.962
 20
-92.1415
 11
58.638
 21
-92.1415
  0
LINE
  8
0
 10
58.638
 20
-92.1415
 11
58.321
 21
-92.0741
  0
LINE
  8
0
 10
58.321
 20
-92.0741
 11
58.025
 21
-91.9423
  0
LINE
  8
0
 10
58.025
 20
-91.9423
 11
57.7628
 21
-91.7519
  0
LINE
  8
0
 10
57.7628
 20
-91.7519
 11
57.546
 21
-91.5111
  0
LINE
  8
0
 10
57.546
 20
-91.5111
 11
57.384
 21
-91.2304
  0
LINE
  8
0
 10
57.384
 20
-91.2304
 11
57.2839
 21
-90.9223
  0
LINE
  8
0
 10
57.2839
 20
-90.9223
 11
57.25
 21
-90.6
  0
LINE
  8
0
 10
57.25
 20
90.6
 11
57.2839
 21
90.9223
  0
LINE
  8
0
 10
57.2839
 20
90.9223
 11
57.384
 21
91.2304
  0
LINE
  8
0
 10
57.384
 20
91.2304
 11
57.546
 21
91.5111
  0
LINE
  8
0
 10
57.546
 20
91.5111
 11
57.7628
 21
91.7519
  0
LINE
  8
0
 10
57.7628
 20
91.7519
 11
58.025
 21
91.9423
  0
LINE
  8
0
 10
58.025
 20
91.9423
 11
58.321
 21
92.0741
  0
LINE
  8
0
 10
58.321
 20
92.0741
 11
58.638
 21
92.1415
  0
LINE
  8
0
 10
58.638
 20
92.1415
 11
58.962
 21
92.1415
  0
LINE
  8
0
 10
58.962
 20
92.1415
 11
59.279
 21
92.0741
  0
LINE
  8
0
 10
59.279
 20
92.0741
 11
59.575
 21
91.9423
  0
LINE
  8
0
 10
59.575
 20
91.9423
 11
59.8372
 21
91.7519
  0
LINE
  8
0
 10
59.8372
 20
91.7519
 11
60.054
 21
91.5111
  0
LINE
  8
0
 10
60.054
 20
91.5111
 11
60.216
 21
91.2304
  0
LINE
  8
0
 10
60.216
 20
91.2304
 11
60.3161
 21
90.9223
  0
LINE
  8
0
 10
60.3161
 20
90.9223
 11
60.35
 21
90.6
  0
LINE
  8
0
 10
60.35
 20
90.6
 11
60.3161
 21
90.2777
  0
LINE
  8
0
 10
60.3161
 20
90.2777
 11
60.216
 21
89.9696
  0
LINE
  8
0
 10
60.216
 20
89.9696
 11
60.054
 21
89.6889
  0
LINE
  8
0
 10
60.054
 20
89.6889
 11
59.8372
 21
89.4481
  0
LINE
  8
0
 10
59.8372
 20
89.4481
 11
59.575
 21
89.2577
  0
LINE
  8
0
 10
59.575
 20
89.2577
 11
59.279
 21
89.1259
  0
LINE
  8
0
 10
59.279
 20
89.1259
 11
58.962
 21
89.0585
  0
LINE
  8
0
 10
58.962
 20
89.0585
 11
58.638
 21
89.0585
  0
LINE
  8
0
 10
58.638
 20
89.0585
 11
58.321
 21
89.1259
  0
LINE
  8
0
 10
58.321
 20
89.1259
 11
58.025
 21
89.2577
  0
LINE
  8
0
 10
58.025
 20
89.2577
 11
57.7628
 21
89.4481
  0
LINE
  8
0
 10
57.7628
 20
89.4481
 11
57.546
 21
89.6889
  0
LINE
  8
0
 10
57.546
 20
89.6889
 11
57.384
 21
89.9696
  0
LINE
  8
0
 10
57.384
 20
89.9696
 11
57.2839
 21
90.2777
  0
LINE
  8
0
 10
57.2839
 20
90.2777
 11
57.25
 21
90.6
  0
ENDSEC
  0
SECTION
  2
OBJECTS
  0
DICTIONARY
  0
ENDSEC
  0
EOF
