  0
SECTION
  2
BLOCKS
  0
ENDSEC
  0
SECTION
  2
ENTITIES
  0
LINE
  8
0
 10
-68.2
 20
-82.5
 11
-65.21
 21
-82.5
  0
LINE
  8
0
 10
-65.21
 20
-82.5
 11
-65.21
 21
-97.0173
  0
LINE
  8
0
 10
-65.21
 20
-97.0173
 11
-50.325
 21
-97.0173
  0
LINE
  8
0
 10
-50.325
 20
-97.0173
 11
-50.325
 21
-100
  0
LINE
  8
0
 10
-50.325
 20
-100
 11
-35.325
 21
-100
  0
LINE
  8
0
 10
-35.325
 20
-100
 11
-35.325
 21
-97.0173
  0
LINE
  8
0
 10
-35.325
 20
-97.0173
 11
-7.5
 21
-97.0173
  0
LINE
  8
0
 10
-7.5
 20
-97.0173
 11
-7.5
 21
-100
  0
LINE
  8
0
 10
-7.5
 20
-100
 11
7.5
 21
-100
  0
LINE
  8
0
 10
7.5
 20
-100
 11
7.5
 21
-97.0173
  0
LINE
  8
0
 10
7.5
 20
-97.0173
 11
35.325
 21
-97.0173
  0
LINE
  8
0
 10
35.325
 20
-97.0173
 11
35.325
 21
-100
  0
LINE
  8
0
 10
35.325
 20
-100
 11
50.325
 21
-100
  0
LINE
  8
0
 10
50.325
 20
-100
 11
50.325
 21
-97.0173
  0
LINE
  8
0
 10
50.325
 20
-97.0173
 11
65.19
 21
-97.0173
  0
LINE
  8
0
 10
65.19
 20
-97.0173
 11
65.22
 21
-97
  0
LINE
  8
0
 10
65.22
 20
-97
 11
65.22
 21
-82.5
  0
LINE
  8
0
 10
65.22
 20
-82.5
 11
68.2
 21
-82.5
  0
LINE
  8
0
 10
68.2
 20
-82.5
 11
68.2
 21
-67.5
  0
LINE
  8
0
 10
68.2
 20
-67.5
 11
65.22
 21
-67.5
  0
LINE
  8
0
 10
65.22
 20
-67.5
 11
65.22
 21
-45
  0
LINE
  8
0
 10
65.22
 20
-45
 11
68.2
 21
-45
  0
LINE
  8
0
 10
68.2
 20
-45
 11
68.2
 21
-30
  0
LINE
  8
0
 10
68.2
 20
-30
 11
65.22
 21
-30
  0
LINE
  8
0
 10
65.22
 20
-30
 11
65.22
 21
-7.5
  0
LINE
  8
0
 10
65.22
 20
-7.5
 11
68.2
 21
-7.5
  0
LINE
  8
0
 10
68.2
 20
-7.5
 11
68.2
 21
7.5
  0
LINE
  8
0
 10
68.2
 20
7.5
 11
65.22
 21
7.5
  0
LINE
  8
0
 10
65.22
 20
7.5
 11
65.22
 21
30
  0
LINE
  8
0
 10
65.22
 20
30
 11
68.2
 21
30
  0
LINE
  8
0
 10
68.2
 20
30
 11
68.2
 21
45
  0
LINE
  8
0
 10
68.2
 20
45
 11
65.22
 21
45
  0
LINE
  8
0
 10
65.22
 20
45
 11
65.22
 21
67.5
  0
LINE
  8
0
 10
65.22
 20
67.5
 11
68.2
 21
67.5
  0
LINE
  8
0
 10
68.2
 20
67.5
 11
68.2
 21
82.5
  0
LINE
  8
0
 10
68.2
 20
82.5
 11
65.22
 21
82.5
  0
LINE
  8
0
 10
65.22
 20
82.5
 11
65.22
 21
97
  0
LINE
  8
0
 10
65.22
 20
97
 11
65.19
 21
97.0173
  0
LINE
  8
0
 10
65.19
 20
97.0173
 11
50.325
 21
97.0173
  0
LINE
  8
0
 10
50.325
 20
97.0173
 11
50.325
 21
100
  0
LINE
  8
0
 10
50.325
 20
100
 11
35.325
 21
100
  0
LINE
  8
0
 10
35.325
 20
100
 11
35.325
 21
97.0173
  0
LINE
  8
0
 10
35.325
 20
97.0173
 11
7.5
 21
97.0173
  0
LINE
  8
0
 10
7.5
 20
97.0173
 11
7.5
 21
100
  0
LINE
  8
0
 10
7.5
 20
100
 11
-7.5
 21
100
  0
LINE
  8
0
 10
-7.5
 20
100
 11
-7.5
 21
97.0173
  0
LINE
  8
0
 10
-7.5
 20
97.0173
 11
-35.325
 21
97.0173
  0
LINE
  8
0
 10
-35.325
 20
97.0173
 11
-35.325
 21
100
  0
LINE
  8
0
 10
-35.325
 20
100
 11
-50.325
 21
100
  0
LINE
  8
0
 10
-50.325
 20
100
 11
-50.325
 21
97.0173
  0
LINE
  8
0
 10
-50.325
 20
97.0173
 11
-65.21
 21
97.0173
  0
LINE
  8
0
 10
-65.21
 20
97.0173
 11
-65.21
 21
82.5
  0
LINE
  8
0
 10
-65.21
 20
82.5
 11
-68.2
 21
82.5
  0
LINE
  8
0
 10
-68.2
 20
82.5
 11
-68.2
 21
67.5
  0
LINE
  8
0
 10
-68.2
 20
67.5
 11
-65.21
 21
67.5
  0
LINE
  8
0
 10
-65.21
 20
67.5
 11
-65.21
 21
45
  0
LINE
  8
0
 10
-65.21
 20
45
 11
-68.2
 21
45
  0
LINE
  8
0
 10
-68.2
 20
45
 11
-68.2
 21
30
  0
LINE
  8
0
 10
-68.2
 20
30
 11
-65.21
 21
30
  0
LINE
  8
0
 10
-65.21
 20
30
 11
-65.21
 21
7.5
  0
LINE
  8
0
 10
-65.21
 20
7.5
 11
-68.2
 21
7.5
  0
LINE
  8
0
 10
-68.2
 20
7.5
 11
-68.2
 21
-7.5
  0
LINE
  8
0
 10
-68.2
 20
-7.5
 11
-65.21
 21
-7.5
  0
LINE
  8
0
 10
-65.21
 20
-7.5
 11
-65.21
 21
-30
  0
LINE
  8
0
 10
-65.21
 20
-30
 11
-68.2
 21
-30
  0
LINE
  8
0
 10
-68.2
 20
-30
 11
-68.2
 21
-45
  0
LINE
  8
0
 10
-68.2
 20
-45
 11
-65.21
 21
-45
  0
LINE
  8
0
 10
-65.21
 20
-45
 11
-65.21
 21
-67.5
  0
LINE
  8
0
 10
-65.21
 20
-67.5
 11
-68.2
 21
-67.5
  0
LINE
  8
0
 10
-68.2
 20
-67.5
 11
-68.2
 21
-82.5
  0
LINE
  8
0
 10
-60.15
 20
-90.6
 11
-60.1205
 21
-90.3193
  0
LINE
  8
0
 10
-60.1205
 20
-90.3193
 11
-60.0333
 21
-90.0509
  0
LINE
  8
0
 10
-60.0333
 20
-90.0509
 11
-59.8922
 21
-89.8065
  0
LINE
  8
0
 10
-59.8922
 20
-89.8065
 11
-59.7033
 21
-89.5968
  0
LINE
  8
0
 10
-59.7033
 20
-89.5968
 11
-59.475
 21
-89.4309
  0
LINE
  8
0
 10
-59.475
 20
-89.4309
 11
-59.2172
 21
-89.3161
  0
LINE
  8
0
 10
-59.2172
 20
-89.3161
 11
-58.9411
 21
-89.2574
  0
LINE
  8
0
 10
-58.9411
 20
-89.2574
 11
-58.6589
 21
-89.2574
  0
LINE
  8
0
 10
-58.6589
 20
-89.2574
 11
-58.3828
 21
-89.3161
  0
LINE
  8
0
 10
-58.3828
 20
-89.3161
 11
-58.125
 21
-89.4309
  0
LINE
  8
0
 10
-58.125
 20
-89.4309
 11
-57.8967
 21
-89.5968
  0
LINE
  8
0
 10
-57.8967
 20
-89.5968
 11
-57.7078
 21
-89.8065
  0
LINE
  8
0
 10
-57.7078
 20
-89.8065
 11
-57.5667
 21
-90.0509
  0
LINE
  8
0
 10
-57.5667
 20
-90.0509
 11
-57.4795
 21
-90.3193
  0
LINE
  8
0
 10
-57.4795
 20
-90.3193
 11
-57.45
 21
-90.6
  0
LINE
  8
0
 10
-57.45
 20
-90.6
 11
-57.4795
 21
-90.8807
  0
LINE
  8
0
 10
-57.4795
 20
-90.8807
 11
-57.5667
 21
-91.1491
  0
LINE
  8
0
 10
-57.5667
 20
-91.1491
 11
-57.7078
 21
-91.3935
  0
LINE
  8
0
 10
-57.7078
 20
-91.3935
 11
-57.8967
 21
-91.6032
  0
LINE
  8
0
 10
-57.8967
 20
-91.6032
 11
-58.125
 21
-91.7691
  0
LINE
  8
0
 10
-58.125
 20
-91.7691
 11
-58.3828
 21
-91.8839
  0
LINE
  8
0
 10
-58.3828
 20
-91.8839
 11
-58.6589
 21
-91.9426
  0
LINE
  8
0
 10
-58.6589
 20
-91.9426
 11
-58.9411
 21
-91.9426
  0
LINE
  8
0
 10
-58.9411
 20
-91.9426
 11
-59.2172
 21
-91.8839
  0
LINE
  8
0
 10
-59.2172
 20
-91.8839
 11
-59.475
 21
-91.7691
  0
LINE
  8
0
 10
-59.475
 20
-91.7691
 11
-59.7033
 21
-91.6032
  0
LINE
  8
0
 10
-59.7033
 20
-91.6032
 11
-59.8922
 21
-91.3935
  0
LINE
  8
0
 10
-59.8922
 20
-91.3935
 11
-60.0333
 21
-91.1491
  0
LINE
  8
0
 10
-60.0333
 20
-91.1491
 11
-60.1205
 21
-90.8807
  0
LINE
  8
0
 10
-60.1205
 20
-90.8807
 11
-60.15
 21
-90.6
  0
LINE
  8
0
 10
-60.15
 20
90.6
 11
-60.1205
 21
90.8807
  0
LINE
  8
0
 10
-60.1205
 20
90.8807
 11
-60.0333
 21
91.1491
  0
LINE
  8
0
 10
-60.0333
 20
91.1491
 11
-59.8922
 21
91.3935
  0
LINE
  8
0
 10
-59.8922
 20
91.3935
 11
-59.7033
 21
91.6032
  0
LINE
  8
0
 10
-59.7033
 20
91.6032
 11
-59.475
 21
91.7691
  0
LINE
  8
0
 10
-59.475
 20
91.7691
 11
-59.2172
 21
91.8839
  0
LINE
  8
0
 10
-59.2172
 20
91.8839
 11
-58.9411
 21
91.9426
  0
LINE
  8
0
 10
-58.9411
 20
91.9426
 11
-58.6589
 21
91.9426
  0
LINE
  8
0
 10
-58.6589
 20
91.9426
 11
-58.3828
 21
91.8839
  0
LINE
  8
0
 10
-58.3828
 20
91.8839
 11
-58.125
 21
91.7691
  0
LINE
  8
0
 10
-58.125
 20
91.7691
 11
-57.8967
 21
91.6032
  0
LINE
  8
0
 10
-57.8967
 20
91.6032
 11
-57.7078
 21
91.3935
  0
LINE
  8
0
 10
-57.7078
 20
91.3935
 11
-57.5667
 21
91.1491
  0
LINE
  8
0
 10
-57.5667
 20
91.1491
 11
-57.4795
 21
90.8807
  0
LINE
  8
0
 10
-57.4795
 20
90.8807
 11
-57.45
 21
90.6
  0
LINE
  8
0
 10
-57.45
 20
90.6
 11
-57.4795
 21
90.3193
  0
LINE
  8
0
 10
-57.4795
 20
90.3193
 11
-57.5667
 21
90.0509
  0
LINE
  8
0
 10
-57.5667
 20
90.0509
 11
-57.7078
 21
89.8065
  0
LINE
  8
0
 10
-57.7078
 20
89.8065
 11
-57.8967
 21
89.5968
  0
LINE
  8
0
 10
-57.8967
 20
89.5968
 11
-58.125
 21
89.4309
  0
LINE
  8
0
 10
-58.125
 20
89.4309
 11
-58.3828
 21
89.3161
  0
LINE
  8
0
 10
-58.3828
 20
89.3161
 11
-58.6589
 21
89.2574
  0
LINE
  8
0
 10
-58.6589
 20
89.2574
 11
-58.9411
 21
89.2574
  0
LINE
  8
0
 10
-58.9411
 20
89.2574
 11
-59.2172
 21
89.3161
  0
LINE
  8
0
 10
-59.2172
 20
89.3161
 11
-59.475
 21
89.4309
  0
LINE
  8
0
 10
-59.475
 20
89.4309
 11
-59.7033
 21
89.5968
  0
LINE
  8
0
 10
-59.7033
 20
89.5968
 11
-59.8922
 21
89.8065
  0
LINE
  8
0
 10
-59.8922
 20
89.8065
 11
-60.0333
 21
90.0509
  0
LINE
  8
0
 10
-60.0333
 20
90.0509
 11
-60.1205
 21
90.3193
  0
LINE
  8
0
 10
-60.1205
 20
90.3193
 11
-60.15
 21
90.6
  0
LINE
  8
0
 10
-53.65
 20
-84.2
 11
-53.65
 21
84.2
  0
LINE
  8
0
 10
-53.65
 20
84.2
 11
-53.6227
 21
84.4599
  0
LINE
  8
0
 10
-53.6227
 20
84.4599
 11
-53.5419
 21
84.7084
  0
LINE
  8
0
 10
-53.5419
 20
84.7084
 11
-53.4113
 21
84.9347
  0
LINE
  8
0
 10
-53.4113
 20
84.9347
 11
-53.2364
 21
85.1289
  0
LINE
  8
0
 10
-53.2364
 20
85.1289
 11
-53.025
 21
85.2825
  0
LINE
  8
0
 10
-53.025
 20
85.2825
 11
-52.7863
 21
85.3888
  0
LINE
  8
0
 10
-52.7863
 20
85.3888
 11
-52.5307
 21
85.4432
  0
LINE
  8
0
 10
-52.5307
 20
85.4432
 11
52.5307
 21
85.4432
  0
LINE
  8
0
 10
52.5307
 20
85.4432
 11
52.7863
 21
85.3888
  0
LINE
  8
0
 10
52.7863
 20
85.3888
 11
53.025
 21
85.2825
  0
LINE
  8
0
 10
53.025
 20
85.2825
 11
53.2364
 21
85.1289
  0
LINE
  8
0
 10
53.2364
 20
85.1289
 11
53.4113
 21
84.9347
  0
LINE
  8
0
 10
53.4113
 20
84.9347
 11
53.5419
 21
84.7084
  0
LINE
  8
0
 10
53.5419
 20
84.7084
 11
53.6227
 21
84.4599
  0
LINE
  8
0
 10
53.6227
 20
84.4599
 11
53.65
 21
84.2
  0
LINE
  8
0
 10
53.65
 20
84.2
 11
53.65
 21
-84.2
  0
LINE
  8
0
 10
53.65
 20
-84.2
 11
53.6227
 21
-84.4599
  0
LINE
  8
0
 10
53.6227
 20
-84.4599
 11
53.5419
 21
-84.7084
  0
LINE
  8
0
 10
53.5419
 20
-84.7084
 11
53.4113
 21
-84.9347
  0
LINE
  8
0
 10
53.4113
 20
-84.9347
 11
53.2364
 21
-85.1289
  0
LINE
  8
0
 10
53.2364
 20
-85.1289
 11
53.025
 21
-85.2825
  0
LINE
  8
0
 10
53.025
 20
-85.2825
 11
52.7863
 21
-85.3888
  0
LINE
  8
0
 10
52.7863
 20
-85.3888
 11
52.5307
 21
-85.4432
  0
LINE
  8
0
 10
52.5307
 20
-85.4432
 11
-52.5307
 21
-85.4432
  0
LINE
  8
0
 10
-52.5307
 20
-85.4432
 11
-52.7863
 21
-85.3888
  0
LINE
  8
0
 10
-52.7863
 20
-85.3888
 11
-53.025
 21
-85.2825
  0
LINE
  8
0
 10
-53.025
 20
-85.2825
 11
-53.2364
 21
-85.1289
  0
LINE
  8
0
 10
-53.2364
 20
-85.1289
 11
-53.4113
 21
-84.9347
  0
LINE
  8
0
 10
-53.4113
 20
-84.9347
 11
-53.5419
 21
-84.7084
  0
LINE
  8
0
 10
-53.5419
 20
-84.7084
 11
-53.6227
 21
-84.4599
  0
LINE
  8
0
 10
-53.6227
 20
-84.4599
 11
-53.65
 21
-84.2
  0
LINE
  8
0
 10
57.45
 20
-90.6
 11
57.4795
 21
-90.3193
  0
LINE
  8
0
 10
57.4795
 20
-90.3193
 11
57.5667
 21
-90.0509
  0
LINE
  8
0
 10
57.5667
 20
-90.0509
 11
57.7078
 21
-89.8065
  0
LINE
  8
0
 10
57.7078
 20
-89.8065
 11
57.8967
 21
-89.5968
  0
LINE
  8
0
 10
57.8967
 20
-89.5968
 11
58.125
 21
-89.4309
  0
LINE
  8
0
 10
58.125
 20
-89.4309
 11
58.3828
 21
-89.3161
  0
LINE
  8
0
 10
58.3828
 20
-89.3161
 11
58.6589
 21
-89.2574
  0
LINE
  8
0
 10
58.6589
 20
-89.2574
 11
58.9411
 21
-89.2574
  0
LINE
  8
0
 10
58.9411
 20
-89.2574
 11
59.2172
 21
-89.3161
  0
LINE
  8
0
 10
59.2172
 20
-89.3161
 11
59.475
 21
-89.4309
  0
LINE
  8
0
 10
59.475
 20
-89.4309
 11
59.7033
 21
-89.5968
  0
LINE
  8
0
 10
59.7033
 20
-89.5968
 11
59.8922
 21
-89.8065
  0
LINE
  8
0
 10
59.8922
 20
-89.8065
 11
60.0333
 21
-90.0509
  0
LINE
  8
0
 10
60.0333
 20
-90.0509
 11
60.1205
 21
-90.3193
  0
LINE
  8
0
 10
60.1205
 20
-90.3193
 11
60.15
 21
-90.6
  0
LINE
  8
0
 10
60.15
 20
-90.6
 11
60.1205
 21
-90.8807
  0
LINE
  8
0
 10
60.1205
 20
-90.8807
 11
60.0333
 21
-91.1491
  0
LINE
  8
0
 10
60.0333
 20
-91.1491
 11
59.8922
 21
-91.3935
  0
LINE
  8
0
 10
59.8922
 20
-91.3935
 11
59.7033
 21
-91.6032
  0
LINE
  8
0
 10
59.7033
 20
-91.6032
 11
59.475
 21
-91.7691
  0
LINE
  8
0
 10
59.475
 20
-91.7691
 11
59.2172
 21
-91.8839
  0
LINE
  8
0
 10
59.2172
 20
-91.8839
 11
58.9411
 21
-91.9426
  0
LINE
  8
0
 10
58.9411
 20
-91.9426
 11
58.6589
 21
-91.9426
  0
LINE
  8
0
 10
58.6589
 20
-91.9426
 11
58.3828
 21
-91.8839
  0
LINE
  8
0
 10
58.3828
 20
-91.8839
 11
58.125
 21
-91.7691
  0
LINE
  8
0
 10
58.125
 20
-91.7691
 11
57.8967
 21
-91.6032
  0
LINE
  8
0
 10
57.8967
 20
-91.6032
 11
57.7078
 21
-91.3935
  0
LINE
  8
0
 10
57.7078
 20
-91.3935
 11
57.5667
 21
-91.1491
  0
LINE
  8
0
 10
57.5667
 20
-91.1491
 11
57.4795
 21
-90.8807
  0
LINE
  8
0
 10
57.4795
 20
-90.8807
 11
57.45
 21
-90.6
  0
LINE
  8
0
 10
57.45
 20
90.6
 11
57.4795
 21
90.8807
  0
LINE
  8
0
 10
57.4795
 20
90.8807
 11
57.5667
 21
91.1491
  0
LINE
  8
0
 10
57.5667
 20
91.1491
 11
57.7078
 21
91.3935
  0
LINE
  8
0
 10
57.7078
 20
91.3935
 11
57.8967
 21
91.6032
  0
LINE
  8
0
 10
57.8967
 20
91.6032
 11
58.125
 21
91.7691
  0
LINE
  8
0
 10
58.125
 20
91.7691
 11
58.3828
 21
91.8839
  0
LINE
  8
0
 10
58.3828
 20
91.8839
 11
58.6589
 21
91.9426
  0
LINE
  8
0
 10
58.6589
 20
91.9426
 11
58.9411
 21
91.9426
  0
LINE
  8
0
 10
58.9411
 20
91.9426
 11
59.2172
 21
91.8839
  0
LINE
  8
0
 10
59.2172
 20
91.8839
 11
59.475
 21
91.7691
  0
LINE
  8
0
 10
59.475
 20
91.7691
 11
59.7033
 21
91.6032
  0
LINE
  8
0
 10
59.7033
 20
91.6032
 11
59.8922
 21
91.3935
  0
LINE
  8
0
 10
59.8922
 20
91.3935
 11
60.0333
 21
91.1491
  0
LINE
  8
0
 10
60.0333
 20
91.1491
 11
60.1205
 21
90.8807
  0
LINE
  8
0
 10
60.1205
 20
90.8807
 11
60.15
 21
90.6
  0
LINE
  8
0
 10
60.15
 20
90.6
 11
60.1205
 21
90.3193
  0
LINE
  8
0
 10
60.1205
 20
90.3193
 11
60.0333
 21
90.0509
  0
LINE
  8
0
 10
60.0333
 20
90.0509
 11
59.8922
 21
89.8065
  0
LINE
  8
0
 10
59.8922
 20
89.8065
 11
59.7033
 21
89.5968
  0
LINE
  8
0
 10
59.7033
 20
89.5968
 11
59.475
 21
89.4309
  0
LINE
  8
0
 10
59.475
 20
89.4309
 11
59.2172
 21
89.3161
  0
LINE
  8
0
 10
59.2172
 20
89.3161
 11
58.9411
 21
89.2574
  0
LINE
  8
0
 10
58.9411
 20
89.2574
 11
58.6589
 21
89.2574
  0
LINE
  8
0
 10
58.6589
 20
89.2574
 11
58.3828
 21
89.3161
  0
LINE
  8
0
 10
58.3828
 20
89.3161
 11
58.125
 21
89.4309
  0
LINE
  8
0
 10
58.125
 20
89.4309
 11
57.8967
 21
89.5968
  0
LINE
  8
0
 10
57.8967
 20
89.5968
 11
57.7078
 21
89.8065
  0
LINE
  8
0
 10
57.7078
 20
89.8065
 11
57.5667
 21
90.0509
  0
LINE
  8
0
 10
57.5667
 20
90.0509
 11
57.4795
 21
90.3193
  0
LINE
  8
0
 10
57.4795
 20
90.3193
 11
57.45
 21
90.6
  0
ENDSEC
  0
SECTION
  2
OBJECTS
  0
DICTIONARY
  0
ENDSEC
  0
EOF
